{
 "cells": [
  {
   "cell_type": "markdown",
   "id": "211125bb",
   "metadata": {},
   "source": [
    "### Ⅰ. Estimating Resemblance of MIDI Documents"
   ]
  },
  {
   "cell_type": "markdown",
   "id": "ea549314",
   "metadata": {},
   "source": [
    "#### [0]. 참고 사이트\n",
    "- https://www.eecs.harvard.edu/%7Emichaelm/NEWWORK/postscripts/music.pdf"
   ]
  },
  {
   "attachments": {
    "image.png": {
     "image/png": "iVBORw0KGgoAAAANSUhEUgAAAL0AAAAqCAYAAADmtFrLAAAAAXNSR0IArs4c6QAAAARnQU1BAACxjwv8YQUAAAAJcEhZcwAADsMAAA7DAcdvqGQAAAfeSURBVHhe7Zx7iE1fFMfXeDYGf5B3+MMjjPIqRMgYJOUPCUn+mDFNhKbkEeWVCTPGWyTJM888/qK8Z5JBHqWIQeEPxjsZeQz7d777rvtz7519zj1n33vuzJ27P3W6Z+0z2nvts87a66x1tjRhQQZDCtGAfw2GlMEYvSHlMEZvSDmM0RtSDmP0hpTDGL0h5TBGb0g5jNHb0K5dOz7zxs+fP2nHjh0s1eTUqVN09epVluIH+kTfiSaavn6h0tftPTPFKRvS0tJINTXXr1+n27dvU+PGjenHjx/06dMnKioq4qtES5YsoYULF1Lbtm25JZy+ffvSqlWraMqUKdwSH969e0clJSW0YcMGbokPXvXFnG3atEkeWVlZlJmZKdsvXrxI+fn5NHXqVCnHikpfu3tWAxi9oSaqqXn27JmYO3cuS0K8fftW5OXlsSTEvXv3xNq1a1mqyZUrV0ROTo7Ytm0bt8QX9I0xqLAMVl6fNm2ayM3Nlb+Q0W6Hrr5VVVUiPT1dPH36lFuEKCsrExkZGSzFh0h93ZqzCW88cOTIEcrOzmYpsJyOGTOGJaLDhw87evBfv35R69atpbf0A/SNMaiYN28ejRgxgo4dO0Z79+6Vv5DRboeuvnfv3pV69ujRg1uIPnz4QB07dmQpPjjp64Qxeg80a9aMVq9eLePyjx8/yjbLY8pfUF5eTt27d2cpHMvL0+jRo6lz586ujR7/pri4mA4dOiTlPXv20LVr1+jly5fUpUsX2RYK+sYYVHz79o1GjhzJUgDIaLdDV9/S0tKwvh4/fkw7d+6UD5oT8dTXCWP0HigoKJCeDzFshw4daPfu3XwlQHV1NTVs2JClf8DDw7iaNGlCLVq0ICtM4CvOvHnzhtq3b0/Pnz+XMrxaq1atqGvXrjRo0CDZFgr6xhhUNG/enM/CsWsHuvrCUOHpz549K4/ly5dLrzxw4ED+CzXx1NcRDnMMEThNzd+/f4V1Y0XPnj25JcDgwYP5LJxz586JZcuWCesFVsycOVNMmDCBrzjz5csXMW7cOHHnzh1hPTjCelkUv3//ltcOHDggfyOxG8Ps2bP5LBy79lC86Pvnzx9hPdjC8u7cEnifaNOmjXxHcCJWfd2as/H0Ljl+/DifBbIEo0aNcpUig5eHdy8sLKSVK1fS/Pnz6fXr13zVGWRMnjx5Ij3kw4cPqV+/ftSoUSN5zclDxwNdfW/dukVNmzYNi+fB9+/fyTJqltQkSl9j9C5BXBuaF8ayPWvWLJYC4AZZno6lABcuXKDhw4ezRHK5dptPR+yPl78GDRrQixcvqFu3brIdKcQ+ffrI81DQd9BIYkVX35s3b8p4PjTsQWoRczBgwABuUZMofWMy+miFCb8KMSDRxRh4OfS5ZcsWebx//56s0ICvBhg6dChZSzhLRIsWLaIFCxbQgwcPpPzq1StpABUVFfIFMRRVzNqpUyfq378/HT16lL5+/Sr1PXPmjFwpevXqxX/1D/SNMajwGtPr6Lt+/Xrav3+/HCvOceTl5cmX4NOnT0tjDuK3vo5wmKPF4sWLRWVlJUs1yczMFCdPnmQpOogdN27cKKynXca+69atk0dWVpawllv+qwDoF/37hc7URMvTO1FcXMxn+kTmrf2mrunr9p5pe/r79+9Ty5Yt/6/ERQIPP2TIEPlG7hbEjnPmzKHPnz/TihUraOnSpfKAV8zJyeG/CoB+0T/GUVfA8g0PhWqhVzBXsYA+0Xe0ECKeJKu+2kZvV5gIoluI8VLY0C1O+MmaNWvoxIkTLLkH8xUL6BN9J5qk1Jc9vhIrDhP5+fli69atYt++fWLs2LF8RYhhw4aJ6upqlsK5fPmysOIxWW63YlpudQeWrBkzZrAkxKNHj0R2drawHgZu+Qf6xzj8AOkyQ3Lh9p45fnCGChpSR+np6TRx4kRZIdu1a5e8huUJ6alI8AQjYzFp0iT5UnP+/Pmw9Fc0rAeLevfuLT9WAgcPHqTx48fLj5VU2I0D4MOuqqoqlsLJyMiQ11UgzDIkP7amDaO3w4qtZbFA5WXjXYgBOoUNu3HEAqbFHMl/2OHo6fEpKXKl+PYhMh+q8rDw8jdu3JDfmADkV3Nzc+Vq4QbkeLFCoEwfzPMibYUYH5+4qtJcfnh6Qz1Hmr4N5eXl0tOrUMX08PKI5YNUVFQI64WUpeiUlJSIyZMnsxSgsLBQjgGrQCR+xvSG+otj9gaZFMTTKuJdiPFS2AiiXZxwgZuSuwqsTLVRsEt0sS5INH39QqWv63vGxu+Z2i5MAD+LMXZTgw+vioqKxObNm2XhzHrY+UqAeBfs3OJXsc6rvl4KjLGg0tetOWsbPYh2g+0oLS3lM338uslBVBOIl+lk3TlVUFDAZ+HYtQNdfev1zqnaKkyA2ijGJPPOKbvNIk6bSMzOKQX4hNRpu5kdoROnC/pF/4kkmXdO6WB2ThmSeueUDmbnVIrhNDVm51QAVV86BcYgZudUHSPZd055jenNzimD9k6iurJzCkaDWDsUyHbGpKtvvd85lUrAy3ndSVSXdk5h7GVlZTR9+nQ5bvxCtiss6ejrpcDot76OcJhjiEBnaqLl6Z0wO6e8Uyt5ekM4ZueUe2pVXzZ+QwS6U4NMxfbt21lyz6VLl/hMD/SJvhNNXdLX7T0z/2uxDYhpKysrWTIkA27vmTF6Q8phYnpDikH0HxuD/sdYsdl0AAAAAElFTkSuQmCC"
    }
   },
   "cell_type": "markdown",
   "id": "b3b114c0",
   "metadata": {},
   "source": [
    "#### [1]. 내용\n",
    "- \"텍스트 유사성\"을 바탕 ( Hashing technique for text similarity\n",
    "    - Jaccard Index ( 자카드 인덱스) \n",
    "        + r(A;B) : 0 ~ 1 사이의 값 ( 1 : 동일 )\n",
    "    ![image.png](attachment:image.png)\n",
    "    - Midi 데이터 적용 시 한계점\n",
    "        + 다성 ( Polyphony )\n",
    "            - 텍스트 : byte sequence\n",
    "            - 음악 노트 : 논리적으로 병렬적 발생\n",
    "                - 따라서, 음표 이벤트의 일련의 직렬화 과정이 필요\n",
    "- 분리 작업\n",
    "    - pitch by pitch ( 128가지 )\n",
    "        - 음높이의 음표를 분리\n",
    "        - 각 음높이의 음표 시작 시간의 시퀀스를 독립적으로 지문화\n",
    "        - 연속 부분 수열을 (쉴글) 로 그룹화\n",
    "    - 시간 별 ( tick )\n",
    "        - MIDI 파일의 시간 : tick (1/120분)\n",
    "    - tempo"
   ]
  },
  {
   "cell_type": "code",
   "execution_count": 1,
   "id": "3fbd7482",
   "metadata": {},
   "outputs": [
    {
     "name": "stdout",
     "output_type": "stream",
     "text": [
      "Requirement already satisfied: editdistance in c:\\users\\user\\anaconda3\\lib\\site-packages (0.6.2)\n"
     ]
    }
   ],
   "source": [
    "!pip install editdistance"
   ]
  },
  {
   "cell_type": "code",
   "execution_count": 2,
   "id": "6c32d2e3",
   "metadata": {},
   "outputs": [],
   "source": [
    "import mido\n",
    "import editdistance"
   ]
  },
  {
   "cell_type": "markdown",
   "id": "1f51f5ed",
   "metadata": {},
   "source": [
    "#### (0). 파일 분리"
   ]
  },
  {
   "cell_type": "code",
   "execution_count": 3,
   "id": "c6bb9a4b",
   "metadata": {},
   "outputs": [],
   "source": [
    "def concat_path(path, child):\n",
    "    return path + \"/\" + child"
   ]
  },
  {
   "cell_type": "markdown",
   "id": "969ca1f8",
   "metadata": {},
   "source": [
    "#### (1). compare 파일"
   ]
  },
  {
   "cell_type": "code",
   "execution_count": null,
   "id": "7363570e",
   "metadata": {
    "collapsed": true
   },
   "outputs": [],
   "source": [
    "def compare_midi_file(file1, file2):\n",
    "    mid1 = mido.MidiFile(file1)\n",
    "    mid2 = mido.MidiFile(file2)\n",
    "    \n",
    "    note1 = []\n",
    "    for msg in mido.merge_tracks(mid1.tracks):\n",
    "        "
   ]
  },
  {
   "cell_type": "code",
   "execution_count": null,
   "id": "0468ca90",
   "metadata": {},
   "outputs": [],
   "source": []
  },
  {
   "cell_type": "code",
   "execution_count": 8,
   "id": "b01bb1a4",
   "metadata": {},
   "outputs": [
    {
     "name": "stdout",
     "output_type": "stream",
     "text": [
      "MidiFile(type=1, ticks_per_beat=120, tracks=[\n",
      "  MidiTrack([\n",
      "    MetaMessage('sequencer_specific', data=(0, 0, 65), time=0),\n",
      "    MetaMessage('track_name', name='JESU        ', time=0),\n",
      "    MetaMessage('key_signature', key='G', time=0),\n",
      "    MetaMessage('midi_port', port=0, time=0),\n",
      "    MetaMessage('time_signature', numerator=9, denominator=8, clocks_per_click=24, notated_32nd_notes_per_beat=8, time=0),\n",
      "    MetaMessage('set_tempo', tempo=500000, time=38340),\n",
      "    MetaMessage('end_of_track', time=0)]),\n",
      "  MidiTrack([\n",
      "    MetaMessage('track_name', name=\"Jesu, Joy of Man's\", time=0),\n",
      "    MetaMessage('instrument_name', name='Synths Strings 1', time=0),\n",
      "    MetaMessage('midi_port', port=0, time=0),\n",
      "    Message('control_change', channel=0, control=0, value=80, time=0),\n",
      "    Message('control_change', channel=0, control=32, value=0, time=0),\n",
      "    Message('program_change', channel=0, program=50, time=0),\n",
      "    Message('note_on', channel=0, note=67, velocity=104, time=60),\n",
      "    Message('note_on', channel=0, note=67, velocity=0, time=48),\n",
      "    Message('note_on', channel=0, note=69, velocity=104, time=12),\n",
      "    Message('note_on', channel=0, note=69, velocity=0, time=48),\n",
      "    Message('note_on', channel=0, note=71, velocity=104, time=12),\n",
      "    Message('note_on', channel=0, note=71, velocity=0, time=48),\n",
      "    Message('note_on', channel=0, note=74, velocity=104, time=12),\n",
      "    Message('note_on', channel=0, note=74, velocity=0, time=48),\n",
      "    Message('note_on', channel=0, note=72, velocity=104, time=12),\n",
      "    Message('note_on', channel=0, note=72, velocity=0, time=48),\n",
      "    Message('note_on', channel=0, note=72, velocity=104, time=12),\n",
      "    Message('note_on', channel=0, note=72, velocity=0, time=48),\n",
      "    Message('note_on', channel=0, note=76, velocity=104, time=12),\n",
      "    Message('note_on', channel=0, note=76, velocity=0, time=48),\n",
      "    Message('note_on', channel=0, note=74, velocity=104, time=12),\n",
      "    Message('note_on', channel=0, note=74, velocity=0, time=48),\n",
      "    Message('note_on', channel=0, note=74, velocity=104, time=12),\n",
      "    Message('note_on', channel=0, note=74, velocity=0, time=48),\n",
      "    Message('note_on', channel=0, note=79, velocity=104, time=12),\n",
      "    Message('note_on', channel=0, note=79, velocity=0, time=48),\n",
      "    Message('note_on', channel=0, note=78, velocity=104, time=12),\n",
      "    Message('note_on', channel=0, note=78, velocity=0, time=48),\n",
      "    Message('note_on', channel=0, note=79, velocity=104, time=12),\n",
      "    Message('note_on', channel=0, note=79, velocity=0, time=48),\n",
      "    Message('note_on', channel=0, note=74, velocity=104, time=12),\n",
      "    Message('note_on', channel=0, note=74, velocity=0, time=48),\n",
      "    Message('note_on', channel=0, note=71, velocity=104, time=12),\n",
      "    Message('note_on', channel=0, note=71, velocity=0, time=48),\n",
      "    Message('note_on', channel=0, note=67, velocity=104, time=12),\n",
      "    Message('note_on', channel=0, note=67, velocity=0, time=48),\n",
      "    Message('note_on', channel=0, note=69, velocity=104, time=12),\n",
      "    Message('note_on', channel=0, note=69, velocity=0, time=48),\n",
      "    Message('note_on', channel=0, note=71, velocity=104, time=12),\n",
      "    Message('note_on', channel=0, note=71, velocity=0, time=48),\n",
      "    Message('note_on', channel=0, note=72, velocity=104, time=12),\n",
      "    Message('note_on', channel=0, note=72, velocity=0, time=48),\n",
      "    Message('note_on', channel=0, note=74, velocity=104, time=12),\n",
      "    Message('note_on', channel=0, note=74, velocity=0, time=48),\n",
      "    Message('note_on', channel=0, note=76, velocity=104, time=12),\n",
      "    Message('note_on', channel=0, note=76, velocity=0, time=48),\n",
      "    Message('note_on', channel=0, note=74, velocity=104, time=12),\n",
      "    Message('note_on', channel=0, note=74, velocity=0, time=48),\n",
      "    Message('note_on', channel=0, note=72, velocity=104, time=12),\n",
      "    Message('note_on', channel=0, note=72, velocity=0, time=48),\n",
      "    Message('note_on', channel=0, note=71, velocity=104, time=12),\n",
      "    Message('note_on', channel=0, note=71, velocity=0, time=48),\n",
      "    Message('note_on', channel=0, note=69, velocity=104, time=12),\n",
      "    Message('note_on', channel=0, note=69, velocity=0, time=48),\n",
      "    Message('note_on', channel=0, note=71, velocity=104, time=12),\n",
      "    Message('note_on', channel=0, note=71, velocity=0, time=48),\n",
      "    Message('note_on', channel=0, note=67, velocity=104, time=12),\n",
      "    Message('note_on', channel=0, note=67, velocity=0, time=48),\n",
      "    Message('note_on', channel=0, note=66, velocity=104, time=12),\n",
      "    Message('note_on', channel=0, note=66, velocity=0, time=48),\n",
      "    Message('note_on', channel=0, note=67, velocity=104, time=12),\n",
      "    Message('note_on', channel=0, note=67, velocity=0, time=48),\n",
      "    Message('note_on', channel=0, note=69, velocity=104, time=12),\n",
      "    Message('note_on', channel=0, note=69, velocity=0, time=48),\n",
      "    Message('note_on', channel=0, note=62, velocity=104, time=12),\n",
      "    Message('note_on', channel=0, note=62, velocity=0, time=48),\n",
      "    Message('note_on', channel=0, note=66, velocity=104, time=12),\n",
      "    Message('note_on', channel=0, note=66, velocity=0, time=48),\n",
      "    Message('note_on', channel=0, note=69, velocity=104, time=12),\n",
      "    Message('note_on', channel=0, note=69, velocity=0, time=48),\n",
      "    Message('note_on', channel=0, note=72, velocity=104, time=12),\n",
      "    Message('note_on', channel=0, note=72, velocity=0, time=48),\n",
      "    Message('note_on', channel=0, note=71, velocity=104, time=12),\n",
      "    Message('note_on', channel=0, note=71, velocity=0, time=48),\n",
      "    Message('note_on', channel=0, note=69, velocity=104, time=12),\n",
      "    Message('note_on', channel=0, note=69, velocity=0, time=48),\n",
      "    Message('note_on', channel=0, note=71, velocity=104, time=12),\n",
      "    Message('note_on', channel=0, note=71, velocity=0, time=48),\n",
      "    Message('note_on', channel=0, note=67, velocity=104, time=12),\n",
      "    Message('note_on', channel=0, note=67, velocity=0, time=48),\n",
      "    Message('note_on', channel=0, note=69, velocity=104, time=12),\n",
      "    Message('note_on', channel=0, note=69, velocity=0, time=48),\n",
      "    Message('note_on', channel=0, note=71, velocity=104, time=12),\n",
      "    Message('note_on', channel=0, note=71, velocity=0, time=48),\n",
      "    Message('note_on', channel=0, note=74, velocity=104, time=12),\n",
      "    Message('note_on', channel=0, note=74, velocity=0, time=48),\n",
      "    Message('note_on', channel=0, note=72, velocity=104, time=12),\n",
      "    Message('note_on', channel=0, note=72, velocity=0, time=48),\n",
      "    Message('note_on', channel=0, note=72, velocity=104, time=12),\n",
      "    Message('note_on', channel=0, note=72, velocity=0, time=48),\n",
      "    Message('note_on', channel=0, note=76, velocity=104, time=12),\n",
      "    Message('note_on', channel=0, note=76, velocity=0, time=48),\n",
      "    Message('note_on', channel=0, note=74, velocity=104, time=12),\n",
      "    Message('note_on', channel=0, note=74, velocity=0, time=48),\n",
      "    Message('note_on', channel=0, note=74, velocity=104, time=12),\n",
      "    Message('note_on', channel=0, note=74, velocity=0, time=48),\n",
      "    Message('note_on', channel=0, note=79, velocity=104, time=12),\n",
      "    Message('note_on', channel=0, note=79, velocity=0, time=48),\n",
      "    Message('note_on', channel=0, note=78, velocity=104, time=12),\n",
      "    Message('note_on', channel=0, note=78, velocity=0, time=48),\n",
      "    Message('note_on', channel=0, note=79, velocity=104, time=12),\n",
      "    Message('note_on', channel=0, note=79, velocity=0, time=48),\n",
      "    Message('note_on', channel=0, note=74, velocity=104, time=12),\n",
      "    Message('note_on', channel=0, note=74, velocity=0, time=48),\n",
      "    Message('note_on', channel=0, note=71, velocity=104, time=12),\n",
      "    Message('note_on', channel=0, note=71, velocity=0, time=48),\n",
      "    Message('note_on', channel=0, note=67, velocity=104, time=12),\n",
      "    Message('note_on', channel=0, note=67, velocity=0, time=48),\n",
      "    Message('note_on', channel=0, note=69, velocity=104, time=12),\n",
      "    Message('note_on', channel=0, note=69, velocity=0, time=48),\n",
      "    Message('note_on', channel=0, note=71, velocity=104, time=12),\n",
      "    Message('note_on', channel=0, note=71, velocity=0, time=48),\n",
      "    Message('note_on', channel=0, note=64, velocity=104, time=12),\n",
      "    Message('note_on', channel=0, note=64, velocity=0, time=48),\n",
      "    Message('note_on', channel=0, note=74, velocity=104, time=12),\n",
      "    Message('note_on', channel=0, note=74, velocity=0, time=48),\n",
      "    Message('note_on', channel=0, note=72, velocity=104, time=12),\n",
      "    Message('note_on', channel=0, note=72, velocity=0, time=48),\n",
      "    Message('note_on', channel=0, note=71, velocity=104, time=12),\n",
      "    Message('note_on', channel=0, note=71, velocity=0, time=48),\n",
      "    Message('note_on', channel=0, note=69, velocity=104, time=12),\n",
      "    Message('note_on', channel=0, note=69, velocity=0, time=48),\n",
      "    Message('note_on', channel=0, note=67, velocity=104, time=12),\n",
      "    Message('note_on', channel=0, note=67, velocity=0, time=48),\n",
      "    Message('note_on', channel=0, note=62, velocity=104, time=12),\n",
      "    Message('note_on', channel=0, note=62, velocity=0, time=48),\n",
      "    Message('note_on', channel=0, note=67, velocity=104, time=12),\n",
      "    Message('note_on', channel=0, note=67, velocity=0, time=48),\n",
      "    Message('note_on', channel=0, note=66, velocity=104, time=12),\n",
      "    Message('note_on', channel=0, note=66, velocity=0, time=48),\n",
      "    Message('note_on', channel=0, note=67, velocity=104, time=12),\n",
      "    Message('note_on', channel=0, note=67, velocity=0, time=48),\n",
      "    Message('note_on', channel=0, note=71, velocity=104, time=12),\n",
      "    Message('note_on', channel=0, note=71, velocity=0, time=48),\n",
      "    Message('note_on', channel=0, note=74, velocity=104, time=12),\n",
      "    Message('note_on', channel=0, note=74, velocity=0, time=48),\n",
      "    Message('note_on', channel=0, note=79, velocity=104, time=12),\n",
      "    Message('note_on', channel=0, note=79, velocity=0, time=48),\n",
      "    Message('note_on', channel=0, note=74, velocity=104, time=12),\n",
      "    Message('note_on', channel=0, note=74, velocity=0, time=48),\n",
      "    Message('note_on', channel=0, note=71, velocity=104, time=12),\n",
      "    Message('note_on', channel=0, note=71, velocity=0, time=48),\n",
      "    Message('note_on', channel=0, note=67, velocity=104, time=12),\n",
      "    Message('note_on', channel=0, note=67, velocity=0, time=48),\n",
      "    Message('note_on', channel=0, note=71, velocity=104, time=12),\n",
      "    Message('note_on', channel=0, note=71, velocity=0, time=48),\n",
      "    Message('note_on', channel=0, note=74, velocity=104, time=12),\n",
      "    Message('note_on', channel=0, note=74, velocity=0, time=48),\n",
      "    Message('note_on', channel=0, note=62, velocity=104, time=12),\n",
      "    Message('note_on', channel=0, note=71, velocity=104, time=0),\n",
      "    Message('note_on', channel=0, note=67, velocity=104, time=0),\n",
      "    Message('note_on', channel=0, note=62, velocity=0, time=336),\n",
      "    Message('note_on', channel=0, note=71, velocity=0, time=0),\n",
      "    Message('note_on', channel=0, note=67, velocity=0, time=0),\n",
      "    Message('note_on', channel=0, note=64, velocity=104, time=24),\n",
      "    Message('note_on', channel=0, note=67, velocity=104, time=0),\n",
      "    Message('note_on', channel=0, note=60, velocity=104, time=0),\n",
      "    Message('note_on', channel=0, note=72, velocity=104, time=0),\n",
      "    Message('note_on', channel=0, note=64, velocity=0, time=168),\n",
      "    Message('note_on', channel=0, note=67, velocity=0, time=0),\n",
      "    Message('note_on', channel=0, note=60, velocity=0, time=0),\n",
      "    Message('note_on', channel=0, note=72, velocity=0, time=0),\n",
      "    Message('note_on', channel=0, note=74, velocity=104, time=12),\n",
      "    Message('note_on', channel=0, note=74, velocity=0, time=336),\n",
      "    Message('note_on', channel=0, note=66, velocity=104, time=24),\n",
      "    Message('note_on', channel=0, note=71, velocity=104, time=0),\n",
      "    Message('note_on', channel=0, note=74, velocity=104, time=0),\n",
      "    Message('note_on', channel=0, note=62, velocity=104, time=0),\n",
      "    Message('note_on', channel=0, note=66, velocity=0, time=168),\n",
      "    Message('note_on', channel=0, note=71, velocity=0, time=0),\n",
      "    Message('note_on', channel=0, note=74, velocity=0, time=0),\n",
      "    Message('note_on', channel=0, note=62, velocity=0, time=0),\n",
      "    Message('note_on', channel=0, note=72, velocity=104, time=12),\n",
      "    Message('note_on', channel=0, note=72, velocity=0, time=336),\n",
      "    Message('note_on', channel=0, note=67, velocity=104, time=24),\n",
      "    Message('note_on', channel=0, note=62, velocity=104, time=0),\n",
      "    Message('note_on', channel=0, note=71, velocity=104, time=0),\n",
      "    Message('note_on', channel=0, note=67, velocity=0, time=168),\n",
      "    Message('note_on', channel=0, note=62, velocity=0, time=0),\n",
      "    Message('note_on', channel=0, note=71, velocity=0, time=0),\n",
      "    Message('note_on', channel=0, note=66, velocity=104, time=12),\n",
      "    Message('note_on', channel=0, note=69, velocity=104, time=0),\n",
      "    Message('note_on', channel=0, note=66, velocity=0, time=48),\n",
      "    Message('note_on', channel=0, note=69, velocity=0, time=0),\n",
      "    Message('note_on', channel=0, note=62, velocity=104, time=12),\n",
      "    Message('note_on', channel=0, note=62, velocity=0, time=48),\n",
      "    Message('note_on', channel=0, note=64, velocity=104, time=12),\n",
      "    Message('note_on', channel=0, note=64, velocity=0, time=48),\n",
      "    Message('note_on', channel=0, note=66, velocity=104, time=12),\n",
      "    Message('note_on', channel=0, note=69, velocity=104, time=0),\n",
      "    Message('note_on', channel=0, note=66, velocity=0, time=48),\n",
      "    Message('note_on', channel=0, note=69, velocity=0, time=0),\n",
      "    Message('note_on', channel=0, note=69, velocity=104, time=12),\n",
      "    Message('note_on', channel=0, note=69, velocity=0, time=48),\n",
      "    Message('note_on', channel=0, note=67, velocity=104, time=12),\n",
      "    Message('note_on', channel=0, note=67, velocity=0, time=48),\n",
      "    Message('note_on', channel=0, note=69, velocity=104, time=12),\n",
      "    Message('note_on', channel=0, note=69, velocity=0, time=48),\n",
      "    Message('note_on', channel=0, note=72, velocity=104, time=12),\n",
      "    Message('note_on', channel=0, note=72, velocity=0, time=48),\n",
      "    Message('note_on', channel=0, note=71, velocity=104, time=12),\n",
      "    Message('note_on', channel=0, note=71, velocity=0, time=48),\n",
      "    Message('note_on', channel=0, note=72, velocity=104, time=12),\n",
      "    Message('note_on', channel=0, note=72, velocity=0, time=48),\n",
      "    Message('note_on', channel=0, note=69, velocity=104, time=12),\n",
      "    Message('note_on', channel=0, note=69, velocity=0, time=48),\n",
      "    Message('note_on', channel=0, note=66, velocity=104, time=12),\n",
      "    Message('note_on', channel=0, note=66, velocity=0, time=48),\n",
      "    Message('note_on', channel=0, note=62, velocity=104, time=12),\n",
      "    Message('note_on', channel=0, note=62, velocity=0, time=48),\n",
      "    Message('note_on', channel=0, note=66, velocity=104, time=12),\n",
      "    Message('note_on', channel=0, note=66, velocity=0, time=48),\n",
      "    Message('note_on', channel=0, note=69, velocity=104, time=12),\n",
      "    Message('note_on', channel=0, note=69, velocity=0, time=48),\n",
      "    Message('note_on', channel=0, note=72, velocity=104, time=12),\n",
      "    Message('note_on', channel=0, note=72, velocity=0, time=48),\n",
      "    Message('note_on', channel=0, note=71, velocity=104, time=12),\n",
      "    Message('note_on', channel=0, note=71, velocity=0, time=48),\n",
      "    Message('note_on', channel=0, note=69, velocity=104, time=12),\n",
      "    Message('note_on', channel=0, note=69, velocity=0, time=48),\n",
      "    Message('note_on', channel=0, note=67, velocity=104, time=12),\n",
      "    Message('note_on', channel=0, note=71, velocity=104, time=0),\n",
      "    Message('note_on', channel=0, note=67, velocity=0, time=336),\n",
      "    Message('note_on', channel=0, note=71, velocity=0, time=0),\n",
      "    Message('note_on', channel=0, note=64, velocity=104, time=24),\n",
      "    Message('note_on', channel=0, note=72, velocity=104, time=0),\n",
      "    Message('note_on', channel=0, note=67, velocity=104, time=0),\n",
      "    Message('note_on', channel=0, note=60, velocity=104, time=0),\n",
      "    Message('note_on', channel=0, note=64, velocity=0, time=168),\n",
      "    Message('note_on', channel=0, note=72, velocity=0, time=0),\n",
      "    Message('note_on', channel=0, note=67, velocity=0, time=0),\n",
      "    Message('note_on', channel=0, note=60, velocity=0, time=0),\n",
      "    Message('note_on', channel=0, note=67, velocity=104, time=12),\n",
      "    Message('note_on', channel=0, note=62, velocity=104, time=0),\n",
      "    Message('note_on', channel=0, note=74, velocity=104, time=0),\n",
      "    Message('note_on', channel=0, note=67, velocity=0, time=336),\n",
      "    Message('note_on', channel=0, note=62, velocity=0, time=0),\n",
      "    Message('note_on', channel=0, note=74, velocity=0, time=0),\n",
      "    Message('note_on', channel=0, note=67, velocity=104, time=24),\n",
      "    Message('note_on', channel=0, note=64, velocity=104, time=0),\n",
      "    Message('note_on', channel=0, note=71, velocity=104, time=0),\n",
      "    Message('note_on', channel=0, note=67, velocity=0, time=168),\n",
      "    Message('note_on', channel=0, note=64, velocity=0, time=0),\n",
      "    Message('note_on', channel=0, note=71, velocity=0, time=0),\n",
      "    Message('note_on', channel=0, note=69, velocity=63, time=12),\n",
      "    Message('note_on', channel=0, note=69, velocity=0, time=116),\n",
      "    Message('note_on', channel=0, note=71, velocity=74, time=4),\n",
      "    Message('note_on', channel=0, note=72, velocity=68, time=30),\n",
      "    Message('note_on', channel=0, note=71, velocity=0, time=14),\n",
      "    Message('note_on', channel=0, note=71, velocity=65, time=16),\n",
      "    Message('note_on', channel=0, note=66, velocity=67, time=0),\n",
      "    Message('note_on', channel=0, note=62, velocity=55, time=0),\n",
      "    Message('note_on', channel=0, note=72, velocity=0, time=14),\n",
      "    Message('note_on', channel=0, note=66, velocity=55, time=166),\n",
      "    Message('note_on', channel=0, note=60, velocity=46, time=0),\n",
      "    Message('note_on', channel=0, note=69, velocity=45, time=0),\n",
      "    Message('note_on', channel=0, note=71, velocity=0, time=8),\n",
      "    Message('note_on', channel=0, note=66, velocity=0, time=0),\n",
      "    Message('note_on', channel=0, note=62, velocity=0, time=0),\n",
      "    Message('note_on', channel=0, note=67, velocity=104, time=172),\n",
      "    Message('note_on', channel=0, note=66, velocity=0, time=8),\n",
      "    Message('note_on', channel=0, note=60, velocity=0, time=0),\n",
      "    Message('note_on', channel=0, note=69, velocity=0, time=0),\n",
      "    Message('note_on', channel=0, note=67, velocity=0, time=40),\n",
      "    Message('note_on', channel=0, note=71, velocity=104, time=12),\n",
      "    Message('note_on', channel=0, note=71, velocity=0, time=48),\n",
      "    Message('note_on', channel=0, note=69, velocity=104, time=12),\n",
      "    Message('note_on', channel=0, note=69, velocity=0, time=48),\n",
      "    Message('note_on', channel=0, note=71, velocity=104, time=12),\n",
      "    Message('note_on', channel=0, note=71, velocity=0, time=48),\n",
      "    Message('note_on', channel=0, note=74, velocity=104, time=12),\n",
      "    Message('note_on', channel=0, note=74, velocity=0, time=48),\n",
      "    Message('note_on', channel=0, note=72, velocity=104, time=12),\n",
      "    Message('note_on', channel=0, note=72, velocity=0, time=48),\n",
      "    Message('note_on', channel=0, note=72, velocity=104, time=12),\n",
      "    Message('note_on', channel=0, note=72, velocity=0, time=48),\n",
      "    Message('note_on', channel=0, note=76, velocity=104, time=12),\n",
      "    Message('note_on', channel=0, note=76, velocity=0, time=48),\n",
      "    Message('note_on', channel=0, note=74, velocity=104, time=12),\n",
      "    Message('note_on', channel=0, note=74, velocity=0, time=48),\n",
      "    Message('note_on', channel=0, note=74, velocity=104, time=12),\n",
      "    Message('note_on', channel=0, note=74, velocity=0, time=48),\n",
      "    Message('note_on', channel=0, note=79, velocity=104, time=12),\n",
      "    Message('note_on', channel=0, note=79, velocity=0, time=48),\n",
      "    Message('note_on', channel=0, note=78, velocity=104, time=12),\n",
      "    Message('note_on', channel=0, note=78, velocity=0, time=48),\n",
      "    Message('note_on', channel=0, note=79, velocity=104, time=12),\n",
      "    Message('note_on', channel=0, note=79, velocity=0, time=48),\n",
      "    Message('note_on', channel=0, note=74, velocity=104, time=12),\n",
      "    Message('note_on', channel=0, note=74, velocity=0, time=48),\n",
      "    Message('note_on', channel=0, note=71, velocity=104, time=12),\n",
      "    Message('note_on', channel=0, note=71, velocity=0, time=48),\n",
      "    Message('note_on', channel=0, note=67, velocity=104, time=12),\n",
      "    Message('note_on', channel=0, note=67, velocity=0, time=48),\n",
      "    Message('note_on', channel=0, note=69, velocity=104, time=12),\n",
      "    Message('note_on', channel=0, note=69, velocity=0, time=48),\n",
      "    Message('note_on', channel=0, note=71, velocity=104, time=12),\n",
      "    Message('note_on', channel=0, note=71, velocity=0, time=48),\n",
      "    Message('note_on', channel=0, note=72, velocity=104, time=12),\n",
      "    Message('note_on', channel=0, note=72, velocity=0, time=48),\n",
      "    Message('note_on', channel=0, note=74, velocity=104, time=12),\n",
      "    Message('note_on', channel=0, note=74, velocity=0, time=48),\n",
      "    Message('note_on', channel=0, note=76, velocity=104, time=12),\n",
      "    Message('note_on', channel=0, note=76, velocity=0, time=48),\n",
      "    Message('note_on', channel=0, note=74, velocity=104, time=12),\n",
      "    Message('note_on', channel=0, note=74, velocity=0, time=48),\n",
      "    Message('note_on', channel=0, note=72, velocity=104, time=12),\n",
      "    Message('note_on', channel=0, note=72, velocity=0, time=48),\n",
      "    Message('note_on', channel=0, note=71, velocity=104, time=12),\n",
      "    Message('note_on', channel=0, note=71, velocity=0, time=48),\n",
      "    Message('note_on', channel=0, note=69, velocity=104, time=12),\n",
      "    Message('note_on', channel=0, note=69, velocity=0, time=48),\n",
      "    Message('note_on', channel=0, note=71, velocity=104, time=12),\n",
      "    Message('note_on', channel=0, note=71, velocity=0, time=48),\n",
      "    Message('note_on', channel=0, note=67, velocity=104, time=12),\n",
      "    Message('note_on', channel=0, note=67, velocity=0, time=48),\n",
      "    Message('note_on', channel=0, note=66, velocity=104, time=12),\n",
      "    Message('note_on', channel=0, note=66, velocity=0, time=48),\n",
      "    Message('note_on', channel=0, note=67, velocity=104, time=12),\n",
      "    Message('note_on', channel=0, note=67, velocity=0, time=48),\n",
      "    Message('note_on', channel=0, note=69, velocity=104, time=12),\n",
      "    Message('note_on', channel=0, note=69, velocity=0, time=48),\n",
      "    Message('note_on', channel=0, note=62, velocity=104, time=12),\n",
      "    Message('note_on', channel=0, note=62, velocity=0, time=48),\n",
      "    Message('note_on', channel=0, note=66, velocity=104, time=12),\n",
      "    Message('note_on', channel=0, note=66, velocity=0, time=48),\n",
      "    Message('note_on', channel=0, note=69, velocity=104, time=12),\n",
      "    Message('note_on', channel=0, note=69, velocity=0, time=48),\n",
      "    Message('note_on', channel=0, note=72, velocity=104, time=12),\n",
      "    Message('note_on', channel=0, note=72, velocity=0, time=48),\n",
      "    Message('note_on', channel=0, note=71, velocity=104, time=12),\n",
      "    Message('note_on', channel=0, note=71, velocity=0, time=48),\n",
      "    Message('note_on', channel=0, note=69, velocity=104, time=12),\n",
      "    Message('note_on', channel=0, note=69, velocity=0, time=48),\n",
      "    Message('note_on', channel=0, note=71, velocity=104, time=12),\n",
      "    Message('note_on', channel=0, note=71, velocity=0, time=48),\n",
      "    Message('note_on', channel=0, note=67, velocity=104, time=12),\n",
      "    Message('note_on', channel=0, note=67, velocity=0, time=48),\n",
      "    Message('note_on', channel=0, note=69, velocity=104, time=12),\n",
      "    Message('note_on', channel=0, note=69, velocity=0, time=48),\n",
      "    Message('note_on', channel=0, note=71, velocity=104, time=12),\n",
      "    Message('note_on', channel=0, note=71, velocity=0, time=48),\n",
      "    Message('note_on', channel=0, note=74, velocity=104, time=12),\n",
      "    Message('note_on', channel=0, note=74, velocity=0, time=48),\n",
      "    Message('note_on', channel=0, note=72, velocity=104, time=12),\n",
      "    Message('note_on', channel=0, note=72, velocity=0, time=48),\n",
      "    Message('note_on', channel=0, note=72, velocity=104, time=12),\n",
      "    Message('note_on', channel=0, note=72, velocity=0, time=48),\n",
      "    Message('note_on', channel=0, note=76, velocity=104, time=12),\n",
      "    Message('note_on', channel=0, note=76, velocity=0, time=48),\n",
      "    Message('note_on', channel=0, note=74, velocity=104, time=12),\n",
      "    Message('note_on', channel=0, note=74, velocity=0, time=48),\n",
      "    Message('note_on', channel=0, note=74, velocity=104, time=12),\n",
      "    Message('note_on', channel=0, note=74, velocity=0, time=48),\n",
      "    Message('note_on', channel=0, note=79, velocity=104, time=12),\n",
      "    Message('note_on', channel=0, note=79, velocity=0, time=48),\n",
      "    Message('note_on', channel=0, note=78, velocity=104, time=12),\n",
      "    Message('note_on', channel=0, note=78, velocity=0, time=48),\n",
      "    Message('note_on', channel=0, note=79, velocity=104, time=12),\n",
      "    Message('note_on', channel=0, note=79, velocity=0, time=48),\n",
      "    Message('note_on', channel=0, note=74, velocity=104, time=12),\n",
      "    Message('note_on', channel=0, note=74, velocity=0, time=48),\n",
      "    Message('note_on', channel=0, note=71, velocity=104, time=12),\n",
      "    Message('note_on', channel=0, note=71, velocity=0, time=48),\n",
      "    Message('note_on', channel=0, note=67, velocity=104, time=12),\n",
      "    Message('note_on', channel=0, note=67, velocity=0, time=48),\n",
      "    Message('note_on', channel=0, note=69, velocity=104, time=12),\n",
      "    Message('note_on', channel=0, note=69, velocity=0, time=48),\n",
      "    Message('note_on', channel=0, note=71, velocity=104, time=12),\n",
      "    Message('note_on', channel=0, note=71, velocity=0, time=48),\n",
      "    Message('note_on', channel=0, note=64, velocity=104, time=12),\n",
      "    Message('note_on', channel=0, note=64, velocity=0, time=48),\n",
      "    Message('note_on', channel=0, note=74, velocity=104, time=12),\n",
      "    Message('note_on', channel=0, note=74, velocity=0, time=48),\n",
      "    Message('note_on', channel=0, note=72, velocity=104, time=12),\n",
      "    Message('note_on', channel=0, note=72, velocity=0, time=48),\n",
      "    Message('note_on', channel=0, note=71, velocity=104, time=12),\n",
      "    Message('note_on', channel=0, note=71, velocity=0, time=48),\n",
      "    Message('note_on', channel=0, note=69, velocity=104, time=12),\n",
      "    Message('note_on', channel=0, note=69, velocity=0, time=48),\n",
      "    Message('note_on', channel=0, note=67, velocity=104, time=12),\n",
      "    Message('note_on', channel=0, note=67, velocity=0, time=48),\n",
      "    Message('note_on', channel=0, note=62, velocity=104, time=12),\n",
      "    Message('note_on', channel=0, note=62, velocity=0, time=48),\n",
      "    Message('note_on', channel=0, note=67, velocity=104, time=12),\n",
      "    Message('note_on', channel=0, note=67, velocity=0, time=48),\n",
      "    Message('note_on', channel=0, note=66, velocity=104, time=12),\n",
      "    Message('note_on', channel=0, note=66, velocity=0, time=48),\n",
      "    Message('note_on', channel=0, note=67, velocity=104, time=12),\n",
      "    Message('note_on', channel=0, note=71, velocity=104, time=0),\n",
      "    Message('note_on', channel=0, note=67, velocity=0, time=336),\n",
      "    Message('note_on', channel=0, note=71, velocity=0, time=0),\n",
      "    Message('note_on', channel=0, note=64, velocity=104, time=24),\n",
      "    Message('note_on', channel=0, note=60, velocity=104, time=0),\n",
      "    Message('note_on', channel=0, note=67, velocity=104, time=0),\n",
      "    Message('note_on', channel=0, note=72, velocity=104, time=0),\n",
      "    Message('note_on', channel=0, note=64, velocity=0, time=168),\n",
      "    Message('note_on', channel=0, note=60, velocity=0, time=0),\n",
      "    Message('note_on', channel=0, note=67, velocity=0, time=0),\n",
      "    Message('note_on', channel=0, note=72, velocity=0, time=0),\n",
      "    Message('note_on', channel=0, note=74, velocity=104, time=12),\n",
      "    Message('note_on', channel=0, note=74, velocity=0, time=336),\n",
      "    Message('note_on', channel=0, note=66, velocity=104, time=24),\n",
      "    Message('note_on', channel=0, note=71, velocity=104, time=0),\n",
      "    Message('note_on', channel=0, note=74, velocity=104, time=0),\n",
      "    Message('note_on', channel=0, note=62, velocity=104, time=0),\n",
      "    Message('note_on', channel=0, note=66, velocity=0, time=168),\n",
      "    Message('note_on', channel=0, note=71, velocity=0, time=0),\n",
      "    Message('note_on', channel=0, note=74, velocity=0, time=0),\n",
      "    Message('note_on', channel=0, note=62, velocity=0, time=0),\n",
      "    Message('note_on', channel=0, note=72, velocity=104, time=12),\n",
      "    Message('note_on', channel=0, note=72, velocity=0, time=336),\n",
      "    Message('note_on', channel=0, note=67, velocity=104, time=24),\n",
      "    Message('note_on', channel=0, note=62, velocity=104, time=0),\n",
      "    Message('note_on', channel=0, note=71, velocity=104, time=0),\n",
      "    Message('note_on', channel=0, note=67, velocity=0, time=168),\n",
      "    Message('note_on', channel=0, note=62, velocity=0, time=0),\n",
      "    Message('note_on', channel=0, note=71, velocity=0, time=0),\n",
      "    Message('note_on', channel=0, note=66, velocity=104, time=12),\n",
      "    Message('note_on', channel=0, note=69, velocity=104, time=0),\n",
      "    Message('note_on', channel=0, note=66, velocity=0, time=48),\n",
      "    Message('note_on', channel=0, note=69, velocity=0, time=0),\n",
      "    Message('note_on', channel=0, note=62, velocity=104, time=12),\n",
      "    Message('note_on', channel=0, note=62, velocity=0, time=48),\n",
      "    Message('note_on', channel=0, note=64, velocity=104, time=12),\n",
      "    Message('note_on', channel=0, note=64, velocity=0, time=48),\n",
      "    Message('note_on', channel=0, note=66, velocity=104, time=12),\n",
      "    Message('note_on', channel=0, note=69, velocity=104, time=0),\n",
      "    Message('note_on', channel=0, note=66, velocity=0, time=48),\n",
      "    Message('note_on', channel=0, note=69, velocity=0, time=0),\n",
      "    Message('note_on', channel=0, note=69, velocity=104, time=12),\n",
      "    Message('note_on', channel=0, note=69, velocity=0, time=48),\n",
      "    Message('note_on', channel=0, note=67, velocity=104, time=12),\n",
      "    Message('note_on', channel=0, note=67, velocity=0, time=48),\n",
      "    Message('note_on', channel=0, note=69, velocity=104, time=12),\n",
      "    Message('note_on', channel=0, note=69, velocity=0, time=48),\n",
      "    Message('note_on', channel=0, note=72, velocity=104, time=12),\n",
      "    Message('note_on', channel=0, note=72, velocity=0, time=48),\n",
      "    Message('note_on', channel=0, note=71, velocity=104, time=12),\n",
      "    Message('note_on', channel=0, note=71, velocity=0, time=48),\n",
      "    Message('note_on', channel=0, note=72, velocity=104, time=12),\n",
      "    Message('note_on', channel=0, note=72, velocity=0, time=48),\n",
      "    Message('note_on', channel=0, note=69, velocity=104, time=12),\n",
      "    Message('note_on', channel=0, note=69, velocity=0, time=48),\n",
      "    Message('note_on', channel=0, note=66, velocity=104, time=12),\n",
      "    Message('note_on', channel=0, note=66, velocity=0, time=48),\n",
      "    Message('note_on', channel=0, note=62, velocity=104, time=12),\n",
      "    Message('note_on', channel=0, note=62, velocity=0, time=48),\n",
      "    Message('note_on', channel=0, note=66, velocity=104, time=12),\n",
      "    Message('note_on', channel=0, note=66, velocity=0, time=48),\n",
      "    Message('note_on', channel=0, note=69, velocity=104, time=12),\n",
      "    Message('note_on', channel=0, note=69, velocity=0, time=48),\n",
      "    Message('note_on', channel=0, note=72, velocity=104, time=12),\n",
      "    Message('note_on', channel=0, note=72, velocity=0, time=48),\n",
      "    Message('note_on', channel=0, note=71, velocity=104, time=12),\n",
      "    Message('note_on', channel=0, note=71, velocity=0, time=48),\n",
      "    Message('note_on', channel=0, note=69, velocity=104, time=12),\n",
      "    Message('note_on', channel=0, note=69, velocity=0, time=48),\n",
      "    Message('note_on', channel=0, note=71, velocity=104, time=12),\n",
      "    Message('note_on', channel=0, note=67, velocity=104, time=0),\n",
      "    Message('note_on', channel=0, note=71, velocity=0, time=336),\n",
      "    Message('note_on', channel=0, note=67, velocity=0, time=0),\n",
      "    Message('note_on', channel=0, note=64, velocity=104, time=24),\n",
      "    Message('note_on', channel=0, note=60, velocity=104, time=0),\n",
      "    Message('note_on', channel=0, note=67, velocity=104, time=0),\n",
      "    Message('note_on', channel=0, note=72, velocity=104, time=0),\n",
      "    Message('note_on', channel=0, note=64, velocity=0, time=168),\n",
      "    Message('note_on', channel=0, note=60, velocity=0, time=0),\n",
      "    Message('note_on', channel=0, note=67, velocity=0, time=0),\n",
      "    Message('note_on', channel=0, note=72, velocity=0, time=0),\n",
      "    Message('note_on', channel=0, note=67, velocity=104, time=12),\n",
      "    Message('note_on', channel=0, note=74, velocity=104, time=0),\n",
      "    Message('note_on', channel=0, note=62, velocity=104, time=0),\n",
      "    Message('note_on', channel=0, note=67, velocity=0, time=336),\n",
      "    Message('note_on', channel=0, note=74, velocity=0, time=0),\n",
      "    Message('note_on', channel=0, note=62, velocity=0, time=0),\n",
      "    Message('note_on', channel=0, note=67, velocity=104, time=24),\n",
      "    Message('note_on', channel=0, note=64, velocity=104, time=0),\n",
      "    Message('note_on', channel=0, note=71, velocity=104, time=0),\n",
      "    Message('note_on', channel=0, note=67, velocity=0, time=168),\n",
      "    Message('note_on', channel=0, note=64, velocity=0, time=0),\n",
      "    Message('note_on', channel=0, note=71, velocity=0, time=0),\n",
      "    Message('note_on', channel=0, note=69, velocity=104, time=12),\n",
      "    Message('note_on', channel=0, note=69, velocity=0, time=116),\n",
      "    Message('note_on', channel=0, note=71, velocity=104, time=4),\n",
      "    Message('note_on', channel=0, note=72, velocity=104, time=30),\n",
      "    Message('note_on', channel=0, note=71, velocity=0, time=14),\n",
      "    Message('note_on', channel=0, note=66, velocity=104, time=16),\n",
      "    Message('note_on', channel=0, note=71, velocity=104, time=0),\n",
      "    Message('note_on', channel=0, note=62, velocity=104, time=0),\n",
      "    Message('note_on', channel=0, note=72, velocity=0, time=14),\n",
      "    Message('note_on', channel=0, note=66, velocity=0, time=154),\n",
      "    Message('note_on', channel=0, note=71, velocity=0, time=0),\n",
      "    Message('note_on', channel=0, note=62, velocity=0, time=0),\n",
      "    Message('note_on', channel=0, note=66, velocity=104, time=12),\n",
      "    Message('note_on', channel=0, note=60, velocity=104, time=0),\n",
      "    Message('note_on', channel=0, note=69, velocity=104, time=0),\n",
      "    Message('note_on', channel=0, note=66, velocity=0, time=168),\n",
      "    Message('note_on', channel=0, note=60, velocity=0, time=0),\n",
      "    Message('note_on', channel=0, note=69, velocity=0, time=0),\n",
      "    Message('note_on', channel=0, note=67, velocity=104, time=12),\n",
      "    Message('note_on', channel=0, note=67, velocity=0, time=48),\n",
      "    Message('note_on', channel=0, note=71, velocity=104, time=12),\n",
      "    Message('note_on', channel=0, note=71, velocity=0, time=48),\n",
      "    Message('note_on', channel=0, note=69, velocity=104, time=12),\n",
      "    Message('note_on', channel=0, note=69, velocity=0, time=48),\n",
      "    Message('note_on', channel=0, note=71, velocity=104, time=12),\n",
      "    Message('note_on', channel=0, note=71, velocity=0, time=48),\n",
      "    Message('note_on', channel=0, note=74, velocity=104, time=12),\n",
      "    Message('note_on', channel=0, note=74, velocity=0, time=48),\n",
      "    Message('note_on', channel=0, note=72, velocity=104, time=12),\n",
      "    Message('note_on', channel=0, note=72, velocity=0, time=48),\n",
      "    Message('note_on', channel=0, note=72, velocity=104, time=12),\n",
      "    Message('note_on', channel=0, note=72, velocity=0, time=48),\n",
      "    Message('note_on', channel=0, note=76, velocity=104, time=12),\n",
      "    Message('note_on', channel=0, note=76, velocity=0, time=48),\n",
      "    Message('note_on', channel=0, note=74, velocity=104, time=12),\n",
      "    Message('note_on', channel=0, note=74, velocity=0, time=48),\n",
      "    Message('note_on', channel=0, note=74, velocity=104, time=12),\n",
      "    Message('note_on', channel=0, note=74, velocity=0, time=48),\n",
      "    Message('note_on', channel=0, note=79, velocity=104, time=12),\n",
      "    Message('note_on', channel=0, note=79, velocity=0, time=48),\n",
      "    Message('note_on', channel=0, note=78, velocity=104, time=12),\n",
      "    Message('note_on', channel=0, note=78, velocity=0, time=48),\n",
      "    Message('note_on', channel=0, note=79, velocity=104, time=12),\n",
      "    Message('note_on', channel=0, note=79, velocity=0, time=48),\n",
      "    Message('note_on', channel=0, note=74, velocity=104, time=12),\n",
      "    Message('note_on', channel=0, note=74, velocity=0, time=48),\n",
      "    Message('note_on', channel=0, note=71, velocity=104, time=12),\n",
      "    Message('note_on', channel=0, note=71, velocity=0, time=48),\n",
      "    Message('note_on', channel=0, note=67, velocity=104, time=12),\n",
      "    Message('note_on', channel=0, note=67, velocity=0, time=48),\n",
      "    Message('note_on', channel=0, note=69, velocity=104, time=12),\n",
      "    Message('note_on', channel=0, note=69, velocity=0, time=48),\n",
      "    Message('note_on', channel=0, note=71, velocity=104, time=12),\n",
      "    Message('note_on', channel=0, note=71, velocity=0, time=48),\n",
      "    Message('note_on', channel=0, note=72, velocity=104, time=12),\n",
      "    Message('note_on', channel=0, note=72, velocity=0, time=48),\n",
      "    Message('note_on', channel=0, note=74, velocity=104, time=12),\n",
      "    Message('note_on', channel=0, note=74, velocity=0, time=48),\n",
      "    Message('note_on', channel=0, note=76, velocity=104, time=12),\n",
      "    Message('note_on', channel=0, note=76, velocity=0, time=48),\n",
      "    Message('note_on', channel=0, note=74, velocity=104, time=12),\n",
      "    Message('note_on', channel=0, note=74, velocity=0, time=48),\n",
      "    Message('note_on', channel=0, note=72, velocity=104, time=12),\n",
      "    Message('note_on', channel=0, note=72, velocity=0, time=48),\n",
      "    Message('note_on', channel=0, note=71, velocity=104, time=12),\n",
      "    Message('note_on', channel=0, note=71, velocity=0, time=48),\n",
      "    Message('note_on', channel=0, note=69, velocity=104, time=12),\n",
      "    Message('note_on', channel=0, note=69, velocity=0, time=48),\n",
      "    Message('note_on', channel=0, note=71, velocity=104, time=12),\n",
      "    Message('note_on', channel=0, note=71, velocity=0, time=48),\n",
      "    Message('note_on', channel=0, note=67, velocity=104, time=12),\n",
      "    Message('note_on', channel=0, note=67, velocity=0, time=48),\n",
      "    Message('note_on', channel=0, note=66, velocity=104, time=12),\n",
      "    Message('note_on', channel=0, note=66, velocity=0, time=48),\n",
      "    Message('note_on', channel=0, note=67, velocity=104, time=12),\n",
      "    Message('note_on', channel=0, note=67, velocity=0, time=48),\n",
      "    Message('note_on', channel=0, note=69, velocity=104, time=12),\n",
      "    Message('note_on', channel=0, note=69, velocity=0, time=48),\n",
      "    Message('note_on', channel=0, note=62, velocity=104, time=12),\n",
      "    Message('note_on', channel=0, note=62, velocity=0, time=48),\n",
      "    Message('note_on', channel=0, note=66, velocity=104, time=12),\n",
      "    Message('note_on', channel=0, note=66, velocity=0, time=48),\n",
      "    Message('note_on', channel=0, note=69, velocity=104, time=12),\n",
      "    Message('note_on', channel=0, note=69, velocity=0, time=48),\n",
      "    Message('note_on', channel=0, note=72, velocity=104, time=12),\n",
      "    Message('note_on', channel=0, note=72, velocity=0, time=48),\n",
      "    Message('note_on', channel=0, note=71, velocity=104, time=12),\n",
      "    Message('note_on', channel=0, note=71, velocity=0, time=48),\n",
      "    Message('note_on', channel=0, note=69, velocity=104, time=12),\n",
      "    Message('note_on', channel=0, note=69, velocity=0, time=48),\n",
      "    Message('note_on', channel=0, note=71, velocity=104, time=12),\n",
      "    Message('note_on', channel=0, note=71, velocity=0, time=48),\n",
      "    Message('note_on', channel=0, note=67, velocity=104, time=12),\n",
      "    Message('note_on', channel=0, note=67, velocity=0, time=48),\n",
      "    Message('note_on', channel=0, note=69, velocity=104, time=12),\n",
      "    Message('note_on', channel=0, note=69, velocity=0, time=48),\n",
      "    Message('note_on', channel=0, note=71, velocity=104, time=12),\n",
      "    Message('note_on', channel=0, note=71, velocity=0, time=48),\n",
      "    Message('note_on', channel=0, note=74, velocity=104, time=12),\n",
      "    Message('note_on', channel=0, note=74, velocity=0, time=48),\n",
      "    Message('note_on', channel=0, note=72, velocity=104, time=12),\n",
      "    Message('note_on', channel=0, note=72, velocity=0, time=48),\n",
      "    Message('note_on', channel=0, note=72, velocity=104, time=12),\n",
      "    Message('note_on', channel=0, note=72, velocity=0, time=48),\n",
      "    Message('note_on', channel=0, note=76, velocity=104, time=12),\n",
      "    Message('note_on', channel=0, note=76, velocity=0, time=48),\n",
      "    Message('note_on', channel=0, note=74, velocity=104, time=12),\n",
      "    Message('note_on', channel=0, note=74, velocity=0, time=48),\n",
      "    Message('note_on', channel=0, note=74, velocity=104, time=12),\n",
      "    Message('note_on', channel=0, note=74, velocity=0, time=48),\n",
      "    Message('note_on', channel=0, note=79, velocity=104, time=12),\n",
      "    Message('note_on', channel=0, note=79, velocity=0, time=48),\n",
      "    Message('note_on', channel=0, note=78, velocity=104, time=12),\n",
      "    Message('note_on', channel=0, note=78, velocity=0, time=48),\n",
      "    Message('note_on', channel=0, note=79, velocity=104, time=12),\n",
      "    Message('note_on', channel=0, note=79, velocity=0, time=48),\n",
      "    Message('note_on', channel=0, note=74, velocity=104, time=12),\n",
      "    Message('note_on', channel=0, note=74, velocity=0, time=48),\n",
      "    Message('note_on', channel=0, note=71, velocity=104, time=12),\n",
      "    Message('note_on', channel=0, note=71, velocity=0, time=48),\n",
      "    Message('note_on', channel=0, note=67, velocity=104, time=12),\n",
      "    Message('note_on', channel=0, note=67, velocity=0, time=48),\n",
      "    Message('note_on', channel=0, note=69, velocity=104, time=12),\n",
      "    Message('note_on', channel=0, note=69, velocity=0, time=48),\n",
      "    Message('note_on', channel=0, note=71, velocity=104, time=12),\n",
      "    Message('note_on', channel=0, note=71, velocity=0, time=48),\n",
      "    Message('note_on', channel=0, note=64, velocity=104, time=12),\n",
      "    Message('note_on', channel=0, note=64, velocity=0, time=48),\n",
      "    Message('note_on', channel=0, note=74, velocity=104, time=12),\n",
      "    Message('note_on', channel=0, note=74, velocity=0, time=48),\n",
      "    Message('note_on', channel=0, note=72, velocity=104, time=12),\n",
      "    Message('note_on', channel=0, note=72, velocity=0, time=48),\n",
      "    Message('note_on', channel=0, note=71, velocity=104, time=12),\n",
      "    Message('note_on', channel=0, note=71, velocity=0, time=48),\n",
      "    Message('note_on', channel=0, note=69, velocity=104, time=12),\n",
      "    Message('note_on', channel=0, note=69, velocity=0, time=48),\n",
      "    Message('note_on', channel=0, note=67, velocity=104, time=12),\n",
      "    Message('note_on', channel=0, note=67, velocity=0, time=48),\n",
      "    Message('note_on', channel=0, note=62, velocity=104, time=12),\n",
      "    Message('note_on', channel=0, note=62, velocity=0, time=48),\n",
      "    Message('note_on', channel=0, note=67, velocity=104, time=12),\n",
      "    Message('note_on', channel=0, note=67, velocity=0, time=48),\n",
      "    Message('note_on', channel=0, note=66, velocity=104, time=12),\n",
      "    Message('note_on', channel=0, note=66, velocity=0, time=48),\n",
      "    Message('note_on', channel=0, note=67, velocity=104, time=12),\n",
      "    Message('note_on', channel=0, note=67, velocity=0, time=48),\n",
      "    Message('note_on', channel=0, note=71, velocity=104, time=12),\n",
      "    Message('note_on', channel=0, note=71, velocity=0, time=48),\n",
      "    Message('note_on', channel=0, note=74, velocity=104, time=12),\n",
      "    Message('note_on', channel=0, note=74, velocity=0, time=48),\n",
      "    Message('note_on', channel=0, note=79, velocity=104, time=12),\n",
      "    Message('note_on', channel=0, note=79, velocity=0, time=48),\n",
      "    Message('note_on', channel=0, note=74, velocity=104, time=12),\n",
      "    Message('note_on', channel=0, note=74, velocity=0, time=48),\n",
      "    Message('note_on', channel=0, note=71, velocity=104, time=12),\n",
      "    Message('note_on', channel=0, note=71, velocity=0, time=48),\n",
      "    Message('note_on', channel=0, note=67, velocity=104, time=12),\n",
      "    Message('note_on', channel=0, note=67, velocity=0, time=168),\n",
      "    Message('note_on', channel=0, note=66, velocity=94, time=13),\n",
      "    Message('note_on', channel=0, note=69, velocity=94, time=0),\n",
      "    Message('note_on', channel=0, note=66, velocity=0, time=336),\n",
      "    Message('note_on', channel=0, note=69, velocity=0, time=0),\n",
      "    Message('note_on', channel=0, note=68, velocity=94, time=24),\n",
      "    Message('note_on', channel=0, note=71, velocity=94, time=0),\n",
      "    Message('note_on', channel=0, note=62, velocity=94, time=0),\n",
      "    Message('note_on', channel=0, note=68, velocity=0, time=168),\n",
      "    Message('note_on', channel=0, note=71, velocity=0, time=0),\n",
      "    Message('note_on', channel=0, note=62, velocity=0, time=0),\n",
      "    Message('note_on', channel=0, note=72, velocity=94, time=12),\n",
      "    Message('note_on', channel=0, note=64, velocity=94, time=0),\n",
      "    Message('note_on', channel=0, note=69, velocity=94, time=0),\n",
      "    Message('note_on', channel=0, note=72, velocity=0, time=336),\n",
      "    Message('note_on', channel=0, note=64, velocity=0, time=0),\n",
      "    Message('note_on', channel=0, note=69, velocity=0, time=0),\n",
      "    Message('note_on', channel=0, note=69, velocity=94, time=24),\n",
      "    Message('note_on', channel=0, note=64, velocity=94, time=0),\n",
      "    Message('note_on', channel=0, note=72, velocity=94, time=0),\n",
      "    Message('note_on', channel=0, note=69, velocity=0, time=168),\n",
      "    Message('note_on', channel=0, note=64, velocity=0, time=0),\n",
      "    Message('note_on', channel=0, note=72, velocity=0, time=0),\n",
      "    Message('note_on', channel=0, note=71, velocity=94, time=12),\n",
      "    Message('note_on', channel=0, note=71, velocity=0, time=276),\n",
      "    Message('note_on', channel=0, note=72, velocity=94, time=24),\n",
      "    Message('note_on', channel=0, note=72, velocity=0, time=24),\n",
      "    Message('note_on', channel=0, note=74, velocity=94, time=6),\n",
      "    Message('note_on', channel=0, note=74, velocity=0, time=24),\n",
      "    Message('note_on', channel=0, note=71, velocity=94, time=6),\n",
      "    Message('note_on', channel=0, note=68, velocity=94, time=0),\n",
      "    Message('note_on', channel=0, note=71, velocity=0, time=168),\n",
      "    Message('note_on', channel=0, note=68, velocity=0, time=0),\n",
      "    Message('note_on', channel=0, note=69, velocity=94, time=12),\n",
      "    Message('note_on', channel=0, note=69, velocity=0, time=168),\n",
      "    Message('note_on', channel=0, note=69, velocity=94, time=12),\n",
      "    Message('note_on', channel=0, note=69, velocity=0, time=48),\n",
      "    Message('note_on', channel=0, note=76, velocity=94, time=12),\n",
      "    Message('note_on', channel=0, note=76, velocity=0, time=48),\n",
      "    Message('note_on', channel=0, note=74, velocity=94, time=12),\n",
      "    Message('note_on', channel=0, note=74, velocity=0, time=48),\n",
      "    Message('note_on', channel=0, note=74, velocity=94, time=12),\n",
      "    Message('note_on', channel=0, note=74, velocity=0, time=48),\n",
      "    Message('note_on', channel=0, note=77, velocity=94, time=12),\n",
      "    Message('note_on', channel=0, note=77, velocity=0, time=48),\n",
      "    Message('note_on', channel=0, note=76, velocity=94, time=12),\n",
      "    Message('note_on', channel=0, note=76, velocity=0, time=48),\n",
      "    Message('note_on', channel=0, note=76, velocity=94, time=12),\n",
      "    Message('note_on', channel=0, note=76, velocity=0, time=48),\n",
      "    Message('note_on', channel=0, note=81, velocity=94, time=12),\n",
      "    Message('note_on', channel=0, note=81, velocity=0, time=48),\n",
      "    Message('note_on', channel=0, note=80, velocity=94, time=12),\n",
      "    Message('note_on', channel=0, note=80, velocity=0, time=48),\n",
      "    Message('note_on', channel=0, note=81, velocity=94, time=12),\n",
      "    Message('note_on', channel=0, note=81, velocity=0, time=48),\n",
      "    Message('note_on', channel=0, note=76, velocity=94, time=12),\n",
      "    Message('note_on', channel=0, note=76, velocity=0, time=48),\n",
      "    Message('note_on', channel=0, note=72, velocity=94, time=12),\n",
      "    Message('note_on', channel=0, note=72, velocity=0, time=48),\n",
      "    Message('note_on', channel=0, note=69, velocity=94, time=12),\n",
      "    Message('note_on', channel=0, note=69, velocity=0, time=48),\n",
      "    Message('note_on', channel=0, note=71, velocity=94, time=12),\n",
      "    Message('note_on', channel=0, note=71, velocity=0, time=48),\n",
      "    Message('note_on', channel=0, note=72, velocity=94, time=12),\n",
      "    Message('note_on', channel=0, note=72, velocity=0, time=48),\n",
      "    Message('note_on', channel=0, note=77, velocity=94, time=12),\n",
      "    Message('note_on', channel=0, note=77, velocity=0, time=48),\n",
      "    Message('note_on', channel=0, note=76, velocity=94, time=12),\n",
      "    Message('note_on', channel=0, note=76, velocity=0, time=48),\n",
      "    Message('note_on', channel=0, note=74, velocity=94, time=12),\n",
      "    Message('note_on', channel=0, note=74, velocity=0, time=48),\n",
      "    Message('note_on', channel=0, note=72, velocity=94, time=12),\n",
      "    Message('note_on', channel=0, note=72, velocity=0, time=48),\n",
      "    Message('note_on', channel=0, note=71, velocity=94, time=12),\n",
      "    Message('note_on', channel=0, note=71, velocity=0, time=48),\n",
      "    Message('note_on', channel=0, note=69, velocity=94, time=12),\n",
      "    Message('note_on', channel=0, note=69, velocity=0, time=48),\n",
      "    Message('note_on', channel=0, note=64, velocity=94, time=12),\n",
      "    Message('note_on', channel=0, note=64, velocity=0, time=48),\n",
      "    Message('note_on', channel=0, note=69, velocity=94, time=12),\n",
      "    Message('note_on', channel=0, note=69, velocity=0, time=48),\n",
      "    Message('note_on', channel=0, note=68, velocity=94, time=12),\n",
      "    Message('note_on', channel=0, note=62, velocity=94, time=0),\n",
      "    Message('note_on', channel=0, note=68, velocity=0, time=48),\n",
      "    Message('note_on', channel=0, note=62, velocity=0, time=0),\n",
      "    Message('note_on', channel=0, note=64, velocity=94, time=12),\n",
      "    Message('note_on', channel=0, note=69, velocity=94, time=0),\n",
      "    Message('note_on', channel=0, note=72, velocity=94, time=0),\n",
      "    Message('note_on', channel=0, note=64, velocity=0, time=336),\n",
      "    Message('note_on', channel=0, note=69, velocity=0, time=0),\n",
      "    Message('note_on', channel=0, note=72, velocity=0, time=0),\n",
      "    Message('note_on', channel=0, note=74, velocity=94, time=24),\n",
      "    Message('note_on', channel=0, note=62, velocity=94, time=0),\n",
      "    Message('note_on', channel=0, note=67, velocity=94, time=0),\n",
      "    Message('note_on', channel=0, note=74, velocity=0, time=168),\n",
      "    Message('note_on', channel=0, note=62, velocity=0, time=0),\n",
      "    Message('note_on', channel=0, note=67, velocity=0, time=0),\n",
      "    Message('note_on', channel=0, note=72, velocity=94, time=12),\n",
      "    Message('note_on', channel=0, note=76, velocity=94, time=0),\n",
      "    Message('note_on', channel=0, note=72, velocity=0, time=336),\n",
      "    Message('note_on', channel=0, note=76, velocity=0, time=0),\n",
      "    Message('note_on', channel=0, note=72, velocity=94, time=24),\n",
      "    Message('note_on', channel=0, note=76, velocity=94, time=0),\n",
      "    Message('note_on', channel=0, note=67, velocity=94, time=0),\n",
      "    Message('note_on', channel=0, note=72, velocity=0, time=168),\n",
      "    Message('note_on', channel=0, note=76, velocity=0, time=0),\n",
      "    Message('note_on', channel=0, note=67, velocity=0, time=0),\n",
      "    Message('note_on', channel=0, note=74, velocity=94, time=12),\n",
      "    Message('note_on', channel=0, note=74, velocity=0, time=276),\n",
      "    Message('note_on', channel=0, note=76, velocity=94, time=24),\n",
      "    Message('note_on', channel=0, note=76, velocity=0, time=24),\n",
      "    Message('note_on', channel=0, note=77, velocity=94, time=6),\n",
      "    Message('note_on', channel=0, note=77, velocity=0, time=24),\n",
      "    Message('note_on', channel=0, note=74, velocity=94, time=6),\n",
      "    Message('note_on', channel=0, note=74, velocity=0, time=168),\n",
      "    Message('note_on', channel=0, note=64, velocity=94, time=12),\n",
      "    Message('note_on', channel=0, note=72, velocity=94, time=0),\n",
      "    Message('note_on', channel=0, note=64, velocity=0, time=168),\n",
      "    Message('note_on', channel=0, note=72, velocity=0, time=0),\n",
      "    Message('note_on', channel=0, note=72, velocity=94, time=12),\n",
      "    Message('note_on', channel=0, note=72, velocity=0, time=48),\n",
      "    Message('note_on', channel=0, note=76, velocity=94, time=12),\n",
      "    Message('note_on', channel=0, note=76, velocity=0, time=48),\n",
      "    Message('note_on', channel=0, note=72, velocity=94, time=12),\n",
      "    Message('note_on', channel=0, note=72, velocity=0, time=48),\n",
      "    Message('note_on', channel=0, note=67, velocity=94, time=12),\n",
      "    Message('note_on', channel=0, note=67, velocity=0, time=48),\n",
      "    Message('note_on', channel=0, note=69, velocity=94, time=12),\n",
      "    Message('note_on', channel=0, note=69, velocity=0, time=48),\n",
      "    Message('note_on', channel=0, note=70, velocity=94, time=12),\n",
      "    Message('note_on', channel=0, note=70, velocity=0, time=48),\n",
      "    Message('note_on', channel=0, note=69, velocity=94, time=12),\n",
      "    Message('note_on', channel=0, note=69, velocity=0, time=48),\n",
      "    Message('note_on', channel=0, note=72, velocity=94, time=12),\n",
      "    Message('note_on', channel=0, note=72, velocity=0, time=48),\n",
      "    Message('note_on', channel=0, note=71, velocity=94, time=12),\n",
      "    Message('note_on', channel=0, note=71, velocity=0, time=48),\n",
      "    Message('note_on', channel=0, note=72, velocity=94, time=12),\n",
      "    Message('note_on', channel=0, note=72, velocity=0, time=48),\n",
      "    Message('note_on', channel=0, note=69, velocity=94, time=12),\n",
      "    Message('note_on', channel=0, note=69, velocity=0, time=48),\n",
      "    Message('note_on', channel=0, note=66, velocity=94, time=12),\n",
      "    Message('note_on', channel=0, note=66, velocity=0, time=48),\n",
      "    Message('note_on', channel=0, note=62, velocity=94, time=12),\n",
      "    Message('note_on', channel=0, note=62, velocity=0, time=48),\n",
      "    Message('note_on', channel=0, note=64, velocity=94, time=12),\n",
      "    Message('note_on', channel=0, note=64, velocity=0, time=48),\n",
      "    Message('note_on', channel=0, note=66, velocity=94, time=12),\n",
      "    Message('note_on', channel=0, note=66, velocity=0, time=48),\n",
      "    Message('note_on', channel=0, note=64, velocity=94, time=12),\n",
      "    Message('note_on', channel=0, note=64, velocity=0, time=48),\n",
      "    Message('note_on', channel=0, note=60, velocity=94, time=12),\n",
      "    Message('note_on', channel=0, note=60, velocity=0, time=48),\n",
      "    Message('note_on', channel=0, note=62, velocity=94, time=12),\n",
      "    Message('note_on', channel=0, note=62, velocity=0, time=48),\n",
      "    Message('note_on', channel=0, note=64, velocity=94, time=12),\n",
      "    Message('note_on', channel=0, note=64, velocity=0, time=48),\n",
      "    Message('note_on', channel=0, note=67, velocity=94, time=12),\n",
      "    Message('note_on', channel=0, note=67, velocity=0, time=48),\n",
      "    Message('note_on', channel=0, note=66, velocity=94, time=12),\n",
      "    Message('note_on', channel=0, note=66, velocity=0, time=48),\n",
      "    Message('note_on', channel=0, note=67, velocity=94, time=12),\n",
      "    Message('note_on', channel=0, note=67, velocity=0, time=48),\n",
      "    Message('note_on', channel=0, note=71, velocity=94, time=12),\n",
      "    Message('note_on', channel=0, note=71, velocity=0, time=48),\n",
      "    Message('note_on', channel=0, note=69, velocity=94, time=12),\n",
      "    Message('note_on', channel=0, note=69, velocity=0, time=48),\n",
      "    Message('note_on', channel=0, note=67, velocity=94, time=12),\n",
      "    Message('note_on', channel=0, note=71, velocity=94, time=0),\n",
      "    Message('note_on', channel=0, note=67, velocity=0, time=336),\n",
      "    Message('note_on', channel=0, note=71, velocity=0, time=0),\n",
      "    Message('note_on', channel=0, note=64, velocity=94, time=24),\n",
      "    Message('note_on', channel=0, note=60, velocity=94, time=0),\n",
      "    Message('note_on', channel=0, note=67, velocity=94, time=0),\n",
      "    Message('note_on', channel=0, note=72, velocity=94, time=0),\n",
      "    Message('note_on', channel=0, note=64, velocity=0, time=168),\n",
      "    Message('note_on', channel=0, note=60, velocity=0, time=0),\n",
      "    Message('note_on', channel=0, note=67, velocity=0, time=0),\n",
      "    Message('note_on', channel=0, note=72, velocity=0, time=0),\n",
      "    Message('note_on', channel=0, note=74, velocity=94, time=12),\n",
      "    Message('note_on', channel=0, note=67, velocity=94, time=0),\n",
      "    Message('note_on', channel=0, note=62, velocity=94, time=0),\n",
      "    Message('note_on', channel=0, note=74, velocity=0, time=336),\n",
      "    Message('note_on', channel=0, note=67, velocity=0, time=0),\n",
      "    Message('note_on', channel=0, note=62, velocity=0, time=0),\n",
      "    Message('note_on', channel=0, note=74, velocity=94, time=24),\n",
      "    Message('note_on', channel=0, note=67, velocity=94, time=0),\n",
      "    Message('note_on', channel=0, note=62, velocity=94, time=0),\n",
      "    Message('note_on', channel=0, note=74, velocity=0, time=168),\n",
      "    Message('note_on', channel=0, note=67, velocity=0, time=0),\n",
      "    Message('note_on', channel=0, note=62, velocity=0, time=0),\n",
      "    Message('note_on', channel=0, note=69, velocity=94, time=12),\n",
      "    Message('note_on', channel=0, note=64, velocity=94, time=0),\n",
      "    Message('note_on', channel=0, note=72, velocity=94, time=0),\n",
      "    Message('note_on', channel=0, note=69, velocity=0, time=168),\n",
      "    Message('note_on', channel=0, note=64, velocity=0, time=0),\n",
      "    Message('note_on', channel=0, note=72, velocity=0, time=0),\n",
      "    Message('note_on', channel=0, note=71, velocity=94, time=12),\n",
      "    Message('note_on', channel=0, note=71, velocity=0, time=336),\n",
      "    Message('note_on', channel=0, note=66, velocity=94, time=24),\n",
      "    Message('note_on', channel=0, note=69, velocity=94, time=0),\n",
      "    Message('note_on', channel=0, note=66, velocity=0, time=48),\n",
      "    Message('note_on', channel=0, note=69, velocity=0, time=0),\n",
      "    Message('note_on', channel=0, note=62, velocity=94, time=12),\n",
      "    Message('note_on', channel=0, note=62, velocity=0, time=48),\n",
      "    Message('note_on', channel=0, note=64, velocity=94, time=12),\n",
      "    Message('note_on', channel=0, note=64, velocity=0, time=48),\n",
      "    Message('note_on', channel=0, note=66, velocity=94, time=12),\n",
      "    Message('note_on', channel=0, note=66, velocity=0, time=48),\n",
      "    Message('note_on', channel=0, note=69, velocity=94, time=12),\n",
      "    Message('note_on', channel=0, note=69, velocity=0, time=48),\n",
      "    Message('note_on', channel=0, note=67, velocity=94, time=12),\n",
      "    Message('note_on', channel=0, note=67, velocity=0, time=48),\n",
      "    Message('note_on', channel=0, note=69, velocity=94, time=12),\n",
      "    Message('note_on', channel=0, note=69, velocity=0, time=48),\n",
      "    Message('note_on', channel=0, note=72, velocity=94, time=12),\n",
      "    Message('note_on', channel=0, note=72, velocity=0, time=48),\n",
      "    Message('note_on', channel=0, note=71, velocity=94, time=12),\n",
      "    Message('note_on', channel=0, note=71, velocity=0, time=48),\n",
      "    Message('note_on', channel=0, note=72, velocity=94, time=12),\n",
      "    Message('note_on', channel=0, note=72, velocity=0, time=48),\n",
      "    Message('note_on', channel=0, note=69, velocity=94, time=12),\n",
      "    Message('note_on', channel=0, note=69, velocity=0, time=48),\n",
      "    Message('note_on', channel=0, note=66, velocity=94, time=12),\n",
      "    Message('note_on', channel=0, note=66, velocity=0, time=48),\n",
      "    Message('note_on', channel=0, note=62, velocity=94, time=12),\n",
      "    Message('note_on', channel=0, note=62, velocity=0, time=48),\n",
      "    Message('note_on', channel=0, note=66, velocity=94, time=12),\n",
      "    Message('note_on', channel=0, note=66, velocity=0, time=48),\n",
      "    Message('note_on', channel=0, note=69, velocity=94, time=12),\n",
      "    Message('note_on', channel=0, note=69, velocity=0, time=48),\n",
      "    Message('note_on', channel=0, note=72, velocity=94, time=12),\n",
      "    Message('note_on', channel=0, note=72, velocity=0, time=48),\n",
      "    Message('note_on', channel=0, note=71, velocity=94, time=12),\n",
      "    Message('note_on', channel=0, note=71, velocity=0, time=48),\n",
      "    Message('note_on', channel=0, note=69, velocity=94, time=12),\n",
      "    Message('note_on', channel=0, note=69, velocity=0, time=48),\n",
      "    Message('note_on', channel=0, note=67, velocity=94, time=12),\n",
      "    Message('note_on', channel=0, note=71, velocity=94, time=0),\n",
      "    Message('note_on', channel=0, note=67, velocity=0, time=336),\n",
      "    Message('note_on', channel=0, note=71, velocity=0, time=0),\n",
      "    Message('note_on', channel=0, note=72, velocity=94, time=24),\n",
      "    Message('note_on', channel=0, note=67, velocity=94, time=0),\n",
      "    Message('note_on', channel=0, note=64, velocity=94, time=0),\n",
      "    Message('note_on', channel=0, note=60, velocity=94, time=0),\n",
      "    Message('note_on', channel=0, note=72, velocity=0, time=168),\n",
      "    Message('note_on', channel=0, note=67, velocity=0, time=0),\n",
      "    Message('note_on', channel=0, note=64, velocity=0, time=0),\n",
      "    Message('note_on', channel=0, note=60, velocity=0, time=0),\n",
      "    Message('note_on', channel=0, note=74, velocity=94, time=12),\n",
      "    Message('note_on', channel=0, note=62, velocity=94, time=0),\n",
      "    Message('note_on', channel=0, note=67, velocity=94, time=0),\n",
      "    Message('note_on', channel=0, note=74, velocity=0, time=336),\n",
      "    Message('note_on', channel=0, note=62, velocity=0, time=0),\n",
      "    Message('note_on', channel=0, note=67, velocity=0, time=0),\n",
      "    Message('note_on', channel=0, note=67, velocity=94, time=24),\n",
      "    Message('note_on', channel=0, note=64, velocity=94, time=0),\n",
      "    Message('note_on', channel=0, note=71, velocity=94, time=0),\n",
      "    Message('note_on', channel=0, note=67, velocity=0, time=168),\n",
      "    Message('note_on', channel=0, note=64, velocity=0, time=0),\n",
      "    Message('note_on', channel=0, note=71, velocity=0, time=0),\n",
      "    Message('note_on', channel=0, note=69, velocity=94, time=12),\n",
      "    Message('note_on', channel=0, note=69, velocity=0, time=96),\n",
      "    Message('note_on', channel=0, note=71, velocity=94, time=24),\n",
      "    Message('note_on', channel=0, note=71, velocity=0, time=24),\n",
      "    Message('note_on', channel=0, note=72, velocity=94, time=6),\n",
      "    Message('note_on', channel=0, note=72, velocity=0, time=24),\n",
      "    Message('note_on', channel=0, note=71, velocity=94, time=6),\n",
      "    Message('note_on', channel=0, note=71, velocity=0, time=168),\n",
      "    Message('note_on', channel=0, note=69, velocity=94, time=12),\n",
      "    Message('note_on', channel=0, note=69, velocity=0, time=168),\n",
      "    Message('note_on', channel=0, note=67, velocity=94, time=12),\n",
      "    Message('note_on', channel=0, note=67, velocity=0, time=48),\n",
      "    Message('note_on', channel=0, note=71, velocity=94, time=12),\n",
      "    Message('note_on', channel=0, note=71, velocity=0, time=48),\n",
      "    Message('note_on', channel=0, note=74, velocity=94, time=12),\n",
      "    Message('note_on', channel=0, note=74, velocity=0, time=48),\n",
      "    Message('note_on', channel=0, note=79, velocity=94, time=12),\n",
      "    Message('note_on', channel=0, note=79, velocity=0, time=48),\n",
      "    Message('note_on', channel=0, note=74, velocity=94, time=12),\n",
      "    Message('note_on', channel=0, note=74, velocity=0, time=48),\n",
      "    Message('note_on', channel=0, note=71, velocity=94, time=12),\n",
      "    Message('note_on', channel=0, note=71, velocity=0, time=48),\n",
      "    Message('note_on', channel=0, note=67, velocity=94, time=12),\n",
      "    Message('note_on', channel=0, note=67, velocity=0, time=48),\n",
      "    Message('note_on', channel=0, note=71, velocity=94, time=12),\n",
      "    Message('note_on', channel=0, note=71, velocity=0, time=48),\n",
      "    Message('note_on', channel=0, note=74, velocity=94, time=12),\n",
      "    Message('note_on', channel=0, note=74, velocity=0, time=48),\n",
      "    Message('note_on', channel=0, note=77, velocity=94, time=12),\n",
      "    Message('note_on', channel=0, note=77, velocity=0, time=48),\n",
      "    Message('note_on', channel=0, note=74, velocity=94, time=12),\n",
      "    Message('note_on', channel=0, note=74, velocity=0, time=48),\n",
      "    Message('note_on', channel=0, note=71, velocity=94, time=12),\n",
      "    Message('note_on', channel=0, note=71, velocity=0, time=48),\n",
      "    Message('note_on', channel=0, note=67, velocity=94, time=12),\n",
      "    Message('note_on', channel=0, note=67, velocity=0, time=48),\n",
      "    Message('note_on', channel=0, note=71, velocity=94, time=12),\n",
      "    Message('note_on', channel=0, note=71, velocity=0, time=48),\n",
      "    Message('note_on', channel=0, note=74, velocity=94, time=12),\n",
      "    Message('note_on', channel=0, note=74, velocity=0, time=48),\n",
      "    Message('note_on', channel=0, note=76, velocity=94, time=12),\n",
      "    Message('note_on', channel=0, note=76, velocity=0, time=48),\n",
      "    Message('note_on', channel=0, note=72, velocity=94, time=12),\n",
      "    Message('note_on', channel=0, note=72, velocity=0, time=48),\n",
      "    Message('note_on', channel=0, note=69, velocity=94, time=12),\n",
      "    Message('note_on', channel=0, note=69, velocity=0, time=48),\n",
      "    Message('note_on', channel=0, note=66, velocity=94, time=12),\n",
      "    Message('note_on', channel=0, note=66, velocity=0, time=48),\n",
      "    Message('note_on', channel=0, note=69, velocity=94, time=12),\n",
      "    Message('note_on', channel=0, note=69, velocity=0, time=48),\n",
      "    Message('note_on', channel=0, note=72, velocity=94, time=12),\n",
      "    Message('note_on', channel=0, note=72, velocity=0, time=48),\n",
      "    Message('note_on', channel=0, note=74, velocity=94, time=12),\n",
      "    Message('note_on', channel=0, note=74, velocity=0, time=48),\n",
      "    Message('note_on', channel=0, note=71, velocity=94, time=12),\n",
      "    Message('note_on', channel=0, note=71, velocity=0, time=48),\n",
      "    Message('note_on', channel=0, note=67, velocity=94, time=12),\n",
      "    Message('note_on', channel=0, note=67, velocity=0, time=48),\n",
      "    Message('note_on', channel=0, note=64, velocity=94, time=12),\n",
      "    Message('note_on', channel=0, note=64, velocity=0, time=48),\n",
      "    Message('note_on', channel=0, note=67, velocity=94, time=12),\n",
      "    Message('note_on', channel=0, note=67, velocity=0, time=48),\n",
      "    Message('note_on', channel=0, note=71, velocity=94, time=12),\n",
      "    Message('note_on', channel=0, note=71, velocity=0, time=48),\n",
      "    Message('note_on', channel=0, note=72, velocity=94, time=12),\n",
      "    Message('note_on', channel=0, note=72, velocity=0, time=48),\n",
      "    Message('note_on', channel=0, note=69, velocity=94, time=12),\n",
      "    Message('note_on', channel=0, note=69, velocity=0, time=48),\n",
      "    Message('note_on', channel=0, note=66, velocity=94, time=12),\n",
      "    Message('note_on', channel=0, note=66, velocity=0, time=48),\n",
      "    Message('note_on', channel=0, note=62, velocity=94, time=12),\n",
      "    Message('note_on', channel=0, note=62, velocity=0, time=48),\n",
      "    Message('note_on', channel=0, note=66, velocity=94, time=12),\n",
      "    Message('note_on', channel=0, note=66, velocity=0, time=48),\n",
      "    Message('note_on', channel=0, note=69, velocity=94, time=12),\n",
      "    Message('note_on', channel=0, note=69, velocity=0, time=48),\n",
      "    Message('note_on', channel=0, note=72, velocity=94, time=12),\n",
      "    Message('note_on', channel=0, note=72, velocity=0, time=48),\n",
      "    Message('note_on', channel=0, note=71, velocity=94, time=12),\n",
      "    Message('note_on', channel=0, note=71, velocity=0, time=48),\n",
      "    Message('note_on', channel=0, note=69, velocity=94, time=12),\n",
      "    Message('note_on', channel=0, note=69, velocity=0, time=48),\n",
      "    Message('note_on', channel=0, note=71, velocity=94, time=12),\n",
      "    Message('note_on', channel=0, note=71, velocity=0, time=48),\n",
      "    Message('note_on', channel=0, note=67, velocity=94, time=12),\n",
      "    Message('note_on', channel=0, note=67, velocity=0, time=48),\n",
      "    Message('note_on', channel=0, note=69, velocity=94, time=12),\n",
      "    Message('note_on', channel=0, note=69, velocity=0, time=48),\n",
      "    Message('note_on', channel=0, note=71, velocity=94, time=12),\n",
      "    Message('note_on', channel=0, note=71, velocity=0, time=48),\n",
      "    Message('note_on', channel=0, note=74, velocity=94, time=12),\n",
      "    Message('note_on', channel=0, note=74, velocity=0, time=48),\n",
      "    Message('note_on', channel=0, note=72, velocity=94, time=12),\n",
      "    Message('note_on', channel=0, note=72, velocity=0, time=48),\n",
      "    Message('note_on', channel=0, note=72, velocity=94, time=12),\n",
      "    Message('note_on', channel=0, note=72, velocity=0, time=48),\n",
      "    Message('note_on', channel=0, note=76, velocity=94, time=12),\n",
      "    Message('note_on', channel=0, note=76, velocity=0, time=48),\n",
      "    Message('note_on', channel=0, note=74, velocity=94, time=12),\n",
      "    Message('note_on', channel=0, note=74, velocity=0, time=48),\n",
      "    Message('note_on', channel=0, note=74, velocity=94, time=12),\n",
      "    Message('note_on', channel=0, note=74, velocity=0, time=48),\n",
      "    Message('note_on', channel=0, note=79, velocity=94, time=12),\n",
      "    Message('note_on', channel=0, note=79, velocity=0, time=48),\n",
      "    Message('note_on', channel=0, note=78, velocity=94, time=12),\n",
      "    Message('note_on', channel=0, note=78, velocity=0, time=48),\n",
      "    Message('note_on', channel=0, note=79, velocity=94, time=12),\n",
      "    Message('note_on', channel=0, note=79, velocity=0, time=48),\n",
      "    Message('note_on', channel=0, note=74, velocity=94, time=12),\n",
      "    Message('note_on', channel=0, note=74, velocity=0, time=48),\n",
      "    Message('note_on', channel=0, note=71, velocity=94, time=12),\n",
      "    Message('note_on', channel=0, note=71, velocity=0, time=48),\n",
      "    Message('note_on', channel=0, note=67, velocity=94, time=12),\n",
      "    Message('note_on', channel=0, note=67, velocity=0, time=48),\n",
      "    Message('note_on', channel=0, note=69, velocity=94, time=12),\n",
      "    Message('note_on', channel=0, note=69, velocity=0, time=48),\n",
      "    Message('note_on', channel=0, note=71, velocity=94, time=12),\n",
      "    Message('note_on', channel=0, note=71, velocity=0, time=48),\n",
      "    Message('note_on', channel=0, note=72, velocity=94, time=12),\n",
      "    Message('note_on', channel=0, note=72, velocity=0, time=48),\n",
      "    Message('note_on', channel=0, note=74, velocity=94, time=12),\n",
      "    Message('note_on', channel=0, note=74, velocity=0, time=48),\n",
      "    Message('note_on', channel=0, note=76, velocity=94, time=12),\n",
      "    Message('note_on', channel=0, note=76, velocity=0, time=48),\n",
      "    Message('note_on', channel=0, note=74, velocity=94, time=12),\n",
      "    Message('note_on', channel=0, note=74, velocity=0, time=48),\n",
      "    Message('note_on', channel=0, note=72, velocity=94, time=12),\n",
      "    Message('note_on', channel=0, note=72, velocity=0, time=48),\n",
      "    Message('note_on', channel=0, note=71, velocity=94, time=12),\n",
      "    Message('note_on', channel=0, note=71, velocity=0, time=48),\n",
      "    Message('note_on', channel=0, note=69, velocity=94, time=12),\n",
      "    Message('note_on', channel=0, note=69, velocity=0, time=48),\n",
      "    Message('note_on', channel=0, note=71, velocity=94, time=12),\n",
      "    Message('note_on', channel=0, note=71, velocity=0, time=48),\n",
      "    Message('note_on', channel=0, note=67, velocity=94, time=12),\n",
      "    Message('note_on', channel=0, note=67, velocity=0, time=48),\n",
      "    Message('note_on', channel=0, note=66, velocity=94, time=12),\n",
      "    Message('note_on', channel=0, note=66, velocity=0, time=48),\n",
      "    Message('note_on', channel=0, note=67, velocity=94, time=12),\n",
      "    Message('note_on', channel=0, note=67, velocity=0, time=48),\n",
      "    Message('note_on', channel=0, note=69, velocity=94, time=12),\n",
      "    Message('note_on', channel=0, note=69, velocity=0, time=48),\n",
      "    Message('note_on', channel=0, note=62, velocity=94, time=12),\n",
      "    Message('note_on', channel=0, note=62, velocity=0, time=48),\n",
      "    Message('note_on', channel=0, note=66, velocity=94, time=12),\n",
      "    Message('note_on', channel=0, note=66, velocity=0, time=48),\n",
      "    Message('note_on', channel=0, note=69, velocity=94, time=12),\n",
      "    Message('note_on', channel=0, note=69, velocity=0, time=48),\n",
      "    Message('note_on', channel=0, note=72, velocity=94, time=12),\n",
      "    Message('note_on', channel=0, note=72, velocity=0, time=48),\n",
      "    Message('note_on', channel=0, note=71, velocity=94, time=12),\n",
      "    Message('note_on', channel=0, note=71, velocity=0, time=48),\n",
      "    Message('note_on', channel=0, note=69, velocity=94, time=12),\n",
      "    Message('note_on', channel=0, note=69, velocity=0, time=48),\n",
      "    Message('note_on', channel=0, note=71, velocity=94, time=12),\n",
      "    Message('note_on', channel=0, note=71, velocity=0, time=48),\n",
      "    Message('note_on', channel=0, note=67, velocity=94, time=12),\n",
      "    Message('note_on', channel=0, note=67, velocity=0, time=48),\n",
      "    Message('note_on', channel=0, note=69, velocity=94, time=12),\n",
      "    Message('note_on', channel=0, note=69, velocity=0, time=48),\n",
      "    Message('note_on', channel=0, note=71, velocity=94, time=12),\n",
      "    Message('note_on', channel=0, note=71, velocity=0, time=48),\n",
      "    Message('note_on', channel=0, note=74, velocity=94, time=12),\n",
      "    Message('note_on', channel=0, note=74, velocity=0, time=48),\n",
      "    Message('note_on', channel=0, note=72, velocity=94, time=12),\n",
      "    Message('note_on', channel=0, note=72, velocity=0, time=48),\n",
      "    Message('note_on', channel=0, note=72, velocity=94, time=12),\n",
      "    Message('note_on', channel=0, note=72, velocity=0, time=48),\n",
      "    Message('note_on', channel=0, note=76, velocity=94, time=12),\n",
      "    Message('note_on', channel=0, note=76, velocity=0, time=48),\n",
      "    Message('note_on', channel=0, note=74, velocity=94, time=12),\n",
      "    Message('note_on', channel=0, note=74, velocity=0, time=48),\n",
      "    Message('note_on', channel=0, note=74, velocity=94, time=12),\n",
      "    Message('note_on', channel=0, note=74, velocity=0, time=48),\n",
      "    Message('note_on', channel=0, note=79, velocity=94, time=12),\n",
      "    Message('note_on', channel=0, note=79, velocity=0, time=48),\n",
      "    Message('note_on', channel=0, note=78, velocity=94, time=12),\n",
      "    Message('note_on', channel=0, note=78, velocity=0, time=48),\n",
      "    Message('note_on', channel=0, note=79, velocity=94, time=12),\n",
      "    Message('note_on', channel=0, note=79, velocity=0, time=48),\n",
      "    Message('note_on', channel=0, note=74, velocity=94, time=12),\n",
      "    Message('note_on', channel=0, note=74, velocity=0, time=48),\n",
      "    Message('note_on', channel=0, note=71, velocity=94, time=12),\n",
      "    Message('note_on', channel=0, note=71, velocity=0, time=48),\n",
      "    Message('note_on', channel=0, note=67, velocity=94, time=12),\n",
      "    Message('note_on', channel=0, note=67, velocity=0, time=48),\n",
      "    Message('note_on', channel=0, note=69, velocity=94, time=12),\n",
      "    Message('note_on', channel=0, note=69, velocity=0, time=48),\n",
      "    Message('note_on', channel=0, note=71, velocity=94, time=12),\n",
      "    Message('note_on', channel=0, note=71, velocity=0, time=48),\n",
      "    Message('note_on', channel=0, note=64, velocity=94, time=12),\n",
      "    Message('note_on', channel=0, note=64, velocity=0, time=48),\n",
      "    Message('note_on', channel=0, note=74, velocity=94, time=12),\n",
      "    Message('note_on', channel=0, note=74, velocity=0, time=48),\n",
      "    Message('note_on', channel=0, note=72, velocity=94, time=12),\n",
      "    Message('note_on', channel=0, note=72, velocity=0, time=48),\n",
      "    Message('note_on', channel=0, note=71, velocity=94, time=12),\n",
      "    Message('note_on', channel=0, note=71, velocity=0, time=48),\n",
      "    Message('note_on', channel=0, note=69, velocity=94, time=12),\n",
      "    Message('note_on', channel=0, note=69, velocity=0, time=48),\n",
      "    Message('note_on', channel=0, note=67, velocity=94, time=12),\n",
      "    Message('note_on', channel=0, note=67, velocity=0, time=48),\n",
      "    Message('note_on', channel=0, note=62, velocity=94, time=12),\n",
      "    Message('note_on', channel=0, note=62, velocity=0, time=48),\n",
      "    Message('note_on', channel=0, note=67, velocity=94, time=12),\n",
      "    Message('note_on', channel=0, note=67, velocity=0, time=48),\n",
      "    Message('note_on', channel=0, note=66, velocity=94, time=12),\n",
      "    Message('note_on', channel=0, note=66, velocity=0, time=48),\n",
      "    Message('note_on', channel=0, note=62, velocity=94, time=12),\n",
      "    Message('note_on', channel=0, note=67, velocity=94, time=0),\n",
      "    Message('note_on', channel=0, note=59, velocity=94, time=0),\n",
      "    Message('note_on', channel=0, note=55, velocity=94, time=0),\n",
      "    Message('note_on', channel=0, note=62, velocity=0, time=456),\n",
      "    Message('note_on', channel=0, note=67, velocity=0, time=0),\n",
      "    Message('note_on', channel=0, note=59, velocity=0, time=0),\n",
      "    Message('note_on', channel=0, note=55, velocity=0, time=0),\n",
      "    Message('note_on', channel=0, note=67, velocity=104, time=143),\n",
      "    Message('note_on', channel=0, note=67, velocity=0, time=48),\n",
      "    Message('note_on', channel=0, note=69, velocity=104, time=12),\n",
      "    Message('note_on', channel=0, note=69, velocity=0, time=48),\n",
      "    Message('note_on', channel=0, note=71, velocity=104, time=12),\n",
      "    Message('note_on', channel=0, note=71, velocity=0, time=48),\n",
      "    Message('note_on', channel=0, note=74, velocity=104, time=12),\n",
      "    Message('note_on', channel=0, note=74, velocity=0, time=48),\n",
      "    Message('note_on', channel=0, note=72, velocity=104, time=12),\n",
      "    Message('note_on', channel=0, note=72, velocity=0, time=48),\n",
      "    Message('note_on', channel=0, note=72, velocity=104, time=12),\n",
      "    Message('note_on', channel=0, note=72, velocity=0, time=48),\n",
      "    Message('note_on', channel=0, note=76, velocity=104, time=12),\n",
      "    Message('note_on', channel=0, note=76, velocity=0, time=48),\n",
      "    Message('note_on', channel=0, note=74, velocity=104, time=12),\n",
      "    Message('note_on', channel=0, note=74, velocity=0, time=48),\n",
      "    Message('note_on', channel=0, note=74, velocity=104, time=12),\n",
      "    Message('note_on', channel=0, note=74, velocity=0, time=48),\n",
      "    Message('note_on', channel=0, note=79, velocity=104, time=12),\n",
      "    Message('note_on', channel=0, note=79, velocity=0, time=48),\n",
      "    Message('note_on', channel=0, note=78, velocity=104, time=12),\n",
      "    Message('note_on', channel=0, note=78, velocity=0, time=48),\n",
      "    Message('note_on', channel=0, note=79, velocity=104, time=12),\n",
      "    Message('note_on', channel=0, note=79, velocity=0, time=48),\n",
      "    Message('note_on', channel=0, note=74, velocity=104, time=12),\n",
      "    Message('note_on', channel=0, note=74, velocity=0, time=48),\n",
      "    Message('note_on', channel=0, note=71, velocity=104, time=12),\n",
      "    Message('note_on', channel=0, note=71, velocity=0, time=48),\n",
      "    Message('note_on', channel=0, note=67, velocity=104, time=12),\n",
      "    Message('note_on', channel=0, note=67, velocity=0, time=48),\n",
      "    Message('note_on', channel=0, note=69, velocity=104, time=12),\n",
      "    Message('note_on', channel=0, note=69, velocity=0, time=48),\n",
      "    Message('note_on', channel=0, note=71, velocity=104, time=12),\n",
      "    Message('note_on', channel=0, note=71, velocity=0, time=48),\n",
      "    Message('note_on', channel=0, note=72, velocity=104, time=12),\n",
      "    Message('note_on', channel=0, note=72, velocity=0, time=48),\n",
      "    Message('note_on', channel=0, note=74, velocity=104, time=12),\n",
      "    Message('note_on', channel=0, note=74, velocity=0, time=48),\n",
      "    Message('note_on', channel=0, note=76, velocity=104, time=12),\n",
      "    Message('note_on', channel=0, note=76, velocity=0, time=48),\n",
      "    Message('note_on', channel=0, note=74, velocity=104, time=12),\n",
      "    Message('note_on', channel=0, note=74, velocity=0, time=48),\n",
      "    Message('note_on', channel=0, note=72, velocity=104, time=12),\n",
      "    Message('note_on', channel=0, note=72, velocity=0, time=48),\n",
      "    Message('note_on', channel=0, note=71, velocity=104, time=12),\n",
      "    Message('note_on', channel=0, note=71, velocity=0, time=48),\n",
      "    Message('note_on', channel=0, note=69, velocity=104, time=12),\n",
      "    Message('note_on', channel=0, note=69, velocity=0, time=48),\n",
      "    Message('note_on', channel=0, note=71, velocity=104, time=12),\n",
      "    Message('note_on', channel=0, note=71, velocity=0, time=48),\n",
      "    Message('note_on', channel=0, note=67, velocity=104, time=12),\n",
      "    Message('note_on', channel=0, note=67, velocity=0, time=48),\n",
      "    Message('note_on', channel=0, note=66, velocity=104, time=12),\n",
      "    Message('note_on', channel=0, note=66, velocity=0, time=48),\n",
      "    Message('note_on', channel=0, note=67, velocity=104, time=12),\n",
      "    Message('note_on', channel=0, note=67, velocity=0, time=48),\n",
      "    Message('note_on', channel=0, note=69, velocity=104, time=12),\n",
      "    Message('note_on', channel=0, note=69, velocity=0, time=48),\n",
      "    Message('note_on', channel=0, note=62, velocity=104, time=12),\n",
      "    Message('note_on', channel=0, note=62, velocity=0, time=48),\n",
      "    Message('note_on', channel=0, note=66, velocity=104, time=12),\n",
      "    Message('note_on', channel=0, note=66, velocity=0, time=48),\n",
      "    Message('note_on', channel=0, note=69, velocity=104, time=12),\n",
      "    Message('note_on', channel=0, note=69, velocity=0, time=48),\n",
      "    Message('note_on', channel=0, note=72, velocity=104, time=12),\n",
      "    Message('note_on', channel=0, note=72, velocity=0, time=48),\n",
      "    Message('note_on', channel=0, note=71, velocity=104, time=12),\n",
      "    Message('note_on', channel=0, note=71, velocity=0, time=48),\n",
      "    Message('note_on', channel=0, note=69, velocity=104, time=12),\n",
      "    Message('note_on', channel=0, note=69, velocity=0, time=48),\n",
      "    Message('note_on', channel=0, note=71, velocity=104, time=12),\n",
      "    Message('note_on', channel=0, note=71, velocity=0, time=48),\n",
      "    Message('note_on', channel=0, note=67, velocity=104, time=12),\n",
      "    Message('note_on', channel=0, note=67, velocity=0, time=48),\n",
      "    Message('note_on', channel=0, note=69, velocity=104, time=12),\n",
      "    Message('note_on', channel=0, note=69, velocity=0, time=48),\n",
      "    Message('note_on', channel=0, note=71, velocity=104, time=12),\n",
      "    Message('note_on', channel=0, note=71, velocity=0, time=48),\n",
      "    Message('note_on', channel=0, note=74, velocity=104, time=12),\n",
      "    Message('note_on', channel=0, note=74, velocity=0, time=48),\n",
      "    Message('note_on', channel=0, note=72, velocity=104, time=12),\n",
      "    Message('note_on', channel=0, note=72, velocity=0, time=48),\n",
      "    Message('note_on', channel=0, note=72, velocity=104, time=12),\n",
      "    Message('note_on', channel=0, note=72, velocity=0, time=48),\n",
      "    Message('note_on', channel=0, note=76, velocity=104, time=12),\n",
      "    Message('note_on', channel=0, note=76, velocity=0, time=48),\n",
      "    Message('note_on', channel=0, note=74, velocity=104, time=12),\n",
      "    Message('note_on', channel=0, note=74, velocity=0, time=48),\n",
      "    Message('note_on', channel=0, note=74, velocity=104, time=12),\n",
      "    Message('note_on', channel=0, note=74, velocity=0, time=48),\n",
      "    Message('note_on', channel=0, note=79, velocity=104, time=12),\n",
      "    Message('note_on', channel=0, note=79, velocity=0, time=48),\n",
      "    Message('note_on', channel=0, note=78, velocity=104, time=12),\n",
      "    Message('note_on', channel=0, note=78, velocity=0, time=48),\n",
      "    Message('note_on', channel=0, note=79, velocity=104, time=12),\n",
      "    Message('note_on', channel=0, note=79, velocity=0, time=48),\n",
      "    Message('note_on', channel=0, note=74, velocity=104, time=12),\n",
      "    Message('note_on', channel=0, note=74, velocity=0, time=48),\n",
      "    Message('note_on', channel=0, note=71, velocity=104, time=12),\n",
      "    Message('note_on', channel=0, note=71, velocity=0, time=48),\n",
      "    Message('note_on', channel=0, note=67, velocity=104, time=12),\n",
      "    Message('note_on', channel=0, note=67, velocity=0, time=48),\n",
      "    Message('note_on', channel=0, note=69, velocity=104, time=12),\n",
      "    Message('note_on', channel=0, note=69, velocity=0, time=48),\n",
      "    Message('note_on', channel=0, note=71, velocity=104, time=12),\n",
      "    Message('note_on', channel=0, note=71, velocity=0, time=48),\n",
      "    Message('note_on', channel=0, note=64, velocity=104, time=12),\n",
      "    Message('note_on', channel=0, note=64, velocity=0, time=48),\n",
      "    Message('note_on', channel=0, note=74, velocity=104, time=12),\n",
      "    Message('note_on', channel=0, note=74, velocity=0, time=48),\n",
      "    Message('note_on', channel=0, note=72, velocity=104, time=12),\n",
      "    Message('note_on', channel=0, note=72, velocity=0, time=48),\n",
      "    Message('note_on', channel=0, note=71, velocity=104, time=12),\n",
      "    Message('note_on', channel=0, note=71, velocity=0, time=48),\n",
      "    Message('note_on', channel=0, note=69, velocity=104, time=12),\n",
      "    Message('note_on', channel=0, note=69, velocity=0, time=48),\n",
      "    Message('note_on', channel=0, note=67, velocity=104, time=12),\n",
      "    Message('note_on', channel=0, note=67, velocity=0, time=48),\n",
      "    Message('note_on', channel=0, note=62, velocity=104, time=12),\n",
      "    Message('note_on', channel=0, note=62, velocity=0, time=48),\n",
      "    Message('note_on', channel=0, note=67, velocity=104, time=12),\n",
      "    Message('note_on', channel=0, note=67, velocity=0, time=48),\n",
      "    Message('note_on', channel=0, note=66, velocity=104, time=12),\n",
      "    Message('note_on', channel=0, note=66, velocity=0, time=48),\n",
      "    Message('note_on', channel=0, note=67, velocity=104, time=12),\n",
      "    Message('note_on', channel=0, note=67, velocity=0, time=48),\n",
      "    Message('note_on', channel=0, note=71, velocity=104, time=12),\n",
      "    Message('note_on', channel=0, note=71, velocity=0, time=48),\n",
      "    Message('note_on', channel=0, note=74, velocity=104, time=12),\n",
      "    Message('note_on', channel=0, note=74, velocity=0, time=48),\n",
      "    Message('note_on', channel=0, note=79, velocity=104, time=12),\n",
      "    Message('note_on', channel=0, note=79, velocity=0, time=48),\n",
      "    Message('note_on', channel=0, note=74, velocity=104, time=12),\n",
      "    Message('note_on', channel=0, note=74, velocity=0, time=48),\n",
      "    Message('note_on', channel=0, note=71, velocity=104, time=12),\n",
      "    Message('note_on', channel=0, note=71, velocity=0, time=48),\n",
      "    Message('note_on', channel=0, note=67, velocity=104, time=12),\n",
      "    Message('note_on', channel=0, note=67, velocity=0, time=48),\n",
      "    Message('note_on', channel=0, note=71, velocity=104, time=12),\n",
      "    Message('note_on', channel=0, note=71, velocity=0, time=48),\n",
      "    Message('note_on', channel=0, note=74, velocity=104, time=12),\n",
      "    Message('note_on', channel=0, note=74, velocity=0, time=48),\n",
      "    Message('note_on', channel=0, note=62, velocity=104, time=12),\n",
      "    Message('note_on', channel=0, note=71, velocity=104, time=0),\n",
      "    Message('note_on', channel=0, note=67, velocity=104, time=0),\n",
      "    Message('note_on', channel=0, note=62, velocity=0, time=336),\n",
      "    Message('note_on', channel=0, note=71, velocity=0, time=0),\n",
      "    Message('note_on', channel=0, note=67, velocity=0, time=0),\n",
      "    Message('note_on', channel=0, note=64, velocity=104, time=24),\n",
      "    Message('note_on', channel=0, note=67, velocity=104, time=0),\n",
      "    Message('note_on', channel=0, note=60, velocity=104, time=0),\n",
      "    Message('note_on', channel=0, note=72, velocity=104, time=0),\n",
      "    Message('note_on', channel=0, note=64, velocity=0, time=168),\n",
      "    Message('note_on', channel=0, note=67, velocity=0, time=0),\n",
      "    Message('note_on', channel=0, note=60, velocity=0, time=0),\n",
      "    Message('note_on', channel=0, note=72, velocity=0, time=0),\n",
      "    Message('note_on', channel=0, note=74, velocity=104, time=12),\n",
      "    Message('note_on', channel=0, note=74, velocity=0, time=336),\n",
      "    Message('note_on', channel=0, note=66, velocity=104, time=24),\n",
      "    Message('note_on', channel=0, note=71, velocity=104, time=0),\n",
      "    Message('note_on', channel=0, note=74, velocity=104, time=0),\n",
      "    Message('note_on', channel=0, note=62, velocity=104, time=0),\n",
      "    Message('note_on', channel=0, note=66, velocity=0, time=168),\n",
      "    Message('note_on', channel=0, note=71, velocity=0, time=0),\n",
      "    Message('note_on', channel=0, note=74, velocity=0, time=0),\n",
      "    Message('note_on', channel=0, note=62, velocity=0, time=0),\n",
      "    Message('note_on', channel=0, note=72, velocity=104, time=12),\n",
      "    Message('note_on', channel=0, note=72, velocity=0, time=336),\n",
      "    Message('note_on', channel=0, note=67, velocity=104, time=24),\n",
      "    Message('note_on', channel=0, note=62, velocity=104, time=0),\n",
      "    Message('note_on', channel=0, note=71, velocity=104, time=0),\n",
      "    Message('note_on', channel=0, note=67, velocity=0, time=168),\n",
      "    Message('note_on', channel=0, note=62, velocity=0, time=0),\n",
      "    Message('note_on', channel=0, note=71, velocity=0, time=0),\n",
      "    Message('note_on', channel=0, note=66, velocity=104, time=12),\n",
      "    Message('note_on', channel=0, note=69, velocity=104, time=0),\n",
      "    Message('note_on', channel=0, note=66, velocity=0, time=48),\n",
      "    Message('note_on', channel=0, note=69, velocity=0, time=0),\n",
      "    Message('note_on', channel=0, note=62, velocity=104, time=12),\n",
      "    Message('note_on', channel=0, note=62, velocity=0, time=48),\n",
      "    Message('note_on', channel=0, note=64, velocity=104, time=12),\n",
      "    Message('note_on', channel=0, note=64, velocity=0, time=48),\n",
      "    Message('note_on', channel=0, note=66, velocity=104, time=12),\n",
      "    Message('note_on', channel=0, note=69, velocity=104, time=0),\n",
      "    Message('note_on', channel=0, note=66, velocity=0, time=48),\n",
      "    Message('note_on', channel=0, note=69, velocity=0, time=0),\n",
      "    Message('note_on', channel=0, note=69, velocity=104, time=12),\n",
      "    Message('note_on', channel=0, note=69, velocity=0, time=48),\n",
      "    Message('note_on', channel=0, note=67, velocity=104, time=12),\n",
      "    Message('note_on', channel=0, note=67, velocity=0, time=48),\n",
      "    Message('note_on', channel=0, note=69, velocity=104, time=12),\n",
      "    Message('note_on', channel=0, note=69, velocity=0, time=48),\n",
      "    Message('note_on', channel=0, note=72, velocity=104, time=12),\n",
      "    Message('note_on', channel=0, note=72, velocity=0, time=48),\n",
      "    Message('note_on', channel=0, note=71, velocity=104, time=12),\n",
      "    Message('note_on', channel=0, note=71, velocity=0, time=48),\n",
      "    Message('note_on', channel=0, note=72, velocity=104, time=12),\n",
      "    Message('note_on', channel=0, note=72, velocity=0, time=48),\n",
      "    Message('note_on', channel=0, note=69, velocity=104, time=12),\n",
      "    Message('note_on', channel=0, note=69, velocity=0, time=48),\n",
      "    Message('note_on', channel=0, note=66, velocity=104, time=12),\n",
      "    Message('note_on', channel=0, note=66, velocity=0, time=48),\n",
      "    Message('note_on', channel=0, note=62, velocity=104, time=12),\n",
      "    Message('note_on', channel=0, note=62, velocity=0, time=48),\n",
      "    Message('note_on', channel=0, note=66, velocity=104, time=12),\n",
      "    Message('note_on', channel=0, note=66, velocity=0, time=48),\n",
      "    Message('note_on', channel=0, note=69, velocity=104, time=12),\n",
      "    Message('note_on', channel=0, note=69, velocity=0, time=48),\n",
      "    Message('note_on', channel=0, note=72, velocity=104, time=12),\n",
      "    Message('note_on', channel=0, note=72, velocity=0, time=48),\n",
      "    Message('note_on', channel=0, note=71, velocity=104, time=12),\n",
      "    Message('note_on', channel=0, note=71, velocity=0, time=48),\n",
      "    Message('note_on', channel=0, note=69, velocity=104, time=12),\n",
      "    Message('note_on', channel=0, note=69, velocity=0, time=48),\n",
      "    Message('note_on', channel=0, note=67, velocity=104, time=12),\n",
      "    Message('note_on', channel=0, note=71, velocity=104, time=0),\n",
      "    Message('note_on', channel=0, note=67, velocity=0, time=336),\n",
      "    Message('note_on', channel=0, note=71, velocity=0, time=0),\n",
      "    Message('note_on', channel=0, note=64, velocity=104, time=24),\n",
      "    Message('note_on', channel=0, note=72, velocity=104, time=0),\n",
      "    Message('note_on', channel=0, note=67, velocity=104, time=0),\n",
      "    Message('note_on', channel=0, note=60, velocity=104, time=0),\n",
      "    Message('note_on', channel=0, note=64, velocity=0, time=168),\n",
      "    Message('note_on', channel=0, note=72, velocity=0, time=0),\n",
      "    Message('note_on', channel=0, note=67, velocity=0, time=0),\n",
      "    Message('note_on', channel=0, note=60, velocity=0, time=0),\n",
      "    Message('note_on', channel=0, note=67, velocity=104, time=12),\n",
      "    Message('note_on', channel=0, note=62, velocity=104, time=0),\n",
      "    Message('note_on', channel=0, note=74, velocity=104, time=0),\n",
      "    Message('note_on', channel=0, note=67, velocity=0, time=336),\n",
      "    Message('note_on', channel=0, note=62, velocity=0, time=0),\n",
      "    Message('note_on', channel=0, note=74, velocity=0, time=0),\n",
      "    Message('note_on', channel=0, note=67, velocity=104, time=24),\n",
      "    Message('note_on', channel=0, note=64, velocity=104, time=0),\n",
      "    Message('note_on', channel=0, note=71, velocity=104, time=0),\n",
      "    Message('note_on', channel=0, note=67, velocity=0, time=168),\n",
      "    Message('note_on', channel=0, note=64, velocity=0, time=0),\n",
      "    Message('note_on', channel=0, note=71, velocity=0, time=0),\n",
      "    Message('note_on', channel=0, note=69, velocity=63, time=12),\n",
      "    Message('note_on', channel=0, note=69, velocity=0, time=116),\n",
      "    Message('note_on', channel=0, note=71, velocity=74, time=4),\n",
      "    Message('note_on', channel=0, note=72, velocity=68, time=30),\n",
      "    Message('note_on', channel=0, note=71, velocity=0, time=14),\n",
      "    Message('note_on', channel=0, note=71, velocity=65, time=16),\n",
      "    Message('note_on', channel=0, note=66, velocity=67, time=0),\n",
      "    Message('note_on', channel=0, note=62, velocity=55, time=0),\n",
      "    Message('note_on', channel=0, note=72, velocity=0, time=14),\n",
      "    Message('note_on', channel=0, note=66, velocity=55, time=166),\n",
      "    Message('note_on', channel=0, note=60, velocity=46, time=0),\n",
      "    Message('note_on', channel=0, note=69, velocity=45, time=0),\n",
      "    Message('note_on', channel=0, note=71, velocity=0, time=8),\n",
      "    Message('note_on', channel=0, note=66, velocity=0, time=0),\n",
      "    Message('note_on', channel=0, note=62, velocity=0, time=0),\n",
      "    Message('note_on', channel=0, note=67, velocity=104, time=172),\n",
      "    Message('note_on', channel=0, note=66, velocity=0, time=8),\n",
      "    Message('note_on', channel=0, note=60, velocity=0, time=0),\n",
      "    Message('note_on', channel=0, note=69, velocity=0, time=0),\n",
      "    Message('note_on', channel=0, note=67, velocity=0, time=40),\n",
      "    Message('note_on', channel=0, note=71, velocity=104, time=12),\n",
      "    Message('note_on', channel=0, note=71, velocity=0, time=48),\n",
      "    Message('note_on', channel=0, note=69, velocity=104, time=12),\n",
      "    Message('note_on', channel=0, note=69, velocity=0, time=48),\n",
      "    Message('note_on', channel=0, note=71, velocity=104, time=12),\n",
      "    Message('note_on', channel=0, note=71, velocity=0, time=48),\n",
      "    Message('note_on', channel=0, note=74, velocity=104, time=12),\n",
      "    Message('note_on', channel=0, note=74, velocity=0, time=48),\n",
      "    Message('note_on', channel=0, note=72, velocity=104, time=12),\n",
      "    Message('note_on', channel=0, note=72, velocity=0, time=48),\n",
      "    Message('note_on', channel=0, note=72, velocity=104, time=12),\n",
      "    Message('note_on', channel=0, note=72, velocity=0, time=48),\n",
      "    Message('note_on', channel=0, note=76, velocity=104, time=12),\n",
      "    Message('note_on', channel=0, note=76, velocity=0, time=48),\n",
      "    Message('note_on', channel=0, note=74, velocity=104, time=12),\n",
      "    Message('note_on', channel=0, note=74, velocity=0, time=48),\n",
      "    Message('note_on', channel=0, note=74, velocity=104, time=12),\n",
      "    Message('note_on', channel=0, note=74, velocity=0, time=48),\n",
      "    Message('note_on', channel=0, note=79, velocity=104, time=12),\n",
      "    Message('note_on', channel=0, note=79, velocity=0, time=48),\n",
      "    Message('note_on', channel=0, note=78, velocity=104, time=12),\n",
      "    Message('note_on', channel=0, note=78, velocity=0, time=48),\n",
      "    Message('note_on', channel=0, note=79, velocity=104, time=12),\n",
      "    Message('note_on', channel=0, note=79, velocity=0, time=48),\n",
      "    Message('note_on', channel=0, note=74, velocity=104, time=12),\n",
      "    Message('note_on', channel=0, note=74, velocity=0, time=48),\n",
      "    Message('note_on', channel=0, note=71, velocity=104, time=12),\n",
      "    Message('note_on', channel=0, note=71, velocity=0, time=48),\n",
      "    Message('note_on', channel=0, note=67, velocity=104, time=12),\n",
      "    Message('note_on', channel=0, note=67, velocity=0, time=48),\n",
      "    Message('note_on', channel=0, note=69, velocity=104, time=12),\n",
      "    Message('note_on', channel=0, note=69, velocity=0, time=48),\n",
      "    Message('note_on', channel=0, note=71, velocity=104, time=12),\n",
      "    Message('note_on', channel=0, note=71, velocity=0, time=48),\n",
      "    Message('note_on', channel=0, note=72, velocity=104, time=12),\n",
      "    Message('note_on', channel=0, note=72, velocity=0, time=48),\n",
      "    Message('note_on', channel=0, note=74, velocity=104, time=12),\n",
      "    Message('note_on', channel=0, note=74, velocity=0, time=48),\n",
      "    Message('note_on', channel=0, note=76, velocity=104, time=12),\n",
      "    Message('note_on', channel=0, note=76, velocity=0, time=48),\n",
      "    Message('note_on', channel=0, note=74, velocity=104, time=12),\n",
      "    Message('note_on', channel=0, note=74, velocity=0, time=48),\n",
      "    Message('note_on', channel=0, note=72, velocity=104, time=12),\n",
      "    Message('note_on', channel=0, note=72, velocity=0, time=48),\n",
      "    Message('note_on', channel=0, note=71, velocity=104, time=12),\n",
      "    Message('note_on', channel=0, note=71, velocity=0, time=48),\n",
      "    Message('note_on', channel=0, note=69, velocity=104, time=12),\n",
      "    Message('note_on', channel=0, note=69, velocity=0, time=48),\n",
      "    Message('note_on', channel=0, note=71, velocity=104, time=12),\n",
      "    Message('note_on', channel=0, note=71, velocity=0, time=48),\n",
      "    Message('note_on', channel=0, note=67, velocity=104, time=12),\n",
      "    Message('note_on', channel=0, note=67, velocity=0, time=48),\n",
      "    Message('note_on', channel=0, note=66, velocity=104, time=12),\n",
      "    Message('note_on', channel=0, note=66, velocity=0, time=48),\n",
      "    Message('note_on', channel=0, note=67, velocity=104, time=12),\n",
      "    Message('note_on', channel=0, note=67, velocity=0, time=48),\n",
      "    Message('note_on', channel=0, note=69, velocity=104, time=12),\n",
      "    Message('note_on', channel=0, note=69, velocity=0, time=48),\n",
      "    Message('note_on', channel=0, note=62, velocity=104, time=12),\n",
      "    Message('note_on', channel=0, note=62, velocity=0, time=48),\n",
      "    Message('note_on', channel=0, note=66, velocity=104, time=12),\n",
      "    Message('note_on', channel=0, note=66, velocity=0, time=48),\n",
      "    Message('note_on', channel=0, note=69, velocity=104, time=12),\n",
      "    Message('note_on', channel=0, note=69, velocity=0, time=48),\n",
      "    Message('note_on', channel=0, note=72, velocity=104, time=12),\n",
      "    Message('note_on', channel=0, note=72, velocity=0, time=48),\n",
      "    Message('note_on', channel=0, note=71, velocity=104, time=12),\n",
      "    Message('note_on', channel=0, note=71, velocity=0, time=48),\n",
      "    Message('note_on', channel=0, note=69, velocity=104, time=12),\n",
      "    Message('note_on', channel=0, note=69, velocity=0, time=48),\n",
      "    Message('note_on', channel=0, note=71, velocity=104, time=12),\n",
      "    Message('note_on', channel=0, note=71, velocity=0, time=48),\n",
      "    Message('note_on', channel=0, note=67, velocity=104, time=12),\n",
      "    Message('note_on', channel=0, note=67, velocity=0, time=48),\n",
      "    Message('note_on', channel=0, note=69, velocity=104, time=12),\n",
      "    Message('note_on', channel=0, note=69, velocity=0, time=48),\n",
      "    Message('note_on', channel=0, note=71, velocity=104, time=12),\n",
      "    Message('note_on', channel=0, note=71, velocity=0, time=48),\n",
      "    Message('note_on', channel=0, note=74, velocity=104, time=12),\n",
      "    Message('note_on', channel=0, note=74, velocity=0, time=48),\n",
      "    Message('note_on', channel=0, note=72, velocity=104, time=12),\n",
      "    Message('note_on', channel=0, note=72, velocity=0, time=48),\n",
      "    Message('note_on', channel=0, note=72, velocity=104, time=12),\n",
      "    Message('note_on', channel=0, note=72, velocity=0, time=48),\n",
      "    Message('note_on', channel=0, note=76, velocity=104, time=12),\n",
      "    Message('note_on', channel=0, note=76, velocity=0, time=48),\n",
      "    Message('note_on', channel=0, note=74, velocity=104, time=12),\n",
      "    Message('note_on', channel=0, note=74, velocity=0, time=48),\n",
      "    Message('note_on', channel=0, note=74, velocity=104, time=12),\n",
      "    Message('note_on', channel=0, note=74, velocity=0, time=48),\n",
      "    Message('note_on', channel=0, note=79, velocity=104, time=12),\n",
      "    Message('note_on', channel=0, note=79, velocity=0, time=48),\n",
      "    Message('note_on', channel=0, note=78, velocity=104, time=12),\n",
      "    Message('note_on', channel=0, note=78, velocity=0, time=48),\n",
      "    Message('note_on', channel=0, note=79, velocity=104, time=12),\n",
      "    Message('note_on', channel=0, note=79, velocity=0, time=48),\n",
      "    Message('note_on', channel=0, note=74, velocity=104, time=12),\n",
      "    Message('note_on', channel=0, note=74, velocity=0, time=48),\n",
      "    Message('note_on', channel=0, note=71, velocity=104, time=12),\n",
      "    Message('note_on', channel=0, note=71, velocity=0, time=48),\n",
      "    Message('note_on', channel=0, note=67, velocity=104, time=12),\n",
      "    Message('note_on', channel=0, note=67, velocity=0, time=48),\n",
      "    Message('note_on', channel=0, note=69, velocity=104, time=12),\n",
      "    Message('note_on', channel=0, note=69, velocity=0, time=48),\n",
      "    Message('note_on', channel=0, note=71, velocity=104, time=12),\n",
      "    Message('note_on', channel=0, note=71, velocity=0, time=48),\n",
      "    Message('note_on', channel=0, note=64, velocity=104, time=12),\n",
      "    Message('note_on', channel=0, note=64, velocity=0, time=48),\n",
      "    Message('note_on', channel=0, note=74, velocity=104, time=12),\n",
      "    Message('note_on', channel=0, note=74, velocity=0, time=48),\n",
      "    Message('note_on', channel=0, note=72, velocity=104, time=12),\n",
      "    Message('note_on', channel=0, note=72, velocity=0, time=48),\n",
      "    Message('note_on', channel=0, note=71, velocity=104, time=12),\n",
      "    Message('note_on', channel=0, note=71, velocity=0, time=48),\n",
      "    Message('note_on', channel=0, note=69, velocity=104, time=12),\n",
      "    Message('note_on', channel=0, note=69, velocity=0, time=48),\n",
      "    Message('note_on', channel=0, note=67, velocity=104, time=12),\n",
      "    Message('note_on', channel=0, note=67, velocity=0, time=48),\n",
      "    Message('note_on', channel=0, note=62, velocity=104, time=12),\n",
      "    Message('note_on', channel=0, note=62, velocity=0, time=48),\n",
      "    Message('note_on', channel=0, note=67, velocity=104, time=12),\n",
      "    Message('note_on', channel=0, note=67, velocity=0, time=48),\n",
      "    Message('note_on', channel=0, note=66, velocity=104, time=12),\n",
      "    Message('note_on', channel=0, note=66, velocity=0, time=48),\n",
      "    Message('note_on', channel=0, note=67, velocity=104, time=12),\n",
      "    Message('note_on', channel=0, note=71, velocity=104, time=0),\n",
      "    Message('note_on', channel=0, note=67, velocity=0, time=336),\n",
      "    Message('note_on', channel=0, note=71, velocity=0, time=0),\n",
      "    Message('note_on', channel=0, note=64, velocity=104, time=24),\n",
      "    Message('note_on', channel=0, note=60, velocity=104, time=0),\n",
      "    Message('note_on', channel=0, note=67, velocity=104, time=0),\n",
      "    Message('note_on', channel=0, note=72, velocity=104, time=0),\n",
      "    Message('note_on', channel=0, note=64, velocity=0, time=168),\n",
      "    Message('note_on', channel=0, note=60, velocity=0, time=0),\n",
      "    Message('note_on', channel=0, note=67, velocity=0, time=0),\n",
      "    Message('note_on', channel=0, note=72, velocity=0, time=0),\n",
      "    Message('note_on', channel=0, note=74, velocity=104, time=12),\n",
      "    Message('note_on', channel=0, note=74, velocity=0, time=336),\n",
      "    Message('note_on', channel=0, note=66, velocity=104, time=24),\n",
      "    Message('note_on', channel=0, note=71, velocity=104, time=0),\n",
      "    Message('note_on', channel=0, note=74, velocity=104, time=0),\n",
      "    Message('note_on', channel=0, note=62, velocity=104, time=0),\n",
      "    Message('note_on', channel=0, note=66, velocity=0, time=168),\n",
      "    Message('note_on', channel=0, note=71, velocity=0, time=0),\n",
      "    Message('note_on', channel=0, note=74, velocity=0, time=0),\n",
      "    Message('note_on', channel=0, note=62, velocity=0, time=0),\n",
      "    Message('note_on', channel=0, note=72, velocity=104, time=12),\n",
      "    Message('note_on', channel=0, note=72, velocity=0, time=336),\n",
      "    Message('note_on', channel=0, note=67, velocity=104, time=24),\n",
      "    Message('note_on', channel=0, note=62, velocity=104, time=0),\n",
      "    Message('note_on', channel=0, note=71, velocity=104, time=0),\n",
      "    Message('note_on', channel=0, note=67, velocity=0, time=168),\n",
      "    Message('note_on', channel=0, note=62, velocity=0, time=0),\n",
      "    Message('note_on', channel=0, note=71, velocity=0, time=0),\n",
      "    Message('note_on', channel=0, note=66, velocity=104, time=12),\n",
      "    Message('note_on', channel=0, note=69, velocity=104, time=0),\n",
      "    Message('note_on', channel=0, note=66, velocity=0, time=48),\n",
      "    Message('note_on', channel=0, note=69, velocity=0, time=0),\n",
      "    Message('note_on', channel=0, note=62, velocity=104, time=12),\n",
      "    Message('note_on', channel=0, note=62, velocity=0, time=48),\n",
      "    Message('note_on', channel=0, note=64, velocity=104, time=12),\n",
      "    Message('note_on', channel=0, note=64, velocity=0, time=48),\n",
      "    Message('note_on', channel=0, note=66, velocity=104, time=12),\n",
      "    Message('note_on', channel=0, note=69, velocity=104, time=0),\n",
      "    Message('note_on', channel=0, note=66, velocity=0, time=48),\n",
      "    Message('note_on', channel=0, note=69, velocity=0, time=0),\n",
      "    Message('note_on', channel=0, note=69, velocity=104, time=12),\n",
      "    Message('note_on', channel=0, note=69, velocity=0, time=48),\n",
      "    Message('note_on', channel=0, note=67, velocity=104, time=12),\n",
      "    Message('note_on', channel=0, note=67, velocity=0, time=48),\n",
      "    Message('note_on', channel=0, note=69, velocity=104, time=12),\n",
      "    Message('note_on', channel=0, note=69, velocity=0, time=48),\n",
      "    Message('note_on', channel=0, note=72, velocity=104, time=12),\n",
      "    Message('note_on', channel=0, note=72, velocity=0, time=48),\n",
      "    Message('note_on', channel=0, note=71, velocity=104, time=12),\n",
      "    Message('note_on', channel=0, note=71, velocity=0, time=48),\n",
      "    Message('note_on', channel=0, note=72, velocity=104, time=12),\n",
      "    Message('note_on', channel=0, note=72, velocity=0, time=48),\n",
      "    Message('note_on', channel=0, note=69, velocity=104, time=12),\n",
      "    Message('note_on', channel=0, note=69, velocity=0, time=48),\n",
      "    Message('note_on', channel=0, note=66, velocity=104, time=12),\n",
      "    Message('note_on', channel=0, note=66, velocity=0, time=48),\n",
      "    Message('note_on', channel=0, note=62, velocity=104, time=12),\n",
      "    Message('note_on', channel=0, note=62, velocity=0, time=48),\n",
      "    Message('note_on', channel=0, note=66, velocity=104, time=12),\n",
      "    Message('note_on', channel=0, note=66, velocity=0, time=48),\n",
      "    Message('note_on', channel=0, note=69, velocity=104, time=12),\n",
      "    Message('note_on', channel=0, note=69, velocity=0, time=48),\n",
      "    Message('note_on', channel=0, note=72, velocity=104, time=12),\n",
      "    Message('note_on', channel=0, note=72, velocity=0, time=48),\n",
      "    Message('note_on', channel=0, note=71, velocity=104, time=12),\n",
      "    Message('note_on', channel=0, note=71, velocity=0, time=48),\n",
      "    Message('note_on', channel=0, note=69, velocity=104, time=12),\n",
      "    Message('note_on', channel=0, note=69, velocity=0, time=48),\n",
      "    Message('note_on', channel=0, note=71, velocity=104, time=12),\n",
      "    Message('note_on', channel=0, note=67, velocity=104, time=0),\n",
      "    Message('note_on', channel=0, note=71, velocity=0, time=336),\n",
      "    Message('note_on', channel=0, note=67, velocity=0, time=0),\n",
      "    Message('note_on', channel=0, note=64, velocity=104, time=24),\n",
      "    Message('note_on', channel=0, note=60, velocity=104, time=0),\n",
      "    Message('note_on', channel=0, note=67, velocity=104, time=0),\n",
      "    Message('note_on', channel=0, note=72, velocity=104, time=0),\n",
      "    Message('note_on', channel=0, note=64, velocity=0, time=168),\n",
      "    Message('note_on', channel=0, note=60, velocity=0, time=0),\n",
      "    Message('note_on', channel=0, note=67, velocity=0, time=0),\n",
      "    Message('note_on', channel=0, note=72, velocity=0, time=0),\n",
      "    Message('note_on', channel=0, note=67, velocity=104, time=12),\n",
      "    Message('note_on', channel=0, note=74, velocity=104, time=0),\n",
      "    Message('note_on', channel=0, note=62, velocity=104, time=0),\n",
      "    Message('note_on', channel=0, note=67, velocity=0, time=336),\n",
      "    Message('note_on', channel=0, note=74, velocity=0, time=0),\n",
      "    Message('note_on', channel=0, note=62, velocity=0, time=0),\n",
      "    Message('note_on', channel=0, note=67, velocity=104, time=24),\n",
      "    Message('note_on', channel=0, note=64, velocity=104, time=0),\n",
      "    Message('note_on', channel=0, note=71, velocity=104, time=0),\n",
      "    Message('note_on', channel=0, note=67, velocity=0, time=168),\n",
      "    Message('note_on', channel=0, note=64, velocity=0, time=0),\n",
      "    Message('note_on', channel=0, note=71, velocity=0, time=0),\n",
      "    Message('note_on', channel=0, note=69, velocity=104, time=12),\n",
      "    Message('note_on', channel=0, note=69, velocity=0, time=116),\n",
      "    Message('note_on', channel=0, note=71, velocity=104, time=4),\n",
      "    Message('note_on', channel=0, note=72, velocity=104, time=30),\n",
      "    Message('note_on', channel=0, note=71, velocity=0, time=14),\n",
      "    Message('note_on', channel=0, note=66, velocity=104, time=16),\n",
      "    Message('note_on', channel=0, note=71, velocity=104, time=0),\n",
      "    Message('note_on', channel=0, note=62, velocity=104, time=0),\n",
      "    Message('note_on', channel=0, note=72, velocity=0, time=14),\n",
      "    Message('note_on', channel=0, note=66, velocity=0, time=154),\n",
      "    Message('note_on', channel=0, note=71, velocity=0, time=0),\n",
      "    Message('note_on', channel=0, note=62, velocity=0, time=0),\n",
      "    Message('note_on', channel=0, note=66, velocity=104, time=12),\n",
      "    Message('note_on', channel=0, note=60, velocity=104, time=0),\n",
      "    Message('note_on', channel=0, note=69, velocity=104, time=0),\n",
      "    Message('note_on', channel=0, note=66, velocity=0, time=168),\n",
      "    Message('note_on', channel=0, note=60, velocity=0, time=0),\n",
      "    Message('note_on', channel=0, note=69, velocity=0, time=0),\n",
      "    Message('note_on', channel=0, note=67, velocity=104, time=12),\n",
      "    Message('note_on', channel=0, note=67, velocity=0, time=48),\n",
      "    Message('note_on', channel=0, note=71, velocity=104, time=12),\n",
      "    Message('note_on', channel=0, note=71, velocity=0, time=48),\n",
      "    Message('note_on', channel=0, note=69, velocity=104, time=12),\n",
      "    Message('note_on', channel=0, note=69, velocity=0, time=48),\n",
      "    Message('note_on', channel=0, note=71, velocity=104, time=12),\n",
      "    Message('note_on', channel=0, note=71, velocity=0, time=48),\n",
      "    Message('note_on', channel=0, note=74, velocity=104, time=12),\n",
      "    Message('note_on', channel=0, note=74, velocity=0, time=48),\n",
      "    Message('note_on', channel=0, note=72, velocity=104, time=12),\n",
      "    Message('note_on', channel=0, note=72, velocity=0, time=48),\n",
      "    Message('note_on', channel=0, note=72, velocity=104, time=12),\n",
      "    Message('note_on', channel=0, note=72, velocity=0, time=48),\n",
      "    Message('note_on', channel=0, note=76, velocity=104, time=12),\n",
      "    Message('note_on', channel=0, note=76, velocity=0, time=48),\n",
      "    Message('note_on', channel=0, note=74, velocity=104, time=12),\n",
      "    Message('note_on', channel=0, note=74, velocity=0, time=48),\n",
      "    Message('note_on', channel=0, note=74, velocity=104, time=12),\n",
      "    Message('note_on', channel=0, note=74, velocity=0, time=48),\n",
      "    Message('note_on', channel=0, note=79, velocity=104, time=12),\n",
      "    Message('note_on', channel=0, note=79, velocity=0, time=48),\n",
      "    Message('note_on', channel=0, note=78, velocity=104, time=12),\n",
      "    Message('note_on', channel=0, note=78, velocity=0, time=48),\n",
      "    Message('note_on', channel=0, note=79, velocity=104, time=12),\n",
      "    Message('note_on', channel=0, note=79, velocity=0, time=48),\n",
      "    Message('note_on', channel=0, note=74, velocity=104, time=12),\n",
      "    Message('note_on', channel=0, note=74, velocity=0, time=48),\n",
      "    Message('note_on', channel=0, note=71, velocity=104, time=12),\n",
      "    Message('note_on', channel=0, note=71, velocity=0, time=48),\n",
      "    Message('note_on', channel=0, note=67, velocity=104, time=12),\n",
      "    Message('note_on', channel=0, note=67, velocity=0, time=48),\n",
      "    Message('note_on', channel=0, note=69, velocity=104, time=12),\n",
      "    Message('note_on', channel=0, note=69, velocity=0, time=48),\n",
      "    Message('note_on', channel=0, note=71, velocity=104, time=12),\n",
      "    Message('note_on', channel=0, note=71, velocity=0, time=48),\n",
      "    Message('note_on', channel=0, note=72, velocity=104, time=12),\n",
      "    Message('note_on', channel=0, note=72, velocity=0, time=48),\n",
      "    Message('note_on', channel=0, note=74, velocity=104, time=12),\n",
      "    Message('note_on', channel=0, note=74, velocity=0, time=48),\n",
      "    Message('note_on', channel=0, note=76, velocity=104, time=12),\n",
      "    Message('note_on', channel=0, note=76, velocity=0, time=48),\n",
      "    Message('note_on', channel=0, note=74, velocity=104, time=12),\n",
      "    Message('note_on', channel=0, note=74, velocity=0, time=48),\n",
      "    Message('note_on', channel=0, note=72, velocity=104, time=12),\n",
      "    Message('note_on', channel=0, note=72, velocity=0, time=48),\n",
      "    Message('note_on', channel=0, note=71, velocity=104, time=12),\n",
      "    Message('note_on', channel=0, note=71, velocity=0, time=48),\n",
      "    Message('note_on', channel=0, note=69, velocity=104, time=12),\n",
      "    Message('note_on', channel=0, note=69, velocity=0, time=48),\n",
      "    Message('note_on', channel=0, note=71, velocity=104, time=12),\n",
      "    Message('note_on', channel=0, note=71, velocity=0, time=48),\n",
      "    Message('note_on', channel=0, note=67, velocity=104, time=12),\n",
      "    Message('note_on', channel=0, note=67, velocity=0, time=48),\n",
      "    Message('note_on', channel=0, note=66, velocity=104, time=12),\n",
      "    Message('note_on', channel=0, note=66, velocity=0, time=48),\n",
      "    Message('note_on', channel=0, note=67, velocity=104, time=12),\n",
      "    Message('note_on', channel=0, note=67, velocity=0, time=48),\n",
      "    Message('note_on', channel=0, note=69, velocity=104, time=12),\n",
      "    Message('note_on', channel=0, note=69, velocity=0, time=48),\n",
      "    Message('note_on', channel=0, note=62, velocity=104, time=12),\n",
      "    Message('note_on', channel=0, note=62, velocity=0, time=48),\n",
      "    Message('note_on', channel=0, note=66, velocity=104, time=12),\n",
      "    Message('note_on', channel=0, note=66, velocity=0, time=48),\n",
      "    Message('note_on', channel=0, note=69, velocity=104, time=12),\n",
      "    Message('note_on', channel=0, note=69, velocity=0, time=48),\n",
      "    Message('note_on', channel=0, note=72, velocity=104, time=12),\n",
      "    Message('note_on', channel=0, note=72, velocity=0, time=48),\n",
      "    Message('note_on', channel=0, note=71, velocity=104, time=12),\n",
      "    Message('note_on', channel=0, note=71, velocity=0, time=48),\n",
      "    Message('note_on', channel=0, note=69, velocity=104, time=12),\n",
      "    Message('note_on', channel=0, note=69, velocity=0, time=48),\n",
      "    Message('note_on', channel=0, note=71, velocity=104, time=12),\n",
      "    Message('note_on', channel=0, note=71, velocity=0, time=48),\n",
      "    Message('note_on', channel=0, note=67, velocity=104, time=12),\n",
      "    Message('note_on', channel=0, note=67, velocity=0, time=48),\n",
      "    Message('note_on', channel=0, note=69, velocity=104, time=12),\n",
      "    Message('note_on', channel=0, note=69, velocity=0, time=48),\n",
      "    Message('note_on', channel=0, note=71, velocity=104, time=12),\n",
      "    Message('note_on', channel=0, note=71, velocity=0, time=48),\n",
      "    Message('note_on', channel=0, note=74, velocity=104, time=12),\n",
      "    Message('note_on', channel=0, note=74, velocity=0, time=48),\n",
      "    Message('note_on', channel=0, note=72, velocity=104, time=12),\n",
      "    Message('note_on', channel=0, note=72, velocity=0, time=48),\n",
      "    Message('note_on', channel=0, note=72, velocity=104, time=12),\n",
      "    Message('note_on', channel=0, note=72, velocity=0, time=48),\n",
      "    Message('note_on', channel=0, note=76, velocity=104, time=12),\n",
      "    Message('note_on', channel=0, note=76, velocity=0, time=48),\n",
      "    Message('note_on', channel=0, note=74, velocity=104, time=12),\n",
      "    Message('note_on', channel=0, note=74, velocity=0, time=48),\n",
      "    Message('note_on', channel=0, note=74, velocity=104, time=12),\n",
      "    Message('note_on', channel=0, note=74, velocity=0, time=48),\n",
      "    Message('note_on', channel=0, note=79, velocity=104, time=12),\n",
      "    Message('note_on', channel=0, note=79, velocity=0, time=48),\n",
      "    Message('note_on', channel=0, note=78, velocity=104, time=12),\n",
      "    Message('note_on', channel=0, note=78, velocity=0, time=48),\n",
      "    Message('note_on', channel=0, note=79, velocity=104, time=12),\n",
      "    Message('note_on', channel=0, note=79, velocity=0, time=48),\n",
      "    Message('note_on', channel=0, note=74, velocity=104, time=12),\n",
      "    Message('note_on', channel=0, note=74, velocity=0, time=48),\n",
      "    Message('note_on', channel=0, note=71, velocity=104, time=12),\n",
      "    Message('note_on', channel=0, note=71, velocity=0, time=48),\n",
      "    Message('note_on', channel=0, note=67, velocity=104, time=12),\n",
      "    Message('note_on', channel=0, note=67, velocity=0, time=48),\n",
      "    Message('note_on', channel=0, note=69, velocity=104, time=12),\n",
      "    Message('note_on', channel=0, note=69, velocity=0, time=48),\n",
      "    Message('note_on', channel=0, note=71, velocity=104, time=12),\n",
      "    Message('note_on', channel=0, note=71, velocity=0, time=48),\n",
      "    Message('note_on', channel=0, note=64, velocity=104, time=12),\n",
      "    Message('note_on', channel=0, note=64, velocity=0, time=48),\n",
      "    Message('note_on', channel=0, note=74, velocity=104, time=12),\n",
      "    Message('note_on', channel=0, note=74, velocity=0, time=48),\n",
      "    Message('note_on', channel=0, note=72, velocity=104, time=12),\n",
      "    Message('note_on', channel=0, note=72, velocity=0, time=48),\n",
      "    Message('note_on', channel=0, note=71, velocity=104, time=12),\n",
      "    Message('note_on', channel=0, note=71, velocity=0, time=48),\n",
      "    Message('note_on', channel=0, note=69, velocity=104, time=12),\n",
      "    Message('note_on', channel=0, note=69, velocity=0, time=48),\n",
      "    Message('note_on', channel=0, note=67, velocity=104, time=12),\n",
      "    Message('note_on', channel=0, note=67, velocity=0, time=48),\n",
      "    Message('note_on', channel=0, note=62, velocity=104, time=12),\n",
      "    Message('note_on', channel=0, note=62, velocity=0, time=48),\n",
      "    Message('note_on', channel=0, note=67, velocity=104, time=12),\n",
      "    Message('note_on', channel=0, note=67, velocity=0, time=48),\n",
      "    Message('note_on', channel=0, note=66, velocity=104, time=12),\n",
      "    Message('note_on', channel=0, note=66, velocity=0, time=48),\n",
      "    Message('note_on', channel=0, note=67, velocity=104, time=12),\n",
      "    Message('note_on', channel=0, note=67, velocity=0, time=48),\n",
      "    Message('note_on', channel=0, note=71, velocity=104, time=12),\n",
      "    Message('note_on', channel=0, note=71, velocity=0, time=48),\n",
      "    Message('note_on', channel=0, note=74, velocity=104, time=12),\n",
      "    Message('note_on', channel=0, note=74, velocity=0, time=48),\n",
      "    Message('note_on', channel=0, note=79, velocity=104, time=12),\n",
      "    Message('note_on', channel=0, note=79, velocity=0, time=48),\n",
      "    Message('note_on', channel=0, note=74, velocity=104, time=12),\n",
      "    Message('note_on', channel=0, note=74, velocity=0, time=48),\n",
      "    Message('note_on', channel=0, note=71, velocity=104, time=12),\n",
      "    Message('note_on', channel=0, note=71, velocity=0, time=48),\n",
      "    Message('note_on', channel=0, note=67, velocity=104, time=12),\n",
      "    Message('note_on', channel=0, note=67, velocity=0, time=168),\n",
      "    Message('note_on', channel=0, note=66, velocity=94, time=13),\n",
      "    Message('note_on', channel=0, note=69, velocity=94, time=0),\n",
      "    Message('note_on', channel=0, note=66, velocity=0, time=336),\n",
      "    Message('note_on', channel=0, note=69, velocity=0, time=0),\n",
      "    Message('note_on', channel=0, note=68, velocity=94, time=24),\n",
      "    Message('note_on', channel=0, note=71, velocity=94, time=0),\n",
      "    Message('note_on', channel=0, note=62, velocity=94, time=0),\n",
      "    Message('note_on', channel=0, note=68, velocity=0, time=168),\n",
      "    Message('note_on', channel=0, note=71, velocity=0, time=0),\n",
      "    Message('note_on', channel=0, note=62, velocity=0, time=0),\n",
      "    Message('note_on', channel=0, note=72, velocity=94, time=12),\n",
      "    Message('note_on', channel=0, note=64, velocity=94, time=0),\n",
      "    Message('note_on', channel=0, note=69, velocity=94, time=0),\n",
      "    Message('note_on', channel=0, note=72, velocity=0, time=336),\n",
      "    Message('note_on', channel=0, note=64, velocity=0, time=0),\n",
      "    Message('note_on', channel=0, note=69, velocity=0, time=0),\n",
      "    Message('note_on', channel=0, note=69, velocity=94, time=24),\n",
      "    Message('note_on', channel=0, note=64, velocity=94, time=0),\n",
      "    Message('note_on', channel=0, note=72, velocity=94, time=0),\n",
      "    Message('note_on', channel=0, note=69, velocity=0, time=168),\n",
      "    Message('note_on', channel=0, note=64, velocity=0, time=0),\n",
      "    Message('note_on', channel=0, note=72, velocity=0, time=0),\n",
      "    Message('note_on', channel=0, note=71, velocity=94, time=12),\n",
      "    Message('note_on', channel=0, note=71, velocity=0, time=276),\n",
      "    Message('note_on', channel=0, note=72, velocity=94, time=24),\n",
      "    Message('note_on', channel=0, note=72, velocity=0, time=24),\n",
      "    Message('note_on', channel=0, note=74, velocity=94, time=6),\n",
      "    Message('note_on', channel=0, note=74, velocity=0, time=24),\n",
      "    Message('note_on', channel=0, note=71, velocity=94, time=6),\n",
      "    Message('note_on', channel=0, note=68, velocity=94, time=0),\n",
      "    Message('note_on', channel=0, note=71, velocity=0, time=168),\n",
      "    Message('note_on', channel=0, note=68, velocity=0, time=0),\n",
      "    Message('note_on', channel=0, note=69, velocity=94, time=12),\n",
      "    Message('note_on', channel=0, note=69, velocity=0, time=168),\n",
      "    Message('note_on', channel=0, note=69, velocity=94, time=12),\n",
      "    Message('note_on', channel=0, note=69, velocity=0, time=48),\n",
      "    Message('note_on', channel=0, note=76, velocity=94, time=12),\n",
      "    Message('note_on', channel=0, note=76, velocity=0, time=48),\n",
      "    Message('note_on', channel=0, note=74, velocity=94, time=12),\n",
      "    Message('note_on', channel=0, note=74, velocity=0, time=48),\n",
      "    Message('note_on', channel=0, note=74, velocity=94, time=12),\n",
      "    Message('note_on', channel=0, note=74, velocity=0, time=48),\n",
      "    Message('note_on', channel=0, note=77, velocity=94, time=12),\n",
      "    Message('note_on', channel=0, note=77, velocity=0, time=48),\n",
      "    Message('note_on', channel=0, note=76, velocity=94, time=12),\n",
      "    Message('note_on', channel=0, note=76, velocity=0, time=48),\n",
      "    Message('note_on', channel=0, note=76, velocity=94, time=12),\n",
      "    Message('note_on', channel=0, note=76, velocity=0, time=48),\n",
      "    Message('note_on', channel=0, note=81, velocity=94, time=12),\n",
      "    Message('note_on', channel=0, note=81, velocity=0, time=48),\n",
      "    Message('note_on', channel=0, note=80, velocity=94, time=12),\n",
      "    Message('note_on', channel=0, note=80, velocity=0, time=48),\n",
      "    Message('note_on', channel=0, note=81, velocity=94, time=12),\n",
      "    Message('note_on', channel=0, note=81, velocity=0, time=48),\n",
      "    Message('note_on', channel=0, note=76, velocity=94, time=12),\n",
      "    Message('note_on', channel=0, note=76, velocity=0, time=48),\n",
      "    Message('note_on', channel=0, note=72, velocity=94, time=12),\n",
      "    Message('note_on', channel=0, note=72, velocity=0, time=48),\n",
      "    Message('note_on', channel=0, note=69, velocity=94, time=12),\n",
      "    Message('note_on', channel=0, note=69, velocity=0, time=48),\n",
      "    Message('note_on', channel=0, note=71, velocity=94, time=12),\n",
      "    Message('note_on', channel=0, note=71, velocity=0, time=48),\n",
      "    Message('note_on', channel=0, note=72, velocity=94, time=12),\n",
      "    Message('note_on', channel=0, note=72, velocity=0, time=48),\n",
      "    Message('note_on', channel=0, note=77, velocity=94, time=12),\n",
      "    Message('note_on', channel=0, note=77, velocity=0, time=48),\n",
      "    Message('note_on', channel=0, note=76, velocity=94, time=12),\n",
      "    Message('note_on', channel=0, note=76, velocity=0, time=48),\n",
      "    Message('note_on', channel=0, note=74, velocity=94, time=12),\n",
      "    Message('note_on', channel=0, note=74, velocity=0, time=48),\n",
      "    Message('note_on', channel=0, note=72, velocity=94, time=12),\n",
      "    Message('note_on', channel=0, note=72, velocity=0, time=48),\n",
      "    Message('note_on', channel=0, note=71, velocity=94, time=12),\n",
      "    Message('note_on', channel=0, note=71, velocity=0, time=48),\n",
      "    Message('note_on', channel=0, note=69, velocity=94, time=12),\n",
      "    Message('note_on', channel=0, note=69, velocity=0, time=48),\n",
      "    Message('note_on', channel=0, note=64, velocity=94, time=12),\n",
      "    Message('note_on', channel=0, note=64, velocity=0, time=48),\n",
      "    Message('note_on', channel=0, note=69, velocity=94, time=12),\n",
      "    Message('note_on', channel=0, note=69, velocity=0, time=48),\n",
      "    Message('note_on', channel=0, note=68, velocity=94, time=12),\n",
      "    Message('note_on', channel=0, note=62, velocity=94, time=0),\n",
      "    Message('note_on', channel=0, note=68, velocity=0, time=48),\n",
      "    Message('note_on', channel=0, note=62, velocity=0, time=0),\n",
      "    Message('note_on', channel=0, note=64, velocity=94, time=12),\n",
      "    Message('note_on', channel=0, note=69, velocity=94, time=0),\n",
      "    Message('note_on', channel=0, note=72, velocity=94, time=0),\n",
      "    Message('note_on', channel=0, note=64, velocity=0, time=336),\n",
      "    Message('note_on', channel=0, note=69, velocity=0, time=0),\n",
      "    Message('note_on', channel=0, note=72, velocity=0, time=0),\n",
      "    Message('note_on', channel=0, note=74, velocity=94, time=24),\n",
      "    Message('note_on', channel=0, note=62, velocity=94, time=0),\n",
      "    Message('note_on', channel=0, note=67, velocity=94, time=0),\n",
      "    Message('note_on', channel=0, note=74, velocity=0, time=168),\n",
      "    Message('note_on', channel=0, note=62, velocity=0, time=0),\n",
      "    Message('note_on', channel=0, note=67, velocity=0, time=0),\n",
      "    Message('note_on', channel=0, note=72, velocity=94, time=12),\n",
      "    Message('note_on', channel=0, note=76, velocity=94, time=0),\n",
      "    Message('note_on', channel=0, note=72, velocity=0, time=336),\n",
      "    Message('note_on', channel=0, note=76, velocity=0, time=0),\n",
      "    Message('note_on', channel=0, note=72, velocity=94, time=24),\n",
      "    Message('note_on', channel=0, note=76, velocity=94, time=0),\n",
      "    Message('note_on', channel=0, note=67, velocity=94, time=0),\n",
      "    Message('note_on', channel=0, note=72, velocity=0, time=168),\n",
      "    Message('note_on', channel=0, note=76, velocity=0, time=0),\n",
      "    Message('note_on', channel=0, note=67, velocity=0, time=0),\n",
      "    Message('note_on', channel=0, note=74, velocity=94, time=12),\n",
      "    Message('note_on', channel=0, note=74, velocity=0, time=276),\n",
      "    Message('note_on', channel=0, note=76, velocity=94, time=24),\n",
      "    Message('note_on', channel=0, note=76, velocity=0, time=24),\n",
      "    Message('note_on', channel=0, note=77, velocity=94, time=6),\n",
      "    Message('note_on', channel=0, note=77, velocity=0, time=24),\n",
      "    Message('note_on', channel=0, note=74, velocity=94, time=6),\n",
      "    Message('note_on', channel=0, note=74, velocity=0, time=168),\n",
      "    Message('note_on', channel=0, note=64, velocity=94, time=12),\n",
      "    Message('note_on', channel=0, note=72, velocity=94, time=0),\n",
      "    Message('note_on', channel=0, note=64, velocity=0, time=168),\n",
      "    Message('note_on', channel=0, note=72, velocity=0, time=0),\n",
      "    Message('note_on', channel=0, note=72, velocity=94, time=12),\n",
      "    Message('note_on', channel=0, note=72, velocity=0, time=48),\n",
      "    Message('note_on', channel=0, note=76, velocity=94, time=12),\n",
      "    Message('note_on', channel=0, note=76, velocity=0, time=48),\n",
      "    Message('note_on', channel=0, note=72, velocity=94, time=12),\n",
      "    Message('note_on', channel=0, note=72, velocity=0, time=48),\n",
      "    Message('note_on', channel=0, note=67, velocity=94, time=12),\n",
      "    Message('note_on', channel=0, note=67, velocity=0, time=48),\n",
      "    Message('note_on', channel=0, note=69, velocity=94, time=12),\n",
      "    Message('note_on', channel=0, note=69, velocity=0, time=48),\n",
      "    Message('note_on', channel=0, note=70, velocity=94, time=12),\n",
      "    Message('note_on', channel=0, note=70, velocity=0, time=48),\n",
      "    Message('note_on', channel=0, note=69, velocity=94, time=12),\n",
      "    Message('note_on', channel=0, note=69, velocity=0, time=48),\n",
      "    Message('note_on', channel=0, note=72, velocity=94, time=12),\n",
      "    Message('note_on', channel=0, note=72, velocity=0, time=48),\n",
      "    Message('note_on', channel=0, note=71, velocity=94, time=12),\n",
      "    Message('note_on', channel=0, note=71, velocity=0, time=48),\n",
      "    Message('note_on', channel=0, note=72, velocity=94, time=12),\n",
      "    Message('note_on', channel=0, note=72, velocity=0, time=48),\n",
      "    Message('note_on', channel=0, note=69, velocity=94, time=12),\n",
      "    Message('note_on', channel=0, note=69, velocity=0, time=48),\n",
      "    Message('note_on', channel=0, note=66, velocity=94, time=12),\n",
      "    Message('note_on', channel=0, note=66, velocity=0, time=48),\n",
      "    Message('note_on', channel=0, note=62, velocity=94, time=12),\n",
      "    Message('note_on', channel=0, note=62, velocity=0, time=48),\n",
      "    Message('note_on', channel=0, note=64, velocity=94, time=12),\n",
      "    Message('note_on', channel=0, note=64, velocity=0, time=48),\n",
      "    Message('note_on', channel=0, note=66, velocity=94, time=12),\n",
      "    Message('note_on', channel=0, note=66, velocity=0, time=48),\n",
      "    Message('note_on', channel=0, note=64, velocity=94, time=12),\n",
      "    Message('note_on', channel=0, note=64, velocity=0, time=48),\n",
      "    Message('note_on', channel=0, note=60, velocity=94, time=12),\n",
      "    Message('note_on', channel=0, note=60, velocity=0, time=48),\n",
      "    Message('note_on', channel=0, note=62, velocity=94, time=12),\n",
      "    Message('note_on', channel=0, note=62, velocity=0, time=48),\n",
      "    Message('note_on', channel=0, note=64, velocity=94, time=12),\n",
      "    Message('note_on', channel=0, note=64, velocity=0, time=48),\n",
      "    Message('note_on', channel=0, note=67, velocity=94, time=12),\n",
      "    Message('note_on', channel=0, note=67, velocity=0, time=48),\n",
      "    Message('note_on', channel=0, note=66, velocity=94, time=12),\n",
      "    Message('note_on', channel=0, note=66, velocity=0, time=48),\n",
      "    Message('note_on', channel=0, note=67, velocity=94, time=12),\n",
      "    Message('note_on', channel=0, note=67, velocity=0, time=48),\n",
      "    Message('note_on', channel=0, note=71, velocity=94, time=12),\n",
      "    Message('note_on', channel=0, note=71, velocity=0, time=48),\n",
      "    Message('note_on', channel=0, note=69, velocity=94, time=12),\n",
      "    Message('note_on', channel=0, note=69, velocity=0, time=48),\n",
      "    Message('note_on', channel=0, note=67, velocity=94, time=12),\n",
      "    Message('note_on', channel=0, note=71, velocity=94, time=0),\n",
      "    Message('note_on', channel=0, note=67, velocity=0, time=336),\n",
      "    Message('note_on', channel=0, note=71, velocity=0, time=0),\n",
      "    Message('note_on', channel=0, note=64, velocity=94, time=24),\n",
      "    Message('note_on', channel=0, note=60, velocity=94, time=0),\n",
      "    Message('note_on', channel=0, note=67, velocity=94, time=0),\n",
      "    Message('note_on', channel=0, note=72, velocity=94, time=0),\n",
      "    Message('note_on', channel=0, note=64, velocity=0, time=168),\n",
      "    Message('note_on', channel=0, note=60, velocity=0, time=0),\n",
      "    Message('note_on', channel=0, note=67, velocity=0, time=0),\n",
      "    Message('note_on', channel=0, note=72, velocity=0, time=0),\n",
      "    Message('note_on', channel=0, note=74, velocity=94, time=12),\n",
      "    Message('note_on', channel=0, note=67, velocity=94, time=0),\n",
      "    Message('note_on', channel=0, note=62, velocity=94, time=0),\n",
      "    Message('note_on', channel=0, note=74, velocity=0, time=336),\n",
      "    Message('note_on', channel=0, note=67, velocity=0, time=0),\n",
      "    Message('note_on', channel=0, note=62, velocity=0, time=0),\n",
      "    Message('note_on', channel=0, note=74, velocity=94, time=24),\n",
      "    Message('note_on', channel=0, note=67, velocity=94, time=0),\n",
      "    Message('note_on', channel=0, note=62, velocity=94, time=0),\n",
      "    Message('note_on', channel=0, note=74, velocity=0, time=168),\n",
      "    Message('note_on', channel=0, note=67, velocity=0, time=0),\n",
      "    Message('note_on', channel=0, note=62, velocity=0, time=0),\n",
      "    Message('note_on', channel=0, note=69, velocity=94, time=12),\n",
      "    Message('note_on', channel=0, note=64, velocity=94, time=0),\n",
      "    Message('note_on', channel=0, note=72, velocity=94, time=0),\n",
      "    Message('note_on', channel=0, note=69, velocity=0, time=168),\n",
      "    Message('note_on', channel=0, note=64, velocity=0, time=0),\n",
      "    Message('note_on', channel=0, note=72, velocity=0, time=0),\n",
      "    Message('note_on', channel=0, note=71, velocity=94, time=12),\n",
      "    Message('note_on', channel=0, note=71, velocity=0, time=336),\n",
      "    Message('note_on', channel=0, note=66, velocity=94, time=24),\n",
      "    Message('note_on', channel=0, note=69, velocity=94, time=0),\n",
      "    Message('note_on', channel=0, note=66, velocity=0, time=48),\n",
      "    Message('note_on', channel=0, note=69, velocity=0, time=0),\n",
      "    Message('note_on', channel=0, note=62, velocity=94, time=12),\n",
      "    Message('note_on', channel=0, note=62, velocity=0, time=48),\n",
      "    Message('note_on', channel=0, note=64, velocity=94, time=12),\n",
      "    Message('note_on', channel=0, note=64, velocity=0, time=48),\n",
      "    Message('note_on', channel=0, note=66, velocity=94, time=12),\n",
      "    Message('note_on', channel=0, note=66, velocity=0, time=48),\n",
      "    Message('note_on', channel=0, note=69, velocity=94, time=12),\n",
      "    Message('note_on', channel=0, note=69, velocity=0, time=48),\n",
      "    Message('note_on', channel=0, note=67, velocity=94, time=12),\n",
      "    Message('note_on', channel=0, note=67, velocity=0, time=48),\n",
      "    Message('note_on', channel=0, note=69, velocity=94, time=12),\n",
      "    Message('note_on', channel=0, note=69, velocity=0, time=48),\n",
      "    Message('note_on', channel=0, note=72, velocity=94, time=12),\n",
      "    Message('note_on', channel=0, note=72, velocity=0, time=48),\n",
      "    Message('note_on', channel=0, note=71, velocity=94, time=12),\n",
      "    Message('note_on', channel=0, note=71, velocity=0, time=48),\n",
      "    Message('note_on', channel=0, note=72, velocity=94, time=12),\n",
      "    Message('note_on', channel=0, note=72, velocity=0, time=48),\n",
      "    Message('note_on', channel=0, note=69, velocity=94, time=12),\n",
      "    Message('note_on', channel=0, note=69, velocity=0, time=48),\n",
      "    Message('note_on', channel=0, note=66, velocity=94, time=12),\n",
      "    Message('note_on', channel=0, note=66, velocity=0, time=48),\n",
      "    Message('note_on', channel=0, note=62, velocity=94, time=12),\n",
      "    Message('note_on', channel=0, note=62, velocity=0, time=48),\n",
      "    Message('note_on', channel=0, note=66, velocity=94, time=12),\n",
      "    Message('note_on', channel=0, note=66, velocity=0, time=48),\n",
      "    Message('note_on', channel=0, note=69, velocity=94, time=12),\n",
      "    Message('note_on', channel=0, note=69, velocity=0, time=48),\n",
      "    Message('note_on', channel=0, note=72, velocity=94, time=12),\n",
      "    Message('note_on', channel=0, note=72, velocity=0, time=48),\n",
      "    Message('note_on', channel=0, note=71, velocity=94, time=12),\n",
      "    Message('note_on', channel=0, note=71, velocity=0, time=48),\n",
      "    Message('note_on', channel=0, note=69, velocity=94, time=12),\n",
      "    Message('note_on', channel=0, note=69, velocity=0, time=48),\n",
      "    Message('note_on', channel=0, note=67, velocity=94, time=12),\n",
      "    Message('note_on', channel=0, note=71, velocity=94, time=0),\n",
      "    Message('note_on', channel=0, note=67, velocity=0, time=336),\n",
      "    Message('note_on', channel=0, note=71, velocity=0, time=0),\n",
      "    Message('note_on', channel=0, note=72, velocity=94, time=24),\n",
      "    Message('note_on', channel=0, note=67, velocity=94, time=0),\n",
      "    Message('note_on', channel=0, note=64, velocity=94, time=0),\n",
      "    Message('note_on', channel=0, note=60, velocity=94, time=0),\n",
      "    Message('note_on', channel=0, note=72, velocity=0, time=168),\n",
      "    Message('note_on', channel=0, note=67, velocity=0, time=0),\n",
      "    Message('note_on', channel=0, note=64, velocity=0, time=0),\n",
      "    Message('note_on', channel=0, note=60, velocity=0, time=0),\n",
      "    Message('note_on', channel=0, note=74, velocity=94, time=12),\n",
      "    Message('note_on', channel=0, note=62, velocity=94, time=0),\n",
      "    Message('note_on', channel=0, note=67, velocity=94, time=0),\n",
      "    Message('note_on', channel=0, note=74, velocity=0, time=336),\n",
      "    Message('note_on', channel=0, note=62, velocity=0, time=0),\n",
      "    Message('note_on', channel=0, note=67, velocity=0, time=0),\n",
      "    Message('note_on', channel=0, note=67, velocity=94, time=24),\n",
      "    Message('note_on', channel=0, note=64, velocity=94, time=0),\n",
      "    Message('note_on', channel=0, note=71, velocity=94, time=0),\n",
      "    Message('note_on', channel=0, note=67, velocity=0, time=168),\n",
      "    Message('note_on', channel=0, note=64, velocity=0, time=0),\n",
      "    Message('note_on', channel=0, note=71, velocity=0, time=0),\n",
      "    Message('note_on', channel=0, note=69, velocity=94, time=12),\n",
      "    Message('note_on', channel=0, note=69, velocity=0, time=96),\n",
      "    Message('note_on', channel=0, note=71, velocity=94, time=24),\n",
      "    Message('note_on', channel=0, note=71, velocity=0, time=24),\n",
      "    Message('note_on', channel=0, note=72, velocity=94, time=6),\n",
      "    Message('note_on', channel=0, note=72, velocity=0, time=24),\n",
      "    Message('note_on', channel=0, note=71, velocity=94, time=6),\n",
      "    Message('note_on', channel=0, note=71, velocity=0, time=168),\n",
      "    Message('note_on', channel=0, note=69, velocity=94, time=12),\n",
      "    Message('note_on', channel=0, note=69, velocity=0, time=168),\n",
      "    Message('note_on', channel=0, note=67, velocity=94, time=12),\n",
      "    Message('note_on', channel=0, note=67, velocity=0, time=48),\n",
      "    Message('note_on', channel=0, note=71, velocity=94, time=12),\n",
      "    Message('note_on', channel=0, note=71, velocity=0, time=48),\n",
      "    Message('note_on', channel=0, note=74, velocity=94, time=12),\n",
      "    Message('note_on', channel=0, note=74, velocity=0, time=48),\n",
      "    Message('note_on', channel=0, note=79, velocity=94, time=12),\n",
      "    Message('note_on', channel=0, note=79, velocity=0, time=48),\n",
      "    Message('note_on', channel=0, note=74, velocity=94, time=12),\n",
      "    Message('note_on', channel=0, note=74, velocity=0, time=48),\n",
      "    Message('note_on', channel=0, note=71, velocity=94, time=12),\n",
      "    Message('note_on', channel=0, note=71, velocity=0, time=48),\n",
      "    Message('note_on', channel=0, note=67, velocity=94, time=12),\n",
      "    Message('note_on', channel=0, note=67, velocity=0, time=48),\n",
      "    Message('note_on', channel=0, note=71, velocity=94, time=12),\n",
      "    Message('note_on', channel=0, note=71, velocity=0, time=48),\n",
      "    Message('note_on', channel=0, note=74, velocity=94, time=12),\n",
      "    Message('note_on', channel=0, note=74, velocity=0, time=48),\n",
      "    Message('note_on', channel=0, note=77, velocity=94, time=12),\n",
      "    Message('note_on', channel=0, note=77, velocity=0, time=48),\n",
      "    Message('note_on', channel=0, note=74, velocity=94, time=12),\n",
      "    Message('note_on', channel=0, note=74, velocity=0, time=48),\n",
      "    Message('note_on', channel=0, note=71, velocity=94, time=12),\n",
      "    Message('note_on', channel=0, note=71, velocity=0, time=48),\n",
      "    Message('note_on', channel=0, note=67, velocity=94, time=12),\n",
      "    Message('note_on', channel=0, note=67, velocity=0, time=48),\n",
      "    Message('note_on', channel=0, note=71, velocity=94, time=12),\n",
      "    Message('note_on', channel=0, note=71, velocity=0, time=48),\n",
      "    Message('note_on', channel=0, note=74, velocity=94, time=12),\n",
      "    Message('note_on', channel=0, note=74, velocity=0, time=48),\n",
      "    Message('note_on', channel=0, note=76, velocity=94, time=12),\n",
      "    Message('note_on', channel=0, note=76, velocity=0, time=48),\n",
      "    Message('note_on', channel=0, note=72, velocity=94, time=12),\n",
      "    Message('note_on', channel=0, note=72, velocity=0, time=48),\n",
      "    Message('note_on', channel=0, note=69, velocity=94, time=12),\n",
      "    Message('note_on', channel=0, note=69, velocity=0, time=48),\n",
      "    Message('note_on', channel=0, note=66, velocity=94, time=12),\n",
      "    Message('note_on', channel=0, note=66, velocity=0, time=48),\n",
      "    Message('note_on', channel=0, note=69, velocity=94, time=12),\n",
      "    Message('note_on', channel=0, note=69, velocity=0, time=48),\n",
      "    Message('note_on', channel=0, note=72, velocity=94, time=12),\n",
      "    Message('note_on', channel=0, note=72, velocity=0, time=48),\n",
      "    Message('note_on', channel=0, note=74, velocity=94, time=12),\n",
      "    Message('note_on', channel=0, note=74, velocity=0, time=48),\n",
      "    Message('note_on', channel=0, note=71, velocity=94, time=12),\n",
      "    Message('note_on', channel=0, note=71, velocity=0, time=48),\n",
      "    Message('note_on', channel=0, note=67, velocity=94, time=12),\n",
      "    Message('note_on', channel=0, note=67, velocity=0, time=48),\n",
      "    Message('note_on', channel=0, note=64, velocity=94, time=12),\n",
      "    Message('note_on', channel=0, note=64, velocity=0, time=48),\n",
      "    Message('note_on', channel=0, note=67, velocity=94, time=12),\n",
      "    Message('note_on', channel=0, note=67, velocity=0, time=48),\n",
      "    Message('note_on', channel=0, note=71, velocity=94, time=12),\n",
      "    Message('note_on', channel=0, note=71, velocity=0, time=48),\n",
      "    Message('note_on', channel=0, note=72, velocity=94, time=12),\n",
      "    Message('note_on', channel=0, note=72, velocity=0, time=48),\n",
      "    Message('note_on', channel=0, note=69, velocity=94, time=12),\n",
      "    Message('note_on', channel=0, note=69, velocity=0, time=48),\n",
      "    Message('note_on', channel=0, note=66, velocity=94, time=12),\n",
      "    Message('note_on', channel=0, note=66, velocity=0, time=48),\n",
      "    Message('note_on', channel=0, note=62, velocity=94, time=12),\n",
      "    Message('note_on', channel=0, note=62, velocity=0, time=48),\n",
      "    Message('note_on', channel=0, note=66, velocity=94, time=12),\n",
      "    Message('note_on', channel=0, note=66, velocity=0, time=48),\n",
      "    Message('note_on', channel=0, note=69, velocity=94, time=12),\n",
      "    Message('note_on', channel=0, note=69, velocity=0, time=48),\n",
      "    Message('note_on', channel=0, note=72, velocity=94, time=12),\n",
      "    Message('note_on', channel=0, note=72, velocity=0, time=48),\n",
      "    Message('note_on', channel=0, note=71, velocity=94, time=12),\n",
      "    Message('note_on', channel=0, note=71, velocity=0, time=48),\n",
      "    Message('note_on', channel=0, note=69, velocity=94, time=12),\n",
      "    Message('note_on', channel=0, note=69, velocity=0, time=48),\n",
      "    Message('note_on', channel=0, note=71, velocity=94, time=12),\n",
      "    Message('note_on', channel=0, note=71, velocity=0, time=48),\n",
      "    Message('note_on', channel=0, note=67, velocity=94, time=12),\n",
      "    Message('note_on', channel=0, note=67, velocity=0, time=48),\n",
      "    Message('note_on', channel=0, note=69, velocity=94, time=12),\n",
      "    Message('note_on', channel=0, note=69, velocity=0, time=48),\n",
      "    Message('note_on', channel=0, note=71, velocity=94, time=12),\n",
      "    Message('note_on', channel=0, note=71, velocity=0, time=48),\n",
      "    Message('note_on', channel=0, note=74, velocity=94, time=12),\n",
      "    Message('note_on', channel=0, note=74, velocity=0, time=48),\n",
      "    Message('note_on', channel=0, note=72, velocity=94, time=12),\n",
      "    Message('note_on', channel=0, note=72, velocity=0, time=48),\n",
      "    Message('note_on', channel=0, note=72, velocity=94, time=12),\n",
      "    Message('note_on', channel=0, note=72, velocity=0, time=48),\n",
      "    Message('note_on', channel=0, note=76, velocity=94, time=12),\n",
      "    Message('note_on', channel=0, note=76, velocity=0, time=48),\n",
      "    Message('note_on', channel=0, note=74, velocity=94, time=12),\n",
      "    Message('note_on', channel=0, note=74, velocity=0, time=48),\n",
      "    Message('note_on', channel=0, note=74, velocity=94, time=12),\n",
      "    Message('note_on', channel=0, note=74, velocity=0, time=48),\n",
      "    Message('note_on', channel=0, note=79, velocity=94, time=12),\n",
      "    Message('note_on', channel=0, note=79, velocity=0, time=48),\n",
      "    Message('note_on', channel=0, note=78, velocity=94, time=12),\n",
      "    Message('note_on', channel=0, note=78, velocity=0, time=48),\n",
      "    Message('note_on', channel=0, note=79, velocity=94, time=12),\n",
      "    Message('note_on', channel=0, note=79, velocity=0, time=48),\n",
      "    Message('note_on', channel=0, note=74, velocity=94, time=12),\n",
      "    Message('note_on', channel=0, note=74, velocity=0, time=48),\n",
      "    Message('note_on', channel=0, note=71, velocity=94, time=12),\n",
      "    Message('note_on', channel=0, note=71, velocity=0, time=48),\n",
      "    Message('note_on', channel=0, note=67, velocity=94, time=12),\n",
      "    Message('note_on', channel=0, note=67, velocity=0, time=48),\n",
      "    Message('note_on', channel=0, note=69, velocity=94, time=12),\n",
      "    Message('note_on', channel=0, note=69, velocity=0, time=48),\n",
      "    Message('note_on', channel=0, note=71, velocity=94, time=12),\n",
      "    Message('note_on', channel=0, note=71, velocity=0, time=48),\n",
      "    Message('note_on', channel=0, note=72, velocity=94, time=12),\n",
      "    Message('note_on', channel=0, note=72, velocity=0, time=48),\n",
      "    Message('note_on', channel=0, note=74, velocity=94, time=12),\n",
      "    Message('note_on', channel=0, note=74, velocity=0, time=48),\n",
      "    Message('note_on', channel=0, note=76, velocity=94, time=12),\n",
      "    Message('note_on', channel=0, note=76, velocity=0, time=48),\n",
      "    Message('note_on', channel=0, note=74, velocity=94, time=12),\n",
      "    Message('note_on', channel=0, note=74, velocity=0, time=48),\n",
      "    Message('note_on', channel=0, note=72, velocity=94, time=12),\n",
      "    Message('note_on', channel=0, note=72, velocity=0, time=48),\n",
      "    Message('note_on', channel=0, note=71, velocity=94, time=12),\n",
      "    Message('note_on', channel=0, note=71, velocity=0, time=48),\n",
      "    Message('note_on', channel=0, note=69, velocity=94, time=12),\n",
      "    Message('note_on', channel=0, note=69, velocity=0, time=48),\n",
      "    Message('note_on', channel=0, note=71, velocity=94, time=12),\n",
      "    Message('note_on', channel=0, note=71, velocity=0, time=48),\n",
      "    Message('note_on', channel=0, note=67, velocity=94, time=12),\n",
      "    Message('note_on', channel=0, note=67, velocity=0, time=48),\n",
      "    Message('note_on', channel=0, note=66, velocity=94, time=12),\n",
      "    Message('note_on', channel=0, note=66, velocity=0, time=48),\n",
      "    Message('note_on', channel=0, note=67, velocity=94, time=12),\n",
      "    Message('note_on', channel=0, note=67, velocity=0, time=48),\n",
      "    Message('note_on', channel=0, note=69, velocity=94, time=12),\n",
      "    Message('note_on', channel=0, note=69, velocity=0, time=48),\n",
      "    Message('note_on', channel=0, note=62, velocity=94, time=12),\n",
      "    Message('note_on', channel=0, note=62, velocity=0, time=48),\n",
      "    Message('note_on', channel=0, note=66, velocity=94, time=12),\n",
      "    Message('note_on', channel=0, note=66, velocity=0, time=48),\n",
      "    Message('note_on', channel=0, note=69, velocity=94, time=12),\n",
      "    Message('note_on', channel=0, note=69, velocity=0, time=48),\n",
      "    Message('note_on', channel=0, note=72, velocity=94, time=12),\n",
      "    Message('note_on', channel=0, note=72, velocity=0, time=48),\n",
      "    Message('note_on', channel=0, note=71, velocity=94, time=12),\n",
      "    Message('note_on', channel=0, note=71, velocity=0, time=48),\n",
      "    Message('note_on', channel=0, note=69, velocity=94, time=12),\n",
      "    Message('note_on', channel=0, note=69, velocity=0, time=48),\n",
      "    Message('note_on', channel=0, note=71, velocity=94, time=12),\n",
      "    Message('note_on', channel=0, note=71, velocity=0, time=48),\n",
      "    Message('note_on', channel=0, note=67, velocity=94, time=12),\n",
      "    Message('note_on', channel=0, note=67, velocity=0, time=48),\n",
      "    Message('note_on', channel=0, note=69, velocity=94, time=12),\n",
      "    Message('note_on', channel=0, note=69, velocity=0, time=48),\n",
      "    Message('note_on', channel=0, note=71, velocity=94, time=12),\n",
      "    Message('note_on', channel=0, note=71, velocity=0, time=48),\n",
      "    Message('note_on', channel=0, note=74, velocity=94, time=12),\n",
      "    Message('note_on', channel=0, note=74, velocity=0, time=48),\n",
      "    Message('note_on', channel=0, note=72, velocity=94, time=12),\n",
      "    Message('note_on', channel=0, note=72, velocity=0, time=48),\n",
      "    Message('note_on', channel=0, note=72, velocity=94, time=12),\n",
      "    Message('note_on', channel=0, note=72, velocity=0, time=48),\n",
      "    Message('note_on', channel=0, note=76, velocity=94, time=12),\n",
      "    Message('note_on', channel=0, note=76, velocity=0, time=48),\n",
      "    Message('note_on', channel=0, note=74, velocity=94, time=12),\n",
      "    Message('note_on', channel=0, note=74, velocity=0, time=48),\n",
      "    Message('note_on', channel=0, note=74, velocity=94, time=12),\n",
      "    Message('note_on', channel=0, note=74, velocity=0, time=48),\n",
      "    Message('note_on', channel=0, note=79, velocity=94, time=12),\n",
      "    Message('note_on', channel=0, note=79, velocity=0, time=48),\n",
      "    Message('note_on', channel=0, note=78, velocity=94, time=12),\n",
      "    Message('note_on', channel=0, note=78, velocity=0, time=48),\n",
      "    Message('note_on', channel=0, note=79, velocity=94, time=12),\n",
      "    Message('note_on', channel=0, note=79, velocity=0, time=48),\n",
      "    Message('note_on', channel=0, note=74, velocity=94, time=12),\n",
      "    Message('note_on', channel=0, note=74, velocity=0, time=48),\n",
      "    Message('note_on', channel=0, note=71, velocity=94, time=12),\n",
      "    Message('note_on', channel=0, note=71, velocity=0, time=48),\n",
      "    Message('note_on', channel=0, note=67, velocity=94, time=12),\n",
      "    Message('note_on', channel=0, note=67, velocity=0, time=48),\n",
      "    Message('note_on', channel=0, note=69, velocity=94, time=12),\n",
      "    Message('note_on', channel=0, note=69, velocity=0, time=48),\n",
      "    Message('note_on', channel=0, note=71, velocity=94, time=12),\n",
      "    Message('note_on', channel=0, note=71, velocity=0, time=48),\n",
      "    Message('note_on', channel=0, note=64, velocity=94, time=12),\n",
      "    Message('note_on', channel=0, note=64, velocity=0, time=48),\n",
      "    Message('note_on', channel=0, note=74, velocity=94, time=12),\n",
      "    Message('note_on', channel=0, note=74, velocity=0, time=48),\n",
      "    Message('note_on', channel=0, note=72, velocity=94, time=12),\n",
      "    Message('note_on', channel=0, note=72, velocity=0, time=48),\n",
      "    Message('note_on', channel=0, note=71, velocity=94, time=12),\n",
      "    Message('note_on', channel=0, note=71, velocity=0, time=48),\n",
      "    Message('note_on', channel=0, note=69, velocity=94, time=12),\n",
      "    Message('note_on', channel=0, note=69, velocity=0, time=48),\n",
      "    Message('note_on', channel=0, note=67, velocity=94, time=12),\n",
      "    Message('note_on', channel=0, note=67, velocity=0, time=48),\n",
      "    Message('note_on', channel=0, note=62, velocity=94, time=12),\n",
      "    Message('note_on', channel=0, note=62, velocity=0, time=48),\n",
      "    Message('note_on', channel=0, note=67, velocity=94, time=12),\n",
      "    Message('note_on', channel=0, note=67, velocity=0, time=48),\n",
      "    Message('note_on', channel=0, note=66, velocity=94, time=12),\n",
      "    Message('note_on', channel=0, note=66, velocity=0, time=48),\n",
      "    Message('note_on', channel=0, note=62, velocity=94, time=12),\n",
      "    Message('note_on', channel=0, note=67, velocity=94, time=0),\n",
      "    Message('note_on', channel=0, note=59, velocity=94, time=0),\n",
      "    Message('note_on', channel=0, note=55, velocity=94, time=0),\n",
      "    Message('note_on', channel=0, note=62, velocity=0, time=456),\n",
      "    Message('note_on', channel=0, note=67, velocity=0, time=0),\n",
      "    Message('note_on', channel=0, note=59, velocity=0, time=0),\n",
      "    Message('note_on', channel=0, note=55, velocity=0, time=0),\n",
      "    MetaMessage('end_of_track', time=0)]),\n",
      "  MidiTrack([\n",
      "    MetaMessage('track_name', name='Desiring', time=0),\n",
      "    MetaMessage('instrument_name', name='Synth Brass 2', time=0),\n",
      "    MetaMessage('midi_port', port=0, time=0),\n",
      "    Message('control_change', channel=1, control=0, value=80, time=0),\n",
      "    Message('control_change', channel=1, control=32, value=0, time=0),\n",
      "    Message('program_change', channel=1, program=63, time=0),\n",
      "    Message('note_on', channel=1, note=67, velocity=85, time=60),\n",
      "    Message('note_on', channel=1, note=67, velocity=0, time=48),\n",
      "    Message('note_on', channel=1, note=69, velocity=85, time=12),\n",
      "    Message('note_on', channel=1, note=69, velocity=0, time=48),\n",
      "    Message('note_on', channel=1, note=67, velocity=85, time=12),\n",
      "    Message('note_on', channel=1, note=67, velocity=0, time=168),\n",
      "    Message('note_on', channel=1, note=67, velocity=85, time=12),\n",
      "    Message('note_on', channel=1, note=67, velocity=0, time=168),\n",
      "    Message('note_on', channel=1, note=67, velocity=85, time=12),\n",
      "    Message('note_on', channel=1, note=67, velocity=0, time=168),\n",
      "    Message('note_on', channel=1, note=67, velocity=85, time=12),\n",
      "    Message('note_on', channel=1, note=67, velocity=0, time=168),\n",
      "    Message('note_on', channel=1, note=67, velocity=85, time=12),\n",
      "    Message('note_on', channel=1, note=67, velocity=0, time=48),\n",
      "    Message('note_on', channel=1, note=69, velocity=85, time=12),\n",
      "    Message('note_on', channel=1, note=69, velocity=0, time=48),\n",
      "    Message('note_on', channel=1, note=71, velocity=85, time=12),\n",
      "    Message('note_on', channel=1, note=71, velocity=0, time=48),\n",
      "    Message('note_on', channel=1, note=72, velocity=85, time=12),\n",
      "    Message('note_on', channel=1, note=72, velocity=0, time=48),\n",
      "    Message('note_on', channel=1, note=74, velocity=85, time=12),\n",
      "    Message('note_on', channel=1, note=74, velocity=0, time=48),\n",
      "    Message('note_on', channel=1, note=76, velocity=85, time=12),\n",
      "    Message('note_on', channel=1, note=76, velocity=0, time=48),\n",
      "    Message('note_on', channel=1, note=74, velocity=85, time=12),\n",
      "    Message('note_on', channel=1, note=74, velocity=0, time=48),\n",
      "    Message('note_on', channel=1, note=72, velocity=85, time=12),\n",
      "    Message('note_on', channel=1, note=72, velocity=0, time=48),\n",
      "    Message('note_on', channel=1, note=71, velocity=85, time=12),\n",
      "    Message('note_on', channel=1, note=71, velocity=0, time=48),\n",
      "    Message('note_on', channel=1, note=69, velocity=85, time=12),\n",
      "    Message('note_on', channel=1, note=69, velocity=0, time=48),\n",
      "    Message('note_on', channel=1, note=71, velocity=85, time=12),\n",
      "    Message('note_on', channel=1, note=71, velocity=0, time=48),\n",
      "    Message('note_on', channel=1, note=67, velocity=85, time=12),\n",
      "    Message('note_on', channel=1, note=67, velocity=0, time=48),\n",
      "    Message('note_on', channel=1, note=66, velocity=85, time=12),\n",
      "    Message('note_on', channel=1, note=66, velocity=0, time=48),\n",
      "    Message('note_on', channel=1, note=67, velocity=85, time=12),\n",
      "    Message('note_on', channel=1, note=67, velocity=0, time=48),\n",
      "    Message('note_on', channel=1, note=69, velocity=85, time=12),\n",
      "    Message('note_on', channel=1, note=69, velocity=0, time=48),\n",
      "    Message('note_on', channel=1, note=62, velocity=85, time=12),\n",
      "    Message('note_on', channel=1, note=62, velocity=0, time=48),\n",
      "    Message('note_on', channel=1, note=66, velocity=85, time=12),\n",
      "    Message('note_on', channel=1, note=66, velocity=0, time=48),\n",
      "    Message('note_on', channel=1, note=69, velocity=85, time=12),\n",
      "    Message('note_on', channel=1, note=69, velocity=0, time=48),\n",
      "    Message('note_on', channel=1, note=72, velocity=85, time=12),\n",
      "    Message('note_on', channel=1, note=72, velocity=0, time=48),\n",
      "    Message('note_on', channel=1, note=71, velocity=85, time=12),\n",
      "    Message('note_on', channel=1, note=71, velocity=0, time=48),\n",
      "    Message('note_on', channel=1, note=69, velocity=85, time=12),\n",
      "    Message('note_on', channel=1, note=69, velocity=0, time=48),\n",
      "    Message('note_on', channel=1, note=71, velocity=85, time=12),\n",
      "    Message('note_on', channel=1, note=71, velocity=0, time=48),\n",
      "    Message('note_on', channel=1, note=67, velocity=85, time=12),\n",
      "    Message('note_on', channel=1, note=67, velocity=0, time=48),\n",
      "    Message('note_on', channel=1, note=69, velocity=85, time=12),\n",
      "    Message('note_on', channel=1, note=69, velocity=0, time=48),\n",
      "    Message('note_on', channel=1, note=67, velocity=85, time=12),\n",
      "    Message('note_on', channel=1, note=67, velocity=0, time=168),\n",
      "    Message('note_on', channel=1, note=67, velocity=85, time=12),\n",
      "    Message('note_on', channel=1, note=67, velocity=0, time=168),\n",
      "    Message('note_on', channel=1, note=67, velocity=85, time=12),\n",
      "    Message('note_on', channel=1, note=67, velocity=0, time=168),\n",
      "    Message('note_on', channel=1, note=67, velocity=85, time=12),\n",
      "    Message('note_on', channel=1, note=67, velocity=0, time=168),\n",
      "    Message('note_on', channel=1, note=66, velocity=85, time=1812),\n",
      "    Message('note_on', channel=1, note=69, velocity=85, time=0),\n",
      "    Message('note_on', channel=1, note=62, velocity=85, time=0),\n",
      "    Message('note_on', channel=1, note=66, velocity=0, time=168),\n",
      "    Message('note_on', channel=1, note=69, velocity=0, time=0),\n",
      "    Message('note_on', channel=1, note=62, velocity=0, time=0),\n",
      "    Message('note_on', channel=1, note=67, velocity=85, time=12),\n",
      "    Message('note_on', channel=1, note=67, velocity=0, time=168),\n",
      "    Message('note_on', channel=1, note=60, velocity=85, time=192),\n",
      "    Message('note_on', channel=1, note=67, velocity=85, time=0),\n",
      "    Message('note_on', channel=1, note=64, velocity=85, time=0),\n",
      "    Message('note_on', channel=1, note=60, velocity=0, time=168),\n",
      "    Message('note_on', channel=1, note=67, velocity=0, time=0),\n",
      "    Message('note_on', channel=1, note=64, velocity=0, time=0),\n",
      "    Message('note_on', channel=1, note=62, velocity=85, time=12),\n",
      "    Message('note_on', channel=1, note=69, velocity=85, time=0),\n",
      "    Message('note_on', channel=1, note=62, velocity=0, time=168),\n",
      "    Message('note_on', channel=1, note=69, velocity=0, time=0),\n",
      "    Message('note_on', channel=1, note=64, velocity=85, time=2352),\n",
      "    Message('note_on', channel=1, note=67, velocity=85, time=0),\n",
      "    Message('note_on', channel=1, note=64, velocity=0, time=168),\n",
      "    Message('note_on', channel=1, note=67, velocity=0, time=0),\n",
      "    Message('note_on', channel=1, note=66, velocity=85, time=12),\n",
      "    Message('note_on', channel=1, note=71, velocity=85, time=0),\n",
      "    Message('note_on', channel=1, note=62, velocity=85, time=0),\n",
      "    Message('note_on', channel=1, note=66, velocity=0, time=168),\n",
      "    Message('note_on', channel=1, note=71, velocity=0, time=0),\n",
      "    Message('note_on', channel=1, note=62, velocity=0, time=0),\n",
      "    Message('note_on', channel=1, note=66, velocity=85, time=12),\n",
      "    Message('note_on', channel=1, note=69, velocity=85, time=0),\n",
      "    Message('note_on', channel=1, note=60, velocity=85, time=0),\n",
      "    Message('note_on', channel=1, note=66, velocity=0, time=168),\n",
      "    Message('note_on', channel=1, note=69, velocity=0, time=0),\n",
      "    Message('note_on', channel=1, note=60, velocity=0, time=0),\n",
      "    Message('note_on', channel=1, note=67, velocity=85, time=192),\n",
      "    Message('note_on', channel=1, note=67, velocity=0, time=168),\n",
      "    Message('note_on', channel=1, note=67, velocity=85, time=12),\n",
      "    Message('note_on', channel=1, note=67, velocity=0, time=168),\n",
      "    Message('note_on', channel=1, note=67, velocity=85, time=12),\n",
      "    Message('note_on', channel=1, note=67, velocity=0, time=168),\n",
      "    Message('note_on', channel=1, note=67, velocity=85, time=12),\n",
      "    Message('note_on', channel=1, note=67, velocity=0, time=168),\n",
      "    Message('note_on', channel=1, note=67, velocity=85, time=1452),\n",
      "    Message('note_on', channel=1, note=67, velocity=0, time=168),\n",
      "    Message('note_on', channel=1, note=67, velocity=85, time=12),\n",
      "    Message('note_on', channel=1, note=67, velocity=0, time=168),\n",
      "    Message('note_on', channel=1, note=67, velocity=85, time=12),\n",
      "    Message('note_on', channel=1, note=67, velocity=0, time=168),\n",
      "    Message('note_on', channel=1, note=67, velocity=85, time=12),\n",
      "    Message('note_on', channel=1, note=67, velocity=0, time=168),\n",
      "    Message('note_on', channel=1, note=66, velocity=85, time=1272),\n",
      "    Message('note_on', channel=1, note=62, velocity=85, time=0),\n",
      "    Message('note_on', channel=1, note=69, velocity=85, time=0),\n",
      "    Message('note_on', channel=1, note=66, velocity=0, time=168),\n",
      "    Message('note_on', channel=1, note=62, velocity=0, time=0),\n",
      "    Message('note_on', channel=1, note=69, velocity=0, time=0),\n",
      "    Message('note_on', channel=1, note=67, velocity=85, time=12),\n",
      "    Message('note_on', channel=1, note=67, velocity=0, time=168),\n",
      "    Message('note_on', channel=1, note=64, velocity=85, time=192),\n",
      "    Message('note_on', channel=1, note=60, velocity=85, time=0),\n",
      "    Message('note_on', channel=1, note=69, velocity=85, time=0),\n",
      "    Message('note_on', channel=1, note=64, velocity=0, time=168),\n",
      "    Message('note_on', channel=1, note=60, velocity=0, time=0),\n",
      "    Message('note_on', channel=1, note=69, velocity=0, time=0),\n",
      "    Message('note_on', channel=1, note=62, velocity=85, time=12),\n",
      "    Message('note_on', channel=1, note=69, velocity=85, time=0),\n",
      "    Message('note_on', channel=1, note=62, velocity=0, time=168),\n",
      "    Message('note_on', channel=1, note=69, velocity=0, time=0),\n",
      "    Message('note_on', channel=1, note=64, velocity=85, time=2352),\n",
      "    Message('note_on', channel=1, note=67, velocity=85, time=0),\n",
      "    Message('note_on', channel=1, note=64, velocity=0, time=168),\n",
      "    Message('note_on', channel=1, note=67, velocity=0, time=0),\n",
      "    Message('note_on', channel=1, note=66, velocity=85, time=12),\n",
      "    Message('note_on', channel=1, note=71, velocity=85, time=0),\n",
      "    Message('note_on', channel=1, note=62, velocity=85, time=0),\n",
      "    Message('note_on', channel=1, note=66, velocity=0, time=168),\n",
      "    Message('note_on', channel=1, note=71, velocity=0, time=0),\n",
      "    Message('note_on', channel=1, note=62, velocity=0, time=0),\n",
      "    Message('note_on', channel=1, note=66, velocity=85, time=12),\n",
      "    Message('note_on', channel=1, note=60, velocity=85, time=0),\n",
      "    Message('note_on', channel=1, note=69, velocity=85, time=0),\n",
      "    Message('note_on', channel=1, note=66, velocity=0, time=168),\n",
      "    Message('note_on', channel=1, note=60, velocity=0, time=0),\n",
      "    Message('note_on', channel=1, note=69, velocity=0, time=0),\n",
      "    Message('note_on', channel=1, note=67, velocity=85, time=192),\n",
      "    Message('note_on', channel=1, note=67, velocity=0, time=168),\n",
      "    Message('note_on', channel=1, note=67, velocity=85, time=12),\n",
      "    Message('note_on', channel=1, note=67, velocity=0, time=168),\n",
      "    Message('note_on', channel=1, note=67, velocity=85, time=12),\n",
      "    Message('note_on', channel=1, note=67, velocity=0, time=168),\n",
      "    Message('note_on', channel=1, note=67, velocity=85, time=12),\n",
      "    Message('note_on', channel=1, note=67, velocity=0, time=168),\n",
      "    Message('note_on', channel=1, note=67, velocity=85, time=1452),\n",
      "    Message('note_on', channel=1, note=67, velocity=0, time=168),\n",
      "    Message('note_on', channel=1, note=67, velocity=85, time=12),\n",
      "    Message('note_on', channel=1, note=67, velocity=0, time=168),\n",
      "    Message('note_on', channel=1, note=67, velocity=85, time=12),\n",
      "    Message('note_on', channel=1, note=67, velocity=0, time=168),\n",
      "    Message('note_on', channel=1, note=67, velocity=85, time=12),\n",
      "    Message('note_on', channel=1, note=67, velocity=0, time=168),\n",
      "    Message('note_on', channel=1, note=69, velocity=85, time=2352),\n",
      "    Message('note_on', channel=1, note=62, velocity=85, time=0),\n",
      "    Message('note_on', channel=1, note=69, velocity=0, time=336),\n",
      "    Message('note_on', channel=1, note=62, velocity=0, time=0),\n",
      "    Message('note_on', channel=1, note=69, velocity=85, time=564),\n",
      "    Message('note_on', channel=1, note=69, velocity=0, time=168),\n",
      "    Message('note_on', channel=1, note=69, velocity=85, time=12),\n",
      "    Message('note_on', channel=1, note=69, velocity=0, time=168),\n",
      "    Message('note_on', channel=1, note=69, velocity=85, time=12),\n",
      "    Message('note_on', channel=1, note=69, velocity=0, time=168),\n",
      "    Message('note_on', channel=1, note=69, velocity=85, time=192),\n",
      "    Message('note_on', channel=1, note=69, velocity=0, time=168),\n",
      "    Message('note_on', channel=1, note=66, velocity=85, time=12),\n",
      "    Message('note_on', channel=1, note=66, velocity=0, time=168),\n",
      "    Message('note_on', channel=1, note=67, velocity=85, time=732),\n",
      "    Message('note_on', channel=1, note=67, velocity=0, time=168),\n",
      "    Message('note_on', channel=1, note=69, velocity=85, time=12),\n",
      "    Message('note_on', channel=1, note=69, velocity=0, time=168),\n",
      "    Message('note_on', channel=1, note=65, velocity=85, time=192),\n",
      "    Message('note_on', channel=1, note=65, velocity=0, time=336),\n",
      "    Message('note_on', channel=1, note=62, velocity=85, time=3084),\n",
      "    Message('note_on', channel=1, note=62, velocity=0, time=168),\n",
      "    Message('note_on', channel=1, note=64, velocity=85, time=12),\n",
      "    Message('note_on', channel=1, note=64, velocity=0, time=168),\n",
      "    Message('note_on', channel=1, note=64, velocity=85, time=2172),\n",
      "    Message('note_on', channel=1, note=67, velocity=85, time=0),\n",
      "    Message('note_on', channel=1, note=64, velocity=0, time=168),\n",
      "    Message('note_on', channel=1, note=67, velocity=0, time=0),\n",
      "    Message('note_on', channel=1, note=67, velocity=85, time=2712),\n",
      "    Message('note_on', channel=1, note=67, velocity=0, time=168),\n",
      "    Message('note_on', channel=1, note=67, velocity=85, time=12),\n",
      "    Message('note_on', channel=1, note=67, velocity=0, time=168),\n",
      "    Message('note_on', channel=1, note=67, velocity=85, time=12),\n",
      "    Message('note_on', channel=1, note=67, velocity=0, time=168),\n",
      "    Message('note_on', channel=1, note=67, velocity=85, time=12),\n",
      "    Message('note_on', channel=1, note=67, velocity=0, time=168),\n",
      "    Message('note_on', channel=1, note=67, velocity=85, time=1452),\n",
      "    Message('note_on', channel=1, note=67, velocity=0, time=168),\n",
      "    Message('note_on', channel=1, note=67, velocity=85, time=12),\n",
      "    Message('note_on', channel=1, note=67, velocity=0, time=168),\n",
      "    Message('note_on', channel=1, note=67, velocity=85, time=12),\n",
      "    Message('note_on', channel=1, note=67, velocity=0, time=168),\n",
      "    Message('note_on', channel=1, note=67, velocity=85, time=12),\n",
      "    Message('note_on', channel=1, note=67, velocity=0, time=168),\n",
      "    Message('note_on', channel=1, note=67, velocity=85, time=1332),\n",
      "    Message('note_on', channel=1, note=67, velocity=0, time=48),\n",
      "    Message('note_on', channel=1, note=69, velocity=85, time=12),\n",
      "    Message('note_on', channel=1, note=69, velocity=0, time=48),\n",
      "    Message('note_on', channel=1, note=67, velocity=85, time=12),\n",
      "    Message('note_on', channel=1, note=67, velocity=0, time=168),\n",
      "    Message('note_on', channel=1, note=67, velocity=85, time=12),\n",
      "    Message('note_on', channel=1, note=67, velocity=0, time=168),\n",
      "    Message('note_on', channel=1, note=67, velocity=85, time=12),\n",
      "    Message('note_on', channel=1, note=67, velocity=0, time=168),\n",
      "    Message('note_on', channel=1, note=67, velocity=85, time=12),\n",
      "    Message('note_on', channel=1, note=67, velocity=0, time=168),\n",
      "    Message('note_on', channel=1, note=67, velocity=85, time=12),\n",
      "    Message('note_on', channel=1, note=67, velocity=0, time=48),\n",
      "    Message('note_on', channel=1, note=69, velocity=85, time=12),\n",
      "    Message('note_on', channel=1, note=69, velocity=0, time=48),\n",
      "    Message('note_on', channel=1, note=71, velocity=85, time=12),\n",
      "    Message('note_on', channel=1, note=71, velocity=0, time=48),\n",
      "    Message('note_on', channel=1, note=72, velocity=85, time=12),\n",
      "    Message('note_on', channel=1, note=72, velocity=0, time=48),\n",
      "    Message('note_on', channel=1, note=74, velocity=85, time=12),\n",
      "    Message('note_on', channel=1, note=74, velocity=0, time=48),\n",
      "    Message('note_on', channel=1, note=76, velocity=85, time=12),\n",
      "    Message('note_on', channel=1, note=76, velocity=0, time=48),\n",
      "    Message('note_on', channel=1, note=74, velocity=85, time=12),\n",
      "    Message('note_on', channel=1, note=74, velocity=0, time=48),\n",
      "    Message('note_on', channel=1, note=72, velocity=85, time=12),\n",
      "    Message('note_on', channel=1, note=72, velocity=0, time=48),\n",
      "    Message('note_on', channel=1, note=71, velocity=85, time=12),\n",
      "    Message('note_on', channel=1, note=71, velocity=0, time=48),\n",
      "    Message('note_on', channel=1, note=69, velocity=85, time=12),\n",
      "    Message('note_on', channel=1, note=69, velocity=0, time=48),\n",
      "    Message('note_on', channel=1, note=71, velocity=85, time=12),\n",
      "    Message('note_on', channel=1, note=71, velocity=0, time=48),\n",
      "    Message('note_on', channel=1, note=67, velocity=85, time=12),\n",
      "    Message('note_on', channel=1, note=67, velocity=0, time=48),\n",
      "    Message('note_on', channel=1, note=66, velocity=85, time=12),\n",
      "    Message('note_on', channel=1, note=66, velocity=0, time=48),\n",
      "    Message('note_on', channel=1, note=67, velocity=85, time=12),\n",
      "    Message('note_on', channel=1, note=67, velocity=0, time=48),\n",
      "    Message('note_on', channel=1, note=69, velocity=85, time=12),\n",
      "    Message('note_on', channel=1, note=69, velocity=0, time=48),\n",
      "    Message('note_on', channel=1, note=62, velocity=85, time=12),\n",
      "    Message('note_on', channel=1, note=62, velocity=0, time=48),\n",
      "    Message('note_on', channel=1, note=66, velocity=85, time=12),\n",
      "    Message('note_on', channel=1, note=66, velocity=0, time=48),\n",
      "    Message('note_on', channel=1, note=69, velocity=85, time=12),\n",
      "    Message('note_on', channel=1, note=69, velocity=0, time=48),\n",
      "    Message('note_on', channel=1, note=72, velocity=85, time=12),\n",
      "    Message('note_on', channel=1, note=72, velocity=0, time=48),\n",
      "    Message('note_on', channel=1, note=71, velocity=85, time=12),\n",
      "    Message('note_on', channel=1, note=71, velocity=0, time=48),\n",
      "    Message('note_on', channel=1, note=69, velocity=85, time=12),\n",
      "    Message('note_on', channel=1, note=69, velocity=0, time=48),\n",
      "    Message('note_on', channel=1, note=71, velocity=85, time=12),\n",
      "    Message('note_on', channel=1, note=71, velocity=0, time=48),\n",
      "    Message('note_on', channel=1, note=67, velocity=85, time=12),\n",
      "    Message('note_on', channel=1, note=67, velocity=0, time=48),\n",
      "    Message('note_on', channel=1, note=69, velocity=85, time=12),\n",
      "    Message('note_on', channel=1, note=69, velocity=0, time=48),\n",
      "    Message('note_on', channel=1, note=67, velocity=85, time=12),\n",
      "    Message('note_on', channel=1, note=67, velocity=0, time=168),\n",
      "    Message('note_on', channel=1, note=67, velocity=85, time=12),\n",
      "    Message('note_on', channel=1, note=67, velocity=0, time=168),\n",
      "    Message('note_on', channel=1, note=67, velocity=85, time=12),\n",
      "    Message('note_on', channel=1, note=67, velocity=0, time=168),\n",
      "    Message('note_on', channel=1, note=67, velocity=85, time=12),\n",
      "    Message('note_on', channel=1, note=67, velocity=0, time=168),\n",
      "    Message('note_on', channel=1, note=66, velocity=85, time=1812),\n",
      "    Message('note_on', channel=1, note=69, velocity=85, time=0),\n",
      "    Message('note_on', channel=1, note=62, velocity=85, time=0),\n",
      "    Message('note_on', channel=1, note=66, velocity=0, time=168),\n",
      "    Message('note_on', channel=1, note=69, velocity=0, time=0),\n",
      "    Message('note_on', channel=1, note=62, velocity=0, time=0),\n",
      "    Message('note_on', channel=1, note=67, velocity=85, time=12),\n",
      "    Message('note_on', channel=1, note=67, velocity=0, time=168),\n",
      "    Message('note_on', channel=1, note=60, velocity=85, time=192),\n",
      "    Message('note_on', channel=1, note=67, velocity=85, time=0),\n",
      "    Message('note_on', channel=1, note=64, velocity=85, time=0),\n",
      "    Message('note_on', channel=1, note=60, velocity=0, time=168),\n",
      "    Message('note_on', channel=1, note=67, velocity=0, time=0),\n",
      "    Message('note_on', channel=1, note=64, velocity=0, time=0),\n",
      "    Message('note_on', channel=1, note=62, velocity=85, time=12),\n",
      "    Message('note_on', channel=1, note=69, velocity=85, time=0),\n",
      "    Message('note_on', channel=1, note=62, velocity=0, time=168),\n",
      "    Message('note_on', channel=1, note=69, velocity=0, time=0),\n",
      "    Message('note_on', channel=1, note=64, velocity=85, time=2352),\n",
      "    Message('note_on', channel=1, note=67, velocity=85, time=0),\n",
      "    Message('note_on', channel=1, note=64, velocity=0, time=168),\n",
      "    Message('note_on', channel=1, note=67, velocity=0, time=0),\n",
      "    Message('note_on', channel=1, note=66, velocity=85, time=12),\n",
      "    Message('note_on', channel=1, note=71, velocity=85, time=0),\n",
      "    Message('note_on', channel=1, note=62, velocity=85, time=0),\n",
      "    Message('note_on', channel=1, note=66, velocity=0, time=168),\n",
      "    Message('note_on', channel=1, note=71, velocity=0, time=0),\n",
      "    Message('note_on', channel=1, note=62, velocity=0, time=0),\n",
      "    Message('note_on', channel=1, note=66, velocity=85, time=12),\n",
      "    Message('note_on', channel=1, note=69, velocity=85, time=0),\n",
      "    Message('note_on', channel=1, note=60, velocity=85, time=0),\n",
      "    Message('note_on', channel=1, note=66, velocity=0, time=168),\n",
      "    Message('note_on', channel=1, note=69, velocity=0, time=0),\n",
      "    Message('note_on', channel=1, note=60, velocity=0, time=0),\n",
      "    Message('note_on', channel=1, note=67, velocity=85, time=192),\n",
      "    Message('note_on', channel=1, note=67, velocity=0, time=168),\n",
      "    Message('note_on', channel=1, note=67, velocity=85, time=12),\n",
      "    Message('note_on', channel=1, note=67, velocity=0, time=168),\n",
      "    Message('note_on', channel=1, note=67, velocity=85, time=12),\n",
      "    Message('note_on', channel=1, note=67, velocity=0, time=168),\n",
      "    Message('note_on', channel=1, note=67, velocity=85, time=12),\n",
      "    Message('note_on', channel=1, note=67, velocity=0, time=168),\n",
      "    Message('note_on', channel=1, note=67, velocity=85, time=1452),\n",
      "    Message('note_on', channel=1, note=67, velocity=0, time=168),\n",
      "    Message('note_on', channel=1, note=67, velocity=85, time=12),\n",
      "    Message('note_on', channel=1, note=67, velocity=0, time=168),\n",
      "    Message('note_on', channel=1, note=67, velocity=85, time=12),\n",
      "    Message('note_on', channel=1, note=67, velocity=0, time=168),\n",
      "    Message('note_on', channel=1, note=67, velocity=85, time=12),\n",
      "    Message('note_on', channel=1, note=67, velocity=0, time=168),\n",
      "    Message('note_on', channel=1, note=66, velocity=85, time=1272),\n",
      "    Message('note_on', channel=1, note=62, velocity=85, time=0),\n",
      "    Message('note_on', channel=1, note=69, velocity=85, time=0),\n",
      "    Message('note_on', channel=1, note=66, velocity=0, time=168),\n",
      "    Message('note_on', channel=1, note=62, velocity=0, time=0),\n",
      "    Message('note_on', channel=1, note=69, velocity=0, time=0),\n",
      "    Message('note_on', channel=1, note=67, velocity=85, time=12),\n",
      "    Message('note_on', channel=1, note=67, velocity=0, time=168),\n",
      "    Message('note_on', channel=1, note=64, velocity=85, time=192),\n",
      "    Message('note_on', channel=1, note=60, velocity=85, time=0),\n",
      "    Message('note_on', channel=1, note=69, velocity=85, time=0),\n",
      "    Message('note_on', channel=1, note=64, velocity=0, time=168),\n",
      "    Message('note_on', channel=1, note=60, velocity=0, time=0),\n",
      "    Message('note_on', channel=1, note=69, velocity=0, time=0),\n",
      "    Message('note_on', channel=1, note=62, velocity=85, time=12),\n",
      "    Message('note_on', channel=1, note=69, velocity=85, time=0),\n",
      "    Message('note_on', channel=1, note=62, velocity=0, time=168),\n",
      "    Message('note_on', channel=1, note=69, velocity=0, time=0),\n",
      "    Message('note_on', channel=1, note=64, velocity=85, time=2352),\n",
      "    Message('note_on', channel=1, note=67, velocity=85, time=0),\n",
      "    Message('note_on', channel=1, note=64, velocity=0, time=168),\n",
      "    Message('note_on', channel=1, note=67, velocity=0, time=0),\n",
      "    Message('note_on', channel=1, note=66, velocity=85, time=12),\n",
      "    Message('note_on', channel=1, note=71, velocity=85, time=0),\n",
      "    Message('note_on', channel=1, note=62, velocity=85, time=0),\n",
      "    Message('note_on', channel=1, note=66, velocity=0, time=168),\n",
      "    Message('note_on', channel=1, note=71, velocity=0, time=0),\n",
      "    Message('note_on', channel=1, note=62, velocity=0, time=0),\n",
      "    Message('note_on', channel=1, note=66, velocity=85, time=12),\n",
      "    Message('note_on', channel=1, note=60, velocity=85, time=0),\n",
      "    Message('note_on', channel=1, note=69, velocity=85, time=0),\n",
      "    Message('note_on', channel=1, note=66, velocity=0, time=168),\n",
      "    Message('note_on', channel=1, note=60, velocity=0, time=0),\n",
      "    Message('note_on', channel=1, note=69, velocity=0, time=0),\n",
      "    Message('note_on', channel=1, note=67, velocity=85, time=192),\n",
      "    Message('note_on', channel=1, note=67, velocity=0, time=168),\n",
      "    Message('note_on', channel=1, note=67, velocity=85, time=12),\n",
      "    Message('note_on', channel=1, note=67, velocity=0, time=168),\n",
      "    Message('note_on', channel=1, note=67, velocity=85, time=12),\n",
      "    Message('note_on', channel=1, note=67, velocity=0, time=168),\n",
      "    Message('note_on', channel=1, note=67, velocity=85, time=12),\n",
      "    Message('note_on', channel=1, note=67, velocity=0, time=168),\n",
      "    Message('note_on', channel=1, note=67, velocity=85, time=1452),\n",
      "    Message('note_on', channel=1, note=67, velocity=0, time=168),\n",
      "    Message('note_on', channel=1, note=67, velocity=85, time=12),\n",
      "    Message('note_on', channel=1, note=67, velocity=0, time=168),\n",
      "    Message('note_on', channel=1, note=67, velocity=85, time=12),\n",
      "    Message('note_on', channel=1, note=67, velocity=0, time=168),\n",
      "    Message('note_on', channel=1, note=67, velocity=85, time=12),\n",
      "    Message('note_on', channel=1, note=67, velocity=0, time=168),\n",
      "    Message('note_on', channel=1, note=69, velocity=85, time=2352),\n",
      "    Message('note_on', channel=1, note=62, velocity=85, time=0),\n",
      "    Message('note_on', channel=1, note=69, velocity=0, time=336),\n",
      "    Message('note_on', channel=1, note=62, velocity=0, time=0),\n",
      "    Message('note_on', channel=1, note=69, velocity=85, time=564),\n",
      "    Message('note_on', channel=1, note=69, velocity=0, time=168),\n",
      "    Message('note_on', channel=1, note=69, velocity=85, time=12),\n",
      "    Message('note_on', channel=1, note=69, velocity=0, time=168),\n",
      "    Message('note_on', channel=1, note=69, velocity=85, time=12),\n",
      "    Message('note_on', channel=1, note=69, velocity=0, time=168),\n",
      "    Message('note_on', channel=1, note=69, velocity=85, time=192),\n",
      "    Message('note_on', channel=1, note=69, velocity=0, time=168),\n",
      "    Message('note_on', channel=1, note=66, velocity=85, time=12),\n",
      "    Message('note_on', channel=1, note=66, velocity=0, time=168),\n",
      "    Message('note_on', channel=1, note=67, velocity=85, time=732),\n",
      "    Message('note_on', channel=1, note=67, velocity=0, time=168),\n",
      "    Message('note_on', channel=1, note=69, velocity=85, time=12),\n",
      "    Message('note_on', channel=1, note=69, velocity=0, time=168),\n",
      "    Message('note_on', channel=1, note=65, velocity=85, time=192),\n",
      "    Message('note_on', channel=1, note=65, velocity=0, time=336),\n",
      "    Message('note_on', channel=1, note=62, velocity=85, time=3084),\n",
      "    Message('note_on', channel=1, note=62, velocity=0, time=168),\n",
      "    Message('note_on', channel=1, note=64, velocity=85, time=12),\n",
      "    Message('note_on', channel=1, note=64, velocity=0, time=168),\n",
      "    Message('note_on', channel=1, note=64, velocity=85, time=2172),\n",
      "    Message('note_on', channel=1, note=67, velocity=85, time=0),\n",
      "    Message('note_on', channel=1, note=64, velocity=0, time=168),\n",
      "    Message('note_on', channel=1, note=67, velocity=0, time=0),\n",
      "    Message('note_on', channel=1, note=67, velocity=85, time=2712),\n",
      "    Message('note_on', channel=1, note=67, velocity=0, time=168),\n",
      "    Message('note_on', channel=1, note=67, velocity=85, time=12),\n",
      "    Message('note_on', channel=1, note=67, velocity=0, time=168),\n",
      "    Message('note_on', channel=1, note=67, velocity=85, time=12),\n",
      "    Message('note_on', channel=1, note=67, velocity=0, time=168),\n",
      "    Message('note_on', channel=1, note=67, velocity=85, time=12),\n",
      "    Message('note_on', channel=1, note=67, velocity=0, time=168),\n",
      "    Message('note_on', channel=1, note=67, velocity=85, time=1452),\n",
      "    Message('note_on', channel=1, note=67, velocity=0, time=168),\n",
      "    Message('note_on', channel=1, note=67, velocity=85, time=12),\n",
      "    Message('note_on', channel=1, note=67, velocity=0, time=168),\n",
      "    Message('note_on', channel=1, note=67, velocity=85, time=12),\n",
      "    Message('note_on', channel=1, note=67, velocity=0, time=168),\n",
      "    Message('note_on', channel=1, note=67, velocity=85, time=12),\n",
      "    Message('note_on', channel=1, note=67, velocity=0, time=168),\n",
      "    MetaMessage('end_of_track', time=0)]),\n",
      "  MidiTrack([\n",
      "    MetaMessage('track_name', name='by J.S. Bach', time=0),\n",
      "    MetaMessage('instrument_name', name='Synth Brass 2', time=0),\n",
      "    MetaMessage('midi_port', port=0, time=0),\n",
      "    Message('control_change', channel=2, control=0, value=80, time=0),\n",
      "    Message('control_change', channel=2, control=32, value=0, time=0),\n",
      "    Message('program_change', channel=2, program=63, time=0),\n",
      "    Message('note_on', channel=2, note=43, velocity=84, time=0),\n",
      "    Message('note_on', channel=2, note=55, velocity=84, time=0),\n",
      "    Message('note_on', channel=2, note=43, velocity=0, time=168),\n",
      "    Message('note_on', channel=2, note=55, velocity=0, time=0),\n",
      "    Message('note_on', channel=2, note=50, velocity=84, time=12),\n",
      "    Message('note_on', channel=2, note=55, velocity=84, time=0),\n",
      "    Message('note_on', channel=2, note=50, velocity=0, time=168),\n",
      "    Message('note_on', channel=2, note=55, velocity=0, time=0),\n",
      "    Message('note_on', channel=2, note=52, velocity=84, time=12),\n",
      "    Message('note_on', channel=2, note=60, velocity=84, time=0),\n",
      "    Message('note_on', channel=2, note=52, velocity=0, time=168),\n",
      "    Message('note_on', channel=2, note=60, velocity=0, time=0),\n",
      "    Message('note_on', channel=2, note=47, velocity=84, time=12),\n",
      "    Message('note_on', channel=2, note=55, velocity=84, time=0),\n",
      "    Message('note_on', channel=2, note=47, velocity=0, time=168),\n",
      "    Message('note_on', channel=2, note=55, velocity=0, time=0),\n",
      "    Message('note_on', channel=2, note=52, velocity=84, time=12),\n",
      "    Message('note_on', channel=2, note=59, velocity=84, time=0),\n",
      "    Message('note_on', channel=2, note=52, velocity=0, time=168),\n",
      "    Message('note_on', channel=2, note=59, velocity=0, time=0),\n",
      "    Message('note_on', channel=2, note=59, velocity=84, time=12),\n",
      "    Message('note_on', channel=2, note=64, velocity=84, time=0),\n",
      "    Message('note_on', channel=2, note=59, velocity=0, time=168),\n",
      "    Message('note_on', channel=2, note=64, velocity=0, time=0),\n",
      "    Message('note_on', channel=2, note=64, velocity=84, time=12),\n",
      "    Message('note_on', channel=2, note=57, velocity=84, time=0),\n",
      "    Message('note_on', channel=2, note=64, velocity=0, time=168),\n",
      "    Message('note_on', channel=2, note=57, velocity=0, time=0),\n",
      "    Message('note_on', channel=2, note=67, velocity=84, time=12),\n",
      "    Message('note_on', channel=2, note=59, velocity=84, time=0),\n",
      "    Message('note_on', channel=2, note=67, velocity=0, time=168),\n",
      "    Message('note_on', channel=2, note=59, velocity=0, time=0),\n",
      "    Message('note_on', channel=2, note=67, velocity=84, time=12),\n",
      "    Message('note_on', channel=2, note=60, velocity=84, time=0),\n",
      "    Message('note_on', channel=2, note=67, velocity=0, time=168),\n",
      "    Message('note_on', channel=2, note=60, velocity=0, time=0),\n",
      "    Message('note_on', channel=2, note=52, velocity=84, time=12),\n",
      "    Message('note_on', channel=2, note=57, velocity=84, time=0),\n",
      "    Message('note_on', channel=2, note=52, velocity=0, time=336),\n",
      "    Message('note_on', channel=2, note=57, velocity=0, time=0),\n",
      "    Message('note_on', channel=2, note=54, velocity=84, time=24),\n",
      "    Message('note_on', channel=2, note=54, velocity=0, time=168),\n",
      "    Message('note_on', channel=2, note=43, velocity=84, time=12),\n",
      "    Message('note_on', channel=2, note=55, velocity=84, time=0),\n",
      "    Message('note_on', channel=2, note=43, velocity=0, time=168),\n",
      "    Message('note_on', channel=2, note=55, velocity=0, time=0),\n",
      "    Message('note_on', channel=2, note=55, velocity=84, time=12),\n",
      "    Message('note_on', channel=2, note=62, velocity=84, time=0),\n",
      "    Message('note_on', channel=2, note=55, velocity=0, time=168),\n",
      "    Message('note_on', channel=2, note=62, velocity=0, time=0),\n",
      "    Message('note_on', channel=2, note=60, velocity=84, time=12),\n",
      "    Message('note_on', channel=2, note=52, velocity=84, time=0),\n",
      "    Message('note_on', channel=2, note=60, velocity=0, time=168),\n",
      "    Message('note_on', channel=2, note=52, velocity=0, time=0),\n",
      "    Message('note_on', channel=2, note=47, velocity=84, time=12),\n",
      "    Message('note_on', channel=2, note=55, velocity=84, time=0),\n",
      "    Message('note_on', channel=2, note=47, velocity=0, time=168),\n",
      "    Message('note_on', channel=2, note=55, velocity=0, time=0),\n",
      "    Message('note_on', channel=2, note=52, velocity=84, time=12),\n",
      "    Message('note_on', channel=2, note=59, velocity=84, time=0),\n",
      "    Message('note_on', channel=2, note=52, velocity=0, time=168),\n",
      "    Message('note_on', channel=2, note=59, velocity=0, time=0),\n",
      "    Message('note_on', channel=2, note=59, velocity=84, time=12),\n",
      "    Message('note_on', channel=2, note=64, velocity=84, time=0),\n",
      "    Message('note_on', channel=2, note=59, velocity=0, time=168),\n",
      "    Message('note_on', channel=2, note=64, velocity=0, time=0),\n",
      "    Message('note_on', channel=2, note=52, velocity=84, time=12),\n",
      "    Message('note_on', channel=2, note=57, velocity=84, time=0),\n",
      "    Message('note_on', channel=2, note=52, velocity=0, time=336),\n",
      "    Message('note_on', channel=2, note=57, velocity=0, time=0),\n",
      "    Message('note_on', channel=2, note=50, velocity=84, time=24),\n",
      "    Message('note_on', channel=2, note=57, velocity=84, time=0),\n",
      "    Message('note_on', channel=2, note=60, velocity=84, time=0),\n",
      "    Message('note_on', channel=2, note=50, velocity=0, time=168),\n",
      "    Message('note_on', channel=2, note=57, velocity=0, time=0),\n",
      "    Message('note_on', channel=2, note=60, velocity=0, time=0),\n",
      "    Message('note_on', channel=2, note=59, velocity=84, time=12),\n",
      "    Message('note_on', channel=2, note=55, velocity=84, time=0),\n",
      "    Message('note_on', channel=2, note=62, velocity=84, time=0),\n",
      "    Message('note_on', channel=2, note=59, velocity=0, time=528),\n",
      "    Message('note_on', channel=2, note=55, velocity=0, time=0),\n",
      "    Message('note_on', channel=2, note=62, velocity=0, time=0),\n",
      "    Message('note_on', channel=2, note=43, velocity=84, time=12),\n",
      "    Message('note_on', channel=2, note=55, velocity=84, time=0),\n",
      "    Message('note_on', channel=2, note=43, velocity=0, time=168),\n",
      "    Message('note_on', channel=2, note=55, velocity=0, time=0),\n",
      "    Message('note_on', channel=2, note=42, velocity=84, time=12),\n",
      "    Message('note_on', channel=2, note=54, velocity=84, time=0),\n",
      "    Message('note_on', channel=2, note=42, velocity=0, time=168),\n",
      "    Message('note_on', channel=2, note=54, velocity=0, time=0),\n",
      "    Message('note_on', channel=2, note=40, velocity=84, time=12),\n",
      "    Message('note_on', channel=2, note=52, velocity=84, time=0),\n",
      "    Message('note_on', channel=2, note=40, velocity=0, time=168),\n",
      "    Message('note_on', channel=2, note=52, velocity=0, time=0),\n",
      "    Message('note_on', channel=2, note=54, velocity=84, time=12),\n",
      "    Message('note_on', channel=2, note=42, velocity=84, time=0),\n",
      "    Message('note_on', channel=2, note=54, velocity=0, time=168),\n",
      "    Message('note_on', channel=2, note=42, velocity=0, time=0),\n",
      "    Message('note_on', channel=2, note=40, velocity=84, time=12),\n",
      "    Message('note_on', channel=2, note=52, velocity=84, time=0),\n",
      "    Message('note_on', channel=2, note=40, velocity=0, time=168),\n",
      "    Message('note_on', channel=2, note=52, velocity=0, time=0),\n",
      "    Message('note_on', channel=2, note=50, velocity=84, time=12),\n",
      "    Message('note_on', channel=2, note=38, velocity=84, time=0),\n",
      "    Message('note_on', channel=2, note=50, velocity=0, time=168),\n",
      "    Message('note_on', channel=2, note=38, velocity=0, time=0),\n",
      "    Message('note_on', channel=2, note=52, velocity=84, time=12),\n",
      "    Message('note_on', channel=2, note=40, velocity=84, time=0),\n",
      "    Message('note_on', channel=2, note=52, velocity=0, time=168),\n",
      "    Message('note_on', channel=2, note=40, velocity=0, time=0),\n",
      "    Message('note_on', channel=2, note=42, velocity=84, time=12),\n",
      "    Message('note_on', channel=2, note=54, velocity=84, time=0),\n",
      "    Message('note_on', channel=2, note=42, velocity=0, time=168),\n",
      "    Message('note_on', channel=2, note=54, velocity=0, time=0),\n",
      "    Message('note_on', channel=2, note=55, velocity=84, time=12),\n",
      "    Message('note_on', channel=2, note=43, velocity=84, time=0),\n",
      "    Message('note_on', channel=2, note=55, velocity=0, time=168),\n",
      "    Message('note_on', channel=2, note=43, velocity=0, time=0),\n",
      "    Message('note_on', channel=2, note=38, velocity=84, time=12),\n",
      "    Message('note_on', channel=2, note=50, velocity=84, time=0),\n",
      "    Message('note_on', channel=2, note=38, velocity=0, time=528),\n",
      "    Message('note_on', channel=2, note=50, velocity=0, time=0),\n",
      "    Message('note_on', channel=2, note=50, velocity=84, time=12),\n",
      "    Message('note_on', channel=2, note=54, velocity=84, time=0),\n",
      "    Message('note_on', channel=2, note=50, velocity=0, time=528),\n",
      "    Message('note_on', channel=2, note=54, velocity=0, time=0),\n",
      "    Message('note_on', channel=2, note=43, velocity=84, time=12),\n",
      "    Message('note_on', channel=2, note=55, velocity=84, time=0),\n",
      "    Message('note_on', channel=2, note=43, velocity=0, time=168),\n",
      "    Message('note_on', channel=2, note=55, velocity=0, time=0),\n",
      "    Message('note_on', channel=2, note=42, velocity=84, time=12),\n",
      "    Message('note_on', channel=2, note=54, velocity=84, time=0),\n",
      "    Message('note_on', channel=2, note=42, velocity=0, time=168),\n",
      "    Message('note_on', channel=2, note=54, velocity=0, time=0),\n",
      "    Message('note_on', channel=2, note=52, velocity=84, time=12),\n",
      "    Message('note_on', channel=2, note=40, velocity=84, time=0),\n",
      "    Message('note_on', channel=2, note=52, velocity=0, time=168),\n",
      "    Message('note_on', channel=2, note=40, velocity=0, time=0),\n",
      "    Message('note_on', channel=2, note=59, velocity=84, time=12),\n",
      "    Message('note_on', channel=2, note=47, velocity=84, time=0),\n",
      "    Message('note_on', channel=2, note=59, velocity=0, time=168),\n",
      "    Message('note_on', channel=2, note=47, velocity=0, time=0),\n",
      "    Message('note_on', channel=2, note=47, velocity=84, time=12),\n",
      "    Message('note_on', channel=2, note=35, velocity=84, time=0),\n",
      "    Message('note_on', channel=2, note=47, velocity=0, time=168),\n",
      "    Message('note_on', channel=2, note=35, velocity=0, time=0),\n",
      "    Message('note_on', channel=2, note=52, velocity=84, time=12),\n",
      "    Message('note_on', channel=2, note=40, velocity=84, time=0),\n",
      "    Message('note_on', channel=2, note=52, velocity=0, time=168),\n",
      "    Message('note_on', channel=2, note=40, velocity=0, time=0),\n",
      "    Message('note_on', channel=2, note=48, velocity=84, time=12),\n",
      "    Message('note_on', channel=2, note=36, velocity=84, time=0),\n",
      "    Message('note_on', channel=2, note=48, velocity=0, time=168),\n",
      "    Message('note_on', channel=2, note=36, velocity=0, time=0),\n",
      "    Message('note_on', channel=2, note=38, velocity=84, time=12),\n",
      "    Message('note_on', channel=2, note=50, velocity=84, time=0),\n",
      "    Message('note_on', channel=2, note=38, velocity=0, time=336),\n",
      "    Message('note_on', channel=2, note=50, velocity=0, time=0),\n",
      "    Message('note_on', channel=2, note=43, velocity=84, time=24),\n",
      "    Message('note_on', channel=2, note=55, velocity=84, time=0),\n",
      "    Message('note_on', channel=2, note=43, velocity=0, time=168),\n",
      "    Message('note_on', channel=2, note=55, velocity=0, time=0),\n",
      "    Message('note_on', channel=2, note=55, velocity=84, time=12),\n",
      "    Message('note_on', channel=2, note=62, velocity=84, time=0),\n",
      "    Message('note_on', channel=2, note=55, velocity=0, time=168),\n",
      "    Message('note_on', channel=2, note=62, velocity=0, time=0),\n",
      "    Message('note_on', channel=2, note=52, velocity=84, time=12),\n",
      "    Message('note_on', channel=2, note=60, velocity=84, time=0),\n",
      "    Message('note_on', channel=2, note=52, velocity=0, time=168),\n",
      "    Message('note_on', channel=2, note=60, velocity=0, time=0),\n",
      "    Message('note_on', channel=2, note=47, velocity=84, time=12),\n",
      "    Message('note_on', channel=2, note=55, velocity=84, time=0),\n",
      "    Message('note_on', channel=2, note=47, velocity=0, time=168),\n",
      "    Message('note_on', channel=2, note=55, velocity=0, time=0),\n",
      "    Message('note_on', channel=2, note=52, velocity=84, time=12),\n",
      "    Message('note_on', channel=2, note=59, velocity=84, time=0),\n",
      "    Message('note_on', channel=2, note=52, velocity=0, time=168),\n",
      "    Message('note_on', channel=2, note=59, velocity=0, time=0),\n",
      "    Message('note_on', channel=2, note=59, velocity=84, time=12),\n",
      "    Message('note_on', channel=2, note=64, velocity=84, time=0),\n",
      "    Message('note_on', channel=2, note=59, velocity=0, time=168),\n",
      "    Message('note_on', channel=2, note=64, velocity=0, time=0),\n",
      "    Message('note_on', channel=2, note=57, velocity=84, time=12),\n",
      "    Message('note_on', channel=2, note=64, velocity=84, time=0),\n",
      "    Message('note_on', channel=2, note=57, velocity=0, time=168),\n",
      "    Message('note_on', channel=2, note=64, velocity=0, time=0),\n",
      "    Message('note_on', channel=2, note=67, velocity=84, time=12),\n",
      "    Message('note_on', channel=2, note=59, velocity=84, time=0),\n",
      "    Message('note_on', channel=2, note=67, velocity=0, time=168),\n",
      "    Message('note_on', channel=2, note=59, velocity=0, time=0),\n",
      "    Message('note_on', channel=2, note=60, velocity=84, time=12),\n",
      "    Message('note_on', channel=2, note=64, velocity=84, time=0),\n",
      "    Message('note_on', channel=2, note=60, velocity=0, time=168),\n",
      "    Message('note_on', channel=2, note=64, velocity=0, time=0),\n",
      "    Message('note_on', channel=2, note=50, velocity=84, time=12),\n",
      "    Message('note_on', channel=2, note=57, velocity=84, time=0),\n",
      "    Message('note_on', channel=2, note=50, velocity=0, time=336),\n",
      "    Message('note_on', channel=2, note=57, velocity=0, time=0),\n",
      "    Message('note_on', channel=2, note=54, velocity=84, time=24),\n",
      "    Message('note_on', channel=2, note=54, velocity=0, time=168),\n",
      "    Message('note_on', channel=2, note=43, velocity=84, time=12),\n",
      "    Message('note_on', channel=2, note=55, velocity=84, time=0),\n",
      "    Message('note_on', channel=2, note=43, velocity=0, time=168),\n",
      "    Message('note_on', channel=2, note=55, velocity=0, time=0),\n",
      "    Message('note_on', channel=2, note=62, velocity=84, time=12),\n",
      "    Message('note_on', channel=2, note=55, velocity=84, time=0),\n",
      "    Message('note_on', channel=2, note=62, velocity=0, time=168),\n",
      "    Message('note_on', channel=2, note=55, velocity=0, time=0),\n",
      "    Message('note_on', channel=2, note=52, velocity=84, time=12),\n",
      "    Message('note_on', channel=2, note=60, velocity=84, time=0),\n",
      "    Message('note_on', channel=2, note=52, velocity=0, time=168),\n",
      "    Message('note_on', channel=2, note=60, velocity=0, time=0),\n",
      "    Message('note_on', channel=2, note=47, velocity=84, time=12),\n",
      "    Message('note_on', channel=2, note=55, velocity=84, time=0),\n",
      "    Message('note_on', channel=2, note=47, velocity=0, time=168),\n",
      "    Message('note_on', channel=2, note=55, velocity=0, time=0),\n",
      "    Message('note_on', channel=2, note=59, velocity=84, time=12),\n",
      "    Message('note_on', channel=2, note=52, velocity=84, time=0),\n",
      "    Message('note_on', channel=2, note=59, velocity=0, time=168),\n",
      "    Message('note_on', channel=2, note=52, velocity=0, time=0),\n",
      "    Message('note_on', channel=2, note=59, velocity=84, time=12),\n",
      "    Message('note_on', channel=2, note=64, velocity=84, time=0),\n",
      "    Message('note_on', channel=2, note=59, velocity=0, time=168),\n",
      "    Message('note_on', channel=2, note=64, velocity=0, time=0),\n",
      "    Message('note_on', channel=2, note=48, velocity=84, time=12),\n",
      "    Message('note_on', channel=2, note=57, velocity=84, time=0),\n",
      "    Message('note_on', channel=2, note=48, velocity=0, time=336),\n",
      "    Message('note_on', channel=2, note=57, velocity=0, time=0),\n",
      "    Message('note_on', channel=2, note=52, velocity=84, time=24),\n",
      "    Message('note_on', channel=2, note=57, velocity=84, time=0),\n",
      "    Message('note_on', channel=2, note=60, velocity=84, time=0),\n",
      "    Message('note_on', channel=2, note=52, velocity=0, time=168),\n",
      "    Message('note_on', channel=2, note=57, velocity=0, time=0),\n",
      "    Message('note_on', channel=2, note=60, velocity=0, time=0),\n",
      "    Message('note_on', channel=2, note=43, velocity=84, time=12),\n",
      "    Message('note_on', channel=2, note=55, velocity=84, time=0),\n",
      "    Message('note_on', channel=2, note=43, velocity=0, time=168),\n",
      "    Message('note_on', channel=2, note=55, velocity=0, time=0),\n",
      "    Message('note_on', channel=2, note=54, velocity=84, time=12),\n",
      "    Message('note_on', channel=2, note=42, velocity=84, time=0),\n",
      "    Message('note_on', channel=2, note=54, velocity=0, time=168),\n",
      "    Message('note_on', channel=2, note=42, velocity=0, time=0),\n",
      "    Message('note_on', channel=2, note=52, velocity=84, time=12),\n",
      "    Message('note_on', channel=2, note=40, velocity=84, time=0),\n",
      "    Message('note_on', channel=2, note=52, velocity=0, time=168),\n",
      "    Message('note_on', channel=2, note=40, velocity=0, time=0),\n",
      "    Message('note_on', channel=2, note=42, velocity=84, time=12),\n",
      "    Message('note_on', channel=2, note=54, velocity=84, time=0),\n",
      "    Message('note_on', channel=2, note=42, velocity=0, time=168),\n",
      "    Message('note_on', channel=2, note=54, velocity=0, time=0),\n",
      "    Message('note_on', channel=2, note=40, velocity=84, time=12),\n",
      "    Message('note_on', channel=2, note=52, velocity=84, time=0),\n",
      "    Message('note_on', channel=2, note=40, velocity=0, time=168),\n",
      "    Message('note_on', channel=2, note=52, velocity=0, time=0),\n",
      "    Message('note_on', channel=2, note=38, velocity=84, time=12),\n",
      "    Message('note_on', channel=2, note=50, velocity=84, time=0),\n",
      "    Message('note_on', channel=2, note=38, velocity=0, time=168),\n",
      "    Message('note_on', channel=2, note=50, velocity=0, time=0),\n",
      "    Message('note_on', channel=2, note=40, velocity=84, time=12),\n",
      "    Message('note_on', channel=2, note=52, velocity=84, time=0),\n",
      "    Message('note_on', channel=2, note=40, velocity=0, time=168),\n",
      "    Message('note_on', channel=2, note=52, velocity=0, time=0),\n",
      "    Message('note_on', channel=2, note=42, velocity=84, time=12),\n",
      "    Message('note_on', channel=2, note=54, velocity=84, time=0),\n",
      "    Message('note_on', channel=2, note=42, velocity=0, time=168),\n",
      "    Message('note_on', channel=2, note=54, velocity=0, time=0),\n",
      "    Message('note_on', channel=2, note=43, velocity=84, time=12),\n",
      "    Message('note_on', channel=2, note=55, velocity=84, time=0),\n",
      "    Message('note_on', channel=2, note=43, velocity=0, time=168),\n",
      "    Message('note_on', channel=2, note=55, velocity=0, time=0),\n",
      "    Message('note_on', channel=2, note=50, velocity=84, time=12),\n",
      "    Message('note_on', channel=2, note=38, velocity=84, time=0),\n",
      "    Message('note_on', channel=2, note=50, velocity=0, time=528),\n",
      "    Message('note_on', channel=2, note=38, velocity=0, time=0),\n",
      "    Message('note_on', channel=2, note=50, velocity=84, time=12),\n",
      "    Message('note_on', channel=2, note=54, velocity=84, time=0),\n",
      "    Message('note_on', channel=2, note=50, velocity=0, time=528),\n",
      "    Message('note_on', channel=2, note=54, velocity=0, time=0),\n",
      "    Message('note_on', channel=2, note=43, velocity=84, time=12),\n",
      "    Message('note_on', channel=2, note=55, velocity=84, time=0),\n",
      "    Message('note_on', channel=2, note=43, velocity=0, time=168),\n",
      "    Message('note_on', channel=2, note=55, velocity=0, time=0),\n",
      "    Message('note_on', channel=2, note=42, velocity=84, time=12),\n",
      "    Message('note_on', channel=2, note=54, velocity=84, time=0),\n",
      "    Message('note_on', channel=2, note=42, velocity=0, time=168),\n",
      "    Message('note_on', channel=2, note=54, velocity=0, time=0),\n",
      "    Message('note_on', channel=2, note=40, velocity=84, time=12),\n",
      "    Message('note_on', channel=2, note=52, velocity=84, time=0),\n",
      "    Message('note_on', channel=2, note=40, velocity=0, time=168),\n",
      "    Message('note_on', channel=2, note=52, velocity=0, time=0),\n",
      "    Message('note_on', channel=2, note=47, velocity=84, time=12),\n",
      "    Message('note_on', channel=2, note=59, velocity=84, time=0),\n",
      "    Message('note_on', channel=2, note=47, velocity=0, time=168),\n",
      "    Message('note_on', channel=2, note=59, velocity=0, time=0),\n",
      "    Message('note_on', channel=2, note=47, velocity=84, time=12),\n",
      "    Message('note_on', channel=2, note=35, velocity=84, time=0),\n",
      "    Message('note_on', channel=2, note=47, velocity=0, time=168),\n",
      "    Message('note_on', channel=2, note=35, velocity=0, time=0),\n",
      "    Message('note_on', channel=2, note=52, velocity=84, time=12),\n",
      "    Message('note_on', channel=2, note=40, velocity=84, time=0),\n",
      "    Message('note_on', channel=2, note=52, velocity=0, time=168),\n",
      "    Message('note_on', channel=2, note=40, velocity=0, time=0),\n",
      "    Message('note_on', channel=2, note=48, velocity=84, time=12),\n",
      "    Message('note_on', channel=2, note=36, velocity=84, time=0),\n",
      "    Message('note_on', channel=2, note=48, velocity=0, time=168),\n",
      "    Message('note_on', channel=2, note=36, velocity=0, time=0),\n",
      "    Message('note_on', channel=2, note=50, velocity=84, time=12),\n",
      "    Message('note_on', channel=2, note=38, velocity=84, time=0),\n",
      "    Message('note_on', channel=2, note=50, velocity=0, time=336),\n",
      "    Message('note_on', channel=2, note=38, velocity=0, time=0),\n",
      "    Message('note_on', channel=2, note=43, velocity=84, time=24),\n",
      "    Message('note_on', channel=2, note=55, velocity=84, time=0),\n",
      "    Message('note_on', channel=2, note=43, velocity=0, time=168),\n",
      "    Message('note_on', channel=2, note=55, velocity=0, time=0),\n",
      "    Message('note_on', channel=2, note=55, velocity=84, time=12),\n",
      "    Message('note_on', channel=2, note=62, velocity=84, time=0),\n",
      "    Message('note_on', channel=2, note=55, velocity=0, time=168),\n",
      "    Message('note_on', channel=2, note=62, velocity=0, time=0),\n",
      "    Message('note_on', channel=2, note=60, velocity=84, time=12),\n",
      "    Message('note_on', channel=2, note=52, velocity=84, time=0),\n",
      "    Message('note_on', channel=2, note=60, velocity=0, time=168),\n",
      "    Message('note_on', channel=2, note=52, velocity=0, time=0),\n",
      "    Message('note_on', channel=2, note=55, velocity=84, time=12),\n",
      "    Message('note_on', channel=2, note=47, velocity=84, time=0),\n",
      "    Message('note_on', channel=2, note=55, velocity=0, time=168),\n",
      "    Message('note_on', channel=2, note=47, velocity=0, time=0),\n",
      "    Message('note_on', channel=2, note=52, velocity=84, time=12),\n",
      "    Message('note_on', channel=2, note=59, velocity=84, time=0),\n",
      "    Message('note_on', channel=2, note=52, velocity=0, time=168),\n",
      "    Message('note_on', channel=2, note=59, velocity=0, time=0),\n",
      "    Message('note_on', channel=2, note=59, velocity=84, time=12),\n",
      "    Message('note_on', channel=2, note=64, velocity=84, time=0),\n",
      "    Message('note_on', channel=2, note=59, velocity=0, time=168),\n",
      "    Message('note_on', channel=2, note=64, velocity=0, time=0),\n",
      "    Message('note_on', channel=2, note=57, velocity=84, time=12),\n",
      "    Message('note_on', channel=2, note=64, velocity=84, time=0),\n",
      "    Message('note_on', channel=2, note=57, velocity=0, time=168),\n",
      "    Message('note_on', channel=2, note=64, velocity=0, time=0),\n",
      "    Message('note_on', channel=2, note=59, velocity=84, time=12),\n",
      "    Message('note_on', channel=2, note=67, velocity=84, time=0),\n",
      "    Message('note_on', channel=2, note=59, velocity=0, time=168),\n",
      "    Message('note_on', channel=2, note=67, velocity=0, time=0),\n",
      "    Message('note_on', channel=2, note=67, velocity=84, time=12),\n",
      "    Message('note_on', channel=2, note=60, velocity=84, time=0),\n",
      "    Message('note_on', channel=2, note=67, velocity=0, time=168),\n",
      "    Message('note_on', channel=2, note=60, velocity=0, time=0),\n",
      "    Message('note_on', channel=2, note=57, velocity=84, time=12),\n",
      "    Message('note_on', channel=2, note=50, velocity=84, time=0),\n",
      "    Message('note_on', channel=2, note=57, velocity=0, time=336),\n",
      "    Message('note_on', channel=2, note=50, velocity=0, time=0),\n",
      "    Message('note_on', channel=2, note=54, velocity=84, time=24),\n",
      "    Message('note_on', channel=2, note=54, velocity=0, time=168),\n",
      "    Message('note_on', channel=2, note=43, velocity=84, time=12),\n",
      "    Message('note_on', channel=2, note=55, velocity=84, time=0),\n",
      "    Message('note_on', channel=2, note=43, velocity=0, time=168),\n",
      "    Message('note_on', channel=2, note=55, velocity=0, time=0),\n",
      "    Message('note_on', channel=2, note=55, velocity=84, time=12),\n",
      "    Message('note_on', channel=2, note=62, velocity=84, time=0),\n",
      "    Message('note_on', channel=2, note=55, velocity=0, time=168),\n",
      "    Message('note_on', channel=2, note=62, velocity=0, time=0),\n",
      "    Message('note_on', channel=2, note=60, velocity=84, time=12),\n",
      "    Message('note_on', channel=2, note=52, velocity=84, time=0),\n",
      "    Message('note_on', channel=2, note=60, velocity=0, time=168),\n",
      "    Message('note_on', channel=2, note=52, velocity=0, time=0),\n",
      "    Message('note_on', channel=2, note=55, velocity=84, time=12),\n",
      "    Message('note_on', channel=2, note=47, velocity=84, time=0),\n",
      "    Message('note_on', channel=2, note=55, velocity=0, time=168),\n",
      "    Message('note_on', channel=2, note=47, velocity=0, time=0),\n",
      "    Message('note_on', channel=2, note=52, velocity=84, time=12),\n",
      "    Message('note_on', channel=2, note=59, velocity=84, time=0),\n",
      "    Message('note_on', channel=2, note=52, velocity=0, time=168),\n",
      "    Message('note_on', channel=2, note=59, velocity=0, time=0),\n",
      "    Message('note_on', channel=2, note=64, velocity=84, time=12),\n",
      "    Message('note_on', channel=2, note=59, velocity=84, time=0),\n",
      "    Message('note_on', channel=2, note=64, velocity=0, time=168),\n",
      "    Message('note_on', channel=2, note=59, velocity=0, time=0),\n",
      "    Message('note_on', channel=2, note=48, velocity=84, time=12),\n",
      "    Message('note_on', channel=2, note=57, velocity=84, time=0),\n",
      "    Message('note_on', channel=2, note=48, velocity=0, time=336),\n",
      "    Message('note_on', channel=2, note=57, velocity=0, time=0),\n",
      "    Message('note_on', channel=2, note=50, velocity=84, time=24),\n",
      "    Message('note_on', channel=2, note=57, velocity=84, time=0),\n",
      "    Message('note_on', channel=2, note=60, velocity=84, time=0),\n",
      "    Message('note_on', channel=2, note=50, velocity=0, time=168),\n",
      "    Message('note_on', channel=2, note=57, velocity=0, time=0),\n",
      "    Message('note_on', channel=2, note=60, velocity=0, time=0),\n",
      "    Message('note_on', channel=2, note=59, velocity=84, time=12),\n",
      "    Message('note_on', channel=2, note=55, velocity=84, time=0),\n",
      "    Message('note_on', channel=2, note=62, velocity=84, time=0),\n",
      "    Message('note_on', channel=2, note=59, velocity=0, time=336),\n",
      "    Message('note_on', channel=2, note=55, velocity=0, time=0),\n",
      "    Message('note_on', channel=2, note=62, velocity=0, time=0),\n",
      "    Message('note_on', channel=2, note=55, velocity=84, time=24),\n",
      "    Message('note_on', channel=2, note=55, velocity=0, time=48),\n",
      "    Message('note_on', channel=2, note=59, velocity=84, time=12),\n",
      "    Message('note_on', channel=2, note=59, velocity=0, time=48),\n",
      "    Message('note_on', channel=2, note=61, velocity=84, time=12),\n",
      "    Message('note_on', channel=2, note=61, velocity=0, time=48),\n",
      "    Message('note_on', channel=2, note=62, velocity=84, time=12),\n",
      "    Message('note_on', channel=2, note=62, velocity=0, time=168),\n",
      "    Message('note_on', channel=2, note=60, velocity=84, time=12),\n",
      "    Message('note_on', channel=2, note=60, velocity=0, time=168),\n",
      "    Message('note_on', channel=2, note=59, velocity=84, time=12),\n",
      "    Message('note_on', channel=2, note=59, velocity=0, time=168),\n",
      "    Message('note_on', channel=2, note=57, velocity=84, time=12),\n",
      "    Message('note_on', channel=2, note=57, velocity=0, time=168),\n",
      "    Message('note_on', channel=2, note=57, velocity=84, time=12),\n",
      "    Message('note_on', channel=2, note=57, velocity=0, time=64),\n",
      "    Message('note_on', channel=2, note=55, velocity=84, time=16),\n",
      "    Message('note_on', channel=2, note=55, velocity=0, time=64),\n",
      "    Message('note_on', channel=2, note=53, velocity=84, time=16),\n",
      "    Message('note_on', channel=2, note=53, velocity=0, time=64),\n",
      "    Message('note_on', channel=2, note=52, velocity=84, time=16),\n",
      "    Message('note_on', channel=2, note=52, velocity=0, time=64),\n",
      "    Message('note_on', channel=2, note=53, velocity=84, time=76),\n",
      "    Message('note_on', channel=2, note=53, velocity=0, time=168),\n",
      "    Message('note_on', channel=2, note=47, velocity=84, time=12),\n",
      "    Message('note_on', channel=2, note=47, velocity=0, time=168),\n",
      "    Message('note_on', channel=2, note=50, velocity=84, time=12),\n",
      "    Message('note_on', channel=2, note=62, velocity=84, time=0),\n",
      "    Message('note_on', channel=2, note=50, velocity=0, time=168),\n",
      "    Message('note_on', channel=2, note=62, velocity=0, time=0),\n",
      "    Message('note_on', channel=2, note=60, velocity=84, time=12),\n",
      "    Message('note_on', channel=2, note=57, velocity=84, time=0),\n",
      "    Message('note_on', channel=2, note=60, velocity=0, time=168),\n",
      "    Message('note_on', channel=2, note=57, velocity=0, time=0),\n",
      "    Message('note_on', channel=2, note=60, velocity=84, time=12),\n",
      "    Message('note_on', channel=2, note=64, velocity=84, time=0),\n",
      "    Message('note_on', channel=2, note=57, velocity=84, time=0),\n",
      "    Message('note_on', channel=2, note=60, velocity=0, time=168),\n",
      "    Message('note_on', channel=2, note=64, velocity=0, time=0),\n",
      "    Message('note_on', channel=2, note=57, velocity=0, time=0),\n",
      "    Message('note_on', channel=2, note=62, velocity=84, time=12),\n",
      "    Message('note_on', channel=2, note=53, velocity=84, time=0),\n",
      "    Message('note_on', channel=2, note=62, velocity=0, time=168),\n",
      "    Message('note_on', channel=2, note=53, velocity=0, time=0),\n",
      "    Message('note_on', channel=2, note=57, velocity=84, time=12),\n",
      "    Message('note_on', channel=2, note=48, velocity=84, time=0),\n",
      "    Message('note_on', channel=2, note=57, velocity=0, time=168),\n",
      "    Message('note_on', channel=2, note=48, velocity=0, time=0),\n",
      "    Message('note_on', channel=2, note=60, velocity=84, time=12),\n",
      "    Message('note_on', channel=2, note=53, velocity=84, time=0),\n",
      "    Message('note_on', channel=2, note=60, velocity=0, time=168),\n",
      "    Message('note_on', channel=2, note=53, velocity=0, time=0),\n",
      "    Message('note_on', channel=2, note=60, velocity=84, time=12),\n",
      "    Message('note_on', channel=2, note=52, velocity=84, time=0),\n",
      "    Message('note_on', channel=2, note=60, velocity=0, time=168),\n",
      "    Message('note_on', channel=2, note=52, velocity=0, time=0),\n",
      "    Message('note_on', channel=2, note=50, velocity=84, time=12),\n",
      "    Message('note_on', channel=2, note=50, velocity=0, time=168),\n",
      "    Message('note_on', channel=2, note=51, velocity=84, time=12),\n",
      "    Message('note_on', channel=2, note=51, velocity=0, time=168),\n",
      "    Message('note_on', channel=2, note=52, velocity=84, time=12),\n",
      "    Message('note_on', channel=2, note=52, velocity=0, time=168),\n",
      "    Message('note_on', channel=2, note=45, velocity=84, time=12),\n",
      "    Message('note_on', channel=2, note=45, velocity=0, time=168),\n",
      "    Message('note_on', channel=2, note=57, velocity=84, time=12),\n",
      "    Message('note_on', channel=2, note=57, velocity=0, time=168),\n",
      "    Message('note_on', channel=2, note=59, velocity=84, time=12),\n",
      "    Message('note_on', channel=2, note=47, velocity=84, time=0),\n",
      "    Message('note_on', channel=2, note=59, velocity=0, time=168),\n",
      "    Message('note_on', channel=2, note=47, velocity=0, time=0),\n",
      "    Message('note_on', channel=2, note=60, velocity=84, time=12),\n",
      "    Message('note_on', channel=2, note=48, velocity=84, time=0),\n",
      "    Message('note_on', channel=2, note=60, velocity=0, time=336),\n",
      "    Message('note_on', channel=2, note=48, velocity=0, time=0),\n",
      "    Message('note_on', channel=2, note=60, velocity=84, time=24),\n",
      "    Message('note_on', channel=2, note=52, velocity=84, time=0),\n",
      "    Message('note_on', channel=2, note=60, velocity=0, time=168),\n",
      "    Message('note_on', channel=2, note=52, velocity=0, time=0),\n",
      "    Message('note_on', channel=2, note=53, velocity=84, time=12),\n",
      "    Message('note_on', channel=2, note=53, velocity=0, time=168),\n",
      "    Message('note_on', channel=2, note=50, velocity=84, time=12),\n",
      "    Message('note_on', channel=2, note=50, velocity=0, time=168),\n",
      "    Message('note_on', channel=2, note=55, velocity=84, time=12),\n",
      "    Message('note_on', channel=2, note=43, velocity=84, time=0),\n",
      "    Message('note_on', channel=2, note=55, velocity=0, time=168),\n",
      "    Message('note_on', channel=2, note=43, velocity=0, time=0),\n",
      "    Message('note_on', channel=2, note=48, velocity=84, time=12),\n",
      "    Message('note_on', channel=2, note=55, velocity=84, time=0),\n",
      "    Message('note_on', channel=2, note=48, velocity=0, time=168),\n",
      "    Message('note_on', channel=2, note=55, velocity=0, time=0),\n",
      "    Message('note_on', channel=2, note=52, velocity=84, time=12),\n",
      "    Message('note_on', channel=2, note=52, velocity=0, time=168),\n",
      "    Message('note_on', channel=2, note=60, velocity=84, time=12),\n",
      "    Message('note_on', channel=2, note=60, velocity=0, time=168),\n",
      "    Message('note_on', channel=2, note=60, velocity=84, time=12),\n",
      "    Message('note_on', channel=2, note=53, velocity=84, time=0),\n",
      "    Message('note_on', channel=2, note=60, velocity=0, time=336),\n",
      "    Message('note_on', channel=2, note=53, velocity=0, time=0),\n",
      "    Message('note_on', channel=2, note=55, velocity=84, time=24),\n",
      "    Message('note_on', channel=2, note=47, velocity=84, time=0),\n",
      "    Message('note_on', channel=2, note=55, velocity=0, time=168),\n",
      "    Message('note_on', channel=2, note=47, velocity=0, time=0),\n",
      "    Message('note_on', channel=2, note=55, velocity=84, time=12),\n",
      "    Message('note_on', channel=2, note=48, velocity=84, time=0),\n",
      "    Message('note_on', channel=2, note=55, velocity=0, time=336),\n",
      "    Message('note_on', channel=2, note=48, velocity=0, time=0),\n",
      "    Message('note_on', channel=2, note=59, velocity=84, time=24),\n",
      "    Message('note_on', channel=2, note=59, velocity=0, time=168),\n",
      "    Message('note_on', channel=2, note=62, velocity=84, time=12),\n",
      "    Message('note_on', channel=2, note=55, velocity=84, time=0),\n",
      "    Message('note_on', channel=2, note=62, velocity=0, time=168),\n",
      "    Message('note_on', channel=2, note=55, velocity=0, time=0),\n",
      "    Message('note_on', channel=2, note=43, velocity=84, time=12),\n",
      "    Message('note_on', channel=2, note=43, velocity=0, time=168),\n",
      "    Message('note_on', channel=2, note=52, velocity=84, time=12),\n",
      "    Message('note_on', channel=2, note=40, velocity=84, time=0),\n",
      "    Message('note_on', channel=2, note=52, velocity=0, time=168),\n",
      "    Message('note_on', channel=2, note=40, velocity=0, time=0),\n",
      "    Message('note_on', channel=2, note=47, velocity=84, time=12),\n",
      "    Message('note_on', channel=2, note=59, velocity=84, time=0),\n",
      "    Message('note_on', channel=2, note=47, velocity=0, time=168),\n",
      "    Message('note_on', channel=2, note=59, velocity=0, time=0),\n",
      "    Message('note_on', channel=2, note=40, velocity=84, time=12),\n",
      "    Message('note_on', channel=2, note=52, velocity=84, time=0),\n",
      "    Message('note_on', channel=2, note=40, velocity=0, time=168),\n",
      "    Message('note_on', channel=2, note=52, velocity=0, time=0),\n",
      "    Message('note_on', channel=2, note=52, velocity=84, time=12),\n",
      "    Message('note_on', channel=2, note=59, velocity=84, time=0),\n",
      "    Message('note_on', channel=2, note=52, velocity=0, time=168),\n",
      "    Message('note_on', channel=2, note=59, velocity=0, time=0),\n",
      "    Message('note_on', channel=2, note=42, velocity=84, time=12),\n",
      "    Message('note_on', channel=2, note=54, velocity=84, time=0),\n",
      "    Message('note_on', channel=2, note=42, velocity=0, time=168),\n",
      "    Message('note_on', channel=2, note=54, velocity=0, time=0),\n",
      "    Message('note_on', channel=2, note=55, velocity=84, time=12),\n",
      "    Message('note_on', channel=2, note=47, velocity=84, time=0),\n",
      "    Message('note_on', channel=2, note=55, velocity=0, time=168),\n",
      "    Message('note_on', channel=2, note=47, velocity=0, time=0),\n",
      "    Message('note_on', channel=2, note=48, velocity=84, time=12),\n",
      "    Message('note_on', channel=2, note=48, velocity=0, time=168),\n",
      "    Message('note_on', channel=2, note=50, velocity=84, time=12),\n",
      "    Message('note_on', channel=2, note=38, velocity=84, time=0),\n",
      "    Message('note_on', channel=2, note=50, velocity=0, time=528),\n",
      "    Message('note_on', channel=2, note=38, velocity=0, time=0),\n",
      "    Message('note_on', channel=2, note=54, velocity=84, time=12),\n",
      "    Message('note_on', channel=2, note=50, velocity=84, time=0),\n",
      "    Message('note_on', channel=2, note=54, velocity=0, time=528),\n",
      "    Message('note_on', channel=2, note=50, velocity=0, time=0),\n",
      "    Message('note_on', channel=2, note=43, velocity=84, time=12),\n",
      "    Message('note_on', channel=2, note=55, velocity=84, time=0),\n",
      "    Message('note_on', channel=2, note=43, velocity=0, time=168),\n",
      "    Message('note_on', channel=2, note=55, velocity=0, time=0),\n",
      "    Message('note_on', channel=2, note=42, velocity=84, time=12),\n",
      "    Message('note_on', channel=2, note=54, velocity=84, time=0),\n",
      "    Message('note_on', channel=2, note=42, velocity=0, time=168),\n",
      "    Message('note_on', channel=2, note=54, velocity=0, time=0),\n",
      "    Message('note_on', channel=2, note=40, velocity=84, time=12),\n",
      "    Message('note_on', channel=2, note=52, velocity=84, time=0),\n",
      "    Message('note_on', channel=2, note=40, velocity=0, time=168),\n",
      "    Message('note_on', channel=2, note=52, velocity=0, time=0),\n",
      "    Message('note_on', channel=2, note=55, velocity=84, time=12),\n",
      "    Message('note_on', channel=2, note=47, velocity=84, time=0),\n",
      "    Message('note_on', channel=2, note=55, velocity=0, time=168),\n",
      "    Message('note_on', channel=2, note=47, velocity=0, time=0),\n",
      "    Message('note_on', channel=2, note=47, velocity=84, time=12),\n",
      "    Message('note_on', channel=2, note=35, velocity=84, time=0),\n",
      "    Message('note_on', channel=2, note=47, velocity=0, time=168),\n",
      "    Message('note_on', channel=2, note=35, velocity=0, time=0),\n",
      "    Message('note_on', channel=2, note=52, velocity=84, time=12),\n",
      "    Message('note_on', channel=2, note=52, velocity=0, time=168),\n",
      "    Message('note_on', channel=2, note=48, velocity=84, time=12),\n",
      "    Message('note_on', channel=2, note=36, velocity=84, time=0),\n",
      "    Message('note_on', channel=2, note=48, velocity=0, time=168),\n",
      "    Message('note_on', channel=2, note=36, velocity=0, time=0),\n",
      "    Message('note_on', channel=2, note=38, velocity=84, time=12),\n",
      "    Message('note_on', channel=2, note=50, velocity=84, time=0),\n",
      "    Message('note_on', channel=2, note=38, velocity=0, time=336),\n",
      "    Message('note_on', channel=2, note=50, velocity=0, time=0),\n",
      "    Message('note_on', channel=2, note=55, velocity=84, time=24),\n",
      "    Message('note_on', channel=2, note=43, velocity=84, time=0),\n",
      "    Message('note_on', channel=2, note=55, velocity=0, time=168),\n",
      "    Message('note_on', channel=2, note=43, velocity=0, time=0),\n",
      "    Message('note_on', channel=2, note=59, velocity=84, time=12),\n",
      "    Message('note_on', channel=2, note=59, velocity=0, time=168),\n",
      "    Message('note_on', channel=2, note=50, velocity=84, time=12),\n",
      "    Message('note_on', channel=2, note=50, velocity=0, time=168),\n",
      "    Message('note_on', channel=2, note=55, velocity=84, time=12),\n",
      "    Message('note_on', channel=2, note=59, velocity=84, time=0),\n",
      "    Message('note_on', channel=2, note=55, velocity=0, time=336),\n",
      "    Message('note_on', channel=2, note=59, velocity=0, time=0),\n",
      "    Message('note_on', channel=2, note=60, velocity=84, time=24),\n",
      "    Message('note_on', channel=2, note=55, velocity=84, time=0),\n",
      "    Message('note_on', channel=2, note=60, velocity=0, time=168),\n",
      "    Message('note_on', channel=2, note=55, velocity=0, time=0),\n",
      "    Message('note_on', channel=2, note=57, velocity=84, time=12),\n",
      "    Message('note_on', channel=2, note=55, velocity=84, time=0),\n",
      "    Message('note_on', channel=2, note=57, velocity=0, time=168),\n",
      "    Message('note_on', channel=2, note=55, velocity=0, time=0),\n",
      "    Message('note_on', channel=2, note=59, velocity=84, time=12),\n",
      "    Message('note_on', channel=2, note=59, velocity=0, time=168),\n",
      "    Message('note_on', channel=2, note=62, velocity=84, time=12),\n",
      "    Message('note_on', channel=2, note=62, velocity=0, time=168),\n",
      "    Message('note_on', channel=2, note=43, velocity=84, time=12),\n",
      "    Message('note_on', channel=2, note=43, velocity=0, time=336),\n",
      "    Message('note_on', channel=2, note=43, velocity=84, time=24),\n",
      "    Message('note_on', channel=2, note=54, velocity=84, time=0),\n",
      "    Message('note_on', channel=2, note=43, velocity=0, time=168),\n",
      "    Message('note_on', channel=2, note=54, velocity=0, time=0),\n",
      "    Message('note_on', channel=2, note=55, velocity=84, time=12),\n",
      "    Message('note_on', channel=2, note=43, velocity=84, time=0),\n",
      "    Message('note_on', channel=2, note=55, velocity=0, time=168),\n",
      "    Message('note_on', channel=2, note=43, velocity=0, time=0),\n",
      "    Message('note_on', channel=2, note=62, velocity=84, time=12),\n",
      "    Message('note_on', channel=2, note=55, velocity=84, time=0),\n",
      "    Message('note_on', channel=2, note=62, velocity=0, time=168),\n",
      "    Message('note_on', channel=2, note=55, velocity=0, time=0),\n",
      "    Message('note_on', channel=2, note=60, velocity=84, time=12),\n",
      "    Message('note_on', channel=2, note=52, velocity=84, time=0),\n",
      "    Message('note_on', channel=2, note=60, velocity=0, time=168),\n",
      "    Message('note_on', channel=2, note=52, velocity=0, time=0),\n",
      "    Message('note_on', channel=2, note=47, velocity=84, time=12),\n",
      "    Message('note_on', channel=2, note=55, velocity=84, time=0),\n",
      "    Message('note_on', channel=2, note=47, velocity=0, time=168),\n",
      "    Message('note_on', channel=2, note=55, velocity=0, time=0),\n",
      "    Message('note_on', channel=2, note=52, velocity=84, time=12),\n",
      "    Message('note_on', channel=2, note=59, velocity=84, time=0),\n",
      "    Message('note_on', channel=2, note=52, velocity=0, time=168),\n",
      "    Message('note_on', channel=2, note=59, velocity=0, time=0),\n",
      "    Message('note_on', channel=2, note=64, velocity=84, time=12),\n",
      "    Message('note_on', channel=2, note=59, velocity=84, time=0),\n",
      "    Message('note_on', channel=2, note=64, velocity=0, time=168),\n",
      "    Message('note_on', channel=2, note=59, velocity=0, time=0),\n",
      "    Message('note_on', channel=2, note=64, velocity=84, time=12),\n",
      "    Message('note_on', channel=2, note=57, velocity=84, time=0),\n",
      "    Message('note_on', channel=2, note=64, velocity=0, time=168),\n",
      "    Message('note_on', channel=2, note=57, velocity=0, time=0),\n",
      "    Message('note_on', channel=2, note=59, velocity=84, time=12),\n",
      "    Message('note_on', channel=2, note=67, velocity=84, time=0),\n",
      "    Message('note_on', channel=2, note=59, velocity=0, time=168),\n",
      "    Message('note_on', channel=2, note=67, velocity=0, time=0),\n",
      "    Message('note_on', channel=2, note=60, velocity=84, time=12),\n",
      "    Message('note_on', channel=2, note=57, velocity=84, time=0),\n",
      "    Message('note_on', channel=2, note=60, velocity=0, time=168),\n",
      "    Message('note_on', channel=2, note=57, velocity=0, time=0),\n",
      "    Message('note_on', channel=2, note=57, velocity=84, time=12),\n",
      "    Message('note_on', channel=2, note=50, velocity=84, time=0),\n",
      "    Message('note_on', channel=2, note=57, velocity=0, time=336),\n",
      "    Message('note_on', channel=2, note=50, velocity=0, time=0),\n",
      "    Message('note_on', channel=2, note=54, velocity=84, time=24),\n",
      "    Message('note_on', channel=2, note=54, velocity=0, time=168),\n",
      "    Message('note_on', channel=2, note=43, velocity=84, time=12),\n",
      "    Message('note_on', channel=2, note=55, velocity=84, time=0),\n",
      "    Message('note_on', channel=2, note=43, velocity=0, time=168),\n",
      "    Message('note_on', channel=2, note=55, velocity=0, time=0),\n",
      "    Message('note_on', channel=2, note=55, velocity=84, time=12),\n",
      "    Message('note_on', channel=2, note=62, velocity=84, time=0),\n",
      "    Message('note_on', channel=2, note=55, velocity=0, time=168),\n",
      "    Message('note_on', channel=2, note=62, velocity=0, time=0),\n",
      "    Message('note_on', channel=2, note=52, velocity=84, time=12),\n",
      "    Message('note_on', channel=2, note=60, velocity=84, time=0),\n",
      "    Message('note_on', channel=2, note=52, velocity=0, time=168),\n",
      "    Message('note_on', channel=2, note=60, velocity=0, time=0),\n",
      "    Message('note_on', channel=2, note=55, velocity=84, time=12),\n",
      "    Message('note_on', channel=2, note=47, velocity=84, time=0),\n",
      "    Message('note_on', channel=2, note=55, velocity=0, time=168),\n",
      "    Message('note_on', channel=2, note=47, velocity=0, time=0),\n",
      "    Message('note_on', channel=2, note=52, velocity=84, time=12),\n",
      "    Message('note_on', channel=2, note=59, velocity=84, time=0),\n",
      "    Message('note_on', channel=2, note=52, velocity=0, time=168),\n",
      "    Message('note_on', channel=2, note=59, velocity=0, time=0),\n",
      "    Message('note_on', channel=2, note=59, velocity=84, time=12),\n",
      "    Message('note_on', channel=2, note=64, velocity=84, time=0),\n",
      "    Message('note_on', channel=2, note=59, velocity=0, time=168),\n",
      "    Message('note_on', channel=2, note=64, velocity=0, time=0),\n",
      "    Message('note_on', channel=2, note=57, velocity=84, time=12),\n",
      "    Message('note_on', channel=2, note=48, velocity=84, time=0),\n",
      "    Message('note_on', channel=2, note=57, velocity=0, time=336),\n",
      "    Message('note_on', channel=2, note=48, velocity=0, time=0),\n",
      "    Message('note_on', channel=2, note=60, velocity=84, time=24),\n",
      "    Message('note_on', channel=2, note=57, velocity=84, time=0),\n",
      "    Message('note_on', channel=2, note=50, velocity=84, time=0),\n",
      "    Message('note_on', channel=2, note=60, velocity=0, time=168),\n",
      "    Message('note_on', channel=2, note=57, velocity=0, time=0),\n",
      "    Message('note_on', channel=2, note=50, velocity=0, time=0),\n",
      "    Message('note_on', channel=2, note=43, velocity=84, time=12),\n",
      "    Message('note_on', channel=2, note=31, velocity=84, time=0),\n",
      "    Message('note_on', channel=2, note=43, velocity=84, time=520),\n",
      "    Message('note_on', channel=2, note=55, velocity=84, time=0),\n",
      "    Message('note_on', channel=2, note=43, velocity=0, time=8),\n",
      "    Message('note_on', channel=2, note=31, velocity=0, time=0),\n",
      "    Message('note_on', channel=2, note=43, velocity=0, time=160),\n",
      "    Message('note_on', channel=2, note=55, velocity=0, time=0),\n",
      "    Message('note_on', channel=2, note=50, velocity=84, time=12),\n",
      "    Message('note_on', channel=2, note=55, velocity=84, time=0),\n",
      "    Message('note_on', channel=2, note=50, velocity=0, time=168),\n",
      "    Message('note_on', channel=2, note=55, velocity=0, time=0),\n",
      "    Message('note_on', channel=2, note=52, velocity=84, time=12),\n",
      "    Message('note_on', channel=2, note=60, velocity=84, time=0),\n",
      "    Message('note_on', channel=2, note=52, velocity=0, time=168),\n",
      "    Message('note_on', channel=2, note=60, velocity=0, time=0),\n",
      "    Message('note_on', channel=2, note=47, velocity=84, time=12),\n",
      "    Message('note_on', channel=2, note=55, velocity=84, time=0),\n",
      "    Message('note_on', channel=2, note=47, velocity=0, time=168),\n",
      "    Message('note_on', channel=2, note=55, velocity=0, time=0),\n",
      "    Message('note_on', channel=2, note=52, velocity=84, time=12),\n",
      "    Message('note_on', channel=2, note=59, velocity=84, time=0),\n",
      "    Message('note_on', channel=2, note=52, velocity=0, time=168),\n",
      "    Message('note_on', channel=2, note=59, velocity=0, time=0),\n",
      "    Message('note_on', channel=2, note=59, velocity=84, time=12),\n",
      "    Message('note_on', channel=2, note=64, velocity=84, time=0),\n",
      "    Message('note_on', channel=2, note=59, velocity=0, time=168),\n",
      "    Message('note_on', channel=2, note=64, velocity=0, time=0),\n",
      "    Message('note_on', channel=2, note=64, velocity=84, time=12),\n",
      "    Message('note_on', channel=2, note=57, velocity=84, time=0),\n",
      "    Message('note_on', channel=2, note=64, velocity=0, time=168),\n",
      "    Message('note_on', channel=2, note=57, velocity=0, time=0),\n",
      "    Message('note_on', channel=2, note=67, velocity=84, time=12),\n",
      "    Message('note_on', channel=2, note=59, velocity=84, time=0),\n",
      "    Message('note_on', channel=2, note=67, velocity=0, time=168),\n",
      "    Message('note_on', channel=2, note=59, velocity=0, time=0),\n",
      "    Message('note_on', channel=2, note=67, velocity=84, time=12),\n",
      "    Message('note_on', channel=2, note=60, velocity=84, time=0),\n",
      "    Message('note_on', channel=2, note=67, velocity=0, time=168),\n",
      "    Message('note_on', channel=2, note=60, velocity=0, time=0),\n",
      "    Message('note_on', channel=2, note=52, velocity=84, time=12),\n",
      "    Message('note_on', channel=2, note=57, velocity=84, time=0),\n",
      "    Message('note_on', channel=2, note=52, velocity=0, time=336),\n",
      "    Message('note_on', channel=2, note=57, velocity=0, time=0),\n",
      "    Message('note_on', channel=2, note=54, velocity=84, time=24),\n",
      "    Message('note_on', channel=2, note=54, velocity=0, time=168),\n",
      "    Message('note_on', channel=2, note=43, velocity=84, time=12),\n",
      "    Message('note_on', channel=2, note=55, velocity=84, time=0),\n",
      "    Message('note_on', channel=2, note=43, velocity=0, time=168),\n",
      "    Message('note_on', channel=2, note=55, velocity=0, time=0),\n",
      "    Message('note_on', channel=2, note=55, velocity=84, time=12),\n",
      "    Message('note_on', channel=2, note=62, velocity=84, time=0),\n",
      "    Message('note_on', channel=2, note=55, velocity=0, time=168),\n",
      "    Message('note_on', channel=2, note=62, velocity=0, time=0),\n",
      "    Message('note_on', channel=2, note=60, velocity=84, time=12),\n",
      "    Message('note_on', channel=2, note=52, velocity=84, time=0),\n",
      "    Message('note_on', channel=2, note=60, velocity=0, time=168),\n",
      "    Message('note_on', channel=2, note=52, velocity=0, time=0),\n",
      "    Message('note_on', channel=2, note=47, velocity=84, time=12),\n",
      "    Message('note_on', channel=2, note=55, velocity=84, time=0),\n",
      "    Message('note_on', channel=2, note=47, velocity=0, time=168),\n",
      "    Message('note_on', channel=2, note=55, velocity=0, time=0),\n",
      "    Message('note_on', channel=2, note=52, velocity=84, time=12),\n",
      "    Message('note_on', channel=2, note=59, velocity=84, time=0),\n",
      "    Message('note_on', channel=2, note=52, velocity=0, time=168),\n",
      "    Message('note_on', channel=2, note=59, velocity=0, time=0),\n",
      "    Message('note_on', channel=2, note=59, velocity=84, time=12),\n",
      "    Message('note_on', channel=2, note=64, velocity=84, time=0),\n",
      "    Message('note_on', channel=2, note=59, velocity=0, time=168),\n",
      "    Message('note_on', channel=2, note=64, velocity=0, time=0),\n",
      "    Message('note_on', channel=2, note=52, velocity=84, time=12),\n",
      "    Message('note_on', channel=2, note=57, velocity=84, time=0),\n",
      "    Message('note_on', channel=2, note=52, velocity=0, time=336),\n",
      "    Message('note_on', channel=2, note=57, velocity=0, time=0),\n",
      "    Message('note_on', channel=2, note=50, velocity=84, time=24),\n",
      "    Message('note_on', channel=2, note=57, velocity=84, time=0),\n",
      "    Message('note_on', channel=2, note=60, velocity=84, time=0),\n",
      "    Message('note_on', channel=2, note=50, velocity=0, time=168),\n",
      "    Message('note_on', channel=2, note=57, velocity=0, time=0),\n",
      "    Message('note_on', channel=2, note=60, velocity=0, time=0),\n",
      "    Message('note_on', channel=2, note=59, velocity=84, time=12),\n",
      "    Message('note_on', channel=2, note=55, velocity=84, time=0),\n",
      "    Message('note_on', channel=2, note=62, velocity=84, time=0),\n",
      "    Message('note_on', channel=2, note=59, velocity=0, time=528),\n",
      "    Message('note_on', channel=2, note=55, velocity=0, time=0),\n",
      "    Message('note_on', channel=2, note=62, velocity=0, time=0),\n",
      "    Message('note_on', channel=2, note=43, velocity=84, time=12),\n",
      "    Message('note_on', channel=2, note=55, velocity=84, time=0),\n",
      "    Message('note_on', channel=2, note=43, velocity=0, time=168),\n",
      "    Message('note_on', channel=2, note=55, velocity=0, time=0),\n",
      "    Message('note_on', channel=2, note=42, velocity=84, time=12),\n",
      "    Message('note_on', channel=2, note=54, velocity=84, time=0),\n",
      "    Message('note_on', channel=2, note=42, velocity=0, time=168),\n",
      "    Message('note_on', channel=2, note=54, velocity=0, time=0),\n",
      "    Message('note_on', channel=2, note=40, velocity=84, time=12),\n",
      "    Message('note_on', channel=2, note=52, velocity=84, time=0),\n",
      "    Message('note_on', channel=2, note=40, velocity=0, time=168),\n",
      "    Message('note_on', channel=2, note=52, velocity=0, time=0),\n",
      "    Message('note_on', channel=2, note=54, velocity=84, time=12),\n",
      "    Message('note_on', channel=2, note=42, velocity=84, time=0),\n",
      "    Message('note_on', channel=2, note=54, velocity=0, time=168),\n",
      "    Message('note_on', channel=2, note=42, velocity=0, time=0),\n",
      "    Message('note_on', channel=2, note=40, velocity=84, time=12),\n",
      "    Message('note_on', channel=2, note=52, velocity=84, time=0),\n",
      "    Message('note_on', channel=2, note=40, velocity=0, time=168),\n",
      "    Message('note_on', channel=2, note=52, velocity=0, time=0),\n",
      "    Message('note_on', channel=2, note=50, velocity=84, time=12),\n",
      "    Message('note_on', channel=2, note=38, velocity=84, time=0),\n",
      "    Message('note_on', channel=2, note=50, velocity=0, time=168),\n",
      "    Message('note_on', channel=2, note=38, velocity=0, time=0),\n",
      "    Message('note_on', channel=2, note=52, velocity=84, time=12),\n",
      "    Message('note_on', channel=2, note=40, velocity=84, time=0),\n",
      "    Message('note_on', channel=2, note=52, velocity=0, time=168),\n",
      "    Message('note_on', channel=2, note=40, velocity=0, time=0),\n",
      "    Message('note_on', channel=2, note=42, velocity=84, time=12),\n",
      "    Message('note_on', channel=2, note=54, velocity=84, time=0),\n",
      "    Message('note_on', channel=2, note=42, velocity=0, time=168),\n",
      "    Message('note_on', channel=2, note=54, velocity=0, time=0),\n",
      "    Message('note_on', channel=2, note=55, velocity=84, time=12),\n",
      "    Message('note_on', channel=2, note=43, velocity=84, time=0),\n",
      "    Message('note_on', channel=2, note=55, velocity=0, time=168),\n",
      "    Message('note_on', channel=2, note=43, velocity=0, time=0),\n",
      "    Message('note_on', channel=2, note=38, velocity=84, time=12),\n",
      "    Message('note_on', channel=2, note=50, velocity=84, time=0),\n",
      "    Message('note_on', channel=2, note=38, velocity=0, time=528),\n",
      "    Message('note_on', channel=2, note=50, velocity=0, time=0),\n",
      "    Message('note_on', channel=2, note=50, velocity=84, time=12),\n",
      "    Message('note_on', channel=2, note=54, velocity=84, time=0),\n",
      "    Message('note_on', channel=2, note=50, velocity=0, time=528),\n",
      "    Message('note_on', channel=2, note=54, velocity=0, time=0),\n",
      "    Message('note_on', channel=2, note=43, velocity=84, time=12),\n",
      "    Message('note_on', channel=2, note=55, velocity=84, time=0),\n",
      "    Message('note_on', channel=2, note=43, velocity=0, time=168),\n",
      "    Message('note_on', channel=2, note=55, velocity=0, time=0),\n",
      "    Message('note_on', channel=2, note=42, velocity=84, time=12),\n",
      "    Message('note_on', channel=2, note=54, velocity=84, time=0),\n",
      "    Message('note_on', channel=2, note=42, velocity=0, time=168),\n",
      "    Message('note_on', channel=2, note=54, velocity=0, time=0),\n",
      "    Message('note_on', channel=2, note=52, velocity=84, time=12),\n",
      "    Message('note_on', channel=2, note=40, velocity=84, time=0),\n",
      "    Message('note_on', channel=2, note=52, velocity=0, time=168),\n",
      "    Message('note_on', channel=2, note=40, velocity=0, time=0),\n",
      "    Message('note_on', channel=2, note=59, velocity=84, time=12),\n",
      "    Message('note_on', channel=2, note=47, velocity=84, time=0),\n",
      "    Message('note_on', channel=2, note=59, velocity=0, time=168),\n",
      "    Message('note_on', channel=2, note=47, velocity=0, time=0),\n",
      "    Message('note_on', channel=2, note=47, velocity=84, time=12),\n",
      "    Message('note_on', channel=2, note=35, velocity=84, time=0),\n",
      "    Message('note_on', channel=2, note=47, velocity=0, time=168),\n",
      "    Message('note_on', channel=2, note=35, velocity=0, time=0),\n",
      "    Message('note_on', channel=2, note=52, velocity=84, time=12),\n",
      "    Message('note_on', channel=2, note=40, velocity=84, time=0),\n",
      "    Message('note_on', channel=2, note=52, velocity=0, time=168),\n",
      "    Message('note_on', channel=2, note=40, velocity=0, time=0),\n",
      "    Message('note_on', channel=2, note=48, velocity=84, time=12),\n",
      "    Message('note_on', channel=2, note=36, velocity=84, time=0),\n",
      "    Message('note_on', channel=2, note=48, velocity=0, time=168),\n",
      "    Message('note_on', channel=2, note=36, velocity=0, time=0),\n",
      "    Message('note_on', channel=2, note=38, velocity=84, time=12),\n",
      "    Message('note_on', channel=2, note=50, velocity=84, time=0),\n",
      "    Message('note_on', channel=2, note=38, velocity=0, time=336),\n",
      "    Message('note_on', channel=2, note=50, velocity=0, time=0),\n",
      "    Message('note_on', channel=2, note=43, velocity=84, time=24),\n",
      "    Message('note_on', channel=2, note=55, velocity=84, time=0),\n",
      "    Message('note_on', channel=2, note=43, velocity=0, time=168),\n",
      "    Message('note_on', channel=2, note=55, velocity=0, time=0),\n",
      "    Message('note_on', channel=2, note=55, velocity=84, time=12),\n",
      "    Message('note_on', channel=2, note=62, velocity=84, time=0),\n",
      "    Message('note_on', channel=2, note=55, velocity=0, time=168),\n",
      "    Message('note_on', channel=2, note=62, velocity=0, time=0),\n",
      "    Message('note_on', channel=2, note=52, velocity=84, time=12),\n",
      "    Message('note_on', channel=2, note=60, velocity=84, time=0),\n",
      "    Message('note_on', channel=2, note=52, velocity=0, time=168),\n",
      "    Message('note_on', channel=2, note=60, velocity=0, time=0),\n",
      "    Message('note_on', channel=2, note=47, velocity=84, time=12),\n",
      "    Message('note_on', channel=2, note=55, velocity=84, time=0),\n",
      "    Message('note_on', channel=2, note=47, velocity=0, time=168),\n",
      "    Message('note_on', channel=2, note=55, velocity=0, time=0),\n",
      "    Message('note_on', channel=2, note=52, velocity=84, time=12),\n",
      "    Message('note_on', channel=2, note=59, velocity=84, time=0),\n",
      "    Message('note_on', channel=2, note=52, velocity=0, time=168),\n",
      "    Message('note_on', channel=2, note=59, velocity=0, time=0),\n",
      "    Message('note_on', channel=2, note=59, velocity=84, time=12),\n",
      "    Message('note_on', channel=2, note=64, velocity=84, time=0),\n",
      "    Message('note_on', channel=2, note=59, velocity=0, time=168),\n",
      "    Message('note_on', channel=2, note=64, velocity=0, time=0),\n",
      "    Message('note_on', channel=2, note=57, velocity=84, time=12),\n",
      "    Message('note_on', channel=2, note=64, velocity=84, time=0),\n",
      "    Message('note_on', channel=2, note=57, velocity=0, time=168),\n",
      "    Message('note_on', channel=2, note=64, velocity=0, time=0),\n",
      "    Message('note_on', channel=2, note=67, velocity=84, time=12),\n",
      "    Message('note_on', channel=2, note=59, velocity=84, time=0),\n",
      "    Message('note_on', channel=2, note=67, velocity=0, time=168),\n",
      "    Message('note_on', channel=2, note=59, velocity=0, time=0),\n",
      "    Message('note_on', channel=2, note=60, velocity=84, time=12),\n",
      "    Message('note_on', channel=2, note=64, velocity=84, time=0),\n",
      "    Message('note_on', channel=2, note=60, velocity=0, time=168),\n",
      "    Message('note_on', channel=2, note=64, velocity=0, time=0),\n",
      "    Message('note_on', channel=2, note=50, velocity=84, time=12),\n",
      "    Message('note_on', channel=2, note=57, velocity=84, time=0),\n",
      "    Message('note_on', channel=2, note=50, velocity=0, time=336),\n",
      "    Message('note_on', channel=2, note=57, velocity=0, time=0),\n",
      "    Message('note_on', channel=2, note=54, velocity=84, time=24),\n",
      "    Message('note_on', channel=2, note=54, velocity=0, time=168),\n",
      "    Message('note_on', channel=2, note=43, velocity=84, time=12),\n",
      "    Message('note_on', channel=2, note=55, velocity=84, time=0),\n",
      "    Message('note_on', channel=2, note=43, velocity=0, time=168),\n",
      "    Message('note_on', channel=2, note=55, velocity=0, time=0),\n",
      "    Message('note_on', channel=2, note=62, velocity=84, time=12),\n",
      "    Message('note_on', channel=2, note=55, velocity=84, time=0),\n",
      "    Message('note_on', channel=2, note=62, velocity=0, time=168),\n",
      "    Message('note_on', channel=2, note=55, velocity=0, time=0),\n",
      "    Message('note_on', channel=2, note=52, velocity=84, time=12),\n",
      "    Message('note_on', channel=2, note=60, velocity=84, time=0),\n",
      "    Message('note_on', channel=2, note=52, velocity=0, time=168),\n",
      "    Message('note_on', channel=2, note=60, velocity=0, time=0),\n",
      "    Message('note_on', channel=2, note=47, velocity=84, time=12),\n",
      "    Message('note_on', channel=2, note=55, velocity=84, time=0),\n",
      "    Message('note_on', channel=2, note=47, velocity=0, time=168),\n",
      "    Message('note_on', channel=2, note=55, velocity=0, time=0),\n",
      "    Message('note_on', channel=2, note=59, velocity=84, time=12),\n",
      "    Message('note_on', channel=2, note=52, velocity=84, time=0),\n",
      "    Message('note_on', channel=2, note=59, velocity=0, time=168),\n",
      "    Message('note_on', channel=2, note=52, velocity=0, time=0),\n",
      "    Message('note_on', channel=2, note=59, velocity=84, time=12),\n",
      "    Message('note_on', channel=2, note=64, velocity=84, time=0),\n",
      "    Message('note_on', channel=2, note=59, velocity=0, time=168),\n",
      "    Message('note_on', channel=2, note=64, velocity=0, time=0),\n",
      "    Message('note_on', channel=2, note=48, velocity=84, time=12),\n",
      "    Message('note_on', channel=2, note=57, velocity=84, time=0),\n",
      "    Message('note_on', channel=2, note=48, velocity=0, time=336),\n",
      "    Message('note_on', channel=2, note=57, velocity=0, time=0),\n",
      "    Message('note_on', channel=2, note=52, velocity=84, time=24),\n",
      "    Message('note_on', channel=2, note=57, velocity=84, time=0),\n",
      "    Message('note_on', channel=2, note=60, velocity=84, time=0),\n",
      "    Message('note_on', channel=2, note=52, velocity=0, time=168),\n",
      "    Message('note_on', channel=2, note=57, velocity=0, time=0),\n",
      "    Message('note_on', channel=2, note=60, velocity=0, time=0),\n",
      "    Message('note_on', channel=2, note=43, velocity=84, time=12),\n",
      "    Message('note_on', channel=2, note=55, velocity=84, time=0),\n",
      "    Message('note_on', channel=2, note=43, velocity=0, time=168),\n",
      "    Message('note_on', channel=2, note=55, velocity=0, time=0),\n",
      "    Message('note_on', channel=2, note=54, velocity=84, time=12),\n",
      "    Message('note_on', channel=2, note=42, velocity=84, time=0),\n",
      "    Message('note_on', channel=2, note=54, velocity=0, time=168),\n",
      "    Message('note_on', channel=2, note=42, velocity=0, time=0),\n",
      "    Message('note_on', channel=2, note=52, velocity=84, time=12),\n",
      "    Message('note_on', channel=2, note=40, velocity=84, time=0),\n",
      "    Message('note_on', channel=2, note=52, velocity=0, time=168),\n",
      "    Message('note_on', channel=2, note=40, velocity=0, time=0),\n",
      "    Message('note_on', channel=2, note=42, velocity=84, time=12),\n",
      "    Message('note_on', channel=2, note=54, velocity=84, time=0),\n",
      "    Message('note_on', channel=2, note=42, velocity=0, time=168),\n",
      "    Message('note_on', channel=2, note=54, velocity=0, time=0),\n",
      "    Message('note_on', channel=2, note=40, velocity=84, time=12),\n",
      "    Message('note_on', channel=2, note=52, velocity=84, time=0),\n",
      "    Message('note_on', channel=2, note=40, velocity=0, time=168),\n",
      "    Message('note_on', channel=2, note=52, velocity=0, time=0),\n",
      "    Message('note_on', channel=2, note=38, velocity=84, time=12),\n",
      "    Message('note_on', channel=2, note=50, velocity=84, time=0),\n",
      "    Message('note_on', channel=2, note=38, velocity=0, time=168),\n",
      "    Message('note_on', channel=2, note=50, velocity=0, time=0),\n",
      "    Message('note_on', channel=2, note=40, velocity=84, time=12),\n",
      "    Message('note_on', channel=2, note=52, velocity=84, time=0),\n",
      "    Message('note_on', channel=2, note=40, velocity=0, time=168),\n",
      "    Message('note_on', channel=2, note=52, velocity=0, time=0),\n",
      "    Message('note_on', channel=2, note=42, velocity=84, time=12),\n",
      "    Message('note_on', channel=2, note=54, velocity=84, time=0),\n",
      "    Message('note_on', channel=2, note=42, velocity=0, time=168),\n",
      "    Message('note_on', channel=2, note=54, velocity=0, time=0),\n",
      "    Message('note_on', channel=2, note=43, velocity=84, time=12),\n",
      "    Message('note_on', channel=2, note=55, velocity=84, time=0),\n",
      "    Message('note_on', channel=2, note=43, velocity=0, time=168),\n",
      "    Message('note_on', channel=2, note=55, velocity=0, time=0),\n",
      "    Message('note_on', channel=2, note=50, velocity=84, time=12),\n",
      "    Message('note_on', channel=2, note=38, velocity=84, time=0),\n",
      "    Message('note_on', channel=2, note=50, velocity=0, time=528),\n",
      "    Message('note_on', channel=2, note=38, velocity=0, time=0),\n",
      "    Message('note_on', channel=2, note=50, velocity=84, time=12),\n",
      "    Message('note_on', channel=2, note=54, velocity=84, time=0),\n",
      "    Message('note_on', channel=2, note=50, velocity=0, time=528),\n",
      "    Message('note_on', channel=2, note=54, velocity=0, time=0),\n",
      "    Message('note_on', channel=2, note=43, velocity=84, time=12),\n",
      "    Message('note_on', channel=2, note=55, velocity=84, time=0),\n",
      "    Message('note_on', channel=2, note=43, velocity=0, time=168),\n",
      "    Message('note_on', channel=2, note=55, velocity=0, time=0),\n",
      "    Message('note_on', channel=2, note=42, velocity=84, time=12),\n",
      "    Message('note_on', channel=2, note=54, velocity=84, time=0),\n",
      "    Message('note_on', channel=2, note=42, velocity=0, time=168),\n",
      "    Message('note_on', channel=2, note=54, velocity=0, time=0),\n",
      "    Message('note_on', channel=2, note=40, velocity=84, time=12),\n",
      "    Message('note_on', channel=2, note=52, velocity=84, time=0),\n",
      "    Message('note_on', channel=2, note=40, velocity=0, time=168),\n",
      "    Message('note_on', channel=2, note=52, velocity=0, time=0),\n",
      "    Message('note_on', channel=2, note=47, velocity=84, time=12),\n",
      "    Message('note_on', channel=2, note=59, velocity=84, time=0),\n",
      "    Message('note_on', channel=2, note=47, velocity=0, time=168),\n",
      "    Message('note_on', channel=2, note=59, velocity=0, time=0),\n",
      "    Message('note_on', channel=2, note=47, velocity=84, time=12),\n",
      "    Message('note_on', channel=2, note=35, velocity=84, time=0),\n",
      "    Message('note_on', channel=2, note=47, velocity=0, time=168),\n",
      "    Message('note_on', channel=2, note=35, velocity=0, time=0),\n",
      "    Message('note_on', channel=2, note=52, velocity=84, time=12),\n",
      "    Message('note_on', channel=2, note=40, velocity=84, time=0),\n",
      "    Message('note_on', channel=2, note=52, velocity=0, time=168),\n",
      "    Message('note_on', channel=2, note=40, velocity=0, time=0),\n",
      "    Message('note_on', channel=2, note=48, velocity=84, time=12),\n",
      "    Message('note_on', channel=2, note=36, velocity=84, time=0),\n",
      "    Message('note_on', channel=2, note=48, velocity=0, time=168),\n",
      "    Message('note_on', channel=2, note=36, velocity=0, time=0),\n",
      "    Message('note_on', channel=2, note=50, velocity=84, time=12),\n",
      "    Message('note_on', channel=2, note=38, velocity=84, time=0),\n",
      "    Message('note_on', channel=2, note=50, velocity=0, time=336),\n",
      "    Message('note_on', channel=2, note=38, velocity=0, time=0),\n",
      "    Message('note_on', channel=2, note=43, velocity=84, time=24),\n",
      "    Message('note_on', channel=2, note=55, velocity=84, time=0),\n",
      "    Message('note_on', channel=2, note=43, velocity=0, time=168),\n",
      "    Message('note_on', channel=2, note=55, velocity=0, time=0),\n",
      "    Message('note_on', channel=2, note=55, velocity=84, time=12),\n",
      "    Message('note_on', channel=2, note=62, velocity=84, time=0),\n",
      "    Message('note_on', channel=2, note=55, velocity=0, time=168),\n",
      "    Message('note_on', channel=2, note=62, velocity=0, time=0),\n",
      "    Message('note_on', channel=2, note=60, velocity=84, time=12),\n",
      "    Message('note_on', channel=2, note=52, velocity=84, time=0),\n",
      "    Message('note_on', channel=2, note=60, velocity=0, time=168),\n",
      "    Message('note_on', channel=2, note=52, velocity=0, time=0),\n",
      "    Message('note_on', channel=2, note=55, velocity=84, time=12),\n",
      "    Message('note_on', channel=2, note=47, velocity=84, time=0),\n",
      "    Message('note_on', channel=2, note=55, velocity=0, time=168),\n",
      "    Message('note_on', channel=2, note=47, velocity=0, time=0),\n",
      "    Message('note_on', channel=2, note=52, velocity=84, time=12),\n",
      "    Message('note_on', channel=2, note=59, velocity=84, time=0),\n",
      "    Message('note_on', channel=2, note=52, velocity=0, time=168),\n",
      "    Message('note_on', channel=2, note=59, velocity=0, time=0),\n",
      "    Message('note_on', channel=2, note=59, velocity=84, time=12),\n",
      "    Message('note_on', channel=2, note=64, velocity=84, time=0),\n",
      "    Message('note_on', channel=2, note=59, velocity=0, time=168),\n",
      "    Message('note_on', channel=2, note=64, velocity=0, time=0),\n",
      "    Message('note_on', channel=2, note=57, velocity=84, time=12),\n",
      "    Message('note_on', channel=2, note=64, velocity=84, time=0),\n",
      "    Message('note_on', channel=2, note=57, velocity=0, time=168),\n",
      "    Message('note_on', channel=2, note=64, velocity=0, time=0),\n",
      "    Message('note_on', channel=2, note=59, velocity=84, time=12),\n",
      "    Message('note_on', channel=2, note=67, velocity=84, time=0),\n",
      "    Message('note_on', channel=2, note=59, velocity=0, time=168),\n",
      "    Message('note_on', channel=2, note=67, velocity=0, time=0),\n",
      "    Message('note_on', channel=2, note=67, velocity=84, time=12),\n",
      "    Message('note_on', channel=2, note=60, velocity=84, time=0),\n",
      "    Message('note_on', channel=2, note=67, velocity=0, time=168),\n",
      "    Message('note_on', channel=2, note=60, velocity=0, time=0),\n",
      "    Message('note_on', channel=2, note=57, velocity=84, time=12),\n",
      "    Message('note_on', channel=2, note=50, velocity=84, time=0),\n",
      "    Message('note_on', channel=2, note=57, velocity=0, time=336),\n",
      "    Message('note_on', channel=2, note=50, velocity=0, time=0),\n",
      "    Message('note_on', channel=2, note=54, velocity=84, time=24),\n",
      "    Message('note_on', channel=2, note=54, velocity=0, time=168),\n",
      "    Message('note_on', channel=2, note=43, velocity=84, time=12),\n",
      "    Message('note_on', channel=2, note=55, velocity=84, time=0),\n",
      "    Message('note_on', channel=2, note=43, velocity=0, time=168),\n",
      "    Message('note_on', channel=2, note=55, velocity=0, time=0),\n",
      "    Message('note_on', channel=2, note=55, velocity=84, time=12),\n",
      "    Message('note_on', channel=2, note=62, velocity=84, time=0),\n",
      "    Message('note_on', channel=2, note=55, velocity=0, time=168),\n",
      "    Message('note_on', channel=2, note=62, velocity=0, time=0),\n",
      "    Message('note_on', channel=2, note=60, velocity=84, time=12),\n",
      "    Message('note_on', channel=2, note=52, velocity=84, time=0),\n",
      "    Message('note_on', channel=2, note=60, velocity=0, time=168),\n",
      "    Message('note_on', channel=2, note=52, velocity=0, time=0),\n",
      "    Message('note_on', channel=2, note=55, velocity=84, time=12),\n",
      "    Message('note_on', channel=2, note=47, velocity=84, time=0),\n",
      "    Message('note_on', channel=2, note=55, velocity=0, time=168),\n",
      "    Message('note_on', channel=2, note=47, velocity=0, time=0),\n",
      "    Message('note_on', channel=2, note=52, velocity=84, time=12),\n",
      "    Message('note_on', channel=2, note=59, velocity=84, time=0),\n",
      "    Message('note_on', channel=2, note=52, velocity=0, time=168),\n",
      "    Message('note_on', channel=2, note=59, velocity=0, time=0),\n",
      "    Message('note_on', channel=2, note=64, velocity=84, time=12),\n",
      "    Message('note_on', channel=2, note=59, velocity=84, time=0),\n",
      "    Message('note_on', channel=2, note=64, velocity=0, time=168),\n",
      "    Message('note_on', channel=2, note=59, velocity=0, time=0),\n",
      "    Message('note_on', channel=2, note=48, velocity=84, time=12),\n",
      "    Message('note_on', channel=2, note=57, velocity=84, time=0),\n",
      "    Message('note_on', channel=2, note=48, velocity=0, time=336),\n",
      "    Message('note_on', channel=2, note=57, velocity=0, time=0),\n",
      "    Message('note_on', channel=2, note=50, velocity=84, time=24),\n",
      "    Message('note_on', channel=2, note=57, velocity=84, time=0),\n",
      "    Message('note_on', channel=2, note=60, velocity=84, time=0),\n",
      "    Message('note_on', channel=2, note=50, velocity=0, time=168),\n",
      "    Message('note_on', channel=2, note=57, velocity=0, time=0),\n",
      "    Message('note_on', channel=2, note=60, velocity=0, time=0),\n",
      "    Message('note_on', channel=2, note=59, velocity=84, time=12),\n",
      "    Message('note_on', channel=2, note=55, velocity=84, time=0),\n",
      "    Message('note_on', channel=2, note=62, velocity=84, time=0),\n",
      "    Message('note_on', channel=2, note=59, velocity=0, time=336),\n",
      "    Message('note_on', channel=2, note=55, velocity=0, time=0),\n",
      "    Message('note_on', channel=2, note=62, velocity=0, time=0),\n",
      "    Message('note_on', channel=2, note=55, velocity=84, time=24),\n",
      "    Message('note_on', channel=2, note=55, velocity=0, time=48),\n",
      "    Message('note_on', channel=2, note=59, velocity=84, time=12),\n",
      "    Message('note_on', channel=2, note=59, velocity=0, time=48),\n",
      "    Message('note_on', channel=2, note=61, velocity=84, time=12),\n",
      "    Message('note_on', channel=2, note=61, velocity=0, time=48),\n",
      "    Message('note_on', channel=2, note=62, velocity=84, time=12),\n",
      "    Message('note_on', channel=2, note=62, velocity=0, time=168),\n",
      "    Message('note_on', channel=2, note=60, velocity=84, time=12),\n",
      "    Message('note_on', channel=2, note=60, velocity=0, time=168),\n",
      "    Message('note_on', channel=2, note=59, velocity=84, time=12),\n",
      "    Message('note_on', channel=2, note=59, velocity=0, time=168),\n",
      "    Message('note_on', channel=2, note=57, velocity=84, time=12),\n",
      "    Message('note_on', channel=2, note=57, velocity=0, time=168),\n",
      "    Message('note_on', channel=2, note=57, velocity=84, time=12),\n",
      "    Message('note_on', channel=2, note=57, velocity=0, time=64),\n",
      "    Message('note_on', channel=2, note=55, velocity=84, time=16),\n",
      "    Message('note_on', channel=2, note=55, velocity=0, time=64),\n",
      "    Message('note_on', channel=2, note=53, velocity=84, time=16),\n",
      "    Message('note_on', channel=2, note=53, velocity=0, time=64),\n",
      "    Message('note_on', channel=2, note=52, velocity=84, time=16),\n",
      "    Message('note_on', channel=2, note=52, velocity=0, time=64),\n",
      "    Message('note_on', channel=2, note=53, velocity=84, time=76),\n",
      "    Message('note_on', channel=2, note=53, velocity=0, time=168),\n",
      "    Message('note_on', channel=2, note=47, velocity=84, time=12),\n",
      "    Message('note_on', channel=2, note=47, velocity=0, time=168),\n",
      "    Message('note_on', channel=2, note=50, velocity=84, time=12),\n",
      "    Message('note_on', channel=2, note=62, velocity=84, time=0),\n",
      "    Message('note_on', channel=2, note=50, velocity=0, time=168),\n",
      "    Message('note_on', channel=2, note=62, velocity=0, time=0),\n",
      "    Message('note_on', channel=2, note=60, velocity=84, time=12),\n",
      "    Message('note_on', channel=2, note=57, velocity=84, time=0),\n",
      "    Message('note_on', channel=2, note=60, velocity=0, time=168),\n",
      "    Message('note_on', channel=2, note=57, velocity=0, time=0),\n",
      "    Message('note_on', channel=2, note=60, velocity=84, time=12),\n",
      "    Message('note_on', channel=2, note=64, velocity=84, time=0),\n",
      "    Message('note_on', channel=2, note=57, velocity=84, time=0),\n",
      "    Message('note_on', channel=2, note=60, velocity=0, time=168),\n",
      "    Message('note_on', channel=2, note=64, velocity=0, time=0),\n",
      "    Message('note_on', channel=2, note=57, velocity=0, time=0),\n",
      "    Message('note_on', channel=2, note=62, velocity=84, time=12),\n",
      "    Message('note_on', channel=2, note=53, velocity=84, time=0),\n",
      "    Message('note_on', channel=2, note=62, velocity=0, time=168),\n",
      "    Message('note_on', channel=2, note=53, velocity=0, time=0),\n",
      "    Message('note_on', channel=2, note=57, velocity=84, time=12),\n",
      "    Message('note_on', channel=2, note=48, velocity=84, time=0),\n",
      "    Message('note_on', channel=2, note=57, velocity=0, time=168),\n",
      "    Message('note_on', channel=2, note=48, velocity=0, time=0),\n",
      "    Message('note_on', channel=2, note=60, velocity=84, time=12),\n",
      "    Message('note_on', channel=2, note=53, velocity=84, time=0),\n",
      "    Message('note_on', channel=2, note=60, velocity=0, time=168),\n",
      "    Message('note_on', channel=2, note=53, velocity=0, time=0),\n",
      "    Message('note_on', channel=2, note=60, velocity=84, time=12),\n",
      "    Message('note_on', channel=2, note=52, velocity=84, time=0),\n",
      "    Message('note_on', channel=2, note=60, velocity=0, time=168),\n",
      "    Message('note_on', channel=2, note=52, velocity=0, time=0),\n",
      "    Message('note_on', channel=2, note=50, velocity=84, time=12),\n",
      "    Message('note_on', channel=2, note=50, velocity=0, time=168),\n",
      "    Message('note_on', channel=2, note=51, velocity=84, time=12),\n",
      "    Message('note_on', channel=2, note=51, velocity=0, time=168),\n",
      "    Message('note_on', channel=2, note=52, velocity=84, time=12),\n",
      "    Message('note_on', channel=2, note=52, velocity=0, time=168),\n",
      "    Message('note_on', channel=2, note=45, velocity=84, time=12),\n",
      "    Message('note_on', channel=2, note=45, velocity=0, time=168),\n",
      "    Message('note_on', channel=2, note=57, velocity=84, time=12),\n",
      "    Message('note_on', channel=2, note=57, velocity=0, time=168),\n",
      "    Message('note_on', channel=2, note=59, velocity=84, time=12),\n",
      "    Message('note_on', channel=2, note=47, velocity=84, time=0),\n",
      "    Message('note_on', channel=2, note=59, velocity=0, time=168),\n",
      "    Message('note_on', channel=2, note=47, velocity=0, time=0),\n",
      "    Message('note_on', channel=2, note=60, velocity=84, time=12),\n",
      "    Message('note_on', channel=2, note=48, velocity=84, time=0),\n",
      "    Message('note_on', channel=2, note=60, velocity=0, time=336),\n",
      "    Message('note_on', channel=2, note=48, velocity=0, time=0),\n",
      "    Message('note_on', channel=2, note=60, velocity=84, time=24),\n",
      "    Message('note_on', channel=2, note=52, velocity=84, time=0),\n",
      "    Message('note_on', channel=2, note=60, velocity=0, time=168),\n",
      "    Message('note_on', channel=2, note=52, velocity=0, time=0),\n",
      "    Message('note_on', channel=2, note=53, velocity=84, time=12),\n",
      "    Message('note_on', channel=2, note=53, velocity=0, time=168),\n",
      "    Message('note_on', channel=2, note=50, velocity=84, time=12),\n",
      "    Message('note_on', channel=2, note=50, velocity=0, time=168),\n",
      "    Message('note_on', channel=2, note=55, velocity=84, time=12),\n",
      "    Message('note_on', channel=2, note=43, velocity=84, time=0),\n",
      "    Message('note_on', channel=2, note=55, velocity=0, time=168),\n",
      "    Message('note_on', channel=2, note=43, velocity=0, time=0),\n",
      "    Message('note_on', channel=2, note=48, velocity=84, time=12),\n",
      "    Message('note_on', channel=2, note=55, velocity=84, time=0),\n",
      "    Message('note_on', channel=2, note=48, velocity=0, time=168),\n",
      "    Message('note_on', channel=2, note=55, velocity=0, time=0),\n",
      "    Message('note_on', channel=2, note=52, velocity=84, time=12),\n",
      "    Message('note_on', channel=2, note=52, velocity=0, time=168),\n",
      "    Message('note_on', channel=2, note=60, velocity=84, time=12),\n",
      "    Message('note_on', channel=2, note=60, velocity=0, time=168),\n",
      "    Message('note_on', channel=2, note=60, velocity=84, time=12),\n",
      "    Message('note_on', channel=2, note=53, velocity=84, time=0),\n",
      "    Message('note_on', channel=2, note=60, velocity=0, time=336),\n",
      "    Message('note_on', channel=2, note=53, velocity=0, time=0),\n",
      "    Message('note_on', channel=2, note=55, velocity=84, time=24),\n",
      "    Message('note_on', channel=2, note=47, velocity=84, time=0),\n",
      "    Message('note_on', channel=2, note=55, velocity=0, time=168),\n",
      "    Message('note_on', channel=2, note=47, velocity=0, time=0),\n",
      "    Message('note_on', channel=2, note=55, velocity=84, time=12),\n",
      "    Message('note_on', channel=2, note=48, velocity=84, time=0),\n",
      "    Message('note_on', channel=2, note=55, velocity=0, time=336),\n",
      "    Message('note_on', channel=2, note=48, velocity=0, time=0),\n",
      "    Message('note_on', channel=2, note=59, velocity=84, time=24),\n",
      "    Message('note_on', channel=2, note=59, velocity=0, time=168),\n",
      "    Message('note_on', channel=2, note=62, velocity=84, time=12),\n",
      "    Message('note_on', channel=2, note=55, velocity=84, time=0),\n",
      "    Message('note_on', channel=2, note=62, velocity=0, time=168),\n",
      "    Message('note_on', channel=2, note=55, velocity=0, time=0),\n",
      "    Message('note_on', channel=2, note=43, velocity=84, time=12),\n",
      "    Message('note_on', channel=2, note=43, velocity=0, time=168),\n",
      "    Message('note_on', channel=2, note=52, velocity=84, time=12),\n",
      "    Message('note_on', channel=2, note=40, velocity=84, time=0),\n",
      "    Message('note_on', channel=2, note=52, velocity=0, time=168),\n",
      "    Message('note_on', channel=2, note=40, velocity=0, time=0),\n",
      "    Message('note_on', channel=2, note=47, velocity=84, time=12),\n",
      "    Message('note_on', channel=2, note=59, velocity=84, time=0),\n",
      "    Message('note_on', channel=2, note=47, velocity=0, time=168),\n",
      "    Message('note_on', channel=2, note=59, velocity=0, time=0),\n",
      "    Message('note_on', channel=2, note=40, velocity=84, time=12),\n",
      "    Message('note_on', channel=2, note=52, velocity=84, time=0),\n",
      "    Message('note_on', channel=2, note=40, velocity=0, time=168),\n",
      "    Message('note_on', channel=2, note=52, velocity=0, time=0),\n",
      "    Message('note_on', channel=2, note=52, velocity=84, time=12),\n",
      "    Message('note_on', channel=2, note=59, velocity=84, time=0),\n",
      "    Message('note_on', channel=2, note=52, velocity=0, time=168),\n",
      "    Message('note_on', channel=2, note=59, velocity=0, time=0),\n",
      "    Message('note_on', channel=2, note=42, velocity=84, time=12),\n",
      "    Message('note_on', channel=2, note=54, velocity=84, time=0),\n",
      "    Message('note_on', channel=2, note=42, velocity=0, time=168),\n",
      "    Message('note_on', channel=2, note=54, velocity=0, time=0),\n",
      "    Message('note_on', channel=2, note=55, velocity=84, time=12),\n",
      "    Message('note_on', channel=2, note=47, velocity=84, time=0),\n",
      "    Message('note_on', channel=2, note=55, velocity=0, time=168),\n",
      "    Message('note_on', channel=2, note=47, velocity=0, time=0),\n",
      "    Message('note_on', channel=2, note=48, velocity=84, time=12),\n",
      "    Message('note_on', channel=2, note=48, velocity=0, time=168),\n",
      "    Message('note_on', channel=2, note=50, velocity=84, time=12),\n",
      "    Message('note_on', channel=2, note=38, velocity=84, time=0),\n",
      "    Message('note_on', channel=2, note=50, velocity=0, time=528),\n",
      "    Message('note_on', channel=2, note=38, velocity=0, time=0),\n",
      "    Message('note_on', channel=2, note=54, velocity=84, time=12),\n",
      "    Message('note_on', channel=2, note=50, velocity=84, time=0),\n",
      "    Message('note_on', channel=2, note=54, velocity=0, time=528),\n",
      "    Message('note_on', channel=2, note=50, velocity=0, time=0),\n",
      "    Message('note_on', channel=2, note=43, velocity=84, time=12),\n",
      "    Message('note_on', channel=2, note=55, velocity=84, time=0),\n",
      "    Message('note_on', channel=2, note=43, velocity=0, time=168),\n",
      "    Message('note_on', channel=2, note=55, velocity=0, time=0),\n",
      "    Message('note_on', channel=2, note=42, velocity=84, time=12),\n",
      "    Message('note_on', channel=2, note=54, velocity=84, time=0),\n",
      "    Message('note_on', channel=2, note=42, velocity=0, time=168),\n",
      "    Message('note_on', channel=2, note=54, velocity=0, time=0),\n",
      "    Message('note_on', channel=2, note=40, velocity=84, time=12),\n",
      "    Message('note_on', channel=2, note=52, velocity=84, time=0),\n",
      "    Message('note_on', channel=2, note=40, velocity=0, time=168),\n",
      "    Message('note_on', channel=2, note=52, velocity=0, time=0),\n",
      "    Message('note_on', channel=2, note=55, velocity=84, time=12),\n",
      "    Message('note_on', channel=2, note=47, velocity=84, time=0),\n",
      "    Message('note_on', channel=2, note=55, velocity=0, time=168),\n",
      "    Message('note_on', channel=2, note=47, velocity=0, time=0),\n",
      "    Message('note_on', channel=2, note=47, velocity=84, time=12),\n",
      "    Message('note_on', channel=2, note=35, velocity=84, time=0),\n",
      "    Message('note_on', channel=2, note=47, velocity=0, time=168),\n",
      "    Message('note_on', channel=2, note=35, velocity=0, time=0),\n",
      "    Message('note_on', channel=2, note=52, velocity=84, time=12),\n",
      "    Message('note_on', channel=2, note=52, velocity=0, time=168),\n",
      "    Message('note_on', channel=2, note=48, velocity=84, time=12),\n",
      "    Message('note_on', channel=2, note=36, velocity=84, time=0),\n",
      "    Message('note_on', channel=2, note=48, velocity=0, time=168),\n",
      "    Message('note_on', channel=2, note=36, velocity=0, time=0),\n",
      "    Message('note_on', channel=2, note=38, velocity=84, time=12),\n",
      "    Message('note_on', channel=2, note=50, velocity=84, time=0),\n",
      "    Message('note_on', channel=2, note=38, velocity=0, time=336),\n",
      "    Message('note_on', channel=2, note=50, velocity=0, time=0),\n",
      "    Message('note_on', channel=2, note=55, velocity=84, time=24),\n",
      "    Message('note_on', channel=2, note=43, velocity=84, time=0),\n",
      "    Message('note_on', channel=2, note=55, velocity=0, time=168),\n",
      "    Message('note_on', channel=2, note=43, velocity=0, time=0),\n",
      "    Message('note_on', channel=2, note=59, velocity=84, time=12),\n",
      "    Message('note_on', channel=2, note=59, velocity=0, time=168),\n",
      "    Message('note_on', channel=2, note=50, velocity=84, time=12),\n",
      "    Message('note_on', channel=2, note=50, velocity=0, time=168),\n",
      "    Message('note_on', channel=2, note=55, velocity=84, time=12),\n",
      "    Message('note_on', channel=2, note=59, velocity=84, time=0),\n",
      "    Message('note_on', channel=2, note=55, velocity=0, time=336),\n",
      "    Message('note_on', channel=2, note=59, velocity=0, time=0),\n",
      "    Message('note_on', channel=2, note=60, velocity=84, time=24),\n",
      "    Message('note_on', channel=2, note=55, velocity=84, time=0),\n",
      "    Message('note_on', channel=2, note=60, velocity=0, time=168),\n",
      "    Message('note_on', channel=2, note=55, velocity=0, time=0),\n",
      "    Message('note_on', channel=2, note=57, velocity=84, time=12),\n",
      "    Message('note_on', channel=2, note=55, velocity=84, time=0),\n",
      "    Message('note_on', channel=2, note=57, velocity=0, time=168),\n",
      "    Message('note_on', channel=2, note=55, velocity=0, time=0),\n",
      "    Message('note_on', channel=2, note=59, velocity=84, time=12),\n",
      "    Message('note_on', channel=2, note=59, velocity=0, time=168),\n",
      "    Message('note_on', channel=2, note=62, velocity=84, time=12),\n",
      "    Message('note_on', channel=2, note=62, velocity=0, time=168),\n",
      "    Message('note_on', channel=2, note=43, velocity=84, time=12),\n",
      "    Message('note_on', channel=2, note=43, velocity=0, time=336),\n",
      "    Message('note_on', channel=2, note=43, velocity=84, time=24),\n",
      "    Message('note_on', channel=2, note=54, velocity=84, time=0),\n",
      "    Message('note_on', channel=2, note=43, velocity=0, time=168),\n",
      "    Message('note_on', channel=2, note=54, velocity=0, time=0),\n",
      "    Message('note_on', channel=2, note=55, velocity=84, time=12),\n",
      "    Message('note_on', channel=2, note=43, velocity=84, time=0),\n",
      "    Message('note_on', channel=2, note=55, velocity=0, time=168),\n",
      "    Message('note_on', channel=2, note=43, velocity=0, time=0),\n",
      "    Message('note_on', channel=2, note=62, velocity=84, time=12),\n",
      "    Message('note_on', channel=2, note=55, velocity=84, time=0),\n",
      "    Message('note_on', channel=2, note=62, velocity=0, time=168),\n",
      "    Message('note_on', channel=2, note=55, velocity=0, time=0),\n",
      "    Message('note_on', channel=2, note=60, velocity=84, time=12),\n",
      "    Message('note_on', channel=2, note=52, velocity=84, time=0),\n",
      "    Message('note_on', channel=2, note=60, velocity=0, time=168),\n",
      "    Message('note_on', channel=2, note=52, velocity=0, time=0),\n",
      "    Message('note_on', channel=2, note=47, velocity=84, time=12),\n",
      "    Message('note_on', channel=2, note=55, velocity=84, time=0),\n",
      "    Message('note_on', channel=2, note=47, velocity=0, time=168),\n",
      "    Message('note_on', channel=2, note=55, velocity=0, time=0),\n",
      "    Message('note_on', channel=2, note=52, velocity=84, time=12),\n",
      "    Message('note_on', channel=2, note=59, velocity=84, time=0),\n",
      "    Message('note_on', channel=2, note=52, velocity=0, time=168),\n",
      "    Message('note_on', channel=2, note=59, velocity=0, time=0),\n",
      "    Message('note_on', channel=2, note=64, velocity=84, time=12),\n",
      "    Message('note_on', channel=2, note=59, velocity=84, time=0),\n",
      "    Message('note_on', channel=2, note=64, velocity=0, time=168),\n",
      "    Message('note_on', channel=2, note=59, velocity=0, time=0),\n",
      "    Message('note_on', channel=2, note=64, velocity=84, time=12),\n",
      "    Message('note_on', channel=2, note=57, velocity=84, time=0),\n",
      "    Message('note_on', channel=2, note=64, velocity=0, time=168),\n",
      "    Message('note_on', channel=2, note=57, velocity=0, time=0),\n",
      "    Message('note_on', channel=2, note=59, velocity=84, time=12),\n",
      "    Message('note_on', channel=2, note=67, velocity=84, time=0),\n",
      "    Message('note_on', channel=2, note=59, velocity=0, time=168),\n",
      "    Message('note_on', channel=2, note=67, velocity=0, time=0),\n",
      "    Message('note_on', channel=2, note=60, velocity=84, time=12),\n",
      "    Message('note_on', channel=2, note=57, velocity=84, time=0),\n",
      "    Message('note_on', channel=2, note=60, velocity=0, time=168),\n",
      "    Message('note_on', channel=2, note=57, velocity=0, time=0),\n",
      "    Message('note_on', channel=2, note=57, velocity=84, time=12),\n",
      "    Message('note_on', channel=2, note=50, velocity=84, time=0),\n",
      "    Message('note_on', channel=2, note=57, velocity=0, time=336),\n",
      "    Message('note_on', channel=2, note=50, velocity=0, time=0),\n",
      "    Message('note_on', channel=2, note=54, velocity=84, time=24),\n",
      "    Message('note_on', channel=2, note=54, velocity=0, time=168),\n",
      "    Message('note_on', channel=2, note=43, velocity=84, time=12),\n",
      "    Message('note_on', channel=2, note=55, velocity=84, time=0),\n",
      "    Message('note_on', channel=2, note=43, velocity=0, time=168),\n",
      "    Message('note_on', channel=2, note=55, velocity=0, time=0),\n",
      "    Message('note_on', channel=2, note=55, velocity=84, time=12),\n",
      "    Message('note_on', channel=2, note=62, velocity=84, time=0),\n",
      "    Message('note_on', channel=2, note=55, velocity=0, time=168),\n",
      "    Message('note_on', channel=2, note=62, velocity=0, time=0),\n",
      "    Message('note_on', channel=2, note=52, velocity=84, time=12),\n",
      "    Message('note_on', channel=2, note=60, velocity=84, time=0),\n",
      "    Message('note_on', channel=2, note=52, velocity=0, time=168),\n",
      "    Message('note_on', channel=2, note=60, velocity=0, time=0),\n",
      "    Message('note_on', channel=2, note=55, velocity=84, time=12),\n",
      "    Message('note_on', channel=2, note=47, velocity=84, time=0),\n",
      "    Message('note_on', channel=2, note=55, velocity=0, time=168),\n",
      "    Message('note_on', channel=2, note=47, velocity=0, time=0),\n",
      "    Message('note_on', channel=2, note=52, velocity=84, time=12),\n",
      "    Message('note_on', channel=2, note=59, velocity=84, time=0),\n",
      "    Message('note_on', channel=2, note=52, velocity=0, time=168),\n",
      "    Message('note_on', channel=2, note=59, velocity=0, time=0),\n",
      "    Message('note_on', channel=2, note=59, velocity=84, time=12),\n",
      "    Message('note_on', channel=2, note=64, velocity=84, time=0),\n",
      "    Message('note_on', channel=2, note=59, velocity=0, time=168),\n",
      "    Message('note_on', channel=2, note=64, velocity=0, time=0),\n",
      "    Message('note_on', channel=2, note=57, velocity=84, time=12),\n",
      "    Message('note_on', channel=2, note=48, velocity=84, time=0),\n",
      "    Message('note_on', channel=2, note=57, velocity=0, time=336),\n",
      "    Message('note_on', channel=2, note=48, velocity=0, time=0),\n",
      "    Message('note_on', channel=2, note=60, velocity=84, time=24),\n",
      "    Message('note_on', channel=2, note=57, velocity=84, time=0),\n",
      "    Message('note_on', channel=2, note=50, velocity=84, time=0),\n",
      "    Message('note_on', channel=2, note=60, velocity=0, time=168),\n",
      "    Message('note_on', channel=2, note=57, velocity=0, time=0),\n",
      "    Message('note_on', channel=2, note=50, velocity=0, time=0),\n",
      "    Message('note_on', channel=2, note=43, velocity=84, time=12),\n",
      "    Message('note_on', channel=2, note=31, velocity=84, time=0),\n",
      "    Message('note_on', channel=2, note=43, velocity=0, time=528),\n",
      "    Message('note_on', channel=2, note=31, velocity=0, time=0),\n",
      "    MetaMessage('end_of_track', time=0)]),\n",
      "  MidiTrack([\n",
      "    MetaMessage('track_name', name='Arranged by', time=0),\n",
      "    MetaMessage('instrument_name', name='Harpsichord', time=0),\n",
      "    MetaMessage('midi_port', port=0, time=0),\n",
      "    Message('control_change', channel=3, control=0, value=80, time=0),\n",
      "    Message('control_change', channel=3, control=32, value=0, time=0),\n",
      "    Message('program_change', channel=3, program=6, time=0),\n",
      "    Message('note_on', channel=3, note=67, velocity=94, time=60),\n",
      "    Message('note_on', channel=3, note=67, velocity=0, time=48),\n",
      "    Message('note_on', channel=3, note=69, velocity=94, time=12),\n",
      "    Message('note_on', channel=3, note=69, velocity=0, time=48),\n",
      "    Message('note_on', channel=3, note=71, velocity=94, time=12),\n",
      "    Message('note_on', channel=3, note=71, velocity=0, time=48),\n",
      "    Message('note_on', channel=3, note=74, velocity=94, time=12),\n",
      "    Message('note_on', channel=3, note=74, velocity=0, time=48),\n",
      "    Message('note_on', channel=3, note=72, velocity=94, time=12),\n",
      "    Message('note_on', channel=3, note=72, velocity=0, time=48),\n",
      "    Message('note_on', channel=3, note=72, velocity=94, time=12),\n",
      "    Message('note_on', channel=3, note=72, velocity=0, time=48),\n",
      "    Message('note_on', channel=3, note=76, velocity=94, time=12),\n",
      "    Message('note_on', channel=3, note=76, velocity=0, time=48),\n",
      "    Message('note_on', channel=3, note=74, velocity=94, time=12),\n",
      "    Message('note_on', channel=3, note=74, velocity=0, time=48),\n",
      "    Message('note_on', channel=3, note=74, velocity=94, time=12),\n",
      "    Message('note_on', channel=3, note=74, velocity=0, time=48),\n",
      "    Message('note_on', channel=3, note=79, velocity=94, time=12),\n",
      "    Message('note_on', channel=3, note=79, velocity=0, time=48),\n",
      "    Message('note_on', channel=3, note=78, velocity=94, time=12),\n",
      "    Message('note_on', channel=3, note=78, velocity=0, time=48),\n",
      "    Message('note_on', channel=3, note=79, velocity=94, time=12),\n",
      "    Message('note_on', channel=3, note=79, velocity=0, time=48),\n",
      "    Message('note_on', channel=3, note=74, velocity=94, time=12),\n",
      "    Message('note_on', channel=3, note=74, velocity=0, time=48),\n",
      "    Message('note_on', channel=3, note=71, velocity=94, time=12),\n",
      "    Message('note_on', channel=3, note=71, velocity=0, time=48),\n",
      "    Message('note_on', channel=3, note=67, velocity=94, time=12),\n",
      "    Message('note_on', channel=3, note=67, velocity=0, time=48),\n",
      "    Message('note_on', channel=3, note=69, velocity=94, time=12),\n",
      "    Message('note_on', channel=3, note=69, velocity=0, time=48),\n",
      "    Message('note_on', channel=3, note=71, velocity=94, time=12),\n",
      "    Message('note_on', channel=3, note=71, velocity=0, time=48),\n",
      "    Message('note_on', channel=3, note=72, velocity=94, time=12),\n",
      "    Message('note_on', channel=3, note=72, velocity=0, time=48),\n",
      "    Message('note_on', channel=3, note=74, velocity=94, time=12),\n",
      "    Message('note_on', channel=3, note=74, velocity=0, time=48),\n",
      "    Message('note_on', channel=3, note=76, velocity=94, time=12),\n",
      "    Message('note_on', channel=3, note=76, velocity=0, time=48),\n",
      "    Message('note_on', channel=3, note=74, velocity=94, time=12),\n",
      "    Message('note_on', channel=3, note=74, velocity=0, time=48),\n",
      "    Message('note_on', channel=3, note=72, velocity=94, time=12),\n",
      "    Message('note_on', channel=3, note=72, velocity=0, time=48),\n",
      "    Message('note_on', channel=3, note=71, velocity=94, time=12),\n",
      "    Message('note_on', channel=3, note=71, velocity=0, time=48),\n",
      "    Message('note_on', channel=3, note=69, velocity=94, time=12),\n",
      "    Message('note_on', channel=3, note=69, velocity=0, time=48),\n",
      "    Message('note_on', channel=3, note=71, velocity=94, time=12),\n",
      "    Message('note_on', channel=3, note=71, velocity=0, time=48),\n",
      "    Message('note_on', channel=3, note=67, velocity=94, time=12),\n",
      "    Message('note_on', channel=3, note=67, velocity=0, time=48),\n",
      "    Message('note_on', channel=3, note=66, velocity=94, time=12),\n",
      "    Message('note_on', channel=3, note=66, velocity=0, time=48),\n",
      "    Message('note_on', channel=3, note=67, velocity=94, time=12),\n",
      "    Message('note_on', channel=3, note=67, velocity=0, time=48),\n",
      "    Message('note_on', channel=3, note=69, velocity=94, time=12),\n",
      "    Message('note_on', channel=3, note=69, velocity=0, time=48),\n",
      "    Message('note_on', channel=3, note=62, velocity=94, time=12),\n",
      "    Message('note_on', channel=3, note=62, velocity=0, time=48),\n",
      "    Message('note_on', channel=3, note=66, velocity=94, time=12),\n",
      "    Message('note_on', channel=3, note=66, velocity=0, time=48),\n",
      "    Message('note_on', channel=3, note=69, velocity=94, time=12),\n",
      "    Message('note_on', channel=3, note=69, velocity=0, time=48),\n",
      "    Message('note_on', channel=3, note=72, velocity=94, time=12),\n",
      "    Message('note_on', channel=3, note=72, velocity=0, time=48),\n",
      "    Message('note_on', channel=3, note=71, velocity=94, time=12),\n",
      "    Message('note_on', channel=3, note=71, velocity=0, time=48),\n",
      "    Message('note_on', channel=3, note=69, velocity=94, time=12),\n",
      "    Message('note_on', channel=3, note=69, velocity=0, time=48),\n",
      "    Message('note_on', channel=3, note=71, velocity=94, time=12),\n",
      "    Message('note_on', channel=3, note=71, velocity=0, time=48),\n",
      "    Message('note_on', channel=3, note=67, velocity=94, time=12),\n",
      "    Message('note_on', channel=3, note=67, velocity=0, time=48),\n",
      "    Message('note_on', channel=3, note=69, velocity=94, time=12),\n",
      "    Message('note_on', channel=3, note=69, velocity=0, time=48),\n",
      "    Message('note_on', channel=3, note=71, velocity=94, time=12),\n",
      "    Message('note_on', channel=3, note=71, velocity=0, time=48),\n",
      "    Message('note_on', channel=3, note=74, velocity=94, time=12),\n",
      "    Message('note_on', channel=3, note=74, velocity=0, time=48),\n",
      "    Message('note_on', channel=3, note=72, velocity=94, time=12),\n",
      "    Message('note_on', channel=3, note=72, velocity=0, time=48),\n",
      "    Message('note_on', channel=3, note=72, velocity=94, time=12),\n",
      "    Message('note_on', channel=3, note=72, velocity=0, time=48),\n",
      "    Message('note_on', channel=3, note=76, velocity=94, time=12),\n",
      "    Message('note_on', channel=3, note=76, velocity=0, time=48),\n",
      "    Message('note_on', channel=3, note=74, velocity=94, time=12),\n",
      "    Message('note_on', channel=3, note=74, velocity=0, time=48),\n",
      "    Message('note_on', channel=3, note=74, velocity=94, time=12),\n",
      "    Message('note_on', channel=3, note=74, velocity=0, time=48),\n",
      "    Message('note_on', channel=3, note=79, velocity=94, time=12),\n",
      "    Message('note_on', channel=3, note=79, velocity=0, time=48),\n",
      "    Message('note_on', channel=3, note=78, velocity=94, time=12),\n",
      "    Message('note_on', channel=3, note=78, velocity=0, time=48),\n",
      "    Message('note_on', channel=3, note=79, velocity=94, time=12),\n",
      "    Message('note_on', channel=3, note=79, velocity=0, time=48),\n",
      "    Message('note_on', channel=3, note=74, velocity=94, time=12),\n",
      "    Message('note_on', channel=3, note=74, velocity=0, time=48),\n",
      "    Message('note_on', channel=3, note=71, velocity=94, time=12),\n",
      "    Message('note_on', channel=3, note=71, velocity=0, time=48),\n",
      "    Message('note_on', channel=3, note=67, velocity=94, time=12),\n",
      "    Message('note_on', channel=3, note=67, velocity=0, time=48),\n",
      "    Message('note_on', channel=3, note=69, velocity=94, time=12),\n",
      "    Message('note_on', channel=3, note=69, velocity=0, time=48),\n",
      "    Message('note_on', channel=3, note=71, velocity=94, time=12),\n",
      "    Message('note_on', channel=3, note=71, velocity=0, time=48),\n",
      "    Message('note_on', channel=3, note=64, velocity=94, time=12),\n",
      "    Message('note_on', channel=3, note=64, velocity=0, time=48),\n",
      "    Message('note_on', channel=3, note=74, velocity=94, time=12),\n",
      "    Message('note_on', channel=3, note=74, velocity=0, time=48),\n",
      "    Message('note_on', channel=3, note=72, velocity=94, time=12),\n",
      "    Message('note_on', channel=3, note=72, velocity=0, time=48),\n",
      "    Message('note_on', channel=3, note=71, velocity=94, time=12),\n",
      "    Message('note_on', channel=3, note=71, velocity=0, time=48),\n",
      "    Message('note_on', channel=3, note=69, velocity=94, time=12),\n",
      "    Message('note_on', channel=3, note=69, velocity=0, time=48),\n",
      "    Message('note_on', channel=3, note=67, velocity=94, time=12),\n",
      "    Message('note_on', channel=3, note=67, velocity=0, time=48),\n",
      "    Message('note_on', channel=3, note=62, velocity=94, time=12),\n",
      "    Message('note_on', channel=3, note=62, velocity=0, time=48),\n",
      "    Message('note_on', channel=3, note=67, velocity=94, time=12),\n",
      "    Message('note_on', channel=3, note=67, velocity=0, time=48),\n",
      "    Message('note_on', channel=3, note=66, velocity=94, time=12),\n",
      "    Message('note_on', channel=3, note=66, velocity=0, time=48),\n",
      "    Message('note_on', channel=3, note=67, velocity=94, time=12),\n",
      "    Message('note_on', channel=3, note=67, velocity=0, time=48),\n",
      "    Message('note_on', channel=3, note=71, velocity=94, time=12),\n",
      "    Message('note_on', channel=3, note=71, velocity=0, time=48),\n",
      "    Message('note_on', channel=3, note=74, velocity=94, time=12),\n",
      "    Message('note_on', channel=3, note=74, velocity=0, time=48),\n",
      "    Message('note_on', channel=3, note=79, velocity=94, time=12),\n",
      "    Message('note_on', channel=3, note=79, velocity=0, time=48),\n",
      "    Message('note_on', channel=3, note=74, velocity=94, time=12),\n",
      "    Message('note_on', channel=3, note=74, velocity=0, time=48),\n",
      "    Message('note_on', channel=3, note=71, velocity=94, time=12),\n",
      "    Message('note_on', channel=3, note=71, velocity=0, time=48),\n",
      "    Message('note_on', channel=3, note=67, velocity=94, time=12),\n",
      "    Message('note_on', channel=3, note=67, velocity=0, time=48),\n",
      "    Message('note_on', channel=3, note=71, velocity=94, time=12),\n",
      "    Message('note_on', channel=3, note=71, velocity=0, time=48),\n",
      "    Message('note_on', channel=3, note=74, velocity=94, time=12),\n",
      "    Message('note_on', channel=3, note=74, velocity=0, time=48),\n",
      "    Message('note_on', channel=3, note=62, velocity=94, time=12),\n",
      "    Message('note_on', channel=3, note=71, velocity=94, time=0),\n",
      "    Message('note_on', channel=3, note=67, velocity=94, time=0),\n",
      "    Message('note_on', channel=3, note=62, velocity=0, time=336),\n",
      "    Message('note_on', channel=3, note=71, velocity=0, time=0),\n",
      "    Message('note_on', channel=3, note=67, velocity=0, time=0),\n",
      "    Message('note_on', channel=3, note=64, velocity=94, time=24),\n",
      "    Message('note_on', channel=3, note=67, velocity=94, time=0),\n",
      "    Message('note_on', channel=3, note=60, velocity=94, time=0),\n",
      "    Message('note_on', channel=3, note=72, velocity=94, time=0),\n",
      "    Message('note_on', channel=3, note=64, velocity=0, time=168),\n",
      "    Message('note_on', channel=3, note=67, velocity=0, time=0),\n",
      "    Message('note_on', channel=3, note=60, velocity=0, time=0),\n",
      "    Message('note_on', channel=3, note=72, velocity=0, time=0),\n",
      "    Message('note_on', channel=3, note=74, velocity=94, time=12),\n",
      "    Message('note_on', channel=3, note=74, velocity=0, time=336),\n",
      "    Message('note_on', channel=3, note=66, velocity=94, time=24),\n",
      "    Message('note_on', channel=3, note=71, velocity=94, time=0),\n",
      "    Message('note_on', channel=3, note=74, velocity=94, time=0),\n",
      "    Message('note_on', channel=3, note=62, velocity=94, time=0),\n",
      "    Message('note_on', channel=3, note=66, velocity=0, time=168),\n",
      "    Message('note_on', channel=3, note=71, velocity=0, time=0),\n",
      "    Message('note_on', channel=3, note=74, velocity=0, time=0),\n",
      "    Message('note_on', channel=3, note=62, velocity=0, time=0),\n",
      "    Message('note_on', channel=3, note=72, velocity=94, time=12),\n",
      "    Message('note_on', channel=3, note=72, velocity=0, time=336),\n",
      "    Message('note_on', channel=3, note=67, velocity=94, time=24),\n",
      "    Message('note_on', channel=3, note=62, velocity=94, time=0),\n",
      "    Message('note_on', channel=3, note=71, velocity=94, time=0),\n",
      "    Message('note_on', channel=3, note=67, velocity=0, time=168),\n",
      "    Message('note_on', channel=3, note=62, velocity=0, time=0),\n",
      "    Message('note_on', channel=3, note=71, velocity=0, time=0),\n",
      "    Message('note_on', channel=3, note=66, velocity=94, time=12),\n",
      "    Message('note_on', channel=3, note=69, velocity=94, time=0),\n",
      "    Message('note_on', channel=3, note=66, velocity=0, time=48),\n",
      "    Message('note_on', channel=3, note=69, velocity=0, time=0),\n",
      "    Message('note_on', channel=3, note=62, velocity=94, time=12),\n",
      "    Message('note_on', channel=3, note=62, velocity=0, time=48),\n",
      "    Message('note_on', channel=3, note=64, velocity=94, time=12),\n",
      "    Message('note_on', channel=3, note=64, velocity=0, time=48),\n",
      "    Message('note_on', channel=3, note=66, velocity=94, time=12),\n",
      "    Message('note_on', channel=3, note=69, velocity=94, time=0),\n",
      "    Message('note_on', channel=3, note=66, velocity=0, time=48),\n",
      "    Message('note_on', channel=3, note=69, velocity=0, time=0),\n",
      "    Message('note_on', channel=3, note=69, velocity=94, time=12),\n",
      "    Message('note_on', channel=3, note=69, velocity=0, time=48),\n",
      "    Message('note_on', channel=3, note=67, velocity=94, time=12),\n",
      "    Message('note_on', channel=3, note=67, velocity=0, time=48),\n",
      "    Message('note_on', channel=3, note=69, velocity=94, time=12),\n",
      "    Message('note_on', channel=3, note=69, velocity=0, time=48),\n",
      "    Message('note_on', channel=3, note=72, velocity=94, time=12),\n",
      "    Message('note_on', channel=3, note=72, velocity=0, time=48),\n",
      "    Message('note_on', channel=3, note=71, velocity=94, time=12),\n",
      "    Message('note_on', channel=3, note=71, velocity=0, time=48),\n",
      "    Message('note_on', channel=3, note=72, velocity=94, time=12),\n",
      "    Message('note_on', channel=3, note=72, velocity=0, time=48),\n",
      "    Message('note_on', channel=3, note=69, velocity=94, time=12),\n",
      "    Message('note_on', channel=3, note=69, velocity=0, time=48),\n",
      "    Message('note_on', channel=3, note=66, velocity=94, time=12),\n",
      "    Message('note_on', channel=3, note=66, velocity=0, time=48),\n",
      "    Message('note_on', channel=3, note=62, velocity=94, time=12),\n",
      "    Message('note_on', channel=3, note=62, velocity=0, time=48),\n",
      "    Message('note_on', channel=3, note=66, velocity=94, time=12),\n",
      "    Message('note_on', channel=3, note=66, velocity=0, time=48),\n",
      "    Message('note_on', channel=3, note=69, velocity=94, time=12),\n",
      "    Message('note_on', channel=3, note=69, velocity=0, time=48),\n",
      "    Message('note_on', channel=3, note=72, velocity=94, time=12),\n",
      "    Message('note_on', channel=3, note=72, velocity=0, time=48),\n",
      "    Message('note_on', channel=3, note=71, velocity=94, time=12),\n",
      "    Message('note_on', channel=3, note=71, velocity=0, time=48),\n",
      "    Message('note_on', channel=3, note=69, velocity=94, time=12),\n",
      "    Message('note_on', channel=3, note=69, velocity=0, time=48),\n",
      "    Message('note_on', channel=3, note=67, velocity=94, time=12),\n",
      "    Message('note_on', channel=3, note=71, velocity=94, time=0),\n",
      "    Message('note_on', channel=3, note=67, velocity=0, time=336),\n",
      "    Message('note_on', channel=3, note=71, velocity=0, time=0),\n",
      "    Message('note_on', channel=3, note=64, velocity=94, time=24),\n",
      "    Message('note_on', channel=3, note=72, velocity=94, time=0),\n",
      "    Message('note_on', channel=3, note=67, velocity=94, time=0),\n",
      "    Message('note_on', channel=3, note=60, velocity=94, time=0),\n",
      "    Message('note_on', channel=3, note=64, velocity=0, time=168),\n",
      "    Message('note_on', channel=3, note=72, velocity=0, time=0),\n",
      "    Message('note_on', channel=3, note=67, velocity=0, time=0),\n",
      "    Message('note_on', channel=3, note=60, velocity=0, time=0),\n",
      "    Message('note_on', channel=3, note=67, velocity=94, time=12),\n",
      "    Message('note_on', channel=3, note=62, velocity=94, time=0),\n",
      "    Message('note_on', channel=3, note=74, velocity=94, time=0),\n",
      "    Message('note_on', channel=3, note=67, velocity=0, time=336),\n",
      "    Message('note_on', channel=3, note=62, velocity=0, time=0),\n",
      "    Message('note_on', channel=3, note=74, velocity=0, time=0),\n",
      "    Message('note_on', channel=3, note=67, velocity=94, time=24),\n",
      "    Message('note_on', channel=3, note=64, velocity=94, time=0),\n",
      "    Message('note_on', channel=3, note=71, velocity=94, time=0),\n",
      "    Message('note_on', channel=3, note=67, velocity=0, time=168),\n",
      "    Message('note_on', channel=3, note=64, velocity=0, time=0),\n",
      "    Message('note_on', channel=3, note=71, velocity=0, time=0),\n",
      "    Message('note_on', channel=3, note=69, velocity=53, time=12),\n",
      "    Message('note_on', channel=3, note=69, velocity=0, time=116),\n",
      "    Message('note_on', channel=3, note=71, velocity=64, time=4),\n",
      "    Message('note_on', channel=3, note=72, velocity=58, time=30),\n",
      "    Message('note_on', channel=3, note=71, velocity=0, time=14),\n",
      "    Message('note_on', channel=3, note=71, velocity=55, time=16),\n",
      "    Message('note_on', channel=3, note=66, velocity=57, time=0),\n",
      "    Message('note_on', channel=3, note=62, velocity=45, time=0),\n",
      "    Message('note_on', channel=3, note=72, velocity=0, time=14),\n",
      "    Message('note_on', channel=3, note=66, velocity=45, time=166),\n",
      "    Message('note_on', channel=3, note=60, velocity=36, time=0),\n",
      "    Message('note_on', channel=3, note=69, velocity=35, time=0),\n",
      "    Message('note_on', channel=3, note=71, velocity=0, time=8),\n",
      "    Message('note_on', channel=3, note=66, velocity=0, time=0),\n",
      "    Message('note_on', channel=3, note=62, velocity=0, time=0),\n",
      "    Message('note_on', channel=3, note=67, velocity=94, time=172),\n",
      "    Message('note_on', channel=3, note=66, velocity=0, time=8),\n",
      "    Message('note_on', channel=3, note=60, velocity=0, time=0),\n",
      "    Message('note_on', channel=3, note=69, velocity=0, time=0),\n",
      "    Message('note_on', channel=3, note=67, velocity=0, time=40),\n",
      "    Message('note_on', channel=3, note=71, velocity=94, time=12),\n",
      "    Message('note_on', channel=3, note=71, velocity=0, time=48),\n",
      "    Message('note_on', channel=3, note=69, velocity=94, time=12),\n",
      "    Message('note_on', channel=3, note=69, velocity=0, time=48),\n",
      "    Message('note_on', channel=3, note=71, velocity=94, time=12),\n",
      "    Message('note_on', channel=3, note=71, velocity=0, time=48),\n",
      "    Message('note_on', channel=3, note=74, velocity=94, time=12),\n",
      "    Message('note_on', channel=3, note=74, velocity=0, time=48),\n",
      "    Message('note_on', channel=3, note=72, velocity=94, time=12),\n",
      "    Message('note_on', channel=3, note=72, velocity=0, time=48),\n",
      "    Message('note_on', channel=3, note=72, velocity=94, time=12),\n",
      "    Message('note_on', channel=3, note=72, velocity=0, time=48),\n",
      "    Message('note_on', channel=3, note=76, velocity=94, time=12),\n",
      "    Message('note_on', channel=3, note=76, velocity=0, time=48),\n",
      "    Message('note_on', channel=3, note=74, velocity=94, time=12),\n",
      "    Message('note_on', channel=3, note=74, velocity=0, time=48),\n",
      "    Message('note_on', channel=3, note=74, velocity=94, time=12),\n",
      "    Message('note_on', channel=3, note=74, velocity=0, time=48),\n",
      "    Message('note_on', channel=3, note=79, velocity=94, time=12),\n",
      "    Message('note_on', channel=3, note=79, velocity=0, time=48),\n",
      "    Message('note_on', channel=3, note=78, velocity=94, time=12),\n",
      "    Message('note_on', channel=3, note=78, velocity=0, time=48),\n",
      "    Message('note_on', channel=3, note=79, velocity=94, time=12),\n",
      "    Message('note_on', channel=3, note=79, velocity=0, time=48),\n",
      "    Message('note_on', channel=3, note=74, velocity=94, time=12),\n",
      "    Message('note_on', channel=3, note=74, velocity=0, time=48),\n",
      "    Message('note_on', channel=3, note=71, velocity=94, time=12),\n",
      "    Message('note_on', channel=3, note=71, velocity=0, time=48),\n",
      "    Message('note_on', channel=3, note=67, velocity=94, time=12),\n",
      "    Message('note_on', channel=3, note=67, velocity=0, time=48),\n",
      "    Message('note_on', channel=3, note=69, velocity=94, time=12),\n",
      "    Message('note_on', channel=3, note=69, velocity=0, time=48),\n",
      "    Message('note_on', channel=3, note=71, velocity=94, time=12),\n",
      "    Message('note_on', channel=3, note=71, velocity=0, time=48),\n",
      "    Message('note_on', channel=3, note=72, velocity=94, time=12),\n",
      "    Message('note_on', channel=3, note=72, velocity=0, time=48),\n",
      "    Message('note_on', channel=3, note=74, velocity=94, time=12),\n",
      "    Message('note_on', channel=3, note=74, velocity=0, time=48),\n",
      "    Message('note_on', channel=3, note=76, velocity=94, time=12),\n",
      "    Message('note_on', channel=3, note=76, velocity=0, time=48),\n",
      "    Message('note_on', channel=3, note=74, velocity=94, time=12),\n",
      "    Message('note_on', channel=3, note=74, velocity=0, time=48),\n",
      "    Message('note_on', channel=3, note=72, velocity=94, time=12),\n",
      "    Message('note_on', channel=3, note=72, velocity=0, time=48),\n",
      "    Message('note_on', channel=3, note=71, velocity=94, time=12),\n",
      "    Message('note_on', channel=3, note=71, velocity=0, time=48),\n",
      "    Message('note_on', channel=3, note=69, velocity=94, time=12),\n",
      "    Message('note_on', channel=3, note=69, velocity=0, time=48),\n",
      "    Message('note_on', channel=3, note=71, velocity=94, time=12),\n",
      "    Message('note_on', channel=3, note=71, velocity=0, time=48),\n",
      "    Message('note_on', channel=3, note=67, velocity=94, time=12),\n",
      "    Message('note_on', channel=3, note=67, velocity=0, time=48),\n",
      "    Message('note_on', channel=3, note=66, velocity=94, time=12),\n",
      "    Message('note_on', channel=3, note=66, velocity=0, time=48),\n",
      "    Message('note_on', channel=3, note=67, velocity=94, time=12),\n",
      "    Message('note_on', channel=3, note=67, velocity=0, time=48),\n",
      "    Message('note_on', channel=3, note=69, velocity=94, time=12),\n",
      "    Message('note_on', channel=3, note=69, velocity=0, time=48),\n",
      "    Message('note_on', channel=3, note=62, velocity=94, time=12),\n",
      "    Message('note_on', channel=3, note=62, velocity=0, time=48),\n",
      "    Message('note_on', channel=3, note=66, velocity=94, time=12),\n",
      "    Message('note_on', channel=3, note=66, velocity=0, time=48),\n",
      "    Message('note_on', channel=3, note=69, velocity=94, time=12),\n",
      "    Message('note_on', channel=3, note=69, velocity=0, time=48),\n",
      "    Message('note_on', channel=3, note=72, velocity=94, time=12),\n",
      "    Message('note_on', channel=3, note=72, velocity=0, time=48),\n",
      "    Message('note_on', channel=3, note=71, velocity=94, time=12),\n",
      "    Message('note_on', channel=3, note=71, velocity=0, time=48),\n",
      "    Message('note_on', channel=3, note=69, velocity=94, time=12),\n",
      "    Message('note_on', channel=3, note=69, velocity=0, time=48),\n",
      "    Message('note_on', channel=3, note=71, velocity=94, time=12),\n",
      "    Message('note_on', channel=3, note=71, velocity=0, time=48),\n",
      "    Message('note_on', channel=3, note=67, velocity=94, time=12),\n",
      "    Message('note_on', channel=3, note=67, velocity=0, time=48),\n",
      "    Message('note_on', channel=3, note=69, velocity=94, time=12),\n",
      "    Message('note_on', channel=3, note=69, velocity=0, time=48),\n",
      "    Message('note_on', channel=3, note=71, velocity=94, time=12),\n",
      "    Message('note_on', channel=3, note=71, velocity=0, time=48),\n",
      "    Message('note_on', channel=3, note=74, velocity=94, time=12),\n",
      "    Message('note_on', channel=3, note=74, velocity=0, time=48),\n",
      "    Message('note_on', channel=3, note=72, velocity=94, time=12),\n",
      "    Message('note_on', channel=3, note=72, velocity=0, time=48),\n",
      "    Message('note_on', channel=3, note=72, velocity=94, time=12),\n",
      "    Message('note_on', channel=3, note=72, velocity=0, time=48),\n",
      "    Message('note_on', channel=3, note=76, velocity=94, time=12),\n",
      "    Message('note_on', channel=3, note=76, velocity=0, time=48),\n",
      "    Message('note_on', channel=3, note=74, velocity=94, time=12),\n",
      "    Message('note_on', channel=3, note=74, velocity=0, time=48),\n",
      "    Message('note_on', channel=3, note=74, velocity=94, time=12),\n",
      "    Message('note_on', channel=3, note=74, velocity=0, time=48),\n",
      "    Message('note_on', channel=3, note=79, velocity=94, time=12),\n",
      "    Message('note_on', channel=3, note=79, velocity=0, time=48),\n",
      "    Message('note_on', channel=3, note=78, velocity=94, time=12),\n",
      "    Message('note_on', channel=3, note=78, velocity=0, time=48),\n",
      "    Message('note_on', channel=3, note=79, velocity=94, time=12),\n",
      "    Message('note_on', channel=3, note=79, velocity=0, time=48),\n",
      "    Message('note_on', channel=3, note=74, velocity=94, time=12),\n",
      "    Message('note_on', channel=3, note=74, velocity=0, time=48),\n",
      "    Message('note_on', channel=3, note=71, velocity=94, time=12),\n",
      "    Message('note_on', channel=3, note=71, velocity=0, time=48),\n",
      "    Message('note_on', channel=3, note=67, velocity=94, time=12),\n",
      "    Message('note_on', channel=3, note=67, velocity=0, time=48),\n",
      "    Message('note_on', channel=3, note=69, velocity=94, time=12),\n",
      "    Message('note_on', channel=3, note=69, velocity=0, time=48),\n",
      "    Message('note_on', channel=3, note=71, velocity=94, time=12),\n",
      "    Message('note_on', channel=3, note=71, velocity=0, time=48),\n",
      "    Message('note_on', channel=3, note=64, velocity=94, time=12),\n",
      "    Message('note_on', channel=3, note=64, velocity=0, time=48),\n",
      "    Message('note_on', channel=3, note=74, velocity=94, time=12),\n",
      "    Message('note_on', channel=3, note=74, velocity=0, time=48),\n",
      "    Message('note_on', channel=3, note=72, velocity=94, time=12),\n",
      "    Message('note_on', channel=3, note=72, velocity=0, time=48),\n",
      "    Message('note_on', channel=3, note=71, velocity=94, time=12),\n",
      "    Message('note_on', channel=3, note=71, velocity=0, time=48),\n",
      "    Message('note_on', channel=3, note=69, velocity=94, time=12),\n",
      "    Message('note_on', channel=3, note=69, velocity=0, time=48),\n",
      "    Message('note_on', channel=3, note=67, velocity=94, time=12),\n",
      "    Message('note_on', channel=3, note=67, velocity=0, time=48),\n",
      "    Message('note_on', channel=3, note=62, velocity=94, time=12),\n",
      "    Message('note_on', channel=3, note=62, velocity=0, time=48),\n",
      "    Message('note_on', channel=3, note=67, velocity=94, time=12),\n",
      "    Message('note_on', channel=3, note=67, velocity=0, time=48),\n",
      "    Message('note_on', channel=3, note=66, velocity=94, time=12),\n",
      "    Message('note_on', channel=3, note=66, velocity=0, time=48),\n",
      "    Message('note_on', channel=3, note=67, velocity=94, time=12),\n",
      "    Message('note_on', channel=3, note=71, velocity=94, time=0),\n",
      "    Message('note_on', channel=3, note=67, velocity=0, time=336),\n",
      "    Message('note_on', channel=3, note=71, velocity=0, time=0),\n",
      "    Message('note_on', channel=3, note=64, velocity=94, time=24),\n",
      "    Message('note_on', channel=3, note=60, velocity=94, time=0),\n",
      "    Message('note_on', channel=3, note=67, velocity=94, time=0),\n",
      "    Message('note_on', channel=3, note=72, velocity=94, time=0),\n",
      "    Message('note_on', channel=3, note=64, velocity=0, time=168),\n",
      "    Message('note_on', channel=3, note=60, velocity=0, time=0),\n",
      "    Message('note_on', channel=3, note=67, velocity=0, time=0),\n",
      "    Message('note_on', channel=3, note=72, velocity=0, time=0),\n",
      "    Message('note_on', channel=3, note=74, velocity=94, time=12),\n",
      "    Message('note_on', channel=3, note=74, velocity=0, time=336),\n",
      "    Message('note_on', channel=3, note=66, velocity=94, time=24),\n",
      "    Message('note_on', channel=3, note=71, velocity=94, time=0),\n",
      "    Message('note_on', channel=3, note=74, velocity=94, time=0),\n",
      "    Message('note_on', channel=3, note=62, velocity=94, time=0),\n",
      "    Message('note_on', channel=3, note=66, velocity=0, time=168),\n",
      "    Message('note_on', channel=3, note=71, velocity=0, time=0),\n",
      "    Message('note_on', channel=3, note=74, velocity=0, time=0),\n",
      "    Message('note_on', channel=3, note=62, velocity=0, time=0),\n",
      "    Message('note_on', channel=3, note=72, velocity=94, time=12),\n",
      "    Message('note_on', channel=3, note=72, velocity=0, time=336),\n",
      "    Message('note_on', channel=3, note=67, velocity=94, time=24),\n",
      "    Message('note_on', channel=3, note=62, velocity=94, time=0),\n",
      "    Message('note_on', channel=3, note=71, velocity=94, time=0),\n",
      "    Message('note_on', channel=3, note=67, velocity=0, time=168),\n",
      "    Message('note_on', channel=3, note=62, velocity=0, time=0),\n",
      "    Message('note_on', channel=3, note=71, velocity=0, time=0),\n",
      "    Message('note_on', channel=3, note=66, velocity=94, time=12),\n",
      "    Message('note_on', channel=3, note=69, velocity=94, time=0),\n",
      "    Message('note_on', channel=3, note=66, velocity=0, time=48),\n",
      "    Message('note_on', channel=3, note=69, velocity=0, time=0),\n",
      "    Message('note_on', channel=3, note=62, velocity=94, time=12),\n",
      "    Message('note_on', channel=3, note=62, velocity=0, time=48),\n",
      "    Message('note_on', channel=3, note=64, velocity=94, time=12),\n",
      "    Message('note_on', channel=3, note=64, velocity=0, time=48),\n",
      "    Message('note_on', channel=3, note=66, velocity=94, time=12),\n",
      "    Message('note_on', channel=3, note=69, velocity=94, time=0),\n",
      "    Message('note_on', channel=3, note=66, velocity=0, time=48),\n",
      "    Message('note_on', channel=3, note=69, velocity=0, time=0),\n",
      "    Message('note_on', channel=3, note=69, velocity=94, time=12),\n",
      "    Message('note_on', channel=3, note=69, velocity=0, time=48),\n",
      "    Message('note_on', channel=3, note=67, velocity=94, time=12),\n",
      "    Message('note_on', channel=3, note=67, velocity=0, time=48),\n",
      "    Message('note_on', channel=3, note=69, velocity=94, time=12),\n",
      "    Message('note_on', channel=3, note=69, velocity=0, time=48),\n",
      "    Message('note_on', channel=3, note=72, velocity=94, time=12),\n",
      "    Message('note_on', channel=3, note=72, velocity=0, time=48),\n",
      "    Message('note_on', channel=3, note=71, velocity=94, time=12),\n",
      "    Message('note_on', channel=3, note=71, velocity=0, time=48),\n",
      "    Message('note_on', channel=3, note=72, velocity=94, time=12),\n",
      "    Message('note_on', channel=3, note=72, velocity=0, time=48),\n",
      "    Message('note_on', channel=3, note=69, velocity=94, time=12),\n",
      "    Message('note_on', channel=3, note=69, velocity=0, time=48),\n",
      "    Message('note_on', channel=3, note=66, velocity=94, time=12),\n",
      "    Message('note_on', channel=3, note=66, velocity=0, time=48),\n",
      "    Message('note_on', channel=3, note=62, velocity=94, time=12),\n",
      "    Message('note_on', channel=3, note=62, velocity=0, time=48),\n",
      "    Message('note_on', channel=3, note=66, velocity=94, time=12),\n",
      "    Message('note_on', channel=3, note=66, velocity=0, time=48),\n",
      "    Message('note_on', channel=3, note=69, velocity=94, time=12),\n",
      "    Message('note_on', channel=3, note=69, velocity=0, time=48),\n",
      "    Message('note_on', channel=3, note=72, velocity=94, time=12),\n",
      "    Message('note_on', channel=3, note=72, velocity=0, time=48),\n",
      "    Message('note_on', channel=3, note=71, velocity=94, time=12),\n",
      "    Message('note_on', channel=3, note=71, velocity=0, time=48),\n",
      "    Message('note_on', channel=3, note=69, velocity=94, time=12),\n",
      "    Message('note_on', channel=3, note=69, velocity=0, time=48),\n",
      "    Message('note_on', channel=3, note=71, velocity=94, time=12),\n",
      "    Message('note_on', channel=3, note=67, velocity=94, time=0),\n",
      "    Message('note_on', channel=3, note=71, velocity=0, time=336),\n",
      "    Message('note_on', channel=3, note=67, velocity=0, time=0),\n",
      "    Message('note_on', channel=3, note=64, velocity=94, time=24),\n",
      "    Message('note_on', channel=3, note=60, velocity=94, time=0),\n",
      "    Message('note_on', channel=3, note=67, velocity=94, time=0),\n",
      "    Message('note_on', channel=3, note=72, velocity=94, time=0),\n",
      "    Message('note_on', channel=3, note=64, velocity=0, time=168),\n",
      "    Message('note_on', channel=3, note=60, velocity=0, time=0),\n",
      "    Message('note_on', channel=3, note=67, velocity=0, time=0),\n",
      "    Message('note_on', channel=3, note=72, velocity=0, time=0),\n",
      "    Message('note_on', channel=3, note=67, velocity=94, time=12),\n",
      "    Message('note_on', channel=3, note=74, velocity=94, time=0),\n",
      "    Message('note_on', channel=3, note=62, velocity=94, time=0),\n",
      "    Message('note_on', channel=3, note=67, velocity=0, time=336),\n",
      "    Message('note_on', channel=3, note=74, velocity=0, time=0),\n",
      "    Message('note_on', channel=3, note=62, velocity=0, time=0),\n",
      "    Message('note_on', channel=3, note=67, velocity=94, time=24),\n",
      "    Message('note_on', channel=3, note=64, velocity=94, time=0),\n",
      "    Message('note_on', channel=3, note=71, velocity=94, time=0),\n",
      "    Message('note_on', channel=3, note=67, velocity=0, time=168),\n",
      "    Message('note_on', channel=3, note=64, velocity=0, time=0),\n",
      "    Message('note_on', channel=3, note=71, velocity=0, time=0),\n",
      "    Message('note_on', channel=3, note=69, velocity=94, time=12),\n",
      "    Message('note_on', channel=3, note=69, velocity=0, time=116),\n",
      "    Message('note_on', channel=3, note=71, velocity=94, time=4),\n",
      "    Message('note_on', channel=3, note=72, velocity=94, time=30),\n",
      "    Message('note_on', channel=3, note=71, velocity=0, time=14),\n",
      "    Message('note_on', channel=3, note=66, velocity=94, time=16),\n",
      "    Message('note_on', channel=3, note=71, velocity=94, time=0),\n",
      "    Message('note_on', channel=3, note=62, velocity=94, time=0),\n",
      "    Message('note_on', channel=3, note=72, velocity=0, time=14),\n",
      "    Message('note_on', channel=3, note=66, velocity=0, time=154),\n",
      "    Message('note_on', channel=3, note=71, velocity=0, time=0),\n",
      "    Message('note_on', channel=3, note=62, velocity=0, time=0),\n",
      "    Message('note_on', channel=3, note=66, velocity=94, time=12),\n",
      "    Message('note_on', channel=3, note=60, velocity=94, time=0),\n",
      "    Message('note_on', channel=3, note=69, velocity=94, time=0),\n",
      "    Message('note_on', channel=3, note=66, velocity=0, time=168),\n",
      "    Message('note_on', channel=3, note=60, velocity=0, time=0),\n",
      "    Message('note_on', channel=3, note=69, velocity=0, time=0),\n",
      "    Message('note_on', channel=3, note=67, velocity=94, time=12),\n",
      "    Message('note_on', channel=3, note=67, velocity=0, time=48),\n",
      "    Message('note_on', channel=3, note=71, velocity=94, time=12),\n",
      "    Message('note_on', channel=3, note=71, velocity=0, time=48),\n",
      "    Message('note_on', channel=3, note=69, velocity=94, time=12),\n",
      "    Message('note_on', channel=3, note=69, velocity=0, time=48),\n",
      "    Message('note_on', channel=3, note=71, velocity=94, time=12),\n",
      "    Message('note_on', channel=3, note=71, velocity=0, time=48),\n",
      "    Message('note_on', channel=3, note=74, velocity=94, time=12),\n",
      "    Message('note_on', channel=3, note=74, velocity=0, time=48),\n",
      "    Message('note_on', channel=3, note=72, velocity=94, time=12),\n",
      "    Message('note_on', channel=3, note=72, velocity=0, time=48),\n",
      "    Message('note_on', channel=3, note=72, velocity=94, time=12),\n",
      "    Message('note_on', channel=3, note=72, velocity=0, time=48),\n",
      "    Message('note_on', channel=3, note=76, velocity=94, time=12),\n",
      "    Message('note_on', channel=3, note=76, velocity=0, time=48),\n",
      "    Message('note_on', channel=3, note=74, velocity=94, time=12),\n",
      "    Message('note_on', channel=3, note=74, velocity=0, time=48),\n",
      "    Message('note_on', channel=3, note=74, velocity=94, time=12),\n",
      "    Message('note_on', channel=3, note=74, velocity=0, time=48),\n",
      "    Message('note_on', channel=3, note=79, velocity=94, time=12),\n",
      "    Message('note_on', channel=3, note=79, velocity=0, time=48),\n",
      "    Message('note_on', channel=3, note=78, velocity=94, time=12),\n",
      "    Message('note_on', channel=3, note=78, velocity=0, time=48),\n",
      "    Message('note_on', channel=3, note=79, velocity=94, time=12),\n",
      "    Message('note_on', channel=3, note=79, velocity=0, time=48),\n",
      "    Message('note_on', channel=3, note=74, velocity=94, time=12),\n",
      "    Message('note_on', channel=3, note=74, velocity=0, time=48),\n",
      "    Message('note_on', channel=3, note=71, velocity=94, time=12),\n",
      "    Message('note_on', channel=3, note=71, velocity=0, time=48),\n",
      "    Message('note_on', channel=3, note=67, velocity=94, time=12),\n",
      "    Message('note_on', channel=3, note=67, velocity=0, time=48),\n",
      "    Message('note_on', channel=3, note=69, velocity=94, time=12),\n",
      "    Message('note_on', channel=3, note=69, velocity=0, time=48),\n",
      "    Message('note_on', channel=3, note=71, velocity=94, time=12),\n",
      "    Message('note_on', channel=3, note=71, velocity=0, time=48),\n",
      "    Message('note_on', channel=3, note=72, velocity=94, time=12),\n",
      "    Message('note_on', channel=3, note=72, velocity=0, time=48),\n",
      "    Message('note_on', channel=3, note=74, velocity=94, time=12),\n",
      "    Message('note_on', channel=3, note=74, velocity=0, time=48),\n",
      "    Message('note_on', channel=3, note=76, velocity=94, time=12),\n",
      "    Message('note_on', channel=3, note=76, velocity=0, time=48),\n",
      "    Message('note_on', channel=3, note=74, velocity=94, time=12),\n",
      "    Message('note_on', channel=3, note=74, velocity=0, time=48),\n",
      "    Message('note_on', channel=3, note=72, velocity=94, time=12),\n",
      "    Message('note_on', channel=3, note=72, velocity=0, time=48),\n",
      "    Message('note_on', channel=3, note=71, velocity=94, time=12),\n",
      "    Message('note_on', channel=3, note=71, velocity=0, time=48),\n",
      "    Message('note_on', channel=3, note=69, velocity=94, time=12),\n",
      "    Message('note_on', channel=3, note=69, velocity=0, time=48),\n",
      "    Message('note_on', channel=3, note=71, velocity=94, time=12),\n",
      "    Message('note_on', channel=3, note=71, velocity=0, time=48),\n",
      "    Message('note_on', channel=3, note=67, velocity=94, time=12),\n",
      "    Message('note_on', channel=3, note=67, velocity=0, time=48),\n",
      "    Message('note_on', channel=3, note=66, velocity=94, time=12),\n",
      "    Message('note_on', channel=3, note=66, velocity=0, time=48),\n",
      "    Message('note_on', channel=3, note=67, velocity=94, time=12),\n",
      "    Message('note_on', channel=3, note=67, velocity=0, time=48),\n",
      "    Message('note_on', channel=3, note=69, velocity=94, time=12),\n",
      "    Message('note_on', channel=3, note=69, velocity=0, time=48),\n",
      "    Message('note_on', channel=3, note=62, velocity=94, time=12),\n",
      "    Message('note_on', channel=3, note=62, velocity=0, time=48),\n",
      "    Message('note_on', channel=3, note=66, velocity=94, time=12),\n",
      "    Message('note_on', channel=3, note=66, velocity=0, time=48),\n",
      "    Message('note_on', channel=3, note=69, velocity=94, time=12),\n",
      "    Message('note_on', channel=3, note=69, velocity=0, time=48),\n",
      "    Message('note_on', channel=3, note=72, velocity=94, time=12),\n",
      "    Message('note_on', channel=3, note=72, velocity=0, time=48),\n",
      "    Message('note_on', channel=3, note=71, velocity=94, time=12),\n",
      "    Message('note_on', channel=3, note=71, velocity=0, time=48),\n",
      "    Message('note_on', channel=3, note=69, velocity=94, time=12),\n",
      "    Message('note_on', channel=3, note=69, velocity=0, time=48),\n",
      "    Message('note_on', channel=3, note=71, velocity=94, time=12),\n",
      "    Message('note_on', channel=3, note=71, velocity=0, time=48),\n",
      "    Message('note_on', channel=3, note=67, velocity=94, time=12),\n",
      "    Message('note_on', channel=3, note=67, velocity=0, time=48),\n",
      "    Message('note_on', channel=3, note=69, velocity=94, time=12),\n",
      "    Message('note_on', channel=3, note=69, velocity=0, time=48),\n",
      "    Message('note_on', channel=3, note=71, velocity=94, time=12),\n",
      "    Message('note_on', channel=3, note=71, velocity=0, time=48),\n",
      "    Message('note_on', channel=3, note=74, velocity=94, time=12),\n",
      "    Message('note_on', channel=3, note=74, velocity=0, time=48),\n",
      "    Message('note_on', channel=3, note=72, velocity=94, time=12),\n",
      "    Message('note_on', channel=3, note=72, velocity=0, time=48),\n",
      "    Message('note_on', channel=3, note=72, velocity=94, time=12),\n",
      "    Message('note_on', channel=3, note=72, velocity=0, time=48),\n",
      "    Message('note_on', channel=3, note=76, velocity=94, time=12),\n",
      "    Message('note_on', channel=3, note=76, velocity=0, time=48),\n",
      "    Message('note_on', channel=3, note=74, velocity=94, time=12),\n",
      "    Message('note_on', channel=3, note=74, velocity=0, time=48),\n",
      "    Message('note_on', channel=3, note=74, velocity=94, time=12),\n",
      "    Message('note_on', channel=3, note=74, velocity=0, time=48),\n",
      "    Message('note_on', channel=3, note=79, velocity=94, time=12),\n",
      "    Message('note_on', channel=3, note=79, velocity=0, time=48),\n",
      "    Message('note_on', channel=3, note=78, velocity=94, time=12),\n",
      "    Message('note_on', channel=3, note=78, velocity=0, time=48),\n",
      "    Message('note_on', channel=3, note=79, velocity=94, time=12),\n",
      "    Message('note_on', channel=3, note=79, velocity=0, time=48),\n",
      "    Message('note_on', channel=3, note=74, velocity=94, time=12),\n",
      "    Message('note_on', channel=3, note=74, velocity=0, time=48),\n",
      "    Message('note_on', channel=3, note=71, velocity=94, time=12),\n",
      "    Message('note_on', channel=3, note=71, velocity=0, time=48),\n",
      "    Message('note_on', channel=3, note=67, velocity=94, time=12),\n",
      "    Message('note_on', channel=3, note=67, velocity=0, time=48),\n",
      "    Message('note_on', channel=3, note=69, velocity=94, time=12),\n",
      "    Message('note_on', channel=3, note=69, velocity=0, time=48),\n",
      "    Message('note_on', channel=3, note=71, velocity=94, time=12),\n",
      "    Message('note_on', channel=3, note=71, velocity=0, time=48),\n",
      "    Message('note_on', channel=3, note=64, velocity=94, time=12),\n",
      "    Message('note_on', channel=3, note=64, velocity=0, time=48),\n",
      "    Message('note_on', channel=3, note=74, velocity=94, time=12),\n",
      "    Message('note_on', channel=3, note=74, velocity=0, time=48),\n",
      "    Message('note_on', channel=3, note=72, velocity=94, time=12),\n",
      "    Message('note_on', channel=3, note=72, velocity=0, time=48),\n",
      "    Message('note_on', channel=3, note=71, velocity=94, time=12),\n",
      "    Message('note_on', channel=3, note=71, velocity=0, time=48),\n",
      "    Message('note_on', channel=3, note=69, velocity=94, time=12),\n",
      "    Message('note_on', channel=3, note=69, velocity=0, time=48),\n",
      "    Message('note_on', channel=3, note=67, velocity=94, time=12),\n",
      "    Message('note_on', channel=3, note=67, velocity=0, time=48),\n",
      "    Message('note_on', channel=3, note=62, velocity=94, time=12),\n",
      "    Message('note_on', channel=3, note=62, velocity=0, time=48),\n",
      "    Message('note_on', channel=3, note=67, velocity=94, time=12),\n",
      "    Message('note_on', channel=3, note=67, velocity=0, time=48),\n",
      "    Message('note_on', channel=3, note=66, velocity=94, time=12),\n",
      "    Message('note_on', channel=3, note=66, velocity=0, time=48),\n",
      "    Message('note_on', channel=3, note=67, velocity=94, time=12),\n",
      "    Message('note_on', channel=3, note=67, velocity=0, time=48),\n",
      "    Message('note_on', channel=3, note=71, velocity=94, time=12),\n",
      "    Message('note_on', channel=3, note=71, velocity=0, time=48),\n",
      "    Message('note_on', channel=3, note=74, velocity=94, time=12),\n",
      "    Message('note_on', channel=3, note=74, velocity=0, time=48),\n",
      "    Message('note_on', channel=3, note=79, velocity=94, time=12),\n",
      "    Message('note_on', channel=3, note=79, velocity=0, time=48),\n",
      "    Message('note_on', channel=3, note=74, velocity=94, time=12),\n",
      "    Message('note_on', channel=3, note=74, velocity=0, time=48),\n",
      "    Message('note_on', channel=3, note=71, velocity=94, time=12),\n",
      "    Message('note_on', channel=3, note=71, velocity=0, time=48),\n",
      "    Message('note_on', channel=3, note=67, velocity=94, time=12),\n",
      "    Message('note_on', channel=3, note=67, velocity=0, time=168),\n",
      "    Message('note_on', channel=3, note=66, velocity=84, time=13),\n",
      "    Message('note_on', channel=3, note=69, velocity=84, time=0),\n",
      "    Message('note_on', channel=3, note=66, velocity=0, time=336),\n",
      "    Message('note_on', channel=3, note=69, velocity=0, time=0),\n",
      "    Message('note_on', channel=3, note=68, velocity=84, time=24),\n",
      "    Message('note_on', channel=3, note=71, velocity=84, time=0),\n",
      "    Message('note_on', channel=3, note=62, velocity=84, time=0),\n",
      "    Message('note_on', channel=3, note=68, velocity=0, time=168),\n",
      "    Message('note_on', channel=3, note=71, velocity=0, time=0),\n",
      "    Message('note_on', channel=3, note=62, velocity=0, time=0),\n",
      "    Message('note_on', channel=3, note=72, velocity=84, time=12),\n",
      "    Message('note_on', channel=3, note=64, velocity=84, time=0),\n",
      "    Message('note_on', channel=3, note=69, velocity=84, time=0),\n",
      "    Message('note_on', channel=3, note=72, velocity=0, time=336),\n",
      "    Message('note_on', channel=3, note=64, velocity=0, time=0),\n",
      "    Message('note_on', channel=3, note=69, velocity=0, time=0),\n",
      "    Message('note_on', channel=3, note=69, velocity=84, time=24),\n",
      "    Message('note_on', channel=3, note=64, velocity=84, time=0),\n",
      "    Message('note_on', channel=3, note=72, velocity=84, time=0),\n",
      "    Message('note_on', channel=3, note=69, velocity=0, time=168),\n",
      "    Message('note_on', channel=3, note=64, velocity=0, time=0),\n",
      "    Message('note_on', channel=3, note=72, velocity=0, time=0),\n",
      "    Message('note_on', channel=3, note=71, velocity=84, time=12),\n",
      "    Message('note_on', channel=3, note=71, velocity=0, time=276),\n",
      "    Message('note_on', channel=3, note=72, velocity=84, time=24),\n",
      "    Message('note_on', channel=3, note=72, velocity=0, time=24),\n",
      "    Message('note_on', channel=3, note=74, velocity=84, time=6),\n",
      "    Message('note_on', channel=3, note=74, velocity=0, time=24),\n",
      "    Message('note_on', channel=3, note=71, velocity=84, time=6),\n",
      "    Message('note_on', channel=3, note=68, velocity=84, time=0),\n",
      "    Message('note_on', channel=3, note=71, velocity=0, time=168),\n",
      "    Message('note_on', channel=3, note=68, velocity=0, time=0),\n",
      "    Message('note_on', channel=3, note=67, velocity=84, time=12),\n",
      "    Message('note_on', channel=3, note=67, velocity=0, time=168),\n",
      "    Message('note_on', channel=3, note=67, velocity=84, time=12),\n",
      "    Message('note_on', channel=3, note=67, velocity=0, time=48),\n",
      "    Message('note_on', channel=3, note=76, velocity=84, time=12),\n",
      "    Message('note_on', channel=3, note=76, velocity=0, time=48),\n",
      "    Message('note_on', channel=3, note=74, velocity=84, time=12),\n",
      "    Message('note_on', channel=3, note=74, velocity=0, time=48),\n",
      "    Message('note_on', channel=3, note=74, velocity=84, time=12),\n",
      "    Message('note_on', channel=3, note=74, velocity=0, time=48),\n",
      "    Message('note_on', channel=3, note=77, velocity=84, time=12),\n",
      "    Message('note_on', channel=3, note=77, velocity=0, time=48),\n",
      "    Message('note_on', channel=3, note=76, velocity=84, time=12),\n",
      "    Message('note_on', channel=3, note=76, velocity=0, time=48),\n",
      "    Message('note_on', channel=3, note=76, velocity=84, time=12),\n",
      "    Message('note_on', channel=3, note=76, velocity=0, time=48),\n",
      "    Message('note_on', channel=3, note=81, velocity=84, time=12),\n",
      "    Message('note_on', channel=3, note=81, velocity=0, time=48),\n",
      "    Message('note_on', channel=3, note=80, velocity=84, time=12),\n",
      "    Message('note_on', channel=3, note=80, velocity=0, time=48),\n",
      "    Message('note_on', channel=3, note=81, velocity=84, time=12),\n",
      "    Message('note_on', channel=3, note=81, velocity=0, time=48),\n",
      "    Message('note_on', channel=3, note=76, velocity=84, time=12),\n",
      "    Message('note_on', channel=3, note=76, velocity=0, time=48),\n",
      "    Message('note_on', channel=3, note=72, velocity=84, time=12),\n",
      "    Message('note_on', channel=3, note=72, velocity=0, time=48),\n",
      "    Message('note_on', channel=3, note=69, velocity=84, time=12),\n",
      "    Message('note_on', channel=3, note=69, velocity=0, time=48),\n",
      "    Message('note_on', channel=3, note=71, velocity=84, time=12),\n",
      "    Message('note_on', channel=3, note=71, velocity=0, time=48),\n",
      "    Message('note_on', channel=3, note=72, velocity=84, time=12),\n",
      "    Message('note_on', channel=3, note=72, velocity=0, time=48),\n",
      "    Message('note_on', channel=3, note=77, velocity=84, time=12),\n",
      "    Message('note_on', channel=3, note=77, velocity=0, time=48),\n",
      "    Message('note_on', channel=3, note=76, velocity=84, time=12),\n",
      "    Message('note_on', channel=3, note=76, velocity=0, time=48),\n",
      "    Message('note_on', channel=3, note=74, velocity=84, time=12),\n",
      "    Message('note_on', channel=3, note=74, velocity=0, time=48),\n",
      "    Message('note_on', channel=3, note=72, velocity=84, time=12),\n",
      "    Message('note_on', channel=3, note=72, velocity=0, time=48),\n",
      "    Message('note_on', channel=3, note=71, velocity=84, time=12),\n",
      "    Message('note_on', channel=3, note=71, velocity=0, time=48),\n",
      "    Message('note_on', channel=3, note=69, velocity=84, time=12),\n",
      "    Message('note_on', channel=3, note=69, velocity=0, time=48),\n",
      "    Message('note_on', channel=3, note=64, velocity=84, time=12),\n",
      "    Message('note_on', channel=3, note=64, velocity=0, time=48),\n",
      "    Message('note_on', channel=3, note=69, velocity=84, time=12),\n",
      "    Message('note_on', channel=3, note=69, velocity=0, time=48),\n",
      "    Message('note_on', channel=3, note=68, velocity=84, time=12),\n",
      "    Message('note_on', channel=3, note=62, velocity=84, time=0),\n",
      "    Message('note_on', channel=3, note=68, velocity=0, time=48),\n",
      "    Message('note_on', channel=3, note=62, velocity=0, time=0),\n",
      "    Message('note_on', channel=3, note=64, velocity=84, time=12),\n",
      "    Message('note_on', channel=3, note=69, velocity=84, time=0),\n",
      "    Message('note_on', channel=3, note=72, velocity=84, time=0),\n",
      "    Message('note_on', channel=3, note=64, velocity=0, time=336),\n",
      "    Message('note_on', channel=3, note=69, velocity=0, time=0),\n",
      "    Message('note_on', channel=3, note=72, velocity=0, time=0),\n",
      "    Message('note_on', channel=3, note=74, velocity=84, time=24),\n",
      "    Message('note_on', channel=3, note=62, velocity=84, time=0),\n",
      "    Message('note_on', channel=3, note=67, velocity=84, time=0),\n",
      "    Message('note_on', channel=3, note=74, velocity=0, time=168),\n",
      "    Message('note_on', channel=3, note=62, velocity=0, time=0),\n",
      "    Message('note_on', channel=3, note=67, velocity=0, time=0),\n",
      "    Message('note_on', channel=3, note=72, velocity=84, time=12),\n",
      "    Message('note_on', channel=3, note=76, velocity=84, time=0),\n",
      "    Message('note_on', channel=3, note=72, velocity=0, time=336),\n",
      "    Message('note_on', channel=3, note=76, velocity=0, time=0),\n",
      "    Message('note_on', channel=3, note=72, velocity=84, time=24),\n",
      "    Message('note_on', channel=3, note=76, velocity=84, time=0),\n",
      "    Message('note_on', channel=3, note=67, velocity=84, time=0),\n",
      "    Message('note_on', channel=3, note=72, velocity=0, time=168),\n",
      "    Message('note_on', channel=3, note=76, velocity=0, time=0),\n",
      "    Message('note_on', channel=3, note=67, velocity=0, time=0),\n",
      "    Message('note_on', channel=3, note=74, velocity=84, time=12),\n",
      "    Message('note_on', channel=3, note=74, velocity=0, time=276),\n",
      "    Message('note_on', channel=3, note=76, velocity=84, time=24),\n",
      "    Message('note_on', channel=3, note=76, velocity=0, time=24),\n",
      "    Message('note_on', channel=3, note=77, velocity=84, time=6),\n",
      "    Message('note_on', channel=3, note=77, velocity=0, time=24),\n",
      "    Message('note_on', channel=3, note=74, velocity=84, time=6),\n",
      "    Message('note_on', channel=3, note=74, velocity=0, time=168),\n",
      "    Message('note_on', channel=3, note=64, velocity=84, time=12),\n",
      "    Message('note_on', channel=3, note=72, velocity=84, time=0),\n",
      "    Message('note_on', channel=3, note=64, velocity=0, time=168),\n",
      "    Message('note_on', channel=3, note=72, velocity=0, time=0),\n",
      "    Message('note_on', channel=3, note=72, velocity=84, time=12),\n",
      "    Message('note_on', channel=3, note=72, velocity=0, time=48),\n",
      "    Message('note_on', channel=3, note=76, velocity=84, time=12),\n",
      "    Message('note_on', channel=3, note=76, velocity=0, time=48),\n",
      "    Message('note_on', channel=3, note=72, velocity=84, time=12),\n",
      "    Message('note_on', channel=3, note=72, velocity=0, time=48),\n",
      "    Message('note_on', channel=3, note=67, velocity=84, time=12),\n",
      "    Message('note_on', channel=3, note=67, velocity=0, time=48),\n",
      "    Message('note_on', channel=3, note=69, velocity=84, time=12),\n",
      "    Message('note_on', channel=3, note=69, velocity=0, time=48),\n",
      "    Message('note_on', channel=3, note=70, velocity=84, time=12),\n",
      "    Message('note_on', channel=3, note=70, velocity=0, time=48),\n",
      "    Message('note_on', channel=3, note=69, velocity=84, time=12),\n",
      "    Message('note_on', channel=3, note=69, velocity=0, time=48),\n",
      "    Message('note_on', channel=3, note=72, velocity=84, time=12),\n",
      "    Message('note_on', channel=3, note=72, velocity=0, time=48),\n",
      "    Message('note_on', channel=3, note=71, velocity=84, time=12),\n",
      "    Message('note_on', channel=3, note=71, velocity=0, time=48),\n",
      "    Message('note_on', channel=3, note=72, velocity=84, time=12),\n",
      "    Message('note_on', channel=3, note=72, velocity=0, time=48),\n",
      "    Message('note_on', channel=3, note=69, velocity=84, time=12),\n",
      "    Message('note_on', channel=3, note=69, velocity=0, time=48),\n",
      "    Message('note_on', channel=3, note=66, velocity=84, time=12),\n",
      "    Message('note_on', channel=3, note=66, velocity=0, time=48),\n",
      "    Message('note_on', channel=3, note=62, velocity=84, time=12),\n",
      "    Message('note_on', channel=3, note=62, velocity=0, time=48),\n",
      "    Message('note_on', channel=3, note=64, velocity=84, time=12),\n",
      "    Message('note_on', channel=3, note=64, velocity=0, time=48),\n",
      "    Message('note_on', channel=3, note=66, velocity=84, time=12),\n",
      "    Message('note_on', channel=3, note=66, velocity=0, time=48),\n",
      "    Message('note_on', channel=3, note=64, velocity=84, time=12),\n",
      "    Message('note_on', channel=3, note=64, velocity=0, time=48),\n",
      "    Message('note_on', channel=3, note=60, velocity=84, time=12),\n",
      "    Message('note_on', channel=3, note=60, velocity=0, time=48),\n",
      "    Message('note_on', channel=3, note=62, velocity=84, time=12),\n",
      "    Message('note_on', channel=3, note=62, velocity=0, time=48),\n",
      "    Message('note_on', channel=3, note=64, velocity=84, time=12),\n",
      "    Message('note_on', channel=3, note=64, velocity=0, time=48),\n",
      "    Message('note_on', channel=3, note=67, velocity=84, time=12),\n",
      "    Message('note_on', channel=3, note=67, velocity=0, time=48),\n",
      "    Message('note_on', channel=3, note=66, velocity=84, time=12),\n",
      "    Message('note_on', channel=3, note=66, velocity=0, time=48),\n",
      "    Message('note_on', channel=3, note=67, velocity=84, time=12),\n",
      "    Message('note_on', channel=3, note=67, velocity=0, time=48),\n",
      "    Message('note_on', channel=3, note=71, velocity=84, time=12),\n",
      "    Message('note_on', channel=3, note=71, velocity=0, time=48),\n",
      "    Message('note_on', channel=3, note=69, velocity=84, time=12),\n",
      "    Message('note_on', channel=3, note=69, velocity=0, time=48),\n",
      "    Message('note_on', channel=3, note=67, velocity=84, time=12),\n",
      "    Message('note_on', channel=3, note=71, velocity=84, time=0),\n",
      "    Message('note_on', channel=3, note=67, velocity=0, time=336),\n",
      "    Message('note_on', channel=3, note=71, velocity=0, time=0),\n",
      "    Message('note_on', channel=3, note=64, velocity=84, time=24),\n",
      "    Message('note_on', channel=3, note=60, velocity=84, time=0),\n",
      "    Message('note_on', channel=3, note=67, velocity=84, time=0),\n",
      "    Message('note_on', channel=3, note=72, velocity=84, time=0),\n",
      "    Message('note_on', channel=3, note=64, velocity=0, time=168),\n",
      "    Message('note_on', channel=3, note=60, velocity=0, time=0),\n",
      "    Message('note_on', channel=3, note=67, velocity=0, time=0),\n",
      "    Message('note_on', channel=3, note=72, velocity=0, time=0),\n",
      "    Message('note_on', channel=3, note=74, velocity=84, time=12),\n",
      "    Message('note_on', channel=3, note=67, velocity=84, time=0),\n",
      "    Message('note_on', channel=3, note=62, velocity=84, time=0),\n",
      "    Message('note_on', channel=3, note=74, velocity=0, time=336),\n",
      "    Message('note_on', channel=3, note=67, velocity=0, time=0),\n",
      "    Message('note_on', channel=3, note=62, velocity=0, time=0),\n",
      "    Message('note_on', channel=3, note=74, velocity=84, time=24),\n",
      "    Message('note_on', channel=3, note=67, velocity=84, time=0),\n",
      "    Message('note_on', channel=3, note=62, velocity=84, time=0),\n",
      "    Message('note_on', channel=3, note=74, velocity=0, time=168),\n",
      "    Message('note_on', channel=3, note=67, velocity=0, time=0),\n",
      "    Message('note_on', channel=3, note=62, velocity=0, time=0),\n",
      "    Message('note_on', channel=3, note=69, velocity=84, time=12),\n",
      "    Message('note_on', channel=3, note=64, velocity=84, time=0),\n",
      "    Message('note_on', channel=3, note=72, velocity=84, time=0),\n",
      "    Message('note_on', channel=3, note=69, velocity=0, time=168),\n",
      "    Message('note_on', channel=3, note=64, velocity=0, time=0),\n",
      "    Message('note_on', channel=3, note=72, velocity=0, time=0),\n",
      "    Message('note_on', channel=3, note=71, velocity=84, time=12),\n",
      "    Message('note_on', channel=3, note=71, velocity=0, time=336),\n",
      "    Message('note_on', channel=3, note=66, velocity=84, time=24),\n",
      "    Message('note_on', channel=3, note=69, velocity=84, time=0),\n",
      "    Message('note_on', channel=3, note=66, velocity=0, time=48),\n",
      "    Message('note_on', channel=3, note=69, velocity=0, time=0),\n",
      "    Message('note_on', channel=3, note=62, velocity=84, time=12),\n",
      "    Message('note_on', channel=3, note=62, velocity=0, time=48),\n",
      "    Message('note_on', channel=3, note=64, velocity=84, time=12),\n",
      "    Message('note_on', channel=3, note=64, velocity=0, time=48),\n",
      "    Message('note_on', channel=3, note=66, velocity=84, time=12),\n",
      "    Message('note_on', channel=3, note=66, velocity=0, time=48),\n",
      "    Message('note_on', channel=3, note=69, velocity=84, time=12),\n",
      "    Message('note_on', channel=3, note=69, velocity=0, time=48),\n",
      "    Message('note_on', channel=3, note=67, velocity=84, time=12),\n",
      "    Message('note_on', channel=3, note=67, velocity=0, time=48),\n",
      "    Message('note_on', channel=3, note=69, velocity=84, time=12),\n",
      "    Message('note_on', channel=3, note=69, velocity=0, time=48),\n",
      "    Message('note_on', channel=3, note=72, velocity=84, time=12),\n",
      "    Message('note_on', channel=3, note=72, velocity=0, time=48),\n",
      "    Message('note_on', channel=3, note=71, velocity=84, time=12),\n",
      "    Message('note_on', channel=3, note=71, velocity=0, time=48),\n",
      "    Message('note_on', channel=3, note=72, velocity=84, time=12),\n",
      "    Message('note_on', channel=3, note=72, velocity=0, time=48),\n",
      "    Message('note_on', channel=3, note=69, velocity=84, time=12),\n",
      "    Message('note_on', channel=3, note=69, velocity=0, time=48),\n",
      "    Message('note_on', channel=3, note=66, velocity=84, time=12),\n",
      "    Message('note_on', channel=3, note=66, velocity=0, time=48),\n",
      "    Message('note_on', channel=3, note=62, velocity=84, time=12),\n",
      "    Message('note_on', channel=3, note=62, velocity=0, time=48),\n",
      "    Message('note_on', channel=3, note=66, velocity=84, time=12),\n",
      "    Message('note_on', channel=3, note=66, velocity=0, time=48),\n",
      "    Message('note_on', channel=3, note=69, velocity=84, time=12),\n",
      "    Message('note_on', channel=3, note=69, velocity=0, time=48),\n",
      "    Message('note_on', channel=3, note=72, velocity=84, time=12),\n",
      "    Message('note_on', channel=3, note=72, velocity=0, time=48),\n",
      "    Message('note_on', channel=3, note=71, velocity=84, time=12),\n",
      "    Message('note_on', channel=3, note=71, velocity=0, time=48),\n",
      "    Message('note_on', channel=3, note=69, velocity=84, time=12),\n",
      "    Message('note_on', channel=3, note=69, velocity=0, time=48),\n",
      "    Message('note_on', channel=3, note=67, velocity=84, time=12),\n",
      "    Message('note_on', channel=3, note=71, velocity=84, time=0),\n",
      "    Message('note_on', channel=3, note=67, velocity=0, time=336),\n",
      "    Message('note_on', channel=3, note=71, velocity=0, time=0),\n",
      "    Message('note_on', channel=3, note=72, velocity=84, time=24),\n",
      "    Message('note_on', channel=3, note=67, velocity=84, time=0),\n",
      "    Message('note_on', channel=3, note=64, velocity=84, time=0),\n",
      "    Message('note_on', channel=3, note=60, velocity=84, time=0),\n",
      "    Message('note_on', channel=3, note=72, velocity=0, time=168),\n",
      "    Message('note_on', channel=3, note=67, velocity=0, time=0),\n",
      "    Message('note_on', channel=3, note=64, velocity=0, time=0),\n",
      "    Message('note_on', channel=3, note=60, velocity=0, time=0),\n",
      "    Message('note_on', channel=3, note=74, velocity=84, time=12),\n",
      "    Message('note_on', channel=3, note=62, velocity=84, time=0),\n",
      "    Message('note_on', channel=3, note=67, velocity=84, time=0),\n",
      "    Message('note_on', channel=3, note=74, velocity=0, time=336),\n",
      "    Message('note_on', channel=3, note=62, velocity=0, time=0),\n",
      "    Message('note_on', channel=3, note=67, velocity=0, time=0),\n",
      "    Message('note_on', channel=3, note=67, velocity=84, time=24),\n",
      "    Message('note_on', channel=3, note=64, velocity=84, time=0),\n",
      "    Message('note_on', channel=3, note=71, velocity=84, time=0),\n",
      "    Message('note_on', channel=3, note=67, velocity=0, time=168),\n",
      "    Message('note_on', channel=3, note=64, velocity=0, time=0),\n",
      "    Message('note_on', channel=3, note=71, velocity=0, time=0),\n",
      "    Message('note_on', channel=3, note=69, velocity=84, time=12),\n",
      "    Message('note_on', channel=3, note=69, velocity=0, time=96),\n",
      "    Message('note_on', channel=3, note=71, velocity=84, time=24),\n",
      "    Message('note_on', channel=3, note=71, velocity=0, time=24),\n",
      "    Message('note_on', channel=3, note=72, velocity=84, time=6),\n",
      "    Message('note_on', channel=3, note=72, velocity=0, time=24),\n",
      "    Message('note_on', channel=3, note=71, velocity=84, time=6),\n",
      "    Message('note_on', channel=3, note=71, velocity=0, time=168),\n",
      "    Message('note_on', channel=3, note=69, velocity=84, time=12),\n",
      "    Message('note_on', channel=3, note=69, velocity=0, time=168),\n",
      "    Message('note_on', channel=3, note=67, velocity=84, time=12),\n",
      "    Message('note_on', channel=3, note=67, velocity=0, time=48),\n",
      "    Message('note_on', channel=3, note=71, velocity=84, time=12),\n",
      "    Message('note_on', channel=3, note=71, velocity=0, time=48),\n",
      "    Message('note_on', channel=3, note=74, velocity=84, time=12),\n",
      "    Message('note_on', channel=3, note=74, velocity=0, time=48),\n",
      "    Message('note_on', channel=3, note=79, velocity=84, time=12),\n",
      "    Message('note_on', channel=3, note=79, velocity=0, time=48),\n",
      "    Message('note_on', channel=3, note=74, velocity=84, time=12),\n",
      "    Message('note_on', channel=3, note=74, velocity=0, time=48),\n",
      "    Message('note_on', channel=3, note=71, velocity=84, time=12),\n",
      "    Message('note_on', channel=3, note=71, velocity=0, time=48),\n",
      "    Message('note_on', channel=3, note=67, velocity=84, time=12),\n",
      "    Message('note_on', channel=3, note=67, velocity=0, time=48),\n",
      "    Message('note_on', channel=3, note=71, velocity=84, time=12),\n",
      "    Message('note_on', channel=3, note=71, velocity=0, time=48),\n",
      "    Message('note_on', channel=3, note=74, velocity=84, time=12),\n",
      "    Message('note_on', channel=3, note=74, velocity=0, time=48),\n",
      "    Message('note_on', channel=3, note=77, velocity=84, time=12),\n",
      "    Message('note_on', channel=3, note=77, velocity=0, time=48),\n",
      "    Message('note_on', channel=3, note=74, velocity=84, time=12),\n",
      "    Message('note_on', channel=3, note=74, velocity=0, time=48),\n",
      "    Message('note_on', channel=3, note=71, velocity=84, time=12),\n",
      "    Message('note_on', channel=3, note=71, velocity=0, time=48),\n",
      "    Message('note_on', channel=3, note=67, velocity=84, time=12),\n",
      "    Message('note_on', channel=3, note=67, velocity=0, time=48),\n",
      "    Message('note_on', channel=3, note=71, velocity=84, time=12),\n",
      "    Message('note_on', channel=3, note=71, velocity=0, time=48),\n",
      "    Message('note_on', channel=3, note=74, velocity=84, time=12),\n",
      "    Message('note_on', channel=3, note=74, velocity=0, time=48),\n",
      "    Message('note_on', channel=3, note=76, velocity=84, time=12),\n",
      "    Message('note_on', channel=3, note=76, velocity=0, time=48),\n",
      "    Message('note_on', channel=3, note=72, velocity=84, time=12),\n",
      "    Message('note_on', channel=3, note=72, velocity=0, time=48),\n",
      "    Message('note_on', channel=3, note=69, velocity=84, time=12),\n",
      "    Message('note_on', channel=3, note=69, velocity=0, time=48),\n",
      "    Message('note_on', channel=3, note=66, velocity=84, time=12),\n",
      "    Message('note_on', channel=3, note=66, velocity=0, time=48),\n",
      "    Message('note_on', channel=3, note=69, velocity=84, time=12),\n",
      "    Message('note_on', channel=3, note=69, velocity=0, time=48),\n",
      "    Message('note_on', channel=3, note=72, velocity=84, time=12),\n",
      "    Message('note_on', channel=3, note=72, velocity=0, time=48),\n",
      "    Message('note_on', channel=3, note=74, velocity=84, time=12),\n",
      "    Message('note_on', channel=3, note=74, velocity=0, time=48),\n",
      "    Message('note_on', channel=3, note=71, velocity=84, time=12),\n",
      "    Message('note_on', channel=3, note=71, velocity=0, time=48),\n",
      "    Message('note_on', channel=3, note=67, velocity=84, time=12),\n",
      "    Message('note_on', channel=3, note=67, velocity=0, time=48),\n",
      "    Message('note_on', channel=3, note=64, velocity=84, time=12),\n",
      "    Message('note_on', channel=3, note=64, velocity=0, time=48),\n",
      "    Message('note_on', channel=3, note=67, velocity=84, time=12),\n",
      "    Message('note_on', channel=3, note=67, velocity=0, time=48),\n",
      "    Message('note_on', channel=3, note=71, velocity=84, time=12),\n",
      "    Message('note_on', channel=3, note=71, velocity=0, time=48),\n",
      "    Message('note_on', channel=3, note=72, velocity=84, time=12),\n",
      "    Message('note_on', channel=3, note=72, velocity=0, time=48),\n",
      "    Message('note_on', channel=3, note=69, velocity=84, time=12),\n",
      "    Message('note_on', channel=3, note=69, velocity=0, time=48),\n",
      "    Message('note_on', channel=3, note=66, velocity=84, time=12),\n",
      "    Message('note_on', channel=3, note=66, velocity=0, time=48),\n",
      "    Message('note_on', channel=3, note=62, velocity=84, time=12),\n",
      "    Message('note_on', channel=3, note=62, velocity=0, time=48),\n",
      "    Message('note_on', channel=3, note=66, velocity=84, time=12),\n",
      "    Message('note_on', channel=3, note=66, velocity=0, time=48),\n",
      "    Message('note_on', channel=3, note=69, velocity=84, time=12),\n",
      "    Message('note_on', channel=3, note=69, velocity=0, time=48),\n",
      "    Message('note_on', channel=3, note=72, velocity=84, time=12),\n",
      "    Message('note_on', channel=3, note=72, velocity=0, time=48),\n",
      "    Message('note_on', channel=3, note=71, velocity=84, time=12),\n",
      "    Message('note_on', channel=3, note=71, velocity=0, time=48),\n",
      "    Message('note_on', channel=3, note=69, velocity=84, time=12),\n",
      "    Message('note_on', channel=3, note=69, velocity=0, time=48),\n",
      "    Message('note_on', channel=3, note=71, velocity=84, time=12),\n",
      "    Message('note_on', channel=3, note=71, velocity=0, time=48),\n",
      "    Message('note_on', channel=3, note=67, velocity=84, time=12),\n",
      "    Message('note_on', channel=3, note=67, velocity=0, time=48),\n",
      "    Message('note_on', channel=3, note=69, velocity=84, time=12),\n",
      "    Message('note_on', channel=3, note=69, velocity=0, time=48),\n",
      "    Message('note_on', channel=3, note=71, velocity=84, time=12),\n",
      "    Message('note_on', channel=3, note=71, velocity=0, time=48),\n",
      "    Message('note_on', channel=3, note=74, velocity=84, time=12),\n",
      "    Message('note_on', channel=3, note=74, velocity=0, time=48),\n",
      "    Message('note_on', channel=3, note=72, velocity=84, time=12),\n",
      "    Message('note_on', channel=3, note=72, velocity=0, time=48),\n",
      "    Message('note_on', channel=3, note=72, velocity=84, time=12),\n",
      "    Message('note_on', channel=3, note=72, velocity=0, time=48),\n",
      "    Message('note_on', channel=3, note=76, velocity=84, time=12),\n",
      "    Message('note_on', channel=3, note=76, velocity=0, time=48),\n",
      "    Message('note_on', channel=3, note=74, velocity=84, time=12),\n",
      "    Message('note_on', channel=3, note=74, velocity=0, time=48),\n",
      "    Message('note_on', channel=3, note=74, velocity=84, time=12),\n",
      "    Message('note_on', channel=3, note=74, velocity=0, time=48),\n",
      "    Message('note_on', channel=3, note=79, velocity=84, time=12),\n",
      "    Message('note_on', channel=3, note=79, velocity=0, time=48),\n",
      "    Message('note_on', channel=3, note=78, velocity=84, time=12),\n",
      "    Message('note_on', channel=3, note=78, velocity=0, time=48),\n",
      "    Message('note_on', channel=3, note=79, velocity=84, time=12),\n",
      "    Message('note_on', channel=3, note=79, velocity=0, time=48),\n",
      "    Message('note_on', channel=3, note=74, velocity=84, time=12),\n",
      "    Message('note_on', channel=3, note=74, velocity=0, time=48),\n",
      "    Message('note_on', channel=3, note=71, velocity=84, time=12),\n",
      "    Message('note_on', channel=3, note=71, velocity=0, time=48),\n",
      "    Message('note_on', channel=3, note=67, velocity=84, time=12),\n",
      "    Message('note_on', channel=3, note=67, velocity=0, time=48),\n",
      "    Message('note_on', channel=3, note=69, velocity=84, time=12),\n",
      "    Message('note_on', channel=3, note=69, velocity=0, time=48),\n",
      "    Message('note_on', channel=3, note=71, velocity=84, time=12),\n",
      "    Message('note_on', channel=3, note=71, velocity=0, time=48),\n",
      "    Message('note_on', channel=3, note=72, velocity=84, time=12),\n",
      "    Message('note_on', channel=3, note=72, velocity=0, time=48),\n",
      "    Message('note_on', channel=3, note=74, velocity=84, time=12),\n",
      "    Message('note_on', channel=3, note=74, velocity=0, time=48),\n",
      "    Message('note_on', channel=3, note=76, velocity=84, time=12),\n",
      "    Message('note_on', channel=3, note=76, velocity=0, time=48),\n",
      "    Message('note_on', channel=3, note=74, velocity=84, time=12),\n",
      "    Message('note_on', channel=3, note=74, velocity=0, time=48),\n",
      "    Message('note_on', channel=3, note=72, velocity=84, time=12),\n",
      "    Message('note_on', channel=3, note=72, velocity=0, time=48),\n",
      "    Message('note_on', channel=3, note=71, velocity=84, time=12),\n",
      "    Message('note_on', channel=3, note=71, velocity=0, time=48),\n",
      "    Message('note_on', channel=3, note=69, velocity=84, time=12),\n",
      "    Message('note_on', channel=3, note=69, velocity=0, time=48),\n",
      "    Message('note_on', channel=3, note=71, velocity=84, time=12),\n",
      "    Message('note_on', channel=3, note=71, velocity=0, time=48),\n",
      "    Message('note_on', channel=3, note=67, velocity=84, time=12),\n",
      "    Message('note_on', channel=3, note=67, velocity=0, time=48),\n",
      "    Message('note_on', channel=3, note=66, velocity=84, time=12),\n",
      "    Message('note_on', channel=3, note=66, velocity=0, time=48),\n",
      "    Message('note_on', channel=3, note=67, velocity=84, time=12),\n",
      "    Message('note_on', channel=3, note=67, velocity=0, time=48),\n",
      "    Message('note_on', channel=3, note=69, velocity=84, time=12),\n",
      "    Message('note_on', channel=3, note=69, velocity=0, time=48),\n",
      "    Message('note_on', channel=3, note=62, velocity=84, time=12),\n",
      "    Message('note_on', channel=3, note=62, velocity=0, time=48),\n",
      "    Message('note_on', channel=3, note=66, velocity=84, time=12),\n",
      "    Message('note_on', channel=3, note=66, velocity=0, time=48),\n",
      "    Message('note_on', channel=3, note=69, velocity=84, time=12),\n",
      "    Message('note_on', channel=3, note=69, velocity=0, time=48),\n",
      "    Message('note_on', channel=3, note=72, velocity=84, time=12),\n",
      "    Message('note_on', channel=3, note=72, velocity=0, time=48),\n",
      "    Message('note_on', channel=3, note=71, velocity=84, time=12),\n",
      "    Message('note_on', channel=3, note=71, velocity=0, time=48),\n",
      "    Message('note_on', channel=3, note=69, velocity=84, time=12),\n",
      "    Message('note_on', channel=3, note=69, velocity=0, time=48),\n",
      "    Message('note_on', channel=3, note=71, velocity=84, time=12),\n",
      "    Message('note_on', channel=3, note=71, velocity=0, time=48),\n",
      "    Message('note_on', channel=3, note=67, velocity=84, time=12),\n",
      "    Message('note_on', channel=3, note=67, velocity=0, time=48),\n",
      "    Message('note_on', channel=3, note=69, velocity=84, time=12),\n",
      "    Message('note_on', channel=3, note=69, velocity=0, time=48),\n",
      "    Message('note_on', channel=3, note=71, velocity=84, time=12),\n",
      "    Message('note_on', channel=3, note=71, velocity=0, time=48),\n",
      "    Message('note_on', channel=3, note=74, velocity=84, time=12),\n",
      "    Message('note_on', channel=3, note=74, velocity=0, time=48),\n",
      "    Message('note_on', channel=3, note=72, velocity=84, time=12),\n",
      "    Message('note_on', channel=3, note=72, velocity=0, time=48),\n",
      "    Message('note_on', channel=3, note=72, velocity=84, time=12),\n",
      "    Message('note_on', channel=3, note=72, velocity=0, time=48),\n",
      "    Message('note_on', channel=3, note=76, velocity=84, time=12),\n",
      "    Message('note_on', channel=3, note=76, velocity=0, time=48),\n",
      "    Message('note_on', channel=3, note=74, velocity=84, time=12),\n",
      "    Message('note_on', channel=3, note=74, velocity=0, time=48),\n",
      "    Message('note_on', channel=3, note=74, velocity=84, time=12),\n",
      "    Message('note_on', channel=3, note=74, velocity=0, time=48),\n",
      "    Message('note_on', channel=3, note=79, velocity=84, time=12),\n",
      "    Message('note_on', channel=3, note=79, velocity=0, time=48),\n",
      "    Message('note_on', channel=3, note=78, velocity=84, time=12),\n",
      "    Message('note_on', channel=3, note=78, velocity=0, time=48),\n",
      "    Message('note_on', channel=3, note=79, velocity=84, time=12),\n",
      "    Message('note_on', channel=3, note=79, velocity=0, time=48),\n",
      "    Message('note_on', channel=3, note=74, velocity=84, time=12),\n",
      "    Message('note_on', channel=3, note=74, velocity=0, time=48),\n",
      "    Message('note_on', channel=3, note=71, velocity=84, time=12),\n",
      "    Message('note_on', channel=3, note=71, velocity=0, time=48),\n",
      "    Message('note_on', channel=3, note=67, velocity=84, time=12),\n",
      "    Message('note_on', channel=3, note=67, velocity=0, time=48),\n",
      "    Message('note_on', channel=3, note=69, velocity=84, time=12),\n",
      "    Message('note_on', channel=3, note=69, velocity=0, time=48),\n",
      "    Message('note_on', channel=3, note=71, velocity=84, time=12),\n",
      "    Message('note_on', channel=3, note=71, velocity=0, time=48),\n",
      "    Message('note_on', channel=3, note=64, velocity=84, time=12),\n",
      "    Message('note_on', channel=3, note=64, velocity=0, time=48),\n",
      "    Message('note_on', channel=3, note=74, velocity=84, time=12),\n",
      "    Message('note_on', channel=3, note=74, velocity=0, time=48),\n",
      "    Message('note_on', channel=3, note=72, velocity=84, time=12),\n",
      "    Message('note_on', channel=3, note=72, velocity=0, time=48),\n",
      "    Message('note_on', channel=3, note=71, velocity=84, time=12),\n",
      "    Message('note_on', channel=3, note=71, velocity=0, time=48),\n",
      "    Message('note_on', channel=3, note=69, velocity=84, time=12),\n",
      "    Message('note_on', channel=3, note=69, velocity=0, time=48),\n",
      "    Message('note_on', channel=3, note=67, velocity=84, time=12),\n",
      "    Message('note_on', channel=3, note=67, velocity=0, time=48),\n",
      "    Message('note_on', channel=3, note=62, velocity=84, time=12),\n",
      "    Message('note_on', channel=3, note=62, velocity=0, time=48),\n",
      "    Message('note_on', channel=3, note=67, velocity=84, time=12),\n",
      "    Message('note_on', channel=3, note=67, velocity=0, time=48),\n",
      "    Message('note_on', channel=3, note=66, velocity=84, time=12),\n",
      "    Message('note_on', channel=3, note=66, velocity=0, time=48),\n",
      "    Message('note_on', channel=3, note=62, velocity=58, time=12),\n",
      "    Message('note_on', channel=3, note=67, velocity=60, time=0),\n",
      "    Message('note_on', channel=3, note=59, velocity=57, time=0),\n",
      "    Message('note_on', channel=3, note=55, velocity=75, time=0),\n",
      "    Message('note_on', channel=3, note=62, velocity=0, time=456),\n",
      "    Message('note_on', channel=3, note=67, velocity=0, time=0),\n",
      "    Message('note_on', channel=3, note=59, velocity=0, time=0),\n",
      "    Message('note_on', channel=3, note=55, velocity=0, time=0),\n",
      "    Message('note_on', channel=3, note=67, velocity=94, time=143),\n",
      "    Message('note_on', channel=3, note=67, velocity=0, time=48),\n",
      "    Message('note_on', channel=3, note=69, velocity=94, time=12),\n",
      "    Message('note_on', channel=3, note=69, velocity=0, time=48),\n",
      "    Message('note_on', channel=3, note=71, velocity=94, time=12),\n",
      "    Message('note_on', channel=3, note=71, velocity=0, time=48),\n",
      "    Message('note_on', channel=3, note=74, velocity=94, time=12),\n",
      "    Message('note_on', channel=3, note=74, velocity=0, time=48),\n",
      "    Message('note_on', channel=3, note=72, velocity=94, time=12),\n",
      "    Message('note_on', channel=3, note=72, velocity=0, time=48),\n",
      "    Message('note_on', channel=3, note=72, velocity=94, time=12),\n",
      "    Message('note_on', channel=3, note=72, velocity=0, time=48),\n",
      "    Message('note_on', channel=3, note=76, velocity=94, time=12),\n",
      "    Message('note_on', channel=3, note=76, velocity=0, time=48),\n",
      "    Message('note_on', channel=3, note=74, velocity=94, time=12),\n",
      "    Message('note_on', channel=3, note=74, velocity=0, time=48),\n",
      "    Message('note_on', channel=3, note=74, velocity=94, time=12),\n",
      "    Message('note_on', channel=3, note=74, velocity=0, time=48),\n",
      "    Message('note_on', channel=3, note=79, velocity=94, time=12),\n",
      "    Message('note_on', channel=3, note=79, velocity=0, time=48),\n",
      "    Message('note_on', channel=3, note=78, velocity=94, time=12),\n",
      "    Message('note_on', channel=3, note=78, velocity=0, time=48),\n",
      "    Message('note_on', channel=3, note=79, velocity=94, time=12),\n",
      "    Message('note_on', channel=3, note=79, velocity=0, time=48),\n",
      "    Message('note_on', channel=3, note=74, velocity=94, time=12),\n",
      "    Message('note_on', channel=3, note=74, velocity=0, time=48),\n",
      "    Message('note_on', channel=3, note=71, velocity=94, time=12),\n",
      "    Message('note_on', channel=3, note=71, velocity=0, time=48),\n",
      "    Message('note_on', channel=3, note=67, velocity=94, time=12),\n",
      "    Message('note_on', channel=3, note=67, velocity=0, time=48),\n",
      "    Message('note_on', channel=3, note=69, velocity=94, time=12),\n",
      "    Message('note_on', channel=3, note=69, velocity=0, time=48),\n",
      "    Message('note_on', channel=3, note=71, velocity=94, time=12),\n",
      "    Message('note_on', channel=3, note=71, velocity=0, time=48),\n",
      "    Message('note_on', channel=3, note=72, velocity=94, time=12),\n",
      "    Message('note_on', channel=3, note=72, velocity=0, time=48),\n",
      "    Message('note_on', channel=3, note=74, velocity=94, time=12),\n",
      "    Message('note_on', channel=3, note=74, velocity=0, time=48),\n",
      "    Message('note_on', channel=3, note=76, velocity=94, time=12),\n",
      "    Message('note_on', channel=3, note=76, velocity=0, time=48),\n",
      "    Message('note_on', channel=3, note=74, velocity=94, time=12),\n",
      "    Message('note_on', channel=3, note=74, velocity=0, time=48),\n",
      "    Message('note_on', channel=3, note=72, velocity=94, time=12),\n",
      "    Message('note_on', channel=3, note=72, velocity=0, time=48),\n",
      "    Message('note_on', channel=3, note=71, velocity=94, time=12),\n",
      "    Message('note_on', channel=3, note=71, velocity=0, time=48),\n",
      "    Message('note_on', channel=3, note=69, velocity=94, time=12),\n",
      "    Message('note_on', channel=3, note=69, velocity=0, time=48),\n",
      "    Message('note_on', channel=3, note=71, velocity=94, time=12),\n",
      "    Message('note_on', channel=3, note=71, velocity=0, time=48),\n",
      "    Message('note_on', channel=3, note=67, velocity=94, time=12),\n",
      "    Message('note_on', channel=3, note=67, velocity=0, time=48),\n",
      "    Message('note_on', channel=3, note=66, velocity=94, time=12),\n",
      "    Message('note_on', channel=3, note=66, velocity=0, time=48),\n",
      "    Message('note_on', channel=3, note=67, velocity=94, time=12),\n",
      "    Message('note_on', channel=3, note=67, velocity=0, time=48),\n",
      "    Message('note_on', channel=3, note=69, velocity=94, time=12),\n",
      "    Message('note_on', channel=3, note=69, velocity=0, time=48),\n",
      "    Message('note_on', channel=3, note=62, velocity=94, time=12),\n",
      "    Message('note_on', channel=3, note=62, velocity=0, time=48),\n",
      "    Message('note_on', channel=3, note=66, velocity=94, time=12),\n",
      "    Message('note_on', channel=3, note=66, velocity=0, time=48),\n",
      "    Message('note_on', channel=3, note=69, velocity=94, time=12),\n",
      "    Message('note_on', channel=3, note=69, velocity=0, time=48),\n",
      "    Message('note_on', channel=3, note=72, velocity=94, time=12),\n",
      "    Message('note_on', channel=3, note=72, velocity=0, time=48),\n",
      "    Message('note_on', channel=3, note=71, velocity=94, time=12),\n",
      "    Message('note_on', channel=3, note=71, velocity=0, time=48),\n",
      "    Message('note_on', channel=3, note=69, velocity=94, time=12),\n",
      "    Message('note_on', channel=3, note=69, velocity=0, time=48),\n",
      "    Message('note_on', channel=3, note=71, velocity=94, time=12),\n",
      "    Message('note_on', channel=3, note=71, velocity=0, time=48),\n",
      "    Message('note_on', channel=3, note=67, velocity=94, time=12),\n",
      "    Message('note_on', channel=3, note=67, velocity=0, time=48),\n",
      "    Message('note_on', channel=3, note=69, velocity=94, time=12),\n",
      "    Message('note_on', channel=3, note=69, velocity=0, time=48),\n",
      "    Message('note_on', channel=3, note=71, velocity=94, time=12),\n",
      "    Message('note_on', channel=3, note=71, velocity=0, time=48),\n",
      "    Message('note_on', channel=3, note=74, velocity=94, time=12),\n",
      "    Message('note_on', channel=3, note=74, velocity=0, time=48),\n",
      "    Message('note_on', channel=3, note=72, velocity=94, time=12),\n",
      "    Message('note_on', channel=3, note=72, velocity=0, time=48),\n",
      "    Message('note_on', channel=3, note=72, velocity=94, time=12),\n",
      "    Message('note_on', channel=3, note=72, velocity=0, time=48),\n",
      "    Message('note_on', channel=3, note=76, velocity=94, time=12),\n",
      "    Message('note_on', channel=3, note=76, velocity=0, time=48),\n",
      "    Message('note_on', channel=3, note=74, velocity=94, time=12),\n",
      "    Message('note_on', channel=3, note=74, velocity=0, time=48),\n",
      "    Message('note_on', channel=3, note=74, velocity=94, time=12),\n",
      "    Message('note_on', channel=3, note=74, velocity=0, time=48),\n",
      "    Message('note_on', channel=3, note=79, velocity=94, time=12),\n",
      "    Message('note_on', channel=3, note=79, velocity=0, time=48),\n",
      "    Message('note_on', channel=3, note=78, velocity=94, time=12),\n",
      "    Message('note_on', channel=3, note=78, velocity=0, time=48),\n",
      "    Message('note_on', channel=3, note=79, velocity=94, time=12),\n",
      "    Message('note_on', channel=3, note=79, velocity=0, time=48),\n",
      "    Message('note_on', channel=3, note=74, velocity=94, time=12),\n",
      "    Message('note_on', channel=3, note=74, velocity=0, time=48),\n",
      "    Message('note_on', channel=3, note=71, velocity=94, time=12),\n",
      "    Message('note_on', channel=3, note=71, velocity=0, time=48),\n",
      "    Message('note_on', channel=3, note=67, velocity=94, time=12),\n",
      "    Message('note_on', channel=3, note=67, velocity=0, time=48),\n",
      "    Message('note_on', channel=3, note=69, velocity=94, time=12),\n",
      "    Message('note_on', channel=3, note=69, velocity=0, time=48),\n",
      "    Message('note_on', channel=3, note=71, velocity=94, time=12),\n",
      "    Message('note_on', channel=3, note=71, velocity=0, time=48),\n",
      "    Message('note_on', channel=3, note=64, velocity=94, time=12),\n",
      "    Message('note_on', channel=3, note=64, velocity=0, time=48),\n",
      "    Message('note_on', channel=3, note=74, velocity=94, time=12),\n",
      "    Message('note_on', channel=3, note=74, velocity=0, time=48),\n",
      "    Message('note_on', channel=3, note=72, velocity=94, time=12),\n",
      "    Message('note_on', channel=3, note=72, velocity=0, time=48),\n",
      "    Message('note_on', channel=3, note=71, velocity=94, time=12),\n",
      "    Message('note_on', channel=3, note=71, velocity=0, time=48),\n",
      "    Message('note_on', channel=3, note=69, velocity=94, time=12),\n",
      "    Message('note_on', channel=3, note=69, velocity=0, time=48),\n",
      "    Message('note_on', channel=3, note=67, velocity=94, time=12),\n",
      "    Message('note_on', channel=3, note=67, velocity=0, time=48),\n",
      "    Message('note_on', channel=3, note=62, velocity=94, time=12),\n",
      "    Message('note_on', channel=3, note=62, velocity=0, time=48),\n",
      "    Message('note_on', channel=3, note=67, velocity=94, time=12),\n",
      "    Message('note_on', channel=3, note=67, velocity=0, time=48),\n",
      "    Message('note_on', channel=3, note=66, velocity=94, time=12),\n",
      "    Message('note_on', channel=3, note=66, velocity=0, time=48),\n",
      "    Message('note_on', channel=3, note=67, velocity=94, time=12),\n",
      "    Message('note_on', channel=3, note=67, velocity=0, time=48),\n",
      "    Message('note_on', channel=3, note=71, velocity=94, time=12),\n",
      "    Message('note_on', channel=3, note=71, velocity=0, time=48),\n",
      "    Message('note_on', channel=3, note=74, velocity=94, time=12),\n",
      "    Message('note_on', channel=3, note=74, velocity=0, time=48),\n",
      "    Message('note_on', channel=3, note=79, velocity=94, time=12),\n",
      "    Message('note_on', channel=3, note=79, velocity=0, time=48),\n",
      "    Message('note_on', channel=3, note=74, velocity=94, time=12),\n",
      "    Message('note_on', channel=3, note=74, velocity=0, time=48),\n",
      "    Message('note_on', channel=3, note=71, velocity=94, time=12),\n",
      "    Message('note_on', channel=3, note=71, velocity=0, time=48),\n",
      "    Message('note_on', channel=3, note=67, velocity=94, time=12),\n",
      "    Message('note_on', channel=3, note=67, velocity=0, time=48),\n",
      "    Message('note_on', channel=3, note=71, velocity=94, time=12),\n",
      "    Message('note_on', channel=3, note=71, velocity=0, time=48),\n",
      "    Message('note_on', channel=3, note=74, velocity=94, time=12),\n",
      "    Message('note_on', channel=3, note=74, velocity=0, time=48),\n",
      "    Message('note_on', channel=3, note=62, velocity=94, time=12),\n",
      "    Message('note_on', channel=3, note=71, velocity=94, time=0),\n",
      "    Message('note_on', channel=3, note=67, velocity=94, time=0),\n",
      "    Message('note_on', channel=3, note=62, velocity=0, time=336),\n",
      "    Message('note_on', channel=3, note=71, velocity=0, time=0),\n",
      "    Message('note_on', channel=3, note=67, velocity=0, time=0),\n",
      "    Message('note_on', channel=3, note=64, velocity=94, time=24),\n",
      "    Message('note_on', channel=3, note=67, velocity=94, time=0),\n",
      "    Message('note_on', channel=3, note=60, velocity=94, time=0),\n",
      "    Message('note_on', channel=3, note=72, velocity=94, time=0),\n",
      "    Message('note_on', channel=3, note=64, velocity=0, time=168),\n",
      "    Message('note_on', channel=3, note=67, velocity=0, time=0),\n",
      "    Message('note_on', channel=3, note=60, velocity=0, time=0),\n",
      "    Message('note_on', channel=3, note=72, velocity=0, time=0),\n",
      "    Message('note_on', channel=3, note=74, velocity=94, time=12),\n",
      "    Message('note_on', channel=3, note=74, velocity=0, time=336),\n",
      "    Message('note_on', channel=3, note=66, velocity=94, time=24),\n",
      "    Message('note_on', channel=3, note=71, velocity=94, time=0),\n",
      "    Message('note_on', channel=3, note=74, velocity=94, time=0),\n",
      "    Message('note_on', channel=3, note=62, velocity=94, time=0),\n",
      "    Message('note_on', channel=3, note=66, velocity=0, time=168),\n",
      "    Message('note_on', channel=3, note=71, velocity=0, time=0),\n",
      "    Message('note_on', channel=3, note=74, velocity=0, time=0),\n",
      "    Message('note_on', channel=3, note=62, velocity=0, time=0),\n",
      "    Message('note_on', channel=3, note=72, velocity=94, time=12),\n",
      "    Message('note_on', channel=3, note=72, velocity=0, time=336),\n",
      "    Message('note_on', channel=3, note=67, velocity=94, time=24),\n",
      "    Message('note_on', channel=3, note=62, velocity=94, time=0),\n",
      "    Message('note_on', channel=3, note=71, velocity=94, time=0),\n",
      "    Message('note_on', channel=3, note=67, velocity=0, time=168),\n",
      "    Message('note_on', channel=3, note=62, velocity=0, time=0),\n",
      "    Message('note_on', channel=3, note=71, velocity=0, time=0),\n",
      "    Message('note_on', channel=3, note=66, velocity=94, time=12),\n",
      "    Message('note_on', channel=3, note=69, velocity=94, time=0),\n",
      "    Message('note_on', channel=3, note=66, velocity=0, time=48),\n",
      "    Message('note_on', channel=3, note=69, velocity=0, time=0),\n",
      "    Message('note_on', channel=3, note=62, velocity=94, time=12),\n",
      "    Message('note_on', channel=3, note=62, velocity=0, time=48),\n",
      "    Message('note_on', channel=3, note=64, velocity=94, time=12),\n",
      "    Message('note_on', channel=3, note=64, velocity=0, time=48),\n",
      "    Message('note_on', channel=3, note=66, velocity=94, time=12),\n",
      "    Message('note_on', channel=3, note=69, velocity=94, time=0),\n",
      "    Message('note_on', channel=3, note=66, velocity=0, time=48),\n",
      "    Message('note_on', channel=3, note=69, velocity=0, time=0),\n",
      "    Message('note_on', channel=3, note=69, velocity=94, time=12),\n",
      "    Message('note_on', channel=3, note=69, velocity=0, time=48),\n",
      "    Message('note_on', channel=3, note=67, velocity=94, time=12),\n",
      "    Message('note_on', channel=3, note=67, velocity=0, time=48),\n",
      "    Message('note_on', channel=3, note=69, velocity=94, time=12),\n",
      "    Message('note_on', channel=3, note=69, velocity=0, time=48),\n",
      "    Message('note_on', channel=3, note=72, velocity=94, time=12),\n",
      "    Message('note_on', channel=3, note=72, velocity=0, time=48),\n",
      "    Message('note_on', channel=3, note=71, velocity=94, time=12),\n",
      "    Message('note_on', channel=3, note=71, velocity=0, time=48),\n",
      "    Message('note_on', channel=3, note=72, velocity=94, time=12),\n",
      "    Message('note_on', channel=3, note=72, velocity=0, time=48),\n",
      "    Message('note_on', channel=3, note=69, velocity=94, time=12),\n",
      "    Message('note_on', channel=3, note=69, velocity=0, time=48),\n",
      "    Message('note_on', channel=3, note=66, velocity=94, time=12),\n",
      "    Message('note_on', channel=3, note=66, velocity=0, time=48),\n",
      "    Message('note_on', channel=3, note=62, velocity=94, time=12),\n",
      "    Message('note_on', channel=3, note=62, velocity=0, time=48),\n",
      "    Message('note_on', channel=3, note=66, velocity=94, time=12),\n",
      "    Message('note_on', channel=3, note=66, velocity=0, time=48),\n",
      "    Message('note_on', channel=3, note=69, velocity=94, time=12),\n",
      "    Message('note_on', channel=3, note=69, velocity=0, time=48),\n",
      "    Message('note_on', channel=3, note=72, velocity=94, time=12),\n",
      "    Message('note_on', channel=3, note=72, velocity=0, time=48),\n",
      "    Message('note_on', channel=3, note=71, velocity=94, time=12),\n",
      "    Message('note_on', channel=3, note=71, velocity=0, time=48),\n",
      "    Message('note_on', channel=3, note=69, velocity=94, time=12),\n",
      "    Message('note_on', channel=3, note=69, velocity=0, time=48),\n",
      "    Message('note_on', channel=3, note=67, velocity=94, time=12),\n",
      "    Message('note_on', channel=3, note=71, velocity=94, time=0),\n",
      "    Message('note_on', channel=3, note=67, velocity=0, time=336),\n",
      "    Message('note_on', channel=3, note=71, velocity=0, time=0),\n",
      "    Message('note_on', channel=3, note=64, velocity=94, time=24),\n",
      "    Message('note_on', channel=3, note=72, velocity=94, time=0),\n",
      "    Message('note_on', channel=3, note=67, velocity=94, time=0),\n",
      "    Message('note_on', channel=3, note=60, velocity=94, time=0),\n",
      "    Message('note_on', channel=3, note=64, velocity=0, time=168),\n",
      "    Message('note_on', channel=3, note=72, velocity=0, time=0),\n",
      "    Message('note_on', channel=3, note=67, velocity=0, time=0),\n",
      "    Message('note_on', channel=3, note=60, velocity=0, time=0),\n",
      "    Message('note_on', channel=3, note=67, velocity=94, time=12),\n",
      "    Message('note_on', channel=3, note=62, velocity=94, time=0),\n",
      "    Message('note_on', channel=3, note=74, velocity=94, time=0),\n",
      "    Message('note_on', channel=3, note=67, velocity=0, time=336),\n",
      "    Message('note_on', channel=3, note=62, velocity=0, time=0),\n",
      "    Message('note_on', channel=3, note=74, velocity=0, time=0),\n",
      "    Message('note_on', channel=3, note=67, velocity=94, time=24),\n",
      "    Message('note_on', channel=3, note=64, velocity=94, time=0),\n",
      "    Message('note_on', channel=3, note=71, velocity=94, time=0),\n",
      "    Message('note_on', channel=3, note=67, velocity=0, time=168),\n",
      "    Message('note_on', channel=3, note=64, velocity=0, time=0),\n",
      "    Message('note_on', channel=3, note=71, velocity=0, time=0),\n",
      "    Message('note_on', channel=3, note=69, velocity=94, time=12),\n",
      "    Message('note_on', channel=3, note=69, velocity=0, time=116),\n",
      "    Message('note_on', channel=3, note=71, velocity=94, time=4),\n",
      "    Message('note_on', channel=3, note=72, velocity=94, time=30),\n",
      "    Message('note_on', channel=3, note=71, velocity=0, time=14),\n",
      "    Message('note_on', channel=3, note=71, velocity=94, time=16),\n",
      "    Message('note_on', channel=3, note=66, velocity=94, time=0),\n",
      "    Message('note_on', channel=3, note=62, velocity=94, time=0),\n",
      "    Message('note_on', channel=3, note=72, velocity=0, time=14),\n",
      "    Message('note_on', channel=3, note=66, velocity=94, time=166),\n",
      "    Message('note_on', channel=3, note=60, velocity=94, time=0),\n",
      "    Message('note_on', channel=3, note=69, velocity=94, time=0),\n",
      "    Message('note_on', channel=3, note=71, velocity=0, time=8),\n",
      "    Message('note_on', channel=3, note=66, velocity=0, time=0),\n",
      "    Message('note_on', channel=3, note=62, velocity=0, time=0),\n",
      "    Message('note_on', channel=3, note=67, velocity=94, time=172),\n",
      "    Message('note_on', channel=3, note=66, velocity=0, time=8),\n",
      "    Message('note_on', channel=3, note=60, velocity=0, time=0),\n",
      "    Message('note_on', channel=3, note=69, velocity=0, time=0),\n",
      "    Message('note_on', channel=3, note=67, velocity=0, time=40),\n",
      "    Message('note_on', channel=3, note=71, velocity=94, time=12),\n",
      "    Message('note_on', channel=3, note=71, velocity=0, time=48),\n",
      "    Message('note_on', channel=3, note=69, velocity=94, time=12),\n",
      "    Message('note_on', channel=3, note=69, velocity=0, time=48),\n",
      "    Message('note_on', channel=3, note=71, velocity=94, time=12),\n",
      "    Message('note_on', channel=3, note=71, velocity=0, time=48),\n",
      "    Message('note_on', channel=3, note=74, velocity=94, time=12),\n",
      "    Message('note_on', channel=3, note=74, velocity=0, time=48),\n",
      "    Message('note_on', channel=3, note=72, velocity=94, time=12),\n",
      "    Message('note_on', channel=3, note=72, velocity=0, time=48),\n",
      "    Message('note_on', channel=3, note=72, velocity=94, time=12),\n",
      "    Message('note_on', channel=3, note=72, velocity=0, time=48),\n",
      "    Message('note_on', channel=3, note=76, velocity=94, time=12),\n",
      "    Message('note_on', channel=3, note=76, velocity=0, time=48),\n",
      "    Message('note_on', channel=3, note=74, velocity=94, time=12),\n",
      "    Message('note_on', channel=3, note=74, velocity=0, time=48),\n",
      "    Message('note_on', channel=3, note=74, velocity=94, time=12),\n",
      "    Message('note_on', channel=3, note=74, velocity=0, time=48),\n",
      "    Message('note_on', channel=3, note=79, velocity=94, time=12),\n",
      "    Message('note_on', channel=3, note=79, velocity=0, time=48),\n",
      "    Message('note_on', channel=3, note=78, velocity=94, time=12),\n",
      "    Message('note_on', channel=3, note=78, velocity=0, time=48),\n",
      "    Message('note_on', channel=3, note=79, velocity=94, time=12),\n",
      "    Message('note_on', channel=3, note=79, velocity=0, time=48),\n",
      "    Message('note_on', channel=3, note=74, velocity=94, time=12),\n",
      "    Message('note_on', channel=3, note=74, velocity=0, time=48),\n",
      "    Message('note_on', channel=3, note=71, velocity=94, time=12),\n",
      "    Message('note_on', channel=3, note=71, velocity=0, time=48),\n",
      "    Message('note_on', channel=3, note=67, velocity=94, time=12),\n",
      "    Message('note_on', channel=3, note=67, velocity=0, time=48),\n",
      "    Message('note_on', channel=3, note=69, velocity=94, time=12),\n",
      "    Message('note_on', channel=3, note=69, velocity=0, time=48),\n",
      "    Message('note_on', channel=3, note=71, velocity=94, time=12),\n",
      "    Message('note_on', channel=3, note=71, velocity=0, time=48),\n",
      "    Message('note_on', channel=3, note=72, velocity=94, time=12),\n",
      "    Message('note_on', channel=3, note=72, velocity=0, time=48),\n",
      "    Message('note_on', channel=3, note=74, velocity=94, time=12),\n",
      "    Message('note_on', channel=3, note=74, velocity=0, time=48),\n",
      "    Message('note_on', channel=3, note=76, velocity=94, time=12),\n",
      "    Message('note_on', channel=3, note=76, velocity=0, time=48),\n",
      "    Message('note_on', channel=3, note=74, velocity=94, time=12),\n",
      "    Message('note_on', channel=3, note=74, velocity=0, time=48),\n",
      "    Message('note_on', channel=3, note=72, velocity=94, time=12),\n",
      "    Message('note_on', channel=3, note=72, velocity=0, time=48),\n",
      "    Message('note_on', channel=3, note=71, velocity=94, time=12),\n",
      "    Message('note_on', channel=3, note=71, velocity=0, time=48),\n",
      "    Message('note_on', channel=3, note=69, velocity=94, time=12),\n",
      "    Message('note_on', channel=3, note=69, velocity=0, time=48),\n",
      "    Message('note_on', channel=3, note=71, velocity=94, time=12),\n",
      "    Message('note_on', channel=3, note=71, velocity=0, time=48),\n",
      "    Message('note_on', channel=3, note=67, velocity=94, time=12),\n",
      "    Message('note_on', channel=3, note=67, velocity=0, time=48),\n",
      "    Message('note_on', channel=3, note=66, velocity=94, time=12),\n",
      "    Message('note_on', channel=3, note=66, velocity=0, time=48),\n",
      "    Message('note_on', channel=3, note=67, velocity=94, time=12),\n",
      "    Message('note_on', channel=3, note=67, velocity=0, time=48),\n",
      "    Message('note_on', channel=3, note=69, velocity=94, time=12),\n",
      "    Message('note_on', channel=3, note=69, velocity=0, time=48),\n",
      "    Message('note_on', channel=3, note=62, velocity=94, time=12),\n",
      "    Message('note_on', channel=3, note=62, velocity=0, time=48),\n",
      "    Message('note_on', channel=3, note=66, velocity=94, time=12),\n",
      "    Message('note_on', channel=3, note=66, velocity=0, time=48),\n",
      "    Message('note_on', channel=3, note=69, velocity=94, time=12),\n",
      "    Message('note_on', channel=3, note=69, velocity=0, time=48),\n",
      "    Message('note_on', channel=3, note=72, velocity=94, time=12),\n",
      "    Message('note_on', channel=3, note=72, velocity=0, time=48),\n",
      "    Message('note_on', channel=3, note=71, velocity=94, time=12),\n",
      "    Message('note_on', channel=3, note=71, velocity=0, time=48),\n",
      "    Message('note_on', channel=3, note=69, velocity=94, time=12),\n",
      "    Message('note_on', channel=3, note=69, velocity=0, time=48),\n",
      "    Message('note_on', channel=3, note=71, velocity=94, time=12),\n",
      "    Message('note_on', channel=3, note=71, velocity=0, time=48),\n",
      "    Message('note_on', channel=3, note=67, velocity=94, time=12),\n",
      "    Message('note_on', channel=3, note=67, velocity=0, time=48),\n",
      "    Message('note_on', channel=3, note=69, velocity=94, time=12),\n",
      "    Message('note_on', channel=3, note=69, velocity=0, time=48),\n",
      "    Message('note_on', channel=3, note=71, velocity=94, time=12),\n",
      "    Message('note_on', channel=3, note=71, velocity=0, time=48),\n",
      "    Message('note_on', channel=3, note=74, velocity=94, time=12),\n",
      "    Message('note_on', channel=3, note=74, velocity=0, time=48),\n",
      "    Message('note_on', channel=3, note=72, velocity=94, time=12),\n",
      "    Message('note_on', channel=3, note=72, velocity=0, time=48),\n",
      "    Message('note_on', channel=3, note=72, velocity=94, time=12),\n",
      "    Message('note_on', channel=3, note=72, velocity=0, time=48),\n",
      "    Message('note_on', channel=3, note=76, velocity=94, time=12),\n",
      "    Message('note_on', channel=3, note=76, velocity=0, time=48),\n",
      "    Message('note_on', channel=3, note=74, velocity=94, time=12),\n",
      "    Message('note_on', channel=3, note=74, velocity=0, time=48),\n",
      "    Message('note_on', channel=3, note=74, velocity=94, time=12),\n",
      "    Message('note_on', channel=3, note=74, velocity=0, time=48),\n",
      "    Message('note_on', channel=3, note=79, velocity=94, time=12),\n",
      "    Message('note_on', channel=3, note=79, velocity=0, time=48),\n",
      "    Message('note_on', channel=3, note=78, velocity=94, time=12),\n",
      "    Message('note_on', channel=3, note=78, velocity=0, time=48),\n",
      "    Message('note_on', channel=3, note=79, velocity=94, time=12),\n",
      "    Message('note_on', channel=3, note=79, velocity=0, time=48),\n",
      "    Message('note_on', channel=3, note=74, velocity=94, time=12),\n",
      "    Message('note_on', channel=3, note=74, velocity=0, time=48),\n",
      "    Message('note_on', channel=3, note=71, velocity=94, time=12),\n",
      "    Message('note_on', channel=3, note=71, velocity=0, time=48),\n",
      "    Message('note_on', channel=3, note=67, velocity=94, time=12),\n",
      "    Message('note_on', channel=3, note=67, velocity=0, time=48),\n",
      "    Message('note_on', channel=3, note=69, velocity=94, time=12),\n",
      "    Message('note_on', channel=3, note=69, velocity=0, time=48),\n",
      "    Message('note_on', channel=3, note=71, velocity=94, time=12),\n",
      "    Message('note_on', channel=3, note=71, velocity=0, time=48),\n",
      "    Message('note_on', channel=3, note=64, velocity=94, time=12),\n",
      "    Message('note_on', channel=3, note=64, velocity=0, time=48),\n",
      "    Message('note_on', channel=3, note=74, velocity=94, time=12),\n",
      "    Message('note_on', channel=3, note=74, velocity=0, time=48),\n",
      "    Message('note_on', channel=3, note=72, velocity=94, time=12),\n",
      "    Message('note_on', channel=3, note=72, velocity=0, time=48),\n",
      "    Message('note_on', channel=3, note=71, velocity=94, time=12),\n",
      "    Message('note_on', channel=3, note=71, velocity=0, time=48),\n",
      "    Message('note_on', channel=3, note=69, velocity=94, time=12),\n",
      "    Message('note_on', channel=3, note=69, velocity=0, time=48),\n",
      "    Message('note_on', channel=3, note=67, velocity=94, time=12),\n",
      "    Message('note_on', channel=3, note=67, velocity=0, time=48),\n",
      "    Message('note_on', channel=3, note=62, velocity=94, time=12),\n",
      "    Message('note_on', channel=3, note=62, velocity=0, time=48),\n",
      "    Message('note_on', channel=3, note=67, velocity=94, time=12),\n",
      "    Message('note_on', channel=3, note=67, velocity=0, time=48),\n",
      "    Message('note_on', channel=3, note=66, velocity=94, time=12),\n",
      "    Message('note_on', channel=3, note=66, velocity=0, time=48),\n",
      "    Message('note_on', channel=3, note=67, velocity=94, time=12),\n",
      "    Message('note_on', channel=3, note=71, velocity=94, time=0),\n",
      "    Message('note_on', channel=3, note=67, velocity=0, time=336),\n",
      "    Message('note_on', channel=3, note=71, velocity=0, time=0),\n",
      "    Message('note_on', channel=3, note=64, velocity=94, time=24),\n",
      "    Message('note_on', channel=3, note=60, velocity=94, time=0),\n",
      "    Message('note_on', channel=3, note=67, velocity=94, time=0),\n",
      "    Message('note_on', channel=3, note=72, velocity=94, time=0),\n",
      "    Message('note_on', channel=3, note=64, velocity=0, time=168),\n",
      "    Message('note_on', channel=3, note=60, velocity=0, time=0),\n",
      "    Message('note_on', channel=3, note=67, velocity=0, time=0),\n",
      "    Message('note_on', channel=3, note=72, velocity=0, time=0),\n",
      "    Message('note_on', channel=3, note=74, velocity=94, time=12),\n",
      "    Message('note_on', channel=3, note=74, velocity=0, time=336),\n",
      "    Message('note_on', channel=3, note=66, velocity=94, time=24),\n",
      "    Message('note_on', channel=3, note=71, velocity=94, time=0),\n",
      "    Message('note_on', channel=3, note=74, velocity=94, time=0),\n",
      "    Message('note_on', channel=3, note=62, velocity=94, time=0),\n",
      "    Message('note_on', channel=3, note=66, velocity=0, time=168),\n",
      "    Message('note_on', channel=3, note=71, velocity=0, time=0),\n",
      "    Message('note_on', channel=3, note=74, velocity=0, time=0),\n",
      "    Message('note_on', channel=3, note=62, velocity=0, time=0),\n",
      "    Message('note_on', channel=3, note=72, velocity=94, time=12),\n",
      "    Message('note_on', channel=3, note=72, velocity=0, time=336),\n",
      "    Message('note_on', channel=3, note=67, velocity=94, time=24),\n",
      "    Message('note_on', channel=3, note=62, velocity=94, time=0),\n",
      "    Message('note_on', channel=3, note=71, velocity=94, time=0),\n",
      "    Message('note_on', channel=3, note=67, velocity=0, time=168),\n",
      "    Message('note_on', channel=3, note=62, velocity=0, time=0),\n",
      "    Message('note_on', channel=3, note=71, velocity=0, time=0),\n",
      "    Message('note_on', channel=3, note=66, velocity=94, time=12),\n",
      "    Message('note_on', channel=3, note=69, velocity=94, time=0),\n",
      "    Message('note_on', channel=3, note=66, velocity=0, time=48),\n",
      "    Message('note_on', channel=3, note=69, velocity=0, time=0),\n",
      "    Message('note_on', channel=3, note=62, velocity=94, time=12),\n",
      "    Message('note_on', channel=3, note=62, velocity=0, time=48),\n",
      "    Message('note_on', channel=3, note=64, velocity=94, time=12),\n",
      "    Message('note_on', channel=3, note=64, velocity=0, time=48),\n",
      "    Message('note_on', channel=3, note=66, velocity=94, time=12),\n",
      "    Message('note_on', channel=3, note=69, velocity=94, time=0),\n",
      "    Message('note_on', channel=3, note=66, velocity=0, time=48),\n",
      "    Message('note_on', channel=3, note=69, velocity=0, time=0),\n",
      "    Message('note_on', channel=3, note=69, velocity=94, time=12),\n",
      "    Message('note_on', channel=3, note=69, velocity=0, time=48),\n",
      "    Message('note_on', channel=3, note=67, velocity=94, time=12),\n",
      "    Message('note_on', channel=3, note=67, velocity=0, time=48),\n",
      "    Message('note_on', channel=3, note=69, velocity=94, time=12),\n",
      "    Message('note_on', channel=3, note=69, velocity=0, time=48),\n",
      "    Message('note_on', channel=3, note=72, velocity=94, time=12),\n",
      "    Message('note_on', channel=3, note=72, velocity=0, time=48),\n",
      "    Message('note_on', channel=3, note=71, velocity=94, time=12),\n",
      "    Message('note_on', channel=3, note=71, velocity=0, time=48),\n",
      "    Message('note_on', channel=3, note=72, velocity=94, time=12),\n",
      "    Message('note_on', channel=3, note=72, velocity=0, time=48),\n",
      "    Message('note_on', channel=3, note=69, velocity=94, time=12),\n",
      "    Message('note_on', channel=3, note=69, velocity=0, time=48),\n",
      "    Message('note_on', channel=3, note=66, velocity=94, time=12),\n",
      "    Message('note_on', channel=3, note=66, velocity=0, time=48),\n",
      "    Message('note_on', channel=3, note=62, velocity=94, time=12),\n",
      "    Message('note_on', channel=3, note=62, velocity=0, time=48),\n",
      "    Message('note_on', channel=3, note=66, velocity=94, time=12),\n",
      "    Message('note_on', channel=3, note=66, velocity=0, time=48),\n",
      "    Message('note_on', channel=3, note=69, velocity=94, time=12),\n",
      "    Message('note_on', channel=3, note=69, velocity=0, time=48),\n",
      "    Message('note_on', channel=3, note=72, velocity=94, time=12),\n",
      "    Message('note_on', channel=3, note=72, velocity=0, time=48),\n",
      "    Message('note_on', channel=3, note=71, velocity=94, time=12),\n",
      "    Message('note_on', channel=3, note=71, velocity=0, time=48),\n",
      "    Message('note_on', channel=3, note=69, velocity=94, time=12),\n",
      "    Message('note_on', channel=3, note=69, velocity=0, time=48),\n",
      "    Message('note_on', channel=3, note=71, velocity=94, time=12),\n",
      "    Message('note_on', channel=3, note=67, velocity=94, time=0),\n",
      "    Message('note_on', channel=3, note=71, velocity=0, time=336),\n",
      "    Message('note_on', channel=3, note=67, velocity=0, time=0),\n",
      "    Message('note_on', channel=3, note=64, velocity=94, time=24),\n",
      "    Message('note_on', channel=3, note=60, velocity=94, time=0),\n",
      "    Message('note_on', channel=3, note=67, velocity=94, time=0),\n",
      "    Message('note_on', channel=3, note=72, velocity=94, time=0),\n",
      "    Message('note_on', channel=3, note=64, velocity=0, time=168),\n",
      "    Message('note_on', channel=3, note=60, velocity=0, time=0),\n",
      "    Message('note_on', channel=3, note=67, velocity=0, time=0),\n",
      "    Message('note_on', channel=3, note=72, velocity=0, time=0),\n",
      "    Message('note_on', channel=3, note=67, velocity=94, time=12),\n",
      "    Message('note_on', channel=3, note=74, velocity=94, time=0),\n",
      "    Message('note_on', channel=3, note=62, velocity=94, time=0),\n",
      "    Message('note_on', channel=3, note=67, velocity=0, time=336),\n",
      "    Message('note_on', channel=3, note=74, velocity=0, time=0),\n",
      "    Message('note_on', channel=3, note=62, velocity=0, time=0),\n",
      "    Message('note_on', channel=3, note=67, velocity=94, time=24),\n",
      "    Message('note_on', channel=3, note=64, velocity=94, time=0),\n",
      "    Message('note_on', channel=3, note=71, velocity=94, time=0),\n",
      "    Message('note_on', channel=3, note=67, velocity=0, time=168),\n",
      "    Message('note_on', channel=3, note=64, velocity=0, time=0),\n",
      "    Message('note_on', channel=3, note=71, velocity=0, time=0),\n",
      "    Message('note_on', channel=3, note=69, velocity=94, time=12),\n",
      "    Message('note_on', channel=3, note=69, velocity=0, time=116),\n",
      "    Message('note_on', channel=3, note=71, velocity=94, time=4),\n",
      "    Message('note_on', channel=3, note=72, velocity=94, time=30),\n",
      "    Message('note_on', channel=3, note=71, velocity=0, time=14),\n",
      "    Message('note_on', channel=3, note=66, velocity=94, time=16),\n",
      "    Message('note_on', channel=3, note=71, velocity=94, time=0),\n",
      "    Message('note_on', channel=3, note=62, velocity=94, time=0),\n",
      "    Message('note_on', channel=3, note=72, velocity=0, time=14),\n",
      "    Message('note_on', channel=3, note=66, velocity=0, time=154),\n",
      "    Message('note_on', channel=3, note=71, velocity=0, time=0),\n",
      "    Message('note_on', channel=3, note=62, velocity=0, time=0),\n",
      "    Message('note_on', channel=3, note=66, velocity=94, time=12),\n",
      "    Message('note_on', channel=3, note=60, velocity=94, time=0),\n",
      "    Message('note_on', channel=3, note=69, velocity=94, time=0),\n",
      "    Message('note_on', channel=3, note=66, velocity=0, time=168),\n",
      "    Message('note_on', channel=3, note=60, velocity=0, time=0),\n",
      "    Message('note_on', channel=3, note=69, velocity=0, time=0),\n",
      "    Message('note_on', channel=3, note=67, velocity=94, time=12),\n",
      "    Message('note_on', channel=3, note=67, velocity=0, time=48),\n",
      "    Message('note_on', channel=3, note=71, velocity=94, time=12),\n",
      "    Message('note_on', channel=3, note=71, velocity=0, time=48),\n",
      "    Message('note_on', channel=3, note=69, velocity=94, time=12),\n",
      "    Message('note_on', channel=3, note=69, velocity=0, time=48),\n",
      "    Message('note_on', channel=3, note=71, velocity=94, time=12),\n",
      "    Message('note_on', channel=3, note=71, velocity=0, time=48),\n",
      "    Message('note_on', channel=3, note=74, velocity=94, time=12),\n",
      "    Message('note_on', channel=3, note=74, velocity=0, time=48),\n",
      "    Message('note_on', channel=3, note=72, velocity=94, time=12),\n",
      "    Message('note_on', channel=3, note=72, velocity=0, time=48),\n",
      "    Message('note_on', channel=3, note=72, velocity=94, time=12),\n",
      "    Message('note_on', channel=3, note=72, velocity=0, time=48),\n",
      "    Message('note_on', channel=3, note=76, velocity=94, time=12),\n",
      "    Message('note_on', channel=3, note=76, velocity=0, time=48),\n",
      "    Message('note_on', channel=3, note=74, velocity=94, time=12),\n",
      "    Message('note_on', channel=3, note=74, velocity=0, time=48),\n",
      "    Message('note_on', channel=3, note=74, velocity=94, time=12),\n",
      "    Message('note_on', channel=3, note=74, velocity=0, time=48),\n",
      "    Message('note_on', channel=3, note=79, velocity=94, time=12),\n",
      "    Message('note_on', channel=3, note=79, velocity=0, time=48),\n",
      "    Message('note_on', channel=3, note=78, velocity=94, time=12),\n",
      "    Message('note_on', channel=3, note=78, velocity=0, time=48),\n",
      "    Message('note_on', channel=3, note=79, velocity=94, time=12),\n",
      "    Message('note_on', channel=3, note=79, velocity=0, time=48),\n",
      "    Message('note_on', channel=3, note=74, velocity=94, time=12),\n",
      "    Message('note_on', channel=3, note=74, velocity=0, time=48),\n",
      "    Message('note_on', channel=3, note=71, velocity=94, time=12),\n",
      "    Message('note_on', channel=3, note=71, velocity=0, time=48),\n",
      "    Message('note_on', channel=3, note=67, velocity=94, time=12),\n",
      "    Message('note_on', channel=3, note=67, velocity=0, time=48),\n",
      "    Message('note_on', channel=3, note=69, velocity=94, time=12),\n",
      "    Message('note_on', channel=3, note=69, velocity=0, time=48),\n",
      "    Message('note_on', channel=3, note=71, velocity=94, time=12),\n",
      "    Message('note_on', channel=3, note=71, velocity=0, time=48),\n",
      "    Message('note_on', channel=3, note=72, velocity=94, time=12),\n",
      "    Message('note_on', channel=3, note=72, velocity=0, time=48),\n",
      "    Message('note_on', channel=3, note=74, velocity=94, time=12),\n",
      "    Message('note_on', channel=3, note=74, velocity=0, time=48),\n",
      "    Message('note_on', channel=3, note=76, velocity=94, time=12),\n",
      "    Message('note_on', channel=3, note=76, velocity=0, time=48),\n",
      "    Message('note_on', channel=3, note=74, velocity=94, time=12),\n",
      "    Message('note_on', channel=3, note=74, velocity=0, time=48),\n",
      "    Message('note_on', channel=3, note=72, velocity=94, time=12),\n",
      "    Message('note_on', channel=3, note=72, velocity=0, time=48),\n",
      "    Message('note_on', channel=3, note=71, velocity=94, time=12),\n",
      "    Message('note_on', channel=3, note=71, velocity=0, time=48),\n",
      "    Message('note_on', channel=3, note=69, velocity=94, time=12),\n",
      "    Message('note_on', channel=3, note=69, velocity=0, time=48),\n",
      "    Message('note_on', channel=3, note=71, velocity=94, time=12),\n",
      "    Message('note_on', channel=3, note=71, velocity=0, time=48),\n",
      "    Message('note_on', channel=3, note=67, velocity=94, time=12),\n",
      "    Message('note_on', channel=3, note=67, velocity=0, time=48),\n",
      "    Message('note_on', channel=3, note=66, velocity=94, time=12),\n",
      "    Message('note_on', channel=3, note=66, velocity=0, time=48),\n",
      "    Message('note_on', channel=3, note=67, velocity=94, time=12),\n",
      "    Message('note_on', channel=3, note=67, velocity=0, time=48),\n",
      "    Message('note_on', channel=3, note=69, velocity=94, time=12),\n",
      "    Message('note_on', channel=3, note=69, velocity=0, time=48),\n",
      "    Message('note_on', channel=3, note=62, velocity=94, time=12),\n",
      "    Message('note_on', channel=3, note=62, velocity=0, time=48),\n",
      "    Message('note_on', channel=3, note=66, velocity=94, time=12),\n",
      "    Message('note_on', channel=3, note=66, velocity=0, time=48),\n",
      "    Message('note_on', channel=3, note=69, velocity=94, time=12),\n",
      "    Message('note_on', channel=3, note=69, velocity=0, time=48),\n",
      "    Message('note_on', channel=3, note=72, velocity=94, time=12),\n",
      "    Message('note_on', channel=3, note=72, velocity=0, time=48),\n",
      "    Message('note_on', channel=3, note=71, velocity=94, time=12),\n",
      "    Message('note_on', channel=3, note=71, velocity=0, time=48),\n",
      "    Message('note_on', channel=3, note=69, velocity=94, time=12),\n",
      "    Message('note_on', channel=3, note=69, velocity=0, time=48),\n",
      "    Message('note_on', channel=3, note=71, velocity=94, time=12),\n",
      "    Message('note_on', channel=3, note=71, velocity=0, time=48),\n",
      "    Message('note_on', channel=3, note=67, velocity=94, time=12),\n",
      "    Message('note_on', channel=3, note=67, velocity=0, time=48),\n",
      "    Message('note_on', channel=3, note=69, velocity=94, time=12),\n",
      "    Message('note_on', channel=3, note=69, velocity=0, time=48),\n",
      "    Message('note_on', channel=3, note=71, velocity=94, time=12),\n",
      "    Message('note_on', channel=3, note=71, velocity=0, time=48),\n",
      "    Message('note_on', channel=3, note=74, velocity=94, time=12),\n",
      "    Message('note_on', channel=3, note=74, velocity=0, time=48),\n",
      "    Message('note_on', channel=3, note=72, velocity=94, time=12),\n",
      "    Message('note_on', channel=3, note=72, velocity=0, time=48),\n",
      "    Message('note_on', channel=3, note=72, velocity=94, time=12),\n",
      "    Message('note_on', channel=3, note=72, velocity=0, time=48),\n",
      "    Message('note_on', channel=3, note=76, velocity=94, time=12),\n",
      "    Message('note_on', channel=3, note=76, velocity=0, time=48),\n",
      "    Message('note_on', channel=3, note=74, velocity=94, time=12),\n",
      "    Message('note_on', channel=3, note=74, velocity=0, time=48),\n",
      "    Message('note_on', channel=3, note=74, velocity=94, time=12),\n",
      "    Message('note_on', channel=3, note=74, velocity=0, time=48),\n",
      "    Message('note_on', channel=3, note=79, velocity=94, time=12),\n",
      "    Message('note_on', channel=3, note=79, velocity=0, time=48),\n",
      "    Message('note_on', channel=3, note=78, velocity=94, time=12),\n",
      "    Message('note_on', channel=3, note=78, velocity=0, time=48),\n",
      "    Message('note_on', channel=3, note=79, velocity=94, time=12),\n",
      "    Message('note_on', channel=3, note=79, velocity=0, time=48),\n",
      "    Message('note_on', channel=3, note=74, velocity=94, time=12),\n",
      "    Message('note_on', channel=3, note=74, velocity=0, time=48),\n",
      "    Message('note_on', channel=3, note=71, velocity=94, time=12),\n",
      "    Message('note_on', channel=3, note=71, velocity=0, time=48),\n",
      "    Message('note_on', channel=3, note=67, velocity=94, time=12),\n",
      "    Message('note_on', channel=3, note=67, velocity=0, time=48),\n",
      "    Message('note_on', channel=3, note=69, velocity=94, time=12),\n",
      "    Message('note_on', channel=3, note=69, velocity=0, time=48),\n",
      "    Message('note_on', channel=3, note=71, velocity=94, time=12),\n",
      "    Message('note_on', channel=3, note=71, velocity=0, time=48),\n",
      "    Message('note_on', channel=3, note=64, velocity=94, time=12),\n",
      "    Message('note_on', channel=3, note=64, velocity=0, time=48),\n",
      "    Message('note_on', channel=3, note=74, velocity=94, time=12),\n",
      "    Message('note_on', channel=3, note=74, velocity=0, time=48),\n",
      "    Message('note_on', channel=3, note=72, velocity=94, time=12),\n",
      "    Message('note_on', channel=3, note=72, velocity=0, time=48),\n",
      "    Message('note_on', channel=3, note=71, velocity=94, time=12),\n",
      "    Message('note_on', channel=3, note=71, velocity=0, time=48),\n",
      "    Message('note_on', channel=3, note=69, velocity=94, time=12),\n",
      "    Message('note_on', channel=3, note=69, velocity=0, time=48),\n",
      "    Message('note_on', channel=3, note=67, velocity=94, time=12),\n",
      "    Message('note_on', channel=3, note=67, velocity=0, time=48),\n",
      "    Message('note_on', channel=3, note=62, velocity=94, time=12),\n",
      "    Message('note_on', channel=3, note=62, velocity=0, time=48),\n",
      "    Message('note_on', channel=3, note=67, velocity=94, time=12),\n",
      "    Message('note_on', channel=3, note=67, velocity=0, time=48),\n",
      "    Message('note_on', channel=3, note=66, velocity=94, time=12),\n",
      "    Message('note_on', channel=3, note=66, velocity=0, time=48),\n",
      "    Message('note_on', channel=3, note=67, velocity=94, time=12),\n",
      "    Message('note_on', channel=3, note=67, velocity=0, time=48),\n",
      "    Message('note_on', channel=3, note=71, velocity=94, time=12),\n",
      "    Message('note_on', channel=3, note=71, velocity=0, time=48),\n",
      "    Message('note_on', channel=3, note=74, velocity=94, time=12),\n",
      "    Message('note_on', channel=3, note=74, velocity=0, time=48),\n",
      "    Message('note_on', channel=3, note=79, velocity=94, time=12),\n",
      "    Message('note_on', channel=3, note=79, velocity=0, time=48),\n",
      "    Message('note_on', channel=3, note=74, velocity=94, time=12),\n",
      "    Message('note_on', channel=3, note=74, velocity=0, time=48),\n",
      "    Message('note_on', channel=3, note=71, velocity=94, time=12),\n",
      "    Message('note_on', channel=3, note=71, velocity=0, time=48),\n",
      "    Message('note_on', channel=3, note=67, velocity=94, time=12),\n",
      "    Message('note_on', channel=3, note=67, velocity=0, time=168),\n",
      "    Message('note_on', channel=3, note=66, velocity=84, time=13),\n",
      "    Message('note_on', channel=3, note=69, velocity=84, time=0),\n",
      "    Message('note_on', channel=3, note=66, velocity=0, time=336),\n",
      "    Message('note_on', channel=3, note=69, velocity=0, time=0),\n",
      "    Message('note_on', channel=3, note=68, velocity=84, time=24),\n",
      "    Message('note_on', channel=3, note=71, velocity=84, time=0),\n",
      "    Message('note_on', channel=3, note=62, velocity=84, time=0),\n",
      "    Message('note_on', channel=3, note=68, velocity=0, time=168),\n",
      "    Message('note_on', channel=3, note=71, velocity=0, time=0),\n",
      "    Message('note_on', channel=3, note=62, velocity=0, time=0),\n",
      "    Message('note_on', channel=3, note=72, velocity=84, time=12),\n",
      "    Message('note_on', channel=3, note=64, velocity=84, time=0),\n",
      "    Message('note_on', channel=3, note=69, velocity=84, time=0),\n",
      "    Message('note_on', channel=3, note=72, velocity=0, time=336),\n",
      "    Message('note_on', channel=3, note=64, velocity=0, time=0),\n",
      "    Message('note_on', channel=3, note=69, velocity=0, time=0),\n",
      "    Message('note_on', channel=3, note=69, velocity=84, time=24),\n",
      "    Message('note_on', channel=3, note=64, velocity=84, time=0),\n",
      "    Message('note_on', channel=3, note=72, velocity=84, time=0),\n",
      "    Message('note_on', channel=3, note=69, velocity=0, time=168),\n",
      "    Message('note_on', channel=3, note=64, velocity=0, time=0),\n",
      "    Message('note_on', channel=3, note=72, velocity=0, time=0),\n",
      "    Message('note_on', channel=3, note=71, velocity=84, time=12),\n",
      "    Message('note_on', channel=3, note=71, velocity=0, time=276),\n",
      "    Message('note_on', channel=3, note=72, velocity=84, time=24),\n",
      "    Message('note_on', channel=3, note=72, velocity=0, time=24),\n",
      "    Message('note_on', channel=3, note=74, velocity=84, time=6),\n",
      "    Message('note_on', channel=3, note=74, velocity=0, time=24),\n",
      "    Message('note_on', channel=3, note=71, velocity=84, time=6),\n",
      "    Message('note_on', channel=3, note=68, velocity=84, time=0),\n",
      "    Message('note_on', channel=3, note=71, velocity=0, time=168),\n",
      "    Message('note_on', channel=3, note=68, velocity=0, time=0),\n",
      "    Message('note_on', channel=3, note=67, velocity=84, time=12),\n",
      "    Message('note_on', channel=3, note=67, velocity=0, time=168),\n",
      "    Message('note_on', channel=3, note=67, velocity=84, time=12),\n",
      "    Message('note_on', channel=3, note=67, velocity=0, time=48),\n",
      "    Message('note_on', channel=3, note=76, velocity=84, time=12),\n",
      "    Message('note_on', channel=3, note=76, velocity=0, time=48),\n",
      "    Message('note_on', channel=3, note=74, velocity=84, time=12),\n",
      "    Message('note_on', channel=3, note=74, velocity=0, time=48),\n",
      "    Message('note_on', channel=3, note=74, velocity=84, time=12),\n",
      "    Message('note_on', channel=3, note=74, velocity=0, time=48),\n",
      "    Message('note_on', channel=3, note=77, velocity=84, time=12),\n",
      "    Message('note_on', channel=3, note=77, velocity=0, time=48),\n",
      "    Message('note_on', channel=3, note=76, velocity=84, time=12),\n",
      "    Message('note_on', channel=3, note=76, velocity=0, time=48),\n",
      "    Message('note_on', channel=3, note=76, velocity=84, time=12),\n",
      "    Message('note_on', channel=3, note=76, velocity=0, time=48),\n",
      "    Message('note_on', channel=3, note=81, velocity=84, time=12),\n",
      "    Message('note_on', channel=3, note=81, velocity=0, time=48),\n",
      "    Message('note_on', channel=3, note=80, velocity=84, time=12),\n",
      "    Message('note_on', channel=3, note=80, velocity=0, time=48),\n",
      "    Message('note_on', channel=3, note=81, velocity=84, time=12),\n",
      "    Message('note_on', channel=3, note=81, velocity=0, time=48),\n",
      "    Message('note_on', channel=3, note=76, velocity=84, time=12),\n",
      "    Message('note_on', channel=3, note=76, velocity=0, time=48),\n",
      "    Message('note_on', channel=3, note=72, velocity=84, time=12),\n",
      "    Message('note_on', channel=3, note=72, velocity=0, time=48),\n",
      "    Message('note_on', channel=3, note=69, velocity=84, time=12),\n",
      "    Message('note_on', channel=3, note=69, velocity=0, time=48),\n",
      "    Message('note_on', channel=3, note=71, velocity=84, time=12),\n",
      "    Message('note_on', channel=3, note=71, velocity=0, time=48),\n",
      "    Message('note_on', channel=3, note=72, velocity=84, time=12),\n",
      "    Message('note_on', channel=3, note=72, velocity=0, time=48),\n",
      "    Message('note_on', channel=3, note=77, velocity=84, time=12),\n",
      "    Message('note_on', channel=3, note=77, velocity=0, time=48),\n",
      "    Message('note_on', channel=3, note=76, velocity=84, time=12),\n",
      "    Message('note_on', channel=3, note=76, velocity=0, time=48),\n",
      "    Message('note_on', channel=3, note=74, velocity=84, time=12),\n",
      "    Message('note_on', channel=3, note=74, velocity=0, time=48),\n",
      "    Message('note_on', channel=3, note=72, velocity=84, time=12),\n",
      "    Message('note_on', channel=3, note=72, velocity=0, time=48),\n",
      "    Message('note_on', channel=3, note=71, velocity=84, time=12),\n",
      "    Message('note_on', channel=3, note=71, velocity=0, time=48),\n",
      "    Message('note_on', channel=3, note=69, velocity=84, time=12),\n",
      "    Message('note_on', channel=3, note=69, velocity=0, time=48),\n",
      "    Message('note_on', channel=3, note=64, velocity=84, time=12),\n",
      "    Message('note_on', channel=3, note=64, velocity=0, time=48),\n",
      "    Message('note_on', channel=3, note=69, velocity=84, time=12),\n",
      "    Message('note_on', channel=3, note=69, velocity=0, time=48),\n",
      "    Message('note_on', channel=3, note=68, velocity=84, time=12),\n",
      "    Message('note_on', channel=3, note=62, velocity=84, time=0),\n",
      "    Message('note_on', channel=3, note=68, velocity=0, time=48),\n",
      "    Message('note_on', channel=3, note=62, velocity=0, time=0),\n",
      "    Message('note_on', channel=3, note=64, velocity=84, time=12),\n",
      "    Message('note_on', channel=3, note=69, velocity=84, time=0),\n",
      "    Message('note_on', channel=3, note=72, velocity=84, time=0),\n",
      "    Message('note_on', channel=3, note=64, velocity=0, time=336),\n",
      "    Message('note_on', channel=3, note=69, velocity=0, time=0),\n",
      "    Message('note_on', channel=3, note=72, velocity=0, time=0),\n",
      "    Message('note_on', channel=3, note=74, velocity=84, time=24),\n",
      "    Message('note_on', channel=3, note=62, velocity=84, time=0),\n",
      "    Message('note_on', channel=3, note=67, velocity=84, time=0),\n",
      "    Message('note_on', channel=3, note=74, velocity=0, time=168),\n",
      "    Message('note_on', channel=3, note=62, velocity=0, time=0),\n",
      "    Message('note_on', channel=3, note=67, velocity=0, time=0),\n",
      "    Message('note_on', channel=3, note=72, velocity=84, time=12),\n",
      "    Message('note_on', channel=3, note=76, velocity=84, time=0),\n",
      "    Message('note_on', channel=3, note=72, velocity=0, time=336),\n",
      "    Message('note_on', channel=3, note=76, velocity=0, time=0),\n",
      "    Message('note_on', channel=3, note=72, velocity=84, time=24),\n",
      "    Message('note_on', channel=3, note=76, velocity=84, time=0),\n",
      "    Message('note_on', channel=3, note=67, velocity=84, time=0),\n",
      "    Message('note_on', channel=3, note=72, velocity=0, time=168),\n",
      "    Message('note_on', channel=3, note=76, velocity=0, time=0),\n",
      "    Message('note_on', channel=3, note=67, velocity=0, time=0),\n",
      "    Message('note_on', channel=3, note=74, velocity=84, time=12),\n",
      "    Message('note_on', channel=3, note=74, velocity=0, time=276),\n",
      "    Message('note_on', channel=3, note=76, velocity=84, time=24),\n",
      "    Message('note_on', channel=3, note=76, velocity=0, time=24),\n",
      "    Message('note_on', channel=3, note=77, velocity=84, time=6),\n",
      "    Message('note_on', channel=3, note=77, velocity=0, time=24),\n",
      "    Message('note_on', channel=3, note=74, velocity=84, time=6),\n",
      "    Message('note_on', channel=3, note=74, velocity=0, time=168),\n",
      "    Message('note_on', channel=3, note=64, velocity=84, time=12),\n",
      "    Message('note_on', channel=3, note=72, velocity=84, time=0),\n",
      "    Message('note_on', channel=3, note=64, velocity=0, time=168),\n",
      "    Message('note_on', channel=3, note=72, velocity=0, time=0),\n",
      "    Message('note_on', channel=3, note=72, velocity=84, time=12),\n",
      "    Message('note_on', channel=3, note=72, velocity=0, time=48),\n",
      "    Message('note_on', channel=3, note=76, velocity=84, time=12),\n",
      "    Message('note_on', channel=3, note=76, velocity=0, time=48),\n",
      "    Message('note_on', channel=3, note=72, velocity=84, time=12),\n",
      "    Message('note_on', channel=3, note=72, velocity=0, time=48),\n",
      "    Message('note_on', channel=3, note=67, velocity=84, time=12),\n",
      "    Message('note_on', channel=3, note=67, velocity=0, time=48),\n",
      "    Message('note_on', channel=3, note=69, velocity=84, time=12),\n",
      "    Message('note_on', channel=3, note=69, velocity=0, time=48),\n",
      "    Message('note_on', channel=3, note=70, velocity=84, time=12),\n",
      "    Message('note_on', channel=3, note=70, velocity=0, time=48),\n",
      "    Message('note_on', channel=3, note=69, velocity=84, time=12),\n",
      "    Message('note_on', channel=3, note=69, velocity=0, time=48),\n",
      "    Message('note_on', channel=3, note=72, velocity=84, time=12),\n",
      "    Message('note_on', channel=3, note=72, velocity=0, time=48),\n",
      "    Message('note_on', channel=3, note=71, velocity=84, time=12),\n",
      "    Message('note_on', channel=3, note=71, velocity=0, time=48),\n",
      "    Message('note_on', channel=3, note=72, velocity=84, time=12),\n",
      "    Message('note_on', channel=3, note=72, velocity=0, time=48),\n",
      "    Message('note_on', channel=3, note=69, velocity=84, time=12),\n",
      "    Message('note_on', channel=3, note=69, velocity=0, time=48),\n",
      "    Message('note_on', channel=3, note=66, velocity=84, time=12),\n",
      "    Message('note_on', channel=3, note=66, velocity=0, time=48),\n",
      "    Message('note_on', channel=3, note=62, velocity=84, time=12),\n",
      "    Message('note_on', channel=3, note=62, velocity=0, time=48),\n",
      "    Message('note_on', channel=3, note=64, velocity=84, time=12),\n",
      "    Message('note_on', channel=3, note=64, velocity=0, time=48),\n",
      "    Message('note_on', channel=3, note=66, velocity=84, time=12),\n",
      "    Message('note_on', channel=3, note=66, velocity=0, time=48),\n",
      "    Message('note_on', channel=3, note=64, velocity=84, time=12),\n",
      "    Message('note_on', channel=3, note=64, velocity=0, time=48),\n",
      "    Message('note_on', channel=3, note=60, velocity=84, time=12),\n",
      "    Message('note_on', channel=3, note=60, velocity=0, time=48),\n",
      "    Message('note_on', channel=3, note=62, velocity=84, time=12),\n",
      "    Message('note_on', channel=3, note=62, velocity=0, time=48),\n",
      "    Message('note_on', channel=3, note=64, velocity=84, time=12),\n",
      "    Message('note_on', channel=3, note=64, velocity=0, time=48),\n",
      "    Message('note_on', channel=3, note=67, velocity=84, time=12),\n",
      "    Message('note_on', channel=3, note=67, velocity=0, time=48),\n",
      "    Message('note_on', channel=3, note=66, velocity=84, time=12),\n",
      "    Message('note_on', channel=3, note=66, velocity=0, time=48),\n",
      "    Message('note_on', channel=3, note=67, velocity=84, time=12),\n",
      "    Message('note_on', channel=3, note=67, velocity=0, time=48),\n",
      "    Message('note_on', channel=3, note=71, velocity=84, time=12),\n",
      "    Message('note_on', channel=3, note=71, velocity=0, time=48),\n",
      "    Message('note_on', channel=3, note=69, velocity=84, time=12),\n",
      "    Message('note_on', channel=3, note=69, velocity=0, time=48),\n",
      "    Message('note_on', channel=3, note=67, velocity=84, time=12),\n",
      "    Message('note_on', channel=3, note=71, velocity=84, time=0),\n",
      "    Message('note_on', channel=3, note=67, velocity=0, time=336),\n",
      "    Message('note_on', channel=3, note=71, velocity=0, time=0),\n",
      "    Message('note_on', channel=3, note=64, velocity=84, time=24),\n",
      "    Message('note_on', channel=3, note=60, velocity=84, time=0),\n",
      "    Message('note_on', channel=3, note=67, velocity=84, time=0),\n",
      "    Message('note_on', channel=3, note=72, velocity=84, time=0),\n",
      "    Message('note_on', channel=3, note=64, velocity=0, time=168),\n",
      "    Message('note_on', channel=3, note=60, velocity=0, time=0),\n",
      "    Message('note_on', channel=3, note=67, velocity=0, time=0),\n",
      "    Message('note_on', channel=3, note=72, velocity=0, time=0),\n",
      "    Message('note_on', channel=3, note=74, velocity=84, time=12),\n",
      "    Message('note_on', channel=3, note=67, velocity=84, time=0),\n",
      "    Message('note_on', channel=3, note=62, velocity=84, time=0),\n",
      "    Message('note_on', channel=3, note=74, velocity=0, time=336),\n",
      "    Message('note_on', channel=3, note=67, velocity=0, time=0),\n",
      "    Message('note_on', channel=3, note=62, velocity=0, time=0),\n",
      "    Message('note_on', channel=3, note=74, velocity=84, time=24),\n",
      "    Message('note_on', channel=3, note=67, velocity=84, time=0),\n",
      "    Message('note_on', channel=3, note=62, velocity=84, time=0),\n",
      "    Message('note_on', channel=3, note=74, velocity=0, time=168),\n",
      "    Message('note_on', channel=3, note=67, velocity=0, time=0),\n",
      "    Message('note_on', channel=3, note=62, velocity=0, time=0),\n",
      "    Message('note_on', channel=3, note=69, velocity=84, time=12),\n",
      "    Message('note_on', channel=3, note=64, velocity=84, time=0),\n",
      "    Message('note_on', channel=3, note=72, velocity=84, time=0),\n",
      "    Message('note_on', channel=3, note=69, velocity=0, time=168),\n",
      "    Message('note_on', channel=3, note=64, velocity=0, time=0),\n",
      "    Message('note_on', channel=3, note=72, velocity=0, time=0),\n",
      "    Message('note_on', channel=3, note=71, velocity=84, time=12),\n",
      "    Message('note_on', channel=3, note=71, velocity=0, time=336),\n",
      "    Message('note_on', channel=3, note=66, velocity=84, time=24),\n",
      "    Message('note_on', channel=3, note=69, velocity=84, time=0),\n",
      "    Message('note_on', channel=3, note=66, velocity=0, time=48),\n",
      "    Message('note_on', channel=3, note=69, velocity=0, time=0),\n",
      "    Message('note_on', channel=3, note=62, velocity=84, time=12),\n",
      "    Message('note_on', channel=3, note=62, velocity=0, time=48),\n",
      "    Message('note_on', channel=3, note=64, velocity=84, time=12),\n",
      "    Message('note_on', channel=3, note=64, velocity=0, time=48),\n",
      "    Message('note_on', channel=3, note=66, velocity=84, time=12),\n",
      "    Message('note_on', channel=3, note=66, velocity=0, time=48),\n",
      "    Message('note_on', channel=3, note=69, velocity=84, time=12),\n",
      "    Message('note_on', channel=3, note=69, velocity=0, time=48),\n",
      "    Message('note_on', channel=3, note=67, velocity=84, time=12),\n",
      "    Message('note_on', channel=3, note=67, velocity=0, time=48),\n",
      "    Message('note_on', channel=3, note=69, velocity=84, time=12),\n",
      "    Message('note_on', channel=3, note=69, velocity=0, time=48),\n",
      "    Message('note_on', channel=3, note=72, velocity=84, time=12),\n",
      "    Message('note_on', channel=3, note=72, velocity=0, time=48),\n",
      "    Message('note_on', channel=3, note=71, velocity=84, time=12),\n",
      "    Message('note_on', channel=3, note=71, velocity=0, time=48),\n",
      "    Message('note_on', channel=3, note=72, velocity=84, time=12),\n",
      "    Message('note_on', channel=3, note=72, velocity=0, time=48),\n",
      "    Message('note_on', channel=3, note=69, velocity=84, time=12),\n",
      "    Message('note_on', channel=3, note=69, velocity=0, time=48),\n",
      "    Message('note_on', channel=3, note=66, velocity=84, time=12),\n",
      "    Message('note_on', channel=3, note=66, velocity=0, time=48),\n",
      "    Message('note_on', channel=3, note=62, velocity=84, time=12),\n",
      "    Message('note_on', channel=3, note=62, velocity=0, time=48),\n",
      "    Message('note_on', channel=3, note=66, velocity=84, time=12),\n",
      "    Message('note_on', channel=3, note=66, velocity=0, time=48),\n",
      "    Message('note_on', channel=3, note=69, velocity=84, time=12),\n",
      "    Message('note_on', channel=3, note=69, velocity=0, time=48),\n",
      "    Message('note_on', channel=3, note=72, velocity=84, time=12),\n",
      "    Message('note_on', channel=3, note=72, velocity=0, time=48),\n",
      "    Message('note_on', channel=3, note=71, velocity=84, time=12),\n",
      "    Message('note_on', channel=3, note=71, velocity=0, time=48),\n",
      "    Message('note_on', channel=3, note=69, velocity=84, time=12),\n",
      "    Message('note_on', channel=3, note=69, velocity=0, time=48),\n",
      "    Message('note_on', channel=3, note=67, velocity=84, time=12),\n",
      "    Message('note_on', channel=3, note=71, velocity=84, time=0),\n",
      "    Message('note_on', channel=3, note=67, velocity=0, time=336),\n",
      "    Message('note_on', channel=3, note=71, velocity=0, time=0),\n",
      "    Message('note_on', channel=3, note=72, velocity=84, time=24),\n",
      "    Message('note_on', channel=3, note=67, velocity=84, time=0),\n",
      "    Message('note_on', channel=3, note=64, velocity=84, time=0),\n",
      "    Message('note_on', channel=3, note=60, velocity=84, time=0),\n",
      "    Message('note_on', channel=3, note=72, velocity=0, time=168),\n",
      "    Message('note_on', channel=3, note=67, velocity=0, time=0),\n",
      "    Message('note_on', channel=3, note=64, velocity=0, time=0),\n",
      "    Message('note_on', channel=3, note=60, velocity=0, time=0),\n",
      "    Message('note_on', channel=3, note=74, velocity=84, time=12),\n",
      "    Message('note_on', channel=3, note=62, velocity=84, time=0),\n",
      "    Message('note_on', channel=3, note=67, velocity=84, time=0),\n",
      "    Message('note_on', channel=3, note=74, velocity=0, time=336),\n",
      "    Message('note_on', channel=3, note=62, velocity=0, time=0),\n",
      "    Message('note_on', channel=3, note=67, velocity=0, time=0),\n",
      "    Message('note_on', channel=3, note=67, velocity=84, time=24),\n",
      "    Message('note_on', channel=3, note=64, velocity=84, time=0),\n",
      "    Message('note_on', channel=3, note=71, velocity=84, time=0),\n",
      "    Message('note_on', channel=3, note=67, velocity=0, time=168),\n",
      "    Message('note_on', channel=3, note=64, velocity=0, time=0),\n",
      "    Message('note_on', channel=3, note=71, velocity=0, time=0),\n",
      "    Message('note_on', channel=3, note=69, velocity=84, time=12),\n",
      "    Message('note_on', channel=3, note=69, velocity=0, time=96),\n",
      "    Message('note_on', channel=3, note=71, velocity=84, time=24),\n",
      "    Message('note_on', channel=3, note=71, velocity=0, time=24),\n",
      "    Message('note_on', channel=3, note=72, velocity=84, time=6),\n",
      "    Message('note_on', channel=3, note=72, velocity=0, time=24),\n",
      "    Message('note_on', channel=3, note=71, velocity=84, time=6),\n",
      "    Message('note_on', channel=3, note=71, velocity=0, time=168),\n",
      "    Message('note_on', channel=3, note=69, velocity=84, time=12),\n",
      "    Message('note_on', channel=3, note=69, velocity=0, time=168),\n",
      "    Message('note_on', channel=3, note=67, velocity=84, time=12),\n",
      "    Message('note_on', channel=3, note=67, velocity=0, time=48),\n",
      "    Message('note_on', channel=3, note=71, velocity=84, time=12),\n",
      "    Message('note_on', channel=3, note=71, velocity=0, time=48),\n",
      "    Message('note_on', channel=3, note=74, velocity=84, time=12),\n",
      "    Message('note_on', channel=3, note=74, velocity=0, time=48),\n",
      "    Message('note_on', channel=3, note=79, velocity=84, time=12),\n",
      "    Message('note_on', channel=3, note=79, velocity=0, time=48),\n",
      "    Message('note_on', channel=3, note=74, velocity=84, time=12),\n",
      "    Message('note_on', channel=3, note=74, velocity=0, time=48),\n",
      "    Message('note_on', channel=3, note=71, velocity=84, time=12),\n",
      "    Message('note_on', channel=3, note=71, velocity=0, time=48),\n",
      "    Message('note_on', channel=3, note=67, velocity=84, time=12),\n",
      "    Message('note_on', channel=3, note=67, velocity=0, time=48),\n",
      "    Message('note_on', channel=3, note=71, velocity=84, time=12),\n",
      "    Message('note_on', channel=3, note=71, velocity=0, time=48),\n",
      "    Message('note_on', channel=3, note=74, velocity=84, time=12),\n",
      "    Message('note_on', channel=3, note=74, velocity=0, time=48),\n",
      "    Message('note_on', channel=3, note=77, velocity=84, time=12),\n",
      "    Message('note_on', channel=3, note=77, velocity=0, time=48),\n",
      "    Message('note_on', channel=3, note=74, velocity=84, time=12),\n",
      "    Message('note_on', channel=3, note=74, velocity=0, time=48),\n",
      "    Message('note_on', channel=3, note=71, velocity=84, time=12),\n",
      "    Message('note_on', channel=3, note=71, velocity=0, time=48),\n",
      "    Message('note_on', channel=3, note=67, velocity=84, time=12),\n",
      "    Message('note_on', channel=3, note=67, velocity=0, time=48),\n",
      "    Message('note_on', channel=3, note=71, velocity=84, time=12),\n",
      "    Message('note_on', channel=3, note=71, velocity=0, time=48),\n",
      "    Message('note_on', channel=3, note=74, velocity=84, time=12),\n",
      "    Message('note_on', channel=3, note=74, velocity=0, time=48),\n",
      "    Message('note_on', channel=3, note=76, velocity=84, time=12),\n",
      "    Message('note_on', channel=3, note=76, velocity=0, time=48),\n",
      "    Message('note_on', channel=3, note=72, velocity=84, time=12),\n",
      "    Message('note_on', channel=3, note=72, velocity=0, time=48),\n",
      "    Message('note_on', channel=3, note=69, velocity=84, time=12),\n",
      "    Message('note_on', channel=3, note=69, velocity=0, time=48),\n",
      "    Message('note_on', channel=3, note=66, velocity=84, time=12),\n",
      "    Message('note_on', channel=3, note=66, velocity=0, time=48),\n",
      "    Message('note_on', channel=3, note=69, velocity=84, time=12),\n",
      "    Message('note_on', channel=3, note=69, velocity=0, time=48),\n",
      "    Message('note_on', channel=3, note=72, velocity=84, time=12),\n",
      "    Message('note_on', channel=3, note=72, velocity=0, time=48),\n",
      "    Message('note_on', channel=3, note=74, velocity=84, time=12),\n",
      "    Message('note_on', channel=3, note=74, velocity=0, time=48),\n",
      "    Message('note_on', channel=3, note=71, velocity=84, time=12),\n",
      "    Message('note_on', channel=3, note=71, velocity=0, time=48),\n",
      "    Message('note_on', channel=3, note=67, velocity=84, time=12),\n",
      "    Message('note_on', channel=3, note=67, velocity=0, time=48),\n",
      "    Message('note_on', channel=3, note=64, velocity=84, time=12),\n",
      "    Message('note_on', channel=3, note=64, velocity=0, time=48),\n",
      "    Message('note_on', channel=3, note=67, velocity=84, time=12),\n",
      "    Message('note_on', channel=3, note=67, velocity=0, time=48),\n",
      "    Message('note_on', channel=3, note=71, velocity=84, time=12),\n",
      "    Message('note_on', channel=3, note=71, velocity=0, time=48),\n",
      "    Message('note_on', channel=3, note=72, velocity=84, time=12),\n",
      "    Message('note_on', channel=3, note=72, velocity=0, time=48),\n",
      "    Message('note_on', channel=3, note=69, velocity=84, time=12),\n",
      "    Message('note_on', channel=3, note=69, velocity=0, time=48),\n",
      "    Message('note_on', channel=3, note=66, velocity=84, time=12),\n",
      "    Message('note_on', channel=3, note=66, velocity=0, time=48),\n",
      "    Message('note_on', channel=3, note=62, velocity=84, time=12),\n",
      "    Message('note_on', channel=3, note=62, velocity=0, time=48),\n",
      "    Message('note_on', channel=3, note=66, velocity=84, time=12),\n",
      "    Message('note_on', channel=3, note=66, velocity=0, time=48),\n",
      "    Message('note_on', channel=3, note=69, velocity=84, time=12),\n",
      "    Message('note_on', channel=3, note=69, velocity=0, time=48),\n",
      "    Message('note_on', channel=3, note=72, velocity=84, time=12),\n",
      "    Message('note_on', channel=3, note=72, velocity=0, time=48),\n",
      "    Message('note_on', channel=3, note=71, velocity=84, time=12),\n",
      "    Message('note_on', channel=3, note=71, velocity=0, time=48),\n",
      "    Message('note_on', channel=3, note=69, velocity=84, time=12),\n",
      "    Message('note_on', channel=3, note=69, velocity=0, time=48),\n",
      "    Message('note_on', channel=3, note=71, velocity=84, time=12),\n",
      "    Message('note_on', channel=3, note=71, velocity=0, time=48),\n",
      "    Message('note_on', channel=3, note=67, velocity=84, time=12),\n",
      "    Message('note_on', channel=3, note=67, velocity=0, time=48),\n",
      "    Message('note_on', channel=3, note=69, velocity=84, time=12),\n",
      "    Message('note_on', channel=3, note=69, velocity=0, time=48),\n",
      "    Message('note_on', channel=3, note=71, velocity=84, time=12),\n",
      "    Message('note_on', channel=3, note=71, velocity=0, time=48),\n",
      "    Message('note_on', channel=3, note=74, velocity=84, time=12),\n",
      "    Message('note_on', channel=3, note=74, velocity=0, time=48),\n",
      "    Message('note_on', channel=3, note=72, velocity=84, time=12),\n",
      "    Message('note_on', channel=3, note=72, velocity=0, time=48),\n",
      "    Message('note_on', channel=3, note=72, velocity=84, time=12),\n",
      "    Message('note_on', channel=3, note=72, velocity=0, time=48),\n",
      "    Message('note_on', channel=3, note=76, velocity=84, time=12),\n",
      "    Message('note_on', channel=3, note=76, velocity=0, time=48),\n",
      "    Message('note_on', channel=3, note=74, velocity=84, time=12),\n",
      "    Message('note_on', channel=3, note=74, velocity=0, time=48),\n",
      "    Message('note_on', channel=3, note=74, velocity=84, time=12),\n",
      "    Message('note_on', channel=3, note=74, velocity=0, time=48),\n",
      "    Message('note_on', channel=3, note=79, velocity=84, time=12),\n",
      "    Message('note_on', channel=3, note=79, velocity=0, time=48),\n",
      "    Message('note_on', channel=3, note=78, velocity=84, time=12),\n",
      "    Message('note_on', channel=3, note=78, velocity=0, time=48),\n",
      "    Message('note_on', channel=3, note=79, velocity=84, time=12),\n",
      "    Message('note_on', channel=3, note=79, velocity=0, time=48),\n",
      "    Message('note_on', channel=3, note=74, velocity=84, time=12),\n",
      "    Message('note_on', channel=3, note=74, velocity=0, time=48),\n",
      "    Message('note_on', channel=3, note=71, velocity=84, time=12),\n",
      "    Message('note_on', channel=3, note=71, velocity=0, time=48),\n",
      "    Message('note_on', channel=3, note=67, velocity=84, time=12),\n",
      "    Message('note_on', channel=3, note=67, velocity=0, time=48),\n",
      "    Message('note_on', channel=3, note=69, velocity=84, time=12),\n",
      "    Message('note_on', channel=3, note=69, velocity=0, time=48),\n",
      "    Message('note_on', channel=3, note=71, velocity=84, time=12),\n",
      "    Message('note_on', channel=3, note=71, velocity=0, time=48),\n",
      "    Message('note_on', channel=3, note=72, velocity=84, time=12),\n",
      "    Message('note_on', channel=3, note=72, velocity=0, time=48),\n",
      "    Message('note_on', channel=3, note=74, velocity=84, time=12),\n",
      "    Message('note_on', channel=3, note=74, velocity=0, time=48),\n",
      "    Message('note_on', channel=3, note=76, velocity=84, time=12),\n",
      "    Message('note_on', channel=3, note=76, velocity=0, time=48),\n",
      "    Message('note_on', channel=3, note=74, velocity=84, time=12),\n",
      "    Message('note_on', channel=3, note=74, velocity=0, time=48),\n",
      "    Message('note_on', channel=3, note=72, velocity=84, time=12),\n",
      "    Message('note_on', channel=3, note=72, velocity=0, time=48),\n",
      "    Message('note_on', channel=3, note=71, velocity=84, time=12),\n",
      "    Message('note_on', channel=3, note=71, velocity=0, time=48),\n",
      "    Message('note_on', channel=3, note=69, velocity=84, time=12),\n",
      "    Message('note_on', channel=3, note=69, velocity=0, time=48),\n",
      "    Message('note_on', channel=3, note=71, velocity=84, time=12),\n",
      "    Message('note_on', channel=3, note=71, velocity=0, time=48),\n",
      "    Message('note_on', channel=3, note=67, velocity=84, time=12),\n",
      "    Message('note_on', channel=3, note=67, velocity=0, time=48),\n",
      "    Message('note_on', channel=3, note=66, velocity=84, time=12),\n",
      "    Message('note_on', channel=3, note=66, velocity=0, time=48),\n",
      "    Message('note_on', channel=3, note=67, velocity=84, time=12),\n",
      "    Message('note_on', channel=3, note=67, velocity=0, time=48),\n",
      "    Message('note_on', channel=3, note=69, velocity=84, time=12),\n",
      "    Message('note_on', channel=3, note=69, velocity=0, time=48),\n",
      "    Message('note_on', channel=3, note=62, velocity=84, time=12),\n",
      "    Message('note_on', channel=3, note=62, velocity=0, time=48),\n",
      "    Message('note_on', channel=3, note=66, velocity=84, time=12),\n",
      "    Message('note_on', channel=3, note=66, velocity=0, time=48),\n",
      "    Message('note_on', channel=3, note=69, velocity=84, time=12),\n",
      "    Message('note_on', channel=3, note=69, velocity=0, time=48),\n",
      "    Message('note_on', channel=3, note=72, velocity=84, time=12),\n",
      "    Message('note_on', channel=3, note=72, velocity=0, time=48),\n",
      "    Message('note_on', channel=3, note=71, velocity=84, time=12),\n",
      "    Message('note_on', channel=3, note=71, velocity=0, time=48),\n",
      "    Message('note_on', channel=3, note=69, velocity=84, time=12),\n",
      "    Message('note_on', channel=3, note=69, velocity=0, time=48),\n",
      "    Message('note_on', channel=3, note=71, velocity=84, time=12),\n",
      "    Message('note_on', channel=3, note=71, velocity=0, time=48),\n",
      "    Message('note_on', channel=3, note=67, velocity=84, time=12),\n",
      "    Message('note_on', channel=3, note=67, velocity=0, time=48),\n",
      "    Message('note_on', channel=3, note=69, velocity=84, time=12),\n",
      "    Message('note_on', channel=3, note=69, velocity=0, time=48),\n",
      "    Message('note_on', channel=3, note=71, velocity=84, time=12),\n",
      "    Message('note_on', channel=3, note=71, velocity=0, time=48),\n",
      "    Message('note_on', channel=3, note=74, velocity=84, time=12),\n",
      "    Message('note_on', channel=3, note=74, velocity=0, time=48),\n",
      "    Message('note_on', channel=3, note=72, velocity=84, time=12),\n",
      "    Message('note_on', channel=3, note=72, velocity=0, time=48),\n",
      "    Message('note_on', channel=3, note=72, velocity=84, time=12),\n",
      "    Message('note_on', channel=3, note=72, velocity=0, time=48),\n",
      "    Message('note_on', channel=3, note=76, velocity=84, time=12),\n",
      "    Message('note_on', channel=3, note=76, velocity=0, time=48),\n",
      "    Message('note_on', channel=3, note=74, velocity=84, time=12),\n",
      "    Message('note_on', channel=3, note=74, velocity=0, time=48),\n",
      "    Message('note_on', channel=3, note=74, velocity=84, time=12),\n",
      "    Message('note_on', channel=3, note=74, velocity=0, time=48),\n",
      "    Message('note_on', channel=3, note=79, velocity=84, time=12),\n",
      "    Message('note_on', channel=3, note=79, velocity=0, time=48),\n",
      "    Message('note_on', channel=3, note=78, velocity=84, time=12),\n",
      "    Message('note_on', channel=3, note=78, velocity=0, time=48),\n",
      "    Message('note_on', channel=3, note=79, velocity=84, time=12),\n",
      "    Message('note_on', channel=3, note=79, velocity=0, time=48),\n",
      "    Message('note_on', channel=3, note=74, velocity=84, time=12),\n",
      "    Message('note_on', channel=3, note=74, velocity=0, time=48),\n",
      "    Message('note_on', channel=3, note=71, velocity=84, time=12),\n",
      "    Message('note_on', channel=3, note=71, velocity=0, time=48),\n",
      "    Message('note_on', channel=3, note=67, velocity=84, time=12),\n",
      "    Message('note_on', channel=3, note=67, velocity=0, time=48),\n",
      "    Message('note_on', channel=3, note=69, velocity=84, time=12),\n",
      "    Message('note_on', channel=3, note=69, velocity=0, time=48),\n",
      "    Message('note_on', channel=3, note=71, velocity=84, time=12),\n",
      "    Message('note_on', channel=3, note=71, velocity=0, time=48),\n",
      "    Message('note_on', channel=3, note=64, velocity=84, time=12),\n",
      "    Message('note_on', channel=3, note=64, velocity=0, time=48),\n",
      "    Message('note_on', channel=3, note=74, velocity=84, time=12),\n",
      "    Message('note_on', channel=3, note=74, velocity=0, time=48),\n",
      "    Message('note_on', channel=3, note=72, velocity=84, time=12),\n",
      "    Message('note_on', channel=3, note=72, velocity=0, time=48),\n",
      "    Message('note_on', channel=3, note=71, velocity=84, time=12),\n",
      "    Message('note_on', channel=3, note=71, velocity=0, time=48),\n",
      "    Message('note_on', channel=3, note=69, velocity=84, time=12),\n",
      "    Message('note_on', channel=3, note=69, velocity=0, time=48),\n",
      "    Message('note_on', channel=3, note=67, velocity=84, time=12),\n",
      "    Message('note_on', channel=3, note=67, velocity=0, time=48),\n",
      "    Message('note_on', channel=3, note=62, velocity=84, time=12),\n",
      "    Message('note_on', channel=3, note=62, velocity=0, time=48),\n",
      "    Message('note_on', channel=3, note=67, velocity=84, time=12),\n",
      "    Message('note_on', channel=3, note=67, velocity=0, time=48),\n",
      "    Message('note_on', channel=3, note=66, velocity=84, time=12),\n",
      "    Message('note_on', channel=3, note=66, velocity=0, time=48),\n",
      "    Message('note_on', channel=3, note=62, velocity=58, time=12),\n",
      "    Message('note_on', channel=3, note=67, velocity=60, time=0),\n",
      "    Message('note_on', channel=3, note=59, velocity=57, time=0),\n",
      "    Message('note_on', channel=3, note=55, velocity=75, time=0),\n",
      "    Message('note_on', channel=3, note=62, velocity=0, time=456),\n",
      "    Message('note_on', channel=3, note=67, velocity=0, time=0),\n",
      "    Message('note_on', channel=3, note=59, velocity=0, time=0),\n",
      "    Message('note_on', channel=3, note=55, velocity=0, time=0),\n",
      "    MetaMessage('end_of_track', time=0)]),\n",
      "  MidiTrack([\n",
      "    MetaMessage('track_name', name='John Renfro Davis', time=0),\n",
      "    MetaMessage('instrument_name', name='Choir Aahs', time=0),\n",
      "    MetaMessage('midi_port', port=0, time=0),\n",
      "    Message('control_change', channel=4, control=0, value=80, time=0),\n",
      "    Message('control_change', channel=4, control=32, value=0, time=0),\n",
      "    Message('program_change', channel=4, program=52, time=0),\n",
      "    Message('note_on', channel=4, note=71, velocity=127, time=4320),\n",
      "    Message('note_on', channel=4, note=71, velocity=0, time=336),\n",
      "    Message('note_on', channel=4, note=72, velocity=127, time=24),\n",
      "    Message('note_on', channel=4, note=72, velocity=0, time=168),\n",
      "    Message('note_on', channel=4, note=74, velocity=127, time=12),\n",
      "    Message('note_on', channel=4, note=74, velocity=0, time=336),\n",
      "    Message('note_on', channel=4, note=74, velocity=127, time=24),\n",
      "    Message('note_on', channel=4, note=74, velocity=0, time=168),\n",
      "    Message('note_on', channel=4, note=72, velocity=127, time=12),\n",
      "    Message('note_on', channel=4, note=72, velocity=0, time=336),\n",
      "    Message('note_on', channel=4, note=71, velocity=127, time=24),\n",
      "    Message('note_on', channel=4, note=71, velocity=0, time=168),\n",
      "    Message('note_on', channel=4, note=69, velocity=127, time=12),\n",
      "    Message('note_on', channel=4, note=69, velocity=0, time=168),\n",
      "    Message('note_on', channel=4, note=69, velocity=127, time=12),\n",
      "    Message('note_on', channel=4, note=69, velocity=0, time=168),\n",
      "    Message('note_on', channel=4, note=71, velocity=127, time=732),\n",
      "    Message('note_on', channel=4, note=71, velocity=0, time=336),\n",
      "    Message('note_on', channel=4, note=72, velocity=127, time=24),\n",
      "    Message('note_on', channel=4, note=72, velocity=0, time=168),\n",
      "    Message('note_on', channel=4, note=74, velocity=127, time=12),\n",
      "    Message('note_on', channel=4, note=74, velocity=0, time=336),\n",
      "    Message('note_on', channel=4, note=71, velocity=127, time=24),\n",
      "    Message('note_on', channel=4, note=71, velocity=0, time=168),\n",
      "    Message('note_on', channel=4, note=69, velocity=127, time=12),\n",
      "    Message('note_on', channel=4, note=69, velocity=0, time=96),\n",
      "    Message('note_on', channel=4, note=71, velocity=127, time=24),\n",
      "    Message('note_on', channel=4, note=71, velocity=0, time=24),\n",
      "    Message('note_on', channel=4, note=72, velocity=127, time=6),\n",
      "    Message('note_on', channel=4, note=72, velocity=0, time=24),\n",
      "    Message('note_on', channel=4, note=71, velocity=127, time=6),\n",
      "    Message('note_on', channel=4, note=71, velocity=0, time=168),\n",
      "    Message('note_on', channel=4, note=69, velocity=127, time=12),\n",
      "    Message('note_on', channel=4, note=69, velocity=0, time=168),\n",
      "    Message('note_on', channel=4, note=67, velocity=127, time=12),\n",
      "    Message('note_on', channel=4, note=67, velocity=0, time=336),\n",
      "    Message('note_on', channel=4, note=71, velocity=127, time=3444),\n",
      "    Message('note_on', channel=4, note=71, velocity=0, time=336),\n",
      "    Message('note_on', channel=4, note=72, velocity=127, time=24),\n",
      "    Message('note_on', channel=4, note=72, velocity=0, time=168),\n",
      "    Message('note_on', channel=4, note=74, velocity=127, time=12),\n",
      "    Message('note_on', channel=4, note=74, velocity=0, time=336),\n",
      "    Message('note_on', channel=4, note=74, velocity=127, time=24),\n",
      "    Message('note_on', channel=4, note=74, velocity=0, time=168),\n",
      "    Message('note_on', channel=4, note=72, velocity=127, time=12),\n",
      "    Message('note_on', channel=4, note=72, velocity=0, time=336),\n",
      "    Message('note_on', channel=4, note=71, velocity=127, time=24),\n",
      "    Message('note_on', channel=4, note=71, velocity=0, time=168),\n",
      "    Message('note_on', channel=4, note=69, velocity=127, time=12),\n",
      "    Message('note_on', channel=4, note=69, velocity=0, time=168),\n",
      "    Message('note_on', channel=4, note=69, velocity=127, time=12),\n",
      "    Message('note_on', channel=4, note=69, velocity=0, time=168),\n",
      "    Message('note_on', channel=4, note=71, velocity=127, time=732),\n",
      "    Message('note_on', channel=4, note=71, velocity=0, time=336),\n",
      "    Message('note_on', channel=4, note=72, velocity=127, time=24),\n",
      "    Message('note_on', channel=4, note=72, velocity=0, time=168),\n",
      "    Message('note_on', channel=4, note=74, velocity=127, time=12),\n",
      "    Message('note_on', channel=4, note=74, velocity=0, time=336),\n",
      "    Message('note_on', channel=4, note=71, velocity=127, time=24),\n",
      "    Message('note_on', channel=4, note=71, velocity=0, time=168),\n",
      "    Message('note_on', channel=4, note=69, velocity=127, time=12),\n",
      "    Message('note_on', channel=4, note=69, velocity=0, time=96),\n",
      "    Message('note_on', channel=4, note=71, velocity=127, time=24),\n",
      "    Message('note_on', channel=4, note=71, velocity=0, time=24),\n",
      "    Message('note_on', channel=4, note=72, velocity=127, time=6),\n",
      "    Message('note_on', channel=4, note=72, velocity=0, time=24),\n",
      "    Message('note_on', channel=4, note=71, velocity=127, time=6),\n",
      "    Message('note_on', channel=4, note=71, velocity=0, time=168),\n",
      "    Message('note_on', channel=4, note=69, velocity=127, time=12),\n",
      "    Message('note_on', channel=4, note=69, velocity=0, time=168),\n",
      "    Message('note_on', channel=4, note=67, velocity=127, time=12),\n",
      "    Message('note_on', channel=4, note=67, velocity=0, time=336),\n",
      "    Message('note_on', channel=4, note=69, velocity=127, time=3984),\n",
      "    Message('note_on', channel=4, note=69, velocity=0, time=336),\n",
      "    Message('note_on', channel=4, note=71, velocity=127, time=24),\n",
      "    Message('note_on', channel=4, note=71, velocity=0, time=168),\n",
      "    Message('note_on', channel=4, note=72, velocity=127, time=12),\n",
      "    Message('note_on', channel=4, note=72, velocity=0, time=336),\n",
      "    Message('note_on', channel=4, note=72, velocity=127, time=24),\n",
      "    Message('note_on', channel=4, note=72, velocity=0, time=168),\n",
      "    Message('note_on', channel=4, note=71, velocity=127, time=12),\n",
      "    Message('note_on', channel=4, note=71, velocity=0, time=276),\n",
      "    Message('note_on', channel=4, note=72, velocity=127, time=24),\n",
      "    Message('note_on', channel=4, note=72, velocity=0, time=24),\n",
      "    Message('note_on', channel=4, note=74, velocity=127, time=6),\n",
      "    Message('note_on', channel=4, note=74, velocity=0, time=24),\n",
      "    Message('note_on', channel=4, note=71, velocity=127, time=6),\n",
      "    Message('note_on', channel=4, note=71, velocity=0, time=168),\n",
      "    Message('note_on', channel=4, note=69, velocity=127, time=12),\n",
      "    Message('note_on', channel=4, note=69, velocity=0, time=168),\n",
      "    Message('note_on', channel=4, note=69, velocity=127, time=12),\n",
      "    Message('note_on', channel=4, note=69, velocity=0, time=168),\n",
      "    Message('note_on', channel=4, note=72, velocity=127, time=1272),\n",
      "    Message('note_on', channel=4, note=72, velocity=0, time=336),\n",
      "    Message('note_on', channel=4, note=74, velocity=127, time=24),\n",
      "    Message('note_on', channel=4, note=74, velocity=0, time=168),\n",
      "    Message('note_on', channel=4, note=76, velocity=127, time=12),\n",
      "    Message('note_on', channel=4, note=76, velocity=0, time=336),\n",
      "    Message('note_on', channel=4, note=76, velocity=127, time=24),\n",
      "    Message('note_on', channel=4, note=76, velocity=0, time=168),\n",
      "    Message('note_on', channel=4, note=74, velocity=127, time=12),\n",
      "    Message('note_on', channel=4, note=74, velocity=0, time=276),\n",
      "    Message('note_on', channel=4, note=76, velocity=127, time=24),\n",
      "    Message('note_on', channel=4, note=76, velocity=0, time=24),\n",
      "    Message('note_on', channel=4, note=77, velocity=127, time=6),\n",
      "    Message('note_on', channel=4, note=77, velocity=0, time=24),\n",
      "    Message('note_on', channel=4, note=74, velocity=127, time=6),\n",
      "    Message('note_on', channel=4, note=74, velocity=0, time=168),\n",
      "    Message('note_on', channel=4, note=72, velocity=127, time=12),\n",
      "    Message('note_on', channel=4, note=72, velocity=0, time=168),\n",
      "    Message('note_on', channel=4, note=72, velocity=127, time=12),\n",
      "    Message('note_on', channel=4, note=72, velocity=0, time=168),\n",
      "    Message('note_on', channel=4, note=71, velocity=127, time=1272),\n",
      "    Message('note_on', channel=4, note=71, velocity=0, time=336),\n",
      "    Message('note_on', channel=4, note=72, velocity=127, time=24),\n",
      "    Message('note_on', channel=4, note=72, velocity=0, time=168),\n",
      "    Message('note_on', channel=4, note=74, velocity=127, time=12),\n",
      "    Message('note_on', channel=4, note=74, velocity=0, time=336),\n",
      "    Message('note_on', channel=4, note=74, velocity=127, time=24),\n",
      "    Message('note_on', channel=4, note=74, velocity=0, time=168),\n",
      "    Message('note_on', channel=4, note=72, velocity=127, time=12),\n",
      "    Message('note_on', channel=4, note=72, velocity=0, time=168),\n",
      "    Message('note_on', channel=4, note=71, velocity=127, time=12),\n",
      "    Message('note_on', channel=4, note=71, velocity=0, time=336),\n",
      "    Message('note_on', channel=4, note=69, velocity=127, time=24),\n",
      "    Message('note_on', channel=4, note=69, velocity=0, time=336),\n",
      "    Message('note_on', channel=4, note=71, velocity=127, time=744),\n",
      "    Message('note_on', channel=4, note=71, velocity=0, time=336),\n",
      "    Message('note_on', channel=4, note=72, velocity=127, time=24),\n",
      "    Message('note_on', channel=4, note=72, velocity=0, time=168),\n",
      "    Message('note_on', channel=4, note=74, velocity=127, time=12),\n",
      "    Message('note_on', channel=4, note=74, velocity=0, time=336),\n",
      "    Message('note_on', channel=4, note=71, velocity=127, time=24),\n",
      "    Message('note_on', channel=4, note=71, velocity=0, time=168),\n",
      "    Message('note_on', channel=4, note=69, velocity=127, time=12),\n",
      "    Message('note_on', channel=4, note=69, velocity=0, time=96),\n",
      "    Message('note_on', channel=4, note=71, velocity=127, time=24),\n",
      "    Message('note_on', channel=4, note=71, velocity=0, time=24),\n",
      "    Message('note_on', channel=4, note=72, velocity=127, time=6),\n",
      "    Message('note_on', channel=4, note=72, velocity=0, time=24),\n",
      "    Message('note_on', channel=4, note=71, velocity=127, time=6),\n",
      "    Message('note_on', channel=4, note=71, velocity=0, time=168),\n",
      "    Message('note_on', channel=4, note=69, velocity=127, time=12),\n",
      "    Message('note_on', channel=4, note=69, velocity=0, time=168),\n",
      "    Message('note_on', channel=4, note=67, velocity=127, time=12),\n",
      "    Message('note_on', channel=4, note=67, velocity=0, time=336),\n",
      "    Message('note_on', channel=4, note=71, velocity=127, time=10464),\n",
      "    Message('note_on', channel=4, note=71, velocity=0, time=336),\n",
      "    Message('note_on', channel=4, note=72, velocity=127, time=24),\n",
      "    Message('note_on', channel=4, note=72, velocity=0, time=168),\n",
      "    Message('note_on', channel=4, note=74, velocity=127, time=12),\n",
      "    Message('note_on', channel=4, note=74, velocity=0, time=336),\n",
      "    Message('note_on', channel=4, note=74, velocity=127, time=24),\n",
      "    Message('note_on', channel=4, note=74, velocity=0, time=168),\n",
      "    Message('note_on', channel=4, note=72, velocity=127, time=12),\n",
      "    Message('note_on', channel=4, note=72, velocity=0, time=336),\n",
      "    Message('note_on', channel=4, note=71, velocity=127, time=24),\n",
      "    Message('note_on', channel=4, note=71, velocity=0, time=168),\n",
      "    Message('note_on', channel=4, note=69, velocity=127, time=12),\n",
      "    Message('note_on', channel=4, note=69, velocity=0, time=168),\n",
      "    Message('note_on', channel=4, note=69, velocity=127, time=12),\n",
      "    Message('note_on', channel=4, note=69, velocity=0, time=168),\n",
      "    Message('note_on', channel=4, note=71, velocity=127, time=732),\n",
      "    Message('note_on', channel=4, note=71, velocity=0, time=336),\n",
      "    Message('note_on', channel=4, note=72, velocity=127, time=24),\n",
      "    Message('note_on', channel=4, note=72, velocity=0, time=168),\n",
      "    Message('note_on', channel=4, note=74, velocity=127, time=12),\n",
      "    Message('note_on', channel=4, note=74, velocity=0, time=336),\n",
      "    Message('note_on', channel=4, note=71, velocity=127, time=24),\n",
      "    Message('note_on', channel=4, note=71, velocity=0, time=168),\n",
      "    Message('note_on', channel=4, note=69, velocity=127, time=12),\n",
      "    Message('note_on', channel=4, note=69, velocity=0, time=96),\n",
      "    Message('note_on', channel=4, note=71, velocity=127, time=24),\n",
      "    Message('note_on', channel=4, note=71, velocity=0, time=24),\n",
      "    Message('note_on', channel=4, note=72, velocity=127, time=6),\n",
      "    Message('note_on', channel=4, note=72, velocity=0, time=24),\n",
      "    Message('note_on', channel=4, note=71, velocity=127, time=6),\n",
      "    Message('note_on', channel=4, note=71, velocity=0, time=168),\n",
      "    Message('note_on', channel=4, note=69, velocity=127, time=12),\n",
      "    Message('note_on', channel=4, note=69, velocity=0, time=168),\n",
      "    Message('note_on', channel=4, note=67, velocity=127, time=12),\n",
      "    Message('note_on', channel=4, note=67, velocity=0, time=336),\n",
      "    Message('note_on', channel=4, note=71, velocity=127, time=3444),\n",
      "    Message('note_on', channel=4, note=71, velocity=0, time=336),\n",
      "    Message('note_on', channel=4, note=72, velocity=127, time=24),\n",
      "    Message('note_on', channel=4, note=72, velocity=0, time=168),\n",
      "    Message('note_on', channel=4, note=74, velocity=127, time=12),\n",
      "    Message('note_on', channel=4, note=74, velocity=0, time=336),\n",
      "    Message('note_on', channel=4, note=74, velocity=127, time=24),\n",
      "    Message('note_on', channel=4, note=74, velocity=0, time=168),\n",
      "    Message('note_on', channel=4, note=72, velocity=127, time=12),\n",
      "    Message('note_on', channel=4, note=72, velocity=0, time=336),\n",
      "    Message('note_on', channel=4, note=71, velocity=127, time=24),\n",
      "    Message('note_on', channel=4, note=71, velocity=0, time=168),\n",
      "    Message('note_on', channel=4, note=69, velocity=127, time=12),\n",
      "    Message('note_on', channel=4, note=69, velocity=0, time=168),\n",
      "    Message('note_on', channel=4, note=69, velocity=127, time=12),\n",
      "    Message('note_on', channel=4, note=69, velocity=0, time=168),\n",
      "    Message('note_on', channel=4, note=71, velocity=127, time=732),\n",
      "    Message('note_on', channel=4, note=71, velocity=0, time=336),\n",
      "    Message('note_on', channel=4, note=72, velocity=127, time=24),\n",
      "    Message('note_on', channel=4, note=72, velocity=0, time=168),\n",
      "    Message('note_on', channel=4, note=74, velocity=127, time=12),\n",
      "    Message('note_on', channel=4, note=74, velocity=0, time=336),\n",
      "    Message('note_on', channel=4, note=71, velocity=127, time=24),\n",
      "    Message('note_on', channel=4, note=71, velocity=0, time=168),\n",
      "    Message('note_on', channel=4, note=69, velocity=127, time=12),\n",
      "    Message('note_on', channel=4, note=69, velocity=0, time=96),\n",
      "    Message('note_on', channel=4, note=71, velocity=127, time=24),\n",
      "    Message('note_on', channel=4, note=71, velocity=0, time=24),\n",
      "    Message('note_on', channel=4, note=72, velocity=127, time=6),\n",
      "    Message('note_on', channel=4, note=72, velocity=0, time=24),\n",
      "    Message('note_on', channel=4, note=71, velocity=127, time=6),\n",
      "    Message('note_on', channel=4, note=71, velocity=0, time=168),\n",
      "    Message('note_on', channel=4, note=69, velocity=127, time=12),\n",
      "    Message('note_on', channel=4, note=69, velocity=0, time=168),\n",
      "    Message('note_on', channel=4, note=67, velocity=127, time=12),\n",
      "    Message('note_on', channel=4, note=67, velocity=0, time=336),\n",
      "    Message('note_on', channel=4, note=69, velocity=127, time=3984),\n",
      "    Message('note_on', channel=4, note=69, velocity=0, time=336),\n",
      "    Message('note_on', channel=4, note=71, velocity=127, time=24),\n",
      "    Message('note_on', channel=4, note=71, velocity=0, time=168),\n",
      "    Message('note_on', channel=4, note=72, velocity=127, time=12),\n",
      "    Message('note_on', channel=4, note=72, velocity=0, time=336),\n",
      "    Message('note_on', channel=4, note=72, velocity=127, time=24),\n",
      "    Message('note_on', channel=4, note=72, velocity=0, time=168),\n",
      "    Message('note_on', channel=4, note=71, velocity=127, time=12),\n",
      "    Message('note_on', channel=4, note=71, velocity=0, time=276),\n",
      "    Message('note_on', channel=4, note=72, velocity=127, time=24),\n",
      "    Message('note_on', channel=4, note=72, velocity=0, time=24),\n",
      "    Message('note_on', channel=4, note=74, velocity=127, time=6),\n",
      "    Message('note_on', channel=4, note=74, velocity=0, time=24),\n",
      "    Message('note_on', channel=4, note=71, velocity=127, time=6),\n",
      "    Message('note_on', channel=4, note=71, velocity=0, time=168),\n",
      "    Message('note_on', channel=4, note=69, velocity=127, time=12),\n",
      "    Message('note_on', channel=4, note=69, velocity=0, time=168),\n",
      "    Message('note_on', channel=4, note=69, velocity=127, time=12),\n",
      "    Message('note_on', channel=4, note=69, velocity=0, time=168),\n",
      "    Message('note_on', channel=4, note=72, velocity=127, time=1272),\n",
      "    Message('note_on', channel=4, note=72, velocity=0, time=336),\n",
      "    Message('note_on', channel=4, note=74, velocity=127, time=24),\n",
      "    Message('note_on', channel=4, note=74, velocity=0, time=168),\n",
      "    Message('note_on', channel=4, note=76, velocity=127, time=12),\n",
      "    Message('note_on', channel=4, note=76, velocity=0, time=336),\n",
      "    Message('note_on', channel=4, note=76, velocity=127, time=24),\n",
      "    Message('note_on', channel=4, note=76, velocity=0, time=168),\n",
      "    Message('note_on', channel=4, note=74, velocity=127, time=12),\n",
      "    Message('note_on', channel=4, note=74, velocity=0, time=276),\n",
      "    Message('note_on', channel=4, note=76, velocity=127, time=24),\n",
      "    Message('note_on', channel=4, note=76, velocity=0, time=24),\n",
      "    Message('note_on', channel=4, note=77, velocity=127, time=6),\n",
      "    Message('note_on', channel=4, note=77, velocity=0, time=24),\n",
      "    Message('note_on', channel=4, note=74, velocity=127, time=6),\n",
      "    Message('note_on', channel=4, note=74, velocity=0, time=168),\n",
      "    Message('note_on', channel=4, note=72, velocity=127, time=12),\n",
      "    Message('note_on', channel=4, note=72, velocity=0, time=168),\n",
      "    Message('note_on', channel=4, note=72, velocity=127, time=12),\n",
      "    Message('note_on', channel=4, note=72, velocity=0, time=168),\n",
      "    Message('note_on', channel=4, note=71, velocity=127, time=1272),\n",
      "    Message('note_on', channel=4, note=71, velocity=0, time=336),\n",
      "    Message('note_on', channel=4, note=72, velocity=127, time=24),\n",
      "    Message('note_on', channel=4, note=72, velocity=0, time=168),\n",
      "    Message('note_on', channel=4, note=74, velocity=127, time=12),\n",
      "    Message('note_on', channel=4, note=74, velocity=0, time=336),\n",
      "    Message('note_on', channel=4, note=74, velocity=127, time=24),\n",
      "    Message('note_on', channel=4, note=74, velocity=0, time=168),\n",
      "    Message('note_on', channel=4, note=72, velocity=127, time=12),\n",
      "    Message('note_on', channel=4, note=72, velocity=0, time=168),\n",
      "    Message('note_on', channel=4, note=71, velocity=127, time=12),\n",
      "    Message('note_on', channel=4, note=71, velocity=0, time=336),\n",
      "    Message('note_on', channel=4, note=69, velocity=127, time=24),\n",
      "    Message('note_on', channel=4, note=69, velocity=0, time=336),\n",
      "    Message('note_on', channel=4, note=71, velocity=127, time=744),\n",
      "    Message('note_on', channel=4, note=71, velocity=0, time=336),\n",
      "    Message('note_on', channel=4, note=72, velocity=127, time=24),\n",
      "    Message('note_on', channel=4, note=72, velocity=0, time=168),\n",
      "    Message('note_on', channel=4, note=74, velocity=127, time=12),\n",
      "    Message('note_on', channel=4, note=74, velocity=0, time=336),\n",
      "    Message('note_on', channel=4, note=71, velocity=127, time=24),\n",
      "    Message('note_on', channel=4, note=71, velocity=0, time=168),\n",
      "    Message('note_on', channel=4, note=69, velocity=127, time=12),\n",
      "    Message('note_on', channel=4, note=69, velocity=0, time=96),\n",
      "    Message('note_on', channel=4, note=71, velocity=127, time=24),\n",
      "    Message('note_on', channel=4, note=71, velocity=0, time=24),\n",
      "    Message('note_on', channel=4, note=72, velocity=127, time=6),\n",
      "    Message('note_on', channel=4, note=72, velocity=0, time=24),\n",
      "    Message('note_on', channel=4, note=71, velocity=127, time=6),\n",
      "    Message('note_on', channel=4, note=71, velocity=0, time=168),\n",
      "    Message('note_on', channel=4, note=69, velocity=127, time=12),\n",
      "    Message('note_on', channel=4, note=69, velocity=0, time=168),\n",
      "    Message('note_on', channel=4, note=67, velocity=127, time=12),\n",
      "    Message('note_on', channel=4, note=67, velocity=0, time=336),\n",
      "    MetaMessage('end_of_track', time=0)]),\n",
      "  MidiTrack([\n",
      "    MetaMessage('track_name', name='Cut-N-Shoot, Tx', time=0),\n",
      "    MetaMessage('instrument_name', name='Choir Aahs', time=0),\n",
      "    MetaMessage('midi_port', port=0, time=0),\n",
      "    Message('program_change', channel=5, program=52, time=0),\n",
      "    Message('note_on', channel=5, note=59, velocity=127, time=4320),\n",
      "    Message('note_on', channel=5, note=59, velocity=0, time=336),\n",
      "    Message('note_on', channel=5, note=60, velocity=127, time=24),\n",
      "    Message('note_on', channel=5, note=60, velocity=0, time=168),\n",
      "    Message('note_on', channel=5, note=62, velocity=127, time=12),\n",
      "    Message('note_on', channel=5, note=62, velocity=0, time=336),\n",
      "    Message('note_on', channel=5, note=62, velocity=127, time=24),\n",
      "    Message('note_on', channel=5, note=62, velocity=0, time=168),\n",
      "    Message('note_on', channel=5, note=60, velocity=127, time=12),\n",
      "    Message('note_on', channel=5, note=60, velocity=0, time=336),\n",
      "    Message('note_on', channel=5, note=59, velocity=127, time=24),\n",
      "    Message('note_on', channel=5, note=59, velocity=0, time=168),\n",
      "    Message('note_on', channel=5, note=57, velocity=127, time=12),\n",
      "    Message('note_on', channel=5, note=57, velocity=0, time=168),\n",
      "    Message('note_on', channel=5, note=57, velocity=127, time=12),\n",
      "    Message('note_on', channel=5, note=57, velocity=0, time=168),\n",
      "    Message('note_on', channel=5, note=59, velocity=127, time=732),\n",
      "    Message('note_on', channel=5, note=59, velocity=0, time=336),\n",
      "    Message('note_on', channel=5, note=60, velocity=127, time=24),\n",
      "    Message('note_on', channel=5, note=60, velocity=0, time=168),\n",
      "    Message('note_on', channel=5, note=62, velocity=127, time=12),\n",
      "    Message('note_on', channel=5, note=62, velocity=0, time=336),\n",
      "    Message('note_on', channel=5, note=59, velocity=127, time=24),\n",
      "    Message('note_on', channel=5, note=59, velocity=0, time=168),\n",
      "    Message('note_on', channel=5, note=57, velocity=127, time=12),\n",
      "    Message('note_on', channel=5, note=57, velocity=0, time=96),\n",
      "    Message('note_on', channel=5, note=59, velocity=127, time=24),\n",
      "    Message('note_on', channel=5, note=59, velocity=0, time=24),\n",
      "    Message('note_on', channel=5, note=60, velocity=127, time=6),\n",
      "    Message('note_on', channel=5, note=60, velocity=0, time=24),\n",
      "    Message('note_on', channel=5, note=59, velocity=127, time=6),\n",
      "    Message('note_on', channel=5, note=59, velocity=0, time=168),\n",
      "    Message('note_on', channel=5, note=57, velocity=127, time=12),\n",
      "    Message('note_on', channel=5, note=57, velocity=0, time=168),\n",
      "    Message('note_on', channel=5, note=55, velocity=127, time=12),\n",
      "    Message('note_on', channel=5, note=55, velocity=0, time=336),\n",
      "    Message('note_on', channel=5, note=59, velocity=127, time=3444),\n",
      "    Message('note_on', channel=5, note=59, velocity=0, time=336),\n",
      "    Message('note_on', channel=5, note=60, velocity=127, time=24),\n",
      "    Message('note_on', channel=5, note=60, velocity=0, time=168),\n",
      "    Message('note_on', channel=5, note=62, velocity=127, time=12),\n",
      "    Message('note_on', channel=5, note=62, velocity=0, time=336),\n",
      "    Message('note_on', channel=5, note=62, velocity=127, time=24),\n",
      "    Message('note_on', channel=5, note=62, velocity=0, time=168),\n",
      "    Message('note_on', channel=5, note=60, velocity=127, time=12),\n",
      "    Message('note_on', channel=5, note=60, velocity=0, time=336),\n",
      "    Message('note_on', channel=5, note=59, velocity=127, time=24),\n",
      "    Message('note_on', channel=5, note=59, velocity=0, time=168),\n",
      "    Message('note_on', channel=5, note=57, velocity=127, time=12),\n",
      "    Message('note_on', channel=5, note=57, velocity=0, time=168),\n",
      "    Message('note_on', channel=5, note=57, velocity=127, time=12),\n",
      "    Message('note_on', channel=5, note=57, velocity=0, time=168),\n",
      "    Message('note_on', channel=5, note=59, velocity=127, time=732),\n",
      "    Message('note_on', channel=5, note=59, velocity=0, time=336),\n",
      "    Message('note_on', channel=5, note=60, velocity=127, time=24),\n",
      "    Message('note_on', channel=5, note=60, velocity=0, time=168),\n",
      "    Message('note_on', channel=5, note=62, velocity=127, time=12),\n",
      "    Message('note_on', channel=5, note=62, velocity=0, time=336),\n",
      "    Message('note_on', channel=5, note=59, velocity=127, time=24),\n",
      "    Message('note_on', channel=5, note=59, velocity=0, time=168),\n",
      "    Message('note_on', channel=5, note=57, velocity=127, time=12),\n",
      "    Message('note_on', channel=5, note=57, velocity=0, time=96),\n",
      "    Message('note_on', channel=5, note=59, velocity=127, time=24),\n",
      "    Message('note_on', channel=5, note=59, velocity=0, time=24),\n",
      "    Message('note_on', channel=5, note=60, velocity=127, time=6),\n",
      "    Message('note_on', channel=5, note=60, velocity=0, time=24),\n",
      "    Message('note_on', channel=5, note=59, velocity=127, time=6),\n",
      "    Message('note_on', channel=5, note=59, velocity=0, time=168),\n",
      "    Message('note_on', channel=5, note=57, velocity=127, time=12),\n",
      "    Message('note_on', channel=5, note=57, velocity=0, time=168),\n",
      "    Message('note_on', channel=5, note=55, velocity=127, time=12),\n",
      "    Message('note_on', channel=5, note=55, velocity=0, time=336),\n",
      "    Message('note_on', channel=5, note=57, velocity=127, time=3984),\n",
      "    Message('note_on', channel=5, note=57, velocity=0, time=336),\n",
      "    Message('note_on', channel=5, note=59, velocity=127, time=24),\n",
      "    Message('note_on', channel=5, note=59, velocity=0, time=168),\n",
      "    Message('note_on', channel=5, note=60, velocity=127, time=12),\n",
      "    Message('note_on', channel=5, note=60, velocity=0, time=336),\n",
      "    Message('note_on', channel=5, note=60, velocity=127, time=24),\n",
      "    Message('note_on', channel=5, note=60, velocity=0, time=168),\n",
      "    Message('note_on', channel=5, note=59, velocity=127, time=12),\n",
      "    Message('note_on', channel=5, note=59, velocity=0, time=276),\n",
      "    Message('note_on', channel=5, note=60, velocity=127, time=24),\n",
      "    Message('note_on', channel=5, note=60, velocity=0, time=24),\n",
      "    Message('note_on', channel=5, note=62, velocity=127, time=6),\n",
      "    Message('note_on', channel=5, note=62, velocity=0, time=24),\n",
      "    Message('note_on', channel=5, note=59, velocity=127, time=6),\n",
      "    Message('note_on', channel=5, note=59, velocity=0, time=168),\n",
      "    Message('note_on', channel=5, note=57, velocity=127, time=12),\n",
      "    Message('note_on', channel=5, note=57, velocity=0, time=168),\n",
      "    Message('note_on', channel=5, note=57, velocity=127, time=12),\n",
      "    Message('note_on', channel=5, note=57, velocity=0, time=168),\n",
      "    Message('note_on', channel=5, note=60, velocity=127, time=1272),\n",
      "    Message('note_on', channel=5, note=60, velocity=0, time=336),\n",
      "    Message('note_on', channel=5, note=62, velocity=127, time=24),\n",
      "    Message('note_on', channel=5, note=62, velocity=0, time=168),\n",
      "    Message('note_on', channel=5, note=64, velocity=127, time=12),\n",
      "    Message('note_on', channel=5, note=64, velocity=0, time=336),\n",
      "    Message('note_on', channel=5, note=64, velocity=127, time=24),\n",
      "    Message('note_on', channel=5, note=64, velocity=0, time=168),\n",
      "    Message('note_on', channel=5, note=62, velocity=127, time=12),\n",
      "    Message('note_on', channel=5, note=62, velocity=0, time=276),\n",
      "    Message('note_on', channel=5, note=64, velocity=127, time=24),\n",
      "    Message('note_on', channel=5, note=64, velocity=0, time=24),\n",
      "    Message('note_on', channel=5, note=65, velocity=127, time=6),\n",
      "    Message('note_on', channel=5, note=65, velocity=0, time=24),\n",
      "    Message('note_on', channel=5, note=62, velocity=127, time=6),\n",
      "    Message('note_on', channel=5, note=62, velocity=0, time=168),\n",
      "    Message('note_on', channel=5, note=60, velocity=127, time=12),\n",
      "    Message('note_on', channel=5, note=60, velocity=0, time=168),\n",
      "    Message('note_on', channel=5, note=60, velocity=127, time=12),\n",
      "    Message('note_on', channel=5, note=60, velocity=0, time=168),\n",
      "    Message('note_on', channel=5, note=59, velocity=127, time=1272),\n",
      "    Message('note_on', channel=5, note=59, velocity=0, time=336),\n",
      "    Message('note_on', channel=5, note=60, velocity=127, time=24),\n",
      "    Message('note_on', channel=5, note=60, velocity=0, time=168),\n",
      "    Message('note_on', channel=5, note=62, velocity=127, time=12),\n",
      "    Message('note_on', channel=5, note=62, velocity=0, time=336),\n",
      "    Message('note_on', channel=5, note=62, velocity=127, time=24),\n",
      "    Message('note_on', channel=5, note=62, velocity=0, time=168),\n",
      "    Message('note_on', channel=5, note=60, velocity=127, time=12),\n",
      "    Message('note_on', channel=5, note=60, velocity=0, time=168),\n",
      "    Message('note_on', channel=5, note=59, velocity=127, time=12),\n",
      "    Message('note_on', channel=5, note=59, velocity=0, time=336),\n",
      "    Message('note_on', channel=5, note=57, velocity=127, time=24),\n",
      "    Message('note_on', channel=5, note=57, velocity=0, time=336),\n",
      "    Message('note_on', channel=5, note=59, velocity=127, time=744),\n",
      "    Message('note_on', channel=5, note=59, velocity=0, time=336),\n",
      "    Message('note_on', channel=5, note=60, velocity=127, time=24),\n",
      "    Message('note_on', channel=5, note=60, velocity=0, time=168),\n",
      "    Message('note_on', channel=5, note=62, velocity=127, time=12),\n",
      "    Message('note_on', channel=5, note=62, velocity=0, time=336),\n",
      "    Message('note_on', channel=5, note=59, velocity=127, time=24),\n",
      "    Message('note_on', channel=5, note=59, velocity=0, time=168),\n",
      "    Message('note_on', channel=5, note=57, velocity=127, time=12),\n",
      "    Message('note_on', channel=5, note=57, velocity=0, time=96),\n",
      "    Message('note_on', channel=5, note=59, velocity=127, time=24),\n",
      "    Message('note_on', channel=5, note=59, velocity=0, time=24),\n",
      "    Message('note_on', channel=5, note=60, velocity=127, time=6),\n",
      "    Message('note_on', channel=5, note=60, velocity=0, time=24),\n",
      "    Message('note_on', channel=5, note=59, velocity=127, time=6),\n",
      "    Message('note_on', channel=5, note=59, velocity=0, time=168),\n",
      "    Message('note_on', channel=5, note=57, velocity=127, time=12),\n",
      "    Message('note_on', channel=5, note=57, velocity=0, time=168),\n",
      "    Message('note_on', channel=5, note=55, velocity=127, time=12),\n",
      "    Message('note_on', channel=5, note=55, velocity=0, time=336),\n",
      "    Message('note_on', channel=5, note=59, velocity=127, time=10464),\n",
      "    Message('note_on', channel=5, note=59, velocity=0, time=336),\n",
      "    Message('note_on', channel=5, note=60, velocity=127, time=24),\n",
      "    Message('note_on', channel=5, note=60, velocity=0, time=168),\n",
      "    Message('note_on', channel=5, note=62, velocity=127, time=12),\n",
      "    Message('note_on', channel=5, note=62, velocity=0, time=336),\n",
      "    Message('note_on', channel=5, note=62, velocity=127, time=24),\n",
      "    Message('note_on', channel=5, note=62, velocity=0, time=168),\n",
      "    Message('note_on', channel=5, note=60, velocity=127, time=12),\n",
      "    Message('note_on', channel=5, note=60, velocity=0, time=336),\n",
      "    Message('note_on', channel=5, note=59, velocity=127, time=24),\n",
      "    Message('note_on', channel=5, note=59, velocity=0, time=168),\n",
      "    Message('note_on', channel=5, note=57, velocity=127, time=12),\n",
      "    Message('note_on', channel=5, note=57, velocity=0, time=168),\n",
      "    Message('note_on', channel=5, note=57, velocity=127, time=12),\n",
      "    Message('note_on', channel=5, note=57, velocity=0, time=168),\n",
      "    Message('note_on', channel=5, note=59, velocity=127, time=732),\n",
      "    Message('note_on', channel=5, note=59, velocity=0, time=336),\n",
      "    Message('note_on', channel=5, note=60, velocity=127, time=24),\n",
      "    Message('note_on', channel=5, note=60, velocity=0, time=168),\n",
      "    Message('note_on', channel=5, note=62, velocity=127, time=12),\n",
      "    Message('note_on', channel=5, note=62, velocity=0, time=336),\n",
      "    Message('note_on', channel=5, note=59, velocity=127, time=24),\n",
      "    Message('note_on', channel=5, note=59, velocity=0, time=168),\n",
      "    Message('note_on', channel=5, note=57, velocity=127, time=12),\n",
      "    Message('note_on', channel=5, note=57, velocity=0, time=96),\n",
      "    Message('note_on', channel=5, note=59, velocity=127, time=24),\n",
      "    Message('note_on', channel=5, note=59, velocity=0, time=24),\n",
      "    Message('note_on', channel=5, note=60, velocity=127, time=6),\n",
      "    Message('note_on', channel=5, note=60, velocity=0, time=24),\n",
      "    Message('note_on', channel=5, note=59, velocity=127, time=6),\n",
      "    Message('note_on', channel=5, note=59, velocity=0, time=168),\n",
      "    Message('note_on', channel=5, note=57, velocity=127, time=12),\n",
      "    Message('note_on', channel=5, note=57, velocity=0, time=168),\n",
      "    Message('note_on', channel=5, note=55, velocity=127, time=12),\n",
      "    Message('note_on', channel=5, note=55, velocity=0, time=336),\n",
      "    Message('note_on', channel=5, note=59, velocity=127, time=3444),\n",
      "    Message('note_on', channel=5, note=59, velocity=0, time=336),\n",
      "    Message('note_on', channel=5, note=60, velocity=127, time=24),\n",
      "    Message('note_on', channel=5, note=60, velocity=0, time=168),\n",
      "    Message('note_on', channel=5, note=62, velocity=127, time=12),\n",
      "    Message('note_on', channel=5, note=62, velocity=0, time=336),\n",
      "    Message('note_on', channel=5, note=62, velocity=127, time=24),\n",
      "    Message('note_on', channel=5, note=62, velocity=0, time=168),\n",
      "    Message('note_on', channel=5, note=60, velocity=127, time=12),\n",
      "    Message('note_on', channel=5, note=60, velocity=0, time=336),\n",
      "    Message('note_on', channel=5, note=59, velocity=127, time=24),\n",
      "    Message('note_on', channel=5, note=59, velocity=0, time=168),\n",
      "    Message('note_on', channel=5, note=57, velocity=127, time=12),\n",
      "    Message('note_on', channel=5, note=57, velocity=0, time=168),\n",
      "    Message('note_on', channel=5, note=57, velocity=127, time=12),\n",
      "    Message('note_on', channel=5, note=57, velocity=0, time=168),\n",
      "    Message('note_on', channel=5, note=59, velocity=127, time=732),\n",
      "    Message('note_on', channel=5, note=59, velocity=0, time=336),\n",
      "    Message('note_on', channel=5, note=60, velocity=127, time=24),\n",
      "    Message('note_on', channel=5, note=60, velocity=0, time=168),\n",
      "    Message('note_on', channel=5, note=62, velocity=127, time=12),\n",
      "    Message('note_on', channel=5, note=62, velocity=0, time=336),\n",
      "    Message('note_on', channel=5, note=59, velocity=127, time=24),\n",
      "    Message('note_on', channel=5, note=59, velocity=0, time=168),\n",
      "    Message('note_on', channel=5, note=57, velocity=127, time=12),\n",
      "    Message('note_on', channel=5, note=57, velocity=0, time=96),\n",
      "    Message('note_on', channel=5, note=59, velocity=127, time=24),\n",
      "    Message('note_on', channel=5, note=59, velocity=0, time=24),\n",
      "    Message('note_on', channel=5, note=60, velocity=127, time=6),\n",
      "    Message('note_on', channel=5, note=60, velocity=0, time=24),\n",
      "    Message('note_on', channel=5, note=59, velocity=127, time=6),\n",
      "    Message('note_on', channel=5, note=59, velocity=0, time=168),\n",
      "    Message('note_on', channel=5, note=57, velocity=127, time=12),\n",
      "    Message('note_on', channel=5, note=57, velocity=0, time=168),\n",
      "    Message('note_on', channel=5, note=55, velocity=127, time=12),\n",
      "    Message('note_on', channel=5, note=55, velocity=0, time=336),\n",
      "    Message('note_on', channel=5, note=57, velocity=127, time=3984),\n",
      "    Message('note_on', channel=5, note=57, velocity=0, time=336),\n",
      "    Message('note_on', channel=5, note=59, velocity=127, time=24),\n",
      "    Message('note_on', channel=5, note=59, velocity=0, time=168),\n",
      "    Message('note_on', channel=5, note=60, velocity=127, time=12),\n",
      "    Message('note_on', channel=5, note=60, velocity=0, time=336),\n",
      "    Message('note_on', channel=5, note=60, velocity=127, time=24),\n",
      "    Message('note_on', channel=5, note=60, velocity=0, time=168),\n",
      "    Message('note_on', channel=5, note=59, velocity=127, time=12),\n",
      "    Message('note_on', channel=5, note=59, velocity=0, time=276),\n",
      "    Message('note_on', channel=5, note=60, velocity=127, time=24),\n",
      "    Message('note_on', channel=5, note=60, velocity=0, time=24),\n",
      "    Message('note_on', channel=5, note=62, velocity=127, time=6),\n",
      "    Message('note_on', channel=5, note=62, velocity=0, time=24),\n",
      "    Message('note_on', channel=5, note=59, velocity=127, time=6),\n",
      "    Message('note_on', channel=5, note=59, velocity=0, time=168),\n",
      "    Message('note_on', channel=5, note=57, velocity=127, time=12),\n",
      "    Message('note_on', channel=5, note=57, velocity=0, time=168),\n",
      "    Message('note_on', channel=5, note=57, velocity=127, time=12),\n",
      "    Message('note_on', channel=5, note=57, velocity=0, time=168),\n",
      "    Message('note_on', channel=5, note=60, velocity=127, time=1272),\n",
      "    Message('note_on', channel=5, note=60, velocity=0, time=336),\n",
      "    Message('note_on', channel=5, note=62, velocity=127, time=24),\n",
      "    Message('note_on', channel=5, note=62, velocity=0, time=168),\n",
      "    Message('note_on', channel=5, note=64, velocity=127, time=12),\n",
      "    Message('note_on', channel=5, note=64, velocity=0, time=336),\n",
      "    Message('note_on', channel=5, note=64, velocity=127, time=24),\n",
      "    Message('note_on', channel=5, note=64, velocity=0, time=168),\n",
      "    Message('note_on', channel=5, note=62, velocity=127, time=12),\n",
      "    Message('note_on', channel=5, note=62, velocity=0, time=276),\n",
      "    Message('note_on', channel=5, note=64, velocity=127, time=24),\n",
      "    Message('note_on', channel=5, note=64, velocity=0, time=24),\n",
      "    Message('note_on', channel=5, note=65, velocity=127, time=6),\n",
      "    Message('note_on', channel=5, note=65, velocity=0, time=24),\n",
      "    Message('note_on', channel=5, note=62, velocity=127, time=6),\n",
      "    Message('note_on', channel=5, note=62, velocity=0, time=168),\n",
      "    Message('note_on', channel=5, note=60, velocity=127, time=12),\n",
      "    Message('note_on', channel=5, note=60, velocity=0, time=168),\n",
      "    Message('note_on', channel=5, note=60, velocity=127, time=12),\n",
      "    Message('note_on', channel=5, note=60, velocity=0, time=168),\n",
      "    Message('note_on', channel=5, note=59, velocity=127, time=1272),\n",
      "    Message('note_on', channel=5, note=59, velocity=0, time=336),\n",
      "    Message('note_on', channel=5, note=60, velocity=127, time=24),\n",
      "    Message('note_on', channel=5, note=60, velocity=0, time=168),\n",
      "    Message('note_on', channel=5, note=62, velocity=127, time=12),\n",
      "    Message('note_on', channel=5, note=62, velocity=0, time=336),\n",
      "    Message('note_on', channel=5, note=62, velocity=127, time=24),\n",
      "    Message('note_on', channel=5, note=62, velocity=0, time=168),\n",
      "    Message('note_on', channel=5, note=60, velocity=127, time=12),\n",
      "    Message('note_on', channel=5, note=60, velocity=0, time=168),\n",
      "    Message('note_on', channel=5, note=59, velocity=127, time=12),\n",
      "    Message('note_on', channel=5, note=59, velocity=0, time=336),\n",
      "    Message('note_on', channel=5, note=57, velocity=127, time=24),\n",
      "    Message('note_on', channel=5, note=57, velocity=0, time=336),\n",
      "    Message('note_on', channel=5, note=59, velocity=127, time=744),\n",
      "    Message('note_on', channel=5, note=59, velocity=0, time=336),\n",
      "    Message('note_on', channel=5, note=60, velocity=127, time=24),\n",
      "    Message('note_on', channel=5, note=60, velocity=0, time=168),\n",
      "    Message('note_on', channel=5, note=62, velocity=127, time=12),\n",
      "    Message('note_on', channel=5, note=62, velocity=0, time=336),\n",
      "    Message('note_on', channel=5, note=59, velocity=127, time=24),\n",
      "    Message('note_on', channel=5, note=59, velocity=0, time=168),\n",
      "    Message('note_on', channel=5, note=57, velocity=127, time=12),\n",
      "    Message('note_on', channel=5, note=57, velocity=0, time=96),\n",
      "    Message('note_on', channel=5, note=59, velocity=127, time=24),\n",
      "    Message('note_on', channel=5, note=59, velocity=0, time=24),\n",
      "    Message('note_on', channel=5, note=60, velocity=127, time=6),\n",
      "    Message('note_on', channel=5, note=60, velocity=0, time=24),\n",
      "    Message('note_on', channel=5, note=59, velocity=127, time=6),\n",
      "    Message('note_on', channel=5, note=59, velocity=0, time=168),\n",
      "    Message('note_on', channel=5, note=57, velocity=127, time=12),\n",
      "    Message('note_on', channel=5, note=57, velocity=0, time=168),\n",
      "    Message('note_on', channel=5, note=55, velocity=127, time=12),\n",
      "    Message('note_on', channel=5, note=55, velocity=0, time=336),\n",
      "    MetaMessage('end_of_track', time=0)]),\n",
      "  MidiTrack([\n",
      "    MetaMessage('track_name', name='          [74046,757]', time=0),\n",
      "    MetaMessage('midi_port', port=0, time=0),\n",
      "    MetaMessage('end_of_track', time=0)])\n",
      "])\n"
     ]
    }
   ],
   "source": [
    "mid1 = mido.MidiFile(file1)\n",
    "\n",
    "note1=[]\n",
    "for msg in mido.merge_tracks(mid1.tracks):\n",
    "    if 'note_on' in msg.type:\n",
    "        "
   ]
  },
  {
   "cell_type": "code",
   "execution_count": 5,
   "id": "35134c20",
   "metadata": {},
   "outputs": [
    {
     "ename": "NameError",
     "evalue": "name 'compare_midi_file' is not defined",
     "output_type": "error",
     "traceback": [
      "\u001b[1;31m---------------------------------------------------------------------------\u001b[0m",
      "\u001b[1;31mNameError\u001b[0m                                 Traceback (most recent call last)",
      "\u001b[1;32mC:\\Users\\Public\\Documents\\ESTsoft\\CreatorTemp\\ipykernel_14768\\2604753850.py\u001b[0m in \u001b[0;36m<module>\u001b[1;34m\u001b[0m\n\u001b[0;32m      2\u001b[0m \u001b[0mfile2\u001b[0m \u001b[1;33m=\u001b[0m \u001b[0mconcat_path\u001b[0m\u001b[1;33m(\u001b[0m\u001b[1;34m'midi_data'\u001b[0m\u001b[1;33m,\u001b[0m \u001b[1;34m'jesu2.mid'\u001b[0m\u001b[1;33m)\u001b[0m\u001b[1;33m\u001b[0m\u001b[1;33m\u001b[0m\u001b[0m\n\u001b[0;32m      3\u001b[0m \u001b[1;33m\u001b[0m\u001b[0m\n\u001b[1;32m----> 4\u001b[1;33m \u001b[0msimilarity\u001b[0m \u001b[1;33m=\u001b[0m \u001b[0mcompare_midi_file\u001b[0m\u001b[1;33m(\u001b[0m\u001b[0mfile1\u001b[0m\u001b[1;33m,\u001b[0m \u001b[0mfile2\u001b[0m\u001b[1;33m)\u001b[0m\u001b[1;33m\u001b[0m\u001b[1;33m\u001b[0m\u001b[0m\n\u001b[0m\u001b[0;32m      5\u001b[0m \u001b[1;33m\u001b[0m\u001b[0m\n\u001b[0;32m      6\u001b[0m \u001b[0mprint\u001b[0m\u001b[1;33m(\u001b[0m\u001b[0msimilarity\u001b[0m\u001b[1;33m)\u001b[0m\u001b[1;33m\u001b[0m\u001b[1;33m\u001b[0m\u001b[0m\n",
      "\u001b[1;31mNameError\u001b[0m: name 'compare_midi_file' is not defined"
     ]
    }
   ],
   "source": [
    "file1 = concat_path('midi_data', 'jesu1.mid')\n",
    "file2 = concat_path('midi_data', 'jesu2.mid')\n",
    "\n",
    "similarity = compare_midi_file(file1, file2)\n",
    "\n",
    "print(similarity)"
   ]
  },
  {
   "cell_type": "code",
   "execution_count": null,
   "id": "f79cd103",
   "metadata": {},
   "outputs": [],
   "source": []
  },
  {
   "cell_type": "code",
   "execution_count": null,
   "id": "380439c8",
   "metadata": {},
   "outputs": [],
   "source": []
  },
  {
   "cell_type": "code",
   "execution_count": null,
   "id": "764944d6",
   "metadata": {},
   "outputs": [],
   "source": []
  },
  {
   "cell_type": "code",
   "execution_count": null,
   "id": "915ae393",
   "metadata": {},
   "outputs": [],
   "source": []
  },
  {
   "cell_type": "code",
   "execution_count": null,
   "id": "9a0d02a0",
   "metadata": {},
   "outputs": [],
   "source": []
  },
  {
   "cell_type": "code",
   "execution_count": null,
   "id": "d67a2588",
   "metadata": {},
   "outputs": [],
   "source": []
  }
 ],
 "metadata": {
  "kernelspec": {
   "display_name": "Python 3 (ipykernel)",
   "language": "python",
   "name": "python3"
  },
  "language_info": {
   "codemirror_mode": {
    "name": "ipython",
    "version": 3
   },
   "file_extension": ".py",
   "mimetype": "text/x-python",
   "name": "python",
   "nbconvert_exporter": "python",
   "pygments_lexer": "ipython3",
   "version": "3.7.9"
  }
 },
 "nbformat": 4,
 "nbformat_minor": 5
}
