{
 "cells": [
  {
   "cell_type": "markdown",
   "id": "8980795a",
   "metadata": {},
   "source": [
    "### Ⅰ. 라이브러리"
   ]
  },
  {
   "cell_type": "code",
   "execution_count": 61,
   "id": "549748c2",
   "metadata": {
    "scrolled": false
   },
   "outputs": [],
   "source": [
    "import numpy as np\n",
    "import pandas as pd\n",
    "\n",
    "import os\n",
    "import mido\n",
    "\n",
    "from mido import MidiFile, MidiTrack, MetaMessage, Message\n",
    "\n",
    "\n"
   ]
  },
  {
   "cell_type": "code",
   "execution_count": null,
   "id": "faddb7cd",
   "metadata": {
    "scrolled": false
   },
   "outputs": [],
   "source": []
  },
  {
   "cell_type": "markdown",
   "id": "e976ffb8",
   "metadata": {},
   "source": [
    "### Ⅱ. 데이터 추출\n",
    "- Message\n",
    "    - type\n",
    "        - note_on : 음표 시작\n",
    "        - control_change : 컨트롤러 변경 메시지 ex. 페달 볼륨 조절기 움직임\n",
    "        - program_change : 프로그램 변경 메시지 ex. 다양한 소리 또는 패치"
   ]
  },
  {
   "cell_type": "markdown",
   "id": "796b5286",
   "metadata": {},
   "source": [
    "#### 1. pitch (음정) : [  -8192 to 8192 ]\n",
    "- 음의 높낮이\n",
    "- 주파수 표현"
   ]
  },
  {
   "cell_type": "markdown",
   "id": "4e35068c",
   "metadata": {},
   "source": [
    "#### 2. note (음표) : [  0 to 127 ]\n",
    "- msg.type = 'note_on' / 'note_off'\n",
    "    - 소리의 강도 / 세기 ( velocity )\n",
    "    - 지속 시간 ( time, 단위 : tick )"
   ]
  },
  {
   "cell_type": "markdown",
   "id": "0877e3c9",
   "metadata": {},
   "source": [
    "#### 3. control ( 컨트롤러 번호 ) [ 0 to 127 ]\n",
    "- https://www.midi.org/specifications/midi-reference-tables/midi-1-0-control-change-messages-data-bytes-2\n",
    "----\n",
    "- control=1  ( Modulation Wheel ( 음향 변화 )) ( 0 : 왼쪽, 63 : 중앙 127 : 오른쪽 )\n",
    "- control=7  ( Main Volume 조절 )\n",
    "- control=10 ( Pan, 좌우 스테레오 위치 조절 )\n",
    "- control=64 ( Damper Pedal on/off (Sustain) ) <= 63 Off 64<= On"
   ]
  },
  {
   "cell_type": "markdown",
   "id": "ce8f868e",
   "metadata": {},
   "source": [
    "#### 4. program ( 특정 악기 / 사운드 패치 ) [ 0 to 127 ]\n",
    "- program_change : 이벤트를 통해, 악기를 변경\n",
    "- 피아노, 비트 등의 특정한 사운드 지칭\n",
    "----\n",
    "- program=0 : 피아노\n",
    "- program=25 : 악기 관련 사운드\n",
    "- program=40 : 비트 드럼"
   ]
  },
  {
   "cell_type": "code",
   "execution_count": 294,
   "id": "c3f469b1",
   "metadata": {
    "scrolled": false
   },
   "outputs": [],
   "source": [
    "file_name = \"piano_pirate.mid\"\n",
    "file_path = os.path.join(\"midi_data\", file_name)\n",
    "\n",
    "mid = MidiFile(file_path)"
   ]
  },
  {
   "cell_type": "code",
   "execution_count": null,
   "id": "394e1398",
   "metadata": {},
   "outputs": [],
   "source": []
  },
  {
   "cell_type": "code",
   "execution_count": 43,
   "id": "7b605303",
   "metadata": {
    "scrolled": false
   },
   "outputs": [],
   "source": [
    "def distribute_msg(mid_track):\n",
    "    track_dict = {}\n",
    "    \n",
    "    track_dict['MetaMessage'] = []\n",
    "    track_dict['Message'] = []\n",
    "    track_dict['ETC'] = []\n",
    "    \n",
    "    for msg in mid_track:\n",
    "        \n",
    "        if isinstance(msg, MetaMessage):\n",
    "            track_dict['MetaMessage'].append(msg)\n",
    "            \n",
    "        elif isinstance(msg, Message):\n",
    "            track_dict['Message'].append(msg)\n",
    "            \n",
    "        else:\n",
    "            track_dict['ETC'].append(msg)\n",
    "            \n",
    "    return track_dict"
   ]
  },
  {
   "cell_type": "code",
   "execution_count": 106,
   "id": "88bef79b",
   "metadata": {
    "scrolled": false
   },
   "outputs": [
    {
     "name": "stdout",
     "output_type": "stream",
     "text": [
      "Empty DataFrame\n",
      "Columns: []\n",
      "Index: []\n"
     ]
    }
   ],
   "source": [
    "def initialize_ticks(mid_track):\n",
    "    \n",
    "    df = pd.DataFrame()\n",
    "    \n",
    "    time_vec = {}\n",
    "    time_arr = [0]\n",
    "    \n",
    "    for msg in mid_track:\n",
    "        time = \n",
    "        \n",
    "    time_arr = time_arr[1:]\n",
    "    \n",
    "initialize_ticks(track_dict['Message'])"
   ]
  },
  {
   "cell_type": "markdown",
   "id": "2594968a",
   "metadata": {},
   "source": [
    "#### 4. time // 이것을 어떻게 할 지 좀 더 고민\n",
    "- tick : mid.ticks_per_beat\n",
    "    - 1박자의 tick 수를 의미\n",
    "- tick_interval 을 의미\n",
    "- time = 0 ( interval = 0 )\n",
    "    - 이전 이벤트와 동시에 발생\n",
    "    - 동일한 시간에 기록"
   ]
  },
  {
   "cell_type": "code",
   "execution_count": 84,
   "id": "208a137b",
   "metadata": {
    "scrolled": false
   },
   "outputs": [
    {
     "data": {
      "text/plain": [
       "MidiTrack([\n",
       "  MetaMessage('track_name', name=\"He's A Pirate\", time=0),\n",
       "  MetaMessage('text', text='By Written by Klaus Badelt', time=0),\n",
       "  MetaMessage('copyright', text='Arrangement © 2004 Cerullean Pictures ', time=0),\n",
       "  MetaMessage('copyright', text='Original Score © Walt Disney Pictures', time=0),\n",
       "  MetaMessage('text', text='Generated by NoteWorthy Composer', time=0),\n",
       "  MetaMessage('set_tempo', tempo=300000, time=0),\n",
       "  MetaMessage('key_signature', key='F', time=0),\n",
       "  MetaMessage('time_signature', numerator=6, denominator=8, clocks_per_click=24, notated_32nd_notes_per_beat=8, time=0),\n",
       "  MetaMessage('end_of_track', time=0)])"
      ]
     },
     "execution_count": 84,
     "metadata": {},
     "output_type": "execute_result"
    }
   ],
   "source": [
    "mid.tracks[0]"
   ]
  },
  {
   "cell_type": "code",
   "execution_count": 250,
   "id": "f122f424",
   "metadata": {
    "scrolled": false
   },
   "outputs": [
    {
     "name": "stdout",
     "output_type": "stream",
     "text": [
      "MetaMessage('midi_port', port=0, time=0)\n",
      "MetaMessage('track_name', name='Right Hand', time=0)\n",
      "control_change channel=0 control=64 value=0 time=0\n"
     ]
    }
   ],
   "source": [
    "print(mid.tracks[1][0])\n",
    "print(mid.tracks[1][1])\n",
    "print(mid.tracks[1][2])"
   ]
  },
  {
   "cell_type": "code",
   "execution_count": 273,
   "id": "7d1518a9",
   "metadata": {},
   "outputs": [],
   "source": [
    "file_name1 = \"Prelude1.mid\"\n",
    "file_path1 = os.path.join(\"midi_data\", file_name1)\n",
    "\n",
    "mid = MidiFile(file_path1)"
   ]
  },
  {
   "cell_type": "code",
   "execution_count": 268,
   "id": "47d0f95c",
   "metadata": {},
   "outputs": [
    {
     "data": {
      "text/plain": [
       "MidiTrack([\n",
       "  MetaMessage('midi_port', port=0, time=0),\n",
       "  MetaMessage('track_name', name='Right Hand', time=0),\n",
       "  Message('control_change', channel=0, control=64, value=0, time=0),\n",
       "  Message('program_change', channel=0, program=0, time=0),\n",
       "  Message('control_change', channel=0, control=7, value=127, time=0),\n",
       "  Message('control_change', channel=0, control=10, value=64, time=0),\n",
       "  Message('program_change', channel=0, program=0, time=0),\n",
       "  Message('control_change', channel=0, control=7, value=127, time=0),\n",
       "  Message('control_change', channel=0, control=10, value=64, time=0),\n",
       "  Message('control_change', channel=0, control=64, value=127, time=0),\n",
       "  Message('note_on', channel=0, note=62, velocity=110, time=0),\n",
       "  Message('note_on', channel=0, note=62, velocity=0, time=160),\n",
       "  Message('note_on', channel=0, note=62, velocity=110, time=32),\n",
       "  Message('note_on', channel=0, note=62, velocity=0, time=94),\n",
       "  Message('note_on', channel=0, note=62, velocity=110, time=2),\n",
       "  Message('note_on', channel=0, note=62, velocity=0, time=160),\n",
       "  Message('note_on', channel=0, note=62, velocity=110, time=32),\n",
       "  Message('note_on', channel=0, note=62, velocity=0, time=94),\n",
       "  Message('note_on', channel=0, note=62, velocity=110, time=2),\n",
       "  Message('note_on', channel=0, note=62, velocity=0, time=160),\n",
       "  Message('note_on', channel=0, note=62, velocity=110, time=32),\n",
       "  Message('note_on', channel=0, note=62, velocity=0, time=94),\n",
       "  Message('note_on', channel=0, note=62, velocity=110, time=2),\n",
       "  Message('note_on', channel=0, note=62, velocity=0, time=94),\n",
       "  Message('note_on', channel=0, note=62, velocity=110, time=2),\n",
       "  Message('note_on', channel=0, note=62, velocity=0, time=94),\n",
       "  Message('note_on', channel=0, note=62, velocity=110, time=2),\n",
       "  Message('note_on', channel=0, note=62, velocity=0, time=94),\n",
       "  Message('note_on', channel=0, note=62, velocity=110, time=2),\n",
       "  Message('note_on', channel=0, note=62, velocity=0, time=160),\n",
       "  Message('note_on', channel=0, note=62, velocity=110, time=32),\n",
       "  Message('note_on', channel=0, note=62, velocity=0, time=94),\n",
       "  Message('note_on', channel=0, note=62, velocity=110, time=2),\n",
       "  Message('note_on', channel=0, note=62, velocity=0, time=160),\n",
       "  Message('note_on', channel=0, note=62, velocity=110, time=32),\n",
       "  Message('note_on', channel=0, note=62, velocity=0, time=94),\n",
       "  Message('note_on', channel=0, note=62, velocity=110, time=2),\n",
       "  Message('note_on', channel=0, note=62, velocity=0, time=160),\n",
       "  Message('note_on', channel=0, note=62, velocity=110, time=32),\n",
       "  Message('note_on', channel=0, note=62, velocity=0, time=94),\n",
       "  Message('note_on', channel=0, note=62, velocity=110, time=2),\n",
       "  Message('note_on', channel=0, note=62, velocity=0, time=94),\n",
       "  Message('note_on', channel=0, note=62, velocity=110, time=2),\n",
       "  Message('note_on', channel=0, note=62, velocity=0, time=94),\n",
       "  Message('note_on', channel=0, note=62, velocity=110, time=2),\n",
       "  Message('note_on', channel=0, note=62, velocity=0, time=94),\n",
       "  Message('note_on', channel=0, note=62, velocity=110, time=2),\n",
       "  Message('note_on', channel=0, note=62, velocity=0, time=160),\n",
       "  Message('note_on', channel=0, note=62, velocity=110, time=32),\n",
       "  Message('note_on', channel=0, note=62, velocity=0, time=94),\n",
       "  Message('note_on', channel=0, note=62, velocity=110, time=2),\n",
       "  Message('note_on', channel=0, note=62, velocity=0, time=160),\n",
       "  Message('note_on', channel=0, note=62, velocity=110, time=32),\n",
       "  Message('note_on', channel=0, note=62, velocity=0, time=94),\n",
       "  Message('note_on', channel=0, note=62, velocity=110, time=2),\n",
       "  Message('note_on', channel=0, note=62, velocity=0, time=160),\n",
       "  Message('note_on', channel=0, note=62, velocity=110, time=32),\n",
       "  Message('note_on', channel=0, note=62, velocity=0, time=94),\n",
       "  Message('note_on', channel=0, note=62, velocity=110, time=2),\n",
       "  Message('note_on', channel=0, note=62, velocity=0, time=94),\n",
       "  Message('note_on', channel=0, note=57, velocity=110, time=2),\n",
       "  Message('note_on', channel=0, note=57, velocity=0, time=94),\n",
       "  Message('note_on', channel=0, note=60, velocity=110, time=2),\n",
       "  Message('note_on', channel=0, note=60, velocity=0, time=94),\n",
       "  Message('control_change', channel=0, control=64, value=0, time=2),\n",
       "  Message('control_change', channel=0, control=64, value=127, time=0),\n",
       "  Message('note_on', channel=0, note=53, velocity=110, time=0),\n",
       "  Message('note_on', channel=0, note=57, velocity=110, time=0),\n",
       "  Message('note_on', channel=0, note=62, velocity=110, time=0),\n",
       "  Message('note_on', channel=0, note=53, velocity=0, time=160),\n",
       "  Message('note_on', channel=0, note=57, velocity=0, time=0),\n",
       "  Message('note_on', channel=0, note=62, velocity=0, time=0),\n",
       "  Message('note_on', channel=0, note=53, velocity=110, time=32),\n",
       "  Message('note_on', channel=0, note=57, velocity=110, time=0),\n",
       "  Message('note_on', channel=0, note=62, velocity=110, time=0),\n",
       "  Message('note_on', channel=0, note=53, velocity=0, time=160),\n",
       "  Message('note_on', channel=0, note=57, velocity=0, time=0),\n",
       "  Message('note_on', channel=0, note=62, velocity=0, time=0),\n",
       "  Message('note_on', channel=0, note=53, velocity=110, time=32),\n",
       "  Message('note_on', channel=0, note=57, velocity=110, time=0),\n",
       "  Message('note_on', channel=0, note=62, velocity=110, time=0),\n",
       "  Message('note_on', channel=0, note=53, velocity=0, time=94),\n",
       "  Message('note_on', channel=0, note=57, velocity=0, time=0),\n",
       "  Message('note_on', channel=0, note=62, velocity=0, time=0),\n",
       "  Message('note_on', channel=0, note=57, velocity=110, time=2),\n",
       "  Message('note_on', channel=0, note=60, velocity=110, time=0),\n",
       "  Message('note_on', channel=0, note=64, velocity=110, time=0),\n",
       "  Message('note_on', channel=0, note=57, velocity=0, time=94),\n",
       "  Message('note_on', channel=0, note=60, velocity=0, time=0),\n",
       "  Message('note_on', channel=0, note=64, velocity=0, time=0),\n",
       "  Message('control_change', channel=0, control=64, value=0, time=2),\n",
       "  Message('control_change', channel=0, control=64, value=127, time=0),\n",
       "  Message('note_on', channel=0, note=58, velocity=110, time=0),\n",
       "  Message('note_on', channel=0, note=62, velocity=110, time=0),\n",
       "  Message('note_on', channel=0, note=65, velocity=110, time=0),\n",
       "  Message('note_on', channel=0, note=58, velocity=0, time=160),\n",
       "  Message('note_on', channel=0, note=62, velocity=0, time=0),\n",
       "  Message('note_on', channel=0, note=65, velocity=0, time=0),\n",
       "  Message('note_on', channel=0, note=58, velocity=110, time=32),\n",
       "  Message('note_on', channel=0, note=62, velocity=110, time=0),\n",
       "  Message('note_on', channel=0, note=65, velocity=110, time=0),\n",
       "  Message('note_on', channel=0, note=58, velocity=0, time=160),\n",
       "  Message('note_on', channel=0, note=62, velocity=0, time=0),\n",
       "  Message('note_on', channel=0, note=65, velocity=0, time=0),\n",
       "  Message('note_on', channel=0, note=58, velocity=110, time=32),\n",
       "  Message('note_on', channel=0, note=62, velocity=110, time=0),\n",
       "  Message('note_on', channel=0, note=65, velocity=110, time=0),\n",
       "  Message('note_on', channel=0, note=58, velocity=0, time=94),\n",
       "  Message('note_on', channel=0, note=62, velocity=0, time=0),\n",
       "  Message('note_on', channel=0, note=65, velocity=0, time=0),\n",
       "  Message('note_on', channel=0, note=62, velocity=110, time=2),\n",
       "  Message('note_on', channel=0, note=67, velocity=110, time=0),\n",
       "  Message('note_on', channel=0, note=62, velocity=0, time=94),\n",
       "  Message('note_on', channel=0, note=67, velocity=0, time=0),\n",
       "  Message('control_change', channel=0, control=64, value=0, time=2),\n",
       "  Message('control_change', channel=0, control=64, value=127, time=0),\n",
       "  Message('note_on', channel=0, note=57, velocity=110, time=0),\n",
       "  Message('note_on', channel=0, note=60, velocity=110, time=0),\n",
       "  Message('note_on', channel=0, note=64, velocity=110, time=0),\n",
       "  Message('note_on', channel=0, note=57, velocity=0, time=160),\n",
       "  Message('note_on', channel=0, note=60, velocity=0, time=0),\n",
       "  Message('note_on', channel=0, note=64, velocity=0, time=0),\n",
       "  Message('note_on', channel=0, note=57, velocity=110, time=32),\n",
       "  Message('note_on', channel=0, note=60, velocity=110, time=0),\n",
       "  Message('note_on', channel=0, note=64, velocity=110, time=0),\n",
       "  Message('note_on', channel=0, note=57, velocity=0, time=160),\n",
       "  Message('note_on', channel=0, note=60, velocity=0, time=0),\n",
       "  Message('note_on', channel=0, note=64, velocity=0, time=0),\n",
       "  Message('note_on', channel=0, note=57, velocity=110, time=32),\n",
       "  Message('note_on', channel=0, note=62, velocity=110, time=0),\n",
       "  Message('note_on', channel=0, note=57, velocity=0, time=94),\n",
       "  Message('note_on', channel=0, note=62, velocity=0, time=0),\n",
       "  Message('note_on', channel=0, note=55, velocity=110, time=2),\n",
       "  Message('note_on', channel=0, note=60, velocity=110, time=0),\n",
       "  Message('note_on', channel=0, note=55, velocity=0, time=94),\n",
       "  Message('note_on', channel=0, note=60, velocity=0, time=0),\n",
       "  Message('control_change', channel=0, control=64, value=0, time=2),\n",
       "  Message('control_change', channel=0, control=64, value=127, time=0),\n",
       "  Message('note_on', channel=0, note=57, velocity=110, time=0),\n",
       "  Message('note_on', channel=0, note=60, velocity=110, time=0),\n",
       "  Message('note_on', channel=0, note=57, velocity=0, time=94),\n",
       "  Message('note_on', channel=0, note=60, velocity=0, time=0),\n",
       "  Message('note_on', channel=0, note=57, velocity=110, time=2),\n",
       "  Message('note_on', channel=0, note=62, velocity=110, time=0),\n",
       "  Message('note_on', channel=0, note=57, velocity=0, time=160),\n",
       "  Message('note_on', channel=0, note=62, velocity=0, time=0),\n",
       "  Message('note_on', channel=0, note=57, velocity=110, time=128),\n",
       "  Message('note_on', channel=0, note=57, velocity=0, time=94),\n",
       "  Message('note_on', channel=0, note=60, velocity=110, time=2),\n",
       "  Message('note_on', channel=0, note=60, velocity=0, time=94),\n",
       "  Message('control_change', channel=0, control=64, value=0, time=2),\n",
       "  Message('control_change', channel=0, control=64, value=127, time=0),\n",
       "  Message('note_on', channel=0, note=53, velocity=110, time=0),\n",
       "  Message('note_on', channel=0, note=58, velocity=110, time=0),\n",
       "  Message('note_on', channel=0, note=62, velocity=110, time=0),\n",
       "  Message('note_on', channel=0, note=53, velocity=0, time=160),\n",
       "  Message('note_on', channel=0, note=58, velocity=0, time=0),\n",
       "  Message('note_on', channel=0, note=62, velocity=0, time=0),\n",
       "  Message('note_on', channel=0, note=53, velocity=110, time=32),\n",
       "  Message('note_on', channel=0, note=58, velocity=110, time=0),\n",
       "  Message('note_on', channel=0, note=62, velocity=110, time=0),\n",
       "  Message('note_on', channel=0, note=53, velocity=0, time=160),\n",
       "  Message('note_on', channel=0, note=58, velocity=0, time=0),\n",
       "  Message('note_on', channel=0, note=62, velocity=0, time=0),\n",
       "  Message('note_on', channel=0, note=58, velocity=110, time=32),\n",
       "  Message('note_on', channel=0, note=62, velocity=110, time=0),\n",
       "  Message('note_on', channel=0, note=58, velocity=0, time=94),\n",
       "  Message('note_on', channel=0, note=62, velocity=0, time=0),\n",
       "  Message('note_on', channel=0, note=58, velocity=110, time=2),\n",
       "  Message('note_on', channel=0, note=64, velocity=110, time=0),\n",
       "  Message('note_on', channel=0, note=58, velocity=0, time=94),\n",
       "  Message('note_on', channel=0, note=64, velocity=0, time=0),\n",
       "  Message('control_change', channel=0, control=64, value=0, time=2),\n",
       "  Message('control_change', channel=0, control=64, value=127, time=0),\n",
       "  Message('note_on', channel=0, note=57, velocity=110, time=0),\n",
       "  Message('note_on', channel=0, note=60, velocity=110, time=0),\n",
       "  Message('note_on', channel=0, note=65, velocity=110, time=0),\n",
       "  Message('note_on', channel=0, note=57, velocity=0, time=160),\n",
       "  Message('note_on', channel=0, note=60, velocity=0, time=0),\n",
       "  Message('note_on', channel=0, note=65, velocity=0, time=0),\n",
       "  Message('note_on', channel=0, note=57, velocity=110, time=32),\n",
       "  Message('note_on', channel=0, note=60, velocity=110, time=0),\n",
       "  Message('note_on', channel=0, note=65, velocity=110, time=0),\n",
       "  Message('note_on', channel=0, note=57, velocity=0, time=160),\n",
       "  Message('note_on', channel=0, note=60, velocity=0, time=0),\n",
       "  Message('note_on', channel=0, note=65, velocity=0, time=0),\n",
       "  Message('note_on', channel=0, note=60, velocity=110, time=32),\n",
       "  Message('note_on', channel=0, note=65, velocity=110, time=0),\n",
       "  Message('note_on', channel=0, note=60, velocity=0, time=94),\n",
       "  Message('note_on', channel=0, note=65, velocity=0, time=0),\n",
       "  Message('note_on', channel=0, note=60, velocity=110, time=2),\n",
       "  Message('note_on', channel=0, note=67, velocity=110, time=0),\n",
       "  Message('note_on', channel=0, note=60, velocity=0, time=94),\n",
       "  Message('note_on', channel=0, note=67, velocity=0, time=0),\n",
       "  Message('control_change', channel=0, control=64, value=0, time=2),\n",
       "  Message('control_change', channel=0, control=64, value=127, time=0),\n",
       "  Message('note_on', channel=0, note=60, velocity=110, time=0),\n",
       "  Message('note_on', channel=0, note=64, velocity=110, time=0),\n",
       "  Message('note_on', channel=0, note=60, velocity=0, time=160),\n",
       "  Message('note_on', channel=0, note=64, velocity=0, time=0),\n",
       "  Message('note_on', channel=0, note=60, velocity=110, time=32),\n",
       "  Message('note_on', channel=0, note=64, velocity=110, time=0),\n",
       "  Message('note_on', channel=0, note=60, velocity=0, time=160),\n",
       "  Message('note_on', channel=0, note=64, velocity=0, time=0),\n",
       "  Message('note_on', channel=0, note=57, velocity=110, time=32),\n",
       "  Message('note_on', channel=0, note=62, velocity=110, time=0),\n",
       "  Message('note_on', channel=0, note=57, velocity=0, time=94),\n",
       "  Message('note_on', channel=0, note=62, velocity=0, time=0),\n",
       "  Message('note_on', channel=0, note=60, velocity=110, time=2),\n",
       "  Message('note_on', channel=0, note=60, velocity=0, time=94),\n",
       "  Message('control_change', channel=0, control=64, value=0, time=2),\n",
       "  Message('control_change', channel=0, control=64, value=127, time=0),\n",
       "  Message('note_on', channel=0, note=53, velocity=110, time=0),\n",
       "  Message('note_on', channel=0, note=57, velocity=110, time=0),\n",
       "  Message('note_on', channel=0, note=62, velocity=110, time=0),\n",
       "  Message('note_on', channel=0, note=53, velocity=0, time=160),\n",
       "  Message('note_on', channel=0, note=57, velocity=0, time=0),\n",
       "  Message('note_on', channel=0, note=62, velocity=0, time=0),\n",
       "  Message('note_on', channel=0, note=57, velocity=110, time=224),\n",
       "  Message('note_on', channel=0, note=57, velocity=0, time=94),\n",
       "  Message('note_on', channel=0, note=60, velocity=110, time=2),\n",
       "  Message('note_on', channel=0, note=60, velocity=0, time=94),\n",
       "  Message('control_change', channel=0, control=64, value=0, time=2),\n",
       "  Message('control_change', channel=0, control=64, value=127, time=0),\n",
       "  Message('note_on', channel=0, note=53, velocity=110, time=0),\n",
       "  Message('note_on', channel=0, note=57, velocity=110, time=0),\n",
       "  Message('note_on', channel=0, note=62, velocity=110, time=0),\n",
       "  Message('note_on', channel=0, note=53, velocity=0, time=160),\n",
       "  Message('note_on', channel=0, note=57, velocity=0, time=0),\n",
       "  Message('note_on', channel=0, note=62, velocity=0, time=0),\n",
       "  Message('note_on', channel=0, note=53, velocity=110, time=32),\n",
       "  Message('note_on', channel=0, note=57, velocity=110, time=0),\n",
       "  Message('note_on', channel=0, note=62, velocity=110, time=0),\n",
       "  Message('note_on', channel=0, note=53, velocity=0, time=160),\n",
       "  Message('note_on', channel=0, note=57, velocity=0, time=0),\n",
       "  Message('note_on', channel=0, note=62, velocity=0, time=0),\n",
       "  Message('note_on', channel=0, note=57, velocity=110, time=32),\n",
       "  Message('note_on', channel=0, note=62, velocity=110, time=0),\n",
       "  Message('note_on', channel=0, note=57, velocity=0, time=94),\n",
       "  Message('note_on', channel=0, note=62, velocity=0, time=0),\n",
       "  Message('note_on', channel=0, note=57, velocity=110, time=2),\n",
       "  Message('note_on', channel=0, note=65, velocity=110, time=0),\n",
       "  Message('note_on', channel=0, note=57, velocity=0, time=94),\n",
       "  Message('note_on', channel=0, note=65, velocity=0, time=0),\n",
       "  Message('control_change', channel=0, control=64, value=0, time=2),\n",
       "  Message('control_change', channel=0, control=64, value=127, time=0),\n",
       "  Message('note_on', channel=0, note=58, velocity=110, time=0),\n",
       "  Message('note_on', channel=0, note=62, velocity=110, time=0),\n",
       "  Message('note_on', channel=0, note=67, velocity=110, time=0),\n",
       "  Message('note_on', channel=0, note=58, velocity=0, time=160),\n",
       "  Message('note_on', channel=0, note=62, velocity=0, time=0),\n",
       "  Message('note_on', channel=0, note=67, velocity=0, time=0),\n",
       "  Message('note_on', channel=0, note=58, velocity=110, time=32),\n",
       "  Message('note_on', channel=0, note=62, velocity=110, time=0),\n",
       "  Message('note_on', channel=0, note=67, velocity=110, time=0),\n",
       "  Message('note_on', channel=0, note=58, velocity=0, time=160),\n",
       "  Message('note_on', channel=0, note=62, velocity=0, time=0),\n",
       "  Message('note_on', channel=0, note=67, velocity=0, time=0),\n",
       "  Message('note_on', channel=0, note=62, velocity=110, time=32),\n",
       "  Message('note_on', channel=0, note=67, velocity=110, time=0),\n",
       "  Message('note_on', channel=0, note=62, velocity=0, time=94),\n",
       "  Message('note_on', channel=0, note=67, velocity=0, time=0),\n",
       "  Message('note_on', channel=0, note=62, velocity=110, time=2),\n",
       "  Message('note_on', channel=0, note=69, velocity=110, time=0),\n",
       "  Message('note_on', channel=0, note=62, velocity=0, time=94),\n",
       "  Message('note_on', channel=0, note=69, velocity=0, time=0),\n",
       "  Message('control_change', channel=0, control=64, value=0, time=2),\n",
       "  Message('control_change', channel=0, control=64, value=127, time=0),\n",
       "  Message('note_on', channel=0, note=62, velocity=110, time=0),\n",
       "  Message('note_on', channel=0, note=67, velocity=110, time=0),\n",
       "  Message('note_on', channel=0, note=70, velocity=110, time=0),\n",
       "  Message('note_on', channel=0, note=62, velocity=0, time=160),\n",
       "  Message('note_on', channel=0, note=67, velocity=0, time=0),\n",
       "  Message('note_on', channel=0, note=70, velocity=0, time=0),\n",
       "  Message('note_on', channel=0, note=62, velocity=110, time=32),\n",
       "  Message('note_on', channel=0, note=67, velocity=110, time=0),\n",
       "  Message('note_on', channel=0, note=70, velocity=110, time=0),\n",
       "  Message('note_on', channel=0, note=62, velocity=0, time=160),\n",
       "  Message('note_on', channel=0, note=67, velocity=0, time=0),\n",
       "  Message('note_on', channel=0, note=70, velocity=0, time=0),\n",
       "  Message('note_on', channel=0, note=65, velocity=110, time=32),\n",
       "  Message('note_on', channel=0, note=69, velocity=110, time=0),\n",
       "  Message('note_on', channel=0, note=65, velocity=0, time=94),\n",
       "  Message('note_on', channel=0, note=69, velocity=0, time=0),\n",
       "  Message('note_on', channel=0, note=64, velocity=110, time=2),\n",
       "  Message('note_on', channel=0, note=67, velocity=110, time=0),\n",
       "  Message('note_on', channel=0, note=64, velocity=0, time=94),\n",
       "  Message('note_on', channel=0, note=67, velocity=0, time=0),\n",
       "  Message('control_change', channel=0, control=64, value=0, time=2),\n",
       "  Message('control_change', channel=0, control=64, value=127, time=0),\n",
       "  Message('note_on', channel=0, note=65, velocity=110, time=0),\n",
       "  Message('note_on', channel=0, note=69, velocity=110, time=0),\n",
       "  Message('note_on', channel=0, note=65, velocity=0, time=94),\n",
       "  Message('note_on', channel=0, note=69, velocity=0, time=0),\n",
       "  Message('note_on', channel=0, note=62, velocity=110, time=2),\n",
       "  Message('note_on', channel=0, note=62, velocity=0, time=160),\n",
       "  Message('note_on', channel=0, note=62, velocity=110, time=128),\n",
       "  Message('note_on', channel=0, note=62, velocity=0, time=94),\n",
       "  Message('note_on', channel=0, note=64, velocity=110, time=2),\n",
       "  Message('note_on', channel=0, note=64, velocity=0, time=94),\n",
       "  Message('control_change', channel=0, control=64, value=0, time=2),\n",
       "  Message('control_change', channel=0, control=64, value=127, time=0),\n",
       "  Message('note_on', channel=0, note=58, velocity=110, time=0),\n",
       "  Message('note_on', channel=0, note=62, velocity=110, time=0),\n",
       "  Message('note_on', channel=0, note=65, velocity=110, time=0),\n",
       "  Message('note_on', channel=0, note=58, velocity=0, time=160),\n",
       "  Message('note_on', channel=0, note=62, velocity=0, time=0),\n",
       "  Message('note_on', channel=0, note=65, velocity=0, time=0),\n",
       "  Message('note_on', channel=0, note=58, velocity=110, time=32),\n",
       "  Message('note_on', channel=0, note=62, velocity=110, time=0),\n",
       "  Message('note_on', channel=0, note=65, velocity=110, time=0),\n",
       "  Message('note_on', channel=0, note=58, velocity=0, time=160),\n",
       "  Message('note_on', channel=0, note=62, velocity=0, time=0),\n",
       "  Message('note_on', channel=0, note=65, velocity=0, time=0),\n",
       "  Message('note_on', channel=0, note=58, velocity=110, time=32),\n",
       "  Message('note_on', channel=0, note=62, velocity=110, time=0),\n",
       "  Message('note_on', channel=0, note=67, velocity=110, time=0),\n",
       "  Message('note_on', channel=0, note=58, velocity=0, time=160),\n",
       "  Message('note_on', channel=0, note=62, velocity=0, time=0),\n",
       "  Message('note_on', channel=0, note=67, velocity=0, time=0),\n",
       "  Message('control_change', channel=0, control=64, value=0, time=32),\n",
       "  Message('control_change', channel=0, control=64, value=127, time=0),\n",
       "  Message('note_on', channel=0, note=65, velocity=110, time=0),\n",
       "  Message('note_on', channel=0, note=69, velocity=110, time=0),\n",
       "  Message('note_on', channel=0, note=65, velocity=0, time=94),\n",
       "  Message('note_on', channel=0, note=69, velocity=0, time=0),\n",
       "  Message('note_on', channel=0, note=62, velocity=110, time=2),\n",
       "  Message('note_on', channel=0, note=62, velocity=0, time=160),\n",
       "  Message('note_on', channel=0, note=62, velocity=110, time=128),\n",
       "  Message('note_on', channel=0, note=62, velocity=0, time=94),\n",
       "  Message('note_on', channel=0, note=65, velocity=110, time=2),\n",
       "  Message('note_on', channel=0, note=65, velocity=0, time=94),\n",
       "  Message('control_change', channel=0, control=64, value=0, time=2),\n",
       "  Message('control_change', channel=0, control=64, value=127, time=0),\n",
       "  Message('note_on', channel=0, note=57, velocity=110, time=0),\n",
       "  Message('note_on', channel=0, note=61, velocity=110, time=0),\n",
       "  Message('note_on', channel=0, note=64, velocity=110, time=0),\n",
       "  Message('note_on', channel=0, note=57, velocity=0, time=160),\n",
       "  Message('note_on', channel=0, note=61, velocity=0, time=0),\n",
       "  Message('note_on', channel=0, note=64, velocity=0, time=0),\n",
       "  Message('note_on', channel=0, note=57, velocity=110, time=32),\n",
       "  Message('note_on', channel=0, note=61, velocity=110, time=0),\n",
       "  Message('note_on', channel=0, note=64, velocity=110, time=0),\n",
       "  Message('note_on', channel=0, note=57, velocity=0, time=160),\n",
       "  Message('note_on', channel=0, note=61, velocity=0, time=0),\n",
       "  Message('note_on', channel=0, note=64, velocity=0, time=0),\n",
       "  Message('note_on', channel=0, note=62, velocity=110, time=32),\n",
       "  Message('note_on', channel=0, note=65, velocity=110, time=0),\n",
       "  Message('note_on', channel=0, note=62, velocity=0, time=94),\n",
       "  Message('note_on', channel=0, note=65, velocity=0, time=0),\n",
       "  Message('note_on', channel=0, note=59, velocity=110, time=2),\n",
       "  Message('note_on', channel=0, note=62, velocity=110, time=0),\n",
       "  Message('note_on', channel=0, note=59, velocity=0, time=94),\n",
       "  Message('note_on', channel=0, note=62, velocity=0, time=0),\n",
       "  Message('control_change', channel=0, control=64, value=0, time=2),\n",
       "  Message('control_change', channel=0, control=64, value=127, time=0),\n",
       "  Message('note_on', channel=0, note=57, velocity=110, time=0),\n",
       "  Message('note_on', channel=0, note=61, velocity=110, time=0),\n",
       "  Message('note_on', channel=0, note=64, velocity=110, time=0),\n",
       "  Message('note_on', channel=0, note=57, velocity=0, time=94),\n",
       "  Message('note_on', channel=0, note=61, velocity=0, time=0),\n",
       "  Message('note_on', channel=0, note=64, velocity=0, time=0),\n",
       "  Message('control_change', channel=0, control=64, value=0, time=194),\n",
       "  Message('control_change', channel=0, control=64, value=127, time=0),\n",
       "  Message('note_on', channel=0, note=69, velocity=110, time=96),\n",
       "  Message('note_on', channel=0, note=69, velocity=0, time=94),\n",
       "  Message('note_on', channel=0, note=72, velocity=110, time=2),\n",
       "  Message('note_on', channel=0, note=72, velocity=0, time=94),\n",
       "  Message('control_change', channel=0, control=64, value=0, time=2),\n",
       "  Message('control_change', channel=0, control=64, value=127, time=0),\n",
       "  Message('note_on', channel=0, note=65, velocity=110, time=0),\n",
       "  Message('note_on', channel=0, note=69, velocity=110, time=0),\n",
       "  Message('note_on', channel=0, note=74, velocity=110, time=0),\n",
       "  Message('note_on', channel=0, note=65, velocity=0, time=160),\n",
       "  Message('note_on', channel=0, note=69, velocity=0, time=0),\n",
       "  Message('note_on', channel=0, note=74, velocity=0, time=0),\n",
       "  Message('note_on', channel=0, note=65, velocity=110, time=32),\n",
       "  Message('note_on', channel=0, note=69, velocity=110, time=0),\n",
       "  Message('note_on', channel=0, note=74, velocity=110, time=0),\n",
       "  Message('note_on', channel=0, note=65, velocity=0, time=160),\n",
       "  Message('note_on', channel=0, note=69, velocity=0, time=0),\n",
       "  Message('note_on', channel=0, note=74, velocity=0, time=0),\n",
       "  Message('note_on', channel=0, note=65, velocity=110, time=32),\n",
       "  Message('note_on', channel=0, note=69, velocity=110, time=0),\n",
       "  Message('note_on', channel=0, note=74, velocity=110, time=0),\n",
       "  Message('note_on', channel=0, note=65, velocity=0, time=94),\n",
       "  Message('note_on', channel=0, note=69, velocity=0, time=0),\n",
       "  Message('note_on', channel=0, note=74, velocity=0, time=0),\n",
       "  Message('note_on', channel=0, note=69, velocity=110, time=2),\n",
       "  Message('note_on', channel=0, note=72, velocity=110, time=0),\n",
       "  Message('note_on', channel=0, note=76, velocity=110, time=0),\n",
       "  Message('note_on', channel=0, note=69, velocity=0, time=94),\n",
       "  Message('note_on', channel=0, note=72, velocity=0, time=0),\n",
       "  Message('note_on', channel=0, note=76, velocity=0, time=0),\n",
       "  Message('control_change', channel=0, control=64, value=0, time=2),\n",
       "  Message('control_change', channel=0, control=64, value=127, time=0),\n",
       "  Message('note_on', channel=0, note=70, velocity=110, time=0),\n",
       "  Message('note_on', channel=0, note=74, velocity=110, time=0),\n",
       "  Message('note_on', channel=0, note=77, velocity=110, time=0),\n",
       "  Message('note_on', channel=0, note=70, velocity=0, time=160),\n",
       "  Message('note_on', channel=0, note=74, velocity=0, time=0),\n",
       "  Message('note_on', channel=0, note=77, velocity=0, time=0),\n",
       "  Message('note_on', channel=0, note=70, velocity=110, time=32),\n",
       "  Message('note_on', channel=0, note=74, velocity=110, time=0),\n",
       "  Message('note_on', channel=0, note=77, velocity=110, time=0),\n",
       "  Message('note_on', channel=0, note=70, velocity=0, time=160),\n",
       "  Message('note_on', channel=0, note=74, velocity=0, time=0),\n",
       "  Message('note_on', channel=0, note=77, velocity=0, time=0),\n",
       "  Message('note_on', channel=0, note=70, velocity=110, time=32),\n",
       "  Message('note_on', channel=0, note=74, velocity=110, time=0),\n",
       "  Message('note_on', channel=0, note=77, velocity=110, time=0),\n",
       "  Message('note_on', channel=0, note=70, velocity=0, time=94),\n",
       "  Message('note_on', channel=0, note=74, velocity=0, time=0),\n",
       "  Message('note_on', channel=0, note=77, velocity=0, time=0),\n",
       "  Message('note_on', channel=0, note=74, velocity=110, time=2),\n",
       "  Message('note_on', channel=0, note=79, velocity=110, time=0),\n",
       "  Message('note_on', channel=0, note=74, velocity=0, time=94),\n",
       "  Message('note_on', channel=0, note=79, velocity=0, time=0),\n",
       "  Message('control_change', channel=0, control=64, value=0, time=2),\n",
       "  Message('control_change', channel=0, control=64, value=127, time=0),\n",
       "  Message('note_on', channel=0, note=69, velocity=110, time=0),\n",
       "  Message('note_on', channel=0, note=72, velocity=110, time=0),\n",
       "  Message('note_on', channel=0, note=76, velocity=110, time=0),\n",
       "  Message('note_on', channel=0, note=69, velocity=0, time=160),\n",
       "  Message('note_on', channel=0, note=72, velocity=0, time=0),\n",
       "  Message('note_on', channel=0, note=76, velocity=0, time=0),\n",
       "  Message('note_on', channel=0, note=69, velocity=110, time=32),\n",
       "  Message('note_on', channel=0, note=72, velocity=110, time=0),\n",
       "  Message('note_on', channel=0, note=76, velocity=110, time=0),\n",
       "  Message('note_on', channel=0, note=69, velocity=0, time=160),\n",
       "  Message('note_on', channel=0, note=72, velocity=0, time=0),\n",
       "  Message('note_on', channel=0, note=76, velocity=0, time=0),\n",
       "  Message('note_on', channel=0, note=69, velocity=110, time=32),\n",
       "  Message('note_on', channel=0, note=74, velocity=110, time=0),\n",
       "  Message('note_on', channel=0, note=69, velocity=0, time=94),\n",
       "  Message('note_on', channel=0, note=74, velocity=0, time=0),\n",
       "  Message('note_on', channel=0, note=67, velocity=110, time=2),\n",
       "  Message('note_on', channel=0, note=72, velocity=110, time=0),\n",
       "  Message('note_on', channel=0, note=67, velocity=0, time=94),\n",
       "  Message('note_on', channel=0, note=72, velocity=0, time=0),\n",
       "  Message('control_change', channel=0, control=64, value=0, time=2),\n",
       "  Message('control_change', channel=0, control=64, value=127, time=0),\n",
       "  Message('note_on', channel=0, note=69, velocity=110, time=0),\n",
       "  Message('note_on', channel=0, note=72, velocity=110, time=0),\n",
       "  Message('note_on', channel=0, note=69, velocity=0, time=94),\n",
       "  Message('note_on', channel=0, note=72, velocity=0, time=0),\n",
       "  Message('note_on', channel=0, note=69, velocity=110, time=2),\n",
       "  Message('note_on', channel=0, note=74, velocity=110, time=0),\n",
       "  Message('note_on', channel=0, note=69, velocity=0, time=160),\n",
       "  Message('note_on', channel=0, note=74, velocity=0, time=0),\n",
       "  Message('note_on', channel=0, note=69, velocity=110, time=128),\n",
       "  Message('note_on', channel=0, note=69, velocity=0, time=94),\n",
       "  Message('note_on', channel=0, note=72, velocity=110, time=2),\n",
       "  Message('note_on', channel=0, note=72, velocity=0, time=94),\n",
       "  Message('control_change', channel=0, control=64, value=0, time=2),\n",
       "  Message('control_change', channel=0, control=64, value=127, time=0),\n",
       "  Message('note_on', channel=0, note=65, velocity=110, time=0),\n",
       "  Message('note_on', channel=0, note=70, velocity=110, time=0),\n",
       "  Message('note_on', channel=0, note=74, velocity=110, time=0),\n",
       "  Message('note_on', channel=0, note=65, velocity=0, time=160),\n",
       "  Message('note_on', channel=0, note=70, velocity=0, time=0),\n",
       "  Message('note_on', channel=0, note=74, velocity=0, time=0),\n",
       "  Message('note_on', channel=0, note=65, velocity=110, time=32),\n",
       "  Message('note_on', channel=0, note=70, velocity=110, time=0),\n",
       "  Message('note_on', channel=0, note=74, velocity=110, time=0),\n",
       "  Message('note_on', channel=0, note=65, velocity=0, time=160),\n",
       "  Message('note_on', channel=0, note=70, velocity=0, time=0),\n",
       "  Message('note_on', channel=0, note=74, velocity=0, time=0),\n",
       "  Message('note_on', channel=0, note=70, velocity=110, time=32),\n",
       "  Message('note_on', channel=0, note=74, velocity=110, time=0),\n",
       "  Message('note_on', channel=0, note=70, velocity=0, time=94),\n",
       "  Message('note_on', channel=0, note=74, velocity=0, time=0),\n",
       "  Message('note_on', channel=0, note=70, velocity=110, time=2),\n",
       "  Message('note_on', channel=0, note=76, velocity=110, time=0),\n",
       "  Message('note_on', channel=0, note=70, velocity=0, time=94),\n",
       "  Message('note_on', channel=0, note=76, velocity=0, time=0),\n",
       "  Message('control_change', channel=0, control=64, value=0, time=2),\n",
       "  Message('control_change', channel=0, control=64, value=127, time=0),\n",
       "  Message('note_on', channel=0, note=69, velocity=110, time=0),\n",
       "  Message('note_on', channel=0, note=72, velocity=110, time=0),\n",
       "  Message('note_on', channel=0, note=77, velocity=110, time=0),\n",
       "  Message('note_on', channel=0, note=69, velocity=0, time=160),\n",
       "  Message('note_on', channel=0, note=72, velocity=0, time=0),\n",
       "  Message('note_on', channel=0, note=77, velocity=0, time=0),\n",
       "  Message('note_on', channel=0, note=69, velocity=110, time=32),\n",
       "  Message('note_on', channel=0, note=72, velocity=110, time=0),\n",
       "  Message('note_on', channel=0, note=77, velocity=110, time=0),\n",
       "  Message('note_on', channel=0, note=69, velocity=0, time=160),\n",
       "  Message('note_on', channel=0, note=72, velocity=0, time=0),\n",
       "  Message('note_on', channel=0, note=77, velocity=0, time=0),\n",
       "  Message('note_on', channel=0, note=72, velocity=110, time=32),\n",
       "  Message('note_on', channel=0, note=77, velocity=110, time=0),\n",
       "  Message('note_on', channel=0, note=72, velocity=0, time=94),\n",
       "  Message('note_on', channel=0, note=77, velocity=0, time=0),\n",
       "  Message('note_on', channel=0, note=72, velocity=110, time=2),\n",
       "  Message('note_on', channel=0, note=79, velocity=110, time=0),\n",
       "  Message('note_on', channel=0, note=72, velocity=0, time=94),\n",
       "  Message('note_on', channel=0, note=79, velocity=0, time=0),\n",
       "  Message('control_change', channel=0, control=64, value=0, time=2),\n",
       "  Message('control_change', channel=0, control=64, value=127, time=0),\n",
       "  Message('note_on', channel=0, note=72, velocity=110, time=0),\n",
       "  Message('note_on', channel=0, note=76, velocity=110, time=0),\n",
       "  Message('note_on', channel=0, note=72, velocity=0, time=160),\n",
       "  Message('note_on', channel=0, note=76, velocity=0, time=0),\n",
       "  Message('note_on', channel=0, note=72, velocity=110, time=32),\n",
       "  Message('note_on', channel=0, note=76, velocity=110, time=0),\n",
       "  Message('note_on', channel=0, note=72, velocity=0, time=160),\n",
       "  Message('note_on', channel=0, note=76, velocity=0, time=0),\n",
       "  Message('note_on', channel=0, note=69, velocity=110, time=32),\n",
       "  Message('note_on', channel=0, note=74, velocity=110, time=0),\n",
       "  Message('note_on', channel=0, note=69, velocity=0, time=94),\n",
       "  Message('note_on', channel=0, note=74, velocity=0, time=0),\n",
       "  Message('note_on', channel=0, note=72, velocity=110, time=2),\n",
       "  Message('note_on', channel=0, note=72, velocity=0, time=94),\n",
       "  Message('control_change', channel=0, control=64, value=0, time=2),\n",
       "  Message('control_change', channel=0, control=64, value=127, time=0),\n",
       "  Message('note_on', channel=0, note=65, velocity=110, time=0),\n",
       "  Message('note_on', channel=0, note=69, velocity=110, time=0),\n",
       "  Message('note_on', channel=0, note=74, velocity=110, time=0),\n",
       "  Message('note_on', channel=0, note=65, velocity=0, time=160),\n",
       "  Message('note_on', channel=0, note=69, velocity=0, time=0),\n",
       "  Message('note_on', channel=0, note=74, velocity=0, time=0),\n",
       "  Message('note_on', channel=0, note=69, velocity=110, time=224),\n",
       "  Message('note_on', channel=0, note=69, velocity=0, time=94),\n",
       "  Message('note_on', channel=0, note=72, velocity=110, time=2),\n",
       "  Message('note_on', channel=0, note=72, velocity=0, time=94),\n",
       "  Message('control_change', channel=0, control=64, value=0, time=2),\n",
       "  Message('control_change', channel=0, control=64, value=127, time=0),\n",
       "  Message('note_on', channel=0, note=65, velocity=110, time=0),\n",
       "  Message('note_on', channel=0, note=69, velocity=110, time=0),\n",
       "  Message('note_on', channel=0, note=74, velocity=110, time=0),\n",
       "  Message('note_on', channel=0, note=65, velocity=0, time=160),\n",
       "  Message('note_on', channel=0, note=69, velocity=0, time=0),\n",
       "  Message('note_on', channel=0, note=74, velocity=0, time=0),\n",
       "  Message('note_on', channel=0, note=65, velocity=110, time=32),\n",
       "  Message('note_on', channel=0, note=69, velocity=110, time=0),\n",
       "  Message('note_on', channel=0, note=74, velocity=110, time=0),\n",
       "  Message('note_on', channel=0, note=65, velocity=0, time=160),\n",
       "  Message('note_on', channel=0, note=69, velocity=0, time=0),\n",
       "  Message('note_on', channel=0, note=74, velocity=0, time=0),\n",
       "  Message('note_on', channel=0, note=69, velocity=110, time=32),\n",
       "  Message('note_on', channel=0, note=74, velocity=110, time=0),\n",
       "  Message('note_on', channel=0, note=69, velocity=0, time=94),\n",
       "  Message('note_on', channel=0, note=74, velocity=0, time=0),\n",
       "  Message('note_on', channel=0, note=69, velocity=110, time=2),\n",
       "  Message('note_on', channel=0, note=77, velocity=110, time=0),\n",
       "  Message('note_on', channel=0, note=69, velocity=0, time=94),\n",
       "  Message('note_on', channel=0, note=77, velocity=0, time=0),\n",
       "  Message('control_change', channel=0, control=64, value=0, time=2),\n",
       "  Message('control_change', channel=0, control=64, value=127, time=0),\n",
       "  Message('note_on', channel=0, note=70, velocity=110, time=0),\n",
       "  Message('note_on', channel=0, note=74, velocity=110, time=0),\n",
       "  Message('note_on', channel=0, note=79, velocity=110, time=0),\n",
       "  Message('note_on', channel=0, note=70, velocity=0, time=160),\n",
       "  Message('note_on', channel=0, note=74, velocity=0, time=0),\n",
       "  Message('note_on', channel=0, note=79, velocity=0, time=0),\n",
       "  Message('note_on', channel=0, note=70, velocity=110, time=32),\n",
       "  Message('note_on', channel=0, note=74, velocity=110, time=0),\n",
       "  Message('note_on', channel=0, note=79, velocity=110, time=0),\n",
       "  Message('note_on', channel=0, note=70, velocity=0, time=160),\n",
       "  Message('note_on', channel=0, note=74, velocity=0, time=0),\n",
       "  Message('note_on', channel=0, note=79, velocity=0, time=0),\n",
       "  Message('note_on', channel=0, note=74, velocity=110, time=32),\n",
       "  Message('note_on', channel=0, note=79, velocity=110, time=0),\n",
       "  Message('note_on', channel=0, note=74, velocity=0, time=94),\n",
       "  Message('note_on', channel=0, note=79, velocity=0, time=0),\n",
       "  Message('note_on', channel=0, note=74, velocity=110, time=2),\n",
       "  Message('note_on', channel=0, note=81, velocity=110, time=0),\n",
       "  Message('note_on', channel=0, note=74, velocity=0, time=94),\n",
       "  Message('note_on', channel=0, note=81, velocity=0, time=0),\n",
       "  Message('control_change', channel=0, control=64, value=0, time=2),\n",
       "  Message('control_change', channel=0, control=64, value=127, time=0),\n",
       "  Message('note_on', channel=0, note=74, velocity=110, time=0),\n",
       "  Message('note_on', channel=0, note=79, velocity=110, time=0),\n",
       "  Message('note_on', channel=0, note=82, velocity=110, time=0),\n",
       "  Message('note_on', channel=0, note=74, velocity=0, time=160),\n",
       "  Message('note_on', channel=0, note=79, velocity=0, time=0),\n",
       "  Message('note_on', channel=0, note=82, velocity=0, time=0),\n",
       "  Message('note_on', channel=0, note=74, velocity=110, time=32),\n",
       "  Message('note_on', channel=0, note=79, velocity=110, time=0),\n",
       "  Message('note_on', channel=0, note=82, velocity=110, time=0),\n",
       "  Message('note_on', channel=0, note=74, velocity=0, time=160),\n",
       "  Message('note_on', channel=0, note=79, velocity=0, time=0),\n",
       "  Message('note_on', channel=0, note=82, velocity=0, time=0),\n",
       "  Message('note_on', channel=0, note=77, velocity=110, time=32),\n",
       "  Message('note_on', channel=0, note=81, velocity=110, time=0),\n",
       "  Message('note_on', channel=0, note=77, velocity=0, time=94),\n",
       "  Message('note_on', channel=0, note=81, velocity=0, time=0),\n",
       "  Message('note_on', channel=0, note=76, velocity=110, time=2),\n",
       "  Message('note_on', channel=0, note=79, velocity=110, time=0),\n",
       "  Message('note_on', channel=0, note=76, velocity=0, time=94),\n",
       "  Message('note_on', channel=0, note=79, velocity=0, time=0),\n",
       "  Message('control_change', channel=0, control=64, value=0, time=2),\n",
       "  Message('control_change', channel=0, control=64, value=127, time=0),\n",
       "  Message('note_on', channel=0, note=77, velocity=110, time=0),\n",
       "  Message('note_on', channel=0, note=81, velocity=110, time=0),\n",
       "  Message('note_on', channel=0, note=77, velocity=0, time=94),\n",
       "  Message('note_on', channel=0, note=81, velocity=0, time=0),\n",
       "  Message('note_on', channel=0, note=74, velocity=110, time=2),\n",
       "  Message('note_on', channel=0, note=74, velocity=0, time=160),\n",
       "  Message('note_on', channel=0, note=74, velocity=110, time=128),\n",
       "  Message('note_on', channel=0, note=74, velocity=0, time=94),\n",
       "  Message('note_on', channel=0, note=76, velocity=110, time=2),\n",
       "  Message('note_on', channel=0, note=76, velocity=0, time=94),\n",
       "  Message('control_change', channel=0, control=64, value=0, time=2),\n",
       "  Message('control_change', channel=0, control=64, value=127, time=0),\n",
       "  Message('note_on', channel=0, note=70, velocity=110, time=0),\n",
       "  Message('note_on', channel=0, note=74, velocity=110, time=0),\n",
       "  Message('note_on', channel=0, note=77, velocity=110, time=0),\n",
       "  Message('note_on', channel=0, note=70, velocity=0, time=160),\n",
       "  Message('note_on', channel=0, note=74, velocity=0, time=0),\n",
       "  Message('note_on', channel=0, note=77, velocity=0, time=0),\n",
       "  Message('note_on', channel=0, note=70, velocity=110, time=32),\n",
       "  Message('note_on', channel=0, note=74, velocity=110, time=0),\n",
       "  Message('note_on', channel=0, note=77, velocity=110, time=0),\n",
       "  Message('note_on', channel=0, note=70, velocity=0, time=160),\n",
       "  Message('note_on', channel=0, note=74, velocity=0, time=0),\n",
       "  Message('note_on', channel=0, note=77, velocity=0, time=0),\n",
       "  Message('note_on', channel=0, note=70, velocity=110, time=32),\n",
       "  Message('note_on', channel=0, note=74, velocity=110, time=0),\n",
       "  Message('note_on', channel=0, note=79, velocity=110, time=0),\n",
       "  Message('note_on', channel=0, note=70, velocity=0, time=160),\n",
       "  Message('note_on', channel=0, note=74, velocity=0, time=0),\n",
       "  Message('note_on', channel=0, note=79, velocity=0, time=0),\n",
       "  Message('control_change', channel=0, control=64, value=0, time=32),\n",
       "  Message('control_change', channel=0, control=64, value=127, time=0),\n",
       "  Message('note_on', channel=0, note=77, velocity=110, time=0),\n",
       "  Message('note_on', channel=0, note=81, velocity=110, time=0),\n",
       "  Message('note_on', channel=0, note=77, velocity=0, time=94),\n",
       "  Message('note_on', channel=0, note=81, velocity=0, time=0),\n",
       "  Message('note_on', channel=0, note=74, velocity=110, time=2),\n",
       "  Message('note_on', channel=0, note=74, velocity=0, time=160),\n",
       "  Message('note_on', channel=0, note=74, velocity=110, time=128),\n",
       "  Message('note_on', channel=0, note=74, velocity=0, time=94),\n",
       "  Message('note_on', channel=0, note=77, velocity=110, time=2),\n",
       "  Message('note_on', channel=0, note=77, velocity=0, time=94),\n",
       "  Message('control_change', channel=0, control=64, value=0, time=2),\n",
       "  Message('control_change', channel=0, control=64, value=127, time=0),\n",
       "  Message('note_on', channel=0, note=69, velocity=110, time=0),\n",
       "  Message('note_on', channel=0, note=73, velocity=110, time=0),\n",
       "  Message('note_on', channel=0, note=76, velocity=110, time=0),\n",
       "  Message('note_on', channel=0, note=69, velocity=0, time=160),\n",
       "  Message('note_on', channel=0, note=73, velocity=0, time=0),\n",
       "  Message('note_on', channel=0, note=76, velocity=0, time=0),\n",
       "  Message('note_on', channel=0, note=69, velocity=110, time=32),\n",
       "  Message('note_on', channel=0, note=73, velocity=110, time=0),\n",
       "  Message('note_on', channel=0, note=76, velocity=110, time=0),\n",
       "  Message('note_on', channel=0, note=69, velocity=0, time=160),\n",
       "  Message('note_on', channel=0, note=73, velocity=0, time=0),\n",
       "  Message('note_on', channel=0, note=76, velocity=0, time=0),\n",
       "  Message('note_on', channel=0, note=74, velocity=110, time=32),\n",
       "  Message('note_on', channel=0, note=74, velocity=0, time=94),\n",
       "  Message('note_on', channel=0, note=73, velocity=110, time=2),\n",
       "  Message('note_on', channel=0, note=73, velocity=0, time=94),\n",
       "  Message('control_change', channel=0, control=64, value=0, time=2),\n",
       "  Message('control_change', channel=0, control=64, value=127, time=0),\n",
       "  Message('note_on', channel=0, note=69, velocity=110, time=0),\n",
       "  Message('note_on', channel=0, note=74, velocity=110, time=0),\n",
       "  Message('note_on', channel=0, note=69, velocity=0, time=160),\n",
       "  Message('note_on', channel=0, note=74, velocity=0, time=0),\n",
       "  Message('note_on', channel=0, note=69, velocity=110, time=32),\n",
       "  Message('note_on', channel=0, note=74, velocity=110, time=0),\n",
       "  Message('note_on', channel=0, note=69, velocity=0, time=160),\n",
       "  Message('note_on', channel=0, note=74, velocity=0, time=0),\n",
       "  Message('control_change', channel=0, control=64, value=0, time=32),\n",
       "  Message('control_change', channel=0, control=64, value=127, time=0),\n",
       "  Message('note_on', channel=0, note=69, velocity=110, time=0),\n",
       "  Message('note_on', channel=0, note=72, velocity=110, time=0),\n",
       "  Message('note_on', channel=0, note=76, velocity=110, time=0),\n",
       "  Message('note_on', channel=0, note=69, velocity=0, time=160),\n",
       "  Message('note_on', channel=0, note=72, velocity=0, time=0),\n",
       "  Message('note_on', channel=0, note=76, velocity=0, time=0),\n",
       "  Message('control_change', channel=0, control=64, value=0, time=32),\n",
       "  Message('control_change', channel=0, control=64, value=127, time=0),\n",
       "  Message('note_on', channel=0, note=72, velocity=110, time=0),\n",
       "  Message('note_on', channel=0, note=74, velocity=110, time=0),\n",
       "  Message('note_on', channel=0, note=77, velocity=110, time=0),\n",
       "  Message('note_on', channel=0, note=72, velocity=0, time=160),\n",
       "  Message('note_on', channel=0, note=74, velocity=0, time=0),\n",
       "  Message('note_on', channel=0, note=77, velocity=0, time=0),\n",
       "  Message('note_on', channel=0, note=77, velocity=110, time=32),\n",
       "  Message('note_on', channel=0, note=77, velocity=0, time=94),\n",
       "  Message('note_on', channel=0, note=77, velocity=110, time=2),\n",
       "  Message('note_on', channel=0, note=77, velocity=0, time=94),\n",
       "  Message('control_change', channel=0, control=64, value=0, time=2),\n",
       "  Message('control_change', channel=0, control=64, value=127, time=0),\n",
       "  Message('note_on', channel=0, note=70, velocity=110, time=0),\n",
       "  Message('note_on', channel=0, note=74, velocity=110, time=0),\n",
       "  Message('note_on', channel=0, note=79, velocity=110, time=0),\n",
       "  Message('note_on', channel=0, note=70, velocity=0, time=160),\n",
       "  Message('note_on', channel=0, note=74, velocity=0, time=0),\n",
       "  Message('note_on', channel=0, note=79, velocity=0, time=0),\n",
       "  Message('control_change', channel=0, control=64, value=0, time=32),\n",
       "  Message('control_change', channel=0, control=64, value=127, time=0),\n",
       "  Message('note_on', channel=0, note=74, velocity=110, time=0),\n",
       "  Message('note_on', channel=0, note=81, velocity=110, time=0),\n",
       "  Message('note_on', channel=0, note=74, velocity=0, time=94),\n",
       "  Message('note_on', channel=0, note=81, velocity=0, time=0),\n",
       "  Message('note_on', channel=0, note=77, velocity=110, time=2),\n",
       "  Message('note_on', channel=0, note=77, velocity=0, time=94),\n",
       "  Message('note_on', channel=0, note=69, velocity=110, time=194),\n",
       "  Message('note_on', channel=0, note=77, velocity=110, time=0),\n",
       "  Message('note_on', channel=0, note=69, velocity=0, time=94),\n",
       "  Message('note_on', channel=0, note=77, velocity=0, time=0),\n",
       "  Message('note_on', channel=0, note=69, velocity=110, time=2),\n",
       "  Message('note_on', channel=0, note=74, velocity=110, time=0),\n",
       "  Message('note_on', channel=0, note=69, velocity=0, time=94),\n",
       "  Message('note_on', channel=0, note=74, velocity=0, time=0),\n",
       "  Message('note_on', channel=0, note=69, velocity=110, time=2),\n",
       "  Message('note_on', channel=0, note=69, velocity=0, time=94),\n",
       "  Message('control_change', channel=0, control=64, value=0, time=482),\n",
       "  Message('control_change', channel=0, control=64, value=127, time=0),\n",
       "  Message('note_on', channel=0, note=74, velocity=110, time=0),\n",
       "  Message('note_on', channel=0, note=79, velocity=110, time=0),\n",
       "  Message('note_on', channel=0, note=82, velocity=110, time=0),\n",
       "  Message('note_on', channel=0, note=74, velocity=0, time=94),\n",
       "  Message('note_on', channel=0, note=79, velocity=0, time=0),\n",
       "  Message('note_on', channel=0, note=82, velocity=0, time=0),\n",
       "  Message('note_on', channel=0, note=70, velocity=110, time=290),\n",
       "  Message('note_on', channel=0, note=79, velocity=110, time=0),\n",
       "  Message('note_on', channel=0, note=70, velocity=0, time=94),\n",
       "  Message('note_on', channel=0, note=79, velocity=0, time=0),\n",
       "  Message('note_on', channel=0, note=70, velocity=110, time=2),\n",
       "  Message('note_on', channel=0, note=74, velocity=110, time=0),\n",
       "  Message('note_on', channel=0, note=70, velocity=0, time=94),\n",
       "  Message('note_on', channel=0, note=74, velocity=0, time=0),\n",
       "  Message('note_on', channel=0, note=70, velocity=110, time=2),\n",
       "  Message('note_on', channel=0, note=70, velocity=0, time=94),\n",
       "  Message('control_change', channel=0, control=64, value=0, time=482),\n",
       "  Message('control_change', channel=0, control=64, value=127, time=0),\n",
       "  Message('note_on', channel=0, note=61, velocity=110, time=0),\n",
       "  Message('note_on', channel=0, note=64, velocity=110, time=0),\n",
       "  Message('note_on', channel=0, note=61, velocity=0, time=94),\n",
       "  Message('note_on', channel=0, note=64, velocity=0, time=0),\n",
       "  Message('note_on', channel=0, note=61, velocity=110, time=2),\n",
       "  Message('note_on', channel=0, note=64, velocity=110, time=0),\n",
       "  Message('note_on', channel=0, note=61, velocity=0, time=160),\n",
       "  Message('note_on', channel=0, note=64, velocity=0, time=0),\n",
       "  Message('note_on', channel=0, note=55, velocity=110, time=32),\n",
       "  Message('note_on', channel=0, note=62, velocity=110, time=0),\n",
       "  Message('note_on', channel=0, note=55, velocity=0, time=256),\n",
       "  Message('note_on', channel=0, note=62, velocity=0, time=0),\n",
       "  Message('control_change', channel=0, control=64, value=0, time=32),\n",
       "  Message('control_change', channel=0, control=64, value=127, time=0),\n",
       "  Message('note_on', channel=0, note=57, velocity=110, time=0),\n",
       "  Message('note_on', channel=0, note=61, velocity=110, time=0),\n",
       "  Message('note_on', channel=0, note=65, velocity=110, time=0),\n",
       "  Message('note_on', channel=0, note=57, velocity=0, time=256),\n",
       "  Message('note_on', channel=0, note=61, velocity=0, time=0),\n",
       "  Message('note_on', channel=0, note=65, velocity=0, time=0),\n",
       "  Message('note_on', channel=0, note=65, velocity=110, time=128),\n",
       "  Message('note_on', channel=0, note=65, velocity=0, time=94),\n",
       "  Message('note_on', channel=0, note=67, velocity=110, time=2),\n",
       "  Message('note_on', channel=0, note=67, velocity=0, time=94),\n",
       "  Message('control_change', channel=0, control=64, value=0, time=2),\n",
       "  Message('control_change', channel=0, control=64, value=127, time=0),\n",
       "  Message('note_on', channel=0, note=62, velocity=110, time=0),\n",
       "  Message('note_on', channel=0, note=65, velocity=110, time=0),\n",
       "  Message('note_on', channel=0, note=69, velocity=110, time=0),\n",
       "  Message('note_on', channel=0, note=62, velocity=0, time=160),\n",
       "  Message('note_on', channel=0, note=65, velocity=0, time=0),\n",
       "  Message('note_on', channel=0, note=69, velocity=0, time=0),\n",
       "  Message('note_on', channel=0, note=62, velocity=110, time=32),\n",
       "  Message('note_on', channel=0, note=65, velocity=110, time=0),\n",
       "  Message('note_on', channel=0, note=69, velocity=110, time=0),\n",
       "  Message('note_on', channel=0, note=62, velocity=0, time=160),\n",
       "  Message('note_on', channel=0, note=65, velocity=0, time=0),\n",
       "  Message('note_on', channel=0, note=69, velocity=0, time=0),\n",
       "  Message('note_on', channel=0, note=62, velocity=110, time=32),\n",
       "  Message('note_on', channel=0, note=65, velocity=110, time=0),\n",
       "  Message('note_on', channel=0, note=69, velocity=110, time=0),\n",
       "  Message('note_on', channel=0, note=62, velocity=0, time=160),\n",
       "  Message('note_on', channel=0, note=65, velocity=0, time=0),\n",
       "  Message('note_on', channel=0, note=69, velocity=0, time=0),\n",
       "  Message('note_on', channel=0, note=62, velocity=110, time=32),\n",
       "  Message('note_on', channel=0, note=65, velocity=110, time=0),\n",
       "  Message('note_on', channel=0, note=70, velocity=110, time=0),\n",
       "  Message('note_on', channel=0, note=62, velocity=0, time=94),\n",
       "  Message('note_on', channel=0, note=65, velocity=0, time=0),\n",
       "  Message('note_on', channel=0, note=70, velocity=0, time=0),\n",
       "  Message('control_change', channel=0, control=64, value=0, time=2),\n",
       "  Message('control_change', channel=0, control=64, value=127, time=0),\n",
       "  Message('note_on', channel=0, note=62, velocity=110, time=0),\n",
       "  Message('note_on', channel=0, note=65, velocity=110, time=0),\n",
       "  Message('note_on', channel=0, note=69, velocity=110, time=0),\n",
       "  Message('note_on', channel=0, note=62, velocity=0, time=94),\n",
       "  Message('note_on', channel=0, note=65, velocity=0, time=0),\n",
       "  Message('note_on', channel=0, note=69, velocity=0, time=0),\n",
       "  Message('control_change', channel=0, control=64, value=0, time=386),\n",
       "  Message('control_change', channel=0, control=64, value=127, time=0),\n",
       "  Message('note_on', channel=0, note=60, velocity=110, time=0),\n",
       "  Message('note_on', channel=0, note=64, velocity=110, time=0),\n",
       "  Message('note_on', channel=0, note=67, velocity=110, time=0),\n",
       "  Message('note_on', channel=0, note=60, velocity=0, time=160),\n",
       "  Message('note_on', channel=0, note=64, velocity=0, time=0),\n",
       "  Message('note_on', channel=0, note=67, velocity=0, time=0),\n",
       "  Message('note_on', channel=0, note=60, velocity=110, time=32),\n",
       "  Message('note_on', channel=0, note=64, velocity=110, time=0),\n",
       "  Message('note_on', channel=0, note=67, velocity=110, time=0),\n",
       "  Message('note_on', channel=0, note=60, velocity=0, time=160),\n",
       "  Message('note_on', channel=0, note=64, velocity=0, time=0),\n",
       "  Message('note_on', channel=0, note=67, velocity=0, time=0),\n",
       "  Message('note_on', channel=0, note=60, velocity=110, time=32),\n",
       "  Message('note_on', channel=0, note=64, velocity=110, time=0),\n",
       "  Message('note_on', channel=0, note=67, velocity=110, time=0),\n",
       "  Message('note_on', channel=0, note=60, velocity=0, time=160),\n",
       "  Message('note_on', channel=0, note=64, velocity=0, time=0),\n",
       "  Message('note_on', channel=0, note=67, velocity=0, time=0),\n",
       "  Message('note_on', channel=0, note=60, velocity=110, time=32),\n",
       "  Message('note_on', channel=0, note=64, velocity=110, time=0),\n",
       "  Message('note_on', channel=0, note=67, velocity=110, time=0),\n",
       "  Message('note_on', channel=0, note=60, velocity=0, time=94),\n",
       "  Message('note_on', channel=0, note=64, velocity=0, time=0),\n",
       "  Message('note_on', channel=0, note=67, velocity=0, time=0),\n",
       "  Message('control_change', channel=0, control=64, value=0, time=2),\n",
       "  Message('control_change', channel=0, control=64, value=127, time=0),\n",
       "  Message('note_on', channel=0, note=60, velocity=110, time=0),\n",
       "  Message('note_on', channel=0, note=65, velocity=110, time=0),\n",
       "  Message('note_on', channel=0, note=69, velocity=110, time=0),\n",
       "  Message('note_on', channel=0, note=60, velocity=0, time=94),\n",
       "  Message('note_on', channel=0, note=65, velocity=0, time=0),\n",
       "  Message('note_on', channel=0, note=69, velocity=0, time=0),\n",
       "  Message('control_change', channel=0, control=64, value=0, time=386),\n",
       "  Message('control_change', channel=0, control=64, value=127, time=0),\n",
       "  Message('note_on', channel=0, note=62, velocity=110, time=0),\n",
       "  Message('note_on', channel=0, note=65, velocity=110, time=0),\n",
       "  Message('note_on', channel=0, note=69, velocity=110, time=0),\n",
       "  Message('note_on', channel=0, note=62, velocity=0, time=160),\n",
       "  Message('note_on', channel=0, note=65, velocity=0, time=0),\n",
       "  Message('note_on', channel=0, note=69, velocity=0, time=0),\n",
       "  Message('note_on', channel=0, note=62, velocity=110, time=32),\n",
       "  Message('note_on', channel=0, note=65, velocity=110, time=0),\n",
       "  Message('note_on', channel=0, note=69, velocity=110, time=0),\n",
       "  Message('note_on', channel=0, note=62, velocity=0, time=160),\n",
       "  Message('note_on', channel=0, note=65, velocity=0, time=0),\n",
       "  Message('note_on', channel=0, note=69, velocity=0, time=0),\n",
       "  Message('note_on', channel=0, note=62, velocity=110, time=32),\n",
       "  Message('note_on', channel=0, note=65, velocity=110, time=0),\n",
       "  Message('note_on', channel=0, note=69, velocity=110, time=0),\n",
       "  Message('note_on', channel=0, note=62, velocity=0, time=160),\n",
       "  Message('note_on', channel=0, note=65, velocity=0, time=0),\n",
       "  Message('note_on', channel=0, note=69, velocity=0, time=0),\n",
       "  Message('note_on', channel=0, note=62, velocity=110, time=32),\n",
       "  Message('note_on', channel=0, note=65, velocity=110, time=0),\n",
       "  Message('note_on', channel=0, note=70, velocity=110, time=0),\n",
       "  Message('note_on', channel=0, note=62, velocity=0, time=94),\n",
       "  Message('note_on', channel=0, note=65, velocity=0, time=0),\n",
       "  Message('note_on', channel=0, note=70, velocity=0, time=0),\n",
       "  Message('control_change', channel=0, control=64, value=0, time=2),\n",
       "  Message('control_change', channel=0, control=64, value=127, time=0),\n",
       "  Message('note_on', channel=0, note=62, velocity=110, time=0),\n",
       "  Message('note_on', channel=0, note=65, velocity=110, time=0),\n",
       "  Message('note_on', channel=0, note=69, velocity=110, time=0),\n",
       "  Message('note_on', channel=0, note=62, velocity=0, time=94),\n",
       "  Message('note_on', channel=0, note=65, velocity=0, time=0),\n",
       "  Message('note_on', channel=0, note=69, velocity=0, time=0),\n",
       "  Message('control_change', channel=0, control=64, value=0, time=386),\n",
       "  Message('control_change', channel=0, control=64, value=127, time=0),\n",
       "  Message('note_on', channel=0, note=61, velocity=110, time=0),\n",
       "  Message('note_on', channel=0, note=64, velocity=110, time=0),\n",
       "  Message('note_on', channel=0, note=67, velocity=110, time=0),\n",
       "  Message('note_on', channel=0, note=61, velocity=0, time=160),\n",
       "  Message('note_on', channel=0, note=64, velocity=0, time=0),\n",
       "  Message('note_on', channel=0, note=67, velocity=0, time=0),\n",
       "  Message('note_on', channel=0, note=61, velocity=110, time=32),\n",
       "  Message('note_on', channel=0, note=65, velocity=110, time=0),\n",
       "  Message('note_on', channel=0, note=61, velocity=0, time=160),\n",
       "  Message('note_on', channel=0, note=65, velocity=0, time=0),\n",
       "  Message('note_on', channel=0, note=57, velocity=110, time=32),\n",
       "  Message('note_on', channel=0, note=64, velocity=110, time=0),\n",
       "  Message('note_on', channel=0, note=57, velocity=0, time=160),\n",
       "  Message('note_on', channel=0, note=64, velocity=0, time=0),\n",
       "  Message('control_change', channel=0, control=64, value=0, time=32),\n",
       "  Message('control_change', channel=0, control=64, value=127, time=0),\n",
       "  Message('note_on', channel=0, note=53, velocity=110, time=0),\n",
       "  Message('note_on', channel=0, note=57, velocity=110, time=0),\n",
       "  Message('note_on', channel=0, note=62, velocity=110, time=0),\n",
       "  Message('note_on', channel=0, note=53, velocity=0, time=160),\n",
       "  Message('note_on', channel=0, note=57, velocity=0, time=0),\n",
       "  Message('note_on', channel=0, note=62, velocity=0, time=0),\n",
       "  Message('note_on', channel=0, note=62, velocity=110, time=224),\n",
       "  Message('note_on', channel=0, note=62, velocity=0, time=94),\n",
       "  Message('note_on', channel=0, note=64, velocity=110, time=2),\n",
       "  Message('note_on', channel=0, note=64, velocity=0, time=94),\n",
       "  Message('control_change', channel=0, control=64, value=0, time=2),\n",
       "  Message('control_change', channel=0, control=64, value=127, time=0),\n",
       "  Message('note_on', channel=0, note=57, velocity=110, time=0),\n",
       "  Message('note_on', channel=0, note=62, velocity=110, time=0),\n",
       "  Message('note_on', channel=0, note=65, velocity=110, time=0),\n",
       "  Message('note_on', channel=0, note=57, velocity=0, time=336),\n",
       "  Message('note_on', channel=0, note=62, velocity=0, time=0),\n",
       "  Message('note_on', channel=0, note=65, velocity=0, time=0),\n",
       "  Message('note_on', channel=0, note=67, velocity=110, time=48),\n",
       "  Message('note_on', channel=0, note=67, velocity=0, time=94),\n",
       "  Message('note_on', channel=0, note=69, velocity=110, time=2),\n",
       "  Message('note_on', channel=0, note=69, velocity=0, time=94),\n",
       "  Message('control_change', channel=0, control=64, value=0, time=2),\n",
       "  Message('control_change', channel=0, control=64, value=127, time=0),\n",
       "  Message('note_on', channel=0, note=60, velocity=110, time=0),\n",
       "  Message('note_on', channel=0, note=67, velocity=110, time=0),\n",
       "  Message('note_on', channel=0, note=60, velocity=0, time=160),\n",
       "  Message('note_on', channel=0, note=67, velocity=0, time=0),\n",
       "  Message('note_on', channel=0, note=60, velocity=110, time=32),\n",
       "  Message('note_on', channel=0, note=65, velocity=110, time=0),\n",
       "  Message('note_on', channel=0, note=60, velocity=0, time=160),\n",
       "  Message('note_on', channel=0, note=65, velocity=0, time=0),\n",
       "  Message('note_on', channel=0, note=60, velocity=110, time=32),\n",
       "  Message('note_on', channel=0, note=64, velocity=110, time=0),\n",
       "  Message('note_on', channel=0, note=60, velocity=0, time=160),\n",
       "  Message('note_on', channel=0, note=64, velocity=0, time=0),\n",
       "  Message('control_change', channel=0, control=64, value=0, time=32),\n",
       "  Message('control_change', channel=0, control=64, value=127, time=0),\n",
       "  Message('note_on', channel=0, note=57, velocity=110, time=0),\n",
       "  Message('note_on', channel=0, note=60, velocity=110, time=0),\n",
       "  Message('note_on', channel=0, note=65, velocity=110, time=0),\n",
       "  Message('note_on', channel=0, note=57, velocity=0, time=160),\n",
       "  Message('note_on', channel=0, note=60, velocity=0, time=0),\n",
       "  Message('note_on', channel=0, note=65, velocity=0, time=0),\n",
       "  Message('note_on', channel=0, note=57, velocity=110, time=32),\n",
       "  Message('note_on', channel=0, note=60, velocity=110, time=0),\n",
       "  Message('note_on', channel=0, note=67, velocity=110, time=0),\n",
       "  Message('note_on', channel=0, note=57, velocity=0, time=160),\n",
       "  Message('note_on', channel=0, note=60, velocity=0, time=0),\n",
       "  Message('note_on', channel=0, note=67, velocity=0, time=0),\n",
       "  Message('note_on', channel=0, note=57, velocity=110, time=32),\n",
       "  Message('note_on', channel=0, note=60, velocity=110, time=0),\n",
       "  Message('note_on', channel=0, note=69, velocity=110, time=0),\n",
       "  Message('note_on', channel=0, note=57, velocity=0, time=160),\n",
       "  Message('note_on', channel=0, note=60, velocity=0, time=0),\n",
       "  Message('note_on', channel=0, note=69, velocity=0, time=0),\n",
       "  Message('control_change', channel=0, control=64, value=0, time=32),\n",
       "  Message('control_change', channel=0, control=64, value=127, time=0),\n",
       "  Message('note_on', channel=0, note=60, velocity=110, time=0),\n",
       "  Message('note_on', channel=0, note=64, velocity=110, time=0),\n",
       "  Message('note_on', channel=0, note=67, velocity=110, time=0),\n",
       "  Message('note_on', channel=0, note=60, velocity=0, time=160),\n",
       "  Message('note_on', channel=0, note=64, velocity=0, time=0),\n",
       "  Message('note_on', channel=0, note=67, velocity=0, time=0),\n",
       "  Message('note_on', channel=0, note=65, velocity=110, time=224),\n",
       "  Message('note_on', channel=0, note=65, velocity=0, time=94),\n",
       "  Message('note_on', channel=0, note=67, velocity=110, time=2),\n",
       "  Message('note_on', channel=0, note=67, velocity=0, time=94),\n",
       "  Message('control_change', channel=0, control=64, value=0, time=2),\n",
       "  Message('control_change', channel=0, control=64, value=127, time=0),\n",
       "  Message('note_on', channel=0, note=60, velocity=110, time=0),\n",
       "  Message('note_on', channel=0, note=65, velocity=110, time=0),\n",
       "  Message('note_on', channel=0, note=69, velocity=110, time=0),\n",
       "  Message('note_on', channel=0, note=60, velocity=0, time=160),\n",
       "  Message('note_on', channel=0, note=65, velocity=0, time=0),\n",
       "  Message('note_on', channel=0, note=69, velocity=0, time=0),\n",
       "  Message('note_on', channel=0, note=67, velocity=110, time=224),\n",
       "  Message('note_on', channel=0, note=67, velocity=0, time=94),\n",
       "  Message('note_on', channel=0, note=65, velocity=110, time=2),\n",
       "  Message('note_on', channel=0, note=65, velocity=0, time=94),\n",
       "  Message('control_change', channel=0, control=64, value=0, time=2),\n",
       "  Message('control_change', channel=0, control=64, value=127, time=0),\n",
       "  Message('note_on', channel=0, note=61, velocity=110, time=0),\n",
       "  Message('note_on', channel=0, note=64, velocity=110, time=0),\n",
       "  Message('note_on', channel=0, note=61, velocity=0, time=160),\n",
       "  Message('note_on', channel=0, note=64, velocity=0, time=0),\n",
       "  Message('note_on', channel=0, note=61, velocity=110, time=32),\n",
       "  Message('note_on', channel=0, note=65, velocity=110, time=0),\n",
       "  Message('note_on', channel=0, note=61, velocity=0, time=160),\n",
       "  Message('note_on', channel=0, note=65, velocity=0, time=0),\n",
       "  Message('note_on', channel=0, note=61, velocity=110, time=32),\n",
       "  Message('note_on', channel=0, note=64, velocity=110, time=0),\n",
       "  Message('note_on', channel=0, note=61, velocity=0, time=160),\n",
       "  Message('note_on', channel=0, note=64, velocity=0, time=0),\n",
       "  Message('control_change', channel=0, control=64, value=0, time=32),\n",
       "  Message('control_change', channel=0, control=64, value=127, time=0),\n",
       "  Message('note_on', channel=0, note=53, velocity=110, time=0),\n",
       "  Message('note_on', channel=0, note=57, velocity=110, time=0),\n",
       "  Message('note_on', channel=0, note=62, velocity=110, time=0),\n",
       "  Message('note_on', channel=0, note=53, velocity=0, time=160),\n",
       "  Message('note_on', channel=0, note=57, velocity=0, time=0),\n",
       "  Message('note_on', channel=0, note=62, velocity=0, time=0),\n",
       "  Message('note_on', channel=0, note=64, velocity=110, time=224),\n",
       "  Message('note_on', channel=0, note=64, velocity=0, time=94),\n",
       "  Message('note_on', channel=0, note=60, velocity=110, time=2),\n",
       "  Message('note_on', channel=0, note=60, velocity=0, time=94),\n",
       "  Message('control_change', channel=0, control=64, value=0, time=2),\n",
       "  Message('control_change', channel=0, control=64, value=127, time=0),\n",
       "  Message('note_on', channel=0, note=53, velocity=110, time=0),\n",
       "  Message('note_on', channel=0, note=57, velocity=110, time=0),\n",
       "  Message('note_on', channel=0, note=62, velocity=110, time=0),\n",
       "  Message('note_on', channel=0, note=53, velocity=0, time=94),\n",
       "  Message('note_on', channel=0, note=57, velocity=0, time=0),\n",
       "  Message('note_on', channel=0, note=62, velocity=0, time=0),\n",
       "  Message('note_on', channel=0, note=74, velocity=110, time=290),\n",
       "  Message('note_on', channel=0, note=74, velocity=0, time=94),\n",
       "  Message('note_on', channel=0, note=76, velocity=110, time=2),\n",
       "  Message('note_on', channel=0, note=76, velocity=0, time=94),\n",
       "  Message('control_change', channel=0, control=64, value=0, time=2),\n",
       "  Message('control_change', channel=0, control=64, value=127, time=0),\n",
       "  Message('note_on', channel=0, note=69, velocity=110, time=0),\n",
       "  Message('note_on', channel=0, note=74, velocity=110, time=0),\n",
       "  Message('note_on', channel=0, note=77, velocity=110, time=0),\n",
       "  Message('note_on', channel=0, note=69, velocity=0, time=160),\n",
       "  Message('note_on', channel=0, note=74, velocity=0, time=0),\n",
       "  Message('note_on', channel=0, note=77, velocity=0, time=0),\n",
       "  Message('note_on', channel=0, note=76, velocity=110, time=224),\n",
       "  Message('note_on', channel=0, note=76, velocity=0, time=94),\n",
       "  Message('note_on', channel=0, note=77, velocity=110, time=2),\n",
       "  Message('note_on', channel=0, note=77, velocity=0, time=94),\n",
       "  Message('control_change', channel=0, control=64, value=0, time=2),\n",
       "  Message('control_change', channel=0, control=64, value=127, time=0),\n",
       "  Message('note_on', channel=0, note=72, velocity=110, time=0),\n",
       "  Message('note_on', channel=0, note=79, velocity=110, time=0),\n",
       "  Message('note_on', channel=0, note=72, velocity=0, time=160),\n",
       "  Message('note_on', channel=0, note=79, velocity=0, time=0),\n",
       "  Message('note_on', channel=0, note=72, velocity=110, time=32),\n",
       "  Message('note_on', channel=0, note=77, velocity=110, time=0),\n",
       "  Message('note_on', channel=0, note=72, velocity=0, time=160),\n",
       "  Message('note_on', channel=0, note=77, velocity=0, time=0),\n",
       "  Message('note_on', channel=0, note=72, velocity=110, time=32),\n",
       "  Message('note_on', channel=0, note=79, velocity=110, time=0),\n",
       "  Message('note_on', channel=0, note=72, velocity=0, time=160),\n",
       "  Message('note_on', channel=0, note=79, velocity=0, time=0),\n",
       "  Message('control_change', channel=0, control=64, value=0, time=32),\n",
       "  Message('control_change', channel=0, control=64, value=127, time=0),\n",
       "  Message('note_on', channel=0, note=77, velocity=110, time=0),\n",
       "  Message('note_on', channel=0, note=81, velocity=110, time=0),\n",
       "  Message('note_on', channel=0, note=77, velocity=0, time=160),\n",
       "  Message('note_on', channel=0, note=81, velocity=0, time=0),\n",
       "  Message('note_on', channel=0, note=72, velocity=110, time=32),\n",
       "  Message('note_on', channel=0, note=79, velocity=110, time=0),\n",
       "  Message('note_on', channel=0, note=72, velocity=0, time=160),\n",
       "  Message('note_on', channel=0, note=79, velocity=0, time=0),\n",
       "  Message('note_on', channel=0, note=72, velocity=110, time=32),\n",
       "  Message('note_on', channel=0, note=77, velocity=110, time=0),\n",
       "  Message('note_on', channel=0, note=72, velocity=0, time=160),\n",
       "  Message('note_on', channel=0, note=77, velocity=0, time=0),\n",
       "  Message('control_change', channel=0, control=64, value=0, time=32),\n",
       "  Message('control_change', channel=0, control=64, value=127, time=0),\n",
       "  Message('note_on', channel=0, note=65, velocity=110, time=0),\n",
       "  Message('note_on', channel=0, note=70, velocity=110, time=0),\n",
       "  Message('note_on', channel=0, note=74, velocity=110, time=0),\n",
       "  Message('note_on', channel=0, note=65, velocity=0, time=160),\n",
       "  Message('note_on', channel=0, note=70, velocity=0, time=0),\n",
       "  Message('note_on', channel=0, note=74, velocity=0, time=0),\n",
       "  Message('note_on', channel=0, note=74, velocity=110, time=224),\n",
       "  Message('note_on', channel=0, note=74, velocity=0, time=94),\n",
       "  Message('note_on', channel=0, note=76, velocity=110, time=2),\n",
       "  Message('note_on', channel=0, note=76, velocity=0, time=94),\n",
       "  Message('control_change', channel=0, control=64, value=0, time=2),\n",
       "  Message('control_change', channel=0, control=64, value=127, time=0),\n",
       "  Message('note_on', channel=0, note=69, velocity=110, time=0),\n",
       "  Message('note_on', channel=0, note=74, velocity=110, time=0),\n",
       "  Message('note_on', channel=0, note=77, velocity=110, time=0),\n",
       "  Message('note_on', channel=0, note=69, velocity=0, time=160),\n",
       "  Message('note_on', channel=0, note=74, velocity=0, time=0),\n",
       "  Message('note_on', channel=0, note=77, velocity=0, time=0),\n",
       "  Message('note_on', channel=0, note=69, velocity=110, time=32),\n",
       "  Message('note_on', channel=0, note=74, velocity=110, time=0),\n",
       "  Message('note_on', channel=0, note=79, velocity=110, time=0),\n",
       "  Message('note_on', channel=0, note=69, velocity=0, time=160),\n",
       "  Message('note_on', channel=0, note=74, velocity=0, time=0),\n",
       "  Message('note_on', channel=0, note=79, velocity=0, time=0),\n",
       "  Message('note_on', channel=0, note=74, velocity=110, time=32),\n",
       "  Message('note_on', channel=0, note=81, velocity=110, time=0),\n",
       "  Message('note_on', channel=0, note=74, velocity=0, time=160),\n",
       "  Message('note_on', channel=0, note=81, velocity=0, time=0),\n",
       "  Message('control_change', channel=0, control=64, value=0, time=32),\n",
       "  Message('control_change', channel=0, control=64, value=127, time=0),\n",
       "  Message('note_on', channel=0, note=70, velocity=110, time=0),\n",
       "  Message('note_on', channel=0, note=74, velocity=110, time=0),\n",
       "  Message('note_on', channel=0, note=82, velocity=110, time=0),\n",
       "  Message('note_on', channel=0, note=70, velocity=0, time=160),\n",
       "  Message('note_on', channel=0, note=74, velocity=0, time=0),\n",
       "  Message('note_on', channel=0, note=82, velocity=0, time=0),\n",
       "  Message('note_on', channel=0, note=70, velocity=110, time=32),\n",
       "  Message('note_on', channel=0, note=74, velocity=110, time=0),\n",
       "  Message('note_on', channel=0, note=70, velocity=0, time=160),\n",
       "  Message('note_on', channel=0, note=74, velocity=0, time=0),\n",
       "  Message('note_on', channel=0, note=70, velocity=110, time=32),\n",
       "  Message('note_on', channel=0, note=79, velocity=110, time=0),\n",
       "  Message('note_on', channel=0, note=70, velocity=0, time=160),\n",
       "  Message('note_on', channel=0, note=79, velocity=0, time=0),\n",
       "  Message('control_change', channel=0, control=64, value=0, time=32),\n",
       "  Message('control_change', channel=0, control=64, value=127, time=0),\n",
       "  Message('note_on', channel=0, note=69, velocity=110, time=0),\n",
       "  Message('note_on', channel=0, note=77, velocity=110, time=0),\n",
       "  Message('note_on', channel=0, note=69, velocity=0, time=160),\n",
       "  Message('note_on', channel=0, note=77, velocity=0, time=0),\n",
       "  Message('note_on', channel=0, note=79, velocity=110, time=224),\n",
       "  Message('note_on', channel=0, note=79, velocity=0, time=94),\n",
       "  Message('note_on', channel=0, note=76, velocity=110, time=2),\n",
       "  Message('note_on', channel=0, note=76, velocity=0, time=94),\n",
       "  Message('control_change', channel=0, control=64, value=0, time=2),\n",
       "  Message('control_change', channel=0, control=64, value=127, time=0),\n",
       "  Message('note_on', channel=0, note=69, velocity=110, time=0),\n",
       "  Message('note_on', channel=0, note=74, velocity=110, time=0),\n",
       "  Message('note_on', channel=0, note=69, velocity=0, time=160),\n",
       "  Message('note_on', channel=0, note=74, velocity=0, time=0),\n",
       "  Message('note_on', channel=0, note=76, velocity=110, time=224),\n",
       "  Message('note_on', channel=0, note=76, velocity=0, time=94),\n",
       "  Message('note_on', channel=0, note=73, velocity=110, time=2),\n",
       "  Message('note_on', channel=0, note=73, velocity=0, time=94),\n",
       "  Message('control_change', channel=0, control=64, value=0, time=2),\n",
       "  Message('control_change', channel=0, control=64, value=127, time=0),\n",
       "  Message('note_on', channel=0, note=74, velocity=110, time=0),\n",
       "  Message('note_on', channel=0, note=77, velocity=110, time=0),\n",
       "  Message('note_on', channel=0, note=81, velocity=110, time=0),\n",
       "  Message('note_on', channel=0, note=74, velocity=0, time=160),\n",
       "  Message('note_on', channel=0, note=77, velocity=0, time=0),\n",
       "  Message('note_on', channel=0, note=81, velocity=0, time=0),\n",
       "  Message('control_change', channel=0, control=64, value=0, time=416),\n",
       "  Message('control_change', channel=0, control=64, value=127, time=0),\n",
       "  Message('note_on', channel=0, note=74, velocity=110, time=0),\n",
       "  Message('note_on', channel=0, note=79, velocity=110, time=0),\n",
       "  Message('note_on', channel=0, note=82, velocity=110, time=0),\n",
       "  Message('note_on', channel=0, note=74, velocity=0, time=160),\n",
       "  Message('note_on', channel=0, note=79, velocity=0, time=0),\n",
       "  Message('note_on', channel=0, note=82, velocity=0, time=0),\n",
       "  Message('control_change', channel=0, control=64, value=0, time=416),\n",
       "  Message('control_change', channel=0, control=64, value=127, time=0),\n",
       "  Message('note_on', channel=0, note=72, velocity=110, time=0),\n",
       "  Message('note_on', channel=0, note=77, velocity=110, time=0),\n",
       "  Message('note_on', channel=0, note=81, velocity=110, time=0),\n",
       "  Message('note_on', channel=0, note=72, velocity=0, time=160),\n",
       "  Message('note_on', channel=0, note=77, velocity=0, time=0),\n",
       "  Message('note_on', channel=0, note=81, velocity=0, time=0),\n",
       "  Message('note_on', channel=0, note=72, velocity=110, time=32),\n",
       "  Message('note_on', channel=0, note=77, velocity=110, time=0),\n",
       "  Message('note_on', channel=0, note=81, velocity=110, time=0),\n",
       "  Message('note_on', channel=0, note=72, velocity=0, time=160),\n",
       "  Message('note_on', channel=0, note=77, velocity=0, time=0),\n",
       "  Message('note_on', channel=0, note=81, velocity=0, time=0),\n",
       "  Message('note_on', channel=0, note=72, velocity=110, time=32),\n",
       "  Message('note_on', channel=0, note=77, velocity=110, time=0),\n",
       "  Message('note_on', channel=0, note=81, velocity=110, time=0),\n",
       "  Message('note_on', channel=0, note=72, velocity=0, time=160),\n",
       "  Message('note_on', channel=0, note=77, velocity=0, time=0),\n",
       "  Message('note_on', channel=0, note=81, velocity=0, time=0),\n",
       "  Message('note_on', channel=0, note=72, velocity=110, time=32),\n",
       "  Message('note_on', channel=0, note=76, velocity=110, time=0),\n",
       "  Message('note_on', channel=0, note=81, velocity=110, time=0),\n",
       "  Message('note_on', channel=0, note=72, velocity=0, time=94),\n",
       "  Message('note_on', channel=0, note=76, velocity=0, time=0),\n",
       "  Message('note_on', channel=0, note=81, velocity=0, time=0),\n",
       "  Message('control_change', channel=0, control=64, value=0, time=2),\n",
       "  Message('control_change', channel=0, control=64, value=127, time=0),\n",
       "  Message('note_on', channel=0, note=79, velocity=110, time=0),\n",
       "  Message('note_on', channel=0, note=79, velocity=0, time=94),\n",
       "  Message('control_change', channel=0, control=64, value=0, time=386),\n",
       "  Message('control_change', channel=0, control=64, value=127, time=0),\n",
       "  Message('note_on', channel=0, note=70, velocity=110, time=0),\n",
       "  Message('note_on', channel=0, note=74, velocity=110, time=0),\n",
       "  Message('note_on', channel=0, note=79, velocity=110, time=0),\n",
       "  Message('note_on', channel=0, note=70, velocity=0, time=160),\n",
       "  Message('note_on', channel=0, note=74, velocity=0, time=0),\n",
       "  Message('note_on', channel=0, note=79, velocity=0, time=0),\n",
       "  Message('control_change', channel=0, control=64, value=0, time=416),\n",
       "  Message('control_change', channel=0, control=64, value=127, time=0),\n",
       "  Message('note_on', channel=0, note=69, velocity=110, time=0),\n",
       "  Message('note_on', channel=0, note=74, velocity=110, time=0),\n",
       "  Message('note_on', channel=0, note=77, velocity=110, time=0),\n",
       "  Message('note_on', channel=0, note=69, velocity=0, time=160),\n",
       "  Message('note_on', channel=0, note=74, velocity=0, time=0),\n",
       "  Message('note_on', channel=0, note=77, velocity=0, time=0),\n",
       "  Message('control_change', channel=0, control=64, value=0, time=416),\n",
       "  Message('control_change', channel=0, control=64, value=127, time=0),\n",
       "  Message('note_on', channel=0, note=69, velocity=110, time=0),\n",
       "  Message('note_on', channel=0, note=77, velocity=110, time=0),\n",
       "  Message('note_on', channel=0, note=69, velocity=0, time=160),\n",
       "  Message('note_on', channel=0, note=77, velocity=0, time=0),\n",
       "  Message('note_on', channel=0, note=69, velocity=110, time=32),\n",
       "  Message('note_on', channel=0, note=79, velocity=110, time=0),\n",
       "  Message('note_on', channel=0, note=69, velocity=0, time=160),\n",
       "  Message('note_on', channel=0, note=79, velocity=0, time=0),\n",
       "  Message('note_on', channel=0, note=69, velocity=110, time=32),\n",
       "  Message('note_on', channel=0, note=76, velocity=110, time=0),\n",
       "  Message('note_on', channel=0, note=69, velocity=0, time=160),\n",
       "  Message('note_on', channel=0, note=76, velocity=0, time=0),\n",
       "  Message('control_change', channel=0, control=64, value=0, time=32),\n",
       "  Message('control_change', channel=0, control=64, value=127, time=0),\n",
       "  Message('note_on', channel=0, note=65, velocity=110, time=0),\n",
       "  Message('note_on', channel=0, note=69, velocity=110, time=0),\n",
       "  Message('note_on', channel=0, note=74, velocity=110, time=0),\n",
       "  Message('note_on', channel=0, note=65, velocity=0, time=256),\n",
       "  Message('note_on', channel=0, note=69, velocity=0, time=0),\n",
       "  Message('note_on', channel=0, note=74, velocity=0, time=0),\n",
       "  Message('note_on', channel=0, note=74, velocity=110, time=32),\n",
       "  Message('note_on', channel=0, note=74, velocity=0, time=94),\n",
       "  Message('note_on', channel=0, note=76, velocity=110, time=2),\n",
       "  Message('note_on', channel=0, note=76, velocity=0, time=94),\n",
       "  Message('note_on', channel=0, note=77, velocity=110, time=2),\n",
       "  Message('note_on', channel=0, note=77, velocity=0, time=94),\n",
       "  Message('control_change', channel=0, control=64, value=0, time=2),\n",
       "  Message('control_change', channel=0, control=64, value=127, time=0),\n",
       "  Message('note_on', channel=0, note=74, velocity=110, time=0),\n",
       "  Message('note_on', channel=0, note=77, velocity=110, time=0),\n",
       "  Message('note_on', channel=0, note=81, velocity=110, time=0),\n",
       "  Message('note_on', channel=0, note=74, velocity=0, time=256),\n",
       "  Message('note_on', channel=0, note=77, velocity=0, time=0),\n",
       "  Message('note_on', channel=0, note=81, velocity=0, time=0),\n",
       "  Message('note_on', channel=0, note=74, velocity=110, time=32),\n",
       "  Message('note_on', channel=0, note=74, velocity=0, time=94),\n",
       "  Message('note_on', channel=0, note=76, velocity=110, time=2),\n",
       "  Message('note_on', channel=0, note=76, velocity=0, time=94),\n",
       "  Message('note_on', channel=0, note=77, velocity=110, time=2),\n",
       "  Message('note_on', channel=0, note=77, velocity=0, time=94),\n",
       "  Message('control_change', channel=0, control=64, value=0, time=2),\n",
       "  Message('control_change', channel=0, control=64, value=127, time=0),\n",
       "  Message('note_on', channel=0, note=74, velocity=110, time=0),\n",
       "  Message('note_on', channel=0, note=77, velocity=110, time=0),\n",
       "  Message('note_on', channel=0, note=82, velocity=110, time=0),\n",
       "  Message('note_on', channel=0, note=74, velocity=0, time=256),\n",
       "  Message('note_on', channel=0, note=77, velocity=0, time=0),\n",
       "  Message('note_on', channel=0, note=82, velocity=0, time=0),\n",
       "  Message('note_on', channel=0, note=74, velocity=110, time=32),\n",
       "  Message('note_on', channel=0, note=74, velocity=0, time=94),\n",
       "  Message('note_on', channel=0, note=76, velocity=110, time=2),\n",
       "  Message('note_on', channel=0, note=76, velocity=0, time=94),\n",
       "  Message('note_on', channel=0, note=77, velocity=110, time=2),\n",
       "  Message('note_on', channel=0, note=77, velocity=0, time=94),\n",
       "  Message('control_change', channel=0, control=64, value=0, time=2),\n",
       "  Message('control_change', channel=0, control=64, value=127, time=0),\n",
       "  Message('note_on', channel=0, note=72, velocity=110, time=0),\n",
       "  Message('note_on', channel=0, note=77, velocity=110, time=0),\n",
       "  Message('note_on', channel=0, note=81, velocity=110, time=0),\n",
       "  Message('note_on', channel=0, note=72, velocity=0, time=160),\n",
       "  Message('note_on', channel=0, note=77, velocity=0, time=0),\n",
       "  Message('note_on', channel=0, note=81, velocity=0, time=0),\n",
       "  Message('note_on', channel=0, note=72, velocity=110, time=32),\n",
       "  Message('note_on', channel=0, note=77, velocity=110, time=0),\n",
       "  Message('note_on', channel=0, note=81, velocity=110, time=0),\n",
       "  Message('note_on', channel=0, note=72, velocity=0, time=160),\n",
       "  Message('note_on', channel=0, note=77, velocity=0, time=0),\n",
       "  Message('note_on', channel=0, note=81, velocity=0, time=0),\n",
       "  Message('note_on', channel=0, note=77, velocity=110, time=32),\n",
       "  Message('note_on', channel=0, note=84, velocity=110, time=0),\n",
       "  Message('note_on', channel=0, note=77, velocity=0, time=160),\n",
       "  Message('note_on', channel=0, note=84, velocity=0, time=0),\n",
       "  Message('control_change', channel=0, control=64, value=0, time=32),\n",
       "  Message('control_change', channel=0, control=64, value=127, time=0),\n",
       "  Message('note_on', channel=0, note=72, velocity=110, time=0),\n",
       "  Message('note_on', channel=0, note=76, velocity=110, time=0),\n",
       "  Message('note_on', channel=0, note=81, velocity=110, time=0),\n",
       "  Message('note_on', channel=0, note=72, velocity=0, time=94),\n",
       "  Message('note_on', channel=0, note=76, velocity=0, time=0),\n",
       "  Message('note_on', channel=0, note=81, velocity=0, time=0),\n",
       "  Message('note_on', channel=0, note=79, velocity=110, time=2),\n",
       "  Message('note_on', channel=0, note=79, velocity=0, time=94),\n",
       "  Message('control_change', channel=0, control=64, value=0, time=386),\n",
       "  Message('control_change', channel=0, control=64, value=127, time=0),\n",
       "  Message('note_on', channel=0, note=70, velocity=110, time=0),\n",
       "  Message('note_on', channel=0, note=74, velocity=110, time=0),\n",
       "  Message('note_on', channel=0, note=79, velocity=110, time=0),\n",
       "  Message('note_on', channel=0, note=70, velocity=0, time=160),\n",
       "  Message('note_on', channel=0, note=74, velocity=0, time=0),\n",
       "  Message('note_on', channel=0, note=79, velocity=0, time=0),\n",
       "  Message('control_change', channel=0, control=64, value=0, time=416),\n",
       "  Message('control_change', channel=0, control=64, value=127, time=0),\n",
       "  Message('note_on', channel=0, note=69, velocity=110, time=0),\n",
       "  Message('note_on', channel=0, note=74, velocity=110, time=0),\n",
       "  Message('note_on', channel=0, note=77, velocity=110, time=0),\n",
       "  Message('note_on', channel=0, note=69, velocity=0, time=160),\n",
       "  Message('note_on', channel=0, note=74, velocity=0, time=0),\n",
       "  Message('note_on', channel=0, note=77, velocity=0, time=0),\n",
       "  Message('control_change', channel=0, control=64, value=0, time=416),\n",
       "  Message('control_change', channel=0, control=64, value=127, time=0),\n",
       "  Message('note_on', channel=0, note=69, velocity=110, time=0),\n",
       "  Message('note_on', channel=0, note=77, velocity=110, time=0),\n",
       "  Message('note_on', channel=0, note=69, velocity=0, time=160),\n",
       "  Message('note_on', channel=0, note=77, velocity=0, time=0),\n",
       "  Message('note_on', channel=0, note=69, velocity=110, time=32),\n",
       "  Message('note_on', channel=0, note=79, velocity=110, time=0),\n",
       "  Message('note_on', channel=0, note=69, velocity=0, time=160),\n",
       "  Message('note_on', channel=0, note=79, velocity=0, time=0),\n",
       "  Message('note_on', channel=0, note=69, velocity=110, time=32),\n",
       "  Message('note_on', channel=0, note=76, velocity=110, time=0),\n",
       "  Message('note_on', channel=0, note=69, velocity=0, time=160),\n",
       "  Message('note_on', channel=0, note=76, velocity=0, time=0),\n",
       "  Message('control_change', channel=0, control=64, value=0, time=32),\n",
       "  Message('control_change', channel=0, control=64, value=127, time=0),\n",
       "  Message('note_on', channel=0, note=65, velocity=110, time=0),\n",
       "  Message('note_on', channel=0, note=69, velocity=110, time=0),\n",
       "  Message('note_on', channel=0, note=74, velocity=110, time=0),\n",
       "  Message('note_on', channel=0, note=65, velocity=0, time=256),\n",
       "  Message('note_on', channel=0, note=69, velocity=0, time=0),\n",
       "  Message('note_on', channel=0, note=74, velocity=0, time=0),\n",
       "  Message('note_on', channel=0, note=62, velocity=110, time=320),\n",
       "  Message('note_on', channel=0, note=62, velocity=0, time=720),\n",
       "  MetaMessage('end_of_track', time=0)])"
      ]
     },
     "execution_count": 268,
     "metadata": {},
     "output_type": "execute_result"
    }
   ],
   "source": [
    "mid.tracks[1]"
   ]
  },
  {
   "cell_type": "code",
   "execution_count": 279,
   "id": "51fad5d1",
   "metadata": {},
   "outputs": [
    {
     "data": {
      "text/plain": [
       "MidiTrack([\n",
       "  MetaMessage('text', text='RH B', time=0),\n",
       "  Message('note_on', channel=0, note=67, velocity=64, time=120),\n",
       "  Message('note_off', channel=0, note=67, velocity=44, time=60),\n",
       "  Message('note_on', channel=0, note=72, velocity=64, time=0),\n",
       "  Message('note_off', channel=0, note=72, velocity=77, time=60),\n",
       "  Message('note_on', channel=0, note=76, velocity=64, time=0),\n",
       "  Message('note_off', channel=0, note=76, velocity=52, time=60),\n",
       "  Message('note_on', channel=0, note=67, velocity=64, time=0),\n",
       "  Message('note_off', channel=0, note=67, velocity=32, time=60),\n",
       "  Message('note_on', channel=0, note=72, velocity=64, time=0),\n",
       "  Message('note_off', channel=0, note=72, velocity=72, time=60),\n",
       "  Message('note_on', channel=0, note=76, velocity=64, time=0),\n",
       "  Message('note_off', channel=0, note=76, velocity=65, time=60),\n",
       "  Message('note_on', channel=0, note=67, velocity=64, time=120),\n",
       "  Message('note_off', channel=0, note=67, velocity=46, time=60),\n",
       "  Message('note_on', channel=0, note=72, velocity=64, time=0),\n",
       "  Message('note_off', channel=0, note=72, velocity=68, time=60),\n",
       "  Message('note_on', channel=0, note=76, velocity=64, time=0),\n",
       "  Message('note_off', channel=0, note=76, velocity=47, time=60),\n",
       "  Message('note_on', channel=0, note=67, velocity=64, time=0),\n",
       "  Message('note_off', channel=0, note=67, velocity=40, time=60),\n",
       "  Message('note_on', channel=0, note=72, velocity=64, time=0),\n",
       "  Message('note_off', channel=0, note=72, velocity=80, time=60),\n",
       "  Message('note_on', channel=0, note=76, velocity=64, time=0),\n",
       "  Message('note_off', channel=0, note=76, velocity=50, time=60),\n",
       "  Message('note_on', channel=0, note=69, velocity=64, time=120),\n",
       "  Message('note_off', channel=0, note=69, velocity=35, time=60),\n",
       "  Message('note_on', channel=0, note=74, velocity=64, time=0),\n",
       "  Message('note_off', channel=0, note=74, velocity=70, time=60),\n",
       "  Message('note_on', channel=0, note=77, velocity=64, time=0),\n",
       "  Message('note_off', channel=0, note=77, velocity=69, time=60),\n",
       "  Message('note_on', channel=0, note=69, velocity=64, time=0),\n",
       "  Message('note_off', channel=0, note=69, velocity=48, time=60),\n",
       "  Message('note_on', channel=0, note=74, velocity=64, time=0),\n",
       "  Message('note_off', channel=0, note=74, velocity=69, time=60),\n",
       "  Message('note_on', channel=0, note=77, velocity=64, time=0),\n",
       "  Message('note_off', channel=0, note=77, velocity=74, time=60),\n",
       "  Message('note_on', channel=0, note=69, velocity=64, time=120),\n",
       "  Message('note_off', channel=0, note=69, velocity=66, time=60),\n",
       "  Message('note_on', channel=0, note=74, velocity=64, time=0),\n",
       "  Message('note_off', channel=0, note=74, velocity=61, time=60),\n",
       "  Message('note_on', channel=0, note=77, velocity=64, time=0),\n",
       "  Message('note_off', channel=0, note=77, velocity=62, time=60),\n",
       "  Message('note_on', channel=0, note=69, velocity=64, time=0),\n",
       "  Message('note_off', channel=0, note=69, velocity=63, time=60),\n",
       "  Message('note_on', channel=0, note=74, velocity=64, time=0),\n",
       "  Message('note_off', channel=0, note=74, velocity=61, time=60),\n",
       "  Message('note_on', channel=0, note=77, velocity=64, time=0),\n",
       "  Message('note_off', channel=0, note=77, velocity=61, time=60),\n",
       "  Message('note_on', channel=0, note=67, velocity=64, time=120),\n",
       "  Message('note_off', channel=0, note=67, velocity=16, time=60),\n",
       "  Message('note_on', channel=0, note=74, velocity=64, time=0),\n",
       "  Message('note_off', channel=0, note=74, velocity=55, time=60),\n",
       "  Message('note_on', channel=0, note=77, velocity=64, time=0),\n",
       "  Message('note_off', channel=0, note=77, velocity=63, time=60),\n",
       "  Message('note_on', channel=0, note=67, velocity=64, time=0),\n",
       "  Message('note_off', channel=0, note=67, velocity=44, time=60),\n",
       "  Message('note_on', channel=0, note=74, velocity=64, time=0),\n",
       "  Message('note_off', channel=0, note=74, velocity=61, time=60),\n",
       "  Message('note_on', channel=0, note=77, velocity=64, time=0),\n",
       "  Message('note_off', channel=0, note=77, velocity=68, time=60),\n",
       "  Message('note_on', channel=0, note=67, velocity=64, time=120),\n",
       "  Message('note_off', channel=0, note=67, velocity=47, time=60),\n",
       "  Message('note_on', channel=0, note=74, velocity=64, time=0),\n",
       "  Message('note_off', channel=0, note=74, velocity=62, time=60),\n",
       "  Message('note_on', channel=0, note=77, velocity=64, time=0),\n",
       "  Message('note_off', channel=0, note=77, velocity=54, time=60),\n",
       "  Message('note_on', channel=0, note=67, velocity=64, time=0),\n",
       "  Message('note_off', channel=0, note=67, velocity=40, time=60),\n",
       "  Message('note_on', channel=0, note=74, velocity=64, time=0),\n",
       "  Message('note_off', channel=0, note=74, velocity=62, time=60),\n",
       "  Message('note_on', channel=0, note=77, velocity=64, time=0),\n",
       "  Message('note_off', channel=0, note=77, velocity=61, time=60),\n",
       "  Message('note_on', channel=0, note=67, velocity=64, time=120),\n",
       "  Message('note_off', channel=0, note=67, velocity=38, time=60),\n",
       "  Message('note_on', channel=0, note=72, velocity=64, time=0),\n",
       "  Message('note_off', channel=0, note=72, velocity=74, time=60),\n",
       "  Message('note_on', channel=0, note=76, velocity=64, time=0),\n",
       "  Message('note_off', channel=0, note=76, velocity=51, time=60),\n",
       "  Message('note_on', channel=0, note=67, velocity=64, time=0),\n",
       "  Message('note_off', channel=0, note=67, velocity=30, time=60),\n",
       "  Message('note_on', channel=0, note=72, velocity=64, time=0),\n",
       "  Message('note_off', channel=0, note=72, velocity=79, time=60),\n",
       "  Message('note_on', channel=0, note=76, velocity=64, time=0),\n",
       "  Message('note_off', channel=0, note=76, velocity=61, time=60),\n",
       "  Message('note_on', channel=0, note=67, velocity=64, time=120),\n",
       "  Message('note_off', channel=0, note=67, velocity=52, time=60),\n",
       "  Message('note_on', channel=0, note=72, velocity=64, time=0),\n",
       "  Message('note_off', channel=0, note=72, velocity=74, time=60),\n",
       "  Message('note_on', channel=0, note=76, velocity=64, time=0),\n",
       "  Message('note_off', channel=0, note=76, velocity=58, time=60),\n",
       "  Message('note_on', channel=0, note=67, velocity=64, time=0),\n",
       "  Message('note_off', channel=0, note=67, velocity=41, time=60),\n",
       "  Message('note_on', channel=0, note=72, velocity=64, time=0),\n",
       "  Message('note_off', channel=0, note=72, velocity=79, time=60),\n",
       "  Message('note_on', channel=0, note=76, velocity=64, time=0),\n",
       "  Message('note_off', channel=0, note=76, velocity=63, time=60),\n",
       "  Message('note_on', channel=0, note=69, velocity=64, time=120),\n",
       "  Message('note_off', channel=0, note=69, velocity=53, time=60),\n",
       "  Message('note_on', channel=0, note=76, velocity=64, time=0),\n",
       "  Message('note_off', channel=0, note=76, velocity=62, time=60),\n",
       "  Message('note_on', channel=0, note=81, velocity=64, time=0),\n",
       "  Message('note_off', channel=0, note=81, velocity=59, time=60),\n",
       "  Message('note_on', channel=0, note=69, velocity=64, time=0),\n",
       "  Message('note_off', channel=0, note=69, velocity=47, time=60),\n",
       "  Message('note_on', channel=0, note=76, velocity=64, time=0),\n",
       "  Message('note_off', channel=0, note=76, velocity=46, time=60),\n",
       "  Message('note_on', channel=0, note=81, velocity=64, time=0),\n",
       "  Message('note_off', channel=0, note=81, velocity=54, time=60),\n",
       "  Message('note_on', channel=0, note=69, velocity=64, time=120),\n",
       "  Message('note_off', channel=0, note=69, velocity=49, time=60),\n",
       "  Message('note_on', channel=0, note=76, velocity=64, time=0),\n",
       "  Message('note_off', channel=0, note=76, velocity=53, time=60),\n",
       "  Message('note_on', channel=0, note=81, velocity=64, time=0),\n",
       "  Message('note_off', channel=0, note=81, velocity=57, time=60),\n",
       "  Message('note_on', channel=0, note=69, velocity=64, time=0),\n",
       "  Message('note_off', channel=0, note=69, velocity=57, time=60),\n",
       "  Message('note_on', channel=0, note=76, velocity=64, time=0),\n",
       "  Message('note_off', channel=0, note=76, velocity=61, time=60),\n",
       "  Message('note_on', channel=0, note=81, velocity=64, time=0),\n",
       "  Message('note_off', channel=0, note=81, velocity=73, time=60),\n",
       "  Message('note_on', channel=0, note=66, velocity=64, time=120),\n",
       "  Message('note_off', channel=0, note=66, velocity=20, time=60),\n",
       "  Message('note_on', channel=0, note=69, velocity=64, time=0),\n",
       "  Message('note_off', channel=0, note=69, velocity=77, time=60),\n",
       "  Message('note_on', channel=0, note=74, velocity=64, time=0),\n",
       "  Message('note_off', channel=0, note=74, velocity=59, time=60),\n",
       "  Message('note_on', channel=0, note=66, velocity=64, time=0),\n",
       "  Message('note_off', channel=0, note=66, velocity=52, time=60),\n",
       "  Message('note_on', channel=0, note=69, velocity=64, time=0),\n",
       "  Message('note_off', channel=0, note=69, velocity=72, time=60),\n",
       "  Message('note_on', channel=0, note=74, velocity=64, time=0),\n",
       "  Message('note_off', channel=0, note=74, velocity=63, time=60),\n",
       "  Message('note_on', channel=0, note=66, velocity=64, time=120),\n",
       "  Message('note_off', channel=0, note=66, velocity=66, time=60),\n",
       "  Message('note_on', channel=0, note=69, velocity=64, time=0),\n",
       "  Message('note_off', channel=0, note=69, velocity=68, time=60),\n",
       "  Message('note_on', channel=0, note=74, velocity=64, time=0),\n",
       "  Message('note_off', channel=0, note=74, velocity=47, time=60),\n",
       "  Message('note_on', channel=0, note=66, velocity=64, time=0),\n",
       "  Message('note_off', channel=0, note=66, velocity=61, time=60),\n",
       "  Message('note_on', channel=0, note=69, velocity=64, time=0),\n",
       "  Message('note_off', channel=0, note=69, velocity=69, time=60),\n",
       "  Message('note_on', channel=0, note=74, velocity=64, time=0),\n",
       "  Message('note_off', channel=0, note=74, velocity=76, time=60),\n",
       "  Message('note_on', channel=0, note=67, velocity=64, time=120),\n",
       "  Message('note_off', channel=0, note=67, velocity=42, time=60),\n",
       "  Message('note_on', channel=0, note=74, velocity=64, time=0),\n",
       "  Message('note_off', channel=0, note=74, velocity=73, time=60),\n",
       "  Message('note_on', channel=0, note=79, velocity=64, time=0),\n",
       "  Message('note_off', channel=0, note=79, velocity=51, time=60),\n",
       "  Message('note_on', channel=0, note=67, velocity=64, time=0),\n",
       "  Message('note_off', channel=0, note=67, velocity=34, time=60),\n",
       "  Message('note_on', channel=0, note=74, velocity=64, time=0),\n",
       "  Message('note_off', channel=0, note=74, velocity=66, time=60),\n",
       "  Message('note_on', channel=0, note=79, velocity=64, time=0),\n",
       "  Message('note_off', channel=0, note=79, velocity=58, time=60),\n",
       "  Message('note_on', channel=0, note=67, velocity=64, time=120),\n",
       "  Message('note_off', channel=0, note=67, velocity=30, time=60),\n",
       "  Message('note_on', channel=0, note=74, velocity=64, time=0),\n",
       "  Message('note_off', channel=0, note=74, velocity=72, time=60),\n",
       "  Message('note_on', channel=0, note=79, velocity=64, time=0),\n",
       "  Message('note_off', channel=0, note=79, velocity=61, time=60),\n",
       "  Message('note_on', channel=0, note=67, velocity=64, time=0),\n",
       "  Message('note_off', channel=0, note=67, velocity=16, time=60),\n",
       "  Message('note_on', channel=0, note=74, velocity=64, time=0),\n",
       "  Message('note_off', channel=0, note=74, velocity=74, time=60),\n",
       "  Message('note_on', channel=0, note=79, velocity=64, time=0),\n",
       "  Message('note_off', channel=0, note=79, velocity=72, time=60),\n",
       "  Message('note_on', channel=0, note=64, velocity=64, time=120),\n",
       "  Message('note_off', channel=0, note=64, velocity=41, time=60),\n",
       "  Message('note_on', channel=0, note=67, velocity=64, time=0),\n",
       "  Message('note_off', channel=0, note=67, velocity=59, time=60),\n",
       "  Message('note_on', channel=0, note=72, velocity=64, time=0),\n",
       "  Message('note_off', channel=0, note=72, velocity=72, time=60),\n",
       "  Message('note_on', channel=0, note=64, velocity=64, time=0),\n",
       "  Message('note_off', channel=0, note=64, velocity=45, time=60),\n",
       "  Message('note_on', channel=0, note=67, velocity=64, time=0),\n",
       "  Message('note_off', channel=0, note=67, velocity=61, time=60),\n",
       "  Message('note_on', channel=0, note=72, velocity=64, time=0),\n",
       "  Message('note_off', channel=0, note=72, velocity=80, time=60),\n",
       "  Message('note_on', channel=0, note=64, velocity=64, time=120),\n",
       "  Message('note_off', channel=0, note=64, velocity=46, time=60),\n",
       "  Message('note_on', channel=0, note=67, velocity=64, time=0),\n",
       "  Message('note_off', channel=0, note=67, velocity=61, time=60),\n",
       "  Message('note_on', channel=0, note=72, velocity=64, time=0),\n",
       "  Message('note_off', channel=0, note=72, velocity=68, time=60),\n",
       "  Message('note_on', channel=0, note=64, velocity=64, time=0),\n",
       "  Message('note_off', channel=0, note=64, velocity=43, time=60),\n",
       "  Message('note_on', channel=0, note=67, velocity=64, time=0),\n",
       "  Message('note_off', channel=0, note=67, velocity=54, time=60),\n",
       "  Message('note_on', channel=0, note=72, velocity=64, time=0),\n",
       "  Message('note_off', channel=0, note=72, velocity=66, time=60),\n",
       "  Message('note_on', channel=0, note=64, velocity=64, time=120),\n",
       "  Message('note_off', channel=0, note=64, velocity=46, time=60),\n",
       "  Message('note_on', channel=0, note=67, velocity=64, time=0),\n",
       "  Message('note_off', channel=0, note=67, velocity=55, time=60),\n",
       "  Message('note_on', channel=0, note=72, velocity=64, time=0),\n",
       "  Message('note_off', channel=0, note=72, velocity=69, time=60),\n",
       "  Message('note_on', channel=0, note=64, velocity=64, time=0),\n",
       "  Message('note_off', channel=0, note=64, velocity=38, time=60),\n",
       "  Message('note_on', channel=0, note=67, velocity=64, time=0),\n",
       "  Message('note_off', channel=0, note=67, velocity=62, time=60),\n",
       "  Message('note_on', channel=0, note=72, velocity=64, time=0),\n",
       "  Message('note_off', channel=0, note=72, velocity=70, time=60),\n",
       "  Message('note_on', channel=0, note=64, velocity=64, time=120),\n",
       "  Message('note_off', channel=0, note=64, velocity=43, time=60),\n",
       "  Message('note_on', channel=0, note=67, velocity=64, time=0),\n",
       "  Message('note_off', channel=0, note=67, velocity=57, time=60),\n",
       "  Message('note_on', channel=0, note=72, velocity=64, time=0),\n",
       "  Message('note_off', channel=0, note=72, velocity=68, time=60),\n",
       "  Message('note_on', channel=0, note=64, velocity=64, time=0),\n",
       "  Message('note_off', channel=0, note=64, velocity=39, time=60),\n",
       "  Message('note_on', channel=0, note=67, velocity=64, time=0),\n",
       "  Message('note_off', channel=0, note=67, velocity=58, time=60),\n",
       "  Message('note_on', channel=0, note=72, velocity=64, time=0),\n",
       "  Message('note_off', channel=0, note=72, velocity=77, time=60),\n",
       "  Message('note_on', channel=0, note=62, velocity=64, time=120),\n",
       "  Message('note_off', channel=0, note=62, velocity=22, time=60),\n",
       "  Message('note_on', channel=0, note=66, velocity=64, time=0),\n",
       "  Message('note_off', channel=0, note=66, velocity=72, time=60),\n",
       "  Message('note_on', channel=0, note=72, velocity=64, time=0),\n",
       "  Message('note_off', channel=0, note=72, velocity=51, time=60),\n",
       "  Message('note_on', channel=0, note=62, velocity=64, time=0),\n",
       "  Message('note_off', channel=0, note=62, velocity=25, time=60),\n",
       "  Message('note_on', channel=0, note=66, velocity=64, time=0),\n",
       "  Message('note_off', channel=0, note=66, velocity=82, time=60),\n",
       "  Message('note_on', channel=0, note=72, velocity=64, time=0),\n",
       "  Message('note_off', channel=0, note=72, velocity=79, time=60),\n",
       "  Message('note_on', channel=0, note=62, velocity=64, time=120),\n",
       "  Message('note_off', channel=0, note=62, velocity=13, time=60),\n",
       "  Message('note_on', channel=0, note=66, velocity=64, time=0),\n",
       "  Message('note_off', channel=0, note=66, velocity=76, time=60),\n",
       "  Message('note_on', channel=0, note=72, velocity=64, time=0),\n",
       "  Message('note_off', channel=0, note=72, velocity=62, time=60),\n",
       "  Message('note_on', channel=0, note=62, velocity=64, time=0),\n",
       "  Message('note_off', channel=0, note=62, velocity=18, time=60),\n",
       "  Message('note_on', channel=0, note=66, velocity=64, time=0),\n",
       "  Message('note_off', channel=0, note=66, velocity=69, time=60),\n",
       "  Message('note_on', channel=0, note=72, velocity=64, time=0),\n",
       "  Message('note_off', channel=0, note=72, velocity=70, time=60),\n",
       "  Message('note_on', channel=0, note=62, velocity=64, time=120),\n",
       "  Message('note_off', channel=0, note=62, velocity=30, time=60),\n",
       "  Message('note_on', channel=0, note=67, velocity=64, time=0),\n",
       "  Message('note_off', channel=0, note=67, velocity=51, time=60),\n",
       "  Message('note_on', channel=0, note=71, velocity=64, time=0),\n",
       "  Message('note_off', channel=0, note=71, velocity=66, time=60),\n",
       "  Message('note_on', channel=0, note=62, velocity=64, time=0),\n",
       "  Message('note_off', channel=0, note=62, velocity=27, time=60),\n",
       "  Message('note_on', channel=0, note=67, velocity=64, time=0),\n",
       "  Message('note_off', channel=0, note=67, velocity=51, time=60),\n",
       "  Message('note_on', channel=0, note=71, velocity=64, time=0),\n",
       "  Message('note_off', channel=0, note=71, velocity=79, time=60),\n",
       "  Message('note_on', channel=0, note=62, velocity=64, time=120),\n",
       "  Message('note_off', channel=0, note=62, velocity=27, time=60),\n",
       "  Message('note_on', channel=0, note=67, velocity=64, time=0),\n",
       "  Message('note_off', channel=0, note=67, velocity=52, time=60),\n",
       "  Message('note_on', channel=0, note=71, velocity=64, time=0),\n",
       "  Message('note_off', channel=0, note=71, velocity=65, time=60),\n",
       "  Message('note_on', channel=0, note=62, velocity=64, time=0),\n",
       "  Message('note_off', channel=0, note=62, velocity=35, time=60),\n",
       "  Message('note_on', channel=0, note=67, velocity=64, time=0),\n",
       "  Message('note_off', channel=0, note=67, velocity=52, time=60),\n",
       "  Message('note_on', channel=0, note=71, velocity=64, time=0),\n",
       "  Message('note_off', channel=0, note=71, velocity=79, time=60),\n",
       "  Message('note_on', channel=0, note=64, velocity=64, time=120),\n",
       "  Message('note_off', channel=0, note=64, velocity=31, time=60),\n",
       "  Message('note_on', channel=0, note=67, velocity=64, time=0),\n",
       "  Message('note_off', channel=0, note=67, velocity=52, time=60),\n",
       "  Message('note_on', channel=0, note=73, velocity=64, time=0),\n",
       "  Message('note_off', channel=0, note=73, velocity=62, time=60),\n",
       "  Message('note_on', channel=0, note=64, velocity=64, time=0),\n",
       "  Message('note_off', channel=0, note=64, velocity=24, time=60),\n",
       "  Message('note_on', channel=0, note=67, velocity=64, time=0),\n",
       "  Message('note_off', channel=0, note=67, velocity=59, time=60),\n",
       "  Message('note_on', channel=0, note=73, velocity=64, time=0),\n",
       "  Message('note_off', channel=0, note=73, velocity=74, time=60),\n",
       "  Message('note_on', channel=0, note=64, velocity=64, time=120),\n",
       "  Message('note_off', channel=0, note=64, velocity=25, time=60),\n",
       "  Message('note_on', channel=0, note=67, velocity=64, time=0),\n",
       "  Message('note_off', channel=0, note=67, velocity=49, time=60),\n",
       "  Message('note_on', channel=0, note=73, velocity=64, time=0),\n",
       "  Message('note_off', channel=0, note=73, velocity=61, time=60),\n",
       "  Message('note_on', channel=0, note=64, velocity=64, time=0),\n",
       "  Message('note_off', channel=0, note=64, velocity=27, time=60),\n",
       "  Message('note_on', channel=0, note=67, velocity=64, time=0),\n",
       "  Message('note_off', channel=0, note=67, velocity=63, time=60),\n",
       "  Message('note_on', channel=0, note=73, velocity=64, time=0),\n",
       "  Message('note_off', channel=0, note=73, velocity=63, time=60),\n",
       "  Message('note_on', channel=0, note=62, velocity=64, time=120),\n",
       "  Message('note_off', channel=0, note=62, velocity=40, time=60),\n",
       "  Message('note_on', channel=0, note=69, velocity=64, time=0),\n",
       "  Message('note_off', channel=0, note=69, velocity=76, time=60),\n",
       "  Message('note_on', channel=0, note=74, velocity=64, time=0),\n",
       "  Message('note_off', channel=0, note=74, velocity=58, time=60),\n",
       "  Message('note_on', channel=0, note=62, velocity=64, time=0),\n",
       "  Message('note_off', channel=0, note=62, velocity=19, time=60),\n",
       "  Message('note_on', channel=0, note=69, velocity=64, time=0),\n",
       "  Message('note_off', channel=0, note=69, velocity=73, time=60),\n",
       "  Message('note_on', channel=0, note=74, velocity=64, time=0),\n",
       "  Message('note_off', channel=0, note=74, velocity=73, time=60),\n",
       "  Message('note_on', channel=0, note=62, velocity=64, time=120),\n",
       "  Message('note_off', channel=0, note=62, velocity=26, time=60),\n",
       "  Message('note_on', channel=0, note=69, velocity=64, time=0),\n",
       "  Message('note_off', channel=0, note=69, velocity=62, time=60),\n",
       "  Message('note_on', channel=0, note=74, velocity=64, time=0),\n",
       "  Message('note_off', channel=0, note=74, velocity=49, time=60),\n",
       "  Message('note_on', channel=0, note=62, velocity=64, time=0),\n",
       "  Message('note_off', channel=0, note=62, velocity=34, time=60),\n",
       "  Message('note_on', channel=0, note=69, velocity=64, time=0),\n",
       "  Message('note_off', channel=0, note=69, velocity=68, time=60),\n",
       "  Message('note_on', channel=0, note=74, velocity=64, time=0),\n",
       "  Message('note_off', channel=0, note=74, velocity=74, time=60),\n",
       "  Message('note_on', channel=0, note=62, velocity=64, time=120),\n",
       "  Message('note_off', channel=0, note=62, velocity=49, time=60),\n",
       "  Message('note_on', channel=0, note=65, velocity=64, time=0),\n",
       "  Message('note_off', channel=0, note=65, velocity=53, time=60),\n",
       "  Message('note_on', channel=0, note=71, velocity=64, time=0),\n",
       "  Message('note_off', channel=0, note=71, velocity=59, time=60),\n",
       "  Message('note_on', channel=0, note=62, velocity=64, time=0),\n",
       "  Message('note_off', channel=0, note=62, velocity=49, time=60),\n",
       "  Message('note_on', channel=0, note=65, velocity=64, time=0),\n",
       "  Message('note_off', channel=0, note=65, velocity=51, time=60),\n",
       "  Message('note_on', channel=0, note=71, velocity=64, time=0),\n",
       "  Message('note_off', channel=0, note=71, velocity=72, time=60),\n",
       "  Message('note_on', channel=0, note=62, velocity=64, time=120),\n",
       "  Message('note_off', channel=0, note=62, velocity=46, time=60),\n",
       "  Message('note_on', channel=0, note=65, velocity=64, time=0),\n",
       "  Message('note_off', channel=0, note=65, velocity=54, time=60),\n",
       "  Message('note_on', channel=0, note=71, velocity=64, time=0),\n",
       "  Message('note_off', channel=0, note=71, velocity=33, time=60),\n",
       "  Message('note_on', channel=0, note=62, velocity=64, time=0),\n",
       "  Message('note_off', channel=0, note=62, velocity=13, time=60),\n",
       "  Message('note_on', channel=0, note=65, velocity=64, time=0),\n",
       "  Message('note_off', channel=0, note=65, velocity=62, time=60),\n",
       "  Message('note_on', channel=0, note=71, velocity=64, time=0),\n",
       "  Message('note_off', channel=0, note=71, velocity=74, time=60),\n",
       "  Message('note_on', channel=0, note=60, velocity=64, time=120),\n",
       "  Message('note_off', channel=0, note=60, velocity=40, time=60),\n",
       "  Message('note_on', channel=0, note=67, velocity=64, time=0),\n",
       "  Message('note_off', channel=0, note=67, velocity=49, time=60),\n",
       "  Message('note_on', channel=0, note=72, velocity=64, time=0),\n",
       "  Message('note_off', channel=0, note=72, velocity=65, time=60),\n",
       "  Message('note_on', channel=0, note=60, velocity=64, time=0),\n",
       "  Message('note_off', channel=0, note=60, velocity=32, time=60),\n",
       "  Message('note_on', channel=0, note=67, velocity=64, time=0),\n",
       "  Message('note_off', channel=0, note=67, velocity=49, time=60),\n",
       "  Message('note_on', channel=0, note=72, velocity=64, time=0),\n",
       "  Message('note_off', channel=0, note=72, velocity=66, time=60),\n",
       "  Message('note_on', channel=0, note=60, velocity=64, time=120),\n",
       "  Message('note_off', channel=0, note=60, velocity=36, time=60),\n",
       "  Message('note_on', channel=0, note=67, velocity=64, time=0),\n",
       "  Message('note_off', channel=0, note=67, velocity=59, time=60),\n",
       "  Message('note_on', channel=0, note=72, velocity=64, time=0),\n",
       "  Message('note_off', channel=0, note=72, velocity=69, time=60),\n",
       "  Message('note_on', channel=0, note=60, velocity=64, time=0),\n",
       "  Message('note_off', channel=0, note=60, velocity=46, time=60),\n",
       "  Message('note_on', channel=0, note=67, velocity=64, time=0),\n",
       "  Message('note_off', channel=0, note=67, velocity=54, time=60),\n",
       "  Message('note_on', channel=0, note=72, velocity=64, time=0),\n",
       "  Message('note_off', channel=0, note=72, velocity=80, time=60),\n",
       "  Message('note_on', channel=0, note=57, velocity=64, time=120),\n",
       "  Message('note_off', channel=0, note=57, velocity=38, time=60),\n",
       "  Message('note_on', channel=0, note=60, velocity=64, time=0),\n",
       "  Message('note_off', channel=0, note=60, velocity=68, time=60),\n",
       "  Message('note_on', channel=0, note=65, velocity=64, time=0),\n",
       "  Message('note_off', channel=0, note=65, velocity=57, time=60),\n",
       "  Message('note_on', channel=0, note=57, velocity=64, time=0),\n",
       "  Message('note_off', channel=0, note=57, velocity=9, time=60),\n",
       "  Message('note_on', channel=0, note=60, velocity=64, time=0),\n",
       "  Message('note_off', channel=0, note=60, velocity=69, time=60),\n",
       "  Message('note_on', channel=0, note=65, velocity=64, time=0),\n",
       "  Message('note_off', channel=0, note=65, velocity=66, time=60),\n",
       "  Message('note_on', channel=0, note=57, velocity=64, time=120),\n",
       "  Message('note_off', channel=0, note=57, velocity=16, time=60),\n",
       "  Message('note_on', channel=0, note=60, velocity=64, time=0),\n",
       "  Message('note_off', channel=0, note=60, velocity=62, time=60),\n",
       "  Message('note_on', channel=0, note=65, velocity=64, time=0),\n",
       "  Message('note_off', channel=0, note=65, velocity=49, time=60),\n",
       "  Message('note_on', channel=0, note=57, velocity=64, time=0),\n",
       "  Message('note_off', channel=0, note=57, velocity=13, time=60),\n",
       "  Message('note_on', channel=0, note=60, velocity=64, time=0),\n",
       "  Message('note_off', channel=0, note=60, velocity=69, time=60),\n",
       "  Message('note_on', channel=0, note=65, velocity=64, time=0),\n",
       "  Message('note_off', channel=0, note=65, velocity=62, time=60),\n",
       "  Message('note_on', channel=0, note=57, velocity=64, time=120),\n",
       "  Message('note_off', channel=0, note=57, velocity=50, time=60),\n",
       "  Message('note_on', channel=0, note=60, velocity=64, time=0),\n",
       "  Message('note_off', channel=0, note=60, velocity=66, time=60),\n",
       "  Message('note_on', channel=0, note=65, velocity=64, time=0),\n",
       "  Message('note_off', channel=0, note=65, velocity=47, time=60),\n",
       "  Message('note_on', channel=0, note=57, velocity=64, time=0),\n",
       "  Message('note_off', channel=0, note=57, velocity=34, time=60),\n",
       "  Message('note_on', channel=0, note=60, velocity=64, time=0),\n",
       "  Message('note_off', channel=0, note=60, velocity=62, time=60),\n",
       "  Message('note_on', channel=0, note=65, velocity=64, time=0),\n",
       "  Message('note_off', channel=0, note=65, velocity=51, time=60),\n",
       "  Message('note_on', channel=0, note=57, velocity=64, time=120),\n",
       "  Message('note_off', channel=0, note=57, velocity=46, time=60),\n",
       "  Message('note_on', channel=0, note=60, velocity=64, time=0),\n",
       "  Message('note_off', channel=0, note=60, velocity=68, time=60),\n",
       "  Message('note_on', channel=0, note=65, velocity=64, time=0),\n",
       "  Message('note_off', channel=0, note=65, velocity=34, time=60),\n",
       "  Message('note_on', channel=0, note=57, velocity=64, time=0),\n",
       "  Message('note_off', channel=0, note=57, velocity=37, time=60),\n",
       "  Message('note_on', channel=0, note=60, velocity=64, time=0),\n",
       "  Message('note_off', channel=0, note=60, velocity=55, time=60),\n",
       "  Message('note_on', channel=0, note=65, velocity=64, time=0),\n",
       "  Message('note_off', channel=0, note=65, velocity=43, time=60),\n",
       "  Message('note_on', channel=0, note=55, velocity=64, time=120),\n",
       "  Message('note_off', channel=0, note=55, velocity=42, time=60),\n",
       "  Message('note_on', channel=0, note=59, velocity=64, time=0),\n",
       "  Message('note_off', channel=0, note=59, velocity=66, time=60),\n",
       "  Message('note_on', channel=0, note=65, velocity=64, time=0),\n",
       "  Message('note_off', channel=0, note=65, velocity=48, time=60),\n",
       "  Message('note_on', channel=0, note=55, velocity=64, time=0),\n",
       "  Message('note_off', channel=0, note=55, velocity=43, time=60),\n",
       "  Message('note_on', channel=0, note=59, velocity=64, time=0),\n",
       "  Message('note_off', channel=0, note=59, velocity=66, time=60),\n",
       "  Message('note_on', channel=0, note=65, velocity=64, time=0),\n",
       "  Message('note_off', channel=0, note=65, velocity=61, time=60),\n",
       "  Message('note_on', channel=0, note=55, velocity=64, time=120),\n",
       "  Message('note_off', channel=0, note=55, velocity=47, time=60),\n",
       "  Message('note_on', channel=0, note=59, velocity=64, time=0),\n",
       "  Message('note_off', channel=0, note=59, velocity=58, time=60),\n",
       "  Message('note_on', channel=0, note=65, velocity=64, time=0),\n",
       "  Message('note_off', channel=0, note=65, velocity=55, time=60),\n",
       "  Message('note_on', channel=0, note=55, velocity=64, time=0),\n",
       "  Message('note_off', channel=0, note=55, velocity=28, time=60),\n",
       "  Message('note_on', channel=0, note=59, velocity=64, time=0),\n",
       "  Message('note_off', channel=0, note=59, velocity=57, time=60),\n",
       "  Message('note_on', channel=0, note=65, velocity=64, time=0),\n",
       "  Message('note_off', channel=0, note=65, velocity=50, time=60),\n",
       "  Message('note_on', channel=0, note=55, velocity=64, time=120),\n",
       "  Message('note_off', channel=0, note=55, velocity=38, time=60),\n",
       "  Message('note_on', channel=0, note=60, velocity=64, time=0),\n",
       "  Message('note_off', channel=0, note=60, velocity=53, time=60),\n",
       "  Message('note_on', channel=0, note=64, velocity=64, time=0),\n",
       "  Message('note_off', channel=0, note=64, velocity=49, time=60),\n",
       "  Message('note_on', channel=0, note=55, velocity=64, time=0),\n",
       "  Message('note_off', channel=0, note=55, velocity=42, time=60),\n",
       "  Message('note_on', channel=0, note=60, velocity=64, time=0),\n",
       "  Message('note_off', channel=0, note=60, velocity=69, time=60),\n",
       "  Message('note_on', channel=0, note=64, velocity=64, time=0),\n",
       "  Message('note_off', channel=0, note=64, velocity=54, time=60),\n",
       "  Message('note_on', channel=0, note=55, velocity=64, time=120),\n",
       "  Message('note_off', channel=0, note=55, velocity=39, time=60),\n",
       "  Message('note_on', channel=0, note=60, velocity=64, time=0),\n",
       "  Message('note_off', channel=0, note=60, velocity=62, time=60),\n",
       "  Message('note_on', channel=0, note=64, velocity=64, time=0),\n",
       "  Message('note_off', channel=0, note=64, velocity=35, time=60),\n",
       "  Message('note_on', channel=0, note=55, velocity=64, time=0),\n",
       "  Message('note_off', channel=0, note=55, velocity=40, time=60),\n",
       "  Message('note_on', channel=0, note=60, velocity=64, time=0),\n",
       "  Message('note_off', channel=0, note=60, velocity=63, time=60),\n",
       "  Message('note_on', channel=0, note=64, velocity=64, time=0),\n",
       "  Message('note_off', channel=0, note=64, velocity=59, time=60),\n",
       "  Message('note_on', channel=0, note=58, velocity=64, time=120),\n",
       "  Message('note_off', channel=0, note=58, velocity=45, time=60),\n",
       "  Message('note_on', channel=0, note=60, velocity=64, time=0),\n",
       "  Message('note_off', channel=0, note=60, velocity=59, time=60),\n",
       "  Message('note_on', channel=0, note=64, velocity=64, time=0),\n",
       "  Message('note_off', channel=0, note=64, velocity=46, time=60),\n",
       "  Message('note_on', channel=0, note=58, velocity=64, time=0),\n",
       "  Message('note_off', channel=0, note=58, velocity=46, time=60),\n",
       "  Message('note_on', channel=0, note=60, velocity=64, time=0),\n",
       "  Message('note_off', channel=0, note=60, velocity=63, time=60),\n",
       "  Message('note_on', channel=0, note=64, velocity=64, time=0),\n",
       "  Message('note_off', channel=0, note=64, velocity=53, time=60),\n",
       "  Message('note_on', channel=0, note=58, velocity=64, time=120),\n",
       "  Message('note_off', channel=0, note=58, velocity=51, time=60),\n",
       "  Message('note_on', channel=0, note=60, velocity=64, time=0),\n",
       "  Message('note_off', channel=0, note=60, velocity=58, time=60),\n",
       "  Message('note_on', channel=0, note=64, velocity=64, time=0),\n",
       "  Message('note_off', channel=0, note=64, velocity=33, time=60),\n",
       "  Message('note_on', channel=0, note=58, velocity=64, time=0),\n",
       "  Message('note_off', channel=0, note=58, velocity=47, time=60),\n",
       "  Message('note_on', channel=0, note=60, velocity=64, time=0),\n",
       "  Message('note_off', channel=0, note=60, velocity=61, time=60),\n",
       "  Message('note_on', channel=0, note=64, velocity=64, time=0),\n",
       "  Message('note_off', channel=0, note=64, velocity=30, time=60),\n",
       "  Message('note_on', channel=0, note=57, velocity=64, time=120),\n",
       "  Message('note_off', channel=0, note=57, velocity=44, time=60),\n",
       "  Message('note_on', channel=0, note=60, velocity=64, time=0),\n",
       "  Message('note_off', channel=0, note=60, velocity=59, time=60),\n",
       "  Message('note_on', channel=0, note=64, velocity=64, time=0),\n",
       "  Message('note_off', channel=0, note=64, velocity=46, time=60),\n",
       "  Message('note_on', channel=0, note=57, velocity=64, time=0),\n",
       "  Message('note_off', channel=0, note=57, velocity=47, time=60),\n",
       "  Message('note_on', channel=0, note=60, velocity=64, time=0),\n",
       "  Message('note_off', channel=0, note=60, velocity=59, time=60),\n",
       "  Message('note_on', channel=0, note=64, velocity=64, time=0),\n",
       "  Message('note_off', channel=0, note=64, velocity=53, time=60),\n",
       "  Message('note_on', channel=0, note=57, velocity=64, time=120),\n",
       "  Message('note_off', channel=0, note=57, velocity=43, time=60),\n",
       "  Message('note_on', channel=0, note=60, velocity=64, time=0),\n",
       "  Message('note_off', channel=0, note=60, velocity=49, time=60),\n",
       "  Message('note_on', channel=0, note=64, velocity=64, time=0),\n",
       "  Message('note_off', channel=0, note=64, velocity=42, time=60),\n",
       "  Message('note_on', channel=0, note=57, velocity=64, time=0),\n",
       "  Message('note_off', channel=0, note=57, velocity=27, time=60),\n",
       "  Message('note_on', channel=0, note=60, velocity=64, time=0),\n",
       "  Message('note_off', channel=0, note=60, velocity=65, time=60),\n",
       "  Message('note_on', channel=0, note=64, velocity=64, time=0),\n",
       "  Message('note_off', channel=0, note=64, velocity=55, time=60),\n",
       "  Message('note_on', channel=0, note=57, velocity=64, time=120),\n",
       "  Message('note_off', channel=0, note=57, velocity=36, time=60),\n",
       "  Message('note_on', channel=0, note=60, velocity=64, time=0),\n",
       "  Message('note_off', channel=0, note=60, velocity=55, time=60),\n",
       "  Message('note_on', channel=0, note=63, velocity=64, time=0),\n",
       "  Message('note_off', channel=0, note=63, velocity=51, time=60),\n",
       "  Message('note_on', channel=0, note=57, velocity=64, time=0),\n",
       "  Message('note_off', channel=0, note=57, velocity=38, time=60),\n",
       "  Message('note_on', channel=0, note=60, velocity=64, time=0),\n",
       "  Message('note_off', channel=0, note=60, velocity=59, time=60),\n",
       "  Message('note_on', channel=0, note=63, velocity=64, time=0),\n",
       "  Message('note_off', channel=0, note=63, velocity=65, time=60),\n",
       "  Message('note_on', channel=0, note=57, velocity=64, time=120),\n",
       "  Message('note_off', channel=0, note=57, velocity=49, time=60),\n",
       "  Message('note_on', channel=0, note=60, velocity=64, time=0),\n",
       "  Message('note_off', channel=0, note=60, velocity=58, time=60),\n",
       "  Message('note_on', channel=0, note=63, velocity=64, time=0),\n",
       "  Message('note_off', channel=0, note=63, velocity=52, time=60),\n",
       "  Message('note_on', channel=0, note=57, velocity=64, time=0),\n",
       "  Message('note_off', channel=0, note=57, velocity=37, time=60),\n",
       "  Message('note_on', channel=0, note=60, velocity=64, time=0),\n",
       "  Message('note_off', channel=0, note=60, velocity=59, time=60),\n",
       "  Message('note_on', channel=0, note=63, velocity=64, time=0),\n",
       "  Message('note_off', channel=0, note=63, velocity=65, time=60),\n",
       "  Message('note_on', channel=0, note=59, velocity=64, time=120),\n",
       "  Message('note_off', channel=0, note=59, velocity=50, time=60),\n",
       "  Message('note_on', channel=0, note=60, velocity=64, time=0),\n",
       "  Message('note_off', channel=0, note=60, velocity=63, time=60),\n",
       "  Message('note_on', channel=0, note=62, velocity=64, time=0),\n",
       "  Message('note_off', channel=0, note=62, velocity=57, time=60),\n",
       "  Message('note_on', channel=0, note=59, velocity=64, time=0),\n",
       "  Message('note_off', channel=0, note=59, velocity=42, time=60),\n",
       "  Message('note_on', channel=0, note=60, velocity=64, time=0),\n",
       "  Message('note_off', channel=0, note=60, velocity=73, time=60),\n",
       "  Message('note_on', channel=0, note=62, velocity=64, time=0),\n",
       "  Message('note_off', channel=0, note=62, velocity=69, time=60),\n",
       "  Message('note_on', channel=0, note=59, velocity=64, time=120),\n",
       "  Message('note_off', channel=0, note=59, velocity=50, time=60),\n",
       "  Message('note_on', channel=0, note=60, velocity=64, time=0),\n",
       "  Message('note_off', channel=0, note=60, velocity=70, time=60),\n",
       "  Message('note_on', channel=0, note=62, velocity=64, time=0),\n",
       "  Message('note_off', channel=0, note=62, velocity=58, time=60),\n",
       "  Message('note_on', channel=0, note=59, velocity=64, time=0),\n",
       "  Message('note_off', channel=0, note=59, velocity=43, time=60),\n",
       "  Message('note_on', channel=0, note=60, velocity=64, time=0),\n",
       "  Message('note_off', channel=0, note=60, velocity=65, time=60),\n",
       "  Message('note_on', channel=0, note=62, velocity=64, time=0),\n",
       "  Message('note_off', channel=0, note=62, velocity=65, time=60),\n",
       "  Message('note_on', channel=0, note=55, velocity=64, time=120),\n",
       "  Message('note_off', channel=0, note=55, velocity=52, time=60),\n",
       "  Message('note_on', channel=0, note=59, velocity=64, time=0),\n",
       "  Message('note_off', channel=0, note=59, velocity=54, time=60),\n",
       "  Message('note_on', channel=0, note=62, velocity=64, time=0),\n",
       "  Message('note_off', channel=0, note=62, velocity=51, time=60),\n",
       "  Message('note_on', channel=0, note=55, velocity=64, time=0),\n",
       "  Message('note_off', channel=0, note=55, velocity=43, time=60),\n",
       "  Message('note_on', channel=0, note=59, velocity=64, time=0),\n",
       "  Message('note_off', channel=0, note=59, velocity=68, time=60),\n",
       "  Message('note_on', channel=0, note=62, velocity=64, time=0),\n",
       "  Message('note_off', channel=0, note=62, velocity=65, time=60),\n",
       "  Message('note_on', channel=0, note=55, velocity=64, time=120),\n",
       "  Message('note_off', channel=0, note=55, velocity=40, time=60),\n",
       "  Message('note_on', channel=0, note=59, velocity=64, time=0),\n",
       "  Message('note_off', channel=0, note=59, velocity=50, time=60),\n",
       "  Message('note_on', channel=0, note=62, velocity=64, time=0),\n",
       "  Message('note_off', channel=0, note=62, velocity=51, time=60),\n",
       "  Message('note_on', channel=0, note=55, velocity=64, time=0),\n",
       "  Message('note_off', channel=0, note=55, velocity=41, time=60),\n",
       "  Message('note_on', channel=0, note=59, velocity=64, time=0),\n",
       "  Message('note_off', channel=0, note=59, velocity=52, time=60),\n",
       "  Message('note_on', channel=0, note=62, velocity=64, time=0),\n",
       "  Message('note_off', channel=0, note=62, velocity=58, time=60),\n",
       "  Message('note_on', channel=0, note=55, velocity=64, time=120),\n",
       "  Message('note_off', channel=0, note=55, velocity=43, time=60),\n",
       "  Message('note_on', channel=0, note=60, velocity=64, time=0),\n",
       "  Message('note_off', channel=0, note=60, velocity=51, time=60),\n",
       "  Message('note_on', channel=0, note=64, velocity=64, time=0),\n",
       "  Message('note_off', channel=0, note=64, velocity=48, time=60),\n",
       "  Message('note_on', channel=0, note=55, velocity=64, time=0),\n",
       "  Message('note_off', channel=0, note=55, velocity=50, time=60),\n",
       "  Message('note_on', channel=0, note=60, velocity=64, time=0),\n",
       "  Message('note_off', channel=0, note=60, velocity=59, time=60),\n",
       "  Message('note_on', channel=0, note=64, velocity=64, time=0),\n",
       "  Message('note_off', channel=0, note=64, velocity=58, time=60),\n",
       "  Message('note_on', channel=0, note=55, velocity=64, time=120),\n",
       "  Message('note_off', channel=0, note=55, velocity=36, time=60),\n",
       "  Message('note_on', channel=0, note=60, velocity=64, time=0),\n",
       "  Message('note_off', channel=0, note=60, velocity=59, time=60),\n",
       "  Message('note_on', channel=0, note=64, velocity=64, time=0),\n",
       "  Message('note_off', channel=0, note=64, velocity=46, time=60),\n",
       "  Message('note_on', channel=0, note=55, velocity=64, time=0),\n",
       "  Message('note_off', channel=0, note=55, velocity=17, time=60),\n",
       "  Message('note_on', channel=0, note=60, velocity=64, time=0),\n",
       "  Message('note_off', channel=0, note=60, velocity=59, time=60),\n",
       "  Message('note_on', channel=0, note=64, velocity=64, time=0),\n",
       "  Message('note_off', channel=0, note=64, velocity=55, time=60),\n",
       "  Message('note_on', channel=0, note=55, velocity=64, time=120),\n",
       "  Message('note_off', channel=0, note=55, velocity=49, time=60),\n",
       "  Message('note_on', channel=0, note=60, velocity=64, time=0),\n",
       "  Message('note_off', channel=0, note=60, velocity=68, time=60),\n",
       "  Message('note_on', channel=0, note=65, velocity=64, time=0),\n",
       "  Message('note_off', channel=0, note=65, velocity=49, time=60),\n",
       "  Message('note_on', channel=0, note=55, velocity=64, time=0),\n",
       "  Message('note_off', channel=0, note=55, velocity=45, time=60),\n",
       "  Message('note_on', channel=0, note=60, velocity=64, time=0),\n",
       "  Message('note_off', channel=0, note=60, velocity=54, time=60),\n",
       "  Message('note_on', channel=0, note=65, velocity=64, time=0),\n",
       "  Message('note_off', channel=0, note=65, velocity=65, time=60),\n",
       "  Message('note_on', channel=0, note=55, velocity=64, time=120),\n",
       "  Message('note_off', channel=0, note=55, velocity=42, time=60),\n",
       "  Message('note_on', channel=0, note=60, velocity=64, time=0),\n",
       "  Message('note_off', channel=0, note=60, velocity=62, time=60),\n",
       "  Message('note_on', channel=0, note=65, velocity=64, time=0),\n",
       "  Message('note_off', channel=0, note=65, velocity=57, time=60),\n",
       "  Message('note_on', channel=0, note=55, velocity=64, time=0),\n",
       "  Message('note_off', channel=0, note=55, velocity=36, time=60),\n",
       "  Message('note_on', channel=0, note=60, velocity=64, time=0),\n",
       "  Message('note_off', channel=0, note=60, velocity=51, time=60),\n",
       "  Message('note_on', channel=0, note=65, velocity=64, time=0),\n",
       "  Message('note_off', channel=0, note=65, velocity=44, time=60),\n",
       "  Message('note_on', channel=0, note=55, velocity=64, time=120),\n",
       "  Message('note_off', channel=0, note=55, velocity=27, time=60),\n",
       "  Message('note_on', channel=0, note=59, velocity=64, time=0),\n",
       "  Message('note_off', channel=0, note=59, velocity=52, time=60),\n",
       "  Message('note_on', channel=0, note=65, velocity=64, time=0),\n",
       "  Message('note_off', channel=0, note=65, velocity=48, time=60),\n",
       "  Message('note_on', channel=0, note=55, velocity=64, time=0),\n",
       "  Message('note_off', channel=0, note=55, velocity=28, time=60),\n",
       "  Message('note_on', channel=0, note=59, velocity=64, time=0),\n",
       "  Message('note_off', channel=0, note=59, velocity=69, time=60),\n",
       "  Message('note_on', channel=0, note=65, velocity=64, time=0),\n",
       "  Message('note_off', channel=0, note=65, velocity=47, time=60),\n",
       "  Message('note_on', channel=0, note=55, velocity=64, time=120),\n",
       "  Message('note_off', channel=0, note=55, velocity=40, time=60),\n",
       "  Message('note_on', channel=0, note=59, velocity=64, time=0),\n",
       "  Message('note_off', channel=0, note=59, velocity=55, time=60),\n",
       "  Message('note_on', channel=0, note=65, velocity=64, time=0),\n",
       "  Message('note_off', channel=0, note=65, velocity=58, time=60),\n",
       "  Message('note_on', channel=0, note=55, velocity=64, time=0),\n",
       "  Message('note_off', channel=0, note=55, velocity=35, time=60),\n",
       "  Message('note_on', channel=0, note=59, velocity=64, time=0),\n",
       "  Message('note_off', channel=0, note=59, velocity=55, time=60),\n",
       "  Message('note_on', channel=0, note=65, velocity=64, time=0),\n",
       "  Message('note_off', channel=0, note=65, velocity=59, time=60),\n",
       "  Message('note_on', channel=0, note=57, velocity=64, time=120),\n",
       "  Message('note_off', channel=0, note=57, velocity=39, time=60),\n",
       "  Message('note_on', channel=0, note=60, velocity=64, time=0),\n",
       "  Message('note_off', channel=0, note=60, velocity=68, time=60),\n",
       "  Message('note_on', channel=0, note=66, velocity=64, time=0),\n",
       "  Message('note_off', channel=0, note=66, velocity=39, time=60),\n",
       "  Message('note_on', channel=0, note=57, velocity=64, time=0),\n",
       "  Message('note_off', channel=0, note=57, velocity=50, time=60),\n",
       "  Message('note_on', channel=0, note=60, velocity=64, time=0),\n",
       "  Message('note_off', channel=0, note=60, velocity=47, time=60),\n",
       "  Message('note_on', channel=0, note=66, velocity=64, time=0),\n",
       "  Message('note_off', channel=0, note=66, velocity=74, time=60),\n",
       "  Message('note_on', channel=0, note=57, velocity=64, time=120),\n",
       "  Message('note_off', channel=0, note=57, velocity=42, time=60),\n",
       "  Message('note_on', channel=0, note=60, velocity=64, time=0),\n",
       "  Message('note_off', channel=0, note=60, velocity=57, time=60),\n",
       "  Message('note_on', channel=0, note=66, velocity=64, time=0),\n",
       "  Message('note_off', channel=0, note=66, velocity=68, time=60),\n",
       "  Message('note_on', channel=0, note=57, velocity=64, time=0),\n",
       "  Message('note_off', channel=0, note=57, velocity=39, time=60),\n",
       "  Message('note_on', channel=0, note=60, velocity=64, time=0),\n",
       "  Message('note_off', channel=0, note=60, velocity=66, time=60),\n",
       "  Message('note_on', channel=0, note=66, velocity=64, time=0),\n",
       "  Message('note_off', channel=0, note=66, velocity=68, time=60),\n",
       "  Message('note_on', channel=0, note=55, velocity=64, time=120),\n",
       "  Message('note_off', channel=0, note=55, velocity=38, time=60),\n",
       "  Message('note_on', channel=0, note=60, velocity=64, time=0),\n",
       "  Message('note_off', channel=0, note=60, velocity=57, time=60),\n",
       "  Message('note_on', channel=0, note=67, velocity=64, time=0),\n",
       "  Message('note_off', channel=0, note=67, velocity=43, time=60),\n",
       "  Message('note_on', channel=0, note=55, velocity=64, time=0),\n",
       "  Message('note_off', channel=0, note=55, velocity=30, time=60),\n",
       "  Message('note_on', channel=0, note=60, velocity=64, time=0),\n",
       "  Message('note_off', channel=0, note=60, velocity=53, time=60),\n",
       "  Message('note_on', channel=0, note=67, velocity=64, time=0),\n",
       "  Message('note_off', channel=0, note=67, velocity=46, time=60),\n",
       "  Message('note_on', channel=0, note=55, velocity=64, time=120),\n",
       "  Message('note_off', channel=0, note=55, velocity=47, time=60),\n",
       "  Message('note_on', channel=0, note=60, velocity=64, time=0),\n",
       "  Message('note_off', channel=0, note=60, velocity=59, time=60),\n",
       "  Message('note_on', channel=0, note=67, velocity=64, time=0),\n",
       "  Message('note_off', channel=0, note=67, velocity=48, time=60),\n",
       "  Message('note_on', channel=0, note=55, velocity=64, time=0),\n",
       "  Message('note_off', channel=0, note=55, velocity=46, time=60),\n",
       "  Message('note_on', channel=0, note=60, velocity=64, time=0),\n",
       "  Message('note_off', channel=0, note=60, velocity=62, time=60),\n",
       "  Message('note_on', channel=0, note=67, velocity=64, time=0),\n",
       "  Message('note_off', channel=0, note=67, velocity=54, time=60),\n",
       "  Message('note_on', channel=0, note=55, velocity=64, time=120),\n",
       "  Message('note_off', channel=0, note=55, velocity=34, time=60),\n",
       "  Message('note_on', channel=0, note=60, velocity=64, time=0),\n",
       "  Message('note_off', channel=0, note=60, velocity=65, time=60),\n",
       "  Message('note_on', channel=0, note=65, velocity=64, time=0),\n",
       "  Message('note_off', channel=0, note=65, velocity=47, time=60),\n",
       "  Message('note_on', channel=0, note=55, velocity=64, time=0),\n",
       "  Message('note_off', channel=0, note=55, velocity=14, time=60),\n",
       "  Message('note_on', channel=0, note=60, velocity=64, time=0),\n",
       "  Message('note_off', channel=0, note=60, velocity=44, time=60),\n",
       "  Message('note_on', channel=0, note=65, velocity=64, time=0),\n",
       "  Message('note_off', channel=0, note=65, velocity=52, time=60),\n",
       "  Message('note_on', channel=0, note=55, velocity=64, time=120),\n",
       "  Message('note_off', channel=0, note=55, velocity=47, time=60),\n",
       "  Message('note_on', channel=0, note=60, velocity=64, time=0),\n",
       "  Message('note_off', channel=0, note=60, velocity=61, time=60),\n",
       "  Message('note_on', channel=0, note=65, velocity=64, time=0),\n",
       "  Message('note_off', channel=0, note=65, velocity=38, time=60),\n",
       "  Message('note_on', channel=0, note=55, velocity=64, time=0),\n",
       "  Message('note_off', channel=0, note=55, velocity=34, time=60),\n",
       "  Message('note_on', channel=0, note=60, velocity=64, time=0),\n",
       "  Message('note_off', channel=0, note=60, velocity=68, time=60),\n",
       "  Message('note_on', channel=0, note=65, velocity=64, time=0),\n",
       "  Message('note_off', channel=0, note=65, velocity=48, time=60),\n",
       "  Message('note_on', channel=0, note=55, velocity=64, time=120),\n",
       "  Message('note_off', channel=0, note=55, velocity=40, time=60),\n",
       "  Message('note_on', channel=0, note=59, velocity=64, time=0),\n",
       "  Message('note_off', channel=0, note=59, velocity=53, time=60),\n",
       "  Message('note_on', channel=0, note=65, velocity=64, time=0),\n",
       "  Message('note_off', channel=0, note=65, velocity=53, time=60),\n",
       "  Message('note_on', channel=0, note=55, velocity=64, time=0),\n",
       "  Message('note_off', channel=0, note=55, velocity=45, time=60),\n",
       "  Message('note_on', channel=0, note=59, velocity=64, time=0),\n",
       "  Message('note_off', channel=0, note=59, velocity=69, time=60),\n",
       "  Message('note_on', channel=0, note=65, velocity=64, time=0),\n",
       "  Message('note_off', channel=0, note=65, velocity=55, time=60),\n",
       "  Message('note_on', channel=0, note=55, velocity=64, time=120),\n",
       "  Message('note_off', channel=0, note=55, velocity=34, time=60),\n",
       "  Message('note_on', channel=0, note=59, velocity=64, time=0),\n",
       "  Message('note_off', channel=0, note=59, velocity=55, time=60),\n",
       "  Message('note_on', channel=0, note=65, velocity=64, time=0),\n",
       "  Message('note_off', channel=0, note=65, velocity=52, time=60),\n",
       "  Message('note_on', channel=0, note=55, velocity=64, time=0),\n",
       "  Message('note_off', channel=0, note=55, velocity=43, time=60),\n",
       "  Message('note_on', channel=0, note=59, velocity=64, time=0),\n",
       "  Message('note_off', channel=0, note=59, velocity=58, time=60),\n",
       "  Message('note_on', channel=0, note=65, velocity=64, time=0),\n",
       "  Message('note_off', channel=0, note=65, velocity=49, time=60),\n",
       "  Message('note_on', channel=0, note=55, velocity=64, time=120),\n",
       "  Message('note_off', channel=0, note=55, velocity=22, time=60),\n",
       "  Message('note_on', channel=0, note=58, velocity=64, time=0),\n",
       "  Message('note_off', channel=0, note=58, velocity=69, time=60),\n",
       "  Message('note_on', channel=0, note=64, velocity=64, time=0),\n",
       "  Message('note_off', channel=0, note=64, velocity=34, time=60),\n",
       "  Message('note_on', channel=0, note=55, velocity=64, time=0),\n",
       "  Message('note_off', channel=0, note=55, velocity=45, time=60),\n",
       "  Message('note_on', channel=0, note=58, velocity=64, time=0),\n",
       "  Message('note_off', channel=0, note=58, velocity=62, time=60),\n",
       "  Message('note_on', channel=0, note=64, velocity=64, time=0),\n",
       "  Message('note_off', channel=0, note=64, velocity=49, time=60),\n",
       "  Message('note_on', channel=0, note=55, velocity=64, time=120),\n",
       "  Message('note_off', channel=0, note=55, velocity=38, time=60),\n",
       "  Message('note_on', channel=0, note=58, velocity=64, time=0),\n",
       "  Message('note_off', channel=0, note=58, velocity=58, time=60),\n",
       "  Message('note_on', channel=0, note=64, velocity=64, time=0),\n",
       "  Message('note_off', channel=0, note=64, velocity=46, time=60),\n",
       "  Message('note_on', channel=0, note=55, velocity=64, time=0),\n",
       "  Message('note_off', channel=0, note=55, velocity=34, time=60),\n",
       "  Message('note_on', channel=0, note=58, velocity=64, time=0),\n",
       "  Message('note_off', channel=0, note=58, velocity=57, time=60),\n",
       "  Message('note_on', channel=0, note=64, velocity=64, time=0),\n",
       "  Message('note_off', channel=0, note=64, velocity=52, time=60),\n",
       "  Message('note_on', channel=0, note=53, velocity=64, time=120),\n",
       "  Message('note_off', channel=0, note=53, velocity=34, time=60),\n",
       "  Message('note_on', channel=0, note=57, velocity=64, time=0),\n",
       "  Message('note_off', channel=0, note=57, velocity=20, time=60),\n",
       "  Message('note_on', channel=0, note=60, velocity=64, time=0),\n",
       "  Message('note_off', channel=0, note=60, velocity=63, time=60),\n",
       "  Message('note_on', channel=0, note=65, velocity=64, time=0),\n",
       "  Message('note_off', channel=0, note=65, velocity=46, time=60),\n",
       "  Message('note_on', channel=0, note=60, velocity=64, time=0),\n",
       "  Message('note_off', channel=0, note=60, velocity=58, time=60),\n",
       "  Message('note_on', channel=0, note=57, velocity=64, time=0),\n",
       "  Message('note_off', channel=0, note=57, velocity=46, time=60),\n",
       "  Message('note_on', channel=0, note=60, velocity=64, time=0),\n",
       "  Message('note_off', channel=0, note=60, velocity=64, time=60),\n",
       "  Message('note_on', channel=0, note=57, velocity=64, time=0),\n",
       "  Message('note_off', channel=0, note=57, velocity=64, time=60),\n",
       "  Message('note_on', channel=0, note=53, velocity=64, time=0),\n",
       "  Message('note_off', channel=0, note=53, velocity=64, time=60),\n",
       "  Message('note_on', channel=0, note=57, velocity=64, time=0),\n",
       "  Message('note_off', channel=0, note=57, velocity=64, time=60),\n",
       "  Message('note_on', channel=0, note=53, velocity=64, time=0),\n",
       "  Message('note_off', channel=0, note=53, velocity=64, time=60),\n",
       "  Message('note_on', channel=0, note=50, velocity=64, time=0),\n",
       "  Message('note_off', channel=0, note=50, velocity=64, time=60),\n",
       "  Message('note_on', channel=0, note=53, velocity=64, time=0),\n",
       "  Message('note_off', channel=0, note=53, velocity=64, time=60),\n",
       "  Message('note_on', channel=0, note=50, velocity=64, time=0),\n",
       "  Message('note_off', channel=0, note=50, velocity=64, time=60),\n",
       "  Message('note_on', channel=0, note=67, velocity=64, time=120),\n",
       "  Message('note_off', channel=0, note=67, velocity=28, time=60),\n",
       "  Message('note_on', channel=0, note=71, velocity=64, time=0),\n",
       "  Message('note_off', channel=0, note=71, velocity=62, time=60),\n",
       "  Message('note_on', channel=0, note=74, velocity=64, time=0),\n",
       "  Message('note_off', channel=0, note=74, velocity=53, time=60),\n",
       "  Message('note_on', channel=0, note=77, velocity=64, time=0),\n",
       "  Message('note_off', channel=0, note=77, velocity=55, time=60),\n",
       "  Message('note_on', channel=0, note=74, velocity=64, time=0),\n",
       "  Message('note_off', channel=0, note=74, velocity=61, time=60),\n",
       "  Message('note_on', channel=0, note=71, velocity=64, time=0),\n",
       "  Message('note_off', channel=0, note=71, velocity=69, time=60),\n",
       "  Message('note_on', channel=0, note=74, velocity=64, time=0),\n",
       "  Message('note_off', channel=0, note=74, velocity=55, time=60),\n",
       "  Message('note_on', channel=0, note=71, velocity=64, time=0),\n",
       "  Message('note_off', channel=0, note=71, velocity=74, time=60),\n",
       "  Message('note_on', channel=0, note=67, velocity=64, time=0),\n",
       "  Message('note_off', channel=0, note=67, velocity=52, time=60),\n",
       "  Message('note_on', channel=0, note=71, velocity=64, time=0),\n",
       "  Message('note_off', channel=0, note=71, velocity=80, time=60),\n",
       "  Message('note_on', channel=0, note=62, velocity=64, time=0),\n",
       "  Message('note_off', channel=0, note=62, velocity=49, time=60),\n",
       "  Message('note_on', channel=0, note=65, velocity=64, time=0),\n",
       "  Message('note_off', channel=0, note=65, velocity=58, time=60),\n",
       "  Message('note_on', channel=0, note=64, velocity=64, time=0),\n",
       "  Message('note_on', channel=0, note=65, velocity=64, time=12),\n",
       "  Message('note_off', channel=0, note=64, velocity=64, time=3),\n",
       "  Message('note_off', channel=0, note=65, velocity=64, time=12),\n",
       "  Message('note_on', channel=0, note=64, velocity=64, time=1),\n",
       "  Message('note_off', channel=0, note=64, velocity=64, time=30),\n",
       "  Message('note_on', channel=0, note=62, velocity=64, time=2),\n",
       "  Message('note_off', channel=0, note=62, velocity=68, time=60),\n",
       "  Message('note_on', channel=0, note=64, velocity=64, time=0),\n",
       "  Message('note_on', channel=0, note=67, velocity=64, time=0),\n",
       "  Message('note_on', channel=0, note=72, velocity=64, time=0),\n",
       "  Message('note_off', channel=0, note=72, velocity=86, time=960),\n",
       "  Message('note_off', channel=0, note=67, velocity=66, time=0),\n",
       "  Message('note_off', channel=0, note=64, velocity=65, time=0),\n",
       "  MetaMessage('end_of_track', time=0)])"
      ]
     },
     "execution_count": 279,
     "metadata": {},
     "output_type": "execute_result"
    }
   ],
   "source": [
    "mid.tracks[1]"
   ]
  },
  {
   "cell_type": "code",
   "execution_count": 243,
   "id": "0d439d3d",
   "metadata": {
    "scrolled": false
   },
   "outputs": [
    {
     "name": "stdout",
     "output_type": "stream",
     "text": [
      "Track 1: \n",
      "Track 2: \n",
      "['note_off' 'note_on']\n",
      "[]\n",
      "7935\n",
      "417\n",
      "============================\n",
      "============================\n",
      "Track 3: \n",
      "['note_off' 'note_on']\n",
      "[]\n",
      "4738\n",
      "134\n",
      "============================\n",
      "============================\n"
     ]
    }
   ],
   "source": [
    "for idx, track in enumerate(mid.tracks):\n",
    "    print(f\"Track {idx + 1}: {track.name}\")\n",
    "    \n",
    "    track_dict = distribute_msg(track)\n",
    "    \n",
    "    if len(track_dict['Message'])==0:\n",
    "        continue;\n",
    "        \n",
    "    track_msg = track_dict['Message']\n",
    "    \n",
    "    df = pd.DataFrame()\n",
    "    \n",
    "    #  msg.type == note_on 에 대해서만\n",
    "    msg_type = []\n",
    "    \n",
    "    msg_note = []\n",
    "    msg_channel = []\n",
    "    msg_velocity = []\n",
    "    msg_interval = []\n",
    "    \n",
    "    \n",
    "    msg_pitch = []\n",
    "    \n",
    "    msg_control = []\n",
    "    msg_wheel = []\n",
    "    msg_pedal = []\n",
    "    \n",
    "    msg_time = [0] # 1분 18초 = 78초\n",
    "    \n",
    "    msg_off = []\n",
    "    msg_con = []\n",
    "    \n",
    "    for msg in track_msg:\n",
    "        \n",
    "        # note off : note_on and velocity == 0\n",
    "        if msg.type == 'note_on' and msg.velocity == 0:\n",
    "            msg_typ = 'note_off'\n",
    "        else:\n",
    "            msg_typ = msg.type\n",
    "            \n",
    "        msg_type.append(msg_typ)\n",
    "        \n",
    "                \n",
    "        if msg_typ == 'note_on':\n",
    "            \n",
    "            time = msg.time + msg_time[-1]\n",
    "            msg_time.append(time)\n",
    "            \n",
    "            #print(\"NOON\", time, msg)\n",
    "        \n",
    "            msg_note.append(msg.note)\n",
    "            msg_channel.append(msg.channel)\n",
    "            msg_velocity.append(msg.velocity)\n",
    "            msg_interval.append(msg.time) ## 이전 이벤트와의 간격\n",
    "        \n",
    "        elif msg_typ == 'note_off':\n",
    "            time = msg.time + msg_time[-1]\n",
    "            msg_off.append(time)\n",
    "            \n",
    "        elif msg_typ == 'pitchwheel':\n",
    "            msg_pitch.append(msg.pitch)\n",
    "        \n",
    "        elif msg_typ == 'control_change':\n",
    "            #print(msg.control, msg.value)\n",
    "            msg_control.append(msg.control)\n",
    "            time = msg.time + msg_time[-1]\n",
    "            msg_con.append(time)\n",
    "            print(\"C\", time, msg)\n",
    "            \n",
    "        elif msg_typ == 'program_change':\n",
    "            print(\"PRPRPRP\", time, msg)\n",
    "        \n",
    "            \n",
    "    msg_time = msg_time[1:]\n",
    "            \n",
    "    \n",
    "    print(np.unique(msg_type))\n",
    "    print(np.unique(msg_control))\n",
    "    print(msg_time[-1])\n",
    "    print(len(msg_time))\n",
    "\n",
    "    print(\"============================\")\n",
    "    #print(msg_off)\n",
    "    #print(msg_con)\n",
    "    print(\"============================\")\n",
    "            \n"
   ]
  },
  {
   "cell_type": "code",
   "execution_count": 230,
   "id": "ab0cd575",
   "metadata": {
    "scrolled": false
   },
   "outputs": [],
   "source": [
    "def initialize_note_ticks():\n",
    "    tick_type = []\n",
    "    tick_note = []\n",
    "    tick_chan = []\n",
    "    tick_velo = []\n",
    "    \n",
    "    return tick_type, tick_note, tick_chan, tick_velo\n",
    "\n",
    "def initialize_ctl_ticks():\n",
    "    tick_chan = []\n",
    "    tick_ctl  = []\n",
    "    tick_val  = []\n",
    "    \n",
    "    return tick_chan, tick_ctl, tick_val\n",
    "\n",
    "def initialize_prog_ticks():\n",
    "    tick_chan = []\n",
    "    tick_prog  = []\n",
    "    \n",
    "    return tick_chan, tick_prog"
   ]
  },
  {
   "cell_type": "code",
   "execution_count": 301,
   "id": "9da6efbc",
   "metadata": {},
   "outputs": [
    {
     "name": "stdout",
     "output_type": "stream",
     "text": [
      "Track 1: He's A Pirate\n",
      "Track 2: Right Hand\n",
      "44174\n"
     ]
    },
    {
     "data": {
      "text/html": [
       "<div>\n",
       "<style scoped>\n",
       "    .dataframe tbody tr th:only-of-type {\n",
       "        vertical-align: middle;\n",
       "    }\n",
       "\n",
       "    .dataframe tbody tr th {\n",
       "        vertical-align: top;\n",
       "    }\n",
       "\n",
       "    .dataframe thead th {\n",
       "        text-align: right;\n",
       "    }\n",
       "</style>\n",
       "<table border=\"1\" class=\"dataframe\">\n",
       "  <thead>\n",
       "    <tr style=\"text-align: right;\">\n",
       "      <th></th>\n",
       "      <th>tick</th>\n",
       "      <th>msg_velocity</th>\n",
       "      <th>count</th>\n",
       "      <th>msg_type</th>\n",
       "      <th>msg_channel</th>\n",
       "      <th>msg_note</th>\n",
       "    </tr>\n",
       "  </thead>\n",
       "  <tbody>\n",
       "    <tr>\n",
       "      <th>1</th>\n",
       "      <td>192</td>\n",
       "      <td>[110, 0]</td>\n",
       "      <td>2</td>\n",
       "      <td>[note_on, note_off]</td>\n",
       "      <td>[0, 0]</td>\n",
       "      <td>[62, 62]</td>\n",
       "    </tr>\n",
       "    <tr>\n",
       "      <th>2</th>\n",
       "      <td>286</td>\n",
       "      <td>[110]</td>\n",
       "      <td>1</td>\n",
       "      <td>[note_on]</td>\n",
       "      <td>[0]</td>\n",
       "      <td>[62]</td>\n",
       "    </tr>\n",
       "    <tr>\n",
       "      <th>3</th>\n",
       "      <td>288</td>\n",
       "      <td>[0]</td>\n",
       "      <td>1</td>\n",
       "      <td>[note_off]</td>\n",
       "      <td>[0]</td>\n",
       "      <td>[62]</td>\n",
       "    </tr>\n",
       "    <tr>\n",
       "      <th>4</th>\n",
       "      <td>448</td>\n",
       "      <td>[110]</td>\n",
       "      <td>1</td>\n",
       "      <td>[note_on]</td>\n",
       "      <td>[0]</td>\n",
       "      <td>[62]</td>\n",
       "    </tr>\n",
       "    <tr>\n",
       "      <th>5</th>\n",
       "      <td>480</td>\n",
       "      <td>[0]</td>\n",
       "      <td>1</td>\n",
       "      <td>[note_off]</td>\n",
       "      <td>[0]</td>\n",
       "      <td>[62]</td>\n",
       "    </tr>\n",
       "    <tr>\n",
       "      <th>...</th>\n",
       "      <td>...</td>\n",
       "      <td>...</td>\n",
       "      <td>...</td>\n",
       "      <td>...</td>\n",
       "      <td>...</td>\n",
       "      <td>...</td>\n",
       "    </tr>\n",
       "    <tr>\n",
       "      <th>462</th>\n",
       "      <td>42158</td>\n",
       "      <td>[110, 110]</td>\n",
       "      <td>2</td>\n",
       "      <td>[note_on, note_on]</td>\n",
       "      <td>[0, 0]</td>\n",
       "      <td>[69, 76]</td>\n",
       "    </tr>\n",
       "    <tr>\n",
       "      <th>463</th>\n",
       "      <td>42414</td>\n",
       "      <td>[0, 0, 110, 110, 110]</td>\n",
       "      <td>5</td>\n",
       "      <td>[note_off, note_off, note_on, note_on, note_on]</td>\n",
       "      <td>[0, 0, 0, 0, 0]</td>\n",
       "      <td>[69, 76, 65, 69, 74]</td>\n",
       "    </tr>\n",
       "    <tr>\n",
       "      <th>464</th>\n",
       "      <td>42734</td>\n",
       "      <td>[0, 0, 0]</td>\n",
       "      <td>3</td>\n",
       "      <td>[note_off, note_off, note_off]</td>\n",
       "      <td>[0, 0, 0]</td>\n",
       "      <td>[65, 69, 74]</td>\n",
       "    </tr>\n",
       "    <tr>\n",
       "      <th>465</th>\n",
       "      <td>43454</td>\n",
       "      <td>[110]</td>\n",
       "      <td>1</td>\n",
       "      <td>[note_on]</td>\n",
       "      <td>[0]</td>\n",
       "      <td>[62]</td>\n",
       "    </tr>\n",
       "    <tr>\n",
       "      <th>466</th>\n",
       "      <td>44174</td>\n",
       "      <td>[0]</td>\n",
       "      <td>1</td>\n",
       "      <td>[note_off]</td>\n",
       "      <td>[0]</td>\n",
       "      <td>[62]</td>\n",
       "    </tr>\n",
       "  </tbody>\n",
       "</table>\n",
       "<p>466 rows × 6 columns</p>\n",
       "</div>"
      ],
      "text/plain": [
       "      tick           msg_velocity count  \\\n",
       "1      192               [110, 0]     2   \n",
       "2      286                  [110]     1   \n",
       "3      288                    [0]     1   \n",
       "4      448                  [110]     1   \n",
       "5      480                    [0]     1   \n",
       "..     ...                    ...   ...   \n",
       "462  42158             [110, 110]     2   \n",
       "463  42414  [0, 0, 110, 110, 110]     5   \n",
       "464  42734              [0, 0, 0]     3   \n",
       "465  43454                  [110]     1   \n",
       "466  44174                    [0]     1   \n",
       "\n",
       "                                            msg_type      msg_channel  \\\n",
       "1                                [note_on, note_off]           [0, 0]   \n",
       "2                                          [note_on]              [0]   \n",
       "3                                         [note_off]              [0]   \n",
       "4                                          [note_on]              [0]   \n",
       "5                                         [note_off]              [0]   \n",
       "..                                               ...              ...   \n",
       "462                               [note_on, note_on]           [0, 0]   \n",
       "463  [note_off, note_off, note_on, note_on, note_on]  [0, 0, 0, 0, 0]   \n",
       "464                   [note_off, note_off, note_off]        [0, 0, 0]   \n",
       "465                                        [note_on]              [0]   \n",
       "466                                       [note_off]              [0]   \n",
       "\n",
       "                 msg_note  \n",
       "1                [62, 62]  \n",
       "2                    [62]  \n",
       "3                    [62]  \n",
       "4                    [62]  \n",
       "5                    [62]  \n",
       "..                    ...  \n",
       "462              [69, 76]  \n",
       "463  [69, 76, 65, 69, 74]  \n",
       "464          [65, 69, 74]  \n",
       "465                  [62]  \n",
       "466                  [62]  \n",
       "\n",
       "[466 rows x 6 columns]"
      ]
     },
     "metadata": {},
     "output_type": "display_data"
    },
    {
     "name": "stdout",
     "output_type": "stream",
     "text": [
      "---------------------\n"
     ]
    },
    {
     "data": {
      "text/html": [
       "<div>\n",
       "<style scoped>\n",
       "    .dataframe tbody tr th:only-of-type {\n",
       "        vertical-align: middle;\n",
       "    }\n",
       "\n",
       "    .dataframe tbody tr th {\n",
       "        vertical-align: top;\n",
       "    }\n",
       "\n",
       "    .dataframe thead th {\n",
       "        text-align: right;\n",
       "    }\n",
       "</style>\n",
       "<table border=\"1\" class=\"dataframe\">\n",
       "  <thead>\n",
       "    <tr style=\"text-align: right;\">\n",
       "      <th></th>\n",
       "      <th>tick</th>\n",
       "      <th>count</th>\n",
       "      <th>control</th>\n",
       "      <th>value</th>\n",
       "      <th>channel</th>\n",
       "    </tr>\n",
       "  </thead>\n",
       "  <tbody>\n",
       "    <tr>\n",
       "      <th>1</th>\n",
       "      <td>4</td>\n",
       "      <td>8</td>\n",
       "      <td>[64, 7, 10, 7, 10, 64, 64, 64]</td>\n",
       "      <td>[0, 127, 64, 127, 64, 127, 0, 127]</td>\n",
       "      <td>[0, 0, 0, 0, 0, 0, 0, 0]</td>\n",
       "    </tr>\n",
       "    <tr>\n",
       "      <th>2</th>\n",
       "      <td>6</td>\n",
       "      <td>2</td>\n",
       "      <td>[64, 64]</td>\n",
       "      <td>[0, 127]</td>\n",
       "      <td>[0, 0]</td>\n",
       "    </tr>\n",
       "    <tr>\n",
       "      <th>3</th>\n",
       "      <td>8</td>\n",
       "      <td>2</td>\n",
       "      <td>[64, 64]</td>\n",
       "      <td>[0, 127]</td>\n",
       "      <td>[0, 0]</td>\n",
       "    </tr>\n",
       "    <tr>\n",
       "      <th>4</th>\n",
       "      <td>10</td>\n",
       "      <td>2</td>\n",
       "      <td>[64, 64]</td>\n",
       "      <td>[0, 127]</td>\n",
       "      <td>[0, 0]</td>\n",
       "    </tr>\n",
       "    <tr>\n",
       "      <th>5</th>\n",
       "      <td>12</td>\n",
       "      <td>2</td>\n",
       "      <td>[64, 64]</td>\n",
       "      <td>[0, 127]</td>\n",
       "      <td>[0, 0]</td>\n",
       "    </tr>\n",
       "    <tr>\n",
       "      <th>...</th>\n",
       "      <td>...</td>\n",
       "      <td>...</td>\n",
       "      <td>...</td>\n",
       "      <td>...</td>\n",
       "      <td>...</td>\n",
       "    </tr>\n",
       "    <tr>\n",
       "      <th>76</th>\n",
       "      <td>5362</td>\n",
       "      <td>2</td>\n",
       "      <td>[64, 64]</td>\n",
       "      <td>[0, 127]</td>\n",
       "      <td>[0, 0]</td>\n",
       "    </tr>\n",
       "    <tr>\n",
       "      <th>77</th>\n",
       "      <td>5778</td>\n",
       "      <td>2</td>\n",
       "      <td>[64, 64]</td>\n",
       "      <td>[0, 127]</td>\n",
       "      <td>[0, 0]</td>\n",
       "    </tr>\n",
       "    <tr>\n",
       "      <th>78</th>\n",
       "      <td>6194</td>\n",
       "      <td>2</td>\n",
       "      <td>[64, 64]</td>\n",
       "      <td>[0, 127]</td>\n",
       "      <td>[0, 0]</td>\n",
       "    </tr>\n",
       "    <tr>\n",
       "      <th>79</th>\n",
       "      <td>6226</td>\n",
       "      <td>2</td>\n",
       "      <td>[64, 64]</td>\n",
       "      <td>[0, 127]</td>\n",
       "      <td>[0, 0]</td>\n",
       "    </tr>\n",
       "    <tr>\n",
       "      <th>80</th>\n",
       "      <td>6946</td>\n",
       "      <td>2</td>\n",
       "      <td>[64, 64]</td>\n",
       "      <td>[0, 127]</td>\n",
       "      <td>[0, 0]</td>\n",
       "    </tr>\n",
       "  </tbody>\n",
       "</table>\n",
       "<p>80 rows × 5 columns</p>\n",
       "</div>"
      ],
      "text/plain": [
       "    tick count                         control  \\\n",
       "1      4     8  [64, 7, 10, 7, 10, 64, 64, 64]   \n",
       "2      6     2                        [64, 64]   \n",
       "3      8     2                        [64, 64]   \n",
       "4     10     2                        [64, 64]   \n",
       "5     12     2                        [64, 64]   \n",
       "..   ...   ...                             ...   \n",
       "76  5362     2                        [64, 64]   \n",
       "77  5778     2                        [64, 64]   \n",
       "78  6194     2                        [64, 64]   \n",
       "79  6226     2                        [64, 64]   \n",
       "80  6946     2                        [64, 64]   \n",
       "\n",
       "                                 value                   channel  \n",
       "1   [0, 127, 64, 127, 64, 127, 0, 127]  [0, 0, 0, 0, 0, 0, 0, 0]  \n",
       "2                             [0, 127]                    [0, 0]  \n",
       "3                             [0, 127]                    [0, 0]  \n",
       "4                             [0, 127]                    [0, 0]  \n",
       "5                             [0, 127]                    [0, 0]  \n",
       "..                                 ...                       ...  \n",
       "76                            [0, 127]                    [0, 0]  \n",
       "77                            [0, 127]                    [0, 0]  \n",
       "78                            [0, 127]                    [0, 0]  \n",
       "79                            [0, 127]                    [0, 0]  \n",
       "80                            [0, 127]                    [0, 0]  \n",
       "\n",
       "[80 rows x 5 columns]"
      ]
     },
     "metadata": {},
     "output_type": "display_data"
    },
    {
     "name": "stdout",
     "output_type": "stream",
     "text": [
      "---------------------\n"
     ]
    },
    {
     "data": {
      "text/html": [
       "<div>\n",
       "<style scoped>\n",
       "    .dataframe tbody tr th:only-of-type {\n",
       "        vertical-align: middle;\n",
       "    }\n",
       "\n",
       "    .dataframe tbody tr th {\n",
       "        vertical-align: top;\n",
       "    }\n",
       "\n",
       "    .dataframe thead th {\n",
       "        text-align: right;\n",
       "    }\n",
       "</style>\n",
       "<table border=\"1\" class=\"dataframe\">\n",
       "  <thead>\n",
       "    <tr style=\"text-align: right;\">\n",
       "      <th></th>\n",
       "      <th>program</th>\n",
       "      <th>tick</th>\n",
       "      <th>count</th>\n",
       "      <th>channel</th>\n",
       "    </tr>\n",
       "  </thead>\n",
       "  <tbody>\n",
       "    <tr>\n",
       "      <th>1</th>\n",
       "      <td>[0, 0]</td>\n",
       "      <td>720</td>\n",
       "      <td>2</td>\n",
       "      <td>[0, 0]</td>\n",
       "    </tr>\n",
       "  </tbody>\n",
       "</table>\n",
       "</div>"
      ],
      "text/plain": [
       "  program tick count channel\n",
       "1  [0, 0]  720     2  [0, 0]"
      ]
     },
     "metadata": {},
     "output_type": "display_data"
    },
    {
     "name": "stdout",
     "output_type": "stream",
     "text": [
      "==========================\n",
      "Track 3: Left Hand\n",
      "47106\n"
     ]
    },
    {
     "data": {
      "text/html": [
       "<div>\n",
       "<style scoped>\n",
       "    .dataframe tbody tr th:only-of-type {\n",
       "        vertical-align: middle;\n",
       "    }\n",
       "\n",
       "    .dataframe tbody tr th {\n",
       "        vertical-align: top;\n",
       "    }\n",
       "\n",
       "    .dataframe thead th {\n",
       "        text-align: right;\n",
       "    }\n",
       "</style>\n",
       "<table border=\"1\" class=\"dataframe\">\n",
       "  <thead>\n",
       "    <tr style=\"text-align: right;\">\n",
       "      <th></th>\n",
       "      <th>tick</th>\n",
       "      <th>msg_velocity</th>\n",
       "      <th>count</th>\n",
       "      <th>msg_type</th>\n",
       "      <th>msg_channel</th>\n",
       "      <th>msg_note</th>\n",
       "    </tr>\n",
       "  </thead>\n",
       "  <tbody>\n",
       "    <tr>\n",
       "      <th>1</th>\n",
       "      <td>576</td>\n",
       "      <td>[110, 110, 0, 0]</td>\n",
       "      <td>4</td>\n",
       "      <td>[note_on, note_on, note_off, note_off]</td>\n",
       "      <td>[1, 1, 1, 1]</td>\n",
       "      <td>[26, 38, 26, 38]</td>\n",
       "    </tr>\n",
       "    <tr>\n",
       "      <th>2</th>\n",
       "      <td>832</td>\n",
       "      <td>[110, 110]</td>\n",
       "      <td>2</td>\n",
       "      <td>[note_on, note_on]</td>\n",
       "      <td>[1, 1]</td>\n",
       "      <td>[26, 38]</td>\n",
       "    </tr>\n",
       "    <tr>\n",
       "      <th>3</th>\n",
       "      <td>864</td>\n",
       "      <td>[0, 0]</td>\n",
       "      <td>2</td>\n",
       "      <td>[note_off, note_off]</td>\n",
       "      <td>[1, 1]</td>\n",
       "      <td>[26, 38]</td>\n",
       "    </tr>\n",
       "    <tr>\n",
       "      <th>4</th>\n",
       "      <td>1120</td>\n",
       "      <td>[110, 110]</td>\n",
       "      <td>2</td>\n",
       "      <td>[note_on, note_on]</td>\n",
       "      <td>[1, 1]</td>\n",
       "      <td>[26, 38]</td>\n",
       "    </tr>\n",
       "    <tr>\n",
       "      <th>5</th>\n",
       "      <td>1280</td>\n",
       "      <td>[0, 0, 110, 110]</td>\n",
       "      <td>4</td>\n",
       "      <td>[note_off, note_off, note_on, note_on]</td>\n",
       "      <td>[1, 1, 1, 1]</td>\n",
       "      <td>[26, 38, 38, 50]</td>\n",
       "    </tr>\n",
       "    <tr>\n",
       "      <th>...</th>\n",
       "      <td>...</td>\n",
       "      <td>...</td>\n",
       "      <td>...</td>\n",
       "      <td>...</td>\n",
       "      <td>...</td>\n",
       "      <td>...</td>\n",
       "    </tr>\n",
       "    <tr>\n",
       "      <th>618</th>\n",
       "      <td>46290</td>\n",
       "      <td>[110, 110]</td>\n",
       "      <td>2</td>\n",
       "      <td>[note_on, note_on]</td>\n",
       "      <td>[1, 1]</td>\n",
       "      <td>[38, 50]</td>\n",
       "    </tr>\n",
       "    <tr>\n",
       "      <th>619</th>\n",
       "      <td>46292</td>\n",
       "      <td>[0, 0]</td>\n",
       "      <td>2</td>\n",
       "      <td>[note_off, note_off]</td>\n",
       "      <td>[1, 1]</td>\n",
       "      <td>[38, 50]</td>\n",
       "    </tr>\n",
       "    <tr>\n",
       "      <th>620</th>\n",
       "      <td>46386</td>\n",
       "      <td>[110, 110]</td>\n",
       "      <td>2</td>\n",
       "      <td>[note_on, note_on]</td>\n",
       "      <td>[1, 1]</td>\n",
       "      <td>[38, 50]</td>\n",
       "    </tr>\n",
       "    <tr>\n",
       "      <th>621</th>\n",
       "      <td>47106</td>\n",
       "      <td>[0, 0, 110, 110]</td>\n",
       "      <td>4</td>\n",
       "      <td>[note_off, note_off, note_on, note_on]</td>\n",
       "      <td>[1, 1, 1, 1]</td>\n",
       "      <td>[38, 50, 26, 38]</td>\n",
       "    </tr>\n",
       "    <tr>\n",
       "      <th>622</th>\n",
       "      <td>47106</td>\n",
       "      <td>[0, 0]</td>\n",
       "      <td>2</td>\n",
       "      <td>[note_off, note_off]</td>\n",
       "      <td>[1, 1]</td>\n",
       "      <td>[26, 38]</td>\n",
       "    </tr>\n",
       "  </tbody>\n",
       "</table>\n",
       "<p>622 rows × 6 columns</p>\n",
       "</div>"
      ],
      "text/plain": [
       "      tick      msg_velocity count                                msg_type  \\\n",
       "1      576  [110, 110, 0, 0]     4  [note_on, note_on, note_off, note_off]   \n",
       "2      832        [110, 110]     2                      [note_on, note_on]   \n",
       "3      864            [0, 0]     2                    [note_off, note_off]   \n",
       "4     1120        [110, 110]     2                      [note_on, note_on]   \n",
       "5     1280  [0, 0, 110, 110]     4  [note_off, note_off, note_on, note_on]   \n",
       "..     ...               ...   ...                                     ...   \n",
       "618  46290        [110, 110]     2                      [note_on, note_on]   \n",
       "619  46292            [0, 0]     2                    [note_off, note_off]   \n",
       "620  46386        [110, 110]     2                      [note_on, note_on]   \n",
       "621  47106  [0, 0, 110, 110]     4  [note_off, note_off, note_on, note_on]   \n",
       "622  47106            [0, 0]     2                    [note_off, note_off]   \n",
       "\n",
       "      msg_channel          msg_note  \n",
       "1    [1, 1, 1, 1]  [26, 38, 26, 38]  \n",
       "2          [1, 1]          [26, 38]  \n",
       "3          [1, 1]          [26, 38]  \n",
       "4          [1, 1]          [26, 38]  \n",
       "5    [1, 1, 1, 1]  [26, 38, 38, 50]  \n",
       "..            ...               ...  \n",
       "618        [1, 1]          [38, 50]  \n",
       "619        [1, 1]          [38, 50]  \n",
       "620        [1, 1]          [38, 50]  \n",
       "621  [1, 1, 1, 1]  [38, 50, 26, 38]  \n",
       "622        [1, 1]          [26, 38]  \n",
       "\n",
       "[622 rows x 6 columns]"
      ]
     },
     "metadata": {},
     "output_type": "display_data"
    },
    {
     "name": "stdout",
     "output_type": "stream",
     "text": [
      "---------------------\n"
     ]
    },
    {
     "data": {
      "text/html": [
       "<div>\n",
       "<style scoped>\n",
       "    .dataframe tbody tr th:only-of-type {\n",
       "        vertical-align: middle;\n",
       "    }\n",
       "\n",
       "    .dataframe tbody tr th {\n",
       "        vertical-align: top;\n",
       "    }\n",
       "\n",
       "    .dataframe thead th {\n",
       "        text-align: right;\n",
       "    }\n",
       "</style>\n",
       "<table border=\"1\" class=\"dataframe\">\n",
       "  <thead>\n",
       "    <tr style=\"text-align: right;\">\n",
       "      <th></th>\n",
       "      <th>tick</th>\n",
       "      <th>count</th>\n",
       "      <th>control</th>\n",
       "      <th>value</th>\n",
       "      <th>channel</th>\n",
       "    </tr>\n",
       "  </thead>\n",
       "  <tbody>\n",
       "    <tr>\n",
       "      <th>1</th>\n",
       "      <td>2336</td>\n",
       "      <td>6</td>\n",
       "      <td>[7, 10, 7, 10, 64, 64]</td>\n",
       "      <td>[127, 64, 127, 64, 0, 127]</td>\n",
       "      <td>[1, 1, 1, 1, 1, 1]</td>\n",
       "    </tr>\n",
       "    <tr>\n",
       "      <th>2</th>\n",
       "      <td>2338</td>\n",
       "      <td>2</td>\n",
       "      <td>[64, 64]</td>\n",
       "      <td>[0, 127]</td>\n",
       "      <td>[1, 1]</td>\n",
       "    </tr>\n",
       "    <tr>\n",
       "      <th>3</th>\n",
       "      <td>2340</td>\n",
       "      <td>2</td>\n",
       "      <td>[64, 64]</td>\n",
       "      <td>[0, 127]</td>\n",
       "      <td>[1, 1]</td>\n",
       "    </tr>\n",
       "    <tr>\n",
       "      <th>4</th>\n",
       "      <td>2342</td>\n",
       "      <td>2</td>\n",
       "      <td>[64, 64]</td>\n",
       "      <td>[0, 127]</td>\n",
       "      <td>[1, 1]</td>\n",
       "    </tr>\n",
       "    <tr>\n",
       "      <th>5</th>\n",
       "      <td>2344</td>\n",
       "      <td>2</td>\n",
       "      <td>[64, 64]</td>\n",
       "      <td>[0, 127]</td>\n",
       "      <td>[1, 1]</td>\n",
       "    </tr>\n",
       "    <tr>\n",
       "      <th>...</th>\n",
       "      <td>...</td>\n",
       "      <td>...</td>\n",
       "      <td>...</td>\n",
       "      <td>...</td>\n",
       "      <td>...</td>\n",
       "    </tr>\n",
       "    <tr>\n",
       "      <th>72</th>\n",
       "      <td>2568</td>\n",
       "      <td>2</td>\n",
       "      <td>[64, 64]</td>\n",
       "      <td>[0, 127]</td>\n",
       "      <td>[1, 1]</td>\n",
       "    </tr>\n",
       "    <tr>\n",
       "      <th>73</th>\n",
       "      <td>2570</td>\n",
       "      <td>2</td>\n",
       "      <td>[64, 64]</td>\n",
       "      <td>[0, 127]</td>\n",
       "      <td>[1, 1]</td>\n",
       "    </tr>\n",
       "    <tr>\n",
       "      <th>74</th>\n",
       "      <td>2572</td>\n",
       "      <td>2</td>\n",
       "      <td>[64, 64]</td>\n",
       "      <td>[0, 127]</td>\n",
       "      <td>[1, 1]</td>\n",
       "    </tr>\n",
       "    <tr>\n",
       "      <th>75</th>\n",
       "      <td>2574</td>\n",
       "      <td>2</td>\n",
       "      <td>[64, 64]</td>\n",
       "      <td>[0, 127]</td>\n",
       "      <td>[1, 1]</td>\n",
       "    </tr>\n",
       "    <tr>\n",
       "      <th>76</th>\n",
       "      <td>2574</td>\n",
       "      <td>2</td>\n",
       "      <td>[64, 64]</td>\n",
       "      <td>[0, 127]</td>\n",
       "      <td>[1, 1]</td>\n",
       "    </tr>\n",
       "  </tbody>\n",
       "</table>\n",
       "<p>76 rows × 5 columns</p>\n",
       "</div>"
      ],
      "text/plain": [
       "    tick count                 control                       value  \\\n",
       "1   2336     6  [7, 10, 7, 10, 64, 64]  [127, 64, 127, 64, 0, 127]   \n",
       "2   2338     2                [64, 64]                    [0, 127]   \n",
       "3   2340     2                [64, 64]                    [0, 127]   \n",
       "4   2342     2                [64, 64]                    [0, 127]   \n",
       "5   2344     2                [64, 64]                    [0, 127]   \n",
       "..   ...   ...                     ...                         ...   \n",
       "72  2568     2                [64, 64]                    [0, 127]   \n",
       "73  2570     2                [64, 64]                    [0, 127]   \n",
       "74  2572     2                [64, 64]                    [0, 127]   \n",
       "75  2574     2                [64, 64]                    [0, 127]   \n",
       "76  2574     2                [64, 64]                    [0, 127]   \n",
       "\n",
       "               channel  \n",
       "1   [1, 1, 1, 1, 1, 1]  \n",
       "2               [1, 1]  \n",
       "3               [1, 1]  \n",
       "4               [1, 1]  \n",
       "5               [1, 1]  \n",
       "..                 ...  \n",
       "72              [1, 1]  \n",
       "73              [1, 1]  \n",
       "74              [1, 1]  \n",
       "75              [1, 1]  \n",
       "76              [1, 1]  \n",
       "\n",
       "[76 rows x 5 columns]"
      ]
     },
     "metadata": {},
     "output_type": "display_data"
    },
    {
     "name": "stdout",
     "output_type": "stream",
     "text": [
      "---------------------\n"
     ]
    },
    {
     "data": {
      "text/html": [
       "<div>\n",
       "<style scoped>\n",
       "    .dataframe tbody tr th:only-of-type {\n",
       "        vertical-align: middle;\n",
       "    }\n",
       "\n",
       "    .dataframe tbody tr th {\n",
       "        vertical-align: top;\n",
       "    }\n",
       "\n",
       "    .dataframe thead th {\n",
       "        text-align: right;\n",
       "    }\n",
       "</style>\n",
       "<table border=\"1\" class=\"dataframe\">\n",
       "  <thead>\n",
       "    <tr style=\"text-align: right;\">\n",
       "      <th></th>\n",
       "      <th>program</th>\n",
       "      <th>tick</th>\n",
       "      <th>count</th>\n",
       "      <th>channel</th>\n",
       "    </tr>\n",
       "  </thead>\n",
       "  <tbody>\n",
       "    <tr>\n",
       "      <th>1</th>\n",
       "      <td>[0, 0]</td>\n",
       "      <td>0</td>\n",
       "      <td>2</td>\n",
       "      <td>[1, 1]</td>\n",
       "    </tr>\n",
       "  </tbody>\n",
       "</table>\n",
       "</div>"
      ],
      "text/plain": [
       "  program tick count channel\n",
       "1  [0, 0]    0     2  [1, 1]"
      ]
     },
     "metadata": {},
     "output_type": "display_data"
    },
    {
     "name": "stdout",
     "output_type": "stream",
     "text": [
      "==========================\n"
     ]
    }
   ],
   "source": [
    "for idx, track in enumerate(mid.tracks):\n",
    "    print(f\"Track {idx + 1}: {track.name}\")\n",
    "    \n",
    "    track_dict = distribute_msg(track)\n",
    "    \n",
    "    if len(track_dict['Message'])==0:\n",
    "        continue;\n",
    "        \n",
    "    track_msg = track_dict['Message']\n",
    "    \n",
    "    df_note_col = {'tick', 'count', 'msg_type', 'msg_note', 'msg_velocity', 'msg_channel'}\n",
    "    df_note = pd.DataFrame(columns = df_note_col)\n",
    "    \n",
    "    df_control_col = {'tick', 'count','channel', 'control', 'value'}\n",
    "    df_ctl = pd.DataFrame(columns = df_control_col)\n",
    "    \n",
    "    df_program_col = {'tick', 'count', 'channel', 'program'}\n",
    "    df_prog = pd.DataFrame(columns = df_program_col)\n",
    "    \n",
    "    \n",
    "    note_idx = 0\n",
    "    note_cur_time = 0\n",
    "    note_start = True\n",
    "    note_tick_type, note_tick_note, note_tick_chan, note_tick_velo = initialize_note_ticks()\n",
    "    \n",
    "    ctl_idx = 0\n",
    "    ctl_cur_time = 0\n",
    "    ctl_start = True\n",
    "    ctl_tick_chan, ctl_tick_ctl, ctl_tick_val = initialize_ctl_ticks()\n",
    "    \n",
    "    prog_idx = 0\n",
    "    prog_cur_time = 0\n",
    "    prog_start = True\n",
    "    prog_tick_chan, prog_tick_prog = initialize_prog_ticks()\n",
    "    \n",
    "    \n",
    "    for msg in track_msg:\n",
    "        \n",
    "        # note off : note_on and velocity == 0\n",
    "        if msg.type == 'note_on' and msg.velocity == 0:\n",
    "            msg_typ = 'note_off'\n",
    "        else:\n",
    "            msg_typ = msg.type\n",
    "            \n",
    "        \n",
    "        if msg.type == 'note_on' or msg.type == 'note_off':\n",
    "            if msg.time > 0 :\n",
    "                \n",
    "                if note_start == True:\n",
    "                    note_cur_time = msg.time + note_cur_time\n",
    "                    note_start = False;\n",
    "            \n",
    "                else:\n",
    "                    note_cur_time = msg.time + note_cur_time\n",
    "                    note_idx+=1\n",
    "            \n",
    "                    df_note.loc[note_idx, \"tick\"] = note_cur_time\n",
    "                    df_note.loc[note_idx, \"count\"] = len(note_tick_note)\n",
    "                    df_note.loc[note_idx, \"msg_type\"] = note_tick_type\n",
    "                    df_note.loc[note_idx, \"msg_note\"] = note_tick_note\n",
    "                    df_note.loc[note_idx, \"msg_velocity\"] = note_tick_velo\n",
    "                    df_note.loc[note_idx, \"msg_channel\"] = note_tick_chan\n",
    "            \n",
    "                    note_tick_type, note_tick_note, note_tick_chan, note_tick_velo = initialize_note_ticks()\n",
    "            \n",
    "            note_tick_type.append(msg_typ)\n",
    "            note_tick_note.append(msg.note)\n",
    "            note_tick_chan.append(msg.channel)\n",
    "            note_tick_velo.append(msg.velocity)\n",
    "            \n",
    "        if msg.type == 'control_change':\n",
    "            \n",
    "            if msg.time > 0:\n",
    "                \n",
    "                if ctl_start == True:\n",
    "                    ctl_cur_time = msg.time + ctl_cur_time\n",
    "                    ctl_start = False;\n",
    "                    \n",
    "                else:\n",
    "                    ctl_cur_time = msg.time + ctl_cur_time\n",
    "                    ctl_idx +=1\n",
    "                \n",
    "                    df_ctl.loc[ctl_idx, \"tick\"] = ctl_cur_time\n",
    "                    df_ctl.loc[ctl_idx, \"count\"] = len(ctl_tick_ctl)\n",
    "                    df_ctl.loc[ctl_idx, \"channel\"] = ctl_tick_chan\n",
    "                    df_ctl.loc[ctl_idx, \"control\"] = ctl_tick_ctl\n",
    "                    df_ctl.loc[ctl_idx, \"value\"] = ctl_tick_val\n",
    "                \n",
    "                    ctl_tick_chan, ctl_tick_ctl, ctl_tick_val = initialize_ctl_ticks()\n",
    "        \n",
    "            ctl_tick_chan.append(msg.channel)\n",
    "            ctl_tick_ctl.append(msg.control)\n",
    "            ctl_tick_val.append(msg.value)\n",
    "            \n",
    "        if msg.type == 'program_change':\n",
    "            \n",
    "            if msg.time > 0:\n",
    "                if prog_start == True:\n",
    "                    prog_cur_time = msg.time + prog_cur_time\n",
    "                    prog_start = False;\n",
    "                    \n",
    "                else:\n",
    "                    prog_cur_time = msg.time + prog_cur_time\n",
    "                    prog_idx +=1\n",
    "                \n",
    "                    df_prog.loc[prog_idx, \"tick\"] = prog_cur_time\n",
    "                    df_prog.loc[prog_idx, \"count\"] = len(prog_tick_prog)\n",
    "                    df_prog.loc[prog_idx, \"channel\"] = prog_tick_chan\n",
    "                    df_prog.loc[prog_idx, \"program\"] = prog_tick_prog\n",
    "                \n",
    "                    prog_tick_chan, prog_tick_prog = initialize_prog_ticks()\n",
    "        \n",
    "            prog_tick_chan.append(msg.channel)\n",
    "            prog_tick_prog.append(msg.program)\n",
    "         \n",
    "        #############################################################\n",
    "        ############ 마지막 과정\n",
    "        #############################################################\n",
    "    if len(note_tick_note) > 0:\n",
    "        note_cur_time = msg.time + note_cur_time\n",
    "        note_idx+=1\n",
    "            \n",
    "        df_note.loc[note_idx, \"tick\"] = note_cur_time\n",
    "        df_note.loc[note_idx, \"count\"] = len(note_tick_note)\n",
    "        df_note.loc[note_idx, \"msg_type\"] = note_tick_type\n",
    "        df_note.loc[note_idx, \"msg_note\"] = note_tick_note\n",
    "        df_note.loc[note_idx, \"msg_velocity\"] = note_tick_velo\n",
    "        df_note.loc[note_idx, \"msg_channel\"] = note_tick_chan\n",
    "            \n",
    "    if len(ctl_tick_ctl):\n",
    "        ctl_cur_time = msg.time + ctl_cur_time\n",
    "        ctl_idx +=1\n",
    "                \n",
    "        df_ctl.loc[ctl_idx, \"tick\"] = ctl_cur_time\n",
    "        df_ctl.loc[ctl_idx, \"count\"] = len(ctl_tick_ctl)\n",
    "        df_ctl.loc[ctl_idx, \"channel\"] = ctl_tick_chan\n",
    "        df_ctl.loc[ctl_idx, \"control\"] = ctl_tick_ctl\n",
    "        df_ctl.loc[ctl_idx, \"value\"] = ctl_tick_val\n",
    "            \n",
    "    if len(prog_tick_prog):\n",
    "        prog_cur_time = msg.time + prog_cur_time\n",
    "        prog_idx +=1\n",
    "                \n",
    "        df_prog.loc[prog_idx, \"tick\"] = prog_cur_time\n",
    "        df_prog.loc[prog_idx, \"count\"] = len(prog_tick_prog)\n",
    "        df_prog.loc[prog_idx, \"channel\"] = prog_tick_chan\n",
    "        df_prog.loc[prog_idx, \"program\"] = prog_tick_prog\n",
    "            \n",
    "        \n",
    "    print(note_cur_time)\n",
    "    display(df_note)\n",
    "    print('---------------------')\n",
    "    display(df_ctl)\n",
    "    print('---------------------')\n",
    "    display(df_prog)\n",
    "    print(\"==========================\")\n",
    "                        \n"
   ]
  },
  {
   "cell_type": "code",
   "execution_count": 32,
   "id": "1ea6a3b1",
   "metadata": {
    "scrolled": false
   },
   "outputs": [
    {
     "name": "stdout",
     "output_type": "stream",
     "text": [
      "{'MetaMessage': [345]}\n"
     ]
    }
   ],
   "source": [
    "track_dict = {}\n",
    "track_dict['MetaMessage'] = []\n",
    "track_dict['MetaMessage'].append(345)\n",
    "\n",
    "print(track_dict)"
   ]
  },
  {
   "cell_type": "code",
   "execution_count": 18,
   "id": "815e7a8c",
   "metadata": {
    "scrolled": false
   },
   "outputs": [
    {
     "name": "stdout",
     "output_type": "stream",
     "text": [
      "Track 1: He's A Pirate\n",
      "Track 2: Right Hand\n",
      "Track 3: Left Hand\n"
     ]
    }
   ],
   "source": [
    "for idx, track in enumerate(mid.tracks):\n",
    "    print(f\"Track {i + 1}: {track.name}\")\n",
    "    \n",
    "    for m"
   ]
  },
  {
   "cell_type": "code",
   "execution_count": 9,
   "id": "2b485202",
   "metadata": {
    "scrolled": false
   },
   "outputs": [
    {
     "data": {
      "text/plain": [
       "MidiTrack([\n",
       "  MetaMessage('track_name', name=\"He's A Pirate\", time=0),\n",
       "  MetaMessage('text', text='By Written by Klaus Badelt', time=0),\n",
       "  MetaMessage('copyright', text='Arrangement © 2004 Cerullean Pictures ', time=0),\n",
       "  MetaMessage('copyright', text='Original Score © Walt Disney Pictures', time=0),\n",
       "  MetaMessage('text', text='Generated by NoteWorthy Composer', time=0),\n",
       "  MetaMessage('set_tempo', tempo=300000, time=0),\n",
       "  MetaMessage('key_signature', key='F', time=0),\n",
       "  MetaMessage('time_signature', numerator=6, denominator=8, clocks_per_click=24, notated_32nd_notes_per_beat=8, time=0),\n",
       "  MetaMessage('end_of_track', time=0)])"
      ]
     },
     "execution_count": 9,
     "metadata": {},
     "output_type": "execute_result"
    }
   ],
   "source": [
    "mid.tracks[0]"
   ]
  },
  {
   "cell_type": "code",
   "execution_count": 73,
   "id": "dc8d15c5",
   "metadata": {
    "scrolled": false
   },
   "outputs": [
    {
     "data": {
      "text/plain": [
       "1285"
      ]
     },
     "execution_count": 73,
     "metadata": {},
     "output_type": "execute_result"
    }
   ],
   "source": [
    "len(mid.tracks[1])"
   ]
  },
  {
   "cell_type": "code",
   "execution_count": null,
   "id": "f3d73ee3",
   "metadata": {
    "scrolled": false
   },
   "outputs": [],
   "source": []
  },
  {
   "cell_type": "code",
   "execution_count": 14,
   "id": "763ea6da",
   "metadata": {
    "scrolled": true
   },
   "outputs": [
    {
     "name": "stdout",
     "output_type": "stream",
     "text": [
      "MidiFile(type=1, ticks_per_beat=120, tracks=[\n",
      "  MidiTrack([\n",
      "    MetaMessage('sequencer_specific', data=(0, 0, 65), time=0),\n",
      "    MetaMessage('track_name', name='JESU        ', time=0),\n",
      "    MetaMessage('key_signature', key='G', time=0),\n",
      "    MetaMessage('midi_port', port=0, time=0),\n",
      "    MetaMessage('time_signature', numerator=9, denominator=8, clocks_per_click=24, notated_32nd_notes_per_beat=8, time=0),\n",
      "    MetaMessage('set_tempo', tempo=500000, time=38340),\n",
      "    MetaMessage('end_of_track', time=0)]),\n",
      "  MidiTrack([\n",
      "    MetaMessage('track_name', name=\"Jesu, Joy of Man's\", time=0),\n",
      "    MetaMessage('instrument_name', name='Synths Strings 1', time=0),\n",
      "    MetaMessage('midi_port', port=0, time=0),\n",
      "    Message('control_change', channel=0, control=0, value=80, time=0),\n",
      "    Message('control_change', channel=0, control=32, value=0, time=0),\n",
      "    Message('program_change', channel=0, program=50, time=0),\n",
      "    Message('note_on', channel=0, note=67, velocity=104, time=60),\n",
      "    Message('note_on', channel=0, note=67, velocity=0, time=48),\n",
      "    Message('note_on', channel=0, note=69, velocity=104, time=12),\n",
      "    Message('note_on', channel=0, note=69, velocity=0, time=48),\n",
      "    Message('note_on', channel=0, note=71, velocity=104, time=12),\n",
      "    Message('note_on', channel=0, note=71, velocity=0, time=48),\n",
      "    Message('note_on', channel=0, note=74, velocity=104, time=12),\n",
      "    Message('note_on', channel=0, note=74, velocity=0, time=48),\n",
      "    Message('note_on', channel=0, note=72, velocity=104, time=12),\n",
      "    Message('note_on', channel=0, note=72, velocity=0, time=48),\n",
      "    Message('note_on', channel=0, note=72, velocity=104, time=12),\n",
      "    Message('note_on', channel=0, note=72, velocity=0, time=48),\n",
      "    Message('note_on', channel=0, note=76, velocity=104, time=12),\n",
      "    Message('note_on', channel=0, note=76, velocity=0, time=48),\n",
      "    Message('note_on', channel=0, note=74, velocity=104, time=12),\n",
      "    Message('note_on', channel=0, note=74, velocity=0, time=48),\n",
      "    Message('note_on', channel=0, note=74, velocity=104, time=12),\n",
      "    Message('note_on', channel=0, note=74, velocity=0, time=48),\n",
      "    Message('note_on', channel=0, note=79, velocity=104, time=12),\n",
      "    Message('note_on', channel=0, note=79, velocity=0, time=48),\n",
      "    Message('note_on', channel=0, note=78, velocity=104, time=12),\n",
      "    Message('note_on', channel=0, note=78, velocity=0, time=48),\n",
      "    Message('note_on', channel=0, note=79, velocity=104, time=12),\n",
      "    Message('note_on', channel=0, note=79, velocity=0, time=48),\n",
      "    Message('note_on', channel=0, note=74, velocity=104, time=12),\n",
      "    Message('note_on', channel=0, note=74, velocity=0, time=48),\n",
      "    Message('note_on', channel=0, note=71, velocity=104, time=12),\n",
      "    Message('note_on', channel=0, note=71, velocity=0, time=48),\n",
      "    Message('note_on', channel=0, note=67, velocity=104, time=12),\n",
      "    Message('note_on', channel=0, note=67, velocity=0, time=48),\n",
      "    Message('note_on', channel=0, note=69, velocity=104, time=12),\n",
      "    Message('note_on', channel=0, note=69, velocity=0, time=48),\n",
      "    Message('note_on', channel=0, note=71, velocity=104, time=12),\n",
      "    Message('note_on', channel=0, note=71, velocity=0, time=48),\n",
      "    Message('note_on', channel=0, note=72, velocity=104, time=12),\n",
      "    Message('note_on', channel=0, note=72, velocity=0, time=48),\n",
      "    Message('note_on', channel=0, note=74, velocity=104, time=12),\n",
      "    Message('note_on', channel=0, note=74, velocity=0, time=48),\n",
      "    Message('note_on', channel=0, note=76, velocity=104, time=12),\n",
      "    Message('note_on', channel=0, note=76, velocity=0, time=48),\n",
      "    Message('note_on', channel=0, note=74, velocity=104, time=12),\n",
      "    Message('note_on', channel=0, note=74, velocity=0, time=48),\n",
      "    Message('note_on', channel=0, note=72, velocity=104, time=12),\n",
      "    Message('note_on', channel=0, note=72, velocity=0, time=48),\n",
      "    Message('note_on', channel=0, note=71, velocity=104, time=12),\n",
      "    Message('note_on', channel=0, note=71, velocity=0, time=48),\n",
      "    Message('note_on', channel=0, note=69, velocity=104, time=12),\n",
      "    Message('note_on', channel=0, note=69, velocity=0, time=48),\n",
      "    Message('note_on', channel=0, note=71, velocity=104, time=12),\n",
      "    Message('note_on', channel=0, note=71, velocity=0, time=48),\n",
      "    Message('note_on', channel=0, note=67, velocity=104, time=12),\n",
      "    Message('note_on', channel=0, note=67, velocity=0, time=48),\n",
      "    Message('note_on', channel=0, note=66, velocity=104, time=12),\n",
      "    Message('note_on', channel=0, note=66, velocity=0, time=48),\n",
      "    Message('note_on', channel=0, note=67, velocity=104, time=12),\n",
      "    Message('note_on', channel=0, note=67, velocity=0, time=48),\n",
      "    Message('note_on', channel=0, note=69, velocity=104, time=12),\n",
      "    Message('note_on', channel=0, note=69, velocity=0, time=48),\n",
      "    Message('note_on', channel=0, note=62, velocity=104, time=12),\n",
      "    Message('note_on', channel=0, note=62, velocity=0, time=48),\n",
      "    Message('note_on', channel=0, note=66, velocity=104, time=12),\n",
      "    Message('note_on', channel=0, note=66, velocity=0, time=48),\n",
      "    Message('note_on', channel=0, note=69, velocity=104, time=12),\n",
      "    Message('note_on', channel=0, note=69, velocity=0, time=48),\n",
      "    Message('note_on', channel=0, note=72, velocity=104, time=12),\n",
      "    Message('note_on', channel=0, note=72, velocity=0, time=48),\n",
      "    Message('note_on', channel=0, note=71, velocity=104, time=12),\n",
      "    Message('note_on', channel=0, note=71, velocity=0, time=48),\n",
      "    Message('note_on', channel=0, note=69, velocity=104, time=12),\n",
      "    Message('note_on', channel=0, note=69, velocity=0, time=48),\n",
      "    Message('note_on', channel=0, note=71, velocity=104, time=12),\n",
      "    Message('note_on', channel=0, note=71, velocity=0, time=48),\n",
      "    Message('note_on', channel=0, note=67, velocity=104, time=12),\n",
      "    Message('note_on', channel=0, note=67, velocity=0, time=48),\n",
      "    Message('note_on', channel=0, note=69, velocity=104, time=12),\n",
      "    Message('note_on', channel=0, note=69, velocity=0, time=48),\n",
      "    Message('note_on', channel=0, note=71, velocity=104, time=12),\n",
      "    Message('note_on', channel=0, note=71, velocity=0, time=48),\n",
      "    Message('note_on', channel=0, note=74, velocity=104, time=12),\n",
      "    Message('note_on', channel=0, note=74, velocity=0, time=48),\n",
      "    Message('note_on', channel=0, note=72, velocity=104, time=12),\n",
      "    Message('note_on', channel=0, note=72, velocity=0, time=48),\n",
      "    Message('note_on', channel=0, note=72, velocity=104, time=12),\n",
      "    Message('note_on', channel=0, note=72, velocity=0, time=48),\n",
      "    Message('note_on', channel=0, note=76, velocity=104, time=12),\n",
      "    Message('note_on', channel=0, note=76, velocity=0, time=48),\n",
      "    Message('note_on', channel=0, note=74, velocity=104, time=12),\n",
      "    Message('note_on', channel=0, note=74, velocity=0, time=48),\n",
      "    Message('note_on', channel=0, note=74, velocity=104, time=12),\n",
      "    Message('note_on', channel=0, note=74, velocity=0, time=48),\n",
      "    Message('note_on', channel=0, note=79, velocity=104, time=12),\n",
      "    Message('note_on', channel=0, note=79, velocity=0, time=48),\n",
      "    Message('note_on', channel=0, note=78, velocity=104, time=12),\n",
      "    Message('note_on', channel=0, note=78, velocity=0, time=48),\n",
      "    Message('note_on', channel=0, note=79, velocity=104, time=12),\n",
      "    Message('note_on', channel=0, note=79, velocity=0, time=48),\n",
      "    Message('note_on', channel=0, note=74, velocity=104, time=12),\n",
      "    Message('note_on', channel=0, note=74, velocity=0, time=48),\n",
      "    Message('note_on', channel=0, note=71, velocity=104, time=12),\n",
      "    Message('note_on', channel=0, note=71, velocity=0, time=48),\n",
      "    Message('note_on', channel=0, note=67, velocity=104, time=12),\n",
      "    Message('note_on', channel=0, note=67, velocity=0, time=48),\n",
      "    Message('note_on', channel=0, note=69, velocity=104, time=12),\n",
      "    Message('note_on', channel=0, note=69, velocity=0, time=48),\n",
      "    Message('note_on', channel=0, note=71, velocity=104, time=12),\n",
      "    Message('note_on', channel=0, note=71, velocity=0, time=48),\n",
      "    Message('note_on', channel=0, note=64, velocity=104, time=12),\n",
      "    Message('note_on', channel=0, note=64, velocity=0, time=48),\n",
      "    Message('note_on', channel=0, note=74, velocity=104, time=12),\n",
      "    Message('note_on', channel=0, note=74, velocity=0, time=48),\n",
      "    Message('note_on', channel=0, note=72, velocity=104, time=12),\n",
      "    Message('note_on', channel=0, note=72, velocity=0, time=48),\n",
      "    Message('note_on', channel=0, note=71, velocity=104, time=12),\n",
      "    Message('note_on', channel=0, note=71, velocity=0, time=48),\n",
      "    Message('note_on', channel=0, note=69, velocity=104, time=12),\n",
      "    Message('note_on', channel=0, note=69, velocity=0, time=48),\n",
      "    Message('note_on', channel=0, note=67, velocity=104, time=12),\n",
      "    Message('note_on', channel=0, note=67, velocity=0, time=48),\n",
      "    Message('note_on', channel=0, note=62, velocity=104, time=12),\n",
      "    Message('note_on', channel=0, note=62, velocity=0, time=48),\n",
      "    Message('note_on', channel=0, note=67, velocity=104, time=12),\n",
      "    Message('note_on', channel=0, note=67, velocity=0, time=48),\n",
      "    Message('note_on', channel=0, note=66, velocity=104, time=12),\n",
      "    Message('note_on', channel=0, note=66, velocity=0, time=48),\n",
      "    Message('note_on', channel=0, note=67, velocity=104, time=12),\n",
      "    Message('note_on', channel=0, note=67, velocity=0, time=48),\n",
      "    Message('note_on', channel=0, note=71, velocity=104, time=12),\n",
      "    Message('note_on', channel=0, note=71, velocity=0, time=48),\n",
      "    Message('note_on', channel=0, note=74, velocity=104, time=12),\n",
      "    Message('note_on', channel=0, note=74, velocity=0, time=48),\n",
      "    Message('note_on', channel=0, note=79, velocity=104, time=12),\n",
      "    Message('note_on', channel=0, note=79, velocity=0, time=48),\n",
      "    Message('note_on', channel=0, note=74, velocity=104, time=12),\n",
      "    Message('note_on', channel=0, note=74, velocity=0, time=48),\n",
      "    Message('note_on', channel=0, note=71, velocity=104, time=12),\n",
      "    Message('note_on', channel=0, note=71, velocity=0, time=48),\n",
      "    Message('note_on', channel=0, note=67, velocity=104, time=12),\n",
      "    Message('note_on', channel=0, note=67, velocity=0, time=48),\n",
      "    Message('note_on', channel=0, note=71, velocity=104, time=12),\n",
      "    Message('note_on', channel=0, note=71, velocity=0, time=48),\n",
      "    Message('note_on', channel=0, note=74, velocity=104, time=12),\n",
      "    Message('note_on', channel=0, note=74, velocity=0, time=48),\n",
      "    Message('note_on', channel=0, note=62, velocity=104, time=12),\n",
      "    Message('note_on', channel=0, note=71, velocity=104, time=0),\n",
      "    Message('note_on', channel=0, note=67, velocity=104, time=0),\n",
      "    Message('note_on', channel=0, note=62, velocity=0, time=336),\n",
      "    Message('note_on', channel=0, note=71, velocity=0, time=0),\n",
      "    Message('note_on', channel=0, note=67, velocity=0, time=0),\n",
      "    Message('note_on', channel=0, note=64, velocity=104, time=24),\n",
      "    Message('note_on', channel=0, note=67, velocity=104, time=0),\n",
      "    Message('note_on', channel=0, note=60, velocity=104, time=0),\n",
      "    Message('note_on', channel=0, note=72, velocity=104, time=0),\n",
      "    Message('note_on', channel=0, note=64, velocity=0, time=168),\n",
      "    Message('note_on', channel=0, note=67, velocity=0, time=0),\n",
      "    Message('note_on', channel=0, note=60, velocity=0, time=0),\n",
      "    Message('note_on', channel=0, note=72, velocity=0, time=0),\n",
      "    Message('note_on', channel=0, note=74, velocity=104, time=12),\n",
      "    Message('note_on', channel=0, note=74, velocity=0, time=336),\n",
      "    Message('note_on', channel=0, note=66, velocity=104, time=24),\n",
      "    Message('note_on', channel=0, note=71, velocity=104, time=0),\n",
      "    Message('note_on', channel=0, note=74, velocity=104, time=0),\n",
      "    Message('note_on', channel=0, note=62, velocity=104, time=0),\n",
      "    Message('note_on', channel=0, note=66, velocity=0, time=168),\n",
      "    Message('note_on', channel=0, note=71, velocity=0, time=0),\n",
      "    Message('note_on', channel=0, note=74, velocity=0, time=0),\n",
      "    Message('note_on', channel=0, note=62, velocity=0, time=0),\n",
      "    Message('note_on', channel=0, note=72, velocity=104, time=12),\n",
      "    Message('note_on', channel=0, note=72, velocity=0, time=336),\n",
      "    Message('note_on', channel=0, note=67, velocity=104, time=24),\n",
      "    Message('note_on', channel=0, note=62, velocity=104, time=0),\n",
      "    Message('note_on', channel=0, note=71, velocity=104, time=0),\n",
      "    Message('note_on', channel=0, note=67, velocity=0, time=168),\n",
      "    Message('note_on', channel=0, note=62, velocity=0, time=0),\n",
      "    Message('note_on', channel=0, note=71, velocity=0, time=0),\n",
      "    Message('note_on', channel=0, note=66, velocity=104, time=12),\n",
      "    Message('note_on', channel=0, note=69, velocity=104, time=0),\n",
      "    Message('note_on', channel=0, note=66, velocity=0, time=48),\n",
      "    Message('note_on', channel=0, note=69, velocity=0, time=0),\n",
      "    Message('note_on', channel=0, note=62, velocity=104, time=12),\n",
      "    Message('note_on', channel=0, note=62, velocity=0, time=48),\n",
      "    Message('note_on', channel=0, note=64, velocity=104, time=12),\n",
      "    Message('note_on', channel=0, note=64, velocity=0, time=48),\n",
      "    Message('note_on', channel=0, note=66, velocity=104, time=12),\n",
      "    Message('note_on', channel=0, note=69, velocity=104, time=0),\n",
      "    Message('note_on', channel=0, note=66, velocity=0, time=48),\n",
      "    Message('note_on', channel=0, note=69, velocity=0, time=0),\n",
      "    Message('note_on', channel=0, note=69, velocity=104, time=12),\n",
      "    Message('note_on', channel=0, note=69, velocity=0, time=48),\n",
      "    Message('note_on', channel=0, note=67, velocity=104, time=12),\n",
      "    Message('note_on', channel=0, note=67, velocity=0, time=48),\n",
      "    Message('note_on', channel=0, note=69, velocity=104, time=12),\n",
      "    Message('note_on', channel=0, note=69, velocity=0, time=48),\n",
      "    Message('note_on', channel=0, note=72, velocity=104, time=12),\n",
      "    Message('note_on', channel=0, note=72, velocity=0, time=48),\n",
      "    Message('note_on', channel=0, note=71, velocity=104, time=12),\n",
      "    Message('note_on', channel=0, note=71, velocity=0, time=48),\n",
      "    Message('note_on', channel=0, note=72, velocity=104, time=12),\n",
      "    Message('note_on', channel=0, note=72, velocity=0, time=48),\n",
      "    Message('note_on', channel=0, note=69, velocity=104, time=12),\n",
      "    Message('note_on', channel=0, note=69, velocity=0, time=48),\n",
      "    Message('note_on', channel=0, note=66, velocity=104, time=12),\n",
      "    Message('note_on', channel=0, note=66, velocity=0, time=48),\n",
      "    Message('note_on', channel=0, note=62, velocity=104, time=12),\n",
      "    Message('note_on', channel=0, note=62, velocity=0, time=48),\n",
      "    Message('note_on', channel=0, note=66, velocity=104, time=12),\n",
      "    Message('note_on', channel=0, note=66, velocity=0, time=48),\n",
      "    Message('note_on', channel=0, note=69, velocity=104, time=12),\n",
      "    Message('note_on', channel=0, note=69, velocity=0, time=48),\n",
      "    Message('note_on', channel=0, note=72, velocity=104, time=12),\n",
      "    Message('note_on', channel=0, note=72, velocity=0, time=48),\n",
      "    Message('note_on', channel=0, note=71, velocity=104, time=12),\n",
      "    Message('note_on', channel=0, note=71, velocity=0, time=48),\n",
      "    Message('note_on', channel=0, note=69, velocity=104, time=12),\n",
      "    Message('note_on', channel=0, note=69, velocity=0, time=48),\n",
      "    Message('note_on', channel=0, note=67, velocity=104, time=12),\n",
      "    Message('note_on', channel=0, note=71, velocity=104, time=0),\n",
      "    Message('note_on', channel=0, note=67, velocity=0, time=336),\n",
      "    Message('note_on', channel=0, note=71, velocity=0, time=0),\n",
      "    Message('note_on', channel=0, note=64, velocity=104, time=24),\n",
      "    Message('note_on', channel=0, note=72, velocity=104, time=0),\n",
      "    Message('note_on', channel=0, note=67, velocity=104, time=0),\n",
      "    Message('note_on', channel=0, note=60, velocity=104, time=0),\n",
      "    Message('note_on', channel=0, note=64, velocity=0, time=168),\n",
      "    Message('note_on', channel=0, note=72, velocity=0, time=0),\n",
      "    Message('note_on', channel=0, note=67, velocity=0, time=0),\n",
      "    Message('note_on', channel=0, note=60, velocity=0, time=0),\n",
      "    Message('note_on', channel=0, note=67, velocity=104, time=12),\n",
      "    Message('note_on', channel=0, note=62, velocity=104, time=0),\n",
      "    Message('note_on', channel=0, note=74, velocity=104, time=0),\n",
      "    Message('note_on', channel=0, note=67, velocity=0, time=336),\n",
      "    Message('note_on', channel=0, note=62, velocity=0, time=0),\n",
      "    Message('note_on', channel=0, note=74, velocity=0, time=0),\n",
      "    Message('note_on', channel=0, note=67, velocity=104, time=24),\n",
      "    Message('note_on', channel=0, note=64, velocity=104, time=0),\n",
      "    Message('note_on', channel=0, note=71, velocity=104, time=0),\n",
      "    Message('note_on', channel=0, note=67, velocity=0, time=168),\n",
      "    Message('note_on', channel=0, note=64, velocity=0, time=0),\n",
      "    Message('note_on', channel=0, note=71, velocity=0, time=0),\n",
      "    Message('note_on', channel=0, note=69, velocity=63, time=12),\n",
      "    Message('note_on', channel=0, note=69, velocity=0, time=116),\n",
      "    Message('note_on', channel=0, note=71, velocity=74, time=4),\n",
      "    Message('note_on', channel=0, note=72, velocity=68, time=30),\n",
      "    Message('note_on', channel=0, note=71, velocity=0, time=14),\n",
      "    Message('note_on', channel=0, note=71, velocity=65, time=16),\n",
      "    Message('note_on', channel=0, note=66, velocity=67, time=0),\n",
      "    Message('note_on', channel=0, note=62, velocity=55, time=0),\n",
      "    Message('note_on', channel=0, note=72, velocity=0, time=14),\n",
      "    Message('note_on', channel=0, note=66, velocity=55, time=166),\n",
      "    Message('note_on', channel=0, note=60, velocity=46, time=0),\n",
      "    Message('note_on', channel=0, note=69, velocity=45, time=0),\n",
      "    Message('note_on', channel=0, note=71, velocity=0, time=8),\n",
      "    Message('note_on', channel=0, note=66, velocity=0, time=0),\n",
      "    Message('note_on', channel=0, note=62, velocity=0, time=0),\n",
      "    Message('note_on', channel=0, note=67, velocity=104, time=172),\n",
      "    Message('note_on', channel=0, note=66, velocity=0, time=8),\n",
      "    Message('note_on', channel=0, note=60, velocity=0, time=0),\n",
      "    Message('note_on', channel=0, note=69, velocity=0, time=0),\n",
      "    Message('note_on', channel=0, note=67, velocity=0, time=40),\n",
      "    Message('note_on', channel=0, note=71, velocity=104, time=12),\n",
      "    Message('note_on', channel=0, note=71, velocity=0, time=48),\n",
      "    Message('note_on', channel=0, note=69, velocity=104, time=12),\n",
      "    Message('note_on', channel=0, note=69, velocity=0, time=48),\n",
      "    Message('note_on', channel=0, note=71, velocity=104, time=12),\n",
      "    Message('note_on', channel=0, note=71, velocity=0, time=48),\n",
      "    Message('note_on', channel=0, note=74, velocity=104, time=12),\n",
      "    Message('note_on', channel=0, note=74, velocity=0, time=48),\n",
      "    Message('note_on', channel=0, note=72, velocity=104, time=12),\n",
      "    Message('note_on', channel=0, note=72, velocity=0, time=48),\n",
      "    Message('note_on', channel=0, note=72, velocity=104, time=12),\n",
      "    Message('note_on', channel=0, note=72, velocity=0, time=48),\n",
      "    Message('note_on', channel=0, note=76, velocity=104, time=12),\n",
      "    Message('note_on', channel=0, note=76, velocity=0, time=48),\n",
      "    Message('note_on', channel=0, note=74, velocity=104, time=12),\n",
      "    Message('note_on', channel=0, note=74, velocity=0, time=48),\n",
      "    Message('note_on', channel=0, note=74, velocity=104, time=12),\n",
      "    Message('note_on', channel=0, note=74, velocity=0, time=48),\n",
      "    Message('note_on', channel=0, note=79, velocity=104, time=12),\n",
      "    Message('note_on', channel=0, note=79, velocity=0, time=48),\n",
      "    Message('note_on', channel=0, note=78, velocity=104, time=12),\n",
      "    Message('note_on', channel=0, note=78, velocity=0, time=48),\n",
      "    Message('note_on', channel=0, note=79, velocity=104, time=12),\n",
      "    Message('note_on', channel=0, note=79, velocity=0, time=48),\n",
      "    Message('note_on', channel=0, note=74, velocity=104, time=12),\n",
      "    Message('note_on', channel=0, note=74, velocity=0, time=48),\n",
      "    Message('note_on', channel=0, note=71, velocity=104, time=12),\n",
      "    Message('note_on', channel=0, note=71, velocity=0, time=48),\n",
      "    Message('note_on', channel=0, note=67, velocity=104, time=12),\n",
      "    Message('note_on', channel=0, note=67, velocity=0, time=48),\n",
      "    Message('note_on', channel=0, note=69, velocity=104, time=12),\n",
      "    Message('note_on', channel=0, note=69, velocity=0, time=48),\n",
      "    Message('note_on', channel=0, note=71, velocity=104, time=12),\n",
      "    Message('note_on', channel=0, note=71, velocity=0, time=48),\n",
      "    Message('note_on', channel=0, note=72, velocity=104, time=12),\n",
      "    Message('note_on', channel=0, note=72, velocity=0, time=48),\n",
      "    Message('note_on', channel=0, note=74, velocity=104, time=12),\n",
      "    Message('note_on', channel=0, note=74, velocity=0, time=48),\n",
      "    Message('note_on', channel=0, note=76, velocity=104, time=12),\n",
      "    Message('note_on', channel=0, note=76, velocity=0, time=48),\n",
      "    Message('note_on', channel=0, note=74, velocity=104, time=12),\n",
      "    Message('note_on', channel=0, note=74, velocity=0, time=48),\n",
      "    Message('note_on', channel=0, note=72, velocity=104, time=12),\n",
      "    Message('note_on', channel=0, note=72, velocity=0, time=48),\n",
      "    Message('note_on', channel=0, note=71, velocity=104, time=12),\n",
      "    Message('note_on', channel=0, note=71, velocity=0, time=48),\n",
      "    Message('note_on', channel=0, note=69, velocity=104, time=12),\n",
      "    Message('note_on', channel=0, note=69, velocity=0, time=48),\n",
      "    Message('note_on', channel=0, note=71, velocity=104, time=12),\n",
      "    Message('note_on', channel=0, note=71, velocity=0, time=48),\n",
      "    Message('note_on', channel=0, note=67, velocity=104, time=12),\n",
      "    Message('note_on', channel=0, note=67, velocity=0, time=48),\n",
      "    Message('note_on', channel=0, note=66, velocity=104, time=12),\n",
      "    Message('note_on', channel=0, note=66, velocity=0, time=48),\n",
      "    Message('note_on', channel=0, note=67, velocity=104, time=12),\n",
      "    Message('note_on', channel=0, note=67, velocity=0, time=48),\n",
      "    Message('note_on', channel=0, note=69, velocity=104, time=12),\n",
      "    Message('note_on', channel=0, note=69, velocity=0, time=48),\n",
      "    Message('note_on', channel=0, note=62, velocity=104, time=12),\n",
      "    Message('note_on', channel=0, note=62, velocity=0, time=48),\n",
      "    Message('note_on', channel=0, note=66, velocity=104, time=12),\n",
      "    Message('note_on', channel=0, note=66, velocity=0, time=48),\n",
      "    Message('note_on', channel=0, note=69, velocity=104, time=12),\n",
      "    Message('note_on', channel=0, note=69, velocity=0, time=48),\n",
      "    Message('note_on', channel=0, note=72, velocity=104, time=12),\n",
      "    Message('note_on', channel=0, note=72, velocity=0, time=48),\n",
      "    Message('note_on', channel=0, note=71, velocity=104, time=12),\n",
      "    Message('note_on', channel=0, note=71, velocity=0, time=48),\n",
      "    Message('note_on', channel=0, note=69, velocity=104, time=12),\n",
      "    Message('note_on', channel=0, note=69, velocity=0, time=48),\n",
      "    Message('note_on', channel=0, note=71, velocity=104, time=12),\n",
      "    Message('note_on', channel=0, note=71, velocity=0, time=48),\n",
      "    Message('note_on', channel=0, note=67, velocity=104, time=12),\n",
      "    Message('note_on', channel=0, note=67, velocity=0, time=48),\n",
      "    Message('note_on', channel=0, note=69, velocity=104, time=12),\n",
      "    Message('note_on', channel=0, note=69, velocity=0, time=48),\n",
      "    Message('note_on', channel=0, note=71, velocity=104, time=12),\n",
      "    Message('note_on', channel=0, note=71, velocity=0, time=48),\n",
      "    Message('note_on', channel=0, note=74, velocity=104, time=12),\n",
      "    Message('note_on', channel=0, note=74, velocity=0, time=48),\n",
      "    Message('note_on', channel=0, note=72, velocity=104, time=12),\n",
      "    Message('note_on', channel=0, note=72, velocity=0, time=48),\n",
      "    Message('note_on', channel=0, note=72, velocity=104, time=12),\n",
      "    Message('note_on', channel=0, note=72, velocity=0, time=48),\n",
      "    Message('note_on', channel=0, note=76, velocity=104, time=12),\n",
      "    Message('note_on', channel=0, note=76, velocity=0, time=48),\n",
      "    Message('note_on', channel=0, note=74, velocity=104, time=12),\n",
      "    Message('note_on', channel=0, note=74, velocity=0, time=48),\n",
      "    Message('note_on', channel=0, note=74, velocity=104, time=12),\n",
      "    Message('note_on', channel=0, note=74, velocity=0, time=48),\n",
      "    Message('note_on', channel=0, note=79, velocity=104, time=12),\n",
      "    Message('note_on', channel=0, note=79, velocity=0, time=48),\n",
      "    Message('note_on', channel=0, note=78, velocity=104, time=12),\n",
      "    Message('note_on', channel=0, note=78, velocity=0, time=48),\n",
      "    Message('note_on', channel=0, note=79, velocity=104, time=12),\n",
      "    Message('note_on', channel=0, note=79, velocity=0, time=48),\n",
      "    Message('note_on', channel=0, note=74, velocity=104, time=12),\n",
      "    Message('note_on', channel=0, note=74, velocity=0, time=48),\n",
      "    Message('note_on', channel=0, note=71, velocity=104, time=12),\n",
      "    Message('note_on', channel=0, note=71, velocity=0, time=48),\n",
      "    Message('note_on', channel=0, note=67, velocity=104, time=12),\n",
      "    Message('note_on', channel=0, note=67, velocity=0, time=48),\n",
      "    Message('note_on', channel=0, note=69, velocity=104, time=12),\n",
      "    Message('note_on', channel=0, note=69, velocity=0, time=48),\n",
      "    Message('note_on', channel=0, note=71, velocity=104, time=12),\n",
      "    Message('note_on', channel=0, note=71, velocity=0, time=48),\n",
      "    Message('note_on', channel=0, note=64, velocity=104, time=12),\n",
      "    Message('note_on', channel=0, note=64, velocity=0, time=48),\n",
      "    Message('note_on', channel=0, note=74, velocity=104, time=12),\n",
      "    Message('note_on', channel=0, note=74, velocity=0, time=48),\n",
      "    Message('note_on', channel=0, note=72, velocity=104, time=12),\n",
      "    Message('note_on', channel=0, note=72, velocity=0, time=48),\n",
      "    Message('note_on', channel=0, note=71, velocity=104, time=12),\n",
      "    Message('note_on', channel=0, note=71, velocity=0, time=48),\n",
      "    Message('note_on', channel=0, note=69, velocity=104, time=12),\n",
      "    Message('note_on', channel=0, note=69, velocity=0, time=48),\n",
      "    Message('note_on', channel=0, note=67, velocity=104, time=12),\n",
      "    Message('note_on', channel=0, note=67, velocity=0, time=48),\n",
      "    Message('note_on', channel=0, note=62, velocity=104, time=12),\n",
      "    Message('note_on', channel=0, note=62, velocity=0, time=48),\n",
      "    Message('note_on', channel=0, note=67, velocity=104, time=12),\n",
      "    Message('note_on', channel=0, note=67, velocity=0, time=48),\n",
      "    Message('note_on', channel=0, note=66, velocity=104, time=12),\n",
      "    Message('note_on', channel=0, note=66, velocity=0, time=48),\n",
      "    Message('note_on', channel=0, note=67, velocity=104, time=12),\n",
      "    Message('note_on', channel=0, note=71, velocity=104, time=0),\n",
      "    Message('note_on', channel=0, note=67, velocity=0, time=336),\n",
      "    Message('note_on', channel=0, note=71, velocity=0, time=0),\n",
      "    Message('note_on', channel=0, note=64, velocity=104, time=24),\n",
      "    Message('note_on', channel=0, note=60, velocity=104, time=0),\n",
      "    Message('note_on', channel=0, note=67, velocity=104, time=0),\n",
      "    Message('note_on', channel=0, note=72, velocity=104, time=0),\n",
      "    Message('note_on', channel=0, note=64, velocity=0, time=168),\n",
      "    Message('note_on', channel=0, note=60, velocity=0, time=0),\n",
      "    Message('note_on', channel=0, note=67, velocity=0, time=0),\n",
      "    Message('note_on', channel=0, note=72, velocity=0, time=0),\n",
      "    Message('note_on', channel=0, note=74, velocity=104, time=12),\n",
      "    Message('note_on', channel=0, note=74, velocity=0, time=336),\n",
      "    Message('note_on', channel=0, note=66, velocity=104, time=24),\n",
      "    Message('note_on', channel=0, note=71, velocity=104, time=0),\n",
      "    Message('note_on', channel=0, note=74, velocity=104, time=0),\n",
      "    Message('note_on', channel=0, note=62, velocity=104, time=0),\n",
      "    Message('note_on', channel=0, note=66, velocity=0, time=168),\n",
      "    Message('note_on', channel=0, note=71, velocity=0, time=0),\n",
      "    Message('note_on', channel=0, note=74, velocity=0, time=0),\n",
      "    Message('note_on', channel=0, note=62, velocity=0, time=0),\n",
      "    Message('note_on', channel=0, note=72, velocity=104, time=12),\n",
      "    Message('note_on', channel=0, note=72, velocity=0, time=336),\n",
      "    Message('note_on', channel=0, note=67, velocity=104, time=24),\n",
      "    Message('note_on', channel=0, note=62, velocity=104, time=0),\n",
      "    Message('note_on', channel=0, note=71, velocity=104, time=0),\n",
      "    Message('note_on', channel=0, note=67, velocity=0, time=168),\n",
      "    Message('note_on', channel=0, note=62, velocity=0, time=0),\n",
      "    Message('note_on', channel=0, note=71, velocity=0, time=0),\n",
      "    Message('note_on', channel=0, note=66, velocity=104, time=12),\n",
      "    Message('note_on', channel=0, note=69, velocity=104, time=0),\n",
      "    Message('note_on', channel=0, note=66, velocity=0, time=48),\n",
      "    Message('note_on', channel=0, note=69, velocity=0, time=0),\n",
      "    Message('note_on', channel=0, note=62, velocity=104, time=12),\n",
      "    Message('note_on', channel=0, note=62, velocity=0, time=48),\n",
      "    Message('note_on', channel=0, note=64, velocity=104, time=12),\n",
      "    Message('note_on', channel=0, note=64, velocity=0, time=48),\n",
      "    Message('note_on', channel=0, note=66, velocity=104, time=12),\n",
      "    Message('note_on', channel=0, note=69, velocity=104, time=0),\n",
      "    Message('note_on', channel=0, note=66, velocity=0, time=48),\n",
      "    Message('note_on', channel=0, note=69, velocity=0, time=0),\n",
      "    Message('note_on', channel=0, note=69, velocity=104, time=12),\n",
      "    Message('note_on', channel=0, note=69, velocity=0, time=48),\n",
      "    Message('note_on', channel=0, note=67, velocity=104, time=12),\n",
      "    Message('note_on', channel=0, note=67, velocity=0, time=48),\n",
      "    Message('note_on', channel=0, note=69, velocity=104, time=12),\n",
      "    Message('note_on', channel=0, note=69, velocity=0, time=48),\n",
      "    Message('note_on', channel=0, note=72, velocity=104, time=12),\n",
      "    Message('note_on', channel=0, note=72, velocity=0, time=48),\n",
      "    Message('note_on', channel=0, note=71, velocity=104, time=12),\n",
      "    Message('note_on', channel=0, note=71, velocity=0, time=48),\n",
      "    Message('note_on', channel=0, note=72, velocity=104, time=12),\n",
      "    Message('note_on', channel=0, note=72, velocity=0, time=48),\n",
      "    Message('note_on', channel=0, note=69, velocity=104, time=12),\n",
      "    Message('note_on', channel=0, note=69, velocity=0, time=48),\n",
      "    Message('note_on', channel=0, note=66, velocity=104, time=12),\n",
      "    Message('note_on', channel=0, note=66, velocity=0, time=48),\n",
      "    Message('note_on', channel=0, note=62, velocity=104, time=12),\n",
      "    Message('note_on', channel=0, note=62, velocity=0, time=48),\n",
      "    Message('note_on', channel=0, note=66, velocity=104, time=12),\n",
      "    Message('note_on', channel=0, note=66, velocity=0, time=48),\n",
      "    Message('note_on', channel=0, note=69, velocity=104, time=12),\n",
      "    Message('note_on', channel=0, note=69, velocity=0, time=48),\n",
      "    Message('note_on', channel=0, note=72, velocity=104, time=12),\n",
      "    Message('note_on', channel=0, note=72, velocity=0, time=48),\n",
      "    Message('note_on', channel=0, note=71, velocity=104, time=12),\n",
      "    Message('note_on', channel=0, note=71, velocity=0, time=48),\n",
      "    Message('note_on', channel=0, note=69, velocity=104, time=12),\n",
      "    Message('note_on', channel=0, note=69, velocity=0, time=48),\n",
      "    Message('note_on', channel=0, note=71, velocity=104, time=12),\n",
      "    Message('note_on', channel=0, note=67, velocity=104, time=0),\n",
      "    Message('note_on', channel=0, note=71, velocity=0, time=336),\n",
      "    Message('note_on', channel=0, note=67, velocity=0, time=0),\n",
      "    Message('note_on', channel=0, note=64, velocity=104, time=24),\n",
      "    Message('note_on', channel=0, note=60, velocity=104, time=0),\n",
      "    Message('note_on', channel=0, note=67, velocity=104, time=0),\n",
      "    Message('note_on', channel=0, note=72, velocity=104, time=0),\n",
      "    Message('note_on', channel=0, note=64, velocity=0, time=168),\n",
      "    Message('note_on', channel=0, note=60, velocity=0, time=0),\n",
      "    Message('note_on', channel=0, note=67, velocity=0, time=0),\n",
      "    Message('note_on', channel=0, note=72, velocity=0, time=0),\n",
      "    Message('note_on', channel=0, note=67, velocity=104, time=12),\n",
      "    Message('note_on', channel=0, note=74, velocity=104, time=0),\n",
      "    Message('note_on', channel=0, note=62, velocity=104, time=0),\n",
      "    Message('note_on', channel=0, note=67, velocity=0, time=336),\n",
      "    Message('note_on', channel=0, note=74, velocity=0, time=0),\n",
      "    Message('note_on', channel=0, note=62, velocity=0, time=0),\n",
      "    Message('note_on', channel=0, note=67, velocity=104, time=24),\n",
      "    Message('note_on', channel=0, note=64, velocity=104, time=0),\n",
      "    Message('note_on', channel=0, note=71, velocity=104, time=0),\n",
      "    Message('note_on', channel=0, note=67, velocity=0, time=168),\n",
      "    Message('note_on', channel=0, note=64, velocity=0, time=0),\n",
      "    Message('note_on', channel=0, note=71, velocity=0, time=0),\n",
      "    Message('note_on', channel=0, note=69, velocity=104, time=12),\n",
      "    Message('note_on', channel=0, note=69, velocity=0, time=116),\n",
      "    Message('note_on', channel=0, note=71, velocity=104, time=4),\n",
      "    Message('note_on', channel=0, note=72, velocity=104, time=30),\n",
      "    Message('note_on', channel=0, note=71, velocity=0, time=14),\n",
      "    Message('note_on', channel=0, note=66, velocity=104, time=16),\n",
      "    Message('note_on', channel=0, note=71, velocity=104, time=0),\n",
      "    Message('note_on', channel=0, note=62, velocity=104, time=0),\n",
      "    Message('note_on', channel=0, note=72, velocity=0, time=14),\n",
      "    Message('note_on', channel=0, note=66, velocity=0, time=154),\n",
      "    Message('note_on', channel=0, note=71, velocity=0, time=0),\n",
      "    Message('note_on', channel=0, note=62, velocity=0, time=0),\n",
      "    Message('note_on', channel=0, note=66, velocity=104, time=12),\n",
      "    Message('note_on', channel=0, note=60, velocity=104, time=0),\n",
      "    Message('note_on', channel=0, note=69, velocity=104, time=0),\n",
      "    Message('note_on', channel=0, note=66, velocity=0, time=168),\n",
      "    Message('note_on', channel=0, note=60, velocity=0, time=0),\n",
      "    Message('note_on', channel=0, note=69, velocity=0, time=0),\n",
      "    Message('note_on', channel=0, note=67, velocity=104, time=12),\n",
      "    Message('note_on', channel=0, note=67, velocity=0, time=48),\n",
      "    Message('note_on', channel=0, note=71, velocity=104, time=12),\n",
      "    Message('note_on', channel=0, note=71, velocity=0, time=48),\n",
      "    Message('note_on', channel=0, note=69, velocity=104, time=12),\n",
      "    Message('note_on', channel=0, note=69, velocity=0, time=48),\n",
      "    Message('note_on', channel=0, note=71, velocity=104, time=12),\n",
      "    Message('note_on', channel=0, note=71, velocity=0, time=48),\n",
      "    Message('note_on', channel=0, note=74, velocity=104, time=12),\n",
      "    Message('note_on', channel=0, note=74, velocity=0, time=48),\n",
      "    Message('note_on', channel=0, note=72, velocity=104, time=12),\n",
      "    Message('note_on', channel=0, note=72, velocity=0, time=48),\n",
      "    Message('note_on', channel=0, note=72, velocity=104, time=12),\n",
      "    Message('note_on', channel=0, note=72, velocity=0, time=48),\n",
      "    Message('note_on', channel=0, note=76, velocity=104, time=12),\n",
      "    Message('note_on', channel=0, note=76, velocity=0, time=48),\n",
      "    Message('note_on', channel=0, note=74, velocity=104, time=12),\n",
      "    Message('note_on', channel=0, note=74, velocity=0, time=48),\n",
      "    Message('note_on', channel=0, note=74, velocity=104, time=12),\n",
      "    Message('note_on', channel=0, note=74, velocity=0, time=48),\n",
      "    Message('note_on', channel=0, note=79, velocity=104, time=12),\n",
      "    Message('note_on', channel=0, note=79, velocity=0, time=48),\n",
      "    Message('note_on', channel=0, note=78, velocity=104, time=12),\n",
      "    Message('note_on', channel=0, note=78, velocity=0, time=48),\n",
      "    Message('note_on', channel=0, note=79, velocity=104, time=12),\n",
      "    Message('note_on', channel=0, note=79, velocity=0, time=48),\n",
      "    Message('note_on', channel=0, note=74, velocity=104, time=12),\n",
      "    Message('note_on', channel=0, note=74, velocity=0, time=48),\n",
      "    Message('note_on', channel=0, note=71, velocity=104, time=12),\n",
      "    Message('note_on', channel=0, note=71, velocity=0, time=48),\n",
      "    Message('note_on', channel=0, note=67, velocity=104, time=12),\n",
      "    Message('note_on', channel=0, note=67, velocity=0, time=48),\n",
      "    Message('note_on', channel=0, note=69, velocity=104, time=12),\n",
      "    Message('note_on', channel=0, note=69, velocity=0, time=48),\n",
      "    Message('note_on', channel=0, note=71, velocity=104, time=12),\n",
      "    Message('note_on', channel=0, note=71, velocity=0, time=48),\n",
      "    Message('note_on', channel=0, note=72, velocity=104, time=12),\n",
      "    Message('note_on', channel=0, note=72, velocity=0, time=48),\n",
      "    Message('note_on', channel=0, note=74, velocity=104, time=12),\n",
      "    Message('note_on', channel=0, note=74, velocity=0, time=48),\n",
      "    Message('note_on', channel=0, note=76, velocity=104, time=12),\n",
      "    Message('note_on', channel=0, note=76, velocity=0, time=48),\n",
      "    Message('note_on', channel=0, note=74, velocity=104, time=12),\n",
      "    Message('note_on', channel=0, note=74, velocity=0, time=48),\n",
      "    Message('note_on', channel=0, note=72, velocity=104, time=12),\n",
      "    Message('note_on', channel=0, note=72, velocity=0, time=48),\n",
      "    Message('note_on', channel=0, note=71, velocity=104, time=12),\n",
      "    Message('note_on', channel=0, note=71, velocity=0, time=48),\n",
      "    Message('note_on', channel=0, note=69, velocity=104, time=12),\n",
      "    Message('note_on', channel=0, note=69, velocity=0, time=48),\n",
      "    Message('note_on', channel=0, note=71, velocity=104, time=12),\n",
      "    Message('note_on', channel=0, note=71, velocity=0, time=48),\n",
      "    Message('note_on', channel=0, note=67, velocity=104, time=12),\n",
      "    Message('note_on', channel=0, note=67, velocity=0, time=48),\n",
      "    Message('note_on', channel=0, note=66, velocity=104, time=12),\n",
      "    Message('note_on', channel=0, note=66, velocity=0, time=48),\n",
      "    Message('note_on', channel=0, note=67, velocity=104, time=12),\n",
      "    Message('note_on', channel=0, note=67, velocity=0, time=48),\n",
      "    Message('note_on', channel=0, note=69, velocity=104, time=12),\n",
      "    Message('note_on', channel=0, note=69, velocity=0, time=48),\n",
      "    Message('note_on', channel=0, note=62, velocity=104, time=12),\n",
      "    Message('note_on', channel=0, note=62, velocity=0, time=48),\n",
      "    Message('note_on', channel=0, note=66, velocity=104, time=12),\n",
      "    Message('note_on', channel=0, note=66, velocity=0, time=48),\n",
      "    Message('note_on', channel=0, note=69, velocity=104, time=12),\n",
      "    Message('note_on', channel=0, note=69, velocity=0, time=48),\n",
      "    Message('note_on', channel=0, note=72, velocity=104, time=12),\n",
      "    Message('note_on', channel=0, note=72, velocity=0, time=48),\n",
      "    Message('note_on', channel=0, note=71, velocity=104, time=12),\n",
      "    Message('note_on', channel=0, note=71, velocity=0, time=48),\n",
      "    Message('note_on', channel=0, note=69, velocity=104, time=12),\n",
      "    Message('note_on', channel=0, note=69, velocity=0, time=48),\n",
      "    Message('note_on', channel=0, note=71, velocity=104, time=12),\n",
      "    Message('note_on', channel=0, note=71, velocity=0, time=48),\n",
      "    Message('note_on', channel=0, note=67, velocity=104, time=12),\n",
      "    Message('note_on', channel=0, note=67, velocity=0, time=48),\n",
      "    Message('note_on', channel=0, note=69, velocity=104, time=12),\n",
      "    Message('note_on', channel=0, note=69, velocity=0, time=48),\n",
      "    Message('note_on', channel=0, note=71, velocity=104, time=12),\n",
      "    Message('note_on', channel=0, note=71, velocity=0, time=48),\n",
      "    Message('note_on', channel=0, note=74, velocity=104, time=12),\n",
      "    Message('note_on', channel=0, note=74, velocity=0, time=48),\n",
      "    Message('note_on', channel=0, note=72, velocity=104, time=12),\n",
      "    Message('note_on', channel=0, note=72, velocity=0, time=48),\n",
      "    Message('note_on', channel=0, note=72, velocity=104, time=12),\n",
      "    Message('note_on', channel=0, note=72, velocity=0, time=48),\n",
      "    Message('note_on', channel=0, note=76, velocity=104, time=12),\n",
      "    Message('note_on', channel=0, note=76, velocity=0, time=48),\n",
      "    Message('note_on', channel=0, note=74, velocity=104, time=12),\n",
      "    Message('note_on', channel=0, note=74, velocity=0, time=48),\n",
      "    Message('note_on', channel=0, note=74, velocity=104, time=12),\n",
      "    Message('note_on', channel=0, note=74, velocity=0, time=48),\n",
      "    Message('note_on', channel=0, note=79, velocity=104, time=12),\n",
      "    Message('note_on', channel=0, note=79, velocity=0, time=48),\n",
      "    Message('note_on', channel=0, note=78, velocity=104, time=12),\n",
      "    Message('note_on', channel=0, note=78, velocity=0, time=48),\n",
      "    Message('note_on', channel=0, note=79, velocity=104, time=12),\n",
      "    Message('note_on', channel=0, note=79, velocity=0, time=48),\n",
      "    Message('note_on', channel=0, note=74, velocity=104, time=12),\n",
      "    Message('note_on', channel=0, note=74, velocity=0, time=48),\n",
      "    Message('note_on', channel=0, note=71, velocity=104, time=12),\n",
      "    Message('note_on', channel=0, note=71, velocity=0, time=48),\n",
      "    Message('note_on', channel=0, note=67, velocity=104, time=12),\n",
      "    Message('note_on', channel=0, note=67, velocity=0, time=48),\n",
      "    Message('note_on', channel=0, note=69, velocity=104, time=12),\n",
      "    Message('note_on', channel=0, note=69, velocity=0, time=48),\n",
      "    Message('note_on', channel=0, note=71, velocity=104, time=12),\n",
      "    Message('note_on', channel=0, note=71, velocity=0, time=48),\n",
      "    Message('note_on', channel=0, note=64, velocity=104, time=12),\n",
      "    Message('note_on', channel=0, note=64, velocity=0, time=48),\n",
      "    Message('note_on', channel=0, note=74, velocity=104, time=12),\n",
      "    Message('note_on', channel=0, note=74, velocity=0, time=48),\n",
      "    Message('note_on', channel=0, note=72, velocity=104, time=12),\n",
      "    Message('note_on', channel=0, note=72, velocity=0, time=48),\n",
      "    Message('note_on', channel=0, note=71, velocity=104, time=12),\n",
      "    Message('note_on', channel=0, note=71, velocity=0, time=48),\n",
      "    Message('note_on', channel=0, note=69, velocity=104, time=12),\n",
      "    Message('note_on', channel=0, note=69, velocity=0, time=48),\n",
      "    Message('note_on', channel=0, note=67, velocity=104, time=12),\n",
      "    Message('note_on', channel=0, note=67, velocity=0, time=48),\n",
      "    Message('note_on', channel=0, note=62, velocity=104, time=12),\n",
      "    Message('note_on', channel=0, note=62, velocity=0, time=48),\n",
      "    Message('note_on', channel=0, note=67, velocity=104, time=12),\n",
      "    Message('note_on', channel=0, note=67, velocity=0, time=48),\n",
      "    Message('note_on', channel=0, note=66, velocity=104, time=12),\n",
      "    Message('note_on', channel=0, note=66, velocity=0, time=48),\n",
      "    Message('note_on', channel=0, note=67, velocity=104, time=12),\n",
      "    Message('note_on', channel=0, note=67, velocity=0, time=48),\n",
      "    Message('note_on', channel=0, note=71, velocity=104, time=12),\n",
      "    Message('note_on', channel=0, note=71, velocity=0, time=48),\n",
      "    Message('note_on', channel=0, note=74, velocity=104, time=12),\n",
      "    Message('note_on', channel=0, note=74, velocity=0, time=48),\n",
      "    Message('note_on', channel=0, note=79, velocity=104, time=12),\n",
      "    Message('note_on', channel=0, note=79, velocity=0, time=48),\n",
      "    Message('note_on', channel=0, note=74, velocity=104, time=12),\n",
      "    Message('note_on', channel=0, note=74, velocity=0, time=48),\n",
      "    Message('note_on', channel=0, note=71, velocity=104, time=12),\n",
      "    Message('note_on', channel=0, note=71, velocity=0, time=48),\n",
      "    Message('note_on', channel=0, note=67, velocity=104, time=12),\n",
      "    Message('note_on', channel=0, note=67, velocity=0, time=168),\n",
      "    Message('note_on', channel=0, note=66, velocity=94, time=13),\n",
      "    Message('note_on', channel=0, note=69, velocity=94, time=0),\n",
      "    Message('note_on', channel=0, note=66, velocity=0, time=336),\n",
      "    Message('note_on', channel=0, note=69, velocity=0, time=0),\n",
      "    Message('note_on', channel=0, note=68, velocity=94, time=24),\n",
      "    Message('note_on', channel=0, note=71, velocity=94, time=0),\n",
      "    Message('note_on', channel=0, note=62, velocity=94, time=0),\n",
      "    Message('note_on', channel=0, note=68, velocity=0, time=168),\n",
      "    Message('note_on', channel=0, note=71, velocity=0, time=0),\n",
      "    Message('note_on', channel=0, note=62, velocity=0, time=0),\n",
      "    Message('note_on', channel=0, note=72, velocity=94, time=12),\n",
      "    Message('note_on', channel=0, note=64, velocity=94, time=0),\n",
      "    Message('note_on', channel=0, note=69, velocity=94, time=0),\n",
      "    Message('note_on', channel=0, note=72, velocity=0, time=336),\n",
      "    Message('note_on', channel=0, note=64, velocity=0, time=0),\n",
      "    Message('note_on', channel=0, note=69, velocity=0, time=0),\n",
      "    Message('note_on', channel=0, note=69, velocity=94, time=24),\n",
      "    Message('note_on', channel=0, note=64, velocity=94, time=0),\n",
      "    Message('note_on', channel=0, note=72, velocity=94, time=0),\n",
      "    Message('note_on', channel=0, note=69, velocity=0, time=168),\n",
      "    Message('note_on', channel=0, note=64, velocity=0, time=0),\n",
      "    Message('note_on', channel=0, note=72, velocity=0, time=0),\n",
      "    Message('note_on', channel=0, note=71, velocity=94, time=12),\n",
      "    Message('note_on', channel=0, note=71, velocity=0, time=276),\n",
      "    Message('note_on', channel=0, note=72, velocity=94, time=24),\n",
      "    Message('note_on', channel=0, note=72, velocity=0, time=24),\n",
      "    Message('note_on', channel=0, note=74, velocity=94, time=6),\n",
      "    Message('note_on', channel=0, note=74, velocity=0, time=24),\n",
      "    Message('note_on', channel=0, note=71, velocity=94, time=6),\n",
      "    Message('note_on', channel=0, note=68, velocity=94, time=0),\n",
      "    Message('note_on', channel=0, note=71, velocity=0, time=168),\n",
      "    Message('note_on', channel=0, note=68, velocity=0, time=0),\n",
      "    Message('note_on', channel=0, note=69, velocity=94, time=12),\n",
      "    Message('note_on', channel=0, note=69, velocity=0, time=168),\n",
      "    Message('note_on', channel=0, note=69, velocity=94, time=12),\n",
      "    Message('note_on', channel=0, note=69, velocity=0, time=48),\n",
      "    Message('note_on', channel=0, note=76, velocity=94, time=12),\n",
      "    Message('note_on', channel=0, note=76, velocity=0, time=48),\n",
      "    Message('note_on', channel=0, note=74, velocity=94, time=12),\n",
      "    Message('note_on', channel=0, note=74, velocity=0, time=48),\n",
      "    Message('note_on', channel=0, note=74, velocity=94, time=12),\n",
      "    Message('note_on', channel=0, note=74, velocity=0, time=48),\n",
      "    Message('note_on', channel=0, note=77, velocity=94, time=12),\n",
      "    Message('note_on', channel=0, note=77, velocity=0, time=48),\n",
      "    Message('note_on', channel=0, note=76, velocity=94, time=12),\n",
      "    Message('note_on', channel=0, note=76, velocity=0, time=48),\n",
      "    Message('note_on', channel=0, note=76, velocity=94, time=12),\n",
      "    Message('note_on', channel=0, note=76, velocity=0, time=48),\n",
      "    Message('note_on', channel=0, note=81, velocity=94, time=12),\n",
      "    Message('note_on', channel=0, note=81, velocity=0, time=48),\n",
      "    Message('note_on', channel=0, note=80, velocity=94, time=12),\n",
      "    Message('note_on', channel=0, note=80, velocity=0, time=48),\n",
      "    Message('note_on', channel=0, note=81, velocity=94, time=12),\n",
      "    Message('note_on', channel=0, note=81, velocity=0, time=48),\n",
      "    Message('note_on', channel=0, note=76, velocity=94, time=12),\n",
      "    Message('note_on', channel=0, note=76, velocity=0, time=48),\n",
      "    Message('note_on', channel=0, note=72, velocity=94, time=12),\n",
      "    Message('note_on', channel=0, note=72, velocity=0, time=48),\n",
      "    Message('note_on', channel=0, note=69, velocity=94, time=12),\n",
      "    Message('note_on', channel=0, note=69, velocity=0, time=48),\n",
      "    Message('note_on', channel=0, note=71, velocity=94, time=12),\n",
      "    Message('note_on', channel=0, note=71, velocity=0, time=48),\n",
      "    Message('note_on', channel=0, note=72, velocity=94, time=12),\n",
      "    Message('note_on', channel=0, note=72, velocity=0, time=48),\n",
      "    Message('note_on', channel=0, note=77, velocity=94, time=12),\n",
      "    Message('note_on', channel=0, note=77, velocity=0, time=48),\n",
      "    Message('note_on', channel=0, note=76, velocity=94, time=12),\n",
      "    Message('note_on', channel=0, note=76, velocity=0, time=48),\n",
      "    Message('note_on', channel=0, note=74, velocity=94, time=12),\n",
      "    Message('note_on', channel=0, note=74, velocity=0, time=48),\n",
      "    Message('note_on', channel=0, note=72, velocity=94, time=12),\n",
      "    Message('note_on', channel=0, note=72, velocity=0, time=48),\n",
      "    Message('note_on', channel=0, note=71, velocity=94, time=12),\n",
      "    Message('note_on', channel=0, note=71, velocity=0, time=48),\n",
      "    Message('note_on', channel=0, note=69, velocity=94, time=12),\n",
      "    Message('note_on', channel=0, note=69, velocity=0, time=48),\n",
      "    Message('note_on', channel=0, note=64, velocity=94, time=12),\n",
      "    Message('note_on', channel=0, note=64, velocity=0, time=48),\n",
      "    Message('note_on', channel=0, note=69, velocity=94, time=12),\n",
      "    Message('note_on', channel=0, note=69, velocity=0, time=48),\n",
      "    Message('note_on', channel=0, note=68, velocity=94, time=12),\n",
      "    Message('note_on', channel=0, note=62, velocity=94, time=0),\n",
      "    Message('note_on', channel=0, note=68, velocity=0, time=48),\n",
      "    Message('note_on', channel=0, note=62, velocity=0, time=0),\n",
      "    Message('note_on', channel=0, note=64, velocity=94, time=12),\n",
      "    Message('note_on', channel=0, note=69, velocity=94, time=0),\n",
      "    Message('note_on', channel=0, note=72, velocity=94, time=0),\n",
      "    Message('note_on', channel=0, note=64, velocity=0, time=336),\n",
      "    Message('note_on', channel=0, note=69, velocity=0, time=0),\n",
      "    Message('note_on', channel=0, note=72, velocity=0, time=0),\n",
      "    Message('note_on', channel=0, note=74, velocity=94, time=24),\n",
      "    Message('note_on', channel=0, note=62, velocity=94, time=0),\n",
      "    Message('note_on', channel=0, note=67, velocity=94, time=0),\n",
      "    Message('note_on', channel=0, note=74, velocity=0, time=168),\n",
      "    Message('note_on', channel=0, note=62, velocity=0, time=0),\n",
      "    Message('note_on', channel=0, note=67, velocity=0, time=0),\n",
      "    Message('note_on', channel=0, note=72, velocity=94, time=12),\n",
      "    Message('note_on', channel=0, note=76, velocity=94, time=0),\n",
      "    Message('note_on', channel=0, note=72, velocity=0, time=336),\n",
      "    Message('note_on', channel=0, note=76, velocity=0, time=0),\n",
      "    Message('note_on', channel=0, note=72, velocity=94, time=24),\n",
      "    Message('note_on', channel=0, note=76, velocity=94, time=0),\n",
      "    Message('note_on', channel=0, note=67, velocity=94, time=0),\n",
      "    Message('note_on', channel=0, note=72, velocity=0, time=168),\n",
      "    Message('note_on', channel=0, note=76, velocity=0, time=0),\n",
      "    Message('note_on', channel=0, note=67, velocity=0, time=0),\n",
      "    Message('note_on', channel=0, note=74, velocity=94, time=12),\n",
      "    Message('note_on', channel=0, note=74, velocity=0, time=276),\n",
      "    Message('note_on', channel=0, note=76, velocity=94, time=24),\n",
      "    Message('note_on', channel=0, note=76, velocity=0, time=24),\n",
      "    Message('note_on', channel=0, note=77, velocity=94, time=6),\n",
      "    Message('note_on', channel=0, note=77, velocity=0, time=24),\n",
      "    Message('note_on', channel=0, note=74, velocity=94, time=6),\n",
      "    Message('note_on', channel=0, note=74, velocity=0, time=168),\n",
      "    Message('note_on', channel=0, note=64, velocity=94, time=12),\n",
      "    Message('note_on', channel=0, note=72, velocity=94, time=0),\n",
      "    Message('note_on', channel=0, note=64, velocity=0, time=168),\n",
      "    Message('note_on', channel=0, note=72, velocity=0, time=0),\n",
      "    Message('note_on', channel=0, note=72, velocity=94, time=12),\n",
      "    Message('note_on', channel=0, note=72, velocity=0, time=48),\n",
      "    Message('note_on', channel=0, note=76, velocity=94, time=12),\n",
      "    Message('note_on', channel=0, note=76, velocity=0, time=48),\n",
      "    Message('note_on', channel=0, note=72, velocity=94, time=12),\n",
      "    Message('note_on', channel=0, note=72, velocity=0, time=48),\n",
      "    Message('note_on', channel=0, note=67, velocity=94, time=12),\n",
      "    Message('note_on', channel=0, note=67, velocity=0, time=48),\n",
      "    Message('note_on', channel=0, note=69, velocity=94, time=12),\n",
      "    Message('note_on', channel=0, note=69, velocity=0, time=48),\n",
      "    Message('note_on', channel=0, note=70, velocity=94, time=12),\n",
      "    Message('note_on', channel=0, note=70, velocity=0, time=48),\n",
      "    Message('note_on', channel=0, note=69, velocity=94, time=12),\n",
      "    Message('note_on', channel=0, note=69, velocity=0, time=48),\n",
      "    Message('note_on', channel=0, note=72, velocity=94, time=12),\n",
      "    Message('note_on', channel=0, note=72, velocity=0, time=48),\n",
      "    Message('note_on', channel=0, note=71, velocity=94, time=12),\n",
      "    Message('note_on', channel=0, note=71, velocity=0, time=48),\n",
      "    Message('note_on', channel=0, note=72, velocity=94, time=12),\n",
      "    Message('note_on', channel=0, note=72, velocity=0, time=48),\n",
      "    Message('note_on', channel=0, note=69, velocity=94, time=12),\n",
      "    Message('note_on', channel=0, note=69, velocity=0, time=48),\n",
      "    Message('note_on', channel=0, note=66, velocity=94, time=12),\n",
      "    Message('note_on', channel=0, note=66, velocity=0, time=48),\n",
      "    Message('note_on', channel=0, note=62, velocity=94, time=12),\n",
      "    Message('note_on', channel=0, note=62, velocity=0, time=48),\n",
      "    Message('note_on', channel=0, note=64, velocity=94, time=12),\n",
      "    Message('note_on', channel=0, note=64, velocity=0, time=48),\n",
      "    Message('note_on', channel=0, note=66, velocity=94, time=12),\n",
      "    Message('note_on', channel=0, note=66, velocity=0, time=48),\n",
      "    Message('note_on', channel=0, note=64, velocity=94, time=12),\n",
      "    Message('note_on', channel=0, note=64, velocity=0, time=48),\n",
      "    Message('note_on', channel=0, note=60, velocity=94, time=12),\n",
      "    Message('note_on', channel=0, note=60, velocity=0, time=48),\n",
      "    Message('note_on', channel=0, note=62, velocity=94, time=12),\n",
      "    Message('note_on', channel=0, note=62, velocity=0, time=48),\n",
      "    Message('note_on', channel=0, note=64, velocity=94, time=12),\n",
      "    Message('note_on', channel=0, note=64, velocity=0, time=48),\n",
      "    Message('note_on', channel=0, note=67, velocity=94, time=12),\n",
      "    Message('note_on', channel=0, note=67, velocity=0, time=48),\n",
      "    Message('note_on', channel=0, note=66, velocity=94, time=12),\n",
      "    Message('note_on', channel=0, note=66, velocity=0, time=48),\n",
      "    Message('note_on', channel=0, note=67, velocity=94, time=12),\n",
      "    Message('note_on', channel=0, note=67, velocity=0, time=48),\n",
      "    Message('note_on', channel=0, note=71, velocity=94, time=12),\n",
      "    Message('note_on', channel=0, note=71, velocity=0, time=48),\n",
      "    Message('note_on', channel=0, note=69, velocity=94, time=12),\n",
      "    Message('note_on', channel=0, note=69, velocity=0, time=48),\n",
      "    Message('note_on', channel=0, note=67, velocity=94, time=12),\n",
      "    Message('note_on', channel=0, note=71, velocity=94, time=0),\n",
      "    Message('note_on', channel=0, note=67, velocity=0, time=336),\n",
      "    Message('note_on', channel=0, note=71, velocity=0, time=0),\n",
      "    Message('note_on', channel=0, note=64, velocity=94, time=24),\n",
      "    Message('note_on', channel=0, note=60, velocity=94, time=0),\n",
      "    Message('note_on', channel=0, note=67, velocity=94, time=0),\n",
      "    Message('note_on', channel=0, note=72, velocity=94, time=0),\n",
      "    Message('note_on', channel=0, note=64, velocity=0, time=168),\n",
      "    Message('note_on', channel=0, note=60, velocity=0, time=0),\n",
      "    Message('note_on', channel=0, note=67, velocity=0, time=0),\n",
      "    Message('note_on', channel=0, note=72, velocity=0, time=0),\n",
      "    Message('note_on', channel=0, note=74, velocity=94, time=12),\n",
      "    Message('note_on', channel=0, note=67, velocity=94, time=0),\n",
      "    Message('note_on', channel=0, note=62, velocity=94, time=0),\n",
      "    Message('note_on', channel=0, note=74, velocity=0, time=336),\n",
      "    Message('note_on', channel=0, note=67, velocity=0, time=0),\n",
      "    Message('note_on', channel=0, note=62, velocity=0, time=0),\n",
      "    Message('note_on', channel=0, note=74, velocity=94, time=24),\n",
      "    Message('note_on', channel=0, note=67, velocity=94, time=0),\n",
      "    Message('note_on', channel=0, note=62, velocity=94, time=0),\n",
      "    Message('note_on', channel=0, note=74, velocity=0, time=168),\n",
      "    Message('note_on', channel=0, note=67, velocity=0, time=0),\n",
      "    Message('note_on', channel=0, note=62, velocity=0, time=0),\n",
      "    Message('note_on', channel=0, note=69, velocity=94, time=12),\n",
      "    Message('note_on', channel=0, note=64, velocity=94, time=0),\n",
      "    Message('note_on', channel=0, note=72, velocity=94, time=0),\n",
      "    Message('note_on', channel=0, note=69, velocity=0, time=168),\n",
      "    Message('note_on', channel=0, note=64, velocity=0, time=0),\n",
      "    Message('note_on', channel=0, note=72, velocity=0, time=0),\n",
      "    Message('note_on', channel=0, note=71, velocity=94, time=12),\n",
      "    Message('note_on', channel=0, note=71, velocity=0, time=336),\n",
      "    Message('note_on', channel=0, note=66, velocity=94, time=24),\n",
      "    Message('note_on', channel=0, note=69, velocity=94, time=0),\n",
      "    Message('note_on', channel=0, note=66, velocity=0, time=48),\n",
      "    Message('note_on', channel=0, note=69, velocity=0, time=0),\n",
      "    Message('note_on', channel=0, note=62, velocity=94, time=12),\n",
      "    Message('note_on', channel=0, note=62, velocity=0, time=48),\n",
      "    Message('note_on', channel=0, note=64, velocity=94, time=12),\n",
      "    Message('note_on', channel=0, note=64, velocity=0, time=48),\n",
      "    Message('note_on', channel=0, note=66, velocity=94, time=12),\n",
      "    Message('note_on', channel=0, note=66, velocity=0, time=48),\n",
      "    Message('note_on', channel=0, note=69, velocity=94, time=12),\n",
      "    Message('note_on', channel=0, note=69, velocity=0, time=48),\n",
      "    Message('note_on', channel=0, note=67, velocity=94, time=12),\n",
      "    Message('note_on', channel=0, note=67, velocity=0, time=48),\n",
      "    Message('note_on', channel=0, note=69, velocity=94, time=12),\n",
      "    Message('note_on', channel=0, note=69, velocity=0, time=48),\n",
      "    Message('note_on', channel=0, note=72, velocity=94, time=12),\n",
      "    Message('note_on', channel=0, note=72, velocity=0, time=48),\n",
      "    Message('note_on', channel=0, note=71, velocity=94, time=12),\n",
      "    Message('note_on', channel=0, note=71, velocity=0, time=48),\n",
      "    Message('note_on', channel=0, note=72, velocity=94, time=12),\n",
      "    Message('note_on', channel=0, note=72, velocity=0, time=48),\n",
      "    Message('note_on', channel=0, note=69, velocity=94, time=12),\n",
      "    Message('note_on', channel=0, note=69, velocity=0, time=48),\n",
      "    Message('note_on', channel=0, note=66, velocity=94, time=12),\n",
      "    Message('note_on', channel=0, note=66, velocity=0, time=48),\n",
      "    Message('note_on', channel=0, note=62, velocity=94, time=12),\n",
      "    Message('note_on', channel=0, note=62, velocity=0, time=48),\n",
      "    Message('note_on', channel=0, note=66, velocity=94, time=12),\n",
      "    Message('note_on', channel=0, note=66, velocity=0, time=48),\n",
      "    Message('note_on', channel=0, note=69, velocity=94, time=12),\n",
      "    Message('note_on', channel=0, note=69, velocity=0, time=48),\n",
      "    Message('note_on', channel=0, note=72, velocity=94, time=12),\n",
      "    Message('note_on', channel=0, note=72, velocity=0, time=48),\n",
      "    Message('note_on', channel=0, note=71, velocity=94, time=12),\n",
      "    Message('note_on', channel=0, note=71, velocity=0, time=48),\n",
      "    Message('note_on', channel=0, note=69, velocity=94, time=12),\n",
      "    Message('note_on', channel=0, note=69, velocity=0, time=48),\n",
      "    Message('note_on', channel=0, note=67, velocity=94, time=12),\n",
      "    Message('note_on', channel=0, note=71, velocity=94, time=0),\n",
      "    Message('note_on', channel=0, note=67, velocity=0, time=336),\n",
      "    Message('note_on', channel=0, note=71, velocity=0, time=0),\n",
      "    Message('note_on', channel=0, note=72, velocity=94, time=24),\n",
      "    Message('note_on', channel=0, note=67, velocity=94, time=0),\n",
      "    Message('note_on', channel=0, note=64, velocity=94, time=0),\n",
      "    Message('note_on', channel=0, note=60, velocity=94, time=0),\n",
      "    Message('note_on', channel=0, note=72, velocity=0, time=168),\n",
      "    Message('note_on', channel=0, note=67, velocity=0, time=0),\n",
      "    Message('note_on', channel=0, note=64, velocity=0, time=0),\n",
      "    Message('note_on', channel=0, note=60, velocity=0, time=0),\n",
      "    Message('note_on', channel=0, note=74, velocity=94, time=12),\n",
      "    Message('note_on', channel=0, note=62, velocity=94, time=0),\n",
      "    Message('note_on', channel=0, note=67, velocity=94, time=0),\n",
      "    Message('note_on', channel=0, note=74, velocity=0, time=336),\n",
      "    Message('note_on', channel=0, note=62, velocity=0, time=0),\n",
      "    Message('note_on', channel=0, note=67, velocity=0, time=0),\n",
      "    Message('note_on', channel=0, note=67, velocity=94, time=24),\n",
      "    Message('note_on', channel=0, note=64, velocity=94, time=0),\n",
      "    Message('note_on', channel=0, note=71, velocity=94, time=0),\n",
      "    Message('note_on', channel=0, note=67, velocity=0, time=168),\n",
      "    Message('note_on', channel=0, note=64, velocity=0, time=0),\n",
      "    Message('note_on', channel=0, note=71, velocity=0, time=0),\n",
      "    Message('note_on', channel=0, note=69, velocity=94, time=12),\n",
      "    Message('note_on', channel=0, note=69, velocity=0, time=96),\n",
      "    Message('note_on', channel=0, note=71, velocity=94, time=24),\n",
      "    Message('note_on', channel=0, note=71, velocity=0, time=24),\n",
      "    Message('note_on', channel=0, note=72, velocity=94, time=6),\n",
      "    Message('note_on', channel=0, note=72, velocity=0, time=24),\n",
      "    Message('note_on', channel=0, note=71, velocity=94, time=6),\n",
      "    Message('note_on', channel=0, note=71, velocity=0, time=168),\n",
      "    Message('note_on', channel=0, note=69, velocity=94, time=12),\n",
      "    Message('note_on', channel=0, note=69, velocity=0, time=168),\n",
      "    Message('note_on', channel=0, note=67, velocity=94, time=12),\n",
      "    Message('note_on', channel=0, note=67, velocity=0, time=48),\n",
      "    Message('note_on', channel=0, note=71, velocity=94, time=12),\n",
      "    Message('note_on', channel=0, note=71, velocity=0, time=48),\n",
      "    Message('note_on', channel=0, note=74, velocity=94, time=12),\n",
      "    Message('note_on', channel=0, note=74, velocity=0, time=48),\n",
      "    Message('note_on', channel=0, note=79, velocity=94, time=12),\n",
      "    Message('note_on', channel=0, note=79, velocity=0, time=48),\n",
      "    Message('note_on', channel=0, note=74, velocity=94, time=12),\n",
      "    Message('note_on', channel=0, note=74, velocity=0, time=48),\n",
      "    Message('note_on', channel=0, note=71, velocity=94, time=12),\n",
      "    Message('note_on', channel=0, note=71, velocity=0, time=48),\n",
      "    Message('note_on', channel=0, note=67, velocity=94, time=12),\n",
      "    Message('note_on', channel=0, note=67, velocity=0, time=48),\n",
      "    Message('note_on', channel=0, note=71, velocity=94, time=12),\n",
      "    Message('note_on', channel=0, note=71, velocity=0, time=48),\n",
      "    Message('note_on', channel=0, note=74, velocity=94, time=12),\n",
      "    Message('note_on', channel=0, note=74, velocity=0, time=48),\n",
      "    Message('note_on', channel=0, note=77, velocity=94, time=12),\n",
      "    Message('note_on', channel=0, note=77, velocity=0, time=48),\n",
      "    Message('note_on', channel=0, note=74, velocity=94, time=12),\n",
      "    Message('note_on', channel=0, note=74, velocity=0, time=48),\n",
      "    Message('note_on', channel=0, note=71, velocity=94, time=12),\n",
      "    Message('note_on', channel=0, note=71, velocity=0, time=48),\n",
      "    Message('note_on', channel=0, note=67, velocity=94, time=12),\n",
      "    Message('note_on', channel=0, note=67, velocity=0, time=48),\n",
      "    Message('note_on', channel=0, note=71, velocity=94, time=12),\n",
      "    Message('note_on', channel=0, note=71, velocity=0, time=48),\n",
      "    Message('note_on', channel=0, note=74, velocity=94, time=12),\n",
      "    Message('note_on', channel=0, note=74, velocity=0, time=48),\n",
      "    Message('note_on', channel=0, note=76, velocity=94, time=12),\n",
      "    Message('note_on', channel=0, note=76, velocity=0, time=48),\n",
      "    Message('note_on', channel=0, note=72, velocity=94, time=12),\n",
      "    Message('note_on', channel=0, note=72, velocity=0, time=48),\n",
      "    Message('note_on', channel=0, note=69, velocity=94, time=12),\n",
      "    Message('note_on', channel=0, note=69, velocity=0, time=48),\n",
      "    Message('note_on', channel=0, note=66, velocity=94, time=12),\n",
      "    Message('note_on', channel=0, note=66, velocity=0, time=48),\n",
      "    Message('note_on', channel=0, note=69, velocity=94, time=12),\n",
      "    Message('note_on', channel=0, note=69, velocity=0, time=48),\n",
      "    Message('note_on', channel=0, note=72, velocity=94, time=12),\n",
      "    Message('note_on', channel=0, note=72, velocity=0, time=48),\n",
      "    Message('note_on', channel=0, note=74, velocity=94, time=12),\n",
      "    Message('note_on', channel=0, note=74, velocity=0, time=48),\n",
      "    Message('note_on', channel=0, note=71, velocity=94, time=12),\n",
      "    Message('note_on', channel=0, note=71, velocity=0, time=48),\n",
      "    Message('note_on', channel=0, note=67, velocity=94, time=12),\n",
      "    Message('note_on', channel=0, note=67, velocity=0, time=48),\n",
      "    Message('note_on', channel=0, note=64, velocity=94, time=12),\n",
      "    Message('note_on', channel=0, note=64, velocity=0, time=48),\n",
      "    Message('note_on', channel=0, note=67, velocity=94, time=12),\n",
      "    Message('note_on', channel=0, note=67, velocity=0, time=48),\n",
      "    Message('note_on', channel=0, note=71, velocity=94, time=12),\n",
      "    Message('note_on', channel=0, note=71, velocity=0, time=48),\n",
      "    Message('note_on', channel=0, note=72, velocity=94, time=12),\n",
      "    Message('note_on', channel=0, note=72, velocity=0, time=48),\n",
      "    Message('note_on', channel=0, note=69, velocity=94, time=12),\n",
      "    Message('note_on', channel=0, note=69, velocity=0, time=48),\n",
      "    Message('note_on', channel=0, note=66, velocity=94, time=12),\n",
      "    Message('note_on', channel=0, note=66, velocity=0, time=48),\n",
      "    Message('note_on', channel=0, note=62, velocity=94, time=12),\n",
      "    Message('note_on', channel=0, note=62, velocity=0, time=48),\n",
      "    Message('note_on', channel=0, note=66, velocity=94, time=12),\n",
      "    Message('note_on', channel=0, note=66, velocity=0, time=48),\n",
      "    Message('note_on', channel=0, note=69, velocity=94, time=12),\n",
      "    Message('note_on', channel=0, note=69, velocity=0, time=48),\n",
      "    Message('note_on', channel=0, note=72, velocity=94, time=12),\n",
      "    Message('note_on', channel=0, note=72, velocity=0, time=48),\n",
      "    Message('note_on', channel=0, note=71, velocity=94, time=12),\n",
      "    Message('note_on', channel=0, note=71, velocity=0, time=48),\n",
      "    Message('note_on', channel=0, note=69, velocity=94, time=12),\n",
      "    Message('note_on', channel=0, note=69, velocity=0, time=48),\n",
      "    Message('note_on', channel=0, note=71, velocity=94, time=12),\n",
      "    Message('note_on', channel=0, note=71, velocity=0, time=48),\n",
      "    Message('note_on', channel=0, note=67, velocity=94, time=12),\n",
      "    Message('note_on', channel=0, note=67, velocity=0, time=48),\n",
      "    Message('note_on', channel=0, note=69, velocity=94, time=12),\n",
      "    Message('note_on', channel=0, note=69, velocity=0, time=48),\n",
      "    Message('note_on', channel=0, note=71, velocity=94, time=12),\n",
      "    Message('note_on', channel=0, note=71, velocity=0, time=48),\n",
      "    Message('note_on', channel=0, note=74, velocity=94, time=12),\n",
      "    Message('note_on', channel=0, note=74, velocity=0, time=48),\n",
      "    Message('note_on', channel=0, note=72, velocity=94, time=12),\n",
      "    Message('note_on', channel=0, note=72, velocity=0, time=48),\n",
      "    Message('note_on', channel=0, note=72, velocity=94, time=12),\n",
      "    Message('note_on', channel=0, note=72, velocity=0, time=48),\n",
      "    Message('note_on', channel=0, note=76, velocity=94, time=12),\n",
      "    Message('note_on', channel=0, note=76, velocity=0, time=48),\n",
      "    Message('note_on', channel=0, note=74, velocity=94, time=12),\n",
      "    Message('note_on', channel=0, note=74, velocity=0, time=48),\n",
      "    Message('note_on', channel=0, note=74, velocity=94, time=12),\n",
      "    Message('note_on', channel=0, note=74, velocity=0, time=48),\n",
      "    Message('note_on', channel=0, note=79, velocity=94, time=12),\n",
      "    Message('note_on', channel=0, note=79, velocity=0, time=48),\n",
      "    Message('note_on', channel=0, note=78, velocity=94, time=12),\n",
      "    Message('note_on', channel=0, note=78, velocity=0, time=48),\n",
      "    Message('note_on', channel=0, note=79, velocity=94, time=12),\n",
      "    Message('note_on', channel=0, note=79, velocity=0, time=48),\n",
      "    Message('note_on', channel=0, note=74, velocity=94, time=12),\n",
      "    Message('note_on', channel=0, note=74, velocity=0, time=48),\n",
      "    Message('note_on', channel=0, note=71, velocity=94, time=12),\n",
      "    Message('note_on', channel=0, note=71, velocity=0, time=48),\n",
      "    Message('note_on', channel=0, note=67, velocity=94, time=12),\n",
      "    Message('note_on', channel=0, note=67, velocity=0, time=48),\n",
      "    Message('note_on', channel=0, note=69, velocity=94, time=12),\n",
      "    Message('note_on', channel=0, note=69, velocity=0, time=48),\n",
      "    Message('note_on', channel=0, note=71, velocity=94, time=12),\n",
      "    Message('note_on', channel=0, note=71, velocity=0, time=48),\n",
      "    Message('note_on', channel=0, note=72, velocity=94, time=12),\n",
      "    Message('note_on', channel=0, note=72, velocity=0, time=48),\n",
      "    Message('note_on', channel=0, note=74, velocity=94, time=12),\n",
      "    Message('note_on', channel=0, note=74, velocity=0, time=48),\n",
      "    Message('note_on', channel=0, note=76, velocity=94, time=12),\n",
      "    Message('note_on', channel=0, note=76, velocity=0, time=48),\n",
      "    Message('note_on', channel=0, note=74, velocity=94, time=12),\n",
      "    Message('note_on', channel=0, note=74, velocity=0, time=48),\n",
      "    Message('note_on', channel=0, note=72, velocity=94, time=12),\n",
      "    Message('note_on', channel=0, note=72, velocity=0, time=48),\n",
      "    Message('note_on', channel=0, note=71, velocity=94, time=12),\n",
      "    Message('note_on', channel=0, note=71, velocity=0, time=48),\n",
      "    Message('note_on', channel=0, note=69, velocity=94, time=12),\n",
      "    Message('note_on', channel=0, note=69, velocity=0, time=48),\n",
      "    Message('note_on', channel=0, note=71, velocity=94, time=12),\n",
      "    Message('note_on', channel=0, note=71, velocity=0, time=48),\n",
      "    Message('note_on', channel=0, note=67, velocity=94, time=12),\n",
      "    Message('note_on', channel=0, note=67, velocity=0, time=48),\n",
      "    Message('note_on', channel=0, note=66, velocity=94, time=12),\n",
      "    Message('note_on', channel=0, note=66, velocity=0, time=48),\n",
      "    Message('note_on', channel=0, note=67, velocity=94, time=12),\n",
      "    Message('note_on', channel=0, note=67, velocity=0, time=48),\n",
      "    Message('note_on', channel=0, note=69, velocity=94, time=12),\n",
      "    Message('note_on', channel=0, note=69, velocity=0, time=48),\n",
      "    Message('note_on', channel=0, note=62, velocity=94, time=12),\n",
      "    Message('note_on', channel=0, note=62, velocity=0, time=48),\n",
      "    Message('note_on', channel=0, note=66, velocity=94, time=12),\n",
      "    Message('note_on', channel=0, note=66, velocity=0, time=48),\n",
      "    Message('note_on', channel=0, note=69, velocity=94, time=12),\n",
      "    Message('note_on', channel=0, note=69, velocity=0, time=48),\n",
      "    Message('note_on', channel=0, note=72, velocity=94, time=12),\n",
      "    Message('note_on', channel=0, note=72, velocity=0, time=48),\n",
      "    Message('note_on', channel=0, note=71, velocity=94, time=12),\n",
      "    Message('note_on', channel=0, note=71, velocity=0, time=48),\n",
      "    Message('note_on', channel=0, note=69, velocity=94, time=12),\n",
      "    Message('note_on', channel=0, note=69, velocity=0, time=48),\n",
      "    Message('note_on', channel=0, note=71, velocity=94, time=12),\n",
      "    Message('note_on', channel=0, note=71, velocity=0, time=48),\n",
      "    Message('note_on', channel=0, note=67, velocity=94, time=12),\n",
      "    Message('note_on', channel=0, note=67, velocity=0, time=48),\n",
      "    Message('note_on', channel=0, note=69, velocity=94, time=12),\n",
      "    Message('note_on', channel=0, note=69, velocity=0, time=48),\n",
      "    Message('note_on', channel=0, note=71, velocity=94, time=12),\n",
      "    Message('note_on', channel=0, note=71, velocity=0, time=48),\n",
      "    Message('note_on', channel=0, note=74, velocity=94, time=12),\n",
      "    Message('note_on', channel=0, note=74, velocity=0, time=48),\n",
      "    Message('note_on', channel=0, note=72, velocity=94, time=12),\n",
      "    Message('note_on', channel=0, note=72, velocity=0, time=48),\n",
      "    Message('note_on', channel=0, note=72, velocity=94, time=12),\n",
      "    Message('note_on', channel=0, note=72, velocity=0, time=48),\n",
      "    Message('note_on', channel=0, note=76, velocity=94, time=12),\n",
      "    Message('note_on', channel=0, note=76, velocity=0, time=48),\n",
      "    Message('note_on', channel=0, note=74, velocity=94, time=12),\n",
      "    Message('note_on', channel=0, note=74, velocity=0, time=48),\n",
      "    Message('note_on', channel=0, note=74, velocity=94, time=12),\n",
      "    Message('note_on', channel=0, note=74, velocity=0, time=48),\n",
      "    Message('note_on', channel=0, note=79, velocity=94, time=12),\n",
      "    Message('note_on', channel=0, note=79, velocity=0, time=48),\n",
      "    Message('note_on', channel=0, note=78, velocity=94, time=12),\n",
      "    Message('note_on', channel=0, note=78, velocity=0, time=48),\n",
      "    Message('note_on', channel=0, note=79, velocity=94, time=12),\n",
      "    Message('note_on', channel=0, note=79, velocity=0, time=48),\n",
      "    Message('note_on', channel=0, note=74, velocity=94, time=12),\n",
      "    Message('note_on', channel=0, note=74, velocity=0, time=48),\n",
      "    Message('note_on', channel=0, note=71, velocity=94, time=12),\n",
      "    Message('note_on', channel=0, note=71, velocity=0, time=48),\n",
      "    Message('note_on', channel=0, note=67, velocity=94, time=12),\n",
      "    Message('note_on', channel=0, note=67, velocity=0, time=48),\n",
      "    Message('note_on', channel=0, note=69, velocity=94, time=12),\n",
      "    Message('note_on', channel=0, note=69, velocity=0, time=48),\n",
      "    Message('note_on', channel=0, note=71, velocity=94, time=12),\n",
      "    Message('note_on', channel=0, note=71, velocity=0, time=48),\n",
      "    Message('note_on', channel=0, note=64, velocity=94, time=12),\n",
      "    Message('note_on', channel=0, note=64, velocity=0, time=48),\n",
      "    Message('note_on', channel=0, note=74, velocity=94, time=12),\n",
      "    Message('note_on', channel=0, note=74, velocity=0, time=48),\n",
      "    Message('note_on', channel=0, note=72, velocity=94, time=12),\n",
      "    Message('note_on', channel=0, note=72, velocity=0, time=48),\n",
      "    Message('note_on', channel=0, note=71, velocity=94, time=12),\n",
      "    Message('note_on', channel=0, note=71, velocity=0, time=48),\n",
      "    Message('note_on', channel=0, note=69, velocity=94, time=12),\n",
      "    Message('note_on', channel=0, note=69, velocity=0, time=48),\n",
      "    Message('note_on', channel=0, note=67, velocity=94, time=12),\n",
      "    Message('note_on', channel=0, note=67, velocity=0, time=48),\n",
      "    Message('note_on', channel=0, note=62, velocity=94, time=12),\n",
      "    Message('note_on', channel=0, note=62, velocity=0, time=48),\n",
      "    Message('note_on', channel=0, note=67, velocity=94, time=12),\n",
      "    Message('note_on', channel=0, note=67, velocity=0, time=48),\n",
      "    Message('note_on', channel=0, note=66, velocity=94, time=12),\n",
      "    Message('note_on', channel=0, note=66, velocity=0, time=48),\n",
      "    Message('note_on', channel=0, note=62, velocity=94, time=12),\n",
      "    Message('note_on', channel=0, note=67, velocity=94, time=0),\n",
      "    Message('note_on', channel=0, note=59, velocity=94, time=0),\n",
      "    Message('note_on', channel=0, note=55, velocity=94, time=0),\n",
      "    Message('note_on', channel=0, note=62, velocity=0, time=456),\n",
      "    Message('note_on', channel=0, note=67, velocity=0, time=0),\n",
      "    Message('note_on', channel=0, note=59, velocity=0, time=0),\n",
      "    Message('note_on', channel=0, note=55, velocity=0, time=0),\n",
      "    Message('note_on', channel=0, note=67, velocity=104, time=143),\n",
      "    Message('note_on', channel=0, note=67, velocity=0, time=48),\n",
      "    Message('note_on', channel=0, note=69, velocity=104, time=12),\n",
      "    Message('note_on', channel=0, note=69, velocity=0, time=48),\n",
      "    Message('note_on', channel=0, note=71, velocity=104, time=12),\n",
      "    Message('note_on', channel=0, note=71, velocity=0, time=48),\n",
      "    Message('note_on', channel=0, note=74, velocity=104, time=12),\n",
      "    Message('note_on', channel=0, note=74, velocity=0, time=48),\n",
      "    Message('note_on', channel=0, note=72, velocity=104, time=12),\n",
      "    Message('note_on', channel=0, note=72, velocity=0, time=48),\n",
      "    Message('note_on', channel=0, note=72, velocity=104, time=12),\n",
      "    Message('note_on', channel=0, note=72, velocity=0, time=48),\n",
      "    Message('note_on', channel=0, note=76, velocity=104, time=12),\n",
      "    Message('note_on', channel=0, note=76, velocity=0, time=48),\n",
      "    Message('note_on', channel=0, note=74, velocity=104, time=12),\n",
      "    Message('note_on', channel=0, note=74, velocity=0, time=48),\n",
      "    Message('note_on', channel=0, note=74, velocity=104, time=12),\n",
      "    Message('note_on', channel=0, note=74, velocity=0, time=48),\n",
      "    Message('note_on', channel=0, note=79, velocity=104, time=12),\n",
      "    Message('note_on', channel=0, note=79, velocity=0, time=48),\n",
      "    Message('note_on', channel=0, note=78, velocity=104, time=12),\n",
      "    Message('note_on', channel=0, note=78, velocity=0, time=48),\n",
      "    Message('note_on', channel=0, note=79, velocity=104, time=12),\n",
      "    Message('note_on', channel=0, note=79, velocity=0, time=48),\n",
      "    Message('note_on', channel=0, note=74, velocity=104, time=12),\n",
      "    Message('note_on', channel=0, note=74, velocity=0, time=48),\n",
      "    Message('note_on', channel=0, note=71, velocity=104, time=12),\n",
      "    Message('note_on', channel=0, note=71, velocity=0, time=48),\n",
      "    Message('note_on', channel=0, note=67, velocity=104, time=12),\n",
      "    Message('note_on', channel=0, note=67, velocity=0, time=48),\n",
      "    Message('note_on', channel=0, note=69, velocity=104, time=12),\n",
      "    Message('note_on', channel=0, note=69, velocity=0, time=48),\n",
      "    Message('note_on', channel=0, note=71, velocity=104, time=12),\n",
      "    Message('note_on', channel=0, note=71, velocity=0, time=48),\n",
      "    Message('note_on', channel=0, note=72, velocity=104, time=12),\n",
      "    Message('note_on', channel=0, note=72, velocity=0, time=48),\n",
      "    Message('note_on', channel=0, note=74, velocity=104, time=12),\n",
      "    Message('note_on', channel=0, note=74, velocity=0, time=48),\n",
      "    Message('note_on', channel=0, note=76, velocity=104, time=12),\n",
      "    Message('note_on', channel=0, note=76, velocity=0, time=48),\n",
      "    Message('note_on', channel=0, note=74, velocity=104, time=12),\n",
      "    Message('note_on', channel=0, note=74, velocity=0, time=48),\n",
      "    Message('note_on', channel=0, note=72, velocity=104, time=12),\n",
      "    Message('note_on', channel=0, note=72, velocity=0, time=48),\n",
      "    Message('note_on', channel=0, note=71, velocity=104, time=12),\n",
      "    Message('note_on', channel=0, note=71, velocity=0, time=48),\n",
      "    Message('note_on', channel=0, note=69, velocity=104, time=12),\n",
      "    Message('note_on', channel=0, note=69, velocity=0, time=48),\n",
      "    Message('note_on', channel=0, note=71, velocity=104, time=12),\n",
      "    Message('note_on', channel=0, note=71, velocity=0, time=48),\n",
      "    Message('note_on', channel=0, note=67, velocity=104, time=12),\n",
      "    Message('note_on', channel=0, note=67, velocity=0, time=48),\n",
      "    Message('note_on', channel=0, note=66, velocity=104, time=12),\n",
      "    Message('note_on', channel=0, note=66, velocity=0, time=48),\n",
      "    Message('note_on', channel=0, note=67, velocity=104, time=12),\n",
      "    Message('note_on', channel=0, note=67, velocity=0, time=48),\n",
      "    Message('note_on', channel=0, note=69, velocity=104, time=12),\n",
      "    Message('note_on', channel=0, note=69, velocity=0, time=48),\n",
      "    Message('note_on', channel=0, note=62, velocity=104, time=12),\n",
      "    Message('note_on', channel=0, note=62, velocity=0, time=48),\n",
      "    Message('note_on', channel=0, note=66, velocity=104, time=12),\n",
      "    Message('note_on', channel=0, note=66, velocity=0, time=48),\n",
      "    Message('note_on', channel=0, note=69, velocity=104, time=12),\n",
      "    Message('note_on', channel=0, note=69, velocity=0, time=48),\n",
      "    Message('note_on', channel=0, note=72, velocity=104, time=12),\n",
      "    Message('note_on', channel=0, note=72, velocity=0, time=48),\n",
      "    Message('note_on', channel=0, note=71, velocity=104, time=12),\n",
      "    Message('note_on', channel=0, note=71, velocity=0, time=48),\n",
      "    Message('note_on', channel=0, note=69, velocity=104, time=12),\n",
      "    Message('note_on', channel=0, note=69, velocity=0, time=48),\n",
      "    Message('note_on', channel=0, note=71, velocity=104, time=12),\n",
      "    Message('note_on', channel=0, note=71, velocity=0, time=48),\n",
      "    Message('note_on', channel=0, note=67, velocity=104, time=12),\n",
      "    Message('note_on', channel=0, note=67, velocity=0, time=48),\n",
      "    Message('note_on', channel=0, note=69, velocity=104, time=12),\n",
      "    Message('note_on', channel=0, note=69, velocity=0, time=48),\n",
      "    Message('note_on', channel=0, note=71, velocity=104, time=12),\n",
      "    Message('note_on', channel=0, note=71, velocity=0, time=48),\n",
      "    Message('note_on', channel=0, note=74, velocity=104, time=12),\n",
      "    Message('note_on', channel=0, note=74, velocity=0, time=48),\n",
      "    Message('note_on', channel=0, note=72, velocity=104, time=12),\n",
      "    Message('note_on', channel=0, note=72, velocity=0, time=48),\n",
      "    Message('note_on', channel=0, note=72, velocity=104, time=12),\n",
      "    Message('note_on', channel=0, note=72, velocity=0, time=48),\n",
      "    Message('note_on', channel=0, note=76, velocity=104, time=12),\n",
      "    Message('note_on', channel=0, note=76, velocity=0, time=48),\n",
      "    Message('note_on', channel=0, note=74, velocity=104, time=12),\n",
      "    Message('note_on', channel=0, note=74, velocity=0, time=48),\n",
      "    Message('note_on', channel=0, note=74, velocity=104, time=12),\n",
      "    Message('note_on', channel=0, note=74, velocity=0, time=48),\n",
      "    Message('note_on', channel=0, note=79, velocity=104, time=12),\n",
      "    Message('note_on', channel=0, note=79, velocity=0, time=48),\n",
      "    Message('note_on', channel=0, note=78, velocity=104, time=12),\n",
      "    Message('note_on', channel=0, note=78, velocity=0, time=48),\n",
      "    Message('note_on', channel=0, note=79, velocity=104, time=12),\n",
      "    Message('note_on', channel=0, note=79, velocity=0, time=48),\n",
      "    Message('note_on', channel=0, note=74, velocity=104, time=12),\n",
      "    Message('note_on', channel=0, note=74, velocity=0, time=48),\n",
      "    Message('note_on', channel=0, note=71, velocity=104, time=12),\n",
      "    Message('note_on', channel=0, note=71, velocity=0, time=48),\n",
      "    Message('note_on', channel=0, note=67, velocity=104, time=12),\n",
      "    Message('note_on', channel=0, note=67, velocity=0, time=48),\n",
      "    Message('note_on', channel=0, note=69, velocity=104, time=12),\n",
      "    Message('note_on', channel=0, note=69, velocity=0, time=48),\n",
      "    Message('note_on', channel=0, note=71, velocity=104, time=12),\n",
      "    Message('note_on', channel=0, note=71, velocity=0, time=48),\n",
      "    Message('note_on', channel=0, note=64, velocity=104, time=12),\n",
      "    Message('note_on', channel=0, note=64, velocity=0, time=48),\n",
      "    Message('note_on', channel=0, note=74, velocity=104, time=12),\n",
      "    Message('note_on', channel=0, note=74, velocity=0, time=48),\n",
      "    Message('note_on', channel=0, note=72, velocity=104, time=12),\n",
      "    Message('note_on', channel=0, note=72, velocity=0, time=48),\n",
      "    Message('note_on', channel=0, note=71, velocity=104, time=12),\n",
      "    Message('note_on', channel=0, note=71, velocity=0, time=48),\n",
      "    Message('note_on', channel=0, note=69, velocity=104, time=12),\n",
      "    Message('note_on', channel=0, note=69, velocity=0, time=48),\n",
      "    Message('note_on', channel=0, note=67, velocity=104, time=12),\n",
      "    Message('note_on', channel=0, note=67, velocity=0, time=48),\n",
      "    Message('note_on', channel=0, note=62, velocity=104, time=12),\n",
      "    Message('note_on', channel=0, note=62, velocity=0, time=48),\n",
      "    Message('note_on', channel=0, note=67, velocity=104, time=12),\n",
      "    Message('note_on', channel=0, note=67, velocity=0, time=48),\n",
      "    Message('note_on', channel=0, note=66, velocity=104, time=12),\n",
      "    Message('note_on', channel=0, note=66, velocity=0, time=48),\n",
      "    Message('note_on', channel=0, note=67, velocity=104, time=12),\n",
      "    Message('note_on', channel=0, note=67, velocity=0, time=48),\n",
      "    Message('note_on', channel=0, note=71, velocity=104, time=12),\n",
      "    Message('note_on', channel=0, note=71, velocity=0, time=48),\n",
      "    Message('note_on', channel=0, note=74, velocity=104, time=12),\n",
      "    Message('note_on', channel=0, note=74, velocity=0, time=48),\n",
      "    Message('note_on', channel=0, note=79, velocity=104, time=12),\n",
      "    Message('note_on', channel=0, note=79, velocity=0, time=48),\n",
      "    Message('note_on', channel=0, note=74, velocity=104, time=12),\n",
      "    Message('note_on', channel=0, note=74, velocity=0, time=48),\n",
      "    Message('note_on', channel=0, note=71, velocity=104, time=12),\n",
      "    Message('note_on', channel=0, note=71, velocity=0, time=48),\n",
      "    Message('note_on', channel=0, note=67, velocity=104, time=12),\n",
      "    Message('note_on', channel=0, note=67, velocity=0, time=48),\n",
      "    Message('note_on', channel=0, note=71, velocity=104, time=12),\n",
      "    Message('note_on', channel=0, note=71, velocity=0, time=48),\n",
      "    Message('note_on', channel=0, note=74, velocity=104, time=12),\n",
      "    Message('note_on', channel=0, note=74, velocity=0, time=48),\n",
      "    Message('note_on', channel=0, note=62, velocity=104, time=12),\n",
      "    Message('note_on', channel=0, note=71, velocity=104, time=0),\n",
      "    Message('note_on', channel=0, note=67, velocity=104, time=0),\n",
      "    Message('note_on', channel=0, note=62, velocity=0, time=336),\n",
      "    Message('note_on', channel=0, note=71, velocity=0, time=0),\n",
      "    Message('note_on', channel=0, note=67, velocity=0, time=0),\n",
      "    Message('note_on', channel=0, note=64, velocity=104, time=24),\n",
      "    Message('note_on', channel=0, note=67, velocity=104, time=0),\n",
      "    Message('note_on', channel=0, note=60, velocity=104, time=0),\n",
      "    Message('note_on', channel=0, note=72, velocity=104, time=0),\n",
      "    Message('note_on', channel=0, note=64, velocity=0, time=168),\n",
      "    Message('note_on', channel=0, note=67, velocity=0, time=0),\n",
      "    Message('note_on', channel=0, note=60, velocity=0, time=0),\n",
      "    Message('note_on', channel=0, note=72, velocity=0, time=0),\n",
      "    Message('note_on', channel=0, note=74, velocity=104, time=12),\n",
      "    Message('note_on', channel=0, note=74, velocity=0, time=336),\n",
      "    Message('note_on', channel=0, note=66, velocity=104, time=24),\n",
      "    Message('note_on', channel=0, note=71, velocity=104, time=0),\n",
      "    Message('note_on', channel=0, note=74, velocity=104, time=0),\n",
      "    Message('note_on', channel=0, note=62, velocity=104, time=0),\n",
      "    Message('note_on', channel=0, note=66, velocity=0, time=168),\n",
      "    Message('note_on', channel=0, note=71, velocity=0, time=0),\n",
      "    Message('note_on', channel=0, note=74, velocity=0, time=0),\n",
      "    Message('note_on', channel=0, note=62, velocity=0, time=0),\n",
      "    Message('note_on', channel=0, note=72, velocity=104, time=12),\n",
      "    Message('note_on', channel=0, note=72, velocity=0, time=336),\n",
      "    Message('note_on', channel=0, note=67, velocity=104, time=24),\n",
      "    Message('note_on', channel=0, note=62, velocity=104, time=0),\n",
      "    Message('note_on', channel=0, note=71, velocity=104, time=0),\n",
      "    Message('note_on', channel=0, note=67, velocity=0, time=168),\n",
      "    Message('note_on', channel=0, note=62, velocity=0, time=0),\n",
      "    Message('note_on', channel=0, note=71, velocity=0, time=0),\n",
      "    Message('note_on', channel=0, note=66, velocity=104, time=12),\n",
      "    Message('note_on', channel=0, note=69, velocity=104, time=0),\n",
      "    Message('note_on', channel=0, note=66, velocity=0, time=48),\n",
      "    Message('note_on', channel=0, note=69, velocity=0, time=0),\n",
      "    Message('note_on', channel=0, note=62, velocity=104, time=12),\n",
      "    Message('note_on', channel=0, note=62, velocity=0, time=48),\n",
      "    Message('note_on', channel=0, note=64, velocity=104, time=12),\n",
      "    Message('note_on', channel=0, note=64, velocity=0, time=48),\n",
      "    Message('note_on', channel=0, note=66, velocity=104, time=12),\n",
      "    Message('note_on', channel=0, note=69, velocity=104, time=0),\n",
      "    Message('note_on', channel=0, note=66, velocity=0, time=48),\n",
      "    Message('note_on', channel=0, note=69, velocity=0, time=0),\n",
      "    Message('note_on', channel=0, note=69, velocity=104, time=12),\n",
      "    Message('note_on', channel=0, note=69, velocity=0, time=48),\n",
      "    Message('note_on', channel=0, note=67, velocity=104, time=12),\n",
      "    Message('note_on', channel=0, note=67, velocity=0, time=48),\n",
      "    Message('note_on', channel=0, note=69, velocity=104, time=12),\n",
      "    Message('note_on', channel=0, note=69, velocity=0, time=48),\n",
      "    Message('note_on', channel=0, note=72, velocity=104, time=12),\n",
      "    Message('note_on', channel=0, note=72, velocity=0, time=48),\n",
      "    Message('note_on', channel=0, note=71, velocity=104, time=12),\n",
      "    Message('note_on', channel=0, note=71, velocity=0, time=48),\n",
      "    Message('note_on', channel=0, note=72, velocity=104, time=12),\n",
      "    Message('note_on', channel=0, note=72, velocity=0, time=48),\n",
      "    Message('note_on', channel=0, note=69, velocity=104, time=12),\n",
      "    Message('note_on', channel=0, note=69, velocity=0, time=48),\n",
      "    Message('note_on', channel=0, note=66, velocity=104, time=12),\n",
      "    Message('note_on', channel=0, note=66, velocity=0, time=48),\n",
      "    Message('note_on', channel=0, note=62, velocity=104, time=12),\n",
      "    Message('note_on', channel=0, note=62, velocity=0, time=48),\n",
      "    Message('note_on', channel=0, note=66, velocity=104, time=12),\n",
      "    Message('note_on', channel=0, note=66, velocity=0, time=48),\n",
      "    Message('note_on', channel=0, note=69, velocity=104, time=12),\n",
      "    Message('note_on', channel=0, note=69, velocity=0, time=48),\n",
      "    Message('note_on', channel=0, note=72, velocity=104, time=12),\n",
      "    Message('note_on', channel=0, note=72, velocity=0, time=48),\n",
      "    Message('note_on', channel=0, note=71, velocity=104, time=12),\n",
      "    Message('note_on', channel=0, note=71, velocity=0, time=48),\n",
      "    Message('note_on', channel=0, note=69, velocity=104, time=12),\n",
      "    Message('note_on', channel=0, note=69, velocity=0, time=48),\n",
      "    Message('note_on', channel=0, note=67, velocity=104, time=12),\n",
      "    Message('note_on', channel=0, note=71, velocity=104, time=0),\n",
      "    Message('note_on', channel=0, note=67, velocity=0, time=336),\n",
      "    Message('note_on', channel=0, note=71, velocity=0, time=0),\n",
      "    Message('note_on', channel=0, note=64, velocity=104, time=24),\n",
      "    Message('note_on', channel=0, note=72, velocity=104, time=0),\n",
      "    Message('note_on', channel=0, note=67, velocity=104, time=0),\n",
      "    Message('note_on', channel=0, note=60, velocity=104, time=0),\n",
      "    Message('note_on', channel=0, note=64, velocity=0, time=168),\n",
      "    Message('note_on', channel=0, note=72, velocity=0, time=0),\n",
      "    Message('note_on', channel=0, note=67, velocity=0, time=0),\n",
      "    Message('note_on', channel=0, note=60, velocity=0, time=0),\n",
      "    Message('note_on', channel=0, note=67, velocity=104, time=12),\n",
      "    Message('note_on', channel=0, note=62, velocity=104, time=0),\n",
      "    Message('note_on', channel=0, note=74, velocity=104, time=0),\n",
      "    Message('note_on', channel=0, note=67, velocity=0, time=336),\n",
      "    Message('note_on', channel=0, note=62, velocity=0, time=0),\n",
      "    Message('note_on', channel=0, note=74, velocity=0, time=0),\n",
      "    Message('note_on', channel=0, note=67, velocity=104, time=24),\n",
      "    Message('note_on', channel=0, note=64, velocity=104, time=0),\n",
      "    Message('note_on', channel=0, note=71, velocity=104, time=0),\n",
      "    Message('note_on', channel=0, note=67, velocity=0, time=168),\n",
      "    Message('note_on', channel=0, note=64, velocity=0, time=0),\n",
      "    Message('note_on', channel=0, note=71, velocity=0, time=0),\n",
      "    Message('note_on', channel=0, note=69, velocity=63, time=12),\n",
      "    Message('note_on', channel=0, note=69, velocity=0, time=116),\n",
      "    Message('note_on', channel=0, note=71, velocity=74, time=4),\n",
      "    Message('note_on', channel=0, note=72, velocity=68, time=30),\n",
      "    Message('note_on', channel=0, note=71, velocity=0, time=14),\n",
      "    Message('note_on', channel=0, note=71, velocity=65, time=16),\n",
      "    Message('note_on', channel=0, note=66, velocity=67, time=0),\n",
      "    Message('note_on', channel=0, note=62, velocity=55, time=0),\n",
      "    Message('note_on', channel=0, note=72, velocity=0, time=14),\n",
      "    Message('note_on', channel=0, note=66, velocity=55, time=166),\n",
      "    Message('note_on', channel=0, note=60, velocity=46, time=0),\n",
      "    Message('note_on', channel=0, note=69, velocity=45, time=0),\n",
      "    Message('note_on', channel=0, note=71, velocity=0, time=8),\n",
      "    Message('note_on', channel=0, note=66, velocity=0, time=0),\n",
      "    Message('note_on', channel=0, note=62, velocity=0, time=0),\n",
      "    Message('note_on', channel=0, note=67, velocity=104, time=172),\n",
      "    Message('note_on', channel=0, note=66, velocity=0, time=8),\n",
      "    Message('note_on', channel=0, note=60, velocity=0, time=0),\n",
      "    Message('note_on', channel=0, note=69, velocity=0, time=0),\n",
      "    Message('note_on', channel=0, note=67, velocity=0, time=40),\n",
      "    Message('note_on', channel=0, note=71, velocity=104, time=12),\n",
      "    Message('note_on', channel=0, note=71, velocity=0, time=48),\n",
      "    Message('note_on', channel=0, note=69, velocity=104, time=12),\n",
      "    Message('note_on', channel=0, note=69, velocity=0, time=48),\n",
      "    Message('note_on', channel=0, note=71, velocity=104, time=12),\n",
      "    Message('note_on', channel=0, note=71, velocity=0, time=48),\n",
      "    Message('note_on', channel=0, note=74, velocity=104, time=12),\n",
      "    Message('note_on', channel=0, note=74, velocity=0, time=48),\n",
      "    Message('note_on', channel=0, note=72, velocity=104, time=12),\n",
      "    Message('note_on', channel=0, note=72, velocity=0, time=48),\n",
      "    Message('note_on', channel=0, note=72, velocity=104, time=12),\n",
      "    Message('note_on', channel=0, note=72, velocity=0, time=48),\n",
      "    Message('note_on', channel=0, note=76, velocity=104, time=12),\n",
      "    Message('note_on', channel=0, note=76, velocity=0, time=48),\n",
      "    Message('note_on', channel=0, note=74, velocity=104, time=12),\n",
      "    Message('note_on', channel=0, note=74, velocity=0, time=48),\n",
      "    Message('note_on', channel=0, note=74, velocity=104, time=12),\n",
      "    Message('note_on', channel=0, note=74, velocity=0, time=48),\n",
      "    Message('note_on', channel=0, note=79, velocity=104, time=12),\n",
      "    Message('note_on', channel=0, note=79, velocity=0, time=48),\n",
      "    Message('note_on', channel=0, note=78, velocity=104, time=12),\n",
      "    Message('note_on', channel=0, note=78, velocity=0, time=48),\n",
      "    Message('note_on', channel=0, note=79, velocity=104, time=12),\n",
      "    Message('note_on', channel=0, note=79, velocity=0, time=48),\n",
      "    Message('note_on', channel=0, note=74, velocity=104, time=12),\n",
      "    Message('note_on', channel=0, note=74, velocity=0, time=48),\n",
      "    Message('note_on', channel=0, note=71, velocity=104, time=12),\n",
      "    Message('note_on', channel=0, note=71, velocity=0, time=48),\n",
      "    Message('note_on', channel=0, note=67, velocity=104, time=12),\n",
      "    Message('note_on', channel=0, note=67, velocity=0, time=48),\n",
      "    Message('note_on', channel=0, note=69, velocity=104, time=12),\n",
      "    Message('note_on', channel=0, note=69, velocity=0, time=48),\n",
      "    Message('note_on', channel=0, note=71, velocity=104, time=12),\n",
      "    Message('note_on', channel=0, note=71, velocity=0, time=48),\n",
      "    Message('note_on', channel=0, note=72, velocity=104, time=12),\n",
      "    Message('note_on', channel=0, note=72, velocity=0, time=48),\n",
      "    Message('note_on', channel=0, note=74, velocity=104, time=12),\n",
      "    Message('note_on', channel=0, note=74, velocity=0, time=48),\n",
      "    Message('note_on', channel=0, note=76, velocity=104, time=12),\n",
      "    Message('note_on', channel=0, note=76, velocity=0, time=48),\n",
      "    Message('note_on', channel=0, note=74, velocity=104, time=12),\n",
      "    Message('note_on', channel=0, note=74, velocity=0, time=48),\n",
      "    Message('note_on', channel=0, note=72, velocity=104, time=12),\n",
      "    Message('note_on', channel=0, note=72, velocity=0, time=48),\n",
      "    Message('note_on', channel=0, note=71, velocity=104, time=12),\n",
      "    Message('note_on', channel=0, note=71, velocity=0, time=48),\n",
      "    Message('note_on', channel=0, note=69, velocity=104, time=12),\n",
      "    Message('note_on', channel=0, note=69, velocity=0, time=48),\n",
      "    Message('note_on', channel=0, note=71, velocity=104, time=12),\n",
      "    Message('note_on', channel=0, note=71, velocity=0, time=48),\n",
      "    Message('note_on', channel=0, note=67, velocity=104, time=12),\n",
      "    Message('note_on', channel=0, note=67, velocity=0, time=48),\n",
      "    Message('note_on', channel=0, note=66, velocity=104, time=12),\n",
      "    Message('note_on', channel=0, note=66, velocity=0, time=48),\n",
      "    Message('note_on', channel=0, note=67, velocity=104, time=12),\n",
      "    Message('note_on', channel=0, note=67, velocity=0, time=48),\n",
      "    Message('note_on', channel=0, note=69, velocity=104, time=12),\n",
      "    Message('note_on', channel=0, note=69, velocity=0, time=48),\n",
      "    Message('note_on', channel=0, note=62, velocity=104, time=12),\n",
      "    Message('note_on', channel=0, note=62, velocity=0, time=48),\n",
      "    Message('note_on', channel=0, note=66, velocity=104, time=12),\n",
      "    Message('note_on', channel=0, note=66, velocity=0, time=48),\n",
      "    Message('note_on', channel=0, note=69, velocity=104, time=12),\n",
      "    Message('note_on', channel=0, note=69, velocity=0, time=48),\n",
      "    Message('note_on', channel=0, note=72, velocity=104, time=12),\n",
      "    Message('note_on', channel=0, note=72, velocity=0, time=48),\n",
      "    Message('note_on', channel=0, note=71, velocity=104, time=12),\n",
      "    Message('note_on', channel=0, note=71, velocity=0, time=48),\n",
      "    Message('note_on', channel=0, note=69, velocity=104, time=12),\n",
      "    Message('note_on', channel=0, note=69, velocity=0, time=48),\n",
      "    Message('note_on', channel=0, note=71, velocity=104, time=12),\n",
      "    Message('note_on', channel=0, note=71, velocity=0, time=48),\n",
      "    Message('note_on', channel=0, note=67, velocity=104, time=12),\n",
      "    Message('note_on', channel=0, note=67, velocity=0, time=48),\n",
      "    Message('note_on', channel=0, note=69, velocity=104, time=12),\n",
      "    Message('note_on', channel=0, note=69, velocity=0, time=48),\n",
      "    Message('note_on', channel=0, note=71, velocity=104, time=12),\n",
      "    Message('note_on', channel=0, note=71, velocity=0, time=48),\n",
      "    Message('note_on', channel=0, note=74, velocity=104, time=12),\n",
      "    Message('note_on', channel=0, note=74, velocity=0, time=48),\n",
      "    Message('note_on', channel=0, note=72, velocity=104, time=12),\n",
      "    Message('note_on', channel=0, note=72, velocity=0, time=48),\n",
      "    Message('note_on', channel=0, note=72, velocity=104, time=12),\n",
      "    Message('note_on', channel=0, note=72, velocity=0, time=48),\n",
      "    Message('note_on', channel=0, note=76, velocity=104, time=12),\n",
      "    Message('note_on', channel=0, note=76, velocity=0, time=48),\n",
      "    Message('note_on', channel=0, note=74, velocity=104, time=12),\n",
      "    Message('note_on', channel=0, note=74, velocity=0, time=48),\n",
      "    Message('note_on', channel=0, note=74, velocity=104, time=12),\n",
      "    Message('note_on', channel=0, note=74, velocity=0, time=48),\n",
      "    Message('note_on', channel=0, note=79, velocity=104, time=12),\n",
      "    Message('note_on', channel=0, note=79, velocity=0, time=48),\n",
      "    Message('note_on', channel=0, note=78, velocity=104, time=12),\n",
      "    Message('note_on', channel=0, note=78, velocity=0, time=48),\n",
      "    Message('note_on', channel=0, note=79, velocity=104, time=12),\n",
      "    Message('note_on', channel=0, note=79, velocity=0, time=48),\n",
      "    Message('note_on', channel=0, note=74, velocity=104, time=12),\n",
      "    Message('note_on', channel=0, note=74, velocity=0, time=48),\n",
      "    Message('note_on', channel=0, note=71, velocity=104, time=12),\n",
      "    Message('note_on', channel=0, note=71, velocity=0, time=48),\n",
      "    Message('note_on', channel=0, note=67, velocity=104, time=12),\n",
      "    Message('note_on', channel=0, note=67, velocity=0, time=48),\n",
      "    Message('note_on', channel=0, note=69, velocity=104, time=12),\n",
      "    Message('note_on', channel=0, note=69, velocity=0, time=48),\n",
      "    Message('note_on', channel=0, note=71, velocity=104, time=12),\n",
      "    Message('note_on', channel=0, note=71, velocity=0, time=48),\n",
      "    Message('note_on', channel=0, note=64, velocity=104, time=12),\n",
      "    Message('note_on', channel=0, note=64, velocity=0, time=48),\n",
      "    Message('note_on', channel=0, note=74, velocity=104, time=12),\n",
      "    Message('note_on', channel=0, note=74, velocity=0, time=48),\n",
      "    Message('note_on', channel=0, note=72, velocity=104, time=12),\n",
      "    Message('note_on', channel=0, note=72, velocity=0, time=48),\n",
      "    Message('note_on', channel=0, note=71, velocity=104, time=12),\n",
      "    Message('note_on', channel=0, note=71, velocity=0, time=48),\n",
      "    Message('note_on', channel=0, note=69, velocity=104, time=12),\n",
      "    Message('note_on', channel=0, note=69, velocity=0, time=48),\n",
      "    Message('note_on', channel=0, note=67, velocity=104, time=12),\n",
      "    Message('note_on', channel=0, note=67, velocity=0, time=48),\n",
      "    Message('note_on', channel=0, note=62, velocity=104, time=12),\n",
      "    Message('note_on', channel=0, note=62, velocity=0, time=48),\n",
      "    Message('note_on', channel=0, note=67, velocity=104, time=12),\n",
      "    Message('note_on', channel=0, note=67, velocity=0, time=48),\n",
      "    Message('note_on', channel=0, note=66, velocity=104, time=12),\n",
      "    Message('note_on', channel=0, note=66, velocity=0, time=48),\n",
      "    Message('note_on', channel=0, note=67, velocity=104, time=12),\n",
      "    Message('note_on', channel=0, note=71, velocity=104, time=0),\n",
      "    Message('note_on', channel=0, note=67, velocity=0, time=336),\n",
      "    Message('note_on', channel=0, note=71, velocity=0, time=0),\n",
      "    Message('note_on', channel=0, note=64, velocity=104, time=24),\n",
      "    Message('note_on', channel=0, note=60, velocity=104, time=0),\n",
      "    Message('note_on', channel=0, note=67, velocity=104, time=0),\n",
      "    Message('note_on', channel=0, note=72, velocity=104, time=0),\n",
      "    Message('note_on', channel=0, note=64, velocity=0, time=168),\n",
      "    Message('note_on', channel=0, note=60, velocity=0, time=0),\n",
      "    Message('note_on', channel=0, note=67, velocity=0, time=0),\n",
      "    Message('note_on', channel=0, note=72, velocity=0, time=0),\n",
      "    Message('note_on', channel=0, note=74, velocity=104, time=12),\n",
      "    Message('note_on', channel=0, note=74, velocity=0, time=336),\n",
      "    Message('note_on', channel=0, note=66, velocity=104, time=24),\n",
      "    Message('note_on', channel=0, note=71, velocity=104, time=0),\n",
      "    Message('note_on', channel=0, note=74, velocity=104, time=0),\n",
      "    Message('note_on', channel=0, note=62, velocity=104, time=0),\n",
      "    Message('note_on', channel=0, note=66, velocity=0, time=168),\n",
      "    Message('note_on', channel=0, note=71, velocity=0, time=0),\n",
      "    Message('note_on', channel=0, note=74, velocity=0, time=0),\n",
      "    Message('note_on', channel=0, note=62, velocity=0, time=0),\n",
      "    Message('note_on', channel=0, note=72, velocity=104, time=12),\n",
      "    Message('note_on', channel=0, note=72, velocity=0, time=336),\n",
      "    Message('note_on', channel=0, note=67, velocity=104, time=24),\n",
      "    Message('note_on', channel=0, note=62, velocity=104, time=0),\n",
      "    Message('note_on', channel=0, note=71, velocity=104, time=0),\n",
      "    Message('note_on', channel=0, note=67, velocity=0, time=168),\n",
      "    Message('note_on', channel=0, note=62, velocity=0, time=0),\n",
      "    Message('note_on', channel=0, note=71, velocity=0, time=0),\n",
      "    Message('note_on', channel=0, note=66, velocity=104, time=12),\n",
      "    Message('note_on', channel=0, note=69, velocity=104, time=0),\n",
      "    Message('note_on', channel=0, note=66, velocity=0, time=48),\n",
      "    Message('note_on', channel=0, note=69, velocity=0, time=0),\n",
      "    Message('note_on', channel=0, note=62, velocity=104, time=12),\n",
      "    Message('note_on', channel=0, note=62, velocity=0, time=48),\n",
      "    Message('note_on', channel=0, note=64, velocity=104, time=12),\n",
      "    Message('note_on', channel=0, note=64, velocity=0, time=48),\n",
      "    Message('note_on', channel=0, note=66, velocity=104, time=12),\n",
      "    Message('note_on', channel=0, note=69, velocity=104, time=0),\n",
      "    Message('note_on', channel=0, note=66, velocity=0, time=48),\n",
      "    Message('note_on', channel=0, note=69, velocity=0, time=0),\n",
      "    Message('note_on', channel=0, note=69, velocity=104, time=12),\n",
      "    Message('note_on', channel=0, note=69, velocity=0, time=48),\n",
      "    Message('note_on', channel=0, note=67, velocity=104, time=12),\n",
      "    Message('note_on', channel=0, note=67, velocity=0, time=48),\n",
      "    Message('note_on', channel=0, note=69, velocity=104, time=12),\n",
      "    Message('note_on', channel=0, note=69, velocity=0, time=48),\n",
      "    Message('note_on', channel=0, note=72, velocity=104, time=12),\n",
      "    Message('note_on', channel=0, note=72, velocity=0, time=48),\n",
      "    Message('note_on', channel=0, note=71, velocity=104, time=12),\n",
      "    Message('note_on', channel=0, note=71, velocity=0, time=48),\n",
      "    Message('note_on', channel=0, note=72, velocity=104, time=12),\n",
      "    Message('note_on', channel=0, note=72, velocity=0, time=48),\n",
      "    Message('note_on', channel=0, note=69, velocity=104, time=12),\n",
      "    Message('note_on', channel=0, note=69, velocity=0, time=48),\n",
      "    Message('note_on', channel=0, note=66, velocity=104, time=12),\n",
      "    Message('note_on', channel=0, note=66, velocity=0, time=48),\n",
      "    Message('note_on', channel=0, note=62, velocity=104, time=12),\n",
      "    Message('note_on', channel=0, note=62, velocity=0, time=48),\n",
      "    Message('note_on', channel=0, note=66, velocity=104, time=12),\n",
      "    Message('note_on', channel=0, note=66, velocity=0, time=48),\n",
      "    Message('note_on', channel=0, note=69, velocity=104, time=12),\n",
      "    Message('note_on', channel=0, note=69, velocity=0, time=48),\n",
      "    Message('note_on', channel=0, note=72, velocity=104, time=12),\n",
      "    Message('note_on', channel=0, note=72, velocity=0, time=48),\n",
      "    Message('note_on', channel=0, note=71, velocity=104, time=12),\n",
      "    Message('note_on', channel=0, note=71, velocity=0, time=48),\n",
      "    Message('note_on', channel=0, note=69, velocity=104, time=12),\n",
      "    Message('note_on', channel=0, note=69, velocity=0, time=48),\n",
      "    Message('note_on', channel=0, note=71, velocity=104, time=12),\n",
      "    Message('note_on', channel=0, note=67, velocity=104, time=0),\n",
      "    Message('note_on', channel=0, note=71, velocity=0, time=336),\n",
      "    Message('note_on', channel=0, note=67, velocity=0, time=0),\n",
      "    Message('note_on', channel=0, note=64, velocity=104, time=24),\n",
      "    Message('note_on', channel=0, note=60, velocity=104, time=0),\n",
      "    Message('note_on', channel=0, note=67, velocity=104, time=0),\n",
      "    Message('note_on', channel=0, note=72, velocity=104, time=0),\n",
      "    Message('note_on', channel=0, note=64, velocity=0, time=168),\n",
      "    Message('note_on', channel=0, note=60, velocity=0, time=0),\n",
      "    Message('note_on', channel=0, note=67, velocity=0, time=0),\n",
      "    Message('note_on', channel=0, note=72, velocity=0, time=0),\n",
      "    Message('note_on', channel=0, note=67, velocity=104, time=12),\n",
      "    Message('note_on', channel=0, note=74, velocity=104, time=0),\n",
      "    Message('note_on', channel=0, note=62, velocity=104, time=0),\n",
      "    Message('note_on', channel=0, note=67, velocity=0, time=336),\n",
      "    Message('note_on', channel=0, note=74, velocity=0, time=0),\n",
      "    Message('note_on', channel=0, note=62, velocity=0, time=0),\n",
      "    Message('note_on', channel=0, note=67, velocity=104, time=24),\n",
      "    Message('note_on', channel=0, note=64, velocity=104, time=0),\n",
      "    Message('note_on', channel=0, note=71, velocity=104, time=0),\n",
      "    Message('note_on', channel=0, note=67, velocity=0, time=168),\n",
      "    Message('note_on', channel=0, note=64, velocity=0, time=0),\n",
      "    Message('note_on', channel=0, note=71, velocity=0, time=0),\n",
      "    Message('note_on', channel=0, note=69, velocity=104, time=12),\n",
      "    Message('note_on', channel=0, note=69, velocity=0, time=116),\n",
      "    Message('note_on', channel=0, note=71, velocity=104, time=4),\n",
      "    Message('note_on', channel=0, note=72, velocity=104, time=30),\n",
      "    Message('note_on', channel=0, note=71, velocity=0, time=14),\n",
      "    Message('note_on', channel=0, note=66, velocity=104, time=16),\n",
      "    Message('note_on', channel=0, note=71, velocity=104, time=0),\n",
      "    Message('note_on', channel=0, note=62, velocity=104, time=0),\n",
      "    Message('note_on', channel=0, note=72, velocity=0, time=14),\n",
      "    Message('note_on', channel=0, note=66, velocity=0, time=154),\n",
      "    Message('note_on', channel=0, note=71, velocity=0, time=0),\n",
      "    Message('note_on', channel=0, note=62, velocity=0, time=0),\n",
      "    Message('note_on', channel=0, note=66, velocity=104, time=12),\n",
      "    Message('note_on', channel=0, note=60, velocity=104, time=0),\n",
      "    Message('note_on', channel=0, note=69, velocity=104, time=0),\n",
      "    Message('note_on', channel=0, note=66, velocity=0, time=168),\n",
      "    Message('note_on', channel=0, note=60, velocity=0, time=0),\n",
      "    Message('note_on', channel=0, note=69, velocity=0, time=0),\n",
      "    Message('note_on', channel=0, note=67, velocity=104, time=12),\n",
      "    Message('note_on', channel=0, note=67, velocity=0, time=48),\n",
      "    Message('note_on', channel=0, note=71, velocity=104, time=12),\n",
      "    Message('note_on', channel=0, note=71, velocity=0, time=48),\n",
      "    Message('note_on', channel=0, note=69, velocity=104, time=12),\n",
      "    Message('note_on', channel=0, note=69, velocity=0, time=48),\n",
      "    Message('note_on', channel=0, note=71, velocity=104, time=12),\n",
      "    Message('note_on', channel=0, note=71, velocity=0, time=48),\n",
      "    Message('note_on', channel=0, note=74, velocity=104, time=12),\n",
      "    Message('note_on', channel=0, note=74, velocity=0, time=48),\n",
      "    Message('note_on', channel=0, note=72, velocity=104, time=12),\n",
      "    Message('note_on', channel=0, note=72, velocity=0, time=48),\n",
      "    Message('note_on', channel=0, note=72, velocity=104, time=12),\n",
      "    Message('note_on', channel=0, note=72, velocity=0, time=48),\n",
      "    Message('note_on', channel=0, note=76, velocity=104, time=12),\n",
      "    Message('note_on', channel=0, note=76, velocity=0, time=48),\n",
      "    Message('note_on', channel=0, note=74, velocity=104, time=12),\n",
      "    Message('note_on', channel=0, note=74, velocity=0, time=48),\n",
      "    Message('note_on', channel=0, note=74, velocity=104, time=12),\n",
      "    Message('note_on', channel=0, note=74, velocity=0, time=48),\n",
      "    Message('note_on', channel=0, note=79, velocity=104, time=12),\n",
      "    Message('note_on', channel=0, note=79, velocity=0, time=48),\n",
      "    Message('note_on', channel=0, note=78, velocity=104, time=12),\n",
      "    Message('note_on', channel=0, note=78, velocity=0, time=48),\n",
      "    Message('note_on', channel=0, note=79, velocity=104, time=12),\n",
      "    Message('note_on', channel=0, note=79, velocity=0, time=48),\n",
      "    Message('note_on', channel=0, note=74, velocity=104, time=12),\n",
      "    Message('note_on', channel=0, note=74, velocity=0, time=48),\n",
      "    Message('note_on', channel=0, note=71, velocity=104, time=12),\n",
      "    Message('note_on', channel=0, note=71, velocity=0, time=48),\n",
      "    Message('note_on', channel=0, note=67, velocity=104, time=12),\n",
      "    Message('note_on', channel=0, note=67, velocity=0, time=48),\n",
      "    Message('note_on', channel=0, note=69, velocity=104, time=12),\n",
      "    Message('note_on', channel=0, note=69, velocity=0, time=48),\n",
      "    Message('note_on', channel=0, note=71, velocity=104, time=12),\n",
      "    Message('note_on', channel=0, note=71, velocity=0, time=48),\n",
      "    Message('note_on', channel=0, note=72, velocity=104, time=12),\n",
      "    Message('note_on', channel=0, note=72, velocity=0, time=48),\n",
      "    Message('note_on', channel=0, note=74, velocity=104, time=12),\n",
      "    Message('note_on', channel=0, note=74, velocity=0, time=48),\n",
      "    Message('note_on', channel=0, note=76, velocity=104, time=12),\n",
      "    Message('note_on', channel=0, note=76, velocity=0, time=48),\n",
      "    Message('note_on', channel=0, note=74, velocity=104, time=12),\n",
      "    Message('note_on', channel=0, note=74, velocity=0, time=48),\n",
      "    Message('note_on', channel=0, note=72, velocity=104, time=12),\n",
      "    Message('note_on', channel=0, note=72, velocity=0, time=48),\n",
      "    Message('note_on', channel=0, note=71, velocity=104, time=12),\n",
      "    Message('note_on', channel=0, note=71, velocity=0, time=48),\n",
      "    Message('note_on', channel=0, note=69, velocity=104, time=12),\n",
      "    Message('note_on', channel=0, note=69, velocity=0, time=48),\n",
      "    Message('note_on', channel=0, note=71, velocity=104, time=12),\n",
      "    Message('note_on', channel=0, note=71, velocity=0, time=48),\n",
      "    Message('note_on', channel=0, note=67, velocity=104, time=12),\n",
      "    Message('note_on', channel=0, note=67, velocity=0, time=48),\n",
      "    Message('note_on', channel=0, note=66, velocity=104, time=12),\n",
      "    Message('note_on', channel=0, note=66, velocity=0, time=48),\n",
      "    Message('note_on', channel=0, note=67, velocity=104, time=12),\n",
      "    Message('note_on', channel=0, note=67, velocity=0, time=48),\n",
      "    Message('note_on', channel=0, note=69, velocity=104, time=12),\n",
      "    Message('note_on', channel=0, note=69, velocity=0, time=48),\n",
      "    Message('note_on', channel=0, note=62, velocity=104, time=12),\n",
      "    Message('note_on', channel=0, note=62, velocity=0, time=48),\n",
      "    Message('note_on', channel=0, note=66, velocity=104, time=12),\n",
      "    Message('note_on', channel=0, note=66, velocity=0, time=48),\n",
      "    Message('note_on', channel=0, note=69, velocity=104, time=12),\n",
      "    Message('note_on', channel=0, note=69, velocity=0, time=48),\n",
      "    Message('note_on', channel=0, note=72, velocity=104, time=12),\n",
      "    Message('note_on', channel=0, note=72, velocity=0, time=48),\n",
      "    Message('note_on', channel=0, note=71, velocity=104, time=12),\n",
      "    Message('note_on', channel=0, note=71, velocity=0, time=48),\n",
      "    Message('note_on', channel=0, note=69, velocity=104, time=12),\n",
      "    Message('note_on', channel=0, note=69, velocity=0, time=48),\n",
      "    Message('note_on', channel=0, note=71, velocity=104, time=12),\n",
      "    Message('note_on', channel=0, note=71, velocity=0, time=48),\n",
      "    Message('note_on', channel=0, note=67, velocity=104, time=12),\n",
      "    Message('note_on', channel=0, note=67, velocity=0, time=48),\n",
      "    Message('note_on', channel=0, note=69, velocity=104, time=12),\n",
      "    Message('note_on', channel=0, note=69, velocity=0, time=48),\n",
      "    Message('note_on', channel=0, note=71, velocity=104, time=12),\n",
      "    Message('note_on', channel=0, note=71, velocity=0, time=48),\n",
      "    Message('note_on', channel=0, note=74, velocity=104, time=12),\n",
      "    Message('note_on', channel=0, note=74, velocity=0, time=48),\n",
      "    Message('note_on', channel=0, note=72, velocity=104, time=12),\n",
      "    Message('note_on', channel=0, note=72, velocity=0, time=48),\n",
      "    Message('note_on', channel=0, note=72, velocity=104, time=12),\n",
      "    Message('note_on', channel=0, note=72, velocity=0, time=48),\n",
      "    Message('note_on', channel=0, note=76, velocity=104, time=12),\n",
      "    Message('note_on', channel=0, note=76, velocity=0, time=48),\n",
      "    Message('note_on', channel=0, note=74, velocity=104, time=12),\n",
      "    Message('note_on', channel=0, note=74, velocity=0, time=48),\n",
      "    Message('note_on', channel=0, note=74, velocity=104, time=12),\n",
      "    Message('note_on', channel=0, note=74, velocity=0, time=48),\n",
      "    Message('note_on', channel=0, note=79, velocity=104, time=12),\n",
      "    Message('note_on', channel=0, note=79, velocity=0, time=48),\n",
      "    Message('note_on', channel=0, note=78, velocity=104, time=12),\n",
      "    Message('note_on', channel=0, note=78, velocity=0, time=48),\n",
      "    Message('note_on', channel=0, note=79, velocity=104, time=12),\n",
      "    Message('note_on', channel=0, note=79, velocity=0, time=48),\n",
      "    Message('note_on', channel=0, note=74, velocity=104, time=12),\n",
      "    Message('note_on', channel=0, note=74, velocity=0, time=48),\n",
      "    Message('note_on', channel=0, note=71, velocity=104, time=12),\n",
      "    Message('note_on', channel=0, note=71, velocity=0, time=48),\n",
      "    Message('note_on', channel=0, note=67, velocity=104, time=12),\n",
      "    Message('note_on', channel=0, note=67, velocity=0, time=48),\n",
      "    Message('note_on', channel=0, note=69, velocity=104, time=12),\n",
      "    Message('note_on', channel=0, note=69, velocity=0, time=48),\n",
      "    Message('note_on', channel=0, note=71, velocity=104, time=12),\n",
      "    Message('note_on', channel=0, note=71, velocity=0, time=48),\n",
      "    Message('note_on', channel=0, note=64, velocity=104, time=12),\n",
      "    Message('note_on', channel=0, note=64, velocity=0, time=48),\n",
      "    Message('note_on', channel=0, note=74, velocity=104, time=12),\n",
      "    Message('note_on', channel=0, note=74, velocity=0, time=48),\n",
      "    Message('note_on', channel=0, note=72, velocity=104, time=12),\n",
      "    Message('note_on', channel=0, note=72, velocity=0, time=48),\n",
      "    Message('note_on', channel=0, note=71, velocity=104, time=12),\n",
      "    Message('note_on', channel=0, note=71, velocity=0, time=48),\n",
      "    Message('note_on', channel=0, note=69, velocity=104, time=12),\n",
      "    Message('note_on', channel=0, note=69, velocity=0, time=48),\n",
      "    Message('note_on', channel=0, note=67, velocity=104, time=12),\n",
      "    Message('note_on', channel=0, note=67, velocity=0, time=48),\n",
      "    Message('note_on', channel=0, note=62, velocity=104, time=12),\n",
      "    Message('note_on', channel=0, note=62, velocity=0, time=48),\n",
      "    Message('note_on', channel=0, note=67, velocity=104, time=12),\n",
      "    Message('note_on', channel=0, note=67, velocity=0, time=48),\n",
      "    Message('note_on', channel=0, note=66, velocity=104, time=12),\n",
      "    Message('note_on', channel=0, note=66, velocity=0, time=48),\n",
      "    Message('note_on', channel=0, note=67, velocity=104, time=12),\n",
      "    Message('note_on', channel=0, note=67, velocity=0, time=48),\n",
      "    Message('note_on', channel=0, note=71, velocity=104, time=12),\n",
      "    Message('note_on', channel=0, note=71, velocity=0, time=48),\n",
      "    Message('note_on', channel=0, note=74, velocity=104, time=12),\n",
      "    Message('note_on', channel=0, note=74, velocity=0, time=48),\n",
      "    Message('note_on', channel=0, note=79, velocity=104, time=12),\n",
      "    Message('note_on', channel=0, note=79, velocity=0, time=48),\n",
      "    Message('note_on', channel=0, note=74, velocity=104, time=12),\n",
      "    Message('note_on', channel=0, note=74, velocity=0, time=48),\n",
      "    Message('note_on', channel=0, note=71, velocity=104, time=12),\n",
      "    Message('note_on', channel=0, note=71, velocity=0, time=48),\n",
      "    Message('note_on', channel=0, note=67, velocity=104, time=12),\n",
      "    Message('note_on', channel=0, note=67, velocity=0, time=168),\n",
      "    Message('note_on', channel=0, note=66, velocity=94, time=13),\n",
      "    Message('note_on', channel=0, note=69, velocity=94, time=0),\n",
      "    Message('note_on', channel=0, note=66, velocity=0, time=336),\n",
      "    Message('note_on', channel=0, note=69, velocity=0, time=0),\n",
      "    Message('note_on', channel=0, note=68, velocity=94, time=24),\n",
      "    Message('note_on', channel=0, note=71, velocity=94, time=0),\n",
      "    Message('note_on', channel=0, note=62, velocity=94, time=0),\n",
      "    Message('note_on', channel=0, note=68, velocity=0, time=168),\n",
      "    Message('note_on', channel=0, note=71, velocity=0, time=0),\n",
      "    Message('note_on', channel=0, note=62, velocity=0, time=0),\n",
      "    Message('note_on', channel=0, note=72, velocity=94, time=12),\n",
      "    Message('note_on', channel=0, note=64, velocity=94, time=0),\n",
      "    Message('note_on', channel=0, note=69, velocity=94, time=0),\n",
      "    Message('note_on', channel=0, note=72, velocity=0, time=336),\n",
      "    Message('note_on', channel=0, note=64, velocity=0, time=0),\n",
      "    Message('note_on', channel=0, note=69, velocity=0, time=0),\n",
      "    Message('note_on', channel=0, note=69, velocity=94, time=24),\n",
      "    Message('note_on', channel=0, note=64, velocity=94, time=0),\n",
      "    Message('note_on', channel=0, note=72, velocity=94, time=0),\n",
      "    Message('note_on', channel=0, note=69, velocity=0, time=168),\n",
      "    Message('note_on', channel=0, note=64, velocity=0, time=0),\n",
      "    Message('note_on', channel=0, note=72, velocity=0, time=0),\n",
      "    Message('note_on', channel=0, note=71, velocity=94, time=12),\n",
      "    Message('note_on', channel=0, note=71, velocity=0, time=276),\n",
      "    Message('note_on', channel=0, note=72, velocity=94, time=24),\n",
      "    Message('note_on', channel=0, note=72, velocity=0, time=24),\n",
      "    Message('note_on', channel=0, note=74, velocity=94, time=6),\n",
      "    Message('note_on', channel=0, note=74, velocity=0, time=24),\n",
      "    Message('note_on', channel=0, note=71, velocity=94, time=6),\n",
      "    Message('note_on', channel=0, note=68, velocity=94, time=0),\n",
      "    Message('note_on', channel=0, note=71, velocity=0, time=168),\n",
      "    Message('note_on', channel=0, note=68, velocity=0, time=0),\n",
      "    Message('note_on', channel=0, note=69, velocity=94, time=12),\n",
      "    Message('note_on', channel=0, note=69, velocity=0, time=168),\n",
      "    Message('note_on', channel=0, note=69, velocity=94, time=12),\n",
      "    Message('note_on', channel=0, note=69, velocity=0, time=48),\n",
      "    Message('note_on', channel=0, note=76, velocity=94, time=12),\n",
      "    Message('note_on', channel=0, note=76, velocity=0, time=48),\n",
      "    Message('note_on', channel=0, note=74, velocity=94, time=12),\n",
      "    Message('note_on', channel=0, note=74, velocity=0, time=48),\n",
      "    Message('note_on', channel=0, note=74, velocity=94, time=12),\n",
      "    Message('note_on', channel=0, note=74, velocity=0, time=48),\n",
      "    Message('note_on', channel=0, note=77, velocity=94, time=12),\n",
      "    Message('note_on', channel=0, note=77, velocity=0, time=48),\n",
      "    Message('note_on', channel=0, note=76, velocity=94, time=12),\n",
      "    Message('note_on', channel=0, note=76, velocity=0, time=48),\n",
      "    Message('note_on', channel=0, note=76, velocity=94, time=12),\n",
      "    Message('note_on', channel=0, note=76, velocity=0, time=48),\n",
      "    Message('note_on', channel=0, note=81, velocity=94, time=12),\n",
      "    Message('note_on', channel=0, note=81, velocity=0, time=48),\n",
      "    Message('note_on', channel=0, note=80, velocity=94, time=12),\n",
      "    Message('note_on', channel=0, note=80, velocity=0, time=48),\n",
      "    Message('note_on', channel=0, note=81, velocity=94, time=12),\n",
      "    Message('note_on', channel=0, note=81, velocity=0, time=48),\n",
      "    Message('note_on', channel=0, note=76, velocity=94, time=12),\n",
      "    Message('note_on', channel=0, note=76, velocity=0, time=48),\n",
      "    Message('note_on', channel=0, note=72, velocity=94, time=12),\n",
      "    Message('note_on', channel=0, note=72, velocity=0, time=48),\n",
      "    Message('note_on', channel=0, note=69, velocity=94, time=12),\n",
      "    Message('note_on', channel=0, note=69, velocity=0, time=48),\n",
      "    Message('note_on', channel=0, note=71, velocity=94, time=12),\n",
      "    Message('note_on', channel=0, note=71, velocity=0, time=48),\n",
      "    Message('note_on', channel=0, note=72, velocity=94, time=12),\n",
      "    Message('note_on', channel=0, note=72, velocity=0, time=48),\n",
      "    Message('note_on', channel=0, note=77, velocity=94, time=12),\n",
      "    Message('note_on', channel=0, note=77, velocity=0, time=48),\n",
      "    Message('note_on', channel=0, note=76, velocity=94, time=12),\n",
      "    Message('note_on', channel=0, note=76, velocity=0, time=48),\n",
      "    Message('note_on', channel=0, note=74, velocity=94, time=12),\n",
      "    Message('note_on', channel=0, note=74, velocity=0, time=48),\n",
      "    Message('note_on', channel=0, note=72, velocity=94, time=12),\n",
      "    Message('note_on', channel=0, note=72, velocity=0, time=48),\n",
      "    Message('note_on', channel=0, note=71, velocity=94, time=12),\n",
      "    Message('note_on', channel=0, note=71, velocity=0, time=48),\n",
      "    Message('note_on', channel=0, note=69, velocity=94, time=12),\n",
      "    Message('note_on', channel=0, note=69, velocity=0, time=48),\n",
      "    Message('note_on', channel=0, note=64, velocity=94, time=12),\n",
      "    Message('note_on', channel=0, note=64, velocity=0, time=48),\n",
      "    Message('note_on', channel=0, note=69, velocity=94, time=12),\n",
      "    Message('note_on', channel=0, note=69, velocity=0, time=48),\n",
      "    Message('note_on', channel=0, note=68, velocity=94, time=12),\n",
      "    Message('note_on', channel=0, note=62, velocity=94, time=0),\n",
      "    Message('note_on', channel=0, note=68, velocity=0, time=48),\n",
      "    Message('note_on', channel=0, note=62, velocity=0, time=0),\n",
      "    Message('note_on', channel=0, note=64, velocity=94, time=12),\n",
      "    Message('note_on', channel=0, note=69, velocity=94, time=0),\n",
      "    Message('note_on', channel=0, note=72, velocity=94, time=0),\n",
      "    Message('note_on', channel=0, note=64, velocity=0, time=336),\n",
      "    Message('note_on', channel=0, note=69, velocity=0, time=0),\n",
      "    Message('note_on', channel=0, note=72, velocity=0, time=0),\n",
      "    Message('note_on', channel=0, note=74, velocity=94, time=24),\n",
      "    Message('note_on', channel=0, note=62, velocity=94, time=0),\n",
      "    Message('note_on', channel=0, note=67, velocity=94, time=0),\n",
      "    Message('note_on', channel=0, note=74, velocity=0, time=168),\n",
      "    Message('note_on', channel=0, note=62, velocity=0, time=0),\n",
      "    Message('note_on', channel=0, note=67, velocity=0, time=0),\n",
      "    Message('note_on', channel=0, note=72, velocity=94, time=12),\n",
      "    Message('note_on', channel=0, note=76, velocity=94, time=0),\n",
      "    Message('note_on', channel=0, note=72, velocity=0, time=336),\n",
      "    Message('note_on', channel=0, note=76, velocity=0, time=0),\n",
      "    Message('note_on', channel=0, note=72, velocity=94, time=24),\n",
      "    Message('note_on', channel=0, note=76, velocity=94, time=0),\n",
      "    Message('note_on', channel=0, note=67, velocity=94, time=0),\n",
      "    Message('note_on', channel=0, note=72, velocity=0, time=168),\n",
      "    Message('note_on', channel=0, note=76, velocity=0, time=0),\n",
      "    Message('note_on', channel=0, note=67, velocity=0, time=0),\n",
      "    Message('note_on', channel=0, note=74, velocity=94, time=12),\n",
      "    Message('note_on', channel=0, note=74, velocity=0, time=276),\n",
      "    Message('note_on', channel=0, note=76, velocity=94, time=24),\n",
      "    Message('note_on', channel=0, note=76, velocity=0, time=24),\n",
      "    Message('note_on', channel=0, note=77, velocity=94, time=6),\n",
      "    Message('note_on', channel=0, note=77, velocity=0, time=24),\n",
      "    Message('note_on', channel=0, note=74, velocity=94, time=6),\n",
      "    Message('note_on', channel=0, note=74, velocity=0, time=168),\n",
      "    Message('note_on', channel=0, note=64, velocity=94, time=12),\n",
      "    Message('note_on', channel=0, note=72, velocity=94, time=0),\n",
      "    Message('note_on', channel=0, note=64, velocity=0, time=168),\n",
      "    Message('note_on', channel=0, note=72, velocity=0, time=0),\n",
      "    Message('note_on', channel=0, note=72, velocity=94, time=12),\n",
      "    Message('note_on', channel=0, note=72, velocity=0, time=48),\n",
      "    Message('note_on', channel=0, note=76, velocity=94, time=12),\n",
      "    Message('note_on', channel=0, note=76, velocity=0, time=48),\n",
      "    Message('note_on', channel=0, note=72, velocity=94, time=12),\n",
      "    Message('note_on', channel=0, note=72, velocity=0, time=48),\n",
      "    Message('note_on', channel=0, note=67, velocity=94, time=12),\n",
      "    Message('note_on', channel=0, note=67, velocity=0, time=48),\n",
      "    Message('note_on', channel=0, note=69, velocity=94, time=12),\n",
      "    Message('note_on', channel=0, note=69, velocity=0, time=48),\n",
      "    Message('note_on', channel=0, note=70, velocity=94, time=12),\n",
      "    Message('note_on', channel=0, note=70, velocity=0, time=48),\n",
      "    Message('note_on', channel=0, note=69, velocity=94, time=12),\n",
      "    Message('note_on', channel=0, note=69, velocity=0, time=48),\n",
      "    Message('note_on', channel=0, note=72, velocity=94, time=12),\n",
      "    Message('note_on', channel=0, note=72, velocity=0, time=48),\n",
      "    Message('note_on', channel=0, note=71, velocity=94, time=12),\n",
      "    Message('note_on', channel=0, note=71, velocity=0, time=48),\n",
      "    Message('note_on', channel=0, note=72, velocity=94, time=12),\n",
      "    Message('note_on', channel=0, note=72, velocity=0, time=48),\n",
      "    Message('note_on', channel=0, note=69, velocity=94, time=12),\n",
      "    Message('note_on', channel=0, note=69, velocity=0, time=48),\n",
      "    Message('note_on', channel=0, note=66, velocity=94, time=12),\n",
      "    Message('note_on', channel=0, note=66, velocity=0, time=48),\n",
      "    Message('note_on', channel=0, note=62, velocity=94, time=12),\n",
      "    Message('note_on', channel=0, note=62, velocity=0, time=48),\n",
      "    Message('note_on', channel=0, note=64, velocity=94, time=12),\n",
      "    Message('note_on', channel=0, note=64, velocity=0, time=48),\n",
      "    Message('note_on', channel=0, note=66, velocity=94, time=12),\n",
      "    Message('note_on', channel=0, note=66, velocity=0, time=48),\n",
      "    Message('note_on', channel=0, note=64, velocity=94, time=12),\n",
      "    Message('note_on', channel=0, note=64, velocity=0, time=48),\n",
      "    Message('note_on', channel=0, note=60, velocity=94, time=12),\n",
      "    Message('note_on', channel=0, note=60, velocity=0, time=48),\n",
      "    Message('note_on', channel=0, note=62, velocity=94, time=12),\n",
      "    Message('note_on', channel=0, note=62, velocity=0, time=48),\n",
      "    Message('note_on', channel=0, note=64, velocity=94, time=12),\n",
      "    Message('note_on', channel=0, note=64, velocity=0, time=48),\n",
      "    Message('note_on', channel=0, note=67, velocity=94, time=12),\n",
      "    Message('note_on', channel=0, note=67, velocity=0, time=48),\n",
      "    Message('note_on', channel=0, note=66, velocity=94, time=12),\n",
      "    Message('note_on', channel=0, note=66, velocity=0, time=48),\n",
      "    Message('note_on', channel=0, note=67, velocity=94, time=12),\n",
      "    Message('note_on', channel=0, note=67, velocity=0, time=48),\n",
      "    Message('note_on', channel=0, note=71, velocity=94, time=12),\n",
      "    Message('note_on', channel=0, note=71, velocity=0, time=48),\n",
      "    Message('note_on', channel=0, note=69, velocity=94, time=12),\n",
      "    Message('note_on', channel=0, note=69, velocity=0, time=48),\n",
      "    Message('note_on', channel=0, note=67, velocity=94, time=12),\n",
      "    Message('note_on', channel=0, note=71, velocity=94, time=0),\n",
      "    Message('note_on', channel=0, note=67, velocity=0, time=336),\n",
      "    Message('note_on', channel=0, note=71, velocity=0, time=0),\n",
      "    Message('note_on', channel=0, note=64, velocity=94, time=24),\n",
      "    Message('note_on', channel=0, note=60, velocity=94, time=0),\n",
      "    Message('note_on', channel=0, note=67, velocity=94, time=0),\n",
      "    Message('note_on', channel=0, note=72, velocity=94, time=0),\n",
      "    Message('note_on', channel=0, note=64, velocity=0, time=168),\n",
      "    Message('note_on', channel=0, note=60, velocity=0, time=0),\n",
      "    Message('note_on', channel=0, note=67, velocity=0, time=0),\n",
      "    Message('note_on', channel=0, note=72, velocity=0, time=0),\n",
      "    Message('note_on', channel=0, note=74, velocity=94, time=12),\n",
      "    Message('note_on', channel=0, note=67, velocity=94, time=0),\n",
      "    Message('note_on', channel=0, note=62, velocity=94, time=0),\n",
      "    Message('note_on', channel=0, note=74, velocity=0, time=336),\n",
      "    Message('note_on', channel=0, note=67, velocity=0, time=0),\n",
      "    Message('note_on', channel=0, note=62, velocity=0, time=0),\n",
      "    Message('note_on', channel=0, note=74, velocity=94, time=24),\n",
      "    Message('note_on', channel=0, note=67, velocity=94, time=0),\n",
      "    Message('note_on', channel=0, note=62, velocity=94, time=0),\n",
      "    Message('note_on', channel=0, note=74, velocity=0, time=168),\n",
      "    Message('note_on', channel=0, note=67, velocity=0, time=0),\n",
      "    Message('note_on', channel=0, note=62, velocity=0, time=0),\n",
      "    Message('note_on', channel=0, note=69, velocity=94, time=12),\n",
      "    Message('note_on', channel=0, note=64, velocity=94, time=0),\n",
      "    Message('note_on', channel=0, note=72, velocity=94, time=0),\n",
      "    Message('note_on', channel=0, note=69, velocity=0, time=168),\n",
      "    Message('note_on', channel=0, note=64, velocity=0, time=0),\n",
      "    Message('note_on', channel=0, note=72, velocity=0, time=0),\n",
      "    Message('note_on', channel=0, note=71, velocity=94, time=12),\n",
      "    Message('note_on', channel=0, note=71, velocity=0, time=336),\n",
      "    Message('note_on', channel=0, note=66, velocity=94, time=24),\n",
      "    Message('note_on', channel=0, note=69, velocity=94, time=0),\n",
      "    Message('note_on', channel=0, note=66, velocity=0, time=48),\n",
      "    Message('note_on', channel=0, note=69, velocity=0, time=0),\n",
      "    Message('note_on', channel=0, note=62, velocity=94, time=12),\n",
      "    Message('note_on', channel=0, note=62, velocity=0, time=48),\n",
      "    Message('note_on', channel=0, note=64, velocity=94, time=12),\n",
      "    Message('note_on', channel=0, note=64, velocity=0, time=48),\n",
      "    Message('note_on', channel=0, note=66, velocity=94, time=12),\n",
      "    Message('note_on', channel=0, note=66, velocity=0, time=48),\n",
      "    Message('note_on', channel=0, note=69, velocity=94, time=12),\n",
      "    Message('note_on', channel=0, note=69, velocity=0, time=48),\n",
      "    Message('note_on', channel=0, note=67, velocity=94, time=12),\n",
      "    Message('note_on', channel=0, note=67, velocity=0, time=48),\n",
      "    Message('note_on', channel=0, note=69, velocity=94, time=12),\n",
      "    Message('note_on', channel=0, note=69, velocity=0, time=48),\n",
      "    Message('note_on', channel=0, note=72, velocity=94, time=12),\n",
      "    Message('note_on', channel=0, note=72, velocity=0, time=48),\n",
      "    Message('note_on', channel=0, note=71, velocity=94, time=12),\n",
      "    Message('note_on', channel=0, note=71, velocity=0, time=48),\n",
      "    Message('note_on', channel=0, note=72, velocity=94, time=12),\n",
      "    Message('note_on', channel=0, note=72, velocity=0, time=48),\n",
      "    Message('note_on', channel=0, note=69, velocity=94, time=12),\n",
      "    Message('note_on', channel=0, note=69, velocity=0, time=48),\n",
      "    Message('note_on', channel=0, note=66, velocity=94, time=12),\n",
      "    Message('note_on', channel=0, note=66, velocity=0, time=48),\n",
      "    Message('note_on', channel=0, note=62, velocity=94, time=12),\n",
      "    Message('note_on', channel=0, note=62, velocity=0, time=48),\n",
      "    Message('note_on', channel=0, note=66, velocity=94, time=12),\n",
      "    Message('note_on', channel=0, note=66, velocity=0, time=48),\n",
      "    Message('note_on', channel=0, note=69, velocity=94, time=12),\n",
      "    Message('note_on', channel=0, note=69, velocity=0, time=48),\n",
      "    Message('note_on', channel=0, note=72, velocity=94, time=12),\n",
      "    Message('note_on', channel=0, note=72, velocity=0, time=48),\n",
      "    Message('note_on', channel=0, note=71, velocity=94, time=12),\n",
      "    Message('note_on', channel=0, note=71, velocity=0, time=48),\n",
      "    Message('note_on', channel=0, note=69, velocity=94, time=12),\n",
      "    Message('note_on', channel=0, note=69, velocity=0, time=48),\n",
      "    Message('note_on', channel=0, note=67, velocity=94, time=12),\n",
      "    Message('note_on', channel=0, note=71, velocity=94, time=0),\n",
      "    Message('note_on', channel=0, note=67, velocity=0, time=336),\n",
      "    Message('note_on', channel=0, note=71, velocity=0, time=0),\n",
      "    Message('note_on', channel=0, note=72, velocity=94, time=24),\n",
      "    Message('note_on', channel=0, note=67, velocity=94, time=0),\n",
      "    Message('note_on', channel=0, note=64, velocity=94, time=0),\n",
      "    Message('note_on', channel=0, note=60, velocity=94, time=0),\n",
      "    Message('note_on', channel=0, note=72, velocity=0, time=168),\n",
      "    Message('note_on', channel=0, note=67, velocity=0, time=0),\n",
      "    Message('note_on', channel=0, note=64, velocity=0, time=0),\n",
      "    Message('note_on', channel=0, note=60, velocity=0, time=0),\n",
      "    Message('note_on', channel=0, note=74, velocity=94, time=12),\n",
      "    Message('note_on', channel=0, note=62, velocity=94, time=0),\n",
      "    Message('note_on', channel=0, note=67, velocity=94, time=0),\n",
      "    Message('note_on', channel=0, note=74, velocity=0, time=336),\n",
      "    Message('note_on', channel=0, note=62, velocity=0, time=0),\n",
      "    Message('note_on', channel=0, note=67, velocity=0, time=0),\n",
      "    Message('note_on', channel=0, note=67, velocity=94, time=24),\n",
      "    Message('note_on', channel=0, note=64, velocity=94, time=0),\n",
      "    Message('note_on', channel=0, note=71, velocity=94, time=0),\n",
      "    Message('note_on', channel=0, note=67, velocity=0, time=168),\n",
      "    Message('note_on', channel=0, note=64, velocity=0, time=0),\n",
      "    Message('note_on', channel=0, note=71, velocity=0, time=0),\n",
      "    Message('note_on', channel=0, note=69, velocity=94, time=12),\n",
      "    Message('note_on', channel=0, note=69, velocity=0, time=96),\n",
      "    Message('note_on', channel=0, note=71, velocity=94, time=24),\n",
      "    Message('note_on', channel=0, note=71, velocity=0, time=24),\n",
      "    Message('note_on', channel=0, note=72, velocity=94, time=6),\n",
      "    Message('note_on', channel=0, note=72, velocity=0, time=24),\n",
      "    Message('note_on', channel=0, note=71, velocity=94, time=6),\n",
      "    Message('note_on', channel=0, note=71, velocity=0, time=168),\n",
      "    Message('note_on', channel=0, note=69, velocity=94, time=12),\n",
      "    Message('note_on', channel=0, note=69, velocity=0, time=168),\n",
      "    Message('note_on', channel=0, note=67, velocity=94, time=12),\n",
      "    Message('note_on', channel=0, note=67, velocity=0, time=48),\n",
      "    Message('note_on', channel=0, note=71, velocity=94, time=12),\n",
      "    Message('note_on', channel=0, note=71, velocity=0, time=48),\n",
      "    Message('note_on', channel=0, note=74, velocity=94, time=12),\n",
      "    Message('note_on', channel=0, note=74, velocity=0, time=48),\n",
      "    Message('note_on', channel=0, note=79, velocity=94, time=12),\n",
      "    Message('note_on', channel=0, note=79, velocity=0, time=48),\n",
      "    Message('note_on', channel=0, note=74, velocity=94, time=12),\n",
      "    Message('note_on', channel=0, note=74, velocity=0, time=48),\n",
      "    Message('note_on', channel=0, note=71, velocity=94, time=12),\n",
      "    Message('note_on', channel=0, note=71, velocity=0, time=48),\n",
      "    Message('note_on', channel=0, note=67, velocity=94, time=12),\n",
      "    Message('note_on', channel=0, note=67, velocity=0, time=48),\n",
      "    Message('note_on', channel=0, note=71, velocity=94, time=12),\n",
      "    Message('note_on', channel=0, note=71, velocity=0, time=48),\n",
      "    Message('note_on', channel=0, note=74, velocity=94, time=12),\n",
      "    Message('note_on', channel=0, note=74, velocity=0, time=48),\n",
      "    Message('note_on', channel=0, note=77, velocity=94, time=12),\n",
      "    Message('note_on', channel=0, note=77, velocity=0, time=48),\n",
      "    Message('note_on', channel=0, note=74, velocity=94, time=12),\n",
      "    Message('note_on', channel=0, note=74, velocity=0, time=48),\n",
      "    Message('note_on', channel=0, note=71, velocity=94, time=12),\n",
      "    Message('note_on', channel=0, note=71, velocity=0, time=48),\n",
      "    Message('note_on', channel=0, note=67, velocity=94, time=12),\n",
      "    Message('note_on', channel=0, note=67, velocity=0, time=48),\n",
      "    Message('note_on', channel=0, note=71, velocity=94, time=12),\n",
      "    Message('note_on', channel=0, note=71, velocity=0, time=48),\n",
      "    Message('note_on', channel=0, note=74, velocity=94, time=12),\n",
      "    Message('note_on', channel=0, note=74, velocity=0, time=48),\n",
      "    Message('note_on', channel=0, note=76, velocity=94, time=12),\n",
      "    Message('note_on', channel=0, note=76, velocity=0, time=48),\n",
      "    Message('note_on', channel=0, note=72, velocity=94, time=12),\n",
      "    Message('note_on', channel=0, note=72, velocity=0, time=48),\n",
      "    Message('note_on', channel=0, note=69, velocity=94, time=12),\n",
      "    Message('note_on', channel=0, note=69, velocity=0, time=48),\n",
      "    Message('note_on', channel=0, note=66, velocity=94, time=12),\n",
      "    Message('note_on', channel=0, note=66, velocity=0, time=48),\n",
      "    Message('note_on', channel=0, note=69, velocity=94, time=12),\n",
      "    Message('note_on', channel=0, note=69, velocity=0, time=48),\n",
      "    Message('note_on', channel=0, note=72, velocity=94, time=12),\n",
      "    Message('note_on', channel=0, note=72, velocity=0, time=48),\n",
      "    Message('note_on', channel=0, note=74, velocity=94, time=12),\n",
      "    Message('note_on', channel=0, note=74, velocity=0, time=48),\n",
      "    Message('note_on', channel=0, note=71, velocity=94, time=12),\n",
      "    Message('note_on', channel=0, note=71, velocity=0, time=48),\n",
      "    Message('note_on', channel=0, note=67, velocity=94, time=12),\n",
      "    Message('note_on', channel=0, note=67, velocity=0, time=48),\n",
      "    Message('note_on', channel=0, note=64, velocity=94, time=12),\n",
      "    Message('note_on', channel=0, note=64, velocity=0, time=48),\n",
      "    Message('note_on', channel=0, note=67, velocity=94, time=12),\n",
      "    Message('note_on', channel=0, note=67, velocity=0, time=48),\n",
      "    Message('note_on', channel=0, note=71, velocity=94, time=12),\n",
      "    Message('note_on', channel=0, note=71, velocity=0, time=48),\n",
      "    Message('note_on', channel=0, note=72, velocity=94, time=12),\n",
      "    Message('note_on', channel=0, note=72, velocity=0, time=48),\n",
      "    Message('note_on', channel=0, note=69, velocity=94, time=12),\n",
      "    Message('note_on', channel=0, note=69, velocity=0, time=48),\n",
      "    Message('note_on', channel=0, note=66, velocity=94, time=12),\n",
      "    Message('note_on', channel=0, note=66, velocity=0, time=48),\n",
      "    Message('note_on', channel=0, note=62, velocity=94, time=12),\n",
      "    Message('note_on', channel=0, note=62, velocity=0, time=48),\n",
      "    Message('note_on', channel=0, note=66, velocity=94, time=12),\n",
      "    Message('note_on', channel=0, note=66, velocity=0, time=48),\n",
      "    Message('note_on', channel=0, note=69, velocity=94, time=12),\n",
      "    Message('note_on', channel=0, note=69, velocity=0, time=48),\n",
      "    Message('note_on', channel=0, note=72, velocity=94, time=12),\n",
      "    Message('note_on', channel=0, note=72, velocity=0, time=48),\n",
      "    Message('note_on', channel=0, note=71, velocity=94, time=12),\n",
      "    Message('note_on', channel=0, note=71, velocity=0, time=48),\n",
      "    Message('note_on', channel=0, note=69, velocity=94, time=12),\n",
      "    Message('note_on', channel=0, note=69, velocity=0, time=48),\n",
      "    Message('note_on', channel=0, note=71, velocity=94, time=12),\n",
      "    Message('note_on', channel=0, note=71, velocity=0, time=48),\n",
      "    Message('note_on', channel=0, note=67, velocity=94, time=12),\n",
      "    Message('note_on', channel=0, note=67, velocity=0, time=48),\n",
      "    Message('note_on', channel=0, note=69, velocity=94, time=12),\n",
      "    Message('note_on', channel=0, note=69, velocity=0, time=48),\n",
      "    Message('note_on', channel=0, note=71, velocity=94, time=12),\n",
      "    Message('note_on', channel=0, note=71, velocity=0, time=48),\n",
      "    Message('note_on', channel=0, note=74, velocity=94, time=12),\n",
      "    Message('note_on', channel=0, note=74, velocity=0, time=48),\n",
      "    Message('note_on', channel=0, note=72, velocity=94, time=12),\n",
      "    Message('note_on', channel=0, note=72, velocity=0, time=48),\n",
      "    Message('note_on', channel=0, note=72, velocity=94, time=12),\n",
      "    Message('note_on', channel=0, note=72, velocity=0, time=48),\n",
      "    Message('note_on', channel=0, note=76, velocity=94, time=12),\n",
      "    Message('note_on', channel=0, note=76, velocity=0, time=48),\n",
      "    Message('note_on', channel=0, note=74, velocity=94, time=12),\n",
      "    Message('note_on', channel=0, note=74, velocity=0, time=48),\n",
      "    Message('note_on', channel=0, note=74, velocity=94, time=12),\n",
      "    Message('note_on', channel=0, note=74, velocity=0, time=48),\n",
      "    Message('note_on', channel=0, note=79, velocity=94, time=12),\n",
      "    Message('note_on', channel=0, note=79, velocity=0, time=48),\n",
      "    Message('note_on', channel=0, note=78, velocity=94, time=12),\n",
      "    Message('note_on', channel=0, note=78, velocity=0, time=48),\n",
      "    Message('note_on', channel=0, note=79, velocity=94, time=12),\n",
      "    Message('note_on', channel=0, note=79, velocity=0, time=48),\n",
      "    Message('note_on', channel=0, note=74, velocity=94, time=12),\n",
      "    Message('note_on', channel=0, note=74, velocity=0, time=48),\n",
      "    Message('note_on', channel=0, note=71, velocity=94, time=12),\n",
      "    Message('note_on', channel=0, note=71, velocity=0, time=48),\n",
      "    Message('note_on', channel=0, note=67, velocity=94, time=12),\n",
      "    Message('note_on', channel=0, note=67, velocity=0, time=48),\n",
      "    Message('note_on', channel=0, note=69, velocity=94, time=12),\n",
      "    Message('note_on', channel=0, note=69, velocity=0, time=48),\n",
      "    Message('note_on', channel=0, note=71, velocity=94, time=12),\n",
      "    Message('note_on', channel=0, note=71, velocity=0, time=48),\n",
      "    Message('note_on', channel=0, note=72, velocity=94, time=12),\n",
      "    Message('note_on', channel=0, note=72, velocity=0, time=48),\n",
      "    Message('note_on', channel=0, note=74, velocity=94, time=12),\n",
      "    Message('note_on', channel=0, note=74, velocity=0, time=48),\n",
      "    Message('note_on', channel=0, note=76, velocity=94, time=12),\n",
      "    Message('note_on', channel=0, note=76, velocity=0, time=48),\n",
      "    Message('note_on', channel=0, note=74, velocity=94, time=12),\n",
      "    Message('note_on', channel=0, note=74, velocity=0, time=48),\n",
      "    Message('note_on', channel=0, note=72, velocity=94, time=12),\n",
      "    Message('note_on', channel=0, note=72, velocity=0, time=48),\n",
      "    Message('note_on', channel=0, note=71, velocity=94, time=12),\n",
      "    Message('note_on', channel=0, note=71, velocity=0, time=48),\n",
      "    Message('note_on', channel=0, note=69, velocity=94, time=12),\n",
      "    Message('note_on', channel=0, note=69, velocity=0, time=48),\n",
      "    Message('note_on', channel=0, note=71, velocity=94, time=12),\n",
      "    Message('note_on', channel=0, note=71, velocity=0, time=48),\n",
      "    Message('note_on', channel=0, note=67, velocity=94, time=12),\n",
      "    Message('note_on', channel=0, note=67, velocity=0, time=48),\n",
      "    Message('note_on', channel=0, note=66, velocity=94, time=12),\n",
      "    Message('note_on', channel=0, note=66, velocity=0, time=48),\n",
      "    Message('note_on', channel=0, note=67, velocity=94, time=12),\n",
      "    Message('note_on', channel=0, note=67, velocity=0, time=48),\n",
      "    Message('note_on', channel=0, note=69, velocity=94, time=12),\n",
      "    Message('note_on', channel=0, note=69, velocity=0, time=48),\n",
      "    Message('note_on', channel=0, note=62, velocity=94, time=12),\n",
      "    Message('note_on', channel=0, note=62, velocity=0, time=48),\n",
      "    Message('note_on', channel=0, note=66, velocity=94, time=12),\n",
      "    Message('note_on', channel=0, note=66, velocity=0, time=48),\n",
      "    Message('note_on', channel=0, note=69, velocity=94, time=12),\n",
      "    Message('note_on', channel=0, note=69, velocity=0, time=48),\n",
      "    Message('note_on', channel=0, note=72, velocity=94, time=12),\n",
      "    Message('note_on', channel=0, note=72, velocity=0, time=48),\n",
      "    Message('note_on', channel=0, note=71, velocity=94, time=12),\n",
      "    Message('note_on', channel=0, note=71, velocity=0, time=48),\n",
      "    Message('note_on', channel=0, note=69, velocity=94, time=12),\n",
      "    Message('note_on', channel=0, note=69, velocity=0, time=48),\n",
      "    Message('note_on', channel=0, note=71, velocity=94, time=12),\n",
      "    Message('note_on', channel=0, note=71, velocity=0, time=48),\n",
      "    Message('note_on', channel=0, note=67, velocity=94, time=12),\n",
      "    Message('note_on', channel=0, note=67, velocity=0, time=48),\n",
      "    Message('note_on', channel=0, note=69, velocity=94, time=12),\n",
      "    Message('note_on', channel=0, note=69, velocity=0, time=48),\n",
      "    Message('note_on', channel=0, note=71, velocity=94, time=12),\n",
      "    Message('note_on', channel=0, note=71, velocity=0, time=48),\n",
      "    Message('note_on', channel=0, note=74, velocity=94, time=12),\n",
      "    Message('note_on', channel=0, note=74, velocity=0, time=48),\n",
      "    Message('note_on', channel=0, note=72, velocity=94, time=12),\n",
      "    Message('note_on', channel=0, note=72, velocity=0, time=48),\n",
      "    Message('note_on', channel=0, note=72, velocity=94, time=12),\n",
      "    Message('note_on', channel=0, note=72, velocity=0, time=48),\n",
      "    Message('note_on', channel=0, note=76, velocity=94, time=12),\n",
      "    Message('note_on', channel=0, note=76, velocity=0, time=48),\n",
      "    Message('note_on', channel=0, note=74, velocity=94, time=12),\n",
      "    Message('note_on', channel=0, note=74, velocity=0, time=48),\n",
      "    Message('note_on', channel=0, note=74, velocity=94, time=12),\n",
      "    Message('note_on', channel=0, note=74, velocity=0, time=48),\n",
      "    Message('note_on', channel=0, note=79, velocity=94, time=12),\n",
      "    Message('note_on', channel=0, note=79, velocity=0, time=48),\n",
      "    Message('note_on', channel=0, note=78, velocity=94, time=12),\n",
      "    Message('note_on', channel=0, note=78, velocity=0, time=48),\n",
      "    Message('note_on', channel=0, note=79, velocity=94, time=12),\n",
      "    Message('note_on', channel=0, note=79, velocity=0, time=48),\n",
      "    Message('note_on', channel=0, note=74, velocity=94, time=12),\n",
      "    Message('note_on', channel=0, note=74, velocity=0, time=48),\n",
      "    Message('note_on', channel=0, note=71, velocity=94, time=12),\n",
      "    Message('note_on', channel=0, note=71, velocity=0, time=48),\n",
      "    Message('note_on', channel=0, note=67, velocity=94, time=12),\n",
      "    Message('note_on', channel=0, note=67, velocity=0, time=48),\n",
      "    Message('note_on', channel=0, note=69, velocity=94, time=12),\n",
      "    Message('note_on', channel=0, note=69, velocity=0, time=48),\n",
      "    Message('note_on', channel=0, note=71, velocity=94, time=12),\n",
      "    Message('note_on', channel=0, note=71, velocity=0, time=48),\n",
      "    Message('note_on', channel=0, note=64, velocity=94, time=12),\n",
      "    Message('note_on', channel=0, note=64, velocity=0, time=48),\n",
      "    Message('note_on', channel=0, note=74, velocity=94, time=12),\n",
      "    Message('note_on', channel=0, note=74, velocity=0, time=48),\n",
      "    Message('note_on', channel=0, note=72, velocity=94, time=12),\n",
      "    Message('note_on', channel=0, note=72, velocity=0, time=48),\n",
      "    Message('note_on', channel=0, note=71, velocity=94, time=12),\n",
      "    Message('note_on', channel=0, note=71, velocity=0, time=48),\n",
      "    Message('note_on', channel=0, note=69, velocity=94, time=12),\n",
      "    Message('note_on', channel=0, note=69, velocity=0, time=48),\n",
      "    Message('note_on', channel=0, note=67, velocity=94, time=12),\n",
      "    Message('note_on', channel=0, note=67, velocity=0, time=48),\n",
      "    Message('note_on', channel=0, note=62, velocity=94, time=12),\n",
      "    Message('note_on', channel=0, note=62, velocity=0, time=48),\n",
      "    Message('note_on', channel=0, note=67, velocity=94, time=12),\n",
      "    Message('note_on', channel=0, note=67, velocity=0, time=48),\n",
      "    Message('note_on', channel=0, note=66, velocity=94, time=12),\n",
      "    Message('note_on', channel=0, note=66, velocity=0, time=48),\n",
      "    Message('note_on', channel=0, note=62, velocity=94, time=12),\n",
      "    Message('note_on', channel=0, note=67, velocity=94, time=0),\n",
      "    Message('note_on', channel=0, note=59, velocity=94, time=0),\n",
      "    Message('note_on', channel=0, note=55, velocity=94, time=0),\n",
      "    Message('note_on', channel=0, note=62, velocity=0, time=456),\n",
      "    Message('note_on', channel=0, note=67, velocity=0, time=0),\n",
      "    Message('note_on', channel=0, note=59, velocity=0, time=0),\n",
      "    Message('note_on', channel=0, note=55, velocity=0, time=0),\n",
      "    MetaMessage('end_of_track', time=0)]),\n",
      "  MidiTrack([\n",
      "    MetaMessage('track_name', name='Desiring', time=0),\n",
      "    MetaMessage('instrument_name', name='Synth Brass 2', time=0),\n",
      "    MetaMessage('midi_port', port=0, time=0),\n",
      "    Message('control_change', channel=1, control=0, value=80, time=0),\n",
      "    Message('control_change', channel=1, control=32, value=0, time=0),\n",
      "    Message('program_change', channel=1, program=63, time=0),\n",
      "    Message('note_on', channel=1, note=67, velocity=85, time=60),\n",
      "    Message('note_on', channel=1, note=67, velocity=0, time=48),\n",
      "    Message('note_on', channel=1, note=69, velocity=85, time=12),\n",
      "    Message('note_on', channel=1, note=69, velocity=0, time=48),\n",
      "    Message('note_on', channel=1, note=67, velocity=85, time=12),\n",
      "    Message('note_on', channel=1, note=67, velocity=0, time=168),\n",
      "    Message('note_on', channel=1, note=67, velocity=85, time=12),\n",
      "    Message('note_on', channel=1, note=67, velocity=0, time=168),\n",
      "    Message('note_on', channel=1, note=67, velocity=85, time=12),\n",
      "    Message('note_on', channel=1, note=67, velocity=0, time=168),\n",
      "    Message('note_on', channel=1, note=67, velocity=85, time=12),\n",
      "    Message('note_on', channel=1, note=67, velocity=0, time=168),\n",
      "    Message('note_on', channel=1, note=67, velocity=85, time=12),\n",
      "    Message('note_on', channel=1, note=67, velocity=0, time=48),\n",
      "    Message('note_on', channel=1, note=69, velocity=85, time=12),\n",
      "    Message('note_on', channel=1, note=69, velocity=0, time=48),\n",
      "    Message('note_on', channel=1, note=71, velocity=85, time=12),\n",
      "    Message('note_on', channel=1, note=71, velocity=0, time=48),\n",
      "    Message('note_on', channel=1, note=72, velocity=85, time=12),\n",
      "    Message('note_on', channel=1, note=72, velocity=0, time=48),\n",
      "    Message('note_on', channel=1, note=74, velocity=85, time=12),\n",
      "    Message('note_on', channel=1, note=74, velocity=0, time=48),\n",
      "    Message('note_on', channel=1, note=76, velocity=85, time=12),\n",
      "    Message('note_on', channel=1, note=76, velocity=0, time=48),\n",
      "    Message('note_on', channel=1, note=74, velocity=85, time=12),\n",
      "    Message('note_on', channel=1, note=74, velocity=0, time=48),\n",
      "    Message('note_on', channel=1, note=72, velocity=85, time=12),\n",
      "    Message('note_on', channel=1, note=72, velocity=0, time=48),\n",
      "    Message('note_on', channel=1, note=71, velocity=85, time=12),\n",
      "    Message('note_on', channel=1, note=71, velocity=0, time=48),\n",
      "    Message('note_on', channel=1, note=69, velocity=85, time=12),\n",
      "    Message('note_on', channel=1, note=69, velocity=0, time=48),\n",
      "    Message('note_on', channel=1, note=71, velocity=85, time=12),\n",
      "    Message('note_on', channel=1, note=71, velocity=0, time=48),\n",
      "    Message('note_on', channel=1, note=67, velocity=85, time=12),\n",
      "    Message('note_on', channel=1, note=67, velocity=0, time=48),\n",
      "    Message('note_on', channel=1, note=66, velocity=85, time=12),\n",
      "    Message('note_on', channel=1, note=66, velocity=0, time=48),\n",
      "    Message('note_on', channel=1, note=67, velocity=85, time=12),\n",
      "    Message('note_on', channel=1, note=67, velocity=0, time=48),\n",
      "    Message('note_on', channel=1, note=69, velocity=85, time=12),\n",
      "    Message('note_on', channel=1, note=69, velocity=0, time=48),\n",
      "    Message('note_on', channel=1, note=62, velocity=85, time=12),\n",
      "    Message('note_on', channel=1, note=62, velocity=0, time=48),\n",
      "    Message('note_on', channel=1, note=66, velocity=85, time=12),\n",
      "    Message('note_on', channel=1, note=66, velocity=0, time=48),\n",
      "    Message('note_on', channel=1, note=69, velocity=85, time=12),\n",
      "    Message('note_on', channel=1, note=69, velocity=0, time=48),\n",
      "    Message('note_on', channel=1, note=72, velocity=85, time=12),\n",
      "    Message('note_on', channel=1, note=72, velocity=0, time=48),\n",
      "    Message('note_on', channel=1, note=71, velocity=85, time=12),\n",
      "    Message('note_on', channel=1, note=71, velocity=0, time=48),\n",
      "    Message('note_on', channel=1, note=69, velocity=85, time=12),\n",
      "    Message('note_on', channel=1, note=69, velocity=0, time=48),\n",
      "    Message('note_on', channel=1, note=71, velocity=85, time=12),\n",
      "    Message('note_on', channel=1, note=71, velocity=0, time=48),\n",
      "    Message('note_on', channel=1, note=67, velocity=85, time=12),\n",
      "    Message('note_on', channel=1, note=67, velocity=0, time=48),\n",
      "    Message('note_on', channel=1, note=69, velocity=85, time=12),\n",
      "    Message('note_on', channel=1, note=69, velocity=0, time=48),\n",
      "    Message('note_on', channel=1, note=67, velocity=85, time=12),\n",
      "    Message('note_on', channel=1, note=67, velocity=0, time=168),\n",
      "    Message('note_on', channel=1, note=67, velocity=85, time=12),\n",
      "    Message('note_on', channel=1, note=67, velocity=0, time=168),\n",
      "    Message('note_on', channel=1, note=67, velocity=85, time=12),\n",
      "    Message('note_on', channel=1, note=67, velocity=0, time=168),\n",
      "    Message('note_on', channel=1, note=67, velocity=85, time=12),\n",
      "    Message('note_on', channel=1, note=67, velocity=0, time=168),\n",
      "    Message('note_on', channel=1, note=66, velocity=85, time=1812),\n",
      "    Message('note_on', channel=1, note=69, velocity=85, time=0),\n",
      "    Message('note_on', channel=1, note=62, velocity=85, time=0),\n",
      "    Message('note_on', channel=1, note=66, velocity=0, time=168),\n",
      "    Message('note_on', channel=1, note=69, velocity=0, time=0),\n",
      "    Message('note_on', channel=1, note=62, velocity=0, time=0),\n",
      "    Message('note_on', channel=1, note=67, velocity=85, time=12),\n",
      "    Message('note_on', channel=1, note=67, velocity=0, time=168),\n",
      "    Message('note_on', channel=1, note=60, velocity=85, time=192),\n",
      "    Message('note_on', channel=1, note=67, velocity=85, time=0),\n",
      "    Message('note_on', channel=1, note=64, velocity=85, time=0),\n",
      "    Message('note_on', channel=1, note=60, velocity=0, time=168),\n",
      "    Message('note_on', channel=1, note=67, velocity=0, time=0),\n",
      "    Message('note_on', channel=1, note=64, velocity=0, time=0),\n",
      "    Message('note_on', channel=1, note=62, velocity=85, time=12),\n",
      "    Message('note_on', channel=1, note=69, velocity=85, time=0),\n",
      "    Message('note_on', channel=1, note=62, velocity=0, time=168),\n",
      "    Message('note_on', channel=1, note=69, velocity=0, time=0),\n",
      "    Message('note_on', channel=1, note=64, velocity=85, time=2352),\n",
      "    Message('note_on', channel=1, note=67, velocity=85, time=0),\n",
      "    Message('note_on', channel=1, note=64, velocity=0, time=168),\n",
      "    Message('note_on', channel=1, note=67, velocity=0, time=0),\n",
      "    Message('note_on', channel=1, note=66, velocity=85, time=12),\n",
      "    Message('note_on', channel=1, note=71, velocity=85, time=0),\n",
      "    Message('note_on', channel=1, note=62, velocity=85, time=0),\n",
      "    Message('note_on', channel=1, note=66, velocity=0, time=168),\n",
      "    Message('note_on', channel=1, note=71, velocity=0, time=0),\n",
      "    Message('note_on', channel=1, note=62, velocity=0, time=0),\n",
      "    Message('note_on', channel=1, note=66, velocity=85, time=12),\n",
      "    Message('note_on', channel=1, note=69, velocity=85, time=0),\n",
      "    Message('note_on', channel=1, note=60, velocity=85, time=0),\n",
      "    Message('note_on', channel=1, note=66, velocity=0, time=168),\n",
      "    Message('note_on', channel=1, note=69, velocity=0, time=0),\n",
      "    Message('note_on', channel=1, note=60, velocity=0, time=0),\n",
      "    Message('note_on', channel=1, note=67, velocity=85, time=192),\n",
      "    Message('note_on', channel=1, note=67, velocity=0, time=168),\n",
      "    Message('note_on', channel=1, note=67, velocity=85, time=12),\n",
      "    Message('note_on', channel=1, note=67, velocity=0, time=168),\n",
      "    Message('note_on', channel=1, note=67, velocity=85, time=12),\n",
      "    Message('note_on', channel=1, note=67, velocity=0, time=168),\n",
      "    Message('note_on', channel=1, note=67, velocity=85, time=12),\n",
      "    Message('note_on', channel=1, note=67, velocity=0, time=168),\n",
      "    Message('note_on', channel=1, note=67, velocity=85, time=1452),\n",
      "    Message('note_on', channel=1, note=67, velocity=0, time=168),\n",
      "    Message('note_on', channel=1, note=67, velocity=85, time=12),\n",
      "    Message('note_on', channel=1, note=67, velocity=0, time=168),\n",
      "    Message('note_on', channel=1, note=67, velocity=85, time=12),\n",
      "    Message('note_on', channel=1, note=67, velocity=0, time=168),\n",
      "    Message('note_on', channel=1, note=67, velocity=85, time=12),\n",
      "    Message('note_on', channel=1, note=67, velocity=0, time=168),\n",
      "    Message('note_on', channel=1, note=66, velocity=85, time=1272),\n",
      "    Message('note_on', channel=1, note=62, velocity=85, time=0),\n",
      "    Message('note_on', channel=1, note=69, velocity=85, time=0),\n",
      "    Message('note_on', channel=1, note=66, velocity=0, time=168),\n",
      "    Message('note_on', channel=1, note=62, velocity=0, time=0),\n",
      "    Message('note_on', channel=1, note=69, velocity=0, time=0),\n",
      "    Message('note_on', channel=1, note=67, velocity=85, time=12),\n",
      "    Message('note_on', channel=1, note=67, velocity=0, time=168),\n",
      "    Message('note_on', channel=1, note=64, velocity=85, time=192),\n",
      "    Message('note_on', channel=1, note=60, velocity=85, time=0),\n",
      "    Message('note_on', channel=1, note=69, velocity=85, time=0),\n",
      "    Message('note_on', channel=1, note=64, velocity=0, time=168),\n",
      "    Message('note_on', channel=1, note=60, velocity=0, time=0),\n",
      "    Message('note_on', channel=1, note=69, velocity=0, time=0),\n",
      "    Message('note_on', channel=1, note=62, velocity=85, time=12),\n",
      "    Message('note_on', channel=1, note=69, velocity=85, time=0),\n",
      "    Message('note_on', channel=1, note=62, velocity=0, time=168),\n",
      "    Message('note_on', channel=1, note=69, velocity=0, time=0),\n",
      "    Message('note_on', channel=1, note=64, velocity=85, time=2352),\n",
      "    Message('note_on', channel=1, note=67, velocity=85, time=0),\n",
      "    Message('note_on', channel=1, note=64, velocity=0, time=168),\n",
      "    Message('note_on', channel=1, note=67, velocity=0, time=0),\n",
      "    Message('note_on', channel=1, note=66, velocity=85, time=12),\n",
      "    Message('note_on', channel=1, note=71, velocity=85, time=0),\n",
      "    Message('note_on', channel=1, note=62, velocity=85, time=0),\n",
      "    Message('note_on', channel=1, note=66, velocity=0, time=168),\n",
      "    Message('note_on', channel=1, note=71, velocity=0, time=0),\n",
      "    Message('note_on', channel=1, note=62, velocity=0, time=0),\n",
      "    Message('note_on', channel=1, note=66, velocity=85, time=12),\n",
      "    Message('note_on', channel=1, note=60, velocity=85, time=0),\n",
      "    Message('note_on', channel=1, note=69, velocity=85, time=0),\n",
      "    Message('note_on', channel=1, note=66, velocity=0, time=168),\n",
      "    Message('note_on', channel=1, note=60, velocity=0, time=0),\n",
      "    Message('note_on', channel=1, note=69, velocity=0, time=0),\n",
      "    Message('note_on', channel=1, note=67, velocity=85, time=192),\n",
      "    Message('note_on', channel=1, note=67, velocity=0, time=168),\n",
      "    Message('note_on', channel=1, note=67, velocity=85, time=12),\n",
      "    Message('note_on', channel=1, note=67, velocity=0, time=168),\n",
      "    Message('note_on', channel=1, note=67, velocity=85, time=12),\n",
      "    Message('note_on', channel=1, note=67, velocity=0, time=168),\n",
      "    Message('note_on', channel=1, note=67, velocity=85, time=12),\n",
      "    Message('note_on', channel=1, note=67, velocity=0, time=168),\n",
      "    Message('note_on', channel=1, note=67, velocity=85, time=1452),\n",
      "    Message('note_on', channel=1, note=67, velocity=0, time=168),\n",
      "    Message('note_on', channel=1, note=67, velocity=85, time=12),\n",
      "    Message('note_on', channel=1, note=67, velocity=0, time=168),\n",
      "    Message('note_on', channel=1, note=67, velocity=85, time=12),\n",
      "    Message('note_on', channel=1, note=67, velocity=0, time=168),\n",
      "    Message('note_on', channel=1, note=67, velocity=85, time=12),\n",
      "    Message('note_on', channel=1, note=67, velocity=0, time=168),\n",
      "    Message('note_on', channel=1, note=69, velocity=85, time=2352),\n",
      "    Message('note_on', channel=1, note=62, velocity=85, time=0),\n",
      "    Message('note_on', channel=1, note=69, velocity=0, time=336),\n",
      "    Message('note_on', channel=1, note=62, velocity=0, time=0),\n",
      "    Message('note_on', channel=1, note=69, velocity=85, time=564),\n",
      "    Message('note_on', channel=1, note=69, velocity=0, time=168),\n",
      "    Message('note_on', channel=1, note=69, velocity=85, time=12),\n",
      "    Message('note_on', channel=1, note=69, velocity=0, time=168),\n",
      "    Message('note_on', channel=1, note=69, velocity=85, time=12),\n",
      "    Message('note_on', channel=1, note=69, velocity=0, time=168),\n",
      "    Message('note_on', channel=1, note=69, velocity=85, time=192),\n",
      "    Message('note_on', channel=1, note=69, velocity=0, time=168),\n",
      "    Message('note_on', channel=1, note=66, velocity=85, time=12),\n",
      "    Message('note_on', channel=1, note=66, velocity=0, time=168),\n",
      "    Message('note_on', channel=1, note=67, velocity=85, time=732),\n",
      "    Message('note_on', channel=1, note=67, velocity=0, time=168),\n",
      "    Message('note_on', channel=1, note=69, velocity=85, time=12),\n",
      "    Message('note_on', channel=1, note=69, velocity=0, time=168),\n",
      "    Message('note_on', channel=1, note=65, velocity=85, time=192),\n",
      "    Message('note_on', channel=1, note=65, velocity=0, time=336),\n",
      "    Message('note_on', channel=1, note=62, velocity=85, time=3084),\n",
      "    Message('note_on', channel=1, note=62, velocity=0, time=168),\n",
      "    Message('note_on', channel=1, note=64, velocity=85, time=12),\n",
      "    Message('note_on', channel=1, note=64, velocity=0, time=168),\n",
      "    Message('note_on', channel=1, note=64, velocity=85, time=2172),\n",
      "    Message('note_on', channel=1, note=67, velocity=85, time=0),\n",
      "    Message('note_on', channel=1, note=64, velocity=0, time=168),\n",
      "    Message('note_on', channel=1, note=67, velocity=0, time=0),\n",
      "    Message('note_on', channel=1, note=67, velocity=85, time=2712),\n",
      "    Message('note_on', channel=1, note=67, velocity=0, time=168),\n",
      "    Message('note_on', channel=1, note=67, velocity=85, time=12),\n",
      "    Message('note_on', channel=1, note=67, velocity=0, time=168),\n",
      "    Message('note_on', channel=1, note=67, velocity=85, time=12),\n",
      "    Message('note_on', channel=1, note=67, velocity=0, time=168),\n",
      "    Message('note_on', channel=1, note=67, velocity=85, time=12),\n",
      "    Message('note_on', channel=1, note=67, velocity=0, time=168),\n",
      "    Message('note_on', channel=1, note=67, velocity=85, time=1452),\n",
      "    Message('note_on', channel=1, note=67, velocity=0, time=168),\n",
      "    Message('note_on', channel=1, note=67, velocity=85, time=12),\n",
      "    Message('note_on', channel=1, note=67, velocity=0, time=168),\n",
      "    Message('note_on', channel=1, note=67, velocity=85, time=12),\n",
      "    Message('note_on', channel=1, note=67, velocity=0, time=168),\n",
      "    Message('note_on', channel=1, note=67, velocity=85, time=12),\n",
      "    Message('note_on', channel=1, note=67, velocity=0, time=168),\n",
      "    Message('note_on', channel=1, note=67, velocity=85, time=1332),\n",
      "    Message('note_on', channel=1, note=67, velocity=0, time=48),\n",
      "    Message('note_on', channel=1, note=69, velocity=85, time=12),\n",
      "    Message('note_on', channel=1, note=69, velocity=0, time=48),\n",
      "    Message('note_on', channel=1, note=67, velocity=85, time=12),\n",
      "    Message('note_on', channel=1, note=67, velocity=0, time=168),\n",
      "    Message('note_on', channel=1, note=67, velocity=85, time=12),\n",
      "    Message('note_on', channel=1, note=67, velocity=0, time=168),\n",
      "    Message('note_on', channel=1, note=67, velocity=85, time=12),\n",
      "    Message('note_on', channel=1, note=67, velocity=0, time=168),\n",
      "    Message('note_on', channel=1, note=67, velocity=85, time=12),\n",
      "    Message('note_on', channel=1, note=67, velocity=0, time=168),\n",
      "    Message('note_on', channel=1, note=67, velocity=85, time=12),\n",
      "    Message('note_on', channel=1, note=67, velocity=0, time=48),\n",
      "    Message('note_on', channel=1, note=69, velocity=85, time=12),\n",
      "    Message('note_on', channel=1, note=69, velocity=0, time=48),\n",
      "    Message('note_on', channel=1, note=71, velocity=85, time=12),\n",
      "    Message('note_on', channel=1, note=71, velocity=0, time=48),\n",
      "    Message('note_on', channel=1, note=72, velocity=85, time=12),\n",
      "    Message('note_on', channel=1, note=72, velocity=0, time=48),\n",
      "    Message('note_on', channel=1, note=74, velocity=85, time=12),\n",
      "    Message('note_on', channel=1, note=74, velocity=0, time=48),\n",
      "    Message('note_on', channel=1, note=76, velocity=85, time=12),\n",
      "    Message('note_on', channel=1, note=76, velocity=0, time=48),\n",
      "    Message('note_on', channel=1, note=74, velocity=85, time=12),\n",
      "    Message('note_on', channel=1, note=74, velocity=0, time=48),\n",
      "    Message('note_on', channel=1, note=72, velocity=85, time=12),\n",
      "    Message('note_on', channel=1, note=72, velocity=0, time=48),\n",
      "    Message('note_on', channel=1, note=71, velocity=85, time=12),\n",
      "    Message('note_on', channel=1, note=71, velocity=0, time=48),\n",
      "    Message('note_on', channel=1, note=69, velocity=85, time=12),\n",
      "    Message('note_on', channel=1, note=69, velocity=0, time=48),\n",
      "    Message('note_on', channel=1, note=71, velocity=85, time=12),\n",
      "    Message('note_on', channel=1, note=71, velocity=0, time=48),\n",
      "    Message('note_on', channel=1, note=67, velocity=85, time=12),\n",
      "    Message('note_on', channel=1, note=67, velocity=0, time=48),\n",
      "    Message('note_on', channel=1, note=66, velocity=85, time=12),\n",
      "    Message('note_on', channel=1, note=66, velocity=0, time=48),\n",
      "    Message('note_on', channel=1, note=67, velocity=85, time=12),\n",
      "    Message('note_on', channel=1, note=67, velocity=0, time=48),\n",
      "    Message('note_on', channel=1, note=69, velocity=85, time=12),\n",
      "    Message('note_on', channel=1, note=69, velocity=0, time=48),\n",
      "    Message('note_on', channel=1, note=62, velocity=85, time=12),\n",
      "    Message('note_on', channel=1, note=62, velocity=0, time=48),\n",
      "    Message('note_on', channel=1, note=66, velocity=85, time=12),\n",
      "    Message('note_on', channel=1, note=66, velocity=0, time=48),\n",
      "    Message('note_on', channel=1, note=69, velocity=85, time=12),\n",
      "    Message('note_on', channel=1, note=69, velocity=0, time=48),\n",
      "    Message('note_on', channel=1, note=72, velocity=85, time=12),\n",
      "    Message('note_on', channel=1, note=72, velocity=0, time=48),\n",
      "    Message('note_on', channel=1, note=71, velocity=85, time=12),\n",
      "    Message('note_on', channel=1, note=71, velocity=0, time=48),\n",
      "    Message('note_on', channel=1, note=69, velocity=85, time=12),\n",
      "    Message('note_on', channel=1, note=69, velocity=0, time=48),\n",
      "    Message('note_on', channel=1, note=71, velocity=85, time=12),\n",
      "    Message('note_on', channel=1, note=71, velocity=0, time=48),\n",
      "    Message('note_on', channel=1, note=67, velocity=85, time=12),\n",
      "    Message('note_on', channel=1, note=67, velocity=0, time=48),\n",
      "    Message('note_on', channel=1, note=69, velocity=85, time=12),\n",
      "    Message('note_on', channel=1, note=69, velocity=0, time=48),\n",
      "    Message('note_on', channel=1, note=67, velocity=85, time=12),\n",
      "    Message('note_on', channel=1, note=67, velocity=0, time=168),\n",
      "    Message('note_on', channel=1, note=67, velocity=85, time=12),\n",
      "    Message('note_on', channel=1, note=67, velocity=0, time=168),\n",
      "    Message('note_on', channel=1, note=67, velocity=85, time=12),\n",
      "    Message('note_on', channel=1, note=67, velocity=0, time=168),\n",
      "    Message('note_on', channel=1, note=67, velocity=85, time=12),\n",
      "    Message('note_on', channel=1, note=67, velocity=0, time=168),\n",
      "    Message('note_on', channel=1, note=66, velocity=85, time=1812),\n",
      "    Message('note_on', channel=1, note=69, velocity=85, time=0),\n",
      "    Message('note_on', channel=1, note=62, velocity=85, time=0),\n",
      "    Message('note_on', channel=1, note=66, velocity=0, time=168),\n",
      "    Message('note_on', channel=1, note=69, velocity=0, time=0),\n",
      "    Message('note_on', channel=1, note=62, velocity=0, time=0),\n",
      "    Message('note_on', channel=1, note=67, velocity=85, time=12),\n",
      "    Message('note_on', channel=1, note=67, velocity=0, time=168),\n",
      "    Message('note_on', channel=1, note=60, velocity=85, time=192),\n",
      "    Message('note_on', channel=1, note=67, velocity=85, time=0),\n",
      "    Message('note_on', channel=1, note=64, velocity=85, time=0),\n",
      "    Message('note_on', channel=1, note=60, velocity=0, time=168),\n",
      "    Message('note_on', channel=1, note=67, velocity=0, time=0),\n",
      "    Message('note_on', channel=1, note=64, velocity=0, time=0),\n",
      "    Message('note_on', channel=1, note=62, velocity=85, time=12),\n",
      "    Message('note_on', channel=1, note=69, velocity=85, time=0),\n",
      "    Message('note_on', channel=1, note=62, velocity=0, time=168),\n",
      "    Message('note_on', channel=1, note=69, velocity=0, time=0),\n",
      "    Message('note_on', channel=1, note=64, velocity=85, time=2352),\n",
      "    Message('note_on', channel=1, note=67, velocity=85, time=0),\n",
      "    Message('note_on', channel=1, note=64, velocity=0, time=168),\n",
      "    Message('note_on', channel=1, note=67, velocity=0, time=0),\n",
      "    Message('note_on', channel=1, note=66, velocity=85, time=12),\n",
      "    Message('note_on', channel=1, note=71, velocity=85, time=0),\n",
      "    Message('note_on', channel=1, note=62, velocity=85, time=0),\n",
      "    Message('note_on', channel=1, note=66, velocity=0, time=168),\n",
      "    Message('note_on', channel=1, note=71, velocity=0, time=0),\n",
      "    Message('note_on', channel=1, note=62, velocity=0, time=0),\n",
      "    Message('note_on', channel=1, note=66, velocity=85, time=12),\n",
      "    Message('note_on', channel=1, note=69, velocity=85, time=0),\n",
      "    Message('note_on', channel=1, note=60, velocity=85, time=0),\n",
      "    Message('note_on', channel=1, note=66, velocity=0, time=168),\n",
      "    Message('note_on', channel=1, note=69, velocity=0, time=0),\n",
      "    Message('note_on', channel=1, note=60, velocity=0, time=0),\n",
      "    Message('note_on', channel=1, note=67, velocity=85, time=192),\n",
      "    Message('note_on', channel=1, note=67, velocity=0, time=168),\n",
      "    Message('note_on', channel=1, note=67, velocity=85, time=12),\n",
      "    Message('note_on', channel=1, note=67, velocity=0, time=168),\n",
      "    Message('note_on', channel=1, note=67, velocity=85, time=12),\n",
      "    Message('note_on', channel=1, note=67, velocity=0, time=168),\n",
      "    Message('note_on', channel=1, note=67, velocity=85, time=12),\n",
      "    Message('note_on', channel=1, note=67, velocity=0, time=168),\n",
      "    Message('note_on', channel=1, note=67, velocity=85, time=1452),\n",
      "    Message('note_on', channel=1, note=67, velocity=0, time=168),\n",
      "    Message('note_on', channel=1, note=67, velocity=85, time=12),\n",
      "    Message('note_on', channel=1, note=67, velocity=0, time=168),\n",
      "    Message('note_on', channel=1, note=67, velocity=85, time=12),\n",
      "    Message('note_on', channel=1, note=67, velocity=0, time=168),\n",
      "    Message('note_on', channel=1, note=67, velocity=85, time=12),\n",
      "    Message('note_on', channel=1, note=67, velocity=0, time=168),\n",
      "    Message('note_on', channel=1, note=66, velocity=85, time=1272),\n",
      "    Message('note_on', channel=1, note=62, velocity=85, time=0),\n",
      "    Message('note_on', channel=1, note=69, velocity=85, time=0),\n",
      "    Message('note_on', channel=1, note=66, velocity=0, time=168),\n",
      "    Message('note_on', channel=1, note=62, velocity=0, time=0),\n",
      "    Message('note_on', channel=1, note=69, velocity=0, time=0),\n",
      "    Message('note_on', channel=1, note=67, velocity=85, time=12),\n",
      "    Message('note_on', channel=1, note=67, velocity=0, time=168),\n",
      "    Message('note_on', channel=1, note=64, velocity=85, time=192),\n",
      "    Message('note_on', channel=1, note=60, velocity=85, time=0),\n",
      "    Message('note_on', channel=1, note=69, velocity=85, time=0),\n",
      "    Message('note_on', channel=1, note=64, velocity=0, time=168),\n",
      "    Message('note_on', channel=1, note=60, velocity=0, time=0),\n",
      "    Message('note_on', channel=1, note=69, velocity=0, time=0),\n",
      "    Message('note_on', channel=1, note=62, velocity=85, time=12),\n",
      "    Message('note_on', channel=1, note=69, velocity=85, time=0),\n",
      "    Message('note_on', channel=1, note=62, velocity=0, time=168),\n",
      "    Message('note_on', channel=1, note=69, velocity=0, time=0),\n",
      "    Message('note_on', channel=1, note=64, velocity=85, time=2352),\n",
      "    Message('note_on', channel=1, note=67, velocity=85, time=0),\n",
      "    Message('note_on', channel=1, note=64, velocity=0, time=168),\n",
      "    Message('note_on', channel=1, note=67, velocity=0, time=0),\n",
      "    Message('note_on', channel=1, note=66, velocity=85, time=12),\n",
      "    Message('note_on', channel=1, note=71, velocity=85, time=0),\n",
      "    Message('note_on', channel=1, note=62, velocity=85, time=0),\n",
      "    Message('note_on', channel=1, note=66, velocity=0, time=168),\n",
      "    Message('note_on', channel=1, note=71, velocity=0, time=0),\n",
      "    Message('note_on', channel=1, note=62, velocity=0, time=0),\n",
      "    Message('note_on', channel=1, note=66, velocity=85, time=12),\n",
      "    Message('note_on', channel=1, note=60, velocity=85, time=0),\n",
      "    Message('note_on', channel=1, note=69, velocity=85, time=0),\n",
      "    Message('note_on', channel=1, note=66, velocity=0, time=168),\n",
      "    Message('note_on', channel=1, note=60, velocity=0, time=0),\n",
      "    Message('note_on', channel=1, note=69, velocity=0, time=0),\n",
      "    Message('note_on', channel=1, note=67, velocity=85, time=192),\n",
      "    Message('note_on', channel=1, note=67, velocity=0, time=168),\n",
      "    Message('note_on', channel=1, note=67, velocity=85, time=12),\n",
      "    Message('note_on', channel=1, note=67, velocity=0, time=168),\n",
      "    Message('note_on', channel=1, note=67, velocity=85, time=12),\n",
      "    Message('note_on', channel=1, note=67, velocity=0, time=168),\n",
      "    Message('note_on', channel=1, note=67, velocity=85, time=12),\n",
      "    Message('note_on', channel=1, note=67, velocity=0, time=168),\n",
      "    Message('note_on', channel=1, note=67, velocity=85, time=1452),\n",
      "    Message('note_on', channel=1, note=67, velocity=0, time=168),\n",
      "    Message('note_on', channel=1, note=67, velocity=85, time=12),\n",
      "    Message('note_on', channel=1, note=67, velocity=0, time=168),\n",
      "    Message('note_on', channel=1, note=67, velocity=85, time=12),\n",
      "    Message('note_on', channel=1, note=67, velocity=0, time=168),\n",
      "    Message('note_on', channel=1, note=67, velocity=85, time=12),\n",
      "    Message('note_on', channel=1, note=67, velocity=0, time=168),\n",
      "    Message('note_on', channel=1, note=69, velocity=85, time=2352),\n",
      "    Message('note_on', channel=1, note=62, velocity=85, time=0),\n",
      "    Message('note_on', channel=1, note=69, velocity=0, time=336),\n",
      "    Message('note_on', channel=1, note=62, velocity=0, time=0),\n",
      "    Message('note_on', channel=1, note=69, velocity=85, time=564),\n",
      "    Message('note_on', channel=1, note=69, velocity=0, time=168),\n",
      "    Message('note_on', channel=1, note=69, velocity=85, time=12),\n",
      "    Message('note_on', channel=1, note=69, velocity=0, time=168),\n",
      "    Message('note_on', channel=1, note=69, velocity=85, time=12),\n",
      "    Message('note_on', channel=1, note=69, velocity=0, time=168),\n",
      "    Message('note_on', channel=1, note=69, velocity=85, time=192),\n",
      "    Message('note_on', channel=1, note=69, velocity=0, time=168),\n",
      "    Message('note_on', channel=1, note=66, velocity=85, time=12),\n",
      "    Message('note_on', channel=1, note=66, velocity=0, time=168),\n",
      "    Message('note_on', channel=1, note=67, velocity=85, time=732),\n",
      "    Message('note_on', channel=1, note=67, velocity=0, time=168),\n",
      "    Message('note_on', channel=1, note=69, velocity=85, time=12),\n",
      "    Message('note_on', channel=1, note=69, velocity=0, time=168),\n",
      "    Message('note_on', channel=1, note=65, velocity=85, time=192),\n",
      "    Message('note_on', channel=1, note=65, velocity=0, time=336),\n",
      "    Message('note_on', channel=1, note=62, velocity=85, time=3084),\n",
      "    Message('note_on', channel=1, note=62, velocity=0, time=168),\n",
      "    Message('note_on', channel=1, note=64, velocity=85, time=12),\n",
      "    Message('note_on', channel=1, note=64, velocity=0, time=168),\n",
      "    Message('note_on', channel=1, note=64, velocity=85, time=2172),\n",
      "    Message('note_on', channel=1, note=67, velocity=85, time=0),\n",
      "    Message('note_on', channel=1, note=64, velocity=0, time=168),\n",
      "    Message('note_on', channel=1, note=67, velocity=0, time=0),\n",
      "    Message('note_on', channel=1, note=67, velocity=85, time=2712),\n",
      "    Message('note_on', channel=1, note=67, velocity=0, time=168),\n",
      "    Message('note_on', channel=1, note=67, velocity=85, time=12),\n",
      "    Message('note_on', channel=1, note=67, velocity=0, time=168),\n",
      "    Message('note_on', channel=1, note=67, velocity=85, time=12),\n",
      "    Message('note_on', channel=1, note=67, velocity=0, time=168),\n",
      "    Message('note_on', channel=1, note=67, velocity=85, time=12),\n",
      "    Message('note_on', channel=1, note=67, velocity=0, time=168),\n",
      "    Message('note_on', channel=1, note=67, velocity=85, time=1452),\n",
      "    Message('note_on', channel=1, note=67, velocity=0, time=168),\n",
      "    Message('note_on', channel=1, note=67, velocity=85, time=12),\n",
      "    Message('note_on', channel=1, note=67, velocity=0, time=168),\n",
      "    Message('note_on', channel=1, note=67, velocity=85, time=12),\n",
      "    Message('note_on', channel=1, note=67, velocity=0, time=168),\n",
      "    Message('note_on', channel=1, note=67, velocity=85, time=12),\n",
      "    Message('note_on', channel=1, note=67, velocity=0, time=168),\n",
      "    MetaMessage('end_of_track', time=0)]),\n",
      "  MidiTrack([\n",
      "    MetaMessage('track_name', name='by J.S. Bach', time=0),\n",
      "    MetaMessage('instrument_name', name='Synth Brass 2', time=0),\n",
      "    MetaMessage('midi_port', port=0, time=0),\n",
      "    Message('control_change', channel=2, control=0, value=80, time=0),\n",
      "    Message('control_change', channel=2, control=32, value=0, time=0),\n",
      "    Message('program_change', channel=2, program=63, time=0),\n",
      "    Message('note_on', channel=2, note=43, velocity=84, time=0),\n",
      "    Message('note_on', channel=2, note=55, velocity=84, time=0),\n",
      "    Message('note_on', channel=2, note=43, velocity=0, time=168),\n",
      "    Message('note_on', channel=2, note=55, velocity=0, time=0),\n",
      "    Message('note_on', channel=2, note=50, velocity=84, time=12),\n",
      "    Message('note_on', channel=2, note=55, velocity=84, time=0),\n",
      "    Message('note_on', channel=2, note=50, velocity=0, time=168),\n",
      "    Message('note_on', channel=2, note=55, velocity=0, time=0),\n",
      "    Message('note_on', channel=2, note=52, velocity=84, time=12),\n",
      "    Message('note_on', channel=2, note=60, velocity=84, time=0),\n",
      "    Message('note_on', channel=2, note=52, velocity=0, time=168),\n",
      "    Message('note_on', channel=2, note=60, velocity=0, time=0),\n",
      "    Message('note_on', channel=2, note=47, velocity=84, time=12),\n",
      "    Message('note_on', channel=2, note=55, velocity=84, time=0),\n",
      "    Message('note_on', channel=2, note=47, velocity=0, time=168),\n",
      "    Message('note_on', channel=2, note=55, velocity=0, time=0),\n",
      "    Message('note_on', channel=2, note=52, velocity=84, time=12),\n",
      "    Message('note_on', channel=2, note=59, velocity=84, time=0),\n",
      "    Message('note_on', channel=2, note=52, velocity=0, time=168),\n",
      "    Message('note_on', channel=2, note=59, velocity=0, time=0),\n",
      "    Message('note_on', channel=2, note=59, velocity=84, time=12),\n",
      "    Message('note_on', channel=2, note=64, velocity=84, time=0),\n",
      "    Message('note_on', channel=2, note=59, velocity=0, time=168),\n",
      "    Message('note_on', channel=2, note=64, velocity=0, time=0),\n",
      "    Message('note_on', channel=2, note=64, velocity=84, time=12),\n",
      "    Message('note_on', channel=2, note=57, velocity=84, time=0),\n",
      "    Message('note_on', channel=2, note=64, velocity=0, time=168),\n",
      "    Message('note_on', channel=2, note=57, velocity=0, time=0),\n",
      "    Message('note_on', channel=2, note=67, velocity=84, time=12),\n",
      "    Message('note_on', channel=2, note=59, velocity=84, time=0),\n",
      "    Message('note_on', channel=2, note=67, velocity=0, time=168),\n",
      "    Message('note_on', channel=2, note=59, velocity=0, time=0),\n",
      "    Message('note_on', channel=2, note=67, velocity=84, time=12),\n",
      "    Message('note_on', channel=2, note=60, velocity=84, time=0),\n",
      "    Message('note_on', channel=2, note=67, velocity=0, time=168),\n",
      "    Message('note_on', channel=2, note=60, velocity=0, time=0),\n",
      "    Message('note_on', channel=2, note=52, velocity=84, time=12),\n",
      "    Message('note_on', channel=2, note=57, velocity=84, time=0),\n",
      "    Message('note_on', channel=2, note=52, velocity=0, time=336),\n",
      "    Message('note_on', channel=2, note=57, velocity=0, time=0),\n",
      "    Message('note_on', channel=2, note=54, velocity=84, time=24),\n",
      "    Message('note_on', channel=2, note=54, velocity=0, time=168),\n",
      "    Message('note_on', channel=2, note=43, velocity=84, time=12),\n",
      "    Message('note_on', channel=2, note=55, velocity=84, time=0),\n",
      "    Message('note_on', channel=2, note=43, velocity=0, time=168),\n",
      "    Message('note_on', channel=2, note=55, velocity=0, time=0),\n",
      "    Message('note_on', channel=2, note=55, velocity=84, time=12),\n",
      "    Message('note_on', channel=2, note=62, velocity=84, time=0),\n",
      "    Message('note_on', channel=2, note=55, velocity=0, time=168),\n",
      "    Message('note_on', channel=2, note=62, velocity=0, time=0),\n",
      "    Message('note_on', channel=2, note=60, velocity=84, time=12),\n",
      "    Message('note_on', channel=2, note=52, velocity=84, time=0),\n",
      "    Message('note_on', channel=2, note=60, velocity=0, time=168),\n",
      "    Message('note_on', channel=2, note=52, velocity=0, time=0),\n",
      "    Message('note_on', channel=2, note=47, velocity=84, time=12),\n",
      "    Message('note_on', channel=2, note=55, velocity=84, time=0),\n",
      "    Message('note_on', channel=2, note=47, velocity=0, time=168),\n",
      "    Message('note_on', channel=2, note=55, velocity=0, time=0),\n",
      "    Message('note_on', channel=2, note=52, velocity=84, time=12),\n",
      "    Message('note_on', channel=2, note=59, velocity=84, time=0),\n",
      "    Message('note_on', channel=2, note=52, velocity=0, time=168),\n",
      "    Message('note_on', channel=2, note=59, velocity=0, time=0),\n",
      "    Message('note_on', channel=2, note=59, velocity=84, time=12),\n",
      "    Message('note_on', channel=2, note=64, velocity=84, time=0),\n",
      "    Message('note_on', channel=2, note=59, velocity=0, time=168),\n",
      "    Message('note_on', channel=2, note=64, velocity=0, time=0),\n",
      "    Message('note_on', channel=2, note=52, velocity=84, time=12),\n",
      "    Message('note_on', channel=2, note=57, velocity=84, time=0),\n",
      "    Message('note_on', channel=2, note=52, velocity=0, time=336),\n",
      "    Message('note_on', channel=2, note=57, velocity=0, time=0),\n",
      "    Message('note_on', channel=2, note=50, velocity=84, time=24),\n",
      "    Message('note_on', channel=2, note=57, velocity=84, time=0),\n",
      "    Message('note_on', channel=2, note=60, velocity=84, time=0),\n",
      "    Message('note_on', channel=2, note=50, velocity=0, time=168),\n",
      "    Message('note_on', channel=2, note=57, velocity=0, time=0),\n",
      "    Message('note_on', channel=2, note=60, velocity=0, time=0),\n",
      "    Message('note_on', channel=2, note=59, velocity=84, time=12),\n",
      "    Message('note_on', channel=2, note=55, velocity=84, time=0),\n",
      "    Message('note_on', channel=2, note=62, velocity=84, time=0),\n",
      "    Message('note_on', channel=2, note=59, velocity=0, time=528),\n",
      "    Message('note_on', channel=2, note=55, velocity=0, time=0),\n",
      "    Message('note_on', channel=2, note=62, velocity=0, time=0),\n",
      "    Message('note_on', channel=2, note=43, velocity=84, time=12),\n",
      "    Message('note_on', channel=2, note=55, velocity=84, time=0),\n",
      "    Message('note_on', channel=2, note=43, velocity=0, time=168),\n",
      "    Message('note_on', channel=2, note=55, velocity=0, time=0),\n",
      "    Message('note_on', channel=2, note=42, velocity=84, time=12),\n",
      "    Message('note_on', channel=2, note=54, velocity=84, time=0),\n",
      "    Message('note_on', channel=2, note=42, velocity=0, time=168),\n",
      "    Message('note_on', channel=2, note=54, velocity=0, time=0),\n",
      "    Message('note_on', channel=2, note=40, velocity=84, time=12),\n",
      "    Message('note_on', channel=2, note=52, velocity=84, time=0),\n",
      "    Message('note_on', channel=2, note=40, velocity=0, time=168),\n",
      "    Message('note_on', channel=2, note=52, velocity=0, time=0),\n",
      "    Message('note_on', channel=2, note=54, velocity=84, time=12),\n",
      "    Message('note_on', channel=2, note=42, velocity=84, time=0),\n",
      "    Message('note_on', channel=2, note=54, velocity=0, time=168),\n",
      "    Message('note_on', channel=2, note=42, velocity=0, time=0),\n",
      "    Message('note_on', channel=2, note=40, velocity=84, time=12),\n",
      "    Message('note_on', channel=2, note=52, velocity=84, time=0),\n",
      "    Message('note_on', channel=2, note=40, velocity=0, time=168),\n",
      "    Message('note_on', channel=2, note=52, velocity=0, time=0),\n",
      "    Message('note_on', channel=2, note=50, velocity=84, time=12),\n",
      "    Message('note_on', channel=2, note=38, velocity=84, time=0),\n",
      "    Message('note_on', channel=2, note=50, velocity=0, time=168),\n",
      "    Message('note_on', channel=2, note=38, velocity=0, time=0),\n",
      "    Message('note_on', channel=2, note=52, velocity=84, time=12),\n",
      "    Message('note_on', channel=2, note=40, velocity=84, time=0),\n",
      "    Message('note_on', channel=2, note=52, velocity=0, time=168),\n",
      "    Message('note_on', channel=2, note=40, velocity=0, time=0),\n",
      "    Message('note_on', channel=2, note=42, velocity=84, time=12),\n",
      "    Message('note_on', channel=2, note=54, velocity=84, time=0),\n",
      "    Message('note_on', channel=2, note=42, velocity=0, time=168),\n",
      "    Message('note_on', channel=2, note=54, velocity=0, time=0),\n",
      "    Message('note_on', channel=2, note=55, velocity=84, time=12),\n",
      "    Message('note_on', channel=2, note=43, velocity=84, time=0),\n",
      "    Message('note_on', channel=2, note=55, velocity=0, time=168),\n",
      "    Message('note_on', channel=2, note=43, velocity=0, time=0),\n",
      "    Message('note_on', channel=2, note=38, velocity=84, time=12),\n",
      "    Message('note_on', channel=2, note=50, velocity=84, time=0),\n",
      "    Message('note_on', channel=2, note=38, velocity=0, time=528),\n",
      "    Message('note_on', channel=2, note=50, velocity=0, time=0),\n",
      "    Message('note_on', channel=2, note=50, velocity=84, time=12),\n",
      "    Message('note_on', channel=2, note=54, velocity=84, time=0),\n",
      "    Message('note_on', channel=2, note=50, velocity=0, time=528),\n",
      "    Message('note_on', channel=2, note=54, velocity=0, time=0),\n",
      "    Message('note_on', channel=2, note=43, velocity=84, time=12),\n",
      "    Message('note_on', channel=2, note=55, velocity=84, time=0),\n",
      "    Message('note_on', channel=2, note=43, velocity=0, time=168),\n",
      "    Message('note_on', channel=2, note=55, velocity=0, time=0),\n",
      "    Message('note_on', channel=2, note=42, velocity=84, time=12),\n",
      "    Message('note_on', channel=2, note=54, velocity=84, time=0),\n",
      "    Message('note_on', channel=2, note=42, velocity=0, time=168),\n",
      "    Message('note_on', channel=2, note=54, velocity=0, time=0),\n",
      "    Message('note_on', channel=2, note=52, velocity=84, time=12),\n",
      "    Message('note_on', channel=2, note=40, velocity=84, time=0),\n",
      "    Message('note_on', channel=2, note=52, velocity=0, time=168),\n",
      "    Message('note_on', channel=2, note=40, velocity=0, time=0),\n",
      "    Message('note_on', channel=2, note=59, velocity=84, time=12),\n",
      "    Message('note_on', channel=2, note=47, velocity=84, time=0),\n",
      "    Message('note_on', channel=2, note=59, velocity=0, time=168),\n",
      "    Message('note_on', channel=2, note=47, velocity=0, time=0),\n",
      "    Message('note_on', channel=2, note=47, velocity=84, time=12),\n",
      "    Message('note_on', channel=2, note=35, velocity=84, time=0),\n",
      "    Message('note_on', channel=2, note=47, velocity=0, time=168),\n",
      "    Message('note_on', channel=2, note=35, velocity=0, time=0),\n",
      "    Message('note_on', channel=2, note=52, velocity=84, time=12),\n",
      "    Message('note_on', channel=2, note=40, velocity=84, time=0),\n",
      "    Message('note_on', channel=2, note=52, velocity=0, time=168),\n",
      "    Message('note_on', channel=2, note=40, velocity=0, time=0),\n",
      "    Message('note_on', channel=2, note=48, velocity=84, time=12),\n",
      "    Message('note_on', channel=2, note=36, velocity=84, time=0),\n",
      "    Message('note_on', channel=2, note=48, velocity=0, time=168),\n",
      "    Message('note_on', channel=2, note=36, velocity=0, time=0),\n",
      "    Message('note_on', channel=2, note=38, velocity=84, time=12),\n",
      "    Message('note_on', channel=2, note=50, velocity=84, time=0),\n",
      "    Message('note_on', channel=2, note=38, velocity=0, time=336),\n",
      "    Message('note_on', channel=2, note=50, velocity=0, time=0),\n",
      "    Message('note_on', channel=2, note=43, velocity=84, time=24),\n",
      "    Message('note_on', channel=2, note=55, velocity=84, time=0),\n",
      "    Message('note_on', channel=2, note=43, velocity=0, time=168),\n",
      "    Message('note_on', channel=2, note=55, velocity=0, time=0),\n",
      "    Message('note_on', channel=2, note=55, velocity=84, time=12),\n",
      "    Message('note_on', channel=2, note=62, velocity=84, time=0),\n",
      "    Message('note_on', channel=2, note=55, velocity=0, time=168),\n",
      "    Message('note_on', channel=2, note=62, velocity=0, time=0),\n",
      "    Message('note_on', channel=2, note=52, velocity=84, time=12),\n",
      "    Message('note_on', channel=2, note=60, velocity=84, time=0),\n",
      "    Message('note_on', channel=2, note=52, velocity=0, time=168),\n",
      "    Message('note_on', channel=2, note=60, velocity=0, time=0),\n",
      "    Message('note_on', channel=2, note=47, velocity=84, time=12),\n",
      "    Message('note_on', channel=2, note=55, velocity=84, time=0),\n",
      "    Message('note_on', channel=2, note=47, velocity=0, time=168),\n",
      "    Message('note_on', channel=2, note=55, velocity=0, time=0),\n",
      "    Message('note_on', channel=2, note=52, velocity=84, time=12),\n",
      "    Message('note_on', channel=2, note=59, velocity=84, time=0),\n",
      "    Message('note_on', channel=2, note=52, velocity=0, time=168),\n",
      "    Message('note_on', channel=2, note=59, velocity=0, time=0),\n",
      "    Message('note_on', channel=2, note=59, velocity=84, time=12),\n",
      "    Message('note_on', channel=2, note=64, velocity=84, time=0),\n",
      "    Message('note_on', channel=2, note=59, velocity=0, time=168),\n",
      "    Message('note_on', channel=2, note=64, velocity=0, time=0),\n",
      "    Message('note_on', channel=2, note=57, velocity=84, time=12),\n",
      "    Message('note_on', channel=2, note=64, velocity=84, time=0),\n",
      "    Message('note_on', channel=2, note=57, velocity=0, time=168),\n",
      "    Message('note_on', channel=2, note=64, velocity=0, time=0),\n",
      "    Message('note_on', channel=2, note=67, velocity=84, time=12),\n",
      "    Message('note_on', channel=2, note=59, velocity=84, time=0),\n",
      "    Message('note_on', channel=2, note=67, velocity=0, time=168),\n",
      "    Message('note_on', channel=2, note=59, velocity=0, time=0),\n",
      "    Message('note_on', channel=2, note=60, velocity=84, time=12),\n",
      "    Message('note_on', channel=2, note=64, velocity=84, time=0),\n",
      "    Message('note_on', channel=2, note=60, velocity=0, time=168),\n",
      "    Message('note_on', channel=2, note=64, velocity=0, time=0),\n",
      "    Message('note_on', channel=2, note=50, velocity=84, time=12),\n",
      "    Message('note_on', channel=2, note=57, velocity=84, time=0),\n",
      "    Message('note_on', channel=2, note=50, velocity=0, time=336),\n",
      "    Message('note_on', channel=2, note=57, velocity=0, time=0),\n",
      "    Message('note_on', channel=2, note=54, velocity=84, time=24),\n",
      "    Message('note_on', channel=2, note=54, velocity=0, time=168),\n",
      "    Message('note_on', channel=2, note=43, velocity=84, time=12),\n",
      "    Message('note_on', channel=2, note=55, velocity=84, time=0),\n",
      "    Message('note_on', channel=2, note=43, velocity=0, time=168),\n",
      "    Message('note_on', channel=2, note=55, velocity=0, time=0),\n",
      "    Message('note_on', channel=2, note=62, velocity=84, time=12),\n",
      "    Message('note_on', channel=2, note=55, velocity=84, time=0),\n",
      "    Message('note_on', channel=2, note=62, velocity=0, time=168),\n",
      "    Message('note_on', channel=2, note=55, velocity=0, time=0),\n",
      "    Message('note_on', channel=2, note=52, velocity=84, time=12),\n",
      "    Message('note_on', channel=2, note=60, velocity=84, time=0),\n",
      "    Message('note_on', channel=2, note=52, velocity=0, time=168),\n",
      "    Message('note_on', channel=2, note=60, velocity=0, time=0),\n",
      "    Message('note_on', channel=2, note=47, velocity=84, time=12),\n",
      "    Message('note_on', channel=2, note=55, velocity=84, time=0),\n",
      "    Message('note_on', channel=2, note=47, velocity=0, time=168),\n",
      "    Message('note_on', channel=2, note=55, velocity=0, time=0),\n",
      "    Message('note_on', channel=2, note=59, velocity=84, time=12),\n",
      "    Message('note_on', channel=2, note=52, velocity=84, time=0),\n",
      "    Message('note_on', channel=2, note=59, velocity=0, time=168),\n",
      "    Message('note_on', channel=2, note=52, velocity=0, time=0),\n",
      "    Message('note_on', channel=2, note=59, velocity=84, time=12),\n",
      "    Message('note_on', channel=2, note=64, velocity=84, time=0),\n",
      "    Message('note_on', channel=2, note=59, velocity=0, time=168),\n",
      "    Message('note_on', channel=2, note=64, velocity=0, time=0),\n",
      "    Message('note_on', channel=2, note=48, velocity=84, time=12),\n",
      "    Message('note_on', channel=2, note=57, velocity=84, time=0),\n",
      "    Message('note_on', channel=2, note=48, velocity=0, time=336),\n",
      "    Message('note_on', channel=2, note=57, velocity=0, time=0),\n",
      "    Message('note_on', channel=2, note=52, velocity=84, time=24),\n",
      "    Message('note_on', channel=2, note=57, velocity=84, time=0),\n",
      "    Message('note_on', channel=2, note=60, velocity=84, time=0),\n",
      "    Message('note_on', channel=2, note=52, velocity=0, time=168),\n",
      "    Message('note_on', channel=2, note=57, velocity=0, time=0),\n",
      "    Message('note_on', channel=2, note=60, velocity=0, time=0),\n",
      "    Message('note_on', channel=2, note=43, velocity=84, time=12),\n",
      "    Message('note_on', channel=2, note=55, velocity=84, time=0),\n",
      "    Message('note_on', channel=2, note=43, velocity=0, time=168),\n",
      "    Message('note_on', channel=2, note=55, velocity=0, time=0),\n",
      "    Message('note_on', channel=2, note=54, velocity=84, time=12),\n",
      "    Message('note_on', channel=2, note=42, velocity=84, time=0),\n",
      "    Message('note_on', channel=2, note=54, velocity=0, time=168),\n",
      "    Message('note_on', channel=2, note=42, velocity=0, time=0),\n",
      "    Message('note_on', channel=2, note=52, velocity=84, time=12),\n",
      "    Message('note_on', channel=2, note=40, velocity=84, time=0),\n",
      "    Message('note_on', channel=2, note=52, velocity=0, time=168),\n",
      "    Message('note_on', channel=2, note=40, velocity=0, time=0),\n",
      "    Message('note_on', channel=2, note=42, velocity=84, time=12),\n",
      "    Message('note_on', channel=2, note=54, velocity=84, time=0),\n",
      "    Message('note_on', channel=2, note=42, velocity=0, time=168),\n",
      "    Message('note_on', channel=2, note=54, velocity=0, time=0),\n",
      "    Message('note_on', channel=2, note=40, velocity=84, time=12),\n",
      "    Message('note_on', channel=2, note=52, velocity=84, time=0),\n",
      "    Message('note_on', channel=2, note=40, velocity=0, time=168),\n",
      "    Message('note_on', channel=2, note=52, velocity=0, time=0),\n",
      "    Message('note_on', channel=2, note=38, velocity=84, time=12),\n",
      "    Message('note_on', channel=2, note=50, velocity=84, time=0),\n",
      "    Message('note_on', channel=2, note=38, velocity=0, time=168),\n",
      "    Message('note_on', channel=2, note=50, velocity=0, time=0),\n",
      "    Message('note_on', channel=2, note=40, velocity=84, time=12),\n",
      "    Message('note_on', channel=2, note=52, velocity=84, time=0),\n",
      "    Message('note_on', channel=2, note=40, velocity=0, time=168),\n",
      "    Message('note_on', channel=2, note=52, velocity=0, time=0),\n",
      "    Message('note_on', channel=2, note=42, velocity=84, time=12),\n",
      "    Message('note_on', channel=2, note=54, velocity=84, time=0),\n",
      "    Message('note_on', channel=2, note=42, velocity=0, time=168),\n",
      "    Message('note_on', channel=2, note=54, velocity=0, time=0),\n",
      "    Message('note_on', channel=2, note=43, velocity=84, time=12),\n",
      "    Message('note_on', channel=2, note=55, velocity=84, time=0),\n",
      "    Message('note_on', channel=2, note=43, velocity=0, time=168),\n",
      "    Message('note_on', channel=2, note=55, velocity=0, time=0),\n",
      "    Message('note_on', channel=2, note=50, velocity=84, time=12),\n",
      "    Message('note_on', channel=2, note=38, velocity=84, time=0),\n",
      "    Message('note_on', channel=2, note=50, velocity=0, time=528),\n",
      "    Message('note_on', channel=2, note=38, velocity=0, time=0),\n",
      "    Message('note_on', channel=2, note=50, velocity=84, time=12),\n",
      "    Message('note_on', channel=2, note=54, velocity=84, time=0),\n",
      "    Message('note_on', channel=2, note=50, velocity=0, time=528),\n",
      "    Message('note_on', channel=2, note=54, velocity=0, time=0),\n",
      "    Message('note_on', channel=2, note=43, velocity=84, time=12),\n",
      "    Message('note_on', channel=2, note=55, velocity=84, time=0),\n",
      "    Message('note_on', channel=2, note=43, velocity=0, time=168),\n",
      "    Message('note_on', channel=2, note=55, velocity=0, time=0),\n",
      "    Message('note_on', channel=2, note=42, velocity=84, time=12),\n",
      "    Message('note_on', channel=2, note=54, velocity=84, time=0),\n",
      "    Message('note_on', channel=2, note=42, velocity=0, time=168),\n",
      "    Message('note_on', channel=2, note=54, velocity=0, time=0),\n",
      "    Message('note_on', channel=2, note=40, velocity=84, time=12),\n",
      "    Message('note_on', channel=2, note=52, velocity=84, time=0),\n",
      "    Message('note_on', channel=2, note=40, velocity=0, time=168),\n",
      "    Message('note_on', channel=2, note=52, velocity=0, time=0),\n",
      "    Message('note_on', channel=2, note=47, velocity=84, time=12),\n",
      "    Message('note_on', channel=2, note=59, velocity=84, time=0),\n",
      "    Message('note_on', channel=2, note=47, velocity=0, time=168),\n",
      "    Message('note_on', channel=2, note=59, velocity=0, time=0),\n",
      "    Message('note_on', channel=2, note=47, velocity=84, time=12),\n",
      "    Message('note_on', channel=2, note=35, velocity=84, time=0),\n",
      "    Message('note_on', channel=2, note=47, velocity=0, time=168),\n",
      "    Message('note_on', channel=2, note=35, velocity=0, time=0),\n",
      "    Message('note_on', channel=2, note=52, velocity=84, time=12),\n",
      "    Message('note_on', channel=2, note=40, velocity=84, time=0),\n",
      "    Message('note_on', channel=2, note=52, velocity=0, time=168),\n",
      "    Message('note_on', channel=2, note=40, velocity=0, time=0),\n",
      "    Message('note_on', channel=2, note=48, velocity=84, time=12),\n",
      "    Message('note_on', channel=2, note=36, velocity=84, time=0),\n",
      "    Message('note_on', channel=2, note=48, velocity=0, time=168),\n",
      "    Message('note_on', channel=2, note=36, velocity=0, time=0),\n",
      "    Message('note_on', channel=2, note=50, velocity=84, time=12),\n",
      "    Message('note_on', channel=2, note=38, velocity=84, time=0),\n",
      "    Message('note_on', channel=2, note=50, velocity=0, time=336),\n",
      "    Message('note_on', channel=2, note=38, velocity=0, time=0),\n",
      "    Message('note_on', channel=2, note=43, velocity=84, time=24),\n",
      "    Message('note_on', channel=2, note=55, velocity=84, time=0),\n",
      "    Message('note_on', channel=2, note=43, velocity=0, time=168),\n",
      "    Message('note_on', channel=2, note=55, velocity=0, time=0),\n",
      "    Message('note_on', channel=2, note=55, velocity=84, time=12),\n",
      "    Message('note_on', channel=2, note=62, velocity=84, time=0),\n",
      "    Message('note_on', channel=2, note=55, velocity=0, time=168),\n",
      "    Message('note_on', channel=2, note=62, velocity=0, time=0),\n",
      "    Message('note_on', channel=2, note=60, velocity=84, time=12),\n",
      "    Message('note_on', channel=2, note=52, velocity=84, time=0),\n",
      "    Message('note_on', channel=2, note=60, velocity=0, time=168),\n",
      "    Message('note_on', channel=2, note=52, velocity=0, time=0),\n",
      "    Message('note_on', channel=2, note=55, velocity=84, time=12),\n",
      "    Message('note_on', channel=2, note=47, velocity=84, time=0),\n",
      "    Message('note_on', channel=2, note=55, velocity=0, time=168),\n",
      "    Message('note_on', channel=2, note=47, velocity=0, time=0),\n",
      "    Message('note_on', channel=2, note=52, velocity=84, time=12),\n",
      "    Message('note_on', channel=2, note=59, velocity=84, time=0),\n",
      "    Message('note_on', channel=2, note=52, velocity=0, time=168),\n",
      "    Message('note_on', channel=2, note=59, velocity=0, time=0),\n",
      "    Message('note_on', channel=2, note=59, velocity=84, time=12),\n",
      "    Message('note_on', channel=2, note=64, velocity=84, time=0),\n",
      "    Message('note_on', channel=2, note=59, velocity=0, time=168),\n",
      "    Message('note_on', channel=2, note=64, velocity=0, time=0),\n",
      "    Message('note_on', channel=2, note=57, velocity=84, time=12),\n",
      "    Message('note_on', channel=2, note=64, velocity=84, time=0),\n",
      "    Message('note_on', channel=2, note=57, velocity=0, time=168),\n",
      "    Message('note_on', channel=2, note=64, velocity=0, time=0),\n",
      "    Message('note_on', channel=2, note=59, velocity=84, time=12),\n",
      "    Message('note_on', channel=2, note=67, velocity=84, time=0),\n",
      "    Message('note_on', channel=2, note=59, velocity=0, time=168),\n",
      "    Message('note_on', channel=2, note=67, velocity=0, time=0),\n",
      "    Message('note_on', channel=2, note=67, velocity=84, time=12),\n",
      "    Message('note_on', channel=2, note=60, velocity=84, time=0),\n",
      "    Message('note_on', channel=2, note=67, velocity=0, time=168),\n",
      "    Message('note_on', channel=2, note=60, velocity=0, time=0),\n",
      "    Message('note_on', channel=2, note=57, velocity=84, time=12),\n",
      "    Message('note_on', channel=2, note=50, velocity=84, time=0),\n",
      "    Message('note_on', channel=2, note=57, velocity=0, time=336),\n",
      "    Message('note_on', channel=2, note=50, velocity=0, time=0),\n",
      "    Message('note_on', channel=2, note=54, velocity=84, time=24),\n",
      "    Message('note_on', channel=2, note=54, velocity=0, time=168),\n",
      "    Message('note_on', channel=2, note=43, velocity=84, time=12),\n",
      "    Message('note_on', channel=2, note=55, velocity=84, time=0),\n",
      "    Message('note_on', channel=2, note=43, velocity=0, time=168),\n",
      "    Message('note_on', channel=2, note=55, velocity=0, time=0),\n",
      "    Message('note_on', channel=2, note=55, velocity=84, time=12),\n",
      "    Message('note_on', channel=2, note=62, velocity=84, time=0),\n",
      "    Message('note_on', channel=2, note=55, velocity=0, time=168),\n",
      "    Message('note_on', channel=2, note=62, velocity=0, time=0),\n",
      "    Message('note_on', channel=2, note=60, velocity=84, time=12),\n",
      "    Message('note_on', channel=2, note=52, velocity=84, time=0),\n",
      "    Message('note_on', channel=2, note=60, velocity=0, time=168),\n",
      "    Message('note_on', channel=2, note=52, velocity=0, time=0),\n",
      "    Message('note_on', channel=2, note=55, velocity=84, time=12),\n",
      "    Message('note_on', channel=2, note=47, velocity=84, time=0),\n",
      "    Message('note_on', channel=2, note=55, velocity=0, time=168),\n",
      "    Message('note_on', channel=2, note=47, velocity=0, time=0),\n",
      "    Message('note_on', channel=2, note=52, velocity=84, time=12),\n",
      "    Message('note_on', channel=2, note=59, velocity=84, time=0),\n",
      "    Message('note_on', channel=2, note=52, velocity=0, time=168),\n",
      "    Message('note_on', channel=2, note=59, velocity=0, time=0),\n",
      "    Message('note_on', channel=2, note=64, velocity=84, time=12),\n",
      "    Message('note_on', channel=2, note=59, velocity=84, time=0),\n",
      "    Message('note_on', channel=2, note=64, velocity=0, time=168),\n",
      "    Message('note_on', channel=2, note=59, velocity=0, time=0),\n",
      "    Message('note_on', channel=2, note=48, velocity=84, time=12),\n",
      "    Message('note_on', channel=2, note=57, velocity=84, time=0),\n",
      "    Message('note_on', channel=2, note=48, velocity=0, time=336),\n",
      "    Message('note_on', channel=2, note=57, velocity=0, time=0),\n",
      "    Message('note_on', channel=2, note=50, velocity=84, time=24),\n",
      "    Message('note_on', channel=2, note=57, velocity=84, time=0),\n",
      "    Message('note_on', channel=2, note=60, velocity=84, time=0),\n",
      "    Message('note_on', channel=2, note=50, velocity=0, time=168),\n",
      "    Message('note_on', channel=2, note=57, velocity=0, time=0),\n",
      "    Message('note_on', channel=2, note=60, velocity=0, time=0),\n",
      "    Message('note_on', channel=2, note=59, velocity=84, time=12),\n",
      "    Message('note_on', channel=2, note=55, velocity=84, time=0),\n",
      "    Message('note_on', channel=2, note=62, velocity=84, time=0),\n",
      "    Message('note_on', channel=2, note=59, velocity=0, time=336),\n",
      "    Message('note_on', channel=2, note=55, velocity=0, time=0),\n",
      "    Message('note_on', channel=2, note=62, velocity=0, time=0),\n",
      "    Message('note_on', channel=2, note=55, velocity=84, time=24),\n",
      "    Message('note_on', channel=2, note=55, velocity=0, time=48),\n",
      "    Message('note_on', channel=2, note=59, velocity=84, time=12),\n",
      "    Message('note_on', channel=2, note=59, velocity=0, time=48),\n",
      "    Message('note_on', channel=2, note=61, velocity=84, time=12),\n",
      "    Message('note_on', channel=2, note=61, velocity=0, time=48),\n",
      "    Message('note_on', channel=2, note=62, velocity=84, time=12),\n",
      "    Message('note_on', channel=2, note=62, velocity=0, time=168),\n",
      "    Message('note_on', channel=2, note=60, velocity=84, time=12),\n",
      "    Message('note_on', channel=2, note=60, velocity=0, time=168),\n",
      "    Message('note_on', channel=2, note=59, velocity=84, time=12),\n",
      "    Message('note_on', channel=2, note=59, velocity=0, time=168),\n",
      "    Message('note_on', channel=2, note=57, velocity=84, time=12),\n",
      "    Message('note_on', channel=2, note=57, velocity=0, time=168),\n",
      "    Message('note_on', channel=2, note=57, velocity=84, time=12),\n",
      "    Message('note_on', channel=2, note=57, velocity=0, time=64),\n",
      "    Message('note_on', channel=2, note=55, velocity=84, time=16),\n",
      "    Message('note_on', channel=2, note=55, velocity=0, time=64),\n",
      "    Message('note_on', channel=2, note=53, velocity=84, time=16),\n",
      "    Message('note_on', channel=2, note=53, velocity=0, time=64),\n",
      "    Message('note_on', channel=2, note=52, velocity=84, time=16),\n",
      "    Message('note_on', channel=2, note=52, velocity=0, time=64),\n",
      "    Message('note_on', channel=2, note=53, velocity=84, time=76),\n",
      "    Message('note_on', channel=2, note=53, velocity=0, time=168),\n",
      "    Message('note_on', channel=2, note=47, velocity=84, time=12),\n",
      "    Message('note_on', channel=2, note=47, velocity=0, time=168),\n",
      "    Message('note_on', channel=2, note=50, velocity=84, time=12),\n",
      "    Message('note_on', channel=2, note=62, velocity=84, time=0),\n",
      "    Message('note_on', channel=2, note=50, velocity=0, time=168),\n",
      "    Message('note_on', channel=2, note=62, velocity=0, time=0),\n",
      "    Message('note_on', channel=2, note=60, velocity=84, time=12),\n",
      "    Message('note_on', channel=2, note=57, velocity=84, time=0),\n",
      "    Message('note_on', channel=2, note=60, velocity=0, time=168),\n",
      "    Message('note_on', channel=2, note=57, velocity=0, time=0),\n",
      "    Message('note_on', channel=2, note=60, velocity=84, time=12),\n",
      "    Message('note_on', channel=2, note=64, velocity=84, time=0),\n",
      "    Message('note_on', channel=2, note=57, velocity=84, time=0),\n",
      "    Message('note_on', channel=2, note=60, velocity=0, time=168),\n",
      "    Message('note_on', channel=2, note=64, velocity=0, time=0),\n",
      "    Message('note_on', channel=2, note=57, velocity=0, time=0),\n",
      "    Message('note_on', channel=2, note=62, velocity=84, time=12),\n",
      "    Message('note_on', channel=2, note=53, velocity=84, time=0),\n",
      "    Message('note_on', channel=2, note=62, velocity=0, time=168),\n",
      "    Message('note_on', channel=2, note=53, velocity=0, time=0),\n",
      "    Message('note_on', channel=2, note=57, velocity=84, time=12),\n",
      "    Message('note_on', channel=2, note=48, velocity=84, time=0),\n",
      "    Message('note_on', channel=2, note=57, velocity=0, time=168),\n",
      "    Message('note_on', channel=2, note=48, velocity=0, time=0),\n",
      "    Message('note_on', channel=2, note=60, velocity=84, time=12),\n",
      "    Message('note_on', channel=2, note=53, velocity=84, time=0),\n",
      "    Message('note_on', channel=2, note=60, velocity=0, time=168),\n",
      "    Message('note_on', channel=2, note=53, velocity=0, time=0),\n",
      "    Message('note_on', channel=2, note=60, velocity=84, time=12),\n",
      "    Message('note_on', channel=2, note=52, velocity=84, time=0),\n",
      "    Message('note_on', channel=2, note=60, velocity=0, time=168),\n",
      "    Message('note_on', channel=2, note=52, velocity=0, time=0),\n",
      "    Message('note_on', channel=2, note=50, velocity=84, time=12),\n",
      "    Message('note_on', channel=2, note=50, velocity=0, time=168),\n",
      "    Message('note_on', channel=2, note=51, velocity=84, time=12),\n",
      "    Message('note_on', channel=2, note=51, velocity=0, time=168),\n",
      "    Message('note_on', channel=2, note=52, velocity=84, time=12),\n",
      "    Message('note_on', channel=2, note=52, velocity=0, time=168),\n",
      "    Message('note_on', channel=2, note=45, velocity=84, time=12),\n",
      "    Message('note_on', channel=2, note=45, velocity=0, time=168),\n",
      "    Message('note_on', channel=2, note=57, velocity=84, time=12),\n",
      "    Message('note_on', channel=2, note=57, velocity=0, time=168),\n",
      "    Message('note_on', channel=2, note=59, velocity=84, time=12),\n",
      "    Message('note_on', channel=2, note=47, velocity=84, time=0),\n",
      "    Message('note_on', channel=2, note=59, velocity=0, time=168),\n",
      "    Message('note_on', channel=2, note=47, velocity=0, time=0),\n",
      "    Message('note_on', channel=2, note=60, velocity=84, time=12),\n",
      "    Message('note_on', channel=2, note=48, velocity=84, time=0),\n",
      "    Message('note_on', channel=2, note=60, velocity=0, time=336),\n",
      "    Message('note_on', channel=2, note=48, velocity=0, time=0),\n",
      "    Message('note_on', channel=2, note=60, velocity=84, time=24),\n",
      "    Message('note_on', channel=2, note=52, velocity=84, time=0),\n",
      "    Message('note_on', channel=2, note=60, velocity=0, time=168),\n",
      "    Message('note_on', channel=2, note=52, velocity=0, time=0),\n",
      "    Message('note_on', channel=2, note=53, velocity=84, time=12),\n",
      "    Message('note_on', channel=2, note=53, velocity=0, time=168),\n",
      "    Message('note_on', channel=2, note=50, velocity=84, time=12),\n",
      "    Message('note_on', channel=2, note=50, velocity=0, time=168),\n",
      "    Message('note_on', channel=2, note=55, velocity=84, time=12),\n",
      "    Message('note_on', channel=2, note=43, velocity=84, time=0),\n",
      "    Message('note_on', channel=2, note=55, velocity=0, time=168),\n",
      "    Message('note_on', channel=2, note=43, velocity=0, time=0),\n",
      "    Message('note_on', channel=2, note=48, velocity=84, time=12),\n",
      "    Message('note_on', channel=2, note=55, velocity=84, time=0),\n",
      "    Message('note_on', channel=2, note=48, velocity=0, time=168),\n",
      "    Message('note_on', channel=2, note=55, velocity=0, time=0),\n",
      "    Message('note_on', channel=2, note=52, velocity=84, time=12),\n",
      "    Message('note_on', channel=2, note=52, velocity=0, time=168),\n",
      "    Message('note_on', channel=2, note=60, velocity=84, time=12),\n",
      "    Message('note_on', channel=2, note=60, velocity=0, time=168),\n",
      "    Message('note_on', channel=2, note=60, velocity=84, time=12),\n",
      "    Message('note_on', channel=2, note=53, velocity=84, time=0),\n",
      "    Message('note_on', channel=2, note=60, velocity=0, time=336),\n",
      "    Message('note_on', channel=2, note=53, velocity=0, time=0),\n",
      "    Message('note_on', channel=2, note=55, velocity=84, time=24),\n",
      "    Message('note_on', channel=2, note=47, velocity=84, time=0),\n",
      "    Message('note_on', channel=2, note=55, velocity=0, time=168),\n",
      "    Message('note_on', channel=2, note=47, velocity=0, time=0),\n",
      "    Message('note_on', channel=2, note=55, velocity=84, time=12),\n",
      "    Message('note_on', channel=2, note=48, velocity=84, time=0),\n",
      "    Message('note_on', channel=2, note=55, velocity=0, time=336),\n",
      "    Message('note_on', channel=2, note=48, velocity=0, time=0),\n",
      "    Message('note_on', channel=2, note=59, velocity=84, time=24),\n",
      "    Message('note_on', channel=2, note=59, velocity=0, time=168),\n",
      "    Message('note_on', channel=2, note=62, velocity=84, time=12),\n",
      "    Message('note_on', channel=2, note=55, velocity=84, time=0),\n",
      "    Message('note_on', channel=2, note=62, velocity=0, time=168),\n",
      "    Message('note_on', channel=2, note=55, velocity=0, time=0),\n",
      "    Message('note_on', channel=2, note=43, velocity=84, time=12),\n",
      "    Message('note_on', channel=2, note=43, velocity=0, time=168),\n",
      "    Message('note_on', channel=2, note=52, velocity=84, time=12),\n",
      "    Message('note_on', channel=2, note=40, velocity=84, time=0),\n",
      "    Message('note_on', channel=2, note=52, velocity=0, time=168),\n",
      "    Message('note_on', channel=2, note=40, velocity=0, time=0),\n",
      "    Message('note_on', channel=2, note=47, velocity=84, time=12),\n",
      "    Message('note_on', channel=2, note=59, velocity=84, time=0),\n",
      "    Message('note_on', channel=2, note=47, velocity=0, time=168),\n",
      "    Message('note_on', channel=2, note=59, velocity=0, time=0),\n",
      "    Message('note_on', channel=2, note=40, velocity=84, time=12),\n",
      "    Message('note_on', channel=2, note=52, velocity=84, time=0),\n",
      "    Message('note_on', channel=2, note=40, velocity=0, time=168),\n",
      "    Message('note_on', channel=2, note=52, velocity=0, time=0),\n",
      "    Message('note_on', channel=2, note=52, velocity=84, time=12),\n",
      "    Message('note_on', channel=2, note=59, velocity=84, time=0),\n",
      "    Message('note_on', channel=2, note=52, velocity=0, time=168),\n",
      "    Message('note_on', channel=2, note=59, velocity=0, time=0),\n",
      "    Message('note_on', channel=2, note=42, velocity=84, time=12),\n",
      "    Message('note_on', channel=2, note=54, velocity=84, time=0),\n",
      "    Message('note_on', channel=2, note=42, velocity=0, time=168),\n",
      "    Message('note_on', channel=2, note=54, velocity=0, time=0),\n",
      "    Message('note_on', channel=2, note=55, velocity=84, time=12),\n",
      "    Message('note_on', channel=2, note=47, velocity=84, time=0),\n",
      "    Message('note_on', channel=2, note=55, velocity=0, time=168),\n",
      "    Message('note_on', channel=2, note=47, velocity=0, time=0),\n",
      "    Message('note_on', channel=2, note=48, velocity=84, time=12),\n",
      "    Message('note_on', channel=2, note=48, velocity=0, time=168),\n",
      "    Message('note_on', channel=2, note=50, velocity=84, time=12),\n",
      "    Message('note_on', channel=2, note=38, velocity=84, time=0),\n",
      "    Message('note_on', channel=2, note=50, velocity=0, time=528),\n",
      "    Message('note_on', channel=2, note=38, velocity=0, time=0),\n",
      "    Message('note_on', channel=2, note=54, velocity=84, time=12),\n",
      "    Message('note_on', channel=2, note=50, velocity=84, time=0),\n",
      "    Message('note_on', channel=2, note=54, velocity=0, time=528),\n",
      "    Message('note_on', channel=2, note=50, velocity=0, time=0),\n",
      "    Message('note_on', channel=2, note=43, velocity=84, time=12),\n",
      "    Message('note_on', channel=2, note=55, velocity=84, time=0),\n",
      "    Message('note_on', channel=2, note=43, velocity=0, time=168),\n",
      "    Message('note_on', channel=2, note=55, velocity=0, time=0),\n",
      "    Message('note_on', channel=2, note=42, velocity=84, time=12),\n",
      "    Message('note_on', channel=2, note=54, velocity=84, time=0),\n",
      "    Message('note_on', channel=2, note=42, velocity=0, time=168),\n",
      "    Message('note_on', channel=2, note=54, velocity=0, time=0),\n",
      "    Message('note_on', channel=2, note=40, velocity=84, time=12),\n",
      "    Message('note_on', channel=2, note=52, velocity=84, time=0),\n",
      "    Message('note_on', channel=2, note=40, velocity=0, time=168),\n",
      "    Message('note_on', channel=2, note=52, velocity=0, time=0),\n",
      "    Message('note_on', channel=2, note=55, velocity=84, time=12),\n",
      "    Message('note_on', channel=2, note=47, velocity=84, time=0),\n",
      "    Message('note_on', channel=2, note=55, velocity=0, time=168),\n",
      "    Message('note_on', channel=2, note=47, velocity=0, time=0),\n",
      "    Message('note_on', channel=2, note=47, velocity=84, time=12),\n",
      "    Message('note_on', channel=2, note=35, velocity=84, time=0),\n",
      "    Message('note_on', channel=2, note=47, velocity=0, time=168),\n",
      "    Message('note_on', channel=2, note=35, velocity=0, time=0),\n",
      "    Message('note_on', channel=2, note=52, velocity=84, time=12),\n",
      "    Message('note_on', channel=2, note=52, velocity=0, time=168),\n",
      "    Message('note_on', channel=2, note=48, velocity=84, time=12),\n",
      "    Message('note_on', channel=2, note=36, velocity=84, time=0),\n",
      "    Message('note_on', channel=2, note=48, velocity=0, time=168),\n",
      "    Message('note_on', channel=2, note=36, velocity=0, time=0),\n",
      "    Message('note_on', channel=2, note=38, velocity=84, time=12),\n",
      "    Message('note_on', channel=2, note=50, velocity=84, time=0),\n",
      "    Message('note_on', channel=2, note=38, velocity=0, time=336),\n",
      "    Message('note_on', channel=2, note=50, velocity=0, time=0),\n",
      "    Message('note_on', channel=2, note=55, velocity=84, time=24),\n",
      "    Message('note_on', channel=2, note=43, velocity=84, time=0),\n",
      "    Message('note_on', channel=2, note=55, velocity=0, time=168),\n",
      "    Message('note_on', channel=2, note=43, velocity=0, time=0),\n",
      "    Message('note_on', channel=2, note=59, velocity=84, time=12),\n",
      "    Message('note_on', channel=2, note=59, velocity=0, time=168),\n",
      "    Message('note_on', channel=2, note=50, velocity=84, time=12),\n",
      "    Message('note_on', channel=2, note=50, velocity=0, time=168),\n",
      "    Message('note_on', channel=2, note=55, velocity=84, time=12),\n",
      "    Message('note_on', channel=2, note=59, velocity=84, time=0),\n",
      "    Message('note_on', channel=2, note=55, velocity=0, time=336),\n",
      "    Message('note_on', channel=2, note=59, velocity=0, time=0),\n",
      "    Message('note_on', channel=2, note=60, velocity=84, time=24),\n",
      "    Message('note_on', channel=2, note=55, velocity=84, time=0),\n",
      "    Message('note_on', channel=2, note=60, velocity=0, time=168),\n",
      "    Message('note_on', channel=2, note=55, velocity=0, time=0),\n",
      "    Message('note_on', channel=2, note=57, velocity=84, time=12),\n",
      "    Message('note_on', channel=2, note=55, velocity=84, time=0),\n",
      "    Message('note_on', channel=2, note=57, velocity=0, time=168),\n",
      "    Message('note_on', channel=2, note=55, velocity=0, time=0),\n",
      "    Message('note_on', channel=2, note=59, velocity=84, time=12),\n",
      "    Message('note_on', channel=2, note=59, velocity=0, time=168),\n",
      "    Message('note_on', channel=2, note=62, velocity=84, time=12),\n",
      "    Message('note_on', channel=2, note=62, velocity=0, time=168),\n",
      "    Message('note_on', channel=2, note=43, velocity=84, time=12),\n",
      "    Message('note_on', channel=2, note=43, velocity=0, time=336),\n",
      "    Message('note_on', channel=2, note=43, velocity=84, time=24),\n",
      "    Message('note_on', channel=2, note=54, velocity=84, time=0),\n",
      "    Message('note_on', channel=2, note=43, velocity=0, time=168),\n",
      "    Message('note_on', channel=2, note=54, velocity=0, time=0),\n",
      "    Message('note_on', channel=2, note=55, velocity=84, time=12),\n",
      "    Message('note_on', channel=2, note=43, velocity=84, time=0),\n",
      "    Message('note_on', channel=2, note=55, velocity=0, time=168),\n",
      "    Message('note_on', channel=2, note=43, velocity=0, time=0),\n",
      "    Message('note_on', channel=2, note=62, velocity=84, time=12),\n",
      "    Message('note_on', channel=2, note=55, velocity=84, time=0),\n",
      "    Message('note_on', channel=2, note=62, velocity=0, time=168),\n",
      "    Message('note_on', channel=2, note=55, velocity=0, time=0),\n",
      "    Message('note_on', channel=2, note=60, velocity=84, time=12),\n",
      "    Message('note_on', channel=2, note=52, velocity=84, time=0),\n",
      "    Message('note_on', channel=2, note=60, velocity=0, time=168),\n",
      "    Message('note_on', channel=2, note=52, velocity=0, time=0),\n",
      "    Message('note_on', channel=2, note=47, velocity=84, time=12),\n",
      "    Message('note_on', channel=2, note=55, velocity=84, time=0),\n",
      "    Message('note_on', channel=2, note=47, velocity=0, time=168),\n",
      "    Message('note_on', channel=2, note=55, velocity=0, time=0),\n",
      "    Message('note_on', channel=2, note=52, velocity=84, time=12),\n",
      "    Message('note_on', channel=2, note=59, velocity=84, time=0),\n",
      "    Message('note_on', channel=2, note=52, velocity=0, time=168),\n",
      "    Message('note_on', channel=2, note=59, velocity=0, time=0),\n",
      "    Message('note_on', channel=2, note=64, velocity=84, time=12),\n",
      "    Message('note_on', channel=2, note=59, velocity=84, time=0),\n",
      "    Message('note_on', channel=2, note=64, velocity=0, time=168),\n",
      "    Message('note_on', channel=2, note=59, velocity=0, time=0),\n",
      "    Message('note_on', channel=2, note=64, velocity=84, time=12),\n",
      "    Message('note_on', channel=2, note=57, velocity=84, time=0),\n",
      "    Message('note_on', channel=2, note=64, velocity=0, time=168),\n",
      "    Message('note_on', channel=2, note=57, velocity=0, time=0),\n",
      "    Message('note_on', channel=2, note=59, velocity=84, time=12),\n",
      "    Message('note_on', channel=2, note=67, velocity=84, time=0),\n",
      "    Message('note_on', channel=2, note=59, velocity=0, time=168),\n",
      "    Message('note_on', channel=2, note=67, velocity=0, time=0),\n",
      "    Message('note_on', channel=2, note=60, velocity=84, time=12),\n",
      "    Message('note_on', channel=2, note=57, velocity=84, time=0),\n",
      "    Message('note_on', channel=2, note=60, velocity=0, time=168),\n",
      "    Message('note_on', channel=2, note=57, velocity=0, time=0),\n",
      "    Message('note_on', channel=2, note=57, velocity=84, time=12),\n",
      "    Message('note_on', channel=2, note=50, velocity=84, time=0),\n",
      "    Message('note_on', channel=2, note=57, velocity=0, time=336),\n",
      "    Message('note_on', channel=2, note=50, velocity=0, time=0),\n",
      "    Message('note_on', channel=2, note=54, velocity=84, time=24),\n",
      "    Message('note_on', channel=2, note=54, velocity=0, time=168),\n",
      "    Message('note_on', channel=2, note=43, velocity=84, time=12),\n",
      "    Message('note_on', channel=2, note=55, velocity=84, time=0),\n",
      "    Message('note_on', channel=2, note=43, velocity=0, time=168),\n",
      "    Message('note_on', channel=2, note=55, velocity=0, time=0),\n",
      "    Message('note_on', channel=2, note=55, velocity=84, time=12),\n",
      "    Message('note_on', channel=2, note=62, velocity=84, time=0),\n",
      "    Message('note_on', channel=2, note=55, velocity=0, time=168),\n",
      "    Message('note_on', channel=2, note=62, velocity=0, time=0),\n",
      "    Message('note_on', channel=2, note=52, velocity=84, time=12),\n",
      "    Message('note_on', channel=2, note=60, velocity=84, time=0),\n",
      "    Message('note_on', channel=2, note=52, velocity=0, time=168),\n",
      "    Message('note_on', channel=2, note=60, velocity=0, time=0),\n",
      "    Message('note_on', channel=2, note=55, velocity=84, time=12),\n",
      "    Message('note_on', channel=2, note=47, velocity=84, time=0),\n",
      "    Message('note_on', channel=2, note=55, velocity=0, time=168),\n",
      "    Message('note_on', channel=2, note=47, velocity=0, time=0),\n",
      "    Message('note_on', channel=2, note=52, velocity=84, time=12),\n",
      "    Message('note_on', channel=2, note=59, velocity=84, time=0),\n",
      "    Message('note_on', channel=2, note=52, velocity=0, time=168),\n",
      "    Message('note_on', channel=2, note=59, velocity=0, time=0),\n",
      "    Message('note_on', channel=2, note=59, velocity=84, time=12),\n",
      "    Message('note_on', channel=2, note=64, velocity=84, time=0),\n",
      "    Message('note_on', channel=2, note=59, velocity=0, time=168),\n",
      "    Message('note_on', channel=2, note=64, velocity=0, time=0),\n",
      "    Message('note_on', channel=2, note=57, velocity=84, time=12),\n",
      "    Message('note_on', channel=2, note=48, velocity=84, time=0),\n",
      "    Message('note_on', channel=2, note=57, velocity=0, time=336),\n",
      "    Message('note_on', channel=2, note=48, velocity=0, time=0),\n",
      "    Message('note_on', channel=2, note=60, velocity=84, time=24),\n",
      "    Message('note_on', channel=2, note=57, velocity=84, time=0),\n",
      "    Message('note_on', channel=2, note=50, velocity=84, time=0),\n",
      "    Message('note_on', channel=2, note=60, velocity=0, time=168),\n",
      "    Message('note_on', channel=2, note=57, velocity=0, time=0),\n",
      "    Message('note_on', channel=2, note=50, velocity=0, time=0),\n",
      "    Message('note_on', channel=2, note=43, velocity=84, time=12),\n",
      "    Message('note_on', channel=2, note=31, velocity=84, time=0),\n",
      "    Message('note_on', channel=2, note=43, velocity=84, time=520),\n",
      "    Message('note_on', channel=2, note=55, velocity=84, time=0),\n",
      "    Message('note_on', channel=2, note=43, velocity=0, time=8),\n",
      "    Message('note_on', channel=2, note=31, velocity=0, time=0),\n",
      "    Message('note_on', channel=2, note=43, velocity=0, time=160),\n",
      "    Message('note_on', channel=2, note=55, velocity=0, time=0),\n",
      "    Message('note_on', channel=2, note=50, velocity=84, time=12),\n",
      "    Message('note_on', channel=2, note=55, velocity=84, time=0),\n",
      "    Message('note_on', channel=2, note=50, velocity=0, time=168),\n",
      "    Message('note_on', channel=2, note=55, velocity=0, time=0),\n",
      "    Message('note_on', channel=2, note=52, velocity=84, time=12),\n",
      "    Message('note_on', channel=2, note=60, velocity=84, time=0),\n",
      "    Message('note_on', channel=2, note=52, velocity=0, time=168),\n",
      "    Message('note_on', channel=2, note=60, velocity=0, time=0),\n",
      "    Message('note_on', channel=2, note=47, velocity=84, time=12),\n",
      "    Message('note_on', channel=2, note=55, velocity=84, time=0),\n",
      "    Message('note_on', channel=2, note=47, velocity=0, time=168),\n",
      "    Message('note_on', channel=2, note=55, velocity=0, time=0),\n",
      "    Message('note_on', channel=2, note=52, velocity=84, time=12),\n",
      "    Message('note_on', channel=2, note=59, velocity=84, time=0),\n",
      "    Message('note_on', channel=2, note=52, velocity=0, time=168),\n",
      "    Message('note_on', channel=2, note=59, velocity=0, time=0),\n",
      "    Message('note_on', channel=2, note=59, velocity=84, time=12),\n",
      "    Message('note_on', channel=2, note=64, velocity=84, time=0),\n",
      "    Message('note_on', channel=2, note=59, velocity=0, time=168),\n",
      "    Message('note_on', channel=2, note=64, velocity=0, time=0),\n",
      "    Message('note_on', channel=2, note=64, velocity=84, time=12),\n",
      "    Message('note_on', channel=2, note=57, velocity=84, time=0),\n",
      "    Message('note_on', channel=2, note=64, velocity=0, time=168),\n",
      "    Message('note_on', channel=2, note=57, velocity=0, time=0),\n",
      "    Message('note_on', channel=2, note=67, velocity=84, time=12),\n",
      "    Message('note_on', channel=2, note=59, velocity=84, time=0),\n",
      "    Message('note_on', channel=2, note=67, velocity=0, time=168),\n",
      "    Message('note_on', channel=2, note=59, velocity=0, time=0),\n",
      "    Message('note_on', channel=2, note=67, velocity=84, time=12),\n",
      "    Message('note_on', channel=2, note=60, velocity=84, time=0),\n",
      "    Message('note_on', channel=2, note=67, velocity=0, time=168),\n",
      "    Message('note_on', channel=2, note=60, velocity=0, time=0),\n",
      "    Message('note_on', channel=2, note=52, velocity=84, time=12),\n",
      "    Message('note_on', channel=2, note=57, velocity=84, time=0),\n",
      "    Message('note_on', channel=2, note=52, velocity=0, time=336),\n",
      "    Message('note_on', channel=2, note=57, velocity=0, time=0),\n",
      "    Message('note_on', channel=2, note=54, velocity=84, time=24),\n",
      "    Message('note_on', channel=2, note=54, velocity=0, time=168),\n",
      "    Message('note_on', channel=2, note=43, velocity=84, time=12),\n",
      "    Message('note_on', channel=2, note=55, velocity=84, time=0),\n",
      "    Message('note_on', channel=2, note=43, velocity=0, time=168),\n",
      "    Message('note_on', channel=2, note=55, velocity=0, time=0),\n",
      "    Message('note_on', channel=2, note=55, velocity=84, time=12),\n",
      "    Message('note_on', channel=2, note=62, velocity=84, time=0),\n",
      "    Message('note_on', channel=2, note=55, velocity=0, time=168),\n",
      "    Message('note_on', channel=2, note=62, velocity=0, time=0),\n",
      "    Message('note_on', channel=2, note=60, velocity=84, time=12),\n",
      "    Message('note_on', channel=2, note=52, velocity=84, time=0),\n",
      "    Message('note_on', channel=2, note=60, velocity=0, time=168),\n",
      "    Message('note_on', channel=2, note=52, velocity=0, time=0),\n",
      "    Message('note_on', channel=2, note=47, velocity=84, time=12),\n",
      "    Message('note_on', channel=2, note=55, velocity=84, time=0),\n",
      "    Message('note_on', channel=2, note=47, velocity=0, time=168),\n",
      "    Message('note_on', channel=2, note=55, velocity=0, time=0),\n",
      "    Message('note_on', channel=2, note=52, velocity=84, time=12),\n",
      "    Message('note_on', channel=2, note=59, velocity=84, time=0),\n",
      "    Message('note_on', channel=2, note=52, velocity=0, time=168),\n",
      "    Message('note_on', channel=2, note=59, velocity=0, time=0),\n",
      "    Message('note_on', channel=2, note=59, velocity=84, time=12),\n",
      "    Message('note_on', channel=2, note=64, velocity=84, time=0),\n",
      "    Message('note_on', channel=2, note=59, velocity=0, time=168),\n",
      "    Message('note_on', channel=2, note=64, velocity=0, time=0),\n",
      "    Message('note_on', channel=2, note=52, velocity=84, time=12),\n",
      "    Message('note_on', channel=2, note=57, velocity=84, time=0),\n",
      "    Message('note_on', channel=2, note=52, velocity=0, time=336),\n",
      "    Message('note_on', channel=2, note=57, velocity=0, time=0),\n",
      "    Message('note_on', channel=2, note=50, velocity=84, time=24),\n",
      "    Message('note_on', channel=2, note=57, velocity=84, time=0),\n",
      "    Message('note_on', channel=2, note=60, velocity=84, time=0),\n",
      "    Message('note_on', channel=2, note=50, velocity=0, time=168),\n",
      "    Message('note_on', channel=2, note=57, velocity=0, time=0),\n",
      "    Message('note_on', channel=2, note=60, velocity=0, time=0),\n",
      "    Message('note_on', channel=2, note=59, velocity=84, time=12),\n",
      "    Message('note_on', channel=2, note=55, velocity=84, time=0),\n",
      "    Message('note_on', channel=2, note=62, velocity=84, time=0),\n",
      "    Message('note_on', channel=2, note=59, velocity=0, time=528),\n",
      "    Message('note_on', channel=2, note=55, velocity=0, time=0),\n",
      "    Message('note_on', channel=2, note=62, velocity=0, time=0),\n",
      "    Message('note_on', channel=2, note=43, velocity=84, time=12),\n",
      "    Message('note_on', channel=2, note=55, velocity=84, time=0),\n",
      "    Message('note_on', channel=2, note=43, velocity=0, time=168),\n",
      "    Message('note_on', channel=2, note=55, velocity=0, time=0),\n",
      "    Message('note_on', channel=2, note=42, velocity=84, time=12),\n",
      "    Message('note_on', channel=2, note=54, velocity=84, time=0),\n",
      "    Message('note_on', channel=2, note=42, velocity=0, time=168),\n",
      "    Message('note_on', channel=2, note=54, velocity=0, time=0),\n",
      "    Message('note_on', channel=2, note=40, velocity=84, time=12),\n",
      "    Message('note_on', channel=2, note=52, velocity=84, time=0),\n",
      "    Message('note_on', channel=2, note=40, velocity=0, time=168),\n",
      "    Message('note_on', channel=2, note=52, velocity=0, time=0),\n",
      "    Message('note_on', channel=2, note=54, velocity=84, time=12),\n",
      "    Message('note_on', channel=2, note=42, velocity=84, time=0),\n",
      "    Message('note_on', channel=2, note=54, velocity=0, time=168),\n",
      "    Message('note_on', channel=2, note=42, velocity=0, time=0),\n",
      "    Message('note_on', channel=2, note=40, velocity=84, time=12),\n",
      "    Message('note_on', channel=2, note=52, velocity=84, time=0),\n",
      "    Message('note_on', channel=2, note=40, velocity=0, time=168),\n",
      "    Message('note_on', channel=2, note=52, velocity=0, time=0),\n",
      "    Message('note_on', channel=2, note=50, velocity=84, time=12),\n",
      "    Message('note_on', channel=2, note=38, velocity=84, time=0),\n",
      "    Message('note_on', channel=2, note=50, velocity=0, time=168),\n",
      "    Message('note_on', channel=2, note=38, velocity=0, time=0),\n",
      "    Message('note_on', channel=2, note=52, velocity=84, time=12),\n",
      "    Message('note_on', channel=2, note=40, velocity=84, time=0),\n",
      "    Message('note_on', channel=2, note=52, velocity=0, time=168),\n",
      "    Message('note_on', channel=2, note=40, velocity=0, time=0),\n",
      "    Message('note_on', channel=2, note=42, velocity=84, time=12),\n",
      "    Message('note_on', channel=2, note=54, velocity=84, time=0),\n",
      "    Message('note_on', channel=2, note=42, velocity=0, time=168),\n",
      "    Message('note_on', channel=2, note=54, velocity=0, time=0),\n",
      "    Message('note_on', channel=2, note=55, velocity=84, time=12),\n",
      "    Message('note_on', channel=2, note=43, velocity=84, time=0),\n",
      "    Message('note_on', channel=2, note=55, velocity=0, time=168),\n",
      "    Message('note_on', channel=2, note=43, velocity=0, time=0),\n",
      "    Message('note_on', channel=2, note=38, velocity=84, time=12),\n",
      "    Message('note_on', channel=2, note=50, velocity=84, time=0),\n",
      "    Message('note_on', channel=2, note=38, velocity=0, time=528),\n",
      "    Message('note_on', channel=2, note=50, velocity=0, time=0),\n",
      "    Message('note_on', channel=2, note=50, velocity=84, time=12),\n",
      "    Message('note_on', channel=2, note=54, velocity=84, time=0),\n",
      "    Message('note_on', channel=2, note=50, velocity=0, time=528),\n",
      "    Message('note_on', channel=2, note=54, velocity=0, time=0),\n",
      "    Message('note_on', channel=2, note=43, velocity=84, time=12),\n",
      "    Message('note_on', channel=2, note=55, velocity=84, time=0),\n",
      "    Message('note_on', channel=2, note=43, velocity=0, time=168),\n",
      "    Message('note_on', channel=2, note=55, velocity=0, time=0),\n",
      "    Message('note_on', channel=2, note=42, velocity=84, time=12),\n",
      "    Message('note_on', channel=2, note=54, velocity=84, time=0),\n",
      "    Message('note_on', channel=2, note=42, velocity=0, time=168),\n",
      "    Message('note_on', channel=2, note=54, velocity=0, time=0),\n",
      "    Message('note_on', channel=2, note=52, velocity=84, time=12),\n",
      "    Message('note_on', channel=2, note=40, velocity=84, time=0),\n",
      "    Message('note_on', channel=2, note=52, velocity=0, time=168),\n",
      "    Message('note_on', channel=2, note=40, velocity=0, time=0),\n",
      "    Message('note_on', channel=2, note=59, velocity=84, time=12),\n",
      "    Message('note_on', channel=2, note=47, velocity=84, time=0),\n",
      "    Message('note_on', channel=2, note=59, velocity=0, time=168),\n",
      "    Message('note_on', channel=2, note=47, velocity=0, time=0),\n",
      "    Message('note_on', channel=2, note=47, velocity=84, time=12),\n",
      "    Message('note_on', channel=2, note=35, velocity=84, time=0),\n",
      "    Message('note_on', channel=2, note=47, velocity=0, time=168),\n",
      "    Message('note_on', channel=2, note=35, velocity=0, time=0),\n",
      "    Message('note_on', channel=2, note=52, velocity=84, time=12),\n",
      "    Message('note_on', channel=2, note=40, velocity=84, time=0),\n",
      "    Message('note_on', channel=2, note=52, velocity=0, time=168),\n",
      "    Message('note_on', channel=2, note=40, velocity=0, time=0),\n",
      "    Message('note_on', channel=2, note=48, velocity=84, time=12),\n",
      "    Message('note_on', channel=2, note=36, velocity=84, time=0),\n",
      "    Message('note_on', channel=2, note=48, velocity=0, time=168),\n",
      "    Message('note_on', channel=2, note=36, velocity=0, time=0),\n",
      "    Message('note_on', channel=2, note=38, velocity=84, time=12),\n",
      "    Message('note_on', channel=2, note=50, velocity=84, time=0),\n",
      "    Message('note_on', channel=2, note=38, velocity=0, time=336),\n",
      "    Message('note_on', channel=2, note=50, velocity=0, time=0),\n",
      "    Message('note_on', channel=2, note=43, velocity=84, time=24),\n",
      "    Message('note_on', channel=2, note=55, velocity=84, time=0),\n",
      "    Message('note_on', channel=2, note=43, velocity=0, time=168),\n",
      "    Message('note_on', channel=2, note=55, velocity=0, time=0),\n",
      "    Message('note_on', channel=2, note=55, velocity=84, time=12),\n",
      "    Message('note_on', channel=2, note=62, velocity=84, time=0),\n",
      "    Message('note_on', channel=2, note=55, velocity=0, time=168),\n",
      "    Message('note_on', channel=2, note=62, velocity=0, time=0),\n",
      "    Message('note_on', channel=2, note=52, velocity=84, time=12),\n",
      "    Message('note_on', channel=2, note=60, velocity=84, time=0),\n",
      "    Message('note_on', channel=2, note=52, velocity=0, time=168),\n",
      "    Message('note_on', channel=2, note=60, velocity=0, time=0),\n",
      "    Message('note_on', channel=2, note=47, velocity=84, time=12),\n",
      "    Message('note_on', channel=2, note=55, velocity=84, time=0),\n",
      "    Message('note_on', channel=2, note=47, velocity=0, time=168),\n",
      "    Message('note_on', channel=2, note=55, velocity=0, time=0),\n",
      "    Message('note_on', channel=2, note=52, velocity=84, time=12),\n",
      "    Message('note_on', channel=2, note=59, velocity=84, time=0),\n",
      "    Message('note_on', channel=2, note=52, velocity=0, time=168),\n",
      "    Message('note_on', channel=2, note=59, velocity=0, time=0),\n",
      "    Message('note_on', channel=2, note=59, velocity=84, time=12),\n",
      "    Message('note_on', channel=2, note=64, velocity=84, time=0),\n",
      "    Message('note_on', channel=2, note=59, velocity=0, time=168),\n",
      "    Message('note_on', channel=2, note=64, velocity=0, time=0),\n",
      "    Message('note_on', channel=2, note=57, velocity=84, time=12),\n",
      "    Message('note_on', channel=2, note=64, velocity=84, time=0),\n",
      "    Message('note_on', channel=2, note=57, velocity=0, time=168),\n",
      "    Message('note_on', channel=2, note=64, velocity=0, time=0),\n",
      "    Message('note_on', channel=2, note=67, velocity=84, time=12),\n",
      "    Message('note_on', channel=2, note=59, velocity=84, time=0),\n",
      "    Message('note_on', channel=2, note=67, velocity=0, time=168),\n",
      "    Message('note_on', channel=2, note=59, velocity=0, time=0),\n",
      "    Message('note_on', channel=2, note=60, velocity=84, time=12),\n",
      "    Message('note_on', channel=2, note=64, velocity=84, time=0),\n",
      "    Message('note_on', channel=2, note=60, velocity=0, time=168),\n",
      "    Message('note_on', channel=2, note=64, velocity=0, time=0),\n",
      "    Message('note_on', channel=2, note=50, velocity=84, time=12),\n",
      "    Message('note_on', channel=2, note=57, velocity=84, time=0),\n",
      "    Message('note_on', channel=2, note=50, velocity=0, time=336),\n",
      "    Message('note_on', channel=2, note=57, velocity=0, time=0),\n",
      "    Message('note_on', channel=2, note=54, velocity=84, time=24),\n",
      "    Message('note_on', channel=2, note=54, velocity=0, time=168),\n",
      "    Message('note_on', channel=2, note=43, velocity=84, time=12),\n",
      "    Message('note_on', channel=2, note=55, velocity=84, time=0),\n",
      "    Message('note_on', channel=2, note=43, velocity=0, time=168),\n",
      "    Message('note_on', channel=2, note=55, velocity=0, time=0),\n",
      "    Message('note_on', channel=2, note=62, velocity=84, time=12),\n",
      "    Message('note_on', channel=2, note=55, velocity=84, time=0),\n",
      "    Message('note_on', channel=2, note=62, velocity=0, time=168),\n",
      "    Message('note_on', channel=2, note=55, velocity=0, time=0),\n",
      "    Message('note_on', channel=2, note=52, velocity=84, time=12),\n",
      "    Message('note_on', channel=2, note=60, velocity=84, time=0),\n",
      "    Message('note_on', channel=2, note=52, velocity=0, time=168),\n",
      "    Message('note_on', channel=2, note=60, velocity=0, time=0),\n",
      "    Message('note_on', channel=2, note=47, velocity=84, time=12),\n",
      "    Message('note_on', channel=2, note=55, velocity=84, time=0),\n",
      "    Message('note_on', channel=2, note=47, velocity=0, time=168),\n",
      "    Message('note_on', channel=2, note=55, velocity=0, time=0),\n",
      "    Message('note_on', channel=2, note=59, velocity=84, time=12),\n",
      "    Message('note_on', channel=2, note=52, velocity=84, time=0),\n",
      "    Message('note_on', channel=2, note=59, velocity=0, time=168),\n",
      "    Message('note_on', channel=2, note=52, velocity=0, time=0),\n",
      "    Message('note_on', channel=2, note=59, velocity=84, time=12),\n",
      "    Message('note_on', channel=2, note=64, velocity=84, time=0),\n",
      "    Message('note_on', channel=2, note=59, velocity=0, time=168),\n",
      "    Message('note_on', channel=2, note=64, velocity=0, time=0),\n",
      "    Message('note_on', channel=2, note=48, velocity=84, time=12),\n",
      "    Message('note_on', channel=2, note=57, velocity=84, time=0),\n",
      "    Message('note_on', channel=2, note=48, velocity=0, time=336),\n",
      "    Message('note_on', channel=2, note=57, velocity=0, time=0),\n",
      "    Message('note_on', channel=2, note=52, velocity=84, time=24),\n",
      "    Message('note_on', channel=2, note=57, velocity=84, time=0),\n",
      "    Message('note_on', channel=2, note=60, velocity=84, time=0),\n",
      "    Message('note_on', channel=2, note=52, velocity=0, time=168),\n",
      "    Message('note_on', channel=2, note=57, velocity=0, time=0),\n",
      "    Message('note_on', channel=2, note=60, velocity=0, time=0),\n",
      "    Message('note_on', channel=2, note=43, velocity=84, time=12),\n",
      "    Message('note_on', channel=2, note=55, velocity=84, time=0),\n",
      "    Message('note_on', channel=2, note=43, velocity=0, time=168),\n",
      "    Message('note_on', channel=2, note=55, velocity=0, time=0),\n",
      "    Message('note_on', channel=2, note=54, velocity=84, time=12),\n",
      "    Message('note_on', channel=2, note=42, velocity=84, time=0),\n",
      "    Message('note_on', channel=2, note=54, velocity=0, time=168),\n",
      "    Message('note_on', channel=2, note=42, velocity=0, time=0),\n",
      "    Message('note_on', channel=2, note=52, velocity=84, time=12),\n",
      "    Message('note_on', channel=2, note=40, velocity=84, time=0),\n",
      "    Message('note_on', channel=2, note=52, velocity=0, time=168),\n",
      "    Message('note_on', channel=2, note=40, velocity=0, time=0),\n",
      "    Message('note_on', channel=2, note=42, velocity=84, time=12),\n",
      "    Message('note_on', channel=2, note=54, velocity=84, time=0),\n",
      "    Message('note_on', channel=2, note=42, velocity=0, time=168),\n",
      "    Message('note_on', channel=2, note=54, velocity=0, time=0),\n",
      "    Message('note_on', channel=2, note=40, velocity=84, time=12),\n",
      "    Message('note_on', channel=2, note=52, velocity=84, time=0),\n",
      "    Message('note_on', channel=2, note=40, velocity=0, time=168),\n",
      "    Message('note_on', channel=2, note=52, velocity=0, time=0),\n",
      "    Message('note_on', channel=2, note=38, velocity=84, time=12),\n",
      "    Message('note_on', channel=2, note=50, velocity=84, time=0),\n",
      "    Message('note_on', channel=2, note=38, velocity=0, time=168),\n",
      "    Message('note_on', channel=2, note=50, velocity=0, time=0),\n",
      "    Message('note_on', channel=2, note=40, velocity=84, time=12),\n",
      "    Message('note_on', channel=2, note=52, velocity=84, time=0),\n",
      "    Message('note_on', channel=2, note=40, velocity=0, time=168),\n",
      "    Message('note_on', channel=2, note=52, velocity=0, time=0),\n",
      "    Message('note_on', channel=2, note=42, velocity=84, time=12),\n",
      "    Message('note_on', channel=2, note=54, velocity=84, time=0),\n",
      "    Message('note_on', channel=2, note=42, velocity=0, time=168),\n",
      "    Message('note_on', channel=2, note=54, velocity=0, time=0),\n",
      "    Message('note_on', channel=2, note=43, velocity=84, time=12),\n",
      "    Message('note_on', channel=2, note=55, velocity=84, time=0),\n",
      "    Message('note_on', channel=2, note=43, velocity=0, time=168),\n",
      "    Message('note_on', channel=2, note=55, velocity=0, time=0),\n",
      "    Message('note_on', channel=2, note=50, velocity=84, time=12),\n",
      "    Message('note_on', channel=2, note=38, velocity=84, time=0),\n",
      "    Message('note_on', channel=2, note=50, velocity=0, time=528),\n",
      "    Message('note_on', channel=2, note=38, velocity=0, time=0),\n",
      "    Message('note_on', channel=2, note=50, velocity=84, time=12),\n",
      "    Message('note_on', channel=2, note=54, velocity=84, time=0),\n",
      "    Message('note_on', channel=2, note=50, velocity=0, time=528),\n",
      "    Message('note_on', channel=2, note=54, velocity=0, time=0),\n",
      "    Message('note_on', channel=2, note=43, velocity=84, time=12),\n",
      "    Message('note_on', channel=2, note=55, velocity=84, time=0),\n",
      "    Message('note_on', channel=2, note=43, velocity=0, time=168),\n",
      "    Message('note_on', channel=2, note=55, velocity=0, time=0),\n",
      "    Message('note_on', channel=2, note=42, velocity=84, time=12),\n",
      "    Message('note_on', channel=2, note=54, velocity=84, time=0),\n",
      "    Message('note_on', channel=2, note=42, velocity=0, time=168),\n",
      "    Message('note_on', channel=2, note=54, velocity=0, time=0),\n",
      "    Message('note_on', channel=2, note=40, velocity=84, time=12),\n",
      "    Message('note_on', channel=2, note=52, velocity=84, time=0),\n",
      "    Message('note_on', channel=2, note=40, velocity=0, time=168),\n",
      "    Message('note_on', channel=2, note=52, velocity=0, time=0),\n",
      "    Message('note_on', channel=2, note=47, velocity=84, time=12),\n",
      "    Message('note_on', channel=2, note=59, velocity=84, time=0),\n",
      "    Message('note_on', channel=2, note=47, velocity=0, time=168),\n",
      "    Message('note_on', channel=2, note=59, velocity=0, time=0),\n",
      "    Message('note_on', channel=2, note=47, velocity=84, time=12),\n",
      "    Message('note_on', channel=2, note=35, velocity=84, time=0),\n",
      "    Message('note_on', channel=2, note=47, velocity=0, time=168),\n",
      "    Message('note_on', channel=2, note=35, velocity=0, time=0),\n",
      "    Message('note_on', channel=2, note=52, velocity=84, time=12),\n",
      "    Message('note_on', channel=2, note=40, velocity=84, time=0),\n",
      "    Message('note_on', channel=2, note=52, velocity=0, time=168),\n",
      "    Message('note_on', channel=2, note=40, velocity=0, time=0),\n",
      "    Message('note_on', channel=2, note=48, velocity=84, time=12),\n",
      "    Message('note_on', channel=2, note=36, velocity=84, time=0),\n",
      "    Message('note_on', channel=2, note=48, velocity=0, time=168),\n",
      "    Message('note_on', channel=2, note=36, velocity=0, time=0),\n",
      "    Message('note_on', channel=2, note=50, velocity=84, time=12),\n",
      "    Message('note_on', channel=2, note=38, velocity=84, time=0),\n",
      "    Message('note_on', channel=2, note=50, velocity=0, time=336),\n",
      "    Message('note_on', channel=2, note=38, velocity=0, time=0),\n",
      "    Message('note_on', channel=2, note=43, velocity=84, time=24),\n",
      "    Message('note_on', channel=2, note=55, velocity=84, time=0),\n",
      "    Message('note_on', channel=2, note=43, velocity=0, time=168),\n",
      "    Message('note_on', channel=2, note=55, velocity=0, time=0),\n",
      "    Message('note_on', channel=2, note=55, velocity=84, time=12),\n",
      "    Message('note_on', channel=2, note=62, velocity=84, time=0),\n",
      "    Message('note_on', channel=2, note=55, velocity=0, time=168),\n",
      "    Message('note_on', channel=2, note=62, velocity=0, time=0),\n",
      "    Message('note_on', channel=2, note=60, velocity=84, time=12),\n",
      "    Message('note_on', channel=2, note=52, velocity=84, time=0),\n",
      "    Message('note_on', channel=2, note=60, velocity=0, time=168),\n",
      "    Message('note_on', channel=2, note=52, velocity=0, time=0),\n",
      "    Message('note_on', channel=2, note=55, velocity=84, time=12),\n",
      "    Message('note_on', channel=2, note=47, velocity=84, time=0),\n",
      "    Message('note_on', channel=2, note=55, velocity=0, time=168),\n",
      "    Message('note_on', channel=2, note=47, velocity=0, time=0),\n",
      "    Message('note_on', channel=2, note=52, velocity=84, time=12),\n",
      "    Message('note_on', channel=2, note=59, velocity=84, time=0),\n",
      "    Message('note_on', channel=2, note=52, velocity=0, time=168),\n",
      "    Message('note_on', channel=2, note=59, velocity=0, time=0),\n",
      "    Message('note_on', channel=2, note=59, velocity=84, time=12),\n",
      "    Message('note_on', channel=2, note=64, velocity=84, time=0),\n",
      "    Message('note_on', channel=2, note=59, velocity=0, time=168),\n",
      "    Message('note_on', channel=2, note=64, velocity=0, time=0),\n",
      "    Message('note_on', channel=2, note=57, velocity=84, time=12),\n",
      "    Message('note_on', channel=2, note=64, velocity=84, time=0),\n",
      "    Message('note_on', channel=2, note=57, velocity=0, time=168),\n",
      "    Message('note_on', channel=2, note=64, velocity=0, time=0),\n",
      "    Message('note_on', channel=2, note=59, velocity=84, time=12),\n",
      "    Message('note_on', channel=2, note=67, velocity=84, time=0),\n",
      "    Message('note_on', channel=2, note=59, velocity=0, time=168),\n",
      "    Message('note_on', channel=2, note=67, velocity=0, time=0),\n",
      "    Message('note_on', channel=2, note=67, velocity=84, time=12),\n",
      "    Message('note_on', channel=2, note=60, velocity=84, time=0),\n",
      "    Message('note_on', channel=2, note=67, velocity=0, time=168),\n",
      "    Message('note_on', channel=2, note=60, velocity=0, time=0),\n",
      "    Message('note_on', channel=2, note=57, velocity=84, time=12),\n",
      "    Message('note_on', channel=2, note=50, velocity=84, time=0),\n",
      "    Message('note_on', channel=2, note=57, velocity=0, time=336),\n",
      "    Message('note_on', channel=2, note=50, velocity=0, time=0),\n",
      "    Message('note_on', channel=2, note=54, velocity=84, time=24),\n",
      "    Message('note_on', channel=2, note=54, velocity=0, time=168),\n",
      "    Message('note_on', channel=2, note=43, velocity=84, time=12),\n",
      "    Message('note_on', channel=2, note=55, velocity=84, time=0),\n",
      "    Message('note_on', channel=2, note=43, velocity=0, time=168),\n",
      "    Message('note_on', channel=2, note=55, velocity=0, time=0),\n",
      "    Message('note_on', channel=2, note=55, velocity=84, time=12),\n",
      "    Message('note_on', channel=2, note=62, velocity=84, time=0),\n",
      "    Message('note_on', channel=2, note=55, velocity=0, time=168),\n",
      "    Message('note_on', channel=2, note=62, velocity=0, time=0),\n",
      "    Message('note_on', channel=2, note=60, velocity=84, time=12),\n",
      "    Message('note_on', channel=2, note=52, velocity=84, time=0),\n",
      "    Message('note_on', channel=2, note=60, velocity=0, time=168),\n",
      "    Message('note_on', channel=2, note=52, velocity=0, time=0),\n",
      "    Message('note_on', channel=2, note=55, velocity=84, time=12),\n",
      "    Message('note_on', channel=2, note=47, velocity=84, time=0),\n",
      "    Message('note_on', channel=2, note=55, velocity=0, time=168),\n",
      "    Message('note_on', channel=2, note=47, velocity=0, time=0),\n",
      "    Message('note_on', channel=2, note=52, velocity=84, time=12),\n",
      "    Message('note_on', channel=2, note=59, velocity=84, time=0),\n",
      "    Message('note_on', channel=2, note=52, velocity=0, time=168),\n",
      "    Message('note_on', channel=2, note=59, velocity=0, time=0),\n",
      "    Message('note_on', channel=2, note=64, velocity=84, time=12),\n",
      "    Message('note_on', channel=2, note=59, velocity=84, time=0),\n",
      "    Message('note_on', channel=2, note=64, velocity=0, time=168),\n",
      "    Message('note_on', channel=2, note=59, velocity=0, time=0),\n",
      "    Message('note_on', channel=2, note=48, velocity=84, time=12),\n",
      "    Message('note_on', channel=2, note=57, velocity=84, time=0),\n",
      "    Message('note_on', channel=2, note=48, velocity=0, time=336),\n",
      "    Message('note_on', channel=2, note=57, velocity=0, time=0),\n",
      "    Message('note_on', channel=2, note=50, velocity=84, time=24),\n",
      "    Message('note_on', channel=2, note=57, velocity=84, time=0),\n",
      "    Message('note_on', channel=2, note=60, velocity=84, time=0),\n",
      "    Message('note_on', channel=2, note=50, velocity=0, time=168),\n",
      "    Message('note_on', channel=2, note=57, velocity=0, time=0),\n",
      "    Message('note_on', channel=2, note=60, velocity=0, time=0),\n",
      "    Message('note_on', channel=2, note=59, velocity=84, time=12),\n",
      "    Message('note_on', channel=2, note=55, velocity=84, time=0),\n",
      "    Message('note_on', channel=2, note=62, velocity=84, time=0),\n",
      "    Message('note_on', channel=2, note=59, velocity=0, time=336),\n",
      "    Message('note_on', channel=2, note=55, velocity=0, time=0),\n",
      "    Message('note_on', channel=2, note=62, velocity=0, time=0),\n",
      "    Message('note_on', channel=2, note=55, velocity=84, time=24),\n",
      "    Message('note_on', channel=2, note=55, velocity=0, time=48),\n",
      "    Message('note_on', channel=2, note=59, velocity=84, time=12),\n",
      "    Message('note_on', channel=2, note=59, velocity=0, time=48),\n",
      "    Message('note_on', channel=2, note=61, velocity=84, time=12),\n",
      "    Message('note_on', channel=2, note=61, velocity=0, time=48),\n",
      "    Message('note_on', channel=2, note=62, velocity=84, time=12),\n",
      "    Message('note_on', channel=2, note=62, velocity=0, time=168),\n",
      "    Message('note_on', channel=2, note=60, velocity=84, time=12),\n",
      "    Message('note_on', channel=2, note=60, velocity=0, time=168),\n",
      "    Message('note_on', channel=2, note=59, velocity=84, time=12),\n",
      "    Message('note_on', channel=2, note=59, velocity=0, time=168),\n",
      "    Message('note_on', channel=2, note=57, velocity=84, time=12),\n",
      "    Message('note_on', channel=2, note=57, velocity=0, time=168),\n",
      "    Message('note_on', channel=2, note=57, velocity=84, time=12),\n",
      "    Message('note_on', channel=2, note=57, velocity=0, time=64),\n",
      "    Message('note_on', channel=2, note=55, velocity=84, time=16),\n",
      "    Message('note_on', channel=2, note=55, velocity=0, time=64),\n",
      "    Message('note_on', channel=2, note=53, velocity=84, time=16),\n",
      "    Message('note_on', channel=2, note=53, velocity=0, time=64),\n",
      "    Message('note_on', channel=2, note=52, velocity=84, time=16),\n",
      "    Message('note_on', channel=2, note=52, velocity=0, time=64),\n",
      "    Message('note_on', channel=2, note=53, velocity=84, time=76),\n",
      "    Message('note_on', channel=2, note=53, velocity=0, time=168),\n",
      "    Message('note_on', channel=2, note=47, velocity=84, time=12),\n",
      "    Message('note_on', channel=2, note=47, velocity=0, time=168),\n",
      "    Message('note_on', channel=2, note=50, velocity=84, time=12),\n",
      "    Message('note_on', channel=2, note=62, velocity=84, time=0),\n",
      "    Message('note_on', channel=2, note=50, velocity=0, time=168),\n",
      "    Message('note_on', channel=2, note=62, velocity=0, time=0),\n",
      "    Message('note_on', channel=2, note=60, velocity=84, time=12),\n",
      "    Message('note_on', channel=2, note=57, velocity=84, time=0),\n",
      "    Message('note_on', channel=2, note=60, velocity=0, time=168),\n",
      "    Message('note_on', channel=2, note=57, velocity=0, time=0),\n",
      "    Message('note_on', channel=2, note=60, velocity=84, time=12),\n",
      "    Message('note_on', channel=2, note=64, velocity=84, time=0),\n",
      "    Message('note_on', channel=2, note=57, velocity=84, time=0),\n",
      "    Message('note_on', channel=2, note=60, velocity=0, time=168),\n",
      "    Message('note_on', channel=2, note=64, velocity=0, time=0),\n",
      "    Message('note_on', channel=2, note=57, velocity=0, time=0),\n",
      "    Message('note_on', channel=2, note=62, velocity=84, time=12),\n",
      "    Message('note_on', channel=2, note=53, velocity=84, time=0),\n",
      "    Message('note_on', channel=2, note=62, velocity=0, time=168),\n",
      "    Message('note_on', channel=2, note=53, velocity=0, time=0),\n",
      "    Message('note_on', channel=2, note=57, velocity=84, time=12),\n",
      "    Message('note_on', channel=2, note=48, velocity=84, time=0),\n",
      "    Message('note_on', channel=2, note=57, velocity=0, time=168),\n",
      "    Message('note_on', channel=2, note=48, velocity=0, time=0),\n",
      "    Message('note_on', channel=2, note=60, velocity=84, time=12),\n",
      "    Message('note_on', channel=2, note=53, velocity=84, time=0),\n",
      "    Message('note_on', channel=2, note=60, velocity=0, time=168),\n",
      "    Message('note_on', channel=2, note=53, velocity=0, time=0),\n",
      "    Message('note_on', channel=2, note=60, velocity=84, time=12),\n",
      "    Message('note_on', channel=2, note=52, velocity=84, time=0),\n",
      "    Message('note_on', channel=2, note=60, velocity=0, time=168),\n",
      "    Message('note_on', channel=2, note=52, velocity=0, time=0),\n",
      "    Message('note_on', channel=2, note=50, velocity=84, time=12),\n",
      "    Message('note_on', channel=2, note=50, velocity=0, time=168),\n",
      "    Message('note_on', channel=2, note=51, velocity=84, time=12),\n",
      "    Message('note_on', channel=2, note=51, velocity=0, time=168),\n",
      "    Message('note_on', channel=2, note=52, velocity=84, time=12),\n",
      "    Message('note_on', channel=2, note=52, velocity=0, time=168),\n",
      "    Message('note_on', channel=2, note=45, velocity=84, time=12),\n",
      "    Message('note_on', channel=2, note=45, velocity=0, time=168),\n",
      "    Message('note_on', channel=2, note=57, velocity=84, time=12),\n",
      "    Message('note_on', channel=2, note=57, velocity=0, time=168),\n",
      "    Message('note_on', channel=2, note=59, velocity=84, time=12),\n",
      "    Message('note_on', channel=2, note=47, velocity=84, time=0),\n",
      "    Message('note_on', channel=2, note=59, velocity=0, time=168),\n",
      "    Message('note_on', channel=2, note=47, velocity=0, time=0),\n",
      "    Message('note_on', channel=2, note=60, velocity=84, time=12),\n",
      "    Message('note_on', channel=2, note=48, velocity=84, time=0),\n",
      "    Message('note_on', channel=2, note=60, velocity=0, time=336),\n",
      "    Message('note_on', channel=2, note=48, velocity=0, time=0),\n",
      "    Message('note_on', channel=2, note=60, velocity=84, time=24),\n",
      "    Message('note_on', channel=2, note=52, velocity=84, time=0),\n",
      "    Message('note_on', channel=2, note=60, velocity=0, time=168),\n",
      "    Message('note_on', channel=2, note=52, velocity=0, time=0),\n",
      "    Message('note_on', channel=2, note=53, velocity=84, time=12),\n",
      "    Message('note_on', channel=2, note=53, velocity=0, time=168),\n",
      "    Message('note_on', channel=2, note=50, velocity=84, time=12),\n",
      "    Message('note_on', channel=2, note=50, velocity=0, time=168),\n",
      "    Message('note_on', channel=2, note=55, velocity=84, time=12),\n",
      "    Message('note_on', channel=2, note=43, velocity=84, time=0),\n",
      "    Message('note_on', channel=2, note=55, velocity=0, time=168),\n",
      "    Message('note_on', channel=2, note=43, velocity=0, time=0),\n",
      "    Message('note_on', channel=2, note=48, velocity=84, time=12),\n",
      "    Message('note_on', channel=2, note=55, velocity=84, time=0),\n",
      "    Message('note_on', channel=2, note=48, velocity=0, time=168),\n",
      "    Message('note_on', channel=2, note=55, velocity=0, time=0),\n",
      "    Message('note_on', channel=2, note=52, velocity=84, time=12),\n",
      "    Message('note_on', channel=2, note=52, velocity=0, time=168),\n",
      "    Message('note_on', channel=2, note=60, velocity=84, time=12),\n",
      "    Message('note_on', channel=2, note=60, velocity=0, time=168),\n",
      "    Message('note_on', channel=2, note=60, velocity=84, time=12),\n",
      "    Message('note_on', channel=2, note=53, velocity=84, time=0),\n",
      "    Message('note_on', channel=2, note=60, velocity=0, time=336),\n",
      "    Message('note_on', channel=2, note=53, velocity=0, time=0),\n",
      "    Message('note_on', channel=2, note=55, velocity=84, time=24),\n",
      "    Message('note_on', channel=2, note=47, velocity=84, time=0),\n",
      "    Message('note_on', channel=2, note=55, velocity=0, time=168),\n",
      "    Message('note_on', channel=2, note=47, velocity=0, time=0),\n",
      "    Message('note_on', channel=2, note=55, velocity=84, time=12),\n",
      "    Message('note_on', channel=2, note=48, velocity=84, time=0),\n",
      "    Message('note_on', channel=2, note=55, velocity=0, time=336),\n",
      "    Message('note_on', channel=2, note=48, velocity=0, time=0),\n",
      "    Message('note_on', channel=2, note=59, velocity=84, time=24),\n",
      "    Message('note_on', channel=2, note=59, velocity=0, time=168),\n",
      "    Message('note_on', channel=2, note=62, velocity=84, time=12),\n",
      "    Message('note_on', channel=2, note=55, velocity=84, time=0),\n",
      "    Message('note_on', channel=2, note=62, velocity=0, time=168),\n",
      "    Message('note_on', channel=2, note=55, velocity=0, time=0),\n",
      "    Message('note_on', channel=2, note=43, velocity=84, time=12),\n",
      "    Message('note_on', channel=2, note=43, velocity=0, time=168),\n",
      "    Message('note_on', channel=2, note=52, velocity=84, time=12),\n",
      "    Message('note_on', channel=2, note=40, velocity=84, time=0),\n",
      "    Message('note_on', channel=2, note=52, velocity=0, time=168),\n",
      "    Message('note_on', channel=2, note=40, velocity=0, time=0),\n",
      "    Message('note_on', channel=2, note=47, velocity=84, time=12),\n",
      "    Message('note_on', channel=2, note=59, velocity=84, time=0),\n",
      "    Message('note_on', channel=2, note=47, velocity=0, time=168),\n",
      "    Message('note_on', channel=2, note=59, velocity=0, time=0),\n",
      "    Message('note_on', channel=2, note=40, velocity=84, time=12),\n",
      "    Message('note_on', channel=2, note=52, velocity=84, time=0),\n",
      "    Message('note_on', channel=2, note=40, velocity=0, time=168),\n",
      "    Message('note_on', channel=2, note=52, velocity=0, time=0),\n",
      "    Message('note_on', channel=2, note=52, velocity=84, time=12),\n",
      "    Message('note_on', channel=2, note=59, velocity=84, time=0),\n",
      "    Message('note_on', channel=2, note=52, velocity=0, time=168),\n",
      "    Message('note_on', channel=2, note=59, velocity=0, time=0),\n",
      "    Message('note_on', channel=2, note=42, velocity=84, time=12),\n",
      "    Message('note_on', channel=2, note=54, velocity=84, time=0),\n",
      "    Message('note_on', channel=2, note=42, velocity=0, time=168),\n",
      "    Message('note_on', channel=2, note=54, velocity=0, time=0),\n",
      "    Message('note_on', channel=2, note=55, velocity=84, time=12),\n",
      "    Message('note_on', channel=2, note=47, velocity=84, time=0),\n",
      "    Message('note_on', channel=2, note=55, velocity=0, time=168),\n",
      "    Message('note_on', channel=2, note=47, velocity=0, time=0),\n",
      "    Message('note_on', channel=2, note=48, velocity=84, time=12),\n",
      "    Message('note_on', channel=2, note=48, velocity=0, time=168),\n",
      "    Message('note_on', channel=2, note=50, velocity=84, time=12),\n",
      "    Message('note_on', channel=2, note=38, velocity=84, time=0),\n",
      "    Message('note_on', channel=2, note=50, velocity=0, time=528),\n",
      "    Message('note_on', channel=2, note=38, velocity=0, time=0),\n",
      "    Message('note_on', channel=2, note=54, velocity=84, time=12),\n",
      "    Message('note_on', channel=2, note=50, velocity=84, time=0),\n",
      "    Message('note_on', channel=2, note=54, velocity=0, time=528),\n",
      "    Message('note_on', channel=2, note=50, velocity=0, time=0),\n",
      "    Message('note_on', channel=2, note=43, velocity=84, time=12),\n",
      "    Message('note_on', channel=2, note=55, velocity=84, time=0),\n",
      "    Message('note_on', channel=2, note=43, velocity=0, time=168),\n",
      "    Message('note_on', channel=2, note=55, velocity=0, time=0),\n",
      "    Message('note_on', channel=2, note=42, velocity=84, time=12),\n",
      "    Message('note_on', channel=2, note=54, velocity=84, time=0),\n",
      "    Message('note_on', channel=2, note=42, velocity=0, time=168),\n",
      "    Message('note_on', channel=2, note=54, velocity=0, time=0),\n",
      "    Message('note_on', channel=2, note=40, velocity=84, time=12),\n",
      "    Message('note_on', channel=2, note=52, velocity=84, time=0),\n",
      "    Message('note_on', channel=2, note=40, velocity=0, time=168),\n",
      "    Message('note_on', channel=2, note=52, velocity=0, time=0),\n",
      "    Message('note_on', channel=2, note=55, velocity=84, time=12),\n",
      "    Message('note_on', channel=2, note=47, velocity=84, time=0),\n",
      "    Message('note_on', channel=2, note=55, velocity=0, time=168),\n",
      "    Message('note_on', channel=2, note=47, velocity=0, time=0),\n",
      "    Message('note_on', channel=2, note=47, velocity=84, time=12),\n",
      "    Message('note_on', channel=2, note=35, velocity=84, time=0),\n",
      "    Message('note_on', channel=2, note=47, velocity=0, time=168),\n",
      "    Message('note_on', channel=2, note=35, velocity=0, time=0),\n",
      "    Message('note_on', channel=2, note=52, velocity=84, time=12),\n",
      "    Message('note_on', channel=2, note=52, velocity=0, time=168),\n",
      "    Message('note_on', channel=2, note=48, velocity=84, time=12),\n",
      "    Message('note_on', channel=2, note=36, velocity=84, time=0),\n",
      "    Message('note_on', channel=2, note=48, velocity=0, time=168),\n",
      "    Message('note_on', channel=2, note=36, velocity=0, time=0),\n",
      "    Message('note_on', channel=2, note=38, velocity=84, time=12),\n",
      "    Message('note_on', channel=2, note=50, velocity=84, time=0),\n",
      "    Message('note_on', channel=2, note=38, velocity=0, time=336),\n",
      "    Message('note_on', channel=2, note=50, velocity=0, time=0),\n",
      "    Message('note_on', channel=2, note=55, velocity=84, time=24),\n",
      "    Message('note_on', channel=2, note=43, velocity=84, time=0),\n",
      "    Message('note_on', channel=2, note=55, velocity=0, time=168),\n",
      "    Message('note_on', channel=2, note=43, velocity=0, time=0),\n",
      "    Message('note_on', channel=2, note=59, velocity=84, time=12),\n",
      "    Message('note_on', channel=2, note=59, velocity=0, time=168),\n",
      "    Message('note_on', channel=2, note=50, velocity=84, time=12),\n",
      "    Message('note_on', channel=2, note=50, velocity=0, time=168),\n",
      "    Message('note_on', channel=2, note=55, velocity=84, time=12),\n",
      "    Message('note_on', channel=2, note=59, velocity=84, time=0),\n",
      "    Message('note_on', channel=2, note=55, velocity=0, time=336),\n",
      "    Message('note_on', channel=2, note=59, velocity=0, time=0),\n",
      "    Message('note_on', channel=2, note=60, velocity=84, time=24),\n",
      "    Message('note_on', channel=2, note=55, velocity=84, time=0),\n",
      "    Message('note_on', channel=2, note=60, velocity=0, time=168),\n",
      "    Message('note_on', channel=2, note=55, velocity=0, time=0),\n",
      "    Message('note_on', channel=2, note=57, velocity=84, time=12),\n",
      "    Message('note_on', channel=2, note=55, velocity=84, time=0),\n",
      "    Message('note_on', channel=2, note=57, velocity=0, time=168),\n",
      "    Message('note_on', channel=2, note=55, velocity=0, time=0),\n",
      "    Message('note_on', channel=2, note=59, velocity=84, time=12),\n",
      "    Message('note_on', channel=2, note=59, velocity=0, time=168),\n",
      "    Message('note_on', channel=2, note=62, velocity=84, time=12),\n",
      "    Message('note_on', channel=2, note=62, velocity=0, time=168),\n",
      "    Message('note_on', channel=2, note=43, velocity=84, time=12),\n",
      "    Message('note_on', channel=2, note=43, velocity=0, time=336),\n",
      "    Message('note_on', channel=2, note=43, velocity=84, time=24),\n",
      "    Message('note_on', channel=2, note=54, velocity=84, time=0),\n",
      "    Message('note_on', channel=2, note=43, velocity=0, time=168),\n",
      "    Message('note_on', channel=2, note=54, velocity=0, time=0),\n",
      "    Message('note_on', channel=2, note=55, velocity=84, time=12),\n",
      "    Message('note_on', channel=2, note=43, velocity=84, time=0),\n",
      "    Message('note_on', channel=2, note=55, velocity=0, time=168),\n",
      "    Message('note_on', channel=2, note=43, velocity=0, time=0),\n",
      "    Message('note_on', channel=2, note=62, velocity=84, time=12),\n",
      "    Message('note_on', channel=2, note=55, velocity=84, time=0),\n",
      "    Message('note_on', channel=2, note=62, velocity=0, time=168),\n",
      "    Message('note_on', channel=2, note=55, velocity=0, time=0),\n",
      "    Message('note_on', channel=2, note=60, velocity=84, time=12),\n",
      "    Message('note_on', channel=2, note=52, velocity=84, time=0),\n",
      "    Message('note_on', channel=2, note=60, velocity=0, time=168),\n",
      "    Message('note_on', channel=2, note=52, velocity=0, time=0),\n",
      "    Message('note_on', channel=2, note=47, velocity=84, time=12),\n",
      "    Message('note_on', channel=2, note=55, velocity=84, time=0),\n",
      "    Message('note_on', channel=2, note=47, velocity=0, time=168),\n",
      "    Message('note_on', channel=2, note=55, velocity=0, time=0),\n",
      "    Message('note_on', channel=2, note=52, velocity=84, time=12),\n",
      "    Message('note_on', channel=2, note=59, velocity=84, time=0),\n",
      "    Message('note_on', channel=2, note=52, velocity=0, time=168),\n",
      "    Message('note_on', channel=2, note=59, velocity=0, time=0),\n",
      "    Message('note_on', channel=2, note=64, velocity=84, time=12),\n",
      "    Message('note_on', channel=2, note=59, velocity=84, time=0),\n",
      "    Message('note_on', channel=2, note=64, velocity=0, time=168),\n",
      "    Message('note_on', channel=2, note=59, velocity=0, time=0),\n",
      "    Message('note_on', channel=2, note=64, velocity=84, time=12),\n",
      "    Message('note_on', channel=2, note=57, velocity=84, time=0),\n",
      "    Message('note_on', channel=2, note=64, velocity=0, time=168),\n",
      "    Message('note_on', channel=2, note=57, velocity=0, time=0),\n",
      "    Message('note_on', channel=2, note=59, velocity=84, time=12),\n",
      "    Message('note_on', channel=2, note=67, velocity=84, time=0),\n",
      "    Message('note_on', channel=2, note=59, velocity=0, time=168),\n",
      "    Message('note_on', channel=2, note=67, velocity=0, time=0),\n",
      "    Message('note_on', channel=2, note=60, velocity=84, time=12),\n",
      "    Message('note_on', channel=2, note=57, velocity=84, time=0),\n",
      "    Message('note_on', channel=2, note=60, velocity=0, time=168),\n",
      "    Message('note_on', channel=2, note=57, velocity=0, time=0),\n",
      "    Message('note_on', channel=2, note=57, velocity=84, time=12),\n",
      "    Message('note_on', channel=2, note=50, velocity=84, time=0),\n",
      "    Message('note_on', channel=2, note=57, velocity=0, time=336),\n",
      "    Message('note_on', channel=2, note=50, velocity=0, time=0),\n",
      "    Message('note_on', channel=2, note=54, velocity=84, time=24),\n",
      "    Message('note_on', channel=2, note=54, velocity=0, time=168),\n",
      "    Message('note_on', channel=2, note=43, velocity=84, time=12),\n",
      "    Message('note_on', channel=2, note=55, velocity=84, time=0),\n",
      "    Message('note_on', channel=2, note=43, velocity=0, time=168),\n",
      "    Message('note_on', channel=2, note=55, velocity=0, time=0),\n",
      "    Message('note_on', channel=2, note=55, velocity=84, time=12),\n",
      "    Message('note_on', channel=2, note=62, velocity=84, time=0),\n",
      "    Message('note_on', channel=2, note=55, velocity=0, time=168),\n",
      "    Message('note_on', channel=2, note=62, velocity=0, time=0),\n",
      "    Message('note_on', channel=2, note=52, velocity=84, time=12),\n",
      "    Message('note_on', channel=2, note=60, velocity=84, time=0),\n",
      "    Message('note_on', channel=2, note=52, velocity=0, time=168),\n",
      "    Message('note_on', channel=2, note=60, velocity=0, time=0),\n",
      "    Message('note_on', channel=2, note=55, velocity=84, time=12),\n",
      "    Message('note_on', channel=2, note=47, velocity=84, time=0),\n",
      "    Message('note_on', channel=2, note=55, velocity=0, time=168),\n",
      "    Message('note_on', channel=2, note=47, velocity=0, time=0),\n",
      "    Message('note_on', channel=2, note=52, velocity=84, time=12),\n",
      "    Message('note_on', channel=2, note=59, velocity=84, time=0),\n",
      "    Message('note_on', channel=2, note=52, velocity=0, time=168),\n",
      "    Message('note_on', channel=2, note=59, velocity=0, time=0),\n",
      "    Message('note_on', channel=2, note=59, velocity=84, time=12),\n",
      "    Message('note_on', channel=2, note=64, velocity=84, time=0),\n",
      "    Message('note_on', channel=2, note=59, velocity=0, time=168),\n",
      "    Message('note_on', channel=2, note=64, velocity=0, time=0),\n",
      "    Message('note_on', channel=2, note=57, velocity=84, time=12),\n",
      "    Message('note_on', channel=2, note=48, velocity=84, time=0),\n",
      "    Message('note_on', channel=2, note=57, velocity=0, time=336),\n",
      "    Message('note_on', channel=2, note=48, velocity=0, time=0),\n",
      "    Message('note_on', channel=2, note=60, velocity=84, time=24),\n",
      "    Message('note_on', channel=2, note=57, velocity=84, time=0),\n",
      "    Message('note_on', channel=2, note=50, velocity=84, time=0),\n",
      "    Message('note_on', channel=2, note=60, velocity=0, time=168),\n",
      "    Message('note_on', channel=2, note=57, velocity=0, time=0),\n",
      "    Message('note_on', channel=2, note=50, velocity=0, time=0),\n",
      "    Message('note_on', channel=2, note=43, velocity=84, time=12),\n",
      "    Message('note_on', channel=2, note=31, velocity=84, time=0),\n",
      "    Message('note_on', channel=2, note=43, velocity=0, time=528),\n",
      "    Message('note_on', channel=2, note=31, velocity=0, time=0),\n",
      "    MetaMessage('end_of_track', time=0)]),\n",
      "  MidiTrack([\n",
      "    MetaMessage('track_name', name='Arranged by', time=0),\n",
      "    MetaMessage('instrument_name', name='Harpsichord', time=0),\n",
      "    MetaMessage('midi_port', port=0, time=0),\n",
      "    Message('control_change', channel=3, control=0, value=80, time=0),\n",
      "    Message('control_change', channel=3, control=32, value=0, time=0),\n",
      "    Message('program_change', channel=3, program=6, time=0),\n",
      "    Message('note_on', channel=3, note=67, velocity=94, time=60),\n",
      "    Message('note_on', channel=3, note=67, velocity=0, time=48),\n",
      "    Message('note_on', channel=3, note=69, velocity=94, time=12),\n",
      "    Message('note_on', channel=3, note=69, velocity=0, time=48),\n",
      "    Message('note_on', channel=3, note=71, velocity=94, time=12),\n",
      "    Message('note_on', channel=3, note=71, velocity=0, time=48),\n",
      "    Message('note_on', channel=3, note=74, velocity=94, time=12),\n",
      "    Message('note_on', channel=3, note=74, velocity=0, time=48),\n",
      "    Message('note_on', channel=3, note=72, velocity=94, time=12),\n",
      "    Message('note_on', channel=3, note=72, velocity=0, time=48),\n",
      "    Message('note_on', channel=3, note=72, velocity=94, time=12),\n",
      "    Message('note_on', channel=3, note=72, velocity=0, time=48),\n",
      "    Message('note_on', channel=3, note=76, velocity=94, time=12),\n",
      "    Message('note_on', channel=3, note=76, velocity=0, time=48),\n",
      "    Message('note_on', channel=3, note=74, velocity=94, time=12),\n",
      "    Message('note_on', channel=3, note=74, velocity=0, time=48),\n",
      "    Message('note_on', channel=3, note=74, velocity=94, time=12),\n",
      "    Message('note_on', channel=3, note=74, velocity=0, time=48),\n",
      "    Message('note_on', channel=3, note=79, velocity=94, time=12),\n",
      "    Message('note_on', channel=3, note=79, velocity=0, time=48),\n",
      "    Message('note_on', channel=3, note=78, velocity=94, time=12),\n",
      "    Message('note_on', channel=3, note=78, velocity=0, time=48),\n",
      "    Message('note_on', channel=3, note=79, velocity=94, time=12),\n",
      "    Message('note_on', channel=3, note=79, velocity=0, time=48),\n",
      "    Message('note_on', channel=3, note=74, velocity=94, time=12),\n",
      "    Message('note_on', channel=3, note=74, velocity=0, time=48),\n",
      "    Message('note_on', channel=3, note=71, velocity=94, time=12),\n",
      "    Message('note_on', channel=3, note=71, velocity=0, time=48),\n",
      "    Message('note_on', channel=3, note=67, velocity=94, time=12),\n",
      "    Message('note_on', channel=3, note=67, velocity=0, time=48),\n",
      "    Message('note_on', channel=3, note=69, velocity=94, time=12),\n",
      "    Message('note_on', channel=3, note=69, velocity=0, time=48),\n",
      "    Message('note_on', channel=3, note=71, velocity=94, time=12),\n",
      "    Message('note_on', channel=3, note=71, velocity=0, time=48),\n",
      "    Message('note_on', channel=3, note=72, velocity=94, time=12),\n",
      "    Message('note_on', channel=3, note=72, velocity=0, time=48),\n",
      "    Message('note_on', channel=3, note=74, velocity=94, time=12),\n",
      "    Message('note_on', channel=3, note=74, velocity=0, time=48),\n",
      "    Message('note_on', channel=3, note=76, velocity=94, time=12),\n",
      "    Message('note_on', channel=3, note=76, velocity=0, time=48),\n",
      "    Message('note_on', channel=3, note=74, velocity=94, time=12),\n",
      "    Message('note_on', channel=3, note=74, velocity=0, time=48),\n",
      "    Message('note_on', channel=3, note=72, velocity=94, time=12),\n",
      "    Message('note_on', channel=3, note=72, velocity=0, time=48),\n",
      "    Message('note_on', channel=3, note=71, velocity=94, time=12),\n",
      "    Message('note_on', channel=3, note=71, velocity=0, time=48),\n",
      "    Message('note_on', channel=3, note=69, velocity=94, time=12),\n",
      "    Message('note_on', channel=3, note=69, velocity=0, time=48),\n",
      "    Message('note_on', channel=3, note=71, velocity=94, time=12),\n",
      "    Message('note_on', channel=3, note=71, velocity=0, time=48),\n",
      "    Message('note_on', channel=3, note=67, velocity=94, time=12),\n",
      "    Message('note_on', channel=3, note=67, velocity=0, time=48),\n",
      "    Message('note_on', channel=3, note=66, velocity=94, time=12),\n",
      "    Message('note_on', channel=3, note=66, velocity=0, time=48),\n",
      "    Message('note_on', channel=3, note=67, velocity=94, time=12),\n",
      "    Message('note_on', channel=3, note=67, velocity=0, time=48),\n",
      "    Message('note_on', channel=3, note=69, velocity=94, time=12),\n",
      "    Message('note_on', channel=3, note=69, velocity=0, time=48),\n",
      "    Message('note_on', channel=3, note=62, velocity=94, time=12),\n",
      "    Message('note_on', channel=3, note=62, velocity=0, time=48),\n",
      "    Message('note_on', channel=3, note=66, velocity=94, time=12),\n",
      "    Message('note_on', channel=3, note=66, velocity=0, time=48),\n",
      "    Message('note_on', channel=3, note=69, velocity=94, time=12),\n",
      "    Message('note_on', channel=3, note=69, velocity=0, time=48),\n",
      "    Message('note_on', channel=3, note=72, velocity=94, time=12),\n",
      "    Message('note_on', channel=3, note=72, velocity=0, time=48),\n",
      "    Message('note_on', channel=3, note=71, velocity=94, time=12),\n",
      "    Message('note_on', channel=3, note=71, velocity=0, time=48),\n",
      "    Message('note_on', channel=3, note=69, velocity=94, time=12),\n",
      "    Message('note_on', channel=3, note=69, velocity=0, time=48),\n",
      "    Message('note_on', channel=3, note=71, velocity=94, time=12),\n",
      "    Message('note_on', channel=3, note=71, velocity=0, time=48),\n",
      "    Message('note_on', channel=3, note=67, velocity=94, time=12),\n",
      "    Message('note_on', channel=3, note=67, velocity=0, time=48),\n",
      "    Message('note_on', channel=3, note=69, velocity=94, time=12),\n",
      "    Message('note_on', channel=3, note=69, velocity=0, time=48),\n",
      "    Message('note_on', channel=3, note=71, velocity=94, time=12),\n",
      "    Message('note_on', channel=3, note=71, velocity=0, time=48),\n",
      "    Message('note_on', channel=3, note=74, velocity=94, time=12),\n",
      "    Message('note_on', channel=3, note=74, velocity=0, time=48),\n",
      "    Message('note_on', channel=3, note=72, velocity=94, time=12),\n",
      "    Message('note_on', channel=3, note=72, velocity=0, time=48),\n",
      "    Message('note_on', channel=3, note=72, velocity=94, time=12),\n",
      "    Message('note_on', channel=3, note=72, velocity=0, time=48),\n",
      "    Message('note_on', channel=3, note=76, velocity=94, time=12),\n",
      "    Message('note_on', channel=3, note=76, velocity=0, time=48),\n",
      "    Message('note_on', channel=3, note=74, velocity=94, time=12),\n",
      "    Message('note_on', channel=3, note=74, velocity=0, time=48),\n",
      "    Message('note_on', channel=3, note=74, velocity=94, time=12),\n",
      "    Message('note_on', channel=3, note=74, velocity=0, time=48),\n",
      "    Message('note_on', channel=3, note=79, velocity=94, time=12),\n",
      "    Message('note_on', channel=3, note=79, velocity=0, time=48),\n",
      "    Message('note_on', channel=3, note=78, velocity=94, time=12),\n",
      "    Message('note_on', channel=3, note=78, velocity=0, time=48),\n",
      "    Message('note_on', channel=3, note=79, velocity=94, time=12),\n",
      "    Message('note_on', channel=3, note=79, velocity=0, time=48),\n",
      "    Message('note_on', channel=3, note=74, velocity=94, time=12),\n",
      "    Message('note_on', channel=3, note=74, velocity=0, time=48),\n",
      "    Message('note_on', channel=3, note=71, velocity=94, time=12),\n",
      "    Message('note_on', channel=3, note=71, velocity=0, time=48),\n",
      "    Message('note_on', channel=3, note=67, velocity=94, time=12),\n",
      "    Message('note_on', channel=3, note=67, velocity=0, time=48),\n",
      "    Message('note_on', channel=3, note=69, velocity=94, time=12),\n",
      "    Message('note_on', channel=3, note=69, velocity=0, time=48),\n",
      "    Message('note_on', channel=3, note=71, velocity=94, time=12),\n",
      "    Message('note_on', channel=3, note=71, velocity=0, time=48),\n",
      "    Message('note_on', channel=3, note=64, velocity=94, time=12),\n",
      "    Message('note_on', channel=3, note=64, velocity=0, time=48),\n",
      "    Message('note_on', channel=3, note=74, velocity=94, time=12),\n",
      "    Message('note_on', channel=3, note=74, velocity=0, time=48),\n",
      "    Message('note_on', channel=3, note=72, velocity=94, time=12),\n",
      "    Message('note_on', channel=3, note=72, velocity=0, time=48),\n",
      "    Message('note_on', channel=3, note=71, velocity=94, time=12),\n",
      "    Message('note_on', channel=3, note=71, velocity=0, time=48),\n",
      "    Message('note_on', channel=3, note=69, velocity=94, time=12),\n",
      "    Message('note_on', channel=3, note=69, velocity=0, time=48),\n",
      "    Message('note_on', channel=3, note=67, velocity=94, time=12),\n",
      "    Message('note_on', channel=3, note=67, velocity=0, time=48),\n",
      "    Message('note_on', channel=3, note=62, velocity=94, time=12),\n",
      "    Message('note_on', channel=3, note=62, velocity=0, time=48),\n",
      "    Message('note_on', channel=3, note=67, velocity=94, time=12),\n",
      "    Message('note_on', channel=3, note=67, velocity=0, time=48),\n",
      "    Message('note_on', channel=3, note=66, velocity=94, time=12),\n",
      "    Message('note_on', channel=3, note=66, velocity=0, time=48),\n",
      "    Message('note_on', channel=3, note=67, velocity=94, time=12),\n",
      "    Message('note_on', channel=3, note=67, velocity=0, time=48),\n",
      "    Message('note_on', channel=3, note=71, velocity=94, time=12),\n",
      "    Message('note_on', channel=3, note=71, velocity=0, time=48),\n",
      "    Message('note_on', channel=3, note=74, velocity=94, time=12),\n",
      "    Message('note_on', channel=3, note=74, velocity=0, time=48),\n",
      "    Message('note_on', channel=3, note=79, velocity=94, time=12),\n",
      "    Message('note_on', channel=3, note=79, velocity=0, time=48),\n",
      "    Message('note_on', channel=3, note=74, velocity=94, time=12),\n",
      "    Message('note_on', channel=3, note=74, velocity=0, time=48),\n",
      "    Message('note_on', channel=3, note=71, velocity=94, time=12),\n",
      "    Message('note_on', channel=3, note=71, velocity=0, time=48),\n",
      "    Message('note_on', channel=3, note=67, velocity=94, time=12),\n",
      "    Message('note_on', channel=3, note=67, velocity=0, time=48),\n",
      "    Message('note_on', channel=3, note=71, velocity=94, time=12),\n",
      "    Message('note_on', channel=3, note=71, velocity=0, time=48),\n",
      "    Message('note_on', channel=3, note=74, velocity=94, time=12),\n",
      "    Message('note_on', channel=3, note=74, velocity=0, time=48),\n",
      "    Message('note_on', channel=3, note=62, velocity=94, time=12),\n",
      "    Message('note_on', channel=3, note=71, velocity=94, time=0),\n",
      "    Message('note_on', channel=3, note=67, velocity=94, time=0),\n",
      "    Message('note_on', channel=3, note=62, velocity=0, time=336),\n",
      "    Message('note_on', channel=3, note=71, velocity=0, time=0),\n",
      "    Message('note_on', channel=3, note=67, velocity=0, time=0),\n",
      "    Message('note_on', channel=3, note=64, velocity=94, time=24),\n",
      "    Message('note_on', channel=3, note=67, velocity=94, time=0),\n",
      "    Message('note_on', channel=3, note=60, velocity=94, time=0),\n",
      "    Message('note_on', channel=3, note=72, velocity=94, time=0),\n",
      "    Message('note_on', channel=3, note=64, velocity=0, time=168),\n",
      "    Message('note_on', channel=3, note=67, velocity=0, time=0),\n",
      "    Message('note_on', channel=3, note=60, velocity=0, time=0),\n",
      "    Message('note_on', channel=3, note=72, velocity=0, time=0),\n",
      "    Message('note_on', channel=3, note=74, velocity=94, time=12),\n",
      "    Message('note_on', channel=3, note=74, velocity=0, time=336),\n",
      "    Message('note_on', channel=3, note=66, velocity=94, time=24),\n",
      "    Message('note_on', channel=3, note=71, velocity=94, time=0),\n",
      "    Message('note_on', channel=3, note=74, velocity=94, time=0),\n",
      "    Message('note_on', channel=3, note=62, velocity=94, time=0),\n",
      "    Message('note_on', channel=3, note=66, velocity=0, time=168),\n",
      "    Message('note_on', channel=3, note=71, velocity=0, time=0),\n",
      "    Message('note_on', channel=3, note=74, velocity=0, time=0),\n",
      "    Message('note_on', channel=3, note=62, velocity=0, time=0),\n",
      "    Message('note_on', channel=3, note=72, velocity=94, time=12),\n",
      "    Message('note_on', channel=3, note=72, velocity=0, time=336),\n",
      "    Message('note_on', channel=3, note=67, velocity=94, time=24),\n",
      "    Message('note_on', channel=3, note=62, velocity=94, time=0),\n",
      "    Message('note_on', channel=3, note=71, velocity=94, time=0),\n",
      "    Message('note_on', channel=3, note=67, velocity=0, time=168),\n",
      "    Message('note_on', channel=3, note=62, velocity=0, time=0),\n",
      "    Message('note_on', channel=3, note=71, velocity=0, time=0),\n",
      "    Message('note_on', channel=3, note=66, velocity=94, time=12),\n",
      "    Message('note_on', channel=3, note=69, velocity=94, time=0),\n",
      "    Message('note_on', channel=3, note=66, velocity=0, time=48),\n",
      "    Message('note_on', channel=3, note=69, velocity=0, time=0),\n",
      "    Message('note_on', channel=3, note=62, velocity=94, time=12),\n",
      "    Message('note_on', channel=3, note=62, velocity=0, time=48),\n",
      "    Message('note_on', channel=3, note=64, velocity=94, time=12),\n",
      "    Message('note_on', channel=3, note=64, velocity=0, time=48),\n",
      "    Message('note_on', channel=3, note=66, velocity=94, time=12),\n",
      "    Message('note_on', channel=3, note=69, velocity=94, time=0),\n",
      "    Message('note_on', channel=3, note=66, velocity=0, time=48),\n",
      "    Message('note_on', channel=3, note=69, velocity=0, time=0),\n",
      "    Message('note_on', channel=3, note=69, velocity=94, time=12),\n",
      "    Message('note_on', channel=3, note=69, velocity=0, time=48),\n",
      "    Message('note_on', channel=3, note=67, velocity=94, time=12),\n",
      "    Message('note_on', channel=3, note=67, velocity=0, time=48),\n",
      "    Message('note_on', channel=3, note=69, velocity=94, time=12),\n",
      "    Message('note_on', channel=3, note=69, velocity=0, time=48),\n",
      "    Message('note_on', channel=3, note=72, velocity=94, time=12),\n",
      "    Message('note_on', channel=3, note=72, velocity=0, time=48),\n",
      "    Message('note_on', channel=3, note=71, velocity=94, time=12),\n",
      "    Message('note_on', channel=3, note=71, velocity=0, time=48),\n",
      "    Message('note_on', channel=3, note=72, velocity=94, time=12),\n",
      "    Message('note_on', channel=3, note=72, velocity=0, time=48),\n",
      "    Message('note_on', channel=3, note=69, velocity=94, time=12),\n",
      "    Message('note_on', channel=3, note=69, velocity=0, time=48),\n",
      "    Message('note_on', channel=3, note=66, velocity=94, time=12),\n",
      "    Message('note_on', channel=3, note=66, velocity=0, time=48),\n",
      "    Message('note_on', channel=3, note=62, velocity=94, time=12),\n",
      "    Message('note_on', channel=3, note=62, velocity=0, time=48),\n",
      "    Message('note_on', channel=3, note=66, velocity=94, time=12),\n",
      "    Message('note_on', channel=3, note=66, velocity=0, time=48),\n",
      "    Message('note_on', channel=3, note=69, velocity=94, time=12),\n",
      "    Message('note_on', channel=3, note=69, velocity=0, time=48),\n",
      "    Message('note_on', channel=3, note=72, velocity=94, time=12),\n",
      "    Message('note_on', channel=3, note=72, velocity=0, time=48),\n",
      "    Message('note_on', channel=3, note=71, velocity=94, time=12),\n",
      "    Message('note_on', channel=3, note=71, velocity=0, time=48),\n",
      "    Message('note_on', channel=3, note=69, velocity=94, time=12),\n",
      "    Message('note_on', channel=3, note=69, velocity=0, time=48),\n",
      "    Message('note_on', channel=3, note=67, velocity=94, time=12),\n",
      "    Message('note_on', channel=3, note=71, velocity=94, time=0),\n",
      "    Message('note_on', channel=3, note=67, velocity=0, time=336),\n",
      "    Message('note_on', channel=3, note=71, velocity=0, time=0),\n",
      "    Message('note_on', channel=3, note=64, velocity=94, time=24),\n",
      "    Message('note_on', channel=3, note=72, velocity=94, time=0),\n",
      "    Message('note_on', channel=3, note=67, velocity=94, time=0),\n",
      "    Message('note_on', channel=3, note=60, velocity=94, time=0),\n",
      "    Message('note_on', channel=3, note=64, velocity=0, time=168),\n",
      "    Message('note_on', channel=3, note=72, velocity=0, time=0),\n",
      "    Message('note_on', channel=3, note=67, velocity=0, time=0),\n",
      "    Message('note_on', channel=3, note=60, velocity=0, time=0),\n",
      "    Message('note_on', channel=3, note=67, velocity=94, time=12),\n",
      "    Message('note_on', channel=3, note=62, velocity=94, time=0),\n",
      "    Message('note_on', channel=3, note=74, velocity=94, time=0),\n",
      "    Message('note_on', channel=3, note=67, velocity=0, time=336),\n",
      "    Message('note_on', channel=3, note=62, velocity=0, time=0),\n",
      "    Message('note_on', channel=3, note=74, velocity=0, time=0),\n",
      "    Message('note_on', channel=3, note=67, velocity=94, time=24),\n",
      "    Message('note_on', channel=3, note=64, velocity=94, time=0),\n",
      "    Message('note_on', channel=3, note=71, velocity=94, time=0),\n",
      "    Message('note_on', channel=3, note=67, velocity=0, time=168),\n",
      "    Message('note_on', channel=3, note=64, velocity=0, time=0),\n",
      "    Message('note_on', channel=3, note=71, velocity=0, time=0),\n",
      "    Message('note_on', channel=3, note=69, velocity=53, time=12),\n",
      "    Message('note_on', channel=3, note=69, velocity=0, time=116),\n",
      "    Message('note_on', channel=3, note=71, velocity=64, time=4),\n",
      "    Message('note_on', channel=3, note=72, velocity=58, time=30),\n",
      "    Message('note_on', channel=3, note=71, velocity=0, time=14),\n",
      "    Message('note_on', channel=3, note=71, velocity=55, time=16),\n",
      "    Message('note_on', channel=3, note=66, velocity=57, time=0),\n",
      "    Message('note_on', channel=3, note=62, velocity=45, time=0),\n",
      "    Message('note_on', channel=3, note=72, velocity=0, time=14),\n",
      "    Message('note_on', channel=3, note=66, velocity=45, time=166),\n",
      "    Message('note_on', channel=3, note=60, velocity=36, time=0),\n",
      "    Message('note_on', channel=3, note=69, velocity=35, time=0),\n",
      "    Message('note_on', channel=3, note=71, velocity=0, time=8),\n",
      "    Message('note_on', channel=3, note=66, velocity=0, time=0),\n",
      "    Message('note_on', channel=3, note=62, velocity=0, time=0),\n",
      "    Message('note_on', channel=3, note=67, velocity=94, time=172),\n",
      "    Message('note_on', channel=3, note=66, velocity=0, time=8),\n",
      "    Message('note_on', channel=3, note=60, velocity=0, time=0),\n",
      "    Message('note_on', channel=3, note=69, velocity=0, time=0),\n",
      "    Message('note_on', channel=3, note=67, velocity=0, time=40),\n",
      "    Message('note_on', channel=3, note=71, velocity=94, time=12),\n",
      "    Message('note_on', channel=3, note=71, velocity=0, time=48),\n",
      "    Message('note_on', channel=3, note=69, velocity=94, time=12),\n",
      "    Message('note_on', channel=3, note=69, velocity=0, time=48),\n",
      "    Message('note_on', channel=3, note=71, velocity=94, time=12),\n",
      "    Message('note_on', channel=3, note=71, velocity=0, time=48),\n",
      "    Message('note_on', channel=3, note=74, velocity=94, time=12),\n",
      "    Message('note_on', channel=3, note=74, velocity=0, time=48),\n",
      "    Message('note_on', channel=3, note=72, velocity=94, time=12),\n",
      "    Message('note_on', channel=3, note=72, velocity=0, time=48),\n",
      "    Message('note_on', channel=3, note=72, velocity=94, time=12),\n",
      "    Message('note_on', channel=3, note=72, velocity=0, time=48),\n",
      "    Message('note_on', channel=3, note=76, velocity=94, time=12),\n",
      "    Message('note_on', channel=3, note=76, velocity=0, time=48),\n",
      "    Message('note_on', channel=3, note=74, velocity=94, time=12),\n",
      "    Message('note_on', channel=3, note=74, velocity=0, time=48),\n",
      "    Message('note_on', channel=3, note=74, velocity=94, time=12),\n",
      "    Message('note_on', channel=3, note=74, velocity=0, time=48),\n",
      "    Message('note_on', channel=3, note=79, velocity=94, time=12),\n",
      "    Message('note_on', channel=3, note=79, velocity=0, time=48),\n",
      "    Message('note_on', channel=3, note=78, velocity=94, time=12),\n",
      "    Message('note_on', channel=3, note=78, velocity=0, time=48),\n",
      "    Message('note_on', channel=3, note=79, velocity=94, time=12),\n",
      "    Message('note_on', channel=3, note=79, velocity=0, time=48),\n",
      "    Message('note_on', channel=3, note=74, velocity=94, time=12),\n",
      "    Message('note_on', channel=3, note=74, velocity=0, time=48),\n",
      "    Message('note_on', channel=3, note=71, velocity=94, time=12),\n",
      "    Message('note_on', channel=3, note=71, velocity=0, time=48),\n",
      "    Message('note_on', channel=3, note=67, velocity=94, time=12),\n",
      "    Message('note_on', channel=3, note=67, velocity=0, time=48),\n",
      "    Message('note_on', channel=3, note=69, velocity=94, time=12),\n",
      "    Message('note_on', channel=3, note=69, velocity=0, time=48),\n",
      "    Message('note_on', channel=3, note=71, velocity=94, time=12),\n",
      "    Message('note_on', channel=3, note=71, velocity=0, time=48),\n",
      "    Message('note_on', channel=3, note=72, velocity=94, time=12),\n",
      "    Message('note_on', channel=3, note=72, velocity=0, time=48),\n",
      "    Message('note_on', channel=3, note=74, velocity=94, time=12),\n",
      "    Message('note_on', channel=3, note=74, velocity=0, time=48),\n",
      "    Message('note_on', channel=3, note=76, velocity=94, time=12),\n",
      "    Message('note_on', channel=3, note=76, velocity=0, time=48),\n",
      "    Message('note_on', channel=3, note=74, velocity=94, time=12),\n",
      "    Message('note_on', channel=3, note=74, velocity=0, time=48),\n",
      "    Message('note_on', channel=3, note=72, velocity=94, time=12),\n",
      "    Message('note_on', channel=3, note=72, velocity=0, time=48),\n",
      "    Message('note_on', channel=3, note=71, velocity=94, time=12),\n",
      "    Message('note_on', channel=3, note=71, velocity=0, time=48),\n",
      "    Message('note_on', channel=3, note=69, velocity=94, time=12),\n",
      "    Message('note_on', channel=3, note=69, velocity=0, time=48),\n",
      "    Message('note_on', channel=3, note=71, velocity=94, time=12),\n",
      "    Message('note_on', channel=3, note=71, velocity=0, time=48),\n",
      "    Message('note_on', channel=3, note=67, velocity=94, time=12),\n",
      "    Message('note_on', channel=3, note=67, velocity=0, time=48),\n",
      "    Message('note_on', channel=3, note=66, velocity=94, time=12),\n",
      "    Message('note_on', channel=3, note=66, velocity=0, time=48),\n",
      "    Message('note_on', channel=3, note=67, velocity=94, time=12),\n",
      "    Message('note_on', channel=3, note=67, velocity=0, time=48),\n",
      "    Message('note_on', channel=3, note=69, velocity=94, time=12),\n",
      "    Message('note_on', channel=3, note=69, velocity=0, time=48),\n",
      "    Message('note_on', channel=3, note=62, velocity=94, time=12),\n",
      "    Message('note_on', channel=3, note=62, velocity=0, time=48),\n",
      "    Message('note_on', channel=3, note=66, velocity=94, time=12),\n",
      "    Message('note_on', channel=3, note=66, velocity=0, time=48),\n",
      "    Message('note_on', channel=3, note=69, velocity=94, time=12),\n",
      "    Message('note_on', channel=3, note=69, velocity=0, time=48),\n",
      "    Message('note_on', channel=3, note=72, velocity=94, time=12),\n",
      "    Message('note_on', channel=3, note=72, velocity=0, time=48),\n",
      "    Message('note_on', channel=3, note=71, velocity=94, time=12),\n",
      "    Message('note_on', channel=3, note=71, velocity=0, time=48),\n",
      "    Message('note_on', channel=3, note=69, velocity=94, time=12),\n",
      "    Message('note_on', channel=3, note=69, velocity=0, time=48),\n",
      "    Message('note_on', channel=3, note=71, velocity=94, time=12),\n",
      "    Message('note_on', channel=3, note=71, velocity=0, time=48),\n",
      "    Message('note_on', channel=3, note=67, velocity=94, time=12),\n",
      "    Message('note_on', channel=3, note=67, velocity=0, time=48),\n",
      "    Message('note_on', channel=3, note=69, velocity=94, time=12),\n",
      "    Message('note_on', channel=3, note=69, velocity=0, time=48),\n",
      "    Message('note_on', channel=3, note=71, velocity=94, time=12),\n",
      "    Message('note_on', channel=3, note=71, velocity=0, time=48),\n",
      "    Message('note_on', channel=3, note=74, velocity=94, time=12),\n",
      "    Message('note_on', channel=3, note=74, velocity=0, time=48),\n",
      "    Message('note_on', channel=3, note=72, velocity=94, time=12),\n",
      "    Message('note_on', channel=3, note=72, velocity=0, time=48),\n",
      "    Message('note_on', channel=3, note=72, velocity=94, time=12),\n",
      "    Message('note_on', channel=3, note=72, velocity=0, time=48),\n",
      "    Message('note_on', channel=3, note=76, velocity=94, time=12),\n",
      "    Message('note_on', channel=3, note=76, velocity=0, time=48),\n",
      "    Message('note_on', channel=3, note=74, velocity=94, time=12),\n",
      "    Message('note_on', channel=3, note=74, velocity=0, time=48),\n",
      "    Message('note_on', channel=3, note=74, velocity=94, time=12),\n",
      "    Message('note_on', channel=3, note=74, velocity=0, time=48),\n",
      "    Message('note_on', channel=3, note=79, velocity=94, time=12),\n",
      "    Message('note_on', channel=3, note=79, velocity=0, time=48),\n",
      "    Message('note_on', channel=3, note=78, velocity=94, time=12),\n",
      "    Message('note_on', channel=3, note=78, velocity=0, time=48),\n",
      "    Message('note_on', channel=3, note=79, velocity=94, time=12),\n",
      "    Message('note_on', channel=3, note=79, velocity=0, time=48),\n",
      "    Message('note_on', channel=3, note=74, velocity=94, time=12),\n",
      "    Message('note_on', channel=3, note=74, velocity=0, time=48),\n",
      "    Message('note_on', channel=3, note=71, velocity=94, time=12),\n",
      "    Message('note_on', channel=3, note=71, velocity=0, time=48),\n",
      "    Message('note_on', channel=3, note=67, velocity=94, time=12),\n",
      "    Message('note_on', channel=3, note=67, velocity=0, time=48),\n",
      "    Message('note_on', channel=3, note=69, velocity=94, time=12),\n",
      "    Message('note_on', channel=3, note=69, velocity=0, time=48),\n",
      "    Message('note_on', channel=3, note=71, velocity=94, time=12),\n",
      "    Message('note_on', channel=3, note=71, velocity=0, time=48),\n",
      "    Message('note_on', channel=3, note=64, velocity=94, time=12),\n",
      "    Message('note_on', channel=3, note=64, velocity=0, time=48),\n",
      "    Message('note_on', channel=3, note=74, velocity=94, time=12),\n",
      "    Message('note_on', channel=3, note=74, velocity=0, time=48),\n",
      "    Message('note_on', channel=3, note=72, velocity=94, time=12),\n",
      "    Message('note_on', channel=3, note=72, velocity=0, time=48),\n",
      "    Message('note_on', channel=3, note=71, velocity=94, time=12),\n",
      "    Message('note_on', channel=3, note=71, velocity=0, time=48),\n",
      "    Message('note_on', channel=3, note=69, velocity=94, time=12),\n",
      "    Message('note_on', channel=3, note=69, velocity=0, time=48),\n",
      "    Message('note_on', channel=3, note=67, velocity=94, time=12),\n",
      "    Message('note_on', channel=3, note=67, velocity=0, time=48),\n",
      "    Message('note_on', channel=3, note=62, velocity=94, time=12),\n",
      "    Message('note_on', channel=3, note=62, velocity=0, time=48),\n",
      "    Message('note_on', channel=3, note=67, velocity=94, time=12),\n",
      "    Message('note_on', channel=3, note=67, velocity=0, time=48),\n",
      "    Message('note_on', channel=3, note=66, velocity=94, time=12),\n",
      "    Message('note_on', channel=3, note=66, velocity=0, time=48),\n",
      "    Message('note_on', channel=3, note=67, velocity=94, time=12),\n",
      "    Message('note_on', channel=3, note=71, velocity=94, time=0),\n",
      "    Message('note_on', channel=3, note=67, velocity=0, time=336),\n",
      "    Message('note_on', channel=3, note=71, velocity=0, time=0),\n",
      "    Message('note_on', channel=3, note=64, velocity=94, time=24),\n",
      "    Message('note_on', channel=3, note=60, velocity=94, time=0),\n",
      "    Message('note_on', channel=3, note=67, velocity=94, time=0),\n",
      "    Message('note_on', channel=3, note=72, velocity=94, time=0),\n",
      "    Message('note_on', channel=3, note=64, velocity=0, time=168),\n",
      "    Message('note_on', channel=3, note=60, velocity=0, time=0),\n",
      "    Message('note_on', channel=3, note=67, velocity=0, time=0),\n",
      "    Message('note_on', channel=3, note=72, velocity=0, time=0),\n",
      "    Message('note_on', channel=3, note=74, velocity=94, time=12),\n",
      "    Message('note_on', channel=3, note=74, velocity=0, time=336),\n",
      "    Message('note_on', channel=3, note=66, velocity=94, time=24),\n",
      "    Message('note_on', channel=3, note=71, velocity=94, time=0),\n",
      "    Message('note_on', channel=3, note=74, velocity=94, time=0),\n",
      "    Message('note_on', channel=3, note=62, velocity=94, time=0),\n",
      "    Message('note_on', channel=3, note=66, velocity=0, time=168),\n",
      "    Message('note_on', channel=3, note=71, velocity=0, time=0),\n",
      "    Message('note_on', channel=3, note=74, velocity=0, time=0),\n",
      "    Message('note_on', channel=3, note=62, velocity=0, time=0),\n",
      "    Message('note_on', channel=3, note=72, velocity=94, time=12),\n",
      "    Message('note_on', channel=3, note=72, velocity=0, time=336),\n",
      "    Message('note_on', channel=3, note=67, velocity=94, time=24),\n",
      "    Message('note_on', channel=3, note=62, velocity=94, time=0),\n",
      "    Message('note_on', channel=3, note=71, velocity=94, time=0),\n",
      "    Message('note_on', channel=3, note=67, velocity=0, time=168),\n",
      "    Message('note_on', channel=3, note=62, velocity=0, time=0),\n",
      "    Message('note_on', channel=3, note=71, velocity=0, time=0),\n",
      "    Message('note_on', channel=3, note=66, velocity=94, time=12),\n",
      "    Message('note_on', channel=3, note=69, velocity=94, time=0),\n",
      "    Message('note_on', channel=3, note=66, velocity=0, time=48),\n",
      "    Message('note_on', channel=3, note=69, velocity=0, time=0),\n",
      "    Message('note_on', channel=3, note=62, velocity=94, time=12),\n",
      "    Message('note_on', channel=3, note=62, velocity=0, time=48),\n",
      "    Message('note_on', channel=3, note=64, velocity=94, time=12),\n",
      "    Message('note_on', channel=3, note=64, velocity=0, time=48),\n",
      "    Message('note_on', channel=3, note=66, velocity=94, time=12),\n",
      "    Message('note_on', channel=3, note=69, velocity=94, time=0),\n",
      "    Message('note_on', channel=3, note=66, velocity=0, time=48),\n",
      "    Message('note_on', channel=3, note=69, velocity=0, time=0),\n",
      "    Message('note_on', channel=3, note=69, velocity=94, time=12),\n",
      "    Message('note_on', channel=3, note=69, velocity=0, time=48),\n",
      "    Message('note_on', channel=3, note=67, velocity=94, time=12),\n",
      "    Message('note_on', channel=3, note=67, velocity=0, time=48),\n",
      "    Message('note_on', channel=3, note=69, velocity=94, time=12),\n",
      "    Message('note_on', channel=3, note=69, velocity=0, time=48),\n",
      "    Message('note_on', channel=3, note=72, velocity=94, time=12),\n",
      "    Message('note_on', channel=3, note=72, velocity=0, time=48),\n",
      "    Message('note_on', channel=3, note=71, velocity=94, time=12),\n",
      "    Message('note_on', channel=3, note=71, velocity=0, time=48),\n",
      "    Message('note_on', channel=3, note=72, velocity=94, time=12),\n",
      "    Message('note_on', channel=3, note=72, velocity=0, time=48),\n",
      "    Message('note_on', channel=3, note=69, velocity=94, time=12),\n",
      "    Message('note_on', channel=3, note=69, velocity=0, time=48),\n",
      "    Message('note_on', channel=3, note=66, velocity=94, time=12),\n",
      "    Message('note_on', channel=3, note=66, velocity=0, time=48),\n",
      "    Message('note_on', channel=3, note=62, velocity=94, time=12),\n",
      "    Message('note_on', channel=3, note=62, velocity=0, time=48),\n",
      "    Message('note_on', channel=3, note=66, velocity=94, time=12),\n",
      "    Message('note_on', channel=3, note=66, velocity=0, time=48),\n",
      "    Message('note_on', channel=3, note=69, velocity=94, time=12),\n",
      "    Message('note_on', channel=3, note=69, velocity=0, time=48),\n",
      "    Message('note_on', channel=3, note=72, velocity=94, time=12),\n",
      "    Message('note_on', channel=3, note=72, velocity=0, time=48),\n",
      "    Message('note_on', channel=3, note=71, velocity=94, time=12),\n",
      "    Message('note_on', channel=3, note=71, velocity=0, time=48),\n",
      "    Message('note_on', channel=3, note=69, velocity=94, time=12),\n",
      "    Message('note_on', channel=3, note=69, velocity=0, time=48),\n",
      "    Message('note_on', channel=3, note=71, velocity=94, time=12),\n",
      "    Message('note_on', channel=3, note=67, velocity=94, time=0),\n",
      "    Message('note_on', channel=3, note=71, velocity=0, time=336),\n",
      "    Message('note_on', channel=3, note=67, velocity=0, time=0),\n",
      "    Message('note_on', channel=3, note=64, velocity=94, time=24),\n",
      "    Message('note_on', channel=3, note=60, velocity=94, time=0),\n",
      "    Message('note_on', channel=3, note=67, velocity=94, time=0),\n",
      "    Message('note_on', channel=3, note=72, velocity=94, time=0),\n",
      "    Message('note_on', channel=3, note=64, velocity=0, time=168),\n",
      "    Message('note_on', channel=3, note=60, velocity=0, time=0),\n",
      "    Message('note_on', channel=3, note=67, velocity=0, time=0),\n",
      "    Message('note_on', channel=3, note=72, velocity=0, time=0),\n",
      "    Message('note_on', channel=3, note=67, velocity=94, time=12),\n",
      "    Message('note_on', channel=3, note=74, velocity=94, time=0),\n",
      "    Message('note_on', channel=3, note=62, velocity=94, time=0),\n",
      "    Message('note_on', channel=3, note=67, velocity=0, time=336),\n",
      "    Message('note_on', channel=3, note=74, velocity=0, time=0),\n",
      "    Message('note_on', channel=3, note=62, velocity=0, time=0),\n",
      "    Message('note_on', channel=3, note=67, velocity=94, time=24),\n",
      "    Message('note_on', channel=3, note=64, velocity=94, time=0),\n",
      "    Message('note_on', channel=3, note=71, velocity=94, time=0),\n",
      "    Message('note_on', channel=3, note=67, velocity=0, time=168),\n",
      "    Message('note_on', channel=3, note=64, velocity=0, time=0),\n",
      "    Message('note_on', channel=3, note=71, velocity=0, time=0),\n",
      "    Message('note_on', channel=3, note=69, velocity=94, time=12),\n",
      "    Message('note_on', channel=3, note=69, velocity=0, time=116),\n",
      "    Message('note_on', channel=3, note=71, velocity=94, time=4),\n",
      "    Message('note_on', channel=3, note=72, velocity=94, time=30),\n",
      "    Message('note_on', channel=3, note=71, velocity=0, time=14),\n",
      "    Message('note_on', channel=3, note=66, velocity=94, time=16),\n",
      "    Message('note_on', channel=3, note=71, velocity=94, time=0),\n",
      "    Message('note_on', channel=3, note=62, velocity=94, time=0),\n",
      "    Message('note_on', channel=3, note=72, velocity=0, time=14),\n",
      "    Message('note_on', channel=3, note=66, velocity=0, time=154),\n",
      "    Message('note_on', channel=3, note=71, velocity=0, time=0),\n",
      "    Message('note_on', channel=3, note=62, velocity=0, time=0),\n",
      "    Message('note_on', channel=3, note=66, velocity=94, time=12),\n",
      "    Message('note_on', channel=3, note=60, velocity=94, time=0),\n",
      "    Message('note_on', channel=3, note=69, velocity=94, time=0),\n",
      "    Message('note_on', channel=3, note=66, velocity=0, time=168),\n",
      "    Message('note_on', channel=3, note=60, velocity=0, time=0),\n",
      "    Message('note_on', channel=3, note=69, velocity=0, time=0),\n",
      "    Message('note_on', channel=3, note=67, velocity=94, time=12),\n",
      "    Message('note_on', channel=3, note=67, velocity=0, time=48),\n",
      "    Message('note_on', channel=3, note=71, velocity=94, time=12),\n",
      "    Message('note_on', channel=3, note=71, velocity=0, time=48),\n",
      "    Message('note_on', channel=3, note=69, velocity=94, time=12),\n",
      "    Message('note_on', channel=3, note=69, velocity=0, time=48),\n",
      "    Message('note_on', channel=3, note=71, velocity=94, time=12),\n",
      "    Message('note_on', channel=3, note=71, velocity=0, time=48),\n",
      "    Message('note_on', channel=3, note=74, velocity=94, time=12),\n",
      "    Message('note_on', channel=3, note=74, velocity=0, time=48),\n",
      "    Message('note_on', channel=3, note=72, velocity=94, time=12),\n",
      "    Message('note_on', channel=3, note=72, velocity=0, time=48),\n",
      "    Message('note_on', channel=3, note=72, velocity=94, time=12),\n",
      "    Message('note_on', channel=3, note=72, velocity=0, time=48),\n",
      "    Message('note_on', channel=3, note=76, velocity=94, time=12),\n",
      "    Message('note_on', channel=3, note=76, velocity=0, time=48),\n",
      "    Message('note_on', channel=3, note=74, velocity=94, time=12),\n",
      "    Message('note_on', channel=3, note=74, velocity=0, time=48),\n",
      "    Message('note_on', channel=3, note=74, velocity=94, time=12),\n",
      "    Message('note_on', channel=3, note=74, velocity=0, time=48),\n",
      "    Message('note_on', channel=3, note=79, velocity=94, time=12),\n",
      "    Message('note_on', channel=3, note=79, velocity=0, time=48),\n",
      "    Message('note_on', channel=3, note=78, velocity=94, time=12),\n",
      "    Message('note_on', channel=3, note=78, velocity=0, time=48),\n",
      "    Message('note_on', channel=3, note=79, velocity=94, time=12),\n",
      "    Message('note_on', channel=3, note=79, velocity=0, time=48),\n",
      "    Message('note_on', channel=3, note=74, velocity=94, time=12),\n",
      "    Message('note_on', channel=3, note=74, velocity=0, time=48),\n",
      "    Message('note_on', channel=3, note=71, velocity=94, time=12),\n",
      "    Message('note_on', channel=3, note=71, velocity=0, time=48),\n",
      "    Message('note_on', channel=3, note=67, velocity=94, time=12),\n",
      "    Message('note_on', channel=3, note=67, velocity=0, time=48),\n",
      "    Message('note_on', channel=3, note=69, velocity=94, time=12),\n",
      "    Message('note_on', channel=3, note=69, velocity=0, time=48),\n",
      "    Message('note_on', channel=3, note=71, velocity=94, time=12),\n",
      "    Message('note_on', channel=3, note=71, velocity=0, time=48),\n",
      "    Message('note_on', channel=3, note=72, velocity=94, time=12),\n",
      "    Message('note_on', channel=3, note=72, velocity=0, time=48),\n",
      "    Message('note_on', channel=3, note=74, velocity=94, time=12),\n",
      "    Message('note_on', channel=3, note=74, velocity=0, time=48),\n",
      "    Message('note_on', channel=3, note=76, velocity=94, time=12),\n",
      "    Message('note_on', channel=3, note=76, velocity=0, time=48),\n",
      "    Message('note_on', channel=3, note=74, velocity=94, time=12),\n",
      "    Message('note_on', channel=3, note=74, velocity=0, time=48),\n",
      "    Message('note_on', channel=3, note=72, velocity=94, time=12),\n",
      "    Message('note_on', channel=3, note=72, velocity=0, time=48),\n",
      "    Message('note_on', channel=3, note=71, velocity=94, time=12),\n",
      "    Message('note_on', channel=3, note=71, velocity=0, time=48),\n",
      "    Message('note_on', channel=3, note=69, velocity=94, time=12),\n",
      "    Message('note_on', channel=3, note=69, velocity=0, time=48),\n",
      "    Message('note_on', channel=3, note=71, velocity=94, time=12),\n",
      "    Message('note_on', channel=3, note=71, velocity=0, time=48),\n",
      "    Message('note_on', channel=3, note=67, velocity=94, time=12),\n",
      "    Message('note_on', channel=3, note=67, velocity=0, time=48),\n",
      "    Message('note_on', channel=3, note=66, velocity=94, time=12),\n",
      "    Message('note_on', channel=3, note=66, velocity=0, time=48),\n",
      "    Message('note_on', channel=3, note=67, velocity=94, time=12),\n",
      "    Message('note_on', channel=3, note=67, velocity=0, time=48),\n",
      "    Message('note_on', channel=3, note=69, velocity=94, time=12),\n",
      "    Message('note_on', channel=3, note=69, velocity=0, time=48),\n",
      "    Message('note_on', channel=3, note=62, velocity=94, time=12),\n",
      "    Message('note_on', channel=3, note=62, velocity=0, time=48),\n",
      "    Message('note_on', channel=3, note=66, velocity=94, time=12),\n",
      "    Message('note_on', channel=3, note=66, velocity=0, time=48),\n",
      "    Message('note_on', channel=3, note=69, velocity=94, time=12),\n",
      "    Message('note_on', channel=3, note=69, velocity=0, time=48),\n",
      "    Message('note_on', channel=3, note=72, velocity=94, time=12),\n",
      "    Message('note_on', channel=3, note=72, velocity=0, time=48),\n",
      "    Message('note_on', channel=3, note=71, velocity=94, time=12),\n",
      "    Message('note_on', channel=3, note=71, velocity=0, time=48),\n",
      "    Message('note_on', channel=3, note=69, velocity=94, time=12),\n",
      "    Message('note_on', channel=3, note=69, velocity=0, time=48),\n",
      "    Message('note_on', channel=3, note=71, velocity=94, time=12),\n",
      "    Message('note_on', channel=3, note=71, velocity=0, time=48),\n",
      "    Message('note_on', channel=3, note=67, velocity=94, time=12),\n",
      "    Message('note_on', channel=3, note=67, velocity=0, time=48),\n",
      "    Message('note_on', channel=3, note=69, velocity=94, time=12),\n",
      "    Message('note_on', channel=3, note=69, velocity=0, time=48),\n",
      "    Message('note_on', channel=3, note=71, velocity=94, time=12),\n",
      "    Message('note_on', channel=3, note=71, velocity=0, time=48),\n",
      "    Message('note_on', channel=3, note=74, velocity=94, time=12),\n",
      "    Message('note_on', channel=3, note=74, velocity=0, time=48),\n",
      "    Message('note_on', channel=3, note=72, velocity=94, time=12),\n",
      "    Message('note_on', channel=3, note=72, velocity=0, time=48),\n",
      "    Message('note_on', channel=3, note=72, velocity=94, time=12),\n",
      "    Message('note_on', channel=3, note=72, velocity=0, time=48),\n",
      "    Message('note_on', channel=3, note=76, velocity=94, time=12),\n",
      "    Message('note_on', channel=3, note=76, velocity=0, time=48),\n",
      "    Message('note_on', channel=3, note=74, velocity=94, time=12),\n",
      "    Message('note_on', channel=3, note=74, velocity=0, time=48),\n",
      "    Message('note_on', channel=3, note=74, velocity=94, time=12),\n",
      "    Message('note_on', channel=3, note=74, velocity=0, time=48),\n",
      "    Message('note_on', channel=3, note=79, velocity=94, time=12),\n",
      "    Message('note_on', channel=3, note=79, velocity=0, time=48),\n",
      "    Message('note_on', channel=3, note=78, velocity=94, time=12),\n",
      "    Message('note_on', channel=3, note=78, velocity=0, time=48),\n",
      "    Message('note_on', channel=3, note=79, velocity=94, time=12),\n",
      "    Message('note_on', channel=3, note=79, velocity=0, time=48),\n",
      "    Message('note_on', channel=3, note=74, velocity=94, time=12),\n",
      "    Message('note_on', channel=3, note=74, velocity=0, time=48),\n",
      "    Message('note_on', channel=3, note=71, velocity=94, time=12),\n",
      "    Message('note_on', channel=3, note=71, velocity=0, time=48),\n",
      "    Message('note_on', channel=3, note=67, velocity=94, time=12),\n",
      "    Message('note_on', channel=3, note=67, velocity=0, time=48),\n",
      "    Message('note_on', channel=3, note=69, velocity=94, time=12),\n",
      "    Message('note_on', channel=3, note=69, velocity=0, time=48),\n",
      "    Message('note_on', channel=3, note=71, velocity=94, time=12),\n",
      "    Message('note_on', channel=3, note=71, velocity=0, time=48),\n",
      "    Message('note_on', channel=3, note=64, velocity=94, time=12),\n",
      "    Message('note_on', channel=3, note=64, velocity=0, time=48),\n",
      "    Message('note_on', channel=3, note=74, velocity=94, time=12),\n",
      "    Message('note_on', channel=3, note=74, velocity=0, time=48),\n",
      "    Message('note_on', channel=3, note=72, velocity=94, time=12),\n",
      "    Message('note_on', channel=3, note=72, velocity=0, time=48),\n",
      "    Message('note_on', channel=3, note=71, velocity=94, time=12),\n",
      "    Message('note_on', channel=3, note=71, velocity=0, time=48),\n",
      "    Message('note_on', channel=3, note=69, velocity=94, time=12),\n",
      "    Message('note_on', channel=3, note=69, velocity=0, time=48),\n",
      "    Message('note_on', channel=3, note=67, velocity=94, time=12),\n",
      "    Message('note_on', channel=3, note=67, velocity=0, time=48),\n",
      "    Message('note_on', channel=3, note=62, velocity=94, time=12),\n",
      "    Message('note_on', channel=3, note=62, velocity=0, time=48),\n",
      "    Message('note_on', channel=3, note=67, velocity=94, time=12),\n",
      "    Message('note_on', channel=3, note=67, velocity=0, time=48),\n",
      "    Message('note_on', channel=3, note=66, velocity=94, time=12),\n",
      "    Message('note_on', channel=3, note=66, velocity=0, time=48),\n",
      "    Message('note_on', channel=3, note=67, velocity=94, time=12),\n",
      "    Message('note_on', channel=3, note=67, velocity=0, time=48),\n",
      "    Message('note_on', channel=3, note=71, velocity=94, time=12),\n",
      "    Message('note_on', channel=3, note=71, velocity=0, time=48),\n",
      "    Message('note_on', channel=3, note=74, velocity=94, time=12),\n",
      "    Message('note_on', channel=3, note=74, velocity=0, time=48),\n",
      "    Message('note_on', channel=3, note=79, velocity=94, time=12),\n",
      "    Message('note_on', channel=3, note=79, velocity=0, time=48),\n",
      "    Message('note_on', channel=3, note=74, velocity=94, time=12),\n",
      "    Message('note_on', channel=3, note=74, velocity=0, time=48),\n",
      "    Message('note_on', channel=3, note=71, velocity=94, time=12),\n",
      "    Message('note_on', channel=3, note=71, velocity=0, time=48),\n",
      "    Message('note_on', channel=3, note=67, velocity=94, time=12),\n",
      "    Message('note_on', channel=3, note=67, velocity=0, time=168),\n",
      "    Message('note_on', channel=3, note=66, velocity=84, time=13),\n",
      "    Message('note_on', channel=3, note=69, velocity=84, time=0),\n",
      "    Message('note_on', channel=3, note=66, velocity=0, time=336),\n",
      "    Message('note_on', channel=3, note=69, velocity=0, time=0),\n",
      "    Message('note_on', channel=3, note=68, velocity=84, time=24),\n",
      "    Message('note_on', channel=3, note=71, velocity=84, time=0),\n",
      "    Message('note_on', channel=3, note=62, velocity=84, time=0),\n",
      "    Message('note_on', channel=3, note=68, velocity=0, time=168),\n",
      "    Message('note_on', channel=3, note=71, velocity=0, time=0),\n",
      "    Message('note_on', channel=3, note=62, velocity=0, time=0),\n",
      "    Message('note_on', channel=3, note=72, velocity=84, time=12),\n",
      "    Message('note_on', channel=3, note=64, velocity=84, time=0),\n",
      "    Message('note_on', channel=3, note=69, velocity=84, time=0),\n",
      "    Message('note_on', channel=3, note=72, velocity=0, time=336),\n",
      "    Message('note_on', channel=3, note=64, velocity=0, time=0),\n",
      "    Message('note_on', channel=3, note=69, velocity=0, time=0),\n",
      "    Message('note_on', channel=3, note=69, velocity=84, time=24),\n",
      "    Message('note_on', channel=3, note=64, velocity=84, time=0),\n",
      "    Message('note_on', channel=3, note=72, velocity=84, time=0),\n",
      "    Message('note_on', channel=3, note=69, velocity=0, time=168),\n",
      "    Message('note_on', channel=3, note=64, velocity=0, time=0),\n",
      "    Message('note_on', channel=3, note=72, velocity=0, time=0),\n",
      "    Message('note_on', channel=3, note=71, velocity=84, time=12),\n",
      "    Message('note_on', channel=3, note=71, velocity=0, time=276),\n",
      "    Message('note_on', channel=3, note=72, velocity=84, time=24),\n",
      "    Message('note_on', channel=3, note=72, velocity=0, time=24),\n",
      "    Message('note_on', channel=3, note=74, velocity=84, time=6),\n",
      "    Message('note_on', channel=3, note=74, velocity=0, time=24),\n",
      "    Message('note_on', channel=3, note=71, velocity=84, time=6),\n",
      "    Message('note_on', channel=3, note=68, velocity=84, time=0),\n",
      "    Message('note_on', channel=3, note=71, velocity=0, time=168),\n",
      "    Message('note_on', channel=3, note=68, velocity=0, time=0),\n",
      "    Message('note_on', channel=3, note=67, velocity=84, time=12),\n",
      "    Message('note_on', channel=3, note=67, velocity=0, time=168),\n",
      "    Message('note_on', channel=3, note=67, velocity=84, time=12),\n",
      "    Message('note_on', channel=3, note=67, velocity=0, time=48),\n",
      "    Message('note_on', channel=3, note=76, velocity=84, time=12),\n",
      "    Message('note_on', channel=3, note=76, velocity=0, time=48),\n",
      "    Message('note_on', channel=3, note=74, velocity=84, time=12),\n",
      "    Message('note_on', channel=3, note=74, velocity=0, time=48),\n",
      "    Message('note_on', channel=3, note=74, velocity=84, time=12),\n",
      "    Message('note_on', channel=3, note=74, velocity=0, time=48),\n",
      "    Message('note_on', channel=3, note=77, velocity=84, time=12),\n",
      "    Message('note_on', channel=3, note=77, velocity=0, time=48),\n",
      "    Message('note_on', channel=3, note=76, velocity=84, time=12),\n",
      "    Message('note_on', channel=3, note=76, velocity=0, time=48),\n",
      "    Message('note_on', channel=3, note=76, velocity=84, time=12),\n",
      "    Message('note_on', channel=3, note=76, velocity=0, time=48),\n",
      "    Message('note_on', channel=3, note=81, velocity=84, time=12),\n",
      "    Message('note_on', channel=3, note=81, velocity=0, time=48),\n",
      "    Message('note_on', channel=3, note=80, velocity=84, time=12),\n",
      "    Message('note_on', channel=3, note=80, velocity=0, time=48),\n",
      "    Message('note_on', channel=3, note=81, velocity=84, time=12),\n",
      "    Message('note_on', channel=3, note=81, velocity=0, time=48),\n",
      "    Message('note_on', channel=3, note=76, velocity=84, time=12),\n",
      "    Message('note_on', channel=3, note=76, velocity=0, time=48),\n",
      "    Message('note_on', channel=3, note=72, velocity=84, time=12),\n",
      "    Message('note_on', channel=3, note=72, velocity=0, time=48),\n",
      "    Message('note_on', channel=3, note=69, velocity=84, time=12),\n",
      "    Message('note_on', channel=3, note=69, velocity=0, time=48),\n",
      "    Message('note_on', channel=3, note=71, velocity=84, time=12),\n",
      "    Message('note_on', channel=3, note=71, velocity=0, time=48),\n",
      "    Message('note_on', channel=3, note=72, velocity=84, time=12),\n",
      "    Message('note_on', channel=3, note=72, velocity=0, time=48),\n",
      "    Message('note_on', channel=3, note=77, velocity=84, time=12),\n",
      "    Message('note_on', channel=3, note=77, velocity=0, time=48),\n",
      "    Message('note_on', channel=3, note=76, velocity=84, time=12),\n",
      "    Message('note_on', channel=3, note=76, velocity=0, time=48),\n",
      "    Message('note_on', channel=3, note=74, velocity=84, time=12),\n",
      "    Message('note_on', channel=3, note=74, velocity=0, time=48),\n",
      "    Message('note_on', channel=3, note=72, velocity=84, time=12),\n",
      "    Message('note_on', channel=3, note=72, velocity=0, time=48),\n",
      "    Message('note_on', channel=3, note=71, velocity=84, time=12),\n",
      "    Message('note_on', channel=3, note=71, velocity=0, time=48),\n",
      "    Message('note_on', channel=3, note=69, velocity=84, time=12),\n",
      "    Message('note_on', channel=3, note=69, velocity=0, time=48),\n",
      "    Message('note_on', channel=3, note=64, velocity=84, time=12),\n",
      "    Message('note_on', channel=3, note=64, velocity=0, time=48),\n",
      "    Message('note_on', channel=3, note=69, velocity=84, time=12),\n",
      "    Message('note_on', channel=3, note=69, velocity=0, time=48),\n",
      "    Message('note_on', channel=3, note=68, velocity=84, time=12),\n",
      "    Message('note_on', channel=3, note=62, velocity=84, time=0),\n",
      "    Message('note_on', channel=3, note=68, velocity=0, time=48),\n",
      "    Message('note_on', channel=3, note=62, velocity=0, time=0),\n",
      "    Message('note_on', channel=3, note=64, velocity=84, time=12),\n",
      "    Message('note_on', channel=3, note=69, velocity=84, time=0),\n",
      "    Message('note_on', channel=3, note=72, velocity=84, time=0),\n",
      "    Message('note_on', channel=3, note=64, velocity=0, time=336),\n",
      "    Message('note_on', channel=3, note=69, velocity=0, time=0),\n",
      "    Message('note_on', channel=3, note=72, velocity=0, time=0),\n",
      "    Message('note_on', channel=3, note=74, velocity=84, time=24),\n",
      "    Message('note_on', channel=3, note=62, velocity=84, time=0),\n",
      "    Message('note_on', channel=3, note=67, velocity=84, time=0),\n",
      "    Message('note_on', channel=3, note=74, velocity=0, time=168),\n",
      "    Message('note_on', channel=3, note=62, velocity=0, time=0),\n",
      "    Message('note_on', channel=3, note=67, velocity=0, time=0),\n",
      "    Message('note_on', channel=3, note=72, velocity=84, time=12),\n",
      "    Message('note_on', channel=3, note=76, velocity=84, time=0),\n",
      "    Message('note_on', channel=3, note=72, velocity=0, time=336),\n",
      "    Message('note_on', channel=3, note=76, velocity=0, time=0),\n",
      "    Message('note_on', channel=3, note=72, velocity=84, time=24),\n",
      "    Message('note_on', channel=3, note=76, velocity=84, time=0),\n",
      "    Message('note_on', channel=3, note=67, velocity=84, time=0),\n",
      "    Message('note_on', channel=3, note=72, velocity=0, time=168),\n",
      "    Message('note_on', channel=3, note=76, velocity=0, time=0),\n",
      "    Message('note_on', channel=3, note=67, velocity=0, time=0),\n",
      "    Message('note_on', channel=3, note=74, velocity=84, time=12),\n",
      "    Message('note_on', channel=3, note=74, velocity=0, time=276),\n",
      "    Message('note_on', channel=3, note=76, velocity=84, time=24),\n",
      "    Message('note_on', channel=3, note=76, velocity=0, time=24),\n",
      "    Message('note_on', channel=3, note=77, velocity=84, time=6),\n",
      "    Message('note_on', channel=3, note=77, velocity=0, time=24),\n",
      "    Message('note_on', channel=3, note=74, velocity=84, time=6),\n",
      "    Message('note_on', channel=3, note=74, velocity=0, time=168),\n",
      "    Message('note_on', channel=3, note=64, velocity=84, time=12),\n",
      "    Message('note_on', channel=3, note=72, velocity=84, time=0),\n",
      "    Message('note_on', channel=3, note=64, velocity=0, time=168),\n",
      "    Message('note_on', channel=3, note=72, velocity=0, time=0),\n",
      "    Message('note_on', channel=3, note=72, velocity=84, time=12),\n",
      "    Message('note_on', channel=3, note=72, velocity=0, time=48),\n",
      "    Message('note_on', channel=3, note=76, velocity=84, time=12),\n",
      "    Message('note_on', channel=3, note=76, velocity=0, time=48),\n",
      "    Message('note_on', channel=3, note=72, velocity=84, time=12),\n",
      "    Message('note_on', channel=3, note=72, velocity=0, time=48),\n",
      "    Message('note_on', channel=3, note=67, velocity=84, time=12),\n",
      "    Message('note_on', channel=3, note=67, velocity=0, time=48),\n",
      "    Message('note_on', channel=3, note=69, velocity=84, time=12),\n",
      "    Message('note_on', channel=3, note=69, velocity=0, time=48),\n",
      "    Message('note_on', channel=3, note=70, velocity=84, time=12),\n",
      "    Message('note_on', channel=3, note=70, velocity=0, time=48),\n",
      "    Message('note_on', channel=3, note=69, velocity=84, time=12),\n",
      "    Message('note_on', channel=3, note=69, velocity=0, time=48),\n",
      "    Message('note_on', channel=3, note=72, velocity=84, time=12),\n",
      "    Message('note_on', channel=3, note=72, velocity=0, time=48),\n",
      "    Message('note_on', channel=3, note=71, velocity=84, time=12),\n",
      "    Message('note_on', channel=3, note=71, velocity=0, time=48),\n",
      "    Message('note_on', channel=3, note=72, velocity=84, time=12),\n",
      "    Message('note_on', channel=3, note=72, velocity=0, time=48),\n",
      "    Message('note_on', channel=3, note=69, velocity=84, time=12),\n",
      "    Message('note_on', channel=3, note=69, velocity=0, time=48),\n",
      "    Message('note_on', channel=3, note=66, velocity=84, time=12),\n",
      "    Message('note_on', channel=3, note=66, velocity=0, time=48),\n",
      "    Message('note_on', channel=3, note=62, velocity=84, time=12),\n",
      "    Message('note_on', channel=3, note=62, velocity=0, time=48),\n",
      "    Message('note_on', channel=3, note=64, velocity=84, time=12),\n",
      "    Message('note_on', channel=3, note=64, velocity=0, time=48),\n",
      "    Message('note_on', channel=3, note=66, velocity=84, time=12),\n",
      "    Message('note_on', channel=3, note=66, velocity=0, time=48),\n",
      "    Message('note_on', channel=3, note=64, velocity=84, time=12),\n",
      "    Message('note_on', channel=3, note=64, velocity=0, time=48),\n",
      "    Message('note_on', channel=3, note=60, velocity=84, time=12),\n",
      "    Message('note_on', channel=3, note=60, velocity=0, time=48),\n",
      "    Message('note_on', channel=3, note=62, velocity=84, time=12),\n",
      "    Message('note_on', channel=3, note=62, velocity=0, time=48),\n",
      "    Message('note_on', channel=3, note=64, velocity=84, time=12),\n",
      "    Message('note_on', channel=3, note=64, velocity=0, time=48),\n",
      "    Message('note_on', channel=3, note=67, velocity=84, time=12),\n",
      "    Message('note_on', channel=3, note=67, velocity=0, time=48),\n",
      "    Message('note_on', channel=3, note=66, velocity=84, time=12),\n",
      "    Message('note_on', channel=3, note=66, velocity=0, time=48),\n",
      "    Message('note_on', channel=3, note=67, velocity=84, time=12),\n",
      "    Message('note_on', channel=3, note=67, velocity=0, time=48),\n",
      "    Message('note_on', channel=3, note=71, velocity=84, time=12),\n",
      "    Message('note_on', channel=3, note=71, velocity=0, time=48),\n",
      "    Message('note_on', channel=3, note=69, velocity=84, time=12),\n",
      "    Message('note_on', channel=3, note=69, velocity=0, time=48),\n",
      "    Message('note_on', channel=3, note=67, velocity=84, time=12),\n",
      "    Message('note_on', channel=3, note=71, velocity=84, time=0),\n",
      "    Message('note_on', channel=3, note=67, velocity=0, time=336),\n",
      "    Message('note_on', channel=3, note=71, velocity=0, time=0),\n",
      "    Message('note_on', channel=3, note=64, velocity=84, time=24),\n",
      "    Message('note_on', channel=3, note=60, velocity=84, time=0),\n",
      "    Message('note_on', channel=3, note=67, velocity=84, time=0),\n",
      "    Message('note_on', channel=3, note=72, velocity=84, time=0),\n",
      "    Message('note_on', channel=3, note=64, velocity=0, time=168),\n",
      "    Message('note_on', channel=3, note=60, velocity=0, time=0),\n",
      "    Message('note_on', channel=3, note=67, velocity=0, time=0),\n",
      "    Message('note_on', channel=3, note=72, velocity=0, time=0),\n",
      "    Message('note_on', channel=3, note=74, velocity=84, time=12),\n",
      "    Message('note_on', channel=3, note=67, velocity=84, time=0),\n",
      "    Message('note_on', channel=3, note=62, velocity=84, time=0),\n",
      "    Message('note_on', channel=3, note=74, velocity=0, time=336),\n",
      "    Message('note_on', channel=3, note=67, velocity=0, time=0),\n",
      "    Message('note_on', channel=3, note=62, velocity=0, time=0),\n",
      "    Message('note_on', channel=3, note=74, velocity=84, time=24),\n",
      "    Message('note_on', channel=3, note=67, velocity=84, time=0),\n",
      "    Message('note_on', channel=3, note=62, velocity=84, time=0),\n",
      "    Message('note_on', channel=3, note=74, velocity=0, time=168),\n",
      "    Message('note_on', channel=3, note=67, velocity=0, time=0),\n",
      "    Message('note_on', channel=3, note=62, velocity=0, time=0),\n",
      "    Message('note_on', channel=3, note=69, velocity=84, time=12),\n",
      "    Message('note_on', channel=3, note=64, velocity=84, time=0),\n",
      "    Message('note_on', channel=3, note=72, velocity=84, time=0),\n",
      "    Message('note_on', channel=3, note=69, velocity=0, time=168),\n",
      "    Message('note_on', channel=3, note=64, velocity=0, time=0),\n",
      "    Message('note_on', channel=3, note=72, velocity=0, time=0),\n",
      "    Message('note_on', channel=3, note=71, velocity=84, time=12),\n",
      "    Message('note_on', channel=3, note=71, velocity=0, time=336),\n",
      "    Message('note_on', channel=3, note=66, velocity=84, time=24),\n",
      "    Message('note_on', channel=3, note=69, velocity=84, time=0),\n",
      "    Message('note_on', channel=3, note=66, velocity=0, time=48),\n",
      "    Message('note_on', channel=3, note=69, velocity=0, time=0),\n",
      "    Message('note_on', channel=3, note=62, velocity=84, time=12),\n",
      "    Message('note_on', channel=3, note=62, velocity=0, time=48),\n",
      "    Message('note_on', channel=3, note=64, velocity=84, time=12),\n",
      "    Message('note_on', channel=3, note=64, velocity=0, time=48),\n",
      "    Message('note_on', channel=3, note=66, velocity=84, time=12),\n",
      "    Message('note_on', channel=3, note=66, velocity=0, time=48),\n",
      "    Message('note_on', channel=3, note=69, velocity=84, time=12),\n",
      "    Message('note_on', channel=3, note=69, velocity=0, time=48),\n",
      "    Message('note_on', channel=3, note=67, velocity=84, time=12),\n",
      "    Message('note_on', channel=3, note=67, velocity=0, time=48),\n",
      "    Message('note_on', channel=3, note=69, velocity=84, time=12),\n",
      "    Message('note_on', channel=3, note=69, velocity=0, time=48),\n",
      "    Message('note_on', channel=3, note=72, velocity=84, time=12),\n",
      "    Message('note_on', channel=3, note=72, velocity=0, time=48),\n",
      "    Message('note_on', channel=3, note=71, velocity=84, time=12),\n",
      "    Message('note_on', channel=3, note=71, velocity=0, time=48),\n",
      "    Message('note_on', channel=3, note=72, velocity=84, time=12),\n",
      "    Message('note_on', channel=3, note=72, velocity=0, time=48),\n",
      "    Message('note_on', channel=3, note=69, velocity=84, time=12),\n",
      "    Message('note_on', channel=3, note=69, velocity=0, time=48),\n",
      "    Message('note_on', channel=3, note=66, velocity=84, time=12),\n",
      "    Message('note_on', channel=3, note=66, velocity=0, time=48),\n",
      "    Message('note_on', channel=3, note=62, velocity=84, time=12),\n",
      "    Message('note_on', channel=3, note=62, velocity=0, time=48),\n",
      "    Message('note_on', channel=3, note=66, velocity=84, time=12),\n",
      "    Message('note_on', channel=3, note=66, velocity=0, time=48),\n",
      "    Message('note_on', channel=3, note=69, velocity=84, time=12),\n",
      "    Message('note_on', channel=3, note=69, velocity=0, time=48),\n",
      "    Message('note_on', channel=3, note=72, velocity=84, time=12),\n",
      "    Message('note_on', channel=3, note=72, velocity=0, time=48),\n",
      "    Message('note_on', channel=3, note=71, velocity=84, time=12),\n",
      "    Message('note_on', channel=3, note=71, velocity=0, time=48),\n",
      "    Message('note_on', channel=3, note=69, velocity=84, time=12),\n",
      "    Message('note_on', channel=3, note=69, velocity=0, time=48),\n",
      "    Message('note_on', channel=3, note=67, velocity=84, time=12),\n",
      "    Message('note_on', channel=3, note=71, velocity=84, time=0),\n",
      "    Message('note_on', channel=3, note=67, velocity=0, time=336),\n",
      "    Message('note_on', channel=3, note=71, velocity=0, time=0),\n",
      "    Message('note_on', channel=3, note=72, velocity=84, time=24),\n",
      "    Message('note_on', channel=3, note=67, velocity=84, time=0),\n",
      "    Message('note_on', channel=3, note=64, velocity=84, time=0),\n",
      "    Message('note_on', channel=3, note=60, velocity=84, time=0),\n",
      "    Message('note_on', channel=3, note=72, velocity=0, time=168),\n",
      "    Message('note_on', channel=3, note=67, velocity=0, time=0),\n",
      "    Message('note_on', channel=3, note=64, velocity=0, time=0),\n",
      "    Message('note_on', channel=3, note=60, velocity=0, time=0),\n",
      "    Message('note_on', channel=3, note=74, velocity=84, time=12),\n",
      "    Message('note_on', channel=3, note=62, velocity=84, time=0),\n",
      "    Message('note_on', channel=3, note=67, velocity=84, time=0),\n",
      "    Message('note_on', channel=3, note=74, velocity=0, time=336),\n",
      "    Message('note_on', channel=3, note=62, velocity=0, time=0),\n",
      "    Message('note_on', channel=3, note=67, velocity=0, time=0),\n",
      "    Message('note_on', channel=3, note=67, velocity=84, time=24),\n",
      "    Message('note_on', channel=3, note=64, velocity=84, time=0),\n",
      "    Message('note_on', channel=3, note=71, velocity=84, time=0),\n",
      "    Message('note_on', channel=3, note=67, velocity=0, time=168),\n",
      "    Message('note_on', channel=3, note=64, velocity=0, time=0),\n",
      "    Message('note_on', channel=3, note=71, velocity=0, time=0),\n",
      "    Message('note_on', channel=3, note=69, velocity=84, time=12),\n",
      "    Message('note_on', channel=3, note=69, velocity=0, time=96),\n",
      "    Message('note_on', channel=3, note=71, velocity=84, time=24),\n",
      "    Message('note_on', channel=3, note=71, velocity=0, time=24),\n",
      "    Message('note_on', channel=3, note=72, velocity=84, time=6),\n",
      "    Message('note_on', channel=3, note=72, velocity=0, time=24),\n",
      "    Message('note_on', channel=3, note=71, velocity=84, time=6),\n",
      "    Message('note_on', channel=3, note=71, velocity=0, time=168),\n",
      "    Message('note_on', channel=3, note=69, velocity=84, time=12),\n",
      "    Message('note_on', channel=3, note=69, velocity=0, time=168),\n",
      "    Message('note_on', channel=3, note=67, velocity=84, time=12),\n",
      "    Message('note_on', channel=3, note=67, velocity=0, time=48),\n",
      "    Message('note_on', channel=3, note=71, velocity=84, time=12),\n",
      "    Message('note_on', channel=3, note=71, velocity=0, time=48),\n",
      "    Message('note_on', channel=3, note=74, velocity=84, time=12),\n",
      "    Message('note_on', channel=3, note=74, velocity=0, time=48),\n",
      "    Message('note_on', channel=3, note=79, velocity=84, time=12),\n",
      "    Message('note_on', channel=3, note=79, velocity=0, time=48),\n",
      "    Message('note_on', channel=3, note=74, velocity=84, time=12),\n",
      "    Message('note_on', channel=3, note=74, velocity=0, time=48),\n",
      "    Message('note_on', channel=3, note=71, velocity=84, time=12),\n",
      "    Message('note_on', channel=3, note=71, velocity=0, time=48),\n",
      "    Message('note_on', channel=3, note=67, velocity=84, time=12),\n",
      "    Message('note_on', channel=3, note=67, velocity=0, time=48),\n",
      "    Message('note_on', channel=3, note=71, velocity=84, time=12),\n",
      "    Message('note_on', channel=3, note=71, velocity=0, time=48),\n",
      "    Message('note_on', channel=3, note=74, velocity=84, time=12),\n",
      "    Message('note_on', channel=3, note=74, velocity=0, time=48),\n",
      "    Message('note_on', channel=3, note=77, velocity=84, time=12),\n",
      "    Message('note_on', channel=3, note=77, velocity=0, time=48),\n",
      "    Message('note_on', channel=3, note=74, velocity=84, time=12),\n",
      "    Message('note_on', channel=3, note=74, velocity=0, time=48),\n",
      "    Message('note_on', channel=3, note=71, velocity=84, time=12),\n",
      "    Message('note_on', channel=3, note=71, velocity=0, time=48),\n",
      "    Message('note_on', channel=3, note=67, velocity=84, time=12),\n",
      "    Message('note_on', channel=3, note=67, velocity=0, time=48),\n",
      "    Message('note_on', channel=3, note=71, velocity=84, time=12),\n",
      "    Message('note_on', channel=3, note=71, velocity=0, time=48),\n",
      "    Message('note_on', channel=3, note=74, velocity=84, time=12),\n",
      "    Message('note_on', channel=3, note=74, velocity=0, time=48),\n",
      "    Message('note_on', channel=3, note=76, velocity=84, time=12),\n",
      "    Message('note_on', channel=3, note=76, velocity=0, time=48),\n",
      "    Message('note_on', channel=3, note=72, velocity=84, time=12),\n",
      "    Message('note_on', channel=3, note=72, velocity=0, time=48),\n",
      "    Message('note_on', channel=3, note=69, velocity=84, time=12),\n",
      "    Message('note_on', channel=3, note=69, velocity=0, time=48),\n",
      "    Message('note_on', channel=3, note=66, velocity=84, time=12),\n",
      "    Message('note_on', channel=3, note=66, velocity=0, time=48),\n",
      "    Message('note_on', channel=3, note=69, velocity=84, time=12),\n",
      "    Message('note_on', channel=3, note=69, velocity=0, time=48),\n",
      "    Message('note_on', channel=3, note=72, velocity=84, time=12),\n",
      "    Message('note_on', channel=3, note=72, velocity=0, time=48),\n",
      "    Message('note_on', channel=3, note=74, velocity=84, time=12),\n",
      "    Message('note_on', channel=3, note=74, velocity=0, time=48),\n",
      "    Message('note_on', channel=3, note=71, velocity=84, time=12),\n",
      "    Message('note_on', channel=3, note=71, velocity=0, time=48),\n",
      "    Message('note_on', channel=3, note=67, velocity=84, time=12),\n",
      "    Message('note_on', channel=3, note=67, velocity=0, time=48),\n",
      "    Message('note_on', channel=3, note=64, velocity=84, time=12),\n",
      "    Message('note_on', channel=3, note=64, velocity=0, time=48),\n",
      "    Message('note_on', channel=3, note=67, velocity=84, time=12),\n",
      "    Message('note_on', channel=3, note=67, velocity=0, time=48),\n",
      "    Message('note_on', channel=3, note=71, velocity=84, time=12),\n",
      "    Message('note_on', channel=3, note=71, velocity=0, time=48),\n",
      "    Message('note_on', channel=3, note=72, velocity=84, time=12),\n",
      "    Message('note_on', channel=3, note=72, velocity=0, time=48),\n",
      "    Message('note_on', channel=3, note=69, velocity=84, time=12),\n",
      "    Message('note_on', channel=3, note=69, velocity=0, time=48),\n",
      "    Message('note_on', channel=3, note=66, velocity=84, time=12),\n",
      "    Message('note_on', channel=3, note=66, velocity=0, time=48),\n",
      "    Message('note_on', channel=3, note=62, velocity=84, time=12),\n",
      "    Message('note_on', channel=3, note=62, velocity=0, time=48),\n",
      "    Message('note_on', channel=3, note=66, velocity=84, time=12),\n",
      "    Message('note_on', channel=3, note=66, velocity=0, time=48),\n",
      "    Message('note_on', channel=3, note=69, velocity=84, time=12),\n",
      "    Message('note_on', channel=3, note=69, velocity=0, time=48),\n",
      "    Message('note_on', channel=3, note=72, velocity=84, time=12),\n",
      "    Message('note_on', channel=3, note=72, velocity=0, time=48),\n",
      "    Message('note_on', channel=3, note=71, velocity=84, time=12),\n",
      "    Message('note_on', channel=3, note=71, velocity=0, time=48),\n",
      "    Message('note_on', channel=3, note=69, velocity=84, time=12),\n",
      "    Message('note_on', channel=3, note=69, velocity=0, time=48),\n",
      "    Message('note_on', channel=3, note=71, velocity=84, time=12),\n",
      "    Message('note_on', channel=3, note=71, velocity=0, time=48),\n",
      "    Message('note_on', channel=3, note=67, velocity=84, time=12),\n",
      "    Message('note_on', channel=3, note=67, velocity=0, time=48),\n",
      "    Message('note_on', channel=3, note=69, velocity=84, time=12),\n",
      "    Message('note_on', channel=3, note=69, velocity=0, time=48),\n",
      "    Message('note_on', channel=3, note=71, velocity=84, time=12),\n",
      "    Message('note_on', channel=3, note=71, velocity=0, time=48),\n",
      "    Message('note_on', channel=3, note=74, velocity=84, time=12),\n",
      "    Message('note_on', channel=3, note=74, velocity=0, time=48),\n",
      "    Message('note_on', channel=3, note=72, velocity=84, time=12),\n",
      "    Message('note_on', channel=3, note=72, velocity=0, time=48),\n",
      "    Message('note_on', channel=3, note=72, velocity=84, time=12),\n",
      "    Message('note_on', channel=3, note=72, velocity=0, time=48),\n",
      "    Message('note_on', channel=3, note=76, velocity=84, time=12),\n",
      "    Message('note_on', channel=3, note=76, velocity=0, time=48),\n",
      "    Message('note_on', channel=3, note=74, velocity=84, time=12),\n",
      "    Message('note_on', channel=3, note=74, velocity=0, time=48),\n",
      "    Message('note_on', channel=3, note=74, velocity=84, time=12),\n",
      "    Message('note_on', channel=3, note=74, velocity=0, time=48),\n",
      "    Message('note_on', channel=3, note=79, velocity=84, time=12),\n",
      "    Message('note_on', channel=3, note=79, velocity=0, time=48),\n",
      "    Message('note_on', channel=3, note=78, velocity=84, time=12),\n",
      "    Message('note_on', channel=3, note=78, velocity=0, time=48),\n",
      "    Message('note_on', channel=3, note=79, velocity=84, time=12),\n",
      "    Message('note_on', channel=3, note=79, velocity=0, time=48),\n",
      "    Message('note_on', channel=3, note=74, velocity=84, time=12),\n",
      "    Message('note_on', channel=3, note=74, velocity=0, time=48),\n",
      "    Message('note_on', channel=3, note=71, velocity=84, time=12),\n",
      "    Message('note_on', channel=3, note=71, velocity=0, time=48),\n",
      "    Message('note_on', channel=3, note=67, velocity=84, time=12),\n",
      "    Message('note_on', channel=3, note=67, velocity=0, time=48),\n",
      "    Message('note_on', channel=3, note=69, velocity=84, time=12),\n",
      "    Message('note_on', channel=3, note=69, velocity=0, time=48),\n",
      "    Message('note_on', channel=3, note=71, velocity=84, time=12),\n",
      "    Message('note_on', channel=3, note=71, velocity=0, time=48),\n",
      "    Message('note_on', channel=3, note=72, velocity=84, time=12),\n",
      "    Message('note_on', channel=3, note=72, velocity=0, time=48),\n",
      "    Message('note_on', channel=3, note=74, velocity=84, time=12),\n",
      "    Message('note_on', channel=3, note=74, velocity=0, time=48),\n",
      "    Message('note_on', channel=3, note=76, velocity=84, time=12),\n",
      "    Message('note_on', channel=3, note=76, velocity=0, time=48),\n",
      "    Message('note_on', channel=3, note=74, velocity=84, time=12),\n",
      "    Message('note_on', channel=3, note=74, velocity=0, time=48),\n",
      "    Message('note_on', channel=3, note=72, velocity=84, time=12),\n",
      "    Message('note_on', channel=3, note=72, velocity=0, time=48),\n",
      "    Message('note_on', channel=3, note=71, velocity=84, time=12),\n",
      "    Message('note_on', channel=3, note=71, velocity=0, time=48),\n",
      "    Message('note_on', channel=3, note=69, velocity=84, time=12),\n",
      "    Message('note_on', channel=3, note=69, velocity=0, time=48),\n",
      "    Message('note_on', channel=3, note=71, velocity=84, time=12),\n",
      "    Message('note_on', channel=3, note=71, velocity=0, time=48),\n",
      "    Message('note_on', channel=3, note=67, velocity=84, time=12),\n",
      "    Message('note_on', channel=3, note=67, velocity=0, time=48),\n",
      "    Message('note_on', channel=3, note=66, velocity=84, time=12),\n",
      "    Message('note_on', channel=3, note=66, velocity=0, time=48),\n",
      "    Message('note_on', channel=3, note=67, velocity=84, time=12),\n",
      "    Message('note_on', channel=3, note=67, velocity=0, time=48),\n",
      "    Message('note_on', channel=3, note=69, velocity=84, time=12),\n",
      "    Message('note_on', channel=3, note=69, velocity=0, time=48),\n",
      "    Message('note_on', channel=3, note=62, velocity=84, time=12),\n",
      "    Message('note_on', channel=3, note=62, velocity=0, time=48),\n",
      "    Message('note_on', channel=3, note=66, velocity=84, time=12),\n",
      "    Message('note_on', channel=3, note=66, velocity=0, time=48),\n",
      "    Message('note_on', channel=3, note=69, velocity=84, time=12),\n",
      "    Message('note_on', channel=3, note=69, velocity=0, time=48),\n",
      "    Message('note_on', channel=3, note=72, velocity=84, time=12),\n",
      "    Message('note_on', channel=3, note=72, velocity=0, time=48),\n",
      "    Message('note_on', channel=3, note=71, velocity=84, time=12),\n",
      "    Message('note_on', channel=3, note=71, velocity=0, time=48),\n",
      "    Message('note_on', channel=3, note=69, velocity=84, time=12),\n",
      "    Message('note_on', channel=3, note=69, velocity=0, time=48),\n",
      "    Message('note_on', channel=3, note=71, velocity=84, time=12),\n",
      "    Message('note_on', channel=3, note=71, velocity=0, time=48),\n",
      "    Message('note_on', channel=3, note=67, velocity=84, time=12),\n",
      "    Message('note_on', channel=3, note=67, velocity=0, time=48),\n",
      "    Message('note_on', channel=3, note=69, velocity=84, time=12),\n",
      "    Message('note_on', channel=3, note=69, velocity=0, time=48),\n",
      "    Message('note_on', channel=3, note=71, velocity=84, time=12),\n",
      "    Message('note_on', channel=3, note=71, velocity=0, time=48),\n",
      "    Message('note_on', channel=3, note=74, velocity=84, time=12),\n",
      "    Message('note_on', channel=3, note=74, velocity=0, time=48),\n",
      "    Message('note_on', channel=3, note=72, velocity=84, time=12),\n",
      "    Message('note_on', channel=3, note=72, velocity=0, time=48),\n",
      "    Message('note_on', channel=3, note=72, velocity=84, time=12),\n",
      "    Message('note_on', channel=3, note=72, velocity=0, time=48),\n",
      "    Message('note_on', channel=3, note=76, velocity=84, time=12),\n",
      "    Message('note_on', channel=3, note=76, velocity=0, time=48),\n",
      "    Message('note_on', channel=3, note=74, velocity=84, time=12),\n",
      "    Message('note_on', channel=3, note=74, velocity=0, time=48),\n",
      "    Message('note_on', channel=3, note=74, velocity=84, time=12),\n",
      "    Message('note_on', channel=3, note=74, velocity=0, time=48),\n",
      "    Message('note_on', channel=3, note=79, velocity=84, time=12),\n",
      "    Message('note_on', channel=3, note=79, velocity=0, time=48),\n",
      "    Message('note_on', channel=3, note=78, velocity=84, time=12),\n",
      "    Message('note_on', channel=3, note=78, velocity=0, time=48),\n",
      "    Message('note_on', channel=3, note=79, velocity=84, time=12),\n",
      "    Message('note_on', channel=3, note=79, velocity=0, time=48),\n",
      "    Message('note_on', channel=3, note=74, velocity=84, time=12),\n",
      "    Message('note_on', channel=3, note=74, velocity=0, time=48),\n",
      "    Message('note_on', channel=3, note=71, velocity=84, time=12),\n",
      "    Message('note_on', channel=3, note=71, velocity=0, time=48),\n",
      "    Message('note_on', channel=3, note=67, velocity=84, time=12),\n",
      "    Message('note_on', channel=3, note=67, velocity=0, time=48),\n",
      "    Message('note_on', channel=3, note=69, velocity=84, time=12),\n",
      "    Message('note_on', channel=3, note=69, velocity=0, time=48),\n",
      "    Message('note_on', channel=3, note=71, velocity=84, time=12),\n",
      "    Message('note_on', channel=3, note=71, velocity=0, time=48),\n",
      "    Message('note_on', channel=3, note=64, velocity=84, time=12),\n",
      "    Message('note_on', channel=3, note=64, velocity=0, time=48),\n",
      "    Message('note_on', channel=3, note=74, velocity=84, time=12),\n",
      "    Message('note_on', channel=3, note=74, velocity=0, time=48),\n",
      "    Message('note_on', channel=3, note=72, velocity=84, time=12),\n",
      "    Message('note_on', channel=3, note=72, velocity=0, time=48),\n",
      "    Message('note_on', channel=3, note=71, velocity=84, time=12),\n",
      "    Message('note_on', channel=3, note=71, velocity=0, time=48),\n",
      "    Message('note_on', channel=3, note=69, velocity=84, time=12),\n",
      "    Message('note_on', channel=3, note=69, velocity=0, time=48),\n",
      "    Message('note_on', channel=3, note=67, velocity=84, time=12),\n",
      "    Message('note_on', channel=3, note=67, velocity=0, time=48),\n",
      "    Message('note_on', channel=3, note=62, velocity=84, time=12),\n",
      "    Message('note_on', channel=3, note=62, velocity=0, time=48),\n",
      "    Message('note_on', channel=3, note=67, velocity=84, time=12),\n",
      "    Message('note_on', channel=3, note=67, velocity=0, time=48),\n",
      "    Message('note_on', channel=3, note=66, velocity=84, time=12),\n",
      "    Message('note_on', channel=3, note=66, velocity=0, time=48),\n",
      "    Message('note_on', channel=3, note=62, velocity=58, time=12),\n",
      "    Message('note_on', channel=3, note=67, velocity=60, time=0),\n",
      "    Message('note_on', channel=3, note=59, velocity=57, time=0),\n",
      "    Message('note_on', channel=3, note=55, velocity=75, time=0),\n",
      "    Message('note_on', channel=3, note=62, velocity=0, time=456),\n",
      "    Message('note_on', channel=3, note=67, velocity=0, time=0),\n",
      "    Message('note_on', channel=3, note=59, velocity=0, time=0),\n",
      "    Message('note_on', channel=3, note=55, velocity=0, time=0),\n",
      "    Message('note_on', channel=3, note=67, velocity=94, time=143),\n",
      "    Message('note_on', channel=3, note=67, velocity=0, time=48),\n",
      "    Message('note_on', channel=3, note=69, velocity=94, time=12),\n",
      "    Message('note_on', channel=3, note=69, velocity=0, time=48),\n",
      "    Message('note_on', channel=3, note=71, velocity=94, time=12),\n",
      "    Message('note_on', channel=3, note=71, velocity=0, time=48),\n",
      "    Message('note_on', channel=3, note=74, velocity=94, time=12),\n",
      "    Message('note_on', channel=3, note=74, velocity=0, time=48),\n",
      "    Message('note_on', channel=3, note=72, velocity=94, time=12),\n",
      "    Message('note_on', channel=3, note=72, velocity=0, time=48),\n",
      "    Message('note_on', channel=3, note=72, velocity=94, time=12),\n",
      "    Message('note_on', channel=3, note=72, velocity=0, time=48),\n",
      "    Message('note_on', channel=3, note=76, velocity=94, time=12),\n",
      "    Message('note_on', channel=3, note=76, velocity=0, time=48),\n",
      "    Message('note_on', channel=3, note=74, velocity=94, time=12),\n",
      "    Message('note_on', channel=3, note=74, velocity=0, time=48),\n",
      "    Message('note_on', channel=3, note=74, velocity=94, time=12),\n",
      "    Message('note_on', channel=3, note=74, velocity=0, time=48),\n",
      "    Message('note_on', channel=3, note=79, velocity=94, time=12),\n",
      "    Message('note_on', channel=3, note=79, velocity=0, time=48),\n",
      "    Message('note_on', channel=3, note=78, velocity=94, time=12),\n",
      "    Message('note_on', channel=3, note=78, velocity=0, time=48),\n",
      "    Message('note_on', channel=3, note=79, velocity=94, time=12),\n",
      "    Message('note_on', channel=3, note=79, velocity=0, time=48),\n",
      "    Message('note_on', channel=3, note=74, velocity=94, time=12),\n",
      "    Message('note_on', channel=3, note=74, velocity=0, time=48),\n",
      "    Message('note_on', channel=3, note=71, velocity=94, time=12),\n",
      "    Message('note_on', channel=3, note=71, velocity=0, time=48),\n",
      "    Message('note_on', channel=3, note=67, velocity=94, time=12),\n",
      "    Message('note_on', channel=3, note=67, velocity=0, time=48),\n",
      "    Message('note_on', channel=3, note=69, velocity=94, time=12),\n",
      "    Message('note_on', channel=3, note=69, velocity=0, time=48),\n",
      "    Message('note_on', channel=3, note=71, velocity=94, time=12),\n",
      "    Message('note_on', channel=3, note=71, velocity=0, time=48),\n",
      "    Message('note_on', channel=3, note=72, velocity=94, time=12),\n",
      "    Message('note_on', channel=3, note=72, velocity=0, time=48),\n",
      "    Message('note_on', channel=3, note=74, velocity=94, time=12),\n",
      "    Message('note_on', channel=3, note=74, velocity=0, time=48),\n",
      "    Message('note_on', channel=3, note=76, velocity=94, time=12),\n",
      "    Message('note_on', channel=3, note=76, velocity=0, time=48),\n",
      "    Message('note_on', channel=3, note=74, velocity=94, time=12),\n",
      "    Message('note_on', channel=3, note=74, velocity=0, time=48),\n",
      "    Message('note_on', channel=3, note=72, velocity=94, time=12),\n",
      "    Message('note_on', channel=3, note=72, velocity=0, time=48),\n",
      "    Message('note_on', channel=3, note=71, velocity=94, time=12),\n",
      "    Message('note_on', channel=3, note=71, velocity=0, time=48),\n",
      "    Message('note_on', channel=3, note=69, velocity=94, time=12),\n",
      "    Message('note_on', channel=3, note=69, velocity=0, time=48),\n",
      "    Message('note_on', channel=3, note=71, velocity=94, time=12),\n",
      "    Message('note_on', channel=3, note=71, velocity=0, time=48),\n",
      "    Message('note_on', channel=3, note=67, velocity=94, time=12),\n",
      "    Message('note_on', channel=3, note=67, velocity=0, time=48),\n",
      "    Message('note_on', channel=3, note=66, velocity=94, time=12),\n",
      "    Message('note_on', channel=3, note=66, velocity=0, time=48),\n",
      "    Message('note_on', channel=3, note=67, velocity=94, time=12),\n",
      "    Message('note_on', channel=3, note=67, velocity=0, time=48),\n",
      "    Message('note_on', channel=3, note=69, velocity=94, time=12),\n",
      "    Message('note_on', channel=3, note=69, velocity=0, time=48),\n",
      "    Message('note_on', channel=3, note=62, velocity=94, time=12),\n",
      "    Message('note_on', channel=3, note=62, velocity=0, time=48),\n",
      "    Message('note_on', channel=3, note=66, velocity=94, time=12),\n",
      "    Message('note_on', channel=3, note=66, velocity=0, time=48),\n",
      "    Message('note_on', channel=3, note=69, velocity=94, time=12),\n",
      "    Message('note_on', channel=3, note=69, velocity=0, time=48),\n",
      "    Message('note_on', channel=3, note=72, velocity=94, time=12),\n",
      "    Message('note_on', channel=3, note=72, velocity=0, time=48),\n",
      "    Message('note_on', channel=3, note=71, velocity=94, time=12),\n",
      "    Message('note_on', channel=3, note=71, velocity=0, time=48),\n",
      "    Message('note_on', channel=3, note=69, velocity=94, time=12),\n",
      "    Message('note_on', channel=3, note=69, velocity=0, time=48),\n",
      "    Message('note_on', channel=3, note=71, velocity=94, time=12),\n",
      "    Message('note_on', channel=3, note=71, velocity=0, time=48),\n",
      "    Message('note_on', channel=3, note=67, velocity=94, time=12),\n",
      "    Message('note_on', channel=3, note=67, velocity=0, time=48),\n",
      "    Message('note_on', channel=3, note=69, velocity=94, time=12),\n",
      "    Message('note_on', channel=3, note=69, velocity=0, time=48),\n",
      "    Message('note_on', channel=3, note=71, velocity=94, time=12),\n",
      "    Message('note_on', channel=3, note=71, velocity=0, time=48),\n",
      "    Message('note_on', channel=3, note=74, velocity=94, time=12),\n",
      "    Message('note_on', channel=3, note=74, velocity=0, time=48),\n",
      "    Message('note_on', channel=3, note=72, velocity=94, time=12),\n",
      "    Message('note_on', channel=3, note=72, velocity=0, time=48),\n",
      "    Message('note_on', channel=3, note=72, velocity=94, time=12),\n",
      "    Message('note_on', channel=3, note=72, velocity=0, time=48),\n",
      "    Message('note_on', channel=3, note=76, velocity=94, time=12),\n",
      "    Message('note_on', channel=3, note=76, velocity=0, time=48),\n",
      "    Message('note_on', channel=3, note=74, velocity=94, time=12),\n",
      "    Message('note_on', channel=3, note=74, velocity=0, time=48),\n",
      "    Message('note_on', channel=3, note=74, velocity=94, time=12),\n",
      "    Message('note_on', channel=3, note=74, velocity=0, time=48),\n",
      "    Message('note_on', channel=3, note=79, velocity=94, time=12),\n",
      "    Message('note_on', channel=3, note=79, velocity=0, time=48),\n",
      "    Message('note_on', channel=3, note=78, velocity=94, time=12),\n",
      "    Message('note_on', channel=3, note=78, velocity=0, time=48),\n",
      "    Message('note_on', channel=3, note=79, velocity=94, time=12),\n",
      "    Message('note_on', channel=3, note=79, velocity=0, time=48),\n",
      "    Message('note_on', channel=3, note=74, velocity=94, time=12),\n",
      "    Message('note_on', channel=3, note=74, velocity=0, time=48),\n",
      "    Message('note_on', channel=3, note=71, velocity=94, time=12),\n",
      "    Message('note_on', channel=3, note=71, velocity=0, time=48),\n",
      "    Message('note_on', channel=3, note=67, velocity=94, time=12),\n",
      "    Message('note_on', channel=3, note=67, velocity=0, time=48),\n",
      "    Message('note_on', channel=3, note=69, velocity=94, time=12),\n",
      "    Message('note_on', channel=3, note=69, velocity=0, time=48),\n",
      "    Message('note_on', channel=3, note=71, velocity=94, time=12),\n",
      "    Message('note_on', channel=3, note=71, velocity=0, time=48),\n",
      "    Message('note_on', channel=3, note=64, velocity=94, time=12),\n",
      "    Message('note_on', channel=3, note=64, velocity=0, time=48),\n",
      "    Message('note_on', channel=3, note=74, velocity=94, time=12),\n",
      "    Message('note_on', channel=3, note=74, velocity=0, time=48),\n",
      "    Message('note_on', channel=3, note=72, velocity=94, time=12),\n",
      "    Message('note_on', channel=3, note=72, velocity=0, time=48),\n",
      "    Message('note_on', channel=3, note=71, velocity=94, time=12),\n",
      "    Message('note_on', channel=3, note=71, velocity=0, time=48),\n",
      "    Message('note_on', channel=3, note=69, velocity=94, time=12),\n",
      "    Message('note_on', channel=3, note=69, velocity=0, time=48),\n",
      "    Message('note_on', channel=3, note=67, velocity=94, time=12),\n",
      "    Message('note_on', channel=3, note=67, velocity=0, time=48),\n",
      "    Message('note_on', channel=3, note=62, velocity=94, time=12),\n",
      "    Message('note_on', channel=3, note=62, velocity=0, time=48),\n",
      "    Message('note_on', channel=3, note=67, velocity=94, time=12),\n",
      "    Message('note_on', channel=3, note=67, velocity=0, time=48),\n",
      "    Message('note_on', channel=3, note=66, velocity=94, time=12),\n",
      "    Message('note_on', channel=3, note=66, velocity=0, time=48),\n",
      "    Message('note_on', channel=3, note=67, velocity=94, time=12),\n",
      "    Message('note_on', channel=3, note=67, velocity=0, time=48),\n",
      "    Message('note_on', channel=3, note=71, velocity=94, time=12),\n",
      "    Message('note_on', channel=3, note=71, velocity=0, time=48),\n",
      "    Message('note_on', channel=3, note=74, velocity=94, time=12),\n",
      "    Message('note_on', channel=3, note=74, velocity=0, time=48),\n",
      "    Message('note_on', channel=3, note=79, velocity=94, time=12),\n",
      "    Message('note_on', channel=3, note=79, velocity=0, time=48),\n",
      "    Message('note_on', channel=3, note=74, velocity=94, time=12),\n",
      "    Message('note_on', channel=3, note=74, velocity=0, time=48),\n",
      "    Message('note_on', channel=3, note=71, velocity=94, time=12),\n",
      "    Message('note_on', channel=3, note=71, velocity=0, time=48),\n",
      "    Message('note_on', channel=3, note=67, velocity=94, time=12),\n",
      "    Message('note_on', channel=3, note=67, velocity=0, time=48),\n",
      "    Message('note_on', channel=3, note=71, velocity=94, time=12),\n",
      "    Message('note_on', channel=3, note=71, velocity=0, time=48),\n",
      "    Message('note_on', channel=3, note=74, velocity=94, time=12),\n",
      "    Message('note_on', channel=3, note=74, velocity=0, time=48),\n",
      "    Message('note_on', channel=3, note=62, velocity=94, time=12),\n",
      "    Message('note_on', channel=3, note=71, velocity=94, time=0),\n",
      "    Message('note_on', channel=3, note=67, velocity=94, time=0),\n",
      "    Message('note_on', channel=3, note=62, velocity=0, time=336),\n",
      "    Message('note_on', channel=3, note=71, velocity=0, time=0),\n",
      "    Message('note_on', channel=3, note=67, velocity=0, time=0),\n",
      "    Message('note_on', channel=3, note=64, velocity=94, time=24),\n",
      "    Message('note_on', channel=3, note=67, velocity=94, time=0),\n",
      "    Message('note_on', channel=3, note=60, velocity=94, time=0),\n",
      "    Message('note_on', channel=3, note=72, velocity=94, time=0),\n",
      "    Message('note_on', channel=3, note=64, velocity=0, time=168),\n",
      "    Message('note_on', channel=3, note=67, velocity=0, time=0),\n",
      "    Message('note_on', channel=3, note=60, velocity=0, time=0),\n",
      "    Message('note_on', channel=3, note=72, velocity=0, time=0),\n",
      "    Message('note_on', channel=3, note=74, velocity=94, time=12),\n",
      "    Message('note_on', channel=3, note=74, velocity=0, time=336),\n",
      "    Message('note_on', channel=3, note=66, velocity=94, time=24),\n",
      "    Message('note_on', channel=3, note=71, velocity=94, time=0),\n",
      "    Message('note_on', channel=3, note=74, velocity=94, time=0),\n",
      "    Message('note_on', channel=3, note=62, velocity=94, time=0),\n",
      "    Message('note_on', channel=3, note=66, velocity=0, time=168),\n",
      "    Message('note_on', channel=3, note=71, velocity=0, time=0),\n",
      "    Message('note_on', channel=3, note=74, velocity=0, time=0),\n",
      "    Message('note_on', channel=3, note=62, velocity=0, time=0),\n",
      "    Message('note_on', channel=3, note=72, velocity=94, time=12),\n",
      "    Message('note_on', channel=3, note=72, velocity=0, time=336),\n",
      "    Message('note_on', channel=3, note=67, velocity=94, time=24),\n",
      "    Message('note_on', channel=3, note=62, velocity=94, time=0),\n",
      "    Message('note_on', channel=3, note=71, velocity=94, time=0),\n",
      "    Message('note_on', channel=3, note=67, velocity=0, time=168),\n",
      "    Message('note_on', channel=3, note=62, velocity=0, time=0),\n",
      "    Message('note_on', channel=3, note=71, velocity=0, time=0),\n",
      "    Message('note_on', channel=3, note=66, velocity=94, time=12),\n",
      "    Message('note_on', channel=3, note=69, velocity=94, time=0),\n",
      "    Message('note_on', channel=3, note=66, velocity=0, time=48),\n",
      "    Message('note_on', channel=3, note=69, velocity=0, time=0),\n",
      "    Message('note_on', channel=3, note=62, velocity=94, time=12),\n",
      "    Message('note_on', channel=3, note=62, velocity=0, time=48),\n",
      "    Message('note_on', channel=3, note=64, velocity=94, time=12),\n",
      "    Message('note_on', channel=3, note=64, velocity=0, time=48),\n",
      "    Message('note_on', channel=3, note=66, velocity=94, time=12),\n",
      "    Message('note_on', channel=3, note=69, velocity=94, time=0),\n",
      "    Message('note_on', channel=3, note=66, velocity=0, time=48),\n",
      "    Message('note_on', channel=3, note=69, velocity=0, time=0),\n",
      "    Message('note_on', channel=3, note=69, velocity=94, time=12),\n",
      "    Message('note_on', channel=3, note=69, velocity=0, time=48),\n",
      "    Message('note_on', channel=3, note=67, velocity=94, time=12),\n",
      "    Message('note_on', channel=3, note=67, velocity=0, time=48),\n",
      "    Message('note_on', channel=3, note=69, velocity=94, time=12),\n",
      "    Message('note_on', channel=3, note=69, velocity=0, time=48),\n",
      "    Message('note_on', channel=3, note=72, velocity=94, time=12),\n",
      "    Message('note_on', channel=3, note=72, velocity=0, time=48),\n",
      "    Message('note_on', channel=3, note=71, velocity=94, time=12),\n",
      "    Message('note_on', channel=3, note=71, velocity=0, time=48),\n",
      "    Message('note_on', channel=3, note=72, velocity=94, time=12),\n",
      "    Message('note_on', channel=3, note=72, velocity=0, time=48),\n",
      "    Message('note_on', channel=3, note=69, velocity=94, time=12),\n",
      "    Message('note_on', channel=3, note=69, velocity=0, time=48),\n",
      "    Message('note_on', channel=3, note=66, velocity=94, time=12),\n",
      "    Message('note_on', channel=3, note=66, velocity=0, time=48),\n",
      "    Message('note_on', channel=3, note=62, velocity=94, time=12),\n",
      "    Message('note_on', channel=3, note=62, velocity=0, time=48),\n",
      "    Message('note_on', channel=3, note=66, velocity=94, time=12),\n",
      "    Message('note_on', channel=3, note=66, velocity=0, time=48),\n",
      "    Message('note_on', channel=3, note=69, velocity=94, time=12),\n",
      "    Message('note_on', channel=3, note=69, velocity=0, time=48),\n",
      "    Message('note_on', channel=3, note=72, velocity=94, time=12),\n",
      "    Message('note_on', channel=3, note=72, velocity=0, time=48),\n",
      "    Message('note_on', channel=3, note=71, velocity=94, time=12),\n",
      "    Message('note_on', channel=3, note=71, velocity=0, time=48),\n",
      "    Message('note_on', channel=3, note=69, velocity=94, time=12),\n",
      "    Message('note_on', channel=3, note=69, velocity=0, time=48),\n",
      "    Message('note_on', channel=3, note=67, velocity=94, time=12),\n",
      "    Message('note_on', channel=3, note=71, velocity=94, time=0),\n",
      "    Message('note_on', channel=3, note=67, velocity=0, time=336),\n",
      "    Message('note_on', channel=3, note=71, velocity=0, time=0),\n",
      "    Message('note_on', channel=3, note=64, velocity=94, time=24),\n",
      "    Message('note_on', channel=3, note=72, velocity=94, time=0),\n",
      "    Message('note_on', channel=3, note=67, velocity=94, time=0),\n",
      "    Message('note_on', channel=3, note=60, velocity=94, time=0),\n",
      "    Message('note_on', channel=3, note=64, velocity=0, time=168),\n",
      "    Message('note_on', channel=3, note=72, velocity=0, time=0),\n",
      "    Message('note_on', channel=3, note=67, velocity=0, time=0),\n",
      "    Message('note_on', channel=3, note=60, velocity=0, time=0),\n",
      "    Message('note_on', channel=3, note=67, velocity=94, time=12),\n",
      "    Message('note_on', channel=3, note=62, velocity=94, time=0),\n",
      "    Message('note_on', channel=3, note=74, velocity=94, time=0),\n",
      "    Message('note_on', channel=3, note=67, velocity=0, time=336),\n",
      "    Message('note_on', channel=3, note=62, velocity=0, time=0),\n",
      "    Message('note_on', channel=3, note=74, velocity=0, time=0),\n",
      "    Message('note_on', channel=3, note=67, velocity=94, time=24),\n",
      "    Message('note_on', channel=3, note=64, velocity=94, time=0),\n",
      "    Message('note_on', channel=3, note=71, velocity=94, time=0),\n",
      "    Message('note_on', channel=3, note=67, velocity=0, time=168),\n",
      "    Message('note_on', channel=3, note=64, velocity=0, time=0),\n",
      "    Message('note_on', channel=3, note=71, velocity=0, time=0),\n",
      "    Message('note_on', channel=3, note=69, velocity=94, time=12),\n",
      "    Message('note_on', channel=3, note=69, velocity=0, time=116),\n",
      "    Message('note_on', channel=3, note=71, velocity=94, time=4),\n",
      "    Message('note_on', channel=3, note=72, velocity=94, time=30),\n",
      "    Message('note_on', channel=3, note=71, velocity=0, time=14),\n",
      "    Message('note_on', channel=3, note=71, velocity=94, time=16),\n",
      "    Message('note_on', channel=3, note=66, velocity=94, time=0),\n",
      "    Message('note_on', channel=3, note=62, velocity=94, time=0),\n",
      "    Message('note_on', channel=3, note=72, velocity=0, time=14),\n",
      "    Message('note_on', channel=3, note=66, velocity=94, time=166),\n",
      "    Message('note_on', channel=3, note=60, velocity=94, time=0),\n",
      "    Message('note_on', channel=3, note=69, velocity=94, time=0),\n",
      "    Message('note_on', channel=3, note=71, velocity=0, time=8),\n",
      "    Message('note_on', channel=3, note=66, velocity=0, time=0),\n",
      "    Message('note_on', channel=3, note=62, velocity=0, time=0),\n",
      "    Message('note_on', channel=3, note=67, velocity=94, time=172),\n",
      "    Message('note_on', channel=3, note=66, velocity=0, time=8),\n",
      "    Message('note_on', channel=3, note=60, velocity=0, time=0),\n",
      "    Message('note_on', channel=3, note=69, velocity=0, time=0),\n",
      "    Message('note_on', channel=3, note=67, velocity=0, time=40),\n",
      "    Message('note_on', channel=3, note=71, velocity=94, time=12),\n",
      "    Message('note_on', channel=3, note=71, velocity=0, time=48),\n",
      "    Message('note_on', channel=3, note=69, velocity=94, time=12),\n",
      "    Message('note_on', channel=3, note=69, velocity=0, time=48),\n",
      "    Message('note_on', channel=3, note=71, velocity=94, time=12),\n",
      "    Message('note_on', channel=3, note=71, velocity=0, time=48),\n",
      "    Message('note_on', channel=3, note=74, velocity=94, time=12),\n",
      "    Message('note_on', channel=3, note=74, velocity=0, time=48),\n",
      "    Message('note_on', channel=3, note=72, velocity=94, time=12),\n",
      "    Message('note_on', channel=3, note=72, velocity=0, time=48),\n",
      "    Message('note_on', channel=3, note=72, velocity=94, time=12),\n",
      "    Message('note_on', channel=3, note=72, velocity=0, time=48),\n",
      "    Message('note_on', channel=3, note=76, velocity=94, time=12),\n",
      "    Message('note_on', channel=3, note=76, velocity=0, time=48),\n",
      "    Message('note_on', channel=3, note=74, velocity=94, time=12),\n",
      "    Message('note_on', channel=3, note=74, velocity=0, time=48),\n",
      "    Message('note_on', channel=3, note=74, velocity=94, time=12),\n",
      "    Message('note_on', channel=3, note=74, velocity=0, time=48),\n",
      "    Message('note_on', channel=3, note=79, velocity=94, time=12),\n",
      "    Message('note_on', channel=3, note=79, velocity=0, time=48),\n",
      "    Message('note_on', channel=3, note=78, velocity=94, time=12),\n",
      "    Message('note_on', channel=3, note=78, velocity=0, time=48),\n",
      "    Message('note_on', channel=3, note=79, velocity=94, time=12),\n",
      "    Message('note_on', channel=3, note=79, velocity=0, time=48),\n",
      "    Message('note_on', channel=3, note=74, velocity=94, time=12),\n",
      "    Message('note_on', channel=3, note=74, velocity=0, time=48),\n",
      "    Message('note_on', channel=3, note=71, velocity=94, time=12),\n",
      "    Message('note_on', channel=3, note=71, velocity=0, time=48),\n",
      "    Message('note_on', channel=3, note=67, velocity=94, time=12),\n",
      "    Message('note_on', channel=3, note=67, velocity=0, time=48),\n",
      "    Message('note_on', channel=3, note=69, velocity=94, time=12),\n",
      "    Message('note_on', channel=3, note=69, velocity=0, time=48),\n",
      "    Message('note_on', channel=3, note=71, velocity=94, time=12),\n",
      "    Message('note_on', channel=3, note=71, velocity=0, time=48),\n",
      "    Message('note_on', channel=3, note=72, velocity=94, time=12),\n",
      "    Message('note_on', channel=3, note=72, velocity=0, time=48),\n",
      "    Message('note_on', channel=3, note=74, velocity=94, time=12),\n",
      "    Message('note_on', channel=3, note=74, velocity=0, time=48),\n",
      "    Message('note_on', channel=3, note=76, velocity=94, time=12),\n",
      "    Message('note_on', channel=3, note=76, velocity=0, time=48),\n",
      "    Message('note_on', channel=3, note=74, velocity=94, time=12),\n",
      "    Message('note_on', channel=3, note=74, velocity=0, time=48),\n",
      "    Message('note_on', channel=3, note=72, velocity=94, time=12),\n",
      "    Message('note_on', channel=3, note=72, velocity=0, time=48),\n",
      "    Message('note_on', channel=3, note=71, velocity=94, time=12),\n",
      "    Message('note_on', channel=3, note=71, velocity=0, time=48),\n",
      "    Message('note_on', channel=3, note=69, velocity=94, time=12),\n",
      "    Message('note_on', channel=3, note=69, velocity=0, time=48),\n",
      "    Message('note_on', channel=3, note=71, velocity=94, time=12),\n",
      "    Message('note_on', channel=3, note=71, velocity=0, time=48),\n",
      "    Message('note_on', channel=3, note=67, velocity=94, time=12),\n",
      "    Message('note_on', channel=3, note=67, velocity=0, time=48),\n",
      "    Message('note_on', channel=3, note=66, velocity=94, time=12),\n",
      "    Message('note_on', channel=3, note=66, velocity=0, time=48),\n",
      "    Message('note_on', channel=3, note=67, velocity=94, time=12),\n",
      "    Message('note_on', channel=3, note=67, velocity=0, time=48),\n",
      "    Message('note_on', channel=3, note=69, velocity=94, time=12),\n",
      "    Message('note_on', channel=3, note=69, velocity=0, time=48),\n",
      "    Message('note_on', channel=3, note=62, velocity=94, time=12),\n",
      "    Message('note_on', channel=3, note=62, velocity=0, time=48),\n",
      "    Message('note_on', channel=3, note=66, velocity=94, time=12),\n",
      "    Message('note_on', channel=3, note=66, velocity=0, time=48),\n",
      "    Message('note_on', channel=3, note=69, velocity=94, time=12),\n",
      "    Message('note_on', channel=3, note=69, velocity=0, time=48),\n",
      "    Message('note_on', channel=3, note=72, velocity=94, time=12),\n",
      "    Message('note_on', channel=3, note=72, velocity=0, time=48),\n",
      "    Message('note_on', channel=3, note=71, velocity=94, time=12),\n",
      "    Message('note_on', channel=3, note=71, velocity=0, time=48),\n",
      "    Message('note_on', channel=3, note=69, velocity=94, time=12),\n",
      "    Message('note_on', channel=3, note=69, velocity=0, time=48),\n",
      "    Message('note_on', channel=3, note=71, velocity=94, time=12),\n",
      "    Message('note_on', channel=3, note=71, velocity=0, time=48),\n",
      "    Message('note_on', channel=3, note=67, velocity=94, time=12),\n",
      "    Message('note_on', channel=3, note=67, velocity=0, time=48),\n",
      "    Message('note_on', channel=3, note=69, velocity=94, time=12),\n",
      "    Message('note_on', channel=3, note=69, velocity=0, time=48),\n",
      "    Message('note_on', channel=3, note=71, velocity=94, time=12),\n",
      "    Message('note_on', channel=3, note=71, velocity=0, time=48),\n",
      "    Message('note_on', channel=3, note=74, velocity=94, time=12),\n",
      "    Message('note_on', channel=3, note=74, velocity=0, time=48),\n",
      "    Message('note_on', channel=3, note=72, velocity=94, time=12),\n",
      "    Message('note_on', channel=3, note=72, velocity=0, time=48),\n",
      "    Message('note_on', channel=3, note=72, velocity=94, time=12),\n",
      "    Message('note_on', channel=3, note=72, velocity=0, time=48),\n",
      "    Message('note_on', channel=3, note=76, velocity=94, time=12),\n",
      "    Message('note_on', channel=3, note=76, velocity=0, time=48),\n",
      "    Message('note_on', channel=3, note=74, velocity=94, time=12),\n",
      "    Message('note_on', channel=3, note=74, velocity=0, time=48),\n",
      "    Message('note_on', channel=3, note=74, velocity=94, time=12),\n",
      "    Message('note_on', channel=3, note=74, velocity=0, time=48),\n",
      "    Message('note_on', channel=3, note=79, velocity=94, time=12),\n",
      "    Message('note_on', channel=3, note=79, velocity=0, time=48),\n",
      "    Message('note_on', channel=3, note=78, velocity=94, time=12),\n",
      "    Message('note_on', channel=3, note=78, velocity=0, time=48),\n",
      "    Message('note_on', channel=3, note=79, velocity=94, time=12),\n",
      "    Message('note_on', channel=3, note=79, velocity=0, time=48),\n",
      "    Message('note_on', channel=3, note=74, velocity=94, time=12),\n",
      "    Message('note_on', channel=3, note=74, velocity=0, time=48),\n",
      "    Message('note_on', channel=3, note=71, velocity=94, time=12),\n",
      "    Message('note_on', channel=3, note=71, velocity=0, time=48),\n",
      "    Message('note_on', channel=3, note=67, velocity=94, time=12),\n",
      "    Message('note_on', channel=3, note=67, velocity=0, time=48),\n",
      "    Message('note_on', channel=3, note=69, velocity=94, time=12),\n",
      "    Message('note_on', channel=3, note=69, velocity=0, time=48),\n",
      "    Message('note_on', channel=3, note=71, velocity=94, time=12),\n",
      "    Message('note_on', channel=3, note=71, velocity=0, time=48),\n",
      "    Message('note_on', channel=3, note=64, velocity=94, time=12),\n",
      "    Message('note_on', channel=3, note=64, velocity=0, time=48),\n",
      "    Message('note_on', channel=3, note=74, velocity=94, time=12),\n",
      "    Message('note_on', channel=3, note=74, velocity=0, time=48),\n",
      "    Message('note_on', channel=3, note=72, velocity=94, time=12),\n",
      "    Message('note_on', channel=3, note=72, velocity=0, time=48),\n",
      "    Message('note_on', channel=3, note=71, velocity=94, time=12),\n",
      "    Message('note_on', channel=3, note=71, velocity=0, time=48),\n",
      "    Message('note_on', channel=3, note=69, velocity=94, time=12),\n",
      "    Message('note_on', channel=3, note=69, velocity=0, time=48),\n",
      "    Message('note_on', channel=3, note=67, velocity=94, time=12),\n",
      "    Message('note_on', channel=3, note=67, velocity=0, time=48),\n",
      "    Message('note_on', channel=3, note=62, velocity=94, time=12),\n",
      "    Message('note_on', channel=3, note=62, velocity=0, time=48),\n",
      "    Message('note_on', channel=3, note=67, velocity=94, time=12),\n",
      "    Message('note_on', channel=3, note=67, velocity=0, time=48),\n",
      "    Message('note_on', channel=3, note=66, velocity=94, time=12),\n",
      "    Message('note_on', channel=3, note=66, velocity=0, time=48),\n",
      "    Message('note_on', channel=3, note=67, velocity=94, time=12),\n",
      "    Message('note_on', channel=3, note=71, velocity=94, time=0),\n",
      "    Message('note_on', channel=3, note=67, velocity=0, time=336),\n",
      "    Message('note_on', channel=3, note=71, velocity=0, time=0),\n",
      "    Message('note_on', channel=3, note=64, velocity=94, time=24),\n",
      "    Message('note_on', channel=3, note=60, velocity=94, time=0),\n",
      "    Message('note_on', channel=3, note=67, velocity=94, time=0),\n",
      "    Message('note_on', channel=3, note=72, velocity=94, time=0),\n",
      "    Message('note_on', channel=3, note=64, velocity=0, time=168),\n",
      "    Message('note_on', channel=3, note=60, velocity=0, time=0),\n",
      "    Message('note_on', channel=3, note=67, velocity=0, time=0),\n",
      "    Message('note_on', channel=3, note=72, velocity=0, time=0),\n",
      "    Message('note_on', channel=3, note=74, velocity=94, time=12),\n",
      "    Message('note_on', channel=3, note=74, velocity=0, time=336),\n",
      "    Message('note_on', channel=3, note=66, velocity=94, time=24),\n",
      "    Message('note_on', channel=3, note=71, velocity=94, time=0),\n",
      "    Message('note_on', channel=3, note=74, velocity=94, time=0),\n",
      "    Message('note_on', channel=3, note=62, velocity=94, time=0),\n",
      "    Message('note_on', channel=3, note=66, velocity=0, time=168),\n",
      "    Message('note_on', channel=3, note=71, velocity=0, time=0),\n",
      "    Message('note_on', channel=3, note=74, velocity=0, time=0),\n",
      "    Message('note_on', channel=3, note=62, velocity=0, time=0),\n",
      "    Message('note_on', channel=3, note=72, velocity=94, time=12),\n",
      "    Message('note_on', channel=3, note=72, velocity=0, time=336),\n",
      "    Message('note_on', channel=3, note=67, velocity=94, time=24),\n",
      "    Message('note_on', channel=3, note=62, velocity=94, time=0),\n",
      "    Message('note_on', channel=3, note=71, velocity=94, time=0),\n",
      "    Message('note_on', channel=3, note=67, velocity=0, time=168),\n",
      "    Message('note_on', channel=3, note=62, velocity=0, time=0),\n",
      "    Message('note_on', channel=3, note=71, velocity=0, time=0),\n",
      "    Message('note_on', channel=3, note=66, velocity=94, time=12),\n",
      "    Message('note_on', channel=3, note=69, velocity=94, time=0),\n",
      "    Message('note_on', channel=3, note=66, velocity=0, time=48),\n",
      "    Message('note_on', channel=3, note=69, velocity=0, time=0),\n",
      "    Message('note_on', channel=3, note=62, velocity=94, time=12),\n",
      "    Message('note_on', channel=3, note=62, velocity=0, time=48),\n",
      "    Message('note_on', channel=3, note=64, velocity=94, time=12),\n",
      "    Message('note_on', channel=3, note=64, velocity=0, time=48),\n",
      "    Message('note_on', channel=3, note=66, velocity=94, time=12),\n",
      "    Message('note_on', channel=3, note=69, velocity=94, time=0),\n",
      "    Message('note_on', channel=3, note=66, velocity=0, time=48),\n",
      "    Message('note_on', channel=3, note=69, velocity=0, time=0),\n",
      "    Message('note_on', channel=3, note=69, velocity=94, time=12),\n",
      "    Message('note_on', channel=3, note=69, velocity=0, time=48),\n",
      "    Message('note_on', channel=3, note=67, velocity=94, time=12),\n",
      "    Message('note_on', channel=3, note=67, velocity=0, time=48),\n",
      "    Message('note_on', channel=3, note=69, velocity=94, time=12),\n",
      "    Message('note_on', channel=3, note=69, velocity=0, time=48),\n",
      "    Message('note_on', channel=3, note=72, velocity=94, time=12),\n",
      "    Message('note_on', channel=3, note=72, velocity=0, time=48),\n",
      "    Message('note_on', channel=3, note=71, velocity=94, time=12),\n",
      "    Message('note_on', channel=3, note=71, velocity=0, time=48),\n",
      "    Message('note_on', channel=3, note=72, velocity=94, time=12),\n",
      "    Message('note_on', channel=3, note=72, velocity=0, time=48),\n",
      "    Message('note_on', channel=3, note=69, velocity=94, time=12),\n",
      "    Message('note_on', channel=3, note=69, velocity=0, time=48),\n",
      "    Message('note_on', channel=3, note=66, velocity=94, time=12),\n",
      "    Message('note_on', channel=3, note=66, velocity=0, time=48),\n",
      "    Message('note_on', channel=3, note=62, velocity=94, time=12),\n",
      "    Message('note_on', channel=3, note=62, velocity=0, time=48),\n",
      "    Message('note_on', channel=3, note=66, velocity=94, time=12),\n",
      "    Message('note_on', channel=3, note=66, velocity=0, time=48),\n",
      "    Message('note_on', channel=3, note=69, velocity=94, time=12),\n",
      "    Message('note_on', channel=3, note=69, velocity=0, time=48),\n",
      "    Message('note_on', channel=3, note=72, velocity=94, time=12),\n",
      "    Message('note_on', channel=3, note=72, velocity=0, time=48),\n",
      "    Message('note_on', channel=3, note=71, velocity=94, time=12),\n",
      "    Message('note_on', channel=3, note=71, velocity=0, time=48),\n",
      "    Message('note_on', channel=3, note=69, velocity=94, time=12),\n",
      "    Message('note_on', channel=3, note=69, velocity=0, time=48),\n",
      "    Message('note_on', channel=3, note=71, velocity=94, time=12),\n",
      "    Message('note_on', channel=3, note=67, velocity=94, time=0),\n",
      "    Message('note_on', channel=3, note=71, velocity=0, time=336),\n",
      "    Message('note_on', channel=3, note=67, velocity=0, time=0),\n",
      "    Message('note_on', channel=3, note=64, velocity=94, time=24),\n",
      "    Message('note_on', channel=3, note=60, velocity=94, time=0),\n",
      "    Message('note_on', channel=3, note=67, velocity=94, time=0),\n",
      "    Message('note_on', channel=3, note=72, velocity=94, time=0),\n",
      "    Message('note_on', channel=3, note=64, velocity=0, time=168),\n",
      "    Message('note_on', channel=3, note=60, velocity=0, time=0),\n",
      "    Message('note_on', channel=3, note=67, velocity=0, time=0),\n",
      "    Message('note_on', channel=3, note=72, velocity=0, time=0),\n",
      "    Message('note_on', channel=3, note=67, velocity=94, time=12),\n",
      "    Message('note_on', channel=3, note=74, velocity=94, time=0),\n",
      "    Message('note_on', channel=3, note=62, velocity=94, time=0),\n",
      "    Message('note_on', channel=3, note=67, velocity=0, time=336),\n",
      "    Message('note_on', channel=3, note=74, velocity=0, time=0),\n",
      "    Message('note_on', channel=3, note=62, velocity=0, time=0),\n",
      "    Message('note_on', channel=3, note=67, velocity=94, time=24),\n",
      "    Message('note_on', channel=3, note=64, velocity=94, time=0),\n",
      "    Message('note_on', channel=3, note=71, velocity=94, time=0),\n",
      "    Message('note_on', channel=3, note=67, velocity=0, time=168),\n",
      "    Message('note_on', channel=3, note=64, velocity=0, time=0),\n",
      "    Message('note_on', channel=3, note=71, velocity=0, time=0),\n",
      "    Message('note_on', channel=3, note=69, velocity=94, time=12),\n",
      "    Message('note_on', channel=3, note=69, velocity=0, time=116),\n",
      "    Message('note_on', channel=3, note=71, velocity=94, time=4),\n",
      "    Message('note_on', channel=3, note=72, velocity=94, time=30),\n",
      "    Message('note_on', channel=3, note=71, velocity=0, time=14),\n",
      "    Message('note_on', channel=3, note=66, velocity=94, time=16),\n",
      "    Message('note_on', channel=3, note=71, velocity=94, time=0),\n",
      "    Message('note_on', channel=3, note=62, velocity=94, time=0),\n",
      "    Message('note_on', channel=3, note=72, velocity=0, time=14),\n",
      "    Message('note_on', channel=3, note=66, velocity=0, time=154),\n",
      "    Message('note_on', channel=3, note=71, velocity=0, time=0),\n",
      "    Message('note_on', channel=3, note=62, velocity=0, time=0),\n",
      "    Message('note_on', channel=3, note=66, velocity=94, time=12),\n",
      "    Message('note_on', channel=3, note=60, velocity=94, time=0),\n",
      "    Message('note_on', channel=3, note=69, velocity=94, time=0),\n",
      "    Message('note_on', channel=3, note=66, velocity=0, time=168),\n",
      "    Message('note_on', channel=3, note=60, velocity=0, time=0),\n",
      "    Message('note_on', channel=3, note=69, velocity=0, time=0),\n",
      "    Message('note_on', channel=3, note=67, velocity=94, time=12),\n",
      "    Message('note_on', channel=3, note=67, velocity=0, time=48),\n",
      "    Message('note_on', channel=3, note=71, velocity=94, time=12),\n",
      "    Message('note_on', channel=3, note=71, velocity=0, time=48),\n",
      "    Message('note_on', channel=3, note=69, velocity=94, time=12),\n",
      "    Message('note_on', channel=3, note=69, velocity=0, time=48),\n",
      "    Message('note_on', channel=3, note=71, velocity=94, time=12),\n",
      "    Message('note_on', channel=3, note=71, velocity=0, time=48),\n",
      "    Message('note_on', channel=3, note=74, velocity=94, time=12),\n",
      "    Message('note_on', channel=3, note=74, velocity=0, time=48),\n",
      "    Message('note_on', channel=3, note=72, velocity=94, time=12),\n",
      "    Message('note_on', channel=3, note=72, velocity=0, time=48),\n",
      "    Message('note_on', channel=3, note=72, velocity=94, time=12),\n",
      "    Message('note_on', channel=3, note=72, velocity=0, time=48),\n",
      "    Message('note_on', channel=3, note=76, velocity=94, time=12),\n",
      "    Message('note_on', channel=3, note=76, velocity=0, time=48),\n",
      "    Message('note_on', channel=3, note=74, velocity=94, time=12),\n",
      "    Message('note_on', channel=3, note=74, velocity=0, time=48),\n",
      "    Message('note_on', channel=3, note=74, velocity=94, time=12),\n",
      "    Message('note_on', channel=3, note=74, velocity=0, time=48),\n",
      "    Message('note_on', channel=3, note=79, velocity=94, time=12),\n",
      "    Message('note_on', channel=3, note=79, velocity=0, time=48),\n",
      "    Message('note_on', channel=3, note=78, velocity=94, time=12),\n",
      "    Message('note_on', channel=3, note=78, velocity=0, time=48),\n",
      "    Message('note_on', channel=3, note=79, velocity=94, time=12),\n",
      "    Message('note_on', channel=3, note=79, velocity=0, time=48),\n",
      "    Message('note_on', channel=3, note=74, velocity=94, time=12),\n",
      "    Message('note_on', channel=3, note=74, velocity=0, time=48),\n",
      "    Message('note_on', channel=3, note=71, velocity=94, time=12),\n",
      "    Message('note_on', channel=3, note=71, velocity=0, time=48),\n",
      "    Message('note_on', channel=3, note=67, velocity=94, time=12),\n",
      "    Message('note_on', channel=3, note=67, velocity=0, time=48),\n",
      "    Message('note_on', channel=3, note=69, velocity=94, time=12),\n",
      "    Message('note_on', channel=3, note=69, velocity=0, time=48),\n",
      "    Message('note_on', channel=3, note=71, velocity=94, time=12),\n",
      "    Message('note_on', channel=3, note=71, velocity=0, time=48),\n",
      "    Message('note_on', channel=3, note=72, velocity=94, time=12),\n",
      "    Message('note_on', channel=3, note=72, velocity=0, time=48),\n",
      "    Message('note_on', channel=3, note=74, velocity=94, time=12),\n",
      "    Message('note_on', channel=3, note=74, velocity=0, time=48),\n",
      "    Message('note_on', channel=3, note=76, velocity=94, time=12),\n",
      "    Message('note_on', channel=3, note=76, velocity=0, time=48),\n",
      "    Message('note_on', channel=3, note=74, velocity=94, time=12),\n",
      "    Message('note_on', channel=3, note=74, velocity=0, time=48),\n",
      "    Message('note_on', channel=3, note=72, velocity=94, time=12),\n",
      "    Message('note_on', channel=3, note=72, velocity=0, time=48),\n",
      "    Message('note_on', channel=3, note=71, velocity=94, time=12),\n",
      "    Message('note_on', channel=3, note=71, velocity=0, time=48),\n",
      "    Message('note_on', channel=3, note=69, velocity=94, time=12),\n",
      "    Message('note_on', channel=3, note=69, velocity=0, time=48),\n",
      "    Message('note_on', channel=3, note=71, velocity=94, time=12),\n",
      "    Message('note_on', channel=3, note=71, velocity=0, time=48),\n",
      "    Message('note_on', channel=3, note=67, velocity=94, time=12),\n",
      "    Message('note_on', channel=3, note=67, velocity=0, time=48),\n",
      "    Message('note_on', channel=3, note=66, velocity=94, time=12),\n",
      "    Message('note_on', channel=3, note=66, velocity=0, time=48),\n",
      "    Message('note_on', channel=3, note=67, velocity=94, time=12),\n",
      "    Message('note_on', channel=3, note=67, velocity=0, time=48),\n",
      "    Message('note_on', channel=3, note=69, velocity=94, time=12),\n",
      "    Message('note_on', channel=3, note=69, velocity=0, time=48),\n",
      "    Message('note_on', channel=3, note=62, velocity=94, time=12),\n",
      "    Message('note_on', channel=3, note=62, velocity=0, time=48),\n",
      "    Message('note_on', channel=3, note=66, velocity=94, time=12),\n",
      "    Message('note_on', channel=3, note=66, velocity=0, time=48),\n",
      "    Message('note_on', channel=3, note=69, velocity=94, time=12),\n",
      "    Message('note_on', channel=3, note=69, velocity=0, time=48),\n",
      "    Message('note_on', channel=3, note=72, velocity=94, time=12),\n",
      "    Message('note_on', channel=3, note=72, velocity=0, time=48),\n",
      "    Message('note_on', channel=3, note=71, velocity=94, time=12),\n",
      "    Message('note_on', channel=3, note=71, velocity=0, time=48),\n",
      "    Message('note_on', channel=3, note=69, velocity=94, time=12),\n",
      "    Message('note_on', channel=3, note=69, velocity=0, time=48),\n",
      "    Message('note_on', channel=3, note=71, velocity=94, time=12),\n",
      "    Message('note_on', channel=3, note=71, velocity=0, time=48),\n",
      "    Message('note_on', channel=3, note=67, velocity=94, time=12),\n",
      "    Message('note_on', channel=3, note=67, velocity=0, time=48),\n",
      "    Message('note_on', channel=3, note=69, velocity=94, time=12),\n",
      "    Message('note_on', channel=3, note=69, velocity=0, time=48),\n",
      "    Message('note_on', channel=3, note=71, velocity=94, time=12),\n",
      "    Message('note_on', channel=3, note=71, velocity=0, time=48),\n",
      "    Message('note_on', channel=3, note=74, velocity=94, time=12),\n",
      "    Message('note_on', channel=3, note=74, velocity=0, time=48),\n",
      "    Message('note_on', channel=3, note=72, velocity=94, time=12),\n",
      "    Message('note_on', channel=3, note=72, velocity=0, time=48),\n",
      "    Message('note_on', channel=3, note=72, velocity=94, time=12),\n",
      "    Message('note_on', channel=3, note=72, velocity=0, time=48),\n",
      "    Message('note_on', channel=3, note=76, velocity=94, time=12),\n",
      "    Message('note_on', channel=3, note=76, velocity=0, time=48),\n",
      "    Message('note_on', channel=3, note=74, velocity=94, time=12),\n",
      "    Message('note_on', channel=3, note=74, velocity=0, time=48),\n",
      "    Message('note_on', channel=3, note=74, velocity=94, time=12),\n",
      "    Message('note_on', channel=3, note=74, velocity=0, time=48),\n",
      "    Message('note_on', channel=3, note=79, velocity=94, time=12),\n",
      "    Message('note_on', channel=3, note=79, velocity=0, time=48),\n",
      "    Message('note_on', channel=3, note=78, velocity=94, time=12),\n",
      "    Message('note_on', channel=3, note=78, velocity=0, time=48),\n",
      "    Message('note_on', channel=3, note=79, velocity=94, time=12),\n",
      "    Message('note_on', channel=3, note=79, velocity=0, time=48),\n",
      "    Message('note_on', channel=3, note=74, velocity=94, time=12),\n",
      "    Message('note_on', channel=3, note=74, velocity=0, time=48),\n",
      "    Message('note_on', channel=3, note=71, velocity=94, time=12),\n",
      "    Message('note_on', channel=3, note=71, velocity=0, time=48),\n",
      "    Message('note_on', channel=3, note=67, velocity=94, time=12),\n",
      "    Message('note_on', channel=3, note=67, velocity=0, time=48),\n",
      "    Message('note_on', channel=3, note=69, velocity=94, time=12),\n",
      "    Message('note_on', channel=3, note=69, velocity=0, time=48),\n",
      "    Message('note_on', channel=3, note=71, velocity=94, time=12),\n",
      "    Message('note_on', channel=3, note=71, velocity=0, time=48),\n",
      "    Message('note_on', channel=3, note=64, velocity=94, time=12),\n",
      "    Message('note_on', channel=3, note=64, velocity=0, time=48),\n",
      "    Message('note_on', channel=3, note=74, velocity=94, time=12),\n",
      "    Message('note_on', channel=3, note=74, velocity=0, time=48),\n",
      "    Message('note_on', channel=3, note=72, velocity=94, time=12),\n",
      "    Message('note_on', channel=3, note=72, velocity=0, time=48),\n",
      "    Message('note_on', channel=3, note=71, velocity=94, time=12),\n",
      "    Message('note_on', channel=3, note=71, velocity=0, time=48),\n",
      "    Message('note_on', channel=3, note=69, velocity=94, time=12),\n",
      "    Message('note_on', channel=3, note=69, velocity=0, time=48),\n",
      "    Message('note_on', channel=3, note=67, velocity=94, time=12),\n",
      "    Message('note_on', channel=3, note=67, velocity=0, time=48),\n",
      "    Message('note_on', channel=3, note=62, velocity=94, time=12),\n",
      "    Message('note_on', channel=3, note=62, velocity=0, time=48),\n",
      "    Message('note_on', channel=3, note=67, velocity=94, time=12),\n",
      "    Message('note_on', channel=3, note=67, velocity=0, time=48),\n",
      "    Message('note_on', channel=3, note=66, velocity=94, time=12),\n",
      "    Message('note_on', channel=3, note=66, velocity=0, time=48),\n",
      "    Message('note_on', channel=3, note=67, velocity=94, time=12),\n",
      "    Message('note_on', channel=3, note=67, velocity=0, time=48),\n",
      "    Message('note_on', channel=3, note=71, velocity=94, time=12),\n",
      "    Message('note_on', channel=3, note=71, velocity=0, time=48),\n",
      "    Message('note_on', channel=3, note=74, velocity=94, time=12),\n",
      "    Message('note_on', channel=3, note=74, velocity=0, time=48),\n",
      "    Message('note_on', channel=3, note=79, velocity=94, time=12),\n",
      "    Message('note_on', channel=3, note=79, velocity=0, time=48),\n",
      "    Message('note_on', channel=3, note=74, velocity=94, time=12),\n",
      "    Message('note_on', channel=3, note=74, velocity=0, time=48),\n",
      "    Message('note_on', channel=3, note=71, velocity=94, time=12),\n",
      "    Message('note_on', channel=3, note=71, velocity=0, time=48),\n",
      "    Message('note_on', channel=3, note=67, velocity=94, time=12),\n",
      "    Message('note_on', channel=3, note=67, velocity=0, time=168),\n",
      "    Message('note_on', channel=3, note=66, velocity=84, time=13),\n",
      "    Message('note_on', channel=3, note=69, velocity=84, time=0),\n",
      "    Message('note_on', channel=3, note=66, velocity=0, time=336),\n",
      "    Message('note_on', channel=3, note=69, velocity=0, time=0),\n",
      "    Message('note_on', channel=3, note=68, velocity=84, time=24),\n",
      "    Message('note_on', channel=3, note=71, velocity=84, time=0),\n",
      "    Message('note_on', channel=3, note=62, velocity=84, time=0),\n",
      "    Message('note_on', channel=3, note=68, velocity=0, time=168),\n",
      "    Message('note_on', channel=3, note=71, velocity=0, time=0),\n",
      "    Message('note_on', channel=3, note=62, velocity=0, time=0),\n",
      "    Message('note_on', channel=3, note=72, velocity=84, time=12),\n",
      "    Message('note_on', channel=3, note=64, velocity=84, time=0),\n",
      "    Message('note_on', channel=3, note=69, velocity=84, time=0),\n",
      "    Message('note_on', channel=3, note=72, velocity=0, time=336),\n",
      "    Message('note_on', channel=3, note=64, velocity=0, time=0),\n",
      "    Message('note_on', channel=3, note=69, velocity=0, time=0),\n",
      "    Message('note_on', channel=3, note=69, velocity=84, time=24),\n",
      "    Message('note_on', channel=3, note=64, velocity=84, time=0),\n",
      "    Message('note_on', channel=3, note=72, velocity=84, time=0),\n",
      "    Message('note_on', channel=3, note=69, velocity=0, time=168),\n",
      "    Message('note_on', channel=3, note=64, velocity=0, time=0),\n",
      "    Message('note_on', channel=3, note=72, velocity=0, time=0),\n",
      "    Message('note_on', channel=3, note=71, velocity=84, time=12),\n",
      "    Message('note_on', channel=3, note=71, velocity=0, time=276),\n",
      "    Message('note_on', channel=3, note=72, velocity=84, time=24),\n",
      "    Message('note_on', channel=3, note=72, velocity=0, time=24),\n",
      "    Message('note_on', channel=3, note=74, velocity=84, time=6),\n",
      "    Message('note_on', channel=3, note=74, velocity=0, time=24),\n",
      "    Message('note_on', channel=3, note=71, velocity=84, time=6),\n",
      "    Message('note_on', channel=3, note=68, velocity=84, time=0),\n",
      "    Message('note_on', channel=3, note=71, velocity=0, time=168),\n",
      "    Message('note_on', channel=3, note=68, velocity=0, time=0),\n",
      "    Message('note_on', channel=3, note=67, velocity=84, time=12),\n",
      "    Message('note_on', channel=3, note=67, velocity=0, time=168),\n",
      "    Message('note_on', channel=3, note=67, velocity=84, time=12),\n",
      "    Message('note_on', channel=3, note=67, velocity=0, time=48),\n",
      "    Message('note_on', channel=3, note=76, velocity=84, time=12),\n",
      "    Message('note_on', channel=3, note=76, velocity=0, time=48),\n",
      "    Message('note_on', channel=3, note=74, velocity=84, time=12),\n",
      "    Message('note_on', channel=3, note=74, velocity=0, time=48),\n",
      "    Message('note_on', channel=3, note=74, velocity=84, time=12),\n",
      "    Message('note_on', channel=3, note=74, velocity=0, time=48),\n",
      "    Message('note_on', channel=3, note=77, velocity=84, time=12),\n",
      "    Message('note_on', channel=3, note=77, velocity=0, time=48),\n",
      "    Message('note_on', channel=3, note=76, velocity=84, time=12),\n",
      "    Message('note_on', channel=3, note=76, velocity=0, time=48),\n",
      "    Message('note_on', channel=3, note=76, velocity=84, time=12),\n",
      "    Message('note_on', channel=3, note=76, velocity=0, time=48),\n",
      "    Message('note_on', channel=3, note=81, velocity=84, time=12),\n",
      "    Message('note_on', channel=3, note=81, velocity=0, time=48),\n",
      "    Message('note_on', channel=3, note=80, velocity=84, time=12),\n",
      "    Message('note_on', channel=3, note=80, velocity=0, time=48),\n",
      "    Message('note_on', channel=3, note=81, velocity=84, time=12),\n",
      "    Message('note_on', channel=3, note=81, velocity=0, time=48),\n",
      "    Message('note_on', channel=3, note=76, velocity=84, time=12),\n",
      "    Message('note_on', channel=3, note=76, velocity=0, time=48),\n",
      "    Message('note_on', channel=3, note=72, velocity=84, time=12),\n",
      "    Message('note_on', channel=3, note=72, velocity=0, time=48),\n",
      "    Message('note_on', channel=3, note=69, velocity=84, time=12),\n",
      "    Message('note_on', channel=3, note=69, velocity=0, time=48),\n",
      "    Message('note_on', channel=3, note=71, velocity=84, time=12),\n",
      "    Message('note_on', channel=3, note=71, velocity=0, time=48),\n",
      "    Message('note_on', channel=3, note=72, velocity=84, time=12),\n",
      "    Message('note_on', channel=3, note=72, velocity=0, time=48),\n",
      "    Message('note_on', channel=3, note=77, velocity=84, time=12),\n",
      "    Message('note_on', channel=3, note=77, velocity=0, time=48),\n",
      "    Message('note_on', channel=3, note=76, velocity=84, time=12),\n",
      "    Message('note_on', channel=3, note=76, velocity=0, time=48),\n",
      "    Message('note_on', channel=3, note=74, velocity=84, time=12),\n",
      "    Message('note_on', channel=3, note=74, velocity=0, time=48),\n",
      "    Message('note_on', channel=3, note=72, velocity=84, time=12),\n",
      "    Message('note_on', channel=3, note=72, velocity=0, time=48),\n",
      "    Message('note_on', channel=3, note=71, velocity=84, time=12),\n",
      "    Message('note_on', channel=3, note=71, velocity=0, time=48),\n",
      "    Message('note_on', channel=3, note=69, velocity=84, time=12),\n",
      "    Message('note_on', channel=3, note=69, velocity=0, time=48),\n",
      "    Message('note_on', channel=3, note=64, velocity=84, time=12),\n",
      "    Message('note_on', channel=3, note=64, velocity=0, time=48),\n",
      "    Message('note_on', channel=3, note=69, velocity=84, time=12),\n",
      "    Message('note_on', channel=3, note=69, velocity=0, time=48),\n",
      "    Message('note_on', channel=3, note=68, velocity=84, time=12),\n",
      "    Message('note_on', channel=3, note=62, velocity=84, time=0),\n",
      "    Message('note_on', channel=3, note=68, velocity=0, time=48),\n",
      "    Message('note_on', channel=3, note=62, velocity=0, time=0),\n",
      "    Message('note_on', channel=3, note=64, velocity=84, time=12),\n",
      "    Message('note_on', channel=3, note=69, velocity=84, time=0),\n",
      "    Message('note_on', channel=3, note=72, velocity=84, time=0),\n",
      "    Message('note_on', channel=3, note=64, velocity=0, time=336),\n",
      "    Message('note_on', channel=3, note=69, velocity=0, time=0),\n",
      "    Message('note_on', channel=3, note=72, velocity=0, time=0),\n",
      "    Message('note_on', channel=3, note=74, velocity=84, time=24),\n",
      "    Message('note_on', channel=3, note=62, velocity=84, time=0),\n",
      "    Message('note_on', channel=3, note=67, velocity=84, time=0),\n",
      "    Message('note_on', channel=3, note=74, velocity=0, time=168),\n",
      "    Message('note_on', channel=3, note=62, velocity=0, time=0),\n",
      "    Message('note_on', channel=3, note=67, velocity=0, time=0),\n",
      "    Message('note_on', channel=3, note=72, velocity=84, time=12),\n",
      "    Message('note_on', channel=3, note=76, velocity=84, time=0),\n",
      "    Message('note_on', channel=3, note=72, velocity=0, time=336),\n",
      "    Message('note_on', channel=3, note=76, velocity=0, time=0),\n",
      "    Message('note_on', channel=3, note=72, velocity=84, time=24),\n",
      "    Message('note_on', channel=3, note=76, velocity=84, time=0),\n",
      "    Message('note_on', channel=3, note=67, velocity=84, time=0),\n",
      "    Message('note_on', channel=3, note=72, velocity=0, time=168),\n",
      "    Message('note_on', channel=3, note=76, velocity=0, time=0),\n",
      "    Message('note_on', channel=3, note=67, velocity=0, time=0),\n",
      "    Message('note_on', channel=3, note=74, velocity=84, time=12),\n",
      "    Message('note_on', channel=3, note=74, velocity=0, time=276),\n",
      "    Message('note_on', channel=3, note=76, velocity=84, time=24),\n",
      "    Message('note_on', channel=3, note=76, velocity=0, time=24),\n",
      "    Message('note_on', channel=3, note=77, velocity=84, time=6),\n",
      "    Message('note_on', channel=3, note=77, velocity=0, time=24),\n",
      "    Message('note_on', channel=3, note=74, velocity=84, time=6),\n",
      "    Message('note_on', channel=3, note=74, velocity=0, time=168),\n",
      "    Message('note_on', channel=3, note=64, velocity=84, time=12),\n",
      "    Message('note_on', channel=3, note=72, velocity=84, time=0),\n",
      "    Message('note_on', channel=3, note=64, velocity=0, time=168),\n",
      "    Message('note_on', channel=3, note=72, velocity=0, time=0),\n",
      "    Message('note_on', channel=3, note=72, velocity=84, time=12),\n",
      "    Message('note_on', channel=3, note=72, velocity=0, time=48),\n",
      "    Message('note_on', channel=3, note=76, velocity=84, time=12),\n",
      "    Message('note_on', channel=3, note=76, velocity=0, time=48),\n",
      "    Message('note_on', channel=3, note=72, velocity=84, time=12),\n",
      "    Message('note_on', channel=3, note=72, velocity=0, time=48),\n",
      "    Message('note_on', channel=3, note=67, velocity=84, time=12),\n",
      "    Message('note_on', channel=3, note=67, velocity=0, time=48),\n",
      "    Message('note_on', channel=3, note=69, velocity=84, time=12),\n",
      "    Message('note_on', channel=3, note=69, velocity=0, time=48),\n",
      "    Message('note_on', channel=3, note=70, velocity=84, time=12),\n",
      "    Message('note_on', channel=3, note=70, velocity=0, time=48),\n",
      "    Message('note_on', channel=3, note=69, velocity=84, time=12),\n",
      "    Message('note_on', channel=3, note=69, velocity=0, time=48),\n",
      "    Message('note_on', channel=3, note=72, velocity=84, time=12),\n",
      "    Message('note_on', channel=3, note=72, velocity=0, time=48),\n",
      "    Message('note_on', channel=3, note=71, velocity=84, time=12),\n",
      "    Message('note_on', channel=3, note=71, velocity=0, time=48),\n",
      "    Message('note_on', channel=3, note=72, velocity=84, time=12),\n",
      "    Message('note_on', channel=3, note=72, velocity=0, time=48),\n",
      "    Message('note_on', channel=3, note=69, velocity=84, time=12),\n",
      "    Message('note_on', channel=3, note=69, velocity=0, time=48),\n",
      "    Message('note_on', channel=3, note=66, velocity=84, time=12),\n",
      "    Message('note_on', channel=3, note=66, velocity=0, time=48),\n",
      "    Message('note_on', channel=3, note=62, velocity=84, time=12),\n",
      "    Message('note_on', channel=3, note=62, velocity=0, time=48),\n",
      "    Message('note_on', channel=3, note=64, velocity=84, time=12),\n",
      "    Message('note_on', channel=3, note=64, velocity=0, time=48),\n",
      "    Message('note_on', channel=3, note=66, velocity=84, time=12),\n",
      "    Message('note_on', channel=3, note=66, velocity=0, time=48),\n",
      "    Message('note_on', channel=3, note=64, velocity=84, time=12),\n",
      "    Message('note_on', channel=3, note=64, velocity=0, time=48),\n",
      "    Message('note_on', channel=3, note=60, velocity=84, time=12),\n",
      "    Message('note_on', channel=3, note=60, velocity=0, time=48),\n",
      "    Message('note_on', channel=3, note=62, velocity=84, time=12),\n",
      "    Message('note_on', channel=3, note=62, velocity=0, time=48),\n",
      "    Message('note_on', channel=3, note=64, velocity=84, time=12),\n",
      "    Message('note_on', channel=3, note=64, velocity=0, time=48),\n",
      "    Message('note_on', channel=3, note=67, velocity=84, time=12),\n",
      "    Message('note_on', channel=3, note=67, velocity=0, time=48),\n",
      "    Message('note_on', channel=3, note=66, velocity=84, time=12),\n",
      "    Message('note_on', channel=3, note=66, velocity=0, time=48),\n",
      "    Message('note_on', channel=3, note=67, velocity=84, time=12),\n",
      "    Message('note_on', channel=3, note=67, velocity=0, time=48),\n",
      "    Message('note_on', channel=3, note=71, velocity=84, time=12),\n",
      "    Message('note_on', channel=3, note=71, velocity=0, time=48),\n",
      "    Message('note_on', channel=3, note=69, velocity=84, time=12),\n",
      "    Message('note_on', channel=3, note=69, velocity=0, time=48),\n",
      "    Message('note_on', channel=3, note=67, velocity=84, time=12),\n",
      "    Message('note_on', channel=3, note=71, velocity=84, time=0),\n",
      "    Message('note_on', channel=3, note=67, velocity=0, time=336),\n",
      "    Message('note_on', channel=3, note=71, velocity=0, time=0),\n",
      "    Message('note_on', channel=3, note=64, velocity=84, time=24),\n",
      "    Message('note_on', channel=3, note=60, velocity=84, time=0),\n",
      "    Message('note_on', channel=3, note=67, velocity=84, time=0),\n",
      "    Message('note_on', channel=3, note=72, velocity=84, time=0),\n",
      "    Message('note_on', channel=3, note=64, velocity=0, time=168),\n",
      "    Message('note_on', channel=3, note=60, velocity=0, time=0),\n",
      "    Message('note_on', channel=3, note=67, velocity=0, time=0),\n",
      "    Message('note_on', channel=3, note=72, velocity=0, time=0),\n",
      "    Message('note_on', channel=3, note=74, velocity=84, time=12),\n",
      "    Message('note_on', channel=3, note=67, velocity=84, time=0),\n",
      "    Message('note_on', channel=3, note=62, velocity=84, time=0),\n",
      "    Message('note_on', channel=3, note=74, velocity=0, time=336),\n",
      "    Message('note_on', channel=3, note=67, velocity=0, time=0),\n",
      "    Message('note_on', channel=3, note=62, velocity=0, time=0),\n",
      "    Message('note_on', channel=3, note=74, velocity=84, time=24),\n",
      "    Message('note_on', channel=3, note=67, velocity=84, time=0),\n",
      "    Message('note_on', channel=3, note=62, velocity=84, time=0),\n",
      "    Message('note_on', channel=3, note=74, velocity=0, time=168),\n",
      "    Message('note_on', channel=3, note=67, velocity=0, time=0),\n",
      "    Message('note_on', channel=3, note=62, velocity=0, time=0),\n",
      "    Message('note_on', channel=3, note=69, velocity=84, time=12),\n",
      "    Message('note_on', channel=3, note=64, velocity=84, time=0),\n",
      "    Message('note_on', channel=3, note=72, velocity=84, time=0),\n",
      "    Message('note_on', channel=3, note=69, velocity=0, time=168),\n",
      "    Message('note_on', channel=3, note=64, velocity=0, time=0),\n",
      "    Message('note_on', channel=3, note=72, velocity=0, time=0),\n",
      "    Message('note_on', channel=3, note=71, velocity=84, time=12),\n",
      "    Message('note_on', channel=3, note=71, velocity=0, time=336),\n",
      "    Message('note_on', channel=3, note=66, velocity=84, time=24),\n",
      "    Message('note_on', channel=3, note=69, velocity=84, time=0),\n",
      "    Message('note_on', channel=3, note=66, velocity=0, time=48),\n",
      "    Message('note_on', channel=3, note=69, velocity=0, time=0),\n",
      "    Message('note_on', channel=3, note=62, velocity=84, time=12),\n",
      "    Message('note_on', channel=3, note=62, velocity=0, time=48),\n",
      "    Message('note_on', channel=3, note=64, velocity=84, time=12),\n",
      "    Message('note_on', channel=3, note=64, velocity=0, time=48),\n",
      "    Message('note_on', channel=3, note=66, velocity=84, time=12),\n",
      "    Message('note_on', channel=3, note=66, velocity=0, time=48),\n",
      "    Message('note_on', channel=3, note=69, velocity=84, time=12),\n",
      "    Message('note_on', channel=3, note=69, velocity=0, time=48),\n",
      "    Message('note_on', channel=3, note=67, velocity=84, time=12),\n",
      "    Message('note_on', channel=3, note=67, velocity=0, time=48),\n",
      "    Message('note_on', channel=3, note=69, velocity=84, time=12),\n",
      "    Message('note_on', channel=3, note=69, velocity=0, time=48),\n",
      "    Message('note_on', channel=3, note=72, velocity=84, time=12),\n",
      "    Message('note_on', channel=3, note=72, velocity=0, time=48),\n",
      "    Message('note_on', channel=3, note=71, velocity=84, time=12),\n",
      "    Message('note_on', channel=3, note=71, velocity=0, time=48),\n",
      "    Message('note_on', channel=3, note=72, velocity=84, time=12),\n",
      "    Message('note_on', channel=3, note=72, velocity=0, time=48),\n",
      "    Message('note_on', channel=3, note=69, velocity=84, time=12),\n",
      "    Message('note_on', channel=3, note=69, velocity=0, time=48),\n",
      "    Message('note_on', channel=3, note=66, velocity=84, time=12),\n",
      "    Message('note_on', channel=3, note=66, velocity=0, time=48),\n",
      "    Message('note_on', channel=3, note=62, velocity=84, time=12),\n",
      "    Message('note_on', channel=3, note=62, velocity=0, time=48),\n",
      "    Message('note_on', channel=3, note=66, velocity=84, time=12),\n",
      "    Message('note_on', channel=3, note=66, velocity=0, time=48),\n",
      "    Message('note_on', channel=3, note=69, velocity=84, time=12),\n",
      "    Message('note_on', channel=3, note=69, velocity=0, time=48),\n",
      "    Message('note_on', channel=3, note=72, velocity=84, time=12),\n",
      "    Message('note_on', channel=3, note=72, velocity=0, time=48),\n",
      "    Message('note_on', channel=3, note=71, velocity=84, time=12),\n",
      "    Message('note_on', channel=3, note=71, velocity=0, time=48),\n",
      "    Message('note_on', channel=3, note=69, velocity=84, time=12),\n",
      "    Message('note_on', channel=3, note=69, velocity=0, time=48),\n",
      "    Message('note_on', channel=3, note=67, velocity=84, time=12),\n",
      "    Message('note_on', channel=3, note=71, velocity=84, time=0),\n",
      "    Message('note_on', channel=3, note=67, velocity=0, time=336),\n",
      "    Message('note_on', channel=3, note=71, velocity=0, time=0),\n",
      "    Message('note_on', channel=3, note=72, velocity=84, time=24),\n",
      "    Message('note_on', channel=3, note=67, velocity=84, time=0),\n",
      "    Message('note_on', channel=3, note=64, velocity=84, time=0),\n",
      "    Message('note_on', channel=3, note=60, velocity=84, time=0),\n",
      "    Message('note_on', channel=3, note=72, velocity=0, time=168),\n",
      "    Message('note_on', channel=3, note=67, velocity=0, time=0),\n",
      "    Message('note_on', channel=3, note=64, velocity=0, time=0),\n",
      "    Message('note_on', channel=3, note=60, velocity=0, time=0),\n",
      "    Message('note_on', channel=3, note=74, velocity=84, time=12),\n",
      "    Message('note_on', channel=3, note=62, velocity=84, time=0),\n",
      "    Message('note_on', channel=3, note=67, velocity=84, time=0),\n",
      "    Message('note_on', channel=3, note=74, velocity=0, time=336),\n",
      "    Message('note_on', channel=3, note=62, velocity=0, time=0),\n",
      "    Message('note_on', channel=3, note=67, velocity=0, time=0),\n",
      "    Message('note_on', channel=3, note=67, velocity=84, time=24),\n",
      "    Message('note_on', channel=3, note=64, velocity=84, time=0),\n",
      "    Message('note_on', channel=3, note=71, velocity=84, time=0),\n",
      "    Message('note_on', channel=3, note=67, velocity=0, time=168),\n",
      "    Message('note_on', channel=3, note=64, velocity=0, time=0),\n",
      "    Message('note_on', channel=3, note=71, velocity=0, time=0),\n",
      "    Message('note_on', channel=3, note=69, velocity=84, time=12),\n",
      "    Message('note_on', channel=3, note=69, velocity=0, time=96),\n",
      "    Message('note_on', channel=3, note=71, velocity=84, time=24),\n",
      "    Message('note_on', channel=3, note=71, velocity=0, time=24),\n",
      "    Message('note_on', channel=3, note=72, velocity=84, time=6),\n",
      "    Message('note_on', channel=3, note=72, velocity=0, time=24),\n",
      "    Message('note_on', channel=3, note=71, velocity=84, time=6),\n",
      "    Message('note_on', channel=3, note=71, velocity=0, time=168),\n",
      "    Message('note_on', channel=3, note=69, velocity=84, time=12),\n",
      "    Message('note_on', channel=3, note=69, velocity=0, time=168),\n",
      "    Message('note_on', channel=3, note=67, velocity=84, time=12),\n",
      "    Message('note_on', channel=3, note=67, velocity=0, time=48),\n",
      "    Message('note_on', channel=3, note=71, velocity=84, time=12),\n",
      "    Message('note_on', channel=3, note=71, velocity=0, time=48),\n",
      "    Message('note_on', channel=3, note=74, velocity=84, time=12),\n",
      "    Message('note_on', channel=3, note=74, velocity=0, time=48),\n",
      "    Message('note_on', channel=3, note=79, velocity=84, time=12),\n",
      "    Message('note_on', channel=3, note=79, velocity=0, time=48),\n",
      "    Message('note_on', channel=3, note=74, velocity=84, time=12),\n",
      "    Message('note_on', channel=3, note=74, velocity=0, time=48),\n",
      "    Message('note_on', channel=3, note=71, velocity=84, time=12),\n",
      "    Message('note_on', channel=3, note=71, velocity=0, time=48),\n",
      "    Message('note_on', channel=3, note=67, velocity=84, time=12),\n",
      "    Message('note_on', channel=3, note=67, velocity=0, time=48),\n",
      "    Message('note_on', channel=3, note=71, velocity=84, time=12),\n",
      "    Message('note_on', channel=3, note=71, velocity=0, time=48),\n",
      "    Message('note_on', channel=3, note=74, velocity=84, time=12),\n",
      "    Message('note_on', channel=3, note=74, velocity=0, time=48),\n",
      "    Message('note_on', channel=3, note=77, velocity=84, time=12),\n",
      "    Message('note_on', channel=3, note=77, velocity=0, time=48),\n",
      "    Message('note_on', channel=3, note=74, velocity=84, time=12),\n",
      "    Message('note_on', channel=3, note=74, velocity=0, time=48),\n",
      "    Message('note_on', channel=3, note=71, velocity=84, time=12),\n",
      "    Message('note_on', channel=3, note=71, velocity=0, time=48),\n",
      "    Message('note_on', channel=3, note=67, velocity=84, time=12),\n",
      "    Message('note_on', channel=3, note=67, velocity=0, time=48),\n",
      "    Message('note_on', channel=3, note=71, velocity=84, time=12),\n",
      "    Message('note_on', channel=3, note=71, velocity=0, time=48),\n",
      "    Message('note_on', channel=3, note=74, velocity=84, time=12),\n",
      "    Message('note_on', channel=3, note=74, velocity=0, time=48),\n",
      "    Message('note_on', channel=3, note=76, velocity=84, time=12),\n",
      "    Message('note_on', channel=3, note=76, velocity=0, time=48),\n",
      "    Message('note_on', channel=3, note=72, velocity=84, time=12),\n",
      "    Message('note_on', channel=3, note=72, velocity=0, time=48),\n",
      "    Message('note_on', channel=3, note=69, velocity=84, time=12),\n",
      "    Message('note_on', channel=3, note=69, velocity=0, time=48),\n",
      "    Message('note_on', channel=3, note=66, velocity=84, time=12),\n",
      "    Message('note_on', channel=3, note=66, velocity=0, time=48),\n",
      "    Message('note_on', channel=3, note=69, velocity=84, time=12),\n",
      "    Message('note_on', channel=3, note=69, velocity=0, time=48),\n",
      "    Message('note_on', channel=3, note=72, velocity=84, time=12),\n",
      "    Message('note_on', channel=3, note=72, velocity=0, time=48),\n",
      "    Message('note_on', channel=3, note=74, velocity=84, time=12),\n",
      "    Message('note_on', channel=3, note=74, velocity=0, time=48),\n",
      "    Message('note_on', channel=3, note=71, velocity=84, time=12),\n",
      "    Message('note_on', channel=3, note=71, velocity=0, time=48),\n",
      "    Message('note_on', channel=3, note=67, velocity=84, time=12),\n",
      "    Message('note_on', channel=3, note=67, velocity=0, time=48),\n",
      "    Message('note_on', channel=3, note=64, velocity=84, time=12),\n",
      "    Message('note_on', channel=3, note=64, velocity=0, time=48),\n",
      "    Message('note_on', channel=3, note=67, velocity=84, time=12),\n",
      "    Message('note_on', channel=3, note=67, velocity=0, time=48),\n",
      "    Message('note_on', channel=3, note=71, velocity=84, time=12),\n",
      "    Message('note_on', channel=3, note=71, velocity=0, time=48),\n",
      "    Message('note_on', channel=3, note=72, velocity=84, time=12),\n",
      "    Message('note_on', channel=3, note=72, velocity=0, time=48),\n",
      "    Message('note_on', channel=3, note=69, velocity=84, time=12),\n",
      "    Message('note_on', channel=3, note=69, velocity=0, time=48),\n",
      "    Message('note_on', channel=3, note=66, velocity=84, time=12),\n",
      "    Message('note_on', channel=3, note=66, velocity=0, time=48),\n",
      "    Message('note_on', channel=3, note=62, velocity=84, time=12),\n",
      "    Message('note_on', channel=3, note=62, velocity=0, time=48),\n",
      "    Message('note_on', channel=3, note=66, velocity=84, time=12),\n",
      "    Message('note_on', channel=3, note=66, velocity=0, time=48),\n",
      "    Message('note_on', channel=3, note=69, velocity=84, time=12),\n",
      "    Message('note_on', channel=3, note=69, velocity=0, time=48),\n",
      "    Message('note_on', channel=3, note=72, velocity=84, time=12),\n",
      "    Message('note_on', channel=3, note=72, velocity=0, time=48),\n",
      "    Message('note_on', channel=3, note=71, velocity=84, time=12),\n",
      "    Message('note_on', channel=3, note=71, velocity=0, time=48),\n",
      "    Message('note_on', channel=3, note=69, velocity=84, time=12),\n",
      "    Message('note_on', channel=3, note=69, velocity=0, time=48),\n",
      "    Message('note_on', channel=3, note=71, velocity=84, time=12),\n",
      "    Message('note_on', channel=3, note=71, velocity=0, time=48),\n",
      "    Message('note_on', channel=3, note=67, velocity=84, time=12),\n",
      "    Message('note_on', channel=3, note=67, velocity=0, time=48),\n",
      "    Message('note_on', channel=3, note=69, velocity=84, time=12),\n",
      "    Message('note_on', channel=3, note=69, velocity=0, time=48),\n",
      "    Message('note_on', channel=3, note=71, velocity=84, time=12),\n",
      "    Message('note_on', channel=3, note=71, velocity=0, time=48),\n",
      "    Message('note_on', channel=3, note=74, velocity=84, time=12),\n",
      "    Message('note_on', channel=3, note=74, velocity=0, time=48),\n",
      "    Message('note_on', channel=3, note=72, velocity=84, time=12),\n",
      "    Message('note_on', channel=3, note=72, velocity=0, time=48),\n",
      "    Message('note_on', channel=3, note=72, velocity=84, time=12),\n",
      "    Message('note_on', channel=3, note=72, velocity=0, time=48),\n",
      "    Message('note_on', channel=3, note=76, velocity=84, time=12),\n",
      "    Message('note_on', channel=3, note=76, velocity=0, time=48),\n",
      "    Message('note_on', channel=3, note=74, velocity=84, time=12),\n",
      "    Message('note_on', channel=3, note=74, velocity=0, time=48),\n",
      "    Message('note_on', channel=3, note=74, velocity=84, time=12),\n",
      "    Message('note_on', channel=3, note=74, velocity=0, time=48),\n",
      "    Message('note_on', channel=3, note=79, velocity=84, time=12),\n",
      "    Message('note_on', channel=3, note=79, velocity=0, time=48),\n",
      "    Message('note_on', channel=3, note=78, velocity=84, time=12),\n",
      "    Message('note_on', channel=3, note=78, velocity=0, time=48),\n",
      "    Message('note_on', channel=3, note=79, velocity=84, time=12),\n",
      "    Message('note_on', channel=3, note=79, velocity=0, time=48),\n",
      "    Message('note_on', channel=3, note=74, velocity=84, time=12),\n",
      "    Message('note_on', channel=3, note=74, velocity=0, time=48),\n",
      "    Message('note_on', channel=3, note=71, velocity=84, time=12),\n",
      "    Message('note_on', channel=3, note=71, velocity=0, time=48),\n",
      "    Message('note_on', channel=3, note=67, velocity=84, time=12),\n",
      "    Message('note_on', channel=3, note=67, velocity=0, time=48),\n",
      "    Message('note_on', channel=3, note=69, velocity=84, time=12),\n",
      "    Message('note_on', channel=3, note=69, velocity=0, time=48),\n",
      "    Message('note_on', channel=3, note=71, velocity=84, time=12),\n",
      "    Message('note_on', channel=3, note=71, velocity=0, time=48),\n",
      "    Message('note_on', channel=3, note=72, velocity=84, time=12),\n",
      "    Message('note_on', channel=3, note=72, velocity=0, time=48),\n",
      "    Message('note_on', channel=3, note=74, velocity=84, time=12),\n",
      "    Message('note_on', channel=3, note=74, velocity=0, time=48),\n",
      "    Message('note_on', channel=3, note=76, velocity=84, time=12),\n",
      "    Message('note_on', channel=3, note=76, velocity=0, time=48),\n",
      "    Message('note_on', channel=3, note=74, velocity=84, time=12),\n",
      "    Message('note_on', channel=3, note=74, velocity=0, time=48),\n",
      "    Message('note_on', channel=3, note=72, velocity=84, time=12),\n",
      "    Message('note_on', channel=3, note=72, velocity=0, time=48),\n",
      "    Message('note_on', channel=3, note=71, velocity=84, time=12),\n",
      "    Message('note_on', channel=3, note=71, velocity=0, time=48),\n",
      "    Message('note_on', channel=3, note=69, velocity=84, time=12),\n",
      "    Message('note_on', channel=3, note=69, velocity=0, time=48),\n",
      "    Message('note_on', channel=3, note=71, velocity=84, time=12),\n",
      "    Message('note_on', channel=3, note=71, velocity=0, time=48),\n",
      "    Message('note_on', channel=3, note=67, velocity=84, time=12),\n",
      "    Message('note_on', channel=3, note=67, velocity=0, time=48),\n",
      "    Message('note_on', channel=3, note=66, velocity=84, time=12),\n",
      "    Message('note_on', channel=3, note=66, velocity=0, time=48),\n",
      "    Message('note_on', channel=3, note=67, velocity=84, time=12),\n",
      "    Message('note_on', channel=3, note=67, velocity=0, time=48),\n",
      "    Message('note_on', channel=3, note=69, velocity=84, time=12),\n",
      "    Message('note_on', channel=3, note=69, velocity=0, time=48),\n",
      "    Message('note_on', channel=3, note=62, velocity=84, time=12),\n",
      "    Message('note_on', channel=3, note=62, velocity=0, time=48),\n",
      "    Message('note_on', channel=3, note=66, velocity=84, time=12),\n",
      "    Message('note_on', channel=3, note=66, velocity=0, time=48),\n",
      "    Message('note_on', channel=3, note=69, velocity=84, time=12),\n",
      "    Message('note_on', channel=3, note=69, velocity=0, time=48),\n",
      "    Message('note_on', channel=3, note=72, velocity=84, time=12),\n",
      "    Message('note_on', channel=3, note=72, velocity=0, time=48),\n",
      "    Message('note_on', channel=3, note=71, velocity=84, time=12),\n",
      "    Message('note_on', channel=3, note=71, velocity=0, time=48),\n",
      "    Message('note_on', channel=3, note=69, velocity=84, time=12),\n",
      "    Message('note_on', channel=3, note=69, velocity=0, time=48),\n",
      "    Message('note_on', channel=3, note=71, velocity=84, time=12),\n",
      "    Message('note_on', channel=3, note=71, velocity=0, time=48),\n",
      "    Message('note_on', channel=3, note=67, velocity=84, time=12),\n",
      "    Message('note_on', channel=3, note=67, velocity=0, time=48),\n",
      "    Message('note_on', channel=3, note=69, velocity=84, time=12),\n",
      "    Message('note_on', channel=3, note=69, velocity=0, time=48),\n",
      "    Message('note_on', channel=3, note=71, velocity=84, time=12),\n",
      "    Message('note_on', channel=3, note=71, velocity=0, time=48),\n",
      "    Message('note_on', channel=3, note=74, velocity=84, time=12),\n",
      "    Message('note_on', channel=3, note=74, velocity=0, time=48),\n",
      "    Message('note_on', channel=3, note=72, velocity=84, time=12),\n",
      "    Message('note_on', channel=3, note=72, velocity=0, time=48),\n",
      "    Message('note_on', channel=3, note=72, velocity=84, time=12),\n",
      "    Message('note_on', channel=3, note=72, velocity=0, time=48),\n",
      "    Message('note_on', channel=3, note=76, velocity=84, time=12),\n",
      "    Message('note_on', channel=3, note=76, velocity=0, time=48),\n",
      "    Message('note_on', channel=3, note=74, velocity=84, time=12),\n",
      "    Message('note_on', channel=3, note=74, velocity=0, time=48),\n",
      "    Message('note_on', channel=3, note=74, velocity=84, time=12),\n",
      "    Message('note_on', channel=3, note=74, velocity=0, time=48),\n",
      "    Message('note_on', channel=3, note=79, velocity=84, time=12),\n",
      "    Message('note_on', channel=3, note=79, velocity=0, time=48),\n",
      "    Message('note_on', channel=3, note=78, velocity=84, time=12),\n",
      "    Message('note_on', channel=3, note=78, velocity=0, time=48),\n",
      "    Message('note_on', channel=3, note=79, velocity=84, time=12),\n",
      "    Message('note_on', channel=3, note=79, velocity=0, time=48),\n",
      "    Message('note_on', channel=3, note=74, velocity=84, time=12),\n",
      "    Message('note_on', channel=3, note=74, velocity=0, time=48),\n",
      "    Message('note_on', channel=3, note=71, velocity=84, time=12),\n",
      "    Message('note_on', channel=3, note=71, velocity=0, time=48),\n",
      "    Message('note_on', channel=3, note=67, velocity=84, time=12),\n",
      "    Message('note_on', channel=3, note=67, velocity=0, time=48),\n",
      "    Message('note_on', channel=3, note=69, velocity=84, time=12),\n",
      "    Message('note_on', channel=3, note=69, velocity=0, time=48),\n",
      "    Message('note_on', channel=3, note=71, velocity=84, time=12),\n",
      "    Message('note_on', channel=3, note=71, velocity=0, time=48),\n",
      "    Message('note_on', channel=3, note=64, velocity=84, time=12),\n",
      "    Message('note_on', channel=3, note=64, velocity=0, time=48),\n",
      "    Message('note_on', channel=3, note=74, velocity=84, time=12),\n",
      "    Message('note_on', channel=3, note=74, velocity=0, time=48),\n",
      "    Message('note_on', channel=3, note=72, velocity=84, time=12),\n",
      "    Message('note_on', channel=3, note=72, velocity=0, time=48),\n",
      "    Message('note_on', channel=3, note=71, velocity=84, time=12),\n",
      "    Message('note_on', channel=3, note=71, velocity=0, time=48),\n",
      "    Message('note_on', channel=3, note=69, velocity=84, time=12),\n",
      "    Message('note_on', channel=3, note=69, velocity=0, time=48),\n",
      "    Message('note_on', channel=3, note=67, velocity=84, time=12),\n",
      "    Message('note_on', channel=3, note=67, velocity=0, time=48),\n",
      "    Message('note_on', channel=3, note=62, velocity=84, time=12),\n",
      "    Message('note_on', channel=3, note=62, velocity=0, time=48),\n",
      "    Message('note_on', channel=3, note=67, velocity=84, time=12),\n",
      "    Message('note_on', channel=3, note=67, velocity=0, time=48),\n",
      "    Message('note_on', channel=3, note=66, velocity=84, time=12),\n",
      "    Message('note_on', channel=3, note=66, velocity=0, time=48),\n",
      "    Message('note_on', channel=3, note=62, velocity=58, time=12),\n",
      "    Message('note_on', channel=3, note=67, velocity=60, time=0),\n",
      "    Message('note_on', channel=3, note=59, velocity=57, time=0),\n",
      "    Message('note_on', channel=3, note=55, velocity=75, time=0),\n",
      "    Message('note_on', channel=3, note=62, velocity=0, time=456),\n",
      "    Message('note_on', channel=3, note=67, velocity=0, time=0),\n",
      "    Message('note_on', channel=3, note=59, velocity=0, time=0),\n",
      "    Message('note_on', channel=3, note=55, velocity=0, time=0),\n",
      "    MetaMessage('end_of_track', time=0)]),\n",
      "  MidiTrack([\n",
      "    MetaMessage('track_name', name='John Renfro Davis', time=0),\n",
      "    MetaMessage('instrument_name', name='Choir Aahs', time=0),\n",
      "    MetaMessage('midi_port', port=0, time=0),\n",
      "    Message('control_change', channel=4, control=0, value=80, time=0),\n",
      "    Message('control_change', channel=4, control=32, value=0, time=0),\n",
      "    Message('program_change', channel=4, program=52, time=0),\n",
      "    Message('note_on', channel=4, note=71, velocity=127, time=4320),\n",
      "    Message('note_on', channel=4, note=71, velocity=0, time=336),\n",
      "    Message('note_on', channel=4, note=72, velocity=127, time=24),\n",
      "    Message('note_on', channel=4, note=72, velocity=0, time=168),\n",
      "    Message('note_on', channel=4, note=74, velocity=127, time=12),\n",
      "    Message('note_on', channel=4, note=74, velocity=0, time=336),\n",
      "    Message('note_on', channel=4, note=74, velocity=127, time=24),\n",
      "    Message('note_on', channel=4, note=74, velocity=0, time=168),\n",
      "    Message('note_on', channel=4, note=72, velocity=127, time=12),\n",
      "    Message('note_on', channel=4, note=72, velocity=0, time=336),\n",
      "    Message('note_on', channel=4, note=71, velocity=127, time=24),\n",
      "    Message('note_on', channel=4, note=71, velocity=0, time=168),\n",
      "    Message('note_on', channel=4, note=69, velocity=127, time=12),\n",
      "    Message('note_on', channel=4, note=69, velocity=0, time=168),\n",
      "    Message('note_on', channel=4, note=69, velocity=127, time=12),\n",
      "    Message('note_on', channel=4, note=69, velocity=0, time=168),\n",
      "    Message('note_on', channel=4, note=71, velocity=127, time=732),\n",
      "    Message('note_on', channel=4, note=71, velocity=0, time=336),\n",
      "    Message('note_on', channel=4, note=72, velocity=127, time=24),\n",
      "    Message('note_on', channel=4, note=72, velocity=0, time=168),\n",
      "    Message('note_on', channel=4, note=74, velocity=127, time=12),\n",
      "    Message('note_on', channel=4, note=74, velocity=0, time=336),\n",
      "    Message('note_on', channel=4, note=71, velocity=127, time=24),\n",
      "    Message('note_on', channel=4, note=71, velocity=0, time=168),\n",
      "    Message('note_on', channel=4, note=69, velocity=127, time=12),\n",
      "    Message('note_on', channel=4, note=69, velocity=0, time=96),\n",
      "    Message('note_on', channel=4, note=71, velocity=127, time=24),\n",
      "    Message('note_on', channel=4, note=71, velocity=0, time=24),\n",
      "    Message('note_on', channel=4, note=72, velocity=127, time=6),\n",
      "    Message('note_on', channel=4, note=72, velocity=0, time=24),\n",
      "    Message('note_on', channel=4, note=71, velocity=127, time=6),\n",
      "    Message('note_on', channel=4, note=71, velocity=0, time=168),\n",
      "    Message('note_on', channel=4, note=69, velocity=127, time=12),\n",
      "    Message('note_on', channel=4, note=69, velocity=0, time=168),\n",
      "    Message('note_on', channel=4, note=67, velocity=127, time=12),\n",
      "    Message('note_on', channel=4, note=67, velocity=0, time=336),\n",
      "    Message('note_on', channel=4, note=71, velocity=127, time=3444),\n",
      "    Message('note_on', channel=4, note=71, velocity=0, time=336),\n",
      "    Message('note_on', channel=4, note=72, velocity=127, time=24),\n",
      "    Message('note_on', channel=4, note=72, velocity=0, time=168),\n",
      "    Message('note_on', channel=4, note=74, velocity=127, time=12),\n",
      "    Message('note_on', channel=4, note=74, velocity=0, time=336),\n",
      "    Message('note_on', channel=4, note=74, velocity=127, time=24),\n",
      "    Message('note_on', channel=4, note=74, velocity=0, time=168),\n",
      "    Message('note_on', channel=4, note=72, velocity=127, time=12),\n",
      "    Message('note_on', channel=4, note=72, velocity=0, time=336),\n",
      "    Message('note_on', channel=4, note=71, velocity=127, time=24),\n",
      "    Message('note_on', channel=4, note=71, velocity=0, time=168),\n",
      "    Message('note_on', channel=4, note=69, velocity=127, time=12),\n",
      "    Message('note_on', channel=4, note=69, velocity=0, time=168),\n",
      "    Message('note_on', channel=4, note=69, velocity=127, time=12),\n",
      "    Message('note_on', channel=4, note=69, velocity=0, time=168),\n",
      "    Message('note_on', channel=4, note=71, velocity=127, time=732),\n",
      "    Message('note_on', channel=4, note=71, velocity=0, time=336),\n",
      "    Message('note_on', channel=4, note=72, velocity=127, time=24),\n",
      "    Message('note_on', channel=4, note=72, velocity=0, time=168),\n",
      "    Message('note_on', channel=4, note=74, velocity=127, time=12),\n",
      "    Message('note_on', channel=4, note=74, velocity=0, time=336),\n",
      "    Message('note_on', channel=4, note=71, velocity=127, time=24),\n",
      "    Message('note_on', channel=4, note=71, velocity=0, time=168),\n",
      "    Message('note_on', channel=4, note=69, velocity=127, time=12),\n",
      "    Message('note_on', channel=4, note=69, velocity=0, time=96),\n",
      "    Message('note_on', channel=4, note=71, velocity=127, time=24),\n",
      "    Message('note_on', channel=4, note=71, velocity=0, time=24),\n",
      "    Message('note_on', channel=4, note=72, velocity=127, time=6),\n",
      "    Message('note_on', channel=4, note=72, velocity=0, time=24),\n",
      "    Message('note_on', channel=4, note=71, velocity=127, time=6),\n",
      "    Message('note_on', channel=4, note=71, velocity=0, time=168),\n",
      "    Message('note_on', channel=4, note=69, velocity=127, time=12),\n",
      "    Message('note_on', channel=4, note=69, velocity=0, time=168),\n",
      "    Message('note_on', channel=4, note=67, velocity=127, time=12),\n",
      "    Message('note_on', channel=4, note=67, velocity=0, time=336),\n",
      "    Message('note_on', channel=4, note=69, velocity=127, time=3984),\n",
      "    Message('note_on', channel=4, note=69, velocity=0, time=336),\n",
      "    Message('note_on', channel=4, note=71, velocity=127, time=24),\n",
      "    Message('note_on', channel=4, note=71, velocity=0, time=168),\n",
      "    Message('note_on', channel=4, note=72, velocity=127, time=12),\n",
      "    Message('note_on', channel=4, note=72, velocity=0, time=336),\n",
      "    Message('note_on', channel=4, note=72, velocity=127, time=24),\n",
      "    Message('note_on', channel=4, note=72, velocity=0, time=168),\n",
      "    Message('note_on', channel=4, note=71, velocity=127, time=12),\n",
      "    Message('note_on', channel=4, note=71, velocity=0, time=276),\n",
      "    Message('note_on', channel=4, note=72, velocity=127, time=24),\n",
      "    Message('note_on', channel=4, note=72, velocity=0, time=24),\n",
      "    Message('note_on', channel=4, note=74, velocity=127, time=6),\n",
      "    Message('note_on', channel=4, note=74, velocity=0, time=24),\n",
      "    Message('note_on', channel=4, note=71, velocity=127, time=6),\n",
      "    Message('note_on', channel=4, note=71, velocity=0, time=168),\n",
      "    Message('note_on', channel=4, note=69, velocity=127, time=12),\n",
      "    Message('note_on', channel=4, note=69, velocity=0, time=168),\n",
      "    Message('note_on', channel=4, note=69, velocity=127, time=12),\n",
      "    Message('note_on', channel=4, note=69, velocity=0, time=168),\n",
      "    Message('note_on', channel=4, note=72, velocity=127, time=1272),\n",
      "    Message('note_on', channel=4, note=72, velocity=0, time=336),\n",
      "    Message('note_on', channel=4, note=74, velocity=127, time=24),\n",
      "    Message('note_on', channel=4, note=74, velocity=0, time=168),\n",
      "    Message('note_on', channel=4, note=76, velocity=127, time=12),\n",
      "    Message('note_on', channel=4, note=76, velocity=0, time=336),\n",
      "    Message('note_on', channel=4, note=76, velocity=127, time=24),\n",
      "    Message('note_on', channel=4, note=76, velocity=0, time=168),\n",
      "    Message('note_on', channel=4, note=74, velocity=127, time=12),\n",
      "    Message('note_on', channel=4, note=74, velocity=0, time=276),\n",
      "    Message('note_on', channel=4, note=76, velocity=127, time=24),\n",
      "    Message('note_on', channel=4, note=76, velocity=0, time=24),\n",
      "    Message('note_on', channel=4, note=77, velocity=127, time=6),\n",
      "    Message('note_on', channel=4, note=77, velocity=0, time=24),\n",
      "    Message('note_on', channel=4, note=74, velocity=127, time=6),\n",
      "    Message('note_on', channel=4, note=74, velocity=0, time=168),\n",
      "    Message('note_on', channel=4, note=72, velocity=127, time=12),\n",
      "    Message('note_on', channel=4, note=72, velocity=0, time=168),\n",
      "    Message('note_on', channel=4, note=72, velocity=127, time=12),\n",
      "    Message('note_on', channel=4, note=72, velocity=0, time=168),\n",
      "    Message('note_on', channel=4, note=71, velocity=127, time=1272),\n",
      "    Message('note_on', channel=4, note=71, velocity=0, time=336),\n",
      "    Message('note_on', channel=4, note=72, velocity=127, time=24),\n",
      "    Message('note_on', channel=4, note=72, velocity=0, time=168),\n",
      "    Message('note_on', channel=4, note=74, velocity=127, time=12),\n",
      "    Message('note_on', channel=4, note=74, velocity=0, time=336),\n",
      "    Message('note_on', channel=4, note=74, velocity=127, time=24),\n",
      "    Message('note_on', channel=4, note=74, velocity=0, time=168),\n",
      "    Message('note_on', channel=4, note=72, velocity=127, time=12),\n",
      "    Message('note_on', channel=4, note=72, velocity=0, time=168),\n",
      "    Message('note_on', channel=4, note=71, velocity=127, time=12),\n",
      "    Message('note_on', channel=4, note=71, velocity=0, time=336),\n",
      "    Message('note_on', channel=4, note=69, velocity=127, time=24),\n",
      "    Message('note_on', channel=4, note=69, velocity=0, time=336),\n",
      "    Message('note_on', channel=4, note=71, velocity=127, time=744),\n",
      "    Message('note_on', channel=4, note=71, velocity=0, time=336),\n",
      "    Message('note_on', channel=4, note=72, velocity=127, time=24),\n",
      "    Message('note_on', channel=4, note=72, velocity=0, time=168),\n",
      "    Message('note_on', channel=4, note=74, velocity=127, time=12),\n",
      "    Message('note_on', channel=4, note=74, velocity=0, time=336),\n",
      "    Message('note_on', channel=4, note=71, velocity=127, time=24),\n",
      "    Message('note_on', channel=4, note=71, velocity=0, time=168),\n",
      "    Message('note_on', channel=4, note=69, velocity=127, time=12),\n",
      "    Message('note_on', channel=4, note=69, velocity=0, time=96),\n",
      "    Message('note_on', channel=4, note=71, velocity=127, time=24),\n",
      "    Message('note_on', channel=4, note=71, velocity=0, time=24),\n",
      "    Message('note_on', channel=4, note=72, velocity=127, time=6),\n",
      "    Message('note_on', channel=4, note=72, velocity=0, time=24),\n",
      "    Message('note_on', channel=4, note=71, velocity=127, time=6),\n",
      "    Message('note_on', channel=4, note=71, velocity=0, time=168),\n",
      "    Message('note_on', channel=4, note=69, velocity=127, time=12),\n",
      "    Message('note_on', channel=4, note=69, velocity=0, time=168),\n",
      "    Message('note_on', channel=4, note=67, velocity=127, time=12),\n",
      "    Message('note_on', channel=4, note=67, velocity=0, time=336),\n",
      "    Message('note_on', channel=4, note=71, velocity=127, time=10464),\n",
      "    Message('note_on', channel=4, note=71, velocity=0, time=336),\n",
      "    Message('note_on', channel=4, note=72, velocity=127, time=24),\n",
      "    Message('note_on', channel=4, note=72, velocity=0, time=168),\n",
      "    Message('note_on', channel=4, note=74, velocity=127, time=12),\n",
      "    Message('note_on', channel=4, note=74, velocity=0, time=336),\n",
      "    Message('note_on', channel=4, note=74, velocity=127, time=24),\n",
      "    Message('note_on', channel=4, note=74, velocity=0, time=168),\n",
      "    Message('note_on', channel=4, note=72, velocity=127, time=12),\n",
      "    Message('note_on', channel=4, note=72, velocity=0, time=336),\n",
      "    Message('note_on', channel=4, note=71, velocity=127, time=24),\n",
      "    Message('note_on', channel=4, note=71, velocity=0, time=168),\n",
      "    Message('note_on', channel=4, note=69, velocity=127, time=12),\n",
      "    Message('note_on', channel=4, note=69, velocity=0, time=168),\n",
      "    Message('note_on', channel=4, note=69, velocity=127, time=12),\n",
      "    Message('note_on', channel=4, note=69, velocity=0, time=168),\n",
      "    Message('note_on', channel=4, note=71, velocity=127, time=732),\n",
      "    Message('note_on', channel=4, note=71, velocity=0, time=336),\n",
      "    Message('note_on', channel=4, note=72, velocity=127, time=24),\n",
      "    Message('note_on', channel=4, note=72, velocity=0, time=168),\n",
      "    Message('note_on', channel=4, note=74, velocity=127, time=12),\n",
      "    Message('note_on', channel=4, note=74, velocity=0, time=336),\n",
      "    Message('note_on', channel=4, note=71, velocity=127, time=24),\n",
      "    Message('note_on', channel=4, note=71, velocity=0, time=168),\n",
      "    Message('note_on', channel=4, note=69, velocity=127, time=12),\n",
      "    Message('note_on', channel=4, note=69, velocity=0, time=96),\n",
      "    Message('note_on', channel=4, note=71, velocity=127, time=24),\n",
      "    Message('note_on', channel=4, note=71, velocity=0, time=24),\n",
      "    Message('note_on', channel=4, note=72, velocity=127, time=6),\n",
      "    Message('note_on', channel=4, note=72, velocity=0, time=24),\n",
      "    Message('note_on', channel=4, note=71, velocity=127, time=6),\n",
      "    Message('note_on', channel=4, note=71, velocity=0, time=168),\n",
      "    Message('note_on', channel=4, note=69, velocity=127, time=12),\n",
      "    Message('note_on', channel=4, note=69, velocity=0, time=168),\n",
      "    Message('note_on', channel=4, note=67, velocity=127, time=12),\n",
      "    Message('note_on', channel=4, note=67, velocity=0, time=336),\n",
      "    Message('note_on', channel=4, note=71, velocity=127, time=3444),\n",
      "    Message('note_on', channel=4, note=71, velocity=0, time=336),\n",
      "    Message('note_on', channel=4, note=72, velocity=127, time=24),\n",
      "    Message('note_on', channel=4, note=72, velocity=0, time=168),\n",
      "    Message('note_on', channel=4, note=74, velocity=127, time=12),\n",
      "    Message('note_on', channel=4, note=74, velocity=0, time=336),\n",
      "    Message('note_on', channel=4, note=74, velocity=127, time=24),\n",
      "    Message('note_on', channel=4, note=74, velocity=0, time=168),\n",
      "    Message('note_on', channel=4, note=72, velocity=127, time=12),\n",
      "    Message('note_on', channel=4, note=72, velocity=0, time=336),\n",
      "    Message('note_on', channel=4, note=71, velocity=127, time=24),\n",
      "    Message('note_on', channel=4, note=71, velocity=0, time=168),\n",
      "    Message('note_on', channel=4, note=69, velocity=127, time=12),\n",
      "    Message('note_on', channel=4, note=69, velocity=0, time=168),\n",
      "    Message('note_on', channel=4, note=69, velocity=127, time=12),\n",
      "    Message('note_on', channel=4, note=69, velocity=0, time=168),\n",
      "    Message('note_on', channel=4, note=71, velocity=127, time=732),\n",
      "    Message('note_on', channel=4, note=71, velocity=0, time=336),\n",
      "    Message('note_on', channel=4, note=72, velocity=127, time=24),\n",
      "    Message('note_on', channel=4, note=72, velocity=0, time=168),\n",
      "    Message('note_on', channel=4, note=74, velocity=127, time=12),\n",
      "    Message('note_on', channel=4, note=74, velocity=0, time=336),\n",
      "    Message('note_on', channel=4, note=71, velocity=127, time=24),\n",
      "    Message('note_on', channel=4, note=71, velocity=0, time=168),\n",
      "    Message('note_on', channel=4, note=69, velocity=127, time=12),\n",
      "    Message('note_on', channel=4, note=69, velocity=0, time=96),\n",
      "    Message('note_on', channel=4, note=71, velocity=127, time=24),\n",
      "    Message('note_on', channel=4, note=71, velocity=0, time=24),\n",
      "    Message('note_on', channel=4, note=72, velocity=127, time=6),\n",
      "    Message('note_on', channel=4, note=72, velocity=0, time=24),\n",
      "    Message('note_on', channel=4, note=71, velocity=127, time=6),\n",
      "    Message('note_on', channel=4, note=71, velocity=0, time=168),\n",
      "    Message('note_on', channel=4, note=69, velocity=127, time=12),\n",
      "    Message('note_on', channel=4, note=69, velocity=0, time=168),\n",
      "    Message('note_on', channel=4, note=67, velocity=127, time=12),\n",
      "    Message('note_on', channel=4, note=67, velocity=0, time=336),\n",
      "    Message('note_on', channel=4, note=69, velocity=127, time=3984),\n",
      "    Message('note_on', channel=4, note=69, velocity=0, time=336),\n",
      "    Message('note_on', channel=4, note=71, velocity=127, time=24),\n",
      "    Message('note_on', channel=4, note=71, velocity=0, time=168),\n",
      "    Message('note_on', channel=4, note=72, velocity=127, time=12),\n",
      "    Message('note_on', channel=4, note=72, velocity=0, time=336),\n",
      "    Message('note_on', channel=4, note=72, velocity=127, time=24),\n",
      "    Message('note_on', channel=4, note=72, velocity=0, time=168),\n",
      "    Message('note_on', channel=4, note=71, velocity=127, time=12),\n",
      "    Message('note_on', channel=4, note=71, velocity=0, time=276),\n",
      "    Message('note_on', channel=4, note=72, velocity=127, time=24),\n",
      "    Message('note_on', channel=4, note=72, velocity=0, time=24),\n",
      "    Message('note_on', channel=4, note=74, velocity=127, time=6),\n",
      "    Message('note_on', channel=4, note=74, velocity=0, time=24),\n",
      "    Message('note_on', channel=4, note=71, velocity=127, time=6),\n",
      "    Message('note_on', channel=4, note=71, velocity=0, time=168),\n",
      "    Message('note_on', channel=4, note=69, velocity=127, time=12),\n",
      "    Message('note_on', channel=4, note=69, velocity=0, time=168),\n",
      "    Message('note_on', channel=4, note=69, velocity=127, time=12),\n",
      "    Message('note_on', channel=4, note=69, velocity=0, time=168),\n",
      "    Message('note_on', channel=4, note=72, velocity=127, time=1272),\n",
      "    Message('note_on', channel=4, note=72, velocity=0, time=336),\n",
      "    Message('note_on', channel=4, note=74, velocity=127, time=24),\n",
      "    Message('note_on', channel=4, note=74, velocity=0, time=168),\n",
      "    Message('note_on', channel=4, note=76, velocity=127, time=12),\n",
      "    Message('note_on', channel=4, note=76, velocity=0, time=336),\n",
      "    Message('note_on', channel=4, note=76, velocity=127, time=24),\n",
      "    Message('note_on', channel=4, note=76, velocity=0, time=168),\n",
      "    Message('note_on', channel=4, note=74, velocity=127, time=12),\n",
      "    Message('note_on', channel=4, note=74, velocity=0, time=276),\n",
      "    Message('note_on', channel=4, note=76, velocity=127, time=24),\n",
      "    Message('note_on', channel=4, note=76, velocity=0, time=24),\n",
      "    Message('note_on', channel=4, note=77, velocity=127, time=6),\n",
      "    Message('note_on', channel=4, note=77, velocity=0, time=24),\n",
      "    Message('note_on', channel=4, note=74, velocity=127, time=6),\n",
      "    Message('note_on', channel=4, note=74, velocity=0, time=168),\n",
      "    Message('note_on', channel=4, note=72, velocity=127, time=12),\n",
      "    Message('note_on', channel=4, note=72, velocity=0, time=168),\n",
      "    Message('note_on', channel=4, note=72, velocity=127, time=12),\n",
      "    Message('note_on', channel=4, note=72, velocity=0, time=168),\n",
      "    Message('note_on', channel=4, note=71, velocity=127, time=1272),\n",
      "    Message('note_on', channel=4, note=71, velocity=0, time=336),\n",
      "    Message('note_on', channel=4, note=72, velocity=127, time=24),\n",
      "    Message('note_on', channel=4, note=72, velocity=0, time=168),\n",
      "    Message('note_on', channel=4, note=74, velocity=127, time=12),\n",
      "    Message('note_on', channel=4, note=74, velocity=0, time=336),\n",
      "    Message('note_on', channel=4, note=74, velocity=127, time=24),\n",
      "    Message('note_on', channel=4, note=74, velocity=0, time=168),\n",
      "    Message('note_on', channel=4, note=72, velocity=127, time=12),\n",
      "    Message('note_on', channel=4, note=72, velocity=0, time=168),\n",
      "    Message('note_on', channel=4, note=71, velocity=127, time=12),\n",
      "    Message('note_on', channel=4, note=71, velocity=0, time=336),\n",
      "    Message('note_on', channel=4, note=69, velocity=127, time=24),\n",
      "    Message('note_on', channel=4, note=69, velocity=0, time=336),\n",
      "    Message('note_on', channel=4, note=71, velocity=127, time=744),\n",
      "    Message('note_on', channel=4, note=71, velocity=0, time=336),\n",
      "    Message('note_on', channel=4, note=72, velocity=127, time=24),\n",
      "    Message('note_on', channel=4, note=72, velocity=0, time=168),\n",
      "    Message('note_on', channel=4, note=74, velocity=127, time=12),\n",
      "    Message('note_on', channel=4, note=74, velocity=0, time=336),\n",
      "    Message('note_on', channel=4, note=71, velocity=127, time=24),\n",
      "    Message('note_on', channel=4, note=71, velocity=0, time=168),\n",
      "    Message('note_on', channel=4, note=69, velocity=127, time=12),\n",
      "    Message('note_on', channel=4, note=69, velocity=0, time=96),\n",
      "    Message('note_on', channel=4, note=71, velocity=127, time=24),\n",
      "    Message('note_on', channel=4, note=71, velocity=0, time=24),\n",
      "    Message('note_on', channel=4, note=72, velocity=127, time=6),\n",
      "    Message('note_on', channel=4, note=72, velocity=0, time=24),\n",
      "    Message('note_on', channel=4, note=71, velocity=127, time=6),\n",
      "    Message('note_on', channel=4, note=71, velocity=0, time=168),\n",
      "    Message('note_on', channel=4, note=69, velocity=127, time=12),\n",
      "    Message('note_on', channel=4, note=69, velocity=0, time=168),\n",
      "    Message('note_on', channel=4, note=67, velocity=127, time=12),\n",
      "    Message('note_on', channel=4, note=67, velocity=0, time=336),\n",
      "    MetaMessage('end_of_track', time=0)]),\n",
      "  MidiTrack([\n",
      "    MetaMessage('track_name', name='Cut-N-Shoot, Tx', time=0),\n",
      "    MetaMessage('instrument_name', name='Choir Aahs', time=0),\n",
      "    MetaMessage('midi_port', port=0, time=0),\n",
      "    Message('program_change', channel=5, program=52, time=0),\n",
      "    Message('note_on', channel=5, note=59, velocity=127, time=4320),\n",
      "    Message('note_on', channel=5, note=59, velocity=0, time=336),\n",
      "    Message('note_on', channel=5, note=60, velocity=127, time=24),\n",
      "    Message('note_on', channel=5, note=60, velocity=0, time=168),\n",
      "    Message('note_on', channel=5, note=62, velocity=127, time=12),\n",
      "    Message('note_on', channel=5, note=62, velocity=0, time=336),\n",
      "    Message('note_on', channel=5, note=62, velocity=127, time=24),\n",
      "    Message('note_on', channel=5, note=62, velocity=0, time=168),\n",
      "    Message('note_on', channel=5, note=60, velocity=127, time=12),\n",
      "    Message('note_on', channel=5, note=60, velocity=0, time=336),\n",
      "    Message('note_on', channel=5, note=59, velocity=127, time=24),\n",
      "    Message('note_on', channel=5, note=59, velocity=0, time=168),\n",
      "    Message('note_on', channel=5, note=57, velocity=127, time=12),\n",
      "    Message('note_on', channel=5, note=57, velocity=0, time=168),\n",
      "    Message('note_on', channel=5, note=57, velocity=127, time=12),\n",
      "    Message('note_on', channel=5, note=57, velocity=0, time=168),\n",
      "    Message('note_on', channel=5, note=59, velocity=127, time=732),\n",
      "    Message('note_on', channel=5, note=59, velocity=0, time=336),\n",
      "    Message('note_on', channel=5, note=60, velocity=127, time=24),\n",
      "    Message('note_on', channel=5, note=60, velocity=0, time=168),\n",
      "    Message('note_on', channel=5, note=62, velocity=127, time=12),\n",
      "    Message('note_on', channel=5, note=62, velocity=0, time=336),\n",
      "    Message('note_on', channel=5, note=59, velocity=127, time=24),\n",
      "    Message('note_on', channel=5, note=59, velocity=0, time=168),\n",
      "    Message('note_on', channel=5, note=57, velocity=127, time=12),\n",
      "    Message('note_on', channel=5, note=57, velocity=0, time=96),\n",
      "    Message('note_on', channel=5, note=59, velocity=127, time=24),\n",
      "    Message('note_on', channel=5, note=59, velocity=0, time=24),\n",
      "    Message('note_on', channel=5, note=60, velocity=127, time=6),\n",
      "    Message('note_on', channel=5, note=60, velocity=0, time=24),\n",
      "    Message('note_on', channel=5, note=59, velocity=127, time=6),\n",
      "    Message('note_on', channel=5, note=59, velocity=0, time=168),\n",
      "    Message('note_on', channel=5, note=57, velocity=127, time=12),\n",
      "    Message('note_on', channel=5, note=57, velocity=0, time=168),\n",
      "    Message('note_on', channel=5, note=55, velocity=127, time=12),\n",
      "    Message('note_on', channel=5, note=55, velocity=0, time=336),\n",
      "    Message('note_on', channel=5, note=59, velocity=127, time=3444),\n",
      "    Message('note_on', channel=5, note=59, velocity=0, time=336),\n",
      "    Message('note_on', channel=5, note=60, velocity=127, time=24),\n",
      "    Message('note_on', channel=5, note=60, velocity=0, time=168),\n",
      "    Message('note_on', channel=5, note=62, velocity=127, time=12),\n",
      "    Message('note_on', channel=5, note=62, velocity=0, time=336),\n",
      "    Message('note_on', channel=5, note=62, velocity=127, time=24),\n",
      "    Message('note_on', channel=5, note=62, velocity=0, time=168),\n",
      "    Message('note_on', channel=5, note=60, velocity=127, time=12),\n",
      "    Message('note_on', channel=5, note=60, velocity=0, time=336),\n",
      "    Message('note_on', channel=5, note=59, velocity=127, time=24),\n",
      "    Message('note_on', channel=5, note=59, velocity=0, time=168),\n",
      "    Message('note_on', channel=5, note=57, velocity=127, time=12),\n",
      "    Message('note_on', channel=5, note=57, velocity=0, time=168),\n",
      "    Message('note_on', channel=5, note=57, velocity=127, time=12),\n",
      "    Message('note_on', channel=5, note=57, velocity=0, time=168),\n",
      "    Message('note_on', channel=5, note=59, velocity=127, time=732),\n",
      "    Message('note_on', channel=5, note=59, velocity=0, time=336),\n",
      "    Message('note_on', channel=5, note=60, velocity=127, time=24),\n",
      "    Message('note_on', channel=5, note=60, velocity=0, time=168),\n",
      "    Message('note_on', channel=5, note=62, velocity=127, time=12),\n",
      "    Message('note_on', channel=5, note=62, velocity=0, time=336),\n",
      "    Message('note_on', channel=5, note=59, velocity=127, time=24),\n",
      "    Message('note_on', channel=5, note=59, velocity=0, time=168),\n",
      "    Message('note_on', channel=5, note=57, velocity=127, time=12),\n",
      "    Message('note_on', channel=5, note=57, velocity=0, time=96),\n",
      "    Message('note_on', channel=5, note=59, velocity=127, time=24),\n",
      "    Message('note_on', channel=5, note=59, velocity=0, time=24),\n",
      "    Message('note_on', channel=5, note=60, velocity=127, time=6),\n",
      "    Message('note_on', channel=5, note=60, velocity=0, time=24),\n",
      "    Message('note_on', channel=5, note=59, velocity=127, time=6),\n",
      "    Message('note_on', channel=5, note=59, velocity=0, time=168),\n",
      "    Message('note_on', channel=5, note=57, velocity=127, time=12),\n",
      "    Message('note_on', channel=5, note=57, velocity=0, time=168),\n",
      "    Message('note_on', channel=5, note=55, velocity=127, time=12),\n",
      "    Message('note_on', channel=5, note=55, velocity=0, time=336),\n",
      "    Message('note_on', channel=5, note=57, velocity=127, time=3984),\n",
      "    Message('note_on', channel=5, note=57, velocity=0, time=336),\n",
      "    Message('note_on', channel=5, note=59, velocity=127, time=24),\n",
      "    Message('note_on', channel=5, note=59, velocity=0, time=168),\n",
      "    Message('note_on', channel=5, note=60, velocity=127, time=12),\n",
      "    Message('note_on', channel=5, note=60, velocity=0, time=336),\n",
      "    Message('note_on', channel=5, note=60, velocity=127, time=24),\n",
      "    Message('note_on', channel=5, note=60, velocity=0, time=168),\n",
      "    Message('note_on', channel=5, note=59, velocity=127, time=12),\n",
      "    Message('note_on', channel=5, note=59, velocity=0, time=276),\n",
      "    Message('note_on', channel=5, note=60, velocity=127, time=24),\n",
      "    Message('note_on', channel=5, note=60, velocity=0, time=24),\n",
      "    Message('note_on', channel=5, note=62, velocity=127, time=6),\n",
      "    Message('note_on', channel=5, note=62, velocity=0, time=24),\n",
      "    Message('note_on', channel=5, note=59, velocity=127, time=6),\n",
      "    Message('note_on', channel=5, note=59, velocity=0, time=168),\n",
      "    Message('note_on', channel=5, note=57, velocity=127, time=12),\n",
      "    Message('note_on', channel=5, note=57, velocity=0, time=168),\n",
      "    Message('note_on', channel=5, note=57, velocity=127, time=12),\n",
      "    Message('note_on', channel=5, note=57, velocity=0, time=168),\n",
      "    Message('note_on', channel=5, note=60, velocity=127, time=1272),\n",
      "    Message('note_on', channel=5, note=60, velocity=0, time=336),\n",
      "    Message('note_on', channel=5, note=62, velocity=127, time=24),\n",
      "    Message('note_on', channel=5, note=62, velocity=0, time=168),\n",
      "    Message('note_on', channel=5, note=64, velocity=127, time=12),\n",
      "    Message('note_on', channel=5, note=64, velocity=0, time=336),\n",
      "    Message('note_on', channel=5, note=64, velocity=127, time=24),\n",
      "    Message('note_on', channel=5, note=64, velocity=0, time=168),\n",
      "    Message('note_on', channel=5, note=62, velocity=127, time=12),\n",
      "    Message('note_on', channel=5, note=62, velocity=0, time=276),\n",
      "    Message('note_on', channel=5, note=64, velocity=127, time=24),\n",
      "    Message('note_on', channel=5, note=64, velocity=0, time=24),\n",
      "    Message('note_on', channel=5, note=65, velocity=127, time=6),\n",
      "    Message('note_on', channel=5, note=65, velocity=0, time=24),\n",
      "    Message('note_on', channel=5, note=62, velocity=127, time=6),\n",
      "    Message('note_on', channel=5, note=62, velocity=0, time=168),\n",
      "    Message('note_on', channel=5, note=60, velocity=127, time=12),\n",
      "    Message('note_on', channel=5, note=60, velocity=0, time=168),\n",
      "    Message('note_on', channel=5, note=60, velocity=127, time=12),\n",
      "    Message('note_on', channel=5, note=60, velocity=0, time=168),\n",
      "    Message('note_on', channel=5, note=59, velocity=127, time=1272),\n",
      "    Message('note_on', channel=5, note=59, velocity=0, time=336),\n",
      "    Message('note_on', channel=5, note=60, velocity=127, time=24),\n",
      "    Message('note_on', channel=5, note=60, velocity=0, time=168),\n",
      "    Message('note_on', channel=5, note=62, velocity=127, time=12),\n",
      "    Message('note_on', channel=5, note=62, velocity=0, time=336),\n",
      "    Message('note_on', channel=5, note=62, velocity=127, time=24),\n",
      "    Message('note_on', channel=5, note=62, velocity=0, time=168),\n",
      "    Message('note_on', channel=5, note=60, velocity=127, time=12),\n",
      "    Message('note_on', channel=5, note=60, velocity=0, time=168),\n",
      "    Message('note_on', channel=5, note=59, velocity=127, time=12),\n",
      "    Message('note_on', channel=5, note=59, velocity=0, time=336),\n",
      "    Message('note_on', channel=5, note=57, velocity=127, time=24),\n",
      "    Message('note_on', channel=5, note=57, velocity=0, time=336),\n",
      "    Message('note_on', channel=5, note=59, velocity=127, time=744),\n",
      "    Message('note_on', channel=5, note=59, velocity=0, time=336),\n",
      "    Message('note_on', channel=5, note=60, velocity=127, time=24),\n",
      "    Message('note_on', channel=5, note=60, velocity=0, time=168),\n",
      "    Message('note_on', channel=5, note=62, velocity=127, time=12),\n",
      "    Message('note_on', channel=5, note=62, velocity=0, time=336),\n",
      "    Message('note_on', channel=5, note=59, velocity=127, time=24),\n",
      "    Message('note_on', channel=5, note=59, velocity=0, time=168),\n",
      "    Message('note_on', channel=5, note=57, velocity=127, time=12),\n",
      "    Message('note_on', channel=5, note=57, velocity=0, time=96),\n",
      "    Message('note_on', channel=5, note=59, velocity=127, time=24),\n",
      "    Message('note_on', channel=5, note=59, velocity=0, time=24),\n",
      "    Message('note_on', channel=5, note=60, velocity=127, time=6),\n",
      "    Message('note_on', channel=5, note=60, velocity=0, time=24),\n",
      "    Message('note_on', channel=5, note=59, velocity=127, time=6),\n",
      "    Message('note_on', channel=5, note=59, velocity=0, time=168),\n",
      "    Message('note_on', channel=5, note=57, velocity=127, time=12),\n",
      "    Message('note_on', channel=5, note=57, velocity=0, time=168),\n",
      "    Message('note_on', channel=5, note=55, velocity=127, time=12),\n",
      "    Message('note_on', channel=5, note=55, velocity=0, time=336),\n",
      "    Message('note_on', channel=5, note=59, velocity=127, time=10464),\n",
      "    Message('note_on', channel=5, note=59, velocity=0, time=336),\n",
      "    Message('note_on', channel=5, note=60, velocity=127, time=24),\n",
      "    Message('note_on', channel=5, note=60, velocity=0, time=168),\n",
      "    Message('note_on', channel=5, note=62, velocity=127, time=12),\n",
      "    Message('note_on', channel=5, note=62, velocity=0, time=336),\n",
      "    Message('note_on', channel=5, note=62, velocity=127, time=24),\n",
      "    Message('note_on', channel=5, note=62, velocity=0, time=168),\n",
      "    Message('note_on', channel=5, note=60, velocity=127, time=12),\n",
      "    Message('note_on', channel=5, note=60, velocity=0, time=336),\n",
      "    Message('note_on', channel=5, note=59, velocity=127, time=24),\n",
      "    Message('note_on', channel=5, note=59, velocity=0, time=168),\n",
      "    Message('note_on', channel=5, note=57, velocity=127, time=12),\n",
      "    Message('note_on', channel=5, note=57, velocity=0, time=168),\n",
      "    Message('note_on', channel=5, note=57, velocity=127, time=12),\n",
      "    Message('note_on', channel=5, note=57, velocity=0, time=168),\n",
      "    Message('note_on', channel=5, note=59, velocity=127, time=732),\n",
      "    Message('note_on', channel=5, note=59, velocity=0, time=336),\n",
      "    Message('note_on', channel=5, note=60, velocity=127, time=24),\n",
      "    Message('note_on', channel=5, note=60, velocity=0, time=168),\n",
      "    Message('note_on', channel=5, note=62, velocity=127, time=12),\n",
      "    Message('note_on', channel=5, note=62, velocity=0, time=336),\n",
      "    Message('note_on', channel=5, note=59, velocity=127, time=24),\n",
      "    Message('note_on', channel=5, note=59, velocity=0, time=168),\n",
      "    Message('note_on', channel=5, note=57, velocity=127, time=12),\n",
      "    Message('note_on', channel=5, note=57, velocity=0, time=96),\n",
      "    Message('note_on', channel=5, note=59, velocity=127, time=24),\n",
      "    Message('note_on', channel=5, note=59, velocity=0, time=24),\n",
      "    Message('note_on', channel=5, note=60, velocity=127, time=6),\n",
      "    Message('note_on', channel=5, note=60, velocity=0, time=24),\n",
      "    Message('note_on', channel=5, note=59, velocity=127, time=6),\n",
      "    Message('note_on', channel=5, note=59, velocity=0, time=168),\n",
      "    Message('note_on', channel=5, note=57, velocity=127, time=12),\n",
      "    Message('note_on', channel=5, note=57, velocity=0, time=168),\n",
      "    Message('note_on', channel=5, note=55, velocity=127, time=12),\n",
      "    Message('note_on', channel=5, note=55, velocity=0, time=336),\n",
      "    Message('note_on', channel=5, note=59, velocity=127, time=3444),\n",
      "    Message('note_on', channel=5, note=59, velocity=0, time=336),\n",
      "    Message('note_on', channel=5, note=60, velocity=127, time=24),\n",
      "    Message('note_on', channel=5, note=60, velocity=0, time=168),\n",
      "    Message('note_on', channel=5, note=62, velocity=127, time=12),\n",
      "    Message('note_on', channel=5, note=62, velocity=0, time=336),\n",
      "    Message('note_on', channel=5, note=62, velocity=127, time=24),\n",
      "    Message('note_on', channel=5, note=62, velocity=0, time=168),\n",
      "    Message('note_on', channel=5, note=60, velocity=127, time=12),\n",
      "    Message('note_on', channel=5, note=60, velocity=0, time=336),\n",
      "    Message('note_on', channel=5, note=59, velocity=127, time=24),\n",
      "    Message('note_on', channel=5, note=59, velocity=0, time=168),\n",
      "    Message('note_on', channel=5, note=57, velocity=127, time=12),\n",
      "    Message('note_on', channel=5, note=57, velocity=0, time=168),\n",
      "    Message('note_on', channel=5, note=57, velocity=127, time=12),\n",
      "    Message('note_on', channel=5, note=57, velocity=0, time=168),\n",
      "    Message('note_on', channel=5, note=59, velocity=127, time=732),\n",
      "    Message('note_on', channel=5, note=59, velocity=0, time=336),\n",
      "    Message('note_on', channel=5, note=60, velocity=127, time=24),\n",
      "    Message('note_on', channel=5, note=60, velocity=0, time=168),\n",
      "    Message('note_on', channel=5, note=62, velocity=127, time=12),\n",
      "    Message('note_on', channel=5, note=62, velocity=0, time=336),\n",
      "    Message('note_on', channel=5, note=59, velocity=127, time=24),\n",
      "    Message('note_on', channel=5, note=59, velocity=0, time=168),\n",
      "    Message('note_on', channel=5, note=57, velocity=127, time=12),\n",
      "    Message('note_on', channel=5, note=57, velocity=0, time=96),\n",
      "    Message('note_on', channel=5, note=59, velocity=127, time=24),\n",
      "    Message('note_on', channel=5, note=59, velocity=0, time=24),\n",
      "    Message('note_on', channel=5, note=60, velocity=127, time=6),\n",
      "    Message('note_on', channel=5, note=60, velocity=0, time=24),\n",
      "    Message('note_on', channel=5, note=59, velocity=127, time=6),\n",
      "    Message('note_on', channel=5, note=59, velocity=0, time=168),\n",
      "    Message('note_on', channel=5, note=57, velocity=127, time=12),\n",
      "    Message('note_on', channel=5, note=57, velocity=0, time=168),\n",
      "    Message('note_on', channel=5, note=55, velocity=127, time=12),\n",
      "    Message('note_on', channel=5, note=55, velocity=0, time=336),\n",
      "    Message('note_on', channel=5, note=57, velocity=127, time=3984),\n",
      "    Message('note_on', channel=5, note=57, velocity=0, time=336),\n",
      "    Message('note_on', channel=5, note=59, velocity=127, time=24),\n",
      "    Message('note_on', channel=5, note=59, velocity=0, time=168),\n",
      "    Message('note_on', channel=5, note=60, velocity=127, time=12),\n",
      "    Message('note_on', channel=5, note=60, velocity=0, time=336),\n",
      "    Message('note_on', channel=5, note=60, velocity=127, time=24),\n",
      "    Message('note_on', channel=5, note=60, velocity=0, time=168),\n",
      "    Message('note_on', channel=5, note=59, velocity=127, time=12),\n",
      "    Message('note_on', channel=5, note=59, velocity=0, time=276),\n",
      "    Message('note_on', channel=5, note=60, velocity=127, time=24),\n",
      "    Message('note_on', channel=5, note=60, velocity=0, time=24),\n",
      "    Message('note_on', channel=5, note=62, velocity=127, time=6),\n",
      "    Message('note_on', channel=5, note=62, velocity=0, time=24),\n",
      "    Message('note_on', channel=5, note=59, velocity=127, time=6),\n",
      "    Message('note_on', channel=5, note=59, velocity=0, time=168),\n",
      "    Message('note_on', channel=5, note=57, velocity=127, time=12),\n",
      "    Message('note_on', channel=5, note=57, velocity=0, time=168),\n",
      "    Message('note_on', channel=5, note=57, velocity=127, time=12),\n",
      "    Message('note_on', channel=5, note=57, velocity=0, time=168),\n",
      "    Message('note_on', channel=5, note=60, velocity=127, time=1272),\n",
      "    Message('note_on', channel=5, note=60, velocity=0, time=336),\n",
      "    Message('note_on', channel=5, note=62, velocity=127, time=24),\n",
      "    Message('note_on', channel=5, note=62, velocity=0, time=168),\n",
      "    Message('note_on', channel=5, note=64, velocity=127, time=12),\n",
      "    Message('note_on', channel=5, note=64, velocity=0, time=336),\n",
      "    Message('note_on', channel=5, note=64, velocity=127, time=24),\n",
      "    Message('note_on', channel=5, note=64, velocity=0, time=168),\n",
      "    Message('note_on', channel=5, note=62, velocity=127, time=12),\n",
      "    Message('note_on', channel=5, note=62, velocity=0, time=276),\n",
      "    Message('note_on', channel=5, note=64, velocity=127, time=24),\n",
      "    Message('note_on', channel=5, note=64, velocity=0, time=24),\n",
      "    Message('note_on', channel=5, note=65, velocity=127, time=6),\n",
      "    Message('note_on', channel=5, note=65, velocity=0, time=24),\n",
      "    Message('note_on', channel=5, note=62, velocity=127, time=6),\n",
      "    Message('note_on', channel=5, note=62, velocity=0, time=168),\n",
      "    Message('note_on', channel=5, note=60, velocity=127, time=12),\n",
      "    Message('note_on', channel=5, note=60, velocity=0, time=168),\n",
      "    Message('note_on', channel=5, note=60, velocity=127, time=12),\n",
      "    Message('note_on', channel=5, note=60, velocity=0, time=168),\n",
      "    Message('note_on', channel=5, note=59, velocity=127, time=1272),\n",
      "    Message('note_on', channel=5, note=59, velocity=0, time=336),\n",
      "    Message('note_on', channel=5, note=60, velocity=127, time=24),\n",
      "    Message('note_on', channel=5, note=60, velocity=0, time=168),\n",
      "    Message('note_on', channel=5, note=62, velocity=127, time=12),\n",
      "    Message('note_on', channel=5, note=62, velocity=0, time=336),\n",
      "    Message('note_on', channel=5, note=62, velocity=127, time=24),\n",
      "    Message('note_on', channel=5, note=62, velocity=0, time=168),\n",
      "    Message('note_on', channel=5, note=60, velocity=127, time=12),\n",
      "    Message('note_on', channel=5, note=60, velocity=0, time=168),\n",
      "    Message('note_on', channel=5, note=59, velocity=127, time=12),\n",
      "    Message('note_on', channel=5, note=59, velocity=0, time=336),\n",
      "    Message('note_on', channel=5, note=57, velocity=127, time=24),\n",
      "    Message('note_on', channel=5, note=57, velocity=0, time=336),\n",
      "    Message('note_on', channel=5, note=59, velocity=127, time=744),\n",
      "    Message('note_on', channel=5, note=59, velocity=0, time=336),\n",
      "    Message('note_on', channel=5, note=60, velocity=127, time=24),\n",
      "    Message('note_on', channel=5, note=60, velocity=0, time=168),\n",
      "    Message('note_on', channel=5, note=62, velocity=127, time=12),\n",
      "    Message('note_on', channel=5, note=62, velocity=0, time=336),\n",
      "    Message('note_on', channel=5, note=59, velocity=127, time=24),\n",
      "    Message('note_on', channel=5, note=59, velocity=0, time=168),\n",
      "    Message('note_on', channel=5, note=57, velocity=127, time=12),\n",
      "    Message('note_on', channel=5, note=57, velocity=0, time=96),\n",
      "    Message('note_on', channel=5, note=59, velocity=127, time=24),\n",
      "    Message('note_on', channel=5, note=59, velocity=0, time=24),\n",
      "    Message('note_on', channel=5, note=60, velocity=127, time=6),\n",
      "    Message('note_on', channel=5, note=60, velocity=0, time=24),\n",
      "    Message('note_on', channel=5, note=59, velocity=127, time=6),\n",
      "    Message('note_on', channel=5, note=59, velocity=0, time=168),\n",
      "    Message('note_on', channel=5, note=57, velocity=127, time=12),\n",
      "    Message('note_on', channel=5, note=57, velocity=0, time=168),\n",
      "    Message('note_on', channel=5, note=55, velocity=127, time=12),\n",
      "    Message('note_on', channel=5, note=55, velocity=0, time=336),\n",
      "    MetaMessage('end_of_track', time=0)]),\n",
      "  MidiTrack([\n",
      "    MetaMessage('track_name', name='          [74046,757]', time=0),\n",
      "    MetaMessage('midi_port', port=0, time=0),\n",
      "    MetaMessage('end_of_track', time=0)])\n",
      "])\n"
     ]
    }
   ],
   "source": [
    "file_name2 = \"jesu1.mid\"\n",
    "file_path2 = os.path.join(\"midi_data\", file_name2)\n",
    "\n",
    "mid2 = MidiFile(file_path2)\n",
    "print(mid2)"
   ]
  },
  {
   "cell_type": "code",
   "execution_count": 15,
   "id": "b235c896",
   "metadata": {
    "scrolled": false
   },
   "outputs": [
    {
     "data": {
      "text/plain": [
       "8"
      ]
     },
     "execution_count": 15,
     "metadata": {},
     "output_type": "execute_result"
    }
   ],
   "source": [
    "len(mid2.tracks)"
   ]
  },
  {
   "cell_type": "code",
   "execution_count": 16,
   "id": "4ad9f759",
   "metadata": {
    "scrolled": false
   },
   "outputs": [
    {
     "data": {
      "text/plain": [
       "MidiTrack([\n",
       "  MetaMessage('sequencer_specific', data=(0, 0, 65), time=0),\n",
       "  MetaMessage('track_name', name='JESU        ', time=0),\n",
       "  MetaMessage('key_signature', key='G', time=0),\n",
       "  MetaMessage('midi_port', port=0, time=0),\n",
       "  MetaMessage('time_signature', numerator=9, denominator=8, clocks_per_click=24, notated_32nd_notes_per_beat=8, time=0),\n",
       "  MetaMessage('set_tempo', tempo=500000, time=38340),\n",
       "  MetaMessage('end_of_track', time=0)])"
      ]
     },
     "execution_count": 16,
     "metadata": {},
     "output_type": "execute_result"
    }
   ],
   "source": [
    "mid2.tracks[0]"
   ]
  },
  {
   "cell_type": "code",
   "execution_count": 17,
   "id": "72e65bc5",
   "metadata": {
    "scrolled": true
   },
   "outputs": [
    {
     "data": {
      "text/plain": [
       "MidiTrack([\n",
       "  MetaMessage('track_name', name=\"Jesu, Joy of Man's\", time=0),\n",
       "  MetaMessage('instrument_name', name='Synths Strings 1', time=0),\n",
       "  MetaMessage('midi_port', port=0, time=0),\n",
       "  Message('control_change', channel=0, control=0, value=80, time=0),\n",
       "  Message('control_change', channel=0, control=32, value=0, time=0),\n",
       "  Message('program_change', channel=0, program=50, time=0),\n",
       "  Message('note_on', channel=0, note=67, velocity=104, time=60),\n",
       "  Message('note_on', channel=0, note=67, velocity=0, time=48),\n",
       "  Message('note_on', channel=0, note=69, velocity=104, time=12),\n",
       "  Message('note_on', channel=0, note=69, velocity=0, time=48),\n",
       "  Message('note_on', channel=0, note=71, velocity=104, time=12),\n",
       "  Message('note_on', channel=0, note=71, velocity=0, time=48),\n",
       "  Message('note_on', channel=0, note=74, velocity=104, time=12),\n",
       "  Message('note_on', channel=0, note=74, velocity=0, time=48),\n",
       "  Message('note_on', channel=0, note=72, velocity=104, time=12),\n",
       "  Message('note_on', channel=0, note=72, velocity=0, time=48),\n",
       "  Message('note_on', channel=0, note=72, velocity=104, time=12),\n",
       "  Message('note_on', channel=0, note=72, velocity=0, time=48),\n",
       "  Message('note_on', channel=0, note=76, velocity=104, time=12),\n",
       "  Message('note_on', channel=0, note=76, velocity=0, time=48),\n",
       "  Message('note_on', channel=0, note=74, velocity=104, time=12),\n",
       "  Message('note_on', channel=0, note=74, velocity=0, time=48),\n",
       "  Message('note_on', channel=0, note=74, velocity=104, time=12),\n",
       "  Message('note_on', channel=0, note=74, velocity=0, time=48),\n",
       "  Message('note_on', channel=0, note=79, velocity=104, time=12),\n",
       "  Message('note_on', channel=0, note=79, velocity=0, time=48),\n",
       "  Message('note_on', channel=0, note=78, velocity=104, time=12),\n",
       "  Message('note_on', channel=0, note=78, velocity=0, time=48),\n",
       "  Message('note_on', channel=0, note=79, velocity=104, time=12),\n",
       "  Message('note_on', channel=0, note=79, velocity=0, time=48),\n",
       "  Message('note_on', channel=0, note=74, velocity=104, time=12),\n",
       "  Message('note_on', channel=0, note=74, velocity=0, time=48),\n",
       "  Message('note_on', channel=0, note=71, velocity=104, time=12),\n",
       "  Message('note_on', channel=0, note=71, velocity=0, time=48),\n",
       "  Message('note_on', channel=0, note=67, velocity=104, time=12),\n",
       "  Message('note_on', channel=0, note=67, velocity=0, time=48),\n",
       "  Message('note_on', channel=0, note=69, velocity=104, time=12),\n",
       "  Message('note_on', channel=0, note=69, velocity=0, time=48),\n",
       "  Message('note_on', channel=0, note=71, velocity=104, time=12),\n",
       "  Message('note_on', channel=0, note=71, velocity=0, time=48),\n",
       "  Message('note_on', channel=0, note=72, velocity=104, time=12),\n",
       "  Message('note_on', channel=0, note=72, velocity=0, time=48),\n",
       "  Message('note_on', channel=0, note=74, velocity=104, time=12),\n",
       "  Message('note_on', channel=0, note=74, velocity=0, time=48),\n",
       "  Message('note_on', channel=0, note=76, velocity=104, time=12),\n",
       "  Message('note_on', channel=0, note=76, velocity=0, time=48),\n",
       "  Message('note_on', channel=0, note=74, velocity=104, time=12),\n",
       "  Message('note_on', channel=0, note=74, velocity=0, time=48),\n",
       "  Message('note_on', channel=0, note=72, velocity=104, time=12),\n",
       "  Message('note_on', channel=0, note=72, velocity=0, time=48),\n",
       "  Message('note_on', channel=0, note=71, velocity=104, time=12),\n",
       "  Message('note_on', channel=0, note=71, velocity=0, time=48),\n",
       "  Message('note_on', channel=0, note=69, velocity=104, time=12),\n",
       "  Message('note_on', channel=0, note=69, velocity=0, time=48),\n",
       "  Message('note_on', channel=0, note=71, velocity=104, time=12),\n",
       "  Message('note_on', channel=0, note=71, velocity=0, time=48),\n",
       "  Message('note_on', channel=0, note=67, velocity=104, time=12),\n",
       "  Message('note_on', channel=0, note=67, velocity=0, time=48),\n",
       "  Message('note_on', channel=0, note=66, velocity=104, time=12),\n",
       "  Message('note_on', channel=0, note=66, velocity=0, time=48),\n",
       "  Message('note_on', channel=0, note=67, velocity=104, time=12),\n",
       "  Message('note_on', channel=0, note=67, velocity=0, time=48),\n",
       "  Message('note_on', channel=0, note=69, velocity=104, time=12),\n",
       "  Message('note_on', channel=0, note=69, velocity=0, time=48),\n",
       "  Message('note_on', channel=0, note=62, velocity=104, time=12),\n",
       "  Message('note_on', channel=0, note=62, velocity=0, time=48),\n",
       "  Message('note_on', channel=0, note=66, velocity=104, time=12),\n",
       "  Message('note_on', channel=0, note=66, velocity=0, time=48),\n",
       "  Message('note_on', channel=0, note=69, velocity=104, time=12),\n",
       "  Message('note_on', channel=0, note=69, velocity=0, time=48),\n",
       "  Message('note_on', channel=0, note=72, velocity=104, time=12),\n",
       "  Message('note_on', channel=0, note=72, velocity=0, time=48),\n",
       "  Message('note_on', channel=0, note=71, velocity=104, time=12),\n",
       "  Message('note_on', channel=0, note=71, velocity=0, time=48),\n",
       "  Message('note_on', channel=0, note=69, velocity=104, time=12),\n",
       "  Message('note_on', channel=0, note=69, velocity=0, time=48),\n",
       "  Message('note_on', channel=0, note=71, velocity=104, time=12),\n",
       "  Message('note_on', channel=0, note=71, velocity=0, time=48),\n",
       "  Message('note_on', channel=0, note=67, velocity=104, time=12),\n",
       "  Message('note_on', channel=0, note=67, velocity=0, time=48),\n",
       "  Message('note_on', channel=0, note=69, velocity=104, time=12),\n",
       "  Message('note_on', channel=0, note=69, velocity=0, time=48),\n",
       "  Message('note_on', channel=0, note=71, velocity=104, time=12),\n",
       "  Message('note_on', channel=0, note=71, velocity=0, time=48),\n",
       "  Message('note_on', channel=0, note=74, velocity=104, time=12),\n",
       "  Message('note_on', channel=0, note=74, velocity=0, time=48),\n",
       "  Message('note_on', channel=0, note=72, velocity=104, time=12),\n",
       "  Message('note_on', channel=0, note=72, velocity=0, time=48),\n",
       "  Message('note_on', channel=0, note=72, velocity=104, time=12),\n",
       "  Message('note_on', channel=0, note=72, velocity=0, time=48),\n",
       "  Message('note_on', channel=0, note=76, velocity=104, time=12),\n",
       "  Message('note_on', channel=0, note=76, velocity=0, time=48),\n",
       "  Message('note_on', channel=0, note=74, velocity=104, time=12),\n",
       "  Message('note_on', channel=0, note=74, velocity=0, time=48),\n",
       "  Message('note_on', channel=0, note=74, velocity=104, time=12),\n",
       "  Message('note_on', channel=0, note=74, velocity=0, time=48),\n",
       "  Message('note_on', channel=0, note=79, velocity=104, time=12),\n",
       "  Message('note_on', channel=0, note=79, velocity=0, time=48),\n",
       "  Message('note_on', channel=0, note=78, velocity=104, time=12),\n",
       "  Message('note_on', channel=0, note=78, velocity=0, time=48),\n",
       "  Message('note_on', channel=0, note=79, velocity=104, time=12),\n",
       "  Message('note_on', channel=0, note=79, velocity=0, time=48),\n",
       "  Message('note_on', channel=0, note=74, velocity=104, time=12),\n",
       "  Message('note_on', channel=0, note=74, velocity=0, time=48),\n",
       "  Message('note_on', channel=0, note=71, velocity=104, time=12),\n",
       "  Message('note_on', channel=0, note=71, velocity=0, time=48),\n",
       "  Message('note_on', channel=0, note=67, velocity=104, time=12),\n",
       "  Message('note_on', channel=0, note=67, velocity=0, time=48),\n",
       "  Message('note_on', channel=0, note=69, velocity=104, time=12),\n",
       "  Message('note_on', channel=0, note=69, velocity=0, time=48),\n",
       "  Message('note_on', channel=0, note=71, velocity=104, time=12),\n",
       "  Message('note_on', channel=0, note=71, velocity=0, time=48),\n",
       "  Message('note_on', channel=0, note=64, velocity=104, time=12),\n",
       "  Message('note_on', channel=0, note=64, velocity=0, time=48),\n",
       "  Message('note_on', channel=0, note=74, velocity=104, time=12),\n",
       "  Message('note_on', channel=0, note=74, velocity=0, time=48),\n",
       "  Message('note_on', channel=0, note=72, velocity=104, time=12),\n",
       "  Message('note_on', channel=0, note=72, velocity=0, time=48),\n",
       "  Message('note_on', channel=0, note=71, velocity=104, time=12),\n",
       "  Message('note_on', channel=0, note=71, velocity=0, time=48),\n",
       "  Message('note_on', channel=0, note=69, velocity=104, time=12),\n",
       "  Message('note_on', channel=0, note=69, velocity=0, time=48),\n",
       "  Message('note_on', channel=0, note=67, velocity=104, time=12),\n",
       "  Message('note_on', channel=0, note=67, velocity=0, time=48),\n",
       "  Message('note_on', channel=0, note=62, velocity=104, time=12),\n",
       "  Message('note_on', channel=0, note=62, velocity=0, time=48),\n",
       "  Message('note_on', channel=0, note=67, velocity=104, time=12),\n",
       "  Message('note_on', channel=0, note=67, velocity=0, time=48),\n",
       "  Message('note_on', channel=0, note=66, velocity=104, time=12),\n",
       "  Message('note_on', channel=0, note=66, velocity=0, time=48),\n",
       "  Message('note_on', channel=0, note=67, velocity=104, time=12),\n",
       "  Message('note_on', channel=0, note=67, velocity=0, time=48),\n",
       "  Message('note_on', channel=0, note=71, velocity=104, time=12),\n",
       "  Message('note_on', channel=0, note=71, velocity=0, time=48),\n",
       "  Message('note_on', channel=0, note=74, velocity=104, time=12),\n",
       "  Message('note_on', channel=0, note=74, velocity=0, time=48),\n",
       "  Message('note_on', channel=0, note=79, velocity=104, time=12),\n",
       "  Message('note_on', channel=0, note=79, velocity=0, time=48),\n",
       "  Message('note_on', channel=0, note=74, velocity=104, time=12),\n",
       "  Message('note_on', channel=0, note=74, velocity=0, time=48),\n",
       "  Message('note_on', channel=0, note=71, velocity=104, time=12),\n",
       "  Message('note_on', channel=0, note=71, velocity=0, time=48),\n",
       "  Message('note_on', channel=0, note=67, velocity=104, time=12),\n",
       "  Message('note_on', channel=0, note=67, velocity=0, time=48),\n",
       "  Message('note_on', channel=0, note=71, velocity=104, time=12),\n",
       "  Message('note_on', channel=0, note=71, velocity=0, time=48),\n",
       "  Message('note_on', channel=0, note=74, velocity=104, time=12),\n",
       "  Message('note_on', channel=0, note=74, velocity=0, time=48),\n",
       "  Message('note_on', channel=0, note=62, velocity=104, time=12),\n",
       "  Message('note_on', channel=0, note=71, velocity=104, time=0),\n",
       "  Message('note_on', channel=0, note=67, velocity=104, time=0),\n",
       "  Message('note_on', channel=0, note=62, velocity=0, time=336),\n",
       "  Message('note_on', channel=0, note=71, velocity=0, time=0),\n",
       "  Message('note_on', channel=0, note=67, velocity=0, time=0),\n",
       "  Message('note_on', channel=0, note=64, velocity=104, time=24),\n",
       "  Message('note_on', channel=0, note=67, velocity=104, time=0),\n",
       "  Message('note_on', channel=0, note=60, velocity=104, time=0),\n",
       "  Message('note_on', channel=0, note=72, velocity=104, time=0),\n",
       "  Message('note_on', channel=0, note=64, velocity=0, time=168),\n",
       "  Message('note_on', channel=0, note=67, velocity=0, time=0),\n",
       "  Message('note_on', channel=0, note=60, velocity=0, time=0),\n",
       "  Message('note_on', channel=0, note=72, velocity=0, time=0),\n",
       "  Message('note_on', channel=0, note=74, velocity=104, time=12),\n",
       "  Message('note_on', channel=0, note=74, velocity=0, time=336),\n",
       "  Message('note_on', channel=0, note=66, velocity=104, time=24),\n",
       "  Message('note_on', channel=0, note=71, velocity=104, time=0),\n",
       "  Message('note_on', channel=0, note=74, velocity=104, time=0),\n",
       "  Message('note_on', channel=0, note=62, velocity=104, time=0),\n",
       "  Message('note_on', channel=0, note=66, velocity=0, time=168),\n",
       "  Message('note_on', channel=0, note=71, velocity=0, time=0),\n",
       "  Message('note_on', channel=0, note=74, velocity=0, time=0),\n",
       "  Message('note_on', channel=0, note=62, velocity=0, time=0),\n",
       "  Message('note_on', channel=0, note=72, velocity=104, time=12),\n",
       "  Message('note_on', channel=0, note=72, velocity=0, time=336),\n",
       "  Message('note_on', channel=0, note=67, velocity=104, time=24),\n",
       "  Message('note_on', channel=0, note=62, velocity=104, time=0),\n",
       "  Message('note_on', channel=0, note=71, velocity=104, time=0),\n",
       "  Message('note_on', channel=0, note=67, velocity=0, time=168),\n",
       "  Message('note_on', channel=0, note=62, velocity=0, time=0),\n",
       "  Message('note_on', channel=0, note=71, velocity=0, time=0),\n",
       "  Message('note_on', channel=0, note=66, velocity=104, time=12),\n",
       "  Message('note_on', channel=0, note=69, velocity=104, time=0),\n",
       "  Message('note_on', channel=0, note=66, velocity=0, time=48),\n",
       "  Message('note_on', channel=0, note=69, velocity=0, time=0),\n",
       "  Message('note_on', channel=0, note=62, velocity=104, time=12),\n",
       "  Message('note_on', channel=0, note=62, velocity=0, time=48),\n",
       "  Message('note_on', channel=0, note=64, velocity=104, time=12),\n",
       "  Message('note_on', channel=0, note=64, velocity=0, time=48),\n",
       "  Message('note_on', channel=0, note=66, velocity=104, time=12),\n",
       "  Message('note_on', channel=0, note=69, velocity=104, time=0),\n",
       "  Message('note_on', channel=0, note=66, velocity=0, time=48),\n",
       "  Message('note_on', channel=0, note=69, velocity=0, time=0),\n",
       "  Message('note_on', channel=0, note=69, velocity=104, time=12),\n",
       "  Message('note_on', channel=0, note=69, velocity=0, time=48),\n",
       "  Message('note_on', channel=0, note=67, velocity=104, time=12),\n",
       "  Message('note_on', channel=0, note=67, velocity=0, time=48),\n",
       "  Message('note_on', channel=0, note=69, velocity=104, time=12),\n",
       "  Message('note_on', channel=0, note=69, velocity=0, time=48),\n",
       "  Message('note_on', channel=0, note=72, velocity=104, time=12),\n",
       "  Message('note_on', channel=0, note=72, velocity=0, time=48),\n",
       "  Message('note_on', channel=0, note=71, velocity=104, time=12),\n",
       "  Message('note_on', channel=0, note=71, velocity=0, time=48),\n",
       "  Message('note_on', channel=0, note=72, velocity=104, time=12),\n",
       "  Message('note_on', channel=0, note=72, velocity=0, time=48),\n",
       "  Message('note_on', channel=0, note=69, velocity=104, time=12),\n",
       "  Message('note_on', channel=0, note=69, velocity=0, time=48),\n",
       "  Message('note_on', channel=0, note=66, velocity=104, time=12),\n",
       "  Message('note_on', channel=0, note=66, velocity=0, time=48),\n",
       "  Message('note_on', channel=0, note=62, velocity=104, time=12),\n",
       "  Message('note_on', channel=0, note=62, velocity=0, time=48),\n",
       "  Message('note_on', channel=0, note=66, velocity=104, time=12),\n",
       "  Message('note_on', channel=0, note=66, velocity=0, time=48),\n",
       "  Message('note_on', channel=0, note=69, velocity=104, time=12),\n",
       "  Message('note_on', channel=0, note=69, velocity=0, time=48),\n",
       "  Message('note_on', channel=0, note=72, velocity=104, time=12),\n",
       "  Message('note_on', channel=0, note=72, velocity=0, time=48),\n",
       "  Message('note_on', channel=0, note=71, velocity=104, time=12),\n",
       "  Message('note_on', channel=0, note=71, velocity=0, time=48),\n",
       "  Message('note_on', channel=0, note=69, velocity=104, time=12),\n",
       "  Message('note_on', channel=0, note=69, velocity=0, time=48),\n",
       "  Message('note_on', channel=0, note=67, velocity=104, time=12),\n",
       "  Message('note_on', channel=0, note=71, velocity=104, time=0),\n",
       "  Message('note_on', channel=0, note=67, velocity=0, time=336),\n",
       "  Message('note_on', channel=0, note=71, velocity=0, time=0),\n",
       "  Message('note_on', channel=0, note=64, velocity=104, time=24),\n",
       "  Message('note_on', channel=0, note=72, velocity=104, time=0),\n",
       "  Message('note_on', channel=0, note=67, velocity=104, time=0),\n",
       "  Message('note_on', channel=0, note=60, velocity=104, time=0),\n",
       "  Message('note_on', channel=0, note=64, velocity=0, time=168),\n",
       "  Message('note_on', channel=0, note=72, velocity=0, time=0),\n",
       "  Message('note_on', channel=0, note=67, velocity=0, time=0),\n",
       "  Message('note_on', channel=0, note=60, velocity=0, time=0),\n",
       "  Message('note_on', channel=0, note=67, velocity=104, time=12),\n",
       "  Message('note_on', channel=0, note=62, velocity=104, time=0),\n",
       "  Message('note_on', channel=0, note=74, velocity=104, time=0),\n",
       "  Message('note_on', channel=0, note=67, velocity=0, time=336),\n",
       "  Message('note_on', channel=0, note=62, velocity=0, time=0),\n",
       "  Message('note_on', channel=0, note=74, velocity=0, time=0),\n",
       "  Message('note_on', channel=0, note=67, velocity=104, time=24),\n",
       "  Message('note_on', channel=0, note=64, velocity=104, time=0),\n",
       "  Message('note_on', channel=0, note=71, velocity=104, time=0),\n",
       "  Message('note_on', channel=0, note=67, velocity=0, time=168),\n",
       "  Message('note_on', channel=0, note=64, velocity=0, time=0),\n",
       "  Message('note_on', channel=0, note=71, velocity=0, time=0),\n",
       "  Message('note_on', channel=0, note=69, velocity=63, time=12),\n",
       "  Message('note_on', channel=0, note=69, velocity=0, time=116),\n",
       "  Message('note_on', channel=0, note=71, velocity=74, time=4),\n",
       "  Message('note_on', channel=0, note=72, velocity=68, time=30),\n",
       "  Message('note_on', channel=0, note=71, velocity=0, time=14),\n",
       "  Message('note_on', channel=0, note=71, velocity=65, time=16),\n",
       "  Message('note_on', channel=0, note=66, velocity=67, time=0),\n",
       "  Message('note_on', channel=0, note=62, velocity=55, time=0),\n",
       "  Message('note_on', channel=0, note=72, velocity=0, time=14),\n",
       "  Message('note_on', channel=0, note=66, velocity=55, time=166),\n",
       "  Message('note_on', channel=0, note=60, velocity=46, time=0),\n",
       "  Message('note_on', channel=0, note=69, velocity=45, time=0),\n",
       "  Message('note_on', channel=0, note=71, velocity=0, time=8),\n",
       "  Message('note_on', channel=0, note=66, velocity=0, time=0),\n",
       "  Message('note_on', channel=0, note=62, velocity=0, time=0),\n",
       "  Message('note_on', channel=0, note=67, velocity=104, time=172),\n",
       "  Message('note_on', channel=0, note=66, velocity=0, time=8),\n",
       "  Message('note_on', channel=0, note=60, velocity=0, time=0),\n",
       "  Message('note_on', channel=0, note=69, velocity=0, time=0),\n",
       "  Message('note_on', channel=0, note=67, velocity=0, time=40),\n",
       "  Message('note_on', channel=0, note=71, velocity=104, time=12),\n",
       "  Message('note_on', channel=0, note=71, velocity=0, time=48),\n",
       "  Message('note_on', channel=0, note=69, velocity=104, time=12),\n",
       "  Message('note_on', channel=0, note=69, velocity=0, time=48),\n",
       "  Message('note_on', channel=0, note=71, velocity=104, time=12),\n",
       "  Message('note_on', channel=0, note=71, velocity=0, time=48),\n",
       "  Message('note_on', channel=0, note=74, velocity=104, time=12),\n",
       "  Message('note_on', channel=0, note=74, velocity=0, time=48),\n",
       "  Message('note_on', channel=0, note=72, velocity=104, time=12),\n",
       "  Message('note_on', channel=0, note=72, velocity=0, time=48),\n",
       "  Message('note_on', channel=0, note=72, velocity=104, time=12),\n",
       "  Message('note_on', channel=0, note=72, velocity=0, time=48),\n",
       "  Message('note_on', channel=0, note=76, velocity=104, time=12),\n",
       "  Message('note_on', channel=0, note=76, velocity=0, time=48),\n",
       "  Message('note_on', channel=0, note=74, velocity=104, time=12),\n",
       "  Message('note_on', channel=0, note=74, velocity=0, time=48),\n",
       "  Message('note_on', channel=0, note=74, velocity=104, time=12),\n",
       "  Message('note_on', channel=0, note=74, velocity=0, time=48),\n",
       "  Message('note_on', channel=0, note=79, velocity=104, time=12),\n",
       "  Message('note_on', channel=0, note=79, velocity=0, time=48),\n",
       "  Message('note_on', channel=0, note=78, velocity=104, time=12),\n",
       "  Message('note_on', channel=0, note=78, velocity=0, time=48),\n",
       "  Message('note_on', channel=0, note=79, velocity=104, time=12),\n",
       "  Message('note_on', channel=0, note=79, velocity=0, time=48),\n",
       "  Message('note_on', channel=0, note=74, velocity=104, time=12),\n",
       "  Message('note_on', channel=0, note=74, velocity=0, time=48),\n",
       "  Message('note_on', channel=0, note=71, velocity=104, time=12),\n",
       "  Message('note_on', channel=0, note=71, velocity=0, time=48),\n",
       "  Message('note_on', channel=0, note=67, velocity=104, time=12),\n",
       "  Message('note_on', channel=0, note=67, velocity=0, time=48),\n",
       "  Message('note_on', channel=0, note=69, velocity=104, time=12),\n",
       "  Message('note_on', channel=0, note=69, velocity=0, time=48),\n",
       "  Message('note_on', channel=0, note=71, velocity=104, time=12),\n",
       "  Message('note_on', channel=0, note=71, velocity=0, time=48),\n",
       "  Message('note_on', channel=0, note=72, velocity=104, time=12),\n",
       "  Message('note_on', channel=0, note=72, velocity=0, time=48),\n",
       "  Message('note_on', channel=0, note=74, velocity=104, time=12),\n",
       "  Message('note_on', channel=0, note=74, velocity=0, time=48),\n",
       "  Message('note_on', channel=0, note=76, velocity=104, time=12),\n",
       "  Message('note_on', channel=0, note=76, velocity=0, time=48),\n",
       "  Message('note_on', channel=0, note=74, velocity=104, time=12),\n",
       "  Message('note_on', channel=0, note=74, velocity=0, time=48),\n",
       "  Message('note_on', channel=0, note=72, velocity=104, time=12),\n",
       "  Message('note_on', channel=0, note=72, velocity=0, time=48),\n",
       "  Message('note_on', channel=0, note=71, velocity=104, time=12),\n",
       "  Message('note_on', channel=0, note=71, velocity=0, time=48),\n",
       "  Message('note_on', channel=0, note=69, velocity=104, time=12),\n",
       "  Message('note_on', channel=0, note=69, velocity=0, time=48),\n",
       "  Message('note_on', channel=0, note=71, velocity=104, time=12),\n",
       "  Message('note_on', channel=0, note=71, velocity=0, time=48),\n",
       "  Message('note_on', channel=0, note=67, velocity=104, time=12),\n",
       "  Message('note_on', channel=0, note=67, velocity=0, time=48),\n",
       "  Message('note_on', channel=0, note=66, velocity=104, time=12),\n",
       "  Message('note_on', channel=0, note=66, velocity=0, time=48),\n",
       "  Message('note_on', channel=0, note=67, velocity=104, time=12),\n",
       "  Message('note_on', channel=0, note=67, velocity=0, time=48),\n",
       "  Message('note_on', channel=0, note=69, velocity=104, time=12),\n",
       "  Message('note_on', channel=0, note=69, velocity=0, time=48),\n",
       "  Message('note_on', channel=0, note=62, velocity=104, time=12),\n",
       "  Message('note_on', channel=0, note=62, velocity=0, time=48),\n",
       "  Message('note_on', channel=0, note=66, velocity=104, time=12),\n",
       "  Message('note_on', channel=0, note=66, velocity=0, time=48),\n",
       "  Message('note_on', channel=0, note=69, velocity=104, time=12),\n",
       "  Message('note_on', channel=0, note=69, velocity=0, time=48),\n",
       "  Message('note_on', channel=0, note=72, velocity=104, time=12),\n",
       "  Message('note_on', channel=0, note=72, velocity=0, time=48),\n",
       "  Message('note_on', channel=0, note=71, velocity=104, time=12),\n",
       "  Message('note_on', channel=0, note=71, velocity=0, time=48),\n",
       "  Message('note_on', channel=0, note=69, velocity=104, time=12),\n",
       "  Message('note_on', channel=0, note=69, velocity=0, time=48),\n",
       "  Message('note_on', channel=0, note=71, velocity=104, time=12),\n",
       "  Message('note_on', channel=0, note=71, velocity=0, time=48),\n",
       "  Message('note_on', channel=0, note=67, velocity=104, time=12),\n",
       "  Message('note_on', channel=0, note=67, velocity=0, time=48),\n",
       "  Message('note_on', channel=0, note=69, velocity=104, time=12),\n",
       "  Message('note_on', channel=0, note=69, velocity=0, time=48),\n",
       "  Message('note_on', channel=0, note=71, velocity=104, time=12),\n",
       "  Message('note_on', channel=0, note=71, velocity=0, time=48),\n",
       "  Message('note_on', channel=0, note=74, velocity=104, time=12),\n",
       "  Message('note_on', channel=0, note=74, velocity=0, time=48),\n",
       "  Message('note_on', channel=0, note=72, velocity=104, time=12),\n",
       "  Message('note_on', channel=0, note=72, velocity=0, time=48),\n",
       "  Message('note_on', channel=0, note=72, velocity=104, time=12),\n",
       "  Message('note_on', channel=0, note=72, velocity=0, time=48),\n",
       "  Message('note_on', channel=0, note=76, velocity=104, time=12),\n",
       "  Message('note_on', channel=0, note=76, velocity=0, time=48),\n",
       "  Message('note_on', channel=0, note=74, velocity=104, time=12),\n",
       "  Message('note_on', channel=0, note=74, velocity=0, time=48),\n",
       "  Message('note_on', channel=0, note=74, velocity=104, time=12),\n",
       "  Message('note_on', channel=0, note=74, velocity=0, time=48),\n",
       "  Message('note_on', channel=0, note=79, velocity=104, time=12),\n",
       "  Message('note_on', channel=0, note=79, velocity=0, time=48),\n",
       "  Message('note_on', channel=0, note=78, velocity=104, time=12),\n",
       "  Message('note_on', channel=0, note=78, velocity=0, time=48),\n",
       "  Message('note_on', channel=0, note=79, velocity=104, time=12),\n",
       "  Message('note_on', channel=0, note=79, velocity=0, time=48),\n",
       "  Message('note_on', channel=0, note=74, velocity=104, time=12),\n",
       "  Message('note_on', channel=0, note=74, velocity=0, time=48),\n",
       "  Message('note_on', channel=0, note=71, velocity=104, time=12),\n",
       "  Message('note_on', channel=0, note=71, velocity=0, time=48),\n",
       "  Message('note_on', channel=0, note=67, velocity=104, time=12),\n",
       "  Message('note_on', channel=0, note=67, velocity=0, time=48),\n",
       "  Message('note_on', channel=0, note=69, velocity=104, time=12),\n",
       "  Message('note_on', channel=0, note=69, velocity=0, time=48),\n",
       "  Message('note_on', channel=0, note=71, velocity=104, time=12),\n",
       "  Message('note_on', channel=0, note=71, velocity=0, time=48),\n",
       "  Message('note_on', channel=0, note=64, velocity=104, time=12),\n",
       "  Message('note_on', channel=0, note=64, velocity=0, time=48),\n",
       "  Message('note_on', channel=0, note=74, velocity=104, time=12),\n",
       "  Message('note_on', channel=0, note=74, velocity=0, time=48),\n",
       "  Message('note_on', channel=0, note=72, velocity=104, time=12),\n",
       "  Message('note_on', channel=0, note=72, velocity=0, time=48),\n",
       "  Message('note_on', channel=0, note=71, velocity=104, time=12),\n",
       "  Message('note_on', channel=0, note=71, velocity=0, time=48),\n",
       "  Message('note_on', channel=0, note=69, velocity=104, time=12),\n",
       "  Message('note_on', channel=0, note=69, velocity=0, time=48),\n",
       "  Message('note_on', channel=0, note=67, velocity=104, time=12),\n",
       "  Message('note_on', channel=0, note=67, velocity=0, time=48),\n",
       "  Message('note_on', channel=0, note=62, velocity=104, time=12),\n",
       "  Message('note_on', channel=0, note=62, velocity=0, time=48),\n",
       "  Message('note_on', channel=0, note=67, velocity=104, time=12),\n",
       "  Message('note_on', channel=0, note=67, velocity=0, time=48),\n",
       "  Message('note_on', channel=0, note=66, velocity=104, time=12),\n",
       "  Message('note_on', channel=0, note=66, velocity=0, time=48),\n",
       "  Message('note_on', channel=0, note=67, velocity=104, time=12),\n",
       "  Message('note_on', channel=0, note=71, velocity=104, time=0),\n",
       "  Message('note_on', channel=0, note=67, velocity=0, time=336),\n",
       "  Message('note_on', channel=0, note=71, velocity=0, time=0),\n",
       "  Message('note_on', channel=0, note=64, velocity=104, time=24),\n",
       "  Message('note_on', channel=0, note=60, velocity=104, time=0),\n",
       "  Message('note_on', channel=0, note=67, velocity=104, time=0),\n",
       "  Message('note_on', channel=0, note=72, velocity=104, time=0),\n",
       "  Message('note_on', channel=0, note=64, velocity=0, time=168),\n",
       "  Message('note_on', channel=0, note=60, velocity=0, time=0),\n",
       "  Message('note_on', channel=0, note=67, velocity=0, time=0),\n",
       "  Message('note_on', channel=0, note=72, velocity=0, time=0),\n",
       "  Message('note_on', channel=0, note=74, velocity=104, time=12),\n",
       "  Message('note_on', channel=0, note=74, velocity=0, time=336),\n",
       "  Message('note_on', channel=0, note=66, velocity=104, time=24),\n",
       "  Message('note_on', channel=0, note=71, velocity=104, time=0),\n",
       "  Message('note_on', channel=0, note=74, velocity=104, time=0),\n",
       "  Message('note_on', channel=0, note=62, velocity=104, time=0),\n",
       "  Message('note_on', channel=0, note=66, velocity=0, time=168),\n",
       "  Message('note_on', channel=0, note=71, velocity=0, time=0),\n",
       "  Message('note_on', channel=0, note=74, velocity=0, time=0),\n",
       "  Message('note_on', channel=0, note=62, velocity=0, time=0),\n",
       "  Message('note_on', channel=0, note=72, velocity=104, time=12),\n",
       "  Message('note_on', channel=0, note=72, velocity=0, time=336),\n",
       "  Message('note_on', channel=0, note=67, velocity=104, time=24),\n",
       "  Message('note_on', channel=0, note=62, velocity=104, time=0),\n",
       "  Message('note_on', channel=0, note=71, velocity=104, time=0),\n",
       "  Message('note_on', channel=0, note=67, velocity=0, time=168),\n",
       "  Message('note_on', channel=0, note=62, velocity=0, time=0),\n",
       "  Message('note_on', channel=0, note=71, velocity=0, time=0),\n",
       "  Message('note_on', channel=0, note=66, velocity=104, time=12),\n",
       "  Message('note_on', channel=0, note=69, velocity=104, time=0),\n",
       "  Message('note_on', channel=0, note=66, velocity=0, time=48),\n",
       "  Message('note_on', channel=0, note=69, velocity=0, time=0),\n",
       "  Message('note_on', channel=0, note=62, velocity=104, time=12),\n",
       "  Message('note_on', channel=0, note=62, velocity=0, time=48),\n",
       "  Message('note_on', channel=0, note=64, velocity=104, time=12),\n",
       "  Message('note_on', channel=0, note=64, velocity=0, time=48),\n",
       "  Message('note_on', channel=0, note=66, velocity=104, time=12),\n",
       "  Message('note_on', channel=0, note=69, velocity=104, time=0),\n",
       "  Message('note_on', channel=0, note=66, velocity=0, time=48),\n",
       "  Message('note_on', channel=0, note=69, velocity=0, time=0),\n",
       "  Message('note_on', channel=0, note=69, velocity=104, time=12),\n",
       "  Message('note_on', channel=0, note=69, velocity=0, time=48),\n",
       "  Message('note_on', channel=0, note=67, velocity=104, time=12),\n",
       "  Message('note_on', channel=0, note=67, velocity=0, time=48),\n",
       "  Message('note_on', channel=0, note=69, velocity=104, time=12),\n",
       "  Message('note_on', channel=0, note=69, velocity=0, time=48),\n",
       "  Message('note_on', channel=0, note=72, velocity=104, time=12),\n",
       "  Message('note_on', channel=0, note=72, velocity=0, time=48),\n",
       "  Message('note_on', channel=0, note=71, velocity=104, time=12),\n",
       "  Message('note_on', channel=0, note=71, velocity=0, time=48),\n",
       "  Message('note_on', channel=0, note=72, velocity=104, time=12),\n",
       "  Message('note_on', channel=0, note=72, velocity=0, time=48),\n",
       "  Message('note_on', channel=0, note=69, velocity=104, time=12),\n",
       "  Message('note_on', channel=0, note=69, velocity=0, time=48),\n",
       "  Message('note_on', channel=0, note=66, velocity=104, time=12),\n",
       "  Message('note_on', channel=0, note=66, velocity=0, time=48),\n",
       "  Message('note_on', channel=0, note=62, velocity=104, time=12),\n",
       "  Message('note_on', channel=0, note=62, velocity=0, time=48),\n",
       "  Message('note_on', channel=0, note=66, velocity=104, time=12),\n",
       "  Message('note_on', channel=0, note=66, velocity=0, time=48),\n",
       "  Message('note_on', channel=0, note=69, velocity=104, time=12),\n",
       "  Message('note_on', channel=0, note=69, velocity=0, time=48),\n",
       "  Message('note_on', channel=0, note=72, velocity=104, time=12),\n",
       "  Message('note_on', channel=0, note=72, velocity=0, time=48),\n",
       "  Message('note_on', channel=0, note=71, velocity=104, time=12),\n",
       "  Message('note_on', channel=0, note=71, velocity=0, time=48),\n",
       "  Message('note_on', channel=0, note=69, velocity=104, time=12),\n",
       "  Message('note_on', channel=0, note=69, velocity=0, time=48),\n",
       "  Message('note_on', channel=0, note=71, velocity=104, time=12),\n",
       "  Message('note_on', channel=0, note=67, velocity=104, time=0),\n",
       "  Message('note_on', channel=0, note=71, velocity=0, time=336),\n",
       "  Message('note_on', channel=0, note=67, velocity=0, time=0),\n",
       "  Message('note_on', channel=0, note=64, velocity=104, time=24),\n",
       "  Message('note_on', channel=0, note=60, velocity=104, time=0),\n",
       "  Message('note_on', channel=0, note=67, velocity=104, time=0),\n",
       "  Message('note_on', channel=0, note=72, velocity=104, time=0),\n",
       "  Message('note_on', channel=0, note=64, velocity=0, time=168),\n",
       "  Message('note_on', channel=0, note=60, velocity=0, time=0),\n",
       "  Message('note_on', channel=0, note=67, velocity=0, time=0),\n",
       "  Message('note_on', channel=0, note=72, velocity=0, time=0),\n",
       "  Message('note_on', channel=0, note=67, velocity=104, time=12),\n",
       "  Message('note_on', channel=0, note=74, velocity=104, time=0),\n",
       "  Message('note_on', channel=0, note=62, velocity=104, time=0),\n",
       "  Message('note_on', channel=0, note=67, velocity=0, time=336),\n",
       "  Message('note_on', channel=0, note=74, velocity=0, time=0),\n",
       "  Message('note_on', channel=0, note=62, velocity=0, time=0),\n",
       "  Message('note_on', channel=0, note=67, velocity=104, time=24),\n",
       "  Message('note_on', channel=0, note=64, velocity=104, time=0),\n",
       "  Message('note_on', channel=0, note=71, velocity=104, time=0),\n",
       "  Message('note_on', channel=0, note=67, velocity=0, time=168),\n",
       "  Message('note_on', channel=0, note=64, velocity=0, time=0),\n",
       "  Message('note_on', channel=0, note=71, velocity=0, time=0),\n",
       "  Message('note_on', channel=0, note=69, velocity=104, time=12),\n",
       "  Message('note_on', channel=0, note=69, velocity=0, time=116),\n",
       "  Message('note_on', channel=0, note=71, velocity=104, time=4),\n",
       "  Message('note_on', channel=0, note=72, velocity=104, time=30),\n",
       "  Message('note_on', channel=0, note=71, velocity=0, time=14),\n",
       "  Message('note_on', channel=0, note=66, velocity=104, time=16),\n",
       "  Message('note_on', channel=0, note=71, velocity=104, time=0),\n",
       "  Message('note_on', channel=0, note=62, velocity=104, time=0),\n",
       "  Message('note_on', channel=0, note=72, velocity=0, time=14),\n",
       "  Message('note_on', channel=0, note=66, velocity=0, time=154),\n",
       "  Message('note_on', channel=0, note=71, velocity=0, time=0),\n",
       "  Message('note_on', channel=0, note=62, velocity=0, time=0),\n",
       "  Message('note_on', channel=0, note=66, velocity=104, time=12),\n",
       "  Message('note_on', channel=0, note=60, velocity=104, time=0),\n",
       "  Message('note_on', channel=0, note=69, velocity=104, time=0),\n",
       "  Message('note_on', channel=0, note=66, velocity=0, time=168),\n",
       "  Message('note_on', channel=0, note=60, velocity=0, time=0),\n",
       "  Message('note_on', channel=0, note=69, velocity=0, time=0),\n",
       "  Message('note_on', channel=0, note=67, velocity=104, time=12),\n",
       "  Message('note_on', channel=0, note=67, velocity=0, time=48),\n",
       "  Message('note_on', channel=0, note=71, velocity=104, time=12),\n",
       "  Message('note_on', channel=0, note=71, velocity=0, time=48),\n",
       "  Message('note_on', channel=0, note=69, velocity=104, time=12),\n",
       "  Message('note_on', channel=0, note=69, velocity=0, time=48),\n",
       "  Message('note_on', channel=0, note=71, velocity=104, time=12),\n",
       "  Message('note_on', channel=0, note=71, velocity=0, time=48),\n",
       "  Message('note_on', channel=0, note=74, velocity=104, time=12),\n",
       "  Message('note_on', channel=0, note=74, velocity=0, time=48),\n",
       "  Message('note_on', channel=0, note=72, velocity=104, time=12),\n",
       "  Message('note_on', channel=0, note=72, velocity=0, time=48),\n",
       "  Message('note_on', channel=0, note=72, velocity=104, time=12),\n",
       "  Message('note_on', channel=0, note=72, velocity=0, time=48),\n",
       "  Message('note_on', channel=0, note=76, velocity=104, time=12),\n",
       "  Message('note_on', channel=0, note=76, velocity=0, time=48),\n",
       "  Message('note_on', channel=0, note=74, velocity=104, time=12),\n",
       "  Message('note_on', channel=0, note=74, velocity=0, time=48),\n",
       "  Message('note_on', channel=0, note=74, velocity=104, time=12),\n",
       "  Message('note_on', channel=0, note=74, velocity=0, time=48),\n",
       "  Message('note_on', channel=0, note=79, velocity=104, time=12),\n",
       "  Message('note_on', channel=0, note=79, velocity=0, time=48),\n",
       "  Message('note_on', channel=0, note=78, velocity=104, time=12),\n",
       "  Message('note_on', channel=0, note=78, velocity=0, time=48),\n",
       "  Message('note_on', channel=0, note=79, velocity=104, time=12),\n",
       "  Message('note_on', channel=0, note=79, velocity=0, time=48),\n",
       "  Message('note_on', channel=0, note=74, velocity=104, time=12),\n",
       "  Message('note_on', channel=0, note=74, velocity=0, time=48),\n",
       "  Message('note_on', channel=0, note=71, velocity=104, time=12),\n",
       "  Message('note_on', channel=0, note=71, velocity=0, time=48),\n",
       "  Message('note_on', channel=0, note=67, velocity=104, time=12),\n",
       "  Message('note_on', channel=0, note=67, velocity=0, time=48),\n",
       "  Message('note_on', channel=0, note=69, velocity=104, time=12),\n",
       "  Message('note_on', channel=0, note=69, velocity=0, time=48),\n",
       "  Message('note_on', channel=0, note=71, velocity=104, time=12),\n",
       "  Message('note_on', channel=0, note=71, velocity=0, time=48),\n",
       "  Message('note_on', channel=0, note=72, velocity=104, time=12),\n",
       "  Message('note_on', channel=0, note=72, velocity=0, time=48),\n",
       "  Message('note_on', channel=0, note=74, velocity=104, time=12),\n",
       "  Message('note_on', channel=0, note=74, velocity=0, time=48),\n",
       "  Message('note_on', channel=0, note=76, velocity=104, time=12),\n",
       "  Message('note_on', channel=0, note=76, velocity=0, time=48),\n",
       "  Message('note_on', channel=0, note=74, velocity=104, time=12),\n",
       "  Message('note_on', channel=0, note=74, velocity=0, time=48),\n",
       "  Message('note_on', channel=0, note=72, velocity=104, time=12),\n",
       "  Message('note_on', channel=0, note=72, velocity=0, time=48),\n",
       "  Message('note_on', channel=0, note=71, velocity=104, time=12),\n",
       "  Message('note_on', channel=0, note=71, velocity=0, time=48),\n",
       "  Message('note_on', channel=0, note=69, velocity=104, time=12),\n",
       "  Message('note_on', channel=0, note=69, velocity=0, time=48),\n",
       "  Message('note_on', channel=0, note=71, velocity=104, time=12),\n",
       "  Message('note_on', channel=0, note=71, velocity=0, time=48),\n",
       "  Message('note_on', channel=0, note=67, velocity=104, time=12),\n",
       "  Message('note_on', channel=0, note=67, velocity=0, time=48),\n",
       "  Message('note_on', channel=0, note=66, velocity=104, time=12),\n",
       "  Message('note_on', channel=0, note=66, velocity=0, time=48),\n",
       "  Message('note_on', channel=0, note=67, velocity=104, time=12),\n",
       "  Message('note_on', channel=0, note=67, velocity=0, time=48),\n",
       "  Message('note_on', channel=0, note=69, velocity=104, time=12),\n",
       "  Message('note_on', channel=0, note=69, velocity=0, time=48),\n",
       "  Message('note_on', channel=0, note=62, velocity=104, time=12),\n",
       "  Message('note_on', channel=0, note=62, velocity=0, time=48),\n",
       "  Message('note_on', channel=0, note=66, velocity=104, time=12),\n",
       "  Message('note_on', channel=0, note=66, velocity=0, time=48),\n",
       "  Message('note_on', channel=0, note=69, velocity=104, time=12),\n",
       "  Message('note_on', channel=0, note=69, velocity=0, time=48),\n",
       "  Message('note_on', channel=0, note=72, velocity=104, time=12),\n",
       "  Message('note_on', channel=0, note=72, velocity=0, time=48),\n",
       "  Message('note_on', channel=0, note=71, velocity=104, time=12),\n",
       "  Message('note_on', channel=0, note=71, velocity=0, time=48),\n",
       "  Message('note_on', channel=0, note=69, velocity=104, time=12),\n",
       "  Message('note_on', channel=0, note=69, velocity=0, time=48),\n",
       "  Message('note_on', channel=0, note=71, velocity=104, time=12),\n",
       "  Message('note_on', channel=0, note=71, velocity=0, time=48),\n",
       "  Message('note_on', channel=0, note=67, velocity=104, time=12),\n",
       "  Message('note_on', channel=0, note=67, velocity=0, time=48),\n",
       "  Message('note_on', channel=0, note=69, velocity=104, time=12),\n",
       "  Message('note_on', channel=0, note=69, velocity=0, time=48),\n",
       "  Message('note_on', channel=0, note=71, velocity=104, time=12),\n",
       "  Message('note_on', channel=0, note=71, velocity=0, time=48),\n",
       "  Message('note_on', channel=0, note=74, velocity=104, time=12),\n",
       "  Message('note_on', channel=0, note=74, velocity=0, time=48),\n",
       "  Message('note_on', channel=0, note=72, velocity=104, time=12),\n",
       "  Message('note_on', channel=0, note=72, velocity=0, time=48),\n",
       "  Message('note_on', channel=0, note=72, velocity=104, time=12),\n",
       "  Message('note_on', channel=0, note=72, velocity=0, time=48),\n",
       "  Message('note_on', channel=0, note=76, velocity=104, time=12),\n",
       "  Message('note_on', channel=0, note=76, velocity=0, time=48),\n",
       "  Message('note_on', channel=0, note=74, velocity=104, time=12),\n",
       "  Message('note_on', channel=0, note=74, velocity=0, time=48),\n",
       "  Message('note_on', channel=0, note=74, velocity=104, time=12),\n",
       "  Message('note_on', channel=0, note=74, velocity=0, time=48),\n",
       "  Message('note_on', channel=0, note=79, velocity=104, time=12),\n",
       "  Message('note_on', channel=0, note=79, velocity=0, time=48),\n",
       "  Message('note_on', channel=0, note=78, velocity=104, time=12),\n",
       "  Message('note_on', channel=0, note=78, velocity=0, time=48),\n",
       "  Message('note_on', channel=0, note=79, velocity=104, time=12),\n",
       "  Message('note_on', channel=0, note=79, velocity=0, time=48),\n",
       "  Message('note_on', channel=0, note=74, velocity=104, time=12),\n",
       "  Message('note_on', channel=0, note=74, velocity=0, time=48),\n",
       "  Message('note_on', channel=0, note=71, velocity=104, time=12),\n",
       "  Message('note_on', channel=0, note=71, velocity=0, time=48),\n",
       "  Message('note_on', channel=0, note=67, velocity=104, time=12),\n",
       "  Message('note_on', channel=0, note=67, velocity=0, time=48),\n",
       "  Message('note_on', channel=0, note=69, velocity=104, time=12),\n",
       "  Message('note_on', channel=0, note=69, velocity=0, time=48),\n",
       "  Message('note_on', channel=0, note=71, velocity=104, time=12),\n",
       "  Message('note_on', channel=0, note=71, velocity=0, time=48),\n",
       "  Message('note_on', channel=0, note=64, velocity=104, time=12),\n",
       "  Message('note_on', channel=0, note=64, velocity=0, time=48),\n",
       "  Message('note_on', channel=0, note=74, velocity=104, time=12),\n",
       "  Message('note_on', channel=0, note=74, velocity=0, time=48),\n",
       "  Message('note_on', channel=0, note=72, velocity=104, time=12),\n",
       "  Message('note_on', channel=0, note=72, velocity=0, time=48),\n",
       "  Message('note_on', channel=0, note=71, velocity=104, time=12),\n",
       "  Message('note_on', channel=0, note=71, velocity=0, time=48),\n",
       "  Message('note_on', channel=0, note=69, velocity=104, time=12),\n",
       "  Message('note_on', channel=0, note=69, velocity=0, time=48),\n",
       "  Message('note_on', channel=0, note=67, velocity=104, time=12),\n",
       "  Message('note_on', channel=0, note=67, velocity=0, time=48),\n",
       "  Message('note_on', channel=0, note=62, velocity=104, time=12),\n",
       "  Message('note_on', channel=0, note=62, velocity=0, time=48),\n",
       "  Message('note_on', channel=0, note=67, velocity=104, time=12),\n",
       "  Message('note_on', channel=0, note=67, velocity=0, time=48),\n",
       "  Message('note_on', channel=0, note=66, velocity=104, time=12),\n",
       "  Message('note_on', channel=0, note=66, velocity=0, time=48),\n",
       "  Message('note_on', channel=0, note=67, velocity=104, time=12),\n",
       "  Message('note_on', channel=0, note=67, velocity=0, time=48),\n",
       "  Message('note_on', channel=0, note=71, velocity=104, time=12),\n",
       "  Message('note_on', channel=0, note=71, velocity=0, time=48),\n",
       "  Message('note_on', channel=0, note=74, velocity=104, time=12),\n",
       "  Message('note_on', channel=0, note=74, velocity=0, time=48),\n",
       "  Message('note_on', channel=0, note=79, velocity=104, time=12),\n",
       "  Message('note_on', channel=0, note=79, velocity=0, time=48),\n",
       "  Message('note_on', channel=0, note=74, velocity=104, time=12),\n",
       "  Message('note_on', channel=0, note=74, velocity=0, time=48),\n",
       "  Message('note_on', channel=0, note=71, velocity=104, time=12),\n",
       "  Message('note_on', channel=0, note=71, velocity=0, time=48),\n",
       "  Message('note_on', channel=0, note=67, velocity=104, time=12),\n",
       "  Message('note_on', channel=0, note=67, velocity=0, time=168),\n",
       "  Message('note_on', channel=0, note=66, velocity=94, time=13),\n",
       "  Message('note_on', channel=0, note=69, velocity=94, time=0),\n",
       "  Message('note_on', channel=0, note=66, velocity=0, time=336),\n",
       "  Message('note_on', channel=0, note=69, velocity=0, time=0),\n",
       "  Message('note_on', channel=0, note=68, velocity=94, time=24),\n",
       "  Message('note_on', channel=0, note=71, velocity=94, time=0),\n",
       "  Message('note_on', channel=0, note=62, velocity=94, time=0),\n",
       "  Message('note_on', channel=0, note=68, velocity=0, time=168),\n",
       "  Message('note_on', channel=0, note=71, velocity=0, time=0),\n",
       "  Message('note_on', channel=0, note=62, velocity=0, time=0),\n",
       "  Message('note_on', channel=0, note=72, velocity=94, time=12),\n",
       "  Message('note_on', channel=0, note=64, velocity=94, time=0),\n",
       "  Message('note_on', channel=0, note=69, velocity=94, time=0),\n",
       "  Message('note_on', channel=0, note=72, velocity=0, time=336),\n",
       "  Message('note_on', channel=0, note=64, velocity=0, time=0),\n",
       "  Message('note_on', channel=0, note=69, velocity=0, time=0),\n",
       "  Message('note_on', channel=0, note=69, velocity=94, time=24),\n",
       "  Message('note_on', channel=0, note=64, velocity=94, time=0),\n",
       "  Message('note_on', channel=0, note=72, velocity=94, time=0),\n",
       "  Message('note_on', channel=0, note=69, velocity=0, time=168),\n",
       "  Message('note_on', channel=0, note=64, velocity=0, time=0),\n",
       "  Message('note_on', channel=0, note=72, velocity=0, time=0),\n",
       "  Message('note_on', channel=0, note=71, velocity=94, time=12),\n",
       "  Message('note_on', channel=0, note=71, velocity=0, time=276),\n",
       "  Message('note_on', channel=0, note=72, velocity=94, time=24),\n",
       "  Message('note_on', channel=0, note=72, velocity=0, time=24),\n",
       "  Message('note_on', channel=0, note=74, velocity=94, time=6),\n",
       "  Message('note_on', channel=0, note=74, velocity=0, time=24),\n",
       "  Message('note_on', channel=0, note=71, velocity=94, time=6),\n",
       "  Message('note_on', channel=0, note=68, velocity=94, time=0),\n",
       "  Message('note_on', channel=0, note=71, velocity=0, time=168),\n",
       "  Message('note_on', channel=0, note=68, velocity=0, time=0),\n",
       "  Message('note_on', channel=0, note=69, velocity=94, time=12),\n",
       "  Message('note_on', channel=0, note=69, velocity=0, time=168),\n",
       "  Message('note_on', channel=0, note=69, velocity=94, time=12),\n",
       "  Message('note_on', channel=0, note=69, velocity=0, time=48),\n",
       "  Message('note_on', channel=0, note=76, velocity=94, time=12),\n",
       "  Message('note_on', channel=0, note=76, velocity=0, time=48),\n",
       "  Message('note_on', channel=0, note=74, velocity=94, time=12),\n",
       "  Message('note_on', channel=0, note=74, velocity=0, time=48),\n",
       "  Message('note_on', channel=0, note=74, velocity=94, time=12),\n",
       "  Message('note_on', channel=0, note=74, velocity=0, time=48),\n",
       "  Message('note_on', channel=0, note=77, velocity=94, time=12),\n",
       "  Message('note_on', channel=0, note=77, velocity=0, time=48),\n",
       "  Message('note_on', channel=0, note=76, velocity=94, time=12),\n",
       "  Message('note_on', channel=0, note=76, velocity=0, time=48),\n",
       "  Message('note_on', channel=0, note=76, velocity=94, time=12),\n",
       "  Message('note_on', channel=0, note=76, velocity=0, time=48),\n",
       "  Message('note_on', channel=0, note=81, velocity=94, time=12),\n",
       "  Message('note_on', channel=0, note=81, velocity=0, time=48),\n",
       "  Message('note_on', channel=0, note=80, velocity=94, time=12),\n",
       "  Message('note_on', channel=0, note=80, velocity=0, time=48),\n",
       "  Message('note_on', channel=0, note=81, velocity=94, time=12),\n",
       "  Message('note_on', channel=0, note=81, velocity=0, time=48),\n",
       "  Message('note_on', channel=0, note=76, velocity=94, time=12),\n",
       "  Message('note_on', channel=0, note=76, velocity=0, time=48),\n",
       "  Message('note_on', channel=0, note=72, velocity=94, time=12),\n",
       "  Message('note_on', channel=0, note=72, velocity=0, time=48),\n",
       "  Message('note_on', channel=0, note=69, velocity=94, time=12),\n",
       "  Message('note_on', channel=0, note=69, velocity=0, time=48),\n",
       "  Message('note_on', channel=0, note=71, velocity=94, time=12),\n",
       "  Message('note_on', channel=0, note=71, velocity=0, time=48),\n",
       "  Message('note_on', channel=0, note=72, velocity=94, time=12),\n",
       "  Message('note_on', channel=0, note=72, velocity=0, time=48),\n",
       "  Message('note_on', channel=0, note=77, velocity=94, time=12),\n",
       "  Message('note_on', channel=0, note=77, velocity=0, time=48),\n",
       "  Message('note_on', channel=0, note=76, velocity=94, time=12),\n",
       "  Message('note_on', channel=0, note=76, velocity=0, time=48),\n",
       "  Message('note_on', channel=0, note=74, velocity=94, time=12),\n",
       "  Message('note_on', channel=0, note=74, velocity=0, time=48),\n",
       "  Message('note_on', channel=0, note=72, velocity=94, time=12),\n",
       "  Message('note_on', channel=0, note=72, velocity=0, time=48),\n",
       "  Message('note_on', channel=0, note=71, velocity=94, time=12),\n",
       "  Message('note_on', channel=0, note=71, velocity=0, time=48),\n",
       "  Message('note_on', channel=0, note=69, velocity=94, time=12),\n",
       "  Message('note_on', channel=0, note=69, velocity=0, time=48),\n",
       "  Message('note_on', channel=0, note=64, velocity=94, time=12),\n",
       "  Message('note_on', channel=0, note=64, velocity=0, time=48),\n",
       "  Message('note_on', channel=0, note=69, velocity=94, time=12),\n",
       "  Message('note_on', channel=0, note=69, velocity=0, time=48),\n",
       "  Message('note_on', channel=0, note=68, velocity=94, time=12),\n",
       "  Message('note_on', channel=0, note=62, velocity=94, time=0),\n",
       "  Message('note_on', channel=0, note=68, velocity=0, time=48),\n",
       "  Message('note_on', channel=0, note=62, velocity=0, time=0),\n",
       "  Message('note_on', channel=0, note=64, velocity=94, time=12),\n",
       "  Message('note_on', channel=0, note=69, velocity=94, time=0),\n",
       "  Message('note_on', channel=0, note=72, velocity=94, time=0),\n",
       "  Message('note_on', channel=0, note=64, velocity=0, time=336),\n",
       "  Message('note_on', channel=0, note=69, velocity=0, time=0),\n",
       "  Message('note_on', channel=0, note=72, velocity=0, time=0),\n",
       "  Message('note_on', channel=0, note=74, velocity=94, time=24),\n",
       "  Message('note_on', channel=0, note=62, velocity=94, time=0),\n",
       "  Message('note_on', channel=0, note=67, velocity=94, time=0),\n",
       "  Message('note_on', channel=0, note=74, velocity=0, time=168),\n",
       "  Message('note_on', channel=0, note=62, velocity=0, time=0),\n",
       "  Message('note_on', channel=0, note=67, velocity=0, time=0),\n",
       "  Message('note_on', channel=0, note=72, velocity=94, time=12),\n",
       "  Message('note_on', channel=0, note=76, velocity=94, time=0),\n",
       "  Message('note_on', channel=0, note=72, velocity=0, time=336),\n",
       "  Message('note_on', channel=0, note=76, velocity=0, time=0),\n",
       "  Message('note_on', channel=0, note=72, velocity=94, time=24),\n",
       "  Message('note_on', channel=0, note=76, velocity=94, time=0),\n",
       "  Message('note_on', channel=0, note=67, velocity=94, time=0),\n",
       "  Message('note_on', channel=0, note=72, velocity=0, time=168),\n",
       "  Message('note_on', channel=0, note=76, velocity=0, time=0),\n",
       "  Message('note_on', channel=0, note=67, velocity=0, time=0),\n",
       "  Message('note_on', channel=0, note=74, velocity=94, time=12),\n",
       "  Message('note_on', channel=0, note=74, velocity=0, time=276),\n",
       "  Message('note_on', channel=0, note=76, velocity=94, time=24),\n",
       "  Message('note_on', channel=0, note=76, velocity=0, time=24),\n",
       "  Message('note_on', channel=0, note=77, velocity=94, time=6),\n",
       "  Message('note_on', channel=0, note=77, velocity=0, time=24),\n",
       "  Message('note_on', channel=0, note=74, velocity=94, time=6),\n",
       "  Message('note_on', channel=0, note=74, velocity=0, time=168),\n",
       "  Message('note_on', channel=0, note=64, velocity=94, time=12),\n",
       "  Message('note_on', channel=0, note=72, velocity=94, time=0),\n",
       "  Message('note_on', channel=0, note=64, velocity=0, time=168),\n",
       "  Message('note_on', channel=0, note=72, velocity=0, time=0),\n",
       "  Message('note_on', channel=0, note=72, velocity=94, time=12),\n",
       "  Message('note_on', channel=0, note=72, velocity=0, time=48),\n",
       "  Message('note_on', channel=0, note=76, velocity=94, time=12),\n",
       "  Message('note_on', channel=0, note=76, velocity=0, time=48),\n",
       "  Message('note_on', channel=0, note=72, velocity=94, time=12),\n",
       "  Message('note_on', channel=0, note=72, velocity=0, time=48),\n",
       "  Message('note_on', channel=0, note=67, velocity=94, time=12),\n",
       "  Message('note_on', channel=0, note=67, velocity=0, time=48),\n",
       "  Message('note_on', channel=0, note=69, velocity=94, time=12),\n",
       "  Message('note_on', channel=0, note=69, velocity=0, time=48),\n",
       "  Message('note_on', channel=0, note=70, velocity=94, time=12),\n",
       "  Message('note_on', channel=0, note=70, velocity=0, time=48),\n",
       "  Message('note_on', channel=0, note=69, velocity=94, time=12),\n",
       "  Message('note_on', channel=0, note=69, velocity=0, time=48),\n",
       "  Message('note_on', channel=0, note=72, velocity=94, time=12),\n",
       "  Message('note_on', channel=0, note=72, velocity=0, time=48),\n",
       "  Message('note_on', channel=0, note=71, velocity=94, time=12),\n",
       "  Message('note_on', channel=0, note=71, velocity=0, time=48),\n",
       "  Message('note_on', channel=0, note=72, velocity=94, time=12),\n",
       "  Message('note_on', channel=0, note=72, velocity=0, time=48),\n",
       "  Message('note_on', channel=0, note=69, velocity=94, time=12),\n",
       "  Message('note_on', channel=0, note=69, velocity=0, time=48),\n",
       "  Message('note_on', channel=0, note=66, velocity=94, time=12),\n",
       "  Message('note_on', channel=0, note=66, velocity=0, time=48),\n",
       "  Message('note_on', channel=0, note=62, velocity=94, time=12),\n",
       "  Message('note_on', channel=0, note=62, velocity=0, time=48),\n",
       "  Message('note_on', channel=0, note=64, velocity=94, time=12),\n",
       "  Message('note_on', channel=0, note=64, velocity=0, time=48),\n",
       "  Message('note_on', channel=0, note=66, velocity=94, time=12),\n",
       "  Message('note_on', channel=0, note=66, velocity=0, time=48),\n",
       "  Message('note_on', channel=0, note=64, velocity=94, time=12),\n",
       "  Message('note_on', channel=0, note=64, velocity=0, time=48),\n",
       "  Message('note_on', channel=0, note=60, velocity=94, time=12),\n",
       "  Message('note_on', channel=0, note=60, velocity=0, time=48),\n",
       "  Message('note_on', channel=0, note=62, velocity=94, time=12),\n",
       "  Message('note_on', channel=0, note=62, velocity=0, time=48),\n",
       "  Message('note_on', channel=0, note=64, velocity=94, time=12),\n",
       "  Message('note_on', channel=0, note=64, velocity=0, time=48),\n",
       "  Message('note_on', channel=0, note=67, velocity=94, time=12),\n",
       "  Message('note_on', channel=0, note=67, velocity=0, time=48),\n",
       "  Message('note_on', channel=0, note=66, velocity=94, time=12),\n",
       "  Message('note_on', channel=0, note=66, velocity=0, time=48),\n",
       "  Message('note_on', channel=0, note=67, velocity=94, time=12),\n",
       "  Message('note_on', channel=0, note=67, velocity=0, time=48),\n",
       "  Message('note_on', channel=0, note=71, velocity=94, time=12),\n",
       "  Message('note_on', channel=0, note=71, velocity=0, time=48),\n",
       "  Message('note_on', channel=0, note=69, velocity=94, time=12),\n",
       "  Message('note_on', channel=0, note=69, velocity=0, time=48),\n",
       "  Message('note_on', channel=0, note=67, velocity=94, time=12),\n",
       "  Message('note_on', channel=0, note=71, velocity=94, time=0),\n",
       "  Message('note_on', channel=0, note=67, velocity=0, time=336),\n",
       "  Message('note_on', channel=0, note=71, velocity=0, time=0),\n",
       "  Message('note_on', channel=0, note=64, velocity=94, time=24),\n",
       "  Message('note_on', channel=0, note=60, velocity=94, time=0),\n",
       "  Message('note_on', channel=0, note=67, velocity=94, time=0),\n",
       "  Message('note_on', channel=0, note=72, velocity=94, time=0),\n",
       "  Message('note_on', channel=0, note=64, velocity=0, time=168),\n",
       "  Message('note_on', channel=0, note=60, velocity=0, time=0),\n",
       "  Message('note_on', channel=0, note=67, velocity=0, time=0),\n",
       "  Message('note_on', channel=0, note=72, velocity=0, time=0),\n",
       "  Message('note_on', channel=0, note=74, velocity=94, time=12),\n",
       "  Message('note_on', channel=0, note=67, velocity=94, time=0),\n",
       "  Message('note_on', channel=0, note=62, velocity=94, time=0),\n",
       "  Message('note_on', channel=0, note=74, velocity=0, time=336),\n",
       "  Message('note_on', channel=0, note=67, velocity=0, time=0),\n",
       "  Message('note_on', channel=0, note=62, velocity=0, time=0),\n",
       "  Message('note_on', channel=0, note=74, velocity=94, time=24),\n",
       "  Message('note_on', channel=0, note=67, velocity=94, time=0),\n",
       "  Message('note_on', channel=0, note=62, velocity=94, time=0),\n",
       "  Message('note_on', channel=0, note=74, velocity=0, time=168),\n",
       "  Message('note_on', channel=0, note=67, velocity=0, time=0),\n",
       "  Message('note_on', channel=0, note=62, velocity=0, time=0),\n",
       "  Message('note_on', channel=0, note=69, velocity=94, time=12),\n",
       "  Message('note_on', channel=0, note=64, velocity=94, time=0),\n",
       "  Message('note_on', channel=0, note=72, velocity=94, time=0),\n",
       "  Message('note_on', channel=0, note=69, velocity=0, time=168),\n",
       "  Message('note_on', channel=0, note=64, velocity=0, time=0),\n",
       "  Message('note_on', channel=0, note=72, velocity=0, time=0),\n",
       "  Message('note_on', channel=0, note=71, velocity=94, time=12),\n",
       "  Message('note_on', channel=0, note=71, velocity=0, time=336),\n",
       "  Message('note_on', channel=0, note=66, velocity=94, time=24),\n",
       "  Message('note_on', channel=0, note=69, velocity=94, time=0),\n",
       "  Message('note_on', channel=0, note=66, velocity=0, time=48),\n",
       "  Message('note_on', channel=0, note=69, velocity=0, time=0),\n",
       "  Message('note_on', channel=0, note=62, velocity=94, time=12),\n",
       "  Message('note_on', channel=0, note=62, velocity=0, time=48),\n",
       "  Message('note_on', channel=0, note=64, velocity=94, time=12),\n",
       "  Message('note_on', channel=0, note=64, velocity=0, time=48),\n",
       "  Message('note_on', channel=0, note=66, velocity=94, time=12),\n",
       "  Message('note_on', channel=0, note=66, velocity=0, time=48),\n",
       "  Message('note_on', channel=0, note=69, velocity=94, time=12),\n",
       "  Message('note_on', channel=0, note=69, velocity=0, time=48),\n",
       "  Message('note_on', channel=0, note=67, velocity=94, time=12),\n",
       "  Message('note_on', channel=0, note=67, velocity=0, time=48),\n",
       "  Message('note_on', channel=0, note=69, velocity=94, time=12),\n",
       "  Message('note_on', channel=0, note=69, velocity=0, time=48),\n",
       "  Message('note_on', channel=0, note=72, velocity=94, time=12),\n",
       "  Message('note_on', channel=0, note=72, velocity=0, time=48),\n",
       "  Message('note_on', channel=0, note=71, velocity=94, time=12),\n",
       "  Message('note_on', channel=0, note=71, velocity=0, time=48),\n",
       "  Message('note_on', channel=0, note=72, velocity=94, time=12),\n",
       "  Message('note_on', channel=0, note=72, velocity=0, time=48),\n",
       "  Message('note_on', channel=0, note=69, velocity=94, time=12),\n",
       "  Message('note_on', channel=0, note=69, velocity=0, time=48),\n",
       "  Message('note_on', channel=0, note=66, velocity=94, time=12),\n",
       "  Message('note_on', channel=0, note=66, velocity=0, time=48),\n",
       "  Message('note_on', channel=0, note=62, velocity=94, time=12),\n",
       "  Message('note_on', channel=0, note=62, velocity=0, time=48),\n",
       "  Message('note_on', channel=0, note=66, velocity=94, time=12),\n",
       "  Message('note_on', channel=0, note=66, velocity=0, time=48),\n",
       "  Message('note_on', channel=0, note=69, velocity=94, time=12),\n",
       "  Message('note_on', channel=0, note=69, velocity=0, time=48),\n",
       "  Message('note_on', channel=0, note=72, velocity=94, time=12),\n",
       "  Message('note_on', channel=0, note=72, velocity=0, time=48),\n",
       "  Message('note_on', channel=0, note=71, velocity=94, time=12),\n",
       "  Message('note_on', channel=0, note=71, velocity=0, time=48),\n",
       "  Message('note_on', channel=0, note=69, velocity=94, time=12),\n",
       "  Message('note_on', channel=0, note=69, velocity=0, time=48),\n",
       "  Message('note_on', channel=0, note=67, velocity=94, time=12),\n",
       "  Message('note_on', channel=0, note=71, velocity=94, time=0),\n",
       "  Message('note_on', channel=0, note=67, velocity=0, time=336),\n",
       "  Message('note_on', channel=0, note=71, velocity=0, time=0),\n",
       "  Message('note_on', channel=0, note=72, velocity=94, time=24),\n",
       "  Message('note_on', channel=0, note=67, velocity=94, time=0),\n",
       "  Message('note_on', channel=0, note=64, velocity=94, time=0),\n",
       "  Message('note_on', channel=0, note=60, velocity=94, time=0),\n",
       "  Message('note_on', channel=0, note=72, velocity=0, time=168),\n",
       "  Message('note_on', channel=0, note=67, velocity=0, time=0),\n",
       "  Message('note_on', channel=0, note=64, velocity=0, time=0),\n",
       "  Message('note_on', channel=0, note=60, velocity=0, time=0),\n",
       "  Message('note_on', channel=0, note=74, velocity=94, time=12),\n",
       "  Message('note_on', channel=0, note=62, velocity=94, time=0),\n",
       "  Message('note_on', channel=0, note=67, velocity=94, time=0),\n",
       "  Message('note_on', channel=0, note=74, velocity=0, time=336),\n",
       "  Message('note_on', channel=0, note=62, velocity=0, time=0),\n",
       "  Message('note_on', channel=0, note=67, velocity=0, time=0),\n",
       "  Message('note_on', channel=0, note=67, velocity=94, time=24),\n",
       "  Message('note_on', channel=0, note=64, velocity=94, time=0),\n",
       "  Message('note_on', channel=0, note=71, velocity=94, time=0),\n",
       "  Message('note_on', channel=0, note=67, velocity=0, time=168),\n",
       "  Message('note_on', channel=0, note=64, velocity=0, time=0),\n",
       "  Message('note_on', channel=0, note=71, velocity=0, time=0),\n",
       "  Message('note_on', channel=0, note=69, velocity=94, time=12),\n",
       "  Message('note_on', channel=0, note=69, velocity=0, time=96),\n",
       "  Message('note_on', channel=0, note=71, velocity=94, time=24),\n",
       "  Message('note_on', channel=0, note=71, velocity=0, time=24),\n",
       "  Message('note_on', channel=0, note=72, velocity=94, time=6),\n",
       "  Message('note_on', channel=0, note=72, velocity=0, time=24),\n",
       "  Message('note_on', channel=0, note=71, velocity=94, time=6),\n",
       "  Message('note_on', channel=0, note=71, velocity=0, time=168),\n",
       "  Message('note_on', channel=0, note=69, velocity=94, time=12),\n",
       "  Message('note_on', channel=0, note=69, velocity=0, time=168),\n",
       "  Message('note_on', channel=0, note=67, velocity=94, time=12),\n",
       "  Message('note_on', channel=0, note=67, velocity=0, time=48),\n",
       "  Message('note_on', channel=0, note=71, velocity=94, time=12),\n",
       "  Message('note_on', channel=0, note=71, velocity=0, time=48),\n",
       "  Message('note_on', channel=0, note=74, velocity=94, time=12),\n",
       "  Message('note_on', channel=0, note=74, velocity=0, time=48),\n",
       "  Message('note_on', channel=0, note=79, velocity=94, time=12),\n",
       "  Message('note_on', channel=0, note=79, velocity=0, time=48),\n",
       "  Message('note_on', channel=0, note=74, velocity=94, time=12),\n",
       "  Message('note_on', channel=0, note=74, velocity=0, time=48),\n",
       "  Message('note_on', channel=0, note=71, velocity=94, time=12),\n",
       "  Message('note_on', channel=0, note=71, velocity=0, time=48),\n",
       "  Message('note_on', channel=0, note=67, velocity=94, time=12),\n",
       "  Message('note_on', channel=0, note=67, velocity=0, time=48),\n",
       "  Message('note_on', channel=0, note=71, velocity=94, time=12),\n",
       "  Message('note_on', channel=0, note=71, velocity=0, time=48),\n",
       "  Message('note_on', channel=0, note=74, velocity=94, time=12),\n",
       "  Message('note_on', channel=0, note=74, velocity=0, time=48),\n",
       "  Message('note_on', channel=0, note=77, velocity=94, time=12),\n",
       "  Message('note_on', channel=0, note=77, velocity=0, time=48),\n",
       "  Message('note_on', channel=0, note=74, velocity=94, time=12),\n",
       "  Message('note_on', channel=0, note=74, velocity=0, time=48),\n",
       "  Message('note_on', channel=0, note=71, velocity=94, time=12),\n",
       "  Message('note_on', channel=0, note=71, velocity=0, time=48),\n",
       "  Message('note_on', channel=0, note=67, velocity=94, time=12),\n",
       "  Message('note_on', channel=0, note=67, velocity=0, time=48),\n",
       "  Message('note_on', channel=0, note=71, velocity=94, time=12),\n",
       "  Message('note_on', channel=0, note=71, velocity=0, time=48),\n",
       "  Message('note_on', channel=0, note=74, velocity=94, time=12),\n",
       "  Message('note_on', channel=0, note=74, velocity=0, time=48),\n",
       "  Message('note_on', channel=0, note=76, velocity=94, time=12),\n",
       "  Message('note_on', channel=0, note=76, velocity=0, time=48),\n",
       "  Message('note_on', channel=0, note=72, velocity=94, time=12),\n",
       "  Message('note_on', channel=0, note=72, velocity=0, time=48),\n",
       "  Message('note_on', channel=0, note=69, velocity=94, time=12),\n",
       "  Message('note_on', channel=0, note=69, velocity=0, time=48),\n",
       "  Message('note_on', channel=0, note=66, velocity=94, time=12),\n",
       "  Message('note_on', channel=0, note=66, velocity=0, time=48),\n",
       "  Message('note_on', channel=0, note=69, velocity=94, time=12),\n",
       "  Message('note_on', channel=0, note=69, velocity=0, time=48),\n",
       "  Message('note_on', channel=0, note=72, velocity=94, time=12),\n",
       "  Message('note_on', channel=0, note=72, velocity=0, time=48),\n",
       "  Message('note_on', channel=0, note=74, velocity=94, time=12),\n",
       "  Message('note_on', channel=0, note=74, velocity=0, time=48),\n",
       "  Message('note_on', channel=0, note=71, velocity=94, time=12),\n",
       "  Message('note_on', channel=0, note=71, velocity=0, time=48),\n",
       "  Message('note_on', channel=0, note=67, velocity=94, time=12),\n",
       "  Message('note_on', channel=0, note=67, velocity=0, time=48),\n",
       "  Message('note_on', channel=0, note=64, velocity=94, time=12),\n",
       "  Message('note_on', channel=0, note=64, velocity=0, time=48),\n",
       "  Message('note_on', channel=0, note=67, velocity=94, time=12),\n",
       "  Message('note_on', channel=0, note=67, velocity=0, time=48),\n",
       "  Message('note_on', channel=0, note=71, velocity=94, time=12),\n",
       "  Message('note_on', channel=0, note=71, velocity=0, time=48),\n",
       "  Message('note_on', channel=0, note=72, velocity=94, time=12),\n",
       "  Message('note_on', channel=0, note=72, velocity=0, time=48),\n",
       "  Message('note_on', channel=0, note=69, velocity=94, time=12),\n",
       "  Message('note_on', channel=0, note=69, velocity=0, time=48),\n",
       "  Message('note_on', channel=0, note=66, velocity=94, time=12),\n",
       "  Message('note_on', channel=0, note=66, velocity=0, time=48),\n",
       "  Message('note_on', channel=0, note=62, velocity=94, time=12),\n",
       "  Message('note_on', channel=0, note=62, velocity=0, time=48),\n",
       "  Message('note_on', channel=0, note=66, velocity=94, time=12),\n",
       "  Message('note_on', channel=0, note=66, velocity=0, time=48),\n",
       "  Message('note_on', channel=0, note=69, velocity=94, time=12),\n",
       "  Message('note_on', channel=0, note=69, velocity=0, time=48),\n",
       "  Message('note_on', channel=0, note=72, velocity=94, time=12),\n",
       "  Message('note_on', channel=0, note=72, velocity=0, time=48),\n",
       "  Message('note_on', channel=0, note=71, velocity=94, time=12),\n",
       "  Message('note_on', channel=0, note=71, velocity=0, time=48),\n",
       "  Message('note_on', channel=0, note=69, velocity=94, time=12),\n",
       "  Message('note_on', channel=0, note=69, velocity=0, time=48),\n",
       "  Message('note_on', channel=0, note=71, velocity=94, time=12),\n",
       "  Message('note_on', channel=0, note=71, velocity=0, time=48),\n",
       "  Message('note_on', channel=0, note=67, velocity=94, time=12),\n",
       "  Message('note_on', channel=0, note=67, velocity=0, time=48),\n",
       "  Message('note_on', channel=0, note=69, velocity=94, time=12),\n",
       "  Message('note_on', channel=0, note=69, velocity=0, time=48),\n",
       "  Message('note_on', channel=0, note=71, velocity=94, time=12),\n",
       "  Message('note_on', channel=0, note=71, velocity=0, time=48),\n",
       "  Message('note_on', channel=0, note=74, velocity=94, time=12),\n",
       "  Message('note_on', channel=0, note=74, velocity=0, time=48),\n",
       "  Message('note_on', channel=0, note=72, velocity=94, time=12),\n",
       "  Message('note_on', channel=0, note=72, velocity=0, time=48),\n",
       "  Message('note_on', channel=0, note=72, velocity=94, time=12),\n",
       "  Message('note_on', channel=0, note=72, velocity=0, time=48),\n",
       "  Message('note_on', channel=0, note=76, velocity=94, time=12),\n",
       "  Message('note_on', channel=0, note=76, velocity=0, time=48),\n",
       "  Message('note_on', channel=0, note=74, velocity=94, time=12),\n",
       "  Message('note_on', channel=0, note=74, velocity=0, time=48),\n",
       "  Message('note_on', channel=0, note=74, velocity=94, time=12),\n",
       "  Message('note_on', channel=0, note=74, velocity=0, time=48),\n",
       "  Message('note_on', channel=0, note=79, velocity=94, time=12),\n",
       "  Message('note_on', channel=0, note=79, velocity=0, time=48),\n",
       "  Message('note_on', channel=0, note=78, velocity=94, time=12),\n",
       "  Message('note_on', channel=0, note=78, velocity=0, time=48),\n",
       "  Message('note_on', channel=0, note=79, velocity=94, time=12),\n",
       "  Message('note_on', channel=0, note=79, velocity=0, time=48),\n",
       "  Message('note_on', channel=0, note=74, velocity=94, time=12),\n",
       "  Message('note_on', channel=0, note=74, velocity=0, time=48),\n",
       "  Message('note_on', channel=0, note=71, velocity=94, time=12),\n",
       "  Message('note_on', channel=0, note=71, velocity=0, time=48),\n",
       "  Message('note_on', channel=0, note=67, velocity=94, time=12),\n",
       "  Message('note_on', channel=0, note=67, velocity=0, time=48),\n",
       "  Message('note_on', channel=0, note=69, velocity=94, time=12),\n",
       "  Message('note_on', channel=0, note=69, velocity=0, time=48),\n",
       "  Message('note_on', channel=0, note=71, velocity=94, time=12),\n",
       "  Message('note_on', channel=0, note=71, velocity=0, time=48),\n",
       "  Message('note_on', channel=0, note=72, velocity=94, time=12),\n",
       "  Message('note_on', channel=0, note=72, velocity=0, time=48),\n",
       "  Message('note_on', channel=0, note=74, velocity=94, time=12),\n",
       "  Message('note_on', channel=0, note=74, velocity=0, time=48),\n",
       "  Message('note_on', channel=0, note=76, velocity=94, time=12),\n",
       "  Message('note_on', channel=0, note=76, velocity=0, time=48),\n",
       "  Message('note_on', channel=0, note=74, velocity=94, time=12),\n",
       "  Message('note_on', channel=0, note=74, velocity=0, time=48),\n",
       "  Message('note_on', channel=0, note=72, velocity=94, time=12),\n",
       "  Message('note_on', channel=0, note=72, velocity=0, time=48),\n",
       "  Message('note_on', channel=0, note=71, velocity=94, time=12),\n",
       "  Message('note_on', channel=0, note=71, velocity=0, time=48),\n",
       "  Message('note_on', channel=0, note=69, velocity=94, time=12),\n",
       "  Message('note_on', channel=0, note=69, velocity=0, time=48),\n",
       "  Message('note_on', channel=0, note=71, velocity=94, time=12),\n",
       "  Message('note_on', channel=0, note=71, velocity=0, time=48),\n",
       "  Message('note_on', channel=0, note=67, velocity=94, time=12),\n",
       "  Message('note_on', channel=0, note=67, velocity=0, time=48),\n",
       "  Message('note_on', channel=0, note=66, velocity=94, time=12),\n",
       "  Message('note_on', channel=0, note=66, velocity=0, time=48),\n",
       "  Message('note_on', channel=0, note=67, velocity=94, time=12),\n",
       "  Message('note_on', channel=0, note=67, velocity=0, time=48),\n",
       "  Message('note_on', channel=0, note=69, velocity=94, time=12),\n",
       "  Message('note_on', channel=0, note=69, velocity=0, time=48),\n",
       "  Message('note_on', channel=0, note=62, velocity=94, time=12),\n",
       "  Message('note_on', channel=0, note=62, velocity=0, time=48),\n",
       "  Message('note_on', channel=0, note=66, velocity=94, time=12),\n",
       "  Message('note_on', channel=0, note=66, velocity=0, time=48),\n",
       "  Message('note_on', channel=0, note=69, velocity=94, time=12),\n",
       "  Message('note_on', channel=0, note=69, velocity=0, time=48),\n",
       "  Message('note_on', channel=0, note=72, velocity=94, time=12),\n",
       "  Message('note_on', channel=0, note=72, velocity=0, time=48),\n",
       "  Message('note_on', channel=0, note=71, velocity=94, time=12),\n",
       "  Message('note_on', channel=0, note=71, velocity=0, time=48),\n",
       "  Message('note_on', channel=0, note=69, velocity=94, time=12),\n",
       "  Message('note_on', channel=0, note=69, velocity=0, time=48),\n",
       "  Message('note_on', channel=0, note=71, velocity=94, time=12),\n",
       "  Message('note_on', channel=0, note=71, velocity=0, time=48),\n",
       "  Message('note_on', channel=0, note=67, velocity=94, time=12),\n",
       "  Message('note_on', channel=0, note=67, velocity=0, time=48),\n",
       "  Message('note_on', channel=0, note=69, velocity=94, time=12),\n",
       "  Message('note_on', channel=0, note=69, velocity=0, time=48),\n",
       "  Message('note_on', channel=0, note=71, velocity=94, time=12),\n",
       "  Message('note_on', channel=0, note=71, velocity=0, time=48),\n",
       "  Message('note_on', channel=0, note=74, velocity=94, time=12),\n",
       "  Message('note_on', channel=0, note=74, velocity=0, time=48),\n",
       "  Message('note_on', channel=0, note=72, velocity=94, time=12),\n",
       "  Message('note_on', channel=0, note=72, velocity=0, time=48),\n",
       "  Message('note_on', channel=0, note=72, velocity=94, time=12),\n",
       "  Message('note_on', channel=0, note=72, velocity=0, time=48),\n",
       "  Message('note_on', channel=0, note=76, velocity=94, time=12),\n",
       "  Message('note_on', channel=0, note=76, velocity=0, time=48),\n",
       "  Message('note_on', channel=0, note=74, velocity=94, time=12),\n",
       "  Message('note_on', channel=0, note=74, velocity=0, time=48),\n",
       "  Message('note_on', channel=0, note=74, velocity=94, time=12),\n",
       "  Message('note_on', channel=0, note=74, velocity=0, time=48),\n",
       "  Message('note_on', channel=0, note=79, velocity=94, time=12),\n",
       "  Message('note_on', channel=0, note=79, velocity=0, time=48),\n",
       "  Message('note_on', channel=0, note=78, velocity=94, time=12),\n",
       "  Message('note_on', channel=0, note=78, velocity=0, time=48),\n",
       "  Message('note_on', channel=0, note=79, velocity=94, time=12),\n",
       "  Message('note_on', channel=0, note=79, velocity=0, time=48),\n",
       "  Message('note_on', channel=0, note=74, velocity=94, time=12),\n",
       "  Message('note_on', channel=0, note=74, velocity=0, time=48),\n",
       "  Message('note_on', channel=0, note=71, velocity=94, time=12),\n",
       "  Message('note_on', channel=0, note=71, velocity=0, time=48),\n",
       "  Message('note_on', channel=0, note=67, velocity=94, time=12),\n",
       "  Message('note_on', channel=0, note=67, velocity=0, time=48),\n",
       "  Message('note_on', channel=0, note=69, velocity=94, time=12),\n",
       "  Message('note_on', channel=0, note=69, velocity=0, time=48),\n",
       "  Message('note_on', channel=0, note=71, velocity=94, time=12),\n",
       "  Message('note_on', channel=0, note=71, velocity=0, time=48),\n",
       "  Message('note_on', channel=0, note=64, velocity=94, time=12),\n",
       "  Message('note_on', channel=0, note=64, velocity=0, time=48),\n",
       "  Message('note_on', channel=0, note=74, velocity=94, time=12),\n",
       "  Message('note_on', channel=0, note=74, velocity=0, time=48),\n",
       "  Message('note_on', channel=0, note=72, velocity=94, time=12),\n",
       "  Message('note_on', channel=0, note=72, velocity=0, time=48),\n",
       "  Message('note_on', channel=0, note=71, velocity=94, time=12),\n",
       "  Message('note_on', channel=0, note=71, velocity=0, time=48),\n",
       "  Message('note_on', channel=0, note=69, velocity=94, time=12),\n",
       "  Message('note_on', channel=0, note=69, velocity=0, time=48),\n",
       "  Message('note_on', channel=0, note=67, velocity=94, time=12),\n",
       "  Message('note_on', channel=0, note=67, velocity=0, time=48),\n",
       "  Message('note_on', channel=0, note=62, velocity=94, time=12),\n",
       "  Message('note_on', channel=0, note=62, velocity=0, time=48),\n",
       "  Message('note_on', channel=0, note=67, velocity=94, time=12),\n",
       "  Message('note_on', channel=0, note=67, velocity=0, time=48),\n",
       "  Message('note_on', channel=0, note=66, velocity=94, time=12),\n",
       "  Message('note_on', channel=0, note=66, velocity=0, time=48),\n",
       "  Message('note_on', channel=0, note=62, velocity=94, time=12),\n",
       "  Message('note_on', channel=0, note=67, velocity=94, time=0),\n",
       "  Message('note_on', channel=0, note=59, velocity=94, time=0),\n",
       "  Message('note_on', channel=0, note=55, velocity=94, time=0),\n",
       "  Message('note_on', channel=0, note=62, velocity=0, time=456),\n",
       "  Message('note_on', channel=0, note=67, velocity=0, time=0),\n",
       "  Message('note_on', channel=0, note=59, velocity=0, time=0),\n",
       "  Message('note_on', channel=0, note=55, velocity=0, time=0),\n",
       "  Message('note_on', channel=0, note=67, velocity=104, time=143),\n",
       "  Message('note_on', channel=0, note=67, velocity=0, time=48),\n",
       "  Message('note_on', channel=0, note=69, velocity=104, time=12),\n",
       "  Message('note_on', channel=0, note=69, velocity=0, time=48),\n",
       "  Message('note_on', channel=0, note=71, velocity=104, time=12),\n",
       "  Message('note_on', channel=0, note=71, velocity=0, time=48),\n",
       "  Message('note_on', channel=0, note=74, velocity=104, time=12),\n",
       "  Message('note_on', channel=0, note=74, velocity=0, time=48),\n",
       "  Message('note_on', channel=0, note=72, velocity=104, time=12),\n",
       "  Message('note_on', channel=0, note=72, velocity=0, time=48),\n",
       "  Message('note_on', channel=0, note=72, velocity=104, time=12),\n",
       "  Message('note_on', channel=0, note=72, velocity=0, time=48),\n",
       "  Message('note_on', channel=0, note=76, velocity=104, time=12),\n",
       "  Message('note_on', channel=0, note=76, velocity=0, time=48),\n",
       "  Message('note_on', channel=0, note=74, velocity=104, time=12),\n",
       "  Message('note_on', channel=0, note=74, velocity=0, time=48),\n",
       "  Message('note_on', channel=0, note=74, velocity=104, time=12),\n",
       "  Message('note_on', channel=0, note=74, velocity=0, time=48),\n",
       "  Message('note_on', channel=0, note=79, velocity=104, time=12),\n",
       "  Message('note_on', channel=0, note=79, velocity=0, time=48),\n",
       "  Message('note_on', channel=0, note=78, velocity=104, time=12),\n",
       "  Message('note_on', channel=0, note=78, velocity=0, time=48),\n",
       "  Message('note_on', channel=0, note=79, velocity=104, time=12),\n",
       "  Message('note_on', channel=0, note=79, velocity=0, time=48),\n",
       "  Message('note_on', channel=0, note=74, velocity=104, time=12),\n",
       "  Message('note_on', channel=0, note=74, velocity=0, time=48),\n",
       "  Message('note_on', channel=0, note=71, velocity=104, time=12),\n",
       "  Message('note_on', channel=0, note=71, velocity=0, time=48),\n",
       "  Message('note_on', channel=0, note=67, velocity=104, time=12),\n",
       "  Message('note_on', channel=0, note=67, velocity=0, time=48),\n",
       "  Message('note_on', channel=0, note=69, velocity=104, time=12),\n",
       "  Message('note_on', channel=0, note=69, velocity=0, time=48),\n",
       "  Message('note_on', channel=0, note=71, velocity=104, time=12),\n",
       "  Message('note_on', channel=0, note=71, velocity=0, time=48),\n",
       "  Message('note_on', channel=0, note=72, velocity=104, time=12),\n",
       "  Message('note_on', channel=0, note=72, velocity=0, time=48),\n",
       "  Message('note_on', channel=0, note=74, velocity=104, time=12),\n",
       "  Message('note_on', channel=0, note=74, velocity=0, time=48),\n",
       "  Message('note_on', channel=0, note=76, velocity=104, time=12),\n",
       "  Message('note_on', channel=0, note=76, velocity=0, time=48),\n",
       "  Message('note_on', channel=0, note=74, velocity=104, time=12),\n",
       "  Message('note_on', channel=0, note=74, velocity=0, time=48),\n",
       "  Message('note_on', channel=0, note=72, velocity=104, time=12),\n",
       "  Message('note_on', channel=0, note=72, velocity=0, time=48),\n",
       "  Message('note_on', channel=0, note=71, velocity=104, time=12),\n",
       "  Message('note_on', channel=0, note=71, velocity=0, time=48),\n",
       "  Message('note_on', channel=0, note=69, velocity=104, time=12),\n",
       "  Message('note_on', channel=0, note=69, velocity=0, time=48),\n",
       "  Message('note_on', channel=0, note=71, velocity=104, time=12),\n",
       "  Message('note_on', channel=0, note=71, velocity=0, time=48),\n",
       "  Message('note_on', channel=0, note=67, velocity=104, time=12),\n",
       "  Message('note_on', channel=0, note=67, velocity=0, time=48),\n",
       "  Message('note_on', channel=0, note=66, velocity=104, time=12),\n",
       "  Message('note_on', channel=0, note=66, velocity=0, time=48),\n",
       "  Message('note_on', channel=0, note=67, velocity=104, time=12),\n",
       "  Message('note_on', channel=0, note=67, velocity=0, time=48),\n",
       "  Message('note_on', channel=0, note=69, velocity=104, time=12),\n",
       "  Message('note_on', channel=0, note=69, velocity=0, time=48),\n",
       "  Message('note_on', channel=0, note=62, velocity=104, time=12),\n",
       "  Message('note_on', channel=0, note=62, velocity=0, time=48),\n",
       "  Message('note_on', channel=0, note=66, velocity=104, time=12),\n",
       "  Message('note_on', channel=0, note=66, velocity=0, time=48),\n",
       "  Message('note_on', channel=0, note=69, velocity=104, time=12),\n",
       "  Message('note_on', channel=0, note=69, velocity=0, time=48),\n",
       "  Message('note_on', channel=0, note=72, velocity=104, time=12),\n",
       "  Message('note_on', channel=0, note=72, velocity=0, time=48),\n",
       "  Message('note_on', channel=0, note=71, velocity=104, time=12),\n",
       "  Message('note_on', channel=0, note=71, velocity=0, time=48),\n",
       "  Message('note_on', channel=0, note=69, velocity=104, time=12),\n",
       "  Message('note_on', channel=0, note=69, velocity=0, time=48),\n",
       "  Message('note_on', channel=0, note=71, velocity=104, time=12),\n",
       "  Message('note_on', channel=0, note=71, velocity=0, time=48),\n",
       "  Message('note_on', channel=0, note=67, velocity=104, time=12),\n",
       "  Message('note_on', channel=0, note=67, velocity=0, time=48),\n",
       "  Message('note_on', channel=0, note=69, velocity=104, time=12),\n",
       "  Message('note_on', channel=0, note=69, velocity=0, time=48),\n",
       "  Message('note_on', channel=0, note=71, velocity=104, time=12),\n",
       "  Message('note_on', channel=0, note=71, velocity=0, time=48),\n",
       "  Message('note_on', channel=0, note=74, velocity=104, time=12),\n",
       "  Message('note_on', channel=0, note=74, velocity=0, time=48),\n",
       "  Message('note_on', channel=0, note=72, velocity=104, time=12),\n",
       "  Message('note_on', channel=0, note=72, velocity=0, time=48),\n",
       "  Message('note_on', channel=0, note=72, velocity=104, time=12),\n",
       "  Message('note_on', channel=0, note=72, velocity=0, time=48),\n",
       "  Message('note_on', channel=0, note=76, velocity=104, time=12),\n",
       "  Message('note_on', channel=0, note=76, velocity=0, time=48),\n",
       "  Message('note_on', channel=0, note=74, velocity=104, time=12),\n",
       "  Message('note_on', channel=0, note=74, velocity=0, time=48),\n",
       "  Message('note_on', channel=0, note=74, velocity=104, time=12),\n",
       "  Message('note_on', channel=0, note=74, velocity=0, time=48),\n",
       "  Message('note_on', channel=0, note=79, velocity=104, time=12),\n",
       "  Message('note_on', channel=0, note=79, velocity=0, time=48),\n",
       "  Message('note_on', channel=0, note=78, velocity=104, time=12),\n",
       "  Message('note_on', channel=0, note=78, velocity=0, time=48),\n",
       "  Message('note_on', channel=0, note=79, velocity=104, time=12),\n",
       "  Message('note_on', channel=0, note=79, velocity=0, time=48),\n",
       "  Message('note_on', channel=0, note=74, velocity=104, time=12),\n",
       "  Message('note_on', channel=0, note=74, velocity=0, time=48),\n",
       "  Message('note_on', channel=0, note=71, velocity=104, time=12),\n",
       "  Message('note_on', channel=0, note=71, velocity=0, time=48),\n",
       "  Message('note_on', channel=0, note=67, velocity=104, time=12),\n",
       "  Message('note_on', channel=0, note=67, velocity=0, time=48),\n",
       "  Message('note_on', channel=0, note=69, velocity=104, time=12),\n",
       "  Message('note_on', channel=0, note=69, velocity=0, time=48),\n",
       "  Message('note_on', channel=0, note=71, velocity=104, time=12),\n",
       "  Message('note_on', channel=0, note=71, velocity=0, time=48),\n",
       "  Message('note_on', channel=0, note=64, velocity=104, time=12),\n",
       "  Message('note_on', channel=0, note=64, velocity=0, time=48),\n",
       "  Message('note_on', channel=0, note=74, velocity=104, time=12),\n",
       "  Message('note_on', channel=0, note=74, velocity=0, time=48),\n",
       "  Message('note_on', channel=0, note=72, velocity=104, time=12),\n",
       "  Message('note_on', channel=0, note=72, velocity=0, time=48),\n",
       "  Message('note_on', channel=0, note=71, velocity=104, time=12),\n",
       "  Message('note_on', channel=0, note=71, velocity=0, time=48),\n",
       "  Message('note_on', channel=0, note=69, velocity=104, time=12),\n",
       "  Message('note_on', channel=0, note=69, velocity=0, time=48),\n",
       "  Message('note_on', channel=0, note=67, velocity=104, time=12),\n",
       "  Message('note_on', channel=0, note=67, velocity=0, time=48),\n",
       "  Message('note_on', channel=0, note=62, velocity=104, time=12),\n",
       "  Message('note_on', channel=0, note=62, velocity=0, time=48),\n",
       "  Message('note_on', channel=0, note=67, velocity=104, time=12),\n",
       "  Message('note_on', channel=0, note=67, velocity=0, time=48),\n",
       "  Message('note_on', channel=0, note=66, velocity=104, time=12),\n",
       "  Message('note_on', channel=0, note=66, velocity=0, time=48),\n",
       "  Message('note_on', channel=0, note=67, velocity=104, time=12),\n",
       "  Message('note_on', channel=0, note=67, velocity=0, time=48),\n",
       "  Message('note_on', channel=0, note=71, velocity=104, time=12),\n",
       "  Message('note_on', channel=0, note=71, velocity=0, time=48),\n",
       "  Message('note_on', channel=0, note=74, velocity=104, time=12),\n",
       "  Message('note_on', channel=0, note=74, velocity=0, time=48),\n",
       "  Message('note_on', channel=0, note=79, velocity=104, time=12),\n",
       "  Message('note_on', channel=0, note=79, velocity=0, time=48),\n",
       "  Message('note_on', channel=0, note=74, velocity=104, time=12),\n",
       "  Message('note_on', channel=0, note=74, velocity=0, time=48),\n",
       "  Message('note_on', channel=0, note=71, velocity=104, time=12),\n",
       "  Message('note_on', channel=0, note=71, velocity=0, time=48),\n",
       "  Message('note_on', channel=0, note=67, velocity=104, time=12),\n",
       "  Message('note_on', channel=0, note=67, velocity=0, time=48),\n",
       "  Message('note_on', channel=0, note=71, velocity=104, time=12),\n",
       "  Message('note_on', channel=0, note=71, velocity=0, time=48),\n",
       "  Message('note_on', channel=0, note=74, velocity=104, time=12),\n",
       "  Message('note_on', channel=0, note=74, velocity=0, time=48),\n",
       "  Message('note_on', channel=0, note=62, velocity=104, time=12),\n",
       "  Message('note_on', channel=0, note=71, velocity=104, time=0),\n",
       "  Message('note_on', channel=0, note=67, velocity=104, time=0),\n",
       "  Message('note_on', channel=0, note=62, velocity=0, time=336),\n",
       "  Message('note_on', channel=0, note=71, velocity=0, time=0),\n",
       "  Message('note_on', channel=0, note=67, velocity=0, time=0),\n",
       "  Message('note_on', channel=0, note=64, velocity=104, time=24),\n",
       "  Message('note_on', channel=0, note=67, velocity=104, time=0),\n",
       "  Message('note_on', channel=0, note=60, velocity=104, time=0),\n",
       "  Message('note_on', channel=0, note=72, velocity=104, time=0),\n",
       "  Message('note_on', channel=0, note=64, velocity=0, time=168),\n",
       "  Message('note_on', channel=0, note=67, velocity=0, time=0),\n",
       "  Message('note_on', channel=0, note=60, velocity=0, time=0),\n",
       "  Message('note_on', channel=0, note=72, velocity=0, time=0),\n",
       "  Message('note_on', channel=0, note=74, velocity=104, time=12),\n",
       "  Message('note_on', channel=0, note=74, velocity=0, time=336),\n",
       "  Message('note_on', channel=0, note=66, velocity=104, time=24),\n",
       "  Message('note_on', channel=0, note=71, velocity=104, time=0),\n",
       "  Message('note_on', channel=0, note=74, velocity=104, time=0),\n",
       "  Message('note_on', channel=0, note=62, velocity=104, time=0),\n",
       "  Message('note_on', channel=0, note=66, velocity=0, time=168),\n",
       "  Message('note_on', channel=0, note=71, velocity=0, time=0),\n",
       "  Message('note_on', channel=0, note=74, velocity=0, time=0),\n",
       "  Message('note_on', channel=0, note=62, velocity=0, time=0),\n",
       "  Message('note_on', channel=0, note=72, velocity=104, time=12),\n",
       "  Message('note_on', channel=0, note=72, velocity=0, time=336),\n",
       "  Message('note_on', channel=0, note=67, velocity=104, time=24),\n",
       "  Message('note_on', channel=0, note=62, velocity=104, time=0),\n",
       "  Message('note_on', channel=0, note=71, velocity=104, time=0),\n",
       "  Message('note_on', channel=0, note=67, velocity=0, time=168),\n",
       "  Message('note_on', channel=0, note=62, velocity=0, time=0),\n",
       "  Message('note_on', channel=0, note=71, velocity=0, time=0),\n",
       "  Message('note_on', channel=0, note=66, velocity=104, time=12),\n",
       "  Message('note_on', channel=0, note=69, velocity=104, time=0),\n",
       "  Message('note_on', channel=0, note=66, velocity=0, time=48),\n",
       "  Message('note_on', channel=0, note=69, velocity=0, time=0),\n",
       "  Message('note_on', channel=0, note=62, velocity=104, time=12),\n",
       "  Message('note_on', channel=0, note=62, velocity=0, time=48),\n",
       "  Message('note_on', channel=0, note=64, velocity=104, time=12),\n",
       "  Message('note_on', channel=0, note=64, velocity=0, time=48),\n",
       "  Message('note_on', channel=0, note=66, velocity=104, time=12),\n",
       "  Message('note_on', channel=0, note=69, velocity=104, time=0),\n",
       "  Message('note_on', channel=0, note=66, velocity=0, time=48),\n",
       "  Message('note_on', channel=0, note=69, velocity=0, time=0),\n",
       "  Message('note_on', channel=0, note=69, velocity=104, time=12),\n",
       "  Message('note_on', channel=0, note=69, velocity=0, time=48),\n",
       "  Message('note_on', channel=0, note=67, velocity=104, time=12),\n",
       "  Message('note_on', channel=0, note=67, velocity=0, time=48),\n",
       "  Message('note_on', channel=0, note=69, velocity=104, time=12),\n",
       "  Message('note_on', channel=0, note=69, velocity=0, time=48),\n",
       "  Message('note_on', channel=0, note=72, velocity=104, time=12),\n",
       "  Message('note_on', channel=0, note=72, velocity=0, time=48),\n",
       "  Message('note_on', channel=0, note=71, velocity=104, time=12),\n",
       "  Message('note_on', channel=0, note=71, velocity=0, time=48),\n",
       "  Message('note_on', channel=0, note=72, velocity=104, time=12),\n",
       "  Message('note_on', channel=0, note=72, velocity=0, time=48),\n",
       "  Message('note_on', channel=0, note=69, velocity=104, time=12),\n",
       "  Message('note_on', channel=0, note=69, velocity=0, time=48),\n",
       "  Message('note_on', channel=0, note=66, velocity=104, time=12),\n",
       "  Message('note_on', channel=0, note=66, velocity=0, time=48),\n",
       "  Message('note_on', channel=0, note=62, velocity=104, time=12),\n",
       "  Message('note_on', channel=0, note=62, velocity=0, time=48),\n",
       "  Message('note_on', channel=0, note=66, velocity=104, time=12),\n",
       "  Message('note_on', channel=0, note=66, velocity=0, time=48),\n",
       "  Message('note_on', channel=0, note=69, velocity=104, time=12),\n",
       "  Message('note_on', channel=0, note=69, velocity=0, time=48),\n",
       "  Message('note_on', channel=0, note=72, velocity=104, time=12),\n",
       "  Message('note_on', channel=0, note=72, velocity=0, time=48),\n",
       "  Message('note_on', channel=0, note=71, velocity=104, time=12),\n",
       "  Message('note_on', channel=0, note=71, velocity=0, time=48),\n",
       "  Message('note_on', channel=0, note=69, velocity=104, time=12),\n",
       "  Message('note_on', channel=0, note=69, velocity=0, time=48),\n",
       "  Message('note_on', channel=0, note=67, velocity=104, time=12),\n",
       "  Message('note_on', channel=0, note=71, velocity=104, time=0),\n",
       "  Message('note_on', channel=0, note=67, velocity=0, time=336),\n",
       "  Message('note_on', channel=0, note=71, velocity=0, time=0),\n",
       "  Message('note_on', channel=0, note=64, velocity=104, time=24),\n",
       "  Message('note_on', channel=0, note=72, velocity=104, time=0),\n",
       "  Message('note_on', channel=0, note=67, velocity=104, time=0),\n",
       "  Message('note_on', channel=0, note=60, velocity=104, time=0),\n",
       "  Message('note_on', channel=0, note=64, velocity=0, time=168),\n",
       "  Message('note_on', channel=0, note=72, velocity=0, time=0),\n",
       "  Message('note_on', channel=0, note=67, velocity=0, time=0),\n",
       "  Message('note_on', channel=0, note=60, velocity=0, time=0),\n",
       "  Message('note_on', channel=0, note=67, velocity=104, time=12),\n",
       "  Message('note_on', channel=0, note=62, velocity=104, time=0),\n",
       "  Message('note_on', channel=0, note=74, velocity=104, time=0),\n",
       "  Message('note_on', channel=0, note=67, velocity=0, time=336),\n",
       "  Message('note_on', channel=0, note=62, velocity=0, time=0),\n",
       "  Message('note_on', channel=0, note=74, velocity=0, time=0),\n",
       "  Message('note_on', channel=0, note=67, velocity=104, time=24),\n",
       "  Message('note_on', channel=0, note=64, velocity=104, time=0),\n",
       "  Message('note_on', channel=0, note=71, velocity=104, time=0),\n",
       "  Message('note_on', channel=0, note=67, velocity=0, time=168),\n",
       "  Message('note_on', channel=0, note=64, velocity=0, time=0),\n",
       "  Message('note_on', channel=0, note=71, velocity=0, time=0),\n",
       "  Message('note_on', channel=0, note=69, velocity=63, time=12),\n",
       "  Message('note_on', channel=0, note=69, velocity=0, time=116),\n",
       "  Message('note_on', channel=0, note=71, velocity=74, time=4),\n",
       "  Message('note_on', channel=0, note=72, velocity=68, time=30),\n",
       "  Message('note_on', channel=0, note=71, velocity=0, time=14),\n",
       "  Message('note_on', channel=0, note=71, velocity=65, time=16),\n",
       "  Message('note_on', channel=0, note=66, velocity=67, time=0),\n",
       "  Message('note_on', channel=0, note=62, velocity=55, time=0),\n",
       "  Message('note_on', channel=0, note=72, velocity=0, time=14),\n",
       "  Message('note_on', channel=0, note=66, velocity=55, time=166),\n",
       "  Message('note_on', channel=0, note=60, velocity=46, time=0),\n",
       "  Message('note_on', channel=0, note=69, velocity=45, time=0),\n",
       "  Message('note_on', channel=0, note=71, velocity=0, time=8),\n",
       "  Message('note_on', channel=0, note=66, velocity=0, time=0),\n",
       "  Message('note_on', channel=0, note=62, velocity=0, time=0),\n",
       "  Message('note_on', channel=0, note=67, velocity=104, time=172),\n",
       "  Message('note_on', channel=0, note=66, velocity=0, time=8),\n",
       "  Message('note_on', channel=0, note=60, velocity=0, time=0),\n",
       "  Message('note_on', channel=0, note=69, velocity=0, time=0),\n",
       "  Message('note_on', channel=0, note=67, velocity=0, time=40),\n",
       "  Message('note_on', channel=0, note=71, velocity=104, time=12),\n",
       "  Message('note_on', channel=0, note=71, velocity=0, time=48),\n",
       "  Message('note_on', channel=0, note=69, velocity=104, time=12),\n",
       "  Message('note_on', channel=0, note=69, velocity=0, time=48),\n",
       "  Message('note_on', channel=0, note=71, velocity=104, time=12),\n",
       "  Message('note_on', channel=0, note=71, velocity=0, time=48),\n",
       "  Message('note_on', channel=0, note=74, velocity=104, time=12),\n",
       "  Message('note_on', channel=0, note=74, velocity=0, time=48),\n",
       "  Message('note_on', channel=0, note=72, velocity=104, time=12),\n",
       "  Message('note_on', channel=0, note=72, velocity=0, time=48),\n",
       "  Message('note_on', channel=0, note=72, velocity=104, time=12),\n",
       "  Message('note_on', channel=0, note=72, velocity=0, time=48),\n",
       "  Message('note_on', channel=0, note=76, velocity=104, time=12),\n",
       "  Message('note_on', channel=0, note=76, velocity=0, time=48),\n",
       "  Message('note_on', channel=0, note=74, velocity=104, time=12),\n",
       "  Message('note_on', channel=0, note=74, velocity=0, time=48),\n",
       "  Message('note_on', channel=0, note=74, velocity=104, time=12),\n",
       "  Message('note_on', channel=0, note=74, velocity=0, time=48),\n",
       "  Message('note_on', channel=0, note=79, velocity=104, time=12),\n",
       "  Message('note_on', channel=0, note=79, velocity=0, time=48),\n",
       "  Message('note_on', channel=0, note=78, velocity=104, time=12),\n",
       "  Message('note_on', channel=0, note=78, velocity=0, time=48),\n",
       "  Message('note_on', channel=0, note=79, velocity=104, time=12),\n",
       "  Message('note_on', channel=0, note=79, velocity=0, time=48),\n",
       "  Message('note_on', channel=0, note=74, velocity=104, time=12),\n",
       "  Message('note_on', channel=0, note=74, velocity=0, time=48),\n",
       "  Message('note_on', channel=0, note=71, velocity=104, time=12),\n",
       "  Message('note_on', channel=0, note=71, velocity=0, time=48),\n",
       "  Message('note_on', channel=0, note=67, velocity=104, time=12),\n",
       "  Message('note_on', channel=0, note=67, velocity=0, time=48),\n",
       "  Message('note_on', channel=0, note=69, velocity=104, time=12),\n",
       "  Message('note_on', channel=0, note=69, velocity=0, time=48),\n",
       "  Message('note_on', channel=0, note=71, velocity=104, time=12),\n",
       "  Message('note_on', channel=0, note=71, velocity=0, time=48),\n",
       "  Message('note_on', channel=0, note=72, velocity=104, time=12),\n",
       "  Message('note_on', channel=0, note=72, velocity=0, time=48),\n",
       "  Message('note_on', channel=0, note=74, velocity=104, time=12),\n",
       "  Message('note_on', channel=0, note=74, velocity=0, time=48),\n",
       "  Message('note_on', channel=0, note=76, velocity=104, time=12),\n",
       "  Message('note_on', channel=0, note=76, velocity=0, time=48),\n",
       "  Message('note_on', channel=0, note=74, velocity=104, time=12),\n",
       "  Message('note_on', channel=0, note=74, velocity=0, time=48),\n",
       "  Message('note_on', channel=0, note=72, velocity=104, time=12),\n",
       "  Message('note_on', channel=0, note=72, velocity=0, time=48),\n",
       "  Message('note_on', channel=0, note=71, velocity=104, time=12),\n",
       "  Message('note_on', channel=0, note=71, velocity=0, time=48),\n",
       "  Message('note_on', channel=0, note=69, velocity=104, time=12),\n",
       "  Message('note_on', channel=0, note=69, velocity=0, time=48),\n",
       "  Message('note_on', channel=0, note=71, velocity=104, time=12),\n",
       "  Message('note_on', channel=0, note=71, velocity=0, time=48),\n",
       "  Message('note_on', channel=0, note=67, velocity=104, time=12),\n",
       "  Message('note_on', channel=0, note=67, velocity=0, time=48),\n",
       "  Message('note_on', channel=0, note=66, velocity=104, time=12),\n",
       "  Message('note_on', channel=0, note=66, velocity=0, time=48),\n",
       "  Message('note_on', channel=0, note=67, velocity=104, time=12),\n",
       "  Message('note_on', channel=0, note=67, velocity=0, time=48),\n",
       "  Message('note_on', channel=0, note=69, velocity=104, time=12),\n",
       "  Message('note_on', channel=0, note=69, velocity=0, time=48),\n",
       "  Message('note_on', channel=0, note=62, velocity=104, time=12),\n",
       "  Message('note_on', channel=0, note=62, velocity=0, time=48),\n",
       "  Message('note_on', channel=0, note=66, velocity=104, time=12),\n",
       "  Message('note_on', channel=0, note=66, velocity=0, time=48),\n",
       "  Message('note_on', channel=0, note=69, velocity=104, time=12),\n",
       "  Message('note_on', channel=0, note=69, velocity=0, time=48),\n",
       "  Message('note_on', channel=0, note=72, velocity=104, time=12),\n",
       "  Message('note_on', channel=0, note=72, velocity=0, time=48),\n",
       "  Message('note_on', channel=0, note=71, velocity=104, time=12),\n",
       "  Message('note_on', channel=0, note=71, velocity=0, time=48),\n",
       "  Message('note_on', channel=0, note=69, velocity=104, time=12),\n",
       "  Message('note_on', channel=0, note=69, velocity=0, time=48),\n",
       "  Message('note_on', channel=0, note=71, velocity=104, time=12),\n",
       "  Message('note_on', channel=0, note=71, velocity=0, time=48),\n",
       "  Message('note_on', channel=0, note=67, velocity=104, time=12),\n",
       "  Message('note_on', channel=0, note=67, velocity=0, time=48),\n",
       "  Message('note_on', channel=0, note=69, velocity=104, time=12),\n",
       "  Message('note_on', channel=0, note=69, velocity=0, time=48),\n",
       "  Message('note_on', channel=0, note=71, velocity=104, time=12),\n",
       "  Message('note_on', channel=0, note=71, velocity=0, time=48),\n",
       "  Message('note_on', channel=0, note=74, velocity=104, time=12),\n",
       "  Message('note_on', channel=0, note=74, velocity=0, time=48),\n",
       "  Message('note_on', channel=0, note=72, velocity=104, time=12),\n",
       "  Message('note_on', channel=0, note=72, velocity=0, time=48),\n",
       "  Message('note_on', channel=0, note=72, velocity=104, time=12),\n",
       "  Message('note_on', channel=0, note=72, velocity=0, time=48),\n",
       "  Message('note_on', channel=0, note=76, velocity=104, time=12),\n",
       "  Message('note_on', channel=0, note=76, velocity=0, time=48),\n",
       "  Message('note_on', channel=0, note=74, velocity=104, time=12),\n",
       "  Message('note_on', channel=0, note=74, velocity=0, time=48),\n",
       "  Message('note_on', channel=0, note=74, velocity=104, time=12),\n",
       "  Message('note_on', channel=0, note=74, velocity=0, time=48),\n",
       "  Message('note_on', channel=0, note=79, velocity=104, time=12),\n",
       "  Message('note_on', channel=0, note=79, velocity=0, time=48),\n",
       "  Message('note_on', channel=0, note=78, velocity=104, time=12),\n",
       "  Message('note_on', channel=0, note=78, velocity=0, time=48),\n",
       "  Message('note_on', channel=0, note=79, velocity=104, time=12),\n",
       "  Message('note_on', channel=0, note=79, velocity=0, time=48),\n",
       "  Message('note_on', channel=0, note=74, velocity=104, time=12),\n",
       "  Message('note_on', channel=0, note=74, velocity=0, time=48),\n",
       "  Message('note_on', channel=0, note=71, velocity=104, time=12),\n",
       "  Message('note_on', channel=0, note=71, velocity=0, time=48),\n",
       "  Message('note_on', channel=0, note=67, velocity=104, time=12),\n",
       "  Message('note_on', channel=0, note=67, velocity=0, time=48),\n",
       "  Message('note_on', channel=0, note=69, velocity=104, time=12),\n",
       "  Message('note_on', channel=0, note=69, velocity=0, time=48),\n",
       "  Message('note_on', channel=0, note=71, velocity=104, time=12),\n",
       "  Message('note_on', channel=0, note=71, velocity=0, time=48),\n",
       "  Message('note_on', channel=0, note=64, velocity=104, time=12),\n",
       "  Message('note_on', channel=0, note=64, velocity=0, time=48),\n",
       "  Message('note_on', channel=0, note=74, velocity=104, time=12),\n",
       "  Message('note_on', channel=0, note=74, velocity=0, time=48),\n",
       "  Message('note_on', channel=0, note=72, velocity=104, time=12),\n",
       "  Message('note_on', channel=0, note=72, velocity=0, time=48),\n",
       "  Message('note_on', channel=0, note=71, velocity=104, time=12),\n",
       "  Message('note_on', channel=0, note=71, velocity=0, time=48),\n",
       "  Message('note_on', channel=0, note=69, velocity=104, time=12),\n",
       "  Message('note_on', channel=0, note=69, velocity=0, time=48),\n",
       "  Message('note_on', channel=0, note=67, velocity=104, time=12),\n",
       "  Message('note_on', channel=0, note=67, velocity=0, time=48),\n",
       "  Message('note_on', channel=0, note=62, velocity=104, time=12),\n",
       "  Message('note_on', channel=0, note=62, velocity=0, time=48),\n",
       "  Message('note_on', channel=0, note=67, velocity=104, time=12),\n",
       "  Message('note_on', channel=0, note=67, velocity=0, time=48),\n",
       "  Message('note_on', channel=0, note=66, velocity=104, time=12),\n",
       "  Message('note_on', channel=0, note=66, velocity=0, time=48),\n",
       "  Message('note_on', channel=0, note=67, velocity=104, time=12),\n",
       "  Message('note_on', channel=0, note=71, velocity=104, time=0),\n",
       "  Message('note_on', channel=0, note=67, velocity=0, time=336),\n",
       "  Message('note_on', channel=0, note=71, velocity=0, time=0),\n",
       "  Message('note_on', channel=0, note=64, velocity=104, time=24),\n",
       "  Message('note_on', channel=0, note=60, velocity=104, time=0),\n",
       "  Message('note_on', channel=0, note=67, velocity=104, time=0),\n",
       "  Message('note_on', channel=0, note=72, velocity=104, time=0),\n",
       "  Message('note_on', channel=0, note=64, velocity=0, time=168),\n",
       "  Message('note_on', channel=0, note=60, velocity=0, time=0),\n",
       "  Message('note_on', channel=0, note=67, velocity=0, time=0),\n",
       "  Message('note_on', channel=0, note=72, velocity=0, time=0),\n",
       "  Message('note_on', channel=0, note=74, velocity=104, time=12),\n",
       "  Message('note_on', channel=0, note=74, velocity=0, time=336),\n",
       "  Message('note_on', channel=0, note=66, velocity=104, time=24),\n",
       "  Message('note_on', channel=0, note=71, velocity=104, time=0),\n",
       "  Message('note_on', channel=0, note=74, velocity=104, time=0),\n",
       "  Message('note_on', channel=0, note=62, velocity=104, time=0),\n",
       "  Message('note_on', channel=0, note=66, velocity=0, time=168),\n",
       "  Message('note_on', channel=0, note=71, velocity=0, time=0),\n",
       "  Message('note_on', channel=0, note=74, velocity=0, time=0),\n",
       "  Message('note_on', channel=0, note=62, velocity=0, time=0),\n",
       "  Message('note_on', channel=0, note=72, velocity=104, time=12),\n",
       "  Message('note_on', channel=0, note=72, velocity=0, time=336),\n",
       "  Message('note_on', channel=0, note=67, velocity=104, time=24),\n",
       "  Message('note_on', channel=0, note=62, velocity=104, time=0),\n",
       "  Message('note_on', channel=0, note=71, velocity=104, time=0),\n",
       "  Message('note_on', channel=0, note=67, velocity=0, time=168),\n",
       "  Message('note_on', channel=0, note=62, velocity=0, time=0),\n",
       "  Message('note_on', channel=0, note=71, velocity=0, time=0),\n",
       "  Message('note_on', channel=0, note=66, velocity=104, time=12),\n",
       "  Message('note_on', channel=0, note=69, velocity=104, time=0),\n",
       "  Message('note_on', channel=0, note=66, velocity=0, time=48),\n",
       "  Message('note_on', channel=0, note=69, velocity=0, time=0),\n",
       "  Message('note_on', channel=0, note=62, velocity=104, time=12),\n",
       "  Message('note_on', channel=0, note=62, velocity=0, time=48),\n",
       "  Message('note_on', channel=0, note=64, velocity=104, time=12),\n",
       "  Message('note_on', channel=0, note=64, velocity=0, time=48),\n",
       "  Message('note_on', channel=0, note=66, velocity=104, time=12),\n",
       "  Message('note_on', channel=0, note=69, velocity=104, time=0),\n",
       "  Message('note_on', channel=0, note=66, velocity=0, time=48),\n",
       "  Message('note_on', channel=0, note=69, velocity=0, time=0),\n",
       "  Message('note_on', channel=0, note=69, velocity=104, time=12),\n",
       "  Message('note_on', channel=0, note=69, velocity=0, time=48),\n",
       "  Message('note_on', channel=0, note=67, velocity=104, time=12),\n",
       "  Message('note_on', channel=0, note=67, velocity=0, time=48),\n",
       "  Message('note_on', channel=0, note=69, velocity=104, time=12),\n",
       "  Message('note_on', channel=0, note=69, velocity=0, time=48),\n",
       "  Message('note_on', channel=0, note=72, velocity=104, time=12),\n",
       "  Message('note_on', channel=0, note=72, velocity=0, time=48),\n",
       "  Message('note_on', channel=0, note=71, velocity=104, time=12),\n",
       "  Message('note_on', channel=0, note=71, velocity=0, time=48),\n",
       "  Message('note_on', channel=0, note=72, velocity=104, time=12),\n",
       "  Message('note_on', channel=0, note=72, velocity=0, time=48),\n",
       "  Message('note_on', channel=0, note=69, velocity=104, time=12),\n",
       "  Message('note_on', channel=0, note=69, velocity=0, time=48),\n",
       "  Message('note_on', channel=0, note=66, velocity=104, time=12),\n",
       "  Message('note_on', channel=0, note=66, velocity=0, time=48),\n",
       "  Message('note_on', channel=0, note=62, velocity=104, time=12),\n",
       "  Message('note_on', channel=0, note=62, velocity=0, time=48),\n",
       "  Message('note_on', channel=0, note=66, velocity=104, time=12),\n",
       "  Message('note_on', channel=0, note=66, velocity=0, time=48),\n",
       "  Message('note_on', channel=0, note=69, velocity=104, time=12),\n",
       "  Message('note_on', channel=0, note=69, velocity=0, time=48),\n",
       "  Message('note_on', channel=0, note=72, velocity=104, time=12),\n",
       "  Message('note_on', channel=0, note=72, velocity=0, time=48),\n",
       "  Message('note_on', channel=0, note=71, velocity=104, time=12),\n",
       "  Message('note_on', channel=0, note=71, velocity=0, time=48),\n",
       "  Message('note_on', channel=0, note=69, velocity=104, time=12),\n",
       "  Message('note_on', channel=0, note=69, velocity=0, time=48),\n",
       "  Message('note_on', channel=0, note=71, velocity=104, time=12),\n",
       "  Message('note_on', channel=0, note=67, velocity=104, time=0),\n",
       "  Message('note_on', channel=0, note=71, velocity=0, time=336),\n",
       "  Message('note_on', channel=0, note=67, velocity=0, time=0),\n",
       "  Message('note_on', channel=0, note=64, velocity=104, time=24),\n",
       "  Message('note_on', channel=0, note=60, velocity=104, time=0),\n",
       "  Message('note_on', channel=0, note=67, velocity=104, time=0),\n",
       "  Message('note_on', channel=0, note=72, velocity=104, time=0),\n",
       "  Message('note_on', channel=0, note=64, velocity=0, time=168),\n",
       "  Message('note_on', channel=0, note=60, velocity=0, time=0),\n",
       "  Message('note_on', channel=0, note=67, velocity=0, time=0),\n",
       "  Message('note_on', channel=0, note=72, velocity=0, time=0),\n",
       "  Message('note_on', channel=0, note=67, velocity=104, time=12),\n",
       "  Message('note_on', channel=0, note=74, velocity=104, time=0),\n",
       "  Message('note_on', channel=0, note=62, velocity=104, time=0),\n",
       "  Message('note_on', channel=0, note=67, velocity=0, time=336),\n",
       "  Message('note_on', channel=0, note=74, velocity=0, time=0),\n",
       "  Message('note_on', channel=0, note=62, velocity=0, time=0),\n",
       "  Message('note_on', channel=0, note=67, velocity=104, time=24),\n",
       "  Message('note_on', channel=0, note=64, velocity=104, time=0),\n",
       "  Message('note_on', channel=0, note=71, velocity=104, time=0),\n",
       "  Message('note_on', channel=0, note=67, velocity=0, time=168),\n",
       "  Message('note_on', channel=0, note=64, velocity=0, time=0),\n",
       "  Message('note_on', channel=0, note=71, velocity=0, time=0),\n",
       "  Message('note_on', channel=0, note=69, velocity=104, time=12),\n",
       "  Message('note_on', channel=0, note=69, velocity=0, time=116),\n",
       "  Message('note_on', channel=0, note=71, velocity=104, time=4),\n",
       "  Message('note_on', channel=0, note=72, velocity=104, time=30),\n",
       "  Message('note_on', channel=0, note=71, velocity=0, time=14),\n",
       "  Message('note_on', channel=0, note=66, velocity=104, time=16),\n",
       "  Message('note_on', channel=0, note=71, velocity=104, time=0),\n",
       "  Message('note_on', channel=0, note=62, velocity=104, time=0),\n",
       "  Message('note_on', channel=0, note=72, velocity=0, time=14),\n",
       "  Message('note_on', channel=0, note=66, velocity=0, time=154),\n",
       "  Message('note_on', channel=0, note=71, velocity=0, time=0),\n",
       "  Message('note_on', channel=0, note=62, velocity=0, time=0),\n",
       "  Message('note_on', channel=0, note=66, velocity=104, time=12),\n",
       "  Message('note_on', channel=0, note=60, velocity=104, time=0),\n",
       "  Message('note_on', channel=0, note=69, velocity=104, time=0),\n",
       "  Message('note_on', channel=0, note=66, velocity=0, time=168),\n",
       "  Message('note_on', channel=0, note=60, velocity=0, time=0),\n",
       "  Message('note_on', channel=0, note=69, velocity=0, time=0),\n",
       "  Message('note_on', channel=0, note=67, velocity=104, time=12),\n",
       "  Message('note_on', channel=0, note=67, velocity=0, time=48),\n",
       "  Message('note_on', channel=0, note=71, velocity=104, time=12),\n",
       "  Message('note_on', channel=0, note=71, velocity=0, time=48),\n",
       "  Message('note_on', channel=0, note=69, velocity=104, time=12),\n",
       "  Message('note_on', channel=0, note=69, velocity=0, time=48),\n",
       "  Message('note_on', channel=0, note=71, velocity=104, time=12),\n",
       "  Message('note_on', channel=0, note=71, velocity=0, time=48),\n",
       "  Message('note_on', channel=0, note=74, velocity=104, time=12),\n",
       "  Message('note_on', channel=0, note=74, velocity=0, time=48),\n",
       "  Message('note_on', channel=0, note=72, velocity=104, time=12),\n",
       "  Message('note_on', channel=0, note=72, velocity=0, time=48),\n",
       "  Message('note_on', channel=0, note=72, velocity=104, time=12),\n",
       "  Message('note_on', channel=0, note=72, velocity=0, time=48),\n",
       "  Message('note_on', channel=0, note=76, velocity=104, time=12),\n",
       "  Message('note_on', channel=0, note=76, velocity=0, time=48),\n",
       "  Message('note_on', channel=0, note=74, velocity=104, time=12),\n",
       "  Message('note_on', channel=0, note=74, velocity=0, time=48),\n",
       "  Message('note_on', channel=0, note=74, velocity=104, time=12),\n",
       "  Message('note_on', channel=0, note=74, velocity=0, time=48),\n",
       "  Message('note_on', channel=0, note=79, velocity=104, time=12),\n",
       "  Message('note_on', channel=0, note=79, velocity=0, time=48),\n",
       "  Message('note_on', channel=0, note=78, velocity=104, time=12),\n",
       "  Message('note_on', channel=0, note=78, velocity=0, time=48),\n",
       "  Message('note_on', channel=0, note=79, velocity=104, time=12),\n",
       "  Message('note_on', channel=0, note=79, velocity=0, time=48),\n",
       "  Message('note_on', channel=0, note=74, velocity=104, time=12),\n",
       "  Message('note_on', channel=0, note=74, velocity=0, time=48),\n",
       "  Message('note_on', channel=0, note=71, velocity=104, time=12),\n",
       "  Message('note_on', channel=0, note=71, velocity=0, time=48),\n",
       "  Message('note_on', channel=0, note=67, velocity=104, time=12),\n",
       "  Message('note_on', channel=0, note=67, velocity=0, time=48),\n",
       "  Message('note_on', channel=0, note=69, velocity=104, time=12),\n",
       "  Message('note_on', channel=0, note=69, velocity=0, time=48),\n",
       "  Message('note_on', channel=0, note=71, velocity=104, time=12),\n",
       "  Message('note_on', channel=0, note=71, velocity=0, time=48),\n",
       "  Message('note_on', channel=0, note=72, velocity=104, time=12),\n",
       "  Message('note_on', channel=0, note=72, velocity=0, time=48),\n",
       "  Message('note_on', channel=0, note=74, velocity=104, time=12),\n",
       "  Message('note_on', channel=0, note=74, velocity=0, time=48),\n",
       "  Message('note_on', channel=0, note=76, velocity=104, time=12),\n",
       "  Message('note_on', channel=0, note=76, velocity=0, time=48),\n",
       "  Message('note_on', channel=0, note=74, velocity=104, time=12),\n",
       "  Message('note_on', channel=0, note=74, velocity=0, time=48),\n",
       "  Message('note_on', channel=0, note=72, velocity=104, time=12),\n",
       "  Message('note_on', channel=0, note=72, velocity=0, time=48),\n",
       "  Message('note_on', channel=0, note=71, velocity=104, time=12),\n",
       "  Message('note_on', channel=0, note=71, velocity=0, time=48),\n",
       "  Message('note_on', channel=0, note=69, velocity=104, time=12),\n",
       "  Message('note_on', channel=0, note=69, velocity=0, time=48),\n",
       "  Message('note_on', channel=0, note=71, velocity=104, time=12),\n",
       "  Message('note_on', channel=0, note=71, velocity=0, time=48),\n",
       "  Message('note_on', channel=0, note=67, velocity=104, time=12),\n",
       "  Message('note_on', channel=0, note=67, velocity=0, time=48),\n",
       "  Message('note_on', channel=0, note=66, velocity=104, time=12),\n",
       "  Message('note_on', channel=0, note=66, velocity=0, time=48),\n",
       "  Message('note_on', channel=0, note=67, velocity=104, time=12),\n",
       "  Message('note_on', channel=0, note=67, velocity=0, time=48),\n",
       "  Message('note_on', channel=0, note=69, velocity=104, time=12),\n",
       "  Message('note_on', channel=0, note=69, velocity=0, time=48),\n",
       "  Message('note_on', channel=0, note=62, velocity=104, time=12),\n",
       "  Message('note_on', channel=0, note=62, velocity=0, time=48),\n",
       "  Message('note_on', channel=0, note=66, velocity=104, time=12),\n",
       "  Message('note_on', channel=0, note=66, velocity=0, time=48),\n",
       "  Message('note_on', channel=0, note=69, velocity=104, time=12),\n",
       "  Message('note_on', channel=0, note=69, velocity=0, time=48),\n",
       "  Message('note_on', channel=0, note=72, velocity=104, time=12),\n",
       "  Message('note_on', channel=0, note=72, velocity=0, time=48),\n",
       "  Message('note_on', channel=0, note=71, velocity=104, time=12),\n",
       "  Message('note_on', channel=0, note=71, velocity=0, time=48),\n",
       "  Message('note_on', channel=0, note=69, velocity=104, time=12),\n",
       "  Message('note_on', channel=0, note=69, velocity=0, time=48),\n",
       "  Message('note_on', channel=0, note=71, velocity=104, time=12),\n",
       "  Message('note_on', channel=0, note=71, velocity=0, time=48),\n",
       "  Message('note_on', channel=0, note=67, velocity=104, time=12),\n",
       "  Message('note_on', channel=0, note=67, velocity=0, time=48),\n",
       "  Message('note_on', channel=0, note=69, velocity=104, time=12),\n",
       "  Message('note_on', channel=0, note=69, velocity=0, time=48),\n",
       "  Message('note_on', channel=0, note=71, velocity=104, time=12),\n",
       "  Message('note_on', channel=0, note=71, velocity=0, time=48),\n",
       "  Message('note_on', channel=0, note=74, velocity=104, time=12),\n",
       "  Message('note_on', channel=0, note=74, velocity=0, time=48),\n",
       "  Message('note_on', channel=0, note=72, velocity=104, time=12),\n",
       "  Message('note_on', channel=0, note=72, velocity=0, time=48),\n",
       "  Message('note_on', channel=0, note=72, velocity=104, time=12),\n",
       "  Message('note_on', channel=0, note=72, velocity=0, time=48),\n",
       "  Message('note_on', channel=0, note=76, velocity=104, time=12),\n",
       "  Message('note_on', channel=0, note=76, velocity=0, time=48),\n",
       "  Message('note_on', channel=0, note=74, velocity=104, time=12),\n",
       "  Message('note_on', channel=0, note=74, velocity=0, time=48),\n",
       "  Message('note_on', channel=0, note=74, velocity=104, time=12),\n",
       "  Message('note_on', channel=0, note=74, velocity=0, time=48),\n",
       "  Message('note_on', channel=0, note=79, velocity=104, time=12),\n",
       "  Message('note_on', channel=0, note=79, velocity=0, time=48),\n",
       "  Message('note_on', channel=0, note=78, velocity=104, time=12),\n",
       "  Message('note_on', channel=0, note=78, velocity=0, time=48),\n",
       "  Message('note_on', channel=0, note=79, velocity=104, time=12),\n",
       "  Message('note_on', channel=0, note=79, velocity=0, time=48),\n",
       "  Message('note_on', channel=0, note=74, velocity=104, time=12),\n",
       "  Message('note_on', channel=0, note=74, velocity=0, time=48),\n",
       "  Message('note_on', channel=0, note=71, velocity=104, time=12),\n",
       "  Message('note_on', channel=0, note=71, velocity=0, time=48),\n",
       "  Message('note_on', channel=0, note=67, velocity=104, time=12),\n",
       "  Message('note_on', channel=0, note=67, velocity=0, time=48),\n",
       "  Message('note_on', channel=0, note=69, velocity=104, time=12),\n",
       "  Message('note_on', channel=0, note=69, velocity=0, time=48),\n",
       "  Message('note_on', channel=0, note=71, velocity=104, time=12),\n",
       "  Message('note_on', channel=0, note=71, velocity=0, time=48),\n",
       "  Message('note_on', channel=0, note=64, velocity=104, time=12),\n",
       "  Message('note_on', channel=0, note=64, velocity=0, time=48),\n",
       "  Message('note_on', channel=0, note=74, velocity=104, time=12),\n",
       "  Message('note_on', channel=0, note=74, velocity=0, time=48),\n",
       "  Message('note_on', channel=0, note=72, velocity=104, time=12),\n",
       "  Message('note_on', channel=0, note=72, velocity=0, time=48),\n",
       "  Message('note_on', channel=0, note=71, velocity=104, time=12),\n",
       "  Message('note_on', channel=0, note=71, velocity=0, time=48),\n",
       "  Message('note_on', channel=0, note=69, velocity=104, time=12),\n",
       "  Message('note_on', channel=0, note=69, velocity=0, time=48),\n",
       "  Message('note_on', channel=0, note=67, velocity=104, time=12),\n",
       "  Message('note_on', channel=0, note=67, velocity=0, time=48),\n",
       "  Message('note_on', channel=0, note=62, velocity=104, time=12),\n",
       "  Message('note_on', channel=0, note=62, velocity=0, time=48),\n",
       "  Message('note_on', channel=0, note=67, velocity=104, time=12),\n",
       "  Message('note_on', channel=0, note=67, velocity=0, time=48),\n",
       "  Message('note_on', channel=0, note=66, velocity=104, time=12),\n",
       "  Message('note_on', channel=0, note=66, velocity=0, time=48),\n",
       "  Message('note_on', channel=0, note=67, velocity=104, time=12),\n",
       "  Message('note_on', channel=0, note=67, velocity=0, time=48),\n",
       "  Message('note_on', channel=0, note=71, velocity=104, time=12),\n",
       "  Message('note_on', channel=0, note=71, velocity=0, time=48),\n",
       "  Message('note_on', channel=0, note=74, velocity=104, time=12),\n",
       "  Message('note_on', channel=0, note=74, velocity=0, time=48),\n",
       "  Message('note_on', channel=0, note=79, velocity=104, time=12),\n",
       "  Message('note_on', channel=0, note=79, velocity=0, time=48),\n",
       "  Message('note_on', channel=0, note=74, velocity=104, time=12),\n",
       "  Message('note_on', channel=0, note=74, velocity=0, time=48),\n",
       "  Message('note_on', channel=0, note=71, velocity=104, time=12),\n",
       "  Message('note_on', channel=0, note=71, velocity=0, time=48),\n",
       "  Message('note_on', channel=0, note=67, velocity=104, time=12),\n",
       "  Message('note_on', channel=0, note=67, velocity=0, time=168),\n",
       "  Message('note_on', channel=0, note=66, velocity=94, time=13),\n",
       "  Message('note_on', channel=0, note=69, velocity=94, time=0),\n",
       "  Message('note_on', channel=0, note=66, velocity=0, time=336),\n",
       "  Message('note_on', channel=0, note=69, velocity=0, time=0),\n",
       "  Message('note_on', channel=0, note=68, velocity=94, time=24),\n",
       "  Message('note_on', channel=0, note=71, velocity=94, time=0),\n",
       "  Message('note_on', channel=0, note=62, velocity=94, time=0),\n",
       "  Message('note_on', channel=0, note=68, velocity=0, time=168),\n",
       "  Message('note_on', channel=0, note=71, velocity=0, time=0),\n",
       "  Message('note_on', channel=0, note=62, velocity=0, time=0),\n",
       "  Message('note_on', channel=0, note=72, velocity=94, time=12),\n",
       "  Message('note_on', channel=0, note=64, velocity=94, time=0),\n",
       "  Message('note_on', channel=0, note=69, velocity=94, time=0),\n",
       "  Message('note_on', channel=0, note=72, velocity=0, time=336),\n",
       "  Message('note_on', channel=0, note=64, velocity=0, time=0),\n",
       "  Message('note_on', channel=0, note=69, velocity=0, time=0),\n",
       "  Message('note_on', channel=0, note=69, velocity=94, time=24),\n",
       "  Message('note_on', channel=0, note=64, velocity=94, time=0),\n",
       "  Message('note_on', channel=0, note=72, velocity=94, time=0),\n",
       "  Message('note_on', channel=0, note=69, velocity=0, time=168),\n",
       "  Message('note_on', channel=0, note=64, velocity=0, time=0),\n",
       "  Message('note_on', channel=0, note=72, velocity=0, time=0),\n",
       "  Message('note_on', channel=0, note=71, velocity=94, time=12),\n",
       "  Message('note_on', channel=0, note=71, velocity=0, time=276),\n",
       "  Message('note_on', channel=0, note=72, velocity=94, time=24),\n",
       "  Message('note_on', channel=0, note=72, velocity=0, time=24),\n",
       "  Message('note_on', channel=0, note=74, velocity=94, time=6),\n",
       "  Message('note_on', channel=0, note=74, velocity=0, time=24),\n",
       "  Message('note_on', channel=0, note=71, velocity=94, time=6),\n",
       "  Message('note_on', channel=0, note=68, velocity=94, time=0),\n",
       "  Message('note_on', channel=0, note=71, velocity=0, time=168),\n",
       "  Message('note_on', channel=0, note=68, velocity=0, time=0),\n",
       "  Message('note_on', channel=0, note=69, velocity=94, time=12),\n",
       "  Message('note_on', channel=0, note=69, velocity=0, time=168),\n",
       "  Message('note_on', channel=0, note=69, velocity=94, time=12),\n",
       "  Message('note_on', channel=0, note=69, velocity=0, time=48),\n",
       "  Message('note_on', channel=0, note=76, velocity=94, time=12),\n",
       "  Message('note_on', channel=0, note=76, velocity=0, time=48),\n",
       "  Message('note_on', channel=0, note=74, velocity=94, time=12),\n",
       "  Message('note_on', channel=0, note=74, velocity=0, time=48),\n",
       "  Message('note_on', channel=0, note=74, velocity=94, time=12),\n",
       "  Message('note_on', channel=0, note=74, velocity=0, time=48),\n",
       "  Message('note_on', channel=0, note=77, velocity=94, time=12),\n",
       "  Message('note_on', channel=0, note=77, velocity=0, time=48),\n",
       "  Message('note_on', channel=0, note=76, velocity=94, time=12),\n",
       "  Message('note_on', channel=0, note=76, velocity=0, time=48),\n",
       "  Message('note_on', channel=0, note=76, velocity=94, time=12),\n",
       "  Message('note_on', channel=0, note=76, velocity=0, time=48),\n",
       "  Message('note_on', channel=0, note=81, velocity=94, time=12),\n",
       "  Message('note_on', channel=0, note=81, velocity=0, time=48),\n",
       "  Message('note_on', channel=0, note=80, velocity=94, time=12),\n",
       "  Message('note_on', channel=0, note=80, velocity=0, time=48),\n",
       "  Message('note_on', channel=0, note=81, velocity=94, time=12),\n",
       "  Message('note_on', channel=0, note=81, velocity=0, time=48),\n",
       "  Message('note_on', channel=0, note=76, velocity=94, time=12),\n",
       "  Message('note_on', channel=0, note=76, velocity=0, time=48),\n",
       "  Message('note_on', channel=0, note=72, velocity=94, time=12),\n",
       "  Message('note_on', channel=0, note=72, velocity=0, time=48),\n",
       "  Message('note_on', channel=0, note=69, velocity=94, time=12),\n",
       "  Message('note_on', channel=0, note=69, velocity=0, time=48),\n",
       "  Message('note_on', channel=0, note=71, velocity=94, time=12),\n",
       "  Message('note_on', channel=0, note=71, velocity=0, time=48),\n",
       "  Message('note_on', channel=0, note=72, velocity=94, time=12),\n",
       "  Message('note_on', channel=0, note=72, velocity=0, time=48),\n",
       "  Message('note_on', channel=0, note=77, velocity=94, time=12),\n",
       "  Message('note_on', channel=0, note=77, velocity=0, time=48),\n",
       "  Message('note_on', channel=0, note=76, velocity=94, time=12),\n",
       "  Message('note_on', channel=0, note=76, velocity=0, time=48),\n",
       "  Message('note_on', channel=0, note=74, velocity=94, time=12),\n",
       "  Message('note_on', channel=0, note=74, velocity=0, time=48),\n",
       "  Message('note_on', channel=0, note=72, velocity=94, time=12),\n",
       "  Message('note_on', channel=0, note=72, velocity=0, time=48),\n",
       "  Message('note_on', channel=0, note=71, velocity=94, time=12),\n",
       "  Message('note_on', channel=0, note=71, velocity=0, time=48),\n",
       "  Message('note_on', channel=0, note=69, velocity=94, time=12),\n",
       "  Message('note_on', channel=0, note=69, velocity=0, time=48),\n",
       "  Message('note_on', channel=0, note=64, velocity=94, time=12),\n",
       "  Message('note_on', channel=0, note=64, velocity=0, time=48),\n",
       "  Message('note_on', channel=0, note=69, velocity=94, time=12),\n",
       "  Message('note_on', channel=0, note=69, velocity=0, time=48),\n",
       "  Message('note_on', channel=0, note=68, velocity=94, time=12),\n",
       "  Message('note_on', channel=0, note=62, velocity=94, time=0),\n",
       "  Message('note_on', channel=0, note=68, velocity=0, time=48),\n",
       "  Message('note_on', channel=0, note=62, velocity=0, time=0),\n",
       "  Message('note_on', channel=0, note=64, velocity=94, time=12),\n",
       "  Message('note_on', channel=0, note=69, velocity=94, time=0),\n",
       "  Message('note_on', channel=0, note=72, velocity=94, time=0),\n",
       "  Message('note_on', channel=0, note=64, velocity=0, time=336),\n",
       "  Message('note_on', channel=0, note=69, velocity=0, time=0),\n",
       "  Message('note_on', channel=0, note=72, velocity=0, time=0),\n",
       "  Message('note_on', channel=0, note=74, velocity=94, time=24),\n",
       "  Message('note_on', channel=0, note=62, velocity=94, time=0),\n",
       "  Message('note_on', channel=0, note=67, velocity=94, time=0),\n",
       "  Message('note_on', channel=0, note=74, velocity=0, time=168),\n",
       "  Message('note_on', channel=0, note=62, velocity=0, time=0),\n",
       "  Message('note_on', channel=0, note=67, velocity=0, time=0),\n",
       "  Message('note_on', channel=0, note=72, velocity=94, time=12),\n",
       "  Message('note_on', channel=0, note=76, velocity=94, time=0),\n",
       "  Message('note_on', channel=0, note=72, velocity=0, time=336),\n",
       "  Message('note_on', channel=0, note=76, velocity=0, time=0),\n",
       "  Message('note_on', channel=0, note=72, velocity=94, time=24),\n",
       "  Message('note_on', channel=0, note=76, velocity=94, time=0),\n",
       "  Message('note_on', channel=0, note=67, velocity=94, time=0),\n",
       "  Message('note_on', channel=0, note=72, velocity=0, time=168),\n",
       "  Message('note_on', channel=0, note=76, velocity=0, time=0),\n",
       "  Message('note_on', channel=0, note=67, velocity=0, time=0),\n",
       "  Message('note_on', channel=0, note=74, velocity=94, time=12),\n",
       "  Message('note_on', channel=0, note=74, velocity=0, time=276),\n",
       "  Message('note_on', channel=0, note=76, velocity=94, time=24),\n",
       "  Message('note_on', channel=0, note=76, velocity=0, time=24),\n",
       "  Message('note_on', channel=0, note=77, velocity=94, time=6),\n",
       "  Message('note_on', channel=0, note=77, velocity=0, time=24),\n",
       "  Message('note_on', channel=0, note=74, velocity=94, time=6),\n",
       "  Message('note_on', channel=0, note=74, velocity=0, time=168),\n",
       "  Message('note_on', channel=0, note=64, velocity=94, time=12),\n",
       "  Message('note_on', channel=0, note=72, velocity=94, time=0),\n",
       "  Message('note_on', channel=0, note=64, velocity=0, time=168),\n",
       "  Message('note_on', channel=0, note=72, velocity=0, time=0),\n",
       "  Message('note_on', channel=0, note=72, velocity=94, time=12),\n",
       "  Message('note_on', channel=0, note=72, velocity=0, time=48),\n",
       "  Message('note_on', channel=0, note=76, velocity=94, time=12),\n",
       "  Message('note_on', channel=0, note=76, velocity=0, time=48),\n",
       "  Message('note_on', channel=0, note=72, velocity=94, time=12),\n",
       "  Message('note_on', channel=0, note=72, velocity=0, time=48),\n",
       "  Message('note_on', channel=0, note=67, velocity=94, time=12),\n",
       "  Message('note_on', channel=0, note=67, velocity=0, time=48),\n",
       "  Message('note_on', channel=0, note=69, velocity=94, time=12),\n",
       "  Message('note_on', channel=0, note=69, velocity=0, time=48),\n",
       "  Message('note_on', channel=0, note=70, velocity=94, time=12),\n",
       "  Message('note_on', channel=0, note=70, velocity=0, time=48),\n",
       "  Message('note_on', channel=0, note=69, velocity=94, time=12),\n",
       "  Message('note_on', channel=0, note=69, velocity=0, time=48),\n",
       "  Message('note_on', channel=0, note=72, velocity=94, time=12),\n",
       "  Message('note_on', channel=0, note=72, velocity=0, time=48),\n",
       "  Message('note_on', channel=0, note=71, velocity=94, time=12),\n",
       "  Message('note_on', channel=0, note=71, velocity=0, time=48),\n",
       "  Message('note_on', channel=0, note=72, velocity=94, time=12),\n",
       "  Message('note_on', channel=0, note=72, velocity=0, time=48),\n",
       "  Message('note_on', channel=0, note=69, velocity=94, time=12),\n",
       "  Message('note_on', channel=0, note=69, velocity=0, time=48),\n",
       "  Message('note_on', channel=0, note=66, velocity=94, time=12),\n",
       "  Message('note_on', channel=0, note=66, velocity=0, time=48),\n",
       "  Message('note_on', channel=0, note=62, velocity=94, time=12),\n",
       "  Message('note_on', channel=0, note=62, velocity=0, time=48),\n",
       "  Message('note_on', channel=0, note=64, velocity=94, time=12),\n",
       "  Message('note_on', channel=0, note=64, velocity=0, time=48),\n",
       "  Message('note_on', channel=0, note=66, velocity=94, time=12),\n",
       "  Message('note_on', channel=0, note=66, velocity=0, time=48),\n",
       "  Message('note_on', channel=0, note=64, velocity=94, time=12),\n",
       "  Message('note_on', channel=0, note=64, velocity=0, time=48),\n",
       "  Message('note_on', channel=0, note=60, velocity=94, time=12),\n",
       "  Message('note_on', channel=0, note=60, velocity=0, time=48),\n",
       "  Message('note_on', channel=0, note=62, velocity=94, time=12),\n",
       "  Message('note_on', channel=0, note=62, velocity=0, time=48),\n",
       "  Message('note_on', channel=0, note=64, velocity=94, time=12),\n",
       "  Message('note_on', channel=0, note=64, velocity=0, time=48),\n",
       "  Message('note_on', channel=0, note=67, velocity=94, time=12),\n",
       "  Message('note_on', channel=0, note=67, velocity=0, time=48),\n",
       "  Message('note_on', channel=0, note=66, velocity=94, time=12),\n",
       "  Message('note_on', channel=0, note=66, velocity=0, time=48),\n",
       "  Message('note_on', channel=0, note=67, velocity=94, time=12),\n",
       "  Message('note_on', channel=0, note=67, velocity=0, time=48),\n",
       "  Message('note_on', channel=0, note=71, velocity=94, time=12),\n",
       "  Message('note_on', channel=0, note=71, velocity=0, time=48),\n",
       "  Message('note_on', channel=0, note=69, velocity=94, time=12),\n",
       "  Message('note_on', channel=0, note=69, velocity=0, time=48),\n",
       "  Message('note_on', channel=0, note=67, velocity=94, time=12),\n",
       "  Message('note_on', channel=0, note=71, velocity=94, time=0),\n",
       "  Message('note_on', channel=0, note=67, velocity=0, time=336),\n",
       "  Message('note_on', channel=0, note=71, velocity=0, time=0),\n",
       "  Message('note_on', channel=0, note=64, velocity=94, time=24),\n",
       "  Message('note_on', channel=0, note=60, velocity=94, time=0),\n",
       "  Message('note_on', channel=0, note=67, velocity=94, time=0),\n",
       "  Message('note_on', channel=0, note=72, velocity=94, time=0),\n",
       "  Message('note_on', channel=0, note=64, velocity=0, time=168),\n",
       "  Message('note_on', channel=0, note=60, velocity=0, time=0),\n",
       "  Message('note_on', channel=0, note=67, velocity=0, time=0),\n",
       "  Message('note_on', channel=0, note=72, velocity=0, time=0),\n",
       "  Message('note_on', channel=0, note=74, velocity=94, time=12),\n",
       "  Message('note_on', channel=0, note=67, velocity=94, time=0),\n",
       "  Message('note_on', channel=0, note=62, velocity=94, time=0),\n",
       "  Message('note_on', channel=0, note=74, velocity=0, time=336),\n",
       "  Message('note_on', channel=0, note=67, velocity=0, time=0),\n",
       "  Message('note_on', channel=0, note=62, velocity=0, time=0),\n",
       "  Message('note_on', channel=0, note=74, velocity=94, time=24),\n",
       "  Message('note_on', channel=0, note=67, velocity=94, time=0),\n",
       "  Message('note_on', channel=0, note=62, velocity=94, time=0),\n",
       "  Message('note_on', channel=0, note=74, velocity=0, time=168),\n",
       "  Message('note_on', channel=0, note=67, velocity=0, time=0),\n",
       "  Message('note_on', channel=0, note=62, velocity=0, time=0),\n",
       "  Message('note_on', channel=0, note=69, velocity=94, time=12),\n",
       "  Message('note_on', channel=0, note=64, velocity=94, time=0),\n",
       "  Message('note_on', channel=0, note=72, velocity=94, time=0),\n",
       "  Message('note_on', channel=0, note=69, velocity=0, time=168),\n",
       "  Message('note_on', channel=0, note=64, velocity=0, time=0),\n",
       "  Message('note_on', channel=0, note=72, velocity=0, time=0),\n",
       "  Message('note_on', channel=0, note=71, velocity=94, time=12),\n",
       "  Message('note_on', channel=0, note=71, velocity=0, time=336),\n",
       "  Message('note_on', channel=0, note=66, velocity=94, time=24),\n",
       "  Message('note_on', channel=0, note=69, velocity=94, time=0),\n",
       "  Message('note_on', channel=0, note=66, velocity=0, time=48),\n",
       "  Message('note_on', channel=0, note=69, velocity=0, time=0),\n",
       "  Message('note_on', channel=0, note=62, velocity=94, time=12),\n",
       "  Message('note_on', channel=0, note=62, velocity=0, time=48),\n",
       "  Message('note_on', channel=0, note=64, velocity=94, time=12),\n",
       "  Message('note_on', channel=0, note=64, velocity=0, time=48),\n",
       "  Message('note_on', channel=0, note=66, velocity=94, time=12),\n",
       "  Message('note_on', channel=0, note=66, velocity=0, time=48),\n",
       "  Message('note_on', channel=0, note=69, velocity=94, time=12),\n",
       "  Message('note_on', channel=0, note=69, velocity=0, time=48),\n",
       "  Message('note_on', channel=0, note=67, velocity=94, time=12),\n",
       "  Message('note_on', channel=0, note=67, velocity=0, time=48),\n",
       "  Message('note_on', channel=0, note=69, velocity=94, time=12),\n",
       "  Message('note_on', channel=0, note=69, velocity=0, time=48),\n",
       "  Message('note_on', channel=0, note=72, velocity=94, time=12),\n",
       "  Message('note_on', channel=0, note=72, velocity=0, time=48),\n",
       "  Message('note_on', channel=0, note=71, velocity=94, time=12),\n",
       "  Message('note_on', channel=0, note=71, velocity=0, time=48),\n",
       "  Message('note_on', channel=0, note=72, velocity=94, time=12),\n",
       "  Message('note_on', channel=0, note=72, velocity=0, time=48),\n",
       "  Message('note_on', channel=0, note=69, velocity=94, time=12),\n",
       "  Message('note_on', channel=0, note=69, velocity=0, time=48),\n",
       "  Message('note_on', channel=0, note=66, velocity=94, time=12),\n",
       "  Message('note_on', channel=0, note=66, velocity=0, time=48),\n",
       "  Message('note_on', channel=0, note=62, velocity=94, time=12),\n",
       "  Message('note_on', channel=0, note=62, velocity=0, time=48),\n",
       "  Message('note_on', channel=0, note=66, velocity=94, time=12),\n",
       "  Message('note_on', channel=0, note=66, velocity=0, time=48),\n",
       "  Message('note_on', channel=0, note=69, velocity=94, time=12),\n",
       "  Message('note_on', channel=0, note=69, velocity=0, time=48),\n",
       "  Message('note_on', channel=0, note=72, velocity=94, time=12),\n",
       "  Message('note_on', channel=0, note=72, velocity=0, time=48),\n",
       "  Message('note_on', channel=0, note=71, velocity=94, time=12),\n",
       "  Message('note_on', channel=0, note=71, velocity=0, time=48),\n",
       "  Message('note_on', channel=0, note=69, velocity=94, time=12),\n",
       "  Message('note_on', channel=0, note=69, velocity=0, time=48),\n",
       "  Message('note_on', channel=0, note=67, velocity=94, time=12),\n",
       "  Message('note_on', channel=0, note=71, velocity=94, time=0),\n",
       "  Message('note_on', channel=0, note=67, velocity=0, time=336),\n",
       "  Message('note_on', channel=0, note=71, velocity=0, time=0),\n",
       "  Message('note_on', channel=0, note=72, velocity=94, time=24),\n",
       "  Message('note_on', channel=0, note=67, velocity=94, time=0),\n",
       "  Message('note_on', channel=0, note=64, velocity=94, time=0),\n",
       "  Message('note_on', channel=0, note=60, velocity=94, time=0),\n",
       "  Message('note_on', channel=0, note=72, velocity=0, time=168),\n",
       "  Message('note_on', channel=0, note=67, velocity=0, time=0),\n",
       "  Message('note_on', channel=0, note=64, velocity=0, time=0),\n",
       "  Message('note_on', channel=0, note=60, velocity=0, time=0),\n",
       "  Message('note_on', channel=0, note=74, velocity=94, time=12),\n",
       "  Message('note_on', channel=0, note=62, velocity=94, time=0),\n",
       "  Message('note_on', channel=0, note=67, velocity=94, time=0),\n",
       "  Message('note_on', channel=0, note=74, velocity=0, time=336),\n",
       "  Message('note_on', channel=0, note=62, velocity=0, time=0),\n",
       "  Message('note_on', channel=0, note=67, velocity=0, time=0),\n",
       "  Message('note_on', channel=0, note=67, velocity=94, time=24),\n",
       "  Message('note_on', channel=0, note=64, velocity=94, time=0),\n",
       "  Message('note_on', channel=0, note=71, velocity=94, time=0),\n",
       "  Message('note_on', channel=0, note=67, velocity=0, time=168),\n",
       "  Message('note_on', channel=0, note=64, velocity=0, time=0),\n",
       "  Message('note_on', channel=0, note=71, velocity=0, time=0),\n",
       "  Message('note_on', channel=0, note=69, velocity=94, time=12),\n",
       "  Message('note_on', channel=0, note=69, velocity=0, time=96),\n",
       "  Message('note_on', channel=0, note=71, velocity=94, time=24),\n",
       "  Message('note_on', channel=0, note=71, velocity=0, time=24),\n",
       "  Message('note_on', channel=0, note=72, velocity=94, time=6),\n",
       "  Message('note_on', channel=0, note=72, velocity=0, time=24),\n",
       "  Message('note_on', channel=0, note=71, velocity=94, time=6),\n",
       "  Message('note_on', channel=0, note=71, velocity=0, time=168),\n",
       "  Message('note_on', channel=0, note=69, velocity=94, time=12),\n",
       "  Message('note_on', channel=0, note=69, velocity=0, time=168),\n",
       "  Message('note_on', channel=0, note=67, velocity=94, time=12),\n",
       "  Message('note_on', channel=0, note=67, velocity=0, time=48),\n",
       "  Message('note_on', channel=0, note=71, velocity=94, time=12),\n",
       "  Message('note_on', channel=0, note=71, velocity=0, time=48),\n",
       "  Message('note_on', channel=0, note=74, velocity=94, time=12),\n",
       "  Message('note_on', channel=0, note=74, velocity=0, time=48),\n",
       "  Message('note_on', channel=0, note=79, velocity=94, time=12),\n",
       "  Message('note_on', channel=0, note=79, velocity=0, time=48),\n",
       "  Message('note_on', channel=0, note=74, velocity=94, time=12),\n",
       "  Message('note_on', channel=0, note=74, velocity=0, time=48),\n",
       "  Message('note_on', channel=0, note=71, velocity=94, time=12),\n",
       "  Message('note_on', channel=0, note=71, velocity=0, time=48),\n",
       "  Message('note_on', channel=0, note=67, velocity=94, time=12),\n",
       "  Message('note_on', channel=0, note=67, velocity=0, time=48),\n",
       "  Message('note_on', channel=0, note=71, velocity=94, time=12),\n",
       "  Message('note_on', channel=0, note=71, velocity=0, time=48),\n",
       "  Message('note_on', channel=0, note=74, velocity=94, time=12),\n",
       "  Message('note_on', channel=0, note=74, velocity=0, time=48),\n",
       "  Message('note_on', channel=0, note=77, velocity=94, time=12),\n",
       "  Message('note_on', channel=0, note=77, velocity=0, time=48),\n",
       "  Message('note_on', channel=0, note=74, velocity=94, time=12),\n",
       "  Message('note_on', channel=0, note=74, velocity=0, time=48),\n",
       "  Message('note_on', channel=0, note=71, velocity=94, time=12),\n",
       "  Message('note_on', channel=0, note=71, velocity=0, time=48),\n",
       "  Message('note_on', channel=0, note=67, velocity=94, time=12),\n",
       "  Message('note_on', channel=0, note=67, velocity=0, time=48),\n",
       "  Message('note_on', channel=0, note=71, velocity=94, time=12),\n",
       "  Message('note_on', channel=0, note=71, velocity=0, time=48),\n",
       "  Message('note_on', channel=0, note=74, velocity=94, time=12),\n",
       "  Message('note_on', channel=0, note=74, velocity=0, time=48),\n",
       "  Message('note_on', channel=0, note=76, velocity=94, time=12),\n",
       "  Message('note_on', channel=0, note=76, velocity=0, time=48),\n",
       "  Message('note_on', channel=0, note=72, velocity=94, time=12),\n",
       "  Message('note_on', channel=0, note=72, velocity=0, time=48),\n",
       "  Message('note_on', channel=0, note=69, velocity=94, time=12),\n",
       "  Message('note_on', channel=0, note=69, velocity=0, time=48),\n",
       "  Message('note_on', channel=0, note=66, velocity=94, time=12),\n",
       "  Message('note_on', channel=0, note=66, velocity=0, time=48),\n",
       "  Message('note_on', channel=0, note=69, velocity=94, time=12),\n",
       "  Message('note_on', channel=0, note=69, velocity=0, time=48),\n",
       "  Message('note_on', channel=0, note=72, velocity=94, time=12),\n",
       "  Message('note_on', channel=0, note=72, velocity=0, time=48),\n",
       "  Message('note_on', channel=0, note=74, velocity=94, time=12),\n",
       "  Message('note_on', channel=0, note=74, velocity=0, time=48),\n",
       "  Message('note_on', channel=0, note=71, velocity=94, time=12),\n",
       "  Message('note_on', channel=0, note=71, velocity=0, time=48),\n",
       "  Message('note_on', channel=0, note=67, velocity=94, time=12),\n",
       "  Message('note_on', channel=0, note=67, velocity=0, time=48),\n",
       "  Message('note_on', channel=0, note=64, velocity=94, time=12),\n",
       "  Message('note_on', channel=0, note=64, velocity=0, time=48),\n",
       "  Message('note_on', channel=0, note=67, velocity=94, time=12),\n",
       "  Message('note_on', channel=0, note=67, velocity=0, time=48),\n",
       "  Message('note_on', channel=0, note=71, velocity=94, time=12),\n",
       "  Message('note_on', channel=0, note=71, velocity=0, time=48),\n",
       "  Message('note_on', channel=0, note=72, velocity=94, time=12),\n",
       "  Message('note_on', channel=0, note=72, velocity=0, time=48),\n",
       "  Message('note_on', channel=0, note=69, velocity=94, time=12),\n",
       "  Message('note_on', channel=0, note=69, velocity=0, time=48),\n",
       "  Message('note_on', channel=0, note=66, velocity=94, time=12),\n",
       "  Message('note_on', channel=0, note=66, velocity=0, time=48),\n",
       "  Message('note_on', channel=0, note=62, velocity=94, time=12),\n",
       "  Message('note_on', channel=0, note=62, velocity=0, time=48),\n",
       "  Message('note_on', channel=0, note=66, velocity=94, time=12),\n",
       "  Message('note_on', channel=0, note=66, velocity=0, time=48),\n",
       "  Message('note_on', channel=0, note=69, velocity=94, time=12),\n",
       "  Message('note_on', channel=0, note=69, velocity=0, time=48),\n",
       "  Message('note_on', channel=0, note=72, velocity=94, time=12),\n",
       "  Message('note_on', channel=0, note=72, velocity=0, time=48),\n",
       "  Message('note_on', channel=0, note=71, velocity=94, time=12),\n",
       "  Message('note_on', channel=0, note=71, velocity=0, time=48),\n",
       "  Message('note_on', channel=0, note=69, velocity=94, time=12),\n",
       "  Message('note_on', channel=0, note=69, velocity=0, time=48),\n",
       "  Message('note_on', channel=0, note=71, velocity=94, time=12),\n",
       "  Message('note_on', channel=0, note=71, velocity=0, time=48),\n",
       "  Message('note_on', channel=0, note=67, velocity=94, time=12),\n",
       "  Message('note_on', channel=0, note=67, velocity=0, time=48),\n",
       "  Message('note_on', channel=0, note=69, velocity=94, time=12),\n",
       "  Message('note_on', channel=0, note=69, velocity=0, time=48),\n",
       "  Message('note_on', channel=0, note=71, velocity=94, time=12),\n",
       "  Message('note_on', channel=0, note=71, velocity=0, time=48),\n",
       "  Message('note_on', channel=0, note=74, velocity=94, time=12),\n",
       "  Message('note_on', channel=0, note=74, velocity=0, time=48),\n",
       "  Message('note_on', channel=0, note=72, velocity=94, time=12),\n",
       "  Message('note_on', channel=0, note=72, velocity=0, time=48),\n",
       "  Message('note_on', channel=0, note=72, velocity=94, time=12),\n",
       "  Message('note_on', channel=0, note=72, velocity=0, time=48),\n",
       "  Message('note_on', channel=0, note=76, velocity=94, time=12),\n",
       "  Message('note_on', channel=0, note=76, velocity=0, time=48),\n",
       "  Message('note_on', channel=0, note=74, velocity=94, time=12),\n",
       "  Message('note_on', channel=0, note=74, velocity=0, time=48),\n",
       "  Message('note_on', channel=0, note=74, velocity=94, time=12),\n",
       "  Message('note_on', channel=0, note=74, velocity=0, time=48),\n",
       "  Message('note_on', channel=0, note=79, velocity=94, time=12),\n",
       "  Message('note_on', channel=0, note=79, velocity=0, time=48),\n",
       "  Message('note_on', channel=0, note=78, velocity=94, time=12),\n",
       "  Message('note_on', channel=0, note=78, velocity=0, time=48),\n",
       "  Message('note_on', channel=0, note=79, velocity=94, time=12),\n",
       "  Message('note_on', channel=0, note=79, velocity=0, time=48),\n",
       "  Message('note_on', channel=0, note=74, velocity=94, time=12),\n",
       "  Message('note_on', channel=0, note=74, velocity=0, time=48),\n",
       "  Message('note_on', channel=0, note=71, velocity=94, time=12),\n",
       "  Message('note_on', channel=0, note=71, velocity=0, time=48),\n",
       "  Message('note_on', channel=0, note=67, velocity=94, time=12),\n",
       "  Message('note_on', channel=0, note=67, velocity=0, time=48),\n",
       "  Message('note_on', channel=0, note=69, velocity=94, time=12),\n",
       "  Message('note_on', channel=0, note=69, velocity=0, time=48),\n",
       "  Message('note_on', channel=0, note=71, velocity=94, time=12),\n",
       "  Message('note_on', channel=0, note=71, velocity=0, time=48),\n",
       "  Message('note_on', channel=0, note=72, velocity=94, time=12),\n",
       "  Message('note_on', channel=0, note=72, velocity=0, time=48),\n",
       "  Message('note_on', channel=0, note=74, velocity=94, time=12),\n",
       "  Message('note_on', channel=0, note=74, velocity=0, time=48),\n",
       "  Message('note_on', channel=0, note=76, velocity=94, time=12),\n",
       "  Message('note_on', channel=0, note=76, velocity=0, time=48),\n",
       "  Message('note_on', channel=0, note=74, velocity=94, time=12),\n",
       "  Message('note_on', channel=0, note=74, velocity=0, time=48),\n",
       "  Message('note_on', channel=0, note=72, velocity=94, time=12),\n",
       "  Message('note_on', channel=0, note=72, velocity=0, time=48),\n",
       "  Message('note_on', channel=0, note=71, velocity=94, time=12),\n",
       "  Message('note_on', channel=0, note=71, velocity=0, time=48),\n",
       "  Message('note_on', channel=0, note=69, velocity=94, time=12),\n",
       "  Message('note_on', channel=0, note=69, velocity=0, time=48),\n",
       "  Message('note_on', channel=0, note=71, velocity=94, time=12),\n",
       "  Message('note_on', channel=0, note=71, velocity=0, time=48),\n",
       "  Message('note_on', channel=0, note=67, velocity=94, time=12),\n",
       "  Message('note_on', channel=0, note=67, velocity=0, time=48),\n",
       "  Message('note_on', channel=0, note=66, velocity=94, time=12),\n",
       "  Message('note_on', channel=0, note=66, velocity=0, time=48),\n",
       "  Message('note_on', channel=0, note=67, velocity=94, time=12),\n",
       "  Message('note_on', channel=0, note=67, velocity=0, time=48),\n",
       "  Message('note_on', channel=0, note=69, velocity=94, time=12),\n",
       "  Message('note_on', channel=0, note=69, velocity=0, time=48),\n",
       "  Message('note_on', channel=0, note=62, velocity=94, time=12),\n",
       "  Message('note_on', channel=0, note=62, velocity=0, time=48),\n",
       "  Message('note_on', channel=0, note=66, velocity=94, time=12),\n",
       "  Message('note_on', channel=0, note=66, velocity=0, time=48),\n",
       "  Message('note_on', channel=0, note=69, velocity=94, time=12),\n",
       "  Message('note_on', channel=0, note=69, velocity=0, time=48),\n",
       "  Message('note_on', channel=0, note=72, velocity=94, time=12),\n",
       "  Message('note_on', channel=0, note=72, velocity=0, time=48),\n",
       "  Message('note_on', channel=0, note=71, velocity=94, time=12),\n",
       "  Message('note_on', channel=0, note=71, velocity=0, time=48),\n",
       "  Message('note_on', channel=0, note=69, velocity=94, time=12),\n",
       "  Message('note_on', channel=0, note=69, velocity=0, time=48),\n",
       "  Message('note_on', channel=0, note=71, velocity=94, time=12),\n",
       "  Message('note_on', channel=0, note=71, velocity=0, time=48),\n",
       "  Message('note_on', channel=0, note=67, velocity=94, time=12),\n",
       "  Message('note_on', channel=0, note=67, velocity=0, time=48),\n",
       "  Message('note_on', channel=0, note=69, velocity=94, time=12),\n",
       "  Message('note_on', channel=0, note=69, velocity=0, time=48),\n",
       "  Message('note_on', channel=0, note=71, velocity=94, time=12),\n",
       "  Message('note_on', channel=0, note=71, velocity=0, time=48),\n",
       "  Message('note_on', channel=0, note=74, velocity=94, time=12),\n",
       "  Message('note_on', channel=0, note=74, velocity=0, time=48),\n",
       "  Message('note_on', channel=0, note=72, velocity=94, time=12),\n",
       "  Message('note_on', channel=0, note=72, velocity=0, time=48),\n",
       "  Message('note_on', channel=0, note=72, velocity=94, time=12),\n",
       "  Message('note_on', channel=0, note=72, velocity=0, time=48),\n",
       "  Message('note_on', channel=0, note=76, velocity=94, time=12),\n",
       "  Message('note_on', channel=0, note=76, velocity=0, time=48),\n",
       "  Message('note_on', channel=0, note=74, velocity=94, time=12),\n",
       "  Message('note_on', channel=0, note=74, velocity=0, time=48),\n",
       "  Message('note_on', channel=0, note=74, velocity=94, time=12),\n",
       "  Message('note_on', channel=0, note=74, velocity=0, time=48),\n",
       "  Message('note_on', channel=0, note=79, velocity=94, time=12),\n",
       "  Message('note_on', channel=0, note=79, velocity=0, time=48),\n",
       "  Message('note_on', channel=0, note=78, velocity=94, time=12),\n",
       "  Message('note_on', channel=0, note=78, velocity=0, time=48),\n",
       "  Message('note_on', channel=0, note=79, velocity=94, time=12),\n",
       "  Message('note_on', channel=0, note=79, velocity=0, time=48),\n",
       "  Message('note_on', channel=0, note=74, velocity=94, time=12),\n",
       "  Message('note_on', channel=0, note=74, velocity=0, time=48),\n",
       "  Message('note_on', channel=0, note=71, velocity=94, time=12),\n",
       "  Message('note_on', channel=0, note=71, velocity=0, time=48),\n",
       "  Message('note_on', channel=0, note=67, velocity=94, time=12),\n",
       "  Message('note_on', channel=0, note=67, velocity=0, time=48),\n",
       "  Message('note_on', channel=0, note=69, velocity=94, time=12),\n",
       "  Message('note_on', channel=0, note=69, velocity=0, time=48),\n",
       "  Message('note_on', channel=0, note=71, velocity=94, time=12),\n",
       "  Message('note_on', channel=0, note=71, velocity=0, time=48),\n",
       "  Message('note_on', channel=0, note=64, velocity=94, time=12),\n",
       "  Message('note_on', channel=0, note=64, velocity=0, time=48),\n",
       "  Message('note_on', channel=0, note=74, velocity=94, time=12),\n",
       "  Message('note_on', channel=0, note=74, velocity=0, time=48),\n",
       "  Message('note_on', channel=0, note=72, velocity=94, time=12),\n",
       "  Message('note_on', channel=0, note=72, velocity=0, time=48),\n",
       "  Message('note_on', channel=0, note=71, velocity=94, time=12),\n",
       "  Message('note_on', channel=0, note=71, velocity=0, time=48),\n",
       "  Message('note_on', channel=0, note=69, velocity=94, time=12),\n",
       "  Message('note_on', channel=0, note=69, velocity=0, time=48),\n",
       "  Message('note_on', channel=0, note=67, velocity=94, time=12),\n",
       "  Message('note_on', channel=0, note=67, velocity=0, time=48),\n",
       "  Message('note_on', channel=0, note=62, velocity=94, time=12),\n",
       "  Message('note_on', channel=0, note=62, velocity=0, time=48),\n",
       "  Message('note_on', channel=0, note=67, velocity=94, time=12),\n",
       "  Message('note_on', channel=0, note=67, velocity=0, time=48),\n",
       "  Message('note_on', channel=0, note=66, velocity=94, time=12),\n",
       "  Message('note_on', channel=0, note=66, velocity=0, time=48),\n",
       "  Message('note_on', channel=0, note=62, velocity=94, time=12),\n",
       "  Message('note_on', channel=0, note=67, velocity=94, time=0),\n",
       "  Message('note_on', channel=0, note=59, velocity=94, time=0),\n",
       "  Message('note_on', channel=0, note=55, velocity=94, time=0),\n",
       "  Message('note_on', channel=0, note=62, velocity=0, time=456),\n",
       "  Message('note_on', channel=0, note=67, velocity=0, time=0),\n",
       "  Message('note_on', channel=0, note=59, velocity=0, time=0),\n",
       "  Message('note_on', channel=0, note=55, velocity=0, time=0),\n",
       "  MetaMessage('end_of_track', time=0)])"
      ]
     },
     "execution_count": 17,
     "metadata": {},
     "output_type": "execute_result"
    }
   ],
   "source": [
    "mid2.tracks[1]"
   ]
  },
  {
   "cell_type": "code",
   "execution_count": null,
   "id": "83e464eb",
   "metadata": {
    "scrolled": false
   },
   "outputs": [],
   "source": [
    "// pending"
   ]
  }
 ],
 "metadata": {
  "kernelspec": {
   "display_name": "Python 3 (ipykernel)",
   "language": "python",
   "name": "python3"
  },
  "language_info": {
   "codemirror_mode": {
    "name": "ipython",
    "version": 3
   },
   "file_extension": ".py",
   "mimetype": "text/x-python",
   "name": "python",
   "nbconvert_exporter": "python",
   "pygments_lexer": "ipython3",
   "version": "3.7.9"
  }
 },
 "nbformat": 4,
 "nbformat_minor": 5
}
