{
 "cells": [
  {
   "cell_type": "markdown",
   "id": "858b13b7",
   "metadata": {},
   "source": [
    "### 피아노 Midi 사이트\n",
    "- https://www.freepianotutorials.net/2023/12/ludwig-goransson-can-you-hear-music.html#more\n",
    "- http://www.piano-midi.de/bach.htm"
   ]
  },
  {
   "cell_type": "markdown",
   "id": "233716ef",
   "metadata": {},
   "source": [
    "### Ⅰ. 라이브러리"
   ]
  },
  {
   "cell_type": "code",
   "execution_count": 1,
   "id": "6128a385",
   "metadata": {},
   "outputs": [],
   "source": [
    "import os\n",
    "import mido\n",
    "import numpy as np\n",
    "import pandas as pd\n",
    "\n",
    "from mido import MidiFile, MidiTrack, MetaMessage, Message"
   ]
  },
  {
   "cell_type": "code",
   "execution_count": 2,
   "id": "7d838922",
   "metadata": {},
   "outputs": [],
   "source": [
    "data_folder = \"midi_data\""
   ]
  },
  {
   "cell_type": "code",
   "execution_count": 317,
   "id": "7572bdf7",
   "metadata": {},
   "outputs": [],
   "source": [
    "def load_midi_data(input_name, target_name):\n",
    "    input_path  = os.path.join(data_folder, input_name)\n",
    "    target_path = os.path.join(data_folder, target_name)\n",
    "    \n",
    "    input_mid  = mido.MidiFile(input_path)\n",
    "    target_mid = mido.MidiFile(target_path)\n",
    "    \n",
    "    input_mid.tracks  = input_mid.tracks[0:2]\n",
    "    target_mid.tracks = target_mid.tracks[0:2]\n",
    "    \n",
    "    #######################################################\n",
    "    ######## merge : tick 때문에 merge 하지 않음\n",
    "    #######################################################\n",
    "    \n",
    "    # input_mid = mido.merge_tracks(input_mid.tracks)\n",
    "    # target_mid = mido.merge_tracks(target_mid.tracks)\n",
    "    \n",
    "    return input_mid, target_mid"
   ]
  },
  {
   "cell_type": "code",
   "execution_count": 2,
   "id": "5e0b1cbc",
   "metadata": {},
   "outputs": [],
   "source": [
    "mid1 = mido.MidiFile(\"midi_data/han_test_rivers_flow.mid\")\n",
    "mid2 = mido.MidiFile(\"midi_data/combination_test_data.mid\")\n",
    "mid3 = mido.MidiFile(\"midi_data/원본 미디.mid\")\n"
   ]
  },
  {
   "cell_type": "code",
   "execution_count": 49,
   "id": "ccedf244",
   "metadata": {},
   "outputs": [],
   "source": [
    "mid1.tracks[0]+mid1.tracks[1]\n",
    "mid1.tracks[0].extend(mid1.tracks[1])"
   ]
  },
  {
   "cell_type": "code",
   "execution_count": 50,
   "id": "46d79d79",
   "metadata": {},
   "outputs": [
    {
     "data": {
      "text/plain": [
       "MidiTrack([\n",
       "  MetaMessage('track_name', name='MIDI', time=0),\n",
       "  MetaMessage('key_signature', key='A', time=0),\n",
       "  MetaMessage('end_of_track', time=0)])"
      ]
     },
     "execution_count": 50,
     "metadata": {},
     "output_type": "execute_result"
    }
   ],
   "source": [
    "mid1.tracks.pop(1)"
   ]
  },
  {
   "cell_type": "code",
   "execution_count": 53,
   "id": "e91c0546",
   "metadata": {},
   "outputs": [
    {
     "data": {
      "text/plain": [
       "MidiTrack([\n",
       "  MetaMessage('track_name', name='Yamaha MOX', time=0),\n",
       "  MetaMessage('end_of_track', time=0)])"
      ]
     },
     "execution_count": 53,
     "metadata": {},
     "output_type": "execute_result"
    }
   ],
   "source": [
    "mid1.tracks.pop(2)"
   ]
  },
  {
   "cell_type": "code",
   "execution_count": 51,
   "id": "f3ae3590",
   "metadata": {},
   "outputs": [
    {
     "name": "stdout",
     "output_type": "stream",
     "text": [
      "3\n",
      "5\n",
      "2\n"
     ]
    }
   ],
   "source": [
    "print(len(mid1.tracks))\n",
    "print(len(mid2.tracks))\n",
    "print(len(mid3.tracks))"
   ]
  },
  {
   "cell_type": "code",
   "execution_count": 60,
   "id": "9b0d89f6",
   "metadata": {},
   "outputs": [],
   "source": [
    "new_midi_file = mido.MidiFile()\n",
    "new_midi_file.tracks = mid1.tracks\n",
    "\n",
    "# 변경된 정보가 포함된 MIDI 파일 저장 (예시: 파일명 'output.mid')\n",
    "new_midi_file.save('midi_data/river_flows_in_you_test_v2.mid')"
   ]
  },
  {
   "cell_type": "code",
   "execution_count": 59,
   "id": "4ecd939b",
   "metadata": {},
   "outputs": [
    {
     "data": {
      "text/plain": [
       "[[MidiTrack([\n",
       "    MetaMessage('track_name', name='test_rivers_flow', time=0),\n",
       "    MetaMessage('set_tempo', tempo=1000000, time=0),\n",
       "    MetaMessage('time_signature', numerator=4, denominator=4, clocks_per_click=24, notated_32nd_notes_per_beat=8, time=0),\n",
       "    MetaMessage('end_of_track', time=0),\n",
       "    MetaMessage('track_name', name='MIDI', time=0),\n",
       "    MetaMessage('key_signature', key='A', time=0),\n",
       "    MetaMessage('end_of_track', time=0)]),\n",
       "  MidiTrack([\n",
       "    MetaMessage('track_name', name='Piano', time=0),\n",
       "    Message('note_on', channel=0, note=80, velocity=36, time=253),\n",
       "    Message('note_on', channel=0, note=80, velocity=36, time=1),\n",
       "    Message('note_on', channel=0, note=61, velocity=17, time=4),\n",
       "    Message('note_on', channel=0, note=61, velocity=17, time=1),\n",
       "    Message('note_on', channel=0, note=61, velocity=0, time=146),\n",
       "    Message('note_on', channel=0, note=61, velocity=0, time=0),\n",
       "    Message('note_on', channel=0, note=81, velocity=53, time=63),\n",
       "    Message('note_on', channel=0, note=81, velocity=53, time=1),\n",
       "    Message('note_on', channel=0, note=66, velocity=36, time=8),\n",
       "    Message('note_on', channel=0, note=66, velocity=36, time=1),\n",
       "    Message('note_on', channel=0, note=80, velocity=0, time=8),\n",
       "    Message('note_on', channel=0, note=80, velocity=0, time=0),\n",
       "    Message('note_on', channel=0, note=66, velocity=0, time=35),\n",
       "    Message('note_on', channel=0, note=66, velocity=0, time=0),\n",
       "    Message('note_on', channel=0, note=81, velocity=0, time=147),\n",
       "    Message('note_on', channel=0, note=81, velocity=0, time=0),\n",
       "    Message('note_on', channel=0, note=80, velocity=58, time=33),\n",
       "    Message('note_on', channel=0, note=80, velocity=58, time=1),\n",
       "    Message('control_change', channel=0, control=64, value=120, time=214),\n",
       "    Message('control_change', channel=0, control=64, value=120, time=0),\n",
       "    Message('control_change', channel=0, control=64, value=114, time=3),\n",
       "    Message('control_change', channel=0, control=64, value=114, time=0),\n",
       "    Message('control_change', channel=0, control=64, value=110, time=5),\n",
       "    Message('control_change', channel=0, control=64, value=110, time=0),\n",
       "    Message('control_change', channel=0, control=64, value=108, time=4),\n",
       "    Message('control_change', channel=0, control=64, value=108, time=0),\n",
       "    Message('note_on', channel=0, note=50, velocity=38, time=5),\n",
       "    Message('note_on', channel=0, note=50, velocity=38, time=1),\n",
       "    Message('note_on', channel=0, note=81, velocity=59, time=6),\n",
       "    Message('note_on', channel=0, note=81, velocity=59, time=0),\n",
       "    Message('control_change', channel=0, control=64, value=112, time=3),\n",
       "    Message('control_change', channel=0, control=64, value=112, time=0),\n",
       "    Message('control_change', channel=0, control=64, value=116, time=4),\n",
       "    Message('control_change', channel=0, control=64, value=116, time=0),\n",
       "    Message('control_change', channel=0, control=64, value=120, time=4),\n",
       "    Message('control_change', channel=0, control=64, value=120, time=0),\n",
       "    Message('control_change', channel=0, control=64, value=124, time=6),\n",
       "    Message('control_change', channel=0, control=64, value=124, time=0),\n",
       "    Message('control_change', channel=0, control=64, value=127, time=6),\n",
       "    Message('control_change', channel=0, control=64, value=127, time=0),\n",
       "    Message('note_on', channel=0, note=80, velocity=0, time=15),\n",
       "    Message('note_on', channel=0, note=80, velocity=0, time=1),\n",
       "    Message('note_on', channel=0, note=50, velocity=0, time=194),\n",
       "    Message('note_on', channel=0, note=50, velocity=0, time=0),\n",
       "    Message('note_on', channel=0, note=81, velocity=0, time=11),\n",
       "    Message('note_on', channel=0, note=81, velocity=0, time=0),\n",
       "    Message('note_on', channel=0, note=76, velocity=51, time=8),\n",
       "    Message('note_on', channel=0, note=76, velocity=51, time=0),\n",
       "    Message('note_on', channel=0, note=57, velocity=31, time=3),\n",
       "    Message('note_on', channel=0, note=57, velocity=31, time=1),\n",
       "    Message('note_on', channel=0, note=62, velocity=36, time=239),\n",
       "    Message('note_on', channel=0, note=62, velocity=36, time=1),\n",
       "    Message('note_on', channel=0, note=57, velocity=0, time=8),\n",
       "    Message('note_on', channel=0, note=57, velocity=0, time=0),\n",
       "    Message('note_on', channel=0, note=81, velocity=64, time=3),\n",
       "    Message('note_on', channel=0, note=81, velocity=64, time=1),\n",
       "    Message('note_on', channel=0, note=76, velocity=0, time=10),\n",
       "    Message('note_on', channel=0, note=76, velocity=0, time=0),\n",
       "    Message('note_on', channel=0, note=81, velocity=0, time=224),\n",
       "    Message('note_on', channel=0, note=81, velocity=0, time=0),\n",
       "    Message('note_on', channel=0, note=74, velocity=62, time=4),\n",
       "    Message('note_on', channel=0, note=74, velocity=62, time=0),\n",
       "    Message('note_on', channel=0, note=74, velocity=0, time=1401),\n",
       "    Message('note_on', channel=0, note=74, velocity=0, time=0),\n",
       "    Message('note_on', channel=0, note=69, velocity=40, time=206),\n",
       "    Message('note_on', channel=0, note=69, velocity=40, time=0),\n",
       "    Message('note_on', channel=0, note=62, velocity=0, time=8),\n",
       "    Message('note_on', channel=0, note=62, velocity=0, time=0),\n",
       "    Message('note_on', channel=0, note=69, velocity=0, time=62),\n",
       "    Message('note_on', channel=0, note=69, velocity=0, time=0),\n",
       "    Message('note_on', channel=0, note=81, velocity=48, time=26),\n",
       "    Message('note_on', channel=0, note=81, velocity=48, time=1),\n",
       "    Message('control_change', channel=0, control=64, value=126, time=14),\n",
       "    Message('control_change', channel=0, control=64, value=126, time=0),\n",
       "    Message('control_change', channel=0, control=64, value=68, time=10),\n",
       "    Message('control_change', channel=0, control=64, value=68, time=0),\n",
       "    Message('control_change', channel=0, control=64, value=2, time=13),\n",
       "    Message('control_change', channel=0, control=64, value=2, time=0),\n",
       "    Message('note_on', channel=0, note=54, velocity=29, time=2),\n",
       "    Message('note_on', channel=0, note=54, velocity=29, time=1),\n",
       "    Message('control_change', channel=0, control=64, value=0, time=0),\n",
       "    Message('control_change', channel=0, control=64, value=0, time=0),\n",
       "    Message('control_change', channel=0, control=64, value=2, time=23),\n",
       "    Message('control_change', channel=0, control=64, value=2, time=0),\n",
       "    Message('control_change', channel=0, control=64, value=16, time=3),\n",
       "    Message('control_change', channel=0, control=64, value=16, time=1),\n",
       "    Message('control_change', channel=0, control=64, value=30, time=6),\n",
       "    Message('control_change', channel=0, control=64, value=30, time=0),\n",
       "    Message('control_change', channel=0, control=64, value=48, time=5),\n",
       "    Message('control_change', channel=0, control=64, value=48, time=0),\n",
       "    Message('control_change', channel=0, control=64, value=64, time=4),\n",
       "    Message('control_change', channel=0, control=64, value=64, time=0),\n",
       "    Message('control_change', channel=0, control=64, value=80, time=5),\n",
       "    Message('control_change', channel=0, control=64, value=80, time=0),\n",
       "    Message('control_change', channel=0, control=64, value=98, time=6),\n",
       "    Message('control_change', channel=0, control=64, value=98, time=0),\n",
       "    Message('control_change', channel=0, control=64, value=114, time=3),\n",
       "    Message('control_change', channel=0, control=64, value=114, time=0),\n",
       "    Message('control_change', channel=0, control=64, value=127, time=5),\n",
       "    Message('control_change', channel=0, control=64, value=127, time=1),\n",
       "    Message('note_on', channel=0, note=54, velocity=0, time=59),\n",
       "    Message('note_on', channel=0, note=54, velocity=0, time=0),\n",
       "    Message('note_on', channel=0, note=81, velocity=0, time=5),\n",
       "    Message('note_on', channel=0, note=81, velocity=0, time=1),\n",
       "    Message('note_on', channel=0, note=80, velocity=48, time=24),\n",
       "    Message('note_on', channel=0, note=80, velocity=48, time=0),\n",
       "    Message('note_on', channel=0, note=61, velocity=36, time=9),\n",
       "    Message('note_on', channel=0, note=61, velocity=36, time=0),\n",
       "    Message('note_on', channel=0, note=61, velocity=0, time=132),\n",
       "    Message('note_on', channel=0, note=61, velocity=0, time=0),\n",
       "    Message('note_on', channel=0, note=66, velocity=46, time=112),\n",
       "    Message('note_on', channel=0, note=66, velocity=46, time=0),\n",
       "    Message('note_on', channel=0, note=80, velocity=0, time=6),\n",
       "    Message('note_on', channel=0, note=80, velocity=0, time=0),\n",
       "    Message('note_on', channel=0, note=81, velocity=57, time=1),\n",
       "    Message('note_on', channel=0, note=81, velocity=57, time=0),\n",
       "    Message('note_on', channel=0, note=66, velocity=0, time=66),\n",
       "    Message('note_on', channel=0, note=66, velocity=0, time=0),\n",
       "    Message('note_on', channel=0, note=81, velocity=0, time=126),\n",
       "    Message('note_on', channel=0, note=81, velocity=0, time=0),\n",
       "    Message('note_on', channel=0, note=80, velocity=53, time=21),\n",
       "    Message('note_on', channel=0, note=80, velocity=53, time=0),\n",
       "    Message('control_change', channel=0, control=64, value=116, time=206),\n",
       "    Message('control_change', channel=0, control=64, value=116, time=0),\n",
       "    Message('control_change', channel=0, control=64, value=106, time=5),\n",
       "    Message('control_change', channel=0, control=64, value=106, time=1),\n",
       "    Message('control_change', channel=0, control=64, value=98, time=5),\n",
       "    Message('control_change', channel=0, control=64, value=98, time=0),\n",
       "    Message('control_change', channel=0, control=64, value=92, time=3),\n",
       "    Message('control_change', channel=0, control=64, value=92, time=0),\n",
       "    Message('control_change', channel=0, control=64, value=88, time=5),\n",
       "    Message('control_change', channel=0, control=64, value=88, time=1),\n",
       "    Message('control_change', channel=0, control=64, value=86, time=5),\n",
       "    Message('control_change', channel=0, control=64, value=86, time=0),\n",
       "    Message('note_on', channel=0, note=81, velocity=46, time=17),\n",
       "    Message('note_on', channel=0, note=81, velocity=46, time=0),\n",
       "    Message('control_change', channel=0, control=64, value=88, time=3),\n",
       "    Message('control_change', channel=0, control=64, value=88, time=0),\n",
       "    Message('note_on', channel=0, note=50, velocity=32, time=4),\n",
       "    Message('note_on', channel=0, note=50, velocity=32, time=0),\n",
       "    Message('control_change', channel=0, control=64, value=90, time=3),\n",
       "    Message('control_change', channel=0, control=64, value=90, time=0),\n",
       "    Message('control_change', channel=0, control=64, value=94, time=6),\n",
       "    Message('control_change', channel=0, control=64, value=94, time=0),\n",
       "    Message('control_change', channel=0, control=64, value=96, time=6),\n",
       "    Message('control_change', channel=0, control=64, value=96, time=0),\n",
       "    Message('control_change', channel=0, control=64, value=100, time=3),\n",
       "    Message('control_change', channel=0, control=64, value=100, time=0),\n",
       "    Message('control_change', channel=0, control=64, value=106, time=6),\n",
       "    Message('control_change', channel=0, control=64, value=106, time=0),\n",
       "    Message('note_on', channel=0, note=80, velocity=0, time=2),\n",
       "    Message('note_on', channel=0, note=80, velocity=0, time=1),\n",
       "    Message('control_change', channel=0, control=64, value=112, time=3),\n",
       "    Message('control_change', channel=0, control=64, value=112, time=0),\n",
       "    Message('control_change', channel=0, control=64, value=118, time=5),\n",
       "    Message('control_change', channel=0, control=64, value=118, time=0),\n",
       "    Message('control_change', channel=0, control=64, value=124, time=2),\n",
       "    Message('control_change', channel=0, control=64, value=124, time=1),\n",
       "    Message('control_change', channel=0, control=64, value=127, time=5),\n",
       "    Message('control_change', channel=0, control=64, value=127, time=0),\n",
       "    Message('note_on', channel=0, note=81, velocity=0, time=183),\n",
       "    Message('note_on', channel=0, note=81, velocity=0, time=0),\n",
       "    Message('note_on', channel=0, note=76, velocity=48, time=25),\n",
       "    Message('note_on', channel=0, note=76, velocity=48, time=0),\n",
       "    Message('note_on', channel=0, note=57, velocity=35, time=4),\n",
       "    Message('note_on', channel=0, note=57, velocity=35, time=1),\n",
       "    Message('note_on', channel=0, note=50, velocity=0, time=3),\n",
       "    Message('note_on', channel=0, note=50, velocity=0, time=0),\n",
       "    Message('note_on', channel=0, note=57, velocity=0, time=218),\n",
       "    Message('note_on', channel=0, note=57, velocity=0, time=0),\n",
       "    Message('note_on', channel=0, note=62, velocity=30, time=9),\n",
       "    Message('note_on', channel=0, note=62, velocity=30, time=0),\n",
       "    Message('note_on', channel=0, note=81, velocity=57, time=4),\n",
       "    Message('note_on', channel=0, note=81, velocity=57, time=0),\n",
       "    Message('note_on', channel=0, note=76, velocity=0, time=14),\n",
       "    Message('note_on', channel=0, note=76, velocity=0, time=0),\n",
       "    Message('note_on', channel=0, note=81, velocity=0, time=196),\n",
       "    Message('note_on', channel=0, note=81, velocity=0, time=0),\n",
       "    Message('note_on', channel=0, note=74, velocity=53, time=21),\n",
       "    Message('note_on', channel=0, note=74, velocity=53, time=1),\n",
       "    Message('note_on', channel=0, note=74, velocity=0, time=1434),\n",
       "    Message('note_on', channel=0, note=74, velocity=0, time=0),\n",
       "    Message('note_on', channel=0, note=69, velocity=30, time=58),\n",
       "    Message('note_on', channel=0, note=69, velocity=30, time=1),\n",
       "    Message('note_on', channel=0, note=62, velocity=0, time=21),\n",
       "    Message('note_on', channel=0, note=62, velocity=0, time=0),\n",
       "    Message('note_on', channel=0, note=73, velocity=46, time=80),\n",
       "    Message('note_on', channel=0, note=73, velocity=46, time=0),\n",
       "    Message('note_on', channel=0, note=69, velocity=0, time=24),\n",
       "    Message('note_on', channel=0, note=69, velocity=0, time=0),\n",
       "    Message('control_change', channel=0, control=64, value=120, time=31),\n",
       "    Message('control_change', channel=0, control=64, value=120, time=0),\n",
       "    Message('control_change', channel=0, control=64, value=104, time=5),\n",
       "    Message('control_change', channel=0, control=64, value=104, time=0),\n",
       "    Message('control_change', channel=0, control=64, value=86, time=3),\n",
       "    Message('control_change', channel=0, control=64, value=86, time=0),\n",
       "    Message('control_change', channel=0, control=64, value=68, time=6),\n",
       "    Message('control_change', channel=0, control=64, value=68, time=1),\n",
       "    Message('control_change', channel=0, control=64, value=52, time=8),\n",
       "    Message('control_change', channel=0, control=64, value=52, time=0),\n",
       "    Message('control_change', channel=0, control=64, value=36, time=3),\n",
       "    Message('control_change', channel=0, control=64, value=36, time=0),\n",
       "    Message('control_change', channel=0, control=64, value=28, time=3),\n",
       "    Message('control_change', channel=0, control=64, value=28, time=1),\n",
       "    Message('control_change', channel=0, control=64, value=24, time=3),\n",
       "    Message('control_change', channel=0, control=64, value=24, time=0),\n",
       "    Message('note_on', channel=0, note=73, velocity=0, time=5),\n",
       "    Message('note_on', channel=0, note=73, velocity=0, time=1),\n",
       "    Message('note_on', channel=0, note=81, velocity=66, time=3),\n",
       "    Message('note_on', channel=0, note=81, velocity=66, time=1),\n",
       "    Message('note_on', channel=0, note=54, velocity=42, time=0),\n",
       "    Message('note_on', channel=0, note=54, velocity=42, time=1),\n",
       "    Message('control_change', channel=0, control=64, value=28, time=3),\n",
       "    Message('control_change', channel=0, control=64, value=28, time=0),\n",
       "    Message('control_change', channel=0, control=64, value=38, time=3),\n",
       "    Message('control_change', channel=0, control=64, value=38, time=0),\n",
       "    Message('control_change', channel=0, control=64, value=52, time=3),\n",
       "    Message('control_change', channel=0, control=64, value=52, time=0),\n",
       "    Message('control_change', channel=0, control=64, value=64, time=6),\n",
       "    Message('control_change', channel=0, control=64, value=64, time=0),\n",
       "    Message('control_change', channel=0, control=64, value=78, time=3),\n",
       "    Message('control_change', channel=0, control=64, value=78, time=0),\n",
       "    Message('control_change', channel=0, control=64, value=94, time=4),\n",
       "    Message('control_change', channel=0, control=64, value=94, time=0),\n",
       "    Message('control_change', channel=0, control=64, value=110, time=7),\n",
       "    Message('control_change', channel=0, control=64, value=110, time=0),\n",
       "    Message('control_change', channel=0, control=64, value=127, time=5),\n",
       "    Message('control_change', channel=0, control=64, value=127, time=0),\n",
       "    Message('note_on', channel=0, note=54, velocity=0, time=118),\n",
       "    Message('note_on', channel=0, note=54, velocity=0, time=0),\n",
       "    Message('note_on', channel=0, note=81, velocity=0, time=8),\n",
       "    Message('note_on', channel=0, note=81, velocity=0, time=0),\n",
       "    Message('note_on', channel=0, note=80, velocity=58, time=36),\n",
       "    Message('note_on', channel=0, note=80, velocity=58, time=0),\n",
       "    Message('note_on', channel=0, note=61, velocity=47, time=4),\n",
       "    Message('note_on', channel=0, note=61, velocity=47, time=0),\n",
       "    Message('note_on', channel=0, note=61, velocity=0, time=132),\n",
       "    Message('note_on', channel=0, note=61, velocity=0, time=0),\n",
       "    Message('note_on', channel=0, note=81, velocity=62, time=4),\n",
       "    Message('note_on', channel=0, note=81, velocity=62, time=1),\n",
       "    Message('note_on', channel=0, note=80, velocity=0, time=45),\n",
       "    Message('note_on', channel=0, note=80, velocity=0, time=0),\n",
       "    Message('note_on', channel=0, note=66, velocity=60, time=105),\n",
       "    Message('note_on', channel=0, note=66, velocity=60, time=0),\n",
       "    Message('note_on', channel=0, note=66, velocity=0, time=86),\n",
       "    Message('note_on', channel=0, note=66, velocity=0, time=0),\n",
       "    Message('note_on', channel=0, note=81, velocity=0, time=22),\n",
       "    Message('note_on', channel=0, note=81, velocity=0, time=0),\n",
       "    Message('note_on', channel=0, note=69, velocity=53, time=4),\n",
       "    Message('note_on', channel=0, note=69, velocity=53, time=1),\n",
       "    Message('note_on', channel=0, note=80, velocity=51, time=113),\n",
       "    Message('note_on', channel=0, note=80, velocity=51, time=0),\n",
       "    Message('note_on', channel=0, note=69, velocity=0, time=38),\n",
       "    Message('note_on', channel=0, note=69, velocity=0, time=1),\n",
       "    Message('note_on', channel=0, note=81, velocity=64, time=83),\n",
       "    Message('note_on', channel=0, note=81, velocity=64, time=1),\n",
       "    Message('note_on', channel=0, note=80, velocity=0, time=41),\n",
       "    Message('note_on', channel=0, note=80, velocity=0, time=0),\n",
       "    Message('control_change', channel=0, control=64, value=122, time=81),\n",
       "    Message('control_change', channel=0, control=64, value=122, time=0),\n",
       "    Message('control_change', channel=0, control=64, value=106, time=3),\n",
       "    Message('control_change', channel=0, control=64, value=106, time=0),\n",
       "    Message('control_change', channel=0, control=64, value=92, time=5),\n",
       "    Message('control_change', channel=0, control=64, value=92, time=0),\n",
       "    Message('note_on', channel=0, note=50, velocity=44, time=3),\n",
       "    Message('note_on', channel=0, note=50, velocity=44, time=1),\n",
       "    Message('control_change', channel=0, control=64, value=82, time=3),\n",
       "    Message('control_change', channel=0, control=64, value=82, time=0),\n",
       "    Message('control_change', channel=0, control=64, value=76, time=4),\n",
       "    Message('control_change', channel=0, control=64, value=76, time=0),\n",
       "    Message('control_change', channel=0, control=64, value=74, time=3),\n",
       "    Message('control_change', channel=0, control=64, value=74, time=0),\n",
       "    Message('control_change', channel=0, control=64, value=72, time=5),\n",
       "    Message('control_change', channel=0, control=64, value=72, time=0),\n",
       "    Message('control_change', channel=0, control=64, value=74, time=14),\n",
       "    Message('control_change', channel=0, control=64, value=74, time=0),\n",
       "    Message('control_change', channel=0, control=64, value=76, time=5),\n",
       "    Message('control_change', channel=0, control=64, value=76, time=0),\n",
       "    Message('control_change', channel=0, control=64, value=80, time=5),\n",
       "    Message('control_change', channel=0, control=64, value=80, time=0),\n",
       "    Message('control_change', channel=0, control=64, value=84, time=5),\n",
       "    Message('control_change', channel=0, control=64, value=84, time=0),\n",
       "    Message('control_change', channel=0, control=64, value=90, time=4),\n",
       "    Message('control_change', channel=0, control=64, value=90, time=0),\n",
       "    Message('control_change', channel=0, control=64, value=94, time=5),\n",
       "    Message('control_change', channel=0, control=64, value=94, time=0),\n",
       "    Message('control_change', channel=0, control=64, value=102, time=5),\n",
       "    Message('control_change', channel=0, control=64, value=102, time=1),\n",
       "    Message('control_change', channel=0, control=64, value=110, time=5),\n",
       "    Message('control_change', channel=0, control=64, value=110, time=0),\n",
       "    Message('control_change', channel=0, control=64, value=118, time=3),\n",
       "    Message('control_change', channel=0, control=64, value=118, time=0),\n",
       "    Message('control_change', channel=0, control=64, value=124, time=5),\n",
       "    Message('control_change', channel=0, control=64, value=124, time=0),\n",
       "    Message('control_change', channel=0, control=64, value=127, time=5),\n",
       "    Message('control_change', channel=0, control=64, value=127, time=0),\n",
       "    Message('note_on', channel=0, note=81, velocity=0, time=14),\n",
       "    Message('note_on', channel=0, note=81, velocity=0, time=0),\n",
       "    Message('note_on', channel=0, note=69, velocity=51, time=23),\n",
       "    Message('note_on', channel=0, note=69, velocity=51, time=1),\n",
       "    Message('note_on', channel=0, note=50, velocity=0, time=112),\n",
       "    Message('note_on', channel=0, note=50, velocity=0, time=0),\n",
       "    Message('note_on', channel=0, note=57, velocity=44, time=1),\n",
       "    Message('note_on', channel=0, note=57, velocity=44, time=0),\n",
       "    Message('note_on', channel=0, note=76, velocity=59, time=5),\n",
       "    Message('note_on', channel=0, note=76, velocity=59, time=1),\n",
       "    Message('note_on', channel=0, note=69, velocity=0, time=15),\n",
       "    Message('note_on', channel=0, note=69, velocity=0, time=0),\n",
       "    Message('note_on', channel=0, note=81, velocity=64, time=108),\n",
       "    Message('note_on', channel=0, note=81, velocity=64, time=1),\n",
       "    Message('note_on', channel=0, note=76, velocity=0, time=28),\n",
       "    Message('note_on', channel=0, note=76, velocity=0, time=0),\n",
       "    Message('note_on', channel=0, note=62, velocity=42, time=66),\n",
       "    Message('note_on', channel=0, note=62, velocity=42, time=1),\n",
       "    Message('note_on', channel=0, note=57, velocity=0, time=19),\n",
       "    Message('note_on', channel=0, note=57, velocity=0, time=0),\n",
       "    Message('note_on', channel=0, note=62, velocity=0, time=80),\n",
       "    Message('note_on', channel=0, note=62, velocity=0, time=0),\n",
       "    Message('note_on', channel=0, note=81, velocity=0, time=3),\n",
       "    Message('note_on', channel=0, note=81, velocity=0, time=0),\n",
       "    Message('note_on', channel=0, note=69, velocity=51, time=26),\n",
       "    Message('note_on', channel=0, note=69, velocity=51, time=0),\n",
       "    Message('note_on', channel=0, note=74, velocity=57, time=118),\n",
       "    Message('note_on', channel=0, note=74, velocity=57, time=1),\n",
       "    Message('note_on', channel=0, note=69, velocity=0, time=3),\n",
       "    Message('note_on', channel=0, note=69, velocity=0, time=0),\n",
       "    Message('note_on', channel=0, note=69, velocity=53, time=100),\n",
       "    Message('note_on', channel=0, note=69, velocity=53, time=0),\n",
       "    Message('note_on', channel=0, note=74, velocity=0, time=3),\n",
       "    Message('note_on', channel=0, note=74, velocity=0, time=0),\n",
       "    Message('note_on', channel=0, note=73, velocity=65, time=148),\n",
       "    Message('note_on', channel=0, note=73, velocity=65, time=1),\n",
       "    Message('note_on', channel=0, note=45, velocity=36, time=0),\n",
       "    Message('note_on', channel=0, note=45, velocity=36, time=1),\n",
       "    Message('note_on', channel=0, note=69, velocity=0, time=8),\n",
       "    Message('note_on', channel=0, note=69, velocity=0, time=0),\n",
       "    Message('note_on', channel=0, note=74, velocity=59, time=208),\n",
       "    Message('note_on', channel=0, note=74, velocity=59, time=1),\n",
       "    Message('note_on', channel=0, note=45, velocity=0, time=6),\n",
       "    Message('note_on', channel=0, note=45, velocity=0, time=0),\n",
       "    Message('note_on', channel=0, note=52, velocity=46, time=1),\n",
       "    Message('note_on', channel=0, note=52, velocity=46, time=1),\n",
       "    Message('note_on', channel=0, note=73, velocity=0, time=4),\n",
       "    Message('note_on', channel=0, note=73, velocity=0, time=0),\n",
       "    Message('note_on', channel=0, note=52, velocity=0, time=197),\n",
       "    Message('note_on', channel=0, note=52, velocity=0, time=0),\n",
       "    Message('note_on', channel=0, note=57, velocity=40, time=29),\n",
       "    Message('note_on', channel=0, note=57, velocity=40, time=1),\n",
       "    Message('note_on', channel=0, note=74, velocity=0, time=8),\n",
       "    Message('note_on', channel=0, note=74, velocity=0, time=0),\n",
       "    Message('note_on', channel=0, note=76, velocity=51, time=6),\n",
       "    Message('note_on', channel=0, note=76, velocity=51, time=0),\n",
       "    Message('note_on', channel=0, note=57, velocity=0, time=66),\n",
       "    Message('note_on', channel=0, note=57, velocity=0, time=0),\n",
       "    Message('note_on', channel=0, note=76, velocity=0, time=158),\n",
       "    Message('note_on', channel=0, note=76, velocity=0, time=0),\n",
       "    Message('note_on', channel=0, note=73, velocity=65, time=11),\n",
       "    Message('note_on', channel=0, note=73, velocity=65, time=1),\n",
       "    Message('control_change', channel=0, control=64, value=124, time=190),\n",
       "    Message('control_change', channel=0, control=64, value=124, time=1),\n",
       "    Message('control_change', channel=0, control=64, value=102, time=5),\n",
       "    Message('control_change', channel=0, control=64, value=102, time=0),\n",
       "    Message('control_change', channel=0, control=64, value=78, time=4),\n",
       "    Message('control_change', channel=0, control=64, value=78, time=0),\n",
       "    Message('control_change', channel=0, control=64, value=56, time=8),\n",
       "    Message('control_change', channel=0, control=64, value=56, time=0),\n",
       "    Message('control_change', channel=0, control=64, value=36, time=4),\n",
       "    Message('control_change', channel=0, control=64, value=36, time=0),\n",
       "    Message('control_change', channel=0, control=64, value=20, time=3),\n",
       "    Message('control_change', channel=0, control=64, value=20, time=0),\n",
       "    Message('control_change', channel=0, control=64, value=10, time=3),\n",
       "    Message('control_change', channel=0, control=64, value=10, time=0),\n",
       "    Message('control_change', channel=0, control=64, value=6, time=6),\n",
       "    Message('control_change', channel=0, control=64, value=6, time=0),\n",
       "    Message('note_on', channel=0, note=52, velocity=35, time=6),\n",
       "    Message('note_on', channel=0, note=52, velocity=35, time=0),\n",
       "    Message('control_change', channel=0, control=64, value=10, time=4),\n",
       "    Message('control_change', channel=0, control=64, value=10, time=0),\n",
       "    Message('control_change', channel=0, control=64, value=18, time=6),\n",
       "    Message('control_change', channel=0, control=64, value=18, time=0),\n",
       "    Message('control_change', channel=0, control=64, value=28, time=3),\n",
       "    Message('control_change', channel=0, control=64, value=28, time=0),\n",
       "    Message('note_on', channel=0, note=71, velocity=59, time=3),\n",
       "    Message('note_on', channel=0, note=71, velocity=59, time=0),\n",
       "    Message('control_change', channel=0, control=64, value=70, time=7),\n",
       "    Message('control_change', channel=0, control=64, value=70, time=0),\n",
       "    Message('note_on', channel=0, note=73, velocity=0, time=8),\n",
       "    Message('note_on', channel=0, note=73, velocity=0, time=0),\n",
       "    Message('control_change', channel=0, control=64, value=127, time=11),\n",
       "    Message('control_change', channel=0, control=64, value=127, time=0),\n",
       "    Message('note_on', channel=0, note=71, velocity=0, time=177),\n",
       "    Message('note_on', channel=0, note=71, velocity=0, time=0),\n",
       "    Message('note_on', channel=0, note=59, velocity=51, time=38),\n",
       "    Message('note_on', channel=0, note=59, velocity=51, time=1),\n",
       "    Message('note_on', channel=0, note=52, velocity=0, time=15),\n",
       "    Message('note_on', channel=0, note=52, velocity=0, time=0),\n",
       "    Message('note_on', channel=0, note=64, velocity=51, time=216),\n",
       "    Message('note_on', channel=0, note=64, velocity=51, time=1),\n",
       "    Message('note_on', channel=0, note=59, velocity=0, time=28),\n",
       "    Message('note_on', channel=0, note=59, velocity=0, time=0),\n",
       "    Message('note_on', channel=0, note=64, velocity=0, time=184),\n",
       "    Message('note_on', channel=0, note=64, velocity=0, time=0),\n",
       "    Message('note_on', channel=0, note=69, velocity=42, time=37),\n",
       "    Message('note_on', channel=0, note=69, velocity=42, time=0),\n",
       "    Message('note_on', channel=0, note=69, velocity=0, time=123),\n",
       "    Message('note_on', channel=0, note=69, velocity=0, time=0),\n",
       "    Message('note_on', channel=0, note=68, velocity=63, time=2),\n",
       "    Message('note_on', channel=0, note=68, velocity=63, time=0),\n",
       "    Message('control_change', channel=0, control=64, value=20, time=94),\n",
       "    Message('control_change', channel=0, control=64, value=20, time=0),\n",
       "    Message('control_change', channel=0, control=64, value=0, time=8),\n",
       "    Message('control_change', channel=0, control=64, value=0, time=0),\n",
       "    Message('note_on', channel=0, note=69, velocity=55, time=14),\n",
       "    Message('note_on', channel=0, note=69, velocity=55, time=0),\n",
       "    Message('note_on', channel=0, note=54, velocity=39, time=6),\n",
       "    Message('note_on', channel=0, note=54, velocity=39, time=0),\n",
       "    Message('control_change', channel=0, control=64, value=1, time=18),\n",
       "    Message('control_change', channel=0, control=64, value=1, time=0),\n",
       "    Message('note_on', channel=0, note=68, velocity=0, time=1),\n",
       "    Message('note_on', channel=0, note=68, velocity=0, time=0),\n",
       "    Message('control_change', channel=0, control=64, value=64, time=9),\n",
       "    Message('control_change', channel=0, control=64, value=64, time=0),\n",
       "    Message('control_change', channel=0, control=64, value=94, time=5),\n",
       "    Message('control_change', channel=0, control=64, value=94, time=0),\n",
       "    Message('control_change', channel=0, control=64, value=126, time=6),\n",
       "    Message('control_change', channel=0, control=64, value=126, time=0),\n",
       "    Message('control_change', channel=0, control=64, value=127, time=3),\n",
       "    Message('control_change', channel=0, control=64, value=127, time=0),\n",
       "    Message('note_on', channel=0, note=69, velocity=0, time=140),\n",
       "    Message('note_on', channel=0, note=69, velocity=0, time=0),\n",
       "    Message('note_on', channel=0, note=61, velocity=39, time=51),\n",
       "    Message('note_on', channel=0, note=61, velocity=39, time=0),\n",
       "    Message('note_on', channel=0, note=54, velocity=0, time=2),\n",
       "    Message('note_on', channel=0, note=54, velocity=0, time=0),\n",
       "    Message('note_on', channel=0, note=61, velocity=0, time=180),\n",
       "    Message('note_on', channel=0, note=61, velocity=0, time=1),\n",
       "    Message('note_on', channel=0, note=66, velocity=48, time=45),\n",
       "    Message('note_on', channel=0, note=66, velocity=48, time=1),\n",
       "    Message('note_on', channel=0, note=66, velocity=0, time=88),\n",
       "    Message('note_on', channel=0, note=66, velocity=0, time=0),\n",
       "    Message('note_on', channel=0, note=64, velocity=48, time=34),\n",
       "    Message('note_on', channel=0, note=64, velocity=48, time=0),\n",
       "    Message('note_on', channel=0, note=64, velocity=0, time=99),\n",
       "    Message('note_on', channel=0, note=64, velocity=0, time=0),\n",
       "    Message('note_on', channel=0, note=69, velocity=46, time=18),\n",
       "    Message('note_on', channel=0, note=69, velocity=46, time=1),\n",
       "    Message('note_on', channel=0, note=71, velocity=42, time=122),\n",
       "    Message('note_on', channel=0, note=71, velocity=42, time=0),\n",
       "    Message('note_on', channel=0, note=69, velocity=0, time=8),\n",
       "    Message('note_on', channel=0, note=69, velocity=0, time=0),\n",
       "    Message('control_change', channel=0, control=64, value=122, time=86),\n",
       "    Message('control_change', channel=0, control=64, value=122, time=1),\n",
       "    Message('control_change', channel=0, control=64, value=94, time=2),\n",
       "    Message('control_change', channel=0, control=64, value=94, time=1),\n",
       "    Message('control_change', channel=0, control=64, value=64, time=5),\n",
       "    Message('control_change', channel=0, control=64, value=64, time=0),\n",
       "    Message('control_change', channel=0, control=64, value=32, time=7),\n",
       "    Message('control_change', channel=0, control=64, value=32, time=0),\n",
       "    Message('control_change', channel=0, control=64, value=10, time=3),\n",
       "    Message('control_change', channel=0, control=64, value=10, time=0),\n",
       "    Message('control_change', channel=0, control=64, value=0, time=5),\n",
       "    Message('control_change', channel=0, control=64, value=0, time=1),\n",
       "    Message('note_on', channel=0, note=50, velocity=44, time=5),\n",
       "    Message('note_on', channel=0, note=50, velocity=44, time=0),\n",
       "    Message('note_on', channel=0, note=73, velocity=60, time=7),\n",
       "    Message('note_on', channel=0, note=73, velocity=60, time=1),\n",
       "    Message('control_change', channel=0, control=64, value=2, time=0),\n",
       "    Message('control_change', channel=0, control=64, value=2, time=0),\n",
       "    Message('control_change', channel=0, control=64, value=16, time=4),\n",
       "    Message('control_change', channel=0, control=64, value=16, time=1),\n",
       "    Message('control_change', channel=0, control=64, value=36, time=6),\n",
       "    Message('control_change', channel=0, control=64, value=36, time=0),\n",
       "    Message('note_on', channel=0, note=71, velocity=0, time=2),\n",
       "    Message('note_on', channel=0, note=71, velocity=0, time=1),\n",
       "    Message('control_change', channel=0, control=64, value=58, time=3),\n",
       "    Message('control_change', channel=0, control=64, value=58, time=0),\n",
       "    Message('control_change', channel=0, control=64, value=78, time=3),\n",
       "    Message('control_change', channel=0, control=64, value=78, time=0),\n",
       "    Message('control_change', channel=0, control=64, value=102, time=3),\n",
       "    Message('control_change', channel=0, control=64, value=102, time=0),\n",
       "    Message('control_change', channel=0, control=64, value=127, time=6),\n",
       "    Message('control_change', channel=0, control=64, value=127, time=0),\n",
       "    Message('note_on', channel=0, note=50, velocity=0, time=134),\n",
       "    Message('note_on', channel=0, note=50, velocity=0, time=1),\n",
       "    Message('note_on', channel=0, note=73, velocity=0, time=40),\n",
       "    Message('note_on', channel=0, note=73, velocity=0, time=0),\n",
       "    Message('note_on', channel=0, note=57, velocity=40, time=18),\n",
       "    Message('note_on', channel=0, note=57, velocity=40, time=0),\n",
       "    Message('note_on', channel=0, note=62, velocity=59, time=253),\n",
       "    Message('note_on', channel=0, note=62, velocity=59, time=0),\n",
       "    Message('note_on', channel=0, note=57, velocity=0, time=50),\n",
       "    Message('note_on', channel=0, note=57, velocity=0, time=1),\n",
       "    Message('note_on', channel=0, note=62, velocity=0, time=116),\n",
       "    Message('note_on', channel=0, note=62, velocity=0, time=0),\n",
       "    Message('note_on', channel=0, note=73, velocity=51, time=76),\n",
       "    Message('note_on', channel=0, note=73, velocity=51, time=0),\n",
       "    Message('note_on', channel=0, note=74, velocity=44, time=107),\n",
       "    Message('note_on', channel=0, note=74, velocity=44, time=1),\n",
       "    Message('note_on', channel=0, note=73, velocity=0, time=18),\n",
       "    Message('note_on', channel=0, note=73, velocity=0, time=0),\n",
       "    Message('control_change', channel=0, control=64, value=34, time=100),\n",
       "    Message('control_change', channel=0, control=64, value=34, time=0),\n",
       "    Message('control_change', channel=0, control=64, value=1, time=4),\n",
       "    Message('control_change', channel=0, control=64, value=1, time=0),\n",
       "    Message('control_change', channel=0, control=64, value=0, time=5),\n",
       "    Message('control_change', channel=0, control=64, value=0, time=0),\n",
       "    Message('note_on', channel=0, note=76, velocity=59, time=6),\n",
       "    Message('note_on', channel=0, note=76, velocity=59, time=0),\n",
       "    Message('note_on', channel=0, note=45, velocity=44, time=9),\n",
       "    Message('note_on', channel=0, note=45, velocity=44, time=0),\n",
       "    Message('note_on', channel=0, note=74, velocity=0, time=19),\n",
       "    Message('note_on', channel=0, note=74, velocity=0, time=0),\n",
       "    Message('control_change', channel=0, control=64, value=14, time=4),\n",
       "    Message('control_change', channel=0, control=64, value=14, time=0),\n",
       "    Message('control_change', channel=0, control=64, value=38, time=4),\n",
       "    Message('control_change', channel=0, control=64, value=38, time=0),\n",
       "    Message('control_change', channel=0, control=64, value=65, time=6),\n",
       "    Message('control_change', channel=0, control=64, value=65, time=0),\n",
       "    Message('control_change', channel=0, control=64, value=90, time=4),\n",
       "    Message('control_change', channel=0, control=64, value=90, time=0),\n",
       "    Message('control_change', channel=0, control=64, value=114, time=4),\n",
       "    Message('control_change', channel=0, control=64, value=114, time=0),\n",
       "    Message('control_change', channel=0, control=64, value=127, time=5),\n",
       "    Message('control_change', channel=0, control=64, value=127, time=1),\n",
       "    Message('note_on', channel=0, note=45, velocity=0, time=163),\n",
       "    Message('note_on', channel=0, note=45, velocity=0, time=0),\n",
       "    Message('note_on', channel=0, note=52, velocity=38, time=9),\n",
       "    Message('note_on', channel=0, note=52, velocity=38, time=0),\n",
       "    Message('note_on', channel=0, note=57, velocity=46, time=228),\n",
       "    Message('note_on', channel=0, note=57, velocity=46, time=0),\n",
       "    Message('note_on', channel=0, note=52, velocity=0, time=6),\n",
       "    Message('note_on', channel=0, note=52, velocity=0, time=0),\n",
       "    Message('note_on', channel=0, note=73, velocity=68, time=5),\n",
       "    Message('note_on', channel=0, note=73, velocity=68, time=1),\n",
       "    Message('note_on', channel=0, note=76, velocity=0, time=23),\n",
       "    Message('note_on', channel=0, note=76, velocity=0, time=0),\n",
       "    Message('note_on', channel=0, note=57, velocity=0, time=59),\n",
       "    Message('note_on', channel=0, note=57, velocity=0, time=0),\n",
       "    Message('note_on', channel=0, note=74, velocity=51, time=143),\n",
       "    Message('note_on', channel=0, note=74, velocity=51, time=1),\n",
       "    Message('note_on', channel=0, note=73, velocity=0, time=11),\n",
       "    Message('note_on', channel=0, note=73, velocity=0, time=0),\n",
       "    Message('note_on', channel=0, note=73, velocity=63, time=114),\n",
       "    Message('note_on', channel=0, note=73, velocity=63, time=1),\n",
       "    Message('note_on', channel=0, note=74, velocity=0, time=25),\n",
       "    Message('note_on', channel=0, note=74, velocity=0, time=0),\n",
       "    Message('control_change', channel=0, control=64, value=122, time=72),\n",
       "    Message('control_change', channel=0, control=64, value=122, time=0),\n",
       "    Message('control_change', channel=0, control=64, value=96, time=5),\n",
       "    Message('control_change', channel=0, control=64, value=96, time=0),\n",
       "    Message('control_change', channel=0, control=64, value=72, time=4),\n",
       "    Message('control_change', channel=0, control=64, value=72, time=0),\n",
       "    Message('control_change', channel=0, control=64, value=48, time=6),\n",
       "    Message('control_change', channel=0, control=64, value=48, time=0),\n",
       "    Message('control_change', channel=0, control=64, value=8, time=8),\n",
       "    Message('control_change', channel=0, control=64, value=8, time=1),\n",
       "    Message('note_on', channel=0, note=52, velocity=44, time=4),\n",
       "    Message('note_on', channel=0, note=52, velocity=44, time=1),\n",
       "    Message('control_change', channel=0, control=64, value=0, time=1),\n",
       "    Message('control_change', channel=0, control=64, value=0, time=0),\n",
       "    Message('note_on', channel=0, note=71, velocity=59, time=6),\n",
       "    Message('note_on', channel=0, note=71, velocity=59, time=0),\n",
       "    Message('note_on', channel=0, note=73, velocity=0, time=13),\n",
       "    Message('note_on', channel=0, note=73, velocity=0, time=1),\n",
       "    Message('control_change', channel=0, control=64, value=2, time=8),\n",
       "    Message('control_change', channel=0, control=64, value=2, time=0),\n",
       "    Message('control_change', channel=0, control=64, value=14, time=4),\n",
       "    Message('control_change', channel=0, control=64, value=14, time=0),\n",
       "    Message('control_change', channel=0, control=64, value=30, time=7),\n",
       "    Message('control_change', channel=0, control=64, value=30, time=0),\n",
       "    Message('control_change', channel=0, control=64, value=50, time=3),\n",
       "    Message('control_change', channel=0, control=64, value=50, time=0),\n",
       "    Message('control_change', channel=0, control=64, value=65, time=5),\n",
       "    Message('control_change', channel=0, control=64, value=65, time=0),\n",
       "    Message('control_change', channel=0, control=64, value=84, time=5),\n",
       "    Message('control_change', channel=0, control=64, value=84, time=0),\n",
       "    Message('control_change', channel=0, control=64, value=102, time=6),\n",
       "    Message('control_change', channel=0, control=64, value=102, time=0),\n",
       "    Message('control_change', channel=0, control=64, value=118, time=3),\n",
       "    Message('control_change', channel=0, control=64, value=118, time=0),\n",
       "    Message('control_change', channel=0, control=64, value=127, time=5),\n",
       "    Message('control_change', channel=0, control=64, value=127, time=0),\n",
       "    Message('note_on', channel=0, note=59, velocity=35, time=186),\n",
       "    Message('note_on', channel=0, note=59, velocity=35, time=1),\n",
       "    Message('note_on', channel=0, note=52, velocity=0, time=0),\n",
       "    Message('note_on', channel=0, note=52, velocity=0, time=0),\n",
       "    Message('note_on', channel=0, note=71, velocity=0, time=23),\n",
       "    Message('note_on', channel=0, note=71, velocity=0, time=0),\n",
       "    Message('note_on', channel=0, note=64, velocity=51, time=210),\n",
       "    Message('note_on', channel=0, note=64, velocity=51, time=0),\n",
       "    Message('note_on', channel=0, note=59, velocity=0, time=44),\n",
       "    Message('note_on', channel=0, note=59, velocity=0, time=0),\n",
       "    Message('note_on', channel=0, note=69, velocity=48, time=179),\n",
       "    Message('note_on', channel=0, note=69, velocity=48, time=1),\n",
       "    Message('note_on', channel=0, note=64, velocity=0, time=58),\n",
       "    Message('note_on', channel=0, note=64, velocity=0, time=0),\n",
       "    Message('note_on', channel=0, note=73, velocity=56, time=69),\n",
       "    Message('note_on', channel=0, note=73, velocity=56, time=0),\n",
       "    Message('note_on', channel=0, note=69, velocity=0, time=30),\n",
       "    Message('note_on', channel=0, note=69, velocity=0, time=1),\n",
       "    Message('control_change', channel=0, control=64, value=124, time=73),\n",
       "    Message('control_change', channel=0, control=64, value=124, time=1),\n",
       "    Message('control_change', channel=0, control=64, value=104, time=5),\n",
       "    Message('control_change', channel=0, control=64, value=104, time=0),\n",
       "    Message('control_change', channel=0, control=64, value=82, time=5),\n",
       "    Message('control_change', channel=0, control=64, value=82, time=0),\n",
       "    Message('control_change', channel=0, control=64, value=62, time=4),\n",
       "    Message('control_change', channel=0, control=64, value=62, time=0),\n",
       "    Message('control_change', channel=0, control=64, value=44, time=6),\n",
       "    Message('control_change', channel=0, control=64, value=44, time=0),\n",
       "    Message('note_on', channel=0, note=81, velocity=62, time=3),\n",
       "    Message('note_on', channel=0, note=81, velocity=62, time=1),\n",
       "    Message('control_change', channel=0, control=64, value=30, time=1),\n",
       "    Message('control_change', channel=0, control=64, value=30, time=0),\n",
       "    Message('note_on', channel=0, note=54, velocity=31, time=2),\n",
       "    Message('note_on', channel=0, note=54, velocity=31, time=1),\n",
       "    Message('control_change', channel=0, control=64, value=22, time=3),\n",
       "    Message('control_change', channel=0, control=64, value=22, time=0),\n",
       "    Message('note_on', channel=0, note=73, velocity=0, time=1),\n",
       "    Message('note_on', channel=0, note=73, velocity=0, time=0),\n",
       "    Message('control_change', channel=0, control=64, value=16, time=2),\n",
       "    Message('control_change', channel=0, control=64, value=16, time=1),\n",
       "    Message('control_change', channel=0, control=64, value=14, time=3),\n",
       "    Message('control_change', channel=0, control=64, value=14, time=0),\n",
       "    Message('control_change', channel=0, control=64, value=12, time=5),\n",
       "    Message('control_change', channel=0, control=64, value=12, time=0),\n",
       "    Message('control_change', channel=0, control=64, value=16, time=11),\n",
       "    Message('control_change', channel=0, control=64, value=16, time=0),\n",
       "    Message('control_change', channel=0, control=64, value=20, time=3),\n",
       "    Message('control_change', channel=0, control=64, value=20, time=0),\n",
       "    Message('control_change', channel=0, control=64, value=30, time=5),\n",
       "    Message('control_change', channel=0, control=64, value=30, time=0),\n",
       "    Message('control_change', channel=0, control=64, value=44, time=6),\n",
       "    Message('control_change', channel=0, control=64, value=44, time=0),\n",
       "    Message('control_change', channel=0, control=64, value=64, time=3),\n",
       "    Message('control_change', channel=0, control=64, value=64, time=0),\n",
       "    Message('control_change', channel=0, control=64, value=80, time=5),\n",
       "    Message('control_change', channel=0, control=64, value=80, time=0),\n",
       "    Message('control_change', channel=0, control=64, value=100, time=6),\n",
       "    Message('control_change', channel=0, control=64, value=100, time=0),\n",
       "    Message('control_change', channel=0, control=64, value=127, time=8),\n",
       "    Message('control_change', channel=0, control=64, value=127, time=0),\n",
       "    Message('note_on', channel=0, note=81, velocity=0, time=129),\n",
       "    Message('note_on', channel=0, note=81, velocity=0, time=0),\n",
       "    Message('note_on', channel=0, note=54, velocity=0, time=15),\n",
       "    Message('note_on', channel=0, note=54, velocity=0, time=0),\n",
       "    Message('note_on', channel=0, note=61, velocity=30, time=26),\n",
       "    Message('note_on', channel=0, note=61, velocity=30, time=0),\n",
       "    Message('note_on', channel=0, note=80, velocity=60, time=4),\n",
       "    Message('note_on', channel=0, note=80, velocity=60, time=0),\n",
       "    Message('note_on', channel=0, note=81, velocity=64, time=127),\n",
       "    Message('note_on', channel=0, note=81, velocity=64, time=1),\n",
       "    Message('note_on', channel=0, note=80, velocity=0, time=25),\n",
       "    Message('note_on', channel=0, note=80, velocity=0, time=0),\n",
       "    Message('note_on', channel=0, note=61, velocity=0, time=76),\n",
       "    Message('note_on', channel=0, note=61, velocity=0, time=0),\n",
       "    Message('note_on', channel=0, note=66, velocity=51, time=19),\n",
       "    Message('note_on', channel=0, note=66, velocity=51, time=0),\n",
       "    Message('note_on', channel=0, note=81, velocity=0, time=92),\n",
       "    Message('note_on', channel=0, note=81, velocity=0, time=0),\n",
       "    Message('note_on', channel=0, note=69, velocity=48, time=3),\n",
       "    Message('note_on', channel=0, note=69, velocity=48, time=1),\n",
       "    Message('note_on', channel=0, note=66, velocity=0, time=3),\n",
       "    Message('note_on', channel=0, note=66, velocity=0, time=0),\n",
       "    Message('note_on', channel=0, note=80, velocity=56, time=118),\n",
       "    Message('note_on', channel=0, note=80, velocity=56, time=1),\n",
       "    Message('note_on', channel=0, note=69, velocity=0, time=27),\n",
       "    Message('note_on', channel=0, note=69, velocity=0, time=0),\n",
       "    Message('note_on', channel=0, note=81, velocity=51, time=107),\n",
       "    Message('note_on', channel=0, note=81, velocity=51, time=0),\n",
       "    Message('note_on', channel=0, note=80, velocity=0, time=26),\n",
       "    Message('note_on', channel=0, note=80, velocity=0, time=0),\n",
       "    Message('control_change', channel=0, control=64, value=0, time=98),\n",
       "    Message('control_change', channel=0, control=64, value=0, time=0),\n",
       "    Message('note_on', channel=0, note=50, velocity=44, time=4),\n",
       "    Message('note_on', channel=0, note=50, velocity=44, time=0),\n",
       "    Message('control_change', channel=0, control=64, value=62, time=62),\n",
       "    Message('control_change', channel=0, control=64, value=62, time=0),\n",
       "    Message('control_change', channel=0, control=64, value=127, time=13),\n",
       "    Message('control_change', channel=0, control=64, value=127, time=1),\n",
       "    Message('note_on', channel=0, note=81, velocity=0, time=27),\n",
       "    Message('note_on', channel=0, note=81, velocity=0, time=0),\n",
       "    Message('note_on', channel=0, note=69, velocity=55, time=14),\n",
       "    Message('note_on', channel=0, note=69, velocity=55, time=0),\n",
       "    Message('note_on', channel=0, note=76, velocity=59, time=114),\n",
       "    Message('note_on', channel=0, note=76, velocity=59, time=1),\n",
       "    Message('note_on', channel=0, note=57, velocity=46, time=11),\n",
       "    Message('note_on', channel=0, note=57, velocity=46, time=0),\n",
       "    Message('note_on', channel=0, note=50, velocity=0, time=6),\n",
       "    Message('note_on', channel=0, note=50, velocity=0, time=0),\n",
       "    Message('note_on', channel=0, note=69, velocity=0, time=3),\n",
       "    Message('note_on', channel=0, note=69, velocity=0, time=0),\n",
       "    Message('note_on', channel=0, note=81, velocity=64, time=109),\n",
       "    Message('note_on', channel=0, note=81, velocity=64, time=0),\n",
       "    Message('note_on', channel=0, note=76, velocity=0, time=23),\n",
       "    Message('note_on', channel=0, note=76, velocity=0, time=1),\n",
       "    Message('note_on', channel=0, note=62, velocity=51, time=94),\n",
       "    Message('note_on', channel=0, note=62, velocity=51, time=0),\n",
       "    Message('note_on', channel=0, note=57, velocity=0, time=43),\n",
       "    Message('note_on', channel=0, note=57, velocity=0, time=0),\n",
       "    Message('note_on', channel=0, note=81, velocity=0, time=67),\n",
       "    Message('note_on', channel=0, note=81, velocity=0, time=0),\n",
       "    Message('note_on', channel=0, note=69, velocity=55, time=8),\n",
       "    Message('note_on', channel=0, note=69, velocity=55, time=0),\n",
       "    Message('note_on', channel=0, note=62, velocity=0, time=6),\n",
       "    Message('note_on', channel=0, note=62, velocity=0, time=0),\n",
       "    Message('note_on', channel=0, note=69, velocity=0, time=125),\n",
       "    Message('note_on', channel=0, note=69, velocity=0, time=0),\n",
       "    Message('note_on', channel=0, note=74, velocity=59, time=6),\n",
       "    Message('note_on', channel=0, note=74, velocity=59, time=0),\n",
       "    Message('note_on', channel=0, note=69, velocity=62, time=110),\n",
       "    Message('note_on', channel=0, note=69, velocity=62, time=0),\n",
       "    Message('note_on', channel=0, note=74, velocity=0, time=6),\n",
       "    Message('note_on', channel=0, note=74, velocity=0, time=0),\n",
       "    Message('control_change', channel=0, control=64, value=20, time=83),\n",
       "    Message('control_change', channel=0, control=64, value=20, time=0),\n",
       "    Message('control_change', channel=0, control=64, value=0, time=9),\n",
       "    Message('control_change', channel=0, control=64, value=0, time=0),\n",
       "    Message('note_on', channel=0, note=73, velocity=68, time=23),\n",
       "    Message('note_on', channel=0, note=73, velocity=68, time=1),\n",
       "    Message('note_on', channel=0, note=45, velocity=44, time=0),\n",
       "    Message('note_on', channel=0, note=45, velocity=44, time=0),\n",
       "    Message('note_on', channel=0, note=69, velocity=0, time=24),\n",
       "    Message('note_on', channel=0, note=69, velocity=0, time=1),\n",
       "    Message('control_change', channel=0, control=64, value=28, time=27),\n",
       "    Message('control_change', channel=0, control=64, value=28, time=0),\n",
       "    Message('control_change', channel=0, control=64, value=62, time=6),\n",
       "    Message('control_change', channel=0, control=64, value=62, time=0),\n",
       "    Message('control_change', channel=0, control=64, value=118, time=8),\n",
       "    Message('control_change', channel=0, control=64, value=118, time=0),\n",
       "    Message('control_change', channel=0, control=64, value=127, time=5),\n",
       "    Message('control_change', channel=0, control=64, value=127, time=1),\n",
       "    Message('note_on', channel=0, note=45, velocity=0, time=134),\n",
       "    Message('note_on', channel=0, note=45, velocity=0, time=0),\n",
       "    Message('note_on', channel=0, note=52, velocity=38, time=8),\n",
       "    Message('note_on', channel=0, note=52, velocity=38, time=1),\n",
       "    Message('note_on', channel=0, note=74, velocity=59, time=5),\n",
       "    Message('note_on', channel=0, note=74, velocity=59, time=0),\n",
       "    Message('note_on', channel=0, note=73, velocity=0, time=8),\n",
       "    Message('note_on', channel=0, note=73, velocity=0, time=0),\n",
       "    Message('note_on', channel=0, note=57, velocity=35, time=207),\n",
       "    Message('note_on', channel=0, note=57, velocity=35, time=1),\n",
       "    Message('note_on', channel=0, note=52, velocity=0, time=3),\n",
       "    Message('note_on', channel=0, note=52, velocity=0, time=0),\n",
       "    Message('note_on', channel=0, note=76, velocity=70, time=19),\n",
       "    Message('note_on', channel=0, note=76, velocity=70, time=0),\n",
       "    Message('note_on', channel=0, note=74, velocity=0, time=28),\n",
       "    Message('note_on', channel=0, note=74, velocity=0, time=1),\n",
       "    Message('note_on', channel=0, note=76, velocity=0, time=30),\n",
       "    Message('note_on', channel=0, note=76, velocity=0, time=0),\n",
       "    Message('note_on', channel=0, note=85, velocity=58, time=165),\n",
       "    Message('note_on', channel=0, note=85, velocity=58, time=1),\n",
       "    Message('note_on', channel=0, note=57, velocity=0, time=226),\n",
       "    Message('note_on', channel=0, note=57, velocity=0, time=0),\n",
       "    Message('note_on', channel=0, note=52, velocity=34, time=3),\n",
       "    Message('note_on', channel=0, note=52, velocity=34, time=0),\n",
       "    Message('control_change', channel=0, control=64, value=0, time=12),\n",
       "    Message('control_change', channel=0, control=64, value=0, time=0),\n",
       "    Message('note_on', channel=0, note=83, velocity=59, time=4),\n",
       "    Message('note_on', channel=0, note=83, velocity=59, time=0),\n",
       "    Message('note_on', channel=0, note=85, velocity=0, time=21),\n",
       "    Message('note_on', channel=0, note=85, velocity=0, time=0),\n",
       "    Message('control_change', channel=0, control=64, value=60, time=50),\n",
       "    Message('control_change', channel=0, control=64, value=60, time=0),\n",
       "    Message('control_change', channel=0, control=64, value=90, time=4),\n",
       "    Message('control_change', channel=0, control=64, value=90, time=0),\n",
       "    Message('control_change', channel=0, control=64, value=116, time=6),\n",
       "    Message('control_change', channel=0, control=64, value=116, time=0),\n",
       "    Message('control_change', channel=0, control=64, value=127, time=6),\n",
       "    Message('control_change', channel=0, control=64, value=127, time=0),\n",
       "    Message('note_on', channel=0, note=59, velocity=36, time=167),\n",
       "    Message('note_on', channel=0, note=59, velocity=36, time=0),\n",
       "    Message('note_on', channel=0, note=76, velocity=46, time=1),\n",
       "    Message('note_on', channel=0, note=76, velocity=46, time=0),\n",
       "    Message('note_on', channel=0, note=52, velocity=0, time=11),\n",
       "    Message('note_on', channel=0, note=52, velocity=0, time=0),\n",
       "    Message('note_on', channel=0, note=83, velocity=0, time=2),\n",
       "    Message('note_on', channel=0, note=83, velocity=0, time=1),\n",
       "    Message('note_on', channel=0, note=76, velocity=0, time=174),\n",
       "    Message('note_on', channel=0, note=76, velocity=0, time=0),\n",
       "    Message('note_on', channel=0, note=83, velocity=51, time=37),\n",
       "    Message('note_on', channel=0, note=83, velocity=51, time=1),\n",
       "    Message('note_on', channel=0, note=64, velocity=40, time=1),\n",
       "    Message('note_on', channel=0, note=64, velocity=40, time=1),\n",
       "    Message('note_on', channel=0, note=59, velocity=0, time=28),\n",
       "    Message('note_on', channel=0, note=59, velocity=0, time=0),\n",
       "    Message('note_on', channel=0, note=85, velocity=56, time=36),\n",
       "    Message('note_on', channel=0, note=85, velocity=56, time=1),\n",
       "    Message('note_on', channel=0, note=83, velocity=0, time=13),\n",
       "    Message('note_on', channel=0, note=83, velocity=0, time=0),\n",
       "    Message('note_on', channel=0, note=64, velocity=0, time=39),\n",
       "    Message('note_on', channel=0, note=64, velocity=0, time=0),\n",
       "    Message('note_on', channel=0, note=83, velocity=51, time=43),\n",
       "    Message('note_on', channel=0, note=83, velocity=51, time=1),\n",
       "    Message('note_on', channel=0, note=85, velocity=0, time=1),\n",
       "    Message('note_on', channel=0, note=85, velocity=0, time=0),\n",
       "    Message('note_on', channel=0, note=83, velocity=0, time=97),\n",
       "    Message('note_on', channel=0, note=83, velocity=0, time=0),\n",
       "    Message('note_on', channel=0, note=81, velocity=59, time=1),\n",
       "    Message('note_on', channel=0, note=81, velocity=59, time=0),\n",
       "    Message('note_on', channel=0, note=80, velocity=53, time=112),\n",
       "    Message('note_on', channel=0, note=80, velocity=53, time=0),\n",
       "    Message('note_on', channel=0, note=81, velocity=0, time=31),\n",
       "    Message('note_on', channel=0, note=81, velocity=0, time=0),\n",
       "    Message('control_change', channel=0, control=64, value=106, time=56),\n",
       "    Message('control_change', channel=0, control=64, value=106, time=0),\n",
       "    Message('control_change', channel=0, control=64, value=18, time=10),\n",
       "    Message('control_change', channel=0, control=64, value=18, time=0),\n",
       "    Message('control_change', channel=0, control=64, value=0, time=9),\n",
       "    Message('control_change', channel=0, control=64, value=0, time=0),\n",
       "    Message('note_on', channel=0, note=80, velocity=0, time=4),\n",
       "    Message('note_on', channel=0, note=80, velocity=0, time=0),\n",
       "    Message('note_on', channel=0, note=81, velocity=55, time=9),\n",
       "    Message('note_on', channel=0, note=81, velocity=55, time=1),\n",
       "    Message('note_on', channel=0, note=54, velocity=34, time=16),\n",
       "    Message('note_on', channel=0, note=54, velocity=34, time=1),\n",
       "    Message('control_change', channel=0, control=64, value=42, time=41),\n",
       "    Message('control_change', channel=0, control=64, value=42, time=0),\n",
       "    Message('control_change', channel=0, control=64, value=74, time=5),\n",
       "    Message('control_change', channel=0, control=64, value=74, time=0),\n",
       "    Message('control_change', channel=0, control=64, value=127, time=11),\n",
       "    Message('control_change', channel=0, control=64, value=127, time=0),\n",
       "    Message('note_on', channel=0, note=81, velocity=0, time=31),\n",
       "    Message('note_on', channel=0, note=81, velocity=0, time=0),\n",
       "    Message('note_on', channel=0, note=54, velocity=0, time=74),\n",
       "    Message('note_on', channel=0, note=54, velocity=0, time=0),\n",
       "    Message('note_on', channel=0, note=61, velocity=42, time=48),\n",
       "    Message('note_on', channel=0, note=61, velocity=42, time=1),\n",
       "    Message('note_on', channel=0, note=61, velocity=0, time=199),\n",
       "    Message('note_on', channel=0, note=61, velocity=0, time=0),\n",
       "    Message('note_on', channel=0, note=66, velocity=58, time=41),\n",
       "    Message('note_on', channel=0, note=66, velocity=58, time=0),\n",
       "    Message('note_on', channel=0, note=66, velocity=0, time=61),\n",
       "    Message('note_on', channel=0, note=66, velocity=0, time=0),\n",
       "    Message('note_on', channel=0, note=64, velocity=51, time=59),\n",
       "    Message('note_on', channel=0, note=64, velocity=51, time=0),\n",
       "    Message('note_on', channel=0, note=64, velocity=0, time=101),\n",
       "    Message('note_on', channel=0, note=64, velocity=0, time=1),\n",
       "    Message('note_on', channel=0, note=69, velocity=38, time=10),\n",
       "    Message('note_on', channel=0, note=69, velocity=38, time=1),\n",
       "    Message('note_on', channel=0, note=71, velocity=51, time=146),\n",
       "    Message('note_on', channel=0, note=71, velocity=51, time=1),\n",
       "    Message('note_on', channel=0, note=69, velocity=0, time=10),\n",
       "    Message('note_on', channel=0, note=69, velocity=0, time=1),\n",
       "    Message('control_change', channel=0, control=64, value=0, time=70),\n",
       "    Message('control_change', channel=0, control=64, value=0, time=0),\n",
       "    Message('note_on', channel=0, note=73, velocity=73, time=34),\n",
       "    Message('note_on', channel=0, note=73, velocity=73, time=0),\n",
       "    Message('note_on', channel=0, note=50, velocity=53, time=4),\n",
       "    Message('note_on', channel=0, note=50, velocity=53, time=1),\n",
       "    Message('note_on', channel=0, note=71, velocity=0, time=16),\n",
       "    Message('note_on', channel=0, note=71, velocity=0, time=0),\n",
       "    Message('control_change', channel=0, control=64, value=72, time=51),\n",
       "    Message('control_change', channel=0, control=64, value=72, time=0),\n",
       "    Message('control_change', channel=0, control=64, value=100, time=3),\n",
       "    Message('control_change', channel=0, control=64, value=100, time=1),\n",
       "    Message('control_change', channel=0, control=64, value=122, time=5),\n",
       "    Message('control_change', channel=0, control=64, value=122, time=0),\n",
       "    Message('control_change', channel=0, control=64, value=127, time=6),\n",
       "    Message('control_change', channel=0, control=64, value=127, time=0),\n",
       "    Message('note_on', channel=0, note=73, velocity=0, time=48),\n",
       "    Message('note_on', channel=0, note=73, velocity=0, time=1),\n",
       "    Message('note_on', channel=0, note=57, velocity=53, time=98),\n",
       "    Message('note_on', channel=0, note=57, velocity=53, time=1),\n",
       "    Message('note_on', channel=0, note=50, velocity=0, time=18),\n",
       "    Message('note_on', channel=0, note=50, velocity=0, time=0),\n",
       "    Message('note_on', channel=0, note=62, velocity=57, time=207),\n",
       "    Message('note_on', channel=0, note=62, velocity=57, time=0),\n",
       "    Message('note_on', channel=0, note=57, velocity=0, time=26),\n",
       "    Message('note_on', channel=0, note=57, velocity=0, time=1),\n",
       "    Message('note_on', channel=0, note=62, velocity=0, time=50),\n",
       "    Message('note_on', channel=0, note=62, velocity=0, time=0),\n",
       "    Message('note_on', channel=0, note=73, velocity=68, time=174),\n",
       "    Message('note_on', channel=0, note=73, velocity=68, time=0),\n",
       "    Message('note_on', channel=0, note=74, velocity=46, time=112),\n",
       "    Message('note_on', channel=0, note=74, velocity=46, time=1),\n",
       "    Message('note_on', channel=0, note=73, velocity=0, time=28),\n",
       "    Message('note_on', channel=0, note=73, velocity=0, time=0),\n",
       "    Message('control_change', channel=0, control=64, value=116, time=61),\n",
       "    Message('control_change', channel=0, control=64, value=116, time=1),\n",
       "    Message('control_change', channel=0, control=64, value=0, time=16),\n",
       "    Message('control_change', channel=0, control=64, value=0, time=0),\n",
       "    Message('note_on', channel=0, note=76, velocity=53, time=21),\n",
       "    Message('note_on', channel=0, note=76, velocity=53, time=0),\n",
       "    Message('note_on', channel=0, note=45, velocity=44, time=4),\n",
       "    Message('note_on', channel=0, note=45, velocity=44, time=0),\n",
       "    Message('note_on', channel=0, note=74, velocity=0, time=9),\n",
       "    Message('note_on', channel=0, note=74, velocity=0, time=0),\n",
       "    Message('control_change', channel=0, control=64, value=20, time=41),\n",
       "    Message('control_change', channel=0, control=64, value=20, time=0),\n",
       "    Message('control_change', channel=0, control=64, value=78, time=8),\n",
       "    Message('control_change', channel=0, control=64, value=78, time=0),\n",
       "    Message('control_change', channel=0, control=64, value=100, time=6),\n",
       "    Message('control_change', channel=0, control=64, value=100, time=0),\n",
       "    Message('control_change', channel=0, control=64, value=120, time=5),\n",
       "    Message('control_change', channel=0, control=64, value=120, time=0),\n",
       "    Message('control_change', channel=0, control=64, value=127, time=5),\n",
       "    Message('control_change', channel=0, control=64, value=127, time=0),\n",
       "    Message('note_on', channel=0, note=45, velocity=0, time=152),\n",
       "    Message('note_on', channel=0, note=45, velocity=0, time=0),\n",
       "    Message('note_on', channel=0, note=52, velocity=42, time=16),\n",
       "    Message('note_on', channel=0, note=52, velocity=42, time=0),\n",
       "    Message('note_on', channel=0, note=57, velocity=57, time=225),\n",
       "    Message('note_on', channel=0, note=57, velocity=57, time=1),\n",
       "    Message('note_on', channel=0, note=76, velocity=0, time=8),\n",
       "    Message('note_on', channel=0, note=76, velocity=0, time=0),\n",
       "    Message('note_on', channel=0, note=52, velocity=0, time=3),\n",
       "    Message('note_on', channel=0, note=52, velocity=0, time=0),\n",
       "    Message('note_on', channel=0, note=73, velocity=70, time=1),\n",
       "    Message('note_on', channel=0, note=73, velocity=70, time=0),\n",
       "    Message('note_on', channel=0, note=57, velocity=0, time=68),\n",
       "    Message('note_on', channel=0, note=57, velocity=0, time=0),\n",
       "    Message('note_on', channel=0, note=73, velocity=0, time=157),\n",
       "    Message('note_on', channel=0, note=73, velocity=0, time=0),\n",
       "    Message('note_on', channel=0, note=74, velocity=55, time=5),\n",
       "    Message('note_on', channel=0, note=74, velocity=55, time=1),\n",
       "    Message('note_on', channel=0, note=73, velocity=58, time=119),\n",
       "    Message('note_on', channel=0, note=73, velocity=58, time=0),\n",
       "    Message('note_on', channel=0, note=74, velocity=0, time=33),\n",
       "    Message('note_on', channel=0, note=74, velocity=0, time=1),\n",
       "    Message('control_change', channel=0, control=64, value=38, time=57),\n",
       "    Message('control_change', channel=0, control=64, value=38, time=0),\n",
       "    Message('control_change', channel=0, control=64, value=0, time=13),\n",
       "    Message('control_change', channel=0, control=64, value=0, time=0),\n",
       "    Message('note_on', channel=0, note=71, velocity=75, time=13),\n",
       "    Message('note_on', channel=0, note=71, velocity=75, time=1),\n",
       "    Message('note_on', channel=0, note=52, velocity=38, time=6),\n",
       "    Message('note_on', channel=0, note=52, velocity=38, time=1),\n",
       "    Message('note_on', channel=0, note=73, velocity=0, time=8),\n",
       "    Message('note_on', channel=0, note=73, velocity=0, time=0),\n",
       "    Message('control_change', channel=0, control=64, value=16, time=33),\n",
       "    Message('control_change', channel=0, control=64, value=16, time=0),\n",
       "    Message('control_change', channel=0, control=64, value=38, time=5),\n",
       "    Message('control_change', channel=0, control=64, value=38, time=0),\n",
       "    Message('control_change', channel=0, control=64, value=62, time=6),\n",
       "    Message('control_change', channel=0, control=64, value=62, time=0),\n",
       "    Message('control_change', channel=0, control=64, value=102, time=8),\n",
       "    Message('control_change', channel=0, control=64, value=102, time=0),\n",
       "    Message('control_change', channel=0, control=64, value=120, time=5),\n",
       "    Message('control_change', channel=0, control=64, value=120, time=1),\n",
       "    Message('control_change', channel=0, control=64, value=127, time=5),\n",
       "    Message('control_change', channel=0, control=64, value=127, time=0),\n",
       "    Message('note_on', channel=0, note=71, velocity=0, time=152),\n",
       "    Message('note_on', channel=0, note=71, velocity=0, time=0),\n",
       "    Message('note_on', channel=0, note=59, velocity=51, time=11),\n",
       "    Message('note_on', channel=0, note=59, velocity=51, time=0),\n",
       "    Message('note_on', channel=0, note=52, velocity=0, time=2),\n",
       "    Message('note_on', channel=0, note=52, velocity=0, time=0),\n",
       "    Message('note_on', channel=0, note=64, velocity=44, time=223),\n",
       "    Message('note_on', channel=0, note=64, velocity=44, time=1),\n",
       "    Message('note_on', channel=0, note=81, velocity=59, time=8),\n",
       "    Message('note_on', channel=0, note=81, velocity=59, time=0),\n",
       "    Message('note_on', channel=0, note=59, velocity=0, time=18),\n",
       "    Message('note_on', channel=0, note=59, velocity=0, time=1),\n",
       "    Message('note_on', channel=0, note=64, velocity=0, time=96),\n",
       "    Message('note_on', channel=0, note=64, velocity=0, time=0),\n",
       "    Message('note_on', channel=0, note=83, velocity=59, time=25),\n",
       "    Message('note_on', channel=0, note=83, velocity=59, time=1),\n",
       "    Message('note_on', channel=0, note=81, velocity=0, time=8),\n",
       "    Message('note_on', channel=0, note=81, velocity=0, time=0),\n",
       "    Message('note_on', channel=0, note=81, velocity=55, time=118),\n",
       "    Message('note_on', channel=0, note=81, velocity=55, time=0),\n",
       "    Message('note_on', channel=0, note=83, velocity=0, time=4),\n",
       "    Message('note_on', channel=0, note=83, velocity=0, time=0),\n",
       "    Message('note_on', channel=0, note=80, velocity=56, time=110),\n",
       "    Message('note_on', channel=0, note=80, velocity=56, time=1),\n",
       "    Message('note_on', channel=0, note=81, velocity=0, time=14),\n",
       "    Message('note_on', channel=0, note=81, velocity=0, time=0),\n",
       "    Message('control_change', channel=0, control=64, value=58, time=88),\n",
       "    Message('control_change', channel=0, control=64, value=58, time=0),\n",
       "    Message('control_change', channel=0, control=64, value=4, time=3),\n",
       "    Message('control_change', channel=0, control=64, value=4, time=0),\n",
       "    Message('control_change', channel=0, control=64, value=0, time=6),\n",
       "    Message('control_change', channel=0, control=64, value=0, time=0),\n",
       "    Message('note_on', channel=0, note=81, velocity=42, time=0),\n",
       "    Message('note_on', channel=0, note=81, velocity=42, time=1),\n",
       "    Message('note_on', channel=0, note=54, velocity=39, time=19),\n",
       "    Message('note_on', channel=0, note=54, velocity=39, time=0),\n",
       "    Message('note_on', channel=0, note=80, velocity=0, time=2),\n",
       "    Message('note_on', channel=0, note=80, velocity=0, time=1),\n",
       "    Message('control_change', channel=0, control=64, value=4, time=33),\n",
       "    Message('control_change', channel=0, control=64, value=4, time=0),\n",
       "    Message('control_change', channel=0, control=64, value=64, time=16),\n",
       "    Message('control_change', channel=0, control=64, value=64, time=0),\n",
       "    Message('control_change', channel=0, control=64, value=80, time=5),\n",
       "    Message('control_change', channel=0, control=64, value=80, time=1),\n",
       "    Message('control_change', channel=0, control=64, value=92, time=2),\n",
       "    Message('control_change', channel=0, control=64, value=92, time=0),\n",
       "    Message('control_change', channel=0, control=64, value=104, time=6),\n",
       "    Message('control_change', channel=0, control=64, value=104, time=0),\n",
       "    Message('control_change', channel=0, control=64, value=116, time=3),\n",
       "    Message('control_change', channel=0, control=64, value=116, time=0),\n",
       "    Message('control_change', channel=0, control=64, value=126, time=6),\n",
       "    Message('control_change', channel=0, control=64, value=126, time=0),\n",
       "    Message('control_change', channel=0, control=64, value=127, time=5),\n",
       "    Message('control_change', channel=0, control=64, value=127, time=0),\n",
       "    Message('note_on', channel=0, note=81, velocity=0, time=28),\n",
       "    Message('note_on', channel=0, note=81, velocity=0, time=0),\n",
       "    Message('note_on', channel=0, note=69, velocity=66, time=7),\n",
       "    Message('note_on', channel=0, note=69, velocity=66, time=0),\n",
       "    Message('note_on', channel=0, note=54, velocity=0, time=16),\n",
       "    Message('note_on', channel=0, note=54, velocity=0, time=0),\n",
       "    Message('note_on', channel=0, note=69, velocity=0, time=99),\n",
       "    Message('note_on', channel=0, note=69, velocity=0, time=0),\n",
       "    Message('note_on', channel=0, note=76, velocity=55, time=1),\n",
       "    Message('note_on', channel=0, note=76, velocity=55, time=1),\n",
       "    Message('note_on', channel=0, note=61, velocity=42, time=11),\n",
       "    Message('note_on', channel=0, note=61, velocity=42, time=0),\n",
       "    Message('note_on', channel=0, note=69, velocity=59, time=89),\n",
       "    Message('note_on', channel=0, note=69, velocity=59, time=1),\n",
       "    Message('note_on', channel=0, note=61, velocity=0, time=23),\n",
       "    Message('note_on', channel=0, note=61, velocity=0, time=0),\n",
       "    Message('note_on', channel=0, note=76, velocity=0, time=13),\n",
       "    Message('note_on', channel=0, note=76, velocity=0, time=0),\n",
       "    Message('note_on', channel=0, note=81, velocity=48, time=96),\n",
       "    Message('note_on', channel=0, note=81, velocity=48, time=1),\n",
       "    Message('note_on', channel=0, note=66, velocity=48, time=2),\n",
       "    Message('note_on', channel=0, note=66, velocity=48, time=1),\n",
       "    Message('note_on', channel=0, note=69, velocity=0, time=8),\n",
       "    Message('note_on', channel=0, note=69, velocity=0, time=0),\n",
       "    Message('note_on', channel=0, note=66, velocity=0, time=54),\n",
       "    Message('note_on', channel=0, note=66, velocity=0, time=0),\n",
       "    Message('note_on', channel=0, note=81, velocity=0, time=55),\n",
       "    Message('note_on', channel=0, note=81, velocity=0, time=0),\n",
       "    Message('note_on', channel=0, note=83, velocity=57, time=2),\n",
       "    Message('note_on', channel=0, note=83, velocity=57, time=0),\n",
       "    Message('note_on', channel=0, note=81, velocity=55, time=122),\n",
       "    Message('note_on', channel=0, note=81, velocity=55, time=1),\n",
       "    Message('note_on', channel=0, note=83, velocity=0, time=3),\n",
       "    Message('note_on', channel=0, note=83, velocity=0, time=0),\n",
       "    Message('note_on', channel=0, note=80, velocity=56, time=97),\n",
       "    Message('note_on', channel=0, note=80, velocity=56, time=1),\n",
       "    Message('note_on', channel=0, note=81, velocity=0, time=3),\n",
       "    Message('note_on', channel=0, note=81, velocity=0, time=0),\n",
       "    Message('control_change', channel=0, control=64, value=4, time=118),\n",
       "    Message('control_change', channel=0, control=64, value=4, time=0),\n",
       "    Message('note_on', channel=0, note=81, velocity=19, time=1),\n",
       "    Message('note_on', channel=0, note=81, velocity=19, time=1),\n",
       "    Message('control_change', channel=0, control=64, value=0, time=5),\n",
       "    Message('control_change', channel=0, control=64, value=0, time=0),\n",
       "    Message('note_on', channel=0, note=50, velocity=48, time=14),\n",
       "    Message('note_on', channel=0, note=50, velocity=48, time=1),\n",
       "    Message('note_on', channel=0, note=80, velocity=0, time=3),\n",
       "    Message('note_on', channel=0, note=80, velocity=0, time=1),\n",
       "    Message('control_change', channel=0, control=64, value=14, time=48),\n",
       "    Message('control_change', channel=0, control=64, value=14, time=0),\n",
       "    Message('control_change', channel=0, control=64, value=74, time=11),\n",
       "    Message('control_change', channel=0, control=64, value=74, time=0),\n",
       "    Message('control_change', channel=0, control=64, value=96, time=5),\n",
       "    Message('control_change', channel=0, control=64, value=96, time=0),\n",
       "    Message('control_change', channel=0, control=64, value=118, time=3),\n",
       "    Message('control_change', channel=0, control=64, value=118, time=0),\n",
       "    Message('control_change', channel=0, control=64, value=127, time=6),\n",
       "    Message('control_change', channel=0, control=64, value=127, time=0),\n",
       "    Message('note_on', channel=0, note=69, velocity=46, time=46),\n",
       "    Message('note_on', channel=0, note=69, velocity=46, time=1),\n",
       "    Message('note_on', channel=0, note=81, velocity=0, time=2),\n",
       "    Message('note_on', channel=0, note=81, velocity=0, time=1),\n",
       "    Message('note_on', channel=0, note=57, velocity=48, time=86),\n",
       "    Message('note_on', channel=0, note=57, velocity=48, time=1),\n",
       "    Message('note_on', channel=0, note=69, velocity=0, time=11),\n",
       "    Message('note_on', channel=0, note=69, velocity=0, time=0),\n",
       "    Message('note_on', channel=0, note=76, velocity=55, time=3),\n",
       "    Message('note_on', channel=0, note=76, velocity=55, time=0),\n",
       "    Message('note_on', channel=0, note=50, velocity=0, time=9),\n",
       "    Message('note_on', channel=0, note=50, velocity=0, time=0),\n",
       "    Message('note_on', channel=0, note=69, velocity=59, time=109),\n",
       "    Message('note_on', channel=0, note=69, velocity=59, time=0),\n",
       "    Message('note_on', channel=0, note=76, velocity=0, time=25),\n",
       "    Message('note_on', channel=0, note=76, velocity=0, time=0),\n",
       "    Message('note_on', channel=0, note=62, velocity=51, time=84),\n",
       "    Message('note_on', channel=0, note=62, velocity=51, time=0),\n",
       "    Message('note_on', channel=0, note=81, velocity=51, time=9),\n",
       "    Message('note_on', channel=0, note=81, velocity=51, time=0),\n",
       "    Message('note_on', channel=0, note=69, velocity=0, time=13),\n",
       "    Message('note_on', channel=0, note=69, velocity=0, time=0),\n",
       "    Message('note_on', channel=0, note=57, velocity=0, time=15),\n",
       "    Message('note_on', channel=0, note=57, velocity=0, time=0),\n",
       "    Message('note_on', channel=0, note=62, velocity=0, time=41),\n",
       "    Message('note_on', channel=0, note=62, velocity=0, time=0),\n",
       "    Message('note_on', channel=0, note=81, velocity=0, time=41),\n",
       "    Message('note_on', channel=0, note=81, velocity=0, time=0),\n",
       "    Message('note_on', channel=0, note=83, velocity=51, time=8),\n",
       "    Message('note_on', channel=0, note=83, velocity=51, time=1),\n",
       "    Message('note_on', channel=0, note=81, velocity=48, time=120),\n",
       "    Message('note_on', channel=0, note=81, velocity=48, time=0),\n",
       "    Message('note_on', channel=0, note=83, velocity=0, time=6),\n",
       "    Message('note_on', channel=0, note=83, velocity=0, time=0),\n",
       "    Message('note_on', channel=0, note=80, velocity=56, time=120),\n",
       "    Message('note_on', channel=0, note=80, velocity=56, time=0),\n",
       "    Message('note_on', channel=0, note=81, velocity=0, time=15),\n",
       "    Message('note_on', channel=0, note=81, velocity=0, time=1),\n",
       "    Message('control_change', channel=0, control=64, value=100, time=69),\n",
       "    Message('control_change', channel=0, control=64, value=100, time=0),\n",
       "    Message('note_on', channel=0, note=80, velocity=0, time=12),\n",
       "    Message('note_on', channel=0, note=80, velocity=0, time=1),\n",
       "    Message('control_change', channel=0, control=64, value=8, time=5),\n",
       "    Message('control_change', channel=0, control=64, value=8, time=0),\n",
       "    Message('control_change', channel=0, control=64, value=0, time=3),\n",
       "    Message('control_change', channel=0, control=64, value=0, time=0),\n",
       "    Message('note_on', channel=0, note=81, velocity=57, time=14),\n",
       "    Message('note_on', channel=0, note=81, velocity=57, time=0),\n",
       "    Message('note_on', channel=0, note=45, velocity=35, time=4),\n",
       "    Message('note_on', channel=0, note=45, velocity=35, time=0),\n",
       "    Message('control_change', channel=0, control=64, value=1, time=34),\n",
       "    Message('control_change', channel=0, control=64, value=1, time=0),\n",
       "    Message('control_change', channel=0, control=64, value=16, time=3),\n",
       "    Message('control_change', channel=0, control=64, value=16, time=0),\n",
       "    Message('control_change', channel=0, control=64, value=34, time=6),\n",
       "    Message('control_change', channel=0, control=64, value=34, time=0),\n",
       "    Message('control_change', channel=0, control=64, value=52, time=5),\n",
       "    Message('control_change', channel=0, control=64, value=52, time=1),\n",
       "    Message('control_change', channel=0, control=64, value=68, time=2),\n",
       "    Message('control_change', channel=0, control=64, value=68, time=0),\n",
       "    Message('control_change', channel=0, control=64, value=84, time=6),\n",
       "    Message('control_change', channel=0, control=64, value=84, time=0),\n",
       "    Message('control_change', channel=0, control=64, value=98, time=5),\n",
       "    Message('control_change', channel=0, control=64, value=98, time=0),\n",
       "    Message('control_change', channel=0, control=64, value=108, time=3),\n",
       "    Message('control_change', channel=0, control=64, value=108, time=0),\n",
       "    Message('control_change', channel=0, control=64, value=118, time=6),\n",
       "    Message('control_change', channel=0, control=64, value=118, time=0),\n",
       "    Message('control_change', channel=0, control=64, value=127, time=6),\n",
       "    Message('control_change', channel=0, control=64, value=127, time=0),\n",
       "    Message('note_on', channel=0, note=83, velocity=62, time=57),\n",
       "    Message('note_on', channel=0, note=83, velocity=62, time=0),\n",
       "    Message('note_on', channel=0, note=81, velocity=0, time=11),\n",
       "    Message('note_on', channel=0, note=81, velocity=0, time=0),\n",
       "    Message('note_on', channel=0, note=45, velocity=0, time=104),\n",
       "    Message('note_on', channel=0, note=45, velocity=0, time=0),\n",
       "    Message('note_on', channel=0, note=85, velocity=53, time=5),\n",
       "    Message('note_on', channel=0, note=85, velocity=53, time=0),\n",
       "    Message('note_on', channel=0, note=52, velocity=32, time=7),\n",
       "    Message('note_on', channel=0, note=52, velocity=32, time=0),\n",
       "    Message('note_on', channel=0, note=83, velocity=0, time=43),\n",
       "    Message('note_on', channel=0, note=83, velocity=0, time=1),\n",
       "    Message('note_on', channel=0, note=86, velocity=62, time=68),\n",
       "    Message('note_on', channel=0, note=86, velocity=62, time=1),\n",
       "    Message('note_on', channel=0, note=85, velocity=0, time=53),\n",
       "    Message('note_on', channel=0, note=85, velocity=0, time=0),\n",
       "    Message('note_on', channel=0, note=88, velocity=63, time=54),\n",
       "    Message('note_on', channel=0, note=88, velocity=63, time=0),\n",
       "    Message('note_on', channel=0, note=57, velocity=46, time=4),\n",
       "    Message('note_on', channel=0, note=57, velocity=46, time=0),\n",
       "    Message('note_on', channel=0, note=86, velocity=0, time=11),\n",
       "    Message('note_on', channel=0, note=86, velocity=0, time=0),\n",
       "    Message('note_on', channel=0, note=52, velocity=0, time=10),\n",
       "    Message('note_on', channel=0, note=52, velocity=0, time=1),\n",
       "    Message('note_on', channel=0, note=57, velocity=0, time=68),\n",
       "    Message('note_on', channel=0, note=57, velocity=0, time=0),\n",
       "    Message('note_on', channel=0, note=85, velocity=53, time=31),\n",
       "    Message('note_on', channel=0, note=85, velocity=53, time=1),\n",
       "    Message('note_on', channel=0, note=88, velocity=0, time=5),\n",
       "    Message('note_on', channel=0, note=88, velocity=0, time=0),\n",
       "    Message('note_on', channel=0, note=83, velocity=46, time=117),\n",
       "    Message('note_on', channel=0, note=83, velocity=46, time=1),\n",
       "    Message('note_on', channel=0, note=85, velocity=0, time=26),\n",
       "    Message('note_on', channel=0, note=85, velocity=0, time=0),\n",
       "    Message('note_on', channel=0, note=81, velocity=62, time=94),\n",
       "    Message('note_on', channel=0, note=81, velocity=62, time=1),\n",
       "    Message('note_on', channel=0, note=83, velocity=0, time=11),\n",
       "    Message('note_on', channel=0, note=83, velocity=0, time=0),\n",
       "    Message('control_change', channel=0, control=64, value=124, time=59),\n",
       "    Message('control_change', channel=0, control=64, value=124, time=0),\n",
       "    Message('control_change', channel=0, control=64, value=98, time=5),\n",
       "    Message('control_change', channel=0, control=64, value=98, time=1),\n",
       "    Message('control_change', channel=0, control=64, value=0, time=27),\n",
       "    Message('control_change', channel=0, control=64, value=0, time=0),\n",
       "    Message('note_on', channel=0, note=52, velocity=34, time=6),\n",
       "    Message('note_on', channel=0, note=52, velocity=34, time=1),\n",
       "    Message('note_on', channel=0, note=80, velocity=65, time=8),\n",
       "    Message('note_on', channel=0, note=80, velocity=65, time=0),\n",
       "    Message('note_on', channel=0, note=81, velocity=0, time=45),\n",
       "    Message('note_on', channel=0, note=81, velocity=0, time=0),\n",
       "    Message('control_change', channel=0, control=64, value=12, time=8),\n",
       "    Message('control_change', channel=0, control=64, value=12, time=0),\n",
       "    Message('control_change', channel=0, control=64, value=32, time=5),\n",
       "    Message('control_change', channel=0, control=64, value=32, time=0),\n",
       "    Message('control_change', channel=0, control=64, value=70, time=9),\n",
       "    Message('control_change', channel=0, control=64, value=70, time=0),\n",
       "    Message('control_change', channel=0, control=64, value=86, time=5),\n",
       "    Message('control_change', channel=0, control=64, value=86, time=0),\n",
       "    Message('control_change', channel=0, control=64, value=96, time=5),\n",
       "    Message('control_change', channel=0, control=64, value=96, time=1),\n",
       "    Message('control_change', channel=0, control=64, value=106, time=5),\n",
       "    Message('control_change', channel=0, control=64, value=106, time=0),\n",
       "    Message('control_change', channel=0, control=64, value=114, time=6),\n",
       "    Message('control_change', channel=0, control=64, value=114, time=0),\n",
       "    Message('control_change', channel=0, control=64, value=122, time=3),\n",
       "    Message('control_change', channel=0, control=64, value=122, time=0),\n",
       "    Message('control_change', channel=0, control=64, value=127, time=5),\n",
       "    Message('control_change', channel=0, control=64, value=127, time=0),\n",
       "    Message('note_on', channel=0, note=52, velocity=0, time=97),\n",
       "    Message('note_on', channel=0, note=52, velocity=0, time=0),\n",
       "    Message('note_on', channel=0, note=59, velocity=51, time=34),\n",
       "    Message('note_on', channel=0, note=59, velocity=51, time=0),\n",
       "    Message('note_on', channel=0, note=80, velocity=0, time=3),\n",
       "    Message('note_on', channel=0, note=80, velocity=0, time=0),\n",
       "    Message('note_on', channel=0, note=81, velocity=64, time=231),\n",
       "    Message('note_on', channel=0, note=81, velocity=64, time=0),\n",
       "    Message('note_on', channel=0, note=64, velocity=51, time=3),\n",
       "    Message('note_on', channel=0, note=64, velocity=51, time=1),\n",
       "    Message('note_on', channel=0, note=59, velocity=0, time=13),\n",
       "    Message('note_on', channel=0, note=59, velocity=0, time=0),\n",
       "    Message('note_on', channel=0, note=64, velocity=0, time=99),\n",
       "    Message('note_on', channel=0, note=64, velocity=0, time=0),\n",
       "    Message('note_on', channel=0, note=83, velocity=46, time=5),\n",
       "    Message('note_on', channel=0, note=83, velocity=46, time=1),\n",
       "    Message('note_on', channel=0, note=81, velocity=0, time=1),\n",
       "    Message('note_on', channel=0, note=81, velocity=0, time=0),\n",
       "    Message('note_on', channel=0, note=81, velocity=53, time=119),\n",
       "    Message('note_on', channel=0, note=81, velocity=53, time=0),\n",
       "    Message('note_on', channel=0, note=83, velocity=0, time=4),\n",
       "    Message('note_on', channel=0, note=83, velocity=0, time=0),\n",
       "    Message('note_on', channel=0, note=80, velocity=38, time=103),\n",
       "    Message('note_on', channel=0, note=80, velocity=38, time=1),\n",
       "    Message('note_on', channel=0, note=81, velocity=0, time=6),\n",
       "    Message('note_on', channel=0, note=81, velocity=0, time=0),\n",
       "    Message('note_on', channel=0, note=81, velocity=36, time=101),\n",
       "    Message('note_on', channel=0, note=81, velocity=36, time=1),\n",
       "    Message('control_change', channel=0, control=64, value=82, time=8),\n",
       "    Message('control_change', channel=0, control=64, value=82, time=0),\n",
       "    Message('control_change', channel=0, control=64, value=46, time=7),\n",
       "    Message('control_change', channel=0, control=64, value=46, time=0),\n",
       "    Message('control_change', channel=0, control=64, value=1, time=3),\n",
       "    Message('control_change', channel=0, control=64, value=1, time=0),\n",
       "    Message('control_change', channel=0, control=64, value=0, time=5),\n",
       "    Message('control_change', channel=0, control=64, value=0, time=0),\n",
       "    Message('note_on', channel=0, note=80, velocity=0, time=1),\n",
       "    Message('note_on', channel=0, note=80, velocity=0, time=0),\n",
       "    Message('note_on', channel=0, note=54, velocity=39, time=8),\n",
       "    Message('note_on', channel=0, note=54, velocity=39, time=0),\n",
       "    Message('control_change', channel=0, control=64, value=30, time=82),\n",
       "    Message('control_change', channel=0, control=64, value=30, time=0),\n",
       "    Message('control_change', channel=0, control=64, value=56, time=5),\n",
       "    Message('control_change', channel=0, control=64, value=56, time=1),\n",
       "    Message('control_change', channel=0, control=64, value=72, time=3),\n",
       "    Message('control_change', channel=0, control=64, value=72, time=0),\n",
       "    Message('control_change', channel=0, control=64, value=90, time=5),\n",
       "    Message('control_change', channel=0, control=64, value=90, time=0),\n",
       "    Message('control_change', channel=0, control=64, value=100, time=5),\n",
       "    Message('control_change', channel=0, control=64, value=100, time=0),\n",
       "    Message('note_on', channel=0, note=69, velocity=57, time=1),\n",
       "    Message('note_on', channel=0, note=69, velocity=57, time=1),\n",
       "    Message('control_change', channel=0, control=64, value=112, time=3),\n",
       "    Message('control_change', channel=0, control=64, value=112, time=0),\n",
       "    Message('note_on', channel=0, note=81, velocity=0, time=3),\n",
       "    Message('note_on', channel=0, note=81, velocity=0, time=0),\n",
       "    Message('control_change', channel=0, control=64, value=124, time=3),\n",
       "    Message('control_change', channel=0, control=64, value=124, time=0),\n",
       "    Message('control_change', channel=0, control=64, value=127, time=3),\n",
       "    Message('control_change', channel=0, control=64, value=127, time=0),\n",
       "    Message('note_on', channel=0, note=54, velocity=0, time=25),\n",
       "    Message('note_on', channel=0, note=54, velocity=0, time=0),\n",
       "    Message('note_on', channel=0, note=76, velocity=57, time=59),\n",
       "    Message('note_on', channel=0, note=76, velocity=57, time=0),\n",
       "    Message('note_on', channel=0, note=69, velocity=0, time=4),\n",
       "    Message('note_on', channel=0, note=69, velocity=0, time=0),\n",
       "    Message('note_on', channel=0, note=61, velocity=44, time=6),\n",
       "    Message('note_on', channel=0, note=61, velocity=44, time=0),\n",
       "    Message('note_on', channel=0, note=69, velocity=38, time=82),\n",
       "    Message('note_on', channel=0, note=69, velocity=38, time=1),\n",
       "    Message('note_on', channel=0, note=61, velocity=0, time=33),\n",
       "    Message('note_on', channel=0, note=61, velocity=0, time=0),\n",
       "    Message('note_on', channel=0, note=76, velocity=0, time=29),\n",
       "    Message('note_on', channel=0, note=76, velocity=0, time=0),\n",
       "    Message('note_on', channel=0, note=66, velocity=46, time=113),\n",
       "    Message('note_on', channel=0, note=66, velocity=46, time=0),\n",
       "    Message('note_on', channel=0, note=81, velocity=48, time=2),\n",
       "    Message('note_on', channel=0, note=81, velocity=48, time=0),\n",
       "    Message('note_on', channel=0, note=69, velocity=0, time=17),\n",
       "    Message('note_on', channel=0, note=69, velocity=0, time=0),\n",
       "    Message('note_on', channel=0, note=66, velocity=0, time=54),\n",
       "    Message('note_on', channel=0, note=66, velocity=0, time=0),\n",
       "    Message('note_on', channel=0, note=81, velocity=0, time=59),\n",
       "    Message('note_on', channel=0, note=81, velocity=0, time=0),\n",
       "    Message('note_on', channel=0, note=83, velocity=55, time=3),\n",
       "    Message('note_on', channel=0, note=83, velocity=55, time=1),\n",
       "    Message('note_on', channel=0, note=81, velocity=55, time=119),\n",
       "    Message('note_on', channel=0, note=81, velocity=55, time=1),\n",
       "    Message('note_on', channel=0, note=83, velocity=0, time=6),\n",
       "    Message('note_on', channel=0, note=83, velocity=0, time=0),\n",
       "    Message('note_on', channel=0, note=80, velocity=53, time=115),\n",
       "    Message('note_on', channel=0, note=80, velocity=53, time=0),\n",
       "    Message('note_on', channel=0, note=81, velocity=0, time=3),\n",
       "    Message('note_on', channel=0, note=81, velocity=0, time=0),\n",
       "    Message('control_change', channel=0, control=64, value=122, time=77),\n",
       "    Message('control_change', channel=0, control=64, value=122, time=0),\n",
       "    Message('control_change', channel=0, control=64, value=90, time=3),\n",
       "    Message('control_change', channel=0, control=64, value=90, time=0),\n",
       "    Message('control_change', channel=0, control=64, value=0, time=17),\n",
       "    Message('control_change', channel=0, control=64, value=0, time=0),\n",
       "    Message('note_on', channel=0, note=81, velocity=53, time=4),\n",
       "    Message('note_on', channel=0, note=81, velocity=53, time=0),\n",
       "    Message('note_on', channel=0, note=50, velocity=38, time=7),\n",
       "    Message('note_on', channel=0, note=50, velocity=38, time=0),\n",
       "    Message('note_on', channel=0, note=80, velocity=0, time=6),\n",
       "    Message('note_on', channel=0, note=80, velocity=0, time=0),\n",
       "    Message('control_change', channel=0, control=64, value=10, time=71),\n",
       "    Message('control_change', channel=0, control=64, value=10, time=1),\n",
       "    Message('control_change', channel=0, control=64, value=36, time=6),\n",
       "    Message('control_change', channel=0, control=64, value=36, time=0),\n",
       "    Message('control_change', channel=0, control=64, value=60, time=5),\n",
       "    Message('control_change', channel=0, control=64, value=60, time=0),\n",
       "    Message('control_change', channel=0, control=64, value=78, time=3),\n",
       "    Message('control_change', channel=0, control=64, value=78, time=0),\n",
       "    Message('control_change', channel=0, control=64, value=94, time=6),\n",
       "    Message('control_change', channel=0, control=64, value=94, time=0),\n",
       "    Message('control_change', channel=0, control=64, value=104, time=3),\n",
       "    Message('control_change', channel=0, control=64, value=104, time=0),\n",
       "    Message('control_change', channel=0, control=64, value=116, time=5),\n",
       "    Message('control_change', channel=0, control=64, value=116, time=0),\n",
       "    Message('control_change', channel=0, control=64, value=124, time=5),\n",
       "    Message('control_change', channel=0, control=64, value=124, time=0),\n",
       "    Message('control_change', channel=0, control=64, value=127, time=4),\n",
       "    Message('control_change', channel=0, control=64, value=127, time=0),\n",
       "    Message('note_on', channel=0, note=69, velocity=46, time=6),\n",
       "    Message('note_on', channel=0, note=69, velocity=46, time=0),\n",
       "    Message('note_on', channel=0, note=81, velocity=0, time=9),\n",
       "    Message('note_on', channel=0, note=81, velocity=0, time=0),\n",
       "    Message('note_on', channel=0, note=76, velocity=57, time=96),\n",
       "    Message('note_on', channel=0, note=76, velocity=57, time=1),\n",
       "    Message('note_on', channel=0, note=69, velocity=0, time=1),\n",
       "    Message('note_on', channel=0, note=69, velocity=0, time=0),\n",
       "    Message('note_on', channel=0, note=50, velocity=0, time=7),\n",
       "    Message('note_on', channel=0, note=50, velocity=0, time=0),\n",
       "    Message('note_on', channel=0, note=57, velocity=44, time=13),\n",
       "    Message('note_on', channel=0, note=57, velocity=44, time=1),\n",
       "    Message('note_on', channel=0, note=69, velocity=46, time=102),\n",
       "    Message('note_on', channel=0, note=69, velocity=46, time=0),\n",
       "    Message('note_on', channel=0, note=76, velocity=0, time=31),\n",
       "    Message('note_on', channel=0, note=76, velocity=0, time=0),\n",
       "    Message('note_on', channel=0, note=62, velocity=38, time=89),\n",
       "    Message('note_on', channel=0, note=62, velocity=38, time=1),\n",
       "    Message('note_on', channel=0, note=81, velocity=44, time=6),\n",
       "    Message('note_on', channel=0, note=81, velocity=44, time=0),\n",
       "    Message('note_on', channel=0, note=69, velocity=0, time=13),\n",
       "    Message('note_on', channel=0, note=69, velocity=0, time=0),\n",
       "    Message('note_on', channel=0, note=57, velocity=0, time=3),\n",
       "    Message('note_on', channel=0, note=57, velocity=0, time=0),\n",
       "    Message('note_on', channel=0, note=62, velocity=0, time=63),\n",
       "    Message('note_on', channel=0, note=62, velocity=0, time=1),\n",
       "    Message('note_on', channel=0, note=83, velocity=55, time=20),\n",
       "    Message('note_on', channel=0, note=83, velocity=55, time=0),\n",
       "    Message('note_on', channel=0, note=81, velocity=0, time=0),\n",
       "    Message('note_on', channel=0, note=81, velocity=0, time=0),\n",
       "    Message('note_on', channel=0, note=83, velocity=0, time=132),\n",
       "    Message('note_on', channel=0, note=83, velocity=0, time=1),\n",
       "    Message('note_on', channel=0, note=81, velocity=38, time=0),\n",
       "    Message('note_on', channel=0, note=81, velocity=38, time=1),\n",
       "    Message('note_on', channel=0, note=80, velocity=58, time=129),\n",
       "    Message('note_on', channel=0, note=80, velocity=58, time=0),\n",
       "    Message('note_on', channel=0, note=81, velocity=0, time=16),\n",
       "    Message('note_on', channel=0, note=81, velocity=0, time=0),\n",
       "    Message('control_change', channel=0, control=64, value=0, time=78),\n",
       "    Message('control_change', channel=0, control=64, value=0, time=1),\n",
       "    Message('note_on', channel=0, note=80, velocity=0, time=6),\n",
       "    Message('note_on', channel=0, note=80, velocity=0, time=0),\n",
       "    Message('note_on', channel=0, note=81, velocity=59, time=15),\n",
       "    Message('note_on', channel=0, note=81, velocity=59, time=1),\n",
       "    Message('note_on', channel=0, note=45, velocity=42, time=23),\n",
       "    Message('note_on', channel=0, note=45, velocity=42, time=1),\n",
       "    Message('control_change', channel=0, control=64, value=22, time=56),\n",
       "    Message('control_change', channel=0, control=64, value=22, time=1),\n",
       "    Message('control_change', channel=0, control=64, value=56, time=5),\n",
       "    Message('control_change', channel=0, control=64, value=56, time=0),\n",
       "    Message('control_change', channel=0, control=64, value=84, time=3),\n",
       "    Message('control_change', channel=0, control=64, value=84, time=0),\n",
       "    Message('control_change', channel=0, control=64, value=106, time=6),\n",
       "    Message('control_change', channel=0, control=64, value=106, time=0),\n",
       "    Message('control_change', channel=0, control=64, value=124, time=5),\n",
       "    Message('control_change', channel=0, control=64, value=124, time=0),\n",
       "    Message('control_change', channel=0, control=64, value=127, time=6),\n",
       "    Message('control_change', channel=0, control=64, value=127, time=0),\n",
       "    Message('note_on', channel=0, note=83, velocity=73, time=32),\n",
       "    Message('note_on', channel=0, note=83, velocity=73, time=0),\n",
       "    Message('note_on', channel=0, note=81, velocity=0, time=13),\n",
       "    Message('note_on', channel=0, note=81, velocity=0, time=1),\n",
       "    Message('note_on', channel=0, note=52, velocity=31, time=91),\n",
       "    Message('note_on', channel=0, note=52, velocity=31, time=0),\n",
       "    Message('note_on', channel=0, note=85, velocity=73, time=8),\n",
       "    Message('note_on', channel=0, note=85, velocity=73, time=1),\n",
       "    Message('note_on', channel=0, note=45, velocity=0, time=3),\n",
       "    Message('note_on', channel=0, note=45, velocity=0, time=0),\n",
       "    Message('note_on', channel=0, note=83, velocity=0, time=39),\n",
       "    Message('note_on', channel=0, note=83, velocity=0, time=0),\n",
       "    Message('note_on', channel=0, note=86, velocity=53, time=71),\n",
       "    Message('note_on', channel=0, note=86, velocity=53, time=1),\n",
       "    Message('note_on', channel=0, note=85, velocity=0, time=71),\n",
       "    Message('note_on', channel=0, note=85, velocity=0, time=0),\n",
       "    Message('note_on', channel=0, note=88, velocity=65, time=43),\n",
       "    Message('note_on', channel=0, note=88, velocity=65, time=1),\n",
       "    Message('note_on', channel=0, note=57, velocity=57, time=6),\n",
       "    Message('note_on', channel=0, note=57, velocity=57, time=0),\n",
       "    Message('note_on', channel=0, note=86, velocity=0, time=6),\n",
       "    Message('note_on', channel=0, note=86, velocity=0, time=0),\n",
       "    Message('note_on', channel=0, note=52, velocity=0, time=18),\n",
       "    Message('note_on', channel=0, note=52, velocity=0, time=0),\n",
       "    Message('note_on', channel=0, note=57, velocity=0, time=55),\n",
       "    Message('note_on', channel=0, note=57, velocity=0, time=0),\n",
       "    Message('note_on', channel=0, note=85, velocity=53, time=37),\n",
       "    Message('note_on', channel=0, note=85, velocity=53, time=0),\n",
       "    Message('note_on', channel=0, note=88, velocity=0, time=16),\n",
       "    Message('note_on', channel=0, note=88, velocity=0, time=0),\n",
       "    Message('note_on', channel=0, note=83, velocity=55, time=110),\n",
       "    Message('note_on', channel=0, note=83, velocity=55, time=0),\n",
       "    Message('note_on', channel=0, note=85, velocity=0, time=11),\n",
       "    Message('note_on', channel=0, note=85, velocity=0, time=0),\n",
       "    Message('note_on', channel=0, note=81, velocity=53, time=107),\n",
       "    Message('note_on', channel=0, note=81, velocity=53, time=0),\n",
       "    Message('note_on', channel=0, note=83, velocity=0, time=6),\n",
       "    Message('note_on', channel=0, note=83, velocity=0, time=0),\n",
       "    Message('control_change', channel=0, control=64, value=126, time=60),\n",
       "    Message('control_change', channel=0, control=64, value=126, time=0),\n",
       "    Message('control_change', channel=0, control=64, value=0, time=24),\n",
       "    Message('control_change', channel=0, control=64, value=0, time=1),\n",
       "    Message('note_on', channel=0, note=80, velocity=56, time=23),\n",
       "    Message('note_on', channel=0, note=80, velocity=56, time=1),\n",
       "    Message('note_on', channel=0, note=52, velocity=36, time=3),\n",
       "    Message('note_on', channel=0, note=52, velocity=36, time=1),\n",
       "    Message('note_on', channel=0, note=81, velocity=0, time=41),\n",
       "    Message('note_on', channel=0, note=81, velocity=0, time=0),\n",
       "    Message('control_change', channel=0, control=64, value=64, time=16),\n",
       "    Message('control_change', channel=0, control=64, value=64, time=0),\n",
       "    Message('control_change', channel=0, control=64, value=118, time=8),\n",
       "    Message('control_change', channel=0, control=64, value=118, time=0),\n",
       "    Message('control_change', channel=0, control=64, value=127, time=11),\n",
       "    Message('control_change', channel=0, control=64, value=127, time=0),\n",
       "    Message('note_on', channel=0, note=80, velocity=0, time=84),\n",
       "    Message('note_on', channel=0, note=80, velocity=0, time=0),\n",
       "    Message('note_on', channel=0, note=52, velocity=0, time=79),\n",
       "    Message('note_on', channel=0, note=52, velocity=0, time=0),\n",
       "    Message('note_on', channel=0, note=59, velocity=36, time=1),\n",
       "    Message('note_on', channel=0, note=59, velocity=36, time=1),\n",
       "    Message('note_on', channel=0, note=64, velocity=53, time=217),\n",
       "    Message('note_on', channel=0, note=64, velocity=53, time=1),\n",
       "    Message('note_on', channel=0, note=81, velocity=66, time=1),\n",
       "    Message('note_on', channel=0, note=81, velocity=66, time=1),\n",
       "    Message('note_on', channel=0, note=59, velocity=0, time=28),\n",
       "    Message('note_on', channel=0, note=59, velocity=0, time=0),\n",
       "    Message('note_on', channel=0, note=81, velocity=0, time=13),\n",
       "    Message('note_on', channel=0, note=81, velocity=0, time=0),\n",
       "    Message('note_on', channel=0, note=64, velocity=0, time=58),\n",
       "    Message('note_on', channel=0, note=64, velocity=0, time=0),\n",
       "    Message('note_on', channel=0, note=81, velocity=59, time=41),\n",
       "    Message('note_on', channel=0, note=81, velocity=59, time=0),\n",
       "    Message('note_on', channel=0, note=83, velocity=66, time=54),\n",
       "    Message('note_on', channel=0, note=83, velocity=66, time=0),\n",
       "    Message('note_on', channel=0, note=81, velocity=0, time=6),\n",
       "    Message('note_on', channel=0, note=81, velocity=0, time=0),\n",
       "    Message('note_on', channel=0, note=81, velocity=53, time=84),\n",
       "    Message('note_on', channel=0, note=81, velocity=53, time=1),\n",
       "    Message('note_on', channel=0, note=83, velocity=0, time=3),\n",
       "    Message('note_on', channel=0, note=83, velocity=0, time=0),\n",
       "    Message('note_on', channel=0, note=80, velocity=53, time=111),\n",
       "    Message('note_on', channel=0, note=80, velocity=53, time=1),\n",
       "    Message('note_on', channel=0, note=81, velocity=0, time=3),\n",
       "    Message('note_on', channel=0, note=81, velocity=0, time=0),\n",
       "    Message('control_change', channel=0, control=64, value=118, time=68),\n",
       "    Message('control_change', channel=0, control=64, value=118, time=0),\n",
       "    Message('control_change', channel=0, control=64, value=92, time=3),\n",
       "    Message('control_change', channel=0, control=64, value=92, time=0),\n",
       "    Message('note_on', channel=0, note=81, velocity=44, time=16),\n",
       "    Message('note_on', channel=0, note=81, velocity=44, time=1),\n",
       "    Message('control_change', channel=0, control=64, value=0, time=4),\n",
       "    Message('control_change', channel=0, control=64, value=0, time=0),\n",
       "    Message('note_on', channel=0, note=80, velocity=0, time=11),\n",
       "    Message('note_on', channel=0, note=80, velocity=0, time=0),\n",
       "    Message('note_on', channel=0, note=54, velocity=50, time=11),\n",
       "    Message('note_on', channel=0, note=54, velocity=50, time=1),\n",
       "    Message('control_change', channel=0, control=64, value=20, time=39),\n",
       "    Message('control_change', channel=0, control=64, value=20, time=0),\n",
       "    Message('control_change', channel=0, control=64, value=86, time=13),\n",
       "    Message('control_change', channel=0, control=64, value=86, time=0),\n",
       "    Message('control_change', channel=0, control=64, value=104, time=6),\n",
       "    Message('control_change', channel=0, control=64, value=104, time=0),\n",
       "    Message('control_change', channel=0, control=64, value=120, time=3),\n",
       "    Message('control_change', channel=0, control=64, value=120, time=0),\n",
       "    Message('control_change', channel=0, control=64, value=127, time=6),\n",
       "    Message('control_change', channel=0, control=64, value=127, time=0),\n",
       "    Message('note_on', channel=0, note=81, velocity=0, time=40),\n",
       "    Message('note_on', channel=0, note=81, velocity=0, time=1),\n",
       "    Message('note_on', channel=0, note=69, velocity=62, time=8),\n",
       "    Message('note_on', channel=0, note=69, velocity=62, time=0),\n",
       "    Message('note_on', channel=0, note=54, velocity=0, time=4),\n",
       "    Message('note_on', channel=0, note=54, velocity=0, time=0),\n",
       "    Message('note_on', channel=0, note=76, velocity=68, time=87),\n",
       "    Message('note_on', channel=0, note=76, velocity=68, time=0),\n",
       "    Message('note_on', channel=0, note=69, velocity=0, time=6),\n",
       "    Message('note_on', channel=0, note=69, velocity=0, time=0),\n",
       "    Message('note_on', channel=0, note=61, velocity=32, time=18),\n",
       "    Message('note_on', channel=0, note=61, velocity=32, time=1),\n",
       "    Message('note_on', channel=0, note=69, velocity=55, time=90),\n",
       "    Message('note_on', channel=0, note=69, velocity=55, time=0),\n",
       "    Message('note_on', channel=0, note=76, velocity=0, time=36),\n",
       "    Message('note_on', channel=0, note=76, velocity=0, time=1),\n",
       "    Message('note_on', channel=0, note=61, velocity=0, time=0),\n",
       "    Message('note_on', channel=0, note=61, velocity=0, time=0),\n",
       "    Message('note_on', channel=0, note=69, velocity=0, time=76),\n",
       "    Message('note_on', channel=0, note=69, velocity=0, time=0),\n",
       "    Message('note_on', channel=0, note=81, velocity=59, time=16),\n",
       "    Message('note_on', channel=0, note=81, velocity=59, time=1),\n",
       "    Message('note_on', channel=0, note=66, velocity=38, time=21),\n",
       "    Message('note_on', channel=0, note=66, velocity=38, time=0),\n",
       "    Message('note_on', channel=0, note=81, velocity=0, time=26),\n",
       "    Message('note_on', channel=0, note=81, velocity=0, time=0),\n",
       "    Message('note_on', channel=0, note=66, velocity=0, time=38),\n",
       "    Message('note_on', channel=0, note=66, velocity=0, time=0),\n",
       "    Message('note_on', channel=0, note=81, velocity=55, time=39),\n",
       "    Message('note_on', channel=0, note=81, velocity=55, time=0),\n",
       "    Message('note_on', channel=0, note=83, velocity=53, time=42),\n",
       "    Message('note_on', channel=0, note=83, velocity=53, time=1),\n",
       "    Message('note_on', channel=0, note=81, velocity=0, time=15),\n",
       "    Message('note_on', channel=0, note=81, velocity=0, time=0),\n",
       "    Message('note_on', channel=0, note=81, velocity=55, time=77),\n",
       "    Message('note_on', channel=0, note=81, velocity=55, time=0),\n",
       "    Message('note_on', channel=0, note=83, velocity=0, time=16),\n",
       "    Message('note_on', channel=0, note=83, velocity=0, time=0),\n",
       "    Message('note_on', channel=0, note=80, velocity=58, time=98),\n",
       "    Message('note_on', channel=0, note=80, velocity=58, time=0),\n",
       "    Message('note_on', channel=0, note=81, velocity=0, time=6),\n",
       "    Message('note_on', channel=0, note=81, velocity=0, time=0),\n",
       "    Message('control_change', channel=0, control=64, value=120, time=69),\n",
       "    Message('control_change', channel=0, control=64, value=120, time=0),\n",
       "    Message('control_change', channel=0, control=64, value=92, time=3),\n",
       "    Message('control_change', channel=0, control=64, value=92, time=1),\n",
       "    Message('control_change', channel=0, control=64, value=62, time=7),\n",
       "    Message('control_change', channel=0, control=64, value=62, time=0),\n",
       "    Message('note_on', channel=0, note=81, velocity=59, time=6),\n",
       "    Message('note_on', channel=0, note=81, velocity=59, time=0),\n",
       "    Message('control_change', channel=0, control=64, value=0, time=11),\n",
       "    Message('control_change', channel=0, control=64, value=0, time=0),\n",
       "    Message('note_on', channel=0, note=50, velocity=28, time=6),\n",
       "    Message('note_on', channel=0, note=50, velocity=28, time=0),\n",
       "    Message('note_on', channel=0, note=80, velocity=0, time=4),\n",
       "    Message('note_on', channel=0, note=80, velocity=0, time=0),\n",
       "    Message('control_change', channel=0, control=64, value=6, time=34),\n",
       "    Message('control_change', channel=0, control=64, value=6, time=0),\n",
       "    Message('control_change', channel=0, control=64, value=26, time=3),\n",
       "    Message('control_change', channel=0, control=64, value=26, time=0),\n",
       "    Message('control_change', channel=0, control=64, value=52, time=6),\n",
       "    Message('control_change', channel=0, control=64, value=52, time=0),\n",
       "    Message('control_change', channel=0, control=64, value=70, time=5),\n",
       "    Message('control_change', channel=0, control=64, value=70, time=0),\n",
       "    Message('control_change', channel=0, control=64, value=90, time=5),\n",
       "    Message('control_change', channel=0, control=64, value=90, time=1),\n",
       "    Message('control_change', channel=0, control=64, value=108, time=3),\n",
       "    Message('control_change', channel=0, control=64, value=108, time=0),\n",
       "    Message('control_change', channel=0, control=64, value=127, time=11),\n",
       "    Message('control_change', channel=0, control=64, value=127, time=0),\n",
       "    Message('note_on', channel=0, note=81, velocity=0, time=54),\n",
       "    Message('note_on', channel=0, note=81, velocity=0, time=0),\n",
       "    Message('note_on', channel=0, note=69, velocity=73, time=6),\n",
       "    Message('note_on', channel=0, note=69, velocity=73, time=0),\n",
       "    Message('note_on', channel=0, note=50, velocity=0, time=108),\n",
       "    Message('note_on', channel=0, note=50, velocity=0, time=0),\n",
       "    Message('note_on', channel=0, note=76, velocity=62, time=1),\n",
       "    Message('note_on', channel=0, note=76, velocity=62, time=0),\n",
       "    Message('note_on', channel=0, note=69, velocity=0, time=5),\n",
       "    Message('note_on', channel=0, note=69, velocity=0, time=1),\n",
       "    Message('note_on', channel=0, note=57, velocity=44, time=18),\n",
       "    Message('note_on', channel=0, note=57, velocity=44, time=0),\n",
       "    Message('note_on', channel=0, note=69, velocity=62, time=100),\n",
       "    Message('note_on', channel=0, note=69, velocity=62, time=0),\n",
       "    Message('note_on', channel=0, note=76, velocity=0, time=26),\n",
       "    Message('note_on', channel=0, note=76, velocity=0, time=0),\n",
       "    Message('note_on', channel=0, note=81, velocity=48, time=76),\n",
       "    Message('note_on', channel=0, note=81, velocity=48, time=0),\n",
       "    Message('note_on', channel=0, note=62, velocity=34, time=19),\n",
       "    Message('note_on', channel=0, note=62, velocity=34, time=0),\n",
       "    Message('note_on', channel=0, note=69, velocity=0, time=1),\n",
       "    Message('note_on', channel=0, note=69, velocity=0, time=1),\n",
       "    Message('note_on', channel=0, note=57, velocity=0, time=12),\n",
       "    Message('note_on', channel=0, note=57, velocity=0, time=0),\n",
       "    Message('note_on', channel=0, note=81, velocity=0, time=37),\n",
       "    Message('note_on', channel=0, note=81, velocity=0, time=0),\n",
       "    Message('note_on', channel=0, note=62, velocity=0, time=18),\n",
       "    Message('note_on', channel=0, note=62, velocity=0, time=1),\n",
       "    Message('note_on', channel=0, note=81, velocity=64, time=43),\n",
       "    Message('note_on', channel=0, note=81, velocity=64, time=0),\n",
       "    Message('note_on', channel=0, note=83, velocity=64, time=54),\n",
       "    Message('note_on', channel=0, note=83, velocity=64, time=0),\n",
       "    Message('note_on', channel=0, note=81, velocity=0, time=6),\n",
       "    Message('note_on', channel=0, note=81, velocity=0, time=0),\n",
       "    Message('note_on', channel=0, note=81, velocity=53, time=76),\n",
       "    Message('note_on', channel=0, note=81, velocity=53, time=1),\n",
       "    Message('note_on', channel=0, note=83, velocity=0, time=5),\n",
       "    Message('note_on', channel=0, note=83, velocity=0, time=0),\n",
       "    Message('note_on', channel=0, note=80, velocity=56, time=105),\n",
       "    Message('note_on', channel=0, note=80, velocity=56, time=0),\n",
       "    Message('note_on', channel=0, note=81, velocity=0, time=18),\n",
       "    Message('note_on', channel=0, note=81, velocity=0, time=0),\n",
       "    Message('control_change', channel=0, control=64, value=116, time=71),\n",
       "    Message('control_change', channel=0, control=64, value=116, time=0),\n",
       "    Message('note_on', channel=0, note=80, velocity=0, time=1),\n",
       "    Message('note_on', channel=0, note=80, velocity=0, time=0),\n",
       "    Message('control_change', channel=0, control=64, value=88, time=5),\n",
       "    Message('control_change', channel=0, control=64, value=88, time=0),\n",
       "    Message('control_change', channel=0, control=64, value=0, time=20),\n",
       "    Message('control_change', channel=0, control=64, value=0, time=0),\n",
       "    Message('note_on', channel=0, note=81, velocity=68, time=6),\n",
       "    Message('note_on', channel=0, note=81, velocity=68, time=1),\n",
       "    Message('note_on', channel=0, note=45, velocity=40, time=8),\n",
       "    Message('note_on', channel=0, note=45, velocity=40, time=1),\n",
       "    Message('control_change', channel=0, control=64, value=20, time=54),\n",
       "    Message('control_change', channel=0, control=64, value=20, time=0),\n",
       "    Message('control_change', channel=0, control=64, value=40, time=6),\n",
       "    Message('control_change', channel=0, control=64, value=40, time=0),\n",
       "    Message('control_change', channel=0, control=64, value=60, time=3),\n",
       "    Message('control_change', channel=0, control=64, value=60, time=0),\n",
       "    Message('control_change', channel=0, control=64, value=78, time=6),\n",
       "    Message('control_change', channel=0, control=64, value=78, time=0),\n",
       "    Message('control_change', channel=0, control=64, value=92, time=5),\n",
       "    Message('control_change', channel=0, control=64, value=92, time=0),\n",
       "    Message('control_change', channel=0, control=64, value=104, time=4),\n",
       "    Message('control_change', channel=0, control=64, value=104, time=0),\n",
       "    Message('control_change', channel=0, control=64, value=118, time=5),\n",
       "    Message('control_change', channel=0, control=64, value=118, time=0),\n",
       "    Message('control_change', channel=0, control=64, value=127, time=6),\n",
       "    Message('control_change', channel=0, control=64, value=127, time=0),\n",
       "    Message('note_on', channel=0, note=83, velocity=59, time=24),\n",
       "    Message('note_on', channel=0, note=83, velocity=59, time=0),\n",
       "    Message('note_on', channel=0, note=81, velocity=0, time=21),\n",
       "    Message('note_on', channel=0, note=81, velocity=0, time=0),\n",
       "    Message('note_on', channel=0, note=85, velocity=70, time=97),\n",
       "    Message('note_on', channel=0, note=85, velocity=70, time=1),\n",
       "    Message('note_on', channel=0, note=45, velocity=0, time=2),\n",
       "    Message('note_on', channel=0, note=45, velocity=0, time=1),\n",
       "    Message('note_on', channel=0, note=52, velocity=44, time=9),\n",
       "    Message('note_on', channel=0, note=52, velocity=44, time=1),\n",
       "    Message('note_on', channel=0, note=83, velocity=0, time=26),\n",
       "    Message('note_on', channel=0, note=83, velocity=0, time=0),\n",
       "    Message('note_on', channel=0, note=86, velocity=57, time=92),\n",
       "    Message('note_on', channel=0, note=86, velocity=57, time=0),\n",
       "    Message('note_on', channel=0, note=85, velocity=0, time=74),\n",
       "    Message('note_on', channel=0, note=85, velocity=0, time=0),\n",
       "    Message('note_on', channel=0, note=57, velocity=46, time=36),\n",
       "    Message('note_on', channel=0, note=57, velocity=46, time=1),\n",
       "    Message('note_on', channel=0, note=88, velocity=56, time=4),\n",
       "    Message('note_on', channel=0, note=88, velocity=56, time=0),\n",
       "    Message('note_on', channel=0, note=86, velocity=0, time=3),\n",
       "    Message('note_on', channel=0, note=86, velocity=0, time=0),\n",
       "    Message('note_on', channel=0, note=52, velocity=0, time=5),\n",
       "    Message('note_on', channel=0, note=52, velocity=0, time=1),\n",
       "    Message('note_on', channel=0, note=57, velocity=0, time=90),\n",
       "    Message('note_on', channel=0, note=57, velocity=0, time=0),\n",
       "    Message('note_on', channel=0, note=85, velocity=58, time=34),\n",
       "    Message('note_on', channel=0, note=85, velocity=58, time=0),\n",
       "    Message('note_on', channel=0, note=88, velocity=0, time=11),\n",
       "    Message('note_on', channel=0, note=88, velocity=0, time=0),\n",
       "    Message('note_on', channel=0, note=83, velocity=59, time=99),\n",
       "    Message('note_on', channel=0, note=83, velocity=59, time=1),\n",
       "    Message('note_on', channel=0, note=85, velocity=0, time=10),\n",
       "    Message('note_on', channel=0, note=85, velocity=0, time=0),\n",
       "    Message('note_on', channel=0, note=81, velocity=55, time=89),\n",
       "    Message('note_on', channel=0, note=81, velocity=55, time=1),\n",
       "    Message('note_on', channel=0, note=83, velocity=0, time=8),\n",
       "    Message('note_on', channel=0, note=83, velocity=0, time=0),\n",
       "    Message('control_change', channel=0, control=64, value=126, time=59),\n",
       "    Message('control_change', channel=0, control=64, value=126, time=0),\n",
       "    Message('control_change', channel=0, control=64, value=110, time=6),\n",
       "    Message('control_change', channel=0, control=64, value=110, time=0),\n",
       "    Message('control_change', channel=0, control=64, value=90, time=6),\n",
       "    Message('control_change', channel=0, control=64, value=90, time=0),\n",
       "    Message('control_change', channel=0, control=64, value=64, time=3),\n",
       "    Message('control_change', channel=0, control=64, value=64, time=0),\n",
       "    Message('control_change', channel=0, control=64, value=0, time=12),\n",
       "    Message('control_change', channel=0, control=64, value=0, time=0),\n",
       "    Message('note_on', channel=0, note=80, velocity=48, time=29),\n",
       "    Message('note_on', channel=0, note=80, velocity=48, time=0),\n",
       "    Message('note_on', channel=0, note=52, velocity=38, time=9),\n",
       "    Message('note_on', channel=0, note=52, velocity=38, time=1),\n",
       "    Message('control_change', channel=0, control=64, value=34, time=41),\n",
       "    Message('control_change', channel=0, control=64, value=34, time=0),\n",
       "    Message('control_change', channel=0, control=64, value=62, time=5),\n",
       "    Message('control_change', channel=0, control=64, value=62, time=0),\n",
       "    Message('note_on', channel=0, note=81, velocity=0, time=1),\n",
       "    Message('note_on', channel=0, note=81, velocity=0, time=0),\n",
       "    Message('control_change', channel=0, control=64, value=86, time=3),\n",
       "    Message('control_change', channel=0, control=64, value=86, time=0),\n",
       "    Message('control_change', channel=0, control=64, value=104, time=6),\n",
       "    Message('control_change', channel=0, control=64, value=104, time=0),\n",
       "    Message('control_change', channel=0, control=64, value=124, time=5),\n",
       "    Message('control_change', channel=0, control=64, value=124, time=0),\n",
       "    Message('control_change', channel=0, control=64, value=127, time=3),\n",
       "    Message('control_change', channel=0, control=64, value=127, time=0),\n",
       "    Message('note_on', channel=0, note=80, velocity=0, time=90),\n",
       "    Message('note_on', channel=0, note=80, velocity=0, time=0),\n",
       "    Message('note_on', channel=0, note=59, velocity=35, time=81),\n",
       "    Message('note_on', channel=0, note=59, velocity=35, time=1),\n",
       "    Message('note_on', channel=0, note=52, velocity=0, time=18),\n",
       "    Message('note_on', channel=0, note=52, velocity=0, time=0),\n",
       "    Message('note_on', channel=0, note=64, velocity=40, time=212),\n",
       "    Message('note_on', channel=0, note=64, velocity=40, time=0),\n",
       "    Message('note_on', channel=0, note=81, velocity=59, time=4),\n",
       "    Message('note_on', channel=0, note=81, velocity=59, time=0),\n",
       "    Message('note_on', channel=0, note=59, velocity=0, time=36),\n",
       "    Message('note_on', channel=0, note=59, velocity=0, time=0),\n",
       "    Message('note_on', channel=0, note=81, velocity=0, time=8),\n",
       "    Message('note_on', channel=0, note=81, velocity=0, time=0),\n",
       "    Message('note_on', channel=0, note=81, velocity=51, time=89),\n",
       "    Message('note_on', channel=0, note=81, velocity=51, time=0),\n",
       "    Message('note_on', channel=0, note=83, velocity=59, time=31),\n",
       "    Message('note_on', channel=0, note=83, velocity=59, time=0),\n",
       "    Message('note_on', channel=0, note=81, velocity=0, time=6),\n",
       "    Message('note_on', channel=0, note=81, velocity=0, time=0),\n",
       "    Message('note_on', channel=0, note=64, velocity=0, time=36),\n",
       "    Message('note_on', channel=0, note=64, velocity=0, time=0),\n",
       "    Message('note_on', channel=0, note=81, velocity=48, time=59),\n",
       "    Message('note_on', channel=0, note=81, velocity=48, time=0),\n",
       "    Message('note_on', channel=0, note=83, velocity=0, time=11),\n",
       "    Message('note_on', channel=0, note=83, velocity=0, time=0),\n",
       "    Message('note_on', channel=0, note=81, velocity=0, time=95),\n",
       "    Message('note_on', channel=0, note=81, velocity=0, time=0),\n",
       "    Message('note_on', channel=0, note=80, velocity=51, time=1),\n",
       "    Message('note_on', channel=0, note=80, velocity=51, time=0),\n",
       "    Message('control_change', channel=0, control=64, value=106, time=87),\n",
       "    Message('control_change', channel=0, control=64, value=106, time=0),\n",
       "    Message('control_change', channel=0, control=64, value=0, time=16),\n",
       "    Message('control_change', channel=0, control=64, value=0, time=0),\n",
       "    Message('note_on', channel=0, note=81, velocity=44, time=3),\n",
       "    Message('note_on', channel=0, note=81, velocity=44, time=1),\n",
       "    Message('note_on', channel=0, note=54, velocity=34, time=19),\n",
       "    Message('note_on', channel=0, note=54, velocity=34, time=0),\n",
       "    Message('note_on', channel=0, note=80, velocity=0, time=6),\n",
       "    Message('note_on', channel=0, note=80, velocity=0, time=0),\n",
       "    Message('control_change', channel=0, control=64, value=1, time=67),\n",
       "    Message('control_change', channel=0, control=64, value=1, time=0),\n",
       "    Message('control_change', channel=0, control=64, value=22, time=5),\n",
       "    Message('control_change', channel=0, control=64, value=22, time=0),\n",
       "    Message('control_change', channel=0, control=64, value=65, time=9),\n",
       "    Message('control_change', channel=0, control=64, value=65, time=0),\n",
       "    Message('control_change', channel=0, control=64, value=84, time=5),\n",
       "    Message('control_change', channel=0, control=64, value=84, time=0),\n",
       "    Message('control_change', channel=0, control=64, value=96, time=6),\n",
       "    Message('control_change', channel=0, control=64, value=96, time=0),\n",
       "    Message('control_change', channel=0, control=64, value=108, time=3),\n",
       "    Message('control_change', channel=0, control=64, value=108, time=0),\n",
       "    Message('control_change', channel=0, control=64, value=118, time=5),\n",
       "    Message('control_change', channel=0, control=64, value=118, time=0),\n",
       "    Message('control_change', channel=0, control=64, value=126, time=6),\n",
       "    Message('control_change', channel=0, control=64, value=126, time=0),\n",
       "    Message('control_change', channel=0, control=64, value=127, time=6),\n",
       "    Message('control_change', channel=0, control=64, value=127, time=0),\n",
       "    Message('note_on', channel=0, note=54, velocity=0, time=3),\n",
       "    Message('note_on', channel=0, note=54, velocity=0, time=0),\n",
       "    Message('note_on', channel=0, note=81, velocity=0, time=5),\n",
       "    Message('note_on', channel=0, note=81, velocity=0, time=1),\n",
       "    Message('note_on', channel=0, note=69, velocity=55, time=7),\n",
       "    Message('note_on', channel=0, note=69, velocity=55, time=1),\n",
       "    Message('note_on', channel=0, note=69, velocity=0, time=91),\n",
       "    Message('note_on', channel=0, note=69, velocity=0, time=0),\n",
       "    Message('note_on', channel=0, note=76, velocity=57, time=1),\n",
       "    Message('note_on', channel=0, note=76, velocity=57, time=1),\n",
       "    Message('note_on', channel=0, note=61, velocity=36, time=23),\n",
       "    Message('note_on', channel=0, note=61, velocity=36, time=1),\n",
       "    Message('note_on', channel=0, note=69, velocity=55, time=76),\n",
       "    Message('note_on', channel=0, note=69, velocity=55, time=0),\n",
       "    Message('note_on', channel=0, note=76, velocity=0, time=31),\n",
       "    Message('note_on', channel=0, note=76, velocity=0, time=1),\n",
       "    Message('note_on', channel=0, note=61, velocity=0, time=12),\n",
       "    Message('note_on', channel=0, note=61, velocity=0, time=0),\n",
       "    Message('note_on', channel=0, note=69, velocity=0, time=61),\n",
       "    Message('note_on', channel=0, note=69, velocity=0, time=0),\n",
       "    Message('note_on', channel=0, note=81, velocity=55, time=31),\n",
       "    Message('note_on', channel=0, note=81, velocity=55, time=1),\n",
       "    Message('note_on', channel=0, note=66, velocity=56, time=8),\n",
       "    Message('note_on', channel=0, note=66, velocity=56, time=1),\n",
       "    Message('note_on', channel=0, note=81, velocity=0, time=49),\n",
       "    Message('note_on', channel=0, note=81, velocity=0, time=0),\n",
       "    Message('note_on', channel=0, note=66, velocity=0, time=24),\n",
       "    Message('note_on', channel=0, note=66, velocity=0, time=0),\n",
       "    Message('note_on', channel=0, note=81, velocity=62, time=57),\n",
       "    Message('note_on', channel=0, note=81, velocity=62, time=0),\n",
       "    Message('note_on', channel=0, note=83, velocity=4, time=64),\n",
       "    Message('note_on', channel=0, note=83, velocity=4, time=0),\n",
       "    Message('note_on', channel=0, note=81, velocity=0, time=4),\n",
       "    Message('note_on', channel=0, note=81, velocity=0, time=0),\n",
       "    Message('note_on', channel=0, note=81, velocity=62, time=81),\n",
       "    Message('note_on', channel=0, note=81, velocity=62, time=1),\n",
       "    Message('note_on', channel=0, note=83, velocity=0, time=18),\n",
       "    Message('note_on', channel=0, note=83, velocity=0, time=0),\n",
       "    Message('note_on', channel=0, note=80, velocity=63, time=69),\n",
       "    Message('note_on', channel=0, note=80, velocity=63, time=1),\n",
       "    Message('note_on', channel=0, note=81, velocity=0, time=10),\n",
       "    Message('note_on', channel=0, note=81, velocity=0, time=0),\n",
       "    Message('note_on', channel=0, note=81, velocity=48, time=90),\n",
       "    Message('note_on', channel=0, note=81, velocity=48, time=0),\n",
       "    Message('note_on', channel=0, note=80, velocity=0, time=21),\n",
       "    Message('note_on', channel=0, note=80, velocity=0, time=0),\n",
       "    Message('note_on', channel=0, note=50, velocity=46, time=0),\n",
       "    Message('note_on', channel=0, note=50, velocity=46, time=1),\n",
       "    Message('note_on', channel=0, note=81, velocity=0, time=93),\n",
       "    Message('note_on', channel=0, note=81, velocity=0, time=0),\n",
       "    Message('note_on', channel=0, note=69, velocity=62, time=9),\n",
       "    Message('note_on', channel=0, note=69, velocity=62, time=1),\n",
       "    Message('note_on', channel=0, note=69, velocity=0, time=100),\n",
       "    Message('note_on', channel=0, note=69, velocity=0, time=0),\n",
       "    Message('note_on', channel=0, note=76, velocity=57, time=0),\n",
       "    Message('note_on', channel=0, note=76, velocity=57, time=1),\n",
       "    Message('note_on', channel=0, note=50, velocity=0, time=17),\n",
       "    Message('note_on', channel=0, note=50, velocity=0, time=0),\n",
       "    Message('note_on', channel=0, note=57, velocity=38, time=13),\n",
       "    Message('note_on', channel=0, note=57, velocity=38, time=1),\n",
       "    Message('note_on', channel=0, note=69, velocity=66, time=123),\n",
       "    Message('note_on', channel=0, note=69, velocity=66, time=0),\n",
       "    Message('note_on', channel=0, note=76, velocity=0, time=19),\n",
       "    Message('note_on', channel=0, note=76, velocity=0, time=0),\n",
       "    Message('note_on', channel=0, note=69, velocity=0, time=71),\n",
       "    Message('note_on', channel=0, note=69, velocity=0, time=1),\n",
       "    Message('note_on', channel=0, note=62, velocity=53, time=13),\n",
       "    Message('note_on', channel=0, note=62, velocity=53, time=0),\n",
       "    Message('note_on', channel=0, note=81, velocity=68, time=19),\n",
       "    Message('note_on', channel=0, note=81, velocity=68, time=0),\n",
       "    Message('note_on', channel=0, note=57, velocity=0, time=8),\n",
       "    Message('note_on', channel=0, note=57, velocity=0, time=1),\n",
       "    Message('note_on', channel=0, note=81, velocity=0, time=25),\n",
       "    Message('note_on', channel=0, note=81, velocity=0, time=0),\n",
       "    Message('note_on', channel=0, note=62, velocity=0, time=18),\n",
       "    Message('note_on', channel=0, note=62, velocity=0, time=0),\n",
       "    Message('note_on', channel=0, note=81, velocity=31, time=62),\n",
       "    Message('note_on', channel=0, note=81, velocity=31, time=1),\n",
       "    Message('note_on', channel=0, note=83, velocity=68, time=8),\n",
       "    Message('note_on', channel=0, note=83, velocity=68, time=0),\n",
       "    Message('note_on', channel=0, note=81, velocity=0, time=26),\n",
       "    Message('note_on', channel=0, note=81, velocity=0, time=0),\n",
       "    Message('note_on', channel=0, note=81, velocity=66, time=72),\n",
       "    Message('note_on', channel=0, note=81, velocity=66, time=0),\n",
       "    Message('note_on', channel=0, note=83, velocity=0, time=14),\n",
       "    Message('note_on', channel=0, note=83, velocity=0, time=0),\n",
       "    Message('note_on', channel=0, note=80, velocity=51, time=88),\n",
       "    Message('note_on', channel=0, note=80, velocity=51, time=0),\n",
       "    Message('note_on', channel=0, note=81, velocity=0, time=24),\n",
       "    Message('note_on', channel=0, note=81, velocity=0, time=0),\n",
       "    Message('control_change', channel=0, control=64, value=56, time=87),\n",
       "    Message('control_change', channel=0, control=64, value=56, time=0),\n",
       "    Message('note_on', channel=0, note=80, velocity=0, time=3),\n",
       "    Message('note_on', channel=0, note=80, velocity=0, time=0),\n",
       "    Message('control_change', channel=0, control=64, value=18, time=0),\n",
       "    Message('control_change', channel=0, control=64, value=18, time=0),\n",
       "    Message('note_on', channel=0, note=81, velocity=62, time=12),\n",
       "    Message('note_on', channel=0, note=81, velocity=62, time=0),\n",
       "    Message('control_change', channel=0, control=64, value=0, time=2),\n",
       "    Message('control_change', channel=0, control=64, value=0, time=1),\n",
       "    Message('note_on', channel=0, note=45, velocity=40, time=6),\n",
       "    Message('note_on', channel=0, note=45, velocity=40, time=1),\n",
       "    Message('control_change', channel=0, control=64, value=16, time=44),\n",
       "    Message('control_change', channel=0, control=64, value=16, time=0),\n",
       "    Message('control_change', channel=0, control=64, value=36, time=7),\n",
       "    Message('control_change', channel=0, control=64, value=36, time=0),\n",
       "    Message('control_change', channel=0, control=64, value=58, time=5),\n",
       "    Message('control_change', channel=0, control=64, value=58, time=0),\n",
       "    Message('control_change', channel=0, control=64, value=74, time=5),\n",
       "    Message('control_change', channel=0, control=64, value=74, time=0),\n",
       "    Message('control_change', channel=0, control=64, value=108, time=9),\n",
       "    Message('control_change', channel=0, control=64, value=108, time=0),\n",
       "    Message('control_change', channel=0, control=64, value=124, time=3),\n",
       "    Message('control_change', channel=0, control=64, value=124, time=0),\n",
       "    Message('control_change', channel=0, control=64, value=127, time=6),\n",
       "    Message('control_change', channel=0, control=64, value=127, time=0),\n",
       "    Message('note_on', channel=0, note=83, velocity=59, time=34),\n",
       "    Message('note_on', channel=0, note=83, velocity=59, time=0),\n",
       "    Message('note_on', channel=0, note=81, velocity=0, time=8),\n",
       "    Message('note_on', channel=0, note=81, velocity=0, time=1),\n",
       "    Message('note_on', channel=0, note=45, velocity=0, time=82),\n",
       "    Message('note_on', channel=0, note=45, velocity=0, time=1),\n",
       "    Message('note_on', channel=0, note=85, velocity=63, time=23),\n",
       "    Message('note_on', channel=0, note=85, velocity=63, time=0),\n",
       "    Message('note_on', channel=0, note=52, velocity=40, time=14),\n",
       "    Message('note_on', channel=0, note=52, velocity=40, time=0),\n",
       "    Message('note_on', channel=0, note=83, velocity=0, time=10),\n",
       "    Message('note_on', channel=0, note=83, velocity=0, time=1),\n",
       "    Message('note_on', channel=0, note=86, velocity=57, time=93),\n",
       "    Message('note_on', channel=0, note=86, velocity=57, time=1),\n",
       "    Message('note_on', channel=0, note=85, velocity=0, time=93),\n",
       "    Message('note_on', channel=0, note=85, velocity=0, time=0),\n",
       "    Message('note_on', channel=0, note=88, velocity=54, time=29),\n",
       "    Message('note_on', channel=0, note=88, velocity=54, time=0),\n",
       "    Message('note_on', channel=0, note=57, velocity=48, time=11),\n",
       "    Message('note_on', channel=0, note=57, velocity=48, time=1),\n",
       "    Message('note_on', channel=0, note=86, velocity=0, time=2),\n",
       "    Message('note_on', channel=0, note=86, velocity=0, time=0),\n",
       "    Message('note_on', channel=0, note=52, velocity=0, time=19),\n",
       "    Message('note_on', channel=0, note=52, velocity=0, time=0),\n",
       "    Message('note_on', channel=0, note=57, velocity=0, time=68),\n",
       "    Message('note_on', channel=0, note=57, velocity=0, time=0),\n",
       "    Message('note_on', channel=0, note=85, velocity=43, time=44),\n",
       "    Message('note_on', channel=0, note=85, velocity=43, time=0),\n",
       "    Message('note_on', channel=0, note=88, velocity=0, time=21),\n",
       "    Message('note_on', channel=0, note=88, velocity=0, time=0),\n",
       "    Message('note_on', channel=0, note=83, velocity=51, time=88),\n",
       "    Message('note_on', channel=0, note=83, velocity=51, time=1),\n",
       "    Message('note_on', channel=0, note=85, velocity=0, time=11),\n",
       "    Message('note_on', channel=0, note=85, velocity=0, time=0),\n",
       "    Message('note_on', channel=0, note=81, velocity=62, time=100),\n",
       "    Message('note_on', channel=0, note=81, velocity=62, time=1),\n",
       "    Message('note_on', channel=0, note=83, velocity=0, time=7),\n",
       "    Message('note_on', channel=0, note=83, velocity=0, time=0),\n",
       "    Message('control_change', channel=0, control=64, value=100, time=67),\n",
       "    Message('control_change', channel=0, control=64, value=100, time=0),\n",
       "    Message('control_change', channel=0, control=64, value=66, time=6),\n",
       "    Message('control_change', channel=0, control=64, value=66, time=0),\n",
       "    Message('control_change', channel=0, control=64, value=24, time=5),\n",
       "    Message('control_change', channel=0, control=64, value=24, time=0),\n",
       "    Message('control_change', channel=0, control=64, value=0, time=8),\n",
       "    Message('control_change', channel=0, control=64, value=0, time=0),\n",
       "    Message('note_on', channel=0, note=80, velocity=48, time=31),\n",
       "    Message('note_on', channel=0, note=80, velocity=48, time=1),\n",
       "    Message('note_on', channel=0, note=52, velocity=46, time=4),\n",
       "    Message('note_on', channel=0, note=52, velocity=46, time=0),\n",
       "    Message('note_on', channel=0, note=81, velocity=0, time=36),\n",
       "    Message('note_on', channel=0, note=81, velocity=0, time=1),\n",
       "    Message('control_change', channel=0, control=64, value=8, time=0),\n",
       "    Message('control_change', channel=0, control=64, value=8, time=0),\n",
       "    Message('control_change', channel=0, control=64, value=34, time=5),\n",
       "    Message('control_change', channel=0, control=64, value=34, time=0),\n",
       "    Message('control_change', channel=0, control=64, value=62, time=3),\n",
       "    Message('control_change', channel=0, control=64, value=62, time=0),\n",
       "    Message('control_change', channel=0, control=64, value=86, time=5),\n",
       "    Message('control_change', channel=0, control=64, value=86, time=0),\n",
       "    Message('control_change', channel=0, control=64, value=108, time=6),\n",
       "    Message('control_change', channel=0, control=64, value=108, time=0),\n",
       "    Message('control_change', channel=0, control=64, value=127, time=6),\n",
       "    Message('control_change', channel=0, control=64, value=127, time=0),\n",
       "    Message('note_on', channel=0, note=80, velocity=0, time=96),\n",
       "    Message('note_on', channel=0, note=80, velocity=0, time=0),\n",
       "    Message('note_on', channel=0, note=59, velocity=32, time=84),\n",
       "    Message('note_on', channel=0, note=59, velocity=32, time=0),\n",
       "    Message('note_on', channel=0, note=52, velocity=0, time=23),\n",
       "    Message('note_on', channel=0, note=52, velocity=0, time=0),\n",
       "    Message('note_on', channel=0, note=64, velocity=40, time=241),\n",
       "    Message('note_on', channel=0, note=64, velocity=40, time=0),\n",
       "    Message('note_on', channel=0, note=59, velocity=0, time=31),\n",
       "    Message('note_on', channel=0, note=59, velocity=0, time=0),\n",
       "    Message('note_on', channel=0, note=69, velocity=44, time=216),\n",
       "    Message('note_on', channel=0, note=69, velocity=44, time=1),\n",
       "    Message('note_on', channel=0, note=64, velocity=0, time=13),\n",
       "    Message('note_on', channel=0, note=64, velocity=0, time=0),\n",
       "    Message('note_on', channel=0, note=73, velocity=29, time=89),\n",
       "    Message('note_on', channel=0, note=73, velocity=29, time=0),\n",
       "    Message('note_on', channel=0, note=69, velocity=0, time=14),\n",
       "    Message('note_on', channel=0, note=69, velocity=0, time=0),\n",
       "    Message('note_on', channel=0, note=73, velocity=0, time=81),\n",
       "    Message('note_on', channel=0, note=73, velocity=0, time=0),\n",
       "    Message('note_on', channel=0, note=81, velocity=34, time=41),\n",
       "    Message('note_on', channel=0, note=81, velocity=34, time=0),\n",
       "    Message('note_on', channel=0, note=54, velocity=30, time=4),\n",
       "    Message('note_on', channel=0, note=54, velocity=30, time=0),\n",
       "    Message('control_change', channel=0, control=64, value=118, time=1),\n",
       "    Message('control_change', channel=0, control=64, value=118, time=0),\n",
       "    Message('control_change', channel=0, control=64, value=106, time=4),\n",
       "    Message('control_change', channel=0, control=64, value=106, time=0),\n",
       "    Message('control_change', channel=0, control=64, value=90, time=5),\n",
       "    Message('control_change', channel=0, control=64, value=90, time=0),\n",
       "    Message('control_change', channel=0, control=64, value=76, time=6),\n",
       "    Message('control_change', channel=0, control=64, value=76, time=0),\n",
       "    Message('control_change', channel=0, control=64, value=62, time=6),\n",
       "    Message('control_change', channel=0, control=64, value=62, time=1),\n",
       "    Message('control_change', channel=0, control=64, value=50, time=3),\n",
       "    Message('control_change', channel=0, control=64, value=50, time=0),\n",
       "    Message('control_change', channel=0, control=64, value=38, time=3),\n",
       "    Message('control_change', channel=0, control=64, value=38, time=0),\n",
       "    Message('control_change', channel=0, control=64, value=26, time=6),\n",
       "    Message('control_change', channel=0, control=64, value=26, time=0),\n",
       "    Message('control_change', channel=0, control=64, value=20, time=5),\n",
       "    Message('control_change', channel=0, control=64, value=20, time=0),\n",
       "    Message('control_change', channel=0, control=64, value=16, time=3),\n",
       "    Message('control_change', channel=0, control=64, value=16, time=0),\n",
       "    Message('control_change', channel=0, control=64, value=18, time=11),\n",
       "    Message('control_change', channel=0, control=64, value=18, time=0),\n",
       "    Message('control_change', channel=0, control=64, value=20, time=5),\n",
       "    Message('control_change', channel=0, control=64, value=20, time=0),\n",
       "    Message('control_change', channel=0, control=64, value=26, time=3),\n",
       "    Message('control_change', channel=0, control=64, value=26, time=0),\n",
       "    Message('control_change', channel=0, control=64, value=34, time=6),\n",
       "    Message('control_change', channel=0, control=64, value=34, time=0),\n",
       "    Message('control_change', channel=0, control=64, value=40, time=6),\n",
       "    Message('control_change', channel=0, control=64, value=40, time=0),\n",
       "    Message('control_change', channel=0, control=64, value=48, time=3),\n",
       "    Message('control_change', channel=0, control=64, value=48, time=0),\n",
       "    Message('control_change', channel=0, control=64, value=56, time=5),\n",
       "    Message('control_change', channel=0, control=64, value=56, time=0),\n",
       "    Message('control_change', channel=0, control=64, value=62, time=6),\n",
       "    Message('control_change', channel=0, control=64, value=62, time=0),\n",
       "    Message('control_change', channel=0, control=64, value=68, time=3),\n",
       "    Message('control_change', channel=0, control=64, value=68, time=0),\n",
       "    Message('control_change', channel=0, control=64, value=76, time=6),\n",
       "    Message('control_change', channel=0, control=64, value=76, time=0),\n",
       "    Message('control_change', channel=0, control=64, value=84, time=3),\n",
       "    Message('control_change', channel=0, control=64, value=84, time=0),\n",
       "    Message('control_change', channel=0, control=64, value=88, time=6),\n",
       "    Message('control_change', channel=0, control=64, value=88, time=0),\n",
       "    Message('control_change', channel=0, control=64, value=92, time=5),\n",
       "    Message('control_change', channel=0, control=64, value=92, time=0),\n",
       "    Message('control_change', channel=0, control=64, value=94, time=5),\n",
       "    Message('control_change', channel=0, control=64, value=94, time=0),\n",
       "    Message('control_change', channel=0, control=64, value=92, time=13),\n",
       "    Message('control_change', channel=0, control=64, value=92, time=1),\n",
       "    Message('control_change', channel=0, control=64, value=90, time=5),\n",
       "    Message('control_change', channel=0, control=64, value=90, time=0),\n",
       "    Message('control_change', channel=0, control=64, value=88, time=6),\n",
       "    Message('control_change', channel=0, control=64, value=88, time=0),\n",
       "    Message('control_change', channel=0, control=64, value=86, time=3),\n",
       "    Message('control_change', channel=0, control=64, value=86, time=0),\n",
       "    Message('control_change', channel=0, control=64, value=84, time=5),\n",
       "    Message('control_change', channel=0, control=64, value=84, time=0),\n",
       "    Message('control_change', channel=0, control=64, value=86, time=14),\n",
       "    Message('control_change', channel=0, control=64, value=86, time=0),\n",
       "    Message('control_change', channel=0, control=64, value=88, time=5),\n",
       "    Message('control_change', channel=0, control=64, value=88, time=0),\n",
       "    Message('control_change', channel=0, control=64, value=94, time=5),\n",
       "    Message('control_change', channel=0, control=64, value=94, time=0),\n",
       "    Message('control_change', channel=0, control=64, value=98, time=6),\n",
       "    Message('control_change', channel=0, control=64, value=98, time=0),\n",
       "    Message('control_change', channel=0, control=64, value=102, time=5),\n",
       "    Message('control_change', channel=0, control=64, value=102, time=0),\n",
       "    Message('control_change', channel=0, control=64, value=110, time=4),\n",
       "    Message('control_change', channel=0, control=64, value=110, time=0),\n",
       "    Message('control_change', channel=0, control=64, value=118, time=5),\n",
       "    Message('control_change', channel=0, control=64, value=118, time=0),\n",
       "    Message('note_on', channel=0, note=81, velocity=0, time=3),\n",
       "    Message('note_on', channel=0, note=81, velocity=0, time=0),\n",
       "    Message('control_change', channel=0, control=64, value=126, time=3),\n",
       "    Message('control_change', channel=0, control=64, value=126, time=0),\n",
       "    Message('control_change', channel=0, control=64, value=127, time=3),\n",
       "    Message('control_change', channel=0, control=64, value=127, time=0),\n",
       "    Message('note_on', channel=0, note=80, velocity=43, time=1),\n",
       "    Message('note_on', channel=0, note=80, velocity=43, time=0),\n",
       "    Message('note_on', channel=0, note=54, velocity=0, time=12),\n",
       "    Message('note_on', channel=0, note=54, velocity=0, time=0),\n",
       "    Message('note_on', channel=0, note=61, velocity=18, time=34),\n",
       "    Message('note_on', channel=0, note=61, velocity=18, time=0),\n",
       "    Message('note_on', channel=0, note=80, velocity=0, time=114),\n",
       "    Message('note_on', channel=0, note=80, velocity=0, time=0),\n",
       "    Message('note_on', channel=0, note=61, velocity=0, time=157),\n",
       "    Message('note_on', channel=0, note=61, velocity=0, time=0),\n",
       "    Message('note_on', channel=0, note=81, velocity=42, time=384),\n",
       "    Message('note_on', channel=0, note=81, velocity=42, time=0),\n",
       "    Message('note_on', channel=0, note=66, velocity=29, time=3),\n",
       "    Message('note_on', channel=0, note=66, velocity=29, time=1),\n",
       "    Message('note_on', channel=0, note=66, velocity=0, time=79),\n",
       "    Message('note_on', channel=0, note=66, velocity=0, time=0),\n",
       "    Message('note_on', channel=0, note=81, velocity=0, time=36),\n",
       "    Message('note_on', channel=0, note=81, velocity=0, time=0),\n",
       "    Message('control_change', channel=0, control=64, value=124, time=250),\n",
       "    Message('control_change', channel=0, control=64, value=124, time=0),\n",
       "    Message('control_change', channel=0, control=64, value=112, time=6),\n",
       "    Message('control_change', channel=0, control=64, value=112, time=0),\n",
       "    Message('control_change', channel=0, control=64, value=100, time=5),\n",
       "    Message('control_change', channel=0, control=64, value=100, time=0),\n",
       "    Message('control_change', channel=0, control=64, value=88, time=3),\n",
       "    Message('control_change', channel=0, control=64, value=88, time=0),\n",
       "    Message('control_change', channel=0, control=64, value=74, time=6),\n",
       "    Message('control_change', channel=0, control=64, value=74, time=0),\n",
       "    Message('control_change', channel=0, control=64, value=62, time=7),\n",
       "    Message('control_change', channel=0, control=64, value=62, time=0),\n",
       "    Message('control_change', channel=0, control=64, value=52, time=3),\n",
       "    Message('control_change', channel=0, control=64, value=52, time=0),\n",
       "    Message('control_change', channel=0, control=64, value=40, time=3),\n",
       "    Message('control_change', channel=0, control=64, value=40, time=0),\n",
       "    Message('control_change', channel=0, control=64, value=28, time=5),\n",
       "    Message('control_change', channel=0, control=64, value=28, time=0),\n",
       "    Message('control_change', channel=0, control=64, value=20, time=6),\n",
       "    Message('control_change', channel=0, control=64, value=20, time=0),\n",
       "    Message('control_change', channel=0, control=64, value=18, time=5),\n",
       "    Message('control_change', channel=0, control=64, value=18, time=0),\n",
       "    Message('control_change', channel=0, control=64, value=22, time=5),\n",
       "    Message('control_change', channel=0, control=64, value=22, time=0),\n",
       "    Message('control_change', channel=0, control=64, value=30, time=3),\n",
       "    Message('control_change', channel=0, control=64, value=30, time=0),\n",
       "    Message('control_change', channel=0, control=64, value=42, time=5),\n",
       "    Message('control_change', channel=0, control=64, value=42, time=1),\n",
       "    Message('control_change', channel=0, control=64, value=60, time=5),\n",
       "    Message('control_change', channel=0, control=64, value=60, time=0),\n",
       "    Message('control_change', channel=0, control=64, value=74, time=3),\n",
       "    Message('control_change', channel=0, control=64, value=74, time=1),\n",
       "    Message('control_change', channel=0, control=64, value=90, time=4),\n",
       "    Message('control_change', channel=0, control=64, value=90, time=0),\n",
       "    Message('control_change', channel=0, control=64, value=104, time=6),\n",
       "    Message('control_change', channel=0, control=64, value=104, time=0),\n",
       "    Message('control_change', channel=0, control=64, value=127, time=11),\n",
       "    Message('control_change', channel=0, control=64, value=127, time=0),\n",
       "    Message('control_change', channel=0, control=64, value=126, time=329),\n",
       "    Message('control_change', channel=0, control=64, value=126, time=1),\n",
       "    Message('control_change', channel=0, control=64, value=114, time=4),\n",
       "    Message('control_change', channel=0, control=64, value=114, time=0),\n",
       "    Message('control_change', channel=0, control=64, value=98, time=5),\n",
       "    Message('control_change', channel=0, control=64, value=98, time=0),\n",
       "    Message('control_change', channel=0, control=64, value=88, time=5),\n",
       "    Message('control_change', channel=0, control=64, value=88, time=0),\n",
       "    Message('control_change', channel=0, control=64, value=74, time=6),\n",
       "    Message('control_change', channel=0, control=64, value=74, time=0),\n",
       "    Message('control_change', channel=0, control=64, value=64, time=3),\n",
       "    Message('control_change', channel=0, control=64, value=64, time=0),\n",
       "    Message('control_change', channel=0, control=64, value=56, time=5),\n",
       "    Message('control_change', channel=0, control=64, value=56, time=0),\n",
       "    Message('control_change', channel=0, control=64, value=50, time=5),\n",
       "    Message('control_change', channel=0, control=64, value=50, time=1),\n",
       "    Message('control_change', channel=0, control=64, value=46, time=5),\n",
       "    Message('control_change', channel=0, control=64, value=46, time=0),\n",
       "    Message('control_change', channel=0, control=64, value=48, time=13),\n",
       "    Message('control_change', channel=0, control=64, value=48, time=0),\n",
       "    Message('control_change', channel=0, control=64, value=52, time=5),\n",
       "    Message('control_change', channel=0, control=64, value=52, time=1),\n",
       "    Message('control_change', channel=0, control=64, value=56, time=5),\n",
       "    Message('control_change', channel=0, control=64, value=56, time=0),\n",
       "    Message('control_change', channel=0, control=64, value=62, time=3),\n",
       "    Message('control_change', channel=0, control=64, value=62, time=0),\n",
       "    Message('control_change', channel=0, control=64, value=65, time=6),\n",
       "    Message('control_change', channel=0, control=64, value=65, time=0),\n",
       "    Message('control_change', channel=0, control=64, value=72, time=5),\n",
       "    Message('control_change', channel=0, control=64, value=72, time=0),\n",
       "    Message('control_change', channel=0, control=64, value=78, time=6),\n",
       "    Message('control_change', channel=0, control=64, value=78, time=0),\n",
       "    Message('control_change', channel=0, control=64, value=82, time=2),\n",
       "    Message('control_change', channel=0, control=64, value=82, time=1),\n",
       "    Message('control_change', channel=0, control=64, value=88, time=5),\n",
       "    Message('control_change', channel=0, control=64, value=88, time=0),\n",
       "    Message('control_change', channel=0, control=64, value=92, time=6),\n",
       "    Message('control_change', channel=0, control=64, value=92, time=0),\n",
       "    Message('control_change', channel=0, control=64, value=98, time=3),\n",
       "    Message('control_change', channel=0, control=64, value=98, time=0),\n",
       "    Message('control_change', channel=0, control=64, value=104, time=5),\n",
       "    Message('control_change', channel=0, control=64, value=104, time=0),\n",
       "    Message('control_change', channel=0, control=64, value=110, time=5),\n",
       "    Message('control_change', channel=0, control=64, value=110, time=0),\n",
       "    Message('control_change', channel=0, control=64, value=114, time=6),\n",
       "    Message('control_change', channel=0, control=64, value=114, time=0),\n",
       "    Message('control_change', channel=0, control=64, value=118, time=3),\n",
       "    Message('control_change', channel=0, control=64, value=118, time=0),\n",
       "    Message('control_change', channel=0, control=64, value=124, time=6),\n",
       "    Message('control_change', channel=0, control=64, value=124, time=0),\n",
       "    Message('control_change', channel=0, control=64, value=127, time=5),\n",
       "    Message('control_change', channel=0, control=64, value=127, time=0),\n",
       "    Message('control_change', channel=0, control=64, value=126, time=450),\n",
       "    Message('control_change', channel=0, control=64, value=126, time=0),\n",
       "    Message('control_change', channel=0, control=64, value=112, time=6),\n",
       "    Message('control_change', channel=0, control=64, value=112, time=0),\n",
       "    Message('control_change', channel=0, control=64, value=96, time=5),\n",
       "    Message('control_change', channel=0, control=64, value=96, time=0),\n",
       "    Message('control_change', channel=0, control=64, value=78, time=3),\n",
       "    Message('control_change', channel=0, control=64, value=78, time=0),\n",
       "    Message('control_change', channel=0, control=64, value=0, time=16),\n",
       "    Message('control_change', channel=0, control=64, value=0, time=0),\n",
       "    Message('note_on', channel=0, note=74, velocity=40, time=83),\n",
       "    Message('note_on', channel=0, note=74, velocity=40, time=1),\n",
       "    Message('control_change', channel=0, control=64, value=28, time=61),\n",
       "    Message('control_change', channel=0, control=64, value=28, time=0),\n",
       "    Message('control_change', channel=0, control=64, value=54, time=3),\n",
       "    Message('control_change', channel=0, control=64, value=54, time=0),\n",
       "    Message('control_change', channel=0, control=64, value=74, time=5),\n",
       "    Message('control_change', channel=0, control=64, value=74, time=0),\n",
       "    Message('control_change', channel=0, control=64, value=96, time=6),\n",
       "    Message('control_change', channel=0, control=64, value=96, time=0),\n",
       "    Message('control_change', channel=0, control=64, value=114, time=4),\n",
       "    Message('control_change', channel=0, control=64, value=114, time=0),\n",
       "    Message('control_change', channel=0, control=64, value=127, time=4),\n",
       "    Message('control_change', channel=0, control=64, value=127, time=0),\n",
       "    Message('note_on', channel=0, note=76, velocity=51, time=122),\n",
       "    Message('note_on', channel=0, note=76, velocity=51, time=0),\n",
       "    Message('note_on', channel=0, note=74, velocity=0, time=3),\n",
       "    Message('note_on', channel=0, note=74, velocity=0, time=0),\n",
       "    Message('control_change', channel=0, control=64, value=126, time=122),\n",
       "    Message('control_change', channel=0, control=64, value=126, time=0),\n",
       "    Message('note_on', channel=0, note=76, velocity=0, time=2),\n",
       "    Message('note_on', channel=0, note=76, velocity=0, time=0),\n",
       "    Message('control_change', channel=0, control=64, value=112, time=1),\n",
       "    Message('control_change', channel=0, control=64, value=112, time=0),\n",
       "    Message('control_change', channel=0, control=64, value=94, time=5),\n",
       "    Message('control_change', channel=0, control=64, value=94, time=0),\n",
       "    Message('control_change', channel=0, control=64, value=76, time=6),\n",
       "    Message('control_change', channel=0, control=64, value=76, time=0),\n",
       "    Message('control_change', channel=0, control=64, value=56, time=3),\n",
       "    Message('control_change', channel=0, control=64, value=56, time=0),\n",
       "    Message('control_change', channel=0, control=64, value=32, time=6),\n",
       "    Message('control_change', channel=0, control=64, value=32, time=0),\n",
       "    Message('control_change', channel=0, control=64, value=12, time=5),\n",
       "    Message('control_change', channel=0, control=64, value=12, time=0),\n",
       "    Message('control_change', channel=0, control=64, value=0, time=3),\n",
       "    Message('control_change', channel=0, control=64, value=0, time=0),\n",
       "    Message('control_change', channel=0, control=64, value=28, time=97),\n",
       "    Message('control_change', channel=0, control=64, value=28, time=0),\n",
       "    Message('control_change', channel=0, control=64, value=42, time=5),\n",
       "    Message('control_change', channel=0, control=64, value=42, time=0),\n",
       "    Message('control_change', channel=0, control=64, value=60, time=6),\n",
       "    Message('control_change', channel=0, control=64, value=60, time=0),\n",
       "    Message('control_change', channel=0, control=64, value=72, time=5),\n",
       "    Message('control_change', channel=0, control=64, value=72, time=0),\n",
       "    Message('control_change', channel=0, control=64, value=84, time=3),\n",
       "    Message('control_change', channel=0, control=64, value=84, time=0),\n",
       "    Message('control_change', channel=0, control=64, value=94, time=6),\n",
       "    Message('control_change', channel=0, control=64, value=94, time=0),\n",
       "    Message('control_change', channel=0, control=64, value=104, time=5),\n",
       "    Message('control_change', channel=0, control=64, value=104, time=0),\n",
       "    Message('control_change', channel=0, control=64, value=114, time=3),\n",
       "    Message('control_change', channel=0, control=64, value=114, time=0),\n",
       "    Message('control_change', channel=0, control=64, value=124, time=6),\n",
       "    Message('control_change', channel=0, control=64, value=124, time=0),\n",
       "    Message('control_change', channel=0, control=64, value=127, time=5),\n",
       "    Message('control_change', channel=0, control=64, value=127, time=0),\n",
       "    Message('control_change', channel=0, control=64, value=114, time=131),\n",
       "    Message('control_change', channel=0, control=64, value=114, time=0),\n",
       "    Message('control_change', channel=0, control=64, value=0, time=18),\n",
       "    Message('control_change', channel=0, control=64, value=0, time=0),\n",
       "    Message('control_change', channel=0, control=64, value=106, time=717),\n",
       "    Message('control_change', channel=0, control=64, value=106, time=0),\n",
       "    Message('control_change', channel=0, control=64, value=116, time=3),\n",
       "    Message('control_change', channel=0, control=64, value=116, time=0),\n",
       "    Message('control_change', channel=0, control=64, value=127, time=5),\n",
       "    Message('control_change', channel=0, control=64, value=127, time=0),\n",
       "    Message('control_change', channel=0, control=64, value=112, time=105),\n",
       "    Message('control_change', channel=0, control=64, value=112, time=0),\n",
       "    Message('control_change', channel=0, control=64, value=0, time=20),\n",
       "    Message('control_change', channel=0, control=64, value=0, time=0),\n",
       "    Message('control_change', channel=0, control=64, value=127, time=78),\n",
       "    Message('control_change', channel=0, control=64, value=127, time=0),\n",
       "    Message('control_change', channel=0, control=64, value=124, time=60),\n",
       "    Message('control_change', channel=0, control=64, value=124, time=0),\n",
       "    Message('control_change', channel=0, control=64, value=92, time=6),\n",
       "    Message('control_change', channel=0, control=64, value=92, time=0),\n",
       "    Message('control_change', channel=0, control=64, value=64, time=5),\n",
       "    Message('control_change', channel=0, control=64, value=64, time=0),\n",
       "    Message('control_change', channel=0, control=64, value=44, time=5),\n",
       "    Message('control_change', channel=0, control=64, value=44, time=0),\n",
       "    Message('control_change', channel=0, control=64, value=32, time=3),\n",
       "    Message('control_change', channel=0, control=64, value=32, time=0),\n",
       "    Message('control_change', channel=0, control=64, value=26, time=6),\n",
       "    Message('control_change', channel=0, control=64, value=26, time=0),\n",
       "    Message('control_change', channel=0, control=64, value=28, time=10),\n",
       "    Message('control_change', channel=0, control=64, value=28, time=0),\n",
       "    Message('control_change', channel=0, control=64, value=40, time=5),\n",
       "    Message('control_change', channel=0, control=64, value=40, time=0),\n",
       "    Message('control_change', channel=0, control=64, value=62, time=3),\n",
       "    Message('control_change', channel=0, control=64, value=62, time=0),\n",
       "    Message('control_change', channel=0, control=64, value=84, time=6),\n",
       "    Message('control_change', channel=0, control=64, value=84, time=0),\n",
       "    Message('control_change', channel=0, control=64, value=127, time=15),\n",
       "    Message('control_change', channel=0, control=64, value=127, time=0),\n",
       "    Message('note_on', channel=0, note=54, velocity=12, time=243),\n",
       "    Message('note_on', channel=0, note=54, velocity=12, time=0),\n",
       "    Message('note_on', channel=0, note=54, velocity=0, time=36),\n",
       "    Message('note_on', channel=0, note=54, velocity=0, time=0),\n",
       "    Message('note_on', channel=0, note=64, velocity=55, time=564),\n",
       "    Message('note_on', channel=0, note=64, velocity=55, time=0),\n",
       "    Message('note_on', channel=0, note=69, velocity=53, time=93),\n",
       "    Message('note_on', channel=0, note=69, velocity=53, time=0),\n",
       "    Message('note_on', channel=0, note=64, velocity=0, time=4),\n",
       "    Message('note_on', channel=0, note=64, velocity=0, time=0),\n",
       "    Message('note_on', channel=0, note=71, velocity=48, time=90),\n",
       "    Message('note_on', channel=0, note=71, velocity=48, time=0),\n",
       "    Message('note_on', channel=0, note=69, velocity=0, time=14),\n",
       "    Message('note_on', channel=0, note=69, velocity=0, time=0),\n",
       "    Message('control_change', channel=0, control=64, value=124, time=65),\n",
       "    Message('control_change', channel=0, control=64, value=124, time=0),\n",
       "    Message('control_change', channel=0, control=64, value=114, time=3),\n",
       "    Message('control_change', channel=0, control=64, value=114, time=0),\n",
       "    Message('control_change', channel=0, control=64, value=108, time=6),\n",
       "    Message('control_change', channel=0, control=64, value=108, time=0),\n",
       "    Message('control_change', channel=0, control=64, value=104, time=5),\n",
       "    Message('control_change', channel=0, control=64, value=104, time=0),\n",
       "    Message('control_change', channel=0, control=64, value=100, time=5),\n",
       "    Message('control_change', channel=0, control=64, value=100, time=1),\n",
       "    Message('control_change', channel=0, control=64, value=104, time=12),\n",
       "    Message('control_change', channel=0, control=64, value=104, time=0),\n",
       "    Message('note_on', channel=0, note=73, velocity=63, time=5),\n",
       "    Message('note_on', channel=0, note=73, velocity=63, time=0),\n",
       "    Message('control_change', channel=0, control=64, value=114, time=1),\n",
       "    Message('control_change', channel=0, control=64, value=114, time=0),\n",
       "    Message('note_on', channel=0, note=71, velocity=0, time=1),\n",
       "    Message('note_on', channel=0, note=71, velocity=0, time=0),\n",
       "    Message('control_change', channel=0, control=64, value=124, time=2),\n",
       "    Message('control_change', channel=0, control=64, value=124, time=1),\n",
       "    Message('control_change', channel=0, control=64, value=127, time=5),\n",
       "    Message('control_change', channel=0, control=64, value=127, time=0),\n",
       "    Message('note_on', channel=0, note=50, velocity=40, time=6),\n",
       "    Message('note_on', channel=0, note=50, velocity=40, time=0),\n",
       "    Message('note_on', channel=0, note=73, velocity=0, time=120),\n",
       "    Message('note_on', channel=0, note=73, velocity=0, time=0),\n",
       "    Message('note_on', channel=0, note=57, velocity=40, time=96),\n",
       "    Message('note_on', channel=0, note=57, velocity=40, time=1),\n",
       "    Message('note_on', channel=0, note=50, velocity=0, time=0),\n",
       "    Message('note_on', channel=0, note=50, velocity=0, time=0),\n",
       "    Message('note_on', channel=0, note=62, velocity=44, time=237),\n",
       "    Message('note_on', channel=0, note=62, velocity=44, time=1),\n",
       "    Message('note_on', channel=0, note=57, velocity=0, time=8),\n",
       "    Message('note_on', channel=0, note=57, velocity=0, time=0),\n",
       "    Message('note_on', channel=0, note=62, velocity=0, time=48),\n",
       "    Message('note_on', channel=0, note=62, velocity=0, time=0),\n",
       "    Message('note_on', channel=0, note=73, velocity=53, time=200),\n",
       "    Message('note_on', channel=0, note=73, velocity=53, time=1),\n",
       "    Message('note_on', channel=0, note=74, velocity=51, time=124),\n",
       "    Message('note_on', channel=0, note=74, velocity=51, time=1),\n",
       "    Message('note_on', channel=0, note=73, velocity=0, time=23),\n",
       "    Message('note_on', channel=0, note=73, velocity=0, time=0),\n",
       "    Message('control_change', channel=0, control=64, value=114, time=36),\n",
       "    Message('control_change', channel=0, control=64, value=114, time=0),\n",
       "    Message('control_change', channel=0, control=64, value=96, time=6),\n",
       "    Message('control_change', channel=0, control=64, value=96, time=0),\n",
       "    Message('control_change', channel=0, control=64, value=84, time=5),\n",
       "    Message('control_change', channel=0, control=64, value=84, time=0),\n",
       "    Message('control_change', channel=0, control=64, value=74, time=3),\n",
       "    Message('control_change', channel=0, control=64, value=74, time=0),\n",
       "    Message('control_change', channel=0, control=64, value=66, time=6),\n",
       "    Message('control_change', channel=0, control=64, value=66, time=0),\n",
       "    Message('control_change', channel=0, control=64, value=65, time=4),\n",
       "    Message('control_change', channel=0, control=64, value=65, time=0),\n",
       "    Message('control_change', channel=0, control=64, value=66, time=7),\n",
       "    Message('control_change', channel=0, control=64, value=66, time=0),\n",
       "    Message('control_change', channel=0, control=64, value=72, time=3),\n",
       "    Message('control_change', channel=0, control=64, value=72, time=0),\n",
       "    Message('control_change', channel=0, control=64, value=80, time=4),\n",
       "    Message('control_change', channel=0, control=64, value=80, time=0),\n",
       "    Message('control_change', channel=0, control=64, value=92, time=6),\n",
       "    Message('control_change', channel=0, control=64, value=92, time=0),\n",
       "    Message('control_change', channel=0, control=64, value=110, time=6),\n",
       "    Message('control_change', channel=0, control=64, value=110, time=0),\n",
       "    Message('note_on', channel=0, note=76, velocity=55, time=8),\n",
       "    Message('note_on', channel=0, note=76, velocity=55, time=1),\n",
       "    Message('control_change', channel=0, control=64, value=127, time=1),\n",
       "    Message('control_change', channel=0, control=64, value=127, time=0),\n",
       "    Message('note_on', channel=0, note=45, velocity=42, time=2),\n",
       "    Message('note_on', channel=0, note=45, velocity=42, time=0),\n",
       "    Message('note_on', channel=0, note=74, velocity=0, time=12),\n",
       "    Message('note_on', channel=0, note=74, velocity=0, time=0),\n",
       "    Message('note_on', channel=0, note=76, velocity=0, time=88),\n",
       "    Message('note_on', channel=0, note=76, velocity=0, time=0),\n",
       "    Message('note_on', channel=0, note=64, velocity=57, time=4),\n",
       "    Message('note_on', channel=0, note=64, velocity=57, time=0),\n",
       "    Message('note_on', channel=0, note=45, velocity=0, time=109),\n",
       "    Message('note_on', channel=0, note=45, velocity=0, time=0),\n",
       "    Message('note_on', channel=0, note=73, velocity=65, time=9),\n",
       "    Message('note_on', channel=0, note=73, velocity=65, time=0),\n",
       "    Message('note_on', channel=0, note=52, velocity=42, time=6),\n",
       "    Message('note_on', channel=0, note=52, velocity=42, time=1),\n",
       "    Message('note_on', channel=0, note=64, velocity=0, time=23),\n",
       "    Message('note_on', channel=0, note=64, velocity=0, time=0),\n",
       "    Message('note_on', channel=0, note=74, velocity=55, time=103),\n",
       "    Message('note_on', channel=0, note=74, velocity=55, time=1),\n",
       "    Message('note_on', channel=0, note=73, velocity=0, time=20),\n",
       "    Message('note_on', channel=0, note=73, velocity=0, time=0),\n",
       "    Message('note_on', channel=0, note=76, velocity=62, time=93),\n",
       "    Message('note_on', channel=0, note=76, velocity=62, time=0),\n",
       "    Message('note_on', channel=0, note=57, velocity=46, time=3),\n",
       "    Message('note_on', channel=0, note=57, velocity=46, time=1),\n",
       "    Message('note_on', channel=0, note=52, velocity=0, time=3),\n",
       "    Message('note_on', channel=0, note=52, velocity=0, time=0),\n",
       "    Message('note_on', channel=0, note=74, velocity=0, time=6),\n",
       "    Message('note_on', channel=0, note=74, velocity=0, time=0),\n",
       "    Message('note_on', channel=0, note=57, velocity=0, time=70),\n",
       "    Message('note_on', channel=0, note=57, velocity=0, time=0),\n",
       "    Message('note_on', channel=0, note=76, velocity=0, time=123),\n",
       "    Message('note_on', channel=0, note=76, velocity=0, time=0),\n",
       "    Message('note_on', channel=0, note=74, velocity=40, time=35),\n",
       "    Message('note_on', channel=0, note=74, velocity=40, time=0),\n",
       "    Message('note_on', channel=0, note=73, velocity=63, time=124),\n",
       "    Message('note_on', channel=0, note=73, velocity=63, time=0),\n",
       "    Message('note_on', channel=0, note=74, velocity=0, time=15),\n",
       "    Message('note_on', channel=0, note=74, velocity=0, time=0),\n",
       "    Message('control_change', channel=0, control=64, value=122, time=70),\n",
       "    Message('control_change', channel=0, control=64, value=122, time=0),\n",
       "    Message('control_change', channel=0, control=64, value=108, time=6),\n",
       "    Message('control_change', channel=0, control=64, value=108, time=0),\n",
       "    Message('control_change', channel=0, control=64, value=96, time=3),\n",
       "    Message('control_change', channel=0, control=64, value=96, time=0),\n",
       "    Message('control_change', channel=0, control=64, value=88, time=6),\n",
       "    Message('control_change', channel=0, control=64, value=88, time=0),\n",
       "    Message('control_change', channel=0, control=64, value=82, time=5),\n",
       "    Message('control_change', channel=0, control=64, value=82, time=0),\n",
       "    Message('control_change', channel=0, control=64, value=80, time=4),\n",
       "    Message('control_change', channel=0, control=64, value=80, time=0),\n",
       "    Message('control_change', channel=0, control=64, value=82, time=5),\n",
       "    Message('control_change', channel=0, control=64, value=82, time=0),\n",
       "    Message('note_on', channel=0, note=52, velocity=38, time=1),\n",
       "    Message('note_on', channel=0, note=52, velocity=38, time=0),\n",
       "    Message('control_change', channel=0, control=64, value=86, time=4),\n",
       "    Message('control_change', channel=0, control=64, value=86, time=0),\n",
       "    Message('control_change', channel=0, control=64, value=92, time=5),\n",
       "    Message('control_change', channel=0, control=64, value=92, time=0),\n",
       "    Message('control_change', channel=0, control=64, value=106, time=4),\n",
       "    Message('control_change', channel=0, control=64, value=106, time=0),\n",
       "    Message('control_change', channel=0, control=64, value=127, time=11),\n",
       "    Message('control_change', channel=0, control=64, value=127, time=0),\n",
       "    Message('note_on', channel=0, note=64, velocity=44, time=6),\n",
       "    Message('note_on', channel=0, note=64, velocity=44, time=1),\n",
       "    Message('note_on', channel=0, note=73, velocity=0, time=10),\n",
       "    Message('note_on', channel=0, note=73, velocity=0, time=0),\n",
       "    Message('note_on', channel=0, note=74, velocity=68, time=98),\n",
       "    Message('note_on', channel=0, note=74, velocity=68, time=1),\n",
       "    Message('note_on', channel=0, note=64, velocity=0, time=3),\n",
       "    Message('note_on', channel=0, note=64, velocity=0, time=0),\n",
       "    Message('note_on', channel=0, note=52, velocity=0, time=21),\n",
       "    Message('note_on', channel=0, note=52, velocity=0, time=0),\n",
       "    Message('note_on', channel=0, note=74, velocity=0, time=47),\n",
       "    Message('note_on', channel=0, note=74, velocity=0, time=0),\n",
       "    Message('note_on', channel=0, note=59, velocity=18, time=292),\n",
       "    Message('note_on', channel=0, note=59, velocity=18, time=1),\n",
       "    Message('note_on', channel=0, note=59, velocity=0, time=158),\n",
       "    Message('note_on', channel=0, note=59, velocity=0, time=0),\n",
       "    Message('note_on', channel=0, note=64, velocity=26, time=16),\n",
       "    Message('note_on', channel=0, note=64, velocity=26, time=1),\n",
       "    Message('note_on', channel=0, note=67, velocity=32, time=44),\n",
       "    Message('note_on', channel=0, note=67, velocity=32, time=1),\n",
       "    Message('note_on', channel=0, note=69, velocity=32, time=3),\n",
       "    Message('note_on', channel=0, note=69, velocity=32, time=0),\n",
       "    Message('note_on', channel=0, note=64, velocity=0, time=12),\n",
       "    Message('note_on', channel=0, note=64, velocity=0, time=0),\n",
       "    Message('note_on', channel=0, note=67, velocity=0, time=34),\n",
       "    Message('note_on', channel=0, note=67, velocity=0, time=0),\n",
       "    Message('note_on', channel=0, note=69, velocity=0, time=3),\n",
       "    Message('note_on', channel=0, note=69, velocity=0, time=0),\n",
       "    Message('control_change', channel=0, control=64, value=116, time=144),\n",
       "    Message('control_change', channel=0, control=64, value=116, time=0),\n",
       "    Message('control_change', channel=0, control=64, value=100, time=7),\n",
       "    Message('control_change', channel=0, control=64, value=100, time=0),\n",
       "    Message('control_change', channel=0, control=64, value=90, time=3),\n",
       "    Message('control_change', channel=0, control=64, value=90, time=0),\n",
       "    Message('control_change', channel=0, control=64, value=82, time=6),\n",
       "    Message('control_change', channel=0, control=64, value=82, time=0),\n",
       "    Message('control_change', channel=0, control=64, value=78, time=3),\n",
       "    Message('control_change', channel=0, control=64, value=78, time=0),\n",
       "    Message('control_change', channel=0, control=64, value=76, time=6),\n",
       "    Message('control_change', channel=0, control=64, value=76, time=0),\n",
       "    Message('control_change', channel=0, control=64, value=80, time=11),\n",
       "    Message('control_change', channel=0, control=64, value=80, time=0),\n",
       "    Message('control_change', channel=0, control=64, value=90, time=3),\n",
       "    Message('control_change', channel=0, control=64, value=90, time=0),\n",
       "    Message('note_on', channel=0, note=81, velocity=42, time=4),\n",
       "    Message('note_on', channel=0, note=81, velocity=42, time=0),\n",
       "    Message('control_change', channel=0, control=64, value=100, time=4),\n",
       "    Message('control_change', channel=0, control=64, value=100, time=0),\n",
       "    Message('control_change', channel=0, control=64, value=116, time=3),\n",
       "    Message('control_change', channel=0, control=64, value=116, time=0),\n",
       "    Message('note_on', channel=0, note=54, velocity=30, time=1),\n",
       "    Message('note_on', channel=0, note=54, velocity=30, time=1),\n",
       "    Message('control_change', channel=0, control=64, value=127, time=2),\n",
       "    Message('control_change', channel=0, control=64, value=127, time=0),\n",
       "    Message('note_on', channel=0, note=54, velocity=0, time=116),\n",
       "    Message('note_on', channel=0, note=54, velocity=0, time=0),\n",
       "    Message('note_on', channel=0, note=81, velocity=0, time=38),\n",
       "    Message('note_on', channel=0, note=81, velocity=0, time=0),\n",
       "    Message('note_on', channel=0, note=80, velocity=53, time=49),\n",
       "    Message('note_on', channel=0, note=80, velocity=53, time=0),\n",
       "    Message('note_on', channel=0, note=61, velocity=30, time=4),\n",
       "    Message('note_on', channel=0, note=61, velocity=30, time=1),\n",
       "    Message('note_on', channel=0, note=61, velocity=0, time=131),\n",
       "    Message('note_on', channel=0, note=61, velocity=0, time=0),\n",
       "    Message('note_on', channel=0, note=81, velocity=51, time=1),\n",
       "    Message('note_on', channel=0, note=81, velocity=51, time=0),\n",
       "    Message('note_on', channel=0, note=80, velocity=0, time=19),\n",
       "    Message('note_on', channel=0, note=80, velocity=0, time=0),\n",
       "    Message('note_on', channel=0, note=66, velocity=48, time=108),\n",
       "    Message('note_on', channel=0, note=66, velocity=48, time=0),\n",
       "    Message('note_on', channel=0, note=66, velocity=0, time=64),\n",
       "    Message('note_on', channel=0, note=66, velocity=0, time=0),\n",
       "    Message('note_on', channel=0, note=81, velocity=0, time=13),\n",
       "    Message('note_on', channel=0, note=81, velocity=0, time=0),\n",
       "    Message('note_on', channel=0, note=69, velocity=53, time=40),\n",
       "    Message('note_on', channel=0, note=69, velocity=53, time=0),\n",
       "    Message('note_on', channel=0, note=80, velocity=51, time=128),\n",
       "    Message('note_on', channel=0, note=80, velocity=51, time=0),\n",
       "    Message('note_on', channel=0, note=69, velocity=0, time=23),\n",
       "    Message('note_on', channel=0, note=69, velocity=0, time=0),\n",
       "    Message('note_on', channel=0, note=81, velocity=48, time=102),\n",
       "    Message('note_on', channel=0, note=81, velocity=48, time=0),\n",
       "    Message('note_on', channel=0, note=80, velocity=0, time=30),\n",
       "    Message('note_on', channel=0, note=80, velocity=0, time=0),\n",
       "    Message('control_change', channel=0, control=64, value=0, time=59),\n",
       "    Message('control_change', channel=0, control=64, value=0, time=1),\n",
       "    Message('note_on', channel=0, note=50, velocity=53, time=14),\n",
       "    Message('note_on', channel=0, note=50, velocity=53, time=1),\n",
       "    Message('control_change', channel=0, control=64, value=64, time=46),\n",
       "    Message('control_change', channel=0, control=64, value=64, time=0),\n",
       "    Message('control_change', channel=0, control=64, value=127, time=16),\n",
       "    Message('control_change', channel=0, control=64, value=127, time=1),\n",
       "    Message('note_on', channel=0, note=81, velocity=0, time=28),\n",
       "    Message('note_on', channel=0, note=81, velocity=0, time=1),\n",
       "    Message('note_on', channel=0, note=69, velocity=66, time=33),\n",
       "    Message('note_on', channel=0, note=69, velocity=66, time=1),\n",
       "    Message('note_on', channel=0, note=50, velocity=0, time=102),\n",
       "    Message('note_on', channel=0, note=50, velocity=0, time=1),\n",
       "    Message('note_on', channel=0, note=76, velocity=62, time=10),\n",
       "    Message('note_on', channel=0, note=76, velocity=62, time=1),\n",
       "    Message('note_on', channel=0, note=57, velocity=40, time=8),\n",
       "    Message('note_on', channel=0, note=57, velocity=40, time=1),\n",
       "    Message('note_on', channel=0, note=69, velocity=0, time=3),\n",
       "    Message('note_on', channel=0, note=69, velocity=0, time=0),\n",
       "    Message('note_on', channel=0, note=81, velocity=59, time=117),\n",
       "    Message('note_on', channel=0, note=81, velocity=59, time=1),\n",
       "    Message('note_on', channel=0, note=76, velocity=0, time=31),\n",
       "    Message('note_on', channel=0, note=76, velocity=0, time=0),\n",
       "    Message('note_on', channel=0, note=57, velocity=0, time=85),\n",
       "    Message('note_on', channel=0, note=57, velocity=0, time=0),\n",
       "    Message('note_on', channel=0, note=62, velocity=53, time=3),\n",
       "    Message('note_on', channel=0, note=62, velocity=53, time=0),\n",
       "    Message('note_on', channel=0, note=81, velocity=0, time=69),\n",
       "    Message('note_on', channel=0, note=81, velocity=0, time=1),\n",
       "    Message('note_on', channel=0, note=62, velocity=0, time=5),\n",
       "    Message('note_on', channel=0, note=62, velocity=0, time=0),\n",
       "    Message('note_on', channel=0, note=69, velocity=51, time=35),\n",
       "    Message('note_on', channel=0, note=69, velocity=51, time=1),\n",
       "    Message('note_on', channel=0, note=69, velocity=0, time=122),\n",
       "    Message('note_on', channel=0, note=69, velocity=0, time=0),\n",
       "    Message('note_on', channel=0, note=74, velocity=51, time=9),\n",
       "    Message('note_on', channel=0, note=74, velocity=51, time=0),\n",
       "    Message('note_on', channel=0, note=69, velocity=55, time=94),\n",
       "    Message('note_on', channel=0, note=69, velocity=55, time=1),\n",
       "    Message('note_on', channel=0, note=74, velocity=0, time=3),\n",
       "    Message('note_on', channel=0, note=74, velocity=0, time=0),\n",
       "    Message('control_change', channel=0, control=64, value=0, time=117),\n",
       "    Message('control_change', channel=0, control=64, value=0, time=0),\n",
       "    Message('note_on', channel=0, note=73, velocity=65, time=26),\n",
       "    Message('note_on', channel=0, note=73, velocity=65, time=0),\n",
       "    Message('note_on', channel=0, note=45, velocity=35, time=4),\n",
       "    Message('note_on', channel=0, note=45, velocity=35, time=0),\n",
       "    Message('note_on', channel=0, note=69, velocity=0, time=14),\n",
       "    Message('note_on', channel=0, note=69, velocity=0, time=0),\n",
       "    Message('control_change', channel=0, control=64, value=127, time=37),\n",
       "    Message('control_change', channel=0, control=64, value=127, time=0),\n",
       "    Message('note_on', channel=0, note=74, velocity=70, time=145),\n",
       "    Message('note_on', channel=0, note=74, velocity=70, time=0),\n",
       "    Message('note_on', channel=0, note=73, velocity=0, time=9),\n",
       "    Message('note_on', channel=0, note=73, velocity=0, time=0),\n",
       "    Message('note_on', channel=0, note=52, velocity=35, time=2),\n",
       "    Message('note_on', channel=0, note=52, velocity=35, time=0),\n",
       "    Message('note_on', channel=0, note=45, velocity=0, time=21),\n",
       "    Message('note_on', channel=0, note=45, velocity=0, time=0),\n",
       "    Message('note_on', channel=0, note=57, velocity=38, time=235),\n",
       "    Message('note_on', channel=0, note=57, velocity=38, time=1),\n",
       "    Message('note_on', channel=0, note=76, velocity=70, time=8),\n",
       "    Message('note_on', channel=0, note=76, velocity=70, time=1),\n",
       "    Message('note_on', channel=0, note=52, velocity=0, time=28),\n",
       "    Message('note_on', channel=0, note=52, velocity=0, time=0),\n",
       "    Message('note_on', channel=0, note=74, velocity=0, time=5),\n",
       "    Message('note_on', channel=0, note=74, velocity=0, time=1),\n",
       "    Message('note_on', channel=0, note=76, velocity=0, time=25),\n",
       "    Message('note_on', channel=0, note=76, velocity=0, time=0),\n",
       "    Message('note_on', channel=0, note=85, velocity=53, time=164),\n",
       "    Message('note_on', channel=0, note=85, velocity=53, time=1),\n",
       "    Message('note_on', channel=0, note=57, velocity=0, time=204),\n",
       "    Message('note_on', channel=0, note=57, velocity=0, time=0),\n",
       "    Message('control_change', channel=0, control=64, value=58, time=9),\n",
       "    Message('control_change', channel=0, control=64, value=58, time=0),\n",
       "    Message('control_change', channel=0, control=64, value=16, time=6),\n",
       "    Message('control_change', channel=0, control=64, value=16, time=0),\n",
       "    Message('control_change', channel=0, control=64, value=0, time=3),\n",
       "    Message('control_change', channel=0, control=64, value=0, time=0),\n",
       "    Message('note_on', channel=0, note=52, velocity=44, time=16),\n",
       "    Message('note_on', channel=0, note=52, velocity=44, time=0),\n",
       "    Message('note_on', channel=0, note=83, velocity=62, time=14),\n",
       "    Message('note_on', channel=0, note=83, velocity=62, time=0),\n",
       "    Message('control_change', channel=0, control=64, value=22, time=14),\n",
       "    Message('control_change', channel=0, control=64, value=22, time=0),\n",
       "    Message('control_change', channel=0, control=64, value=56, time=6),\n",
       "    Message('control_change', channel=0, control=64, value=56, time=0),\n",
       "    Message('control_change', channel=0, control=64, value=90, time=3),\n",
       "    Message('control_change', channel=0, control=64, value=90, time=0),\n",
       "    Message('note_on', channel=0, note=85, velocity=0, time=8),\n",
       "    Message('note_on', channel=0, note=85, velocity=0, time=0),\n",
       "    Message('control_change', channel=0, control=64, value=127, time=3),\n",
       "    Message('control_change', channel=0, control=64, value=127, time=0),\n",
       "    Message('note_on', channel=0, note=76, velocity=64, time=190),\n",
       "    Message('note_on', channel=0, note=76, velocity=64, time=0),\n",
       "    Message('note_on', channel=0, note=59, velocity=32, time=3),\n",
       "    Message('note_on', channel=0, note=59, velocity=32, time=0),\n",
       "    Message('note_on', channel=0, note=52, velocity=0, time=6),\n",
       "    Message('note_on', channel=0, note=52, velocity=0, time=0),\n",
       "    Message('note_on', channel=0, note=83, velocity=0, time=8),\n",
       "    Message('note_on', channel=0, note=83, velocity=0, time=0),\n",
       "    Message('note_on', channel=0, note=76, velocity=0, time=166),\n",
       "    Message('note_on', channel=0, note=76, velocity=0, time=0),\n",
       "    Message('note_on', channel=0, note=83, velocity=53, time=33),\n",
       "    Message('note_on', channel=0, note=83, velocity=53, time=0),\n",
       "    Message('note_on', channel=0, note=64, velocity=40, time=24),\n",
       "    Message('note_on', channel=0, note=64, velocity=40, time=1),\n",
       "    Message('note_on', channel=0, note=59, velocity=0, time=27),\n",
       "    Message('note_on', channel=0, note=59, velocity=0, time=0),\n",
       "    Message('note_on', channel=0, note=85, velocity=48, time=7),\n",
       "    Message('note_on', channel=0, note=85, velocity=48, time=0),\n",
       "    Message('note_on', channel=0, note=83, velocity=0, time=11),\n",
       "    Message('note_on', channel=0, note=83, velocity=0, time=0),\n",
       "    Message('note_on', channel=0, note=64, velocity=0, time=76),\n",
       "    Message('note_on', channel=0, note=64, velocity=0, time=0),\n",
       "    Message('note_on', channel=0, note=83, velocity=57, time=0),\n",
       "    Message('note_on', channel=0, note=83, velocity=57, time=1),\n",
       "    Message('note_on', channel=0, note=85, velocity=0, time=17),\n",
       "    Message('note_on', channel=0, note=85, velocity=0, time=0),\n",
       "    Message('note_on', channel=0, note=83, velocity=0, time=83),\n",
       "    Message('note_on', channel=0, note=83, velocity=0, time=0),\n",
       "    Message('note_on', channel=0, note=81, velocity=51, time=6),\n",
       "    Message('note_on', channel=0, note=81, velocity=51, time=0),\n",
       "    Message('note_on', channel=0, note=80, velocity=43, time=110),\n",
       "    Message('note_on', channel=0, note=80, velocity=43, time=0),\n",
       "    Message('note_on', channel=0, note=81, velocity=0, time=39),\n",
       "    Message('note_on', channel=0, note=81, velocity=0, time=0),\n",
       "    Message('control_change', channel=0, control=64, value=108, time=41),\n",
       "    Message('control_change', channel=0, control=64, value=108, time=0),\n",
       "    Message('control_change', channel=0, control=64, value=80, time=6),\n",
       "    Message('control_change', channel=0, control=64, value=80, time=0),\n",
       "    Message('control_change', channel=0, control=64, value=56, time=5),\n",
       "    Message('control_change', channel=0, control=64, value=56, time=0),\n",
       "    Message('control_change', channel=0, control=64, value=32, time=3),\n",
       "    Message('control_change', channel=0, control=64, value=32, time=0),\n",
       "    Message('control_change', channel=0, control=64, value=16, time=6),\n",
       "    Message('control_change', channel=0, control=64, value=16, time=0),\n",
       "    Message('control_change', channel=0, control=64, value=4, time=3),\n",
       "    Message('control_change', channel=0, control=64, value=4, time=0),\n",
       "    Message('control_change', channel=0, control=64, value=0, time=5),\n",
       "    Message('control_change', channel=0, control=64, value=0, time=1),\n",
       "    Message('control_change', channel=0, control=64, value=4, time=10),\n",
       "    Message('control_change', channel=0, control=64, value=4, time=0),\n",
       "    Message('note_on', channel=0, note=81, velocity=57, time=3),\n",
       "    Message('note_on', channel=0, note=81, velocity=57, time=1),\n",
       "    Message('control_change', channel=0, control=64, value=18, time=1),\n",
       "    Message('control_change', channel=0, control=64, value=18, time=0),\n",
       "    Message('control_change', channel=0, control=64, value=42, time=5),\n",
       "    Message('control_change', channel=0, control=64, value=42, time=0),\n",
       "    Message('note_on', channel=0, note=80, velocity=0, time=3),\n",
       "    Message('note_on', channel=0, note=80, velocity=0, time=0),\n",
       "    Message('control_change', channel=0, control=64, value=124, time=11),\n",
       "    Message('control_change', channel=0, control=64, value=124, time=0),\n",
       "    Message('note_on', channel=0, note=54, velocity=36, time=3),\n",
       "    Message('note_on', channel=0, note=54, velocity=36, time=1),\n",
       "    Message('control_change', channel=0, control=64, value=127, time=3),\n",
       "    Message('control_change', channel=0, control=64, value=127, time=1),\n",
       "    Message('note_on', channel=0, note=81, velocity=0, time=81),\n",
       "    Message('note_on', channel=0, note=81, velocity=0, time=0),\n",
       "    Message('note_on', channel=0, note=54, velocity=0, time=134),\n",
       "    Message('note_on', channel=0, note=54, velocity=0, time=0),\n",
       "    Message('note_on', channel=0, note=61, velocity=39, time=26),\n",
       "    Message('note_on', channel=0, note=61, velocity=39, time=1),\n",
       "    Message('note_on', channel=0, note=61, velocity=0, time=184),\n",
       "    Message('note_on', channel=0, note=61, velocity=0, time=0),\n",
       "    Message('note_on', channel=0, note=66, velocity=41, time=56),\n",
       "    Message('note_on', channel=0, note=66, velocity=41, time=1),\n",
       "    Message('note_on', channel=0, note=66, velocity=0, time=66),\n",
       "    Message('note_on', channel=0, note=66, velocity=0, time=0),\n",
       "    Message('note_on', channel=0, note=64, velocity=53, time=51),\n",
       "    Message('note_on', channel=0, note=64, velocity=53, time=0),\n",
       "    Message('note_on', channel=0, note=64, velocity=0, time=97),\n",
       "    Message('note_on', channel=0, note=64, velocity=0, time=0),\n",
       "    Message('note_on', channel=0, note=69, velocity=51, time=4),\n",
       "    Message('note_on', channel=0, note=69, velocity=51, time=0),\n",
       "    Message('note_on', channel=0, note=71, velocity=32, time=144),\n",
       "    Message('note_on', channel=0, note=71, velocity=32, time=1),\n",
       "    Message('note_on', channel=0, note=69, velocity=0, time=25),\n",
       "    Message('note_on', channel=0, note=69, velocity=0, time=0),\n",
       "    Message('control_change', channel=0, control=64, value=126, time=9),\n",
       "    Message('control_change', channel=0, control=64, value=126, time=0),\n",
       "    Message('control_change', channel=0, control=64, value=70, time=11),\n",
       "    Message('control_change', channel=0, control=64, value=70, time=0),\n",
       "    Message('control_change', channel=0, control=64, value=46, time=4),\n",
       "    Message('control_change', channel=0, control=64, value=46, time=1),\n",
       "    Message('control_change', channel=0, control=64, value=28, time=3),\n",
       "    Message('control_change', channel=0, control=64, value=28, time=0),\n",
       "    Message('control_change', channel=0, control=64, value=14, time=6),\n",
       "    Message('control_change', channel=0, control=64, value=14, time=0),\n",
       "    Message('control_change', channel=0, control=64, value=4, time=3),\n",
       "    Message('control_change', channel=0, control=64, value=4, time=0),\n",
       "    Message('control_change', channel=0, control=64, value=0, time=5),\n",
       "    Message('control_change', channel=0, control=64, value=0, time=0),\n",
       "    Message('control_change', channel=0, control=64, value=1, time=11),\n",
       "    Message('control_change', channel=0, control=64, value=1, time=0),\n",
       "    Message('control_change', channel=0, control=64, value=10, time=3),\n",
       "    Message('control_change', channel=0, control=64, value=10, time=0),\n",
       "    Message('control_change', channel=0, control=64, value=26, time=5),\n",
       "    Message('control_change', channel=0, control=64, value=26, time=0),\n",
       "    Message('control_change', channel=0, control=64, value=72, time=11),\n",
       "    Message('control_change', channel=0, control=64, value=72, time=0),\n",
       "    Message('control_change', channel=0, control=64, value=124, time=9),\n",
       "    Message('control_change', channel=0, control=64, value=124, time=0),\n",
       "    Message('control_change', channel=0, control=64, value=127, time=6),\n",
       "    Message('control_change', channel=0, control=64, value=127, time=0),\n",
       "    Message('note_on', channel=0, note=50, velocity=53, time=8),\n",
       "    Message('note_on', channel=0, note=50, velocity=53, time=1),\n",
       "    Message('note_on', channel=0, note=73, velocity=68, time=9),\n",
       "    Message('note_on', channel=0, note=73, velocity=68, time=0),\n",
       "    Message('note_on', channel=0, note=71, velocity=0, time=21),\n",
       "    Message('note_on', channel=0, note=71, velocity=0, time=0),\n",
       "    Message('note_on', channel=0, note=73, velocity=0, time=139),\n",
       "    Message('note_on', channel=0, note=73, velocity=0, time=0),\n",
       "    Message('note_on', channel=0, note=50, velocity=0, time=53),\n",
       "    Message('note_on', channel=0, note=50, velocity=0, time=0),\n",
       "    Message('note_on', channel=0, note=57, velocity=38, time=6),\n",
       "    Message('note_on', channel=0, note=57, velocity=38, time=0),\n",
       "    Message('note_on', channel=0, note=62, velocity=53, time=243),\n",
       "    Message('note_on', channel=0, note=62, velocity=53, time=0),\n",
       "    Message('note_on', channel=0, note=57, velocity=0, time=21),\n",
       "    Message('note_on', channel=0, note=57, velocity=0, time=0),\n",
       "    Message('note_on', channel=0, note=62, velocity=0, time=51),\n",
       "    Message('note_on', channel=0, note=62, velocity=0, time=0),\n",
       "    Message('note_on', channel=0, note=73, velocity=63, time=176),\n",
       "    Message('note_on', channel=0, note=73, velocity=63, time=1),\n",
       "    Message('note_on', channel=0, note=74, velocity=55, time=116),\n",
       "    Message('note_on', channel=0, note=74, velocity=55, time=1),\n",
       "    Message('note_on', channel=0, note=73, velocity=0, time=21),\n",
       "    Message('note_on', channel=0, note=73, velocity=0, time=0),\n",
       "    Message('control_change', channel=0, control=64, value=110, time=66),\n",
       "    Message('control_change', channel=0, control=64, value=110, time=0),\n",
       "    Message('control_change', channel=0, control=64, value=90, time=3),\n",
       "    Message('control_change', channel=0, control=64, value=90, time=0),\n",
       "    Message('control_change', channel=0, control=64, value=78, time=5),\n",
       "    Message('control_change', channel=0, control=64, value=78, time=0),\n",
       "    Message('control_change', channel=0, control=64, value=74, time=6),\n",
       "    Message('control_change', channel=0, control=64, value=74, time=0),\n",
       "    Message('control_change', channel=0, control=64, value=80, time=13),\n",
       "    Message('control_change', channel=0, control=64, value=80, time=0),\n",
       "    Message('control_change', channel=0, control=64, value=88, time=5),\n",
       "    Message('control_change', channel=0, control=64, value=88, time=1),\n",
       "    Message('control_change', channel=0, control=64, value=98, time=5),\n",
       "    Message('control_change', channel=0, control=64, value=98, time=0),\n",
       "    Message('control_change', channel=0, control=64, value=112, time=4),\n",
       "    Message('control_change', channel=0, control=64, value=112, time=0),\n",
       "    Message('note_on', channel=0, note=76, velocity=62, time=0),\n",
       "    Message('note_on', channel=0, note=76, velocity=62, time=1),\n",
       "    Message('control_change', channel=0, control=64, value=127, time=4),\n",
       "    Message('control_change', channel=0, control=64, value=127, time=1),\n",
       "    Message('note_on', channel=0, note=45, velocity=46, time=2),\n",
       "    Message('note_on', channel=0, note=45, velocity=46, time=1),\n",
       "    Message('note_on', channel=0, note=74, velocity=0, time=18),\n",
       "    Message('note_on', channel=0, note=74, velocity=0, time=0),\n",
       "    Message('note_on', channel=0, note=76, velocity=0, time=91),\n",
       "    Message('note_on', channel=0, note=76, velocity=0, time=0),\n",
       "    Message('note_on', channel=0, note=64, velocity=51, time=1),\n",
       "    Message('note_on', channel=0, note=64, velocity=51, time=0),\n",
       "    Message('note_on', channel=0, note=45, velocity=0, time=105),\n",
       "    Message('note_on', channel=0, note=45, velocity=0, time=0),\n",
       "    Message('note_on', channel=0, note=73, velocity=73, time=8),\n",
       "    Message('note_on', channel=0, note=73, velocity=73, time=1),\n",
       "    Message('note_on', channel=0, note=52, velocity=42, time=11),\n",
       "    Message('note_on', channel=0, note=52, velocity=42, time=0),\n",
       "    Message('note_on', channel=0, note=64, velocity=0, time=18),\n",
       "    Message('note_on', channel=0, note=64, velocity=0, time=1),\n",
       "    Message('note_on', channel=0, note=74, velocity=59, time=89),\n",
       "    Message('note_on', channel=0, note=74, velocity=59, time=0),\n",
       "    Message('note_on', channel=0, note=73, velocity=0, time=19),\n",
       "    Message('note_on', channel=0, note=73, velocity=0, time=0),\n",
       "    Message('note_on', channel=0, note=76, velocity=68, time=101),\n",
       "    Message('note_on', channel=0, note=76, velocity=68, time=1),\n",
       "    Message('note_on', channel=0, note=57, velocity=51, time=3),\n",
       "    Message('note_on', channel=0, note=57, velocity=51, time=1),\n",
       "    Message('note_on', channel=0, note=52, velocity=0, time=3),\n",
       "    Message('note_on', channel=0, note=52, velocity=0, time=0),\n",
       "    Message('note_on', channel=0, note=74, velocity=0, time=18),\n",
       "    Message('note_on', channel=0, note=74, velocity=0, time=0),\n",
       "    Message('note_on', channel=0, note=76, velocity=0, time=51),\n",
       "    Message('note_on', channel=0, note=76, velocity=0, time=0),\n",
       "    Message('note_on', channel=0, note=57, velocity=0, time=18),\n",
       "    Message('note_on', channel=0, note=57, velocity=0, time=0),\n",
       "    Message('note_on', channel=0, note=74, velocity=40, time=141),\n",
       "    Message('note_on', channel=0, note=74, velocity=40, time=0),\n",
       "    Message('note_on', channel=0, note=73, velocity=60, time=123),\n",
       "    Message('note_on', channel=0, note=73, velocity=60, time=0),\n",
       "    Message('note_on', channel=0, note=74, velocity=0, time=32),\n",
       "    Message('note_on', channel=0, note=74, velocity=0, time=0),\n",
       "    Message('control_change', channel=0, control=64, value=122, time=46),\n",
       "    Message('control_change', channel=0, control=64, value=122, time=0),\n",
       "    Message('control_change', channel=0, control=64, value=94, time=4),\n",
       "    Message('control_change', channel=0, control=64, value=94, time=0),\n",
       "    Message('control_change', channel=0, control=64, value=70, time=7),\n",
       "    Message('control_change', channel=0, control=64, value=70, time=0),\n",
       "    Message('control_change', channel=0, control=64, value=52, time=7),\n",
       "    Message('control_change', channel=0, control=64, value=52, time=0),\n",
       "    Message('control_change', channel=0, control=64, value=40, time=4),\n",
       "    Message('control_change', channel=0, control=64, value=40, time=0),\n",
       "    Message('control_change', channel=0, control=64, value=34, time=3),\n",
       "    Message('control_change', channel=0, control=64, value=34, time=0),\n",
       "    Message('control_change', channel=0, control=64, value=40, time=8),\n",
       "    Message('control_change', channel=0, control=64, value=40, time=0),\n",
       "    Message('control_change', channel=0, control=64, value=48, time=6),\n",
       "    Message('control_change', channel=0, control=64, value=48, time=0),\n",
       "    Message('note_on', channel=0, note=71, velocity=64, time=3),\n",
       "    Message('note_on', channel=0, note=71, velocity=64, time=1),\n",
       "    Message('control_change', channel=0, control=64, value=62, time=1),\n",
       "    Message('control_change', channel=0, control=64, value=62, time=0),\n",
       "    Message('note_on', channel=0, note=52, velocity=42, time=2),\n",
       "    Message('note_on', channel=0, note=52, velocity=42, time=1),\n",
       "    Message('control_change', channel=0, control=64, value=80, time=3),\n",
       "    Message('control_change', channel=0, control=64, value=80, time=0),\n",
       "    Message('control_change', channel=0, control=64, value=98, time=3),\n",
       "    Message('control_change', channel=0, control=64, value=98, time=1),\n",
       "    Message('control_change', channel=0, control=64, value=122, time=3),\n",
       "    Message('control_change', channel=0, control=64, value=122, time=0),\n",
       "    Message('control_change', channel=0, control=64, value=127, time=10),\n",
       "    Message('control_change', channel=0, control=64, value=127, time=0),\n",
       "    Message('note_on', channel=0, note=73, velocity=0, time=16),\n",
       "    Message('note_on', channel=0, note=73, velocity=0, time=0),\n",
       "    Message('note_on', channel=0, note=64, velocity=64, time=70),\n",
       "    Message('note_on', channel=0, note=64, velocity=64, time=0),\n",
       "    Message('note_on', channel=0, note=71, velocity=0, time=21),\n",
       "    Message('note_on', channel=0, note=71, velocity=0, time=0),\n",
       "    Message('note_on', channel=0, note=52, velocity=0, time=102),\n",
       "    Message('note_on', channel=0, note=52, velocity=0, time=0),\n",
       "    Message('note_on', channel=0, note=64, velocity=0, time=3),\n",
       "    Message('note_on', channel=0, note=64, velocity=0, time=0),\n",
       "    Message('note_on', channel=0, note=74, velocity=75, time=13),\n",
       "    Message('note_on', channel=0, note=74, velocity=75, time=1),\n",
       "    Message('note_on', channel=0, note=59, velocity=46, time=3),\n",
       "    Message('note_on', channel=0, note=59, velocity=46, time=1),\n",
       "    Message('note_on', channel=0, note=73, velocity=70, time=128),\n",
       "    Message('note_on', channel=0, note=73, velocity=70, time=0),\n",
       "    Message('note_on', channel=0, note=74, velocity=0, time=28),\n",
       "    Message('note_on', channel=0, note=74, velocity=0, time=0),\n",
       "    Message('note_on', channel=0, note=71, velocity=36, time=91),\n",
       "    Message('note_on', channel=0, note=71, velocity=36, time=1),\n",
       "    Message('note_on', channel=0, note=72, velocity=34, time=3),\n",
       "    Message('note_on', channel=0, note=72, velocity=34, time=1),\n",
       "    Message('note_on', channel=0, note=64, velocity=46, time=6),\n",
       "    Message('note_on', channel=0, note=64, velocity=46, time=0),\n",
       "    Message('note_on', channel=0, note=73, velocity=0, time=3),\n",
       "    Message('note_on', channel=0, note=73, velocity=0, time=0),\n",
       "    Message('note_on', channel=0, note=72, velocity=0, time=31),\n",
       "    Message('note_on', channel=0, note=72, velocity=0, time=0),\n",
       "    Message('note_on', channel=0, note=59, velocity=0, time=6),\n",
       "    Message('note_on', channel=0, note=59, velocity=0, time=0),\n",
       "    Message('note_on', channel=0, note=71, velocity=0, time=69),\n",
       "    Message('note_on', channel=0, note=71, velocity=0, time=0),\n",
       "    Message('note_on', channel=0, note=64, velocity=0, time=62),\n",
       "    Message('note_on', channel=0, note=64, velocity=0, time=0),\n",
       "    Message('control_change', channel=0, control=64, value=126, time=201),\n",
       "    Message('control_change', channel=0, control=64, value=126, time=1),\n",
       "    Message('control_change', channel=0, control=64, value=110, time=5),\n",
       "    Message('control_change', channel=0, control=64, value=110, time=0),\n",
       "    Message('control_change', channel=0, control=64, value=96, time=4),\n",
       "    Message('control_change', channel=0, control=64, value=96, time=0),\n",
       "    Message('control_change', channel=0, control=64, value=88, time=5),\n",
       "    Message('control_change', channel=0, control=64, value=88, time=0),\n",
       "    Message('control_change', channel=0, control=64, value=80, time=5),\n",
       "    Message('control_change', channel=0, control=64, value=80, time=0),\n",
       "    Message('control_change', channel=0, control=64, value=76, time=6),\n",
       "    Message('control_change', channel=0, control=64, value=76, time=0),\n",
       "    Message('control_change', channel=0, control=64, value=74, time=3),\n",
       "    Message('control_change', channel=0, control=64, value=74, time=0),\n",
       "    Message('control_change', channel=0, control=64, value=76, time=5),\n",
       "    Message('control_change', channel=0, control=64, value=76, time=1),\n",
       "    Message('control_change', channel=0, control=64, value=80, time=5),\n",
       "    Message('control_change', channel=0, control=64, value=80, time=0),\n",
       "    Message('control_change', channel=0, control=64, value=90, time=4),\n",
       "    Message('control_change', channel=0, control=64, value=90, time=0),\n",
       "    Message('control_change', channel=0, control=64, value=104, time=5),\n",
       "    Message('control_change', channel=0, control=64, value=104, time=0),\n",
       "    Message('control_change', channel=0, control=64, value=120, time=6),\n",
       "    Message('control_change', channel=0, control=64, value=120, time=0),\n",
       "    Message('control_change', channel=0, control=64, value=127, time=3),\n",
       "    Message('control_change', channel=0, control=64, value=127, time=0),\n",
       "    Message('note_on', channel=0, note=81, velocity=59, time=8),\n",
       "    Message('note_on', channel=0, note=81, velocity=59, time=1),\n",
       "    Message('note_on', channel=0, note=54, velocity=30, time=9),\n",
       "    Message('note_on', channel=0, note=54, velocity=30, time=0),\n",
       "    Message('note_on', channel=0, note=54, velocity=0, time=118),\n",
       "    Message('note_on', channel=0, note=54, velocity=0, time=0),\n",
       "    Message('note_on', channel=0, note=81, velocity=0, time=3),\n",
       "    Message('note_on', channel=0, note=81, velocity=0, time=0),\n",
       "    Message('note_on', channel=0, note=69, velocity=38, time=21),\n",
       "    Message('note_on', channel=0, note=69, velocity=38, time=0),\n",
       "    Message('note_on', channel=0, note=71, velocity=40, time=4),\n",
       "    Message('note_on', channel=0, note=71, velocity=40, time=0),\n",
       "    Message('note_on', channel=0, note=69, velocity=0, time=54),\n",
       "    Message('note_on', channel=0, note=69, velocity=0, time=0),\n",
       "    Message('note_on', channel=0, note=71, velocity=0, time=5),\n",
       "    Message('note_on', channel=0, note=71, velocity=0, time=0),\n",
       "    Message('note_on', channel=0, note=81, velocity=51, time=34),\n",
       "    Message('note_on', channel=0, note=81, velocity=51, time=1),\n",
       "    Message('note_on', channel=0, note=61, velocity=32, time=21),\n",
       "    Message('note_on', channel=0, note=61, velocity=32, time=1),\n",
       "    Message('note_on', channel=0, note=81, velocity=0, time=56),\n",
       "    Message('note_on', channel=0, note=81, velocity=0, time=0),\n",
       "    Message('note_on', channel=0, note=71, velocity=68, time=15),\n",
       "    Message('note_on', channel=0, note=71, velocity=68, time=0),\n",
       "    Message('note_on', channel=0, note=61, velocity=0, time=67),\n",
       "    Message('note_on', channel=0, note=61, velocity=0, time=0),\n",
       "    Message('note_on', channel=0, note=81, velocity=40, time=65),\n",
       "    Message('note_on', channel=0, note=81, velocity=40, time=1),\n",
       "    Message('note_on', channel=0, note=71, velocity=0, time=10),\n",
       "    Message('note_on', channel=0, note=71, velocity=0, time=0),\n",
       "    Message('note_on', channel=0, note=66, velocity=53, time=9),\n",
       "    Message('note_on', channel=0, note=66, velocity=53, time=0),\n",
       "    Message('note_on', channel=0, note=66, velocity=0, time=73),\n",
       "    Message('note_on', channel=0, note=66, velocity=0, time=0),\n",
       "    Message('note_on', channel=0, note=81, velocity=0, time=17),\n",
       "    Message('note_on', channel=0, note=81, velocity=0, time=1),\n",
       "    Message('note_on', channel=0, note=83, velocity=55, time=0),\n",
       "    Message('note_on', channel=0, note=83, velocity=55, time=1),\n",
       "    Message('note_on', channel=0, note=81, velocity=40, time=95),\n",
       "    Message('note_on', channel=0, note=81, velocity=40, time=1),\n",
       "    Message('note_on', channel=0, note=83, velocity=0, time=5),\n",
       "    Message('note_on', channel=0, note=83, velocity=0, time=0),\n",
       "    Message('note_on', channel=0, note=80, velocity=36, time=94),\n",
       "    Message('note_on', channel=0, note=80, velocity=36, time=1),\n",
       "    Message('note_on', channel=0, note=81, velocity=0, time=36),\n",
       "    Message('note_on', channel=0, note=81, velocity=0, time=0),\n",
       "    Message('note_on', channel=0, note=80, velocity=0, time=39),\n",
       "    Message('note_on', channel=0, note=80, velocity=0, time=0),\n",
       "    Message('note_on', channel=0, note=81, velocity=38, time=4),\n",
       "    Message('note_on', channel=0, note=81, velocity=38, time=0),\n",
       "    Message('note_on', channel=0, note=81, velocity=0, time=128),\n",
       "    Message('note_on', channel=0, note=81, velocity=0, time=0),\n",
       "    Message('note_on', channel=0, note=50, velocity=35, time=8),\n",
       "    Message('note_on', channel=0, note=50, velocity=35, time=1),\n",
       "    Message('note_on', channel=0, note=83, velocity=55, time=0),\n",
       "    Message('note_on', channel=0, note=83, velocity=55, time=0),\n",
       "    Message('note_on', channel=0, note=81, velocity=66, time=99),\n",
       "    Message('note_on', channel=0, note=81, velocity=66, time=1),\n",
       "    Message('note_on', channel=0, note=83, velocity=0, time=8),\n",
       "    Message('note_on', channel=0, note=83, velocity=0, time=1),\n",
       "    Message('note_on', channel=0, note=81, velocity=0, time=75),\n",
       "    Message('note_on', channel=0, note=81, velocity=0, time=0),\n",
       "    Message('note_on', channel=0, note=50, velocity=0, time=11),\n",
       "    Message('note_on', channel=0, note=50, velocity=0, time=0),\n",
       "    Message('control_change', channel=0, control=64, value=92, time=174),\n",
       "    Message('control_change', channel=0, control=64, value=92, time=0),\n",
       "    Message('control_change', channel=0, control=64, value=62, time=7),\n",
       "    Message('control_change', channel=0, control=64, value=62, time=0),\n",
       "    Message('control_change', channel=0, control=64, value=36, time=4),\n",
       "    Message('control_change', channel=0, control=64, value=36, time=0),\n",
       "    Message('control_change', channel=0, control=64, value=16, time=3),\n",
       "    Message('control_change', channel=0, control=64, value=16, time=0),\n",
       "    Message('control_change', channel=0, control=64, value=2, time=6),\n",
       "    Message('control_change', channel=0, control=64, value=2, time=0),\n",
       "    Message('control_change', channel=0, control=64, value=0, time=6),\n",
       "    Message('control_change', channel=0, control=64, value=0, time=0),\n",
       "    Message('control_change', channel=0, control=64, value=12, time=16),\n",
       "    Message('control_change', channel=0, control=64, value=12, time=0),\n",
       "    Message('control_change', channel=0, control=64, value=28, time=5),\n",
       "    Message('control_change', channel=0, control=64, value=28, time=0),\n",
       "    Message('control_change', channel=0, control=64, value=68, time=10),\n",
       "    Message('control_change', channel=0, control=64, value=68, time=0),\n",
       "    Message('note_on', channel=0, note=81, velocity=68, time=14),\n",
       "    Message('note_on', channel=0, note=81, velocity=68, time=1),\n",
       "    Message('control_change', channel=0, control=64, value=127, time=0),\n",
       "    Message('control_change', channel=0, control=64, value=127, time=0),\n",
       "    Message('note_on', channel=0, note=81, velocity=0, time=37),\n",
       "    Message('note_on', channel=0, note=81, velocity=0, time=0),\n",
       "    Message('note_on', channel=0, note=81, velocity=70, time=75),\n",
       "    Message('note_on', channel=0, note=81, velocity=70, time=0),\n",
       "    Message('note_on', channel=0, note=83, velocity=53, time=57),\n",
       "    Message('note_on', channel=0, note=83, velocity=53, time=0),\n",
       "    Message('note_on', channel=0, note=81, velocity=0, time=8),\n",
       "    Message('note_on', channel=0, note=81, velocity=0, time=1),\n",
       "    Message('note_on', channel=0, note=81, velocity=48, time=71),\n",
       "    Message('note_on', channel=0, note=81, velocity=48, time=0),\n",
       "    Message('note_on', channel=0, note=83, velocity=0, time=21),\n",
       "    Message('note_on', channel=0, note=83, velocity=0, time=0),\n",
       "    Message('note_on', channel=0, note=80, velocity=22, time=61),\n",
       "    Message('note_on', channel=0, note=80, velocity=22, time=0),\n",
       "    Message('note_on', channel=0, note=81, velocity=0, time=34),\n",
       "    Message('note_on', channel=0, note=81, velocity=0, time=0),\n",
       "    Message('note_on', channel=0, note=80, velocity=0, time=66),\n",
       "    Message('note_on', channel=0, note=80, velocity=0, time=0),\n",
       "    Message('control_change', channel=0, control=64, value=118, time=6),\n",
       "    Message('control_change', channel=0, control=64, value=118, time=0),\n",
       "    Message('control_change', channel=0, control=64, value=104, time=6),\n",
       "    Message('control_change', channel=0, control=64, value=104, time=0),\n",
       "    Message('control_change', channel=0, control=64, value=92, time=3),\n",
       "    Message('control_change', channel=0, control=64, value=92, time=0),\n",
       "    Message('control_change', channel=0, control=64, value=86, time=5),\n",
       "    Message('control_change', channel=0, control=64, value=86, time=0),\n",
       "    Message('control_change', channel=0, control=64, value=82, time=5),\n",
       "    Message('control_change', channel=0, control=64, value=82, time=1),\n",
       "    Message('control_change', channel=0, control=64, value=78, time=4),\n",
       "    Message('control_change', channel=0, control=64, value=78, time=1),\n",
       "    Message('note_on', channel=0, note=81, velocity=44, time=0),\n",
       "    Message('note_on', channel=0, note=81, velocity=44, time=1),\n",
       "    Message('control_change', channel=0, control=64, value=80, time=9),\n",
       "    Message('control_change', channel=0, control=64, value=80, time=0),\n",
       "    Message('control_change', channel=0, control=64, value=86, time=3),\n",
       "    Message('control_change', channel=0, control=64, value=86, time=0),\n",
       "    Message('control_change', channel=0, control=64, value=92, time=5),\n",
       "    Message('control_change', channel=0, control=64, value=92, time=0),\n",
       "    Message('control_change', channel=0, control=64, value=106, time=6),\n",
       "    Message('control_change', channel=0, control=64, value=106, time=0),\n",
       "    Message('control_change', channel=0, control=64, value=122, time=2),\n",
       "    Message('control_change', channel=0, control=64, value=122, time=1),\n",
       "    Message('note_on', channel=0, note=45, velocity=34, time=3),\n",
       "    Message('note_on', channel=0, note=45, velocity=34, time=1),\n",
       "    Message('control_change', channel=0, control=64, value=127, time=3),\n",
       "    Message('control_change', channel=0, control=64, value=127, time=0),\n",
       "    Message('note_on', channel=0, note=83, velocity=46, time=107),\n",
       "    Message('note_on', channel=0, note=83, velocity=46, time=0),\n",
       "    Message('note_on', channel=0, note=81, velocity=0, time=6),\n",
       "    Message('note_on', channel=0, note=81, velocity=0, time=0),\n",
       "    Message('note_on', channel=0, note=45, velocity=0, time=111),\n",
       "    Message('note_on', channel=0, note=45, velocity=0, time=1),\n",
       "    Message('note_on', channel=0, note=85, velocity=68, time=3),\n",
       "    Message('note_on', channel=0, note=85, velocity=68, time=0),\n",
       "    Message('note_on', channel=0, note=52, velocity=35, time=9),\n",
       "    Message('note_on', channel=0, note=52, velocity=35, time=0),\n",
       "    Message('note_on', channel=0, note=83, velocity=0, time=32),\n",
       "    Message('note_on', channel=0, note=83, velocity=0, time=0),\n",
       "    Message('note_on', channel=0, note=86, velocity=55, time=99),\n",
       "    Message('note_on', channel=0, note=86, velocity=55, time=0),\n",
       "    Message('note_on', channel=0, note=85, velocity=0, time=82),\n",
       "    Message('note_on', channel=0, note=85, velocity=0, time=0),\n",
       "    Message('note_on', channel=0, note=52, velocity=0, time=18),\n",
       "    Message('note_on', channel=0, note=52, velocity=0, time=0),\n",
       "    Message('note_on', channel=0, note=88, velocity=58, time=3),\n",
       "    Message('note_on', channel=0, note=88, velocity=58, time=1),\n",
       "    Message('note_on', channel=0, note=57, velocity=46, time=6),\n",
       "    Message('note_on', channel=0, note=57, velocity=46, time=0),\n",
       "    Message('note_on', channel=0, note=86, velocity=0, time=8),\n",
       "    Message('note_on', channel=0, note=86, velocity=0, time=1),\n",
       "    Message('note_on', channel=0, note=57, velocity=0, time=83),\n",
       "    Message('note_on', channel=0, note=57, velocity=0, time=0),\n",
       "    Message('note_on', channel=0, note=85, velocity=56, time=29),\n",
       "    Message('note_on', channel=0, note=85, velocity=56, time=1),\n",
       "    Message('note_on', channel=0, note=88, velocity=0, time=31),\n",
       "    Message('note_on', channel=0, note=88, velocity=0, time=0),\n",
       "    Message('note_on', channel=0, note=83, velocity=53, time=79),\n",
       "    Message('note_on', channel=0, note=83, velocity=53, time=1),\n",
       "    Message('note_on', channel=0, note=85, velocity=0, time=23),\n",
       "    Message('note_on', channel=0, note=85, velocity=0, time=0),\n",
       "    Message('note_on', channel=0, note=81, velocity=57, time=87),\n",
       "    Message('note_on', channel=0, note=81, velocity=57, time=0),\n",
       "    Message('note_on', channel=0, note=83, velocity=0, time=9),\n",
       "    Message('note_on', channel=0, note=83, velocity=0, time=0),\n",
       "    Message('control_change', channel=0, control=64, value=94, time=97),\n",
       "    Message('control_change', channel=0, control=64, value=94, time=0),\n",
       "    Message('control_change', channel=0, control=64, value=46, time=5),\n",
       "    Message('control_change', channel=0, control=64, value=46, time=0),\n",
       "    Message('control_change', channel=0, control=64, value=1, time=3),\n",
       "    Message('control_change', channel=0, control=64, value=1, time=0),\n",
       "    Message('note_on', channel=0, note=80, velocity=56, time=6),\n",
       "    Message('note_on', channel=0, note=80, velocity=56, time=0),\n",
       "    Message('control_change', channel=0, control=64, value=0, time=4),\n",
       "    Message('control_change', channel=0, control=64, value=0, time=0),\n",
       "    Message('note_on', channel=0, note=52, velocity=42, time=6),\n",
       "    Message('note_on', channel=0, note=52, velocity=42, time=0),\n",
       "    Message('note_on', channel=0, note=81, velocity=0, time=39),\n",
       "    Message('note_on', channel=0, note=81, velocity=0, time=0),\n",
       "    Message('control_change', channel=0, control=64, value=32, time=3),\n",
       "    Message('control_change', channel=0, control=64, value=32, time=0),\n",
       "    Message('control_change', channel=0, control=64, value=96, time=11),\n",
       "    Message('control_change', channel=0, control=64, value=96, time=0),\n",
       "    Message('control_change', channel=0, control=64, value=127, time=8),\n",
       "    Message('control_change', channel=0, control=64, value=127, time=0),\n",
       "    Message('note_on', channel=0, note=80, velocity=0, time=133),\n",
       "    Message('note_on', channel=0, note=80, velocity=0, time=1),\n",
       "    Message('note_on', channel=0, note=59, velocity=48, time=38),\n",
       "    Message('note_on', channel=0, note=59, velocity=48, time=0),\n",
       "    Message('note_on', channel=0, note=52, velocity=0, time=6),\n",
       "    Message('note_on', channel=0, note=52, velocity=0, time=0),\n",
       "    Message('note_on', channel=0, note=81, velocity=77, time=235),\n",
       "    Message('note_on', channel=0, note=81, velocity=77, time=1),\n",
       "    Message('note_on', channel=0, note=64, velocity=36, time=3),\n",
       "    Message('note_on', channel=0, note=64, velocity=36, time=1),\n",
       "    Message('note_on', channel=0, note=59, velocity=0, time=31),\n",
       "    Message('note_on', channel=0, note=59, velocity=0, time=0),\n",
       "    Message('note_on', channel=0, note=81, velocity=0, time=17),\n",
       "    Message('note_on', channel=0, note=81, velocity=0, time=0),\n",
       "    Message('note_on', channel=0, note=64, velocity=0, time=63),\n",
       "    Message('note_on', channel=0, note=64, velocity=0, time=0),\n",
       "    Message('note_on', channel=0, note=81, velocity=53, time=11),\n",
       "    Message('note_on', channel=0, note=81, velocity=53, time=1),\n",
       "    Message('note_on', channel=0, note=83, velocity=55, time=49),\n",
       "    Message('note_on', channel=0, note=83, velocity=55, time=0),\n",
       "    Message('note_on', channel=0, note=81, velocity=0, time=10),\n",
       "    Message('note_on', channel=0, note=81, velocity=0, time=0),\n",
       "    Message('note_on', channel=0, note=81, velocity=38, time=75),\n",
       "    Message('note_on', channel=0, note=81, velocity=38, time=0),\n",
       "    Message('note_on', channel=0, note=83, velocity=0, time=8),\n",
       "    Message('note_on', channel=0, note=83, velocity=0, time=0),\n",
       "    Message('note_on', channel=0, note=80, velocity=60, time=122),\n",
       "    Message('note_on', channel=0, note=80, velocity=60, time=0),\n",
       "    Message('note_on', channel=0, note=81, velocity=0, time=1),\n",
       "    Message('note_on', channel=0, note=81, velocity=0, time=1),\n",
       "    Message('note_on', channel=0, note=81, velocity=38, time=95),\n",
       "    Message('note_on', channel=0, note=81, velocity=38, time=1),\n",
       "    Message('control_change', channel=0, control=64, value=90, time=3),\n",
       "    Message('control_change', channel=0, control=64, value=90, time=0),\n",
       "    Message('control_change', channel=0, control=64, value=60, time=4),\n",
       "    Message('control_change', channel=0, control=64, value=60, time=1),\n",
       "    Message('control_change', channel=0, control=64, value=36, time=3),\n",
       "    Message('control_change', channel=0, control=64, value=36, time=0),\n",
       "    Message('control_change', channel=0, control=64, value=16, time=5),\n",
       "    Message('control_change', channel=0, control=64, value=16, time=0),\n",
       "    Message('note_on', channel=0, note=54, velocity=32, time=1),\n",
       "    Message('note_on', channel=0, note=54, velocity=32, time=1),\n",
       "    Message('note_on', channel=0, note=80, velocity=0, time=2),\n",
       "    Message('note_on', channel=0, note=80, velocity=0, time=0),\n",
       "    Message('control_change', channel=0, control=64, value=6, time=1),\n",
       "    Message('control_change', channel=0, control=64, value=6, time=0),\n",
       "    Message('control_change', channel=0, control=64, value=2, time=5),\n",
       "    Message('control_change', channel=0, control=64, value=2, time=0),\n",
       "    Message('control_change', channel=0, control=64, value=8, time=8),\n",
       "    Message('control_change', channel=0, control=64, value=8, time=1),\n",
       "    Message('control_change', channel=0, control=64, value=18, time=4),\n",
       "    Message('control_change', channel=0, control=64, value=18, time=0),\n",
       "    Message('control_change', channel=0, control=64, value=36, time=6),\n",
       "    Message('control_change', channel=0, control=64, value=36, time=0),\n",
       "    Message('control_change', channel=0, control=64, value=60, time=3),\n",
       "    Message('control_change', channel=0, control=64, value=60, time=0),\n",
       "    Message('control_change', channel=0, control=64, value=80, time=5),\n",
       "    Message('control_change', channel=0, control=64, value=80, time=0),\n",
       "    Message('control_change', channel=0, control=64, value=104, time=6),\n",
       "    Message('control_change', channel=0, control=64, value=104, time=0),\n",
       "    Message('control_change', channel=0, control=64, value=127, time=6),\n",
       "    Message('control_change', channel=0, control=64, value=127, time=0),\n",
       "    Message('note_on', channel=0, note=69, velocity=62, time=51),\n",
       "    Message('note_on', channel=0, note=69, velocity=62, time=1),\n",
       "    Message('note_on', channel=0, note=81, velocity=0, time=2),\n",
       "    Message('note_on', channel=0, note=81, velocity=0, time=0),\n",
       "    Message('note_on', channel=0, note=54, velocity=0, time=80),\n",
       "    Message('note_on', channel=0, note=54, velocity=0, time=0),\n",
       "    Message('note_on', channel=0, note=76, velocity=53, time=21),\n",
       "    Message('note_on', channel=0, note=76, velocity=53, time=0),\n",
       "    Message('note_on', channel=0, note=69, velocity=0, time=3),\n",
       "    Message('note_on', channel=0, note=69, velocity=0, time=0),\n",
       "    Message('note_on', channel=0, note=61, velocity=39, time=24),\n",
       "    Message('note_on', channel=0, note=61, velocity=39, time=0),\n",
       "    Message('note_on', channel=0, note=69, velocity=53, time=61),\n",
       "    Message('note_on', channel=0, note=69, velocity=53, time=1),\n",
       "    Message('note_on', channel=0, note=76, velocity=0, time=43),\n",
       "    Message('note_on', channel=0, note=76, velocity=0, time=0),\n",
       "    Message('note_on', channel=0, note=61, velocity=0, time=53),\n",
       "    Message('note_on', channel=0, note=61, velocity=0, time=0),\n",
       "    Message('note_on', channel=0, note=81, velocity=62, time=64),\n",
       "    Message('note_on', channel=0, note=81, velocity=62, time=1),\n",
       "    Message('note_on', channel=0, note=69, velocity=0, time=16),\n",
       "    Message('note_on', channel=0, note=69, velocity=0, time=0),\n",
       "    Message('note_on', channel=0, note=66, velocity=34, time=11),\n",
       "    Message('note_on', channel=0, note=66, velocity=34, time=1),\n",
       "    Message('note_on', channel=0, note=81, velocity=0, time=49),\n",
       "    Message('note_on', channel=0, note=81, velocity=0, time=0),\n",
       "    Message('note_on', channel=0, note=66, velocity=0, time=10),\n",
       "    Message('note_on', channel=0, note=66, velocity=0, time=0),\n",
       "    Message('note_on', channel=0, note=81, velocity=51, time=57),\n",
       "    Message('note_on', channel=0, note=81, velocity=51, time=0),\n",
       "    Message('note_on', channel=0, note=83, velocity=70, time=67),\n",
       "    Message('note_on', channel=0, note=83, velocity=70, time=1),\n",
       "    Message('note_on', channel=0, note=81, velocity=0, time=6),\n",
       "    Message('note_on', channel=0, note=81, velocity=0, time=0),\n",
       "    Message('note_on', channel=0, note=81, velocity=51, time=68),\n",
       "    Message('note_on', channel=0, note=81, velocity=51, time=0),\n",
       "    Message('note_on', channel=0, note=83, velocity=0, time=16),\n",
       "    Message('note_on', channel=0, note=83, velocity=0, time=0),\n",
       "    Message('note_on', channel=0, note=80, velocity=60, time=89),\n",
       "    Message('note_on', channel=0, note=80, velocity=60, time=1),\n",
       "    Message('note_on', channel=0, note=81, velocity=0, time=16),\n",
       "    Message('note_on', channel=0, note=81, velocity=0, time=0),\n",
       "    Message('control_change', channel=0, control=64, value=16, time=71),\n",
       "    Message('control_change', channel=0, control=64, value=16, time=0),\n",
       "    Message('control_change', channel=0, control=64, value=4, time=4),\n",
       "    Message('control_change', channel=0, control=64, value=4, time=0),\n",
       "    Message('control_change', channel=0, control=64, value=0, time=4),\n",
       "    Message('control_change', channel=0, control=64, value=0, time=1),\n",
       "    Message('note_on', channel=0, note=81, velocity=57, time=1),\n",
       "    Message('note_on', channel=0, note=81, velocity=57, time=0),\n",
       "    Message('note_on', channel=0, note=50, velocity=44, time=7),\n",
       "    Message('note_on', channel=0, note=50, velocity=44, time=1),\n",
       "    Message('control_change', channel=0, control=64, value=2, time=1),\n",
       "    Message('control_change', channel=0, control=64, value=2, time=0),\n",
       "    Message('control_change', channel=0, control=64, value=12, time=5),\n",
       "    Message('control_change', channel=0, control=64, value=12, time=0),\n",
       "    Message('control_change', channel=0, control=64, value=24, time=3),\n",
       "    Message('control_change', channel=0, control=64, value=24, time=0),\n",
       "    Message('note_on', channel=0, note=80, velocity=0, time=1),\n",
       "    Message('note_on', channel=0, note=80, velocity=0, time=0),\n",
       "    Message('control_change', channel=0, control=64, value=42, time=5),\n",
       "    Message('control_change', channel=0, control=64, value=42, time=0),\n",
       "    Message('control_change', channel=0, control=64, value=62, time=4),\n",
       "    Message('control_change', channel=0, control=64, value=62, time=0),\n",
       "    Message('control_change', channel=0, control=64, value=80, time=6),\n",
       "    Message('control_change', channel=0, control=64, value=80, time=0),\n",
       "    Message('control_change', channel=0, control=64, value=100, time=3),\n",
       "    Message('control_change', channel=0, control=64, value=100, time=1),\n",
       "    Message('control_change', channel=0, control=64, value=124, time=5),\n",
       "    Message('control_change', channel=0, control=64, value=124, time=0),\n",
       "    Message('control_change', channel=0, control=64, value=127, time=5),\n",
       "    Message('control_change', channel=0, control=64, value=127, time=1),\n",
       "    Message('note_on', channel=0, note=69, velocity=57, time=73),\n",
       "    Message('note_on', channel=0, note=69, velocity=57, time=0),\n",
       "    Message('note_on', channel=0, note=81, velocity=0, time=4),\n",
       "    Message('note_on', channel=0, note=81, velocity=0, time=0),\n",
       "    Message('note_on', channel=0, note=76, velocity=66, time=102),\n",
       "    Message('note_on', channel=0, note=76, velocity=66, time=0),\n",
       "    Message('note_on', channel=0, note=69, velocity=0, time=6),\n",
       "    Message('note_on', channel=0, note=69, velocity=0, time=1),\n",
       "    Message('note_on', channel=0, note=50, velocity=0, time=6),\n",
       "    Message('note_on', channel=0, note=50, velocity=0, time=0),\n",
       "    Message('note_on', channel=0, note=57, velocity=42, time=27),\n",
       "    Message('note_on', channel=0, note=57, velocity=42, time=0),\n",
       "    Message('note_on', channel=0, note=69, velocity=51, time=74),\n",
       "    Message('note_on', channel=0, note=69, velocity=51, time=1),\n",
       "    Message('note_on', channel=0, note=76, velocity=0, time=36),\n",
       "    Message('note_on', channel=0, note=76, velocity=0, time=0),\n",
       "    Message('note_on', channel=0, note=69, velocity=0, time=91),\n",
       "    Message('note_on', channel=0, note=69, velocity=0, time=0),\n",
       "    Message('note_on', channel=0, note=81, velocity=64, time=4),\n",
       "    Message('note_on', channel=0, note=81, velocity=64, time=1),\n",
       "    Message('note_on', channel=0, note=62, velocity=42, time=23),\n",
       "    Message('note_on', channel=0, note=62, velocity=42, time=1),\n",
       "    Message('note_on', channel=0, note=57, velocity=0, time=30),\n",
       "    Message('note_on', channel=0, note=57, velocity=0, time=1),\n",
       "    Message('note_on', channel=0, note=81, velocity=0, time=4),\n",
       "    Message('note_on', channel=0, note=81, velocity=0, time=1),\n",
       "    Message('note_on', channel=0, note=62, velocity=0, time=43),\n",
       "    Message('note_on', channel=0, note=62, velocity=0, time=0),\n",
       "    Message('note_on', channel=0, note=81, velocity=42, time=24),\n",
       "    Message('note_on', channel=0, note=81, velocity=42, time=0),\n",
       "    Message('note_on', channel=0, note=83, velocity=38, time=46),\n",
       "    Message('note_on', channel=0, note=83, velocity=38, time=1),\n",
       "    Message('note_on', channel=0, note=81, velocity=0, time=8),\n",
       "    Message('note_on', channel=0, note=81, velocity=0, time=0),\n",
       "    Message('note_on', channel=0, note=81, velocity=53, time=65),\n",
       "    Message('note_on', channel=0, note=81, velocity=53, time=0),\n",
       "    Message('note_on', channel=0, note=83, velocity=0, time=24),\n",
       "    Message('note_on', channel=0, note=83, velocity=0, time=0),\n",
       "    Message('note_on', channel=0, note=80, velocity=51, time=74),\n",
       "    Message('note_on', channel=0, note=80, velocity=51, time=1),\n",
       "    Message('note_on', channel=0, note=81, velocity=0, time=23),\n",
       "    Message('note_on', channel=0, note=81, velocity=0, time=0),\n",
       "    Message('note_on', channel=0, note=80, velocity=0, time=76),\n",
       "    Message('note_on', channel=0, note=80, velocity=0, time=0),\n",
       "    Message('note_on', channel=0, note=81, velocity=59, time=37),\n",
       "    Message('note_on', channel=0, note=81, velocity=59, time=0),\n",
       "    Message('note_on', channel=0, note=45, velocity=36, time=18),\n",
       "    Message('note_on', channel=0, note=45, velocity=36, time=1),\n",
       "    Message('note_on', channel=0, note=83, velocity=53, time=107),\n",
       "    Message('note_on', channel=0, note=83, velocity=53, time=0),\n",
       "    Message('note_on', channel=0, note=81, velocity=0, time=14),\n",
       "    Message('note_on', channel=0, note=81, velocity=0, time=0),\n",
       "    Message('note_on', channel=0, note=85, velocity=68, time=96),\n",
       "    Message('note_on', channel=0, note=85, velocity=68, time=1),\n",
       "    Message('note_on', channel=0, note=52, velocity=38, time=14),\n",
       "    Message('note_on', channel=0, note=52, velocity=38, time=0),\n",
       "    Message('note_on', channel=0, note=45, velocity=0, time=3),\n",
       "    Message('note_on', channel=0, note=45, velocity=0, time=0),\n",
       "    Message('note_on', channel=0, note=83, velocity=0, time=21),\n",
       "    Message('note_on', channel=0, note=83, velocity=0, time=0),\n",
       "    Message('note_on', channel=0, note=86, velocity=53, time=62),\n",
       "    Message('note_on', channel=0, note=86, velocity=53, time=0),\n",
       "    Message('note_on', channel=0, note=85, velocity=0, time=87),\n",
       "    Message('note_on', channel=0, note=85, velocity=0, time=0),\n",
       "    Message('note_on', channel=0, note=88, velocity=40, time=42),\n",
       "    Message('note_on', channel=0, note=88, velocity=40, time=1),\n",
       "    Message('note_on', channel=0, note=86, velocity=0, time=11),\n",
       "    Message('note_on', channel=0, note=86, velocity=0, time=0),\n",
       "    Message('note_on', channel=0, note=57, velocity=53, time=6),\n",
       "    Message('note_on', channel=0, note=57, velocity=53, time=0),\n",
       "    Message('note_on', channel=0, note=52, velocity=0, time=16),\n",
       "    Message('note_on', channel=0, note=52, velocity=0, time=0),\n",
       "    Message('note_on', channel=0, note=57, velocity=0, time=82),\n",
       "    Message('note_on', channel=0, note=57, velocity=0, time=0),\n",
       "    Message('note_on', channel=0, note=85, velocity=53, time=34),\n",
       "    Message('note_on', channel=0, note=85, velocity=53, time=1),\n",
       "    Message('note_on', channel=0, note=88, velocity=0, time=13),\n",
       "    Message('note_on', channel=0, note=88, velocity=0, time=1),\n",
       "    Message('note_on', channel=0, note=83, velocity=55, time=87),\n",
       "    Message('note_on', channel=0, note=83, velocity=55, time=1),\n",
       "    Message('note_on', channel=0, note=85, velocity=0, time=21),\n",
       "    Message('note_on', channel=0, note=85, velocity=0, time=0),\n",
       "    Message('note_on', channel=0, note=81, velocity=44, time=90),\n",
       "    Message('note_on', channel=0, note=81, velocity=44, time=0),\n",
       "    Message('note_on', channel=0, note=83, velocity=0, time=14),\n",
       "    Message('note_on', channel=0, note=83, velocity=0, time=0),\n",
       "    Message('control_change', channel=0, control=64, value=20, time=96),\n",
       "    Message('control_change', channel=0, control=64, value=20, time=1),\n",
       "    Message('control_change', channel=0, control=64, value=0, time=6),\n",
       "    Message('control_change', channel=0, control=64, value=0, time=0),\n",
       "    Message('note_on', channel=0, note=80, velocity=70, time=21),\n",
       "    Message('note_on', channel=0, note=80, velocity=70, time=1),\n",
       "    Message('note_on', channel=0, note=52, velocity=34, time=8),\n",
       "    Message('note_on', channel=0, note=52, velocity=34, time=0),\n",
       "    Message('note_on', channel=0, note=81, velocity=0, time=26),\n",
       "    Message('note_on', channel=0, note=81, velocity=0, time=0),\n",
       "    Message('control_change', channel=0, control=64, value=16, time=2),\n",
       "    Message('control_change', channel=0, control=64, value=16, time=0),\n",
       "    Message('control_change', channel=0, control=64, value=112, time=13),\n",
       "    Message('control_change', channel=0, control=64, value=112, time=0),\n",
       "    Message('control_change', channel=0, control=64, value=127, time=11),\n",
       "    Message('control_change', channel=0, control=64, value=127, time=0),\n",
       "    Message('note_on', channel=0, note=80, velocity=0, time=87),\n",
       "    Message('note_on', channel=0, note=80, velocity=0, time=0),\n",
       "    Message('note_on', channel=0, note=59, velocity=44, time=85),\n",
       "    Message('note_on', channel=0, note=59, velocity=44, time=0),\n",
       "    Message('note_on', channel=0, note=52, velocity=0, time=21),\n",
       "    Message('note_on', channel=0, note=52, velocity=0, time=0),\n",
       "    Message('note_on', channel=0, note=64, velocity=48, time=233),\n",
       "    Message('note_on', channel=0, note=64, velocity=48, time=1),\n",
       "    Message('note_on', channel=0, note=59, velocity=0, time=36),\n",
       "    Message('note_on', channel=0, note=59, velocity=0, time=0),\n",
       "    Message('note_on', channel=0, note=79, velocity=48, time=51),\n",
       "    Message('note_on', channel=0, note=79, velocity=48, time=1),\n",
       "    Message('note_on', channel=0, note=79, velocity=0, time=20),\n",
       "    Message('note_on', channel=0, note=79, velocity=0, time=0),\n",
       "    Message('note_on', channel=0, note=64, velocity=0, time=16),\n",
       "    Message('note_on', channel=0, note=64, velocity=0, time=0),\n",
       "    Message('note_on', channel=0, note=81, velocity=48, time=46),\n",
       "    Message('note_on', channel=0, note=81, velocity=48, time=0),\n",
       "    Message('note_on', channel=0, note=81, velocity=0, time=43),\n",
       "    Message('note_on', channel=0, note=81, velocity=0, time=0),\n",
       "    Message('note_on', channel=0, note=83, velocity=34, time=29),\n",
       "    Message('note_on', channel=0, note=83, velocity=34, time=0),\n",
       "    Message('note_on', channel=0, note=83, velocity=0, time=92),\n",
       "    Message('note_on', channel=0, note=83, velocity=0, time=0),\n",
       "    Message('note_on', channel=0, note=80, velocity=70, time=39),\n",
       "    Message('note_on', channel=0, note=80, velocity=70, time=0),\n",
       "    Message('control_change', channel=0, control=64, value=112, time=92),\n",
       "    Message('control_change', channel=0, control=64, value=112, time=0),\n",
       "    Message('control_change', channel=0, control=64, value=78, time=6),\n",
       "    Message('control_change', channel=0, control=64, value=78, time=0),\n",
       "    Message('control_change', channel=0, control=64, value=48, time=7),\n",
       "    Message('control_change', channel=0, control=64, value=48, time=0),\n",
       "    Message('control_change', channel=0, control=64, value=10, time=8),\n",
       "    Message('control_change', channel=0, control=64, value=10, time=0),\n",
       "    Message('control_change', channel=0, control=64, value=4, time=4),\n",
       "    Message('control_change', channel=0, control=64, value=4, time=1),\n",
       "    Message('note_on', channel=0, note=81, velocity=57, time=1),\n",
       "    Message('note_on', channel=0, note=81, velocity=57, time=0),\n",
       "    Message('control_change', channel=0, control=64, value=8, time=8),\n",
       "    Message('control_change', channel=0, control=64, value=8, time=0),\n",
       "    Message('note_on', channel=0, note=54, velocity=52, time=1),\n",
       "    Message('note_on', channel=0, note=54, velocity=52, time=1),\n",
       "    Message('note_on', channel=0, note=80, velocity=0, time=2),\n",
       "    Message('note_on', channel=0, note=80, velocity=0, time=0),\n",
       "    Message('control_change', channel=0, control=64, value=18, time=1),\n",
       "    Message('control_change', channel=0, control=64, value=18, time=0),\n",
       "    Message('control_change', channel=0, control=64, value=34, time=3),\n",
       "    Message('control_change', channel=0, control=64, value=34, time=0),\n",
       "    Message('control_change', channel=0, control=64, value=52, time=6),\n",
       "    Message('control_change', channel=0, control=64, value=52, time=0),\n",
       "    Message('control_change', channel=0, control=64, value=70, time=6),\n",
       "    Message('control_change', channel=0, control=64, value=70, time=0),\n",
       "    Message('control_change', channel=0, control=64, value=92, time=5),\n",
       "    Message('control_change', channel=0, control=64, value=92, time=0),\n",
       "    Message('control_change', channel=0, control=64, value=116, time=3),\n",
       "    Message('control_change', channel=0, control=64, value=116, time=0),\n",
       "    Message('control_change', channel=0, control=64, value=127, time=5),\n",
       "    Message('control_change', channel=0, control=64, value=127, time=0),\n",
       "    Message('note_on', channel=0, note=81, velocity=0, time=49),\n",
       "    Message('note_on', channel=0, note=81, velocity=0, time=0),\n",
       "    Message('note_on', channel=0, note=69, velocity=66, time=6),\n",
       "    Message('note_on', channel=0, note=69, velocity=66, time=0),\n",
       "    Message('note_on', channel=0, note=54, velocity=0, time=3),\n",
       "    Message('note_on', channel=0, note=54, velocity=0, time=0),\n",
       "    Message('note_on', channel=0, note=76, velocity=62, time=94),\n",
       "    Message('note_on', channel=0, note=76, velocity=62, time=1),\n",
       "    Message('note_on', channel=0, note=69, velocity=0, time=3),\n",
       "    Message('note_on', channel=0, note=69, velocity=0, time=0),\n",
       "    Message('note_on', channel=0, note=61, velocity=36, time=14),\n",
       "    Message('note_on', channel=0, note=61, velocity=36, time=0),\n",
       "    Message('note_on', channel=0, note=69, velocity=36, time=99),\n",
       "    Message('note_on', channel=0, note=69, velocity=36, time=0),\n",
       "    Message('note_on', channel=0, note=61, velocity=0, time=32),\n",
       "    Message('note_on', channel=0, note=61, velocity=0, time=0),\n",
       "    Message('note_on', channel=0, note=76, velocity=0, time=8),\n",
       "    Message('note_on', channel=0, note=76, velocity=0, time=0),\n",
       "    Message('note_on', channel=0, note=66, velocity=41, time=101),\n",
       "    Message('note_on', channel=0, note=66, velocity=41, time=0),\n",
       "    Message('note_on', channel=0, note=69, velocity=0, time=1),\n",
       "    Message('note_on', channel=0, note=69, velocity=0, time=0),\n",
       "    Message('note_on', channel=0, note=81, velocity=66, time=1),\n",
       "    Message('note_on', channel=0, note=81, velocity=66, time=1),\n",
       "    Message('note_on', channel=0, note=81, velocity=0, time=50),\n",
       "    Message('note_on', channel=0, note=81, velocity=0, time=0),\n",
       "    Message('note_on', channel=0, note=66, velocity=0, time=16),\n",
       "    Message('note_on', channel=0, note=66, velocity=0, time=0),\n",
       "    Message('note_on', channel=0, note=81, velocity=53, time=32),\n",
       "    Message('note_on', channel=0, note=81, velocity=53, time=0),\n",
       "    Message('note_on', channel=0, note=83, velocity=62, time=46),\n",
       "    Message('note_on', channel=0, note=83, velocity=62, time=1),\n",
       "    Message('note_on', channel=0, note=81, velocity=0, time=8),\n",
       "    Message('note_on', channel=0, note=81, velocity=0, time=0),\n",
       "    Message('note_on', channel=0, note=81, velocity=51, time=77),\n",
       "    Message('note_on', channel=0, note=81, velocity=51, time=0),\n",
       "    Message('note_on', channel=0, note=83, velocity=0, time=24),\n",
       "    Message('note_on', channel=0, note=83, velocity=0, time=0),\n",
       "    Message('note_on', channel=0, note=80, velocity=53, time=102),\n",
       "    Message('note_on', channel=0, note=80, velocity=53, time=1),\n",
       "    Message('note_on', channel=0, note=81, velocity=0, time=6),\n",
       "    Message('note_on', channel=0, note=81, velocity=0, time=0),\n",
       "    Message('note_on', channel=0, note=81, velocity=46, time=106),\n",
       "    Message('note_on', channel=0, note=81, velocity=46, time=1),\n",
       "    Message('note_on', channel=0, note=50, velocity=40, time=13),\n",
       "    Message('note_on', channel=0, note=50, velocity=40, time=1),\n",
       "    Message('note_on', channel=0, note=80, velocity=0, time=3),\n",
       "    Message('note_on', channel=0, note=80, velocity=0, time=0),\n",
       "    Message('note_on', channel=0, note=69, velocity=48, time=100),\n",
       "    Message('note_on', channel=0, note=69, velocity=48, time=0),\n",
       "    Message('note_on', channel=0, note=81, velocity=0, time=3),\n",
       "    Message('note_on', channel=0, note=81, velocity=0, time=0),\n",
       "    Message('note_on', channel=0, note=50, velocity=0, time=89),\n",
       "    Message('note_on', channel=0, note=50, velocity=0, time=1),\n",
       "    Message('note_on', channel=0, note=76, velocity=48, time=8),\n",
       "    Message('note_on', channel=0, note=76, velocity=48, time=0),\n",
       "    Message('note_on', channel=0, note=69, velocity=0, time=4),\n",
       "    Message('note_on', channel=0, note=69, velocity=0, time=0),\n",
       "    Message('note_on', channel=0, note=57, velocity=35, time=23),\n",
       "    Message('note_on', channel=0, note=57, velocity=35, time=1),\n",
       "    Message('note_on', channel=0, note=69, velocity=42, time=73),\n",
       "    Message('note_on', channel=0, note=69, velocity=42, time=0),\n",
       "    Message('note_on', channel=0, note=76, velocity=0, time=70),\n",
       "    Message('note_on', channel=0, note=76, velocity=0, time=0),\n",
       "    Message('note_on', channel=0, note=69, velocity=0, time=74),\n",
       "    Message('note_on', channel=0, note=69, velocity=0, time=0),\n",
       "    Message('note_on', channel=0, note=81, velocity=64, time=6),\n",
       "    Message('note_on', channel=0, note=81, velocity=64, time=0),\n",
       "    Message('note_on', channel=0, note=62, velocity=36, time=10),\n",
       "    Message('note_on', channel=0, note=62, velocity=36, time=1),\n",
       "    Message('note_on', channel=0, note=57, velocity=0, time=23),\n",
       "    Message('note_on', channel=0, note=57, velocity=0, time=0),\n",
       "    Message('note_on', channel=0, note=81, velocity=0, time=83),\n",
       "    Message('note_on', channel=0, note=81, velocity=0, time=0),\n",
       "    Message('note_on', channel=0, note=83, velocity=48, time=2),\n",
       "    Message('note_on', channel=0, note=83, velocity=48, time=0),\n",
       "    Message('note_on', channel=0, note=62, velocity=0, time=4),\n",
       "    Message('note_on', channel=0, note=62, velocity=0, time=0),\n",
       "    Message('note_on', channel=0, note=81, velocity=42, time=113),\n",
       "    Message('note_on', channel=0, note=81, velocity=42, time=0),\n",
       "    Message('note_on', channel=0, note=83, velocity=0, time=4),\n",
       "    Message('note_on', channel=0, note=83, velocity=0, time=0),\n",
       "    Message('note_on', channel=0, note=80, velocity=60, time=126),\n",
       "    Message('note_on', channel=0, note=80, velocity=60, time=0),\n",
       "    Message('note_on', channel=0, note=81, velocity=0, time=16),\n",
       "    Message('note_on', channel=0, note=81, velocity=0, time=0),\n",
       "    Message('note_on', channel=0, note=80, velocity=0, time=87),\n",
       "    Message('note_on', channel=0, note=80, velocity=0, time=1),\n",
       "    Message('note_on', channel=0, note=81, velocity=46, time=26),\n",
       "    Message('note_on', channel=0, note=81, velocity=46, time=1),\n",
       "    Message('note_on', channel=0, note=45, velocity=46, time=3),\n",
       "    Message('note_on', channel=0, note=45, velocity=46, time=0),\n",
       "    Message('note_on', channel=0, note=83, velocity=55, time=117),\n",
       "    Message('note_on', channel=0, note=83, velocity=55, time=0),\n",
       "    Message('note_on', channel=0, note=81, velocity=0, time=14),\n",
       "    Message('note_on', channel=0, note=81, velocity=0, time=0),\n",
       "    Message('note_on', channel=0, note=45, velocity=0, time=52),\n",
       "    Message('note_on', channel=0, note=45, velocity=0, time=0),\n",
       "    Message('note_on', channel=0, note=85, velocity=63, time=52),\n",
       "    Message('note_on', channel=0, note=85, velocity=63, time=1),\n",
       "    Message('note_on', channel=0, note=52, velocity=35, time=3),\n",
       "    Message('note_on', channel=0, note=52, velocity=35, time=0),\n",
       "    Message('note_on', channel=0, note=83, velocity=0, time=37),\n",
       "    Message('note_on', channel=0, note=83, velocity=0, time=0),\n",
       "    Message('note_on', channel=0, note=86, velocity=64, time=99),\n",
       "    Message('note_on', channel=0, note=86, velocity=64, time=0),\n",
       "    Message('note_on', channel=0, note=85, velocity=0, time=76),\n",
       "    Message('note_on', channel=0, note=85, velocity=0, time=0),\n",
       "    Message('note_on', channel=0, note=57, velocity=44, time=32),\n",
       "    Message('note_on', channel=0, note=57, velocity=44, time=0),\n",
       "    Message('note_on', channel=0, note=88, velocity=56, time=3),\n",
       "    Message('note_on', channel=0, note=88, velocity=56, time=0),\n",
       "    Message('note_on', channel=0, note=52, velocity=0, time=9),\n",
       "    Message('note_on', channel=0, note=52, velocity=0, time=0),\n",
       "    Message('note_on', channel=0, note=86, velocity=0, time=0),\n",
       "    Message('note_on', channel=0, note=86, velocity=0, time=0),\n",
       "    Message('note_on', channel=0, note=57, velocity=0, time=82),\n",
       "    Message('note_on', channel=0, note=57, velocity=0, time=0),\n",
       "    Message('note_on', channel=0, note=85, velocity=53, time=44),\n",
       "    Message('note_on', channel=0, note=85, velocity=53, time=0),\n",
       "    Message('note_on', channel=0, note=88, velocity=0, time=14),\n",
       "    Message('note_on', channel=0, note=88, velocity=0, time=0),\n",
       "    Message('note_on', channel=0, note=83, velocity=59, time=99),\n",
       "    Message('note_on', channel=0, note=83, velocity=59, time=1),\n",
       "    Message('note_on', channel=0, note=85, velocity=0, time=11),\n",
       "    Message('note_on', channel=0, note=85, velocity=0, time=0),\n",
       "    Message('note_on', channel=0, note=81, velocity=64, time=95),\n",
       "    Message('note_on', channel=0, note=81, velocity=64, time=0),\n",
       "    Message('note_on', channel=0, note=83, velocity=0, time=11),\n",
       "    Message('note_on', channel=0, note=83, velocity=0, time=0),\n",
       "    Message('control_change', channel=0, control=64, value=94, time=80),\n",
       "    Message('control_change', channel=0, control=64, value=94, time=0),\n",
       "    Message('control_change', channel=0, control=64, value=32, time=14),\n",
       "    Message('control_change', channel=0, control=64, value=32, time=1),\n",
       "    Message('control_change', channel=0, control=64, value=10, time=3),\n",
       "    Message('control_change', channel=0, control=64, value=10, time=0),\n",
       "    Message('control_change', channel=0, control=64, value=0, time=3),\n",
       "    Message('control_change', channel=0, control=64, value=0, time=1),\n",
       "    Message('note_on', channel=0, note=52, velocity=36, time=21),\n",
       "    Message('note_on', channel=0, note=52, velocity=36, time=1),\n",
       "    Message('note_on', channel=0, note=80, velocity=65, time=2),\n",
       "    Message('note_on', channel=0, note=80, velocity=65, time=0),\n",
       "    Message('control_change', channel=0, control=64, value=6, time=4),\n",
       "    Message('control_change', channel=0, control=64, value=6, time=0),\n",
       "    Message('control_change', channel=0, control=64, value=66, time=14),\n",
       "    Message('control_change', channel=0, control=64, value=66, time=0),\n",
       "    Message('control_change', channel=0, control=64, value=90, time=5),\n",
       "    Message('control_change', channel=0, control=64, value=90, time=1),\n",
       "    Message('control_change', channel=0, control=64, value=112, time=2),\n",
       "    Message('control_change', channel=0, control=64, value=112, time=0),\n",
       "    Message('control_change', channel=0, control=64, value=127, time=6),\n",
       "    Message('control_change', channel=0, control=64, value=127, time=0),\n",
       "    Message('note_on', channel=0, note=81, velocity=0, time=7),\n",
       "    Message('note_on', channel=0, note=81, velocity=0, time=0),\n",
       "    Message('note_on', channel=0, note=80, velocity=0, time=164),\n",
       "    Message('note_on', channel=0, note=80, velocity=0, time=0),\n",
       "    Message('note_on', channel=0, note=59, velocity=34, time=39),\n",
       "    Message('note_on', channel=0, note=59, velocity=34, time=0),\n",
       "    Message('note_on', channel=0, note=52, velocity=0, time=16),\n",
       "    Message('note_on', channel=0, note=52, velocity=0, time=0),\n",
       "    Message('note_on', channel=0, note=64, velocity=42, time=234),\n",
       "    Message('note_on', channel=0, note=64, velocity=42, time=0),\n",
       "    Message('note_on', channel=0, note=59, velocity=0, time=44),\n",
       "    Message('note_on', channel=0, note=59, velocity=0, time=0),\n",
       "    Message('note_on', channel=0, note=81, velocity=55, time=135),\n",
       "    Message('note_on', channel=0, note=81, velocity=55, time=0),\n",
       "    Message('note_on', channel=0, note=64, velocity=0, time=26),\n",
       "    Message('note_on', channel=0, note=64, velocity=0, time=1),\n",
       "    Message('note_on', channel=0, note=81, velocity=0, time=50),\n",
       "    Message('note_on', channel=0, note=81, velocity=0, time=0),\n",
       "    Message('note_on', channel=0, note=83, velocity=48, time=23),\n",
       "    Message('note_on', channel=0, note=83, velocity=48, time=1),\n",
       "    Message('note_on', channel=0, note=83, velocity=0, time=91),\n",
       "    Message('note_on', channel=0, note=83, velocity=0, time=1),\n",
       "    Message('control_change', channel=0, control=64, value=116, time=92),\n",
       "    Message('control_change', channel=0, control=64, value=116, time=0),\n",
       "    Message('control_change', channel=0, control=64, value=90, time=6),\n",
       "    Message('control_change', channel=0, control=64, value=90, time=0),\n",
       "    Message('control_change', channel=0, control=64, value=65, time=3),\n",
       "    Message('control_change', channel=0, control=64, value=65, time=0),\n",
       "    Message('control_change', channel=0, control=64, value=48, time=6),\n",
       "    Message('control_change', channel=0, control=64, value=48, time=1),\n",
       "    Message('control_change', channel=0, control=64, value=38, time=3),\n",
       "    Message('control_change', channel=0, control=64, value=38, time=0),\n",
       "    Message('control_change', channel=0, control=64, value=34, time=5),\n",
       "    Message('control_change', channel=0, control=64, value=34, time=0),\n",
       "    Message('control_change', channel=0, control=64, value=38, time=3),\n",
       "    Message('control_change', channel=0, control=64, value=38, time=0),\n",
       "    Message('control_change', channel=0, control=64, value=44, time=5),\n",
       "    Message('control_change', channel=0, control=64, value=44, time=1),\n",
       "    Message('control_change', channel=0, control=64, value=56, time=5),\n",
       "    Message('control_change', channel=0, control=64, value=56, time=0),\n",
       "    Message('control_change', channel=0, control=64, value=70, time=5),\n",
       "    Message('control_change', channel=0, control=64, value=70, time=0),\n",
       "    Message('note_on', channel=0, note=54, velocity=27, time=3),\n",
       "    Message('note_on', channel=0, note=54, velocity=27, time=1),\n",
       "    Message('control_change', channel=0, control=64, value=90, time=1),\n",
       "    Message('control_change', channel=0, control=64, value=90, time=1),\n",
       "    Message('note_on', channel=0, note=81, velocity=34, time=2),\n",
       "    Message('note_on', channel=0, note=81, velocity=34, time=0),\n",
       "    Message('control_change', channel=0, control=64, value=112, time=1),\n",
       "    Message('control_change', channel=0, control=64, value=112, time=0),\n",
       "    Message('control_change', channel=0, control=64, value=127, time=5),\n",
       "    Message('control_change', channel=0, control=64, value=127, time=0),\n",
       "    Message('note_on', channel=0, note=81, velocity=0, time=29),\n",
       "    Message('note_on', channel=0, note=81, velocity=0, time=0),\n",
       "    Message('note_on', channel=0, note=54, velocity=0, time=92),\n",
       "    Message('note_on', channel=0, note=54, velocity=0, time=0),\n",
       "    Message('note_on', channel=0, note=69, velocity=8, time=46),\n",
       "    Message('note_on', channel=0, note=69, velocity=8, time=0),\n",
       "    Message('note_on', channel=0, note=61, velocity=34, time=21),\n",
       "    Message('note_on', channel=0, note=61, velocity=34, time=1),\n",
       "    Message('note_on', channel=0, note=69, velocity=0, time=18),\n",
       "    Message('note_on', channel=0, note=69, velocity=0, time=0),\n",
       "    Message('note_on', channel=0, note=81, velocity=42, time=16),\n",
       "    Message('note_on', channel=0, note=81, velocity=42, time=1),\n",
       "    Message('note_on', channel=0, note=81, velocity=0, time=75),\n",
       "    Message('note_on', channel=0, note=81, velocity=0, time=1),\n",
       "    Message('note_on', channel=0, note=69, velocity=59, time=13),\n",
       "    Message('note_on', channel=0, note=69, velocity=59, time=0),\n",
       "    Message('note_on', channel=0, note=61, velocity=0, time=3),\n",
       "    Message('note_on', channel=0, note=61, velocity=0, time=1),\n",
       "    Message('note_on', channel=0, note=69, velocity=0, time=65),\n",
       "    Message('note_on', channel=0, note=69, velocity=0, time=0),\n",
       "    Message('note_on', channel=0, note=66, velocity=48, time=34),\n",
       "    Message('note_on', channel=0, note=66, velocity=48, time=1),\n",
       "    Message('note_on', channel=0, note=81, velocity=59, time=5),\n",
       "    Message('note_on', channel=0, note=81, velocity=59, time=1),\n",
       "    Message('note_on', channel=0, note=81, velocity=0, time=26),\n",
       "    Message('note_on', channel=0, note=81, velocity=0, time=0),\n",
       "    Message('note_on', channel=0, note=66, velocity=0, time=25),\n",
       "    Message('note_on', channel=0, note=66, velocity=0, time=0),\n",
       "    Message('note_on', channel=0, note=81, velocity=42, time=32),\n",
       "    Message('note_on', channel=0, note=81, velocity=42, time=0),\n",
       "    Message('note_on', channel=0, note=83, velocity=64, time=36),\n",
       "    Message('note_on', channel=0, note=83, velocity=64, time=1),\n",
       "    Message('note_on', channel=0, note=81, velocity=0, time=13),\n",
       "    Message('note_on', channel=0, note=81, velocity=0, time=0),\n",
       "    Message('note_on', channel=0, note=81, velocity=62, time=74),\n",
       "    Message('note_on', channel=0, note=81, velocity=62, time=0),\n",
       "    Message('note_on', channel=0, note=83, velocity=0, time=18),\n",
       "    Message('note_on', channel=0, note=83, velocity=0, time=0),\n",
       "    Message('note_on', channel=0, note=80, velocity=51, time=89),\n",
       "    Message('note_on', channel=0, note=80, velocity=51, time=1),\n",
       "    Message('note_on', channel=0, note=81, velocity=0, time=3),\n",
       "    Message('note_on', channel=0, note=81, velocity=0, time=0),\n",
       "    Message('note_on', channel=0, note=81, velocity=26, time=125),\n",
       "    Message('note_on', channel=0, note=81, velocity=26, time=0),\n",
       "    Message('note_on', channel=0, note=50, velocity=44, time=11),\n",
       "    Message('note_on', channel=0, note=50, velocity=44, time=1),\n",
       "    Message('note_on', channel=0, note=80, velocity=0, time=5),\n",
       "    Message('note_on', channel=0, note=80, velocity=0, time=0),\n",
       "    Message('note_on', channel=0, note=81, velocity=0, time=118),\n",
       "    Message('note_on', channel=0, note=81, velocity=0, time=0),\n",
       "    Message('note_on', channel=0, note=69, velocity=53, time=5),\n",
       "    Message('note_on', channel=0, note=69, velocity=53, time=1),\n",
       "    Message('note_on', channel=0, note=50, velocity=0, time=77),\n",
       "    Message('note_on', channel=0, note=50, velocity=0, time=0),\n",
       "    Message('note_on', channel=0, note=57, velocity=40, time=16),\n",
       "    Message('note_on', channel=0, note=57, velocity=40, time=1),\n",
       "    Message('note_on', channel=0, note=76, velocity=66, time=3),\n",
       "    Message('note_on', channel=0, note=76, velocity=66, time=1),\n",
       "    Message('note_on', channel=0, note=69, velocity=0, time=3),\n",
       "    Message('note_on', channel=0, note=69, velocity=0, time=1),\n",
       "    Message('note_on', channel=0, note=69, velocity=53, time=122),\n",
       "    Message('note_on', channel=0, note=69, velocity=53, time=1),\n",
       "    Message('note_on', channel=0, note=76, velocity=0, time=28),\n",
       "    Message('note_on', channel=0, note=76, velocity=0, time=1),\n",
       "    Message('note_on', channel=0, note=62, velocity=31, time=77),\n",
       "    Message('note_on', channel=0, note=62, velocity=31, time=1),\n",
       "    Message('note_on', channel=0, note=81, velocity=53, time=5),\n",
       "    Message('note_on', channel=0, note=81, velocity=53, time=1),\n",
       "    Message('note_on', channel=0, note=69, velocity=0, time=3),\n",
       "    Message('note_on', channel=0, note=69, velocity=0, time=0),\n",
       "    Message('note_on', channel=0, note=81, velocity=0, time=43),\n",
       "    Message('note_on', channel=0, note=81, velocity=0, time=0),\n",
       "    Message('note_on', channel=0, note=57, velocity=0, time=1),\n",
       "    Message('note_on', channel=0, note=57, velocity=0, time=0),\n",
       "    Message('note_on', channel=0, note=62, velocity=0, time=34),\n",
       "    Message('note_on', channel=0, note=62, velocity=0, time=0),\n",
       "    Message('note_on', channel=0, note=81, velocity=51, time=24),\n",
       "    Message('note_on', channel=0, note=81, velocity=51, time=0),\n",
       "    Message('note_on', channel=0, note=83, velocity=68, time=55),\n",
       "    Message('note_on', channel=0, note=83, velocity=68, time=0),\n",
       "    Message('note_on', channel=0, note=81, velocity=0, time=14),\n",
       "    Message('note_on', channel=0, note=81, velocity=0, time=1),\n",
       "    Message('note_on', channel=0, note=81, velocity=51, time=67),\n",
       "    Message('note_on', channel=0, note=81, velocity=51, time=0),\n",
       "    Message('note_on', channel=0, note=83, velocity=0, time=29),\n",
       "    Message('note_on', channel=0, note=83, velocity=0, time=0),\n",
       "    Message('note_on', channel=0, note=80, velocity=51, time=93),\n",
       "    Message('note_on', channel=0, note=80, velocity=51, time=0),\n",
       "    Message('note_on', channel=0, note=81, velocity=0, time=19),\n",
       "    Message('note_on', channel=0, note=81, velocity=0, time=0),\n",
       "    Message('note_on', channel=0, note=80, velocity=0, time=92),\n",
       "    Message('note_on', channel=0, note=80, velocity=0, time=0),\n",
       "    Message('note_on', channel=0, note=81, velocity=59, time=18),\n",
       "    Message('note_on', channel=0, note=81, velocity=59, time=1),\n",
       "    Message('note_on', channel=0, note=45, velocity=32, time=16),\n",
       "    Message('note_on', channel=0, note=45, velocity=32, time=1),\n",
       "    Message('note_on', channel=0, note=83, velocity=48, time=113),\n",
       "    Message('note_on', channel=0, note=83, velocity=48, time=1),\n",
       "    Message('note_on', channel=0, note=81, velocity=0, time=8),\n",
       "    Message('note_on', channel=0, note=81, velocity=0, time=0),\n",
       "    Message('note_on', channel=0, note=45, velocity=0, time=87),\n",
       "    Message('note_on', channel=0, note=45, velocity=0, time=0),\n",
       "    Message('note_on', channel=0, note=52, velocity=38, time=14),\n",
       "    Message('note_on', channel=0, note=52, velocity=38, time=1),\n",
       "    Message('note_on', channel=0, note=85, velocity=60, time=1),\n",
       "    Message('note_on', channel=0, note=85, velocity=60, time=0),\n",
       "    Message('note_on', channel=0, note=83, velocity=0, time=45),\n",
       "    Message('note_on', channel=0, note=83, velocity=0, time=0),\n",
       "    Message('note_on', channel=0, note=86, velocity=57, time=62),\n",
       "    Message('note_on', channel=0, note=86, velocity=57, time=0),\n",
       "    Message('note_on', channel=0, note=85, velocity=0, time=104),\n",
       "    Message('note_on', channel=0, note=85, velocity=0, time=0),\n",
       "    Message('note_on', channel=0, note=57, velocity=42, time=16),\n",
       "    Message('note_on', channel=0, note=57, velocity=42, time=0),\n",
       "    Message('note_on', channel=0, note=52, velocity=0, time=11),\n",
       "    Message('note_on', channel=0, note=52, velocity=0, time=0),\n",
       "    Message('note_on', channel=0, note=88, velocity=51, time=3),\n",
       "    Message('note_on', channel=0, note=88, velocity=51, time=1),\n",
       "    Message('note_on', channel=0, note=86, velocity=0, time=15),\n",
       "    Message('note_on', channel=0, note=86, velocity=0, time=1),\n",
       "    Message('note_on', channel=0, note=57, velocity=0, time=77),\n",
       "    Message('note_on', channel=0, note=57, velocity=0, time=0),\n",
       "    Message('note_on', channel=0, note=85, velocity=41, time=22),\n",
       "    Message('note_on', channel=0, note=85, velocity=41, time=0),\n",
       "    Message('note_on', channel=0, note=88, velocity=0, time=14),\n",
       "    Message('note_on', channel=0, note=88, velocity=0, time=0),\n",
       "    Message('note_on', channel=0, note=83, velocity=57, time=104),\n",
       "    Message('note_on', channel=0, note=83, velocity=57, time=0),\n",
       "    Message('note_on', channel=0, note=85, velocity=0, time=14),\n",
       "    Message('note_on', channel=0, note=85, velocity=0, time=0),\n",
       "    Message('note_on', channel=0, note=81, velocity=48, time=107),\n",
       "    Message('note_on', channel=0, note=81, velocity=48, time=0),\n",
       "    Message('note_on', channel=0, note=83, velocity=0, time=10),\n",
       "    Message('note_on', channel=0, note=83, velocity=0, time=0),\n",
       "    Message('control_change', channel=0, control=64, value=126, time=50),\n",
       "    Message('control_change', channel=0, control=64, value=126, time=0),\n",
       "    Message('control_change', channel=0, control=64, value=108, time=6),\n",
       "    Message('control_change', channel=0, control=64, value=108, time=0),\n",
       "    Message('control_change', channel=0, control=64, value=92, time=6),\n",
       "    Message('control_change', channel=0, control=64, value=92, time=0),\n",
       "    Message('control_change', channel=0, control=64, value=78, time=3),\n",
       "    Message('control_change', channel=0, control=64, value=78, time=0),\n",
       "    Message('control_change', channel=0, control=64, value=68, time=6),\n",
       "    Message('control_change', channel=0, control=64, value=68, time=0),\n",
       "    Message('control_change', channel=0, control=64, value=62, time=6),\n",
       "    Message('control_change', channel=0, control=64, value=62, time=1),\n",
       "    Message('control_change', channel=0, control=64, value=56, time=3),\n",
       "    Message('control_change', channel=0, control=64, value=56, time=0),\n",
       "    Message('control_change', channel=0, control=64, value=58, time=9),\n",
       "    Message('control_change', channel=0, control=64, value=58, time=0),\n",
       "    Message('control_change', channel=0, control=64, value=64, time=5),\n",
       "    Message('control_change', channel=0, control=64, value=64, time=0),\n",
       "    Message('note_on', channel=0, note=52, velocity=35, time=1),\n",
       "    Message('note_on', channel=0, note=52, velocity=35, time=1),\n",
       "    Message('note_on', channel=0, note=80, velocity=53, time=2),\n",
       "    Message('note_on', channel=0, note=80, velocity=53, time=0),\n",
       "    Message('control_change', channel=0, control=64, value=74, time=2),\n",
       "    Message('control_change', channel=0, control=64, value=74, time=0),\n",
       "    Message('control_change', channel=0, control=64, value=88, time=3),\n",
       "    Message('control_change', channel=0, control=64, value=88, time=0),\n",
       "    Message('control_change', channel=0, control=64, value=106, time=5),\n",
       "    Message('control_change', channel=0, control=64, value=106, time=1),\n",
       "    Message('control_change', channel=0, control=64, value=124, time=2),\n",
       "    Message('control_change', channel=0, control=64, value=124, time=0),\n",
       "    Message('control_change', channel=0, control=64, value=127, time=7),\n",
       "    Message('control_change', channel=0, control=64, value=127, time=0),\n",
       "    Message('note_on', channel=0, note=81, velocity=0, time=25),\n",
       "    Message('note_on', channel=0, note=81, velocity=0, time=0),\n",
       "    Message('note_on', channel=0, note=80, velocity=0, time=223),\n",
       "    Message('note_on', channel=0, note=80, velocity=0, time=1),\n",
       "    Message('note_on', channel=0, note=59, velocity=28, time=11),\n",
       "    Message('note_on', channel=0, note=59, velocity=28, time=1),\n",
       "    Message('note_on', channel=0, note=52, velocity=0, time=16),\n",
       "    Message('note_on', channel=0, note=52, velocity=0, time=0),\n",
       "    Message('note_on', channel=0, note=80, velocity=5, time=39),\n",
       "    Message('note_on', channel=0, note=80, velocity=5, time=0),\n",
       "    Message('note_on', channel=0, note=64, velocity=36, time=191),\n",
       "    Message('note_on', channel=0, note=64, velocity=36, time=1),\n",
       "    Message('note_on', channel=0, note=59, velocity=0, time=34),\n",
       "    Message('note_on', channel=0, note=59, velocity=0, time=0),\n",
       "    Message('note_on', channel=0, note=80, velocity=0, time=28),\n",
       "    Message('note_on', channel=0, note=80, velocity=0, time=0),\n",
       "    Message('note_on', channel=0, note=59, velocity=25, time=166),\n",
       "    Message('note_on', channel=0, note=59, velocity=25, time=0),\n",
       "    Message('note_on', channel=0, note=64, velocity=0, time=41),\n",
       "    Message('note_on', channel=0, note=64, velocity=0, time=0),\n",
       "    Message('note_on', channel=0, note=59, velocity=0, time=990),\n",
       "    Message('note_on', channel=0, note=59, velocity=0, time=0),\n",
       "    Message('control_change', channel=0, control=64, value=126, time=2048),\n",
       "    Message('control_change', channel=0, control=64, value=126, time=0),\n",
       "    Message('control_change', channel=0, control=64, value=106, time=5),\n",
       "    Message('control_change', channel=0, control=64, value=106, time=0),\n",
       "    Message('control_change', channel=0, control=64, value=80, time=6),\n",
       "    Message('control_change', channel=0, control=64, value=80, time=0),\n",
       "    Message('control_change', channel=0, control=64, value=58, time=4),\n",
       "    Message('control_change', channel=0, control=64, value=58, time=0),\n",
       "    Message('control_change', channel=0, control=64, value=14, time=9),\n",
       "    Message('control_change', channel=0, control=64, value=14, time=0),\n",
       "    Message('control_change', channel=0, control=64, value=1, time=5),\n",
       "    Message('control_change', channel=0, control=64, value=1, time=0),\n",
       "    Message('control_change', channel=0, control=64, value=0, time=6),\n",
       "    Message('control_change', channel=0, control=64, value=0, time=0),\n",
       "    Message('note_on', channel=0, note=74, velocity=66, time=3),\n",
       "    Message('note_on', channel=0, note=74, velocity=66, time=1),\n",
       "    Message('control_change', channel=0, control=64, value=1, time=5),\n",
       "    Message('control_change', channel=0, control=64, value=1, time=1),\n",
       "    Message('control_change', channel=0, control=64, value=6, time=3),\n",
       "    Message('control_change', channel=0, control=64, value=6, time=0),\n",
       "    Message('control_change', channel=0, control=64, value=16, time=5),\n",
       "    Message('control_change', channel=0, control=64, value=16, time=1),\n",
       "    Message('control_change', channel=0, control=64, value=28, time=4),\n",
       "    Message('control_change', channel=0, control=64, value=28, time=0),\n",
       "    Message('control_change', channel=0, control=64, value=46, time=4),\n",
       "    Message('control_change', channel=0, control=64, value=46, time=0),\n",
       "    Message('control_change', channel=0, control=64, value=64, time=5),\n",
       "    Message('control_change', channel=0, control=64, value=64, time=0),\n",
       "    Message('control_change', channel=0, control=64, value=80, time=5),\n",
       "    Message('control_change', channel=0, control=64, value=80, time=0),\n",
       "    Message('control_change', channel=0, control=64, value=98, time=6),\n",
       "    Message('control_change', channel=0, control=64, value=98, time=0),\n",
       "    Message('control_change', channel=0, control=64, value=120, time=3),\n",
       "    Message('control_change', channel=0, control=64, value=120, time=0),\n",
       "    Message('control_change', channel=0, control=64, value=127, time=6),\n",
       "    Message('control_change', channel=0, control=64, value=127, time=0),\n",
       "    Message('note_on', channel=0, note=74, velocity=0, time=297),\n",
       "    Message('note_on', channel=0, note=74, velocity=0, time=0),\n",
       "    Message('control_change', channel=0, control=64, value=116, time=536),\n",
       "    Message('control_change', channel=0, control=64, value=116, time=0),\n",
       "    Message('control_change', channel=0, control=64, value=98, time=3),\n",
       "    Message('control_change', channel=0, control=64, value=98, time=0),\n",
       "    Message('control_change', channel=0, control=64, value=86, time=5),\n",
       "    Message('control_change', channel=0, control=64, value=86, time=0),\n",
       "    Message('control_change', channel=0, control=64, value=74, time=6),\n",
       "    Message('control_change', channel=0, control=64, value=74, time=0),\n",
       "    Message('control_change', channel=0, control=64, value=70, time=4),\n",
       "    Message('control_change', channel=0, control=64, value=70, time=0),\n",
       "    Message('control_change', channel=0, control=64, value=68, time=4),\n",
       "    Message('control_change', channel=0, control=64, value=68, time=0),\n",
       "    Message('control_change', channel=0, control=64, value=72, time=10),\n",
       "    Message('control_change', channel=0, control=64, value=72, time=0),\n",
       "    Message('control_change', channel=0, control=64, value=78, time=5),\n",
       "    Message('control_change', channel=0, control=64, value=78, time=0),\n",
       "    Message('control_change', channel=0, control=64, value=88, time=6),\n",
       "    Message('control_change', channel=0, control=64, value=88, time=0),\n",
       "    Message('control_change', channel=0, control=64, value=100, time=3),\n",
       "    Message('control_change', channel=0, control=64, value=100, time=1),\n",
       "    Message('control_change', channel=0, control=64, value=116, time=5),\n",
       "    Message('control_change', channel=0, control=64, value=116, time=0),\n",
       "    Message('control_change', channel=0, control=64, value=127, time=6),\n",
       "    Message('control_change', channel=0, control=64, value=127, time=0),\n",
       "    Message('note_on', channel=0, note=45, velocity=36, time=5),\n",
       "    Message('note_on', channel=0, note=45, velocity=36, time=1),\n",
       "    Message('note_on', channel=0, note=74, velocity=59, time=8),\n",
       "    Message('note_on', channel=0, note=74, velocity=59, time=0),\n",
       "    Message('note_on', channel=0, note=45, velocity=0, time=211),\n",
       "    Message('note_on', channel=0, note=45, velocity=0, time=1),\n",
       "    Message('note_on', channel=0, note=74, velocity=0, time=20),\n",
       "    Message('note_on', channel=0, note=74, velocity=0, time=0),\n",
       "    Message('note_on', channel=0, note=52, velocity=32, time=13),\n",
       "    Message('note_on', channel=0, note=52, velocity=32, time=0),\n",
       "    Message('note_on', channel=0, note=57, velocity=30, time=218),\n",
       "    Message('note_on', channel=0, note=57, velocity=30, time=0),\n",
       "    Message('note_on', channel=0, note=52, velocity=0, time=11),\n",
       "    Message('note_on', channel=0, note=52, velocity=0, time=0),\n",
       "    Message('note_on', channel=0, note=65, velocity=40, time=123),\n",
       "    Message('note_on', channel=0, note=65, velocity=40, time=1),\n",
       "    Message('note_on', channel=0, note=57, velocity=0, time=20),\n",
       "    Message('note_on', channel=0, note=57, velocity=0, time=1),\n",
       "    Message('note_on', channel=0, note=65, velocity=0, time=68),\n",
       "    Message('note_on', channel=0, note=65, velocity=0, time=0),\n",
       "    Message('note_on', channel=0, note=69, velocity=51, time=1),\n",
       "    Message('note_on', channel=0, note=69, velocity=51, time=0),\n",
       "    Message('note_on', channel=0, note=69, velocity=0, time=124),\n",
       "    Message('note_on', channel=0, note=69, velocity=0, time=0),\n",
       "    Message('control_change', channel=0, control=64, value=124, time=28),\n",
       "    Message('control_change', channel=0, control=64, value=124, time=0),\n",
       "    Message('control_change', channel=0, control=64, value=106, time=5),\n",
       "    Message('control_change', channel=0, control=64, value=106, time=0),\n",
       "    Message('control_change', channel=0, control=64, value=92, time=6),\n",
       "    Message('control_change', channel=0, control=64, value=92, time=0),\n",
       "    Message('control_change', channel=0, control=64, value=80, time=3),\n",
       "    Message('control_change', channel=0, control=64, value=80, time=0),\n",
       "    Message('control_change', channel=0, control=64, value=72, time=5),\n",
       "    Message('control_change', channel=0, control=64, value=72, time=0),\n",
       "    Message('control_change', channel=0, control=64, value=66, time=6),\n",
       "    Message('control_change', channel=0, control=64, value=66, time=0),\n",
       "    Message('control_change', channel=0, control=64, value=65, time=5),\n",
       "    Message('control_change', channel=0, control=64, value=65, time=0),\n",
       "    Message('control_change', channel=0, control=64, value=68, time=13),\n",
       "    Message('control_change', channel=0, control=64, value=68, time=0),\n",
       "    Message('control_change', channel=0, control=64, value=74, time=5),\n",
       "    Message('control_change', channel=0, control=64, value=74, time=1),\n",
       "    Message('control_change', channel=0, control=64, value=84, time=4),\n",
       "    Message('control_change', channel=0, control=64, value=84, time=0),\n",
       "    Message('control_change', channel=0, control=64, value=96, time=6),\n",
       "    Message('control_change', channel=0, control=64, value=96, time=0),\n",
       "    Message('control_change', channel=0, control=64, value=110, time=3),\n",
       "    Message('control_change', channel=0, control=64, value=110, time=0),\n",
       "    Message('control_change', channel=0, control=64, value=124, time=6),\n",
       "    Message('control_change', channel=0, control=64, value=124, time=0),\n",
       "    Message('control_change', channel=0, control=64, value=127, time=5),\n",
       "    Message('control_change', channel=0, control=64, value=127, time=1),\n",
       "    Message('note_on', channel=0, note=75, velocity=58, time=30),\n",
       "    Message('note_on', channel=0, note=75, velocity=58, time=1),\n",
       "    Message('note_on', channel=0, note=52, velocity=31, time=3),\n",
       "    Message('note_on', channel=0, note=52, velocity=31, time=1),\n",
       "    Message('note_on', channel=0, note=75, velocity=0, time=78),\n",
       "    Message('note_on', channel=0, note=75, velocity=0, time=0),\n",
       "    Message('note_on', channel=0, note=74, velocity=44, time=65),\n",
       "    Message('note_on', channel=0, note=74, velocity=44, time=0),\n",
       "    Message('note_on', channel=0, note=59, velocity=42, time=139),\n",
       "    Message('note_on', channel=0, note=59, velocity=42, time=1),\n",
       "    Message('note_on', channel=0, note=52, velocity=0, time=16),\n",
       "    Message('note_on', channel=0, note=52, velocity=0, time=0),\n",
       "    Message('note_on', channel=0, note=64, velocity=42, time=187),\n",
       "    Message('note_on', channel=0, note=64, velocity=42, time=1),\n",
       "    Message('note_on', channel=0, note=74, velocity=0, time=36),\n",
       "    Message('note_on', channel=0, note=74, velocity=0, time=0),\n",
       "    Message('note_on', channel=0, note=59, velocity=0, time=1),\n",
       "    Message('note_on', channel=0, note=59, velocity=0, time=0),\n",
       "    Message('note_on', channel=0, note=64, velocity=0, time=166),\n",
       "    Message('note_on', channel=0, note=64, velocity=0, time=0),\n",
       "    Message('note_on', channel=0, note=73, velocity=68, time=29),\n",
       "    Message('note_on', channel=0, note=73, velocity=68, time=0),\n",
       "    Message('note_on', channel=0, note=74, velocity=48, time=115),\n",
       "    Message('note_on', channel=0, note=74, velocity=48, time=1),\n",
       "    Message('note_on', channel=0, note=73, velocity=0, time=29),\n",
       "    Message('note_on', channel=0, note=73, velocity=0, time=0),\n",
       "    Message('control_change', channel=0, control=64, value=116, time=57),\n",
       "    Message('control_change', channel=0, control=64, value=116, time=0),\n",
       "    Message('control_change', channel=0, control=64, value=100, time=6),\n",
       "    Message('control_change', channel=0, control=64, value=100, time=0),\n",
       "    Message('control_change', channel=0, control=64, value=90, time=2),\n",
       "    Message('control_change', channel=0, control=64, value=90, time=1),\n",
       "    Message('control_change', channel=0, control=64, value=80, time=5),\n",
       "    Message('control_change', channel=0, control=64, value=80, time=0),\n",
       "    Message('control_change', channel=0, control=64, value=74, time=6),\n",
       "    Message('control_change', channel=0, control=64, value=74, time=0),\n",
       "    Message('control_change', channel=0, control=64, value=72, time=3),\n",
       "    Message('control_change', channel=0, control=64, value=72, time=0),\n",
       "    Message('control_change', channel=0, control=64, value=76, time=15),\n",
       "    Message('control_change', channel=0, control=64, value=76, time=1),\n",
       "    Message('control_change', channel=0, control=64, value=84, time=5),\n",
       "    Message('control_change', channel=0, control=64, value=84, time=0),\n",
       "    Message('note_on', channel=0, note=76, velocity=64, time=3),\n",
       "    Message('note_on', channel=0, note=76, velocity=64, time=1),\n",
       "    Message('control_change', channel=0, control=64, value=92, time=0),\n",
       "    Message('control_change', channel=0, control=64, value=92, time=0),\n",
       "    Message('control_change', channel=0, control=64, value=106, time=6),\n",
       "    Message('control_change', channel=0, control=64, value=106, time=0),\n",
       "    Message('note_on', channel=0, note=54, velocity=36, time=0),\n",
       "    Message('note_on', channel=0, note=54, velocity=36, time=1),\n",
       "    Message('control_change', channel=0, control=64, value=122, time=2),\n",
       "    Message('control_change', channel=0, control=64, value=122, time=0),\n",
       "    Message('control_change', channel=0, control=64, value=127, time=5),\n",
       "    Message('control_change', channel=0, control=64, value=127, time=0),\n",
       "    Message('note_on', channel=0, note=74, velocity=0, time=6),\n",
       "    Message('note_on', channel=0, note=74, velocity=0, time=0),\n",
       "    Message('note_on', channel=0, note=54, velocity=0, time=120),\n",
       "    Message('note_on', channel=0, note=54, velocity=0, time=0),\n",
       "    Message('note_on', channel=0, note=61, velocity=32, time=82),\n",
       "    Message('note_on', channel=0, note=61, velocity=32, time=1),\n",
       "    Message('note_on', channel=0, note=61, velocity=0, time=121),\n",
       "    Message('note_on', channel=0, note=61, velocity=0, time=0),\n",
       "    Message('note_on', channel=0, note=76, velocity=0, time=130),\n",
       "    Message('note_on', channel=0, note=76, velocity=0, time=0),\n",
       "    Message('note_on', channel=0, note=83, velocity=62, time=2140),\n",
       "    Message('note_on', channel=0, note=83, velocity=62, time=0),\n",
       "    Message('note_on', channel=0, note=83, velocity=0, time=207),\n",
       "    Message('note_on', channel=0, note=83, velocity=0, time=0),\n",
       "    Message('note_on', channel=0, note=81, velocity=68, time=16),\n",
       "    Message('note_on', channel=0, note=81, velocity=68, time=0),\n",
       "    Message('note_on', channel=0, note=81, velocity=0, time=204),\n",
       "    Message('note_on', channel=0, note=81, velocity=0, time=0),\n",
       "    Message('note_on', channel=0, note=80, velocity=27, time=14),\n",
       "    Message('note_on', channel=0, note=80, velocity=27, time=0),\n",
       "    Message('note_on', channel=0, note=80, velocity=0, time=45),\n",
       "    Message('note_on', channel=0, note=80, velocity=0, time=0),\n",
       "    Message('note_on', channel=0, note=67, velocity=35, time=1387),\n",
       "    Message('note_on', channel=0, note=67, velocity=35, time=1),\n",
       "    Message('note_on', channel=0, note=65, velocity=51, time=3),\n",
       "    Message('note_on', channel=0, note=65, velocity=51, time=0),\n",
       "    Message('note_on', channel=0, note=67, velocity=0, time=22),\n",
       "    Message('note_on', channel=0, note=67, velocity=0, time=0),\n",
       "    Message('note_on', channel=0, note=65, velocity=0, time=26),\n",
       "    Message('note_on', channel=0, note=65, velocity=0, time=0),\n",
       "    Message('note_on', channel=0, note=64, velocity=12, time=84),\n",
       "    Message('note_on', channel=0, note=64, velocity=12, time=1),\n",
       "    Message('note_on', channel=0, note=64, velocity=0, time=26),\n",
       "    Message('note_on', channel=0, note=64, velocity=0, time=0),\n",
       "    Message('note_on', channel=0, note=69, velocity=28, time=14),\n",
       "    Message('note_on', channel=0, note=69, velocity=28, time=0),\n",
       "    Message('note_on', channel=0, note=69, velocity=0, time=106),\n",
       "    Message('note_on', channel=0, note=69, velocity=0, time=0),\n",
       "    Message('note_on', channel=0, note=54, velocity=26, time=85),\n",
       "    Message('note_on', channel=0, note=54, velocity=26, time=1),\n",
       "    Message('note_on', channel=0, note=74, velocity=26, time=11),\n",
       "    Message('note_on', channel=0, note=74, velocity=26, time=1),\n",
       "    Message('note_on', channel=0, note=54, velocity=0, time=21),\n",
       "    Message('note_on', channel=0, note=54, velocity=0, time=0),\n",
       "    Message('note_on', channel=0, note=74, velocity=0, time=142),\n",
       "    Message('note_on', channel=0, note=74, velocity=0, time=0),\n",
       "    Message('note_on', channel=0, note=73, velocity=63, time=499),\n",
       "    Message('note_on', channel=0, note=73, velocity=63, time=0),\n",
       "    Message('note_on', channel=0, note=74, velocity=53, time=104),\n",
       "    Message('note_on', channel=0, note=74, velocity=53, time=1),\n",
       "    Message('note_on', channel=0, note=73, velocity=0, time=29),\n",
       "    Message('note_on', channel=0, note=73, velocity=0, time=0),\n",
       "    Message('control_change', channel=0, control=64, value=62, time=67),\n",
       "    Message('control_change', channel=0, control=64, value=62, time=1),\n",
       "    Message('control_change', channel=0, control=64, value=18, time=2),\n",
       "    Message('control_change', channel=0, control=64, value=18, time=1),\n",
       "    Message('control_change', channel=0, control=64, value=0, time=3),\n",
       "    Message('control_change', channel=0, control=64, value=0, time=0),\n",
       "    Message('note_on', channel=0, note=76, velocity=62, time=40),\n",
       "    Message('note_on', channel=0, note=76, velocity=62, time=0),\n",
       "    Message('control_change', channel=0, control=64, value=1, time=4),\n",
       "    Message('control_change', channel=0, control=64, value=1, time=0),\n",
       "    Message('control_change', channel=0, control=64, value=22, time=5),\n",
       "    Message('control_change', channel=0, control=64, value=22, time=0),\n",
       "    Message('note_on', channel=0, note=50, velocity=42, time=6),\n",
       "    Message('note_on', channel=0, note=50, velocity=42, time=1),\n",
       "    Message('control_change', channel=0, control=64, value=68, time=3),\n",
       "    Message('control_change', channel=0, control=64, value=68, time=0),\n",
       "    Message('control_change', channel=0, control=64, value=90, time=4),\n",
       "    Message('control_change', channel=0, control=64, value=90, time=0),\n",
       "    Message('note_on', channel=0, note=74, velocity=0, time=2),\n",
       "    Message('note_on', channel=0, note=74, velocity=0, time=0),\n",
       "    Message('control_change', channel=0, control=64, value=110, time=3),\n",
       "    Message('control_change', channel=0, control=64, value=110, time=0),\n",
       "    Message('control_change', channel=0, control=64, value=127, time=5),\n",
       "    Message('control_change', channel=0, control=64, value=127, time=0),\n",
       "    Message('note_on', channel=0, note=50, velocity=0, time=169),\n",
       "    Message('note_on', channel=0, note=50, velocity=0, time=0),\n",
       "    Message('note_on', channel=0, note=57, velocity=38, time=15),\n",
       "    Message('note_on', channel=0, note=57, velocity=38, time=1),\n",
       "    Message('note_on', channel=0, note=62, velocity=46, time=223),\n",
       "    Message('note_on', channel=0, note=62, velocity=46, time=1),\n",
       "    Message('note_on', channel=0, note=57, velocity=0, time=10),\n",
       "    Message('note_on', channel=0, note=57, velocity=0, time=0),\n",
       "    Message('note_on', channel=0, note=73, velocity=63, time=8),\n",
       "    Message('note_on', channel=0, note=73, velocity=63, time=1),\n",
       "    Message('note_on', channel=0, note=76, velocity=0, time=15),\n",
       "    Message('note_on', channel=0, note=76, velocity=0, time=0),\n",
       "    Message('note_on', channel=0, note=62, velocity=0, time=54),\n",
       "    Message('note_on', channel=0, note=62, velocity=0, time=0),\n",
       "    Message('note_on', channel=0, note=73, velocity=0, time=116),\n",
       "    Message('note_on', channel=0, note=73, velocity=0, time=0),\n",
       "    Message('note_on', channel=0, note=74, velocity=53, time=28),\n",
       "    Message('note_on', channel=0, note=74, velocity=53, time=1),\n",
       "    Message('note_on', channel=0, note=73, velocity=63, time=135),\n",
       "    Message('note_on', channel=0, note=73, velocity=63, time=1),\n",
       "    Message('note_on', channel=0, note=74, velocity=0, time=14),\n",
       "    Message('note_on', channel=0, note=74, velocity=0, time=0),\n",
       "    Message('control_change', channel=0, control=64, value=120, time=68),\n",
       "    Message('control_change', channel=0, control=64, value=120, time=1),\n",
       "    Message('control_change', channel=0, control=64, value=112, time=5),\n",
       "    Message('control_change', channel=0, control=64, value=112, time=0),\n",
       "    Message('control_change', channel=0, control=64, value=110, time=4),\n",
       "    Message('control_change', channel=0, control=64, value=110, time=1),\n",
       "    Message('control_change', channel=0, control=64, value=108, time=6),\n",
       "    Message('control_change', channel=0, control=64, value=108, time=0),\n",
       "    Message('note_on', channel=0, note=57, velocity=44, time=17),\n",
       "    Message('note_on', channel=0, note=57, velocity=44, time=1),\n",
       "    Message('control_change', channel=0, control=64, value=112, time=0),\n",
       "    Message('control_change', channel=0, control=64, value=112, time=1),\n",
       "    Message('note_on', channel=0, note=71, velocity=70, time=2),\n",
       "    Message('note_on', channel=0, note=71, velocity=70, time=1),\n",
       "    Message('control_change', channel=0, control=64, value=118, time=1),\n",
       "    Message('control_change', channel=0, control=64, value=118, time=0),\n",
       "    Message('control_change', channel=0, control=64, value=124, time=4),\n",
       "    Message('control_change', channel=0, control=64, value=124, time=1),\n",
       "    Message('control_change', channel=0, control=64, value=127, time=5),\n",
       "    Message('control_change', channel=0, control=64, value=127, time=0),\n",
       "    Message('note_on', channel=0, note=73, velocity=0, time=3),\n",
       "    Message('note_on', channel=0, note=73, velocity=0, time=0),\n",
       "    Message('note_on', channel=0, note=71, velocity=0, time=207),\n",
       "    Message('note_on', channel=0, note=71, velocity=0, time=1),\n",
       "    Message('note_on', channel=0, note=64, velocity=36, time=0),\n",
       "    Message('note_on', channel=0, note=64, velocity=36, time=1),\n",
       "    Message('note_on', channel=0, note=57, velocity=0, time=2),\n",
       "    Message('note_on', channel=0, note=57, velocity=0, time=0),\n",
       "    Message('note_on', channel=0, note=69, velocity=44, time=247),\n",
       "    Message('note_on', channel=0, note=69, velocity=44, time=0),\n",
       "    Message('note_on', channel=0, note=64, velocity=0, time=23),\n",
       "    Message('note_on', channel=0, note=64, velocity=0, time=0),\n",
       "    Message('note_on', channel=0, note=69, velocity=0, time=50),\n",
       "    Message('note_on', channel=0, note=69, velocity=0, time=0),\n",
       "    Message('note_on', channel=0, note=69, velocity=51, time=166),\n",
       "    Message('note_on', channel=0, note=69, velocity=51, time=1),\n",
       "    Message('note_on', channel=0, note=73, velocity=48, time=125),\n",
       "    Message('note_on', channel=0, note=73, velocity=48, time=1),\n",
       "    Message('note_on', channel=0, note=69, velocity=0, time=26),\n",
       "    Message('note_on', channel=0, note=69, velocity=0, time=0),\n",
       "    Message('control_change', channel=0, control=64, value=124, time=37),\n",
       "    Message('control_change', channel=0, control=64, value=124, time=0),\n",
       "    Message('control_change', channel=0, control=64, value=110, time=4),\n",
       "    Message('control_change', channel=0, control=64, value=110, time=0),\n",
       "    Message('control_change', channel=0, control=64, value=104, time=4),\n",
       "    Message('control_change', channel=0, control=64, value=104, time=0),\n",
       "    Message('control_change', channel=0, control=64, value=100, time=6),\n",
       "    Message('control_change', channel=0, control=64, value=100, time=0),\n",
       "    Message('control_change', channel=0, control=64, value=104, time=11),\n",
       "    Message('control_change', channel=0, control=64, value=104, time=0),\n",
       "    Message('control_change', channel=0, control=64, value=108, time=3),\n",
       "    Message('control_change', channel=0, control=64, value=108, time=0),\n",
       "    Message('control_change', channel=0, control=64, value=114, time=5),\n",
       "    Message('control_change', channel=0, control=64, value=114, time=0),\n",
       "    Message('control_change', channel=0, control=64, value=122, time=6),\n",
       "    Message('control_change', channel=0, control=64, value=122, time=0),\n",
       "    Message('control_change', channel=0, control=64, value=127, time=3),\n",
       "    Message('control_change', channel=0, control=64, value=127, time=0),\n",
       "    Message('note_on', channel=0, note=54, velocity=32, time=11),\n",
       "    Message('note_on', channel=0, note=54, velocity=32, time=1),\n",
       "    Message('note_on', channel=0, note=81, velocity=64, time=3),\n",
       "    Message('note_on', channel=0, note=81, velocity=64, time=1),\n",
       "    Message('note_on', channel=0, note=73, velocity=0, time=3),\n",
       "    Message('note_on', channel=0, note=73, velocity=0, time=0),\n",
       "    Message('note_on', channel=0, note=54, velocity=0, time=133),\n",
       "    Message('note_on', channel=0, note=54, velocity=0, time=0),\n",
       "    Message('note_on', channel=0, note=81, velocity=0, time=87),\n",
       "    Message('note_on', channel=0, note=81, velocity=0, time=0),\n",
       "    Message('note_on', channel=0, note=61, velocity=31, time=8),\n",
       "    Message('note_on', channel=0, note=61, velocity=31, time=0),\n",
       "    Message('note_on', channel=0, note=80, velocity=56, time=6),\n",
       "    Message('note_on', channel=0, note=80, velocity=56, time=1),\n",
       "    Message('note_on', channel=0, note=81, velocity=59, time=129),\n",
       "    Message('note_on', channel=0, note=81, velocity=59, time=0),\n",
       "    Message('note_on', channel=0, note=61, velocity=0, time=11),\n",
       "    Message('note_on', channel=0, note=61, velocity=0, time=0),\n",
       "    Message('note_on', channel=0, note=80, velocity=0, time=21),\n",
       "    Message('note_on', channel=0, note=80, velocity=0, time=0),\n",
       "    Message('note_on', channel=0, note=66, velocity=51, time=70),\n",
       "    Message('note_on', channel=0, note=66, velocity=51, time=0),\n",
       "    Message('note_on', channel=0, note=66, velocity=0, time=72),\n",
       "    Message('note_on', channel=0, note=66, velocity=0, time=0),\n",
       "    Message('note_on', channel=0, note=81, velocity=0, time=31),\n",
       "    Message('note_on', channel=0, note=81, velocity=0, time=0),\n",
       "    Message('note_on', channel=0, note=69, velocity=42, time=13),\n",
       "    Message('note_on', channel=0, note=69, velocity=42, time=1),\n",
       "    Message('note_on', channel=0, note=80, velocity=41, time=134),\n",
       "    Message('note_on', channel=0, note=80, velocity=41, time=0),\n",
       "    Message('note_on', channel=0, note=69, velocity=0, time=61),\n",
       "    Message('note_on', channel=0, note=69, velocity=0, time=0),\n",
       "    Message('note_on', channel=0, note=81, velocity=55, time=75),\n",
       "    Message('note_on', channel=0, note=81, velocity=55, time=0),\n",
       "    Message('note_on', channel=0, note=80, velocity=0, time=23),\n",
       "    Message('note_on', channel=0, note=80, velocity=0, time=0),\n",
       "    Message('control_change', channel=0, control=64, value=112, time=58),\n",
       "    Message('control_change', channel=0, control=64, value=112, time=1),\n",
       "    Message('control_change', channel=0, control=64, value=92, time=5),\n",
       "    Message('control_change', channel=0, control=64, value=92, time=0),\n",
       "    Message('control_change', channel=0, control=64, value=74, time=3),\n",
       "    Message('control_change', channel=0, control=64, value=74, time=0),\n",
       "    Message('control_change', channel=0, control=64, value=58, time=9),\n",
       "    Message('control_change', channel=0, control=64, value=58, time=1),\n",
       "    Message('note_on', channel=0, note=50, velocity=42, time=3),\n",
       "    Message('note_on', channel=0, note=50, velocity=42, time=1),\n",
       "    Message('control_change', channel=0, control=64, value=44, time=0),\n",
       "    Message('control_change', channel=0, control=64, value=44, time=0),\n",
       "    Message('control_change', channel=0, control=64, value=30, time=3),\n",
       "    Message('control_change', channel=0, control=64, value=30, time=0),\n",
       "    Message('control_change', channel=0, control=64, value=24, time=4),\n",
       "    Message('control_change', channel=0, control=64, value=24, time=0),\n",
       "    Message('control_change', channel=0, control=64, value=18, time=5),\n",
       "    Message('control_change', channel=0, control=64, value=18, time=0),\n",
       "    Message('control_change', channel=0, control=64, value=20, time=9),\n",
       "    Message('control_change', channel=0, control=64, value=20, time=0),\n",
       "    Message('control_change', channel=0, control=64, value=26, time=4),\n",
       "    Message('control_change', channel=0, control=64, value=26, time=0),\n",
       "    Message('control_change', channel=0, control=64, value=34, time=7),\n",
       "    Message('control_change', channel=0, control=64, value=34, time=0),\n",
       "    Message('control_change', channel=0, control=64, value=42, time=3),\n",
       "    Message('control_change', channel=0, control=64, value=42, time=0),\n",
       "    Message('control_change', channel=0, control=64, value=56, time=4),\n",
       "    Message('control_change', channel=0, control=64, value=56, time=0),\n",
       "    Message('control_change', channel=0, control=64, value=72, time=7),\n",
       "    Message('control_change', channel=0, control=64, value=72, time=0),\n",
       "    Message('control_change', channel=0, control=64, value=90, time=3),\n",
       "    Message('control_change', channel=0, control=64, value=90, time=0),\n",
       "    Message('control_change', channel=0, control=64, value=108, time=5),\n",
       "    Message('control_change', channel=0, control=64, value=108, time=1),\n",
       "    Message('control_change', channel=0, control=64, value=126, time=6),\n",
       "    Message('control_change', channel=0, control=64, value=126, time=0),\n",
       "    Message('control_change', channel=0, control=64, value=127, time=2),\n",
       "    Message('control_change', channel=0, control=64, value=127, time=1),\n",
       "    Message('note_on', channel=0, note=81, velocity=0, time=34),\n",
       "    Message('note_on', channel=0, note=81, velocity=0, time=0),\n",
       "    Message('note_on', channel=0, note=69, velocity=51, time=29),\n",
       "    Message('note_on', channel=0, note=69, velocity=51, time=0),\n",
       "    Message('note_on', channel=0, note=76, velocity=46, time=104),\n",
       "    Message('note_on', channel=0, note=76, velocity=46, time=1),\n",
       "    Message('note_on', channel=0, note=57, velocity=31, time=1),\n",
       "    Message('note_on', channel=0, note=57, velocity=31, time=0),\n",
       "    Message('note_on', channel=0, note=69, velocity=0, time=22),\n",
       "    Message('note_on', channel=0, note=69, velocity=0, time=0),\n",
       "    Message('note_on', channel=0, note=50, velocity=0, time=10),\n",
       "    Message('note_on', channel=0, note=50, velocity=0, time=0),\n",
       "    Message('note_on', channel=0, note=81, velocity=48, time=106),\n",
       "    Message('note_on', channel=0, note=81, velocity=48, time=0),\n",
       "    Message('note_on', channel=0, note=76, velocity=0, time=34),\n",
       "    Message('note_on', channel=0, note=76, velocity=0, time=0),\n",
       "    Message('note_on', channel=0, note=62, velocity=28, time=84),\n",
       "    Message('note_on', channel=0, note=62, velocity=28, time=1),\n",
       "    Message('note_on', channel=0, note=57, velocity=0, time=31),\n",
       "    Message('note_on', channel=0, note=57, velocity=0, time=0),\n",
       "    Message('note_on', channel=0, note=81, velocity=0, time=8),\n",
       "    Message('note_on', channel=0, note=81, velocity=0, time=0),\n",
       "    Message('note_on', channel=0, note=62, velocity=0, time=69),\n",
       "    Message('note_on', channel=0, note=62, velocity=0, time=0),\n",
       "    Message('note_on', channel=0, note=69, velocity=30, time=28),\n",
       "    Message('note_on', channel=0, note=69, velocity=30, time=0),\n",
       "    Message('note_on', channel=0, note=69, velocity=0, time=165),\n",
       "    Message('note_on', channel=0, note=69, velocity=0, time=0),\n",
       "    Message('control_change', channel=0, control=64, value=118, time=13),\n",
       "    Message('control_change', channel=0, control=64, value=118, time=1),\n",
       "    Message('control_change', channel=0, control=64, value=108, time=5),\n",
       "    Message('control_change', channel=0, control=64, value=108, time=0),\n",
       "    Message('control_change', channel=0, control=64, value=96, time=5),\n",
       "    Message('control_change', channel=0, control=64, value=96, time=1),\n",
       "    Message('control_change', channel=0, control=64, value=86, time=5),\n",
       "    Message('control_change', channel=0, control=64, value=86, time=0),\n",
       "    Message('control_change', channel=0, control=64, value=74, time=3),\n",
       "    Message('control_change', channel=0, control=64, value=74, time=0),\n",
       "    Message('control_change', channel=0, control=64, value=64, time=5),\n",
       "    Message('control_change', channel=0, control=64, value=64, time=1),\n",
       "    Message('control_change', channel=0, control=64, value=54, time=6),\n",
       "    Message('control_change', channel=0, control=64, value=54, time=0),\n",
       "    Message('control_change', channel=0, control=64, value=42, time=3),\n",
       "    Message('control_change', channel=0, control=64, value=42, time=0),\n",
       "    Message('control_change', channel=0, control=64, value=34, time=6),\n",
       "    Message('control_change', channel=0, control=64, value=34, time=0),\n",
       "    Message('control_change', channel=0, control=64, value=24, time=3),\n",
       "    Message('control_change', channel=0, control=64, value=24, time=0),\n",
       "    Message('control_change', channel=0, control=64, value=16, time=5),\n",
       "    Message('control_change', channel=0, control=64, value=16, time=1),\n",
       "    Message('control_change', channel=0, control=64, value=8, time=5),\n",
       "    Message('control_change', channel=0, control=64, value=8, time=0),\n",
       "    Message('control_change', channel=0, control=64, value=1, time=3),\n",
       "    Message('control_change', channel=0, control=64, value=1, time=0),\n",
       "    Message('control_change', channel=0, control=64, value=0, time=5),\n",
       "    Message('control_change', channel=0, control=64, value=0, time=0),\n",
       "    MetaMessage('end_of_track', time=0)])]]"
      ]
     },
     "execution_count": 59,
     "metadata": {},
     "output_type": "execute_result"
    }
   ],
   "source": [
    "new_midi_file.tracks"
   ]
  },
  {
   "cell_type": "code",
   "execution_count": 47,
   "id": "619c6a9e",
   "metadata": {},
   "outputs": [
    {
     "data": {
      "text/plain": [
       "MidiTrack([\n",
       "  MetaMessage('time_signature', numerator=4, denominator=4, clocks_per_click=24, notated_32nd_notes_per_beat=8, time=0),\n",
       "  MetaMessage('key_signature', key='A', time=0),\n",
       "  MetaMessage('set_tempo', tempo=923075, time=0),\n",
       "  MetaMessage('set_tempo', tempo=923074, time=1024),\n",
       "  MetaMessage('time_signature', numerator=3, denominator=4, clocks_per_click=24, notated_32nd_notes_per_beat=8, time=0),\n",
       "  MetaMessage('set_tempo', tempo=923073, time=768),\n",
       "  MetaMessage('time_signature', numerator=4, denominator=4, clocks_per_click=24, notated_32nd_notes_per_beat=8, time=0),\n",
       "  MetaMessage('set_tempo', tempo=923073, time=1024),\n",
       "  MetaMessage('time_signature', numerator=3, denominator=4, clocks_per_click=24, notated_32nd_notes_per_beat=8, time=0),\n",
       "  MetaMessage('set_tempo', tempo=923073, time=768),\n",
       "  MetaMessage('time_signature', numerator=4, denominator=4, clocks_per_click=24, notated_32nd_notes_per_beat=8, time=0),\n",
       "  MetaMessage('set_tempo', tempo=923073, time=15360),\n",
       "  MetaMessage('time_signature', numerator=5, denominator=4, clocks_per_click=24, notated_32nd_notes_per_beat=8, time=0),\n",
       "  MetaMessage('set_tempo', tempo=1384608, time=768),\n",
       "  MetaMessage('set_tempo', tempo=2076913, time=128),\n",
       "  MetaMessage('set_tempo', tempo=1384608, time=256),\n",
       "  MetaMessage('set_tempo', tempo=923073, time=128),\n",
       "  MetaMessage('time_signature', numerator=4, denominator=4, clocks_per_click=24, notated_32nd_notes_per_beat=8, time=0),\n",
       "  MetaMessage('set_tempo', tempo=1384608, time=23808),\n",
       "  MetaMessage('set_tempo', tempo=2076913, time=256),\n",
       "  MetaMessage('set_tempo', tempo=923073, time=256),\n",
       "  MetaMessage('set_tempo', tempo=1384608, time=256),\n",
       "  MetaMessage('end_of_track', time=1)])"
      ]
     },
     "execution_count": 47,
     "metadata": {},
     "output_type": "execute_result"
    }
   ],
   "source": [
    "mid3.tracks[0]"
   ]
  },
  {
   "cell_type": "code",
   "execution_count": 37,
   "id": "23a2f106",
   "metadata": {},
   "outputs": [
    {
     "name": "stdout",
     "output_type": "stream",
     "text": [
      "83894\n"
     ]
    }
   ],
   "source": [
    "cur_time = 0\n",
    "for msg in mid2.tracks[1]:\n",
    "    cur_time += msg.time\n",
    "print(cur_time)"
   ]
  },
  {
   "cell_type": "code",
   "execution_count": 38,
   "id": "9d8cb5ad",
   "metadata": {},
   "outputs": [
    {
     "name": "stdout",
     "output_type": "stream",
     "text": [
      "84000\n"
     ]
    }
   ],
   "source": [
    "cur_time = 0\n",
    "for msg in mid2.tracks[3]:\n",
    "    cur_time += msg.time\n",
    "print(cur_time)"
   ]
  },
  {
   "cell_type": "code",
   "execution_count": 12,
   "id": "f12dd78c",
   "metadata": {},
   "outputs": [
    {
     "name": "stdout",
     "output_type": "stream",
     "text": [
      "MidiTrack([\n",
      "  MetaMessage('time_signature', numerator=4, denominator=4, clocks_per_click=24, notated_32nd_notes_per_beat=8, time=0),\n",
      "  MetaMessage('key_signature', key='A', time=0),\n",
      "  MetaMessage('set_tempo', tempo=923075, time=0),\n",
      "  MetaMessage('set_tempo', tempo=923074, time=1024),\n",
      "  MetaMessage('time_signature', numerator=3, denominator=4, clocks_per_click=24, notated_32nd_notes_per_beat=8, time=0),\n",
      "  MetaMessage('set_tempo', tempo=923073, time=768),\n",
      "  MetaMessage('time_signature', numerator=4, denominator=4, clocks_per_click=24, notated_32nd_notes_per_beat=8, time=0),\n",
      "  MetaMessage('set_tempo', tempo=923073, time=1024),\n",
      "  MetaMessage('time_signature', numerator=3, denominator=4, clocks_per_click=24, notated_32nd_notes_per_beat=8, time=0),\n",
      "  MetaMessage('set_tempo', tempo=923073, time=768),\n",
      "  MetaMessage('time_signature', numerator=4, denominator=4, clocks_per_click=24, notated_32nd_notes_per_beat=8, time=0),\n",
      "  MetaMessage('set_tempo', tempo=923073, time=15360),\n",
      "  MetaMessage('time_signature', numerator=5, denominator=4, clocks_per_click=24, notated_32nd_notes_per_beat=8, time=0),\n",
      "  MetaMessage('set_tempo', tempo=1384608, time=768),\n",
      "  MetaMessage('set_tempo', tempo=2076913, time=128),\n",
      "  MetaMessage('set_tempo', tempo=1384608, time=256),\n",
      "  MetaMessage('set_tempo', tempo=923073, time=128),\n",
      "  MetaMessage('time_signature', numerator=4, denominator=4, clocks_per_click=24, notated_32nd_notes_per_beat=8, time=0),\n",
      "  MetaMessage('set_tempo', tempo=1384608, time=23808),\n",
      "  MetaMessage('set_tempo', tempo=2076913, time=256),\n",
      "  MetaMessage('set_tempo', tempo=923073, time=256),\n",
      "  MetaMessage('set_tempo', tempo=1384608, time=256),\n",
      "  MetaMessage('end_of_track', time=1)])\n",
      "MidiTrack([\n",
      "  Message('control_change', channel=0, control=0, value=0, time=0),\n",
      "  Message('control_change', channel=0, control=32, value=0, time=0),\n",
      "  Message('program_change', channel=0, program=0, time=0),\n",
      "  MetaMessage('track_name', name='Piano', time=0),\n",
      "  Message('note_on', channel=0, note=81, velocity=70, time=0),\n",
      "  Message('note_on', channel=0, note=54, velocity=72, time=0),\n",
      "  Message('note_on', channel=0, note=81, velocity=0, time=128),\n",
      "  Message('note_on', channel=0, note=54, velocity=0, time=0),\n",
      "  Message('note_on', channel=0, note=80, velocity=71, time=0),\n",
      "  Message('note_on', channel=0, note=61, velocity=88, time=0),\n",
      "  Message('note_on', channel=0, note=80, velocity=0, time=128),\n",
      "  Message('note_on', channel=0, note=61, velocity=0, time=0),\n",
      "  Message('note_on', channel=0, note=81, velocity=79, time=0),\n",
      "  Message('note_on', channel=0, note=66, velocity=90, time=0),\n",
      "  Message('note_on', channel=0, note=81, velocity=0, time=128),\n",
      "  Message('note_on', channel=0, note=80, velocity=68, time=0),\n",
      "  Message('note_on', channel=0, note=80, velocity=0, time=128),\n",
      "  Message('note_on', channel=0, note=66, velocity=0, time=0),\n",
      "  Message('note_on', channel=0, note=81, velocity=75, time=0),\n",
      "  Message('note_on', channel=0, note=50, velocity=65, time=0),\n",
      "  Message('note_on', channel=0, note=81, velocity=0, time=128),\n",
      "  Message('note_on', channel=0, note=50, velocity=0, time=0),\n",
      "  Message('note_on', channel=0, note=76, velocity=68, time=0),\n",
      "  Message('note_on', channel=0, note=57, velocity=82, time=0),\n",
      "  Message('note_on', channel=0, note=76, velocity=0, time=128),\n",
      "  Message('note_on', channel=0, note=57, velocity=0, time=0),\n",
      "  Message('note_on', channel=0, note=81, velocity=85, time=0),\n",
      "  Message('note_on', channel=0, note=64, velocity=91, time=0),\n",
      "  Message('note_on', channel=0, note=81, velocity=0, time=128),\n",
      "  Message('note_on', channel=0, note=74, velocity=65, time=0),\n",
      "  Message('note_on', channel=0, note=74, velocity=0, time=768),\n",
      "  Message('note_on', channel=0, note=69, velocity=66, time=0),\n",
      "  Message('note_on', channel=0, note=69, velocity=0, time=64),\n",
      "  Message('note_on', channel=0, note=73, velocity=79, time=0),\n",
      "  Message('note_on', channel=0, note=73, velocity=0, time=64),\n",
      "  Message('note_on', channel=0, note=64, velocity=0, time=0),\n",
      "  Message('note_on', channel=0, note=81, velocity=92, time=0),\n",
      "  Message('note_on', channel=0, note=54, velocity=65, time=0),\n",
      "  Message('note_on', channel=0, note=81, velocity=0, time=128),\n",
      "  Message('note_on', channel=0, note=54, velocity=0, time=0),\n",
      "  Message('note_on', channel=0, note=80, velocity=79, time=0),\n",
      "  Message('note_on', channel=0, note=61, velocity=91, time=0),\n",
      "  Message('note_on', channel=0, note=80, velocity=0, time=128),\n",
      "  Message('note_on', channel=0, note=61, velocity=0, time=0),\n",
      "  Message('note_on', channel=0, note=81, velocity=77, time=0),\n",
      "  Message('note_on', channel=0, note=66, velocity=86, time=0),\n",
      "  Message('note_on', channel=0, note=81, velocity=0, time=128),\n",
      "  Message('note_on', channel=0, note=80, velocity=73, time=0),\n",
      "  Message('note_on', channel=0, note=80, velocity=0, time=128),\n",
      "  Message('note_on', channel=0, note=66, velocity=0, time=0),\n",
      "  Message('note_on', channel=0, note=81, velocity=81, time=0),\n",
      "  Message('note_on', channel=0, note=50, velocity=71, time=0),\n",
      "  Message('note_on', channel=0, note=81, velocity=0, time=128),\n",
      "  Message('note_on', channel=0, note=50, velocity=0, time=0),\n",
      "  Message('note_on', channel=0, note=76, velocity=64, time=0),\n",
      "  Message('note_on', channel=0, note=57, velocity=85, time=0),\n",
      "  Message('note_on', channel=0, note=76, velocity=0, time=128),\n",
      "  Message('note_on', channel=0, note=57, velocity=0, time=0),\n",
      "  Message('note_on', channel=0, note=81, velocity=86, time=0),\n",
      "  Message('note_on', channel=0, note=64, velocity=90, time=0),\n",
      "  Message('note_on', channel=0, note=81, velocity=0, time=128),\n",
      "  Message('note_on', channel=0, note=74, velocity=61, time=0),\n",
      "  Message('note_on', channel=0, note=74, velocity=0, time=768),\n",
      "  Message('note_on', channel=0, note=69, velocity=68, time=0),\n",
      "  Message('note_on', channel=0, note=69, velocity=0, time=64),\n",
      "  Message('note_on', channel=0, note=73, velocity=82, time=0),\n",
      "  Message('note_on', channel=0, note=73, velocity=0, time=64),\n",
      "  Message('note_on', channel=0, note=64, velocity=0, time=0),\n",
      "  Message('note_on', channel=0, note=81, velocity=93, time=0),\n",
      "  Message('note_on', channel=0, note=54, velocity=68, time=0),\n",
      "  Message('note_on', channel=0, note=81, velocity=0, time=128),\n",
      "  Message('note_on', channel=0, note=54, velocity=0, time=0),\n",
      "  Message('note_on', channel=0, note=80, velocity=77, time=0),\n",
      "  Message('note_on', channel=0, note=61, velocity=87, time=0),\n",
      "  Message('note_on', channel=0, note=80, velocity=0, time=64),\n",
      "  Message('note_on', channel=0, note=81, velocity=85, time=0),\n",
      "  Message('note_on', channel=0, note=61, velocity=0, time=64),\n",
      "  Message('note_on', channel=0, note=66, velocity=87, time=0),\n",
      "  Message('note_on', channel=0, note=81, velocity=0, time=64),\n",
      "  Message('note_on', channel=0, note=69, velocity=58, time=0),\n",
      "  Message('note_on', channel=0, note=69, velocity=0, time=64),\n",
      "  Message('note_on', channel=0, note=80, velocity=88, time=0),\n",
      "  Message('note_on', channel=0, note=80, velocity=0, time=64),\n",
      "  Message('note_on', channel=0, note=81, velocity=86, time=0),\n",
      "  Message('note_on', channel=0, note=66, velocity=0, time=64),\n",
      "  Message('note_on', channel=0, note=50, velocity=66, time=0),\n",
      "  Message('note_on', channel=0, note=81, velocity=0, time=64),\n",
      "  Message('note_on', channel=0, note=69, velocity=56, time=0),\n",
      "  Message('note_on', channel=0, note=69, velocity=0, time=64),\n",
      "  Message('note_on', channel=0, note=50, velocity=0, time=0),\n",
      "  Message('note_on', channel=0, note=76, velocity=89, time=0),\n",
      "  Message('note_on', channel=0, note=57, velocity=83, time=0),\n",
      "  Message('note_on', channel=0, note=76, velocity=0, time=64),\n",
      "  Message('note_on', channel=0, note=81, velocity=89, time=0),\n",
      "  Message('note_on', channel=0, note=57, velocity=0, time=64),\n",
      "  Message('note_on', channel=0, note=64, velocity=93, time=0),\n",
      "  Message('note_on', channel=0, note=81, velocity=0, time=64),\n",
      "  Message('note_on', channel=0, note=69, velocity=58, time=0),\n",
      "  Message('note_on', channel=0, note=69, velocity=0, time=64),\n",
      "  Message('note_on', channel=0, note=64, velocity=0, time=0),\n",
      "  Message('note_on', channel=0, note=74, velocity=83, time=0),\n",
      "  Message('note_on', channel=0, note=50, velocity=75, time=0),\n",
      "  Message('note_on', channel=0, note=74, velocity=0, time=64),\n",
      "  Message('note_on', channel=0, note=69, velocity=71, time=0),\n",
      "  Message('note_on', channel=0, note=69, velocity=0, time=64),\n",
      "  Message('note_on', channel=0, note=50, velocity=0, time=0),\n",
      "  Message('note_on', channel=0, note=73, velocity=82, time=0),\n",
      "  Message('note_on', channel=0, note=45, velocity=68, time=0),\n",
      "  Message('note_on', channel=0, note=73, velocity=0, time=128),\n",
      "  Message('note_on', channel=0, note=45, velocity=0, time=0),\n",
      "  Message('note_on', channel=0, note=74, velocity=81, time=0),\n",
      "  Message('note_on', channel=0, note=52, velocity=85, time=0),\n",
      "  Message('note_on', channel=0, note=74, velocity=0, time=128),\n",
      "  Message('note_on', channel=0, note=52, velocity=0, time=0),\n",
      "  Message('note_on', channel=0, note=69, velocity=83, time=0),\n",
      "  Message('note_on', channel=0, note=76, velocity=83, time=0),\n",
      "  Message('note_on', channel=0, note=61, velocity=96, time=0),\n",
      "  Message('note_on', channel=0, note=69, velocity=0, time=128),\n",
      "  Message('note_on', channel=0, note=76, velocity=0, time=0),\n",
      "  Message('note_on', channel=0, note=73, velocity=70, time=0),\n",
      "  Message('note_on', channel=0, note=73, velocity=0, time=128),\n",
      "  Message('note_on', channel=0, note=61, velocity=0, time=0),\n",
      "  Message('note_on', channel=0, note=68, velocity=77, time=0),\n",
      "  Message('note_on', channel=0, note=71, velocity=77, time=0),\n",
      "  Message('note_on', channel=0, note=56, velocity=74, time=0),\n",
      "  Message('note_on', channel=0, note=56, velocity=0, time=128),\n",
      "  Message('note_on', channel=0, note=59, velocity=82, time=0),\n",
      "  Message('note_on', channel=0, note=59, velocity=0, time=128),\n",
      "  Message('note_on', channel=0, note=64, velocity=84, time=0),\n",
      "  Message('note_on', channel=0, note=68, velocity=0, time=128),\n",
      "  Message('note_on', channel=0, note=71, velocity=0, time=0),\n",
      "  Message('note_on', channel=0, note=69, velocity=64, time=0),\n",
      "  Message('note_on', channel=0, note=69, velocity=0, time=64),\n",
      "  Message('note_on', channel=0, note=68, velocity=72, time=0),\n",
      "  Message('note_on', channel=0, note=68, velocity=0, time=64),\n",
      "  Message('note_on', channel=0, note=64, velocity=0, time=0),\n",
      "  Message('note_on', channel=0, note=69, velocity=79, time=0),\n",
      "  Message('note_on', channel=0, note=54, velocity=73, time=0),\n",
      "  Message('note_on', channel=0, note=54, velocity=0, time=128),\n",
      "  Message('note_on', channel=0, note=61, velocity=90, time=0),\n",
      "  Message('note_on', channel=0, note=61, velocity=0, time=128),\n",
      "  Message('note_on', channel=0, note=66, velocity=88, time=0),\n",
      "  Message('note_on', channel=0, note=69, velocity=0, time=64),\n",
      "  Message('note_on', channel=0, note=64, velocity=70, time=0),\n",
      "  Message('note_on', channel=0, note=64, velocity=0, time=64),\n",
      "  Message('note_on', channel=0, note=69, velocity=88, time=0),\n",
      "  Message('note_on', channel=0, note=69, velocity=0, time=64),\n",
      "  Message('note_on', channel=0, note=71, velocity=84, time=0),\n",
      "  Message('note_on', channel=0, note=71, velocity=0, time=64),\n",
      "  Message('note_on', channel=0, note=66, velocity=0, time=0),\n",
      "  Message('note_on', channel=0, note=73, velocity=84, time=0),\n",
      "  Message('note_on', channel=0, note=50, velocity=73, time=0),\n",
      "  Message('note_on', channel=0, note=50, velocity=0, time=128),\n",
      "  Message('note_on', channel=0, note=57, velocity=83, time=0),\n",
      "  Message('note_on', channel=0, note=57, velocity=0, time=128),\n",
      "  Message('note_on', channel=0, note=64, velocity=89, time=0),\n",
      "  Message('note_on', channel=0, note=73, velocity=0, time=128),\n",
      "  Message('note_on', channel=0, note=73, velocity=77, time=0),\n",
      "  Message('note_on', channel=0, note=73, velocity=0, time=64),\n",
      "  Message('note_on', channel=0, note=74, velocity=81, time=0),\n",
      "  Message('note_on', channel=0, note=74, velocity=0, time=64),\n",
      "  Message('note_on', channel=0, note=64, velocity=0, time=0),\n",
      "  Message('note_on', channel=0, note=76, velocity=83, time=0),\n",
      "  Message('note_on', channel=0, note=45, velocity=66, time=0),\n",
      "  Message('note_on', channel=0, note=45, velocity=0, time=128),\n",
      "  Message('note_on', channel=0, note=52, velocity=84, time=0),\n",
      "  Message('note_on', channel=0, note=52, velocity=0, time=128),\n",
      "  Message('note_on', channel=0, note=61, velocity=94, time=0),\n",
      "  Message('note_on', channel=0, note=76, velocity=0, time=128),\n",
      "  Message('note_on', channel=0, note=74, velocity=69, time=0),\n",
      "  Message('note_on', channel=0, note=74, velocity=0, time=64),\n",
      "  Message('note_on', channel=0, note=73, velocity=72, time=0),\n",
      "  Message('note_on', channel=0, note=73, velocity=0, time=64),\n",
      "  Message('note_on', channel=0, note=61, velocity=0, time=0),\n",
      "  Message('note_on', channel=0, note=71, velocity=62, time=0),\n",
      "  Message('note_on', channel=0, note=52, velocity=69, time=0),\n",
      "  Message('note_on', channel=0, note=52, velocity=0, time=128),\n",
      "  Message('note_on', channel=0, note=59, velocity=82, time=0),\n",
      "  Message('note_on', channel=0, note=59, velocity=0, time=128),\n",
      "  Message('note_on', channel=0, note=68, velocity=95, time=0),\n",
      "  Message('note_on', channel=0, note=71, velocity=0, time=256),\n",
      "  Message('note_on', channel=0, note=68, velocity=0, time=0),\n",
      "  Message('note_on', channel=0, note=81, velocity=91, time=0),\n",
      "  Message('note_on', channel=0, note=54, velocity=68, time=0),\n",
      "  Message('note_on', channel=0, note=81, velocity=0, time=128),\n",
      "  Message('note_on', channel=0, note=54, velocity=0, time=0),\n",
      "  Message('note_on', channel=0, note=80, velocity=76, time=0),\n",
      "  Message('note_on', channel=0, note=61, velocity=93, time=0),\n",
      "  Message('note_on', channel=0, note=80, velocity=0, time=64),\n",
      "  Message('note_on', channel=0, note=81, velocity=79, time=0),\n",
      "  Message('note_on', channel=0, note=61, velocity=0, time=64),\n",
      "  Message('note_on', channel=0, note=66, velocity=87, time=0),\n",
      "  Message('note_on', channel=0, note=81, velocity=0, time=64),\n",
      "  Message('note_on', channel=0, note=69, velocity=60, time=0),\n",
      "  Message('note_on', channel=0, note=69, velocity=0, time=64),\n",
      "  Message('note_on', channel=0, note=80, velocity=92, time=0),\n",
      "  Message('note_on', channel=0, note=80, velocity=0, time=64),\n",
      "  Message('note_on', channel=0, note=81, velocity=80, time=0),\n",
      "  Message('note_on', channel=0, note=66, velocity=0, time=64),\n",
      "  Message('note_on', channel=0, note=50, velocity=65, time=0),\n",
      "  Message('note_on', channel=0, note=81, velocity=0, time=64),\n",
      "  Message('note_on', channel=0, note=69, velocity=57, time=0),\n",
      "  Message('note_on', channel=0, note=69, velocity=0, time=64),\n",
      "  Message('note_on', channel=0, note=50, velocity=0, time=0),\n",
      "  Message('note_on', channel=0, note=76, velocity=89, time=0),\n",
      "  Message('note_on', channel=0, note=57, velocity=77, time=0),\n",
      "  Message('note_on', channel=0, note=76, velocity=0, time=64),\n",
      "  Message('note_on', channel=0, note=81, velocity=86, time=0),\n",
      "  Message('note_on', channel=0, note=57, velocity=0, time=64),\n",
      "  Message('note_on', channel=0, note=64, velocity=96, time=0),\n",
      "  Message('note_on', channel=0, note=81, velocity=0, time=64),\n",
      "  Message('note_on', channel=0, note=69, velocity=54, time=0),\n",
      "  Message('note_on', channel=0, note=69, velocity=0, time=64),\n",
      "  Message('note_on', channel=0, note=64, velocity=0, time=0),\n",
      "  Message('note_on', channel=0, note=74, velocity=86, time=0),\n",
      "  Message('note_on', channel=0, note=50, velocity=72, time=0),\n",
      "  Message('note_on', channel=0, note=74, velocity=0, time=64),\n",
      "  Message('note_on', channel=0, note=69, velocity=66, time=0),\n",
      "  Message('note_on', channel=0, note=69, velocity=0, time=64),\n",
      "  Message('note_on', channel=0, note=50, velocity=0, time=0),\n",
      "  Message('note_on', channel=0, note=73, velocity=85, time=0),\n",
      "  Message('note_on', channel=0, note=45, velocity=71, time=0),\n",
      "  Message('note_on', channel=0, note=73, velocity=0, time=128),\n",
      "  Message('note_on', channel=0, note=45, velocity=0, time=0),\n",
      "  Message('note_on', channel=0, note=74, velocity=79, time=0),\n",
      "  Message('note_on', channel=0, note=52, velocity=79, time=0),\n",
      "  Message('note_on', channel=0, note=74, velocity=0, time=128),\n",
      "  Message('note_on', channel=0, note=52, velocity=0, time=0),\n",
      "  Message('note_on', channel=0, note=76, velocity=79, time=0),\n",
      "  Message('note_on', channel=0, note=61, velocity=95, time=0),\n",
      "  Message('note_on', channel=0, note=76, velocity=0, time=128),\n",
      "  Message('note_on', channel=0, note=61, velocity=0, time=0),\n",
      "  Message('note_on', channel=0, note=85, velocity=95, time=0),\n",
      "  Message('note_on', channel=0, note=45, velocity=69, time=0),\n",
      "  Message('note_on', channel=0, note=85, velocity=0, time=128),\n",
      "  Message('note_on', channel=0, note=45, velocity=0, time=0),\n",
      "  Message('note_on', channel=0, note=83, velocity=72, time=0),\n",
      "  Message('note_on', channel=0, note=52, velocity=81, time=0),\n",
      "  Message('note_on', channel=0, note=83, velocity=0, time=128),\n",
      "  Message('note_on', channel=0, note=52, velocity=0, time=0),\n",
      "  Message('note_on', channel=0, note=76, velocity=60, time=0),\n",
      "  Message('note_on', channel=0, note=59, velocity=84, time=0),\n",
      "  Message('note_on', channel=0, note=76, velocity=0, time=128),\n",
      "  Message('note_on', channel=0, note=59, velocity=0, time=0),\n",
      "  Message('note_on', channel=0, note=83, velocity=89, time=0),\n",
      "  Message('note_on', channel=0, note=61, velocity=84, time=0),\n",
      "  Message('note_on', channel=0, note=83, velocity=0, time=128),\n",
      "  Message('note_on', channel=0, note=81, velocity=76, time=0),\n",
      "  Message('note_on', channel=0, note=81, velocity=0, time=64),\n",
      "  Message('note_on', channel=0, note=80, velocity=70, time=0),\n",
      "  Message('note_on', channel=0, note=80, velocity=0, time=64),\n",
      "  Message('note_on', channel=0, note=61, velocity=0, time=0),\n",
      "  Message('note_on', channel=0, note=76, velocity=84, time=0),\n",
      "  Message('note_on', channel=0, note=81, velocity=84, time=0),\n",
      "  Message('note_on', channel=0, note=54, velocity=75, time=0),\n",
      "  Message('note_on', channel=0, note=54, velocity=0, time=128),\n",
      "  Message('note_on', channel=0, note=61, velocity=91, time=0),\n",
      "  Message('note_on', channel=0, note=61, velocity=0, time=128),\n",
      "  Message('note_on', channel=0, note=66, velocity=91, time=0),\n",
      "  Message('note_on', channel=0, note=76, velocity=0, time=128),\n",
      "  Message('note_on', channel=0, note=81, velocity=0, time=0),\n",
      "  Message('note_on', channel=0, note=69, velocity=52, time=0),\n",
      "  Message('note_on', channel=0, note=69, velocity=0, time=64),\n",
      "  Message('note_on', channel=0, note=71, velocity=76, time=0),\n",
      "  Message('note_on', channel=0, note=71, velocity=0, time=64),\n",
      "  Message('note_on', channel=0, note=66, velocity=0, time=0),\n",
      "  Message('note_on', channel=0, note=73, velocity=80, time=0),\n",
      "  Message('note_on', channel=0, note=50, velocity=67, time=0),\n",
      "  Message('note_on', channel=0, note=73, velocity=0, time=128),\n",
      "  Message('note_on', channel=0, note=50, velocity=0, time=0),\n",
      "  Message('note_on', channel=0, note=64, velocity=55, time=0),\n",
      "  Message('note_on', channel=0, note=57, velocity=79, time=0),\n",
      "  Message('note_on', channel=0, note=64, velocity=0, time=128),\n",
      "  Message('note_on', channel=0, note=57, velocity=0, time=0),\n",
      "  Message('note_on', channel=0, note=69, velocity=82, time=0),\n",
      "  Message('note_on', channel=0, note=64, velocity=92, time=0),\n",
      "  Message('note_on', channel=0, note=69, velocity=0, time=128),\n",
      "  Message('note_on', channel=0, note=73, velocity=86, time=0),\n",
      "  Message('note_on', channel=0, note=73, velocity=0, time=64),\n",
      "  Message('note_on', channel=0, note=74, velocity=83, time=0),\n",
      "  Message('note_on', channel=0, note=74, velocity=0, time=64),\n",
      "  Message('note_on', channel=0, note=64, velocity=0, time=0),\n",
      "  Message('note_on', channel=0, note=76, velocity=80, time=0),\n",
      "  Message('note_on', channel=0, note=45, velocity=70, time=0),\n",
      "  Message('note_on', channel=0, note=76, velocity=0, time=128),\n",
      "  Message('note_on', channel=0, note=45, velocity=0, time=0),\n",
      "  Message('note_on', channel=0, note=64, velocity=58, time=0),\n",
      "  Message('note_on', channel=0, note=52, velocity=83, time=0),\n",
      "  Message('note_on', channel=0, note=64, velocity=0, time=128),\n",
      "  Message('note_on', channel=0, note=52, velocity=0, time=0),\n",
      "  Message('note_on', channel=0, note=73, velocity=89, time=0),\n",
      "  Message('note_on', channel=0, note=61, velocity=93, time=0),\n",
      "  Message('note_on', channel=0, note=73, velocity=0, time=128),\n",
      "  Message('note_on', channel=0, note=74, velocity=86, time=0),\n",
      "  Message('note_on', channel=0, note=74, velocity=0, time=64),\n",
      "  Message('note_on', channel=0, note=73, velocity=77, time=0),\n",
      "  Message('note_on', channel=0, note=73, velocity=0, time=64),\n",
      "  Message('note_on', channel=0, note=61, velocity=0, time=0),\n",
      "  Message('note_on', channel=0, note=71, velocity=74, time=0),\n",
      "  Message('note_on', channel=0, note=52, velocity=70, time=0),\n",
      "  Message('note_on', channel=0, note=52, velocity=0, time=128),\n",
      "  Message('note_on', channel=0, note=59, velocity=80, time=0),\n",
      "  Message('note_on', channel=0, note=71, velocity=0, time=128),\n",
      "  Message('note_on', channel=0, note=59, velocity=0, time=0),\n",
      "  Message('note_on', channel=0, note=81, velocity=95, time=0),\n",
      "  Message('note_on', channel=0, note=64, velocity=90, time=0),\n",
      "  Message('note_on', channel=0, note=81, velocity=0, time=64),\n",
      "  Message('note_on', channel=0, note=83, velocity=83, time=0),\n",
      "  Message('note_on', channel=0, note=83, velocity=0, time=64),\n",
      "  Message('note_on', channel=0, note=81, velocity=71, time=0),\n",
      "  Message('note_on', channel=0, note=81, velocity=0, time=64),\n",
      "  Message('note_on', channel=0, note=80, velocity=76, time=0),\n",
      "  Message('note_on', channel=0, note=80, velocity=0, time=64),\n",
      "  Message('note_on', channel=0, note=64, velocity=0, time=0),\n",
      "  Message('note_on', channel=0, note=81, velocity=75, time=0),\n",
      "  Message('note_on', channel=0, note=54, velocity=74, time=0),\n",
      "  Message('note_on', channel=0, note=81, velocity=0, time=64),\n",
      "  Message('note_on', channel=0, note=69, velocity=56, time=0),\n",
      "  Message('note_on', channel=0, note=69, velocity=0, time=64),\n",
      "  Message('note_on', channel=0, note=54, velocity=0, time=0),\n",
      "  Message('note_on', channel=0, note=76, velocity=86, time=0),\n",
      "  Message('note_on', channel=0, note=61, velocity=89, time=0),\n",
      "  Message('note_on', channel=0, note=76, velocity=0, time=64),\n",
      "  Message('note_on', channel=0, note=69, velocity=64, time=0),\n",
      "  Message('note_on', channel=0, note=69, velocity=0, time=64),\n",
      "  Message('note_on', channel=0, note=61, velocity=0, time=0),\n",
      "  Message('note_on', channel=0, note=81, velocity=97, time=0),\n",
      "  Message('note_on', channel=0, note=66, velocity=88, time=0),\n",
      "  Message('note_on', channel=0, note=81, velocity=0, time=64),\n",
      "  Message('note_on', channel=0, note=83, velocity=88, time=0),\n",
      "  Message('note_on', channel=0, note=83, velocity=0, time=64),\n",
      "  Message('note_on', channel=0, note=66, velocity=0, time=0),\n",
      "  Message('note_on', channel=0, note=81, velocity=71, time=0),\n",
      "  Message('note_on', channel=0, note=54, velocity=65, time=0),\n",
      "  Message('note_on', channel=0, note=81, velocity=0, time=64),\n",
      "  Message('note_on', channel=0, note=80, velocity=70, time=0),\n",
      "  Message('note_on', channel=0, note=80, velocity=0, time=64),\n",
      "  Message('note_on', channel=0, note=54, velocity=0, time=0),\n",
      "  Message('note_on', channel=0, note=81, velocity=82, time=0),\n",
      "  Message('note_on', channel=0, note=50, velocity=69, time=0),\n",
      "  Message('note_on', channel=0, note=81, velocity=0, time=64),\n",
      "  Message('note_on', channel=0, note=69, velocity=56, time=0),\n",
      "  Message('note_on', channel=0, note=69, velocity=0, time=64),\n",
      "  Message('note_on', channel=0, note=50, velocity=0, time=0),\n",
      "  Message('note_on', channel=0, note=76, velocity=89, time=0),\n",
      "  Message('note_on', channel=0, note=57, velocity=76, time=0),\n",
      "  Message('note_on', channel=0, note=76, velocity=0, time=64),\n",
      "  Message('note_on', channel=0, note=69, velocity=64, time=0),\n",
      "  Message('note_on', channel=0, note=69, velocity=0, time=64),\n",
      "  Message('note_on', channel=0, note=57, velocity=0, time=0),\n",
      "  Message('note_on', channel=0, note=81, velocity=97, time=0),\n",
      "  Message('note_on', channel=0, note=64, velocity=95, time=0),\n",
      "  Message('note_on', channel=0, note=81, velocity=0, time=64),\n",
      "  Message('note_on', channel=0, note=83, velocity=88, time=0),\n",
      "  Message('note_on', channel=0, note=83, velocity=0, time=64),\n",
      "  Message('note_on', channel=0, note=64, velocity=0, time=0),\n",
      "  Message('note_on', channel=0, note=81, velocity=75, time=0),\n",
      "  Message('note_on', channel=0, note=50, velocity=68, time=0),\n",
      "  Message('note_on', channel=0, note=81, velocity=0, time=64),\n",
      "  Message('note_on', channel=0, note=80, velocity=76, time=0),\n",
      "  Message('note_on', channel=0, note=80, velocity=0, time=64),\n",
      "  Message('note_on', channel=0, note=50, velocity=0, time=0),\n",
      "  Message('note_on', channel=0, note=81, velocity=80, time=0),\n",
      "  Message('note_on', channel=0, note=45, velocity=72, time=0),\n",
      "  Message('note_on', channel=0, note=81, velocity=0, time=64),\n",
      "  Message('note_on', channel=0, note=83, velocity=82, time=0),\n",
      "  Message('note_on', channel=0, note=83, velocity=0, time=64),\n",
      "  Message('note_on', channel=0, note=45, velocity=0, time=0),\n",
      "  Message('note_on', channel=0, note=85, velocity=78, time=0),\n",
      "  Message('note_on', channel=0, note=52, velocity=87, time=0),\n",
      "  Message('note_on', channel=0, note=85, velocity=0, time=64),\n",
      "  Message('note_on', channel=0, note=86, velocity=76, time=0),\n",
      "  Message('note_on', channel=0, note=86, velocity=0, time=64),\n",
      "  Message('note_on', channel=0, note=52, velocity=0, time=0),\n",
      "  Message('note_on', channel=0, note=88, velocity=80, time=0),\n",
      "  Message('note_on', channel=0, note=61, velocity=94, time=0),\n",
      "  Message('note_on', channel=0, note=88, velocity=0, time=64),\n",
      "  Message('note_on', channel=0, note=85, velocity=72, time=0),\n",
      "  Message('note_on', channel=0, note=85, velocity=0, time=64),\n",
      "  Message('note_on', channel=0, note=61, velocity=0, time=0),\n",
      "  Message('note_on', channel=0, note=83, velocity=67, time=0),\n",
      "  Message('note_on', channel=0, note=45, velocity=75, time=0),\n",
      "  Message('note_on', channel=0, note=83, velocity=0, time=64),\n",
      "  Message('note_on', channel=0, note=81, velocity=75, time=0),\n",
      "  Message('note_on', channel=0, note=81, velocity=0, time=64),\n",
      "  Message('note_on', channel=0, note=45, velocity=0, time=0),\n",
      "  Message('note_on', channel=0, note=80, velocity=70, time=0),\n",
      "  Message('note_on', channel=0, note=52, velocity=82, time=0),\n",
      "  Message('note_on', channel=0, note=80, velocity=0, time=128),\n",
      "  Message('note_on', channel=0, note=52, velocity=0, time=0),\n",
      "  Message('note_on', channel=0, note=71, velocity=58, time=0),\n",
      "  Message('note_on', channel=0, note=59, velocity=85, time=0),\n",
      "  Message('note_on', channel=0, note=71, velocity=0, time=128),\n",
      "  Message('note_on', channel=0, note=59, velocity=0, time=0),\n",
      "  Message('note_on', channel=0, note=81, velocity=95, time=0),\n",
      "  Message('note_on', channel=0, note=64, velocity=88, time=0),\n",
      "  Message('note_on', channel=0, note=81, velocity=0, time=64),\n",
      "  Message('note_on', channel=0, note=83, velocity=86, time=0),\n",
      "  Message('note_on', channel=0, note=83, velocity=0, time=64),\n",
      "  Message('note_on', channel=0, note=64, velocity=0, time=0),\n",
      "  Message('note_on', channel=0, note=81, velocity=73, time=0),\n",
      "  Message('note_on', channel=0, note=52, velocity=70, time=0),\n",
      "  Message('note_on', channel=0, note=81, velocity=0, time=64),\n",
      "  Message('note_on', channel=0, note=80, velocity=77, time=0),\n",
      "  Message('note_on', channel=0, note=80, velocity=0, time=64),\n",
      "  Message('note_on', channel=0, note=52, velocity=0, time=0),\n",
      "  Message('note_on', channel=0, note=81, velocity=75, time=0),\n",
      "  Message('note_on', channel=0, note=54, velocity=79, time=0),\n",
      "  Message('note_on', channel=0, note=81, velocity=0, time=64),\n",
      "  Message('note_on', channel=0, note=69, velocity=56, time=0),\n",
      "  Message('note_on', channel=0, note=69, velocity=0, time=64),\n",
      "  Message('note_on', channel=0, note=54, velocity=0, time=0),\n",
      "  Message('note_on', channel=0, note=76, velocity=88, time=0),\n",
      "  Message('note_on', channel=0, note=61, velocity=90, time=0),\n",
      "  Message('note_on', channel=0, note=76, velocity=0, time=64),\n",
      "  Message('note_on', channel=0, note=69, velocity=64, time=0),\n",
      "  Message('note_on', channel=0, note=69, velocity=0, time=64),\n",
      "  Message('note_on', channel=0, note=61, velocity=0, time=0),\n",
      "  Message('note_on', channel=0, note=81, velocity=95, time=0),\n",
      "  Message('note_on', channel=0, note=66, velocity=88, time=0),\n",
      "  Message('note_on', channel=0, note=81, velocity=0, time=64),\n",
      "  Message('note_on', channel=0, note=83, velocity=84, time=0),\n",
      "  Message('note_on', channel=0, note=83, velocity=0, time=64),\n",
      "  Message('note_on', channel=0, note=66, velocity=0, time=0),\n",
      "  Message('note_on', channel=0, note=81, velocity=74, time=0),\n",
      "  Message('note_on', channel=0, note=54, velocity=68, time=0),\n",
      "  Message('note_on', channel=0, note=81, velocity=0, time=64),\n",
      "  Message('note_on', channel=0, note=80, velocity=72, time=0),\n",
      "  Message('note_on', channel=0, note=80, velocity=0, time=64),\n",
      "  Message('note_on', channel=0, note=54, velocity=0, time=0),\n",
      "  Message('note_on', channel=0, note=81, velocity=81, time=0),\n",
      "  Message('note_on', channel=0, note=50, velocity=67, time=0),\n",
      "  Message('note_on', channel=0, note=81, velocity=0, time=64),\n",
      "  Message('note_on', channel=0, note=69, velocity=52, time=0),\n",
      "  Message('note_on', channel=0, note=69, velocity=0, time=64),\n",
      "  Message('note_on', channel=0, note=50, velocity=0, time=0),\n",
      "  Message('note_on', channel=0, note=76, velocity=90, time=0),\n",
      "  Message('note_on', channel=0, note=57, velocity=83, time=0),\n",
      "  Message('note_on', channel=0, note=76, velocity=0, time=64),\n",
      "  Message('note_on', channel=0, note=69, velocity=66, time=0),\n",
      "  Message('note_on', channel=0, note=69, velocity=0, time=64),\n",
      "  Message('note_on', channel=0, note=57, velocity=0, time=0),\n",
      "  Message('note_on', channel=0, note=81, velocity=96, time=0),\n",
      "  Message('note_on', channel=0, note=64, velocity=93, time=0),\n",
      "  Message('note_on', channel=0, note=81, velocity=0, time=64),\n",
      "  Message('note_on', channel=0, note=83, velocity=86, time=0),\n",
      "  Message('note_on', channel=0, note=83, velocity=0, time=64),\n",
      "  Message('note_on', channel=0, note=64, velocity=0, time=0),\n",
      "  Message('note_on', channel=0, note=81, velocity=74, time=0),\n",
      "  Message('note_on', channel=0, note=50, velocity=70, time=0),\n",
      "  Message('note_on', channel=0, note=81, velocity=0, time=64),\n",
      "  Message('note_on', channel=0, note=80, velocity=69, time=0),\n",
      "  Message('note_on', channel=0, note=80, velocity=0, time=64),\n",
      "  Message('note_on', channel=0, note=50, velocity=0, time=0),\n",
      "  Message('note_on', channel=0, note=81, velocity=81, time=0),\n",
      "  Message('note_on', channel=0, note=45, velocity=71, time=0),\n",
      "  Message('note_on', channel=0, note=81, velocity=0, time=64),\n",
      "  Message('note_on', channel=0, note=83, velocity=81, time=0),\n",
      "  Message('note_on', channel=0, note=83, velocity=0, time=64),\n",
      "  Message('note_on', channel=0, note=45, velocity=0, time=0),\n",
      "  Message('note_on', channel=0, note=85, velocity=81, time=0),\n",
      "  Message('note_on', channel=0, note=52, velocity=85, time=0),\n",
      "  Message('note_on', channel=0, note=85, velocity=0, time=64),\n",
      "  Message('note_on', channel=0, note=86, velocity=81, time=0),\n",
      "  Message('note_on', channel=0, note=86, velocity=0, time=64),\n",
      "  Message('note_on', channel=0, note=52, velocity=0, time=0),\n",
      "  Message('note_on', channel=0, note=88, velocity=87, time=0),\n",
      "  Message('note_on', channel=0, note=61, velocity=94, time=0),\n",
      "  Message('note_on', channel=0, note=88, velocity=0, time=64),\n",
      "  Message('note_on', channel=0, note=85, velocity=71, time=0),\n",
      "  Message('note_on', channel=0, note=85, velocity=0, time=64),\n",
      "  Message('note_on', channel=0, note=61, velocity=0, time=0),\n",
      "  Message('note_on', channel=0, note=83, velocity=68, time=0),\n",
      "  Message('note_on', channel=0, note=45, velocity=66, time=0),\n",
      "  Message('note_on', channel=0, note=83, velocity=0, time=64),\n",
      "  Message('note_on', channel=0, note=81, velocity=72, time=0),\n",
      "  Message('note_on', channel=0, note=81, velocity=0, time=64),\n",
      "  Message('note_on', channel=0, note=45, velocity=0, time=0),\n",
      "  Message('note_on', channel=0, note=80, velocity=72, time=0),\n",
      "  Message('note_on', channel=0, note=52, velocity=83, time=0),\n",
      "  Message('note_on', channel=0, note=80, velocity=0, time=128),\n",
      "  Message('note_on', channel=0, note=52, velocity=0, time=0),\n",
      "  Message('note_on', channel=0, note=71, velocity=55, time=0),\n",
      "  Message('note_on', channel=0, note=59, velocity=85, time=0),\n",
      "  Message('note_on', channel=0, note=71, velocity=0, time=128),\n",
      "  Message('note_on', channel=0, note=59, velocity=0, time=0),\n",
      "  Message('note_on', channel=0, note=81, velocity=94, time=0),\n",
      "  Message('note_on', channel=0, note=64, velocity=87, time=0),\n",
      "  Message('note_on', channel=0, note=81, velocity=0, time=64),\n",
      "  Message('note_on', channel=0, note=81, velocity=83, time=0),\n",
      "  Message('note_on', channel=0, note=81, velocity=0, time=32),\n",
      "  Message('note_on', channel=0, note=83, velocity=79, time=0),\n",
      "  Message('note_on', channel=0, note=64, velocity=0, time=32),\n",
      "  Message('note_on', channel=0, note=52, velocity=71, time=0),\n",
      "  Message('note_on', channel=0, note=83, velocity=0, time=32),\n",
      "  Message('note_on', channel=0, note=81, velocity=74, time=0),\n",
      "  Message('note_on', channel=0, note=81, velocity=0, time=64),\n",
      "  Message('note_on', channel=0, note=80, velocity=75, time=0),\n",
      "  Message('note_on', channel=0, note=80, velocity=0, time=32),\n",
      "  Message('note_on', channel=0, note=52, velocity=0, time=0),\n",
      "  Message('note_on', channel=0, note=81, velocity=81, time=0),\n",
      "  Message('note_on', channel=0, note=42, velocity=67, time=0),\n",
      "  Message('note_on', channel=0, note=81, velocity=0, time=64),\n",
      "  Message('note_on', channel=0, note=69, velocity=52, time=0),\n",
      "  Message('note_on', channel=0, note=69, velocity=0, time=64),\n",
      "  Message('note_on', channel=0, note=42, velocity=0, time=0),\n",
      "  Message('note_on', channel=0, note=76, velocity=91, time=0),\n",
      "  Message('note_on', channel=0, note=49, velocity=82, time=0),\n",
      "  Message('note_on', channel=0, note=76, velocity=0, time=64),\n",
      "  Message('note_on', channel=0, note=69, velocity=66, time=0),\n",
      "  Message('note_on', channel=0, note=69, velocity=0, time=64),\n",
      "  Message('note_on', channel=0, note=49, velocity=0, time=0),\n",
      "  Message('note_on', channel=0, note=81, velocity=92, time=0),\n",
      "  Message('note_on', channel=0, note=54, velocity=81, time=0),\n",
      "  Message('note_on', channel=0, note=81, velocity=0, time=96),\n",
      "  Message('note_on', channel=0, note=83, velocity=80, time=0),\n",
      "  Message('note_on', channel=0, note=83, velocity=0, time=32),\n",
      "  Message('note_on', channel=0, note=54, velocity=0, time=0),\n",
      "  Message('note_on', channel=0, note=81, velocity=76, time=0),\n",
      "  Message('note_on', channel=0, note=42, velocity=68, time=0),\n",
      "  Message('note_on', channel=0, note=81, velocity=0, time=64),\n",
      "  Message('note_on', channel=0, note=80, velocity=74, time=0),\n",
      "  Message('note_on', channel=0, note=80, velocity=0, time=64),\n",
      "  Message('note_on', channel=0, note=42, velocity=0, time=0),\n",
      "  Message('note_on', channel=0, note=81, velocity=79, time=0),\n",
      "  Message('note_on', channel=0, note=50, velocity=84, time=0),\n",
      "  Message('note_on', channel=0, note=81, velocity=0, time=64),\n",
      "  Message('note_on', channel=0, note=69, velocity=55, time=0),\n",
      "  Message('note_on', channel=0, note=69, velocity=0, time=64),\n",
      "  Message('note_on', channel=0, note=50, velocity=0, time=0),\n",
      "  Message('note_on', channel=0, note=76, velocity=87, time=0),\n",
      "  Message('note_on', channel=0, note=57, velocity=82, time=0),\n",
      "  Message('note_on', channel=0, note=76, velocity=0, time=64),\n",
      "  Message('note_on', channel=0, note=69, velocity=63, time=0),\n",
      "  Message('note_on', channel=0, note=69, velocity=0, time=64),\n",
      "  Message('note_on', channel=0, note=57, velocity=0, time=0),\n",
      "  Message('note_on', channel=0, note=81, velocity=98, time=0),\n",
      "  Message('note_on', channel=0, note=64, velocity=92, time=0),\n",
      "  Message('note_on', channel=0, note=81, velocity=0, time=96),\n",
      "  Message('note_on', channel=0, note=83, velocity=82, time=0),\n",
      "  Message('note_on', channel=0, note=83, velocity=0, time=32),\n",
      "  Message('note_on', channel=0, note=64, velocity=0, time=0),\n",
      "  Message('note_on', channel=0, note=81, velocity=73, time=0),\n",
      "  Message('note_on', channel=0, note=50, velocity=71, time=0),\n",
      "  Message('note_on', channel=0, note=81, velocity=0, time=64),\n",
      "  Message('note_on', channel=0, note=80, velocity=70, time=0),\n",
      "  Message('note_on', channel=0, note=80, velocity=0, time=64),\n",
      "  Message('note_on', channel=0, note=50, velocity=0, time=0),\n",
      "  Message('note_on', channel=0, note=81, velocity=78, time=0),\n",
      "  Message('note_on', channel=0, note=45, velocity=71, time=0),\n",
      "  Message('note_on', channel=0, note=81, velocity=0, time=64),\n",
      "  Message('note_on', channel=0, note=83, velocity=79, time=0),\n",
      "  Message('note_on', channel=0, note=83, velocity=0, time=64),\n",
      "  Message('note_on', channel=0, note=45, velocity=0, time=0),\n",
      "  Message('note_on', channel=0, note=85, velocity=79, time=0),\n",
      "  Message('note_on', channel=0, note=52, velocity=80, time=0),\n",
      "  Message('note_on', channel=0, note=85, velocity=0, time=64),\n",
      "  Message('note_on', channel=0, note=86, velocity=81, time=0),\n",
      "  Message('note_on', channel=0, note=86, velocity=0, time=64),\n",
      "  Message('note_on', channel=0, note=52, velocity=0, time=0),\n",
      "  Message('note_on', channel=0, note=88, velocity=80, time=0),\n",
      "  Message('note_on', channel=0, note=61, velocity=91, time=0),\n",
      "  Message('note_on', channel=0, note=88, velocity=0, time=64),\n",
      "  Message('note_on', channel=0, note=85, velocity=66, time=0),\n",
      "  Message('note_on', channel=0, note=85, velocity=0, time=64),\n",
      "  Message('note_on', channel=0, note=61, velocity=0, time=0),\n",
      "  Message('note_on', channel=0, note=83, velocity=70, time=0),\n",
      "  Message('note_on', channel=0, note=45, velocity=66, time=0),\n",
      "  Message('note_on', channel=0, note=83, velocity=0, time=64),\n",
      "  Message('note_on', channel=0, note=81, velocity=71, time=0),\n",
      "  Message('note_on', channel=0, note=81, velocity=0, time=64),\n",
      "  Message('note_on', channel=0, note=45, velocity=0, time=0),\n",
      "  Message('note_on', channel=0, note=80, velocity=71, time=0),\n",
      "  Message('note_on', channel=0, note=42, velocity=73, time=0),\n",
      "  Message('note_on', channel=0, note=80, velocity=0, time=128),\n",
      "  Message('note_on', channel=0, note=42, velocity=0, time=0),\n",
      "  Message('note_on', channel=0, note=71, velocity=61, time=0),\n",
      "  Message('note_on', channel=0, note=47, velocity=83, time=0),\n",
      "  Message('note_on', channel=0, note=71, velocity=0, time=128),\n",
      "  Message('note_on', channel=0, note=47, velocity=0, time=0),\n",
      "  Message('note_on', channel=0, note=81, velocity=94, time=0),\n",
      "  Message('note_on', channel=0, note=56, velocity=83, time=0),\n",
      "  Message('note_on', channel=0, note=81, velocity=0, time=96),\n",
      "  Message('note_on', channel=0, note=83, velocity=84, time=0),\n",
      "  Message('note_on', channel=0, note=83, velocity=0, time=32),\n",
      "  Message('note_on', channel=0, note=56, velocity=0, time=0),\n",
      "  Message('note_on', channel=0, note=81, velocity=71, time=0),\n",
      "  Message('note_on', channel=0, note=42, velocity=68, time=0),\n",
      "  Message('note_on', channel=0, note=81, velocity=0, time=64),\n",
      "  Message('note_on', channel=0, note=80, velocity=69, time=0),\n",
      "  Message('note_on', channel=0, note=80, velocity=0, time=64),\n",
      "  Message('note_on', channel=0, note=42, velocity=0, time=0),\n",
      "  Message('note_on', channel=0, note=81, velocity=77, time=0),\n",
      "  Message('note_on', channel=0, note=42, velocity=74, time=0),\n",
      "  Message('note_on', channel=0, note=81, velocity=0, time=64),\n",
      "  Message('note_on', channel=0, note=69, velocity=61, time=0),\n",
      "  Message('note_on', channel=0, note=69, velocity=0, time=64),\n",
      "  Message('note_on', channel=0, note=42, velocity=0, time=0),\n",
      "  Message('note_on', channel=0, note=78, velocity=88, time=0),\n",
      "  Message('note_on', channel=0, note=49, velocity=88, time=0),\n",
      "  Message('note_on', channel=0, note=78, velocity=0, time=64),\n",
      "  Message('note_on', channel=0, note=69, velocity=64, time=0),\n",
      "  Message('note_on', channel=0, note=69, velocity=0, time=64),\n",
      "  Message('note_on', channel=0, note=49, velocity=0, time=0),\n",
      "  Message('note_on', channel=0, note=81, velocity=94, time=0),\n",
      "  Message('note_on', channel=0, note=54, velocity=82, time=0),\n",
      "  Message('note_on', channel=0, note=81, velocity=0, time=96),\n",
      "  Message('note_on', channel=0, note=83, velocity=83, time=0),\n",
      "  Message('note_on', channel=0, note=83, velocity=0, time=32),\n",
      "  Message('note_on', channel=0, note=54, velocity=0, time=0),\n",
      "  Message('note_on', channel=0, note=81, velocity=78, time=0),\n",
      "  Message('note_on', channel=0, note=42, velocity=64, time=0),\n",
      "  Message('note_on', channel=0, note=81, velocity=0, time=64),\n",
      "  Message('note_on', channel=0, note=80, velocity=70, time=0),\n",
      "  Message('note_on', channel=0, note=80, velocity=0, time=64),\n",
      "  Message('note_on', channel=0, note=42, velocity=0, time=0),\n",
      "  Message('note_on', channel=0, note=81, velocity=80, time=0),\n",
      "  Message('note_on', channel=0, note=50, velocity=78, time=0),\n",
      "  Message('note_on', channel=0, note=81, velocity=0, time=64),\n",
      "  Message('note_on', channel=0, note=69, velocity=53, time=0),\n",
      "  Message('note_on', channel=0, note=69, velocity=0, time=64),\n",
      "  Message('note_on', channel=0, note=50, velocity=0, time=0),\n",
      "  Message('note_on', channel=0, note=76, velocity=89, time=0),\n",
      "  Message('note_on', channel=0, note=57, velocity=81, time=0),\n",
      "  Message('note_on', channel=0, note=76, velocity=0, time=64),\n",
      "  Message('note_on', channel=0, note=69, velocity=67, time=0),\n",
      "  Message('note_on', channel=0, note=69, velocity=0, time=64),\n",
      "  Message('note_on', channel=0, note=57, velocity=0, time=0),\n",
      "  Message('note_on', channel=0, note=81, velocity=95, time=0),\n",
      "  Message('note_on', channel=0, note=64, velocity=87, time=0),\n",
      "  Message('note_on', channel=0, note=81, velocity=0, time=64),\n",
      "  Message('note_on', channel=0, note=83, velocity=82, time=0),\n",
      "  Message('note_on', channel=0, note=83, velocity=0, time=64),\n",
      "  Message('note_on', channel=0, note=64, velocity=0, time=0),\n",
      "  Message('note_on', channel=0, note=81, velocity=71, time=0),\n",
      "  Message('note_on', channel=0, note=50, velocity=68, time=0),\n",
      "  Message('note_on', channel=0, note=81, velocity=0, time=64),\n",
      "  Message('note_on', channel=0, note=80, velocity=72, time=0),\n",
      "  Message('note_on', channel=0, note=80, velocity=0, time=64),\n",
      "  Message('note_on', channel=0, note=50, velocity=0, time=0),\n",
      "  Message('note_on', channel=0, note=81, velocity=80, time=0),\n",
      "  Message('note_on', channel=0, note=45, velocity=73, time=0),\n",
      "  Message('note_on', channel=0, note=81, velocity=0, time=64),\n",
      "  Message('note_on', channel=0, note=83, velocity=81, time=0),\n",
      "  Message('note_on', channel=0, note=83, velocity=0, time=64),\n",
      "  Message('note_on', channel=0, note=45, velocity=0, time=0),\n",
      "  Message('note_on', channel=0, note=85, velocity=84, time=0),\n",
      "  Message('note_on', channel=0, note=52, velocity=82, time=0),\n",
      "  Message('note_on', channel=0, note=85, velocity=0, time=64),\n",
      "  Message('note_on', channel=0, note=86, velocity=79, time=0),\n",
      "  Message('note_on', channel=0, note=86, velocity=0, time=64),\n",
      "  Message('note_on', channel=0, note=52, velocity=0, time=0),\n",
      "  Message('note_on', channel=0, note=88, velocity=83, time=0),\n",
      "  Message('note_on', channel=0, note=59, velocity=83, time=0),\n",
      "  Message('note_on', channel=0, note=88, velocity=0, time=64),\n",
      "  Message('note_on', channel=0, note=85, velocity=69, time=0),\n",
      "  Message('note_on', channel=0, note=85, velocity=0, time=64),\n",
      "  Message('note_on', channel=0, note=59, velocity=0, time=0),\n",
      "  Message('note_on', channel=0, note=83, velocity=73, time=0),\n",
      "  Message('note_on', channel=0, note=45, velocity=64, time=0),\n",
      "  Message('note_on', channel=0, note=83, velocity=0, time=64),\n",
      "  Message('note_on', channel=0, note=81, velocity=77, time=0),\n",
      "  Message('note_on', channel=0, note=81, velocity=0, time=64),\n",
      "  Message('note_on', channel=0, note=45, velocity=0, time=0),\n",
      "  Message('note_on', channel=0, note=80, velocity=71, time=0),\n",
      "  Message('note_on', channel=0, note=42, velocity=68, time=0),\n",
      "  Message('note_on', channel=0, note=80, velocity=0, time=128),\n",
      "  Message('note_on', channel=0, note=42, velocity=0, time=0),\n",
      "  Message('note_on', channel=0, note=71, velocity=60, time=0),\n",
      "  Message('note_on', channel=0, note=47, velocity=81, time=0),\n",
      "  Message('note_on', channel=0, note=71, velocity=0, time=128),\n",
      "  Message('note_on', channel=0, note=47, velocity=0, time=0),\n",
      "  Message('note_on', channel=0, note=68, velocity=65, time=0),\n",
      "  Message('note_on', channel=0, note=56, velocity=88, time=0),\n",
      "  Message('note_on', channel=0, note=68, velocity=0, time=128),\n",
      "  Message('note_on', channel=0, note=64, velocity=67, time=0),\n",
      "  Message('note_on', channel=0, note=64, velocity=0, time=256),\n",
      "  Message('note_on', channel=0, note=69, velocity=87, time=0),\n",
      "  Message('note_on', channel=0, note=69, velocity=0, time=64),\n",
      "  Message('note_on', channel=0, note=73, velocity=86, time=0),\n",
      "  Message('note_on', channel=0, note=73, velocity=0, time=64),\n",
      "  Message('note_on', channel=0, note=56, velocity=0, time=0),\n",
      "  Message('note_on', channel=0, note=81, velocity=97, time=0),\n",
      "  Message('note_on', channel=0, note=54, velocity=76, time=0),\n",
      "  Message('note_on', channel=0, note=81, velocity=0, time=128),\n",
      "  Message('note_on', channel=0, note=54, velocity=0, time=0),\n",
      "  Message('note_on', channel=0, note=80, velocity=75, time=0),\n",
      "  Message('note_on', channel=0, note=61, velocity=91, time=0),\n",
      "  Message('note_on', channel=0, note=80, velocity=0, time=64),\n",
      "  Message('note_on', channel=0, note=81, velocity=90, time=0),\n",
      "  Message('note_on', channel=0, note=81, velocity=0, time=64),\n",
      "  Message('note_on', channel=0, note=61, velocity=0, time=0),\n",
      "  Message('note_on', channel=0, note=81, velocity=82, time=0),\n",
      "  Message('note_on', channel=0, note=66, velocity=87, time=0),\n",
      "  Message('note_on', channel=0, note=81, velocity=0, time=64),\n",
      "  Message('note_on', channel=0, note=69, velocity=58, time=0),\n",
      "  Message('note_on', channel=0, note=69, velocity=0, time=64),\n",
      "  Message('note_on', channel=0, note=80, velocity=92, time=0),\n",
      "  Message('note_on', channel=0, note=80, velocity=0, time=64),\n",
      "  Message('note_on', channel=0, note=81, velocity=93, time=0),\n",
      "  Message('note_on', channel=0, note=81, velocity=0, time=64),\n",
      "  Message('note_on', channel=0, note=66, velocity=0, time=0),\n",
      "  Message('note_on', channel=0, note=81, velocity=80, time=0),\n",
      "  Message('note_on', channel=0, note=50, velocity=68, time=0),\n",
      "  Message('note_on', channel=0, note=81, velocity=0, time=64),\n",
      "  Message('note_on', channel=0, note=69, velocity=57, time=0),\n",
      "  Message('note_on', channel=0, note=69, velocity=0, time=64),\n",
      "  Message('note_on', channel=0, note=50, velocity=0, time=0),\n",
      "  Message('note_on', channel=0, note=76, velocity=88, time=0),\n",
      "  Message('note_on', channel=0, note=57, velocity=82, time=0),\n",
      "  Message('note_on', channel=0, note=76, velocity=0, time=64),\n",
      "  Message('note_on', channel=0, note=81, velocity=98, time=0),\n",
      "  Message('note_on', channel=0, note=81, velocity=0, time=64),\n",
      "  Message('note_on', channel=0, note=57, velocity=0, time=0),\n",
      "  Message('note_on', channel=0, note=81, velocity=84, time=0),\n",
      "  Message('note_on', channel=0, note=64, velocity=90, time=0),\n",
      "  Message('note_on', channel=0, note=81, velocity=0, time=64),\n",
      "  Message('note_on', channel=0, note=69, velocity=61, time=0),\n",
      "  Message('note_on', channel=0, note=69, velocity=0, time=64),\n",
      "  Message('note_on', channel=0, note=64, velocity=0, time=0),\n",
      "  Message('note_on', channel=0, note=74, velocity=83, time=0),\n",
      "  Message('note_on', channel=0, note=50, velocity=70, time=0),\n",
      "  Message('note_on', channel=0, note=74, velocity=0, time=64),\n",
      "  Message('note_on', channel=0, note=69, velocity=68, time=0),\n",
      "  Message('note_on', channel=0, note=69, velocity=0, time=64),\n",
      "  Message('note_on', channel=0, note=50, velocity=0, time=0),\n",
      "  Message('note_on', channel=0, note=73, velocity=80, time=0),\n",
      "  Message('note_on', channel=0, note=45, velocity=72, time=0),\n",
      "  Message('note_on', channel=0, note=73, velocity=0, time=128),\n",
      "  Message('note_on', channel=0, note=45, velocity=0, time=0),\n",
      "  Message('note_on', channel=0, note=74, velocity=79, time=0),\n",
      "  Message('note_on', channel=0, note=52, velocity=85, time=0),\n",
      "  Message('note_on', channel=0, note=74, velocity=0, time=128),\n",
      "  Message('note_on', channel=0, note=52, velocity=0, time=0),\n",
      "  Message('note_on', channel=0, note=69, velocity=82, time=0),\n",
      "  Message('note_on', channel=0, note=76, velocity=82, time=0),\n",
      "  Message('note_on', channel=0, note=61, velocity=96, time=0),\n",
      "  Message('note_on', channel=0, note=69, velocity=0, time=128),\n",
      "  Message('note_on', channel=0, note=76, velocity=0, time=0),\n",
      "  Message('note_on', channel=0, note=61, velocity=0, time=0),\n",
      "  Message('note_on', channel=0, note=73, velocity=66, time=0),\n",
      "  Message('note_on', channel=0, note=45, velocity=69, time=0),\n",
      "  Message('note_on', channel=0, note=73, velocity=0, time=128),\n",
      "  Message('note_on', channel=0, note=45, velocity=0, time=0),\n",
      "  Message('note_on', channel=0, note=68, velocity=70, time=0),\n",
      "  Message('note_on', channel=0, note=71, velocity=70, time=0),\n",
      "  Message('note_on', channel=0, note=52, velocity=85, time=0),\n",
      "  Message('note_on', channel=0, note=52, velocity=0, time=128),\n",
      "  Message('note_on', channel=0, note=59, velocity=82, time=0),\n",
      "  Message('note_on', channel=0, note=59, velocity=0, time=128),\n",
      "  Message('note_on', channel=0, note=64, velocity=90, time=0),\n",
      "  Message('note_on', channel=0, note=68, velocity=0, time=128),\n",
      "  Message('note_on', channel=0, note=71, velocity=0, time=0),\n",
      "  Message('note_on', channel=0, note=69, velocity=74, time=0),\n",
      "  Message('note_on', channel=0, note=69, velocity=0, time=64),\n",
      "  Message('note_on', channel=0, note=68, velocity=78, time=0),\n",
      "  Message('note_on', channel=0, note=68, velocity=0, time=64),\n",
      "  Message('note_on', channel=0, note=64, velocity=0, time=0),\n",
      "  Message('note_on', channel=0, note=64, velocity=74, time=0),\n",
      "  Message('note_on', channel=0, note=69, velocity=74, time=0),\n",
      "  Message('note_on', channel=0, note=54, velocity=72, time=0),\n",
      "  Message('note_on', channel=0, note=54, velocity=0, time=128),\n",
      "  Message('note_on', channel=0, note=59, velocity=77, time=0),\n",
      "  Message('note_on', channel=0, note=64, velocity=0, time=192),\n",
      "  Message('note_on', channel=0, note=69, velocity=0, time=0),\n",
      "  Message('note_on', channel=0, note=64, velocity=68, time=0),\n",
      "  Message('note_on', channel=0, note=64, velocity=0, time=64),\n",
      "  Message('note_on', channel=0, note=69, velocity=84, time=0),\n",
      "  Message('note_on', channel=0, note=69, velocity=0, time=64),\n",
      "  Message('note_on', channel=0, note=71, velocity=83, time=0),\n",
      "  Message('note_on', channel=0, note=71, velocity=0, time=64),\n",
      "  Message('note_on', channel=0, note=59, velocity=0, time=0),\n",
      "  Message('note_on', channel=0, note=73, velocity=81, time=0),\n",
      "  Message('note_on', channel=0, note=50, velocity=68, time=0),\n",
      "  Message('note_on', channel=0, note=73, velocity=0, time=64),\n",
      "  Message('note_on', channel=0, note=64, velocity=60, time=0),\n",
      "  Message('note_on', channel=0, note=64, velocity=0, time=64),\n",
      "  Message('note_on', channel=0, note=50, velocity=0, time=0),\n",
      "  Message('note_on', channel=0, note=69, velocity=82, time=0),\n",
      "  Message('note_on', channel=0, note=64, velocity=91, time=0),\n",
      "  Message('note_on', channel=0, note=69, velocity=0, time=64),\n",
      "  Message('note_on', channel=0, note=71, velocity=85, time=0),\n",
      "  Message('note_on', channel=0, note=71, velocity=0, time=64),\n",
      "  Message('note_on', channel=0, note=73, velocity=83, time=0),\n",
      "  Message('note_on', channel=0, note=73, velocity=0, time=64),\n",
      "  Message('note_on', channel=0, note=64, velocity=63, time=0),\n",
      "  Message('note_on', channel=0, note=64, velocity=0, time=64),\n",
      "  Message('note_on', channel=0, note=64, velocity=0, time=0),\n",
      "  Message('note_on', channel=0, note=73, velocity=88, time=0),\n",
      "  Message('note_on', channel=0, note=64, velocity=86, time=0),\n",
      "  Message('note_on', channel=0, note=73, velocity=0, time=64),\n",
      "  Message('note_on', channel=0, note=74, velocity=82, time=0),\n",
      "  Message('note_on', channel=0, note=74, velocity=0, time=64),\n",
      "  Message('note_on', channel=0, note=64, velocity=0, time=0),\n",
      "  Message('note_on', channel=0, note=76, velocity=85, time=0),\n",
      "  Message('note_on', channel=0, note=45, velocity=66, time=0),\n",
      "  Message('note_on', channel=0, note=76, velocity=0, time=64),\n",
      "  Message('note_on', channel=0, note=64, velocity=60, time=0),\n",
      "  Message('note_on', channel=0, note=64, velocity=0, time=64),\n",
      "  Message('note_on', channel=0, note=45, velocity=0, time=0),\n",
      "  Message('note_on', channel=0, note=73, velocity=90, time=0),\n",
      "  Message('note_on', channel=0, note=52, velocity=83, time=0),\n",
      "  Message('note_on', channel=0, note=73, velocity=0, time=64),\n",
      "  Message('note_on', channel=0, note=74, velocity=82, time=0),\n",
      "  Message('note_on', channel=0, note=74, velocity=0, time=64),\n",
      "  Message('note_on', channel=0, note=52, velocity=0, time=0),\n",
      "  Message('note_on', channel=0, note=76, velocity=78, time=0),\n",
      "  Message('note_on', channel=0, note=61, velocity=94, time=0),\n",
      "  Message('note_on', channel=0, note=76, velocity=0, time=64),\n",
      "  Message('note_on', channel=0, note=64, velocity=57, time=0),\n",
      "  Message('note_on', channel=0, note=64, velocity=0, time=64),\n",
      "  Message('note_on', channel=0, note=61, velocity=0, time=0),\n",
      "  Message('note_on', channel=0, note=74, velocity=90, time=0),\n",
      "  Message('note_on', channel=0, note=45, velocity=67, time=0),\n",
      "  Message('note_on', channel=0, note=74, velocity=0, time=64),\n",
      "  Message('note_on', channel=0, note=73, velocity=75, time=0),\n",
      "  Message('note_on', channel=0, note=73, velocity=0, time=64),\n",
      "  Message('note_on', channel=0, note=45, velocity=0, time=0),\n",
      "  Message('note_on', channel=0, note=71, velocity=75, time=0),\n",
      "  Message('note_on', channel=0, note=52, velocity=79, time=0),\n",
      "  Message('note_on', channel=0, note=71, velocity=0, time=64),\n",
      "  Message('note_on', channel=0, note=64, velocity=61, time=0),\n",
      "  Message('note_on', channel=0, note=64, velocity=0, time=64),\n",
      "  Message('note_on', channel=0, note=52, velocity=0, time=0),\n",
      "  Message('note_on', channel=0, note=74, velocity=91, time=0),\n",
      "  Message('note_on', channel=0, note=59, velocity=87, time=0),\n",
      "  Message('note_on', channel=0, note=74, velocity=0, time=64),\n",
      "  Message('note_on', channel=0, note=73, velocity=75, time=0),\n",
      "  Message('note_on', channel=0, note=73, velocity=0, time=64),\n",
      "  Message('note_on', channel=0, note=59, velocity=0, time=0),\n",
      "  Message('note_on', channel=0, note=71, velocity=73, time=0),\n",
      "  Message('note_on', channel=0, note=64, velocity=84, time=0),\n",
      "  Message('note_on', channel=0, note=71, velocity=0, time=128),\n",
      "  Message('note_on', channel=0, note=68, velocity=68, time=0),\n",
      "  Message('note_on', channel=0, note=68, velocity=0, time=128),\n",
      "  Message('note_on', channel=0, note=64, velocity=0, time=0),\n",
      "  Message('note_on', channel=0, note=81, velocity=94, time=0),\n",
      "  Message('note_on', channel=0, note=54, velocity=66, time=0),\n",
      "  Message('note_on', channel=0, note=81, velocity=0, time=128),\n",
      "  Message('note_on', channel=0, note=54, velocity=0, time=0),\n",
      "  Message('note_on', channel=0, note=80, velocity=77, time=0),\n",
      "  Message('note_on', channel=0, note=61, velocity=90, time=0),\n",
      "  Message('note_on', channel=0, note=80, velocity=0, time=64),\n",
      "  Message('note_on', channel=0, note=81, velocity=78, time=0),\n",
      "  Message('note_on', channel=0, note=61, velocity=0, time=64),\n",
      "  Message('note_on', channel=0, note=66, velocity=88, time=0),\n",
      "  Message('note_on', channel=0, note=81, velocity=0, time=64),\n",
      "  Message('note_on', channel=0, note=69, velocity=52, time=0),\n",
      "  Message('note_on', channel=0, note=69, velocity=0, time=64),\n",
      "  Message('note_on', channel=0, note=66, velocity=0, time=0),\n",
      "  Message('note_on', channel=0, note=80, velocity=89, time=0),\n",
      "  Message('note_on', channel=0, note=54, velocity=67, time=0),\n",
      "  Message('note_on', channel=0, note=80, velocity=0, time=64),\n",
      "  Message('note_on', channel=0, note=81, velocity=82, time=0),\n",
      "  Message('note_on', channel=0, note=54, velocity=0, time=64),\n",
      "  Message('note_on', channel=0, note=50, velocity=67, time=0),\n",
      "  Message('note_on', channel=0, note=81, velocity=0, time=64),\n",
      "  Message('note_on', channel=0, note=69, velocity=55, time=0),\n",
      "  Message('note_on', channel=0, note=69, velocity=0, time=64),\n",
      "  Message('note_on', channel=0, note=50, velocity=0, time=0),\n",
      "  Message('note_on', channel=0, note=76, velocity=85, time=0),\n",
      "  Message('note_on', channel=0, note=57, velocity=79, time=0),\n",
      "  Message('note_on', channel=0, note=76, velocity=0, time=64),\n",
      "  Message('note_on', channel=0, note=81, velocity=87, time=0),\n",
      "  Message('note_on', channel=0, note=57, velocity=0, time=64),\n",
      "  Message('note_on', channel=0, note=64, velocity=91, time=0),\n",
      "  Message('note_on', channel=0, note=81, velocity=0, time=64),\n",
      "  Message('note_on', channel=0, note=69, velocity=56, time=0),\n",
      "  Message('note_on', channel=0, note=69, velocity=0, time=64),\n",
      "  Message('note_on', channel=0, note=64, velocity=0, time=0),\n",
      "  Message('note_on', channel=0, note=74, velocity=82, time=0),\n",
      "  Message('note_on', channel=0, note=50, velocity=70, time=0),\n",
      "  Message('note_on', channel=0, note=74, velocity=0, time=64),\n",
      "  Message('note_on', channel=0, note=69, velocity=68, time=0),\n",
      "  Message('note_on', channel=0, note=69, velocity=0, time=64),\n",
      "  Message('note_on', channel=0, note=50, velocity=0, time=0),\n",
      "  Message('note_on', channel=0, note=73, velocity=87, time=0),\n",
      "  Message('note_on', channel=0, note=45, velocity=69, time=0),\n",
      "  Message('note_on', channel=0, note=73, velocity=0, time=128),\n",
      "  Message('note_on', channel=0, note=45, velocity=0, time=0),\n",
      "  Message('note_on', channel=0, note=74, velocity=84, time=0),\n",
      "  Message('note_on', channel=0, note=52, velocity=84, time=0),\n",
      "  Message('note_on', channel=0, note=74, velocity=0, time=128),\n",
      "  Message('note_on', channel=0, note=52, velocity=0, time=0),\n",
      "  Message('note_on', channel=0, note=76, velocity=82, time=0),\n",
      "  Message('note_on', channel=0, note=61, velocity=94, time=0),\n",
      "  Message('note_on', channel=0, note=76, velocity=0, time=128),\n",
      "  Message('note_on', channel=0, note=61, velocity=0, time=0),\n",
      "  Message('note_on', channel=0, note=85, velocity=97, time=0),\n",
      "  Message('note_on', channel=0, note=45, velocity=70, time=0),\n",
      "  Message('note_on', channel=0, note=85, velocity=0, time=128),\n",
      "  Message('note_on', channel=0, note=45, velocity=0, time=0),\n",
      "  Message('note_on', channel=0, note=83, velocity=72, time=0),\n",
      "  Message('note_on', channel=0, note=52, velocity=82, time=0),\n",
      "  Message('note_on', channel=0, note=83, velocity=0, time=128),\n",
      "  Message('note_on', channel=0, note=52, velocity=0, time=0),\n",
      "  Message('note_on', channel=0, note=76, velocity=63, time=0),\n",
      "  Message('note_on', channel=0, note=59, velocity=87, time=0),\n",
      "  Message('note_on', channel=0, note=76, velocity=0, time=128),\n",
      "  Message('note_on', channel=0, note=59, velocity=0, time=0),\n",
      "  Message('note_on', channel=0, note=83, velocity=88, time=0),\n",
      "  Message('note_on', channel=0, note=64, velocity=82, time=0),\n",
      "  Message('note_on', channel=0, note=83, velocity=0, time=128),\n",
      "  Message('note_on', channel=0, note=64, velocity=0, time=0),\n",
      "  Message('note_on', channel=0, note=81, velocity=70, time=0),\n",
      "  Message('note_on', channel=0, note=52, velocity=70, time=0),\n",
      "  Message('note_on', channel=0, note=81, velocity=0, time=64),\n",
      "  Message('note_on', channel=0, note=80, velocity=74, time=0),\n",
      "  Message('note_on', channel=0, note=80, velocity=0, time=64),\n",
      "  Message('note_on', channel=0, note=52, velocity=0, time=0),\n",
      "  Message('note_on', channel=0, note=76, velocity=81, time=0),\n",
      "  Message('note_on', channel=0, note=81, velocity=81, time=0),\n",
      "  Message('note_on', channel=0, note=54, velocity=79, time=0),\n",
      "  Message('note_on', channel=0, note=54, velocity=0, time=128),\n",
      "  Message('note_on', channel=0, note=61, velocity=90, time=0),\n",
      "  Message('note_on', channel=0, note=61, velocity=0, time=128),\n",
      "  Message('note_on', channel=0, note=66, velocity=87, time=0),\n",
      "  Message('note_on', channel=0, note=76, velocity=0, time=128),\n",
      "  Message('note_on', channel=0, note=81, velocity=0, time=0),\n",
      "  Message('note_on', channel=0, note=69, velocity=58, time=0),\n",
      "  Message('note_on', channel=0, note=69, velocity=0, time=64),\n",
      "  Message('note_on', channel=0, note=71, velocity=77, time=0),\n",
      "  Message('note_on', channel=0, note=71, velocity=0, time=64),\n",
      "  Message('note_on', channel=0, note=66, velocity=0, time=0),\n",
      "  Message('note_on', channel=0, note=73, velocity=86, time=0),\n",
      "  Message('note_on', channel=0, note=50, velocity=64, time=0),\n",
      "  Message('note_on', channel=0, note=73, velocity=0, time=64),\n",
      "  Message('note_on', channel=0, note=64, velocity=56, time=0),\n",
      "  Message('note_on', channel=0, note=64, velocity=0, time=64),\n",
      "  Message('note_on', channel=0, note=50, velocity=0, time=0),\n",
      "  Message('note_on', channel=0, note=69, velocity=88, time=0),\n",
      "  Message('note_on', channel=0, note=57, velocity=82, time=0),\n",
      "  Message('note_on', channel=0, note=69, velocity=0, time=64),\n",
      "  Message('note_on', channel=0, note=71, velocity=79, time=0),\n",
      "  Message('note_on', channel=0, note=71, velocity=0, time=64),\n",
      "  Message('note_on', channel=0, note=57, velocity=0, time=0),\n",
      "  Message('note_on', channel=0, note=73, velocity=84, time=0),\n",
      "  Message('note_on', channel=0, note=64, velocity=94, time=0),\n",
      "  Message('note_on', channel=0, note=73, velocity=0, time=64),\n",
      "  Message('note_on', channel=0, note=64, velocity=59, time=0),\n",
      "  Message('note_on', channel=0, note=64, velocity=0, time=64),\n",
      "  Message('note_on', channel=0, note=64, velocity=0, time=0),\n",
      "  Message('note_on', channel=0, note=73, velocity=91, time=0),\n",
      "  Message('note_on', channel=0, note=50, velocity=69, time=0),\n",
      "  Message('note_on', channel=0, note=73, velocity=0, time=64),\n",
      "  Message('note_on', channel=0, note=74, velocity=81, time=0),\n",
      "  Message('note_on', channel=0, note=74, velocity=0, time=64),\n",
      "  Message('note_on', channel=0, note=50, velocity=0, time=0),\n",
      "  Message('note_on', channel=0, note=76, velocity=83, time=0),\n",
      "  Message('note_on', channel=0, note=45, velocity=71, time=0),\n",
      "  Message('note_on', channel=0, note=76, velocity=0, time=64),\n",
      "  Message('note_on', channel=0, note=64, velocity=57, time=0),\n",
      "  Message('note_on', channel=0, note=64, velocity=0, time=64),\n",
      "  Message('note_on', channel=0, note=45, velocity=0, time=0),\n",
      "  Message('note_on', channel=0, note=73, velocity=90, time=0),\n",
      "  Message('note_on', channel=0, note=52, velocity=84, time=0),\n",
      "  Message('note_on', channel=0, note=73, velocity=0, time=64),\n",
      "  Message('note_on', channel=0, note=74, velocity=82, time=0),\n",
      "  Message('note_on', channel=0, note=74, velocity=0, time=64),\n",
      "  Message('note_on', channel=0, note=52, velocity=0, time=0),\n",
      "  Message('note_on', channel=0, note=76, velocity=81, time=0),\n",
      "  Message('note_on', channel=0, note=61, velocity=92, time=0),\n",
      "  Message('note_on', channel=0, note=76, velocity=0, time=64),\n",
      "  Message('note_on', channel=0, note=64, velocity=54, time=0),\n",
      "  Message('note_on', channel=0, note=64, velocity=0, time=64),\n",
      "  Message('note_on', channel=0, note=61, velocity=0, time=0),\n",
      "  Message('note_on', channel=0, note=74, velocity=91, time=0),\n",
      "  Message('note_on', channel=0, note=45, velocity=68, time=0),\n",
      "  Message('note_on', channel=0, note=74, velocity=0, time=64),\n",
      "  Message('note_on', channel=0, note=73, velocity=75, time=0),\n",
      "  Message('note_on', channel=0, note=73, velocity=0, time=64),\n",
      "  Message('note_on', channel=0, note=45, velocity=0, time=0),\n",
      "  Message('note_on', channel=0, note=71, velocity=68, time=0),\n",
      "  Message('note_on', channel=0, note=40, velocity=68, time=0),\n",
      "  Message('note_on', channel=0, note=71, velocity=0, time=64),\n",
      "  Message('note_on', channel=0, note=64, velocity=61, time=0),\n",
      "  Message('note_on', channel=0, note=64, velocity=0, time=64),\n",
      "  Message('note_on', channel=0, note=40, velocity=0, time=0),\n",
      "  Message('note_on', channel=0, note=68, velocity=79, time=0),\n",
      "  Message('note_on', channel=0, note=47, velocity=83, time=0),\n",
      "  Message('note_on', channel=0, note=68, velocity=0, time=64),\n",
      "  Message('note_on', channel=0, note=71, velocity=81, time=0),\n",
      "  Message('note_on', channel=0, note=71, velocity=0, time=64),\n",
      "  Message('note_on', channel=0, note=47, velocity=0, time=0),\n",
      "  Message('note_on', channel=0, note=81, velocity=92, time=0),\n",
      "  Message('note_on', channel=0, note=56, velocity=80, time=0),\n",
      "  Message('note_on', channel=0, note=81, velocity=0, time=64),\n",
      "  Message('note_on', channel=0, note=83, velocity=81, time=0),\n",
      "  Message('note_on', channel=0, note=83, velocity=0, time=64),\n",
      "  Message('note_on', channel=0, note=56, velocity=0, time=0),\n",
      "  Message('note_on', channel=0, note=81, velocity=73, time=0),\n",
      "  Message('note_on', channel=0, note=40, velocity=70, time=0),\n",
      "  Message('note_on', channel=0, note=81, velocity=0, time=64),\n",
      "  Message('note_on', channel=0, note=80, velocity=68, time=0),\n",
      "  Message('note_on', channel=0, note=80, velocity=0, time=64),\n",
      "  Message('note_on', channel=0, note=40, velocity=0, time=0),\n",
      "  Message('note_on', channel=0, note=81, velocity=80, time=0),\n",
      "  Message('note_on', channel=0, note=42, velocity=76, time=0),\n",
      "  Message('note_on', channel=0, note=81, velocity=0, time=64),\n",
      "  Message('note_on', channel=0, note=69, velocity=53, time=0),\n",
      "  Message('note_on', channel=0, note=69, velocity=0, time=64),\n",
      "  Message('note_on', channel=0, note=42, velocity=0, time=0),\n",
      "  Message('note_on', channel=0, note=76, velocity=85, time=0),\n",
      "  Message('note_on', channel=0, note=49, velocity=84, time=0),\n",
      "  Message('note_on', channel=0, note=76, velocity=0, time=64),\n",
      "  Message('note_on', channel=0, note=69, velocity=64, time=0),\n",
      "  Message('note_on', channel=0, note=69, velocity=0, time=64),\n",
      "  Message('note_on', channel=0, note=49, velocity=0, time=0),\n",
      "  Message('note_on', channel=0, note=81, velocity=92, time=0),\n",
      "  Message('note_on', channel=0, note=54, velocity=84, time=0),\n",
      "  Message('note_on', channel=0, note=81, velocity=0, time=64),\n",
      "  Message('note_on', channel=0, note=81, velocity=82, time=0),\n",
      "  Message('note_on', channel=0, note=81, velocity=0, time=32),\n",
      "  Message('note_on', channel=0, note=83, velocity=82, time=0),\n",
      "  Message('note_on', channel=0, note=83, velocity=0, time=32),\n",
      "  Message('note_on', channel=0, note=54, velocity=0, time=0),\n",
      "  Message('note_on', channel=0, note=83, velocity=75, time=0),\n",
      "  Message('note_on', channel=0, note=42, velocity=68, time=0),\n",
      "  Message('note_on', channel=0, note=83, velocity=0, time=64),\n",
      "  Message('note_on', channel=0, note=80, velocity=73, time=0),\n",
      "  Message('note_on', channel=0, note=80, velocity=0, time=64),\n",
      "  Message('note_on', channel=0, note=42, velocity=0, time=0),\n",
      "  Message('note_on', channel=0, note=81, velocity=78, time=0),\n",
      "  Message('note_on', channel=0, note=50, velocity=81, time=0),\n",
      "  Message('note_on', channel=0, note=81, velocity=0, time=64),\n",
      "  Message('note_on', channel=0, note=69, velocity=55, time=0),\n",
      "  Message('note_on', channel=0, note=69, velocity=0, time=64),\n",
      "  Message('note_on', channel=0, note=50, velocity=0, time=0),\n",
      "  Message('note_on', channel=0, note=76, velocity=85, time=0),\n",
      "  Message('note_on', channel=0, note=57, velocity=86, time=0),\n",
      "  Message('note_on', channel=0, note=76, velocity=0, time=64),\n",
      "  Message('note_on', channel=0, note=69, velocity=64, time=0),\n",
      "  Message('note_on', channel=0, note=69, velocity=0, time=64),\n",
      "  Message('note_on', channel=0, note=57, velocity=0, time=0),\n",
      "  Message('note_on', channel=0, note=81, velocity=93, time=0),\n",
      "  Message('note_on', channel=0, note=62, velocity=92, time=0),\n",
      "  Message('note_on', channel=0, note=81, velocity=0, time=64),\n",
      "  Message('note_on', channel=0, note=81, velocity=82, time=0),\n",
      "  Message('note_on', channel=0, note=81, velocity=0, time=32),\n",
      "  Message('note_on', channel=0, note=83, velocity=82, time=0),\n",
      "  Message('note_on', channel=0, note=83, velocity=0, time=32),\n",
      "  Message('note_on', channel=0, note=62, velocity=0, time=0),\n",
      "  Message('note_on', channel=0, note=81, velocity=73, time=0),\n",
      "  Message('note_on', channel=0, note=50, velocity=63, time=0),\n",
      "  Message('note_on', channel=0, note=81, velocity=0, time=64),\n",
      "  Message('note_on', channel=0, note=80, velocity=74, time=0),\n",
      "  Message('note_on', channel=0, note=80, velocity=0, time=64),\n",
      "  Message('note_on', channel=0, note=50, velocity=0, time=0),\n",
      "  Message('note_on', channel=0, note=81, velocity=76, time=0),\n",
      "  Message('note_on', channel=0, note=45, velocity=72, time=0),\n",
      "  Message('note_on', channel=0, note=81, velocity=0, time=64),\n",
      "  Message('note_on', channel=0, note=83, velocity=86, time=0),\n",
      "  Message('note_on', channel=0, note=83, velocity=0, time=64),\n",
      "  Message('note_on', channel=0, note=45, velocity=0, time=0),\n",
      "  Message('note_on', channel=0, note=85, velocity=81, time=0),\n",
      "  Message('note_on', channel=0, note=52, velocity=80, time=0),\n",
      "  Message('note_on', channel=0, note=85, velocity=0, time=64),\n",
      "  Message('note_on', channel=0, note=86, velocity=80, time=0),\n",
      "  Message('note_on', channel=0, note=86, velocity=0, time=64),\n",
      "  Message('note_on', channel=0, note=52, velocity=0, time=0),\n",
      "  Message('note_on', channel=0, note=88, velocity=83, time=0),\n",
      "  Message('note_on', channel=0, note=59, velocity=86, time=0),\n",
      "  Message('note_on', channel=0, note=88, velocity=0, time=64),\n",
      "  Message('note_on', channel=0, note=85, velocity=72, time=0),\n",
      "  Message('note_on', channel=0, note=85, velocity=0, time=64),\n",
      "  Message('note_on', channel=0, note=59, velocity=0, time=0),\n",
      "  Message('note_on', channel=0, note=83, velocity=70, time=0),\n",
      "  Message('note_on', channel=0, note=45, velocity=71, time=0),\n",
      "  Message('note_on', channel=0, note=83, velocity=0, time=64),\n",
      "  Message('note_on', channel=0, note=81, velocity=66, time=0),\n",
      "  Message('note_on', channel=0, note=81, velocity=0, time=64),\n",
      "  Message('note_on', channel=0, note=45, velocity=0, time=0),\n",
      "  Message('note_on', channel=0, note=80, velocity=77, time=0),\n",
      "  Message('note_on', channel=0, note=42, velocity=72, time=0),\n",
      "  Message('note_on', channel=0, note=80, velocity=0, time=64),\n",
      "  Message('note_on', channel=0, note=71, velocity=57, time=0),\n",
      "  Message('note_on', channel=0, note=71, velocity=0, time=64),\n",
      "  Message('note_on', channel=0, note=42, velocity=0, time=0),\n",
      "  Message('note_on', channel=0, note=76, velocity=81, time=0),\n",
      "  Message('note_on', channel=0, note=47, velocity=82, time=0),\n",
      "  Message('note_on', channel=0, note=76, velocity=0, time=64),\n",
      "  Message('note_on', channel=0, note=71, velocity=64, time=0),\n",
      "  Message('note_on', channel=0, note=71, velocity=0, time=64),\n",
      "  Message('note_on', channel=0, note=47, velocity=0, time=0),\n",
      "  Message('note_on', channel=0, note=81, velocity=95, time=0),\n",
      "  Message('note_on', channel=0, note=56, velocity=83, time=0),\n",
      "  Message('note_on', channel=0, note=81, velocity=0, time=64),\n",
      "  Message('note_on', channel=0, note=81, velocity=80, time=0),\n",
      "  Message('note_on', channel=0, note=81, velocity=0, time=32),\n",
      "  Message('note_on', channel=0, note=83, velocity=79, time=0),\n",
      "  Message('note_on', channel=0, note=83, velocity=0, time=32),\n",
      "  Message('note_on', channel=0, note=56, velocity=0, time=0),\n",
      "  Message('note_on', channel=0, note=81, velocity=76, time=0),\n",
      "  Message('note_on', channel=0, note=42, velocity=64, time=0),\n",
      "  Message('note_on', channel=0, note=81, velocity=0, time=64),\n",
      "  Message('note_on', channel=0, note=80, velocity=70, time=0),\n",
      "  Message('note_on', channel=0, note=80, velocity=0, time=64),\n",
      "  Message('note_on', channel=0, note=42, velocity=0, time=0),\n",
      "  Message('note_on', channel=0, note=81, velocity=79, time=0),\n",
      "  Message('note_on', channel=0, note=42, velocity=76, time=0),\n",
      "  Message('note_on', channel=0, note=81, velocity=0, time=64),\n",
      "  Message('note_on', channel=0, note=69, velocity=55, time=0),\n",
      "  Message('note_on', channel=0, note=69, velocity=0, time=64),\n",
      "  Message('note_on', channel=0, note=42, velocity=0, time=0),\n",
      "  Message('note_on', channel=0, note=76, velocity=82, time=0),\n",
      "  Message('note_on', channel=0, note=49, velocity=81, time=0),\n",
      "  Message('note_on', channel=0, note=76, velocity=0, time=64),\n",
      "  Message('note_on', channel=0, note=69, velocity=65, time=0),\n",
      "  Message('note_on', channel=0, note=69, velocity=0, time=64),\n",
      "  Message('note_on', channel=0, note=49, velocity=0, time=0),\n",
      "  Message('note_on', channel=0, note=81, velocity=95, time=0),\n",
      "  Message('note_on', channel=0, note=54, velocity=84, time=0),\n",
      "  Message('note_on', channel=0, note=81, velocity=0, time=64),\n",
      "  Message('note_on', channel=0, note=81, velocity=75, time=0),\n",
      "  Message('note_on', channel=0, note=81, velocity=0, time=32),\n",
      "  Message('note_on', channel=0, note=83, velocity=83, time=0),\n",
      "  Message('note_on', channel=0, note=83, velocity=0, time=32),\n",
      "  Message('note_on', channel=0, note=54, velocity=0, time=0),\n",
      "  Message('note_on', channel=0, note=83, velocity=79, time=0),\n",
      "  Message('note_on', channel=0, note=42, velocity=66, time=0),\n",
      "  Message('note_on', channel=0, note=83, velocity=0, time=64),\n",
      "  Message('note_on', channel=0, note=80, velocity=72, time=0),\n",
      "  Message('note_on', channel=0, note=80, velocity=0, time=64),\n",
      "  Message('note_on', channel=0, note=42, velocity=0, time=0),\n",
      "  Message('note_on', channel=0, note=81, velocity=79, time=0),\n",
      "  Message('note_on', channel=0, note=50, velocity=81, time=0),\n",
      "  Message('note_on', channel=0, note=81, velocity=0, time=64),\n",
      "  Message('note_on', channel=0, note=69, velocity=54, time=0),\n",
      "  Message('note_on', channel=0, note=69, velocity=0, time=64),\n",
      "  Message('note_on', channel=0, note=50, velocity=0, time=0),\n",
      "  Message('note_on', channel=0, note=76, velocity=87, time=0),\n",
      "  Message('note_on', channel=0, note=57, velocity=81, time=0),\n",
      "  Message('note_on', channel=0, note=76, velocity=0, time=64),\n",
      "  Message('note_on', channel=0, note=69, velocity=63, time=0),\n",
      "  Message('note_on', channel=0, note=69, velocity=0, time=64),\n",
      "  Message('note_on', channel=0, note=57, velocity=0, time=0),\n",
      "  Message('note_on', channel=0, note=81, velocity=96, time=0),\n",
      "  Message('note_on', channel=0, note=62, velocity=90, time=0),\n",
      "  Message('note_on', channel=0, note=81, velocity=0, time=64),\n",
      "  Message('note_on', channel=0, note=81, velocity=81, time=0),\n",
      "  Message('note_on', channel=0, note=81, velocity=0, time=32),\n",
      "  Message('note_on', channel=0, note=83, velocity=79, time=0),\n",
      "  Message('note_on', channel=0, note=83, velocity=0, time=32),\n",
      "  Message('note_on', channel=0, note=62, velocity=0, time=0),\n",
      "  Message('note_on', channel=0, note=81, velocity=74, time=0),\n",
      "  Message('note_on', channel=0, note=50, velocity=66, time=0),\n",
      "  Message('note_on', channel=0, note=81, velocity=0, time=64),\n",
      "  Message('note_on', channel=0, note=80, velocity=73, time=0),\n",
      "  Message('note_on', channel=0, note=80, velocity=0, time=64),\n",
      "  Message('note_on', channel=0, note=50, velocity=0, time=0),\n",
      "  Message('note_on', channel=0, note=81, velocity=77, time=0),\n",
      "  Message('note_on', channel=0, note=45, velocity=71, time=0),\n",
      "  Message('note_on', channel=0, note=81, velocity=0, time=64),\n",
      "  Message('note_on', channel=0, note=83, velocity=80, time=0),\n",
      "  Message('note_on', channel=0, note=83, velocity=0, time=64),\n",
      "  Message('note_on', channel=0, note=45, velocity=0, time=0),\n",
      "  Message('note_on', channel=0, note=85, velocity=79, time=0),\n",
      "  Message('note_on', channel=0, note=52, velocity=79, time=0),\n",
      "  Message('note_on', channel=0, note=85, velocity=0, time=64),\n",
      "  Message('note_on', channel=0, note=86, velocity=83, time=0),\n",
      "  Message('note_on', channel=0, note=86, velocity=0, time=64),\n",
      "  Message('note_on', channel=0, note=52, velocity=0, time=0),\n",
      "  Message('note_on', channel=0, note=88, velocity=81, time=0),\n",
      "  Message('note_on', channel=0, note=59, velocity=87, time=0),\n",
      "  Message('note_on', channel=0, note=88, velocity=0, time=64),\n",
      "  Message('note_on', channel=0, note=85, velocity=67, time=0),\n",
      "  Message('note_on', channel=0, note=85, velocity=0, time=64),\n",
      "  Message('note_on', channel=0, note=59, velocity=0, time=0),\n",
      "  Message('note_on', channel=0, note=83, velocity=66, time=0),\n",
      "  Message('note_on', channel=0, note=45, velocity=68, time=0),\n",
      "  Message('note_on', channel=0, note=83, velocity=0, time=64),\n",
      "  Message('note_on', channel=0, note=81, velocity=71, time=0),\n",
      "  Message('note_on', channel=0, note=81, velocity=0, time=64),\n",
      "  Message('note_on', channel=0, note=45, velocity=0, time=0),\n",
      "  Message('note_on', channel=0, note=80, velocity=70, time=0),\n",
      "  Message('note_on', channel=0, note=42, velocity=72, time=0),\n",
      "  Message('note_on', channel=0, note=80, velocity=0, time=64),\n",
      "  Message('note_on', channel=0, note=71, velocity=61, time=0),\n",
      "  Message('note_on', channel=0, note=71, velocity=0, time=64),\n",
      "  Message('note_on', channel=0, note=42, velocity=0, time=0),\n",
      "  Message('note_on', channel=0, note=76, velocity=87, time=0),\n",
      "  Message('note_on', channel=0, note=47, velocity=84, time=0),\n",
      "  Message('note_on', channel=0, note=76, velocity=0, time=64),\n",
      "  Message('note_on', channel=0, note=71, velocity=67, time=0),\n",
      "  Message('note_on', channel=0, note=71, velocity=0, time=64),\n",
      "  Message('note_on', channel=0, note=47, velocity=0, time=0),\n",
      "  Message('note_on', channel=0, note=81, velocity=91, time=0),\n",
      "  Message('note_on', channel=0, note=56, velocity=87, time=0),\n",
      "  Message('note_on', channel=0, note=81, velocity=0, time=64),\n",
      "  Message('note_on', channel=0, note=81, velocity=79, time=0),\n",
      "  Message('note_on', channel=0, note=81, velocity=0, time=32),\n",
      "  Message('note_on', channel=0, note=83, velocity=80, time=0),\n",
      "  Message('note_on', channel=0, note=83, velocity=0, time=32),\n",
      "  Message('note_on', channel=0, note=56, velocity=0, time=0),\n",
      "  Message('note_on', channel=0, note=81, velocity=72, time=0),\n",
      "  Message('note_on', channel=0, note=42, velocity=67, time=0),\n",
      "  Message('note_on', channel=0, note=81, velocity=0, time=64),\n",
      "  Message('note_on', channel=0, note=80, velocity=70, time=0),\n",
      "  Message('note_on', channel=0, note=80, velocity=0, time=64),\n",
      "  Message('note_on', channel=0, note=42, velocity=0, time=0),\n",
      "  Message('note_on', channel=0, note=81, velocity=79, time=0),\n",
      "  Message('note_on', channel=0, note=42, velocity=77, time=0),\n",
      "  Message('note_on', channel=0, note=81, velocity=0, time=64),\n",
      "  Message('note_on', channel=0, note=69, velocity=54, time=0),\n",
      "  Message('note_on', channel=0, note=69, velocity=0, time=64),\n",
      "  Message('note_on', channel=0, note=42, velocity=0, time=0),\n",
      "  Message('note_on', channel=0, note=76, velocity=83, time=0),\n",
      "  Message('note_on', channel=0, note=49, velocity=81, time=0),\n",
      "  Message('note_on', channel=0, note=76, velocity=0, time=64),\n",
      "  Message('note_on', channel=0, note=69, velocity=69, time=0),\n",
      "  Message('note_on', channel=0, note=69, velocity=0, time=64),\n",
      "  Message('note_on', channel=0, note=49, velocity=0, time=0),\n",
      "  Message('note_on', channel=0, note=81, velocity=92, time=0),\n",
      "  Message('note_on', channel=0, note=54, velocity=83, time=0),\n",
      "  Message('note_on', channel=0, note=81, velocity=0, time=64),\n",
      "  Message('note_on', channel=0, note=83, velocity=83, time=0),\n",
      "  Message('note_on', channel=0, note=83, velocity=0, time=64),\n",
      "  Message('note_on', channel=0, note=54, velocity=0, time=0),\n",
      "  Message('note_on', channel=0, note=81, velocity=72, time=0),\n",
      "  Message('note_on', channel=0, note=42, velocity=69, time=0),\n",
      "  Message('note_on', channel=0, note=81, velocity=0, time=64),\n",
      "  Message('note_on', channel=0, note=80, velocity=74, time=0),\n",
      "  Message('note_on', channel=0, note=80, velocity=0, time=64),\n",
      "  Message('note_on', channel=0, note=42, velocity=0, time=0),\n",
      "  Message('note_on', channel=0, note=81, velocity=79, time=0),\n",
      "  Message('note_on', channel=0, note=50, velocity=81, time=0),\n",
      "  Message('note_on', channel=0, note=81, velocity=0, time=64),\n",
      "  Message('note_on', channel=0, note=69, velocity=57, time=0),\n",
      "  Message('note_on', channel=0, note=69, velocity=0, time=64),\n",
      "  Message('note_on', channel=0, note=50, velocity=0, time=0),\n",
      "  Message('note_on', channel=0, note=76, velocity=86, time=0),\n",
      "  Message('note_on', channel=0, note=57, velocity=79, time=0),\n",
      "  Message('note_on', channel=0, note=76, velocity=0, time=64),\n",
      "  Message('note_on', channel=0, note=69, velocity=61, time=0),\n",
      "  Message('note_on', channel=0, note=69, velocity=0, time=64),\n",
      "  Message('note_on', channel=0, note=57, velocity=0, time=0),\n",
      "  Message('note_on', channel=0, note=81, velocity=94, time=0),\n",
      "  Message('note_on', channel=0, note=62, velocity=92, time=0),\n",
      "  Message('note_on', channel=0, note=81, velocity=0, time=64),\n",
      "  Message('note_on', channel=0, note=83, velocity=84, time=0),\n",
      "  Message('note_on', channel=0, note=83, velocity=0, time=64),\n",
      "  Message('note_on', channel=0, note=62, velocity=0, time=0),\n",
      "  Message('note_on', channel=0, note=81, velocity=71, time=0),\n",
      "  Message('note_on', channel=0, note=50, velocity=69, time=0),\n",
      "  Message('note_on', channel=0, note=81, velocity=0, time=64),\n",
      "  Message('note_on', channel=0, note=80, velocity=71, time=0),\n",
      "  Message('note_on', channel=0, note=80, velocity=0, time=64),\n",
      "  Message('note_on', channel=0, note=50, velocity=0, time=0),\n",
      "  Message('note_on', channel=0, note=81, velocity=78, time=0),\n",
      "  Message('note_on', channel=0, note=45, velocity=67, time=0),\n",
      "  Message('note_on', channel=0, note=81, velocity=0, time=64),\n",
      "  Message('note_on', channel=0, note=83, velocity=80, time=0),\n",
      "  Message('note_on', channel=0, note=83, velocity=0, time=64),\n",
      "  Message('note_on', channel=0, note=45, velocity=0, time=0),\n",
      "  Message('note_on', channel=0, note=85, velocity=77, time=0),\n",
      "  Message('note_on', channel=0, note=52, velocity=85, time=0),\n",
      "  Message('note_on', channel=0, note=85, velocity=0, time=64),\n",
      "  Message('note_on', channel=0, note=86, velocity=79, time=0),\n",
      "  Message('note_on', channel=0, note=86, velocity=0, time=64),\n",
      "  Message('note_on', channel=0, note=52, velocity=0, time=0),\n",
      "  Message('note_on', channel=0, note=88, velocity=80, time=0),\n",
      "  Message('note_on', channel=0, note=59, velocity=85, time=0),\n",
      "  Message('note_on', channel=0, note=88, velocity=0, time=64),\n",
      "  Message('note_on', channel=0, note=85, velocity=65, time=0),\n",
      "  Message('note_on', channel=0, note=85, velocity=0, time=64),\n",
      "  Message('note_on', channel=0, note=59, velocity=0, time=0),\n",
      "  Message('note_on', channel=0, note=83, velocity=69, time=0),\n",
      "  Message('note_on', channel=0, note=45, velocity=71, time=0),\n",
      "  Message('note_on', channel=0, note=83, velocity=0, time=64),\n",
      "  Message('note_on', channel=0, note=81, velocity=71, time=0),\n",
      "  Message('note_on', channel=0, note=81, velocity=0, time=64),\n",
      "  Message('note_on', channel=0, note=45, velocity=0, time=0),\n",
      "  Message('note_on', channel=0, note=80, velocity=73, time=0),\n",
      "  Message('note_on', channel=0, note=42, velocity=71, time=0),\n",
      "  Message('note_on', channel=0, note=80, velocity=0, time=128),\n",
      "  Message('note_on', channel=0, note=42, velocity=0, time=0),\n",
      "  Message('note_on', channel=0, note=71, velocity=56, time=0),\n",
      "  Message('note_on', channel=0, note=47, velocity=85, time=0),\n",
      "  Message('note_on', channel=0, note=71, velocity=0, time=128),\n",
      "  Message('note_on', channel=0, note=47, velocity=0, time=0),\n",
      "  Message('note_on', channel=0, note=81, velocity=93, time=0),\n",
      "  Message('note_on', channel=0, note=56, velocity=87, time=0),\n",
      "  Message('note_on', channel=0, note=81, velocity=0, time=64),\n",
      "  Message('note_on', channel=0, note=81, velocity=78, time=0),\n",
      "  Message('note_on', channel=0, note=81, velocity=0, time=32),\n",
      "  Message('note_on', channel=0, note=83, velocity=80, time=0),\n",
      "  Message('note_on', channel=0, note=83, velocity=0, time=32),\n",
      "  Message('note_on', channel=0, note=56, velocity=0, time=0),\n",
      "  Message('note_on', channel=0, note=83, velocity=75, time=0),\n",
      "  Message('note_on', channel=0, note=42, velocity=67, time=0),\n",
      "  Message('note_on', channel=0, note=83, velocity=0, time=64),\n",
      "  Message('note_on', channel=0, note=80, velocity=68, time=0),\n",
      "  Message('note_on', channel=0, note=80, velocity=0, time=64),\n",
      "  Message('note_on', channel=0, note=42, velocity=0, time=0),\n",
      "  Message('note_on', channel=0, note=81, velocity=81, time=0),\n",
      "  Message('note_on', channel=0, note=42, velocity=75, time=0),\n",
      "  Message('note_on', channel=0, note=81, velocity=0, time=64),\n",
      "  Message('note_on', channel=0, note=69, velocity=57, time=0),\n",
      "  Message('note_on', channel=0, note=69, velocity=0, time=64),\n",
      "  Message('note_on', channel=0, note=42, velocity=0, time=0),\n",
      "  Message('note_on', channel=0, note=76, velocity=84, time=0),\n",
      "  Message('note_on', channel=0, note=49, velocity=80, time=0),\n",
      "  Message('note_on', channel=0, note=76, velocity=0, time=64),\n",
      "  Message('note_on', channel=0, note=69, velocity=64, time=0),\n",
      "  Message('note_on', channel=0, note=69, velocity=0, time=64),\n",
      "  Message('note_on', channel=0, note=49, velocity=0, time=0),\n",
      "  Message('note_on', channel=0, note=81, velocity=94, time=0),\n",
      "  Message('note_on', channel=0, note=54, velocity=83, time=0),\n",
      "  Message('note_on', channel=0, note=81, velocity=0, time=64),\n",
      "  Message('note_on', channel=0, note=81, velocity=77, time=0),\n",
      "  Message('note_on', channel=0, note=81, velocity=0, time=32),\n",
      "  Message('note_on', channel=0, note=83, velocity=83, time=0),\n",
      "  Message('note_on', channel=0, note=83, velocity=0, time=32),\n",
      "  Message('note_on', channel=0, note=54, velocity=0, time=0),\n",
      "  Message('note_on', channel=0, note=81, velocity=69, time=0),\n",
      "  Message('note_on', channel=0, note=42, velocity=65, time=0),\n",
      "  Message('note_on', channel=0, note=81, velocity=0, time=64),\n",
      "  Message('note_on', channel=0, note=80, velocity=72, time=0),\n",
      "  Message('note_on', channel=0, note=80, velocity=0, time=64),\n",
      "  Message('note_on', channel=0, note=42, velocity=0, time=0),\n",
      "  Message('note_on', channel=0, note=81, velocity=79, time=0),\n",
      "  Message('note_on', channel=0, note=50, velocity=82, time=0),\n",
      "  Message('note_on', channel=0, note=81, velocity=0, time=64),\n",
      "  Message('note_on', channel=0, note=69, velocity=57, time=0),\n",
      "  Message('note_on', channel=0, note=69, velocity=0, time=64),\n",
      "  Message('note_on', channel=0, note=50, velocity=0, time=0),\n",
      "  Message('note_on', channel=0, note=76, velocity=90, time=0),\n",
      "  Message('note_on', channel=0, note=57, velocity=84, time=0),\n",
      "  Message('note_on', channel=0, note=76, velocity=0, time=64),\n",
      "  Message('note_on', channel=0, note=69, velocity=60, time=0),\n",
      "  Message('note_on', channel=0, note=69, velocity=0, time=64),\n",
      "  Message('note_on', channel=0, note=57, velocity=0, time=0),\n",
      "  Message('note_on', channel=0, note=81, velocity=95, time=0),\n",
      "  Message('note_on', channel=0, note=64, velocity=91, time=0),\n",
      "  Message('note_on', channel=0, note=81, velocity=0, time=64),\n",
      "  Message('note_on', channel=0, note=81, velocity=80, time=0),\n",
      "  Message('note_on', channel=0, note=81, velocity=0, time=32),\n",
      "  Message('note_on', channel=0, note=83, velocity=83, time=0),\n",
      "  Message('note_on', channel=0, note=83, velocity=0, time=32),\n",
      "  Message('note_on', channel=0, note=64, velocity=0, time=0),\n",
      "  Message('note_on', channel=0, note=81, velocity=72, time=0),\n",
      "  Message('note_on', channel=0, note=50, velocity=67, time=0),\n",
      "  Message('note_on', channel=0, note=81, velocity=0, time=64),\n",
      "  Message('note_on', channel=0, note=80, velocity=78, time=0),\n",
      "  Message('note_on', channel=0, note=80, velocity=0, time=64),\n",
      "  Message('note_on', channel=0, note=50, velocity=0, time=0),\n",
      "  Message('note_on', channel=0, note=81, velocity=80, time=0),\n",
      "  Message('note_on', channel=0, note=45, velocity=69, time=0),\n",
      "  Message('note_on', channel=0, note=81, velocity=0, time=64),\n",
      "  Message('note_on', channel=0, note=83, velocity=79, time=0),\n",
      "  Message('note_on', channel=0, note=83, velocity=0, time=64),\n",
      "  Message('note_on', channel=0, note=45, velocity=0, time=0),\n",
      "  Message('note_on', channel=0, note=85, velocity=83, time=0),\n",
      "  Message('note_on', channel=0, note=52, velocity=81, time=0),\n",
      "  Message('note_on', channel=0, note=85, velocity=0, time=64),\n",
      "  Message('note_on', channel=0, note=86, velocity=81, time=0),\n",
      "  Message('note_on', channel=0, note=86, velocity=0, time=64),\n",
      "  Message('note_on', channel=0, note=52, velocity=0, time=0),\n",
      "  Message('note_on', channel=0, note=88, velocity=84, time=0),\n",
      "  Message('note_on', channel=0, note=61, velocity=92, time=0),\n",
      "  Message('note_on', channel=0, note=88, velocity=0, time=64),\n",
      "  Message('note_on', channel=0, note=85, velocity=68, time=0),\n",
      "  Message('note_on', channel=0, note=85, velocity=0, time=64),\n",
      "  Message('note_on', channel=0, note=61, velocity=0, time=0),\n",
      "  Message('note_on', channel=0, note=83, velocity=76, time=0),\n",
      "  Message('note_on', channel=0, note=45, velocity=65, time=0),\n",
      "  Message('note_on', channel=0, note=83, velocity=0, time=64),\n",
      "  Message('note_on', channel=0, note=81, velocity=71, time=0),\n",
      "  Message('note_on', channel=0, note=81, velocity=0, time=64),\n",
      "  Message('note_on', channel=0, note=45, velocity=0, time=0),\n",
      "  Message('note_on', channel=0, note=80, velocity=70, time=0),\n",
      "  Message('note_on', channel=0, note=40, velocity=70, time=0),\n",
      "  Message('note_on', channel=0, note=80, velocity=0, time=128),\n",
      "  Message('note_on', channel=0, note=40, velocity=0, time=0),\n",
      "  Message('note_on', channel=0, note=74, velocity=69, time=0),\n",
      "  Message('note_on', channel=0, note=47, velocity=82, time=0),\n",
      "  Message('note_on', channel=0, note=74, velocity=0, time=128),\n",
      "  Message('note_on', channel=0, note=47, velocity=0, time=0),\n",
      "  Message('note_on', channel=0, note=68, velocity=61, time=0),\n",
      "  Message('note_on', channel=0, note=56, velocity=88, time=0),\n",
      "  Message('note_on', channel=0, note=68, velocity=0, time=128),\n",
      "  Message('note_on', channel=0, note=64, velocity=66, time=0),\n",
      "  Message('note_on', channel=0, note=64, velocity=0, time=128),\n",
      "  Message('note_on', channel=0, note=56, velocity=0, time=0),\n",
      "  Message('note_on', channel=0, note=81, velocity=98, time=0),\n",
      "  Message('note_on', channel=0, note=54, velocity=87, time=0),\n",
      "  Message('note_on', channel=0, note=61, velocity=87, time=0),\n",
      "  Message('note_on', channel=0, note=81, velocity=0, time=128),\n",
      "  Message('note_on', channel=0, note=80, velocity=79, time=0),\n",
      "  Message('note_on', channel=0, note=80, velocity=0, time=128),\n",
      "  Message('note_on', channel=0, note=81, velocity=77, time=0),\n",
      "  Message('note_on', channel=0, note=81, velocity=0, time=128),\n",
      "  Message('note_on', channel=0, note=80, velocity=71, time=0),\n",
      "  Message('note_on', channel=0, note=80, velocity=0, time=128),\n",
      "  Message('note_on', channel=0, note=54, velocity=0, time=0),\n",
      "  Message('note_on', channel=0, note=61, velocity=0, time=0),\n",
      "  Message('note_on', channel=0, note=73, velocity=77, time=0),\n",
      "  Message('note_on', channel=0, note=80, velocity=77, time=0),\n",
      "  Message('note_on', channel=0, note=54, velocity=71, time=0),\n",
      "  Message('note_on', channel=0, note=73, velocity=0, time=128),\n",
      "  Message('note_on', channel=0, note=80, velocity=0, time=0),\n",
      "  Message('note_on', channel=0, note=54, velocity=0, time=0),\n",
      "  Message('note_on', channel=0, note=76, velocity=66, time=0),\n",
      "  Message('note_on', channel=0, note=62, velocity=93, time=0),\n",
      "  Message('note_on', channel=0, note=76, velocity=0, time=128),\n",
      "  Message('note_on', channel=0, note=62, velocity=0, time=0),\n",
      "  Message('note_on', channel=0, note=81, velocity=88, time=0),\n",
      "  Message('note_on', channel=0, note=66, velocity=89, time=0),\n",
      "  Message('note_on', channel=0, note=81, velocity=0, time=128),\n",
      "  Message('note_on', channel=0, note=66, velocity=0, time=0),\n",
      "  Message('note_on', channel=0, note=74, velocity=64, time=0),\n",
      "  Message('note_on', channel=0, note=54, velocity=69, time=0),\n",
      "  Message('note_on', channel=0, note=74, velocity=0, time=128),\n",
      "  Message('note_on', channel=0, note=54, velocity=0, time=0),\n",
      "  Message('note_on', channel=0, note=73, velocity=72, time=0),\n",
      "  Message('note_on', channel=0, note=52, velocity=74, time=0),\n",
      "  Message('note_on', channel=0, note=73, velocity=0, time=128),\n",
      "  Message('note_on', channel=0, note=52, velocity=0, time=0),\n",
      "  Message('note_on', channel=0, note=74, velocity=80, time=0),\n",
      "  Message('note_on', channel=0, note=61, velocity=98, time=0),\n",
      "  Message('note_on', channel=0, note=74, velocity=0, time=128),\n",
      "  Message('note_on', channel=0, note=61, velocity=0, time=0),\n",
      "  Message('note_on', channel=0, note=76, velocity=85, time=0),\n",
      "  Message('note_on', channel=0, note=69, velocity=96, time=0),\n",
      "  Message('note_on', channel=0, note=76, velocity=0, time=128),\n",
      "  Message('note_on', channel=0, note=69, velocity=0, time=0),\n",
      "  Message('note_on', channel=0, note=73, velocity=75, time=0),\n",
      "  Message('note_on', channel=0, note=73, velocity=0, time=128),\n",
      "  Message('note_on', channel=0, note=71, velocity=71, time=0),\n",
      "  Message('note_on', channel=0, note=64, velocity=70, time=0),\n",
      "  Message('note_on', channel=0, note=68, velocity=70, time=0),\n",
      "  Message('note_on', channel=0, note=71, velocity=0, time=256),\n",
      "  Message('note_on', channel=0, note=69, velocity=71, time=0),\n",
      "  Message('note_on', channel=0, note=69, velocity=0, time=128),\n",
      "  Message('note_on', channel=0, note=68, velocity=71, time=0),\n",
      "  Message('note_on', channel=0, note=68, velocity=0, time=128),\n",
      "  Message('note_on', channel=0, note=64, velocity=0, time=0),\n",
      "  Message('note_on', channel=0, note=68, velocity=0, time=0),\n",
      "  Message('note_on', channel=0, note=61, velocity=82, time=0),\n",
      "  Message('note_on', channel=0, note=64, velocity=82, time=0),\n",
      "  Message('note_on', channel=0, note=69, velocity=82, time=0),\n",
      "  Message('note_on', channel=0, note=42, velocity=63, time=0),\n",
      "  Message('note_on', channel=0, note=42, velocity=0, time=128),\n",
      "  Message('note_on', channel=0, note=49, velocity=80, time=0),\n",
      "  Message('note_on', channel=0, note=61, velocity=0, time=128),\n",
      "  Message('note_on', channel=0, note=64, velocity=0, time=0),\n",
      "  Message('note_on', channel=0, note=69, velocity=0, time=0),\n",
      "  Message('note_on', channel=0, note=64, velocity=70, time=0),\n",
      "  Message('note_on', channel=0, note=64, velocity=0, time=128),\n",
      "  Message('note_on', channel=0, note=69, velocity=88, time=0),\n",
      "  Message('note_on', channel=0, note=69, velocity=0, time=64),\n",
      "  Message('note_on', channel=0, note=71, velocity=82, time=0),\n",
      "  Message('note_on', channel=0, note=71, velocity=0, time=64),\n",
      "  Message('note_on', channel=0, note=49, velocity=0, time=0),\n",
      "  Message('note_on', channel=0, note=73, velocity=80, time=0),\n",
      "  Message('note_on', channel=0, note=50, velocity=78, time=0),\n",
      "  Message('note_on', channel=0, note=73, velocity=0, time=128),\n",
      "  Message('note_on', channel=0, note=50, velocity=0, time=0),\n",
      "  Message('note_on', channel=0, note=64, velocity=61, time=0),\n",
      "  Message('note_on', channel=0, note=57, velocity=85, time=0),\n",
      "  Message('note_on', channel=0, note=64, velocity=0, time=128),\n",
      "  Message('note_on', channel=0, note=57, velocity=0, time=0),\n",
      "  Message('note_on', channel=0, note=69, velocity=86, time=0),\n",
      "  Message('note_on', channel=0, note=66, velocity=93, time=0),\n",
      "  Message('note_on', channel=0, note=69, velocity=0, time=128),\n",
      "  Message('note_on', channel=0, note=73, velocity=87, time=0),\n",
      "  Message('note_on', channel=0, note=73, velocity=0, time=64),\n",
      "  Message('note_on', channel=0, note=74, velocity=77, time=0),\n",
      "  Message('note_on', channel=0, note=74, velocity=0, time=64),\n",
      "  Message('note_on', channel=0, note=66, velocity=0, time=0),\n",
      "  Message('note_on', channel=0, note=81, velocity=91, time=0),\n",
      "  Message('note_on', channel=0, note=54, velocity=70, time=0),\n",
      "  Message('note_on', channel=0, note=81, velocity=0, time=128),\n",
      "  Message('note_on', channel=0, note=54, velocity=0, time=0),\n",
      "  Message('note_on', channel=0, note=80, velocity=73, time=0),\n",
      "  Message('note_on', channel=0, note=61, velocity=89, time=0),\n",
      "  Message('note_on', channel=0, note=80, velocity=0, time=128),\n",
      "  Message('note_on', channel=0, note=61, velocity=0, time=0),\n",
      "  Message('note_on', channel=0, note=81, velocity=81, time=0),\n",
      "  Message('note_on', channel=0, note=66, velocity=91, time=0),\n",
      "  Message('note_on', channel=0, note=81, velocity=0, time=128),\n",
      "  Message('note_on', channel=0, note=80, velocity=69, time=0),\n",
      "  Message('note_on', channel=0, note=80, velocity=0, time=128),\n",
      "  Message('note_on', channel=0, note=66, velocity=0, time=0),\n",
      "  Message('note_on', channel=0, note=73, velocity=81, time=0),\n",
      "  Message('note_on', channel=0, note=76, velocity=81, time=0),\n",
      "  Message('note_on', channel=0, note=81, velocity=81, time=0),\n",
      "  Message('note_on', channel=0, note=50, velocity=71, time=0),\n",
      "  Message('note_on', channel=0, note=73, velocity=0, time=128),\n",
      "  Message('note_on', channel=0, note=76, velocity=0, time=0),\n",
      "  Message('note_on', channel=0, note=81, velocity=0, time=0),\n",
      "  Message('note_on', channel=0, note=50, velocity=0, time=0),\n",
      "  Message('note_on', channel=0, note=76, velocity=64, time=0),\n",
      "  Message('note_on', channel=0, note=57, velocity=77, time=0),\n",
      "  Message('note_on', channel=0, note=76, velocity=0, time=128),\n",
      "  Message('note_on', channel=0, note=57, velocity=0, time=0),\n",
      "  Message('note_on', channel=0, note=81, velocity=86, time=0),\n",
      "  Message('note_on', channel=0, note=66, velocity=86, time=0),\n",
      "  Message('note_on', channel=0, note=81, velocity=0, time=128),\n",
      "  Message('note_on', channel=0, note=66, velocity=0, time=0),\n",
      "  Message('note_on', channel=0, note=74, velocity=65, time=0),\n",
      "  Message('note_on', channel=0, note=50, velocity=68, time=0),\n",
      "  Message('note_on', channel=0, note=74, velocity=0, time=128),\n",
      "  Message('note_on', channel=0, note=50, velocity=0, time=0),\n",
      "  Message('note_on', channel=0, note=73, velocity=70, time=0),\n",
      "  Message('note_on', channel=0, note=45, velocity=69, time=0),\n",
      "  Message('note_on', channel=0, note=73, velocity=0, time=128),\n",
      "  Message('note_on', channel=0, note=45, velocity=0, time=0),\n",
      "  Message('note_on', channel=0, note=74, velocity=76, time=0),\n",
      "  Message('note_on', channel=0, note=52, velocity=80, time=0),\n",
      "  Message('note_on', channel=0, note=74, velocity=0, time=128),\n",
      "  Message('note_on', channel=0, note=52, velocity=0, time=0),\n",
      "  Message('note_on', channel=0, note=76, velocity=80, time=0),\n",
      "  Message('note_on', channel=0, note=61, velocity=90, time=0),\n",
      "  Message('note_on', channel=0, note=76, velocity=0, time=128),\n",
      "  Message('note_on', channel=0, note=61, velocity=0, time=0),\n",
      "  Message('note_on', channel=0, note=85, velocity=89, time=0),\n",
      "  Message('note_on', channel=0, note=85, velocity=0, time=128),\n",
      "  Message('note_on', channel=0, note=76, velocity=75, time=0),\n",
      "  Message('note_on', channel=0, note=81, velocity=75, time=0),\n",
      "  Message('note_on', channel=0, note=52, velocity=67, time=0),\n",
      "  Message('note_on', channel=0, note=52, velocity=0, time=128),\n",
      "  Message('note_on', channel=0, note=59, velocity=85, time=0),\n",
      "  Message('note_on', channel=0, note=59, velocity=0, time=128),\n",
      "  Message('note_on', channel=0, note=69, velocity=89, time=0),\n",
      "  Message('note_on', channel=0, note=76, velocity=0, time=128),\n",
      "  Message('note_on', channel=0, note=81, velocity=0, time=0),\n",
      "  Message('note_on', channel=0, note=69, velocity=0, time=0),\n",
      "  Message('note_on', channel=0, note=69, velocity=53, time=0),\n",
      "  Message('note_on', channel=0, note=69, velocity=0, time=64),\n",
      "  Message('note_on', channel=0, note=68, velocity=68, time=0),\n",
      "  Message('note_on', channel=0, note=68, velocity=0, time=64),\n",
      "  Message('note_on', channel=0, note=64, velocity=81, time=0),\n",
      "  Message('note_on', channel=0, note=69, velocity=81, time=0),\n",
      "  Message('note_on', channel=0, note=42, velocity=69, time=0),\n",
      "  Message('note_on', channel=0, note=42, velocity=0, time=128),\n",
      "  Message('note_on', channel=0, note=49, velocity=86, time=0),\n",
      "  Message('note_on', channel=0, note=49, velocity=0, time=128),\n",
      "  Message('note_on', channel=0, note=54, velocity=81, time=0),\n",
      "  Message('note_on', channel=0, note=64, velocity=0, time=128),\n",
      "  Message('note_on', channel=0, note=69, velocity=0, time=0),\n",
      "  Message('note_on', channel=0, note=69, velocity=78, time=0),\n",
      "  Message('note_on', channel=0, note=69, velocity=0, time=64),\n",
      "  Message('note_on', channel=0, note=71, velocity=81, time=0),\n",
      "  Message('note_on', channel=0, note=71, velocity=0, time=64),\n",
      "  Message('note_on', channel=0, note=54, velocity=0, time=0),\n",
      "  Message('note_on', channel=0, note=73, velocity=83, time=0),\n",
      "  Message('note_on', channel=0, note=50, velocity=71, time=0),\n",
      "  Message('note_on', channel=0, note=73, velocity=0, time=128),\n",
      "  Message('note_on', channel=0, note=50, velocity=0, time=0),\n",
      "  Message('note_on', channel=0, note=64, velocity=59, time=0),\n",
      "  Message('note_on', channel=0, note=57, velocity=86, time=0),\n",
      "  Message('note_on', channel=0, note=64, velocity=0, time=128),\n",
      "  Message('note_on', channel=0, note=57, velocity=0, time=0),\n",
      "  Message('note_on', channel=0, note=69, velocity=87, time=0),\n",
      "  Message('note_on', channel=0, note=62, velocity=86, time=0),\n",
      "  Message('note_on', channel=0, note=69, velocity=0, time=128),\n",
      "  Message('note_on', channel=0, note=73, velocity=88, time=0),\n",
      "  Message('note_on', channel=0, note=73, velocity=0, time=64),\n",
      "  Message('note_on', channel=0, note=74, velocity=82, time=0),\n",
      "  Message('note_on', channel=0, note=74, velocity=0, time=64),\n",
      "  Message('note_on', channel=0, note=62, velocity=0, time=0),\n",
      "  Message('note_on', channel=0, note=76, velocity=80, time=0),\n",
      "  Message('note_on', channel=0, note=45, velocity=71, time=0),\n",
      "  Message('note_on', channel=0, note=76, velocity=0, time=128),\n",
      "  Message('note_on', channel=0, note=45, velocity=0, time=0),\n",
      "  Message('note_on', channel=0, note=64, velocity=57, time=0),\n",
      "  Message('note_on', channel=0, note=52, velocity=85, time=0),\n",
      "  Message('note_on', channel=0, note=64, velocity=0, time=128),\n",
      "  Message('note_on', channel=0, note=52, velocity=0, time=0),\n",
      "  Message('note_on', channel=0, note=69, velocity=87, time=0),\n",
      "  Message('note_on', channel=0, note=54, velocity=82, time=0),\n",
      "  Message('note_on', channel=0, note=69, velocity=0, time=128),\n",
      "  Message('note_on', channel=0, note=74, velocity=89, time=0),\n",
      "  Message('note_on', channel=0, note=74, velocity=0, time=64),\n",
      "  Message('note_on', channel=0, note=73, velocity=77, time=0),\n",
      "  Message('note_on', channel=0, note=73, velocity=0, time=64),\n",
      "  Message('note_on', channel=0, note=54, velocity=0, time=0),\n",
      "  Message('note_on', channel=0, note=71, velocity=73, time=0),\n",
      "  Message('note_on', channel=0, note=40, velocity=68, time=0),\n",
      "  Message('note_on', channel=0, note=40, velocity=0, time=128),\n",
      "  Message('note_on', channel=0, note=49, velocity=80, time=0),\n",
      "  Message('note_on', channel=0, note=71, velocity=0, time=128),\n",
      "  Message('note_on', channel=0, note=49, velocity=0, time=0),\n",
      "  Message('note_on', channel=0, note=64, velocity=60, time=0),\n",
      "  Message('note_on', channel=0, note=56, velocity=85, time=0),\n",
      "  Message('note_on', channel=0, note=64, velocity=0, time=256),\n",
      "  Message('note_on', channel=0, note=56, velocity=0, time=0),\n",
      "  Message('note_on', channel=0, note=69, velocity=81, time=0),\n",
      "  Message('note_on', channel=0, note=42, velocity=65, time=0),\n",
      "  Message('note_on', channel=0, note=69, velocity=0, time=128),\n",
      "  Message('note_on', channel=0, note=42, velocity=0, time=0),\n",
      "  Message('note_on', channel=0, note=57, velocity=70, time=0),\n",
      "  Message('note_on', channel=0, note=49, velocity=79, time=0),\n",
      "  Message('note_on', channel=0, note=57, velocity=0, time=128),\n",
      "  Message('note_on', channel=0, note=49, velocity=0, time=0),\n",
      "  Message('note_on', channel=0, note=61, velocity=87, time=0),\n",
      "  Message('note_on', channel=0, note=54, velocity=81, time=0),\n",
      "  Message('note_on', channel=0, note=61, velocity=0, time=128),\n",
      "  Message('note_on', channel=0, note=66, velocity=91, time=0),\n",
      "  Message('note_on', channel=0, note=66, velocity=0, time=128),\n",
      "  Message('note_on', channel=0, note=69, velocity=81, time=0),\n",
      "  Message('note_on', channel=0, note=54, velocity=0, time=256),\n",
      "  Message('note_on', channel=0, note=69, velocity=0, time=256),\n",
      "  MetaMessage('end_of_track', time=1)])\n"
     ]
    }
   ],
   "source": [
    "for i, track in enumerate(mid3.tracks):\n",
    "    print(track)"
   ]
  },
  {
   "cell_type": "code",
   "execution_count": 39,
   "id": "5cfd1fc3",
   "metadata": {},
   "outputs": [],
   "source": [
    "target = mido.MidiFile(\"midi_data/mid_collection/testt/target.midi\")\n",
    "\n",
    "test1 = mido.MidiFile(\"midi_data/mid_collection/testt/test.midi\")\n",
    "test2 = mido.MidiFile(\"midi_data/mid_collection/testt/test2.midi\")\n",
    "test3 = mido.MidiFile(\"midi_data/mid_collection/testt/test3.midi\")"
   ]
  },
  {
   "cell_type": "code",
   "execution_count": 40,
   "id": "2f079c81",
   "metadata": {},
   "outputs": [
    {
     "name": "stdout",
     "output_type": "stream",
     "text": [
      "3\n",
      "3\n",
      "3\n",
      "3\n"
     ]
    }
   ],
   "source": [
    "print(len(target.tracks))\n",
    "print(len(test1.tracks))\n",
    "print(len(test2.tracks))\n",
    "print(len(test3.tracks))"
   ]
  },
  {
   "cell_type": "code",
   "execution_count": 44,
   "id": "c8f77f2d",
   "metadata": {},
   "outputs": [
    {
     "data": {
      "text/plain": [
       "[MidiTrack([\n",
       "   MetaMessage('track_name', name='test_rivers_flow', time=0),\n",
       "   MetaMessage('set_tempo', tempo=1000000, time=0),\n",
       "   MetaMessage('time_signature', numerator=4, denominator=4, clocks_per_click=24, notated_32nd_notes_per_beat=8, time=0),\n",
       "   MetaMessage('end_of_track', time=0)]),\n",
       " MidiTrack([\n",
       "   MetaMessage('track_name', name='Yamaha MOX', time=0),\n",
       "   Message('note_on', channel=0, note=72, velocity=79, time=1325),\n",
       "   Message('note_on', channel=1, note=72, velocity=79, time=1),\n",
       "   Message('note_on', channel=0, note=76, velocity=59, time=160),\n",
       "   Message('note_on', channel=1, note=76, velocity=59, time=1),\n",
       "   Message('note_on', channel=0, note=72, velocity=0, time=11),\n",
       "   Message('note_on', channel=1, note=72, velocity=0, time=0),\n",
       "   Message('note_on', channel=0, note=79, velocity=79, time=77),\n",
       "   Message('note_on', channel=1, note=79, velocity=79, time=0),\n",
       "   Message('note_on', channel=0, note=76, velocity=0, time=23),\n",
       "   Message('note_on', channel=1, note=76, velocity=0, time=0),\n",
       "   Message('note_on', channel=0, note=71, velocity=75, time=220),\n",
       "   Message('note_on', channel=1, note=71, velocity=75, time=0),\n",
       "   Message('note_on', channel=0, note=79, velocity=0, time=14),\n",
       "   Message('note_on', channel=1, note=79, velocity=0, time=0),\n",
       "   Message('note_on', channel=0, note=76, velocity=66, time=152),\n",
       "   Message('note_on', channel=1, note=76, velocity=66, time=1),\n",
       "   Message('note_on', channel=0, note=71, velocity=0, time=3),\n",
       "   Message('note_on', channel=1, note=71, velocity=0, time=1),\n",
       "   Message('note_on', channel=0, note=79, velocity=79, time=75),\n",
       "   Message('note_on', channel=1, note=79, velocity=79, time=0),\n",
       "   Message('note_on', channel=0, note=76, velocity=0, time=21),\n",
       "   Message('note_on', channel=1, note=76, velocity=0, time=1),\n",
       "   Message('note_on', channel=0, note=79, velocity=0, time=214),\n",
       "   Message('note_on', channel=1, note=79, velocity=0, time=0),\n",
       "   Message('note_on', channel=0, note=69, velocity=77, time=4),\n",
       "   Message('note_on', channel=1, note=69, velocity=77, time=0),\n",
       "   Message('note_on', channel=0, note=76, velocity=70, time=167),\n",
       "   Message('note_on', channel=1, note=76, velocity=70, time=0),\n",
       "   Message('note_on', channel=0, note=69, velocity=0, time=8),\n",
       "   Message('note_on', channel=1, note=69, velocity=0, time=0),\n",
       "   Message('note_on', channel=0, note=79, velocity=81, time=71),\n",
       "   Message('note_on', channel=1, note=79, velocity=81, time=1),\n",
       "   Message('note_on', channel=0, note=76, velocity=0, time=33),\n",
       "   Message('note_on', channel=1, note=76, velocity=0, time=0),\n",
       "   Message('note_on', channel=0, note=79, velocity=0, time=124),\n",
       "   Message('note_on', channel=1, note=79, velocity=0, time=0),\n",
       "   Message('note_on', channel=0, note=67, velocity=73, time=3),\n",
       "   Message('note_on', channel=1, note=67, velocity=73, time=1),\n",
       "   Message('note_on', channel=0, note=67, velocity=0, time=119),\n",
       "   Message('note_on', channel=1, note=67, velocity=0, time=0),\n",
       "   Message('note_on', channel=0, note=67, velocity=70, time=119),\n",
       "   Message('note_on', channel=1, note=67, velocity=70, time=0),\n",
       "   Message('note_on', channel=0, note=69, velocity=66, time=96),\n",
       "   Message('note_on', channel=1, note=69, velocity=66, time=1),\n",
       "   Message('note_on', channel=0, note=67, velocity=0, time=11),\n",
       "   Message('note_on', channel=1, note=67, velocity=0, time=0),\n",
       "   Message('note_on', channel=0, note=71, velocity=77, time=161),\n",
       "   Message('note_on', channel=1, note=71, velocity=77, time=1),\n",
       "   Message('note_on', channel=0, note=69, velocity=0, time=18),\n",
       "   Message('note_on', channel=1, note=69, velocity=0, time=1),\n",
       "   Message('note_on', channel=0, note=71, velocity=0, time=65),\n",
       "   Message('note_on', channel=1, note=71, velocity=0, time=0),\n",
       "   Message('note_on', channel=0, note=72, velocity=73, time=11),\n",
       "   Message('note_on', channel=1, note=72, velocity=73, time=0),\n",
       "   Message('note_on', channel=0, note=76, velocity=53, time=155),\n",
       "   Message('note_on', channel=1, note=76, velocity=53, time=1),\n",
       "   Message('note_on', channel=0, note=72, velocity=0, time=3),\n",
       "   Message('note_on', channel=1, note=72, velocity=0, time=0),\n",
       "   Message('note_on', channel=0, note=79, velocity=86, time=83),\n",
       "   Message('note_on', channel=1, note=79, velocity=86, time=1),\n",
       "   Message('note_on', channel=0, note=76, velocity=0, time=18),\n",
       "   Message('note_on', channel=1, note=76, velocity=0, time=1),\n",
       "   Message('note_on', channel=0, note=71, velocity=77, time=223),\n",
       "   Message('note_on', channel=1, note=71, velocity=77, time=1),\n",
       "   Message('note_on', channel=0, note=79, velocity=0, time=3),\n",
       "   Message('note_on', channel=1, note=79, velocity=0, time=1),\n",
       "   Message('note_on', channel=0, note=71, velocity=0, time=152),\n",
       "   Message('note_on', channel=1, note=71, velocity=0, time=0),\n",
       "   Message('note_on', channel=0, note=76, velocity=57, time=1),\n",
       "   Message('note_on', channel=1, note=76, velocity=57, time=0),\n",
       "   Message('note_on', channel=0, note=79, velocity=79, time=79),\n",
       "   Message('note_on', channel=1, note=79, velocity=79, time=1),\n",
       "   Message('note_on', channel=0, note=76, velocity=0, time=23),\n",
       "   Message('note_on', channel=1, note=76, velocity=0, time=0),\n",
       "   Message('note_on', channel=0, note=79, velocity=0, time=216),\n",
       "   Message('note_on', channel=1, note=79, velocity=0, time=0),\n",
       "   Message('note_on', channel=0, note=69, velocity=62, time=2),\n",
       "   Message('note_on', channel=1, note=69, velocity=62, time=0),\n",
       "   Message('note_on', channel=0, note=76, velocity=62, time=158),\n",
       "   Message('note_on', channel=1, note=76, velocity=62, time=0),\n",
       "   Message('note_on', channel=0, note=69, velocity=0, time=11),\n",
       "   Message('note_on', channel=1, note=69, velocity=0, time=0),\n",
       "   Message('note_on', channel=0, note=79, velocity=75, time=69),\n",
       "   Message('note_on', channel=1, note=79, velocity=75, time=0),\n",
       "   Message('note_on', channel=0, note=76, velocity=0, time=29),\n",
       "   Message('note_on', channel=1, note=76, velocity=0, time=1),\n",
       "   Message('note_on', channel=0, note=67, velocity=75, time=136),\n",
       "   Message('note_on', channel=1, note=67, velocity=75, time=1),\n",
       "   Message('note_on', channel=0, note=79, velocity=0, time=6),\n",
       "   Message('note_on', channel=1, note=79, velocity=0, time=0),\n",
       "   Message('note_on', channel=0, note=67, velocity=0, time=102),\n",
       "   Message('note_on', channel=1, note=67, velocity=0, time=0),\n",
       "   Message('note_on', channel=0, note=67, velocity=77, time=131),\n",
       "   Message('note_on', channel=1, note=67, velocity=77, time=1),\n",
       "   Message('note_on', channel=0, note=69, velocity=64, time=91),\n",
       "   Message('note_on', channel=1, note=69, velocity=64, time=0),\n",
       "   Message('note_on', channel=0, note=67, velocity=0, time=14),\n",
       "   Message('note_on', channel=1, note=67, velocity=0, time=0),\n",
       "   Message('note_on', channel=0, note=71, velocity=68, time=159),\n",
       "   Message('note_on', channel=1, note=71, velocity=68, time=0),\n",
       "   Message('note_on', channel=0, note=69, velocity=0, time=4),\n",
       "   Message('note_on', channel=1, note=69, velocity=0, time=0),\n",
       "   Message('note_on', channel=0, note=71, velocity=0, time=78),\n",
       "   Message('note_on', channel=1, note=71, velocity=0, time=0),\n",
       "   Message('note_on', channel=0, note=72, velocity=81, time=4),\n",
       "   Message('note_on', channel=1, note=72, velocity=81, time=0),\n",
       "   Message('note_on', channel=0, note=72, velocity=0, time=690),\n",
       "   Message('note_on', channel=1, note=72, velocity=0, time=0),\n",
       "   MetaMessage('end_of_track', time=0)]),\n",
       " MidiTrack([\n",
       "   MetaMessage('track_name', name='Yamaha MOX', time=0),\n",
       "   MetaMessage('end_of_track', time=0)])]"
      ]
     },
     "execution_count": 44,
     "metadata": {},
     "output_type": "execute_result"
    }
   ],
   "source": [
    "target.tracks"
   ]
  },
  {
   "cell_type": "code",
   "execution_count": null,
   "id": "ec672784",
   "metadata": {},
   "outputs": [],
   "source": []
  },
  {
   "cell_type": "code",
   "execution_count": 321,
   "id": "5d3dd737",
   "metadata": {},
   "outputs": [],
   "source": [
    "input_name = \"Fugue3.mid\"\n",
    "target_name = \"Fugue1.mid\"\n",
    "\n",
    "input_mid, target_mid = load_midi_data(input_name, target_name)"
   ]
  },
  {
   "cell_type": "markdown",
   "id": "b5228a5b",
   "metadata": {},
   "source": [
    "#### sample data"
   ]
  },
  {
   "cell_type": "code",
   "execution_count": 344,
   "id": "89ca46b7",
   "metadata": {},
   "outputs": [],
   "source": [
    "###########################################################\n",
    "######### sample\n",
    "###########################################################\n",
    "input_name = \"piano_pirate.mid\"\n",
    "target_name = \"bach_847.mid\"\n",
    "\n",
    "input_mid, target_mid = load_midi_data(input_name, target_name)"
   ]
  },
  {
   "cell_type": "markdown",
   "id": "fb980af1",
   "metadata": {},
   "source": [
    "### Ⅱ. 데이터 추출하기\n",
    "- 데이터 전제\n",
    "    + track 길이 (2가지) : meta data, msg"
   ]
  },
  {
   "cell_type": "code",
   "execution_count": 206,
   "id": "3f9bd9c8",
   "metadata": {},
   "outputs": [],
   "source": [
    "def load_mid_Info_from_csv(input_name, target_name):\n",
    "    input_csv  = input_name.split(\".\")[0]+\".csv\"\n",
    "    target_csv = target_name.split(\".\")[0]+\".csv\"\n",
    "    \n",
    "    input_info = pd.read_csv(input_csv, index_col = 0)\n",
    "    target_info = pd.read_csv(target_csv, index_col = 0)\n",
    "    \n",
    "    return input_info, target_info\n",
    "\n",
    "aa, bb = load_mid_Info_from_csv(\"hello.mid\", \"hello.mid\")"
   ]
  },
  {
   "cell_type": "code",
   "execution_count": null,
   "id": "13670765",
   "metadata": {},
   "outputs": [],
   "source": []
  },
  {
   "cell_type": "markdown",
   "id": "e9f7b1c3",
   "metadata": {},
   "source": [
    "#### [0]. precheck"
   ]
  },
  {
   "cell_type": "markdown",
   "id": "8772ceac",
   "metadata": {},
   "source": [
    "#### [1]. MetaMessage\n",
    "- (1). midi_port ( 보류 )\n",
    "- (2). set_tempo\n",
    "- (3). smpte_offset\n",
    "- (4). time_signature\n",
    "- (5). key_signature"
   ]
  },
  {
   "cell_type": "code",
   "execution_count": 357,
   "id": "3fd15384",
   "metadata": {},
   "outputs": [],
   "source": [
    "def compare_MetaMessage(input_meta, target_meta):\n",
    "    \n",
    "    score = 0\n",
    "    total_score = 0 # 비교 해야 할 대상의 갯수\n",
    "    \n",
    "    for key in input_meta:\n",
    "        \n",
    "        if key == 'midi_port':\n",
    "            count = 0\n",
    "            \n",
    "            if type(input_meta[key]) == list:\n",
    "                count += len(input_meta[key])\n",
    "            else:\n",
    "                count +=1\n",
    "                \n",
    "            total_score +=count\n",
    "                \n",
    "            if key not in target_meta: continue\n",
    "                \n",
    "            if count > 1: # list\n",
    "                for idx in range(count):\n",
    "                    if input_meta[key][idx].port == target_meta[key][idx].port : score+=1\n",
    "            else:\n",
    "                if input_meta[key].port == target_meta[key].port : score+=1\n",
    "            \n",
    "        elif key == 'set_tempo':\n",
    "            # Message 에서 비교\n",
    "            continue\n",
    "            \n",
    "        elif key == 'smpte_offset':\n",
    "            # frame_rate, hours, minutes, seconds, frames, sub_frames\n",
    "            total_score += 6\n",
    "            \n",
    "            if key not in target_meta: continue\n",
    "            \n",
    "            if input_meta[key].frame_rate == target_meta[key].frame_rate: score+=1\n",
    "            if input_meta[key].hours == target_meta[key].hours: score+=1\n",
    "            if input_meta[key].minutes == target_meta[key].minutes: score+=1   \n",
    "            if input_meta[key].seconds == target_meta[key].seconds: score+=1   \n",
    "            if input_meta[key].frames == target_meta[key].frames: score+=1     \n",
    "            if input_meta[key].sub_frames == target_meta[key].sub_frames: score+=1\n",
    "            \n",
    "        elif key == 'time_signature':\n",
    "            # numerator=4, denominator=4, clocks_per_click=24, notated_32nd_notes_per_beat=8\n",
    "            total_score += 4\n",
    "            \n",
    "            if key not in target_meta: continue\n",
    "            \n",
    "            if input_meta[key].numerator == target_meta[key].numerator: score+=1\n",
    "            if input_meta[key].denominator == target_meta[key].denominator: score+=1\n",
    "            if input_meta[key].clocks_per_click == target_meta[key].clocks_per_click: score+=1 \n",
    "            if input_meta[key].notated_32nd_notes_per_beat == target_meta[key].notated_32nd_notes_per_beat: score+=1\n",
    "            \n",
    "        elif key == 'key_signature':\n",
    "            # numerator=4, denominator=4, clocks_per_click=24, notated_32nd_notes_per_beat=8\n",
    "            total_score += 1\n",
    "            \n",
    "            if key not in target_meta: continue\n",
    "                \n",
    "            if input_meta[key].key == target_meta[key].key: score+=1  \n",
    "        \n",
    "        elif key == 'text':\n",
    "            count = 0\n",
    "            \n",
    "            if type(input_meta[key]) == list:\n",
    "                count += len(input_meta[key])\n",
    "            else:\n",
    "                count +=1\n",
    "                \n",
    "            total_score +=count\n",
    "                \n",
    "            if key not in target_meta: continue\n",
    "                \n",
    "            if count > 1: # list\n",
    "                for idx in range(count):\n",
    "                    if input_meta[key][idx].text == target_meta[key][idx].text : score+=1\n",
    "            else:\n",
    "                if input_meta[key].text == target_meta[key].text : score+=1\n",
    "            \n",
    "            \n",
    "        else:\n",
    "            continue\n",
    "            \n",
    "    print(f\"MetaMessage : score({score}), total_score({total_score})\")\n",
    "    print(f\"MetaMessage : percentage({score/total_score*100})\")\n",
    "            \n",
    "    return score, total_score"
   ]
  },
  {
   "cell_type": "code",
   "execution_count": 358,
   "id": "b4963231",
   "metadata": {},
   "outputs": [
    {
     "name": "stdout",
     "output_type": "stream",
     "text": [
      "MetaMessage : score(2), total_score(7)\n",
      "MetaMessage : percentage(28.57142857142857)\n"
     ]
    },
    {
     "data": {
      "text/plain": [
       "(2, 7)"
      ]
     },
     "execution_count": 358,
     "metadata": {},
     "output_type": "execute_result"
    }
   ],
   "source": [
    "compare_MetaMessage(input_info[MetaMessage], target_info[MetaMessage])"
   ]
  },
  {
   "cell_type": "markdown",
   "id": "28740429",
   "metadata": {},
   "source": [
    "#### [2]. Message"
   ]
  },
  {
   "cell_type": "code",
   "execution_count": null,
   "id": "5424bdd0",
   "metadata": {},
   "outputs": [],
   "source": [
    "def compare_Message(input_msg, target_msg):\n",
    "    end_tick = input_msg.shape[0]\n",
    "    \n",
    "    for start_tick in range(end_tick):\n",
    "        "
   ]
  },
  {
   "cell_type": "code",
   "execution_count": null,
   "id": "77d8319d",
   "metadata": {},
   "outputs": [],
   "source": [
    "compare_Message(input_info[Message], target_info[Message]):"
   ]
  }
 ],
 "metadata": {
  "kernelspec": {
   "display_name": "Python 3 (ipykernel)",
   "language": "python",
   "name": "python3"
  },
  "language_info": {
   "codemirror_mode": {
    "name": "ipython",
    "version": 3
   },
   "file_extension": ".py",
   "mimetype": "text/x-python",
   "name": "python",
   "nbconvert_exporter": "python",
   "pygments_lexer": "ipython3",
   "version": "3.7.9"
  }
 },
 "nbformat": 4,
 "nbformat_minor": 5
}
