{
 "cells": [
  {
   "cell_type": "markdown",
   "id": "8980795a",
   "metadata": {},
   "source": [
    "### Ⅰ. 라이브러리"
   ]
  },
  {
   "cell_type": "code",
   "execution_count": 3,
   "id": "549748c2",
   "metadata": {
    "scrolled": false
   },
   "outputs": [],
   "source": [
    "import numpy as np\n",
    "import pandas as pd\n",
    "\n",
    "import os\n",
    "import mido\n",
    "\n",
    "from mido import MidiFile, MidiTrack, MetaMessage, Message\n",
    "\n",
    "\n"
   ]
  },
  {
   "cell_type": "code",
   "execution_count": null,
   "id": "faddb7cd",
   "metadata": {
    "scrolled": false
   },
   "outputs": [],
   "source": []
  },
  {
   "cell_type": "markdown",
   "id": "e976ffb8",
   "metadata": {},
   "source": [
    "### Ⅱ. 데이터 추출"
   ]
  },
  {
   "cell_type": "markdown",
   "id": "d80e1652",
   "metadata": {},
   "source": [
    "#### [1]. MetaMessage\n",
    "- tracks[0] : 기본 정보\n",
    "    + MetaMessage('track_name', name=\"He's A Pirate\", time=0),\n",
    "    + MetaMessage('text', text='By Written by Klaus Badelt', time=0),\n",
    "    + MetaMessage('copyright', text='Arrangement © 2004 Cerullean Pictures ', time=0),\n",
    "    + MetaMessage('copyright', text='Original Score © Walt Disney Pictures', time=0),\n",
    "    + MetaMessage('text', text='Generated by NoteWorthy Composer', time=0),\n",
    "    + MetaMessage('set_tempo', tempo=300000, time=0), ✔️\n",
    "    + MetaMessage('key_signature', key='F', time=0), ✔️\n",
    "    + MetaMessage('time_signature', numerator=6, denominator=8, clocks_per_click=24, notated_32nd_notes_per_beat=8, time=0), ✔️\n",
    "    + MetaMessage('end_of_track', time=0)]) ✔️\n",
    "    ----\n",
    "    + MetaMessage('time_signature', numerator=4, denominator=4, clocks_per_click=24, notated_32nd_notes_per_beat=8, time=0), ✔️\n",
    "    + MetaMessage('set_tempo', tempo=833333, time=0), ✔️\n",
    "    + MetaMessage('set_tempo', tempo=857143, time=31800),\n",
    "    + MetaMessage('end_of_track', time=0)]) ✔️\n",
    "    ----\n",
    "    (1). midi_port <br/>\n",
    "    (2). set_tempo <br/>\n",
    "    (3). smpte_offset <br/>\n",
    "    (4). time_signature <br/>\n",
    "    (5). key_signature <br/>\n",
    "- tracks[1] : \n",
    "    + MetaMessage('midi_port', port=0, time=0),\n",
    "    + MetaMessage('track_name', name='Right Hand', time=0),\n",
    "    -----\n",
    "    + MetaMessage('text', text='RH B', time=0),\n",
    "    "
   ]
  },
  {
   "cell_type": "markdown",
   "id": "abdeea5e",
   "metadata": {},
   "source": [
    "#### [2]. Message\n",
    "- type\n",
    "    - note_on : 음표 시작\n",
    "    - control_change : 컨트롤러 변경 메시지 ex. 페달 볼륨 조절기 움직임\n",
    "    - program_change : 프로그램 변경 메시지 ex. 다양한 소리 또는 패치"
   ]
  },
  {
   "cell_type": "markdown",
   "id": "796b5286",
   "metadata": {},
   "source": [
    "#### 1. pitch (음정) : [  -8192 to 8192 ]\n",
    "- 음의 높낮이\n",
    "- 주파수 표현"
   ]
  },
  {
   "cell_type": "markdown",
   "id": "4e35068c",
   "metadata": {},
   "source": [
    "#### 2. note (음표) : [  0 to 127 ]\n",
    "- msg.type = 'note_on' / 'note_off'\n",
    "    - 소리의 강도 / 세기 ( velocity )\n",
    "    - 지속 시간 ( time, 단위 : tick )"
   ]
  },
  {
   "cell_type": "markdown",
   "id": "0877e3c9",
   "metadata": {},
   "source": [
    "#### 3. control ( 컨트롤러 번호 ) [ 0 to 127 ]\n",
    "- https://www.midi.org/specifications/midi-reference-tables/midi-1-0-control-change-messages-data-bytes-2\n",
    "----\n",
    "- control=1  ( Modulation Wheel ( 음향 변화 )) ( 0 : 왼쪽, 63 : 중앙 127 : 오른쪽 )\n",
    "- control=7  ( Main Volume 조절 )\n",
    "- control=10 ( Pan, 좌우 스테레오 위치 조절 )\n",
    "- control=64 ( Damper Pedal on/off (Sustain) ) <= 63 Off 64<= On"
   ]
  },
  {
   "cell_type": "markdown",
   "id": "ce8f868e",
   "metadata": {},
   "source": [
    "#### 4. program ( 특정 악기 / 사운드 패치 ) [ 0 to 127 ]\n",
    "- program_change : 이벤트를 통해, 악기를 변경\n",
    "- 피아노, 비트 등의 특정한 사운드 지칭\n",
    "----\n",
    "- program=0 : 피아노\n",
    "- program=25 : 악기 관련 사운드\n",
    "- program=40 : 비트 드럼"
   ]
  },
  {
   "cell_type": "code",
   "execution_count": 4,
   "id": "c3f469b1",
   "metadata": {
    "scrolled": false
   },
   "outputs": [],
   "source": [
    "file_name = \"piano_pirate.mid\"\n",
    "file_path = os.path.join(\"midi_data\", file_name)\n",
    "\n",
    "mid = MidiFile(file_path)"
   ]
  },
  {
   "cell_type": "code",
   "execution_count": 5,
   "id": "394e1398",
   "metadata": {},
   "outputs": [
    {
     "data": {
      "text/plain": [
       "MidiFile(type=1, ticks_per_beat=192, tracks=[\n",
       "  MidiTrack([\n",
       "    MetaMessage('track_name', name=\"He's A Pirate\", time=0),\n",
       "    MetaMessage('text', text='By Written by Klaus Badelt', time=0),\n",
       "    MetaMessage('copyright', text='Arrangement © 2004 Cerullean Pictures ', time=0),\n",
       "    MetaMessage('copyright', text='Original Score © Walt Disney Pictures', time=0),\n",
       "    MetaMessage('text', text='Generated by NoteWorthy Composer', time=0),\n",
       "    MetaMessage('set_tempo', tempo=300000, time=0),\n",
       "    MetaMessage('key_signature', key='F', time=0),\n",
       "    MetaMessage('time_signature', numerator=6, denominator=8, clocks_per_click=24, notated_32nd_notes_per_beat=8, time=0),\n",
       "    MetaMessage('end_of_track', time=0)]),\n",
       "  MidiTrack([\n",
       "    MetaMessage('midi_port', port=0, time=0),\n",
       "    MetaMessage('track_name', name='Right Hand', time=0),\n",
       "    Message('control_change', channel=0, control=64, value=0, time=0),\n",
       "    Message('program_change', channel=0, program=0, time=0),\n",
       "    Message('control_change', channel=0, control=7, value=127, time=0),\n",
       "    Message('control_change', channel=0, control=10, value=64, time=0),\n",
       "    Message('program_change', channel=0, program=0, time=0),\n",
       "    Message('control_change', channel=0, control=7, value=127, time=0),\n",
       "    Message('control_change', channel=0, control=10, value=64, time=0),\n",
       "    Message('control_change', channel=0, control=64, value=127, time=0),\n",
       "    Message('note_on', channel=0, note=62, velocity=110, time=0),\n",
       "    Message('note_on', channel=0, note=62, velocity=0, time=160),\n",
       "    Message('note_on', channel=0, note=62, velocity=110, time=32),\n",
       "    Message('note_on', channel=0, note=62, velocity=0, time=94),\n",
       "    Message('note_on', channel=0, note=62, velocity=110, time=2),\n",
       "    Message('note_on', channel=0, note=62, velocity=0, time=160),\n",
       "    Message('note_on', channel=0, note=62, velocity=110, time=32),\n",
       "    Message('note_on', channel=0, note=62, velocity=0, time=94),\n",
       "    Message('note_on', channel=0, note=62, velocity=110, time=2),\n",
       "    Message('note_on', channel=0, note=62, velocity=0, time=160),\n",
       "    Message('note_on', channel=0, note=62, velocity=110, time=32),\n",
       "    Message('note_on', channel=0, note=62, velocity=0, time=94),\n",
       "    Message('note_on', channel=0, note=62, velocity=110, time=2),\n",
       "    Message('note_on', channel=0, note=62, velocity=0, time=94),\n",
       "    Message('note_on', channel=0, note=62, velocity=110, time=2),\n",
       "    Message('note_on', channel=0, note=62, velocity=0, time=94),\n",
       "    Message('note_on', channel=0, note=62, velocity=110, time=2),\n",
       "    Message('note_on', channel=0, note=62, velocity=0, time=94),\n",
       "    Message('note_on', channel=0, note=62, velocity=110, time=2),\n",
       "    Message('note_on', channel=0, note=62, velocity=0, time=160),\n",
       "    Message('note_on', channel=0, note=62, velocity=110, time=32),\n",
       "    Message('note_on', channel=0, note=62, velocity=0, time=94),\n",
       "    Message('note_on', channel=0, note=62, velocity=110, time=2),\n",
       "    Message('note_on', channel=0, note=62, velocity=0, time=160),\n",
       "    Message('note_on', channel=0, note=62, velocity=110, time=32),\n",
       "    Message('note_on', channel=0, note=62, velocity=0, time=94),\n",
       "    Message('note_on', channel=0, note=62, velocity=110, time=2),\n",
       "    Message('note_on', channel=0, note=62, velocity=0, time=160),\n",
       "    Message('note_on', channel=0, note=62, velocity=110, time=32),\n",
       "    Message('note_on', channel=0, note=62, velocity=0, time=94),\n",
       "    Message('note_on', channel=0, note=62, velocity=110, time=2),\n",
       "    Message('note_on', channel=0, note=62, velocity=0, time=94),\n",
       "    Message('note_on', channel=0, note=62, velocity=110, time=2),\n",
       "    Message('note_on', channel=0, note=62, velocity=0, time=94),\n",
       "    Message('note_on', channel=0, note=62, velocity=110, time=2),\n",
       "    Message('note_on', channel=0, note=62, velocity=0, time=94),\n",
       "    Message('note_on', channel=0, note=62, velocity=110, time=2),\n",
       "    Message('note_on', channel=0, note=62, velocity=0, time=160),\n",
       "    Message('note_on', channel=0, note=62, velocity=110, time=32),\n",
       "    Message('note_on', channel=0, note=62, velocity=0, time=94),\n",
       "    Message('note_on', channel=0, note=62, velocity=110, time=2),\n",
       "    Message('note_on', channel=0, note=62, velocity=0, time=160),\n",
       "    Message('note_on', channel=0, note=62, velocity=110, time=32),\n",
       "    Message('note_on', channel=0, note=62, velocity=0, time=94),\n",
       "    Message('note_on', channel=0, note=62, velocity=110, time=2),\n",
       "    Message('note_on', channel=0, note=62, velocity=0, time=160),\n",
       "    Message('note_on', channel=0, note=62, velocity=110, time=32),\n",
       "    Message('note_on', channel=0, note=62, velocity=0, time=94),\n",
       "    Message('note_on', channel=0, note=62, velocity=110, time=2),\n",
       "    Message('note_on', channel=0, note=62, velocity=0, time=94),\n",
       "    Message('note_on', channel=0, note=57, velocity=110, time=2),\n",
       "    Message('note_on', channel=0, note=57, velocity=0, time=94),\n",
       "    Message('note_on', channel=0, note=60, velocity=110, time=2),\n",
       "    Message('note_on', channel=0, note=60, velocity=0, time=94),\n",
       "    Message('control_change', channel=0, control=64, value=0, time=2),\n",
       "    Message('control_change', channel=0, control=64, value=127, time=0),\n",
       "    Message('note_on', channel=0, note=53, velocity=110, time=0),\n",
       "    Message('note_on', channel=0, note=57, velocity=110, time=0),\n",
       "    Message('note_on', channel=0, note=62, velocity=110, time=0),\n",
       "    Message('note_on', channel=0, note=53, velocity=0, time=160),\n",
       "    Message('note_on', channel=0, note=57, velocity=0, time=0),\n",
       "    Message('note_on', channel=0, note=62, velocity=0, time=0),\n",
       "    Message('note_on', channel=0, note=53, velocity=110, time=32),\n",
       "    Message('note_on', channel=0, note=57, velocity=110, time=0),\n",
       "    Message('note_on', channel=0, note=62, velocity=110, time=0),\n",
       "    Message('note_on', channel=0, note=53, velocity=0, time=160),\n",
       "    Message('note_on', channel=0, note=57, velocity=0, time=0),\n",
       "    Message('note_on', channel=0, note=62, velocity=0, time=0),\n",
       "    Message('note_on', channel=0, note=53, velocity=110, time=32),\n",
       "    Message('note_on', channel=0, note=57, velocity=110, time=0),\n",
       "    Message('note_on', channel=0, note=62, velocity=110, time=0),\n",
       "    Message('note_on', channel=0, note=53, velocity=0, time=94),\n",
       "    Message('note_on', channel=0, note=57, velocity=0, time=0),\n",
       "    Message('note_on', channel=0, note=62, velocity=0, time=0),\n",
       "    Message('note_on', channel=0, note=57, velocity=110, time=2),\n",
       "    Message('note_on', channel=0, note=60, velocity=110, time=0),\n",
       "    Message('note_on', channel=0, note=64, velocity=110, time=0),\n",
       "    Message('note_on', channel=0, note=57, velocity=0, time=94),\n",
       "    Message('note_on', channel=0, note=60, velocity=0, time=0),\n",
       "    Message('note_on', channel=0, note=64, velocity=0, time=0),\n",
       "    Message('control_change', channel=0, control=64, value=0, time=2),\n",
       "    Message('control_change', channel=0, control=64, value=127, time=0),\n",
       "    Message('note_on', channel=0, note=58, velocity=110, time=0),\n",
       "    Message('note_on', channel=0, note=62, velocity=110, time=0),\n",
       "    Message('note_on', channel=0, note=65, velocity=110, time=0),\n",
       "    Message('note_on', channel=0, note=58, velocity=0, time=160),\n",
       "    Message('note_on', channel=0, note=62, velocity=0, time=0),\n",
       "    Message('note_on', channel=0, note=65, velocity=0, time=0),\n",
       "    Message('note_on', channel=0, note=58, velocity=110, time=32),\n",
       "    Message('note_on', channel=0, note=62, velocity=110, time=0),\n",
       "    Message('note_on', channel=0, note=65, velocity=110, time=0),\n",
       "    Message('note_on', channel=0, note=58, velocity=0, time=160),\n",
       "    Message('note_on', channel=0, note=62, velocity=0, time=0),\n",
       "    Message('note_on', channel=0, note=65, velocity=0, time=0),\n",
       "    Message('note_on', channel=0, note=58, velocity=110, time=32),\n",
       "    Message('note_on', channel=0, note=62, velocity=110, time=0),\n",
       "    Message('note_on', channel=0, note=65, velocity=110, time=0),\n",
       "    Message('note_on', channel=0, note=58, velocity=0, time=94),\n",
       "    Message('note_on', channel=0, note=62, velocity=0, time=0),\n",
       "    Message('note_on', channel=0, note=65, velocity=0, time=0),\n",
       "    Message('note_on', channel=0, note=62, velocity=110, time=2),\n",
       "    Message('note_on', channel=0, note=67, velocity=110, time=0),\n",
       "    Message('note_on', channel=0, note=62, velocity=0, time=94),\n",
       "    Message('note_on', channel=0, note=67, velocity=0, time=0),\n",
       "    Message('control_change', channel=0, control=64, value=0, time=2),\n",
       "    Message('control_change', channel=0, control=64, value=127, time=0),\n",
       "    Message('note_on', channel=0, note=57, velocity=110, time=0),\n",
       "    Message('note_on', channel=0, note=60, velocity=110, time=0),\n",
       "    Message('note_on', channel=0, note=64, velocity=110, time=0),\n",
       "    Message('note_on', channel=0, note=57, velocity=0, time=160),\n",
       "    Message('note_on', channel=0, note=60, velocity=0, time=0),\n",
       "    Message('note_on', channel=0, note=64, velocity=0, time=0),\n",
       "    Message('note_on', channel=0, note=57, velocity=110, time=32),\n",
       "    Message('note_on', channel=0, note=60, velocity=110, time=0),\n",
       "    Message('note_on', channel=0, note=64, velocity=110, time=0),\n",
       "    Message('note_on', channel=0, note=57, velocity=0, time=160),\n",
       "    Message('note_on', channel=0, note=60, velocity=0, time=0),\n",
       "    Message('note_on', channel=0, note=64, velocity=0, time=0),\n",
       "    Message('note_on', channel=0, note=57, velocity=110, time=32),\n",
       "    Message('note_on', channel=0, note=62, velocity=110, time=0),\n",
       "    Message('note_on', channel=0, note=57, velocity=0, time=94),\n",
       "    Message('note_on', channel=0, note=62, velocity=0, time=0),\n",
       "    Message('note_on', channel=0, note=55, velocity=110, time=2),\n",
       "    Message('note_on', channel=0, note=60, velocity=110, time=0),\n",
       "    Message('note_on', channel=0, note=55, velocity=0, time=94),\n",
       "    Message('note_on', channel=0, note=60, velocity=0, time=0),\n",
       "    Message('control_change', channel=0, control=64, value=0, time=2),\n",
       "    Message('control_change', channel=0, control=64, value=127, time=0),\n",
       "    Message('note_on', channel=0, note=57, velocity=110, time=0),\n",
       "    Message('note_on', channel=0, note=60, velocity=110, time=0),\n",
       "    Message('note_on', channel=0, note=57, velocity=0, time=94),\n",
       "    Message('note_on', channel=0, note=60, velocity=0, time=0),\n",
       "    Message('note_on', channel=0, note=57, velocity=110, time=2),\n",
       "    Message('note_on', channel=0, note=62, velocity=110, time=0),\n",
       "    Message('note_on', channel=0, note=57, velocity=0, time=160),\n",
       "    Message('note_on', channel=0, note=62, velocity=0, time=0),\n",
       "    Message('note_on', channel=0, note=57, velocity=110, time=128),\n",
       "    Message('note_on', channel=0, note=57, velocity=0, time=94),\n",
       "    Message('note_on', channel=0, note=60, velocity=110, time=2),\n",
       "    Message('note_on', channel=0, note=60, velocity=0, time=94),\n",
       "    Message('control_change', channel=0, control=64, value=0, time=2),\n",
       "    Message('control_change', channel=0, control=64, value=127, time=0),\n",
       "    Message('note_on', channel=0, note=53, velocity=110, time=0),\n",
       "    Message('note_on', channel=0, note=58, velocity=110, time=0),\n",
       "    Message('note_on', channel=0, note=62, velocity=110, time=0),\n",
       "    Message('note_on', channel=0, note=53, velocity=0, time=160),\n",
       "    Message('note_on', channel=0, note=58, velocity=0, time=0),\n",
       "    Message('note_on', channel=0, note=62, velocity=0, time=0),\n",
       "    Message('note_on', channel=0, note=53, velocity=110, time=32),\n",
       "    Message('note_on', channel=0, note=58, velocity=110, time=0),\n",
       "    Message('note_on', channel=0, note=62, velocity=110, time=0),\n",
       "    Message('note_on', channel=0, note=53, velocity=0, time=160),\n",
       "    Message('note_on', channel=0, note=58, velocity=0, time=0),\n",
       "    Message('note_on', channel=0, note=62, velocity=0, time=0),\n",
       "    Message('note_on', channel=0, note=58, velocity=110, time=32),\n",
       "    Message('note_on', channel=0, note=62, velocity=110, time=0),\n",
       "    Message('note_on', channel=0, note=58, velocity=0, time=94),\n",
       "    Message('note_on', channel=0, note=62, velocity=0, time=0),\n",
       "    Message('note_on', channel=0, note=58, velocity=110, time=2),\n",
       "    Message('note_on', channel=0, note=64, velocity=110, time=0),\n",
       "    Message('note_on', channel=0, note=58, velocity=0, time=94),\n",
       "    Message('note_on', channel=0, note=64, velocity=0, time=0),\n",
       "    Message('control_change', channel=0, control=64, value=0, time=2),\n",
       "    Message('control_change', channel=0, control=64, value=127, time=0),\n",
       "    Message('note_on', channel=0, note=57, velocity=110, time=0),\n",
       "    Message('note_on', channel=0, note=60, velocity=110, time=0),\n",
       "    Message('note_on', channel=0, note=65, velocity=110, time=0),\n",
       "    Message('note_on', channel=0, note=57, velocity=0, time=160),\n",
       "    Message('note_on', channel=0, note=60, velocity=0, time=0),\n",
       "    Message('note_on', channel=0, note=65, velocity=0, time=0),\n",
       "    Message('note_on', channel=0, note=57, velocity=110, time=32),\n",
       "    Message('note_on', channel=0, note=60, velocity=110, time=0),\n",
       "    Message('note_on', channel=0, note=65, velocity=110, time=0),\n",
       "    Message('note_on', channel=0, note=57, velocity=0, time=160),\n",
       "    Message('note_on', channel=0, note=60, velocity=0, time=0),\n",
       "    Message('note_on', channel=0, note=65, velocity=0, time=0),\n",
       "    Message('note_on', channel=0, note=60, velocity=110, time=32),\n",
       "    Message('note_on', channel=0, note=65, velocity=110, time=0),\n",
       "    Message('note_on', channel=0, note=60, velocity=0, time=94),\n",
       "    Message('note_on', channel=0, note=65, velocity=0, time=0),\n",
       "    Message('note_on', channel=0, note=60, velocity=110, time=2),\n",
       "    Message('note_on', channel=0, note=67, velocity=110, time=0),\n",
       "    Message('note_on', channel=0, note=60, velocity=0, time=94),\n",
       "    Message('note_on', channel=0, note=67, velocity=0, time=0),\n",
       "    Message('control_change', channel=0, control=64, value=0, time=2),\n",
       "    Message('control_change', channel=0, control=64, value=127, time=0),\n",
       "    Message('note_on', channel=0, note=60, velocity=110, time=0),\n",
       "    Message('note_on', channel=0, note=64, velocity=110, time=0),\n",
       "    Message('note_on', channel=0, note=60, velocity=0, time=160),\n",
       "    Message('note_on', channel=0, note=64, velocity=0, time=0),\n",
       "    Message('note_on', channel=0, note=60, velocity=110, time=32),\n",
       "    Message('note_on', channel=0, note=64, velocity=110, time=0),\n",
       "    Message('note_on', channel=0, note=60, velocity=0, time=160),\n",
       "    Message('note_on', channel=0, note=64, velocity=0, time=0),\n",
       "    Message('note_on', channel=0, note=57, velocity=110, time=32),\n",
       "    Message('note_on', channel=0, note=62, velocity=110, time=0),\n",
       "    Message('note_on', channel=0, note=57, velocity=0, time=94),\n",
       "    Message('note_on', channel=0, note=62, velocity=0, time=0),\n",
       "    Message('note_on', channel=0, note=60, velocity=110, time=2),\n",
       "    Message('note_on', channel=0, note=60, velocity=0, time=94),\n",
       "    Message('control_change', channel=0, control=64, value=0, time=2),\n",
       "    Message('control_change', channel=0, control=64, value=127, time=0),\n",
       "    Message('note_on', channel=0, note=53, velocity=110, time=0),\n",
       "    Message('note_on', channel=0, note=57, velocity=110, time=0),\n",
       "    Message('note_on', channel=0, note=62, velocity=110, time=0),\n",
       "    Message('note_on', channel=0, note=53, velocity=0, time=160),\n",
       "    Message('note_on', channel=0, note=57, velocity=0, time=0),\n",
       "    Message('note_on', channel=0, note=62, velocity=0, time=0),\n",
       "    Message('note_on', channel=0, note=57, velocity=110, time=224),\n",
       "    Message('note_on', channel=0, note=57, velocity=0, time=94),\n",
       "    Message('note_on', channel=0, note=60, velocity=110, time=2),\n",
       "    Message('note_on', channel=0, note=60, velocity=0, time=94),\n",
       "    Message('control_change', channel=0, control=64, value=0, time=2),\n",
       "    Message('control_change', channel=0, control=64, value=127, time=0),\n",
       "    Message('note_on', channel=0, note=53, velocity=110, time=0),\n",
       "    Message('note_on', channel=0, note=57, velocity=110, time=0),\n",
       "    Message('note_on', channel=0, note=62, velocity=110, time=0),\n",
       "    Message('note_on', channel=0, note=53, velocity=0, time=160),\n",
       "    Message('note_on', channel=0, note=57, velocity=0, time=0),\n",
       "    Message('note_on', channel=0, note=62, velocity=0, time=0),\n",
       "    Message('note_on', channel=0, note=53, velocity=110, time=32),\n",
       "    Message('note_on', channel=0, note=57, velocity=110, time=0),\n",
       "    Message('note_on', channel=0, note=62, velocity=110, time=0),\n",
       "    Message('note_on', channel=0, note=53, velocity=0, time=160),\n",
       "    Message('note_on', channel=0, note=57, velocity=0, time=0),\n",
       "    Message('note_on', channel=0, note=62, velocity=0, time=0),\n",
       "    Message('note_on', channel=0, note=57, velocity=110, time=32),\n",
       "    Message('note_on', channel=0, note=62, velocity=110, time=0),\n",
       "    Message('note_on', channel=0, note=57, velocity=0, time=94),\n",
       "    Message('note_on', channel=0, note=62, velocity=0, time=0),\n",
       "    Message('note_on', channel=0, note=57, velocity=110, time=2),\n",
       "    Message('note_on', channel=0, note=65, velocity=110, time=0),\n",
       "    Message('note_on', channel=0, note=57, velocity=0, time=94),\n",
       "    Message('note_on', channel=0, note=65, velocity=0, time=0),\n",
       "    Message('control_change', channel=0, control=64, value=0, time=2),\n",
       "    Message('control_change', channel=0, control=64, value=127, time=0),\n",
       "    Message('note_on', channel=0, note=58, velocity=110, time=0),\n",
       "    Message('note_on', channel=0, note=62, velocity=110, time=0),\n",
       "    Message('note_on', channel=0, note=67, velocity=110, time=0),\n",
       "    Message('note_on', channel=0, note=58, velocity=0, time=160),\n",
       "    Message('note_on', channel=0, note=62, velocity=0, time=0),\n",
       "    Message('note_on', channel=0, note=67, velocity=0, time=0),\n",
       "    Message('note_on', channel=0, note=58, velocity=110, time=32),\n",
       "    Message('note_on', channel=0, note=62, velocity=110, time=0),\n",
       "    Message('note_on', channel=0, note=67, velocity=110, time=0),\n",
       "    Message('note_on', channel=0, note=58, velocity=0, time=160),\n",
       "    Message('note_on', channel=0, note=62, velocity=0, time=0),\n",
       "    Message('note_on', channel=0, note=67, velocity=0, time=0),\n",
       "    Message('note_on', channel=0, note=62, velocity=110, time=32),\n",
       "    Message('note_on', channel=0, note=67, velocity=110, time=0),\n",
       "    Message('note_on', channel=0, note=62, velocity=0, time=94),\n",
       "    Message('note_on', channel=0, note=67, velocity=0, time=0),\n",
       "    Message('note_on', channel=0, note=62, velocity=110, time=2),\n",
       "    Message('note_on', channel=0, note=69, velocity=110, time=0),\n",
       "    Message('note_on', channel=0, note=62, velocity=0, time=94),\n",
       "    Message('note_on', channel=0, note=69, velocity=0, time=0),\n",
       "    Message('control_change', channel=0, control=64, value=0, time=2),\n",
       "    Message('control_change', channel=0, control=64, value=127, time=0),\n",
       "    Message('note_on', channel=0, note=62, velocity=110, time=0),\n",
       "    Message('note_on', channel=0, note=67, velocity=110, time=0),\n",
       "    Message('note_on', channel=0, note=70, velocity=110, time=0),\n",
       "    Message('note_on', channel=0, note=62, velocity=0, time=160),\n",
       "    Message('note_on', channel=0, note=67, velocity=0, time=0),\n",
       "    Message('note_on', channel=0, note=70, velocity=0, time=0),\n",
       "    Message('note_on', channel=0, note=62, velocity=110, time=32),\n",
       "    Message('note_on', channel=0, note=67, velocity=110, time=0),\n",
       "    Message('note_on', channel=0, note=70, velocity=110, time=0),\n",
       "    Message('note_on', channel=0, note=62, velocity=0, time=160),\n",
       "    Message('note_on', channel=0, note=67, velocity=0, time=0),\n",
       "    Message('note_on', channel=0, note=70, velocity=0, time=0),\n",
       "    Message('note_on', channel=0, note=65, velocity=110, time=32),\n",
       "    Message('note_on', channel=0, note=69, velocity=110, time=0),\n",
       "    Message('note_on', channel=0, note=65, velocity=0, time=94),\n",
       "    Message('note_on', channel=0, note=69, velocity=0, time=0),\n",
       "    Message('note_on', channel=0, note=64, velocity=110, time=2),\n",
       "    Message('note_on', channel=0, note=67, velocity=110, time=0),\n",
       "    Message('note_on', channel=0, note=64, velocity=0, time=94),\n",
       "    Message('note_on', channel=0, note=67, velocity=0, time=0),\n",
       "    Message('control_change', channel=0, control=64, value=0, time=2),\n",
       "    Message('control_change', channel=0, control=64, value=127, time=0),\n",
       "    Message('note_on', channel=0, note=65, velocity=110, time=0),\n",
       "    Message('note_on', channel=0, note=69, velocity=110, time=0),\n",
       "    Message('note_on', channel=0, note=65, velocity=0, time=94),\n",
       "    Message('note_on', channel=0, note=69, velocity=0, time=0),\n",
       "    Message('note_on', channel=0, note=62, velocity=110, time=2),\n",
       "    Message('note_on', channel=0, note=62, velocity=0, time=160),\n",
       "    Message('note_on', channel=0, note=62, velocity=110, time=128),\n",
       "    Message('note_on', channel=0, note=62, velocity=0, time=94),\n",
       "    Message('note_on', channel=0, note=64, velocity=110, time=2),\n",
       "    Message('note_on', channel=0, note=64, velocity=0, time=94),\n",
       "    Message('control_change', channel=0, control=64, value=0, time=2),\n",
       "    Message('control_change', channel=0, control=64, value=127, time=0),\n",
       "    Message('note_on', channel=0, note=58, velocity=110, time=0),\n",
       "    Message('note_on', channel=0, note=62, velocity=110, time=0),\n",
       "    Message('note_on', channel=0, note=65, velocity=110, time=0),\n",
       "    Message('note_on', channel=0, note=58, velocity=0, time=160),\n",
       "    Message('note_on', channel=0, note=62, velocity=0, time=0),\n",
       "    Message('note_on', channel=0, note=65, velocity=0, time=0),\n",
       "    Message('note_on', channel=0, note=58, velocity=110, time=32),\n",
       "    Message('note_on', channel=0, note=62, velocity=110, time=0),\n",
       "    Message('note_on', channel=0, note=65, velocity=110, time=0),\n",
       "    Message('note_on', channel=0, note=58, velocity=0, time=160),\n",
       "    Message('note_on', channel=0, note=62, velocity=0, time=0),\n",
       "    Message('note_on', channel=0, note=65, velocity=0, time=0),\n",
       "    Message('note_on', channel=0, note=58, velocity=110, time=32),\n",
       "    Message('note_on', channel=0, note=62, velocity=110, time=0),\n",
       "    Message('note_on', channel=0, note=67, velocity=110, time=0),\n",
       "    Message('note_on', channel=0, note=58, velocity=0, time=160),\n",
       "    Message('note_on', channel=0, note=62, velocity=0, time=0),\n",
       "    Message('note_on', channel=0, note=67, velocity=0, time=0),\n",
       "    Message('control_change', channel=0, control=64, value=0, time=32),\n",
       "    Message('control_change', channel=0, control=64, value=127, time=0),\n",
       "    Message('note_on', channel=0, note=65, velocity=110, time=0),\n",
       "    Message('note_on', channel=0, note=69, velocity=110, time=0),\n",
       "    Message('note_on', channel=0, note=65, velocity=0, time=94),\n",
       "    Message('note_on', channel=0, note=69, velocity=0, time=0),\n",
       "    Message('note_on', channel=0, note=62, velocity=110, time=2),\n",
       "    Message('note_on', channel=0, note=62, velocity=0, time=160),\n",
       "    Message('note_on', channel=0, note=62, velocity=110, time=128),\n",
       "    Message('note_on', channel=0, note=62, velocity=0, time=94),\n",
       "    Message('note_on', channel=0, note=65, velocity=110, time=2),\n",
       "    Message('note_on', channel=0, note=65, velocity=0, time=94),\n",
       "    Message('control_change', channel=0, control=64, value=0, time=2),\n",
       "    Message('control_change', channel=0, control=64, value=127, time=0),\n",
       "    Message('note_on', channel=0, note=57, velocity=110, time=0),\n",
       "    Message('note_on', channel=0, note=61, velocity=110, time=0),\n",
       "    Message('note_on', channel=0, note=64, velocity=110, time=0),\n",
       "    Message('note_on', channel=0, note=57, velocity=0, time=160),\n",
       "    Message('note_on', channel=0, note=61, velocity=0, time=0),\n",
       "    Message('note_on', channel=0, note=64, velocity=0, time=0),\n",
       "    Message('note_on', channel=0, note=57, velocity=110, time=32),\n",
       "    Message('note_on', channel=0, note=61, velocity=110, time=0),\n",
       "    Message('note_on', channel=0, note=64, velocity=110, time=0),\n",
       "    Message('note_on', channel=0, note=57, velocity=0, time=160),\n",
       "    Message('note_on', channel=0, note=61, velocity=0, time=0),\n",
       "    Message('note_on', channel=0, note=64, velocity=0, time=0),\n",
       "    Message('note_on', channel=0, note=62, velocity=110, time=32),\n",
       "    Message('note_on', channel=0, note=65, velocity=110, time=0),\n",
       "    Message('note_on', channel=0, note=62, velocity=0, time=94),\n",
       "    Message('note_on', channel=0, note=65, velocity=0, time=0),\n",
       "    Message('note_on', channel=0, note=59, velocity=110, time=2),\n",
       "    Message('note_on', channel=0, note=62, velocity=110, time=0),\n",
       "    Message('note_on', channel=0, note=59, velocity=0, time=94),\n",
       "    Message('note_on', channel=0, note=62, velocity=0, time=0),\n",
       "    Message('control_change', channel=0, control=64, value=0, time=2),\n",
       "    Message('control_change', channel=0, control=64, value=127, time=0),\n",
       "    Message('note_on', channel=0, note=57, velocity=110, time=0),\n",
       "    Message('note_on', channel=0, note=61, velocity=110, time=0),\n",
       "    Message('note_on', channel=0, note=64, velocity=110, time=0),\n",
       "    Message('note_on', channel=0, note=57, velocity=0, time=94),\n",
       "    Message('note_on', channel=0, note=61, velocity=0, time=0),\n",
       "    Message('note_on', channel=0, note=64, velocity=0, time=0),\n",
       "    Message('control_change', channel=0, control=64, value=0, time=194),\n",
       "    Message('control_change', channel=0, control=64, value=127, time=0),\n",
       "    Message('note_on', channel=0, note=69, velocity=110, time=96),\n",
       "    Message('note_on', channel=0, note=69, velocity=0, time=94),\n",
       "    Message('note_on', channel=0, note=72, velocity=110, time=2),\n",
       "    Message('note_on', channel=0, note=72, velocity=0, time=94),\n",
       "    Message('control_change', channel=0, control=64, value=0, time=2),\n",
       "    Message('control_change', channel=0, control=64, value=127, time=0),\n",
       "    Message('note_on', channel=0, note=65, velocity=110, time=0),\n",
       "    Message('note_on', channel=0, note=69, velocity=110, time=0),\n",
       "    Message('note_on', channel=0, note=74, velocity=110, time=0),\n",
       "    Message('note_on', channel=0, note=65, velocity=0, time=160),\n",
       "    Message('note_on', channel=0, note=69, velocity=0, time=0),\n",
       "    Message('note_on', channel=0, note=74, velocity=0, time=0),\n",
       "    Message('note_on', channel=0, note=65, velocity=110, time=32),\n",
       "    Message('note_on', channel=0, note=69, velocity=110, time=0),\n",
       "    Message('note_on', channel=0, note=74, velocity=110, time=0),\n",
       "    Message('note_on', channel=0, note=65, velocity=0, time=160),\n",
       "    Message('note_on', channel=0, note=69, velocity=0, time=0),\n",
       "    Message('note_on', channel=0, note=74, velocity=0, time=0),\n",
       "    Message('note_on', channel=0, note=65, velocity=110, time=32),\n",
       "    Message('note_on', channel=0, note=69, velocity=110, time=0),\n",
       "    Message('note_on', channel=0, note=74, velocity=110, time=0),\n",
       "    Message('note_on', channel=0, note=65, velocity=0, time=94),\n",
       "    Message('note_on', channel=0, note=69, velocity=0, time=0),\n",
       "    Message('note_on', channel=0, note=74, velocity=0, time=0),\n",
       "    Message('note_on', channel=0, note=69, velocity=110, time=2),\n",
       "    Message('note_on', channel=0, note=72, velocity=110, time=0),\n",
       "    Message('note_on', channel=0, note=76, velocity=110, time=0),\n",
       "    Message('note_on', channel=0, note=69, velocity=0, time=94),\n",
       "    Message('note_on', channel=0, note=72, velocity=0, time=0),\n",
       "    Message('note_on', channel=0, note=76, velocity=0, time=0),\n",
       "    Message('control_change', channel=0, control=64, value=0, time=2),\n",
       "    Message('control_change', channel=0, control=64, value=127, time=0),\n",
       "    Message('note_on', channel=0, note=70, velocity=110, time=0),\n",
       "    Message('note_on', channel=0, note=74, velocity=110, time=0),\n",
       "    Message('note_on', channel=0, note=77, velocity=110, time=0),\n",
       "    Message('note_on', channel=0, note=70, velocity=0, time=160),\n",
       "    Message('note_on', channel=0, note=74, velocity=0, time=0),\n",
       "    Message('note_on', channel=0, note=77, velocity=0, time=0),\n",
       "    Message('note_on', channel=0, note=70, velocity=110, time=32),\n",
       "    Message('note_on', channel=0, note=74, velocity=110, time=0),\n",
       "    Message('note_on', channel=0, note=77, velocity=110, time=0),\n",
       "    Message('note_on', channel=0, note=70, velocity=0, time=160),\n",
       "    Message('note_on', channel=0, note=74, velocity=0, time=0),\n",
       "    Message('note_on', channel=0, note=77, velocity=0, time=0),\n",
       "    Message('note_on', channel=0, note=70, velocity=110, time=32),\n",
       "    Message('note_on', channel=0, note=74, velocity=110, time=0),\n",
       "    Message('note_on', channel=0, note=77, velocity=110, time=0),\n",
       "    Message('note_on', channel=0, note=70, velocity=0, time=94),\n",
       "    Message('note_on', channel=0, note=74, velocity=0, time=0),\n",
       "    Message('note_on', channel=0, note=77, velocity=0, time=0),\n",
       "    Message('note_on', channel=0, note=74, velocity=110, time=2),\n",
       "    Message('note_on', channel=0, note=79, velocity=110, time=0),\n",
       "    Message('note_on', channel=0, note=74, velocity=0, time=94),\n",
       "    Message('note_on', channel=0, note=79, velocity=0, time=0),\n",
       "    Message('control_change', channel=0, control=64, value=0, time=2),\n",
       "    Message('control_change', channel=0, control=64, value=127, time=0),\n",
       "    Message('note_on', channel=0, note=69, velocity=110, time=0),\n",
       "    Message('note_on', channel=0, note=72, velocity=110, time=0),\n",
       "    Message('note_on', channel=0, note=76, velocity=110, time=0),\n",
       "    Message('note_on', channel=0, note=69, velocity=0, time=160),\n",
       "    Message('note_on', channel=0, note=72, velocity=0, time=0),\n",
       "    Message('note_on', channel=0, note=76, velocity=0, time=0),\n",
       "    Message('note_on', channel=0, note=69, velocity=110, time=32),\n",
       "    Message('note_on', channel=0, note=72, velocity=110, time=0),\n",
       "    Message('note_on', channel=0, note=76, velocity=110, time=0),\n",
       "    Message('note_on', channel=0, note=69, velocity=0, time=160),\n",
       "    Message('note_on', channel=0, note=72, velocity=0, time=0),\n",
       "    Message('note_on', channel=0, note=76, velocity=0, time=0),\n",
       "    Message('note_on', channel=0, note=69, velocity=110, time=32),\n",
       "    Message('note_on', channel=0, note=74, velocity=110, time=0),\n",
       "    Message('note_on', channel=0, note=69, velocity=0, time=94),\n",
       "    Message('note_on', channel=0, note=74, velocity=0, time=0),\n",
       "    Message('note_on', channel=0, note=67, velocity=110, time=2),\n",
       "    Message('note_on', channel=0, note=72, velocity=110, time=0),\n",
       "    Message('note_on', channel=0, note=67, velocity=0, time=94),\n",
       "    Message('note_on', channel=0, note=72, velocity=0, time=0),\n",
       "    Message('control_change', channel=0, control=64, value=0, time=2),\n",
       "    Message('control_change', channel=0, control=64, value=127, time=0),\n",
       "    Message('note_on', channel=0, note=69, velocity=110, time=0),\n",
       "    Message('note_on', channel=0, note=72, velocity=110, time=0),\n",
       "    Message('note_on', channel=0, note=69, velocity=0, time=94),\n",
       "    Message('note_on', channel=0, note=72, velocity=0, time=0),\n",
       "    Message('note_on', channel=0, note=69, velocity=110, time=2),\n",
       "    Message('note_on', channel=0, note=74, velocity=110, time=0),\n",
       "    Message('note_on', channel=0, note=69, velocity=0, time=160),\n",
       "    Message('note_on', channel=0, note=74, velocity=0, time=0),\n",
       "    Message('note_on', channel=0, note=69, velocity=110, time=128),\n",
       "    Message('note_on', channel=0, note=69, velocity=0, time=94),\n",
       "    Message('note_on', channel=0, note=72, velocity=110, time=2),\n",
       "    Message('note_on', channel=0, note=72, velocity=0, time=94),\n",
       "    Message('control_change', channel=0, control=64, value=0, time=2),\n",
       "    Message('control_change', channel=0, control=64, value=127, time=0),\n",
       "    Message('note_on', channel=0, note=65, velocity=110, time=0),\n",
       "    Message('note_on', channel=0, note=70, velocity=110, time=0),\n",
       "    Message('note_on', channel=0, note=74, velocity=110, time=0),\n",
       "    Message('note_on', channel=0, note=65, velocity=0, time=160),\n",
       "    Message('note_on', channel=0, note=70, velocity=0, time=0),\n",
       "    Message('note_on', channel=0, note=74, velocity=0, time=0),\n",
       "    Message('note_on', channel=0, note=65, velocity=110, time=32),\n",
       "    Message('note_on', channel=0, note=70, velocity=110, time=0),\n",
       "    Message('note_on', channel=0, note=74, velocity=110, time=0),\n",
       "    Message('note_on', channel=0, note=65, velocity=0, time=160),\n",
       "    Message('note_on', channel=0, note=70, velocity=0, time=0),\n",
       "    Message('note_on', channel=0, note=74, velocity=0, time=0),\n",
       "    Message('note_on', channel=0, note=70, velocity=110, time=32),\n",
       "    Message('note_on', channel=0, note=74, velocity=110, time=0),\n",
       "    Message('note_on', channel=0, note=70, velocity=0, time=94),\n",
       "    Message('note_on', channel=0, note=74, velocity=0, time=0),\n",
       "    Message('note_on', channel=0, note=70, velocity=110, time=2),\n",
       "    Message('note_on', channel=0, note=76, velocity=110, time=0),\n",
       "    Message('note_on', channel=0, note=70, velocity=0, time=94),\n",
       "    Message('note_on', channel=0, note=76, velocity=0, time=0),\n",
       "    Message('control_change', channel=0, control=64, value=0, time=2),\n",
       "    Message('control_change', channel=0, control=64, value=127, time=0),\n",
       "    Message('note_on', channel=0, note=69, velocity=110, time=0),\n",
       "    Message('note_on', channel=0, note=72, velocity=110, time=0),\n",
       "    Message('note_on', channel=0, note=77, velocity=110, time=0),\n",
       "    Message('note_on', channel=0, note=69, velocity=0, time=160),\n",
       "    Message('note_on', channel=0, note=72, velocity=0, time=0),\n",
       "    Message('note_on', channel=0, note=77, velocity=0, time=0),\n",
       "    Message('note_on', channel=0, note=69, velocity=110, time=32),\n",
       "    Message('note_on', channel=0, note=72, velocity=110, time=0),\n",
       "    Message('note_on', channel=0, note=77, velocity=110, time=0),\n",
       "    Message('note_on', channel=0, note=69, velocity=0, time=160),\n",
       "    Message('note_on', channel=0, note=72, velocity=0, time=0),\n",
       "    Message('note_on', channel=0, note=77, velocity=0, time=0),\n",
       "    Message('note_on', channel=0, note=72, velocity=110, time=32),\n",
       "    Message('note_on', channel=0, note=77, velocity=110, time=0),\n",
       "    Message('note_on', channel=0, note=72, velocity=0, time=94),\n",
       "    Message('note_on', channel=0, note=77, velocity=0, time=0),\n",
       "    Message('note_on', channel=0, note=72, velocity=110, time=2),\n",
       "    Message('note_on', channel=0, note=79, velocity=110, time=0),\n",
       "    Message('note_on', channel=0, note=72, velocity=0, time=94),\n",
       "    Message('note_on', channel=0, note=79, velocity=0, time=0),\n",
       "    Message('control_change', channel=0, control=64, value=0, time=2),\n",
       "    Message('control_change', channel=0, control=64, value=127, time=0),\n",
       "    Message('note_on', channel=0, note=72, velocity=110, time=0),\n",
       "    Message('note_on', channel=0, note=76, velocity=110, time=0),\n",
       "    Message('note_on', channel=0, note=72, velocity=0, time=160),\n",
       "    Message('note_on', channel=0, note=76, velocity=0, time=0),\n",
       "    Message('note_on', channel=0, note=72, velocity=110, time=32),\n",
       "    Message('note_on', channel=0, note=76, velocity=110, time=0),\n",
       "    Message('note_on', channel=0, note=72, velocity=0, time=160),\n",
       "    Message('note_on', channel=0, note=76, velocity=0, time=0),\n",
       "    Message('note_on', channel=0, note=69, velocity=110, time=32),\n",
       "    Message('note_on', channel=0, note=74, velocity=110, time=0),\n",
       "    Message('note_on', channel=0, note=69, velocity=0, time=94),\n",
       "    Message('note_on', channel=0, note=74, velocity=0, time=0),\n",
       "    Message('note_on', channel=0, note=72, velocity=110, time=2),\n",
       "    Message('note_on', channel=0, note=72, velocity=0, time=94),\n",
       "    Message('control_change', channel=0, control=64, value=0, time=2),\n",
       "    Message('control_change', channel=0, control=64, value=127, time=0),\n",
       "    Message('note_on', channel=0, note=65, velocity=110, time=0),\n",
       "    Message('note_on', channel=0, note=69, velocity=110, time=0),\n",
       "    Message('note_on', channel=0, note=74, velocity=110, time=0),\n",
       "    Message('note_on', channel=0, note=65, velocity=0, time=160),\n",
       "    Message('note_on', channel=0, note=69, velocity=0, time=0),\n",
       "    Message('note_on', channel=0, note=74, velocity=0, time=0),\n",
       "    Message('note_on', channel=0, note=69, velocity=110, time=224),\n",
       "    Message('note_on', channel=0, note=69, velocity=0, time=94),\n",
       "    Message('note_on', channel=0, note=72, velocity=110, time=2),\n",
       "    Message('note_on', channel=0, note=72, velocity=0, time=94),\n",
       "    Message('control_change', channel=0, control=64, value=0, time=2),\n",
       "    Message('control_change', channel=0, control=64, value=127, time=0),\n",
       "    Message('note_on', channel=0, note=65, velocity=110, time=0),\n",
       "    Message('note_on', channel=0, note=69, velocity=110, time=0),\n",
       "    Message('note_on', channel=0, note=74, velocity=110, time=0),\n",
       "    Message('note_on', channel=0, note=65, velocity=0, time=160),\n",
       "    Message('note_on', channel=0, note=69, velocity=0, time=0),\n",
       "    Message('note_on', channel=0, note=74, velocity=0, time=0),\n",
       "    Message('note_on', channel=0, note=65, velocity=110, time=32),\n",
       "    Message('note_on', channel=0, note=69, velocity=110, time=0),\n",
       "    Message('note_on', channel=0, note=74, velocity=110, time=0),\n",
       "    Message('note_on', channel=0, note=65, velocity=0, time=160),\n",
       "    Message('note_on', channel=0, note=69, velocity=0, time=0),\n",
       "    Message('note_on', channel=0, note=74, velocity=0, time=0),\n",
       "    Message('note_on', channel=0, note=69, velocity=110, time=32),\n",
       "    Message('note_on', channel=0, note=74, velocity=110, time=0),\n",
       "    Message('note_on', channel=0, note=69, velocity=0, time=94),\n",
       "    Message('note_on', channel=0, note=74, velocity=0, time=0),\n",
       "    Message('note_on', channel=0, note=69, velocity=110, time=2),\n",
       "    Message('note_on', channel=0, note=77, velocity=110, time=0),\n",
       "    Message('note_on', channel=0, note=69, velocity=0, time=94),\n",
       "    Message('note_on', channel=0, note=77, velocity=0, time=0),\n",
       "    Message('control_change', channel=0, control=64, value=0, time=2),\n",
       "    Message('control_change', channel=0, control=64, value=127, time=0),\n",
       "    Message('note_on', channel=0, note=70, velocity=110, time=0),\n",
       "    Message('note_on', channel=0, note=74, velocity=110, time=0),\n",
       "    Message('note_on', channel=0, note=79, velocity=110, time=0),\n",
       "    Message('note_on', channel=0, note=70, velocity=0, time=160),\n",
       "    Message('note_on', channel=0, note=74, velocity=0, time=0),\n",
       "    Message('note_on', channel=0, note=79, velocity=0, time=0),\n",
       "    Message('note_on', channel=0, note=70, velocity=110, time=32),\n",
       "    Message('note_on', channel=0, note=74, velocity=110, time=0),\n",
       "    Message('note_on', channel=0, note=79, velocity=110, time=0),\n",
       "    Message('note_on', channel=0, note=70, velocity=0, time=160),\n",
       "    Message('note_on', channel=0, note=74, velocity=0, time=0),\n",
       "    Message('note_on', channel=0, note=79, velocity=0, time=0),\n",
       "    Message('note_on', channel=0, note=74, velocity=110, time=32),\n",
       "    Message('note_on', channel=0, note=79, velocity=110, time=0),\n",
       "    Message('note_on', channel=0, note=74, velocity=0, time=94),\n",
       "    Message('note_on', channel=0, note=79, velocity=0, time=0),\n",
       "    Message('note_on', channel=0, note=74, velocity=110, time=2),\n",
       "    Message('note_on', channel=0, note=81, velocity=110, time=0),\n",
       "    Message('note_on', channel=0, note=74, velocity=0, time=94),\n",
       "    Message('note_on', channel=0, note=81, velocity=0, time=0),\n",
       "    Message('control_change', channel=0, control=64, value=0, time=2),\n",
       "    Message('control_change', channel=0, control=64, value=127, time=0),\n",
       "    Message('note_on', channel=0, note=74, velocity=110, time=0),\n",
       "    Message('note_on', channel=0, note=79, velocity=110, time=0),\n",
       "    Message('note_on', channel=0, note=82, velocity=110, time=0),\n",
       "    Message('note_on', channel=0, note=74, velocity=0, time=160),\n",
       "    Message('note_on', channel=0, note=79, velocity=0, time=0),\n",
       "    Message('note_on', channel=0, note=82, velocity=0, time=0),\n",
       "    Message('note_on', channel=0, note=74, velocity=110, time=32),\n",
       "    Message('note_on', channel=0, note=79, velocity=110, time=0),\n",
       "    Message('note_on', channel=0, note=82, velocity=110, time=0),\n",
       "    Message('note_on', channel=0, note=74, velocity=0, time=160),\n",
       "    Message('note_on', channel=0, note=79, velocity=0, time=0),\n",
       "    Message('note_on', channel=0, note=82, velocity=0, time=0),\n",
       "    Message('note_on', channel=0, note=77, velocity=110, time=32),\n",
       "    Message('note_on', channel=0, note=81, velocity=110, time=0),\n",
       "    Message('note_on', channel=0, note=77, velocity=0, time=94),\n",
       "    Message('note_on', channel=0, note=81, velocity=0, time=0),\n",
       "    Message('note_on', channel=0, note=76, velocity=110, time=2),\n",
       "    Message('note_on', channel=0, note=79, velocity=110, time=0),\n",
       "    Message('note_on', channel=0, note=76, velocity=0, time=94),\n",
       "    Message('note_on', channel=0, note=79, velocity=0, time=0),\n",
       "    Message('control_change', channel=0, control=64, value=0, time=2),\n",
       "    Message('control_change', channel=0, control=64, value=127, time=0),\n",
       "    Message('note_on', channel=0, note=77, velocity=110, time=0),\n",
       "    Message('note_on', channel=0, note=81, velocity=110, time=0),\n",
       "    Message('note_on', channel=0, note=77, velocity=0, time=94),\n",
       "    Message('note_on', channel=0, note=81, velocity=0, time=0),\n",
       "    Message('note_on', channel=0, note=74, velocity=110, time=2),\n",
       "    Message('note_on', channel=0, note=74, velocity=0, time=160),\n",
       "    Message('note_on', channel=0, note=74, velocity=110, time=128),\n",
       "    Message('note_on', channel=0, note=74, velocity=0, time=94),\n",
       "    Message('note_on', channel=0, note=76, velocity=110, time=2),\n",
       "    Message('note_on', channel=0, note=76, velocity=0, time=94),\n",
       "    Message('control_change', channel=0, control=64, value=0, time=2),\n",
       "    Message('control_change', channel=0, control=64, value=127, time=0),\n",
       "    Message('note_on', channel=0, note=70, velocity=110, time=0),\n",
       "    Message('note_on', channel=0, note=74, velocity=110, time=0),\n",
       "    Message('note_on', channel=0, note=77, velocity=110, time=0),\n",
       "    Message('note_on', channel=0, note=70, velocity=0, time=160),\n",
       "    Message('note_on', channel=0, note=74, velocity=0, time=0),\n",
       "    Message('note_on', channel=0, note=77, velocity=0, time=0),\n",
       "    Message('note_on', channel=0, note=70, velocity=110, time=32),\n",
       "    Message('note_on', channel=0, note=74, velocity=110, time=0),\n",
       "    Message('note_on', channel=0, note=77, velocity=110, time=0),\n",
       "    Message('note_on', channel=0, note=70, velocity=0, time=160),\n",
       "    Message('note_on', channel=0, note=74, velocity=0, time=0),\n",
       "    Message('note_on', channel=0, note=77, velocity=0, time=0),\n",
       "    Message('note_on', channel=0, note=70, velocity=110, time=32),\n",
       "    Message('note_on', channel=0, note=74, velocity=110, time=0),\n",
       "    Message('note_on', channel=0, note=79, velocity=110, time=0),\n",
       "    Message('note_on', channel=0, note=70, velocity=0, time=160),\n",
       "    Message('note_on', channel=0, note=74, velocity=0, time=0),\n",
       "    Message('note_on', channel=0, note=79, velocity=0, time=0),\n",
       "    Message('control_change', channel=0, control=64, value=0, time=32),\n",
       "    Message('control_change', channel=0, control=64, value=127, time=0),\n",
       "    Message('note_on', channel=0, note=77, velocity=110, time=0),\n",
       "    Message('note_on', channel=0, note=81, velocity=110, time=0),\n",
       "    Message('note_on', channel=0, note=77, velocity=0, time=94),\n",
       "    Message('note_on', channel=0, note=81, velocity=0, time=0),\n",
       "    Message('note_on', channel=0, note=74, velocity=110, time=2),\n",
       "    Message('note_on', channel=0, note=74, velocity=0, time=160),\n",
       "    Message('note_on', channel=0, note=74, velocity=110, time=128),\n",
       "    Message('note_on', channel=0, note=74, velocity=0, time=94),\n",
       "    Message('note_on', channel=0, note=77, velocity=110, time=2),\n",
       "    Message('note_on', channel=0, note=77, velocity=0, time=94),\n",
       "    Message('control_change', channel=0, control=64, value=0, time=2),\n",
       "    Message('control_change', channel=0, control=64, value=127, time=0),\n",
       "    Message('note_on', channel=0, note=69, velocity=110, time=0),\n",
       "    Message('note_on', channel=0, note=73, velocity=110, time=0),\n",
       "    Message('note_on', channel=0, note=76, velocity=110, time=0),\n",
       "    Message('note_on', channel=0, note=69, velocity=0, time=160),\n",
       "    Message('note_on', channel=0, note=73, velocity=0, time=0),\n",
       "    Message('note_on', channel=0, note=76, velocity=0, time=0),\n",
       "    Message('note_on', channel=0, note=69, velocity=110, time=32),\n",
       "    Message('note_on', channel=0, note=73, velocity=110, time=0),\n",
       "    Message('note_on', channel=0, note=76, velocity=110, time=0),\n",
       "    Message('note_on', channel=0, note=69, velocity=0, time=160),\n",
       "    Message('note_on', channel=0, note=73, velocity=0, time=0),\n",
       "    Message('note_on', channel=0, note=76, velocity=0, time=0),\n",
       "    Message('note_on', channel=0, note=74, velocity=110, time=32),\n",
       "    Message('note_on', channel=0, note=74, velocity=0, time=94),\n",
       "    Message('note_on', channel=0, note=73, velocity=110, time=2),\n",
       "    Message('note_on', channel=0, note=73, velocity=0, time=94),\n",
       "    Message('control_change', channel=0, control=64, value=0, time=2),\n",
       "    Message('control_change', channel=0, control=64, value=127, time=0),\n",
       "    Message('note_on', channel=0, note=69, velocity=110, time=0),\n",
       "    Message('note_on', channel=0, note=74, velocity=110, time=0),\n",
       "    Message('note_on', channel=0, note=69, velocity=0, time=160),\n",
       "    Message('note_on', channel=0, note=74, velocity=0, time=0),\n",
       "    Message('note_on', channel=0, note=69, velocity=110, time=32),\n",
       "    Message('note_on', channel=0, note=74, velocity=110, time=0),\n",
       "    Message('note_on', channel=0, note=69, velocity=0, time=160),\n",
       "    Message('note_on', channel=0, note=74, velocity=0, time=0),\n",
       "    Message('control_change', channel=0, control=64, value=0, time=32),\n",
       "    Message('control_change', channel=0, control=64, value=127, time=0),\n",
       "    Message('note_on', channel=0, note=69, velocity=110, time=0),\n",
       "    Message('note_on', channel=0, note=72, velocity=110, time=0),\n",
       "    Message('note_on', channel=0, note=76, velocity=110, time=0),\n",
       "    Message('note_on', channel=0, note=69, velocity=0, time=160),\n",
       "    Message('note_on', channel=0, note=72, velocity=0, time=0),\n",
       "    Message('note_on', channel=0, note=76, velocity=0, time=0),\n",
       "    Message('control_change', channel=0, control=64, value=0, time=32),\n",
       "    Message('control_change', channel=0, control=64, value=127, time=0),\n",
       "    Message('note_on', channel=0, note=72, velocity=110, time=0),\n",
       "    Message('note_on', channel=0, note=74, velocity=110, time=0),\n",
       "    Message('note_on', channel=0, note=77, velocity=110, time=0),\n",
       "    Message('note_on', channel=0, note=72, velocity=0, time=160),\n",
       "    Message('note_on', channel=0, note=74, velocity=0, time=0),\n",
       "    Message('note_on', channel=0, note=77, velocity=0, time=0),\n",
       "    Message('note_on', channel=0, note=77, velocity=110, time=32),\n",
       "    Message('note_on', channel=0, note=77, velocity=0, time=94),\n",
       "    Message('note_on', channel=0, note=77, velocity=110, time=2),\n",
       "    Message('note_on', channel=0, note=77, velocity=0, time=94),\n",
       "    Message('control_change', channel=0, control=64, value=0, time=2),\n",
       "    Message('control_change', channel=0, control=64, value=127, time=0),\n",
       "    Message('note_on', channel=0, note=70, velocity=110, time=0),\n",
       "    Message('note_on', channel=0, note=74, velocity=110, time=0),\n",
       "    Message('note_on', channel=0, note=79, velocity=110, time=0),\n",
       "    Message('note_on', channel=0, note=70, velocity=0, time=160),\n",
       "    Message('note_on', channel=0, note=74, velocity=0, time=0),\n",
       "    Message('note_on', channel=0, note=79, velocity=0, time=0),\n",
       "    Message('control_change', channel=0, control=64, value=0, time=32),\n",
       "    Message('control_change', channel=0, control=64, value=127, time=0),\n",
       "    Message('note_on', channel=0, note=74, velocity=110, time=0),\n",
       "    Message('note_on', channel=0, note=81, velocity=110, time=0),\n",
       "    Message('note_on', channel=0, note=74, velocity=0, time=94),\n",
       "    Message('note_on', channel=0, note=81, velocity=0, time=0),\n",
       "    Message('note_on', channel=0, note=77, velocity=110, time=2),\n",
       "    Message('note_on', channel=0, note=77, velocity=0, time=94),\n",
       "    Message('note_on', channel=0, note=69, velocity=110, time=194),\n",
       "    Message('note_on', channel=0, note=77, velocity=110, time=0),\n",
       "    Message('note_on', channel=0, note=69, velocity=0, time=94),\n",
       "    Message('note_on', channel=0, note=77, velocity=0, time=0),\n",
       "    Message('note_on', channel=0, note=69, velocity=110, time=2),\n",
       "    Message('note_on', channel=0, note=74, velocity=110, time=0),\n",
       "    Message('note_on', channel=0, note=69, velocity=0, time=94),\n",
       "    Message('note_on', channel=0, note=74, velocity=0, time=0),\n",
       "    Message('note_on', channel=0, note=69, velocity=110, time=2),\n",
       "    Message('note_on', channel=0, note=69, velocity=0, time=94),\n",
       "    Message('control_change', channel=0, control=64, value=0, time=482),\n",
       "    Message('control_change', channel=0, control=64, value=127, time=0),\n",
       "    Message('note_on', channel=0, note=74, velocity=110, time=0),\n",
       "    Message('note_on', channel=0, note=79, velocity=110, time=0),\n",
       "    Message('note_on', channel=0, note=82, velocity=110, time=0),\n",
       "    Message('note_on', channel=0, note=74, velocity=0, time=94),\n",
       "    Message('note_on', channel=0, note=79, velocity=0, time=0),\n",
       "    Message('note_on', channel=0, note=82, velocity=0, time=0),\n",
       "    Message('note_on', channel=0, note=70, velocity=110, time=290),\n",
       "    Message('note_on', channel=0, note=79, velocity=110, time=0),\n",
       "    Message('note_on', channel=0, note=70, velocity=0, time=94),\n",
       "    Message('note_on', channel=0, note=79, velocity=0, time=0),\n",
       "    Message('note_on', channel=0, note=70, velocity=110, time=2),\n",
       "    Message('note_on', channel=0, note=74, velocity=110, time=0),\n",
       "    Message('note_on', channel=0, note=70, velocity=0, time=94),\n",
       "    Message('note_on', channel=0, note=74, velocity=0, time=0),\n",
       "    Message('note_on', channel=0, note=70, velocity=110, time=2),\n",
       "    Message('note_on', channel=0, note=70, velocity=0, time=94),\n",
       "    Message('control_change', channel=0, control=64, value=0, time=482),\n",
       "    Message('control_change', channel=0, control=64, value=127, time=0),\n",
       "    Message('note_on', channel=0, note=61, velocity=110, time=0),\n",
       "    Message('note_on', channel=0, note=64, velocity=110, time=0),\n",
       "    Message('note_on', channel=0, note=61, velocity=0, time=94),\n",
       "    Message('note_on', channel=0, note=64, velocity=0, time=0),\n",
       "    Message('note_on', channel=0, note=61, velocity=110, time=2),\n",
       "    Message('note_on', channel=0, note=64, velocity=110, time=0),\n",
       "    Message('note_on', channel=0, note=61, velocity=0, time=160),\n",
       "    Message('note_on', channel=0, note=64, velocity=0, time=0),\n",
       "    Message('note_on', channel=0, note=55, velocity=110, time=32),\n",
       "    Message('note_on', channel=0, note=62, velocity=110, time=0),\n",
       "    Message('note_on', channel=0, note=55, velocity=0, time=256),\n",
       "    Message('note_on', channel=0, note=62, velocity=0, time=0),\n",
       "    Message('control_change', channel=0, control=64, value=0, time=32),\n",
       "    Message('control_change', channel=0, control=64, value=127, time=0),\n",
       "    Message('note_on', channel=0, note=57, velocity=110, time=0),\n",
       "    Message('note_on', channel=0, note=61, velocity=110, time=0),\n",
       "    Message('note_on', channel=0, note=65, velocity=110, time=0),\n",
       "    Message('note_on', channel=0, note=57, velocity=0, time=256),\n",
       "    Message('note_on', channel=0, note=61, velocity=0, time=0),\n",
       "    Message('note_on', channel=0, note=65, velocity=0, time=0),\n",
       "    Message('note_on', channel=0, note=65, velocity=110, time=128),\n",
       "    Message('note_on', channel=0, note=65, velocity=0, time=94),\n",
       "    Message('note_on', channel=0, note=67, velocity=110, time=2),\n",
       "    Message('note_on', channel=0, note=67, velocity=0, time=94),\n",
       "    Message('control_change', channel=0, control=64, value=0, time=2),\n",
       "    Message('control_change', channel=0, control=64, value=127, time=0),\n",
       "    Message('note_on', channel=0, note=62, velocity=110, time=0),\n",
       "    Message('note_on', channel=0, note=65, velocity=110, time=0),\n",
       "    Message('note_on', channel=0, note=69, velocity=110, time=0),\n",
       "    Message('note_on', channel=0, note=62, velocity=0, time=160),\n",
       "    Message('note_on', channel=0, note=65, velocity=0, time=0),\n",
       "    Message('note_on', channel=0, note=69, velocity=0, time=0),\n",
       "    Message('note_on', channel=0, note=62, velocity=110, time=32),\n",
       "    Message('note_on', channel=0, note=65, velocity=110, time=0),\n",
       "    Message('note_on', channel=0, note=69, velocity=110, time=0),\n",
       "    Message('note_on', channel=0, note=62, velocity=0, time=160),\n",
       "    Message('note_on', channel=0, note=65, velocity=0, time=0),\n",
       "    Message('note_on', channel=0, note=69, velocity=0, time=0),\n",
       "    Message('note_on', channel=0, note=62, velocity=110, time=32),\n",
       "    Message('note_on', channel=0, note=65, velocity=110, time=0),\n",
       "    Message('note_on', channel=0, note=69, velocity=110, time=0),\n",
       "    Message('note_on', channel=0, note=62, velocity=0, time=160),\n",
       "    Message('note_on', channel=0, note=65, velocity=0, time=0),\n",
       "    Message('note_on', channel=0, note=69, velocity=0, time=0),\n",
       "    Message('note_on', channel=0, note=62, velocity=110, time=32),\n",
       "    Message('note_on', channel=0, note=65, velocity=110, time=0),\n",
       "    Message('note_on', channel=0, note=70, velocity=110, time=0),\n",
       "    Message('note_on', channel=0, note=62, velocity=0, time=94),\n",
       "    Message('note_on', channel=0, note=65, velocity=0, time=0),\n",
       "    Message('note_on', channel=0, note=70, velocity=0, time=0),\n",
       "    Message('control_change', channel=0, control=64, value=0, time=2),\n",
       "    Message('control_change', channel=0, control=64, value=127, time=0),\n",
       "    Message('note_on', channel=0, note=62, velocity=110, time=0),\n",
       "    Message('note_on', channel=0, note=65, velocity=110, time=0),\n",
       "    Message('note_on', channel=0, note=69, velocity=110, time=0),\n",
       "    Message('note_on', channel=0, note=62, velocity=0, time=94),\n",
       "    Message('note_on', channel=0, note=65, velocity=0, time=0),\n",
       "    Message('note_on', channel=0, note=69, velocity=0, time=0),\n",
       "    Message('control_change', channel=0, control=64, value=0, time=386),\n",
       "    Message('control_change', channel=0, control=64, value=127, time=0),\n",
       "    Message('note_on', channel=0, note=60, velocity=110, time=0),\n",
       "    Message('note_on', channel=0, note=64, velocity=110, time=0),\n",
       "    Message('note_on', channel=0, note=67, velocity=110, time=0),\n",
       "    Message('note_on', channel=0, note=60, velocity=0, time=160),\n",
       "    Message('note_on', channel=0, note=64, velocity=0, time=0),\n",
       "    Message('note_on', channel=0, note=67, velocity=0, time=0),\n",
       "    Message('note_on', channel=0, note=60, velocity=110, time=32),\n",
       "    Message('note_on', channel=0, note=64, velocity=110, time=0),\n",
       "    Message('note_on', channel=0, note=67, velocity=110, time=0),\n",
       "    Message('note_on', channel=0, note=60, velocity=0, time=160),\n",
       "    Message('note_on', channel=0, note=64, velocity=0, time=0),\n",
       "    Message('note_on', channel=0, note=67, velocity=0, time=0),\n",
       "    Message('note_on', channel=0, note=60, velocity=110, time=32),\n",
       "    Message('note_on', channel=0, note=64, velocity=110, time=0),\n",
       "    Message('note_on', channel=0, note=67, velocity=110, time=0),\n",
       "    Message('note_on', channel=0, note=60, velocity=0, time=160),\n",
       "    Message('note_on', channel=0, note=64, velocity=0, time=0),\n",
       "    Message('note_on', channel=0, note=67, velocity=0, time=0),\n",
       "    Message('note_on', channel=0, note=60, velocity=110, time=32),\n",
       "    Message('note_on', channel=0, note=64, velocity=110, time=0),\n",
       "    Message('note_on', channel=0, note=67, velocity=110, time=0),\n",
       "    Message('note_on', channel=0, note=60, velocity=0, time=94),\n",
       "    Message('note_on', channel=0, note=64, velocity=0, time=0),\n",
       "    Message('note_on', channel=0, note=67, velocity=0, time=0),\n",
       "    Message('control_change', channel=0, control=64, value=0, time=2),\n",
       "    Message('control_change', channel=0, control=64, value=127, time=0),\n",
       "    Message('note_on', channel=0, note=60, velocity=110, time=0),\n",
       "    Message('note_on', channel=0, note=65, velocity=110, time=0),\n",
       "    Message('note_on', channel=0, note=69, velocity=110, time=0),\n",
       "    Message('note_on', channel=0, note=60, velocity=0, time=94),\n",
       "    Message('note_on', channel=0, note=65, velocity=0, time=0),\n",
       "    Message('note_on', channel=0, note=69, velocity=0, time=0),\n",
       "    Message('control_change', channel=0, control=64, value=0, time=386),\n",
       "    Message('control_change', channel=0, control=64, value=127, time=0),\n",
       "    Message('note_on', channel=0, note=62, velocity=110, time=0),\n",
       "    Message('note_on', channel=0, note=65, velocity=110, time=0),\n",
       "    Message('note_on', channel=0, note=69, velocity=110, time=0),\n",
       "    Message('note_on', channel=0, note=62, velocity=0, time=160),\n",
       "    Message('note_on', channel=0, note=65, velocity=0, time=0),\n",
       "    Message('note_on', channel=0, note=69, velocity=0, time=0),\n",
       "    Message('note_on', channel=0, note=62, velocity=110, time=32),\n",
       "    Message('note_on', channel=0, note=65, velocity=110, time=0),\n",
       "    Message('note_on', channel=0, note=69, velocity=110, time=0),\n",
       "    Message('note_on', channel=0, note=62, velocity=0, time=160),\n",
       "    Message('note_on', channel=0, note=65, velocity=0, time=0),\n",
       "    Message('note_on', channel=0, note=69, velocity=0, time=0),\n",
       "    Message('note_on', channel=0, note=62, velocity=110, time=32),\n",
       "    Message('note_on', channel=0, note=65, velocity=110, time=0),\n",
       "    Message('note_on', channel=0, note=69, velocity=110, time=0),\n",
       "    Message('note_on', channel=0, note=62, velocity=0, time=160),\n",
       "    Message('note_on', channel=0, note=65, velocity=0, time=0),\n",
       "    Message('note_on', channel=0, note=69, velocity=0, time=0),\n",
       "    Message('note_on', channel=0, note=62, velocity=110, time=32),\n",
       "    Message('note_on', channel=0, note=65, velocity=110, time=0),\n",
       "    Message('note_on', channel=0, note=70, velocity=110, time=0),\n",
       "    Message('note_on', channel=0, note=62, velocity=0, time=94),\n",
       "    Message('note_on', channel=0, note=65, velocity=0, time=0),\n",
       "    Message('note_on', channel=0, note=70, velocity=0, time=0),\n",
       "    Message('control_change', channel=0, control=64, value=0, time=2),\n",
       "    Message('control_change', channel=0, control=64, value=127, time=0),\n",
       "    Message('note_on', channel=0, note=62, velocity=110, time=0),\n",
       "    Message('note_on', channel=0, note=65, velocity=110, time=0),\n",
       "    Message('note_on', channel=0, note=69, velocity=110, time=0),\n",
       "    Message('note_on', channel=0, note=62, velocity=0, time=94),\n",
       "    Message('note_on', channel=0, note=65, velocity=0, time=0),\n",
       "    Message('note_on', channel=0, note=69, velocity=0, time=0),\n",
       "    Message('control_change', channel=0, control=64, value=0, time=386),\n",
       "    Message('control_change', channel=0, control=64, value=127, time=0),\n",
       "    Message('note_on', channel=0, note=61, velocity=110, time=0),\n",
       "    Message('note_on', channel=0, note=64, velocity=110, time=0),\n",
       "    Message('note_on', channel=0, note=67, velocity=110, time=0),\n",
       "    Message('note_on', channel=0, note=61, velocity=0, time=160),\n",
       "    Message('note_on', channel=0, note=64, velocity=0, time=0),\n",
       "    Message('note_on', channel=0, note=67, velocity=0, time=0),\n",
       "    Message('note_on', channel=0, note=61, velocity=110, time=32),\n",
       "    Message('note_on', channel=0, note=65, velocity=110, time=0),\n",
       "    Message('note_on', channel=0, note=61, velocity=0, time=160),\n",
       "    Message('note_on', channel=0, note=65, velocity=0, time=0),\n",
       "    Message('note_on', channel=0, note=57, velocity=110, time=32),\n",
       "    Message('note_on', channel=0, note=64, velocity=110, time=0),\n",
       "    Message('note_on', channel=0, note=57, velocity=0, time=160),\n",
       "    Message('note_on', channel=0, note=64, velocity=0, time=0),\n",
       "    Message('control_change', channel=0, control=64, value=0, time=32),\n",
       "    Message('control_change', channel=0, control=64, value=127, time=0),\n",
       "    Message('note_on', channel=0, note=53, velocity=110, time=0),\n",
       "    Message('note_on', channel=0, note=57, velocity=110, time=0),\n",
       "    Message('note_on', channel=0, note=62, velocity=110, time=0),\n",
       "    Message('note_on', channel=0, note=53, velocity=0, time=160),\n",
       "    Message('note_on', channel=0, note=57, velocity=0, time=0),\n",
       "    Message('note_on', channel=0, note=62, velocity=0, time=0),\n",
       "    Message('note_on', channel=0, note=62, velocity=110, time=224),\n",
       "    Message('note_on', channel=0, note=62, velocity=0, time=94),\n",
       "    Message('note_on', channel=0, note=64, velocity=110, time=2),\n",
       "    Message('note_on', channel=0, note=64, velocity=0, time=94),\n",
       "    Message('control_change', channel=0, control=64, value=0, time=2),\n",
       "    Message('control_change', channel=0, control=64, value=127, time=0),\n",
       "    Message('note_on', channel=0, note=57, velocity=110, time=0),\n",
       "    Message('note_on', channel=0, note=62, velocity=110, time=0),\n",
       "    Message('note_on', channel=0, note=65, velocity=110, time=0),\n",
       "    Message('note_on', channel=0, note=57, velocity=0, time=336),\n",
       "    Message('note_on', channel=0, note=62, velocity=0, time=0),\n",
       "    Message('note_on', channel=0, note=65, velocity=0, time=0),\n",
       "    Message('note_on', channel=0, note=67, velocity=110, time=48),\n",
       "    Message('note_on', channel=0, note=67, velocity=0, time=94),\n",
       "    Message('note_on', channel=0, note=69, velocity=110, time=2),\n",
       "    Message('note_on', channel=0, note=69, velocity=0, time=94),\n",
       "    Message('control_change', channel=0, control=64, value=0, time=2),\n",
       "    Message('control_change', channel=0, control=64, value=127, time=0),\n",
       "    Message('note_on', channel=0, note=60, velocity=110, time=0),\n",
       "    Message('note_on', channel=0, note=67, velocity=110, time=0),\n",
       "    Message('note_on', channel=0, note=60, velocity=0, time=160),\n",
       "    Message('note_on', channel=0, note=67, velocity=0, time=0),\n",
       "    Message('note_on', channel=0, note=60, velocity=110, time=32),\n",
       "    Message('note_on', channel=0, note=65, velocity=110, time=0),\n",
       "    Message('note_on', channel=0, note=60, velocity=0, time=160),\n",
       "    Message('note_on', channel=0, note=65, velocity=0, time=0),\n",
       "    Message('note_on', channel=0, note=60, velocity=110, time=32),\n",
       "    Message('note_on', channel=0, note=64, velocity=110, time=0),\n",
       "    Message('note_on', channel=0, note=60, velocity=0, time=160),\n",
       "    Message('note_on', channel=0, note=64, velocity=0, time=0),\n",
       "    Message('control_change', channel=0, control=64, value=0, time=32),\n",
       "    Message('control_change', channel=0, control=64, value=127, time=0),\n",
       "    Message('note_on', channel=0, note=57, velocity=110, time=0),\n",
       "    Message('note_on', channel=0, note=60, velocity=110, time=0),\n",
       "    Message('note_on', channel=0, note=65, velocity=110, time=0),\n",
       "    Message('note_on', channel=0, note=57, velocity=0, time=160),\n",
       "    Message('note_on', channel=0, note=60, velocity=0, time=0),\n",
       "    Message('note_on', channel=0, note=65, velocity=0, time=0),\n",
       "    Message('note_on', channel=0, note=57, velocity=110, time=32),\n",
       "    Message('note_on', channel=0, note=60, velocity=110, time=0),\n",
       "    Message('note_on', channel=0, note=67, velocity=110, time=0),\n",
       "    Message('note_on', channel=0, note=57, velocity=0, time=160),\n",
       "    Message('note_on', channel=0, note=60, velocity=0, time=0),\n",
       "    Message('note_on', channel=0, note=67, velocity=0, time=0),\n",
       "    Message('note_on', channel=0, note=57, velocity=110, time=32),\n",
       "    Message('note_on', channel=0, note=60, velocity=110, time=0),\n",
       "    Message('note_on', channel=0, note=69, velocity=110, time=0),\n",
       "    Message('note_on', channel=0, note=57, velocity=0, time=160),\n",
       "    Message('note_on', channel=0, note=60, velocity=0, time=0),\n",
       "    Message('note_on', channel=0, note=69, velocity=0, time=0),\n",
       "    Message('control_change', channel=0, control=64, value=0, time=32),\n",
       "    Message('control_change', channel=0, control=64, value=127, time=0),\n",
       "    Message('note_on', channel=0, note=60, velocity=110, time=0),\n",
       "    Message('note_on', channel=0, note=64, velocity=110, time=0),\n",
       "    Message('note_on', channel=0, note=67, velocity=110, time=0),\n",
       "    Message('note_on', channel=0, note=60, velocity=0, time=160),\n",
       "    Message('note_on', channel=0, note=64, velocity=0, time=0),\n",
       "    Message('note_on', channel=0, note=67, velocity=0, time=0),\n",
       "    Message('note_on', channel=0, note=65, velocity=110, time=224),\n",
       "    Message('note_on', channel=0, note=65, velocity=0, time=94),\n",
       "    Message('note_on', channel=0, note=67, velocity=110, time=2),\n",
       "    Message('note_on', channel=0, note=67, velocity=0, time=94),\n",
       "    Message('control_change', channel=0, control=64, value=0, time=2),\n",
       "    Message('control_change', channel=0, control=64, value=127, time=0),\n",
       "    Message('note_on', channel=0, note=60, velocity=110, time=0),\n",
       "    Message('note_on', channel=0, note=65, velocity=110, time=0),\n",
       "    Message('note_on', channel=0, note=69, velocity=110, time=0),\n",
       "    Message('note_on', channel=0, note=60, velocity=0, time=160),\n",
       "    Message('note_on', channel=0, note=65, velocity=0, time=0),\n",
       "    Message('note_on', channel=0, note=69, velocity=0, time=0),\n",
       "    Message('note_on', channel=0, note=67, velocity=110, time=224),\n",
       "    Message('note_on', channel=0, note=67, velocity=0, time=94),\n",
       "    Message('note_on', channel=0, note=65, velocity=110, time=2),\n",
       "    Message('note_on', channel=0, note=65, velocity=0, time=94),\n",
       "    Message('control_change', channel=0, control=64, value=0, time=2),\n",
       "    Message('control_change', channel=0, control=64, value=127, time=0),\n",
       "    Message('note_on', channel=0, note=61, velocity=110, time=0),\n",
       "    Message('note_on', channel=0, note=64, velocity=110, time=0),\n",
       "    Message('note_on', channel=0, note=61, velocity=0, time=160),\n",
       "    Message('note_on', channel=0, note=64, velocity=0, time=0),\n",
       "    Message('note_on', channel=0, note=61, velocity=110, time=32),\n",
       "    Message('note_on', channel=0, note=65, velocity=110, time=0),\n",
       "    Message('note_on', channel=0, note=61, velocity=0, time=160),\n",
       "    Message('note_on', channel=0, note=65, velocity=0, time=0),\n",
       "    Message('note_on', channel=0, note=61, velocity=110, time=32),\n",
       "    Message('note_on', channel=0, note=64, velocity=110, time=0),\n",
       "    Message('note_on', channel=0, note=61, velocity=0, time=160),\n",
       "    Message('note_on', channel=0, note=64, velocity=0, time=0),\n",
       "    Message('control_change', channel=0, control=64, value=0, time=32),\n",
       "    Message('control_change', channel=0, control=64, value=127, time=0),\n",
       "    Message('note_on', channel=0, note=53, velocity=110, time=0),\n",
       "    Message('note_on', channel=0, note=57, velocity=110, time=0),\n",
       "    Message('note_on', channel=0, note=62, velocity=110, time=0),\n",
       "    Message('note_on', channel=0, note=53, velocity=0, time=160),\n",
       "    Message('note_on', channel=0, note=57, velocity=0, time=0),\n",
       "    Message('note_on', channel=0, note=62, velocity=0, time=0),\n",
       "    Message('note_on', channel=0, note=64, velocity=110, time=224),\n",
       "    Message('note_on', channel=0, note=64, velocity=0, time=94),\n",
       "    Message('note_on', channel=0, note=60, velocity=110, time=2),\n",
       "    Message('note_on', channel=0, note=60, velocity=0, time=94),\n",
       "    Message('control_change', channel=0, control=64, value=0, time=2),\n",
       "    Message('control_change', channel=0, control=64, value=127, time=0),\n",
       "    Message('note_on', channel=0, note=53, velocity=110, time=0),\n",
       "    Message('note_on', channel=0, note=57, velocity=110, time=0),\n",
       "    Message('note_on', channel=0, note=62, velocity=110, time=0),\n",
       "    Message('note_on', channel=0, note=53, velocity=0, time=94),\n",
       "    Message('note_on', channel=0, note=57, velocity=0, time=0),\n",
       "    Message('note_on', channel=0, note=62, velocity=0, time=0),\n",
       "    Message('note_on', channel=0, note=74, velocity=110, time=290),\n",
       "    Message('note_on', channel=0, note=74, velocity=0, time=94),\n",
       "    Message('note_on', channel=0, note=76, velocity=110, time=2),\n",
       "    Message('note_on', channel=0, note=76, velocity=0, time=94),\n",
       "    Message('control_change', channel=0, control=64, value=0, time=2),\n",
       "    Message('control_change', channel=0, control=64, value=127, time=0),\n",
       "    Message('note_on', channel=0, note=69, velocity=110, time=0),\n",
       "    Message('note_on', channel=0, note=74, velocity=110, time=0),\n",
       "    Message('note_on', channel=0, note=77, velocity=110, time=0),\n",
       "    Message('note_on', channel=0, note=69, velocity=0, time=160),\n",
       "    Message('note_on', channel=0, note=74, velocity=0, time=0),\n",
       "    Message('note_on', channel=0, note=77, velocity=0, time=0),\n",
       "    Message('note_on', channel=0, note=76, velocity=110, time=224),\n",
       "    Message('note_on', channel=0, note=76, velocity=0, time=94),\n",
       "    Message('note_on', channel=0, note=77, velocity=110, time=2),\n",
       "    Message('note_on', channel=0, note=77, velocity=0, time=94),\n",
       "    Message('control_change', channel=0, control=64, value=0, time=2),\n",
       "    Message('control_change', channel=0, control=64, value=127, time=0),\n",
       "    Message('note_on', channel=0, note=72, velocity=110, time=0),\n",
       "    Message('note_on', channel=0, note=79, velocity=110, time=0),\n",
       "    Message('note_on', channel=0, note=72, velocity=0, time=160),\n",
       "    Message('note_on', channel=0, note=79, velocity=0, time=0),\n",
       "    Message('note_on', channel=0, note=72, velocity=110, time=32),\n",
       "    Message('note_on', channel=0, note=77, velocity=110, time=0),\n",
       "    Message('note_on', channel=0, note=72, velocity=0, time=160),\n",
       "    Message('note_on', channel=0, note=77, velocity=0, time=0),\n",
       "    Message('note_on', channel=0, note=72, velocity=110, time=32),\n",
       "    Message('note_on', channel=0, note=79, velocity=110, time=0),\n",
       "    Message('note_on', channel=0, note=72, velocity=0, time=160),\n",
       "    Message('note_on', channel=0, note=79, velocity=0, time=0),\n",
       "    Message('control_change', channel=0, control=64, value=0, time=32),\n",
       "    Message('control_change', channel=0, control=64, value=127, time=0),\n",
       "    Message('note_on', channel=0, note=77, velocity=110, time=0),\n",
       "    Message('note_on', channel=0, note=81, velocity=110, time=0),\n",
       "    Message('note_on', channel=0, note=77, velocity=0, time=160),\n",
       "    Message('note_on', channel=0, note=81, velocity=0, time=0),\n",
       "    Message('note_on', channel=0, note=72, velocity=110, time=32),\n",
       "    Message('note_on', channel=0, note=79, velocity=110, time=0),\n",
       "    Message('note_on', channel=0, note=72, velocity=0, time=160),\n",
       "    Message('note_on', channel=0, note=79, velocity=0, time=0),\n",
       "    Message('note_on', channel=0, note=72, velocity=110, time=32),\n",
       "    Message('note_on', channel=0, note=77, velocity=110, time=0),\n",
       "    Message('note_on', channel=0, note=72, velocity=0, time=160),\n",
       "    Message('note_on', channel=0, note=77, velocity=0, time=0),\n",
       "    Message('control_change', channel=0, control=64, value=0, time=32),\n",
       "    Message('control_change', channel=0, control=64, value=127, time=0),\n",
       "    Message('note_on', channel=0, note=65, velocity=110, time=0),\n",
       "    Message('note_on', channel=0, note=70, velocity=110, time=0),\n",
       "    Message('note_on', channel=0, note=74, velocity=110, time=0),\n",
       "    Message('note_on', channel=0, note=65, velocity=0, time=160),\n",
       "    Message('note_on', channel=0, note=70, velocity=0, time=0),\n",
       "    Message('note_on', channel=0, note=74, velocity=0, time=0),\n",
       "    Message('note_on', channel=0, note=74, velocity=110, time=224),\n",
       "    Message('note_on', channel=0, note=74, velocity=0, time=94),\n",
       "    Message('note_on', channel=0, note=76, velocity=110, time=2),\n",
       "    Message('note_on', channel=0, note=76, velocity=0, time=94),\n",
       "    Message('control_change', channel=0, control=64, value=0, time=2),\n",
       "    Message('control_change', channel=0, control=64, value=127, time=0),\n",
       "    Message('note_on', channel=0, note=69, velocity=110, time=0),\n",
       "    Message('note_on', channel=0, note=74, velocity=110, time=0),\n",
       "    Message('note_on', channel=0, note=77, velocity=110, time=0),\n",
       "    Message('note_on', channel=0, note=69, velocity=0, time=160),\n",
       "    Message('note_on', channel=0, note=74, velocity=0, time=0),\n",
       "    Message('note_on', channel=0, note=77, velocity=0, time=0),\n",
       "    Message('note_on', channel=0, note=69, velocity=110, time=32),\n",
       "    Message('note_on', channel=0, note=74, velocity=110, time=0),\n",
       "    Message('note_on', channel=0, note=79, velocity=110, time=0),\n",
       "    Message('note_on', channel=0, note=69, velocity=0, time=160),\n",
       "    Message('note_on', channel=0, note=74, velocity=0, time=0),\n",
       "    Message('note_on', channel=0, note=79, velocity=0, time=0),\n",
       "    Message('note_on', channel=0, note=74, velocity=110, time=32),\n",
       "    Message('note_on', channel=0, note=81, velocity=110, time=0),\n",
       "    Message('note_on', channel=0, note=74, velocity=0, time=160),\n",
       "    Message('note_on', channel=0, note=81, velocity=0, time=0),\n",
       "    Message('control_change', channel=0, control=64, value=0, time=32),\n",
       "    Message('control_change', channel=0, control=64, value=127, time=0),\n",
       "    Message('note_on', channel=0, note=70, velocity=110, time=0),\n",
       "    Message('note_on', channel=0, note=74, velocity=110, time=0),\n",
       "    Message('note_on', channel=0, note=82, velocity=110, time=0),\n",
       "    Message('note_on', channel=0, note=70, velocity=0, time=160),\n",
       "    Message('note_on', channel=0, note=74, velocity=0, time=0),\n",
       "    Message('note_on', channel=0, note=82, velocity=0, time=0),\n",
       "    Message('note_on', channel=0, note=70, velocity=110, time=32),\n",
       "    Message('note_on', channel=0, note=74, velocity=110, time=0),\n",
       "    Message('note_on', channel=0, note=70, velocity=0, time=160),\n",
       "    Message('note_on', channel=0, note=74, velocity=0, time=0),\n",
       "    Message('note_on', channel=0, note=70, velocity=110, time=32),\n",
       "    Message('note_on', channel=0, note=79, velocity=110, time=0),\n",
       "    Message('note_on', channel=0, note=70, velocity=0, time=160),\n",
       "    Message('note_on', channel=0, note=79, velocity=0, time=0),\n",
       "    Message('control_change', channel=0, control=64, value=0, time=32),\n",
       "    Message('control_change', channel=0, control=64, value=127, time=0),\n",
       "    Message('note_on', channel=0, note=69, velocity=110, time=0),\n",
       "    Message('note_on', channel=0, note=77, velocity=110, time=0),\n",
       "    Message('note_on', channel=0, note=69, velocity=0, time=160),\n",
       "    Message('note_on', channel=0, note=77, velocity=0, time=0),\n",
       "    Message('note_on', channel=0, note=79, velocity=110, time=224),\n",
       "    Message('note_on', channel=0, note=79, velocity=0, time=94),\n",
       "    Message('note_on', channel=0, note=76, velocity=110, time=2),\n",
       "    Message('note_on', channel=0, note=76, velocity=0, time=94),\n",
       "    Message('control_change', channel=0, control=64, value=0, time=2),\n",
       "    Message('control_change', channel=0, control=64, value=127, time=0),\n",
       "    Message('note_on', channel=0, note=69, velocity=110, time=0),\n",
       "    Message('note_on', channel=0, note=74, velocity=110, time=0),\n",
       "    Message('note_on', channel=0, note=69, velocity=0, time=160),\n",
       "    Message('note_on', channel=0, note=74, velocity=0, time=0),\n",
       "    Message('note_on', channel=0, note=76, velocity=110, time=224),\n",
       "    Message('note_on', channel=0, note=76, velocity=0, time=94),\n",
       "    Message('note_on', channel=0, note=73, velocity=110, time=2),\n",
       "    Message('note_on', channel=0, note=73, velocity=0, time=94),\n",
       "    Message('control_change', channel=0, control=64, value=0, time=2),\n",
       "    Message('control_change', channel=0, control=64, value=127, time=0),\n",
       "    Message('note_on', channel=0, note=74, velocity=110, time=0),\n",
       "    Message('note_on', channel=0, note=77, velocity=110, time=0),\n",
       "    Message('note_on', channel=0, note=81, velocity=110, time=0),\n",
       "    Message('note_on', channel=0, note=74, velocity=0, time=160),\n",
       "    Message('note_on', channel=0, note=77, velocity=0, time=0),\n",
       "    Message('note_on', channel=0, note=81, velocity=0, time=0),\n",
       "    Message('control_change', channel=0, control=64, value=0, time=416),\n",
       "    Message('control_change', channel=0, control=64, value=127, time=0),\n",
       "    Message('note_on', channel=0, note=74, velocity=110, time=0),\n",
       "    Message('note_on', channel=0, note=79, velocity=110, time=0),\n",
       "    Message('note_on', channel=0, note=82, velocity=110, time=0),\n",
       "    Message('note_on', channel=0, note=74, velocity=0, time=160),\n",
       "    Message('note_on', channel=0, note=79, velocity=0, time=0),\n",
       "    Message('note_on', channel=0, note=82, velocity=0, time=0),\n",
       "    Message('control_change', channel=0, control=64, value=0, time=416),\n",
       "    Message('control_change', channel=0, control=64, value=127, time=0),\n",
       "    Message('note_on', channel=0, note=72, velocity=110, time=0),\n",
       "    Message('note_on', channel=0, note=77, velocity=110, time=0),\n",
       "    Message('note_on', channel=0, note=81, velocity=110, time=0),\n",
       "    Message('note_on', channel=0, note=72, velocity=0, time=160),\n",
       "    Message('note_on', channel=0, note=77, velocity=0, time=0),\n",
       "    Message('note_on', channel=0, note=81, velocity=0, time=0),\n",
       "    Message('note_on', channel=0, note=72, velocity=110, time=32),\n",
       "    Message('note_on', channel=0, note=77, velocity=110, time=0),\n",
       "    Message('note_on', channel=0, note=81, velocity=110, time=0),\n",
       "    Message('note_on', channel=0, note=72, velocity=0, time=160),\n",
       "    Message('note_on', channel=0, note=77, velocity=0, time=0),\n",
       "    Message('note_on', channel=0, note=81, velocity=0, time=0),\n",
       "    Message('note_on', channel=0, note=72, velocity=110, time=32),\n",
       "    Message('note_on', channel=0, note=77, velocity=110, time=0),\n",
       "    Message('note_on', channel=0, note=81, velocity=110, time=0),\n",
       "    Message('note_on', channel=0, note=72, velocity=0, time=160),\n",
       "    Message('note_on', channel=0, note=77, velocity=0, time=0),\n",
       "    Message('note_on', channel=0, note=81, velocity=0, time=0),\n",
       "    Message('note_on', channel=0, note=72, velocity=110, time=32),\n",
       "    Message('note_on', channel=0, note=76, velocity=110, time=0),\n",
       "    Message('note_on', channel=0, note=81, velocity=110, time=0),\n",
       "    Message('note_on', channel=0, note=72, velocity=0, time=94),\n",
       "    Message('note_on', channel=0, note=76, velocity=0, time=0),\n",
       "    Message('note_on', channel=0, note=81, velocity=0, time=0),\n",
       "    Message('control_change', channel=0, control=64, value=0, time=2),\n",
       "    Message('control_change', channel=0, control=64, value=127, time=0),\n",
       "    Message('note_on', channel=0, note=79, velocity=110, time=0),\n",
       "    Message('note_on', channel=0, note=79, velocity=0, time=94),\n",
       "    Message('control_change', channel=0, control=64, value=0, time=386),\n",
       "    Message('control_change', channel=0, control=64, value=127, time=0),\n",
       "    Message('note_on', channel=0, note=70, velocity=110, time=0),\n",
       "    Message('note_on', channel=0, note=74, velocity=110, time=0),\n",
       "    Message('note_on', channel=0, note=79, velocity=110, time=0),\n",
       "    Message('note_on', channel=0, note=70, velocity=0, time=160),\n",
       "    Message('note_on', channel=0, note=74, velocity=0, time=0),\n",
       "    Message('note_on', channel=0, note=79, velocity=0, time=0),\n",
       "    Message('control_change', channel=0, control=64, value=0, time=416),\n",
       "    Message('control_change', channel=0, control=64, value=127, time=0),\n",
       "    Message('note_on', channel=0, note=69, velocity=110, time=0),\n",
       "    Message('note_on', channel=0, note=74, velocity=110, time=0),\n",
       "    Message('note_on', channel=0, note=77, velocity=110, time=0),\n",
       "    Message('note_on', channel=0, note=69, velocity=0, time=160),\n",
       "    Message('note_on', channel=0, note=74, velocity=0, time=0),\n",
       "    Message('note_on', channel=0, note=77, velocity=0, time=0),\n",
       "    Message('control_change', channel=0, control=64, value=0, time=416),\n",
       "    Message('control_change', channel=0, control=64, value=127, time=0),\n",
       "    Message('note_on', channel=0, note=69, velocity=110, time=0),\n",
       "    Message('note_on', channel=0, note=77, velocity=110, time=0),\n",
       "    Message('note_on', channel=0, note=69, velocity=0, time=160),\n",
       "    Message('note_on', channel=0, note=77, velocity=0, time=0),\n",
       "    Message('note_on', channel=0, note=69, velocity=110, time=32),\n",
       "    Message('note_on', channel=0, note=79, velocity=110, time=0),\n",
       "    Message('note_on', channel=0, note=69, velocity=0, time=160),\n",
       "    Message('note_on', channel=0, note=79, velocity=0, time=0),\n",
       "    Message('note_on', channel=0, note=69, velocity=110, time=32),\n",
       "    Message('note_on', channel=0, note=76, velocity=110, time=0),\n",
       "    Message('note_on', channel=0, note=69, velocity=0, time=160),\n",
       "    Message('note_on', channel=0, note=76, velocity=0, time=0),\n",
       "    Message('control_change', channel=0, control=64, value=0, time=32),\n",
       "    Message('control_change', channel=0, control=64, value=127, time=0),\n",
       "    Message('note_on', channel=0, note=65, velocity=110, time=0),\n",
       "    Message('note_on', channel=0, note=69, velocity=110, time=0),\n",
       "    Message('note_on', channel=0, note=74, velocity=110, time=0),\n",
       "    Message('note_on', channel=0, note=65, velocity=0, time=256),\n",
       "    Message('note_on', channel=0, note=69, velocity=0, time=0),\n",
       "    Message('note_on', channel=0, note=74, velocity=0, time=0),\n",
       "    Message('note_on', channel=0, note=74, velocity=110, time=32),\n",
       "    Message('note_on', channel=0, note=74, velocity=0, time=94),\n",
       "    Message('note_on', channel=0, note=76, velocity=110, time=2),\n",
       "    Message('note_on', channel=0, note=76, velocity=0, time=94),\n",
       "    Message('note_on', channel=0, note=77, velocity=110, time=2),\n",
       "    Message('note_on', channel=0, note=77, velocity=0, time=94),\n",
       "    Message('control_change', channel=0, control=64, value=0, time=2),\n",
       "    Message('control_change', channel=0, control=64, value=127, time=0),\n",
       "    Message('note_on', channel=0, note=74, velocity=110, time=0),\n",
       "    Message('note_on', channel=0, note=77, velocity=110, time=0),\n",
       "    Message('note_on', channel=0, note=81, velocity=110, time=0),\n",
       "    Message('note_on', channel=0, note=74, velocity=0, time=256),\n",
       "    Message('note_on', channel=0, note=77, velocity=0, time=0),\n",
       "    Message('note_on', channel=0, note=81, velocity=0, time=0),\n",
       "    Message('note_on', channel=0, note=74, velocity=110, time=32),\n",
       "    Message('note_on', channel=0, note=74, velocity=0, time=94),\n",
       "    Message('note_on', channel=0, note=76, velocity=110, time=2),\n",
       "    Message('note_on', channel=0, note=76, velocity=0, time=94),\n",
       "    Message('note_on', channel=0, note=77, velocity=110, time=2),\n",
       "    Message('note_on', channel=0, note=77, velocity=0, time=94),\n",
       "    Message('control_change', channel=0, control=64, value=0, time=2),\n",
       "    Message('control_change', channel=0, control=64, value=127, time=0),\n",
       "    Message('note_on', channel=0, note=74, velocity=110, time=0),\n",
       "    Message('note_on', channel=0, note=77, velocity=110, time=0),\n",
       "    Message('note_on', channel=0, note=82, velocity=110, time=0),\n",
       "    Message('note_on', channel=0, note=74, velocity=0, time=256),\n",
       "    Message('note_on', channel=0, note=77, velocity=0, time=0),\n",
       "    Message('note_on', channel=0, note=82, velocity=0, time=0),\n",
       "    Message('note_on', channel=0, note=74, velocity=110, time=32),\n",
       "    Message('note_on', channel=0, note=74, velocity=0, time=94),\n",
       "    Message('note_on', channel=0, note=76, velocity=110, time=2),\n",
       "    Message('note_on', channel=0, note=76, velocity=0, time=94),\n",
       "    Message('note_on', channel=0, note=77, velocity=110, time=2),\n",
       "    Message('note_on', channel=0, note=77, velocity=0, time=94),\n",
       "    Message('control_change', channel=0, control=64, value=0, time=2),\n",
       "    Message('control_change', channel=0, control=64, value=127, time=0),\n",
       "    Message('note_on', channel=0, note=72, velocity=110, time=0),\n",
       "    Message('note_on', channel=0, note=77, velocity=110, time=0),\n",
       "    Message('note_on', channel=0, note=81, velocity=110, time=0),\n",
       "    Message('note_on', channel=0, note=72, velocity=0, time=160),\n",
       "    Message('note_on', channel=0, note=77, velocity=0, time=0),\n",
       "    Message('note_on', channel=0, note=81, velocity=0, time=0),\n",
       "    Message('note_on', channel=0, note=72, velocity=110, time=32),\n",
       "    Message('note_on', channel=0, note=77, velocity=110, time=0),\n",
       "    Message('note_on', channel=0, note=81, velocity=110, time=0),\n",
       "    Message('note_on', channel=0, note=72, velocity=0, time=160),\n",
       "    Message('note_on', channel=0, note=77, velocity=0, time=0),\n",
       "    Message('note_on', channel=0, note=81, velocity=0, time=0),\n",
       "    Message('note_on', channel=0, note=77, velocity=110, time=32),\n",
       "    Message('note_on', channel=0, note=84, velocity=110, time=0),\n",
       "    Message('note_on', channel=0, note=77, velocity=0, time=160),\n",
       "    Message('note_on', channel=0, note=84, velocity=0, time=0),\n",
       "    Message('control_change', channel=0, control=64, value=0, time=32),\n",
       "    Message('control_change', channel=0, control=64, value=127, time=0),\n",
       "    Message('note_on', channel=0, note=72, velocity=110, time=0),\n",
       "    Message('note_on', channel=0, note=76, velocity=110, time=0),\n",
       "    Message('note_on', channel=0, note=81, velocity=110, time=0),\n",
       "    Message('note_on', channel=0, note=72, velocity=0, time=94),\n",
       "    Message('note_on', channel=0, note=76, velocity=0, time=0),\n",
       "    Message('note_on', channel=0, note=81, velocity=0, time=0),\n",
       "    Message('note_on', channel=0, note=79, velocity=110, time=2),\n",
       "    Message('note_on', channel=0, note=79, velocity=0, time=94),\n",
       "    Message('control_change', channel=0, control=64, value=0, time=386),\n",
       "    Message('control_change', channel=0, control=64, value=127, time=0),\n",
       "    Message('note_on', channel=0, note=70, velocity=110, time=0),\n",
       "    Message('note_on', channel=0, note=74, velocity=110, time=0),\n",
       "    Message('note_on', channel=0, note=79, velocity=110, time=0),\n",
       "    Message('note_on', channel=0, note=70, velocity=0, time=160),\n",
       "    Message('note_on', channel=0, note=74, velocity=0, time=0),\n",
       "    Message('note_on', channel=0, note=79, velocity=0, time=0),\n",
       "    Message('control_change', channel=0, control=64, value=0, time=416),\n",
       "    Message('control_change', channel=0, control=64, value=127, time=0),\n",
       "    Message('note_on', channel=0, note=69, velocity=110, time=0),\n",
       "    Message('note_on', channel=0, note=74, velocity=110, time=0),\n",
       "    Message('note_on', channel=0, note=77, velocity=110, time=0),\n",
       "    Message('note_on', channel=0, note=69, velocity=0, time=160),\n",
       "    Message('note_on', channel=0, note=74, velocity=0, time=0),\n",
       "    Message('note_on', channel=0, note=77, velocity=0, time=0),\n",
       "    Message('control_change', channel=0, control=64, value=0, time=416),\n",
       "    Message('control_change', channel=0, control=64, value=127, time=0),\n",
       "    Message('note_on', channel=0, note=69, velocity=110, time=0),\n",
       "    Message('note_on', channel=0, note=77, velocity=110, time=0),\n",
       "    Message('note_on', channel=0, note=69, velocity=0, time=160),\n",
       "    Message('note_on', channel=0, note=77, velocity=0, time=0),\n",
       "    Message('note_on', channel=0, note=69, velocity=110, time=32),\n",
       "    Message('note_on', channel=0, note=79, velocity=110, time=0),\n",
       "    Message('note_on', channel=0, note=69, velocity=0, time=160),\n",
       "    Message('note_on', channel=0, note=79, velocity=0, time=0),\n",
       "    Message('note_on', channel=0, note=69, velocity=110, time=32),\n",
       "    Message('note_on', channel=0, note=76, velocity=110, time=0),\n",
       "    Message('note_on', channel=0, note=69, velocity=0, time=160),\n",
       "    Message('note_on', channel=0, note=76, velocity=0, time=0),\n",
       "    Message('control_change', channel=0, control=64, value=0, time=32),\n",
       "    Message('control_change', channel=0, control=64, value=127, time=0),\n",
       "    Message('note_on', channel=0, note=65, velocity=110, time=0),\n",
       "    Message('note_on', channel=0, note=69, velocity=110, time=0),\n",
       "    Message('note_on', channel=0, note=74, velocity=110, time=0),\n",
       "    Message('note_on', channel=0, note=65, velocity=0, time=256),\n",
       "    Message('note_on', channel=0, note=69, velocity=0, time=0),\n",
       "    Message('note_on', channel=0, note=74, velocity=0, time=0),\n",
       "    Message('note_on', channel=0, note=62, velocity=110, time=320),\n",
       "    Message('note_on', channel=0, note=62, velocity=0, time=720),\n",
       "    MetaMessage('end_of_track', time=0)]),\n",
       "  MidiTrack([\n",
       "    MetaMessage('midi_port', port=0, time=0),\n",
       "    MetaMessage('track_name', name='Left Hand', time=0),\n",
       "    Message('program_change', channel=1, program=0, time=0),\n",
       "    Message('control_change', channel=1, control=7, value=127, time=0),\n",
       "    Message('control_change', channel=1, control=10, value=64, time=0),\n",
       "    Message('program_change', channel=1, program=0, time=0),\n",
       "    Message('control_change', channel=1, control=7, value=127, time=0),\n",
       "    Message('control_change', channel=1, control=10, value=64, time=0),\n",
       "    Message('control_change', channel=1, control=64, value=0, time=2304),\n",
       "    Message('control_change', channel=1, control=64, value=127, time=0),\n",
       "    Message('note_on', channel=1, note=26, velocity=110, time=0),\n",
       "    Message('note_on', channel=1, note=38, velocity=110, time=0),\n",
       "    Message('note_on', channel=1, note=26, velocity=0, time=528),\n",
       "    Message('note_on', channel=1, note=38, velocity=0, time=0),\n",
       "    Message('note_on', channel=1, note=26, velocity=110, time=48),\n",
       "    Message('note_on', channel=1, note=38, velocity=110, time=0),\n",
       "    Message('note_on', channel=1, note=26, velocity=0, time=256),\n",
       "    Message('note_on', channel=1, note=38, velocity=0, time=0),\n",
       "    Message('note_on', channel=1, note=26, velocity=110, time=32),\n",
       "    Message('note_on', channel=1, note=38, velocity=110, time=0),\n",
       "    Message('note_on', channel=1, note=26, velocity=0, time=256),\n",
       "    Message('note_on', channel=1, note=38, velocity=0, time=0),\n",
       "    Message('control_change', channel=1, control=64, value=0, time=32),\n",
       "    Message('control_change', channel=1, control=64, value=127, time=0),\n",
       "    Message('note_on', channel=1, note=38, velocity=110, time=0),\n",
       "    Message('note_on', channel=1, note=50, velocity=110, time=0),\n",
       "    Message('note_on', channel=1, note=38, velocity=0, time=160),\n",
       "    Message('note_on', channel=1, note=50, velocity=0, time=0),\n",
       "    Message('note_on', channel=1, note=38, velocity=110, time=32),\n",
       "    Message('note_on', channel=1, note=50, velocity=110, time=0),\n",
       "    Message('note_on', channel=1, note=38, velocity=0, time=94),\n",
       "    Message('note_on', channel=1, note=50, velocity=0, time=0),\n",
       "    Message('note_on', channel=1, note=38, velocity=110, time=2),\n",
       "    Message('note_on', channel=1, note=50, velocity=110, time=0),\n",
       "    Message('note_on', channel=1, note=38, velocity=0, time=160),\n",
       "    Message('note_on', channel=1, note=50, velocity=0, time=0),\n",
       "    Message('note_on', channel=1, note=36, velocity=110, time=32),\n",
       "    Message('note_on', channel=1, note=48, velocity=110, time=0),\n",
       "    Message('note_on', channel=1, note=36, velocity=0, time=94),\n",
       "    Message('note_on', channel=1, note=48, velocity=0, time=0),\n",
       "    Message('control_change', channel=1, control=64, value=0, time=2),\n",
       "    Message('control_change', channel=1, control=64, value=127, time=0),\n",
       "    Message('note_on', channel=1, note=34, velocity=110, time=0),\n",
       "    Message('note_on', channel=1, note=46, velocity=110, time=0),\n",
       "    Message('note_on', channel=1, note=34, velocity=0, time=160),\n",
       "    Message('note_on', channel=1, note=46, velocity=0, time=0),\n",
       "    Message('note_on', channel=1, note=34, velocity=110, time=32),\n",
       "    Message('note_on', channel=1, note=46, velocity=110, time=0),\n",
       "    Message('note_on', channel=1, note=34, velocity=0, time=94),\n",
       "    Message('note_on', channel=1, note=46, velocity=0, time=0),\n",
       "    Message('note_on', channel=1, note=34, velocity=110, time=2),\n",
       "    Message('note_on', channel=1, note=46, velocity=110, time=0),\n",
       "    Message('note_on', channel=1, note=34, velocity=0, time=160),\n",
       "    Message('note_on', channel=1, note=46, velocity=0, time=0),\n",
       "    Message('note_on', channel=1, note=34, velocity=110, time=32),\n",
       "    Message('note_on', channel=1, note=46, velocity=110, time=0),\n",
       "    Message('note_on', channel=1, note=34, velocity=0, time=94),\n",
       "    Message('note_on', channel=1, note=46, velocity=0, time=0),\n",
       "    Message('control_change', channel=1, control=64, value=0, time=2),\n",
       "    Message('control_change', channel=1, control=64, value=127, time=0),\n",
       "    Message('note_on', channel=1, note=33, velocity=110, time=0),\n",
       "    Message('note_on', channel=1, note=45, velocity=110, time=0),\n",
       "    Message('note_on', channel=1, note=33, velocity=0, time=160),\n",
       "    Message('note_on', channel=1, note=45, velocity=0, time=0),\n",
       "    Message('note_on', channel=1, note=33, velocity=110, time=32),\n",
       "    Message('note_on', channel=1, note=45, velocity=110, time=0),\n",
       "    Message('note_on', channel=1, note=33, velocity=0, time=94),\n",
       "    Message('note_on', channel=1, note=45, velocity=0, time=0),\n",
       "    Message('note_on', channel=1, note=33, velocity=110, time=2),\n",
       "    Message('note_on', channel=1, note=45, velocity=110, time=0),\n",
       "    Message('note_on', channel=1, note=33, velocity=0, time=160),\n",
       "    Message('note_on', channel=1, note=45, velocity=0, time=0),\n",
       "    Message('note_on', channel=1, note=33, velocity=110, time=32),\n",
       "    Message('note_on', channel=1, note=45, velocity=110, time=0),\n",
       "    Message('note_on', channel=1, note=33, velocity=0, time=94),\n",
       "    Message('note_on', channel=1, note=45, velocity=0, time=0),\n",
       "    Message('control_change', channel=1, control=64, value=0, time=2),\n",
       "    Message('control_change', channel=1, control=64, value=127, time=0),\n",
       "    Message('note_on', channel=1, note=38, velocity=110, time=0),\n",
       "    Message('note_on', channel=1, note=50, velocity=110, time=0),\n",
       "    Message('note_on', channel=1, note=38, velocity=0, time=160),\n",
       "    Message('note_on', channel=1, note=50, velocity=0, time=0),\n",
       "    Message('note_on', channel=1, note=38, velocity=110, time=32),\n",
       "    Message('note_on', channel=1, note=50, velocity=110, time=0),\n",
       "    Message('note_on', channel=1, note=38, velocity=0, time=94),\n",
       "    Message('note_on', channel=1, note=50, velocity=0, time=0),\n",
       "    Message('note_on', channel=1, note=38, velocity=110, time=2),\n",
       "    Message('note_on', channel=1, note=50, velocity=110, time=0),\n",
       "    Message('note_on', channel=1, note=38, velocity=0, time=160),\n",
       "    Message('note_on', channel=1, note=50, velocity=0, time=0),\n",
       "    Message('note_on', channel=1, note=38, velocity=110, time=32),\n",
       "    Message('note_on', channel=1, note=50, velocity=110, time=0),\n",
       "    Message('note_on', channel=1, note=38, velocity=0, time=94),\n",
       "    Message('note_on', channel=1, note=50, velocity=0, time=0),\n",
       "    Message('control_change', channel=1, control=64, value=0, time=2),\n",
       "    Message('control_change', channel=1, control=64, value=127, time=0),\n",
       "    Message('note_on', channel=1, note=34, velocity=110, time=0),\n",
       "    Message('note_on', channel=1, note=46, velocity=110, time=0),\n",
       "    Message('note_on', channel=1, note=34, velocity=0, time=160),\n",
       "    Message('note_on', channel=1, note=46, velocity=0, time=0),\n",
       "    Message('note_on', channel=1, note=34, velocity=110, time=32),\n",
       "    Message('note_on', channel=1, note=46, velocity=110, time=0),\n",
       "    Message('note_on', channel=1, note=34, velocity=0, time=94),\n",
       "    Message('note_on', channel=1, note=46, velocity=0, time=0),\n",
       "    Message('note_on', channel=1, note=34, velocity=110, time=2),\n",
       "    Message('note_on', channel=1, note=46, velocity=110, time=0),\n",
       "    Message('note_on', channel=1, note=34, velocity=0, time=160),\n",
       "    Message('note_on', channel=1, note=46, velocity=0, time=0),\n",
       "    Message('note_on', channel=1, note=34, velocity=110, time=32),\n",
       "    Message('note_on', channel=1, note=46, velocity=110, time=0),\n",
       "    Message('note_on', channel=1, note=34, velocity=0, time=94),\n",
       "    Message('note_on', channel=1, note=46, velocity=0, time=0),\n",
       "    Message('control_change', channel=1, control=64, value=0, time=2),\n",
       "    Message('control_change', channel=1, control=64, value=127, time=0),\n",
       "    Message('note_on', channel=1, note=29, velocity=110, time=0),\n",
       "    Message('note_on', channel=1, note=41, velocity=110, time=0),\n",
       "    Message('note_on', channel=1, note=29, velocity=0, time=160),\n",
       "    Message('note_on', channel=1, note=41, velocity=0, time=0),\n",
       "    Message('note_on', channel=1, note=29, velocity=110, time=32),\n",
       "    Message('note_on', channel=1, note=41, velocity=110, time=0),\n",
       "    Message('note_on', channel=1, note=29, velocity=0, time=94),\n",
       "    Message('note_on', channel=1, note=41, velocity=0, time=0),\n",
       "    Message('note_on', channel=1, note=29, velocity=110, time=2),\n",
       "    Message('note_on', channel=1, note=41, velocity=110, time=0),\n",
       "    Message('note_on', channel=1, note=29, velocity=0, time=160),\n",
       "    Message('note_on', channel=1, note=41, velocity=0, time=0),\n",
       "    Message('note_on', channel=1, note=29, velocity=110, time=32),\n",
       "    Message('note_on', channel=1, note=41, velocity=110, time=0),\n",
       "    Message('note_on', channel=1, note=29, velocity=0, time=94),\n",
       "    Message('note_on', channel=1, note=41, velocity=0, time=0),\n",
       "    Message('control_change', channel=1, control=64, value=0, time=2),\n",
       "    Message('control_change', channel=1, control=64, value=127, time=0),\n",
       "    Message('note_on', channel=1, note=36, velocity=110, time=0),\n",
       "    Message('note_on', channel=1, note=48, velocity=110, time=0),\n",
       "    Message('note_on', channel=1, note=36, velocity=0, time=160),\n",
       "    Message('note_on', channel=1, note=48, velocity=0, time=0),\n",
       "    Message('note_on', channel=1, note=36, velocity=110, time=32),\n",
       "    Message('note_on', channel=1, note=48, velocity=110, time=0),\n",
       "    Message('note_on', channel=1, note=36, velocity=0, time=94),\n",
       "    Message('note_on', channel=1, note=48, velocity=0, time=0),\n",
       "    Message('note_on', channel=1, note=33, velocity=110, time=2),\n",
       "    Message('note_on', channel=1, note=45, velocity=110, time=0),\n",
       "    Message('note_on', channel=1, note=33, velocity=0, time=160),\n",
       "    Message('note_on', channel=1, note=45, velocity=0, time=0),\n",
       "    Message('note_on', channel=1, note=33, velocity=110, time=32),\n",
       "    Message('note_on', channel=1, note=45, velocity=110, time=0),\n",
       "    Message('note_on', channel=1, note=33, velocity=0, time=94),\n",
       "    Message('note_on', channel=1, note=45, velocity=0, time=0),\n",
       "    Message('control_change', channel=1, control=64, value=0, time=2),\n",
       "    Message('control_change', channel=1, control=64, value=127, time=0),\n",
       "    Message('note_on', channel=1, note=38, velocity=110, time=0),\n",
       "    Message('note_on', channel=1, note=50, velocity=110, time=0),\n",
       "    Message('note_on', channel=1, note=38, velocity=0, time=160),\n",
       "    Message('note_on', channel=1, note=50, velocity=0, time=0),\n",
       "    Message('note_on', channel=1, note=38, velocity=110, time=32),\n",
       "    Message('note_on', channel=1, note=50, velocity=110, time=0),\n",
       "    Message('note_on', channel=1, note=38, velocity=0, time=94),\n",
       "    Message('note_on', channel=1, note=50, velocity=0, time=0),\n",
       "    Message('note_on', channel=1, note=38, velocity=110, time=2),\n",
       "    Message('note_on', channel=1, note=50, velocity=110, time=0),\n",
       "    Message('note_on', channel=1, note=38, velocity=0, time=160),\n",
       "    Message('note_on', channel=1, note=50, velocity=0, time=0),\n",
       "    Message('note_on', channel=1, note=38, velocity=110, time=32),\n",
       "    Message('note_on', channel=1, note=50, velocity=110, time=0),\n",
       "    Message('note_on', channel=1, note=38, velocity=0, time=94),\n",
       "    Message('note_on', channel=1, note=50, velocity=0, time=0),\n",
       "    Message('control_change', channel=1, control=64, value=0, time=2),\n",
       "    Message('control_change', channel=1, control=64, value=127, time=0),\n",
       "    Message('note_on', channel=1, note=38, velocity=110, time=0),\n",
       "    Message('note_on', channel=1, note=50, velocity=110, time=0),\n",
       "    Message('note_on', channel=1, note=38, velocity=0, time=160),\n",
       "    Message('note_on', channel=1, note=50, velocity=0, time=0),\n",
       "    Message('note_on', channel=1, note=38, velocity=110, time=32),\n",
       "    Message('note_on', channel=1, note=50, velocity=110, time=0),\n",
       "    Message('note_on', channel=1, note=38, velocity=0, time=94),\n",
       "    Message('note_on', channel=1, note=50, velocity=0, time=0),\n",
       "    Message('note_on', channel=1, note=38, velocity=110, time=2),\n",
       "    Message('note_on', channel=1, note=50, velocity=110, time=0),\n",
       "    Message('note_on', channel=1, note=38, velocity=0, time=160),\n",
       "    Message('note_on', channel=1, note=50, velocity=0, time=0),\n",
       "    Message('note_on', channel=1, note=38, velocity=110, time=32),\n",
       "    Message('note_on', channel=1, note=50, velocity=110, time=0),\n",
       "    Message('note_on', channel=1, note=38, velocity=0, time=94),\n",
       "    Message('note_on', channel=1, note=50, velocity=0, time=0),\n",
       "    Message('control_change', channel=1, control=64, value=0, time=2),\n",
       "    Message('control_change', channel=1, control=64, value=127, time=0),\n",
       "    Message('note_on', channel=1, note=34, velocity=110, time=0),\n",
       "    Message('note_on', channel=1, note=46, velocity=110, time=0),\n",
       "    Message('note_on', channel=1, note=34, velocity=0, time=160),\n",
       "    Message('note_on', channel=1, note=46, velocity=0, time=0),\n",
       "    Message('note_on', channel=1, note=34, velocity=110, time=32),\n",
       "    Message('note_on', channel=1, note=46, velocity=110, time=0),\n",
       "    Message('note_on', channel=1, note=34, velocity=0, time=94),\n",
       "    Message('note_on', channel=1, note=46, velocity=0, time=0),\n",
       "    Message('note_on', channel=1, note=34, velocity=110, time=2),\n",
       "    Message('note_on', channel=1, note=46, velocity=110, time=0),\n",
       "    Message('note_on', channel=1, note=34, velocity=0, time=160),\n",
       "    Message('note_on', channel=1, note=46, velocity=0, time=0),\n",
       "    Message('note_on', channel=1, note=34, velocity=110, time=32),\n",
       "    Message('note_on', channel=1, note=46, velocity=110, time=0),\n",
       "    Message('note_on', channel=1, note=34, velocity=0, time=94),\n",
       "    Message('note_on', channel=1, note=46, velocity=0, time=0),\n",
       "    Message('control_change', channel=1, control=64, value=0, time=2),\n",
       "    Message('control_change', channel=1, control=64, value=127, time=0),\n",
       "    Message('note_on', channel=1, note=31, velocity=110, time=0),\n",
       "    Message('note_on', channel=1, note=43, velocity=110, time=0),\n",
       "    Message('note_on', channel=1, note=31, velocity=0, time=160),\n",
       "    Message('note_on', channel=1, note=43, velocity=0, time=0),\n",
       "    Message('note_on', channel=1, note=31, velocity=110, time=32),\n",
       "    Message('note_on', channel=1, note=43, velocity=110, time=0),\n",
       "    Message('note_on', channel=1, note=31, velocity=0, time=94),\n",
       "    Message('note_on', channel=1, note=43, velocity=0, time=0),\n",
       "    Message('note_on', channel=1, note=31, velocity=110, time=2),\n",
       "    Message('note_on', channel=1, note=43, velocity=110, time=0),\n",
       "    Message('note_on', channel=1, note=31, velocity=0, time=160),\n",
       "    Message('note_on', channel=1, note=43, velocity=0, time=0),\n",
       "    Message('note_on', channel=1, note=31, velocity=110, time=32),\n",
       "    Message('note_on', channel=1, note=43, velocity=110, time=0),\n",
       "    Message('note_on', channel=1, note=31, velocity=0, time=94),\n",
       "    Message('note_on', channel=1, note=43, velocity=0, time=0),\n",
       "    Message('control_change', channel=1, control=64, value=0, time=2),\n",
       "    Message('control_change', channel=1, control=64, value=127, time=0),\n",
       "    Message('note_on', channel=1, note=38, velocity=110, time=0),\n",
       "    Message('note_on', channel=1, note=50, velocity=110, time=0),\n",
       "    Message('note_on', channel=1, note=38, velocity=0, time=160),\n",
       "    Message('note_on', channel=1, note=50, velocity=0, time=0),\n",
       "    Message('note_on', channel=1, note=38, velocity=110, time=32),\n",
       "    Message('note_on', channel=1, note=50, velocity=110, time=0),\n",
       "    Message('note_on', channel=1, note=38, velocity=0, time=94),\n",
       "    Message('note_on', channel=1, note=50, velocity=0, time=0),\n",
       "    Message('note_on', channel=1, note=38, velocity=110, time=2),\n",
       "    Message('note_on', channel=1, note=50, velocity=110, time=0),\n",
       "    Message('note_on', channel=1, note=38, velocity=0, time=160),\n",
       "    Message('note_on', channel=1, note=50, velocity=0, time=0),\n",
       "    Message('note_on', channel=1, note=38, velocity=110, time=32),\n",
       "    Message('note_on', channel=1, note=50, velocity=110, time=0),\n",
       "    Message('note_on', channel=1, note=38, velocity=0, time=94),\n",
       "    Message('note_on', channel=1, note=50, velocity=0, time=0),\n",
       "    Message('control_change', channel=1, control=64, value=0, time=2),\n",
       "    Message('control_change', channel=1, control=64, value=127, time=0),\n",
       "    Message('note_on', channel=1, note=34, velocity=110, time=0),\n",
       "    Message('note_on', channel=1, note=46, velocity=110, time=0),\n",
       "    Message('note_on', channel=1, note=34, velocity=0, time=160),\n",
       "    Message('note_on', channel=1, note=46, velocity=0, time=0),\n",
       "    Message('note_on', channel=1, note=34, velocity=110, time=32),\n",
       "    Message('note_on', channel=1, note=46, velocity=110, time=0),\n",
       "    Message('note_on', channel=1, note=34, velocity=0, time=94),\n",
       "    Message('note_on', channel=1, note=46, velocity=0, time=0),\n",
       "    Message('note_on', channel=1, note=34, velocity=110, time=2),\n",
       "    Message('note_on', channel=1, note=46, velocity=110, time=0),\n",
       "    Message('note_on', channel=1, note=34, velocity=0, time=160),\n",
       "    Message('note_on', channel=1, note=46, velocity=0, time=0),\n",
       "    Message('note_on', channel=1, note=34, velocity=110, time=32),\n",
       "    Message('note_on', channel=1, note=46, velocity=110, time=0),\n",
       "    Message('note_on', channel=1, note=34, velocity=0, time=94),\n",
       "    Message('note_on', channel=1, note=46, velocity=0, time=0),\n",
       "    Message('control_change', channel=1, control=64, value=0, time=2),\n",
       "    Message('control_change', channel=1, control=64, value=127, time=0),\n",
       "    Message('note_on', channel=1, note=38, velocity=110, time=0),\n",
       "    Message('note_on', channel=1, note=50, velocity=110, time=0),\n",
       "    Message('note_on', channel=1, note=38, velocity=0, time=160),\n",
       "    Message('note_on', channel=1, note=50, velocity=0, time=0),\n",
       "    Message('note_on', channel=1, note=38, velocity=110, time=32),\n",
       "    Message('note_on', channel=1, note=50, velocity=110, time=0),\n",
       "    Message('note_on', channel=1, note=38, velocity=0, time=94),\n",
       "    Message('note_on', channel=1, note=50, velocity=0, time=0),\n",
       "    Message('note_on', channel=1, note=38, velocity=110, time=2),\n",
       "    Message('note_on', channel=1, note=50, velocity=110, time=0),\n",
       "    Message('note_on', channel=1, note=38, velocity=0, time=160),\n",
       "    Message('note_on', channel=1, note=50, velocity=0, time=0),\n",
       "    Message('note_on', channel=1, note=38, velocity=110, time=32),\n",
       "    Message('note_on', channel=1, note=50, velocity=110, time=0),\n",
       "    Message('note_on', channel=1, note=38, velocity=0, time=94),\n",
       "    Message('note_on', channel=1, note=50, velocity=0, time=0),\n",
       "    Message('control_change', channel=1, control=64, value=0, time=2),\n",
       "    Message('control_change', channel=1, control=64, value=127, time=0),\n",
       "    Message('note_on', channel=1, note=33, velocity=110, time=0),\n",
       "    Message('note_on', channel=1, note=45, velocity=110, time=0),\n",
       "    Message('note_on', channel=1, note=33, velocity=0, time=160),\n",
       "    Message('note_on', channel=1, note=45, velocity=0, time=0),\n",
       "    Message('note_on', channel=1, note=33, velocity=110, time=32),\n",
       "    Message('note_on', channel=1, note=45, velocity=110, time=0),\n",
       "    Message('note_on', channel=1, note=33, velocity=0, time=94),\n",
       "    Message('note_on', channel=1, note=45, velocity=0, time=0),\n",
       "    Message('note_on', channel=1, note=33, velocity=110, time=2),\n",
       "    Message('note_on', channel=1, note=45, velocity=110, time=0),\n",
       "    Message('note_on', channel=1, note=33, velocity=0, time=160),\n",
       "    Message('note_on', channel=1, note=45, velocity=0, time=0),\n",
       "    Message('note_on', channel=1, note=33, velocity=110, time=32),\n",
       "    Message('note_on', channel=1, note=45, velocity=110, time=0),\n",
       "    Message('note_on', channel=1, note=33, velocity=0, time=94),\n",
       "    Message('note_on', channel=1, note=45, velocity=0, time=0),\n",
       "    Message('note_on', channel=1, note=33, velocity=110, time=2),\n",
       "    Message('note_on', channel=1, note=45, velocity=110, time=0),\n",
       "    Message('note_on', channel=1, note=33, velocity=0, time=160),\n",
       "    Message('note_on', channel=1, note=45, velocity=0, time=0),\n",
       "    Message('note_on', channel=1, note=33, velocity=110, time=32),\n",
       "    Message('note_on', channel=1, note=45, velocity=110, time=0),\n",
       "    Message('note_on', channel=1, note=33, velocity=0, time=94),\n",
       "    Message('note_on', channel=1, note=45, velocity=0, time=0),\n",
       "    Message('note_on', channel=1, note=33, velocity=110, time=2),\n",
       "    Message('note_on', channel=1, note=45, velocity=110, time=0),\n",
       "    Message('note_on', channel=1, note=33, velocity=0, time=160),\n",
       "    Message('note_on', channel=1, note=45, velocity=0, time=0),\n",
       "    Message('note_on', channel=1, note=33, velocity=110, time=32),\n",
       "    Message('note_on', channel=1, note=45, velocity=110, time=0),\n",
       "    Message('note_on', channel=1, note=33, velocity=0, time=94),\n",
       "    Message('note_on', channel=1, note=45, velocity=0, time=0),\n",
       "    Message('control_change', channel=1, control=64, value=0, time=2),\n",
       "    Message('control_change', channel=1, control=64, value=127, time=0),\n",
       "    Message('note_on', channel=1, note=38, velocity=110, time=0),\n",
       "    Message('note_on', channel=1, note=50, velocity=110, time=0),\n",
       "    Message('note_on', channel=1, note=38, velocity=0, time=160),\n",
       "    Message('note_on', channel=1, note=50, velocity=0, time=0),\n",
       "    Message('note_on', channel=1, note=38, velocity=110, time=32),\n",
       "    Message('note_on', channel=1, note=50, velocity=110, time=0),\n",
       "    Message('note_on', channel=1, note=38, velocity=0, time=94),\n",
       "    Message('note_on', channel=1, note=50, velocity=0, time=0),\n",
       "    Message('note_on', channel=1, note=38, velocity=110, time=2),\n",
       "    Message('note_on', channel=1, note=50, velocity=110, time=0),\n",
       "    Message('note_on', channel=1, note=38, velocity=0, time=160),\n",
       "    Message('note_on', channel=1, note=50, velocity=0, time=0),\n",
       "    Message('note_on', channel=1, note=36, velocity=110, time=32),\n",
       "    Message('note_on', channel=1, note=48, velocity=110, time=0),\n",
       "    Message('note_on', channel=1, note=36, velocity=0, time=94),\n",
       "    Message('note_on', channel=1, note=48, velocity=0, time=0),\n",
       "    Message('control_change', channel=1, control=64, value=0, time=2),\n",
       "    Message('control_change', channel=1, control=64, value=127, time=0),\n",
       "    Message('note_on', channel=1, note=34, velocity=110, time=0),\n",
       "    Message('note_on', channel=1, note=46, velocity=110, time=0),\n",
       "    Message('note_on', channel=1, note=34, velocity=0, time=160),\n",
       "    Message('note_on', channel=1, note=46, velocity=0, time=0),\n",
       "    Message('note_on', channel=1, note=34, velocity=110, time=32),\n",
       "    Message('note_on', channel=1, note=46, velocity=110, time=0),\n",
       "    Message('note_on', channel=1, note=34, velocity=0, time=94),\n",
       "    Message('note_on', channel=1, note=46, velocity=0, time=0),\n",
       "    Message('note_on', channel=1, note=34, velocity=110, time=2),\n",
       "    Message('note_on', channel=1, note=46, velocity=110, time=0),\n",
       "    Message('note_on', channel=1, note=34, velocity=0, time=160),\n",
       "    Message('note_on', channel=1, note=46, velocity=0, time=0),\n",
       "    Message('note_on', channel=1, note=34, velocity=110, time=32),\n",
       "    Message('note_on', channel=1, note=46, velocity=110, time=0),\n",
       "    Message('note_on', channel=1, note=34, velocity=0, time=94),\n",
       "    Message('note_on', channel=1, note=46, velocity=0, time=0),\n",
       "    Message('control_change', channel=1, control=64, value=0, time=2),\n",
       "    Message('control_change', channel=1, control=64, value=127, time=0),\n",
       "    Message('note_on', channel=1, note=33, velocity=110, time=0),\n",
       "    Message('note_on', channel=1, note=45, velocity=110, time=0),\n",
       "    Message('note_on', channel=1, note=33, velocity=0, time=160),\n",
       "    Message('note_on', channel=1, note=45, velocity=0, time=0),\n",
       "    Message('note_on', channel=1, note=33, velocity=110, time=32),\n",
       "    Message('note_on', channel=1, note=45, velocity=110, time=0),\n",
       "    Message('note_on', channel=1, note=33, velocity=0, time=94),\n",
       "    Message('note_on', channel=1, note=45, velocity=0, time=0),\n",
       "    Message('note_on', channel=1, note=33, velocity=110, time=2),\n",
       "    Message('note_on', channel=1, note=45, velocity=110, time=0),\n",
       "    Message('note_on', channel=1, note=33, velocity=0, time=160),\n",
       "    Message('note_on', channel=1, note=45, velocity=0, time=0),\n",
       "    Message('note_on', channel=1, note=33, velocity=110, time=32),\n",
       "    Message('note_on', channel=1, note=45, velocity=110, time=0),\n",
       "    Message('note_on', channel=1, note=33, velocity=0, time=94),\n",
       "    Message('note_on', channel=1, note=45, velocity=0, time=0),\n",
       "    Message('control_change', channel=1, control=64, value=0, time=2),\n",
       "    Message('control_change', channel=1, control=64, value=127, time=0),\n",
       "    Message('note_on', channel=1, note=38, velocity=110, time=0),\n",
       "    Message('note_on', channel=1, note=50, velocity=110, time=0),\n",
       "    Message('note_on', channel=1, note=38, velocity=0, time=160),\n",
       "    Message('note_on', channel=1, note=50, velocity=0, time=0),\n",
       "    Message('note_on', channel=1, note=38, velocity=110, time=32),\n",
       "    Message('note_on', channel=1, note=50, velocity=110, time=0),\n",
       "    Message('note_on', channel=1, note=38, velocity=0, time=94),\n",
       "    Message('note_on', channel=1, note=50, velocity=0, time=0),\n",
       "    Message('note_on', channel=1, note=38, velocity=110, time=2),\n",
       "    Message('note_on', channel=1, note=50, velocity=110, time=0),\n",
       "    Message('note_on', channel=1, note=38, velocity=0, time=160),\n",
       "    Message('note_on', channel=1, note=50, velocity=0, time=0),\n",
       "    Message('note_on', channel=1, note=38, velocity=110, time=32),\n",
       "    Message('note_on', channel=1, note=50, velocity=110, time=0),\n",
       "    Message('note_on', channel=1, note=38, velocity=0, time=94),\n",
       "    Message('note_on', channel=1, note=50, velocity=0, time=0),\n",
       "    Message('control_change', channel=1, control=64, value=0, time=2),\n",
       "    Message('control_change', channel=1, control=64, value=127, time=0),\n",
       "    Message('note_on', channel=1, note=34, velocity=110, time=0),\n",
       "    Message('note_on', channel=1, note=46, velocity=110, time=0),\n",
       "    Message('note_on', channel=1, note=34, velocity=0, time=160),\n",
       "    Message('note_on', channel=1, note=46, velocity=0, time=0),\n",
       "    Message('note_on', channel=1, note=34, velocity=110, time=32),\n",
       "    Message('note_on', channel=1, note=46, velocity=110, time=0),\n",
       "    Message('note_on', channel=1, note=34, velocity=0, time=94),\n",
       "    Message('note_on', channel=1, note=46, velocity=0, time=0),\n",
       "    Message('note_on', channel=1, note=34, velocity=110, time=2),\n",
       "    Message('note_on', channel=1, note=46, velocity=110, time=0),\n",
       "    Message('note_on', channel=1, note=34, velocity=0, time=160),\n",
       "    Message('note_on', channel=1, note=46, velocity=0, time=0),\n",
       "    Message('note_on', channel=1, note=34, velocity=110, time=32),\n",
       "    Message('note_on', channel=1, note=46, velocity=110, time=0),\n",
       "    Message('note_on', channel=1, note=34, velocity=0, time=94),\n",
       "    Message('note_on', channel=1, note=46, velocity=0, time=0),\n",
       "    Message('control_change', channel=1, control=64, value=0, time=2),\n",
       "    Message('control_change', channel=1, control=64, value=127, time=0),\n",
       "    Message('note_on', channel=1, note=29, velocity=110, time=0),\n",
       "    Message('note_on', channel=1, note=41, velocity=110, time=0),\n",
       "    Message('note_on', channel=1, note=29, velocity=0, time=160),\n",
       "    Message('note_on', channel=1, note=41, velocity=0, time=0),\n",
       "    Message('note_on', channel=1, note=29, velocity=110, time=32),\n",
       "    Message('note_on', channel=1, note=41, velocity=110, time=0),\n",
       "    Message('note_on', channel=1, note=29, velocity=0, time=94),\n",
       "    Message('note_on', channel=1, note=41, velocity=0, time=0),\n",
       "    Message('note_on', channel=1, note=29, velocity=110, time=2),\n",
       "    Message('note_on', channel=1, note=41, velocity=110, time=0),\n",
       "    Message('note_on', channel=1, note=29, velocity=0, time=160),\n",
       "    Message('note_on', channel=1, note=41, velocity=0, time=0),\n",
       "    Message('note_on', channel=1, note=29, velocity=110, time=32),\n",
       "    Message('note_on', channel=1, note=41, velocity=110, time=0),\n",
       "    Message('note_on', channel=1, note=29, velocity=0, time=94),\n",
       "    Message('note_on', channel=1, note=41, velocity=0, time=0),\n",
       "    Message('control_change', channel=1, control=64, value=0, time=2),\n",
       "    Message('control_change', channel=1, control=64, value=127, time=0),\n",
       "    Message('note_on', channel=1, note=36, velocity=110, time=0),\n",
       "    Message('note_on', channel=1, note=48, velocity=110, time=0),\n",
       "    Message('note_on', channel=1, note=36, velocity=0, time=160),\n",
       "    Message('note_on', channel=1, note=48, velocity=0, time=0),\n",
       "    Message('note_on', channel=1, note=36, velocity=110, time=32),\n",
       "    Message('note_on', channel=1, note=48, velocity=110, time=0),\n",
       "    Message('note_on', channel=1, note=36, velocity=0, time=94),\n",
       "    Message('note_on', channel=1, note=48, velocity=0, time=0),\n",
       "    Message('control_change', channel=1, control=64, value=0, time=2),\n",
       "    Message('control_change', channel=1, control=64, value=127, time=0),\n",
       "    Message('note_on', channel=1, note=33, velocity=110, time=0),\n",
       "    Message('note_on', channel=1, note=45, velocity=110, time=0),\n",
       "    Message('note_on', channel=1, note=33, velocity=0, time=160),\n",
       "    Message('note_on', channel=1, note=45, velocity=0, time=0),\n",
       "    Message('note_on', channel=1, note=33, velocity=110, time=32),\n",
       "    Message('note_on', channel=1, note=45, velocity=110, time=0),\n",
       "    Message('note_on', channel=1, note=33, velocity=0, time=94),\n",
       "    Message('note_on', channel=1, note=45, velocity=0, time=0),\n",
       "    Message('control_change', channel=1, control=64, value=0, time=2),\n",
       "    Message('control_change', channel=1, control=64, value=127, time=0),\n",
       "    Message('note_on', channel=1, note=38, velocity=110, time=0),\n",
       "    Message('note_on', channel=1, note=50, velocity=110, time=0),\n",
       "    Message('note_on', channel=1, note=38, velocity=0, time=160),\n",
       "    Message('note_on', channel=1, note=50, velocity=0, time=0),\n",
       "    Message('note_on', channel=1, note=38, velocity=110, time=32),\n",
       "    Message('note_on', channel=1, note=50, velocity=110, time=0),\n",
       "    Message('note_on', channel=1, note=38, velocity=0, time=94),\n",
       "    Message('note_on', channel=1, note=50, velocity=0, time=0),\n",
       "    Message('note_on', channel=1, note=38, velocity=110, time=2),\n",
       "    Message('note_on', channel=1, note=50, velocity=110, time=0),\n",
       "    Message('note_on', channel=1, note=38, velocity=0, time=160),\n",
       "    Message('note_on', channel=1, note=50, velocity=0, time=0),\n",
       "    Message('note_on', channel=1, note=38, velocity=110, time=32),\n",
       "    Message('note_on', channel=1, note=50, velocity=110, time=0),\n",
       "    Message('note_on', channel=1, note=38, velocity=0, time=94),\n",
       "    Message('note_on', channel=1, note=50, velocity=0, time=0),\n",
       "    Message('control_change', channel=1, control=64, value=0, time=2),\n",
       "    Message('control_change', channel=1, control=64, value=127, time=0),\n",
       "    Message('note_on', channel=1, note=38, velocity=110, time=0),\n",
       "    Message('note_on', channel=1, note=50, velocity=110, time=0),\n",
       "    Message('note_on', channel=1, note=38, velocity=0, time=160),\n",
       "    Message('note_on', channel=1, note=50, velocity=0, time=0),\n",
       "    Message('note_on', channel=1, note=38, velocity=110, time=32),\n",
       "    Message('note_on', channel=1, note=50, velocity=110, time=0),\n",
       "    Message('note_on', channel=1, note=38, velocity=0, time=94),\n",
       "    Message('note_on', channel=1, note=50, velocity=0, time=0),\n",
       "    Message('note_on', channel=1, note=38, velocity=110, time=2),\n",
       "    Message('note_on', channel=1, note=50, velocity=110, time=0),\n",
       "    Message('note_on', channel=1, note=38, velocity=0, time=160),\n",
       "    Message('note_on', channel=1, note=50, velocity=0, time=0),\n",
       "    Message('note_on', channel=1, note=38, velocity=110, time=32),\n",
       "    Message('note_on', channel=1, note=50, velocity=110, time=0),\n",
       "    Message('note_on', channel=1, note=38, velocity=0, time=94),\n",
       "    Message('note_on', channel=1, note=50, velocity=0, time=0),\n",
       "    Message('control_change', channel=1, control=64, value=0, time=2),\n",
       "    Message('control_change', channel=1, control=64, value=127, time=0),\n",
       "    Message('note_on', channel=1, note=34, velocity=110, time=0),\n",
       "    Message('note_on', channel=1, note=46, velocity=110, time=0),\n",
       "    Message('note_on', channel=1, note=34, velocity=0, time=160),\n",
       "    Message('note_on', channel=1, note=46, velocity=0, time=0),\n",
       "    Message('note_on', channel=1, note=34, velocity=110, time=32),\n",
       "    Message('note_on', channel=1, note=46, velocity=110, time=0),\n",
       "    Message('note_on', channel=1, note=34, velocity=0, time=94),\n",
       "    Message('note_on', channel=1, note=46, velocity=0, time=0),\n",
       "    Message('note_on', channel=1, note=34, velocity=110, time=2),\n",
       "    Message('note_on', channel=1, note=46, velocity=110, time=0),\n",
       "    Message('note_on', channel=1, note=34, velocity=0, time=160),\n",
       "    Message('note_on', channel=1, note=46, velocity=0, time=0),\n",
       "    Message('note_on', channel=1, note=34, velocity=110, time=32),\n",
       "    Message('note_on', channel=1, note=46, velocity=110, time=0),\n",
       "    Message('note_on', channel=1, note=34, velocity=0, time=94),\n",
       "    Message('note_on', channel=1, note=46, velocity=0, time=0),\n",
       "    Message('control_change', channel=1, control=64, value=0, time=2),\n",
       "    Message('control_change', channel=1, control=64, value=127, time=0),\n",
       "    Message('note_on', channel=1, note=31, velocity=110, time=0),\n",
       "    Message('note_on', channel=1, note=43, velocity=110, time=0),\n",
       "    Message('note_on', channel=1, note=31, velocity=0, time=160),\n",
       "    Message('note_on', channel=1, note=43, velocity=0, time=0),\n",
       "    Message('note_on', channel=1, note=31, velocity=110, time=32),\n",
       "    Message('note_on', channel=1, note=43, velocity=110, time=0),\n",
       "    Message('note_on', channel=1, note=31, velocity=0, time=94),\n",
       "    Message('note_on', channel=1, note=43, velocity=0, time=0),\n",
       "    Message('note_on', channel=1, note=31, velocity=110, time=2),\n",
       "    Message('note_on', channel=1, note=43, velocity=110, time=0),\n",
       "    Message('note_on', channel=1, note=31, velocity=0, time=160),\n",
       "    Message('note_on', channel=1, note=43, velocity=0, time=0),\n",
       "    Message('note_on', channel=1, note=31, velocity=110, time=32),\n",
       "    Message('note_on', channel=1, note=43, velocity=110, time=0),\n",
       "    Message('note_on', channel=1, note=31, velocity=0, time=94),\n",
       "    Message('note_on', channel=1, note=43, velocity=0, time=0),\n",
       "    Message('control_change', channel=1, control=64, value=0, time=2),\n",
       "    Message('control_change', channel=1, control=64, value=127, time=0),\n",
       "    Message('note_on', channel=1, note=38, velocity=110, time=0),\n",
       "    Message('note_on', channel=1, note=50, velocity=110, time=0),\n",
       "    Message('note_on', channel=1, note=38, velocity=0, time=160),\n",
       "    Message('note_on', channel=1, note=50, velocity=0, time=0),\n",
       "    Message('note_on', channel=1, note=38, velocity=110, time=32),\n",
       "    Message('note_on', channel=1, note=50, velocity=110, time=0),\n",
       "    Message('note_on', channel=1, note=38, velocity=0, time=94),\n",
       "    Message('note_on', channel=1, note=50, velocity=0, time=0),\n",
       "    Message('note_on', channel=1, note=38, velocity=110, time=2),\n",
       "    Message('note_on', channel=1, note=50, velocity=110, time=0),\n",
       "    Message('note_on', channel=1, note=38, velocity=0, time=160),\n",
       "    Message('note_on', channel=1, note=50, velocity=0, time=0),\n",
       "    Message('note_on', channel=1, note=38, velocity=110, time=32),\n",
       "    Message('note_on', channel=1, note=50, velocity=110, time=0),\n",
       "    Message('note_on', channel=1, note=38, velocity=0, time=94),\n",
       "    Message('note_on', channel=1, note=50, velocity=0, time=0),\n",
       "    Message('control_change', channel=1, control=64, value=0, time=2),\n",
       "    Message('control_change', channel=1, control=64, value=127, time=0),\n",
       "    Message('note_on', channel=1, note=34, velocity=110, time=0),\n",
       "    Message('note_on', channel=1, note=46, velocity=110, time=0),\n",
       "    Message('note_on', channel=1, note=34, velocity=0, time=160),\n",
       "    Message('note_on', channel=1, note=46, velocity=0, time=0),\n",
       "    Message('note_on', channel=1, note=34, velocity=110, time=32),\n",
       "    Message('note_on', channel=1, note=46, velocity=110, time=0),\n",
       "    Message('note_on', channel=1, note=34, velocity=0, time=94),\n",
       "    Message('note_on', channel=1, note=46, velocity=0, time=0),\n",
       "    Message('note_on', channel=1, note=34, velocity=110, time=2),\n",
       "    Message('note_on', channel=1, note=46, velocity=110, time=0),\n",
       "    Message('note_on', channel=1, note=34, velocity=0, time=160),\n",
       "    Message('note_on', channel=1, note=46, velocity=0, time=0),\n",
       "    Message('note_on', channel=1, note=34, velocity=110, time=32),\n",
       "    Message('note_on', channel=1, note=46, velocity=110, time=0),\n",
       "    Message('note_on', channel=1, note=34, velocity=0, time=94),\n",
       "    Message('note_on', channel=1, note=46, velocity=0, time=0),\n",
       "    Message('control_change', channel=1, control=64, value=0, time=2),\n",
       "    Message('control_change', channel=1, control=64, value=127, time=0),\n",
       "    Message('note_on', channel=1, note=38, velocity=110, time=0),\n",
       "    Message('note_on', channel=1, note=50, velocity=110, time=0),\n",
       "    Message('note_on', channel=1, note=38, velocity=0, time=160),\n",
       "    Message('note_on', channel=1, note=50, velocity=0, time=0),\n",
       "    Message('note_on', channel=1, note=38, velocity=110, time=32),\n",
       "    Message('note_on', channel=1, note=50, velocity=110, time=0),\n",
       "    Message('note_on', channel=1, note=38, velocity=0, time=94),\n",
       "    Message('note_on', channel=1, note=50, velocity=0, time=0),\n",
       "    Message('note_on', channel=1, note=38, velocity=110, time=2),\n",
       "    Message('note_on', channel=1, note=50, velocity=110, time=0),\n",
       "    Message('note_on', channel=1, note=38, velocity=0, time=160),\n",
       "    Message('note_on', channel=1, note=50, velocity=0, time=0),\n",
       "    Message('note_on', channel=1, note=38, velocity=110, time=32),\n",
       "    Message('note_on', channel=1, note=50, velocity=110, time=0),\n",
       "    Message('note_on', channel=1, note=38, velocity=0, time=94),\n",
       "    Message('note_on', channel=1, note=50, velocity=0, time=0),\n",
       "    Message('control_change', channel=1, control=64, value=0, time=2),\n",
       "    Message('control_change', channel=1, control=64, value=127, time=0),\n",
       "    Message('note_on', channel=1, note=33, velocity=110, time=0),\n",
       "    Message('note_on', channel=1, note=45, velocity=110, time=0),\n",
       "    Message('note_on', channel=1, note=33, velocity=0, time=160),\n",
       "    Message('note_on', channel=1, note=45, velocity=0, time=0),\n",
       "    Message('note_on', channel=1, note=33, velocity=110, time=32),\n",
       "    Message('note_on', channel=1, note=45, velocity=110, time=0),\n",
       "    Message('note_on', channel=1, note=33, velocity=0, time=94),\n",
       "    Message('note_on', channel=1, note=45, velocity=0, time=0),\n",
       "    Message('note_on', channel=1, note=33, velocity=110, time=2),\n",
       "    Message('note_on', channel=1, note=45, velocity=110, time=0),\n",
       "    Message('note_on', channel=1, note=33, velocity=0, time=160),\n",
       "    Message('note_on', channel=1, note=45, velocity=0, time=0),\n",
       "    Message('note_on', channel=1, note=33, velocity=110, time=32),\n",
       "    Message('note_on', channel=1, note=45, velocity=110, time=0),\n",
       "    Message('note_on', channel=1, note=33, velocity=0, time=94),\n",
       "    Message('note_on', channel=1, note=45, velocity=0, time=0),\n",
       "    Message('control_change', channel=1, control=64, value=0, time=2),\n",
       "    Message('control_change', channel=1, control=64, value=127, time=0),\n",
       "    Message('note_on', channel=1, note=38, velocity=110, time=0),\n",
       "    Message('note_on', channel=1, note=50, velocity=110, time=0),\n",
       "    Message('note_on', channel=1, note=38, velocity=0, time=160),\n",
       "    Message('note_on', channel=1, note=50, velocity=0, time=0),\n",
       "    Message('note_on', channel=1, note=38, velocity=110, time=32),\n",
       "    Message('note_on', channel=1, note=50, velocity=110, time=0),\n",
       "    Message('note_on', channel=1, note=38, velocity=0, time=160),\n",
       "    Message('note_on', channel=1, note=50, velocity=0, time=0),\n",
       "    Message('control_change', channel=1, control=64, value=0, time=32),\n",
       "    Message('control_change', channel=1, control=64, value=127, time=0),\n",
       "    Message('note_on', channel=1, note=36, velocity=110, time=0),\n",
       "    Message('note_on', channel=1, note=48, velocity=110, time=0),\n",
       "    Message('note_on', channel=1, note=36, velocity=0, time=160),\n",
       "    Message('note_on', channel=1, note=48, velocity=0, time=0),\n",
       "    Message('note_on', channel=1, note=36, velocity=110, time=32),\n",
       "    Message('note_on', channel=1, note=48, velocity=110, time=0),\n",
       "    Message('note_on', channel=1, note=36, velocity=0, time=160),\n",
       "    Message('note_on', channel=1, note=48, velocity=0, time=0),\n",
       "    Message('note_on', channel=1, note=36, velocity=110, time=32),\n",
       "    Message('note_on', channel=1, note=48, velocity=110, time=0),\n",
       "    Message('note_on', channel=1, note=36, velocity=0, time=160),\n",
       "    Message('note_on', channel=1, note=48, velocity=0, time=0),\n",
       "    Message('control_change', channel=1, control=64, value=0, time=32),\n",
       "    Message('control_change', channel=1, control=64, value=127, time=0),\n",
       "    Message('note_on', channel=1, note=34, velocity=110, time=0),\n",
       "    Message('note_on', channel=1, note=46, velocity=110, time=0),\n",
       "    Message('note_on', channel=1, note=34, velocity=0, time=160),\n",
       "    Message('note_on', channel=1, note=46, velocity=0, time=0),\n",
       "    Message('control_change', channel=1, control=64, value=0, time=32),\n",
       "    Message('control_change', channel=1, control=64, value=127, time=0),\n",
       "    Message('note_on', channel=1, note=33, velocity=110, time=0),\n",
       "    Message('note_on', channel=1, note=45, velocity=110, time=0),\n",
       "    Message('note_on', channel=1, note=33, velocity=0, time=160),\n",
       "    Message('note_on', channel=1, note=45, velocity=0, time=0),\n",
       "    Message('note_on', channel=1, note=33, velocity=110, time=32),\n",
       "    Message('note_on', channel=1, note=45, velocity=110, time=0),\n",
       "    Message('note_on', channel=1, note=33, velocity=0, time=94),\n",
       "    Message('note_on', channel=1, note=45, velocity=0, time=0),\n",
       "    Message('note_on', channel=1, note=33, velocity=110, time=2),\n",
       "    Message('note_on', channel=1, note=45, velocity=110, time=0),\n",
       "    Message('note_on', channel=1, note=33, velocity=0, time=160),\n",
       "    Message('note_on', channel=1, note=45, velocity=0, time=0),\n",
       "    Message('note_on', channel=1, note=33, velocity=110, time=32),\n",
       "    Message('note_on', channel=1, note=45, velocity=110, time=0),\n",
       "    Message('note_on', channel=1, note=33, velocity=0, time=94),\n",
       "    Message('note_on', channel=1, note=45, velocity=0, time=0),\n",
       "    Message('note_on', channel=1, note=33, velocity=110, time=2),\n",
       "    Message('note_on', channel=1, note=45, velocity=110, time=0),\n",
       "    Message('note_on', channel=1, note=33, velocity=0, time=160),\n",
       "    Message('note_on', channel=1, note=45, velocity=0, time=0),\n",
       "    Message('note_on', channel=1, note=33, velocity=110, time=32),\n",
       "    Message('note_on', channel=1, note=45, velocity=110, time=0),\n",
       "    Message('note_on', channel=1, note=33, velocity=0, time=94),\n",
       "    Message('note_on', channel=1, note=45, velocity=0, time=0),\n",
       "    Message('note_on', channel=1, note=33, velocity=110, time=2),\n",
       "    Message('note_on', channel=1, note=45, velocity=110, time=0),\n",
       "    Message('note_on', channel=1, note=33, velocity=0, time=160),\n",
       "    Message('note_on', channel=1, note=45, velocity=0, time=0),\n",
       "    Message('note_on', channel=1, note=33, velocity=110, time=32),\n",
       "    Message('note_on', channel=1, note=45, velocity=110, time=0),\n",
       "    Message('note_on', channel=1, note=33, velocity=0, time=94),\n",
       "    Message('note_on', channel=1, note=45, velocity=0, time=0),\n",
       "    Message('control_change', channel=1, control=64, value=0, time=2),\n",
       "    Message('control_change', channel=1, control=64, value=127, time=0),\n",
       "    Message('note_on', channel=1, note=31, velocity=110, time=0),\n",
       "    Message('note_on', channel=1, note=43, velocity=110, time=0),\n",
       "    Message('note_on', channel=1, note=31, velocity=0, time=160),\n",
       "    Message('note_on', channel=1, note=43, velocity=0, time=0),\n",
       "    Message('note_on', channel=1, note=31, velocity=110, time=32),\n",
       "    Message('note_on', channel=1, note=43, velocity=110, time=0),\n",
       "    Message('note_on', channel=1, note=31, velocity=0, time=94),\n",
       "    Message('note_on', channel=1, note=43, velocity=0, time=0),\n",
       "    Message('note_on', channel=1, note=31, velocity=110, time=2),\n",
       "    Message('note_on', channel=1, note=43, velocity=110, time=0),\n",
       "    Message('note_on', channel=1, note=31, velocity=0, time=160),\n",
       "    Message('note_on', channel=1, note=43, velocity=0, time=0),\n",
       "    Message('note_on', channel=1, note=31, velocity=110, time=32),\n",
       "    Message('note_on', channel=1, note=43, velocity=110, time=0),\n",
       "    Message('note_on', channel=1, note=31, velocity=0, time=94),\n",
       "    Message('note_on', channel=1, note=43, velocity=0, time=0),\n",
       "    Message('note_on', channel=1, note=31, velocity=110, time=2),\n",
       "    Message('note_on', channel=1, note=43, velocity=110, time=0),\n",
       "    Message('note_on', channel=1, note=31, velocity=0, time=160),\n",
       "    Message('note_on', channel=1, note=43, velocity=0, time=0),\n",
       "    Message('note_on', channel=1, note=31, velocity=110, time=32),\n",
       "    Message('note_on', channel=1, note=43, velocity=110, time=0),\n",
       "    Message('note_on', channel=1, note=31, velocity=0, time=94),\n",
       "    Message('note_on', channel=1, note=43, velocity=0, time=0),\n",
       "    Message('note_on', channel=1, note=31, velocity=110, time=2),\n",
       "    Message('note_on', channel=1, note=43, velocity=110, time=0),\n",
       "    Message('note_on', channel=1, note=31, velocity=0, time=160),\n",
       "    Message('note_on', channel=1, note=43, velocity=0, time=0),\n",
       "    Message('note_on', channel=1, note=31, velocity=110, time=32),\n",
       "    Message('note_on', channel=1, note=43, velocity=110, time=0),\n",
       "    Message('note_on', channel=1, note=31, velocity=0, time=94),\n",
       "    Message('note_on', channel=1, note=43, velocity=0, time=0),\n",
       "    Message('control_change', channel=1, control=64, value=0, time=2),\n",
       "    Message('control_change', channel=1, control=64, value=127, time=0),\n",
       "    Message('note_on', channel=1, note=33, velocity=110, time=0),\n",
       "    Message('note_on', channel=1, note=45, velocity=110, time=0),\n",
       "    Message('note_on', channel=1, note=33, velocity=0, time=160),\n",
       "    Message('note_on', channel=1, note=45, velocity=0, time=0),\n",
       "    Message('note_on', channel=1, note=33, velocity=110, time=32),\n",
       "    Message('note_on', channel=1, note=45, velocity=110, time=0),\n",
       "    Message('note_on', channel=1, note=33, velocity=0, time=94),\n",
       "    Message('note_on', channel=1, note=45, velocity=0, time=0),\n",
       "    Message('control_change', channel=1, control=64, value=0, time=2),\n",
       "    Message('control_change', channel=1, control=64, value=127, time=0),\n",
       "    Message('note_on', channel=1, note=33, velocity=110, time=0),\n",
       "    Message('note_on', channel=1, note=45, velocity=110, time=0),\n",
       "    Message('note_on', channel=1, note=33, velocity=0, time=160),\n",
       "    Message('note_on', channel=1, note=45, velocity=0, time=0),\n",
       "    Message('note_on', channel=1, note=33, velocity=110, time=32),\n",
       "    Message('note_on', channel=1, note=45, velocity=110, time=0),\n",
       "    Message('note_on', channel=1, note=33, velocity=0, time=94),\n",
       "    Message('note_on', channel=1, note=45, velocity=0, time=0),\n",
       "    Message('note_on', channel=1, note=33, velocity=110, time=2),\n",
       "    Message('note_on', channel=1, note=45, velocity=110, time=0),\n",
       "    Message('note_on', channel=1, note=33, velocity=0, time=160),\n",
       "    Message('note_on', channel=1, note=45, velocity=0, time=0),\n",
       "    Message('note_on', channel=1, note=33, velocity=110, time=32),\n",
       "    Message('note_on', channel=1, note=45, velocity=110, time=0),\n",
       "    Message('note_on', channel=1, note=33, velocity=0, time=94),\n",
       "    Message('note_on', channel=1, note=45, velocity=0, time=0),\n",
       "    Message('note_on', channel=1, note=33, velocity=110, time=2),\n",
       "    Message('note_on', channel=1, note=45, velocity=110, time=0),\n",
       "    Message('note_on', channel=1, note=33, velocity=0, time=160),\n",
       "    Message('note_on', channel=1, note=45, velocity=0, time=0),\n",
       "    Message('note_on', channel=1, note=33, velocity=110, time=32),\n",
       "    Message('note_on', channel=1, note=45, velocity=110, time=0),\n",
       "    Message('note_on', channel=1, note=33, velocity=0, time=94),\n",
       "    Message('note_on', channel=1, note=45, velocity=0, time=0),\n",
       "    Message('control_change', channel=1, control=64, value=0, time=2),\n",
       "    Message('control_change', channel=1, control=64, value=127, time=0),\n",
       "    Message('note_on', channel=1, note=38, velocity=110, time=0),\n",
       "    Message('note_on', channel=1, note=50, velocity=110, time=0),\n",
       "    Message('note_on', channel=1, note=38, velocity=0, time=160),\n",
       "    Message('note_on', channel=1, note=50, velocity=0, time=0),\n",
       "    Message('note_on', channel=1, note=38, velocity=110, time=32),\n",
       "    Message('note_on', channel=1, note=50, velocity=110, time=0),\n",
       "    Message('note_on', channel=1, note=38, velocity=0, time=94),\n",
       "    Message('note_on', channel=1, note=50, velocity=0, time=0),\n",
       "    Message('note_on', channel=1, note=38, velocity=110, time=2),\n",
       "    Message('note_on', channel=1, note=50, velocity=110, time=0),\n",
       "    Message('note_on', channel=1, note=38, velocity=0, time=160),\n",
       "    Message('note_on', channel=1, note=50, velocity=0, time=0),\n",
       "    Message('note_on', channel=1, note=38, velocity=110, time=32),\n",
       "    Message('note_on', channel=1, note=50, velocity=110, time=0),\n",
       "    Message('note_on', channel=1, note=38, velocity=0, time=94),\n",
       "    Message('note_on', channel=1, note=50, velocity=0, time=0),\n",
       "    Message('note_on', channel=1, note=38, velocity=110, time=2),\n",
       "    Message('note_on', channel=1, note=50, velocity=110, time=0),\n",
       "    Message('note_on', channel=1, note=38, velocity=0, time=160),\n",
       "    Message('note_on', channel=1, note=50, velocity=0, time=0),\n",
       "    Message('note_on', channel=1, note=38, velocity=110, time=32),\n",
       "    Message('note_on', channel=1, note=50, velocity=110, time=0),\n",
       "    Message('note_on', channel=1, note=38, velocity=0, time=94),\n",
       "    Message('note_on', channel=1, note=50, velocity=0, time=0),\n",
       "    Message('note_on', channel=1, note=38, velocity=110, time=2),\n",
       "    Message('note_on', channel=1, note=50, velocity=110, time=0),\n",
       "    Message('note_on', channel=1, note=38, velocity=0, time=94),\n",
       "    Message('note_on', channel=1, note=50, velocity=0, time=0),\n",
       "    Message('note_on', channel=1, note=38, velocity=110, time=2),\n",
       "    Message('note_on', channel=1, note=50, velocity=110, time=0),\n",
       "    Message('note_on', channel=1, note=38, velocity=0, time=94),\n",
       "    Message('note_on', channel=1, note=50, velocity=0, time=0),\n",
       "    Message('note_on', channel=1, note=38, velocity=110, time=2),\n",
       "    Message('note_on', channel=1, note=50, velocity=110, time=0),\n",
       "    Message('note_on', channel=1, note=38, velocity=0, time=94),\n",
       "    Message('note_on', channel=1, note=50, velocity=0, time=0),\n",
       "    Message('control_change', channel=1, control=64, value=0, time=2),\n",
       "    Message('control_change', channel=1, control=64, value=127, time=0),\n",
       "    Message('note_on', channel=1, note=36, velocity=110, time=0),\n",
       "    Message('note_on', channel=1, note=48, velocity=110, time=0),\n",
       "    Message('note_on', channel=1, note=36, velocity=0, time=160),\n",
       "    Message('note_on', channel=1, note=48, velocity=0, time=0),\n",
       "    Message('note_on', channel=1, note=36, velocity=110, time=32),\n",
       "    Message('note_on', channel=1, note=48, velocity=110, time=0),\n",
       "    Message('note_on', channel=1, note=36, velocity=0, time=94),\n",
       "    Message('note_on', channel=1, note=48, velocity=0, time=0),\n",
       "    Message('note_on', channel=1, note=36, velocity=110, time=2),\n",
       "    Message('note_on', channel=1, note=48, velocity=110, time=0),\n",
       "    Message('note_on', channel=1, note=36, velocity=0, time=160),\n",
       "    Message('note_on', channel=1, note=48, velocity=0, time=0),\n",
       "    Message('note_on', channel=1, note=36, velocity=110, time=32),\n",
       "    Message('note_on', channel=1, note=48, velocity=110, time=0),\n",
       "    Message('note_on', channel=1, note=36, velocity=0, time=94),\n",
       "    Message('note_on', channel=1, note=48, velocity=0, time=0),\n",
       "    Message('control_change', channel=1, control=64, value=0, time=2),\n",
       "    Message('control_change', channel=1, control=64, value=127, time=0),\n",
       "    Message('note_on', channel=1, note=41, velocity=110, time=0),\n",
       "    Message('note_on', channel=1, note=53, velocity=110, time=0),\n",
       "    Message('note_on', channel=1, note=41, velocity=0, time=160),\n",
       "    Message('note_on', channel=1, note=53, velocity=0, time=0),\n",
       "    Message('note_on', channel=1, note=41, velocity=110, time=32),\n",
       "    Message('note_on', channel=1, note=53, velocity=110, time=0),\n",
       "    Message('note_on', channel=1, note=41, velocity=0, time=94),\n",
       "    Message('note_on', channel=1, note=53, velocity=0, time=0),\n",
       "    Message('note_on', channel=1, note=41, velocity=110, time=2),\n",
       "    Message('note_on', channel=1, note=53, velocity=110, time=0),\n",
       "    Message('note_on', channel=1, note=41, velocity=0, time=94),\n",
       "    Message('note_on', channel=1, note=53, velocity=0, time=0),\n",
       "    Message('note_on', channel=1, note=41, velocity=110, time=2),\n",
       "    Message('note_on', channel=1, note=53, velocity=110, time=0),\n",
       "    Message('note_on', channel=1, note=41, velocity=0, time=94),\n",
       "    Message('note_on', channel=1, note=53, velocity=0, time=0),\n",
       "    Message('note_on', channel=1, note=41, velocity=110, time=2),\n",
       "    Message('note_on', channel=1, note=53, velocity=110, time=0),\n",
       "    Message('note_on', channel=1, note=41, velocity=0, time=94),\n",
       "    Message('note_on', channel=1, note=53, velocity=0, time=0),\n",
       "    Message('control_change', channel=1, control=64, value=0, time=2),\n",
       "    Message('control_change', channel=1, control=64, value=127, time=0),\n",
       "    Message('note_on', channel=1, note=38, velocity=110, time=0),\n",
       "    Message('note_on', channel=1, note=50, velocity=110, time=0),\n",
       "    Message('note_on', channel=1, note=38, velocity=0, time=160),\n",
       "    Message('note_on', channel=1, note=50, velocity=0, time=0),\n",
       "    Message('note_on', channel=1, note=38, velocity=110, time=32),\n",
       "    Message('note_on', channel=1, note=50, velocity=110, time=0),\n",
       "    Message('note_on', channel=1, note=38, velocity=0, time=94),\n",
       "    Message('note_on', channel=1, note=50, velocity=0, time=0),\n",
       "    Message('note_on', channel=1, note=38, velocity=110, time=2),\n",
       "    Message('note_on', channel=1, note=50, velocity=110, time=0),\n",
       "    Message('note_on', channel=1, note=38, velocity=0, time=160),\n",
       "    Message('note_on', channel=1, note=50, velocity=0, time=0),\n",
       "    Message('note_on', channel=1, note=38, velocity=110, time=32),\n",
       "    Message('note_on', channel=1, note=50, velocity=110, time=0),\n",
       "    Message('note_on', channel=1, note=38, velocity=0, time=94),\n",
       "    Message('note_on', channel=1, note=50, velocity=0, time=0),\n",
       "    Message('note_on', channel=1, note=38, velocity=110, time=2),\n",
       "    Message('note_on', channel=1, note=50, velocity=110, time=0),\n",
       "    Message('note_on', channel=1, note=38, velocity=0, time=160),\n",
       "    Message('note_on', channel=1, note=50, velocity=0, time=0),\n",
       "    Message('note_on', channel=1, note=38, velocity=110, time=32),\n",
       "    Message('note_on', channel=1, note=50, velocity=110, time=0),\n",
       "    Message('note_on', channel=1, note=38, velocity=0, time=94),\n",
       "    Message('note_on', channel=1, note=50, velocity=0, time=0),\n",
       "    Message('note_on', channel=1, note=38, velocity=110, time=2),\n",
       "    Message('note_on', channel=1, note=50, velocity=110, time=0),\n",
       "    Message('note_on', channel=1, note=38, velocity=0, time=94),\n",
       "    Message('note_on', channel=1, note=50, velocity=0, time=0),\n",
       "    Message('note_on', channel=1, note=38, velocity=110, time=2),\n",
       "    Message('note_on', channel=1, note=50, velocity=110, time=0),\n",
       "    Message('note_on', channel=1, note=38, velocity=0, time=94),\n",
       "    Message('note_on', channel=1, note=50, velocity=0, time=0),\n",
       "    Message('note_on', channel=1, note=38, velocity=110, time=2),\n",
       "    Message('note_on', channel=1, note=50, velocity=110, time=0),\n",
       "    Message('note_on', channel=1, note=38, velocity=0, time=94),\n",
       "    Message('note_on', channel=1, note=50, velocity=0, time=0),\n",
       "    Message('control_change', channel=1, control=64, value=0, time=2),\n",
       "    Message('control_change', channel=1, control=64, value=127, time=0),\n",
       "    Message('note_on', channel=1, note=33, velocity=110, time=0),\n",
       "    Message('note_on', channel=1, note=45, velocity=110, time=0),\n",
       "    Message('note_on', channel=1, note=33, velocity=0, time=160),\n",
       "    Message('note_on', channel=1, note=45, velocity=0, time=0),\n",
       "    Message('note_on', channel=1, note=33, velocity=110, time=32),\n",
       "    Message('note_on', channel=1, note=45, velocity=110, time=0),\n",
       "    Message('note_on', channel=1, note=33, velocity=0, time=94),\n",
       "    Message('note_on', channel=1, note=45, velocity=0, time=0),\n",
       "    Message('note_on', channel=1, note=33, velocity=110, time=2),\n",
       "    Message('note_on', channel=1, note=45, velocity=110, time=0),\n",
       "    Message('note_on', channel=1, note=33, velocity=0, time=160),\n",
       "    Message('note_on', channel=1, note=45, velocity=0, time=0),\n",
       "    Message('note_on', channel=1, note=33, velocity=110, time=32),\n",
       "    Message('note_on', channel=1, note=45, velocity=110, time=0),\n",
       "    Message('note_on', channel=1, note=33, velocity=0, time=94),\n",
       "    Message('note_on', channel=1, note=45, velocity=0, time=0),\n",
       "    Message('control_change', channel=1, control=64, value=0, time=2),\n",
       "    Message('control_change', channel=1, control=64, value=127, time=0),\n",
       "    Message('note_on', channel=1, note=38, velocity=110, time=0),\n",
       "    Message('note_on', channel=1, note=50, velocity=110, time=0),\n",
       "    Message('note_on', channel=1, note=38, velocity=0, time=160),\n",
       "    Message('note_on', channel=1, note=50, velocity=0, time=0),\n",
       "    Message('note_on', channel=1, note=38, velocity=110, time=32),\n",
       "    Message('note_on', channel=1, note=50, velocity=110, time=0),\n",
       "    Message('note_on', channel=1, note=38, velocity=0, time=94),\n",
       "    Message('note_on', channel=1, note=50, velocity=0, time=0),\n",
       "    Message('note_on', channel=1, note=38, velocity=110, time=2),\n",
       "    Message('note_on', channel=1, note=50, velocity=110, time=0),\n",
       "    Message('note_on', channel=1, note=38, velocity=0, time=160),\n",
       "    Message('note_on', channel=1, note=50, velocity=0, time=0),\n",
       "    Message('note_on', channel=1, note=38, velocity=110, time=32),\n",
       "    Message('note_on', channel=1, note=50, velocity=110, time=0),\n",
       "    Message('note_on', channel=1, note=38, velocity=0, time=94),\n",
       "    Message('note_on', channel=1, note=50, velocity=0, time=0),\n",
       "    Message('control_change', channel=1, control=64, value=0, time=2),\n",
       "    Message('control_change', channel=1, control=64, value=127, time=0),\n",
       "    Message('note_on', channel=1, note=38, velocity=110, time=0),\n",
       "    Message('note_on', channel=1, note=50, velocity=110, time=0),\n",
       "    Message('note_on', channel=1, note=38, velocity=0, time=160),\n",
       "    Message('note_on', channel=1, note=50, velocity=0, time=0),\n",
       "    Message('note_on', channel=1, note=38, velocity=110, time=32),\n",
       "    Message('note_on', channel=1, note=50, velocity=110, time=0),\n",
       "    Message('note_on', channel=1, note=38, velocity=0, time=94),\n",
       "    Message('note_on', channel=1, note=50, velocity=0, time=0),\n",
       "    Message('note_on', channel=1, note=38, velocity=110, time=2),\n",
       "    Message('note_on', channel=1, note=50, velocity=110, time=0),\n",
       "    Message('note_on', channel=1, note=38, velocity=0, time=160),\n",
       "    Message('note_on', channel=1, note=50, velocity=0, time=0),\n",
       "    Message('note_on', channel=1, note=38, velocity=110, time=32),\n",
       "    Message('note_on', channel=1, note=50, velocity=110, time=0),\n",
       "    Message('note_on', channel=1, note=38, velocity=0, time=94),\n",
       "    Message('note_on', channel=1, note=50, velocity=0, time=0),\n",
       "    Message('control_change', channel=1, control=64, value=0, time=2),\n",
       "    Message('control_change', channel=1, control=64, value=127, time=0),\n",
       "    Message('note_on', channel=1, note=36, velocity=110, time=0),\n",
       "    Message('note_on', channel=1, note=48, velocity=110, time=0),\n",
       "    Message('note_on', channel=1, note=36, velocity=0, time=160),\n",
       "    Message('note_on', channel=1, note=48, velocity=0, time=0),\n",
       "    Message('note_on', channel=1, note=36, velocity=110, time=32),\n",
       "    Message('note_on', channel=1, note=48, velocity=110, time=0),\n",
       "    Message('note_on', channel=1, note=36, velocity=0, time=94),\n",
       "    Message('note_on', channel=1, note=48, velocity=0, time=0),\n",
       "    Message('note_on', channel=1, note=36, velocity=110, time=2),\n",
       "    Message('note_on', channel=1, note=48, velocity=110, time=0),\n",
       "    Message('note_on', channel=1, note=36, velocity=0, time=94),\n",
       "    Message('note_on', channel=1, note=48, velocity=0, time=0),\n",
       "    Message('note_on', channel=1, note=36, velocity=110, time=2),\n",
       "    Message('note_on', channel=1, note=48, velocity=110, time=0),\n",
       "    Message('note_on', channel=1, note=36, velocity=0, time=94),\n",
       "    Message('note_on', channel=1, note=48, velocity=0, time=0),\n",
       "    Message('note_on', channel=1, note=36, velocity=110, time=2),\n",
       "    Message('note_on', channel=1, note=48, velocity=110, time=0),\n",
       "    Message('note_on', channel=1, note=36, velocity=0, time=94),\n",
       "    Message('note_on', channel=1, note=48, velocity=0, time=0),\n",
       "    Message('control_change', channel=1, control=64, value=0, time=2),\n",
       "    Message('control_change', channel=1, control=64, value=127, time=0),\n",
       "    Message('note_on', channel=1, note=41, velocity=110, time=0),\n",
       "    Message('note_on', channel=1, note=53, velocity=110, time=0),\n",
       "    Message('note_on', channel=1, note=41, velocity=0, time=160),\n",
       "    Message('note_on', channel=1, note=53, velocity=0, time=0),\n",
       "    Message('note_on', channel=1, note=41, velocity=110, time=32),\n",
       "    Message('note_on', channel=1, note=53, velocity=110, time=0),\n",
       "    Message('note_on', channel=1, note=41, velocity=0, time=94),\n",
       "    Message('note_on', channel=1, note=53, velocity=0, time=0),\n",
       "    Message('note_on', channel=1, note=41, velocity=110, time=2),\n",
       "    Message('note_on', channel=1, note=53, velocity=110, time=0),\n",
       "    Message('note_on', channel=1, note=41, velocity=0, time=94),\n",
       "    Message('note_on', channel=1, note=53, velocity=0, time=0),\n",
       "    Message('note_on', channel=1, note=41, velocity=110, time=2),\n",
       "    Message('note_on', channel=1, note=53, velocity=110, time=0),\n",
       "    Message('note_on', channel=1, note=41, velocity=0, time=94),\n",
       "    Message('note_on', channel=1, note=53, velocity=0, time=0),\n",
       "    Message('note_on', channel=1, note=41, velocity=110, time=2),\n",
       "    Message('note_on', channel=1, note=53, velocity=110, time=0),\n",
       "    Message('note_on', channel=1, note=41, velocity=0, time=94),\n",
       "    Message('note_on', channel=1, note=53, velocity=0, time=0),\n",
       "    Message('control_change', channel=1, control=64, value=0, time=2),\n",
       "    Message('control_change', channel=1, control=64, value=127, time=0),\n",
       "    Message('note_on', channel=1, note=36, velocity=110, time=0),\n",
       "    Message('note_on', channel=1, note=48, velocity=110, time=0),\n",
       "    Message('note_on', channel=1, note=36, velocity=0, time=160),\n",
       "    Message('note_on', channel=1, note=48, velocity=0, time=0),\n",
       "    Message('note_on', channel=1, note=36, velocity=110, time=32),\n",
       "    Message('note_on', channel=1, note=48, velocity=110, time=0),\n",
       "    Message('note_on', channel=1, note=36, velocity=0, time=94),\n",
       "    Message('note_on', channel=1, note=48, velocity=0, time=0),\n",
       "    Message('note_on', channel=1, note=36, velocity=110, time=2),\n",
       "    Message('note_on', channel=1, note=48, velocity=110, time=0),\n",
       "    Message('note_on', channel=1, note=36, velocity=0, time=94),\n",
       "    Message('note_on', channel=1, note=48, velocity=0, time=0),\n",
       "    Message('note_on', channel=1, note=36, velocity=110, time=2),\n",
       "    Message('note_on', channel=1, note=48, velocity=110, time=0),\n",
       "    Message('note_on', channel=1, note=36, velocity=0, time=94),\n",
       "    Message('note_on', channel=1, note=48, velocity=0, time=0),\n",
       "    Message('note_on', channel=1, note=36, velocity=110, time=2),\n",
       "    Message('note_on', channel=1, note=48, velocity=110, time=0),\n",
       "    Message('note_on', channel=1, note=36, velocity=0, time=94),\n",
       "    Message('note_on', channel=1, note=48, velocity=0, time=0),\n",
       "    Message('control_change', channel=1, control=64, value=0, time=2),\n",
       "    Message('control_change', channel=1, control=64, value=127, time=0),\n",
       "    Message('note_on', channel=1, note=41, velocity=110, time=0),\n",
       "    Message('note_on', channel=1, note=53, velocity=110, time=0),\n",
       "    Message('note_on', channel=1, note=41, velocity=0, time=160),\n",
       "    Message('note_on', channel=1, note=53, velocity=0, time=0),\n",
       "    Message('note_on', channel=1, note=41, velocity=110, time=32),\n",
       "    Message('note_on', channel=1, note=53, velocity=110, time=0),\n",
       "    Message('note_on', channel=1, note=41, velocity=0, time=94),\n",
       "    Message('note_on', channel=1, note=53, velocity=0, time=0),\n",
       "    Message('note_on', channel=1, note=41, velocity=110, time=2),\n",
       "    Message('note_on', channel=1, note=53, velocity=110, time=0),\n",
       "    Message('note_on', channel=1, note=41, velocity=0, time=94),\n",
       "    Message('note_on', channel=1, note=53, velocity=0, time=0),\n",
       "    Message('note_on', channel=1, note=41, velocity=110, time=2),\n",
       "    Message('note_on', channel=1, note=53, velocity=110, time=0),\n",
       "    Message('note_on', channel=1, note=41, velocity=0, time=94),\n",
       "    Message('note_on', channel=1, note=53, velocity=0, time=0),\n",
       "    Message('note_on', channel=1, note=41, velocity=110, time=2),\n",
       "    Message('note_on', channel=1, note=53, velocity=110, time=0),\n",
       "    Message('note_on', channel=1, note=41, velocity=0, time=94),\n",
       "    Message('note_on', channel=1, note=53, velocity=0, time=0),\n",
       "    Message('control_change', channel=1, control=64, value=0, time=2),\n",
       "    Message('control_change', channel=1, control=64, value=127, time=0),\n",
       "    Message('note_on', channel=1, note=33, velocity=110, time=0),\n",
       "    Message('note_on', channel=1, note=45, velocity=110, time=0),\n",
       "    Message('note_on', channel=1, note=33, velocity=0, time=160),\n",
       "    Message('note_on', channel=1, note=45, velocity=0, time=0),\n",
       "    Message('note_on', channel=1, note=33, velocity=110, time=32),\n",
       "    Message('note_on', channel=1, note=45, velocity=110, time=0),\n",
       "    Message('note_on', channel=1, note=33, velocity=0, time=94),\n",
       "    Message('note_on', channel=1, note=45, velocity=0, time=0),\n",
       "    Message('note_on', channel=1, note=33, velocity=110, time=2),\n",
       "    Message('note_on', channel=1, note=45, velocity=110, time=0),\n",
       "    Message('note_on', channel=1, note=33, velocity=0, time=94),\n",
       "    Message('note_on', channel=1, note=45, velocity=0, time=0),\n",
       "    Message('note_on', channel=1, note=33, velocity=110, time=2),\n",
       "    Message('note_on', channel=1, note=45, velocity=110, time=0),\n",
       "    Message('note_on', channel=1, note=33, velocity=0, time=94),\n",
       "    Message('note_on', channel=1, note=45, velocity=0, time=0),\n",
       "    Message('note_on', channel=1, note=33, velocity=110, time=2),\n",
       "    Message('note_on', channel=1, note=45, velocity=110, time=0),\n",
       "    Message('note_on', channel=1, note=33, velocity=0, time=94),\n",
       "    Message('note_on', channel=1, note=45, velocity=0, time=0),\n",
       "    Message('control_change', channel=1, control=64, value=0, time=2),\n",
       "    Message('control_change', channel=1, control=64, value=127, time=0),\n",
       "    Message('note_on', channel=1, note=38, velocity=110, time=0),\n",
       "    Message('note_on', channel=1, note=50, velocity=110, time=0),\n",
       "    Message('note_on', channel=1, note=38, velocity=0, time=160),\n",
       "    Message('note_on', channel=1, note=50, velocity=0, time=0),\n",
       "    Message('note_on', channel=1, note=38, velocity=110, time=32),\n",
       "    Message('note_on', channel=1, note=50, velocity=110, time=0),\n",
       "    Message('note_on', channel=1, note=38, velocity=0, time=94),\n",
       "    Message('note_on', channel=1, note=50, velocity=0, time=0),\n",
       "    Message('note_on', channel=1, note=38, velocity=110, time=2),\n",
       "    Message('note_on', channel=1, note=50, velocity=110, time=0),\n",
       "    Message('note_on', channel=1, note=38, velocity=0, time=160),\n",
       "    Message('note_on', channel=1, note=50, velocity=0, time=0),\n",
       "    Message('note_on', channel=1, note=38, velocity=110, time=32),\n",
       "    Message('note_on', channel=1, note=50, velocity=110, time=0),\n",
       "    Message('note_on', channel=1, note=38, velocity=0, time=94),\n",
       "    Message('note_on', channel=1, note=50, velocity=0, time=0),\n",
       "    Message('control_change', channel=1, control=64, value=0, time=2),\n",
       "    Message('control_change', channel=1, control=64, value=127, time=0),\n",
       "    Message('note_on', channel=1, note=38, velocity=110, time=0),\n",
       "    Message('note_on', channel=1, note=50, velocity=110, time=0),\n",
       "    Message('note_on', channel=1, note=38, velocity=0, time=160),\n",
       "    Message('note_on', channel=1, note=50, velocity=0, time=0),\n",
       "    Message('note_on', channel=1, note=38, velocity=110, time=32),\n",
       "    Message('note_on', channel=1, note=50, velocity=110, time=0),\n",
       "    Message('note_on', channel=1, note=38, velocity=0, time=94),\n",
       "    Message('note_on', channel=1, note=50, velocity=0, time=0),\n",
       "    Message('note_on', channel=1, note=38, velocity=110, time=2),\n",
       "    Message('note_on', channel=1, note=50, velocity=110, time=0),\n",
       "    Message('note_on', channel=1, note=38, velocity=0, time=94),\n",
       "    Message('note_on', channel=1, note=50, velocity=0, time=0),\n",
       "    Message('note_on', channel=1, note=38, velocity=110, time=2),\n",
       "    Message('note_on', channel=1, note=50, velocity=110, time=0),\n",
       "    Message('note_on', channel=1, note=38, velocity=0, time=94),\n",
       "    Message('note_on', channel=1, note=50, velocity=0, time=0),\n",
       "    Message('note_on', channel=1, note=38, velocity=110, time=2),\n",
       "    Message('note_on', channel=1, note=50, velocity=110, time=0),\n",
       "    Message('note_on', channel=1, note=38, velocity=0, time=94),\n",
       "    Message('note_on', channel=1, note=50, velocity=0, time=0),\n",
       "    Message('control_change', channel=1, control=64, value=0, time=2),\n",
       "    Message('control_change', channel=1, control=64, value=127, time=0),\n",
       "    Message('note_on', channel=1, note=38, velocity=110, time=0),\n",
       "    Message('note_on', channel=1, note=50, velocity=110, time=0),\n",
       "    Message('note_on', channel=1, note=38, velocity=0, time=160),\n",
       "    Message('note_on', channel=1, note=50, velocity=0, time=0),\n",
       "    Message('note_on', channel=1, note=38, velocity=110, time=32),\n",
       "    Message('note_on', channel=1, note=50, velocity=110, time=0),\n",
       "    Message('note_on', channel=1, note=38, velocity=0, time=94),\n",
       "    Message('note_on', channel=1, note=50, velocity=0, time=0),\n",
       "    Message('note_on', channel=1, note=38, velocity=110, time=2),\n",
       "    Message('note_on', channel=1, note=50, velocity=110, time=0),\n",
       "    Message('note_on', channel=1, note=38, velocity=0, time=94),\n",
       "    Message('note_on', channel=1, note=50, velocity=0, time=0),\n",
       "    Message('note_on', channel=1, note=38, velocity=110, time=2),\n",
       "    Message('note_on', channel=1, note=50, velocity=110, time=0),\n",
       "    Message('note_on', channel=1, note=38, velocity=0, time=94),\n",
       "    Message('note_on', channel=1, note=50, velocity=0, time=0),\n",
       "    Message('note_on', channel=1, note=38, velocity=110, time=2),\n",
       "    Message('note_on', channel=1, note=50, velocity=110, time=0),\n",
       "    Message('note_on', channel=1, note=38, velocity=0, time=94),\n",
       "    Message('note_on', channel=1, note=50, velocity=0, time=0),\n",
       "    Message('control_change', channel=1, control=64, value=0, time=2),\n",
       "    Message('control_change', channel=1, control=64, value=127, time=0),\n",
       "    Message('note_on', channel=1, note=36, velocity=110, time=0),\n",
       "    Message('note_on', channel=1, note=48, velocity=110, time=0),\n",
       "    Message('note_on', channel=1, note=36, velocity=0, time=160),\n",
       "    Message('note_on', channel=1, note=48, velocity=0, time=0),\n",
       "    Message('note_on', channel=1, note=36, velocity=110, time=32),\n",
       "    Message('note_on', channel=1, note=48, velocity=110, time=0),\n",
       "    Message('note_on', channel=1, note=36, velocity=0, time=94),\n",
       "    Message('note_on', channel=1, note=48, velocity=0, time=0),\n",
       "    Message('note_on', channel=1, note=36, velocity=110, time=2),\n",
       "    Message('note_on', channel=1, note=48, velocity=110, time=0),\n",
       "    Message('note_on', channel=1, note=36, velocity=0, time=94),\n",
       "    Message('note_on', channel=1, note=48, velocity=0, time=0),\n",
       "    Message('note_on', channel=1, note=36, velocity=110, time=2),\n",
       "    Message('note_on', channel=1, note=48, velocity=110, time=0),\n",
       "    Message('note_on', channel=1, note=36, velocity=0, time=94),\n",
       "    Message('note_on', channel=1, note=48, velocity=0, time=0),\n",
       "    Message('note_on', channel=1, note=36, velocity=110, time=2),\n",
       "    Message('note_on', channel=1, note=48, velocity=110, time=0),\n",
       "    Message('note_on', channel=1, note=36, velocity=0, time=94),\n",
       "    Message('note_on', channel=1, note=48, velocity=0, time=0),\n",
       "    Message('control_change', channel=1, control=64, value=0, time=2),\n",
       "    Message('control_change', channel=1, control=64, value=127, time=0),\n",
       "    Message('note_on', channel=1, note=41, velocity=110, time=0),\n",
       "    Message('note_on', channel=1, note=53, velocity=110, time=0),\n",
       "    Message('note_on', channel=1, note=41, velocity=0, time=160),\n",
       "    Message('note_on', channel=1, note=53, velocity=0, time=0),\n",
       "    Message('note_on', channel=1, note=41, velocity=110, time=32),\n",
       "    Message('note_on', channel=1, note=53, velocity=110, time=0),\n",
       "    Message('note_on', channel=1, note=41, velocity=0, time=94),\n",
       "    Message('note_on', channel=1, note=53, velocity=0, time=0),\n",
       "    Message('note_on', channel=1, note=41, velocity=110, time=2),\n",
       "    Message('note_on', channel=1, note=53, velocity=110, time=0),\n",
       "    Message('note_on', channel=1, note=41, velocity=0, time=94),\n",
       "    Message('note_on', channel=1, note=53, velocity=0, time=0),\n",
       "    Message('note_on', channel=1, note=41, velocity=110, time=2),\n",
       "    Message('note_on', channel=1, note=53, velocity=110, time=0),\n",
       "    Message('note_on', channel=1, note=41, velocity=0, time=94),\n",
       "    Message('note_on', channel=1, note=53, velocity=0, time=0),\n",
       "    Message('note_on', channel=1, note=41, velocity=110, time=2),\n",
       "    Message('note_on', channel=1, note=53, velocity=110, time=0),\n",
       "    Message('note_on', channel=1, note=41, velocity=0, time=94),\n",
       "    Message('note_on', channel=1, note=53, velocity=0, time=0),\n",
       "    Message('control_change', channel=1, control=64, value=0, time=2),\n",
       "    Message('control_change', channel=1, control=64, value=127, time=0),\n",
       "    Message('note_on', channel=1, note=34, velocity=110, time=0),\n",
       "    Message('note_on', channel=1, note=46, velocity=110, time=0),\n",
       "    Message('note_on', channel=1, note=34, velocity=0, time=160),\n",
       "    Message('note_on', channel=1, note=46, velocity=0, time=0),\n",
       "    Message('note_on', channel=1, note=34, velocity=110, time=32),\n",
       "    Message('note_on', channel=1, note=46, velocity=110, time=0),\n",
       "    Message('note_on', channel=1, note=34, velocity=0, time=94),\n",
       "    Message('note_on', channel=1, note=46, velocity=0, time=0),\n",
       "    Message('note_on', channel=1, note=34, velocity=110, time=2),\n",
       "    Message('note_on', channel=1, note=46, velocity=110, time=0),\n",
       "    Message('note_on', channel=1, note=34, velocity=0, time=94),\n",
       "    Message('note_on', channel=1, note=46, velocity=0, time=0),\n",
       "    Message('note_on', channel=1, note=34, velocity=110, time=2),\n",
       "    Message('note_on', channel=1, note=46, velocity=110, time=0),\n",
       "    Message('note_on', channel=1, note=34, velocity=0, time=94),\n",
       "    Message('note_on', channel=1, note=46, velocity=0, time=0),\n",
       "    Message('note_on', channel=1, note=34, velocity=110, time=2),\n",
       "    Message('note_on', channel=1, note=46, velocity=110, time=0),\n",
       "    Message('note_on', channel=1, note=34, velocity=0, time=94),\n",
       "    Message('note_on', channel=1, note=46, velocity=0, time=0),\n",
       "    Message('control_change', channel=1, control=64, value=0, time=2),\n",
       "    Message('control_change', channel=1, control=64, value=127, time=0),\n",
       "    Message('note_on', channel=1, note=38, velocity=110, time=0),\n",
       "    Message('note_on', channel=1, note=50, velocity=110, time=0),\n",
       "    Message('note_on', channel=1, note=38, velocity=0, time=160),\n",
       "    Message('note_on', channel=1, note=50, velocity=0, time=0),\n",
       "    Message('note_on', channel=1, note=38, velocity=110, time=32),\n",
       "    Message('note_on', channel=1, note=50, velocity=110, time=0),\n",
       "    Message('note_on', channel=1, note=38, velocity=0, time=94),\n",
       "    Message('note_on', channel=1, note=50, velocity=0, time=0),\n",
       "    Message('note_on', channel=1, note=38, velocity=110, time=2),\n",
       "    Message('note_on', channel=1, note=50, velocity=110, time=0),\n",
       "    Message('note_on', channel=1, note=38, velocity=0, time=94),\n",
       "    Message('note_on', channel=1, note=50, velocity=0, time=0),\n",
       "    Message('note_on', channel=1, note=38, velocity=110, time=2),\n",
       "    Message('note_on', channel=1, note=50, velocity=110, time=0),\n",
       "    Message('note_on', channel=1, note=38, velocity=0, time=94),\n",
       "    Message('note_on', channel=1, note=50, velocity=0, time=0),\n",
       "    Message('note_on', channel=1, note=38, velocity=110, time=2),\n",
       "    Message('note_on', channel=1, note=50, velocity=110, time=0),\n",
       "    Message('note_on', channel=1, note=38, velocity=0, time=94),\n",
       "    Message('note_on', channel=1, note=50, velocity=0, time=0),\n",
       "    Message('control_change', channel=1, control=64, value=0, time=2),\n",
       "    Message('control_change', channel=1, control=64, value=127, time=0),\n",
       "    Message('note_on', channel=1, note=31, velocity=110, time=0),\n",
       "    Message('note_on', channel=1, note=43, velocity=110, time=0),\n",
       "    Message('note_on', channel=1, note=31, velocity=0, time=160),\n",
       "    Message('note_on', channel=1, note=43, velocity=0, time=0),\n",
       "    Message('note_on', channel=1, note=31, velocity=110, time=32),\n",
       "    Message('note_on', channel=1, note=43, velocity=110, time=0),\n",
       "    Message('note_on', channel=1, note=31, velocity=0, time=94),\n",
       "    Message('note_on', channel=1, note=43, velocity=0, time=0),\n",
       "    Message('note_on', channel=1, note=31, velocity=110, time=2),\n",
       "    Message('note_on', channel=1, note=43, velocity=110, time=0),\n",
       "    Message('note_on', channel=1, note=31, velocity=0, time=94),\n",
       "    Message('note_on', channel=1, note=43, velocity=0, time=0),\n",
       "    Message('note_on', channel=1, note=31, velocity=110, time=2),\n",
       "    Message('note_on', channel=1, note=43, velocity=110, time=0),\n",
       "    Message('note_on', channel=1, note=31, velocity=0, time=94),\n",
       "    Message('note_on', channel=1, note=43, velocity=0, time=0),\n",
       "    Message('note_on', channel=1, note=31, velocity=110, time=2),\n",
       "    Message('note_on', channel=1, note=43, velocity=110, time=0),\n",
       "    Message('note_on', channel=1, note=31, velocity=0, time=94),\n",
       "    Message('note_on', channel=1, note=43, velocity=0, time=0),\n",
       "    Message('control_change', channel=1, control=64, value=0, time=2),\n",
       "    Message('control_change', channel=1, control=64, value=127, time=0),\n",
       "    Message('note_on', channel=1, note=33, velocity=110, time=0),\n",
       "    Message('note_on', channel=1, note=45, velocity=110, time=0),\n",
       "    Message('note_on', channel=1, note=33, velocity=0, time=160),\n",
       "    Message('note_on', channel=1, note=45, velocity=0, time=0),\n",
       "    Message('note_on', channel=1, note=33, velocity=110, time=32),\n",
       "    Message('note_on', channel=1, note=45, velocity=110, time=0),\n",
       "    Message('note_on', channel=1, note=33, velocity=0, time=94),\n",
       "    Message('note_on', channel=1, note=45, velocity=0, time=0),\n",
       "    Message('note_on', channel=1, note=33, velocity=110, time=2),\n",
       "    Message('note_on', channel=1, note=45, velocity=110, time=0),\n",
       "    Message('note_on', channel=1, note=33, velocity=0, time=94),\n",
       "    Message('note_on', channel=1, note=45, velocity=0, time=0),\n",
       "    Message('note_on', channel=1, note=33, velocity=110, time=2),\n",
       "    Message('note_on', channel=1, note=45, velocity=110, time=0),\n",
       "    Message('note_on', channel=1, note=33, velocity=0, time=94),\n",
       "    Message('note_on', channel=1, note=45, velocity=0, time=0),\n",
       "    Message('note_on', channel=1, note=33, velocity=110, time=2),\n",
       "    Message('note_on', channel=1, note=45, velocity=110, time=0),\n",
       "    Message('note_on', channel=1, note=33, velocity=0, time=94),\n",
       "    Message('note_on', channel=1, note=45, velocity=0, time=0),\n",
       "    Message('control_change', channel=1, control=64, value=0, time=2),\n",
       "    Message('control_change', channel=1, control=64, value=127, time=0),\n",
       "    Message('note_on', channel=1, note=33, velocity=110, time=0),\n",
       "    Message('note_on', channel=1, note=45, velocity=110, time=0),\n",
       "    Message('note_on', channel=1, note=33, velocity=0, time=160),\n",
       "    Message('note_on', channel=1, note=45, velocity=0, time=0),\n",
       "    Message('note_on', channel=1, note=33, velocity=110, time=32),\n",
       "    Message('note_on', channel=1, note=45, velocity=110, time=0),\n",
       "    Message('note_on', channel=1, note=33, velocity=0, time=94),\n",
       "    Message('note_on', channel=1, note=45, velocity=0, time=0),\n",
       "    Message('note_on', channel=1, note=33, velocity=110, time=2),\n",
       "    Message('note_on', channel=1, note=45, velocity=110, time=0),\n",
       "    Message('note_on', channel=1, note=33, velocity=0, time=94),\n",
       "    Message('note_on', channel=1, note=45, velocity=0, time=0),\n",
       "    Message('note_on', channel=1, note=33, velocity=110, time=2),\n",
       "    Message('note_on', channel=1, note=45, velocity=110, time=0),\n",
       "    Message('note_on', channel=1, note=33, velocity=0, time=94),\n",
       "    Message('note_on', channel=1, note=45, velocity=0, time=0),\n",
       "    Message('note_on', channel=1, note=33, velocity=110, time=2),\n",
       "    Message('note_on', channel=1, note=45, velocity=110, time=0),\n",
       "    Message('note_on', channel=1, note=33, velocity=0, time=94),\n",
       "    Message('note_on', channel=1, note=45, velocity=0, time=0),\n",
       "    Message('control_change', channel=1, control=64, value=0, time=2),\n",
       "    Message('control_change', channel=1, control=64, value=127, time=0),\n",
       "    Message('note_on', channel=1, note=38, velocity=110, time=0),\n",
       "    Message('note_on', channel=1, note=50, velocity=110, time=0),\n",
       "    Message('note_on', channel=1, note=38, velocity=0, time=160),\n",
       "    Message('note_on', channel=1, note=50, velocity=0, time=0),\n",
       "    Message('note_on', channel=1, note=38, velocity=110, time=32),\n",
       "    Message('note_on', channel=1, note=50, velocity=110, time=0),\n",
       "    Message('note_on', channel=1, note=38, velocity=0, time=94),\n",
       "    Message('note_on', channel=1, note=50, velocity=0, time=0),\n",
       "    Message('note_on', channel=1, note=38, velocity=110, time=2),\n",
       "    Message('note_on', channel=1, note=50, velocity=110, time=0),\n",
       "    Message('note_on', channel=1, note=38, velocity=0, time=94),\n",
       "    Message('note_on', channel=1, note=50, velocity=0, time=0),\n",
       "    Message('note_on', channel=1, note=38, velocity=110, time=2),\n",
       "    Message('note_on', channel=1, note=50, velocity=110, time=0),\n",
       "    Message('note_on', channel=1, note=38, velocity=0, time=94),\n",
       "    Message('note_on', channel=1, note=50, velocity=0, time=0),\n",
       "    Message('note_on', channel=1, note=38, velocity=110, time=2),\n",
       "    Message('note_on', channel=1, note=50, velocity=110, time=0),\n",
       "    Message('note_on', channel=1, note=38, velocity=0, time=94),\n",
       "    Message('note_on', channel=1, note=50, velocity=0, time=0),\n",
       "    Message('control_change', channel=1, control=64, value=0, time=2),\n",
       "    Message('control_change', channel=1, control=64, value=127, time=0),\n",
       "    Message('note_on', channel=1, note=31, velocity=110, time=0),\n",
       "    Message('note_on', channel=1, note=43, velocity=110, time=0),\n",
       "    Message('note_on', channel=1, note=31, velocity=0, time=160),\n",
       "    Message('note_on', channel=1, note=43, velocity=0, time=0),\n",
       "    Message('note_on', channel=1, note=31, velocity=110, time=32),\n",
       "    Message('note_on', channel=1, note=43, velocity=110, time=0),\n",
       "    Message('note_on', channel=1, note=31, velocity=0, time=94),\n",
       "    Message('note_on', channel=1, note=43, velocity=0, time=0),\n",
       "    Message('note_on', channel=1, note=31, velocity=110, time=2),\n",
       "    Message('note_on', channel=1, note=43, velocity=110, time=0),\n",
       "    Message('note_on', channel=1, note=31, velocity=0, time=94),\n",
       "    Message('note_on', channel=1, note=43, velocity=0, time=0),\n",
       "    Message('note_on', channel=1, note=31, velocity=110, time=2),\n",
       "    Message('note_on', channel=1, note=43, velocity=110, time=0),\n",
       "    Message('note_on', channel=1, note=31, velocity=0, time=94),\n",
       "    Message('note_on', channel=1, note=43, velocity=0, time=0),\n",
       "    Message('note_on', channel=1, note=31, velocity=110, time=2),\n",
       "    Message('note_on', channel=1, note=43, velocity=110, time=0),\n",
       "    Message('note_on', channel=1, note=31, velocity=0, time=94),\n",
       "    Message('note_on', channel=1, note=43, velocity=0, time=0),\n",
       "    Message('control_change', channel=1, control=64, value=0, time=2),\n",
       "    Message('control_change', channel=1, control=64, value=127, time=0),\n",
       "    Message('note_on', channel=1, note=41, velocity=110, time=0),\n",
       "    Message('note_on', channel=1, note=53, velocity=110, time=0),\n",
       "    Message('note_on', channel=1, note=41, velocity=0, time=160),\n",
       "    Message('note_on', channel=1, note=53, velocity=0, time=0),\n",
       "    Message('note_on', channel=1, note=41, velocity=110, time=32),\n",
       "    Message('note_on', channel=1, note=53, velocity=110, time=0),\n",
       "    Message('note_on', channel=1, note=41, velocity=0, time=94),\n",
       "    Message('note_on', channel=1, note=53, velocity=0, time=0),\n",
       "    Message('note_on', channel=1, note=41, velocity=110, time=2),\n",
       "    Message('note_on', channel=1, note=53, velocity=110, time=0),\n",
       "    Message('note_on', channel=1, note=41, velocity=0, time=160),\n",
       "    Message('note_on', channel=1, note=53, velocity=0, time=0),\n",
       "    Message('note_on', channel=1, note=41, velocity=110, time=32),\n",
       "    Message('note_on', channel=1, note=53, velocity=110, time=0),\n",
       "    Message('note_on', channel=1, note=41, velocity=0, time=94),\n",
       "    Message('note_on', channel=1, note=53, velocity=0, time=0),\n",
       "    Message('control_change', channel=1, control=64, value=0, time=2),\n",
       "    Message('control_change', channel=1, control=64, value=127, time=0),\n",
       "    Message('note_on', channel=1, note=36, velocity=110, time=0),\n",
       "    Message('note_on', channel=1, note=48, velocity=110, time=0),\n",
       "    Message('note_on', channel=1, note=36, velocity=0, time=160),\n",
       "    Message('note_on', channel=1, note=48, velocity=0, time=0),\n",
       "    Message('note_on', channel=1, note=36, velocity=110, time=32),\n",
       "    Message('note_on', channel=1, note=48, velocity=110, time=0),\n",
       "    Message('note_on', channel=1, note=36, velocity=0, time=94),\n",
       "    Message('note_on', channel=1, note=48, velocity=0, time=0),\n",
       "    Message('note_on', channel=1, note=36, velocity=110, time=2),\n",
       "    Message('note_on', channel=1, note=48, velocity=110, time=0),\n",
       "    Message('note_on', channel=1, note=36, velocity=0, time=94),\n",
       "    Message('note_on', channel=1, note=48, velocity=0, time=0),\n",
       "    Message('note_on', channel=1, note=36, velocity=110, time=2),\n",
       "    Message('note_on', channel=1, note=48, velocity=110, time=0),\n",
       "    Message('note_on', channel=1, note=36, velocity=0, time=94),\n",
       "    Message('note_on', channel=1, note=48, velocity=0, time=0),\n",
       "    Message('note_on', channel=1, note=36, velocity=110, time=2),\n",
       "    Message('note_on', channel=1, note=48, velocity=110, time=0),\n",
       "    Message('note_on', channel=1, note=36, velocity=0, time=94),\n",
       "    Message('note_on', channel=1, note=48, velocity=0, time=0),\n",
       "    Message('control_change', channel=1, control=64, value=0, time=2),\n",
       "    Message('control_change', channel=1, control=64, value=127, time=0),\n",
       "    Message('note_on', channel=1, note=31, velocity=110, time=0),\n",
       "    Message('note_on', channel=1, note=43, velocity=110, time=0),\n",
       "    Message('note_on', channel=1, note=31, velocity=0, time=160),\n",
       "    Message('note_on', channel=1, note=43, velocity=0, time=0),\n",
       "    Message('note_on', channel=1, note=31, velocity=110, time=32),\n",
       "    Message('note_on', channel=1, note=43, velocity=110, time=0),\n",
       "    Message('note_on', channel=1, note=31, velocity=0, time=94),\n",
       "    Message('note_on', channel=1, note=43, velocity=0, time=0),\n",
       "    Message('note_on', channel=1, note=31, velocity=110, time=2),\n",
       "    Message('note_on', channel=1, note=43, velocity=110, time=0),\n",
       "    Message('note_on', channel=1, note=31, velocity=0, time=94),\n",
       "    Message('note_on', channel=1, note=43, velocity=0, time=0),\n",
       "    Message('note_on', channel=1, note=31, velocity=110, time=2),\n",
       "    Message('note_on', channel=1, note=43, velocity=110, time=0),\n",
       "    Message('note_on', channel=1, note=31, velocity=0, time=94),\n",
       "    Message('note_on', channel=1, note=43, velocity=0, time=0),\n",
       "    Message('note_on', channel=1, note=31, velocity=110, time=2),\n",
       "    Message('note_on', channel=1, note=43, velocity=110, time=0),\n",
       "    Message('note_on', channel=1, note=31, velocity=0, time=94),\n",
       "    Message('note_on', channel=1, note=43, velocity=0, time=0),\n",
       "    Message('control_change', channel=1, control=64, value=0, time=2),\n",
       "    Message('control_change', channel=1, control=64, value=127, time=0),\n",
       "    Message('note_on', channel=1, note=33, velocity=110, time=0),\n",
       "    Message('note_on', channel=1, note=45, velocity=110, time=0),\n",
       "    Message('note_on', channel=1, note=33, velocity=0, time=160),\n",
       "    Message('note_on', channel=1, note=45, velocity=0, time=0),\n",
       "    Message('note_on', channel=1, note=33, velocity=110, time=32),\n",
       "    Message('note_on', channel=1, note=45, velocity=110, time=0),\n",
       "    Message('note_on', channel=1, note=33, velocity=0, time=94),\n",
       "    Message('note_on', channel=1, note=45, velocity=0, time=0),\n",
       "    Message('note_on', channel=1, note=33, velocity=110, time=2),\n",
       "    Message('note_on', channel=1, note=45, velocity=110, time=0),\n",
       "    Message('note_on', channel=1, note=33, velocity=0, time=94),\n",
       "    Message('note_on', channel=1, note=45, velocity=0, time=0),\n",
       "    Message('note_on', channel=1, note=33, velocity=110, time=2),\n",
       "    Message('note_on', channel=1, note=45, velocity=110, time=0),\n",
       "    Message('note_on', channel=1, note=33, velocity=0, time=94),\n",
       "    Message('note_on', channel=1, note=45, velocity=0, time=0),\n",
       "    Message('note_on', channel=1, note=33, velocity=110, time=2),\n",
       "    Message('note_on', channel=1, note=45, velocity=110, time=0),\n",
       "    Message('note_on', channel=1, note=33, velocity=0, time=94),\n",
       "    Message('note_on', channel=1, note=45, velocity=0, time=0),\n",
       "    Message('note_on', channel=1, note=33, velocity=110, time=2),\n",
       "    Message('note_on', channel=1, note=45, velocity=110, time=0),\n",
       "    Message('note_on', channel=1, note=33, velocity=0, time=160),\n",
       "    Message('note_on', channel=1, note=45, velocity=0, time=0),\n",
       "    Message('note_on', channel=1, note=33, velocity=110, time=32),\n",
       "    Message('note_on', channel=1, note=45, velocity=110, time=0),\n",
       "    Message('note_on', channel=1, note=33, velocity=0, time=94),\n",
       "    Message('note_on', channel=1, note=45, velocity=0, time=0),\n",
       "    Message('note_on', channel=1, note=33, velocity=110, time=2),\n",
       "    Message('note_on', channel=1, note=45, velocity=110, time=0),\n",
       "    Message('note_on', channel=1, note=33, velocity=0, time=94),\n",
       "    Message('note_on', channel=1, note=45, velocity=0, time=0),\n",
       "    Message('note_on', channel=1, note=33, velocity=110, time=2),\n",
       "    Message('note_on', channel=1, note=45, velocity=110, time=0),\n",
       "    Message('note_on', channel=1, note=33, velocity=0, time=94),\n",
       "    Message('note_on', channel=1, note=45, velocity=0, time=0),\n",
       "    Message('note_on', channel=1, note=33, velocity=110, time=2),\n",
       "    Message('note_on', channel=1, note=45, velocity=110, time=0),\n",
       "    Message('note_on', channel=1, note=33, velocity=0, time=94),\n",
       "    Message('note_on', channel=1, note=45, velocity=0, time=0),\n",
       "    Message('control_change', channel=1, control=64, value=0, time=2),\n",
       "    Message('control_change', channel=1, control=64, value=127, time=0),\n",
       "    Message('note_on', channel=1, note=38, velocity=110, time=0),\n",
       "    Message('note_on', channel=1, note=50, velocity=110, time=0),\n",
       "    Message('note_on', channel=1, note=38, velocity=0, time=160),\n",
       "    Message('note_on', channel=1, note=50, velocity=0, time=0),\n",
       "    Message('note_on', channel=1, note=38, velocity=110, time=32),\n",
       "    Message('note_on', channel=1, note=50, velocity=110, time=0),\n",
       "    Message('note_on', channel=1, note=38, velocity=0, time=94),\n",
       "    Message('note_on', channel=1, note=50, velocity=0, time=0),\n",
       "    Message('note_on', channel=1, note=38, velocity=110, time=2),\n",
       "    Message('note_on', channel=1, note=50, velocity=110, time=0),\n",
       "    Message('note_on', channel=1, note=38, velocity=0, time=94),\n",
       "    Message('note_on', channel=1, note=50, velocity=0, time=0),\n",
       "    Message('note_on', channel=1, note=38, velocity=110, time=2),\n",
       "    Message('note_on', channel=1, note=50, velocity=110, time=0),\n",
       "    Message('note_on', channel=1, note=38, velocity=0, time=94),\n",
       "    Message('note_on', channel=1, note=50, velocity=0, time=0),\n",
       "    Message('note_on', channel=1, note=38, velocity=110, time=2),\n",
       "    Message('note_on', channel=1, note=50, velocity=110, time=0),\n",
       "    Message('note_on', channel=1, note=38, velocity=0, time=94),\n",
       "    Message('note_on', channel=1, note=50, velocity=0, time=0),\n",
       "    Message('control_change', channel=1, control=64, value=0, time=2),\n",
       "    Message('control_change', channel=1, control=64, value=127, time=0),\n",
       "    Message('note_on', channel=1, note=38, velocity=110, time=0),\n",
       "    Message('note_on', channel=1, note=50, velocity=110, time=0),\n",
       "    Message('note_on', channel=1, note=38, velocity=0, time=160),\n",
       "    Message('note_on', channel=1, note=50, velocity=0, time=0),\n",
       "    Message('note_on', channel=1, note=38, velocity=110, time=32),\n",
       "    Message('note_on', channel=1, note=50, velocity=110, time=0),\n",
       "    Message('note_on', channel=1, note=38, velocity=0, time=94),\n",
       "    Message('note_on', channel=1, note=50, velocity=0, time=0),\n",
       "    Message('note_on', channel=1, note=38, velocity=110, time=2),\n",
       "    Message('note_on', channel=1, note=50, velocity=110, time=0),\n",
       "    Message('note_on', channel=1, note=38, velocity=0, time=94),\n",
       "    Message('note_on', channel=1, note=50, velocity=0, time=0),\n",
       "    Message('note_on', channel=1, note=38, velocity=110, time=2),\n",
       "    Message('note_on', channel=1, note=50, velocity=110, time=0),\n",
       "    Message('note_on', channel=1, note=38, velocity=0, time=94),\n",
       "    Message('note_on', channel=1, note=50, velocity=0, time=0),\n",
       "    Message('note_on', channel=1, note=38, velocity=110, time=2),\n",
       "    Message('note_on', channel=1, note=50, velocity=110, time=0),\n",
       "    Message('note_on', channel=1, note=38, velocity=0, time=94),\n",
       "    Message('note_on', channel=1, note=50, velocity=0, time=0),\n",
       "    Message('control_change', channel=1, control=64, value=0, time=2),\n",
       "    Message('control_change', channel=1, control=64, value=127, time=0),\n",
       "    Message('note_on', channel=1, note=34, velocity=110, time=0),\n",
       "    Message('note_on', channel=1, note=46, velocity=110, time=0),\n",
       "    Message('note_on', channel=1, note=34, velocity=0, time=160),\n",
       "    Message('note_on', channel=1, note=46, velocity=0, time=0),\n",
       "    Message('note_on', channel=1, note=34, velocity=110, time=32),\n",
       "    Message('note_on', channel=1, note=46, velocity=110, time=0),\n",
       "    Message('note_on', channel=1, note=34, velocity=0, time=94),\n",
       "    Message('note_on', channel=1, note=46, velocity=0, time=0),\n",
       "    Message('note_on', channel=1, note=34, velocity=110, time=2),\n",
       "    Message('note_on', channel=1, note=46, velocity=110, time=0),\n",
       "    Message('note_on', channel=1, note=34, velocity=0, time=94),\n",
       "    Message('note_on', channel=1, note=46, velocity=0, time=0),\n",
       "    Message('note_on', channel=1, note=34, velocity=110, time=2),\n",
       "    Message('note_on', channel=1, note=46, velocity=110, time=0),\n",
       "    Message('note_on', channel=1, note=34, velocity=0, time=94),\n",
       "    Message('note_on', channel=1, note=46, velocity=0, time=0),\n",
       "    Message('note_on', channel=1, note=34, velocity=110, time=2),\n",
       "    Message('note_on', channel=1, note=46, velocity=110, time=0),\n",
       "    Message('note_on', channel=1, note=34, velocity=0, time=94),\n",
       "    Message('note_on', channel=1, note=46, velocity=0, time=0),\n",
       "    Message('control_change', channel=1, control=64, value=0, time=2),\n",
       "    Message('control_change', channel=1, control=64, value=127, time=0),\n",
       "    Message('note_on', channel=1, note=41, velocity=110, time=0),\n",
       "    Message('note_on', channel=1, note=53, velocity=110, time=0),\n",
       "    Message('note_on', channel=1, note=41, velocity=0, time=160),\n",
       "    Message('note_on', channel=1, note=53, velocity=0, time=0),\n",
       "    Message('note_on', channel=1, note=41, velocity=110, time=32),\n",
       "    Message('note_on', channel=1, note=53, velocity=110, time=0),\n",
       "    Message('note_on', channel=1, note=41, velocity=0, time=94),\n",
       "    Message('note_on', channel=1, note=53, velocity=0, time=0),\n",
       "    Message('note_on', channel=1, note=41, velocity=110, time=2),\n",
       "    Message('note_on', channel=1, note=53, velocity=110, time=0),\n",
       "    Message('note_on', channel=1, note=41, velocity=0, time=94),\n",
       "    Message('note_on', channel=1, note=53, velocity=0, time=0),\n",
       "    Message('note_on', channel=1, note=41, velocity=110, time=2),\n",
       "    Message('note_on', channel=1, note=53, velocity=110, time=0),\n",
       "    Message('note_on', channel=1, note=41, velocity=0, time=94),\n",
       "    Message('note_on', channel=1, note=53, velocity=0, time=0),\n",
       "    Message('note_on', channel=1, note=41, velocity=110, time=2),\n",
       "    Message('note_on', channel=1, note=53, velocity=110, time=0),\n",
       "    Message('note_on', channel=1, note=41, velocity=0, time=94),\n",
       "    Message('note_on', channel=1, note=53, velocity=0, time=0),\n",
       "    Message('control_change', channel=1, control=64, value=0, time=2),\n",
       "    Message('control_change', channel=1, control=64, value=127, time=0),\n",
       "    Message('note_on', channel=1, note=36, velocity=110, time=0),\n",
       "    Message('note_on', channel=1, note=48, velocity=110, time=0),\n",
       "    Message('note_on', channel=1, note=36, velocity=0, time=160),\n",
       "    Message('note_on', channel=1, note=48, velocity=0, time=0),\n",
       "    Message('note_on', channel=1, note=36, velocity=110, time=32),\n",
       "    Message('note_on', channel=1, note=48, velocity=110, time=0),\n",
       "    Message('note_on', channel=1, note=36, velocity=0, time=94),\n",
       "    Message('note_on', channel=1, note=48, velocity=0, time=0),\n",
       "    Message('note_on', channel=1, note=36, velocity=110, time=2),\n",
       "    Message('note_on', channel=1, note=48, velocity=110, time=0),\n",
       "    Message('note_on', channel=1, note=36, velocity=0, time=94),\n",
       "    Message('note_on', channel=1, note=48, velocity=0, time=0),\n",
       "    Message('note_on', channel=1, note=36, velocity=110, time=2),\n",
       "    Message('note_on', channel=1, note=48, velocity=110, time=0),\n",
       "    Message('note_on', channel=1, note=36, velocity=0, time=94),\n",
       "    Message('note_on', channel=1, note=48, velocity=0, time=0),\n",
       "    Message('note_on', channel=1, note=36, velocity=110, time=2),\n",
       "    Message('note_on', channel=1, note=48, velocity=110, time=0),\n",
       "    Message('note_on', channel=1, note=36, velocity=0, time=94),\n",
       "    Message('note_on', channel=1, note=48, velocity=0, time=0),\n",
       "    Message('control_change', channel=1, control=64, value=0, time=2),\n",
       "    Message('control_change', channel=1, control=64, value=127, time=0),\n",
       "    Message('note_on', channel=1, note=31, velocity=110, time=0),\n",
       "    Message('note_on', channel=1, note=43, velocity=110, time=0),\n",
       "    Message('note_on', channel=1, note=31, velocity=0, time=160),\n",
       "    Message('note_on', channel=1, note=43, velocity=0, time=0),\n",
       "    Message('note_on', channel=1, note=31, velocity=110, time=32),\n",
       "    Message('note_on', channel=1, note=43, velocity=110, time=0),\n",
       "    Message('note_on', channel=1, note=31, velocity=0, time=94),\n",
       "    Message('note_on', channel=1, note=43, velocity=0, time=0),\n",
       "    Message('note_on', channel=1, note=31, velocity=110, time=2),\n",
       "    Message('note_on', channel=1, note=43, velocity=110, time=0),\n",
       "    Message('note_on', channel=1, note=31, velocity=0, time=94),\n",
       "    Message('note_on', channel=1, note=43, velocity=0, time=0),\n",
       "    Message('note_on', channel=1, note=31, velocity=110, time=2),\n",
       "    Message('note_on', channel=1, note=43, velocity=110, time=0),\n",
       "    Message('note_on', channel=1, note=31, velocity=0, time=94),\n",
       "    Message('note_on', channel=1, note=43, velocity=0, time=0),\n",
       "    Message('note_on', channel=1, note=31, velocity=110, time=2),\n",
       "    Message('note_on', channel=1, note=43, velocity=110, time=0),\n",
       "    Message('note_on', channel=1, note=31, velocity=0, time=94),\n",
       "    Message('note_on', channel=1, note=43, velocity=0, time=0),\n",
       "    Message('control_change', channel=1, control=64, value=0, time=2),\n",
       "    Message('control_change', channel=1, control=64, value=127, time=0),\n",
       "    Message('note_on', channel=1, note=33, velocity=110, time=0),\n",
       "    Message('note_on', channel=1, note=45, velocity=110, time=0),\n",
       "    Message('note_on', channel=1, note=33, velocity=0, time=160),\n",
       "    Message('note_on', channel=1, note=45, velocity=0, time=0),\n",
       "    Message('note_on', channel=1, note=33, velocity=110, time=32),\n",
       "    Message('note_on', channel=1, note=45, velocity=110, time=0),\n",
       "    Message('note_on', channel=1, note=33, velocity=0, time=94),\n",
       "    Message('note_on', channel=1, note=45, velocity=0, time=0),\n",
       "    Message('note_on', channel=1, note=33, velocity=110, time=2),\n",
       "    Message('note_on', channel=1, note=45, velocity=110, time=0),\n",
       "    Message('note_on', channel=1, note=33, velocity=0, time=94),\n",
       "    Message('note_on', channel=1, note=45, velocity=0, time=0),\n",
       "    Message('note_on', channel=1, note=33, velocity=110, time=2),\n",
       "    Message('note_on', channel=1, note=45, velocity=110, time=0),\n",
       "    Message('note_on', channel=1, note=33, velocity=0, time=94),\n",
       "    Message('note_on', channel=1, note=45, velocity=0, time=0),\n",
       "    Message('note_on', channel=1, note=33, velocity=110, time=2),\n",
       "    Message('note_on', channel=1, note=45, velocity=110, time=0),\n",
       "    Message('note_on', channel=1, note=33, velocity=0, time=94),\n",
       "    Message('note_on', channel=1, note=45, velocity=0, time=0),\n",
       "    Message('note_on', channel=1, note=33, velocity=110, time=2),\n",
       "    Message('note_on', channel=1, note=45, velocity=110, time=0),\n",
       "    Message('note_on', channel=1, note=33, velocity=0, time=160),\n",
       "    Message('note_on', channel=1, note=45, velocity=0, time=0),\n",
       "    Message('note_on', channel=1, note=33, velocity=110, time=32),\n",
       "    Message('note_on', channel=1, note=45, velocity=110, time=0),\n",
       "    Message('note_on', channel=1, note=33, velocity=0, time=94),\n",
       "    Message('note_on', channel=1, note=45, velocity=0, time=0),\n",
       "    Message('note_on', channel=1, note=33, velocity=110, time=2),\n",
       "    Message('note_on', channel=1, note=45, velocity=110, time=0),\n",
       "    Message('note_on', channel=1, note=33, velocity=0, time=94),\n",
       "    Message('note_on', channel=1, note=45, velocity=0, time=0),\n",
       "    Message('note_on', channel=1, note=33, velocity=110, time=2),\n",
       "    Message('note_on', channel=1, note=45, velocity=110, time=0),\n",
       "    Message('note_on', channel=1, note=33, velocity=0, time=94),\n",
       "    Message('note_on', channel=1, note=45, velocity=0, time=0),\n",
       "    Message('note_on', channel=1, note=33, velocity=110, time=2),\n",
       "    Message('note_on', channel=1, note=45, velocity=110, time=0),\n",
       "    Message('note_on', channel=1, note=33, velocity=0, time=94),\n",
       "    Message('note_on', channel=1, note=45, velocity=0, time=0),\n",
       "    Message('control_change', channel=1, control=64, value=0, time=2),\n",
       "    Message('control_change', channel=1, control=64, value=127, time=0),\n",
       "    Message('note_on', channel=1, note=38, velocity=110, time=0),\n",
       "    Message('note_on', channel=1, note=50, velocity=110, time=0),\n",
       "    Message('note_on', channel=1, note=38, velocity=0, time=256),\n",
       "    Message('note_on', channel=1, note=50, velocity=0, time=0),\n",
       "    Message('note_on', channel=1, note=38, velocity=110, time=32),\n",
       "    Message('note_on', channel=1, note=50, velocity=110, time=0),\n",
       "    Message('note_on', channel=1, note=38, velocity=0, time=94),\n",
       "    Message('note_on', channel=1, note=50, velocity=0, time=0),\n",
       "    Message('note_on', channel=1, note=38, velocity=110, time=2),\n",
       "    Message('note_on', channel=1, note=50, velocity=110, time=0),\n",
       "    Message('note_on', channel=1, note=38, velocity=0, time=94),\n",
       "    Message('note_on', channel=1, note=50, velocity=0, time=0),\n",
       "    Message('note_on', channel=1, note=38, velocity=110, time=2),\n",
       "    Message('note_on', channel=1, note=50, velocity=110, time=0),\n",
       "    Message('note_on', channel=1, note=38, velocity=0, time=94),\n",
       "    Message('note_on', channel=1, note=50, velocity=0, time=0),\n",
       "    Message('control_change', channel=1, control=64, value=0, time=2),\n",
       "    Message('control_change', channel=1, control=64, value=127, time=0),\n",
       "    Message('note_on', channel=1, note=26, velocity=110, time=0),\n",
       "    Message('note_on', channel=1, note=38, velocity=110, time=0),\n",
       "    Message('note_on', channel=1, note=26, velocity=0, time=720),\n",
       "    Message('note_on', channel=1, note=38, velocity=0, time=0),\n",
       "    MetaMessage('end_of_track', time=0)])\n",
       "])"
      ]
     },
     "execution_count": 5,
     "metadata": {},
     "output_type": "execute_result"
    }
   ],
   "source": [
    "mid"
   ]
  },
  {
   "cell_type": "code",
   "execution_count": 16,
   "id": "7b605303",
   "metadata": {
    "scrolled": false
   },
   "outputs": [],
   "source": [
    "def distribute_msg(mid_track):\n",
    "    track_dict = {}\n",
    "    \n",
    "    track_dict['MetaMessage'] = []\n",
    "    track_dict['Message'] = []\n",
    "    track_dict['ETC'] = []\n",
    "    \n",
    "    for msg in mid_track:\n",
    "        \n",
    "        if isinstance(msg, MetaMessage):\n",
    "            track_dict['MetaMessage'].append(msg)\n",
    "            \n",
    "        elif isinstance(msg, Message):\n",
    "            track_dict['Message'].append(msg)\n",
    "            \n",
    "        else:\n",
    "            track_dict['ETC'].append(msg)\n",
    "            \n",
    "    return track_dict"
   ]
  },
  {
   "cell_type": "code",
   "execution_count": 14,
   "id": "88bef79b",
   "metadata": {
    "scrolled": false
   },
   "outputs": [
    {
     "data": {
      "text/plain": [
       "MidiTrack([\n",
       "  MetaMessage('time_signature', numerator=4, denominator=4, clocks_per_click=24, notated_32nd_notes_per_beat=8, time=0),\n",
       "  MetaMessage('set_tempo', tempo=833333, time=0),\n",
       "  MetaMessage('set_tempo', tempo=857143, time=31800),\n",
       "  MetaMessage('set_tempo', tempo=882353, time=120),\n",
       "  MetaMessage('set_tempo', tempo=909091, time=120),\n",
       "  MetaMessage('set_tempo', tempo=937500, time=120),\n",
       "  MetaMessage('set_tempo', tempo=967742, time=120),\n",
       "  MetaMessage('set_tempo', tempo=1000000, time=120),\n",
       "  MetaMessage('set_tempo', tempo=1200000, time=120),\n",
       "  MetaMessage('set_tempo', tempo=1224490, time=120),\n",
       "  MetaMessage('set_tempo', tempo=833333, time=120),\n",
       "  MetaMessage('end_of_track', time=0)])"
      ]
     },
     "execution_count": 14,
     "metadata": {},
     "output_type": "execute_result"
    }
   ],
   "source": [
    "mid1.tracks[0]"
   ]
  },
  {
   "cell_type": "markdown",
   "id": "2594968a",
   "metadata": {},
   "source": [
    "#### 4. time // 이것을 어떻게 할 지 좀 더 고민\n",
    "- tick : mid.ticks_per_beat\n",
    "    - 1박자의 tick 수를 의미\n",
    "- tick_interval 을 의미\n",
    "- time = 0 ( interval = 0 )\n",
    "    - 이전 이벤트와 동시에 발생\n",
    "    - 동일한 시간에 기록"
   ]
  },
  {
   "cell_type": "code",
   "execution_count": 37,
   "id": "4148c3ff",
   "metadata": {},
   "outputs": [
    {
     "data": {
      "text/plain": [
       "MidiTrack([\n",
       "  MetaMessage('track_name', name=\"He's A Pirate\", time=0),\n",
       "  MetaMessage('text', text='By Written by Klaus Badelt', time=0),\n",
       "  MetaMessage('copyright', text='Arrangement © 2004 Cerullean Pictures ', time=0),\n",
       "  MetaMessage('copyright', text='Original Score © Walt Disney Pictures', time=0),\n",
       "  MetaMessage('text', text='Generated by NoteWorthy Composer', time=0),\n",
       "  MetaMessage('set_tempo', tempo=300000, time=0),\n",
       "  MetaMessage('key_signature', key='F', time=0),\n",
       "  MetaMessage('time_signature', numerator=6, denominator=8, clocks_per_click=24, notated_32nd_notes_per_beat=8, time=0),\n",
       "  MetaMessage('end_of_track', time=0)])"
      ]
     },
     "execution_count": 37,
     "metadata": {},
     "output_type": "execute_result"
    }
   ],
   "source": [
    "mid.tracks[0]"
   ]
  },
  {
   "cell_type": "code",
   "execution_count": 42,
   "id": "208a137b",
   "metadata": {
    "scrolled": false
   },
   "outputs": [
    {
     "data": {
      "text/plain": [
       "0.049999999999999996"
      ]
     },
     "execution_count": 42,
     "metadata": {},
     "output_type": "execute_result"
    }
   ],
   "source": [
    "\n",
    "mido.tick2second(mid.tracks[1][12].time,mid.ticks_per_beat, 300000)"
   ]
  },
  {
   "cell_type": "code",
   "execution_count": 63,
   "id": "d18410ee",
   "metadata": {},
   "outputs": [
    {
     "data": {
      "text/plain": [
       "'AA'"
      ]
     },
     "execution_count": 63,
     "metadata": {},
     "output_type": "execute_result"
    }
   ],
   "source": [
    "def initialize_meta_dict():\n",
    "    df_meta = {}\n",
    "    \n",
    "    ############################################\n",
    "    ##### default setting\n",
    "    ############################################\n",
    "    \n",
    "    df_meta['midi_port'] = 0\n",
    "    df_meta['set_tempo'] =  500000\n",
    "    \n",
    "    df_meta['smpte_offset'] = {}\n",
    "    df_meta['smpte_offset']['frame_rate'] = 24\n",
    "    df_meta['smpte_offset']['hours'] = 0\n",
    "    df_meta['smpte_offset']['minutes'] = 0\n",
    "    df_meta['smpte_offset']['seconds'] = 0\n",
    "    df_meta['smpte_offset']['frames'] = 0\n",
    "    df_meta['smpte_offset']['subframes'] = 0\n",
    "    \n",
    "    df_meta['time_signature'] = {}\n",
    "    df_meta['time_signature']['numerator'] = 4\n",
    "    df_meta['time_signature']['denominator'] = 4\n",
    "    df_meta['time_signature']['clocks_per_click'] = 24\n",
    "    df_meta['time_signature']['notated_32nd_notes_per_beat'] = 8\n",
    "    \n",
    "    df_meta['key_signature'] = \"C\"\n",
    "    \n",
    "    return df_meta\n",
    "\n",
    "a = initialize_meta_dict()\n",
    "a['key_signature'].replace(a['key_signature'], \"AA\")"
   ]
  },
  {
   "cell_type": "code",
   "execution_count": 65,
   "id": "f122f424",
   "metadata": {
    "scrolled": false
   },
   "outputs": [
    {
     "name": "stdout",
     "output_type": "stream",
     "text": [
      "Track 1: He's A Pirate\n",
      "{'midi_port': 0, 'set_tempo': 500000, 'smpte_offset': {'frame_rate': 24, 'hours': 0, 'minutes': 0, 'seconds': 0, 'frames': 0, 'subframes': 0}, 'time_signature': {'numerator': 4, 'denominator': 4, 'clocks_per_click': 24, 'notated_32nd_notes_per_beat': 8}, 'key_signature': 'C'}\n",
      "====================\n",
      "{'midi_port': 0, 'set_tempo': 300000, 'smpte_offset': {'frame_rate': 24, 'hours': 0, 'minutes': 0, 'seconds': 0, 'frames': 0, 'subframes': 0}, 'time_signature': {'numerator': 6, 'denominator': 8, 'clocks_per_click': 24, 'notated_32nd_notes_per_beat': 8}, 'key_signature': 'F'}\n"
     ]
    }
   ],
   "source": [
    "for idx, track in enumerate(mid.tracks):\n",
    "    print(f\"Track {idx + 1}: {track.name}\")\n",
    "    \n",
    "    track_dict = distribute_msg(track)\n",
    "    \n",
    "    ###########################################################\n",
    "    ########### 'MetaMessage'\n",
    "    ###########################################################\n",
    "    \n",
    "    df_meta = initialize_meta_dict()\n",
    "    \n",
    "    print(df_meta)\n",
    "    print(\"====================\")\n",
    "    if len(track_dict['MetaMessage'])>0:\n",
    "\n",
    "        \n",
    "        track_mtmsg = track_dict['MetaMessage']\n",
    "        \n",
    "        for mtmsg in track_dict['MetaMessage']:\n",
    "            if mtmsg.is_meta:\n",
    "                                \n",
    "                \n",
    "                if mtmsg.type == 'midi_port':\n",
    "                    df_meta[mtmsg.type] = mtmsg.port\n",
    "                    \n",
    "                elif mtmsg.type == 'set_tempo':\n",
    "                    df_meta[mtmsg.type] = mtmsg.tempo\n",
    "                    \n",
    "                elif mtmsg.type == 'smpte_offset':\n",
    "                    df_meta[mtmsg.type]['frame_rate'] = mtmsg.frame_rate\n",
    "                    df_meta[mtmsg.type]['hours'] = mtmsg.hours\n",
    "                    df_meta[mtmsg.type]['minutes'] = mtmsg.minutes\n",
    "                    df_meta[mtmsg.type]['seconds'] = mtmsg.seconds\n",
    "                    df_meta[mtmsg.type]['frames'] = mtmsg.frames\n",
    "                    df_meta[mtmsg.type]['subframes'] = mtmsg.subframes\n",
    "                    \n",
    "                elif mtmsg.type == 'time_signature':\n",
    "                    df_meta[mtmsg.type]['numerator'] = mtmsg.numerator\n",
    "                    df_meta[mtmsg.type]['denominator'] = mtmsg.denominator\n",
    "                    df_meta[mtmsg.type]['clocks_per_click'] = mtmsg.clocks_per_click\n",
    "                    df_meta[mtmsg.type]['notated_32nd_notes_per_beat'] = mtmsg.notated_32nd_notes_per_beat\n",
    "                    \n",
    "                elif mtmsg.type == 'key_signature':\n",
    "                    df_meta[mtmsg.type] = mtmsg.key\n",
    "              \n",
    "            # 템포가 여러개일 경우\n",
    "            # 코드 정리\n",
    "            # 비교 알고리즘\n",
    "        \n",
    "    "
   ]
  },
  {
   "cell_type": "code",
   "execution_count": 3,
   "id": "7d1518a9",
   "metadata": {},
   "outputs": [],
   "source": [
    "file_name1 = \"Prelude1.mid\"\n",
    "file_path1 = os.path.join(\"midi_data\", file_name1)\n",
    "\n",
    "mid1 = MidiFile(file_path1)"
   ]
  },
  {
   "cell_type": "code",
   "execution_count": 230,
   "id": "ab0cd575",
   "metadata": {
    "scrolled": false
   },
   "outputs": [],
   "source": [
    "def initialize_note_ticks():\n",
    "    tick_type = []\n",
    "    tick_note = []\n",
    "    tick_chan = []\n",
    "    tick_velo = []\n",
    "    \n",
    "    return tick_type, tick_note, tick_chan, tick_velo\n",
    "\n",
    "def initialize_ctl_ticks():\n",
    "    tick_chan = []\n",
    "    tick_ctl  = []\n",
    "    tick_val  = []\n",
    "    \n",
    "    return tick_chan, tick_ctl, tick_val\n",
    "\n",
    "def initialize_prog_ticks():\n",
    "    tick_chan = []\n",
    "    tick_prog  = []\n",
    "    \n",
    "    return tick_chan, tick_prog"
   ]
  },
  {
   "cell_type": "code",
   "execution_count": 15,
   "id": "9da6efbc",
   "metadata": {},
   "outputs": [
    {
     "name": "stdout",
     "output_type": "stream",
     "text": [
      "Track 1: He's A Pirate\n"
     ]
    },
    {
     "ename": "NameError",
     "evalue": "name 'distribute_msg' is not defined",
     "output_type": "error",
     "traceback": [
      "\u001b[1;31m---------------------------------------------------------------------------\u001b[0m",
      "\u001b[1;31mNameError\u001b[0m                                 Traceback (most recent call last)",
      "\u001b[1;32mC:\\Users\\Public\\Documents\\ESTsoft\\CreatorTemp\\ipykernel_54932\\1541543120.py\u001b[0m in \u001b[0;36m<module>\u001b[1;34m\u001b[0m\n\u001b[0;32m      2\u001b[0m     \u001b[0mprint\u001b[0m\u001b[1;33m(\u001b[0m\u001b[1;34mf\"Track {idx + 1}: {track.name}\"\u001b[0m\u001b[1;33m)\u001b[0m\u001b[1;33m\u001b[0m\u001b[1;33m\u001b[0m\u001b[0m\n\u001b[0;32m      3\u001b[0m \u001b[1;33m\u001b[0m\u001b[0m\n\u001b[1;32m----> 4\u001b[1;33m     \u001b[0mtrack_dict\u001b[0m \u001b[1;33m=\u001b[0m \u001b[0mdistribute_msg\u001b[0m\u001b[1;33m(\u001b[0m\u001b[0mtrack\u001b[0m\u001b[1;33m)\u001b[0m\u001b[1;33m\u001b[0m\u001b[1;33m\u001b[0m\u001b[0m\n\u001b[0m\u001b[0;32m      5\u001b[0m \u001b[1;33m\u001b[0m\u001b[0m\n\u001b[0;32m      6\u001b[0m     \u001b[1;31m###########################################################\u001b[0m\u001b[1;33m\u001b[0m\u001b[1;33m\u001b[0m\u001b[1;33m\u001b[0m\u001b[0m\n",
      "\u001b[1;31mNameError\u001b[0m: name 'distribute_msg' is not defined"
     ]
    }
   ],
   "source": [
    "for idx, track in enumerate(mid.tracks):\n",
    "    print(f\"Track {idx + 1}: {track.name}\")\n",
    "    \n",
    "    track_dict = distribute_msg(track)\n",
    "    \n",
    "    ###########################################################\n",
    "    ########### 'MetaMessage'\n",
    "    ###########################################################\n",
    "    \n",
    "    if len(track_dict['Message'])==0:\n",
    "        \n",
    "        continue;\n",
    "    \n",
    "    \n",
    "    ###########################################################\n",
    "    ########### 'Message'\n",
    "    ###########################################################\n",
    "\n",
    "    track_msg = track_dict['Message']\n",
    "    \n",
    "    df_note_col = {'tick', 'count', 'msg_type', 'msg_note', 'msg_velocity', 'msg_channel'}\n",
    "    df_note = pd.DataFrame(columns = df_note_col)\n",
    "    \n",
    "    df_control_col = {'tick', 'count','channel', 'control', 'value'}\n",
    "    df_ctl = pd.DataFrame(columns = df_control_col)\n",
    "    \n",
    "    df_program_col = {'tick', 'count', 'channel', 'program'}\n",
    "    df_prog = pd.DataFrame(columns = df_program_col)\n",
    "    \n",
    "    \n",
    "    note_idx = 0\n",
    "    note_cur_time = 0\n",
    "    note_start = True\n",
    "    note_tick_type, note_tick_note, note_tick_chan, note_tick_velo = initialize_note_ticks()\n",
    "    \n",
    "    ctl_idx = 0\n",
    "    ctl_cur_time = 0\n",
    "    ctl_start = True\n",
    "    ctl_tick_chan, ctl_tick_ctl, ctl_tick_val = initialize_ctl_ticks()\n",
    "    \n",
    "    prog_idx = 0\n",
    "    prog_cur_time = 0\n",
    "    prog_start = True\n",
    "    prog_tick_chan, prog_tick_prog = initialize_prog_ticks()\n",
    "    \n",
    "    \n",
    "    for msg in track_msg:\n",
    "        \n",
    "        # note off : note_on and velocity == 0\n",
    "        if msg.type == 'note_on' and msg.velocity == 0:\n",
    "            msg_typ = 'note_off'\n",
    "        else:\n",
    "            msg_typ = msg.type\n",
    "            \n",
    "        \n",
    "        if msg.type == 'note_on' or msg.type == 'note_off':\n",
    "            if msg.time > 0 :\n",
    "                \n",
    "                if note_start == True:\n",
    "                    note_cur_time = msg.time + note_cur_time\n",
    "                    note_start = False;\n",
    "            \n",
    "                else:\n",
    "                    note_cur_time = msg.time + note_cur_time\n",
    "                    note_idx+=1\n",
    "            \n",
    "                    df_note.loc[note_idx, \"tick\"] = note_cur_time\n",
    "                    df_note.loc[note_idx, \"count\"] = len(note_tick_note)\n",
    "                    df_note.loc[note_idx, \"msg_type\"] = note_tick_type\n",
    "                    df_note.loc[note_idx, \"msg_note\"] = note_tick_note\n",
    "                    df_note.loc[note_idx, \"msg_velocity\"] = note_tick_velo\n",
    "                    df_note.loc[note_idx, \"msg_channel\"] = note_tick_chan\n",
    "            \n",
    "                    note_tick_type, note_tick_note, note_tick_chan, note_tick_velo = initialize_note_ticks()\n",
    "            \n",
    "            note_tick_type.append(msg_typ)\n",
    "            note_tick_note.append(msg.note)\n",
    "            note_tick_chan.append(msg.channel)\n",
    "            note_tick_velo.append(msg.velocity)\n",
    "            \n",
    "        if msg.type == 'control_change':\n",
    "            \n",
    "            if msg.time > 0:\n",
    "                \n",
    "                if ctl_start == True:\n",
    "                    ctl_cur_time = msg.time + ctl_cur_time\n",
    "                    ctl_start = False;\n",
    "                    \n",
    "                else:\n",
    "                    ctl_cur_time = msg.time + ctl_cur_time\n",
    "                    ctl_idx +=1\n",
    "                \n",
    "                    df_ctl.loc[ctl_idx, \"tick\"] = ctl_cur_time\n",
    "                    df_ctl.loc[ctl_idx, \"count\"] = len(ctl_tick_ctl)\n",
    "                    df_ctl.loc[ctl_idx, \"channel\"] = ctl_tick_chan\n",
    "                    df_ctl.loc[ctl_idx, \"control\"] = ctl_tick_ctl\n",
    "                    df_ctl.loc[ctl_idx, \"value\"] = ctl_tick_val\n",
    "                \n",
    "                    ctl_tick_chan, ctl_tick_ctl, ctl_tick_val = initialize_ctl_ticks()\n",
    "        \n",
    "            ctl_tick_chan.append(msg.channel)\n",
    "            ctl_tick_ctl.append(msg.control)\n",
    "            ctl_tick_val.append(msg.value)\n",
    "            \n",
    "        if msg.type == 'program_change':\n",
    "            \n",
    "            if msg.time > 0:\n",
    "                if prog_start == True:\n",
    "                    prog_cur_time = msg.time + prog_cur_time\n",
    "                    prog_start = False;\n",
    "                    \n",
    "                else:\n",
    "                    prog_cur_time = msg.time + prog_cur_time\n",
    "                    prog_idx +=1\n",
    "                \n",
    "                    df_prog.loc[prog_idx, \"tick\"] = prog_cur_time\n",
    "                    df_prog.loc[prog_idx, \"count\"] = len(prog_tick_prog)\n",
    "                    df_prog.loc[prog_idx, \"channel\"] = prog_tick_chan\n",
    "                    df_prog.loc[prog_idx, \"program\"] = prog_tick_prog\n",
    "                \n",
    "                    prog_tick_chan, prog_tick_prog = initialize_prog_ticks()\n",
    "        \n",
    "            prog_tick_chan.append(msg.channel)\n",
    "            prog_tick_prog.append(msg.program)\n",
    "         \n",
    "        #############################################################\n",
    "        ############ 마지막 과정\n",
    "        #############################################################\n",
    "    if len(note_tick_note) > 0:\n",
    "        note_cur_time = msg.time + note_cur_time\n",
    "        note_idx+=1\n",
    "            \n",
    "        df_note.loc[note_idx, \"tick\"] = note_cur_time\n",
    "        df_note.loc[note_idx, \"count\"] = len(note_tick_note)\n",
    "        df_note.loc[note_idx, \"msg_type\"] = note_tick_type\n",
    "        df_note.loc[note_idx, \"msg_note\"] = note_tick_note\n",
    "        df_note.loc[note_idx, \"msg_velocity\"] = note_tick_velo\n",
    "        df_note.loc[note_idx, \"msg_channel\"] = note_tick_chan\n",
    "            \n",
    "    if len(ctl_tick_ctl):\n",
    "        ctl_cur_time = msg.time + ctl_cur_time\n",
    "        ctl_idx +=1\n",
    "                \n",
    "        df_ctl.loc[ctl_idx, \"tick\"] = ctl_cur_time\n",
    "        df_ctl.loc[ctl_idx, \"count\"] = len(ctl_tick_ctl)\n",
    "        df_ctl.loc[ctl_idx, \"channel\"] = ctl_tick_chan\n",
    "        df_ctl.loc[ctl_idx, \"control\"] = ctl_tick_ctl\n",
    "        df_ctl.loc[ctl_idx, \"value\"] = ctl_tick_val\n",
    "            \n",
    "    if len(prog_tick_prog):\n",
    "        prog_cur_time = msg.time + prog_cur_time\n",
    "        prog_idx +=1\n",
    "                \n",
    "        df_prog.loc[prog_idx, \"tick\"] = prog_cur_time\n",
    "        df_prog.loc[prog_idx, \"count\"] = len(prog_tick_prog)\n",
    "        df_prog.loc[prog_idx, \"channel\"] = prog_tick_chan\n",
    "        df_prog.loc[prog_idx, \"program\"] = prog_tick_prog\n",
    "            \n",
    "        \n",
    "    print(note_cur_time)\n",
    "    display(df_note)\n",
    "    print('---------------------')\n",
    "    display(df_ctl)\n",
    "    print('---------------------')\n",
    "    display(df_prog)\n",
    "    print(\"==========================\")\n",
    "                        \n"
   ]
  },
  {
   "cell_type": "code",
   "execution_count": 1,
   "id": "202603e6",
   "metadata": {},
   "outputs": [
    {
     "ename": "NameError",
     "evalue": "name 'mid' is not defined",
     "output_type": "error",
     "traceback": [
      "\u001b[1;31m---------------------------------------------------------------------------\u001b[0m",
      "\u001b[1;31mNameError\u001b[0m                                 Traceback (most recent call last)",
      "\u001b[1;32mC:\\Users\\Public\\Documents\\ESTsoft\\CreatorTemp\\ipykernel_47632\\2135354771.py\u001b[0m in \u001b[0;36m<module>\u001b[1;34m\u001b[0m\n\u001b[1;32m----> 1\u001b[1;33m \u001b[0mmid\u001b[0m\u001b[1;33m\u001b[0m\u001b[1;33m\u001b[0m\u001b[0m\n\u001b[0m",
      "\u001b[1;31mNameError\u001b[0m: name 'mid' is not defined"
     ]
    }
   ],
   "source": [
    "def extract_note(mid_msg):\n",
    "    \n",
    "    df_note_col = {'tick', 'count', 'msg_type', 'msg_note', 'msg_velocity', 'msg_channel'}\n",
    "    df_note = pd.DataFrame(columns = df_note_col)\n",
    "    \n",
    "    note_idx = 0\n",
    "    note_cur_time = 0\n",
    "    note_start = True\n",
    "    note_tick_type, note_tick_note, note_tick_chan, note_tick_velo = initialize_note_ticks()\n",
    "    \n",
    "    def initialize_note_ticks():\n",
    "        tick_type = []\n",
    "        tick_note = []\n",
    "        tick_chan = []\n",
    "        tick_velo = []\n",
    "    \n",
    "        return tick_type, tick_note, tick_chan, tick_velo\n",
    "    \n",
    "    def insert_note_data():\n",
    "        note_idx+=1\n",
    "            \n",
    "        df_note.loc[note_idx, \"tick\"] = note_cur_time\n",
    "        df_note.loc[note_idx, \"count\"] = len(note_tick_note)\n",
    "        df_note.loc[note_idx, \"msg_type\"] = note_tick_type\n",
    "        df_note.loc[note_idx, \"msg_note\"] = note_tick_note\n",
    "        df_note.loc[note_idx, \"msg_velocity\"] = note_tick_velo\n",
    "        df_note.loc[note_idx, \"msg_channel\"] = note_tick_chan\n",
    "            \n",
    "        note_tick_type, note_tick_note, note_tick_chan, note_tick_velo = initialize_note_ticks()\n",
    "    \n",
    "    \n",
    "    for msg in mid_msg:\n",
    "        \n",
    "        print(msg)\n",
    "        if msg.type == 'note_on' and msg.velocity == 0:\n",
    "            msg_typ = 'note_off'\n",
    "        else:\n",
    "            msg_typ = msg.type\n",
    "            \n",
    "        \n",
    "        if msg.type == 'note_on':\n",
    "            \n",
    "            if msg.time > 0:\n",
    "                \n",
    "                if note_start == True:\n",
    "                    note_start = False\n",
    "                    \n",
    "                else:\n",
    "                    insert_note_data()\n",
    "                \n",
    "                note_cur_time = msg.time + note_cur_time\n",
    "            \n",
    "            \n",
    "            note_tick_type.append(msg_typ)\n",
    "            note_tick_note.append(msg.note)\n",
    "            note_tick_chan.append(msg.channel)\n",
    "            note_tick_velo.append(msg.velocity)\n",
    "        \n",
    "        else if msg.type == 'note_off':\n",
    "            \n",
    "        \n",
    "    if len(note_tick_note) > 0:\n",
    "        note_cur_time = msg.time + note_cur_time\n",
    "        note_idx+=1\n",
    "            \n",
    "        df_note.loc[note_idx, \"tick\"] = note_cur_time\n",
    "        df_note.loc[note_idx, \"count\"] = len(note_tick_note)\n",
    "        df_note.loc[note_idx, \"msg_type\"] = note_tick_type\n",
    "        df_note.loc[note_idx, \"msg_note\"] = note_tick_note\n",
    "        df_note.loc[note_idx, \"msg_velocity\"] = note_tick_velo\n",
    "        df_note.loc[note_idx, \"msg_channel\"] = note_tick_chan\n",
    "    display(df_note)"
   ]
  },
  {
   "cell_type": "code",
   "execution_count": null,
   "id": "e2ec6320",
   "metadata": {},
   "outputs": [],
   "source": []
  },
  {
   "cell_type": "code",
   "execution_count": 32,
   "id": "1ea6a3b1",
   "metadata": {
    "scrolled": false
   },
   "outputs": [
    {
     "name": "stdout",
     "output_type": "stream",
     "text": [
      "{'MetaMessage': [345]}\n"
     ]
    }
   ],
   "source": [
    "track_dict = {}\n",
    "track_dict['MetaMessage'] = []\n",
    "track_dict['MetaMessage'].append(345)\n",
    "\n",
    "print(track_dict)"
   ]
  },
  {
   "cell_type": "code",
   "execution_count": 18,
   "id": "815e7a8c",
   "metadata": {
    "scrolled": false
   },
   "outputs": [
    {
     "name": "stdout",
     "output_type": "stream",
     "text": [
      "Track 1: He's A Pirate\n",
      "Track 2: Right Hand\n",
      "Track 3: Left Hand\n"
     ]
    }
   ],
   "source": [
    "for idx, track in enumerate(mid.tracks):\n",
    "    print(f\"Track {i + 1}: {track.name}\")\n",
    "    \n",
    "    for m"
   ]
  },
  {
   "cell_type": "code",
   "execution_count": 9,
   "id": "2b485202",
   "metadata": {
    "scrolled": false
   },
   "outputs": [
    {
     "data": {
      "text/plain": [
       "MidiTrack([\n",
       "  MetaMessage('track_name', name=\"He's A Pirate\", time=0),\n",
       "  MetaMessage('text', text='By Written by Klaus Badelt', time=0),\n",
       "  MetaMessage('copyright', text='Arrangement © 2004 Cerullean Pictures ', time=0),\n",
       "  MetaMessage('copyright', text='Original Score © Walt Disney Pictures', time=0),\n",
       "  MetaMessage('text', text='Generated by NoteWorthy Composer', time=0),\n",
       "  MetaMessage('set_tempo', tempo=300000, time=0),\n",
       "  MetaMessage('key_signature', key='F', time=0),\n",
       "  MetaMessage('time_signature', numerator=6, denominator=8, clocks_per_click=24, notated_32nd_notes_per_beat=8, time=0),\n",
       "  MetaMessage('end_of_track', time=0)])"
      ]
     },
     "execution_count": 9,
     "metadata": {},
     "output_type": "execute_result"
    }
   ],
   "source": [
    "mid.tracks[0]"
   ]
  },
  {
   "cell_type": "code",
   "execution_count": 73,
   "id": "dc8d15c5",
   "metadata": {
    "scrolled": false
   },
   "outputs": [
    {
     "data": {
      "text/plain": [
       "1285"
      ]
     },
     "execution_count": 73,
     "metadata": {},
     "output_type": "execute_result"
    }
   ],
   "source": [
    "len(mid.tracks[1])"
   ]
  },
  {
   "cell_type": "code",
   "execution_count": null,
   "id": "f3d73ee3",
   "metadata": {
    "scrolled": false
   },
   "outputs": [],
   "source": []
  },
  {
   "cell_type": "code",
   "execution_count": 14,
   "id": "763ea6da",
   "metadata": {
    "scrolled": true
   },
   "outputs": [
    {
     "name": "stdout",
     "output_type": "stream",
     "text": [
      "MidiFile(type=1, ticks_per_beat=120, tracks=[\n",
      "  MidiTrack([\n",
      "    MetaMessage('sequencer_specific', data=(0, 0, 65), time=0),\n",
      "    MetaMessage('track_name', name='JESU        ', time=0),\n",
      "    MetaMessage('key_signature', key='G', time=0),\n",
      "    MetaMessage('midi_port', port=0, time=0),\n",
      "    MetaMessage('time_signature', numerator=9, denominator=8, clocks_per_click=24, notated_32nd_notes_per_beat=8, time=0),\n",
      "    MetaMessage('set_tempo', tempo=500000, time=38340),\n",
      "    MetaMessage('end_of_track', time=0)]),\n",
      "  MidiTrack([\n",
      "    MetaMessage('track_name', name=\"Jesu, Joy of Man's\", time=0),\n",
      "    MetaMessage('instrument_name', name='Synths Strings 1', time=0),\n",
      "    MetaMessage('midi_port', port=0, time=0),\n",
      "    Message('control_change', channel=0, control=0, value=80, time=0),\n",
      "    Message('control_change', channel=0, control=32, value=0, time=0),\n",
      "    Message('program_change', channel=0, program=50, time=0),\n",
      "    Message('note_on', channel=0, note=67, velocity=104, time=60),\n",
      "    Message('note_on', channel=0, note=67, velocity=0, time=48),\n",
      "    Message('note_on', channel=0, note=69, velocity=104, time=12),\n",
      "    Message('note_on', channel=0, note=69, velocity=0, time=48),\n",
      "    Message('note_on', channel=0, note=71, velocity=104, time=12),\n",
      "    Message('note_on', channel=0, note=71, velocity=0, time=48),\n",
      "    Message('note_on', channel=0, note=74, velocity=104, time=12),\n",
      "    Message('note_on', channel=0, note=74, velocity=0, time=48),\n",
      "    Message('note_on', channel=0, note=72, velocity=104, time=12),\n",
      "    Message('note_on', channel=0, note=72, velocity=0, time=48),\n",
      "    Message('note_on', channel=0, note=72, velocity=104, time=12),\n",
      "    Message('note_on', channel=0, note=72, velocity=0, time=48),\n",
      "    Message('note_on', channel=0, note=76, velocity=104, time=12),\n",
      "    Message('note_on', channel=0, note=76, velocity=0, time=48),\n",
      "    Message('note_on', channel=0, note=74, velocity=104, time=12),\n",
      "    Message('note_on', channel=0, note=74, velocity=0, time=48),\n",
      "    Message('note_on', channel=0, note=74, velocity=104, time=12),\n",
      "    Message('note_on', channel=0, note=74, velocity=0, time=48),\n",
      "    Message('note_on', channel=0, note=79, velocity=104, time=12),\n",
      "    Message('note_on', channel=0, note=79, velocity=0, time=48),\n",
      "    Message('note_on', channel=0, note=78, velocity=104, time=12),\n",
      "    Message('note_on', channel=0, note=78, velocity=0, time=48),\n",
      "    Message('note_on', channel=0, note=79, velocity=104, time=12),\n",
      "    Message('note_on', channel=0, note=79, velocity=0, time=48),\n",
      "    Message('note_on', channel=0, note=74, velocity=104, time=12),\n",
      "    Message('note_on', channel=0, note=74, velocity=0, time=48),\n",
      "    Message('note_on', channel=0, note=71, velocity=104, time=12),\n",
      "    Message('note_on', channel=0, note=71, velocity=0, time=48),\n",
      "    Message('note_on', channel=0, note=67, velocity=104, time=12),\n",
      "    Message('note_on', channel=0, note=67, velocity=0, time=48),\n",
      "    Message('note_on', channel=0, note=69, velocity=104, time=12),\n",
      "    Message('note_on', channel=0, note=69, velocity=0, time=48),\n",
      "    Message('note_on', channel=0, note=71, velocity=104, time=12),\n",
      "    Message('note_on', channel=0, note=71, velocity=0, time=48),\n",
      "    Message('note_on', channel=0, note=72, velocity=104, time=12),\n",
      "    Message('note_on', channel=0, note=72, velocity=0, time=48),\n",
      "    Message('note_on', channel=0, note=74, velocity=104, time=12),\n",
      "    Message('note_on', channel=0, note=74, velocity=0, time=48),\n",
      "    Message('note_on', channel=0, note=76, velocity=104, time=12),\n",
      "    Message('note_on', channel=0, note=76, velocity=0, time=48),\n",
      "    Message('note_on', channel=0, note=74, velocity=104, time=12),\n",
      "    Message('note_on', channel=0, note=74, velocity=0, time=48),\n",
      "    Message('note_on', channel=0, note=72, velocity=104, time=12),\n",
      "    Message('note_on', channel=0, note=72, velocity=0, time=48),\n",
      "    Message('note_on', channel=0, note=71, velocity=104, time=12),\n",
      "    Message('note_on', channel=0, note=71, velocity=0, time=48),\n",
      "    Message('note_on', channel=0, note=69, velocity=104, time=12),\n",
      "    Message('note_on', channel=0, note=69, velocity=0, time=48),\n",
      "    Message('note_on', channel=0, note=71, velocity=104, time=12),\n",
      "    Message('note_on', channel=0, note=71, velocity=0, time=48),\n",
      "    Message('note_on', channel=0, note=67, velocity=104, time=12),\n",
      "    Message('note_on', channel=0, note=67, velocity=0, time=48),\n",
      "    Message('note_on', channel=0, note=66, velocity=104, time=12),\n",
      "    Message('note_on', channel=0, note=66, velocity=0, time=48),\n",
      "    Message('note_on', channel=0, note=67, velocity=104, time=12),\n",
      "    Message('note_on', channel=0, note=67, velocity=0, time=48),\n",
      "    Message('note_on', channel=0, note=69, velocity=104, time=12),\n",
      "    Message('note_on', channel=0, note=69, velocity=0, time=48),\n",
      "    Message('note_on', channel=0, note=62, velocity=104, time=12),\n",
      "    Message('note_on', channel=0, note=62, velocity=0, time=48),\n",
      "    Message('note_on', channel=0, note=66, velocity=104, time=12),\n",
      "    Message('note_on', channel=0, note=66, velocity=0, time=48),\n",
      "    Message('note_on', channel=0, note=69, velocity=104, time=12),\n",
      "    Message('note_on', channel=0, note=69, velocity=0, time=48),\n",
      "    Message('note_on', channel=0, note=72, velocity=104, time=12),\n",
      "    Message('note_on', channel=0, note=72, velocity=0, time=48),\n",
      "    Message('note_on', channel=0, note=71, velocity=104, time=12),\n",
      "    Message('note_on', channel=0, note=71, velocity=0, time=48),\n",
      "    Message('note_on', channel=0, note=69, velocity=104, time=12),\n",
      "    Message('note_on', channel=0, note=69, velocity=0, time=48),\n",
      "    Message('note_on', channel=0, note=71, velocity=104, time=12),\n",
      "    Message('note_on', channel=0, note=71, velocity=0, time=48),\n",
      "    Message('note_on', channel=0, note=67, velocity=104, time=12),\n",
      "    Message('note_on', channel=0, note=67, velocity=0, time=48),\n",
      "    Message('note_on', channel=0, note=69, velocity=104, time=12),\n",
      "    Message('note_on', channel=0, note=69, velocity=0, time=48),\n",
      "    Message('note_on', channel=0, note=71, velocity=104, time=12),\n",
      "    Message('note_on', channel=0, note=71, velocity=0, time=48),\n",
      "    Message('note_on', channel=0, note=74, velocity=104, time=12),\n",
      "    Message('note_on', channel=0, note=74, velocity=0, time=48),\n",
      "    Message('note_on', channel=0, note=72, velocity=104, time=12),\n",
      "    Message('note_on', channel=0, note=72, velocity=0, time=48),\n",
      "    Message('note_on', channel=0, note=72, velocity=104, time=12),\n",
      "    Message('note_on', channel=0, note=72, velocity=0, time=48),\n",
      "    Message('note_on', channel=0, note=76, velocity=104, time=12),\n",
      "    Message('note_on', channel=0, note=76, velocity=0, time=48),\n",
      "    Message('note_on', channel=0, note=74, velocity=104, time=12),\n",
      "    Message('note_on', channel=0, note=74, velocity=0, time=48),\n",
      "    Message('note_on', channel=0, note=74, velocity=104, time=12),\n",
      "    Message('note_on', channel=0, note=74, velocity=0, time=48),\n",
      "    Message('note_on', channel=0, note=79, velocity=104, time=12),\n",
      "    Message('note_on', channel=0, note=79, velocity=0, time=48),\n",
      "    Message('note_on', channel=0, note=78, velocity=104, time=12),\n",
      "    Message('note_on', channel=0, note=78, velocity=0, time=48),\n",
      "    Message('note_on', channel=0, note=79, velocity=104, time=12),\n",
      "    Message('note_on', channel=0, note=79, velocity=0, time=48),\n",
      "    Message('note_on', channel=0, note=74, velocity=104, time=12),\n",
      "    Message('note_on', channel=0, note=74, velocity=0, time=48),\n",
      "    Message('note_on', channel=0, note=71, velocity=104, time=12),\n",
      "    Message('note_on', channel=0, note=71, velocity=0, time=48),\n",
      "    Message('note_on', channel=0, note=67, velocity=104, time=12),\n",
      "    Message('note_on', channel=0, note=67, velocity=0, time=48),\n",
      "    Message('note_on', channel=0, note=69, velocity=104, time=12),\n",
      "    Message('note_on', channel=0, note=69, velocity=0, time=48),\n",
      "    Message('note_on', channel=0, note=71, velocity=104, time=12),\n",
      "    Message('note_on', channel=0, note=71, velocity=0, time=48),\n",
      "    Message('note_on', channel=0, note=64, velocity=104, time=12),\n",
      "    Message('note_on', channel=0, note=64, velocity=0, time=48),\n",
      "    Message('note_on', channel=0, note=74, velocity=104, time=12),\n",
      "    Message('note_on', channel=0, note=74, velocity=0, time=48),\n",
      "    Message('note_on', channel=0, note=72, velocity=104, time=12),\n",
      "    Message('note_on', channel=0, note=72, velocity=0, time=48),\n",
      "    Message('note_on', channel=0, note=71, velocity=104, time=12),\n",
      "    Message('note_on', channel=0, note=71, velocity=0, time=48),\n",
      "    Message('note_on', channel=0, note=69, velocity=104, time=12),\n",
      "    Message('note_on', channel=0, note=69, velocity=0, time=48),\n",
      "    Message('note_on', channel=0, note=67, velocity=104, time=12),\n",
      "    Message('note_on', channel=0, note=67, velocity=0, time=48),\n",
      "    Message('note_on', channel=0, note=62, velocity=104, time=12),\n",
      "    Message('note_on', channel=0, note=62, velocity=0, time=48),\n",
      "    Message('note_on', channel=0, note=67, velocity=104, time=12),\n",
      "    Message('note_on', channel=0, note=67, velocity=0, time=48),\n",
      "    Message('note_on', channel=0, note=66, velocity=104, time=12),\n",
      "    Message('note_on', channel=0, note=66, velocity=0, time=48),\n",
      "    Message('note_on', channel=0, note=67, velocity=104, time=12),\n",
      "    Message('note_on', channel=0, note=67, velocity=0, time=48),\n",
      "    Message('note_on', channel=0, note=71, velocity=104, time=12),\n",
      "    Message('note_on', channel=0, note=71, velocity=0, time=48),\n",
      "    Message('note_on', channel=0, note=74, velocity=104, time=12),\n",
      "    Message('note_on', channel=0, note=74, velocity=0, time=48),\n",
      "    Message('note_on', channel=0, note=79, velocity=104, time=12),\n",
      "    Message('note_on', channel=0, note=79, velocity=0, time=48),\n",
      "    Message('note_on', channel=0, note=74, velocity=104, time=12),\n",
      "    Message('note_on', channel=0, note=74, velocity=0, time=48),\n",
      "    Message('note_on', channel=0, note=71, velocity=104, time=12),\n",
      "    Message('note_on', channel=0, note=71, velocity=0, time=48),\n",
      "    Message('note_on', channel=0, note=67, velocity=104, time=12),\n",
      "    Message('note_on', channel=0, note=67, velocity=0, time=48),\n",
      "    Message('note_on', channel=0, note=71, velocity=104, time=12),\n",
      "    Message('note_on', channel=0, note=71, velocity=0, time=48),\n",
      "    Message('note_on', channel=0, note=74, velocity=104, time=12),\n",
      "    Message('note_on', channel=0, note=74, velocity=0, time=48),\n",
      "    Message('note_on', channel=0, note=62, velocity=104, time=12),\n",
      "    Message('note_on', channel=0, note=71, velocity=104, time=0),\n",
      "    Message('note_on', channel=0, note=67, velocity=104, time=0),\n",
      "    Message('note_on', channel=0, note=62, velocity=0, time=336),\n",
      "    Message('note_on', channel=0, note=71, velocity=0, time=0),\n",
      "    Message('note_on', channel=0, note=67, velocity=0, time=0),\n",
      "    Message('note_on', channel=0, note=64, velocity=104, time=24),\n",
      "    Message('note_on', channel=0, note=67, velocity=104, time=0),\n",
      "    Message('note_on', channel=0, note=60, velocity=104, time=0),\n",
      "    Message('note_on', channel=0, note=72, velocity=104, time=0),\n",
      "    Message('note_on', channel=0, note=64, velocity=0, time=168),\n",
      "    Message('note_on', channel=0, note=67, velocity=0, time=0),\n",
      "    Message('note_on', channel=0, note=60, velocity=0, time=0),\n",
      "    Message('note_on', channel=0, note=72, velocity=0, time=0),\n",
      "    Message('note_on', channel=0, note=74, velocity=104, time=12),\n",
      "    Message('note_on', channel=0, note=74, velocity=0, time=336),\n",
      "    Message('note_on', channel=0, note=66, velocity=104, time=24),\n",
      "    Message('note_on', channel=0, note=71, velocity=104, time=0),\n",
      "    Message('note_on', channel=0, note=74, velocity=104, time=0),\n",
      "    Message('note_on', channel=0, note=62, velocity=104, time=0),\n",
      "    Message('note_on', channel=0, note=66, velocity=0, time=168),\n",
      "    Message('note_on', channel=0, note=71, velocity=0, time=0),\n",
      "    Message('note_on', channel=0, note=74, velocity=0, time=0),\n",
      "    Message('note_on', channel=0, note=62, velocity=0, time=0),\n",
      "    Message('note_on', channel=0, note=72, velocity=104, time=12),\n",
      "    Message('note_on', channel=0, note=72, velocity=0, time=336),\n",
      "    Message('note_on', channel=0, note=67, velocity=104, time=24),\n",
      "    Message('note_on', channel=0, note=62, velocity=104, time=0),\n",
      "    Message('note_on', channel=0, note=71, velocity=104, time=0),\n",
      "    Message('note_on', channel=0, note=67, velocity=0, time=168),\n",
      "    Message('note_on', channel=0, note=62, velocity=0, time=0),\n",
      "    Message('note_on', channel=0, note=71, velocity=0, time=0),\n",
      "    Message('note_on', channel=0, note=66, velocity=104, time=12),\n",
      "    Message('note_on', channel=0, note=69, velocity=104, time=0),\n",
      "    Message('note_on', channel=0, note=66, velocity=0, time=48),\n",
      "    Message('note_on', channel=0, note=69, velocity=0, time=0),\n",
      "    Message('note_on', channel=0, note=62, velocity=104, time=12),\n",
      "    Message('note_on', channel=0, note=62, velocity=0, time=48),\n",
      "    Message('note_on', channel=0, note=64, velocity=104, time=12),\n",
      "    Message('note_on', channel=0, note=64, velocity=0, time=48),\n",
      "    Message('note_on', channel=0, note=66, velocity=104, time=12),\n",
      "    Message('note_on', channel=0, note=69, velocity=104, time=0),\n",
      "    Message('note_on', channel=0, note=66, velocity=0, time=48),\n",
      "    Message('note_on', channel=0, note=69, velocity=0, time=0),\n",
      "    Message('note_on', channel=0, note=69, velocity=104, time=12),\n",
      "    Message('note_on', channel=0, note=69, velocity=0, time=48),\n",
      "    Message('note_on', channel=0, note=67, velocity=104, time=12),\n",
      "    Message('note_on', channel=0, note=67, velocity=0, time=48),\n",
      "    Message('note_on', channel=0, note=69, velocity=104, time=12),\n",
      "    Message('note_on', channel=0, note=69, velocity=0, time=48),\n",
      "    Message('note_on', channel=0, note=72, velocity=104, time=12),\n",
      "    Message('note_on', channel=0, note=72, velocity=0, time=48),\n",
      "    Message('note_on', channel=0, note=71, velocity=104, time=12),\n",
      "    Message('note_on', channel=0, note=71, velocity=0, time=48),\n",
      "    Message('note_on', channel=0, note=72, velocity=104, time=12),\n",
      "    Message('note_on', channel=0, note=72, velocity=0, time=48),\n",
      "    Message('note_on', channel=0, note=69, velocity=104, time=12),\n",
      "    Message('note_on', channel=0, note=69, velocity=0, time=48),\n",
      "    Message('note_on', channel=0, note=66, velocity=104, time=12),\n",
      "    Message('note_on', channel=0, note=66, velocity=0, time=48),\n",
      "    Message('note_on', channel=0, note=62, velocity=104, time=12),\n",
      "    Message('note_on', channel=0, note=62, velocity=0, time=48),\n",
      "    Message('note_on', channel=0, note=66, velocity=104, time=12),\n",
      "    Message('note_on', channel=0, note=66, velocity=0, time=48),\n",
      "    Message('note_on', channel=0, note=69, velocity=104, time=12),\n",
      "    Message('note_on', channel=0, note=69, velocity=0, time=48),\n",
      "    Message('note_on', channel=0, note=72, velocity=104, time=12),\n",
      "    Message('note_on', channel=0, note=72, velocity=0, time=48),\n",
      "    Message('note_on', channel=0, note=71, velocity=104, time=12),\n",
      "    Message('note_on', channel=0, note=71, velocity=0, time=48),\n",
      "    Message('note_on', channel=0, note=69, velocity=104, time=12),\n",
      "    Message('note_on', channel=0, note=69, velocity=0, time=48),\n",
      "    Message('note_on', channel=0, note=67, velocity=104, time=12),\n",
      "    Message('note_on', channel=0, note=71, velocity=104, time=0),\n",
      "    Message('note_on', channel=0, note=67, velocity=0, time=336),\n",
      "    Message('note_on', channel=0, note=71, velocity=0, time=0),\n",
      "    Message('note_on', channel=0, note=64, velocity=104, time=24),\n",
      "    Message('note_on', channel=0, note=72, velocity=104, time=0),\n",
      "    Message('note_on', channel=0, note=67, velocity=104, time=0),\n",
      "    Message('note_on', channel=0, note=60, velocity=104, time=0),\n",
      "    Message('note_on', channel=0, note=64, velocity=0, time=168),\n",
      "    Message('note_on', channel=0, note=72, velocity=0, time=0),\n",
      "    Message('note_on', channel=0, note=67, velocity=0, time=0),\n",
      "    Message('note_on', channel=0, note=60, velocity=0, time=0),\n",
      "    Message('note_on', channel=0, note=67, velocity=104, time=12),\n",
      "    Message('note_on', channel=0, note=62, velocity=104, time=0),\n",
      "    Message('note_on', channel=0, note=74, velocity=104, time=0),\n",
      "    Message('note_on', channel=0, note=67, velocity=0, time=336),\n",
      "    Message('note_on', channel=0, note=62, velocity=0, time=0),\n",
      "    Message('note_on', channel=0, note=74, velocity=0, time=0),\n",
      "    Message('note_on', channel=0, note=67, velocity=104, time=24),\n",
      "    Message('note_on', channel=0, note=64, velocity=104, time=0),\n",
      "    Message('note_on', channel=0, note=71, velocity=104, time=0),\n",
      "    Message('note_on', channel=0, note=67, velocity=0, time=168),\n",
      "    Message('note_on', channel=0, note=64, velocity=0, time=0),\n",
      "    Message('note_on', channel=0, note=71, velocity=0, time=0),\n",
      "    Message('note_on', channel=0, note=69, velocity=63, time=12),\n",
      "    Message('note_on', channel=0, note=69, velocity=0, time=116),\n",
      "    Message('note_on', channel=0, note=71, velocity=74, time=4),\n",
      "    Message('note_on', channel=0, note=72, velocity=68, time=30),\n",
      "    Message('note_on', channel=0, note=71, velocity=0, time=14),\n",
      "    Message('note_on', channel=0, note=71, velocity=65, time=16),\n",
      "    Message('note_on', channel=0, note=66, velocity=67, time=0),\n",
      "    Message('note_on', channel=0, note=62, velocity=55, time=0),\n",
      "    Message('note_on', channel=0, note=72, velocity=0, time=14),\n",
      "    Message('note_on', channel=0, note=66, velocity=55, time=166),\n",
      "    Message('note_on', channel=0, note=60, velocity=46, time=0),\n",
      "    Message('note_on', channel=0, note=69, velocity=45, time=0),\n",
      "    Message('note_on', channel=0, note=71, velocity=0, time=8),\n",
      "    Message('note_on', channel=0, note=66, velocity=0, time=0),\n",
      "    Message('note_on', channel=0, note=62, velocity=0, time=0),\n",
      "    Message('note_on', channel=0, note=67, velocity=104, time=172),\n",
      "    Message('note_on', channel=0, note=66, velocity=0, time=8),\n",
      "    Message('note_on', channel=0, note=60, velocity=0, time=0),\n",
      "    Message('note_on', channel=0, note=69, velocity=0, time=0),\n",
      "    Message('note_on', channel=0, note=67, velocity=0, time=40),\n",
      "    Message('note_on', channel=0, note=71, velocity=104, time=12),\n",
      "    Message('note_on', channel=0, note=71, velocity=0, time=48),\n",
      "    Message('note_on', channel=0, note=69, velocity=104, time=12),\n",
      "    Message('note_on', channel=0, note=69, velocity=0, time=48),\n",
      "    Message('note_on', channel=0, note=71, velocity=104, time=12),\n",
      "    Message('note_on', channel=0, note=71, velocity=0, time=48),\n",
      "    Message('note_on', channel=0, note=74, velocity=104, time=12),\n",
      "    Message('note_on', channel=0, note=74, velocity=0, time=48),\n",
      "    Message('note_on', channel=0, note=72, velocity=104, time=12),\n",
      "    Message('note_on', channel=0, note=72, velocity=0, time=48),\n",
      "    Message('note_on', channel=0, note=72, velocity=104, time=12),\n",
      "    Message('note_on', channel=0, note=72, velocity=0, time=48),\n",
      "    Message('note_on', channel=0, note=76, velocity=104, time=12),\n",
      "    Message('note_on', channel=0, note=76, velocity=0, time=48),\n",
      "    Message('note_on', channel=0, note=74, velocity=104, time=12),\n",
      "    Message('note_on', channel=0, note=74, velocity=0, time=48),\n",
      "    Message('note_on', channel=0, note=74, velocity=104, time=12),\n",
      "    Message('note_on', channel=0, note=74, velocity=0, time=48),\n",
      "    Message('note_on', channel=0, note=79, velocity=104, time=12),\n",
      "    Message('note_on', channel=0, note=79, velocity=0, time=48),\n",
      "    Message('note_on', channel=0, note=78, velocity=104, time=12),\n",
      "    Message('note_on', channel=0, note=78, velocity=0, time=48),\n",
      "    Message('note_on', channel=0, note=79, velocity=104, time=12),\n",
      "    Message('note_on', channel=0, note=79, velocity=0, time=48),\n",
      "    Message('note_on', channel=0, note=74, velocity=104, time=12),\n",
      "    Message('note_on', channel=0, note=74, velocity=0, time=48),\n",
      "    Message('note_on', channel=0, note=71, velocity=104, time=12),\n",
      "    Message('note_on', channel=0, note=71, velocity=0, time=48),\n",
      "    Message('note_on', channel=0, note=67, velocity=104, time=12),\n",
      "    Message('note_on', channel=0, note=67, velocity=0, time=48),\n",
      "    Message('note_on', channel=0, note=69, velocity=104, time=12),\n",
      "    Message('note_on', channel=0, note=69, velocity=0, time=48),\n",
      "    Message('note_on', channel=0, note=71, velocity=104, time=12),\n",
      "    Message('note_on', channel=0, note=71, velocity=0, time=48),\n",
      "    Message('note_on', channel=0, note=72, velocity=104, time=12),\n",
      "    Message('note_on', channel=0, note=72, velocity=0, time=48),\n",
      "    Message('note_on', channel=0, note=74, velocity=104, time=12),\n",
      "    Message('note_on', channel=0, note=74, velocity=0, time=48),\n",
      "    Message('note_on', channel=0, note=76, velocity=104, time=12),\n",
      "    Message('note_on', channel=0, note=76, velocity=0, time=48),\n",
      "    Message('note_on', channel=0, note=74, velocity=104, time=12),\n",
      "    Message('note_on', channel=0, note=74, velocity=0, time=48),\n",
      "    Message('note_on', channel=0, note=72, velocity=104, time=12),\n",
      "    Message('note_on', channel=0, note=72, velocity=0, time=48),\n",
      "    Message('note_on', channel=0, note=71, velocity=104, time=12),\n",
      "    Message('note_on', channel=0, note=71, velocity=0, time=48),\n",
      "    Message('note_on', channel=0, note=69, velocity=104, time=12),\n",
      "    Message('note_on', channel=0, note=69, velocity=0, time=48),\n",
      "    Message('note_on', channel=0, note=71, velocity=104, time=12),\n",
      "    Message('note_on', channel=0, note=71, velocity=0, time=48),\n",
      "    Message('note_on', channel=0, note=67, velocity=104, time=12),\n",
      "    Message('note_on', channel=0, note=67, velocity=0, time=48),\n",
      "    Message('note_on', channel=0, note=66, velocity=104, time=12),\n",
      "    Message('note_on', channel=0, note=66, velocity=0, time=48),\n",
      "    Message('note_on', channel=0, note=67, velocity=104, time=12),\n",
      "    Message('note_on', channel=0, note=67, velocity=0, time=48),\n",
      "    Message('note_on', channel=0, note=69, velocity=104, time=12),\n",
      "    Message('note_on', channel=0, note=69, velocity=0, time=48),\n",
      "    Message('note_on', channel=0, note=62, velocity=104, time=12),\n",
      "    Message('note_on', channel=0, note=62, velocity=0, time=48),\n",
      "    Message('note_on', channel=0, note=66, velocity=104, time=12),\n",
      "    Message('note_on', channel=0, note=66, velocity=0, time=48),\n",
      "    Message('note_on', channel=0, note=69, velocity=104, time=12),\n",
      "    Message('note_on', channel=0, note=69, velocity=0, time=48),\n",
      "    Message('note_on', channel=0, note=72, velocity=104, time=12),\n",
      "    Message('note_on', channel=0, note=72, velocity=0, time=48),\n",
      "    Message('note_on', channel=0, note=71, velocity=104, time=12),\n",
      "    Message('note_on', channel=0, note=71, velocity=0, time=48),\n",
      "    Message('note_on', channel=0, note=69, velocity=104, time=12),\n",
      "    Message('note_on', channel=0, note=69, velocity=0, time=48),\n",
      "    Message('note_on', channel=0, note=71, velocity=104, time=12),\n",
      "    Message('note_on', channel=0, note=71, velocity=0, time=48),\n",
      "    Message('note_on', channel=0, note=67, velocity=104, time=12),\n",
      "    Message('note_on', channel=0, note=67, velocity=0, time=48),\n",
      "    Message('note_on', channel=0, note=69, velocity=104, time=12),\n",
      "    Message('note_on', channel=0, note=69, velocity=0, time=48),\n",
      "    Message('note_on', channel=0, note=71, velocity=104, time=12),\n",
      "    Message('note_on', channel=0, note=71, velocity=0, time=48),\n",
      "    Message('note_on', channel=0, note=74, velocity=104, time=12),\n",
      "    Message('note_on', channel=0, note=74, velocity=0, time=48),\n",
      "    Message('note_on', channel=0, note=72, velocity=104, time=12),\n",
      "    Message('note_on', channel=0, note=72, velocity=0, time=48),\n",
      "    Message('note_on', channel=0, note=72, velocity=104, time=12),\n",
      "    Message('note_on', channel=0, note=72, velocity=0, time=48),\n",
      "    Message('note_on', channel=0, note=76, velocity=104, time=12),\n",
      "    Message('note_on', channel=0, note=76, velocity=0, time=48),\n",
      "    Message('note_on', channel=0, note=74, velocity=104, time=12),\n",
      "    Message('note_on', channel=0, note=74, velocity=0, time=48),\n",
      "    Message('note_on', channel=0, note=74, velocity=104, time=12),\n",
      "    Message('note_on', channel=0, note=74, velocity=0, time=48),\n",
      "    Message('note_on', channel=0, note=79, velocity=104, time=12),\n",
      "    Message('note_on', channel=0, note=79, velocity=0, time=48),\n",
      "    Message('note_on', channel=0, note=78, velocity=104, time=12),\n",
      "    Message('note_on', channel=0, note=78, velocity=0, time=48),\n",
      "    Message('note_on', channel=0, note=79, velocity=104, time=12),\n",
      "    Message('note_on', channel=0, note=79, velocity=0, time=48),\n",
      "    Message('note_on', channel=0, note=74, velocity=104, time=12),\n",
      "    Message('note_on', channel=0, note=74, velocity=0, time=48),\n",
      "    Message('note_on', channel=0, note=71, velocity=104, time=12),\n",
      "    Message('note_on', channel=0, note=71, velocity=0, time=48),\n",
      "    Message('note_on', channel=0, note=67, velocity=104, time=12),\n",
      "    Message('note_on', channel=0, note=67, velocity=0, time=48),\n",
      "    Message('note_on', channel=0, note=69, velocity=104, time=12),\n",
      "    Message('note_on', channel=0, note=69, velocity=0, time=48),\n",
      "    Message('note_on', channel=0, note=71, velocity=104, time=12),\n",
      "    Message('note_on', channel=0, note=71, velocity=0, time=48),\n",
      "    Message('note_on', channel=0, note=64, velocity=104, time=12),\n",
      "    Message('note_on', channel=0, note=64, velocity=0, time=48),\n",
      "    Message('note_on', channel=0, note=74, velocity=104, time=12),\n",
      "    Message('note_on', channel=0, note=74, velocity=0, time=48),\n",
      "    Message('note_on', channel=0, note=72, velocity=104, time=12),\n",
      "    Message('note_on', channel=0, note=72, velocity=0, time=48),\n",
      "    Message('note_on', channel=0, note=71, velocity=104, time=12),\n",
      "    Message('note_on', channel=0, note=71, velocity=0, time=48),\n",
      "    Message('note_on', channel=0, note=69, velocity=104, time=12),\n",
      "    Message('note_on', channel=0, note=69, velocity=0, time=48),\n",
      "    Message('note_on', channel=0, note=67, velocity=104, time=12),\n",
      "    Message('note_on', channel=0, note=67, velocity=0, time=48),\n",
      "    Message('note_on', channel=0, note=62, velocity=104, time=12),\n",
      "    Message('note_on', channel=0, note=62, velocity=0, time=48),\n",
      "    Message('note_on', channel=0, note=67, velocity=104, time=12),\n",
      "    Message('note_on', channel=0, note=67, velocity=0, time=48),\n",
      "    Message('note_on', channel=0, note=66, velocity=104, time=12),\n",
      "    Message('note_on', channel=0, note=66, velocity=0, time=48),\n",
      "    Message('note_on', channel=0, note=67, velocity=104, time=12),\n",
      "    Message('note_on', channel=0, note=71, velocity=104, time=0),\n",
      "    Message('note_on', channel=0, note=67, velocity=0, time=336),\n",
      "    Message('note_on', channel=0, note=71, velocity=0, time=0),\n",
      "    Message('note_on', channel=0, note=64, velocity=104, time=24),\n",
      "    Message('note_on', channel=0, note=60, velocity=104, time=0),\n",
      "    Message('note_on', channel=0, note=67, velocity=104, time=0),\n",
      "    Message('note_on', channel=0, note=72, velocity=104, time=0),\n",
      "    Message('note_on', channel=0, note=64, velocity=0, time=168),\n",
      "    Message('note_on', channel=0, note=60, velocity=0, time=0),\n",
      "    Message('note_on', channel=0, note=67, velocity=0, time=0),\n",
      "    Message('note_on', channel=0, note=72, velocity=0, time=0),\n",
      "    Message('note_on', channel=0, note=74, velocity=104, time=12),\n",
      "    Message('note_on', channel=0, note=74, velocity=0, time=336),\n",
      "    Message('note_on', channel=0, note=66, velocity=104, time=24),\n",
      "    Message('note_on', channel=0, note=71, velocity=104, time=0),\n",
      "    Message('note_on', channel=0, note=74, velocity=104, time=0),\n",
      "    Message('note_on', channel=0, note=62, velocity=104, time=0),\n",
      "    Message('note_on', channel=0, note=66, velocity=0, time=168),\n",
      "    Message('note_on', channel=0, note=71, velocity=0, time=0),\n",
      "    Message('note_on', channel=0, note=74, velocity=0, time=0),\n",
      "    Message('note_on', channel=0, note=62, velocity=0, time=0),\n",
      "    Message('note_on', channel=0, note=72, velocity=104, time=12),\n",
      "    Message('note_on', channel=0, note=72, velocity=0, time=336),\n",
      "    Message('note_on', channel=0, note=67, velocity=104, time=24),\n",
      "    Message('note_on', channel=0, note=62, velocity=104, time=0),\n",
      "    Message('note_on', channel=0, note=71, velocity=104, time=0),\n",
      "    Message('note_on', channel=0, note=67, velocity=0, time=168),\n",
      "    Message('note_on', channel=0, note=62, velocity=0, time=0),\n",
      "    Message('note_on', channel=0, note=71, velocity=0, time=0),\n",
      "    Message('note_on', channel=0, note=66, velocity=104, time=12),\n",
      "    Message('note_on', channel=0, note=69, velocity=104, time=0),\n",
      "    Message('note_on', channel=0, note=66, velocity=0, time=48),\n",
      "    Message('note_on', channel=0, note=69, velocity=0, time=0),\n",
      "    Message('note_on', channel=0, note=62, velocity=104, time=12),\n",
      "    Message('note_on', channel=0, note=62, velocity=0, time=48),\n",
      "    Message('note_on', channel=0, note=64, velocity=104, time=12),\n",
      "    Message('note_on', channel=0, note=64, velocity=0, time=48),\n",
      "    Message('note_on', channel=0, note=66, velocity=104, time=12),\n",
      "    Message('note_on', channel=0, note=69, velocity=104, time=0),\n",
      "    Message('note_on', channel=0, note=66, velocity=0, time=48),\n",
      "    Message('note_on', channel=0, note=69, velocity=0, time=0),\n",
      "    Message('note_on', channel=0, note=69, velocity=104, time=12),\n",
      "    Message('note_on', channel=0, note=69, velocity=0, time=48),\n",
      "    Message('note_on', channel=0, note=67, velocity=104, time=12),\n",
      "    Message('note_on', channel=0, note=67, velocity=0, time=48),\n",
      "    Message('note_on', channel=0, note=69, velocity=104, time=12),\n",
      "    Message('note_on', channel=0, note=69, velocity=0, time=48),\n",
      "    Message('note_on', channel=0, note=72, velocity=104, time=12),\n",
      "    Message('note_on', channel=0, note=72, velocity=0, time=48),\n",
      "    Message('note_on', channel=0, note=71, velocity=104, time=12),\n",
      "    Message('note_on', channel=0, note=71, velocity=0, time=48),\n",
      "    Message('note_on', channel=0, note=72, velocity=104, time=12),\n",
      "    Message('note_on', channel=0, note=72, velocity=0, time=48),\n",
      "    Message('note_on', channel=0, note=69, velocity=104, time=12),\n",
      "    Message('note_on', channel=0, note=69, velocity=0, time=48),\n",
      "    Message('note_on', channel=0, note=66, velocity=104, time=12),\n",
      "    Message('note_on', channel=0, note=66, velocity=0, time=48),\n",
      "    Message('note_on', channel=0, note=62, velocity=104, time=12),\n",
      "    Message('note_on', channel=0, note=62, velocity=0, time=48),\n",
      "    Message('note_on', channel=0, note=66, velocity=104, time=12),\n",
      "    Message('note_on', channel=0, note=66, velocity=0, time=48),\n",
      "    Message('note_on', channel=0, note=69, velocity=104, time=12),\n",
      "    Message('note_on', channel=0, note=69, velocity=0, time=48),\n",
      "    Message('note_on', channel=0, note=72, velocity=104, time=12),\n",
      "    Message('note_on', channel=0, note=72, velocity=0, time=48),\n",
      "    Message('note_on', channel=0, note=71, velocity=104, time=12),\n",
      "    Message('note_on', channel=0, note=71, velocity=0, time=48),\n",
      "    Message('note_on', channel=0, note=69, velocity=104, time=12),\n",
      "    Message('note_on', channel=0, note=69, velocity=0, time=48),\n",
      "    Message('note_on', channel=0, note=71, velocity=104, time=12),\n",
      "    Message('note_on', channel=0, note=67, velocity=104, time=0),\n",
      "    Message('note_on', channel=0, note=71, velocity=0, time=336),\n",
      "    Message('note_on', channel=0, note=67, velocity=0, time=0),\n",
      "    Message('note_on', channel=0, note=64, velocity=104, time=24),\n",
      "    Message('note_on', channel=0, note=60, velocity=104, time=0),\n",
      "    Message('note_on', channel=0, note=67, velocity=104, time=0),\n",
      "    Message('note_on', channel=0, note=72, velocity=104, time=0),\n",
      "    Message('note_on', channel=0, note=64, velocity=0, time=168),\n",
      "    Message('note_on', channel=0, note=60, velocity=0, time=0),\n",
      "    Message('note_on', channel=0, note=67, velocity=0, time=0),\n",
      "    Message('note_on', channel=0, note=72, velocity=0, time=0),\n",
      "    Message('note_on', channel=0, note=67, velocity=104, time=12),\n",
      "    Message('note_on', channel=0, note=74, velocity=104, time=0),\n",
      "    Message('note_on', channel=0, note=62, velocity=104, time=0),\n",
      "    Message('note_on', channel=0, note=67, velocity=0, time=336),\n",
      "    Message('note_on', channel=0, note=74, velocity=0, time=0),\n",
      "    Message('note_on', channel=0, note=62, velocity=0, time=0),\n",
      "    Message('note_on', channel=0, note=67, velocity=104, time=24),\n",
      "    Message('note_on', channel=0, note=64, velocity=104, time=0),\n",
      "    Message('note_on', channel=0, note=71, velocity=104, time=0),\n",
      "    Message('note_on', channel=0, note=67, velocity=0, time=168),\n",
      "    Message('note_on', channel=0, note=64, velocity=0, time=0),\n",
      "    Message('note_on', channel=0, note=71, velocity=0, time=0),\n",
      "    Message('note_on', channel=0, note=69, velocity=104, time=12),\n",
      "    Message('note_on', channel=0, note=69, velocity=0, time=116),\n",
      "    Message('note_on', channel=0, note=71, velocity=104, time=4),\n",
      "    Message('note_on', channel=0, note=72, velocity=104, time=30),\n",
      "    Message('note_on', channel=0, note=71, velocity=0, time=14),\n",
      "    Message('note_on', channel=0, note=66, velocity=104, time=16),\n",
      "    Message('note_on', channel=0, note=71, velocity=104, time=0),\n",
      "    Message('note_on', channel=0, note=62, velocity=104, time=0),\n",
      "    Message('note_on', channel=0, note=72, velocity=0, time=14),\n",
      "    Message('note_on', channel=0, note=66, velocity=0, time=154),\n",
      "    Message('note_on', channel=0, note=71, velocity=0, time=0),\n",
      "    Message('note_on', channel=0, note=62, velocity=0, time=0),\n",
      "    Message('note_on', channel=0, note=66, velocity=104, time=12),\n",
      "    Message('note_on', channel=0, note=60, velocity=104, time=0),\n",
      "    Message('note_on', channel=0, note=69, velocity=104, time=0),\n",
      "    Message('note_on', channel=0, note=66, velocity=0, time=168),\n",
      "    Message('note_on', channel=0, note=60, velocity=0, time=0),\n",
      "    Message('note_on', channel=0, note=69, velocity=0, time=0),\n",
      "    Message('note_on', channel=0, note=67, velocity=104, time=12),\n",
      "    Message('note_on', channel=0, note=67, velocity=0, time=48),\n",
      "    Message('note_on', channel=0, note=71, velocity=104, time=12),\n",
      "    Message('note_on', channel=0, note=71, velocity=0, time=48),\n",
      "    Message('note_on', channel=0, note=69, velocity=104, time=12),\n",
      "    Message('note_on', channel=0, note=69, velocity=0, time=48),\n",
      "    Message('note_on', channel=0, note=71, velocity=104, time=12),\n",
      "    Message('note_on', channel=0, note=71, velocity=0, time=48),\n",
      "    Message('note_on', channel=0, note=74, velocity=104, time=12),\n",
      "    Message('note_on', channel=0, note=74, velocity=0, time=48),\n",
      "    Message('note_on', channel=0, note=72, velocity=104, time=12),\n",
      "    Message('note_on', channel=0, note=72, velocity=0, time=48),\n",
      "    Message('note_on', channel=0, note=72, velocity=104, time=12),\n",
      "    Message('note_on', channel=0, note=72, velocity=0, time=48),\n",
      "    Message('note_on', channel=0, note=76, velocity=104, time=12),\n",
      "    Message('note_on', channel=0, note=76, velocity=0, time=48),\n",
      "    Message('note_on', channel=0, note=74, velocity=104, time=12),\n",
      "    Message('note_on', channel=0, note=74, velocity=0, time=48),\n",
      "    Message('note_on', channel=0, note=74, velocity=104, time=12),\n",
      "    Message('note_on', channel=0, note=74, velocity=0, time=48),\n",
      "    Message('note_on', channel=0, note=79, velocity=104, time=12),\n",
      "    Message('note_on', channel=0, note=79, velocity=0, time=48),\n",
      "    Message('note_on', channel=0, note=78, velocity=104, time=12),\n",
      "    Message('note_on', channel=0, note=78, velocity=0, time=48),\n",
      "    Message('note_on', channel=0, note=79, velocity=104, time=12),\n",
      "    Message('note_on', channel=0, note=79, velocity=0, time=48),\n",
      "    Message('note_on', channel=0, note=74, velocity=104, time=12),\n",
      "    Message('note_on', channel=0, note=74, velocity=0, time=48),\n",
      "    Message('note_on', channel=0, note=71, velocity=104, time=12),\n",
      "    Message('note_on', channel=0, note=71, velocity=0, time=48),\n",
      "    Message('note_on', channel=0, note=67, velocity=104, time=12),\n",
      "    Message('note_on', channel=0, note=67, velocity=0, time=48),\n",
      "    Message('note_on', channel=0, note=69, velocity=104, time=12),\n",
      "    Message('note_on', channel=0, note=69, velocity=0, time=48),\n",
      "    Message('note_on', channel=0, note=71, velocity=104, time=12),\n",
      "    Message('note_on', channel=0, note=71, velocity=0, time=48),\n",
      "    Message('note_on', channel=0, note=72, velocity=104, time=12),\n",
      "    Message('note_on', channel=0, note=72, velocity=0, time=48),\n",
      "    Message('note_on', channel=0, note=74, velocity=104, time=12),\n",
      "    Message('note_on', channel=0, note=74, velocity=0, time=48),\n",
      "    Message('note_on', channel=0, note=76, velocity=104, time=12),\n",
      "    Message('note_on', channel=0, note=76, velocity=0, time=48),\n",
      "    Message('note_on', channel=0, note=74, velocity=104, time=12),\n",
      "    Message('note_on', channel=0, note=74, velocity=0, time=48),\n",
      "    Message('note_on', channel=0, note=72, velocity=104, time=12),\n",
      "    Message('note_on', channel=0, note=72, velocity=0, time=48),\n",
      "    Message('note_on', channel=0, note=71, velocity=104, time=12),\n",
      "    Message('note_on', channel=0, note=71, velocity=0, time=48),\n",
      "    Message('note_on', channel=0, note=69, velocity=104, time=12),\n",
      "    Message('note_on', channel=0, note=69, velocity=0, time=48),\n",
      "    Message('note_on', channel=0, note=71, velocity=104, time=12),\n",
      "    Message('note_on', channel=0, note=71, velocity=0, time=48),\n",
      "    Message('note_on', channel=0, note=67, velocity=104, time=12),\n",
      "    Message('note_on', channel=0, note=67, velocity=0, time=48),\n",
      "    Message('note_on', channel=0, note=66, velocity=104, time=12),\n",
      "    Message('note_on', channel=0, note=66, velocity=0, time=48),\n",
      "    Message('note_on', channel=0, note=67, velocity=104, time=12),\n",
      "    Message('note_on', channel=0, note=67, velocity=0, time=48),\n",
      "    Message('note_on', channel=0, note=69, velocity=104, time=12),\n",
      "    Message('note_on', channel=0, note=69, velocity=0, time=48),\n",
      "    Message('note_on', channel=0, note=62, velocity=104, time=12),\n",
      "    Message('note_on', channel=0, note=62, velocity=0, time=48),\n",
      "    Message('note_on', channel=0, note=66, velocity=104, time=12),\n",
      "    Message('note_on', channel=0, note=66, velocity=0, time=48),\n",
      "    Message('note_on', channel=0, note=69, velocity=104, time=12),\n",
      "    Message('note_on', channel=0, note=69, velocity=0, time=48),\n",
      "    Message('note_on', channel=0, note=72, velocity=104, time=12),\n",
      "    Message('note_on', channel=0, note=72, velocity=0, time=48),\n",
      "    Message('note_on', channel=0, note=71, velocity=104, time=12),\n",
      "    Message('note_on', channel=0, note=71, velocity=0, time=48),\n",
      "    Message('note_on', channel=0, note=69, velocity=104, time=12),\n",
      "    Message('note_on', channel=0, note=69, velocity=0, time=48),\n",
      "    Message('note_on', channel=0, note=71, velocity=104, time=12),\n",
      "    Message('note_on', channel=0, note=71, velocity=0, time=48),\n",
      "    Message('note_on', channel=0, note=67, velocity=104, time=12),\n",
      "    Message('note_on', channel=0, note=67, velocity=0, time=48),\n",
      "    Message('note_on', channel=0, note=69, velocity=104, time=12),\n",
      "    Message('note_on', channel=0, note=69, velocity=0, time=48),\n",
      "    Message('note_on', channel=0, note=71, velocity=104, time=12),\n",
      "    Message('note_on', channel=0, note=71, velocity=0, time=48),\n",
      "    Message('note_on', channel=0, note=74, velocity=104, time=12),\n",
      "    Message('note_on', channel=0, note=74, velocity=0, time=48),\n",
      "    Message('note_on', channel=0, note=72, velocity=104, time=12),\n",
      "    Message('note_on', channel=0, note=72, velocity=0, time=48),\n",
      "    Message('note_on', channel=0, note=72, velocity=104, time=12),\n",
      "    Message('note_on', channel=0, note=72, velocity=0, time=48),\n",
      "    Message('note_on', channel=0, note=76, velocity=104, time=12),\n",
      "    Message('note_on', channel=0, note=76, velocity=0, time=48),\n",
      "    Message('note_on', channel=0, note=74, velocity=104, time=12),\n",
      "    Message('note_on', channel=0, note=74, velocity=0, time=48),\n",
      "    Message('note_on', channel=0, note=74, velocity=104, time=12),\n",
      "    Message('note_on', channel=0, note=74, velocity=0, time=48),\n",
      "    Message('note_on', channel=0, note=79, velocity=104, time=12),\n",
      "    Message('note_on', channel=0, note=79, velocity=0, time=48),\n",
      "    Message('note_on', channel=0, note=78, velocity=104, time=12),\n",
      "    Message('note_on', channel=0, note=78, velocity=0, time=48),\n",
      "    Message('note_on', channel=0, note=79, velocity=104, time=12),\n",
      "    Message('note_on', channel=0, note=79, velocity=0, time=48),\n",
      "    Message('note_on', channel=0, note=74, velocity=104, time=12),\n",
      "    Message('note_on', channel=0, note=74, velocity=0, time=48),\n",
      "    Message('note_on', channel=0, note=71, velocity=104, time=12),\n",
      "    Message('note_on', channel=0, note=71, velocity=0, time=48),\n",
      "    Message('note_on', channel=0, note=67, velocity=104, time=12),\n",
      "    Message('note_on', channel=0, note=67, velocity=0, time=48),\n",
      "    Message('note_on', channel=0, note=69, velocity=104, time=12),\n",
      "    Message('note_on', channel=0, note=69, velocity=0, time=48),\n",
      "    Message('note_on', channel=0, note=71, velocity=104, time=12),\n",
      "    Message('note_on', channel=0, note=71, velocity=0, time=48),\n",
      "    Message('note_on', channel=0, note=64, velocity=104, time=12),\n",
      "    Message('note_on', channel=0, note=64, velocity=0, time=48),\n",
      "    Message('note_on', channel=0, note=74, velocity=104, time=12),\n",
      "    Message('note_on', channel=0, note=74, velocity=0, time=48),\n",
      "    Message('note_on', channel=0, note=72, velocity=104, time=12),\n",
      "    Message('note_on', channel=0, note=72, velocity=0, time=48),\n",
      "    Message('note_on', channel=0, note=71, velocity=104, time=12),\n",
      "    Message('note_on', channel=0, note=71, velocity=0, time=48),\n",
      "    Message('note_on', channel=0, note=69, velocity=104, time=12),\n",
      "    Message('note_on', channel=0, note=69, velocity=0, time=48),\n",
      "    Message('note_on', channel=0, note=67, velocity=104, time=12),\n",
      "    Message('note_on', channel=0, note=67, velocity=0, time=48),\n",
      "    Message('note_on', channel=0, note=62, velocity=104, time=12),\n",
      "    Message('note_on', channel=0, note=62, velocity=0, time=48),\n",
      "    Message('note_on', channel=0, note=67, velocity=104, time=12),\n",
      "    Message('note_on', channel=0, note=67, velocity=0, time=48),\n",
      "    Message('note_on', channel=0, note=66, velocity=104, time=12),\n",
      "    Message('note_on', channel=0, note=66, velocity=0, time=48),\n",
      "    Message('note_on', channel=0, note=67, velocity=104, time=12),\n",
      "    Message('note_on', channel=0, note=67, velocity=0, time=48),\n",
      "    Message('note_on', channel=0, note=71, velocity=104, time=12),\n",
      "    Message('note_on', channel=0, note=71, velocity=0, time=48),\n",
      "    Message('note_on', channel=0, note=74, velocity=104, time=12),\n",
      "    Message('note_on', channel=0, note=74, velocity=0, time=48),\n",
      "    Message('note_on', channel=0, note=79, velocity=104, time=12),\n",
      "    Message('note_on', channel=0, note=79, velocity=0, time=48),\n",
      "    Message('note_on', channel=0, note=74, velocity=104, time=12),\n",
      "    Message('note_on', channel=0, note=74, velocity=0, time=48),\n",
      "    Message('note_on', channel=0, note=71, velocity=104, time=12),\n",
      "    Message('note_on', channel=0, note=71, velocity=0, time=48),\n",
      "    Message('note_on', channel=0, note=67, velocity=104, time=12),\n",
      "    Message('note_on', channel=0, note=67, velocity=0, time=168),\n",
      "    Message('note_on', channel=0, note=66, velocity=94, time=13),\n",
      "    Message('note_on', channel=0, note=69, velocity=94, time=0),\n",
      "    Message('note_on', channel=0, note=66, velocity=0, time=336),\n",
      "    Message('note_on', channel=0, note=69, velocity=0, time=0),\n",
      "    Message('note_on', channel=0, note=68, velocity=94, time=24),\n",
      "    Message('note_on', channel=0, note=71, velocity=94, time=0),\n",
      "    Message('note_on', channel=0, note=62, velocity=94, time=0),\n",
      "    Message('note_on', channel=0, note=68, velocity=0, time=168),\n",
      "    Message('note_on', channel=0, note=71, velocity=0, time=0),\n",
      "    Message('note_on', channel=0, note=62, velocity=0, time=0),\n",
      "    Message('note_on', channel=0, note=72, velocity=94, time=12),\n",
      "    Message('note_on', channel=0, note=64, velocity=94, time=0),\n",
      "    Message('note_on', channel=0, note=69, velocity=94, time=0),\n",
      "    Message('note_on', channel=0, note=72, velocity=0, time=336),\n",
      "    Message('note_on', channel=0, note=64, velocity=0, time=0),\n",
      "    Message('note_on', channel=0, note=69, velocity=0, time=0),\n",
      "    Message('note_on', channel=0, note=69, velocity=94, time=24),\n",
      "    Message('note_on', channel=0, note=64, velocity=94, time=0),\n",
      "    Message('note_on', channel=0, note=72, velocity=94, time=0),\n",
      "    Message('note_on', channel=0, note=69, velocity=0, time=168),\n",
      "    Message('note_on', channel=0, note=64, velocity=0, time=0),\n",
      "    Message('note_on', channel=0, note=72, velocity=0, time=0),\n",
      "    Message('note_on', channel=0, note=71, velocity=94, time=12),\n",
      "    Message('note_on', channel=0, note=71, velocity=0, time=276),\n",
      "    Message('note_on', channel=0, note=72, velocity=94, time=24),\n",
      "    Message('note_on', channel=0, note=72, velocity=0, time=24),\n",
      "    Message('note_on', channel=0, note=74, velocity=94, time=6),\n",
      "    Message('note_on', channel=0, note=74, velocity=0, time=24),\n",
      "    Message('note_on', channel=0, note=71, velocity=94, time=6),\n",
      "    Message('note_on', channel=0, note=68, velocity=94, time=0),\n",
      "    Message('note_on', channel=0, note=71, velocity=0, time=168),\n",
      "    Message('note_on', channel=0, note=68, velocity=0, time=0),\n",
      "    Message('note_on', channel=0, note=69, velocity=94, time=12),\n",
      "    Message('note_on', channel=0, note=69, velocity=0, time=168),\n",
      "    Message('note_on', channel=0, note=69, velocity=94, time=12),\n",
      "    Message('note_on', channel=0, note=69, velocity=0, time=48),\n",
      "    Message('note_on', channel=0, note=76, velocity=94, time=12),\n",
      "    Message('note_on', channel=0, note=76, velocity=0, time=48),\n",
      "    Message('note_on', channel=0, note=74, velocity=94, time=12),\n",
      "    Message('note_on', channel=0, note=74, velocity=0, time=48),\n",
      "    Message('note_on', channel=0, note=74, velocity=94, time=12),\n",
      "    Message('note_on', channel=0, note=74, velocity=0, time=48),\n",
      "    Message('note_on', channel=0, note=77, velocity=94, time=12),\n",
      "    Message('note_on', channel=0, note=77, velocity=0, time=48),\n",
      "    Message('note_on', channel=0, note=76, velocity=94, time=12),\n",
      "    Message('note_on', channel=0, note=76, velocity=0, time=48),\n",
      "    Message('note_on', channel=0, note=76, velocity=94, time=12),\n",
      "    Message('note_on', channel=0, note=76, velocity=0, time=48),\n",
      "    Message('note_on', channel=0, note=81, velocity=94, time=12),\n",
      "    Message('note_on', channel=0, note=81, velocity=0, time=48),\n",
      "    Message('note_on', channel=0, note=80, velocity=94, time=12),\n",
      "    Message('note_on', channel=0, note=80, velocity=0, time=48),\n",
      "    Message('note_on', channel=0, note=81, velocity=94, time=12),\n",
      "    Message('note_on', channel=0, note=81, velocity=0, time=48),\n",
      "    Message('note_on', channel=0, note=76, velocity=94, time=12),\n",
      "    Message('note_on', channel=0, note=76, velocity=0, time=48),\n",
      "    Message('note_on', channel=0, note=72, velocity=94, time=12),\n",
      "    Message('note_on', channel=0, note=72, velocity=0, time=48),\n",
      "    Message('note_on', channel=0, note=69, velocity=94, time=12),\n",
      "    Message('note_on', channel=0, note=69, velocity=0, time=48),\n",
      "    Message('note_on', channel=0, note=71, velocity=94, time=12),\n",
      "    Message('note_on', channel=0, note=71, velocity=0, time=48),\n",
      "    Message('note_on', channel=0, note=72, velocity=94, time=12),\n",
      "    Message('note_on', channel=0, note=72, velocity=0, time=48),\n",
      "    Message('note_on', channel=0, note=77, velocity=94, time=12),\n",
      "    Message('note_on', channel=0, note=77, velocity=0, time=48),\n",
      "    Message('note_on', channel=0, note=76, velocity=94, time=12),\n",
      "    Message('note_on', channel=0, note=76, velocity=0, time=48),\n",
      "    Message('note_on', channel=0, note=74, velocity=94, time=12),\n",
      "    Message('note_on', channel=0, note=74, velocity=0, time=48),\n",
      "    Message('note_on', channel=0, note=72, velocity=94, time=12),\n",
      "    Message('note_on', channel=0, note=72, velocity=0, time=48),\n",
      "    Message('note_on', channel=0, note=71, velocity=94, time=12),\n",
      "    Message('note_on', channel=0, note=71, velocity=0, time=48),\n",
      "    Message('note_on', channel=0, note=69, velocity=94, time=12),\n",
      "    Message('note_on', channel=0, note=69, velocity=0, time=48),\n",
      "    Message('note_on', channel=0, note=64, velocity=94, time=12),\n",
      "    Message('note_on', channel=0, note=64, velocity=0, time=48),\n",
      "    Message('note_on', channel=0, note=69, velocity=94, time=12),\n",
      "    Message('note_on', channel=0, note=69, velocity=0, time=48),\n",
      "    Message('note_on', channel=0, note=68, velocity=94, time=12),\n",
      "    Message('note_on', channel=0, note=62, velocity=94, time=0),\n",
      "    Message('note_on', channel=0, note=68, velocity=0, time=48),\n",
      "    Message('note_on', channel=0, note=62, velocity=0, time=0),\n",
      "    Message('note_on', channel=0, note=64, velocity=94, time=12),\n",
      "    Message('note_on', channel=0, note=69, velocity=94, time=0),\n",
      "    Message('note_on', channel=0, note=72, velocity=94, time=0),\n",
      "    Message('note_on', channel=0, note=64, velocity=0, time=336),\n",
      "    Message('note_on', channel=0, note=69, velocity=0, time=0),\n",
      "    Message('note_on', channel=0, note=72, velocity=0, time=0),\n",
      "    Message('note_on', channel=0, note=74, velocity=94, time=24),\n",
      "    Message('note_on', channel=0, note=62, velocity=94, time=0),\n",
      "    Message('note_on', channel=0, note=67, velocity=94, time=0),\n",
      "    Message('note_on', channel=0, note=74, velocity=0, time=168),\n",
      "    Message('note_on', channel=0, note=62, velocity=0, time=0),\n",
      "    Message('note_on', channel=0, note=67, velocity=0, time=0),\n",
      "    Message('note_on', channel=0, note=72, velocity=94, time=12),\n",
      "    Message('note_on', channel=0, note=76, velocity=94, time=0),\n",
      "    Message('note_on', channel=0, note=72, velocity=0, time=336),\n",
      "    Message('note_on', channel=0, note=76, velocity=0, time=0),\n",
      "    Message('note_on', channel=0, note=72, velocity=94, time=24),\n",
      "    Message('note_on', channel=0, note=76, velocity=94, time=0),\n",
      "    Message('note_on', channel=0, note=67, velocity=94, time=0),\n",
      "    Message('note_on', channel=0, note=72, velocity=0, time=168),\n",
      "    Message('note_on', channel=0, note=76, velocity=0, time=0),\n",
      "    Message('note_on', channel=0, note=67, velocity=0, time=0),\n",
      "    Message('note_on', channel=0, note=74, velocity=94, time=12),\n",
      "    Message('note_on', channel=0, note=74, velocity=0, time=276),\n",
      "    Message('note_on', channel=0, note=76, velocity=94, time=24),\n",
      "    Message('note_on', channel=0, note=76, velocity=0, time=24),\n",
      "    Message('note_on', channel=0, note=77, velocity=94, time=6),\n",
      "    Message('note_on', channel=0, note=77, velocity=0, time=24),\n",
      "    Message('note_on', channel=0, note=74, velocity=94, time=6),\n",
      "    Message('note_on', channel=0, note=74, velocity=0, time=168),\n",
      "    Message('note_on', channel=0, note=64, velocity=94, time=12),\n",
      "    Message('note_on', channel=0, note=72, velocity=94, time=0),\n",
      "    Message('note_on', channel=0, note=64, velocity=0, time=168),\n",
      "    Message('note_on', channel=0, note=72, velocity=0, time=0),\n",
      "    Message('note_on', channel=0, note=72, velocity=94, time=12),\n",
      "    Message('note_on', channel=0, note=72, velocity=0, time=48),\n",
      "    Message('note_on', channel=0, note=76, velocity=94, time=12),\n",
      "    Message('note_on', channel=0, note=76, velocity=0, time=48),\n",
      "    Message('note_on', channel=0, note=72, velocity=94, time=12),\n",
      "    Message('note_on', channel=0, note=72, velocity=0, time=48),\n",
      "    Message('note_on', channel=0, note=67, velocity=94, time=12),\n",
      "    Message('note_on', channel=0, note=67, velocity=0, time=48),\n",
      "    Message('note_on', channel=0, note=69, velocity=94, time=12),\n",
      "    Message('note_on', channel=0, note=69, velocity=0, time=48),\n",
      "    Message('note_on', channel=0, note=70, velocity=94, time=12),\n",
      "    Message('note_on', channel=0, note=70, velocity=0, time=48),\n",
      "    Message('note_on', channel=0, note=69, velocity=94, time=12),\n",
      "    Message('note_on', channel=0, note=69, velocity=0, time=48),\n",
      "    Message('note_on', channel=0, note=72, velocity=94, time=12),\n",
      "    Message('note_on', channel=0, note=72, velocity=0, time=48),\n",
      "    Message('note_on', channel=0, note=71, velocity=94, time=12),\n",
      "    Message('note_on', channel=0, note=71, velocity=0, time=48),\n",
      "    Message('note_on', channel=0, note=72, velocity=94, time=12),\n",
      "    Message('note_on', channel=0, note=72, velocity=0, time=48),\n",
      "    Message('note_on', channel=0, note=69, velocity=94, time=12),\n",
      "    Message('note_on', channel=0, note=69, velocity=0, time=48),\n",
      "    Message('note_on', channel=0, note=66, velocity=94, time=12),\n",
      "    Message('note_on', channel=0, note=66, velocity=0, time=48),\n",
      "    Message('note_on', channel=0, note=62, velocity=94, time=12),\n",
      "    Message('note_on', channel=0, note=62, velocity=0, time=48),\n",
      "    Message('note_on', channel=0, note=64, velocity=94, time=12),\n",
      "    Message('note_on', channel=0, note=64, velocity=0, time=48),\n",
      "    Message('note_on', channel=0, note=66, velocity=94, time=12),\n",
      "    Message('note_on', channel=0, note=66, velocity=0, time=48),\n",
      "    Message('note_on', channel=0, note=64, velocity=94, time=12),\n",
      "    Message('note_on', channel=0, note=64, velocity=0, time=48),\n",
      "    Message('note_on', channel=0, note=60, velocity=94, time=12),\n",
      "    Message('note_on', channel=0, note=60, velocity=0, time=48),\n",
      "    Message('note_on', channel=0, note=62, velocity=94, time=12),\n",
      "    Message('note_on', channel=0, note=62, velocity=0, time=48),\n",
      "    Message('note_on', channel=0, note=64, velocity=94, time=12),\n",
      "    Message('note_on', channel=0, note=64, velocity=0, time=48),\n",
      "    Message('note_on', channel=0, note=67, velocity=94, time=12),\n",
      "    Message('note_on', channel=0, note=67, velocity=0, time=48),\n",
      "    Message('note_on', channel=0, note=66, velocity=94, time=12),\n",
      "    Message('note_on', channel=0, note=66, velocity=0, time=48),\n",
      "    Message('note_on', channel=0, note=67, velocity=94, time=12),\n",
      "    Message('note_on', channel=0, note=67, velocity=0, time=48),\n",
      "    Message('note_on', channel=0, note=71, velocity=94, time=12),\n",
      "    Message('note_on', channel=0, note=71, velocity=0, time=48),\n",
      "    Message('note_on', channel=0, note=69, velocity=94, time=12),\n",
      "    Message('note_on', channel=0, note=69, velocity=0, time=48),\n",
      "    Message('note_on', channel=0, note=67, velocity=94, time=12),\n",
      "    Message('note_on', channel=0, note=71, velocity=94, time=0),\n",
      "    Message('note_on', channel=0, note=67, velocity=0, time=336),\n",
      "    Message('note_on', channel=0, note=71, velocity=0, time=0),\n",
      "    Message('note_on', channel=0, note=64, velocity=94, time=24),\n",
      "    Message('note_on', channel=0, note=60, velocity=94, time=0),\n",
      "    Message('note_on', channel=0, note=67, velocity=94, time=0),\n",
      "    Message('note_on', channel=0, note=72, velocity=94, time=0),\n",
      "    Message('note_on', channel=0, note=64, velocity=0, time=168),\n",
      "    Message('note_on', channel=0, note=60, velocity=0, time=0),\n",
      "    Message('note_on', channel=0, note=67, velocity=0, time=0),\n",
      "    Message('note_on', channel=0, note=72, velocity=0, time=0),\n",
      "    Message('note_on', channel=0, note=74, velocity=94, time=12),\n",
      "    Message('note_on', channel=0, note=67, velocity=94, time=0),\n",
      "    Message('note_on', channel=0, note=62, velocity=94, time=0),\n",
      "    Message('note_on', channel=0, note=74, velocity=0, time=336),\n",
      "    Message('note_on', channel=0, note=67, velocity=0, time=0),\n",
      "    Message('note_on', channel=0, note=62, velocity=0, time=0),\n",
      "    Message('note_on', channel=0, note=74, velocity=94, time=24),\n",
      "    Message('note_on', channel=0, note=67, velocity=94, time=0),\n",
      "    Message('note_on', channel=0, note=62, velocity=94, time=0),\n",
      "    Message('note_on', channel=0, note=74, velocity=0, time=168),\n",
      "    Message('note_on', channel=0, note=67, velocity=0, time=0),\n",
      "    Message('note_on', channel=0, note=62, velocity=0, time=0),\n",
      "    Message('note_on', channel=0, note=69, velocity=94, time=12),\n",
      "    Message('note_on', channel=0, note=64, velocity=94, time=0),\n",
      "    Message('note_on', channel=0, note=72, velocity=94, time=0),\n",
      "    Message('note_on', channel=0, note=69, velocity=0, time=168),\n",
      "    Message('note_on', channel=0, note=64, velocity=0, time=0),\n",
      "    Message('note_on', channel=0, note=72, velocity=0, time=0),\n",
      "    Message('note_on', channel=0, note=71, velocity=94, time=12),\n",
      "    Message('note_on', channel=0, note=71, velocity=0, time=336),\n",
      "    Message('note_on', channel=0, note=66, velocity=94, time=24),\n",
      "    Message('note_on', channel=0, note=69, velocity=94, time=0),\n",
      "    Message('note_on', channel=0, note=66, velocity=0, time=48),\n",
      "    Message('note_on', channel=0, note=69, velocity=0, time=0),\n",
      "    Message('note_on', channel=0, note=62, velocity=94, time=12),\n",
      "    Message('note_on', channel=0, note=62, velocity=0, time=48),\n",
      "    Message('note_on', channel=0, note=64, velocity=94, time=12),\n",
      "    Message('note_on', channel=0, note=64, velocity=0, time=48),\n",
      "    Message('note_on', channel=0, note=66, velocity=94, time=12),\n",
      "    Message('note_on', channel=0, note=66, velocity=0, time=48),\n",
      "    Message('note_on', channel=0, note=69, velocity=94, time=12),\n",
      "    Message('note_on', channel=0, note=69, velocity=0, time=48),\n",
      "    Message('note_on', channel=0, note=67, velocity=94, time=12),\n",
      "    Message('note_on', channel=0, note=67, velocity=0, time=48),\n",
      "    Message('note_on', channel=0, note=69, velocity=94, time=12),\n",
      "    Message('note_on', channel=0, note=69, velocity=0, time=48),\n",
      "    Message('note_on', channel=0, note=72, velocity=94, time=12),\n",
      "    Message('note_on', channel=0, note=72, velocity=0, time=48),\n",
      "    Message('note_on', channel=0, note=71, velocity=94, time=12),\n",
      "    Message('note_on', channel=0, note=71, velocity=0, time=48),\n",
      "    Message('note_on', channel=0, note=72, velocity=94, time=12),\n",
      "    Message('note_on', channel=0, note=72, velocity=0, time=48),\n",
      "    Message('note_on', channel=0, note=69, velocity=94, time=12),\n",
      "    Message('note_on', channel=0, note=69, velocity=0, time=48),\n",
      "    Message('note_on', channel=0, note=66, velocity=94, time=12),\n",
      "    Message('note_on', channel=0, note=66, velocity=0, time=48),\n",
      "    Message('note_on', channel=0, note=62, velocity=94, time=12),\n",
      "    Message('note_on', channel=0, note=62, velocity=0, time=48),\n",
      "    Message('note_on', channel=0, note=66, velocity=94, time=12),\n",
      "    Message('note_on', channel=0, note=66, velocity=0, time=48),\n",
      "    Message('note_on', channel=0, note=69, velocity=94, time=12),\n",
      "    Message('note_on', channel=0, note=69, velocity=0, time=48),\n",
      "    Message('note_on', channel=0, note=72, velocity=94, time=12),\n",
      "    Message('note_on', channel=0, note=72, velocity=0, time=48),\n",
      "    Message('note_on', channel=0, note=71, velocity=94, time=12),\n",
      "    Message('note_on', channel=0, note=71, velocity=0, time=48),\n",
      "    Message('note_on', channel=0, note=69, velocity=94, time=12),\n",
      "    Message('note_on', channel=0, note=69, velocity=0, time=48),\n",
      "    Message('note_on', channel=0, note=67, velocity=94, time=12),\n",
      "    Message('note_on', channel=0, note=71, velocity=94, time=0),\n",
      "    Message('note_on', channel=0, note=67, velocity=0, time=336),\n",
      "    Message('note_on', channel=0, note=71, velocity=0, time=0),\n",
      "    Message('note_on', channel=0, note=72, velocity=94, time=24),\n",
      "    Message('note_on', channel=0, note=67, velocity=94, time=0),\n",
      "    Message('note_on', channel=0, note=64, velocity=94, time=0),\n",
      "    Message('note_on', channel=0, note=60, velocity=94, time=0),\n",
      "    Message('note_on', channel=0, note=72, velocity=0, time=168),\n",
      "    Message('note_on', channel=0, note=67, velocity=0, time=0),\n",
      "    Message('note_on', channel=0, note=64, velocity=0, time=0),\n",
      "    Message('note_on', channel=0, note=60, velocity=0, time=0),\n",
      "    Message('note_on', channel=0, note=74, velocity=94, time=12),\n",
      "    Message('note_on', channel=0, note=62, velocity=94, time=0),\n",
      "    Message('note_on', channel=0, note=67, velocity=94, time=0),\n",
      "    Message('note_on', channel=0, note=74, velocity=0, time=336),\n",
      "    Message('note_on', channel=0, note=62, velocity=0, time=0),\n",
      "    Message('note_on', channel=0, note=67, velocity=0, time=0),\n",
      "    Message('note_on', channel=0, note=67, velocity=94, time=24),\n",
      "    Message('note_on', channel=0, note=64, velocity=94, time=0),\n",
      "    Message('note_on', channel=0, note=71, velocity=94, time=0),\n",
      "    Message('note_on', channel=0, note=67, velocity=0, time=168),\n",
      "    Message('note_on', channel=0, note=64, velocity=0, time=0),\n",
      "    Message('note_on', channel=0, note=71, velocity=0, time=0),\n",
      "    Message('note_on', channel=0, note=69, velocity=94, time=12),\n",
      "    Message('note_on', channel=0, note=69, velocity=0, time=96),\n",
      "    Message('note_on', channel=0, note=71, velocity=94, time=24),\n",
      "    Message('note_on', channel=0, note=71, velocity=0, time=24),\n",
      "    Message('note_on', channel=0, note=72, velocity=94, time=6),\n",
      "    Message('note_on', channel=0, note=72, velocity=0, time=24),\n",
      "    Message('note_on', channel=0, note=71, velocity=94, time=6),\n",
      "    Message('note_on', channel=0, note=71, velocity=0, time=168),\n",
      "    Message('note_on', channel=0, note=69, velocity=94, time=12),\n",
      "    Message('note_on', channel=0, note=69, velocity=0, time=168),\n",
      "    Message('note_on', channel=0, note=67, velocity=94, time=12),\n",
      "    Message('note_on', channel=0, note=67, velocity=0, time=48),\n",
      "    Message('note_on', channel=0, note=71, velocity=94, time=12),\n",
      "    Message('note_on', channel=0, note=71, velocity=0, time=48),\n",
      "    Message('note_on', channel=0, note=74, velocity=94, time=12),\n",
      "    Message('note_on', channel=0, note=74, velocity=0, time=48),\n",
      "    Message('note_on', channel=0, note=79, velocity=94, time=12),\n",
      "    Message('note_on', channel=0, note=79, velocity=0, time=48),\n",
      "    Message('note_on', channel=0, note=74, velocity=94, time=12),\n",
      "    Message('note_on', channel=0, note=74, velocity=0, time=48),\n",
      "    Message('note_on', channel=0, note=71, velocity=94, time=12),\n",
      "    Message('note_on', channel=0, note=71, velocity=0, time=48),\n",
      "    Message('note_on', channel=0, note=67, velocity=94, time=12),\n",
      "    Message('note_on', channel=0, note=67, velocity=0, time=48),\n",
      "    Message('note_on', channel=0, note=71, velocity=94, time=12),\n",
      "    Message('note_on', channel=0, note=71, velocity=0, time=48),\n",
      "    Message('note_on', channel=0, note=74, velocity=94, time=12),\n",
      "    Message('note_on', channel=0, note=74, velocity=0, time=48),\n",
      "    Message('note_on', channel=0, note=77, velocity=94, time=12),\n",
      "    Message('note_on', channel=0, note=77, velocity=0, time=48),\n",
      "    Message('note_on', channel=0, note=74, velocity=94, time=12),\n",
      "    Message('note_on', channel=0, note=74, velocity=0, time=48),\n",
      "    Message('note_on', channel=0, note=71, velocity=94, time=12),\n",
      "    Message('note_on', channel=0, note=71, velocity=0, time=48),\n",
      "    Message('note_on', channel=0, note=67, velocity=94, time=12),\n",
      "    Message('note_on', channel=0, note=67, velocity=0, time=48),\n",
      "    Message('note_on', channel=0, note=71, velocity=94, time=12),\n",
      "    Message('note_on', channel=0, note=71, velocity=0, time=48),\n",
      "    Message('note_on', channel=0, note=74, velocity=94, time=12),\n",
      "    Message('note_on', channel=0, note=74, velocity=0, time=48),\n",
      "    Message('note_on', channel=0, note=76, velocity=94, time=12),\n",
      "    Message('note_on', channel=0, note=76, velocity=0, time=48),\n",
      "    Message('note_on', channel=0, note=72, velocity=94, time=12),\n",
      "    Message('note_on', channel=0, note=72, velocity=0, time=48),\n",
      "    Message('note_on', channel=0, note=69, velocity=94, time=12),\n",
      "    Message('note_on', channel=0, note=69, velocity=0, time=48),\n",
      "    Message('note_on', channel=0, note=66, velocity=94, time=12),\n",
      "    Message('note_on', channel=0, note=66, velocity=0, time=48),\n",
      "    Message('note_on', channel=0, note=69, velocity=94, time=12),\n",
      "    Message('note_on', channel=0, note=69, velocity=0, time=48),\n",
      "    Message('note_on', channel=0, note=72, velocity=94, time=12),\n",
      "    Message('note_on', channel=0, note=72, velocity=0, time=48),\n",
      "    Message('note_on', channel=0, note=74, velocity=94, time=12),\n",
      "    Message('note_on', channel=0, note=74, velocity=0, time=48),\n",
      "    Message('note_on', channel=0, note=71, velocity=94, time=12),\n",
      "    Message('note_on', channel=0, note=71, velocity=0, time=48),\n",
      "    Message('note_on', channel=0, note=67, velocity=94, time=12),\n",
      "    Message('note_on', channel=0, note=67, velocity=0, time=48),\n",
      "    Message('note_on', channel=0, note=64, velocity=94, time=12),\n",
      "    Message('note_on', channel=0, note=64, velocity=0, time=48),\n",
      "    Message('note_on', channel=0, note=67, velocity=94, time=12),\n",
      "    Message('note_on', channel=0, note=67, velocity=0, time=48),\n",
      "    Message('note_on', channel=0, note=71, velocity=94, time=12),\n",
      "    Message('note_on', channel=0, note=71, velocity=0, time=48),\n",
      "    Message('note_on', channel=0, note=72, velocity=94, time=12),\n",
      "    Message('note_on', channel=0, note=72, velocity=0, time=48),\n",
      "    Message('note_on', channel=0, note=69, velocity=94, time=12),\n",
      "    Message('note_on', channel=0, note=69, velocity=0, time=48),\n",
      "    Message('note_on', channel=0, note=66, velocity=94, time=12),\n",
      "    Message('note_on', channel=0, note=66, velocity=0, time=48),\n",
      "    Message('note_on', channel=0, note=62, velocity=94, time=12),\n",
      "    Message('note_on', channel=0, note=62, velocity=0, time=48),\n",
      "    Message('note_on', channel=0, note=66, velocity=94, time=12),\n",
      "    Message('note_on', channel=0, note=66, velocity=0, time=48),\n",
      "    Message('note_on', channel=0, note=69, velocity=94, time=12),\n",
      "    Message('note_on', channel=0, note=69, velocity=0, time=48),\n",
      "    Message('note_on', channel=0, note=72, velocity=94, time=12),\n",
      "    Message('note_on', channel=0, note=72, velocity=0, time=48),\n",
      "    Message('note_on', channel=0, note=71, velocity=94, time=12),\n",
      "    Message('note_on', channel=0, note=71, velocity=0, time=48),\n",
      "    Message('note_on', channel=0, note=69, velocity=94, time=12),\n",
      "    Message('note_on', channel=0, note=69, velocity=0, time=48),\n",
      "    Message('note_on', channel=0, note=71, velocity=94, time=12),\n",
      "    Message('note_on', channel=0, note=71, velocity=0, time=48),\n",
      "    Message('note_on', channel=0, note=67, velocity=94, time=12),\n",
      "    Message('note_on', channel=0, note=67, velocity=0, time=48),\n",
      "    Message('note_on', channel=0, note=69, velocity=94, time=12),\n",
      "    Message('note_on', channel=0, note=69, velocity=0, time=48),\n",
      "    Message('note_on', channel=0, note=71, velocity=94, time=12),\n",
      "    Message('note_on', channel=0, note=71, velocity=0, time=48),\n",
      "    Message('note_on', channel=0, note=74, velocity=94, time=12),\n",
      "    Message('note_on', channel=0, note=74, velocity=0, time=48),\n",
      "    Message('note_on', channel=0, note=72, velocity=94, time=12),\n",
      "    Message('note_on', channel=0, note=72, velocity=0, time=48),\n",
      "    Message('note_on', channel=0, note=72, velocity=94, time=12),\n",
      "    Message('note_on', channel=0, note=72, velocity=0, time=48),\n",
      "    Message('note_on', channel=0, note=76, velocity=94, time=12),\n",
      "    Message('note_on', channel=0, note=76, velocity=0, time=48),\n",
      "    Message('note_on', channel=0, note=74, velocity=94, time=12),\n",
      "    Message('note_on', channel=0, note=74, velocity=0, time=48),\n",
      "    Message('note_on', channel=0, note=74, velocity=94, time=12),\n",
      "    Message('note_on', channel=0, note=74, velocity=0, time=48),\n",
      "    Message('note_on', channel=0, note=79, velocity=94, time=12),\n",
      "    Message('note_on', channel=0, note=79, velocity=0, time=48),\n",
      "    Message('note_on', channel=0, note=78, velocity=94, time=12),\n",
      "    Message('note_on', channel=0, note=78, velocity=0, time=48),\n",
      "    Message('note_on', channel=0, note=79, velocity=94, time=12),\n",
      "    Message('note_on', channel=0, note=79, velocity=0, time=48),\n",
      "    Message('note_on', channel=0, note=74, velocity=94, time=12),\n",
      "    Message('note_on', channel=0, note=74, velocity=0, time=48),\n",
      "    Message('note_on', channel=0, note=71, velocity=94, time=12),\n",
      "    Message('note_on', channel=0, note=71, velocity=0, time=48),\n",
      "    Message('note_on', channel=0, note=67, velocity=94, time=12),\n",
      "    Message('note_on', channel=0, note=67, velocity=0, time=48),\n",
      "    Message('note_on', channel=0, note=69, velocity=94, time=12),\n",
      "    Message('note_on', channel=0, note=69, velocity=0, time=48),\n",
      "    Message('note_on', channel=0, note=71, velocity=94, time=12),\n",
      "    Message('note_on', channel=0, note=71, velocity=0, time=48),\n",
      "    Message('note_on', channel=0, note=72, velocity=94, time=12),\n",
      "    Message('note_on', channel=0, note=72, velocity=0, time=48),\n",
      "    Message('note_on', channel=0, note=74, velocity=94, time=12),\n",
      "    Message('note_on', channel=0, note=74, velocity=0, time=48),\n",
      "    Message('note_on', channel=0, note=76, velocity=94, time=12),\n",
      "    Message('note_on', channel=0, note=76, velocity=0, time=48),\n",
      "    Message('note_on', channel=0, note=74, velocity=94, time=12),\n",
      "    Message('note_on', channel=0, note=74, velocity=0, time=48),\n",
      "    Message('note_on', channel=0, note=72, velocity=94, time=12),\n",
      "    Message('note_on', channel=0, note=72, velocity=0, time=48),\n",
      "    Message('note_on', channel=0, note=71, velocity=94, time=12),\n",
      "    Message('note_on', channel=0, note=71, velocity=0, time=48),\n",
      "    Message('note_on', channel=0, note=69, velocity=94, time=12),\n",
      "    Message('note_on', channel=0, note=69, velocity=0, time=48),\n",
      "    Message('note_on', channel=0, note=71, velocity=94, time=12),\n",
      "    Message('note_on', channel=0, note=71, velocity=0, time=48),\n",
      "    Message('note_on', channel=0, note=67, velocity=94, time=12),\n",
      "    Message('note_on', channel=0, note=67, velocity=0, time=48),\n",
      "    Message('note_on', channel=0, note=66, velocity=94, time=12),\n",
      "    Message('note_on', channel=0, note=66, velocity=0, time=48),\n",
      "    Message('note_on', channel=0, note=67, velocity=94, time=12),\n",
      "    Message('note_on', channel=0, note=67, velocity=0, time=48),\n",
      "    Message('note_on', channel=0, note=69, velocity=94, time=12),\n",
      "    Message('note_on', channel=0, note=69, velocity=0, time=48),\n",
      "    Message('note_on', channel=0, note=62, velocity=94, time=12),\n",
      "    Message('note_on', channel=0, note=62, velocity=0, time=48),\n",
      "    Message('note_on', channel=0, note=66, velocity=94, time=12),\n",
      "    Message('note_on', channel=0, note=66, velocity=0, time=48),\n",
      "    Message('note_on', channel=0, note=69, velocity=94, time=12),\n",
      "    Message('note_on', channel=0, note=69, velocity=0, time=48),\n",
      "    Message('note_on', channel=0, note=72, velocity=94, time=12),\n",
      "    Message('note_on', channel=0, note=72, velocity=0, time=48),\n",
      "    Message('note_on', channel=0, note=71, velocity=94, time=12),\n",
      "    Message('note_on', channel=0, note=71, velocity=0, time=48),\n",
      "    Message('note_on', channel=0, note=69, velocity=94, time=12),\n",
      "    Message('note_on', channel=0, note=69, velocity=0, time=48),\n",
      "    Message('note_on', channel=0, note=71, velocity=94, time=12),\n",
      "    Message('note_on', channel=0, note=71, velocity=0, time=48),\n",
      "    Message('note_on', channel=0, note=67, velocity=94, time=12),\n",
      "    Message('note_on', channel=0, note=67, velocity=0, time=48),\n",
      "    Message('note_on', channel=0, note=69, velocity=94, time=12),\n",
      "    Message('note_on', channel=0, note=69, velocity=0, time=48),\n",
      "    Message('note_on', channel=0, note=71, velocity=94, time=12),\n",
      "    Message('note_on', channel=0, note=71, velocity=0, time=48),\n",
      "    Message('note_on', channel=0, note=74, velocity=94, time=12),\n",
      "    Message('note_on', channel=0, note=74, velocity=0, time=48),\n",
      "    Message('note_on', channel=0, note=72, velocity=94, time=12),\n",
      "    Message('note_on', channel=0, note=72, velocity=0, time=48),\n",
      "    Message('note_on', channel=0, note=72, velocity=94, time=12),\n",
      "    Message('note_on', channel=0, note=72, velocity=0, time=48),\n",
      "    Message('note_on', channel=0, note=76, velocity=94, time=12),\n",
      "    Message('note_on', channel=0, note=76, velocity=0, time=48),\n",
      "    Message('note_on', channel=0, note=74, velocity=94, time=12),\n",
      "    Message('note_on', channel=0, note=74, velocity=0, time=48),\n",
      "    Message('note_on', channel=0, note=74, velocity=94, time=12),\n",
      "    Message('note_on', channel=0, note=74, velocity=0, time=48),\n",
      "    Message('note_on', channel=0, note=79, velocity=94, time=12),\n",
      "    Message('note_on', channel=0, note=79, velocity=0, time=48),\n",
      "    Message('note_on', channel=0, note=78, velocity=94, time=12),\n",
      "    Message('note_on', channel=0, note=78, velocity=0, time=48),\n",
      "    Message('note_on', channel=0, note=79, velocity=94, time=12),\n",
      "    Message('note_on', channel=0, note=79, velocity=0, time=48),\n",
      "    Message('note_on', channel=0, note=74, velocity=94, time=12),\n",
      "    Message('note_on', channel=0, note=74, velocity=0, time=48),\n",
      "    Message('note_on', channel=0, note=71, velocity=94, time=12),\n",
      "    Message('note_on', channel=0, note=71, velocity=0, time=48),\n",
      "    Message('note_on', channel=0, note=67, velocity=94, time=12),\n",
      "    Message('note_on', channel=0, note=67, velocity=0, time=48),\n",
      "    Message('note_on', channel=0, note=69, velocity=94, time=12),\n",
      "    Message('note_on', channel=0, note=69, velocity=0, time=48),\n",
      "    Message('note_on', channel=0, note=71, velocity=94, time=12),\n",
      "    Message('note_on', channel=0, note=71, velocity=0, time=48),\n",
      "    Message('note_on', channel=0, note=64, velocity=94, time=12),\n",
      "    Message('note_on', channel=0, note=64, velocity=0, time=48),\n",
      "    Message('note_on', channel=0, note=74, velocity=94, time=12),\n",
      "    Message('note_on', channel=0, note=74, velocity=0, time=48),\n",
      "    Message('note_on', channel=0, note=72, velocity=94, time=12),\n",
      "    Message('note_on', channel=0, note=72, velocity=0, time=48),\n",
      "    Message('note_on', channel=0, note=71, velocity=94, time=12),\n",
      "    Message('note_on', channel=0, note=71, velocity=0, time=48),\n",
      "    Message('note_on', channel=0, note=69, velocity=94, time=12),\n",
      "    Message('note_on', channel=0, note=69, velocity=0, time=48),\n",
      "    Message('note_on', channel=0, note=67, velocity=94, time=12),\n",
      "    Message('note_on', channel=0, note=67, velocity=0, time=48),\n",
      "    Message('note_on', channel=0, note=62, velocity=94, time=12),\n",
      "    Message('note_on', channel=0, note=62, velocity=0, time=48),\n",
      "    Message('note_on', channel=0, note=67, velocity=94, time=12),\n",
      "    Message('note_on', channel=0, note=67, velocity=0, time=48),\n",
      "    Message('note_on', channel=0, note=66, velocity=94, time=12),\n",
      "    Message('note_on', channel=0, note=66, velocity=0, time=48),\n",
      "    Message('note_on', channel=0, note=62, velocity=94, time=12),\n",
      "    Message('note_on', channel=0, note=67, velocity=94, time=0),\n",
      "    Message('note_on', channel=0, note=59, velocity=94, time=0),\n",
      "    Message('note_on', channel=0, note=55, velocity=94, time=0),\n",
      "    Message('note_on', channel=0, note=62, velocity=0, time=456),\n",
      "    Message('note_on', channel=0, note=67, velocity=0, time=0),\n",
      "    Message('note_on', channel=0, note=59, velocity=0, time=0),\n",
      "    Message('note_on', channel=0, note=55, velocity=0, time=0),\n",
      "    Message('note_on', channel=0, note=67, velocity=104, time=143),\n",
      "    Message('note_on', channel=0, note=67, velocity=0, time=48),\n",
      "    Message('note_on', channel=0, note=69, velocity=104, time=12),\n",
      "    Message('note_on', channel=0, note=69, velocity=0, time=48),\n",
      "    Message('note_on', channel=0, note=71, velocity=104, time=12),\n",
      "    Message('note_on', channel=0, note=71, velocity=0, time=48),\n",
      "    Message('note_on', channel=0, note=74, velocity=104, time=12),\n",
      "    Message('note_on', channel=0, note=74, velocity=0, time=48),\n",
      "    Message('note_on', channel=0, note=72, velocity=104, time=12),\n",
      "    Message('note_on', channel=0, note=72, velocity=0, time=48),\n",
      "    Message('note_on', channel=0, note=72, velocity=104, time=12),\n",
      "    Message('note_on', channel=0, note=72, velocity=0, time=48),\n",
      "    Message('note_on', channel=0, note=76, velocity=104, time=12),\n",
      "    Message('note_on', channel=0, note=76, velocity=0, time=48),\n",
      "    Message('note_on', channel=0, note=74, velocity=104, time=12),\n",
      "    Message('note_on', channel=0, note=74, velocity=0, time=48),\n",
      "    Message('note_on', channel=0, note=74, velocity=104, time=12),\n",
      "    Message('note_on', channel=0, note=74, velocity=0, time=48),\n",
      "    Message('note_on', channel=0, note=79, velocity=104, time=12),\n",
      "    Message('note_on', channel=0, note=79, velocity=0, time=48),\n",
      "    Message('note_on', channel=0, note=78, velocity=104, time=12),\n",
      "    Message('note_on', channel=0, note=78, velocity=0, time=48),\n",
      "    Message('note_on', channel=0, note=79, velocity=104, time=12),\n",
      "    Message('note_on', channel=0, note=79, velocity=0, time=48),\n",
      "    Message('note_on', channel=0, note=74, velocity=104, time=12),\n",
      "    Message('note_on', channel=0, note=74, velocity=0, time=48),\n",
      "    Message('note_on', channel=0, note=71, velocity=104, time=12),\n",
      "    Message('note_on', channel=0, note=71, velocity=0, time=48),\n",
      "    Message('note_on', channel=0, note=67, velocity=104, time=12),\n",
      "    Message('note_on', channel=0, note=67, velocity=0, time=48),\n",
      "    Message('note_on', channel=0, note=69, velocity=104, time=12),\n",
      "    Message('note_on', channel=0, note=69, velocity=0, time=48),\n",
      "    Message('note_on', channel=0, note=71, velocity=104, time=12),\n",
      "    Message('note_on', channel=0, note=71, velocity=0, time=48),\n",
      "    Message('note_on', channel=0, note=72, velocity=104, time=12),\n",
      "    Message('note_on', channel=0, note=72, velocity=0, time=48),\n",
      "    Message('note_on', channel=0, note=74, velocity=104, time=12),\n",
      "    Message('note_on', channel=0, note=74, velocity=0, time=48),\n",
      "    Message('note_on', channel=0, note=76, velocity=104, time=12),\n",
      "    Message('note_on', channel=0, note=76, velocity=0, time=48),\n",
      "    Message('note_on', channel=0, note=74, velocity=104, time=12),\n",
      "    Message('note_on', channel=0, note=74, velocity=0, time=48),\n",
      "    Message('note_on', channel=0, note=72, velocity=104, time=12),\n",
      "    Message('note_on', channel=0, note=72, velocity=0, time=48),\n",
      "    Message('note_on', channel=0, note=71, velocity=104, time=12),\n",
      "    Message('note_on', channel=0, note=71, velocity=0, time=48),\n",
      "    Message('note_on', channel=0, note=69, velocity=104, time=12),\n",
      "    Message('note_on', channel=0, note=69, velocity=0, time=48),\n",
      "    Message('note_on', channel=0, note=71, velocity=104, time=12),\n",
      "    Message('note_on', channel=0, note=71, velocity=0, time=48),\n",
      "    Message('note_on', channel=0, note=67, velocity=104, time=12),\n",
      "    Message('note_on', channel=0, note=67, velocity=0, time=48),\n",
      "    Message('note_on', channel=0, note=66, velocity=104, time=12),\n",
      "    Message('note_on', channel=0, note=66, velocity=0, time=48),\n",
      "    Message('note_on', channel=0, note=67, velocity=104, time=12),\n",
      "    Message('note_on', channel=0, note=67, velocity=0, time=48),\n",
      "    Message('note_on', channel=0, note=69, velocity=104, time=12),\n",
      "    Message('note_on', channel=0, note=69, velocity=0, time=48),\n",
      "    Message('note_on', channel=0, note=62, velocity=104, time=12),\n",
      "    Message('note_on', channel=0, note=62, velocity=0, time=48),\n",
      "    Message('note_on', channel=0, note=66, velocity=104, time=12),\n",
      "    Message('note_on', channel=0, note=66, velocity=0, time=48),\n",
      "    Message('note_on', channel=0, note=69, velocity=104, time=12),\n",
      "    Message('note_on', channel=0, note=69, velocity=0, time=48),\n",
      "    Message('note_on', channel=0, note=72, velocity=104, time=12),\n",
      "    Message('note_on', channel=0, note=72, velocity=0, time=48),\n",
      "    Message('note_on', channel=0, note=71, velocity=104, time=12),\n",
      "    Message('note_on', channel=0, note=71, velocity=0, time=48),\n",
      "    Message('note_on', channel=0, note=69, velocity=104, time=12),\n",
      "    Message('note_on', channel=0, note=69, velocity=0, time=48),\n",
      "    Message('note_on', channel=0, note=71, velocity=104, time=12),\n",
      "    Message('note_on', channel=0, note=71, velocity=0, time=48),\n",
      "    Message('note_on', channel=0, note=67, velocity=104, time=12),\n",
      "    Message('note_on', channel=0, note=67, velocity=0, time=48),\n",
      "    Message('note_on', channel=0, note=69, velocity=104, time=12),\n",
      "    Message('note_on', channel=0, note=69, velocity=0, time=48),\n",
      "    Message('note_on', channel=0, note=71, velocity=104, time=12),\n",
      "    Message('note_on', channel=0, note=71, velocity=0, time=48),\n",
      "    Message('note_on', channel=0, note=74, velocity=104, time=12),\n",
      "    Message('note_on', channel=0, note=74, velocity=0, time=48),\n",
      "    Message('note_on', channel=0, note=72, velocity=104, time=12),\n",
      "    Message('note_on', channel=0, note=72, velocity=0, time=48),\n",
      "    Message('note_on', channel=0, note=72, velocity=104, time=12),\n",
      "    Message('note_on', channel=0, note=72, velocity=0, time=48),\n",
      "    Message('note_on', channel=0, note=76, velocity=104, time=12),\n",
      "    Message('note_on', channel=0, note=76, velocity=0, time=48),\n",
      "    Message('note_on', channel=0, note=74, velocity=104, time=12),\n",
      "    Message('note_on', channel=0, note=74, velocity=0, time=48),\n",
      "    Message('note_on', channel=0, note=74, velocity=104, time=12),\n",
      "    Message('note_on', channel=0, note=74, velocity=0, time=48),\n",
      "    Message('note_on', channel=0, note=79, velocity=104, time=12),\n",
      "    Message('note_on', channel=0, note=79, velocity=0, time=48),\n",
      "    Message('note_on', channel=0, note=78, velocity=104, time=12),\n",
      "    Message('note_on', channel=0, note=78, velocity=0, time=48),\n",
      "    Message('note_on', channel=0, note=79, velocity=104, time=12),\n",
      "    Message('note_on', channel=0, note=79, velocity=0, time=48),\n",
      "    Message('note_on', channel=0, note=74, velocity=104, time=12),\n",
      "    Message('note_on', channel=0, note=74, velocity=0, time=48),\n",
      "    Message('note_on', channel=0, note=71, velocity=104, time=12),\n",
      "    Message('note_on', channel=0, note=71, velocity=0, time=48),\n",
      "    Message('note_on', channel=0, note=67, velocity=104, time=12),\n",
      "    Message('note_on', channel=0, note=67, velocity=0, time=48),\n",
      "    Message('note_on', channel=0, note=69, velocity=104, time=12),\n",
      "    Message('note_on', channel=0, note=69, velocity=0, time=48),\n",
      "    Message('note_on', channel=0, note=71, velocity=104, time=12),\n",
      "    Message('note_on', channel=0, note=71, velocity=0, time=48),\n",
      "    Message('note_on', channel=0, note=64, velocity=104, time=12),\n",
      "    Message('note_on', channel=0, note=64, velocity=0, time=48),\n",
      "    Message('note_on', channel=0, note=74, velocity=104, time=12),\n",
      "    Message('note_on', channel=0, note=74, velocity=0, time=48),\n",
      "    Message('note_on', channel=0, note=72, velocity=104, time=12),\n",
      "    Message('note_on', channel=0, note=72, velocity=0, time=48),\n",
      "    Message('note_on', channel=0, note=71, velocity=104, time=12),\n",
      "    Message('note_on', channel=0, note=71, velocity=0, time=48),\n",
      "    Message('note_on', channel=0, note=69, velocity=104, time=12),\n",
      "    Message('note_on', channel=0, note=69, velocity=0, time=48),\n",
      "    Message('note_on', channel=0, note=67, velocity=104, time=12),\n",
      "    Message('note_on', channel=0, note=67, velocity=0, time=48),\n",
      "    Message('note_on', channel=0, note=62, velocity=104, time=12),\n",
      "    Message('note_on', channel=0, note=62, velocity=0, time=48),\n",
      "    Message('note_on', channel=0, note=67, velocity=104, time=12),\n",
      "    Message('note_on', channel=0, note=67, velocity=0, time=48),\n",
      "    Message('note_on', channel=0, note=66, velocity=104, time=12),\n",
      "    Message('note_on', channel=0, note=66, velocity=0, time=48),\n",
      "    Message('note_on', channel=0, note=67, velocity=104, time=12),\n",
      "    Message('note_on', channel=0, note=67, velocity=0, time=48),\n",
      "    Message('note_on', channel=0, note=71, velocity=104, time=12),\n",
      "    Message('note_on', channel=0, note=71, velocity=0, time=48),\n",
      "    Message('note_on', channel=0, note=74, velocity=104, time=12),\n",
      "    Message('note_on', channel=0, note=74, velocity=0, time=48),\n",
      "    Message('note_on', channel=0, note=79, velocity=104, time=12),\n",
      "    Message('note_on', channel=0, note=79, velocity=0, time=48),\n",
      "    Message('note_on', channel=0, note=74, velocity=104, time=12),\n",
      "    Message('note_on', channel=0, note=74, velocity=0, time=48),\n",
      "    Message('note_on', channel=0, note=71, velocity=104, time=12),\n",
      "    Message('note_on', channel=0, note=71, velocity=0, time=48),\n",
      "    Message('note_on', channel=0, note=67, velocity=104, time=12),\n",
      "    Message('note_on', channel=0, note=67, velocity=0, time=48),\n",
      "    Message('note_on', channel=0, note=71, velocity=104, time=12),\n",
      "    Message('note_on', channel=0, note=71, velocity=0, time=48),\n",
      "    Message('note_on', channel=0, note=74, velocity=104, time=12),\n",
      "    Message('note_on', channel=0, note=74, velocity=0, time=48),\n",
      "    Message('note_on', channel=0, note=62, velocity=104, time=12),\n",
      "    Message('note_on', channel=0, note=71, velocity=104, time=0),\n",
      "    Message('note_on', channel=0, note=67, velocity=104, time=0),\n",
      "    Message('note_on', channel=0, note=62, velocity=0, time=336),\n",
      "    Message('note_on', channel=0, note=71, velocity=0, time=0),\n",
      "    Message('note_on', channel=0, note=67, velocity=0, time=0),\n",
      "    Message('note_on', channel=0, note=64, velocity=104, time=24),\n",
      "    Message('note_on', channel=0, note=67, velocity=104, time=0),\n",
      "    Message('note_on', channel=0, note=60, velocity=104, time=0),\n",
      "    Message('note_on', channel=0, note=72, velocity=104, time=0),\n",
      "    Message('note_on', channel=0, note=64, velocity=0, time=168),\n",
      "    Message('note_on', channel=0, note=67, velocity=0, time=0),\n",
      "    Message('note_on', channel=0, note=60, velocity=0, time=0),\n",
      "    Message('note_on', channel=0, note=72, velocity=0, time=0),\n",
      "    Message('note_on', channel=0, note=74, velocity=104, time=12),\n",
      "    Message('note_on', channel=0, note=74, velocity=0, time=336),\n",
      "    Message('note_on', channel=0, note=66, velocity=104, time=24),\n",
      "    Message('note_on', channel=0, note=71, velocity=104, time=0),\n",
      "    Message('note_on', channel=0, note=74, velocity=104, time=0),\n",
      "    Message('note_on', channel=0, note=62, velocity=104, time=0),\n",
      "    Message('note_on', channel=0, note=66, velocity=0, time=168),\n",
      "    Message('note_on', channel=0, note=71, velocity=0, time=0),\n",
      "    Message('note_on', channel=0, note=74, velocity=0, time=0),\n",
      "    Message('note_on', channel=0, note=62, velocity=0, time=0),\n",
      "    Message('note_on', channel=0, note=72, velocity=104, time=12),\n",
      "    Message('note_on', channel=0, note=72, velocity=0, time=336),\n",
      "    Message('note_on', channel=0, note=67, velocity=104, time=24),\n",
      "    Message('note_on', channel=0, note=62, velocity=104, time=0),\n",
      "    Message('note_on', channel=0, note=71, velocity=104, time=0),\n",
      "    Message('note_on', channel=0, note=67, velocity=0, time=168),\n",
      "    Message('note_on', channel=0, note=62, velocity=0, time=0),\n",
      "    Message('note_on', channel=0, note=71, velocity=0, time=0),\n",
      "    Message('note_on', channel=0, note=66, velocity=104, time=12),\n",
      "    Message('note_on', channel=0, note=69, velocity=104, time=0),\n",
      "    Message('note_on', channel=0, note=66, velocity=0, time=48),\n",
      "    Message('note_on', channel=0, note=69, velocity=0, time=0),\n",
      "    Message('note_on', channel=0, note=62, velocity=104, time=12),\n",
      "    Message('note_on', channel=0, note=62, velocity=0, time=48),\n",
      "    Message('note_on', channel=0, note=64, velocity=104, time=12),\n",
      "    Message('note_on', channel=0, note=64, velocity=0, time=48),\n",
      "    Message('note_on', channel=0, note=66, velocity=104, time=12),\n",
      "    Message('note_on', channel=0, note=69, velocity=104, time=0),\n",
      "    Message('note_on', channel=0, note=66, velocity=0, time=48),\n",
      "    Message('note_on', channel=0, note=69, velocity=0, time=0),\n",
      "    Message('note_on', channel=0, note=69, velocity=104, time=12),\n",
      "    Message('note_on', channel=0, note=69, velocity=0, time=48),\n",
      "    Message('note_on', channel=0, note=67, velocity=104, time=12),\n",
      "    Message('note_on', channel=0, note=67, velocity=0, time=48),\n",
      "    Message('note_on', channel=0, note=69, velocity=104, time=12),\n",
      "    Message('note_on', channel=0, note=69, velocity=0, time=48),\n",
      "    Message('note_on', channel=0, note=72, velocity=104, time=12),\n",
      "    Message('note_on', channel=0, note=72, velocity=0, time=48),\n",
      "    Message('note_on', channel=0, note=71, velocity=104, time=12),\n",
      "    Message('note_on', channel=0, note=71, velocity=0, time=48),\n",
      "    Message('note_on', channel=0, note=72, velocity=104, time=12),\n",
      "    Message('note_on', channel=0, note=72, velocity=0, time=48),\n",
      "    Message('note_on', channel=0, note=69, velocity=104, time=12),\n",
      "    Message('note_on', channel=0, note=69, velocity=0, time=48),\n",
      "    Message('note_on', channel=0, note=66, velocity=104, time=12),\n",
      "    Message('note_on', channel=0, note=66, velocity=0, time=48),\n",
      "    Message('note_on', channel=0, note=62, velocity=104, time=12),\n",
      "    Message('note_on', channel=0, note=62, velocity=0, time=48),\n",
      "    Message('note_on', channel=0, note=66, velocity=104, time=12),\n",
      "    Message('note_on', channel=0, note=66, velocity=0, time=48),\n",
      "    Message('note_on', channel=0, note=69, velocity=104, time=12),\n",
      "    Message('note_on', channel=0, note=69, velocity=0, time=48),\n",
      "    Message('note_on', channel=0, note=72, velocity=104, time=12),\n",
      "    Message('note_on', channel=0, note=72, velocity=0, time=48),\n",
      "    Message('note_on', channel=0, note=71, velocity=104, time=12),\n",
      "    Message('note_on', channel=0, note=71, velocity=0, time=48),\n",
      "    Message('note_on', channel=0, note=69, velocity=104, time=12),\n",
      "    Message('note_on', channel=0, note=69, velocity=0, time=48),\n",
      "    Message('note_on', channel=0, note=67, velocity=104, time=12),\n",
      "    Message('note_on', channel=0, note=71, velocity=104, time=0),\n",
      "    Message('note_on', channel=0, note=67, velocity=0, time=336),\n",
      "    Message('note_on', channel=0, note=71, velocity=0, time=0),\n",
      "    Message('note_on', channel=0, note=64, velocity=104, time=24),\n",
      "    Message('note_on', channel=0, note=72, velocity=104, time=0),\n",
      "    Message('note_on', channel=0, note=67, velocity=104, time=0),\n",
      "    Message('note_on', channel=0, note=60, velocity=104, time=0),\n",
      "    Message('note_on', channel=0, note=64, velocity=0, time=168),\n",
      "    Message('note_on', channel=0, note=72, velocity=0, time=0),\n",
      "    Message('note_on', channel=0, note=67, velocity=0, time=0),\n",
      "    Message('note_on', channel=0, note=60, velocity=0, time=0),\n",
      "    Message('note_on', channel=0, note=67, velocity=104, time=12),\n",
      "    Message('note_on', channel=0, note=62, velocity=104, time=0),\n",
      "    Message('note_on', channel=0, note=74, velocity=104, time=0),\n",
      "    Message('note_on', channel=0, note=67, velocity=0, time=336),\n",
      "    Message('note_on', channel=0, note=62, velocity=0, time=0),\n",
      "    Message('note_on', channel=0, note=74, velocity=0, time=0),\n",
      "    Message('note_on', channel=0, note=67, velocity=104, time=24),\n",
      "    Message('note_on', channel=0, note=64, velocity=104, time=0),\n",
      "    Message('note_on', channel=0, note=71, velocity=104, time=0),\n",
      "    Message('note_on', channel=0, note=67, velocity=0, time=168),\n",
      "    Message('note_on', channel=0, note=64, velocity=0, time=0),\n",
      "    Message('note_on', channel=0, note=71, velocity=0, time=0),\n",
      "    Message('note_on', channel=0, note=69, velocity=63, time=12),\n",
      "    Message('note_on', channel=0, note=69, velocity=0, time=116),\n",
      "    Message('note_on', channel=0, note=71, velocity=74, time=4),\n",
      "    Message('note_on', channel=0, note=72, velocity=68, time=30),\n",
      "    Message('note_on', channel=0, note=71, velocity=0, time=14),\n",
      "    Message('note_on', channel=0, note=71, velocity=65, time=16),\n",
      "    Message('note_on', channel=0, note=66, velocity=67, time=0),\n",
      "    Message('note_on', channel=0, note=62, velocity=55, time=0),\n",
      "    Message('note_on', channel=0, note=72, velocity=0, time=14),\n",
      "    Message('note_on', channel=0, note=66, velocity=55, time=166),\n",
      "    Message('note_on', channel=0, note=60, velocity=46, time=0),\n",
      "    Message('note_on', channel=0, note=69, velocity=45, time=0),\n",
      "    Message('note_on', channel=0, note=71, velocity=0, time=8),\n",
      "    Message('note_on', channel=0, note=66, velocity=0, time=0),\n",
      "    Message('note_on', channel=0, note=62, velocity=0, time=0),\n",
      "    Message('note_on', channel=0, note=67, velocity=104, time=172),\n",
      "    Message('note_on', channel=0, note=66, velocity=0, time=8),\n",
      "    Message('note_on', channel=0, note=60, velocity=0, time=0),\n",
      "    Message('note_on', channel=0, note=69, velocity=0, time=0),\n",
      "    Message('note_on', channel=0, note=67, velocity=0, time=40),\n",
      "    Message('note_on', channel=0, note=71, velocity=104, time=12),\n",
      "    Message('note_on', channel=0, note=71, velocity=0, time=48),\n",
      "    Message('note_on', channel=0, note=69, velocity=104, time=12),\n",
      "    Message('note_on', channel=0, note=69, velocity=0, time=48),\n",
      "    Message('note_on', channel=0, note=71, velocity=104, time=12),\n",
      "    Message('note_on', channel=0, note=71, velocity=0, time=48),\n",
      "    Message('note_on', channel=0, note=74, velocity=104, time=12),\n",
      "    Message('note_on', channel=0, note=74, velocity=0, time=48),\n",
      "    Message('note_on', channel=0, note=72, velocity=104, time=12),\n",
      "    Message('note_on', channel=0, note=72, velocity=0, time=48),\n",
      "    Message('note_on', channel=0, note=72, velocity=104, time=12),\n",
      "    Message('note_on', channel=0, note=72, velocity=0, time=48),\n",
      "    Message('note_on', channel=0, note=76, velocity=104, time=12),\n",
      "    Message('note_on', channel=0, note=76, velocity=0, time=48),\n",
      "    Message('note_on', channel=0, note=74, velocity=104, time=12),\n",
      "    Message('note_on', channel=0, note=74, velocity=0, time=48),\n",
      "    Message('note_on', channel=0, note=74, velocity=104, time=12),\n",
      "    Message('note_on', channel=0, note=74, velocity=0, time=48),\n",
      "    Message('note_on', channel=0, note=79, velocity=104, time=12),\n",
      "    Message('note_on', channel=0, note=79, velocity=0, time=48),\n",
      "    Message('note_on', channel=0, note=78, velocity=104, time=12),\n",
      "    Message('note_on', channel=0, note=78, velocity=0, time=48),\n",
      "    Message('note_on', channel=0, note=79, velocity=104, time=12),\n",
      "    Message('note_on', channel=0, note=79, velocity=0, time=48),\n",
      "    Message('note_on', channel=0, note=74, velocity=104, time=12),\n",
      "    Message('note_on', channel=0, note=74, velocity=0, time=48),\n",
      "    Message('note_on', channel=0, note=71, velocity=104, time=12),\n",
      "    Message('note_on', channel=0, note=71, velocity=0, time=48),\n",
      "    Message('note_on', channel=0, note=67, velocity=104, time=12),\n",
      "    Message('note_on', channel=0, note=67, velocity=0, time=48),\n",
      "    Message('note_on', channel=0, note=69, velocity=104, time=12),\n",
      "    Message('note_on', channel=0, note=69, velocity=0, time=48),\n",
      "    Message('note_on', channel=0, note=71, velocity=104, time=12),\n",
      "    Message('note_on', channel=0, note=71, velocity=0, time=48),\n",
      "    Message('note_on', channel=0, note=72, velocity=104, time=12),\n",
      "    Message('note_on', channel=0, note=72, velocity=0, time=48),\n",
      "    Message('note_on', channel=0, note=74, velocity=104, time=12),\n",
      "    Message('note_on', channel=0, note=74, velocity=0, time=48),\n",
      "    Message('note_on', channel=0, note=76, velocity=104, time=12),\n",
      "    Message('note_on', channel=0, note=76, velocity=0, time=48),\n",
      "    Message('note_on', channel=0, note=74, velocity=104, time=12),\n",
      "    Message('note_on', channel=0, note=74, velocity=0, time=48),\n",
      "    Message('note_on', channel=0, note=72, velocity=104, time=12),\n",
      "    Message('note_on', channel=0, note=72, velocity=0, time=48),\n",
      "    Message('note_on', channel=0, note=71, velocity=104, time=12),\n",
      "    Message('note_on', channel=0, note=71, velocity=0, time=48),\n",
      "    Message('note_on', channel=0, note=69, velocity=104, time=12),\n",
      "    Message('note_on', channel=0, note=69, velocity=0, time=48),\n",
      "    Message('note_on', channel=0, note=71, velocity=104, time=12),\n",
      "    Message('note_on', channel=0, note=71, velocity=0, time=48),\n",
      "    Message('note_on', channel=0, note=67, velocity=104, time=12),\n",
      "    Message('note_on', channel=0, note=67, velocity=0, time=48),\n",
      "    Message('note_on', channel=0, note=66, velocity=104, time=12),\n",
      "    Message('note_on', channel=0, note=66, velocity=0, time=48),\n",
      "    Message('note_on', channel=0, note=67, velocity=104, time=12),\n",
      "    Message('note_on', channel=0, note=67, velocity=0, time=48),\n",
      "    Message('note_on', channel=0, note=69, velocity=104, time=12),\n",
      "    Message('note_on', channel=0, note=69, velocity=0, time=48),\n",
      "    Message('note_on', channel=0, note=62, velocity=104, time=12),\n",
      "    Message('note_on', channel=0, note=62, velocity=0, time=48),\n",
      "    Message('note_on', channel=0, note=66, velocity=104, time=12),\n",
      "    Message('note_on', channel=0, note=66, velocity=0, time=48),\n",
      "    Message('note_on', channel=0, note=69, velocity=104, time=12),\n",
      "    Message('note_on', channel=0, note=69, velocity=0, time=48),\n",
      "    Message('note_on', channel=0, note=72, velocity=104, time=12),\n",
      "    Message('note_on', channel=0, note=72, velocity=0, time=48),\n",
      "    Message('note_on', channel=0, note=71, velocity=104, time=12),\n",
      "    Message('note_on', channel=0, note=71, velocity=0, time=48),\n",
      "    Message('note_on', channel=0, note=69, velocity=104, time=12),\n",
      "    Message('note_on', channel=0, note=69, velocity=0, time=48),\n",
      "    Message('note_on', channel=0, note=71, velocity=104, time=12),\n",
      "    Message('note_on', channel=0, note=71, velocity=0, time=48),\n",
      "    Message('note_on', channel=0, note=67, velocity=104, time=12),\n",
      "    Message('note_on', channel=0, note=67, velocity=0, time=48),\n",
      "    Message('note_on', channel=0, note=69, velocity=104, time=12),\n",
      "    Message('note_on', channel=0, note=69, velocity=0, time=48),\n",
      "    Message('note_on', channel=0, note=71, velocity=104, time=12),\n",
      "    Message('note_on', channel=0, note=71, velocity=0, time=48),\n",
      "    Message('note_on', channel=0, note=74, velocity=104, time=12),\n",
      "    Message('note_on', channel=0, note=74, velocity=0, time=48),\n",
      "    Message('note_on', channel=0, note=72, velocity=104, time=12),\n",
      "    Message('note_on', channel=0, note=72, velocity=0, time=48),\n",
      "    Message('note_on', channel=0, note=72, velocity=104, time=12),\n",
      "    Message('note_on', channel=0, note=72, velocity=0, time=48),\n",
      "    Message('note_on', channel=0, note=76, velocity=104, time=12),\n",
      "    Message('note_on', channel=0, note=76, velocity=0, time=48),\n",
      "    Message('note_on', channel=0, note=74, velocity=104, time=12),\n",
      "    Message('note_on', channel=0, note=74, velocity=0, time=48),\n",
      "    Message('note_on', channel=0, note=74, velocity=104, time=12),\n",
      "    Message('note_on', channel=0, note=74, velocity=0, time=48),\n",
      "    Message('note_on', channel=0, note=79, velocity=104, time=12),\n",
      "    Message('note_on', channel=0, note=79, velocity=0, time=48),\n",
      "    Message('note_on', channel=0, note=78, velocity=104, time=12),\n",
      "    Message('note_on', channel=0, note=78, velocity=0, time=48),\n",
      "    Message('note_on', channel=0, note=79, velocity=104, time=12),\n",
      "    Message('note_on', channel=0, note=79, velocity=0, time=48),\n",
      "    Message('note_on', channel=0, note=74, velocity=104, time=12),\n",
      "    Message('note_on', channel=0, note=74, velocity=0, time=48),\n",
      "    Message('note_on', channel=0, note=71, velocity=104, time=12),\n",
      "    Message('note_on', channel=0, note=71, velocity=0, time=48),\n",
      "    Message('note_on', channel=0, note=67, velocity=104, time=12),\n",
      "    Message('note_on', channel=0, note=67, velocity=0, time=48),\n",
      "    Message('note_on', channel=0, note=69, velocity=104, time=12),\n",
      "    Message('note_on', channel=0, note=69, velocity=0, time=48),\n",
      "    Message('note_on', channel=0, note=71, velocity=104, time=12),\n",
      "    Message('note_on', channel=0, note=71, velocity=0, time=48),\n",
      "    Message('note_on', channel=0, note=64, velocity=104, time=12),\n",
      "    Message('note_on', channel=0, note=64, velocity=0, time=48),\n",
      "    Message('note_on', channel=0, note=74, velocity=104, time=12),\n",
      "    Message('note_on', channel=0, note=74, velocity=0, time=48),\n",
      "    Message('note_on', channel=0, note=72, velocity=104, time=12),\n",
      "    Message('note_on', channel=0, note=72, velocity=0, time=48),\n",
      "    Message('note_on', channel=0, note=71, velocity=104, time=12),\n",
      "    Message('note_on', channel=0, note=71, velocity=0, time=48),\n",
      "    Message('note_on', channel=0, note=69, velocity=104, time=12),\n",
      "    Message('note_on', channel=0, note=69, velocity=0, time=48),\n",
      "    Message('note_on', channel=0, note=67, velocity=104, time=12),\n",
      "    Message('note_on', channel=0, note=67, velocity=0, time=48),\n",
      "    Message('note_on', channel=0, note=62, velocity=104, time=12),\n",
      "    Message('note_on', channel=0, note=62, velocity=0, time=48),\n",
      "    Message('note_on', channel=0, note=67, velocity=104, time=12),\n",
      "    Message('note_on', channel=0, note=67, velocity=0, time=48),\n",
      "    Message('note_on', channel=0, note=66, velocity=104, time=12),\n",
      "    Message('note_on', channel=0, note=66, velocity=0, time=48),\n",
      "    Message('note_on', channel=0, note=67, velocity=104, time=12),\n",
      "    Message('note_on', channel=0, note=71, velocity=104, time=0),\n",
      "    Message('note_on', channel=0, note=67, velocity=0, time=336),\n",
      "    Message('note_on', channel=0, note=71, velocity=0, time=0),\n",
      "    Message('note_on', channel=0, note=64, velocity=104, time=24),\n",
      "    Message('note_on', channel=0, note=60, velocity=104, time=0),\n",
      "    Message('note_on', channel=0, note=67, velocity=104, time=0),\n",
      "    Message('note_on', channel=0, note=72, velocity=104, time=0),\n",
      "    Message('note_on', channel=0, note=64, velocity=0, time=168),\n",
      "    Message('note_on', channel=0, note=60, velocity=0, time=0),\n",
      "    Message('note_on', channel=0, note=67, velocity=0, time=0),\n",
      "    Message('note_on', channel=0, note=72, velocity=0, time=0),\n",
      "    Message('note_on', channel=0, note=74, velocity=104, time=12),\n",
      "    Message('note_on', channel=0, note=74, velocity=0, time=336),\n",
      "    Message('note_on', channel=0, note=66, velocity=104, time=24),\n",
      "    Message('note_on', channel=0, note=71, velocity=104, time=0),\n",
      "    Message('note_on', channel=0, note=74, velocity=104, time=0),\n",
      "    Message('note_on', channel=0, note=62, velocity=104, time=0),\n",
      "    Message('note_on', channel=0, note=66, velocity=0, time=168),\n",
      "    Message('note_on', channel=0, note=71, velocity=0, time=0),\n",
      "    Message('note_on', channel=0, note=74, velocity=0, time=0),\n",
      "    Message('note_on', channel=0, note=62, velocity=0, time=0),\n",
      "    Message('note_on', channel=0, note=72, velocity=104, time=12),\n",
      "    Message('note_on', channel=0, note=72, velocity=0, time=336),\n",
      "    Message('note_on', channel=0, note=67, velocity=104, time=24),\n",
      "    Message('note_on', channel=0, note=62, velocity=104, time=0),\n",
      "    Message('note_on', channel=0, note=71, velocity=104, time=0),\n",
      "    Message('note_on', channel=0, note=67, velocity=0, time=168),\n",
      "    Message('note_on', channel=0, note=62, velocity=0, time=0),\n",
      "    Message('note_on', channel=0, note=71, velocity=0, time=0),\n",
      "    Message('note_on', channel=0, note=66, velocity=104, time=12),\n",
      "    Message('note_on', channel=0, note=69, velocity=104, time=0),\n",
      "    Message('note_on', channel=0, note=66, velocity=0, time=48),\n",
      "    Message('note_on', channel=0, note=69, velocity=0, time=0),\n",
      "    Message('note_on', channel=0, note=62, velocity=104, time=12),\n",
      "    Message('note_on', channel=0, note=62, velocity=0, time=48),\n",
      "    Message('note_on', channel=0, note=64, velocity=104, time=12),\n",
      "    Message('note_on', channel=0, note=64, velocity=0, time=48),\n",
      "    Message('note_on', channel=0, note=66, velocity=104, time=12),\n",
      "    Message('note_on', channel=0, note=69, velocity=104, time=0),\n",
      "    Message('note_on', channel=0, note=66, velocity=0, time=48),\n",
      "    Message('note_on', channel=0, note=69, velocity=0, time=0),\n",
      "    Message('note_on', channel=0, note=69, velocity=104, time=12),\n",
      "    Message('note_on', channel=0, note=69, velocity=0, time=48),\n",
      "    Message('note_on', channel=0, note=67, velocity=104, time=12),\n",
      "    Message('note_on', channel=0, note=67, velocity=0, time=48),\n",
      "    Message('note_on', channel=0, note=69, velocity=104, time=12),\n",
      "    Message('note_on', channel=0, note=69, velocity=0, time=48),\n",
      "    Message('note_on', channel=0, note=72, velocity=104, time=12),\n",
      "    Message('note_on', channel=0, note=72, velocity=0, time=48),\n",
      "    Message('note_on', channel=0, note=71, velocity=104, time=12),\n",
      "    Message('note_on', channel=0, note=71, velocity=0, time=48),\n",
      "    Message('note_on', channel=0, note=72, velocity=104, time=12),\n",
      "    Message('note_on', channel=0, note=72, velocity=0, time=48),\n",
      "    Message('note_on', channel=0, note=69, velocity=104, time=12),\n",
      "    Message('note_on', channel=0, note=69, velocity=0, time=48),\n",
      "    Message('note_on', channel=0, note=66, velocity=104, time=12),\n",
      "    Message('note_on', channel=0, note=66, velocity=0, time=48),\n",
      "    Message('note_on', channel=0, note=62, velocity=104, time=12),\n",
      "    Message('note_on', channel=0, note=62, velocity=0, time=48),\n",
      "    Message('note_on', channel=0, note=66, velocity=104, time=12),\n",
      "    Message('note_on', channel=0, note=66, velocity=0, time=48),\n",
      "    Message('note_on', channel=0, note=69, velocity=104, time=12),\n",
      "    Message('note_on', channel=0, note=69, velocity=0, time=48),\n",
      "    Message('note_on', channel=0, note=72, velocity=104, time=12),\n",
      "    Message('note_on', channel=0, note=72, velocity=0, time=48),\n",
      "    Message('note_on', channel=0, note=71, velocity=104, time=12),\n",
      "    Message('note_on', channel=0, note=71, velocity=0, time=48),\n",
      "    Message('note_on', channel=0, note=69, velocity=104, time=12),\n",
      "    Message('note_on', channel=0, note=69, velocity=0, time=48),\n",
      "    Message('note_on', channel=0, note=71, velocity=104, time=12),\n",
      "    Message('note_on', channel=0, note=67, velocity=104, time=0),\n",
      "    Message('note_on', channel=0, note=71, velocity=0, time=336),\n",
      "    Message('note_on', channel=0, note=67, velocity=0, time=0),\n",
      "    Message('note_on', channel=0, note=64, velocity=104, time=24),\n",
      "    Message('note_on', channel=0, note=60, velocity=104, time=0),\n",
      "    Message('note_on', channel=0, note=67, velocity=104, time=0),\n",
      "    Message('note_on', channel=0, note=72, velocity=104, time=0),\n",
      "    Message('note_on', channel=0, note=64, velocity=0, time=168),\n",
      "    Message('note_on', channel=0, note=60, velocity=0, time=0),\n",
      "    Message('note_on', channel=0, note=67, velocity=0, time=0),\n",
      "    Message('note_on', channel=0, note=72, velocity=0, time=0),\n",
      "    Message('note_on', channel=0, note=67, velocity=104, time=12),\n",
      "    Message('note_on', channel=0, note=74, velocity=104, time=0),\n",
      "    Message('note_on', channel=0, note=62, velocity=104, time=0),\n",
      "    Message('note_on', channel=0, note=67, velocity=0, time=336),\n",
      "    Message('note_on', channel=0, note=74, velocity=0, time=0),\n",
      "    Message('note_on', channel=0, note=62, velocity=0, time=0),\n",
      "    Message('note_on', channel=0, note=67, velocity=104, time=24),\n",
      "    Message('note_on', channel=0, note=64, velocity=104, time=0),\n",
      "    Message('note_on', channel=0, note=71, velocity=104, time=0),\n",
      "    Message('note_on', channel=0, note=67, velocity=0, time=168),\n",
      "    Message('note_on', channel=0, note=64, velocity=0, time=0),\n",
      "    Message('note_on', channel=0, note=71, velocity=0, time=0),\n",
      "    Message('note_on', channel=0, note=69, velocity=104, time=12),\n",
      "    Message('note_on', channel=0, note=69, velocity=0, time=116),\n",
      "    Message('note_on', channel=0, note=71, velocity=104, time=4),\n",
      "    Message('note_on', channel=0, note=72, velocity=104, time=30),\n",
      "    Message('note_on', channel=0, note=71, velocity=0, time=14),\n",
      "    Message('note_on', channel=0, note=66, velocity=104, time=16),\n",
      "    Message('note_on', channel=0, note=71, velocity=104, time=0),\n",
      "    Message('note_on', channel=0, note=62, velocity=104, time=0),\n",
      "    Message('note_on', channel=0, note=72, velocity=0, time=14),\n",
      "    Message('note_on', channel=0, note=66, velocity=0, time=154),\n",
      "    Message('note_on', channel=0, note=71, velocity=0, time=0),\n",
      "    Message('note_on', channel=0, note=62, velocity=0, time=0),\n",
      "    Message('note_on', channel=0, note=66, velocity=104, time=12),\n",
      "    Message('note_on', channel=0, note=60, velocity=104, time=0),\n",
      "    Message('note_on', channel=0, note=69, velocity=104, time=0),\n",
      "    Message('note_on', channel=0, note=66, velocity=0, time=168),\n",
      "    Message('note_on', channel=0, note=60, velocity=0, time=0),\n",
      "    Message('note_on', channel=0, note=69, velocity=0, time=0),\n",
      "    Message('note_on', channel=0, note=67, velocity=104, time=12),\n",
      "    Message('note_on', channel=0, note=67, velocity=0, time=48),\n",
      "    Message('note_on', channel=0, note=71, velocity=104, time=12),\n",
      "    Message('note_on', channel=0, note=71, velocity=0, time=48),\n",
      "    Message('note_on', channel=0, note=69, velocity=104, time=12),\n",
      "    Message('note_on', channel=0, note=69, velocity=0, time=48),\n",
      "    Message('note_on', channel=0, note=71, velocity=104, time=12),\n",
      "    Message('note_on', channel=0, note=71, velocity=0, time=48),\n",
      "    Message('note_on', channel=0, note=74, velocity=104, time=12),\n",
      "    Message('note_on', channel=0, note=74, velocity=0, time=48),\n",
      "    Message('note_on', channel=0, note=72, velocity=104, time=12),\n",
      "    Message('note_on', channel=0, note=72, velocity=0, time=48),\n",
      "    Message('note_on', channel=0, note=72, velocity=104, time=12),\n",
      "    Message('note_on', channel=0, note=72, velocity=0, time=48),\n",
      "    Message('note_on', channel=0, note=76, velocity=104, time=12),\n",
      "    Message('note_on', channel=0, note=76, velocity=0, time=48),\n",
      "    Message('note_on', channel=0, note=74, velocity=104, time=12),\n",
      "    Message('note_on', channel=0, note=74, velocity=0, time=48),\n",
      "    Message('note_on', channel=0, note=74, velocity=104, time=12),\n",
      "    Message('note_on', channel=0, note=74, velocity=0, time=48),\n",
      "    Message('note_on', channel=0, note=79, velocity=104, time=12),\n",
      "    Message('note_on', channel=0, note=79, velocity=0, time=48),\n",
      "    Message('note_on', channel=0, note=78, velocity=104, time=12),\n",
      "    Message('note_on', channel=0, note=78, velocity=0, time=48),\n",
      "    Message('note_on', channel=0, note=79, velocity=104, time=12),\n",
      "    Message('note_on', channel=0, note=79, velocity=0, time=48),\n",
      "    Message('note_on', channel=0, note=74, velocity=104, time=12),\n",
      "    Message('note_on', channel=0, note=74, velocity=0, time=48),\n",
      "    Message('note_on', channel=0, note=71, velocity=104, time=12),\n",
      "    Message('note_on', channel=0, note=71, velocity=0, time=48),\n",
      "    Message('note_on', channel=0, note=67, velocity=104, time=12),\n",
      "    Message('note_on', channel=0, note=67, velocity=0, time=48),\n",
      "    Message('note_on', channel=0, note=69, velocity=104, time=12),\n",
      "    Message('note_on', channel=0, note=69, velocity=0, time=48),\n",
      "    Message('note_on', channel=0, note=71, velocity=104, time=12),\n",
      "    Message('note_on', channel=0, note=71, velocity=0, time=48),\n",
      "    Message('note_on', channel=0, note=72, velocity=104, time=12),\n",
      "    Message('note_on', channel=0, note=72, velocity=0, time=48),\n",
      "    Message('note_on', channel=0, note=74, velocity=104, time=12),\n",
      "    Message('note_on', channel=0, note=74, velocity=0, time=48),\n",
      "    Message('note_on', channel=0, note=76, velocity=104, time=12),\n",
      "    Message('note_on', channel=0, note=76, velocity=0, time=48),\n",
      "    Message('note_on', channel=0, note=74, velocity=104, time=12),\n",
      "    Message('note_on', channel=0, note=74, velocity=0, time=48),\n",
      "    Message('note_on', channel=0, note=72, velocity=104, time=12),\n",
      "    Message('note_on', channel=0, note=72, velocity=0, time=48),\n",
      "    Message('note_on', channel=0, note=71, velocity=104, time=12),\n",
      "    Message('note_on', channel=0, note=71, velocity=0, time=48),\n",
      "    Message('note_on', channel=0, note=69, velocity=104, time=12),\n",
      "    Message('note_on', channel=0, note=69, velocity=0, time=48),\n",
      "    Message('note_on', channel=0, note=71, velocity=104, time=12),\n",
      "    Message('note_on', channel=0, note=71, velocity=0, time=48),\n",
      "    Message('note_on', channel=0, note=67, velocity=104, time=12),\n",
      "    Message('note_on', channel=0, note=67, velocity=0, time=48),\n",
      "    Message('note_on', channel=0, note=66, velocity=104, time=12),\n",
      "    Message('note_on', channel=0, note=66, velocity=0, time=48),\n",
      "    Message('note_on', channel=0, note=67, velocity=104, time=12),\n",
      "    Message('note_on', channel=0, note=67, velocity=0, time=48),\n",
      "    Message('note_on', channel=0, note=69, velocity=104, time=12),\n",
      "    Message('note_on', channel=0, note=69, velocity=0, time=48),\n",
      "    Message('note_on', channel=0, note=62, velocity=104, time=12),\n",
      "    Message('note_on', channel=0, note=62, velocity=0, time=48),\n",
      "    Message('note_on', channel=0, note=66, velocity=104, time=12),\n",
      "    Message('note_on', channel=0, note=66, velocity=0, time=48),\n",
      "    Message('note_on', channel=0, note=69, velocity=104, time=12),\n",
      "    Message('note_on', channel=0, note=69, velocity=0, time=48),\n",
      "    Message('note_on', channel=0, note=72, velocity=104, time=12),\n",
      "    Message('note_on', channel=0, note=72, velocity=0, time=48),\n",
      "    Message('note_on', channel=0, note=71, velocity=104, time=12),\n",
      "    Message('note_on', channel=0, note=71, velocity=0, time=48),\n",
      "    Message('note_on', channel=0, note=69, velocity=104, time=12),\n",
      "    Message('note_on', channel=0, note=69, velocity=0, time=48),\n",
      "    Message('note_on', channel=0, note=71, velocity=104, time=12),\n",
      "    Message('note_on', channel=0, note=71, velocity=0, time=48),\n",
      "    Message('note_on', channel=0, note=67, velocity=104, time=12),\n",
      "    Message('note_on', channel=0, note=67, velocity=0, time=48),\n",
      "    Message('note_on', channel=0, note=69, velocity=104, time=12),\n",
      "    Message('note_on', channel=0, note=69, velocity=0, time=48),\n",
      "    Message('note_on', channel=0, note=71, velocity=104, time=12),\n",
      "    Message('note_on', channel=0, note=71, velocity=0, time=48),\n",
      "    Message('note_on', channel=0, note=74, velocity=104, time=12),\n",
      "    Message('note_on', channel=0, note=74, velocity=0, time=48),\n",
      "    Message('note_on', channel=0, note=72, velocity=104, time=12),\n",
      "    Message('note_on', channel=0, note=72, velocity=0, time=48),\n",
      "    Message('note_on', channel=0, note=72, velocity=104, time=12),\n",
      "    Message('note_on', channel=0, note=72, velocity=0, time=48),\n",
      "    Message('note_on', channel=0, note=76, velocity=104, time=12),\n",
      "    Message('note_on', channel=0, note=76, velocity=0, time=48),\n",
      "    Message('note_on', channel=0, note=74, velocity=104, time=12),\n",
      "    Message('note_on', channel=0, note=74, velocity=0, time=48),\n",
      "    Message('note_on', channel=0, note=74, velocity=104, time=12),\n",
      "    Message('note_on', channel=0, note=74, velocity=0, time=48),\n",
      "    Message('note_on', channel=0, note=79, velocity=104, time=12),\n",
      "    Message('note_on', channel=0, note=79, velocity=0, time=48),\n",
      "    Message('note_on', channel=0, note=78, velocity=104, time=12),\n",
      "    Message('note_on', channel=0, note=78, velocity=0, time=48),\n",
      "    Message('note_on', channel=0, note=79, velocity=104, time=12),\n",
      "    Message('note_on', channel=0, note=79, velocity=0, time=48),\n",
      "    Message('note_on', channel=0, note=74, velocity=104, time=12),\n",
      "    Message('note_on', channel=0, note=74, velocity=0, time=48),\n",
      "    Message('note_on', channel=0, note=71, velocity=104, time=12),\n",
      "    Message('note_on', channel=0, note=71, velocity=0, time=48),\n",
      "    Message('note_on', channel=0, note=67, velocity=104, time=12),\n",
      "    Message('note_on', channel=0, note=67, velocity=0, time=48),\n",
      "    Message('note_on', channel=0, note=69, velocity=104, time=12),\n",
      "    Message('note_on', channel=0, note=69, velocity=0, time=48),\n",
      "    Message('note_on', channel=0, note=71, velocity=104, time=12),\n",
      "    Message('note_on', channel=0, note=71, velocity=0, time=48),\n",
      "    Message('note_on', channel=0, note=64, velocity=104, time=12),\n",
      "    Message('note_on', channel=0, note=64, velocity=0, time=48),\n",
      "    Message('note_on', channel=0, note=74, velocity=104, time=12),\n",
      "    Message('note_on', channel=0, note=74, velocity=0, time=48),\n",
      "    Message('note_on', channel=0, note=72, velocity=104, time=12),\n",
      "    Message('note_on', channel=0, note=72, velocity=0, time=48),\n",
      "    Message('note_on', channel=0, note=71, velocity=104, time=12),\n",
      "    Message('note_on', channel=0, note=71, velocity=0, time=48),\n",
      "    Message('note_on', channel=0, note=69, velocity=104, time=12),\n",
      "    Message('note_on', channel=0, note=69, velocity=0, time=48),\n",
      "    Message('note_on', channel=0, note=67, velocity=104, time=12),\n",
      "    Message('note_on', channel=0, note=67, velocity=0, time=48),\n",
      "    Message('note_on', channel=0, note=62, velocity=104, time=12),\n",
      "    Message('note_on', channel=0, note=62, velocity=0, time=48),\n",
      "    Message('note_on', channel=0, note=67, velocity=104, time=12),\n",
      "    Message('note_on', channel=0, note=67, velocity=0, time=48),\n",
      "    Message('note_on', channel=0, note=66, velocity=104, time=12),\n",
      "    Message('note_on', channel=0, note=66, velocity=0, time=48),\n",
      "    Message('note_on', channel=0, note=67, velocity=104, time=12),\n",
      "    Message('note_on', channel=0, note=67, velocity=0, time=48),\n",
      "    Message('note_on', channel=0, note=71, velocity=104, time=12),\n",
      "    Message('note_on', channel=0, note=71, velocity=0, time=48),\n",
      "    Message('note_on', channel=0, note=74, velocity=104, time=12),\n",
      "    Message('note_on', channel=0, note=74, velocity=0, time=48),\n",
      "    Message('note_on', channel=0, note=79, velocity=104, time=12),\n",
      "    Message('note_on', channel=0, note=79, velocity=0, time=48),\n",
      "    Message('note_on', channel=0, note=74, velocity=104, time=12),\n",
      "    Message('note_on', channel=0, note=74, velocity=0, time=48),\n",
      "    Message('note_on', channel=0, note=71, velocity=104, time=12),\n",
      "    Message('note_on', channel=0, note=71, velocity=0, time=48),\n",
      "    Message('note_on', channel=0, note=67, velocity=104, time=12),\n",
      "    Message('note_on', channel=0, note=67, velocity=0, time=168),\n",
      "    Message('note_on', channel=0, note=66, velocity=94, time=13),\n",
      "    Message('note_on', channel=0, note=69, velocity=94, time=0),\n",
      "    Message('note_on', channel=0, note=66, velocity=0, time=336),\n",
      "    Message('note_on', channel=0, note=69, velocity=0, time=0),\n",
      "    Message('note_on', channel=0, note=68, velocity=94, time=24),\n",
      "    Message('note_on', channel=0, note=71, velocity=94, time=0),\n",
      "    Message('note_on', channel=0, note=62, velocity=94, time=0),\n",
      "    Message('note_on', channel=0, note=68, velocity=0, time=168),\n",
      "    Message('note_on', channel=0, note=71, velocity=0, time=0),\n",
      "    Message('note_on', channel=0, note=62, velocity=0, time=0),\n",
      "    Message('note_on', channel=0, note=72, velocity=94, time=12),\n",
      "    Message('note_on', channel=0, note=64, velocity=94, time=0),\n",
      "    Message('note_on', channel=0, note=69, velocity=94, time=0),\n",
      "    Message('note_on', channel=0, note=72, velocity=0, time=336),\n",
      "    Message('note_on', channel=0, note=64, velocity=0, time=0),\n",
      "    Message('note_on', channel=0, note=69, velocity=0, time=0),\n",
      "    Message('note_on', channel=0, note=69, velocity=94, time=24),\n",
      "    Message('note_on', channel=0, note=64, velocity=94, time=0),\n",
      "    Message('note_on', channel=0, note=72, velocity=94, time=0),\n",
      "    Message('note_on', channel=0, note=69, velocity=0, time=168),\n",
      "    Message('note_on', channel=0, note=64, velocity=0, time=0),\n",
      "    Message('note_on', channel=0, note=72, velocity=0, time=0),\n",
      "    Message('note_on', channel=0, note=71, velocity=94, time=12),\n",
      "    Message('note_on', channel=0, note=71, velocity=0, time=276),\n",
      "    Message('note_on', channel=0, note=72, velocity=94, time=24),\n",
      "    Message('note_on', channel=0, note=72, velocity=0, time=24),\n",
      "    Message('note_on', channel=0, note=74, velocity=94, time=6),\n",
      "    Message('note_on', channel=0, note=74, velocity=0, time=24),\n",
      "    Message('note_on', channel=0, note=71, velocity=94, time=6),\n",
      "    Message('note_on', channel=0, note=68, velocity=94, time=0),\n",
      "    Message('note_on', channel=0, note=71, velocity=0, time=168),\n",
      "    Message('note_on', channel=0, note=68, velocity=0, time=0),\n",
      "    Message('note_on', channel=0, note=69, velocity=94, time=12),\n",
      "    Message('note_on', channel=0, note=69, velocity=0, time=168),\n",
      "    Message('note_on', channel=0, note=69, velocity=94, time=12),\n",
      "    Message('note_on', channel=0, note=69, velocity=0, time=48),\n",
      "    Message('note_on', channel=0, note=76, velocity=94, time=12),\n",
      "    Message('note_on', channel=0, note=76, velocity=0, time=48),\n",
      "    Message('note_on', channel=0, note=74, velocity=94, time=12),\n",
      "    Message('note_on', channel=0, note=74, velocity=0, time=48),\n",
      "    Message('note_on', channel=0, note=74, velocity=94, time=12),\n",
      "    Message('note_on', channel=0, note=74, velocity=0, time=48),\n",
      "    Message('note_on', channel=0, note=77, velocity=94, time=12),\n",
      "    Message('note_on', channel=0, note=77, velocity=0, time=48),\n",
      "    Message('note_on', channel=0, note=76, velocity=94, time=12),\n",
      "    Message('note_on', channel=0, note=76, velocity=0, time=48),\n",
      "    Message('note_on', channel=0, note=76, velocity=94, time=12),\n",
      "    Message('note_on', channel=0, note=76, velocity=0, time=48),\n",
      "    Message('note_on', channel=0, note=81, velocity=94, time=12),\n",
      "    Message('note_on', channel=0, note=81, velocity=0, time=48),\n",
      "    Message('note_on', channel=0, note=80, velocity=94, time=12),\n",
      "    Message('note_on', channel=0, note=80, velocity=0, time=48),\n",
      "    Message('note_on', channel=0, note=81, velocity=94, time=12),\n",
      "    Message('note_on', channel=0, note=81, velocity=0, time=48),\n",
      "    Message('note_on', channel=0, note=76, velocity=94, time=12),\n",
      "    Message('note_on', channel=0, note=76, velocity=0, time=48),\n",
      "    Message('note_on', channel=0, note=72, velocity=94, time=12),\n",
      "    Message('note_on', channel=0, note=72, velocity=0, time=48),\n",
      "    Message('note_on', channel=0, note=69, velocity=94, time=12),\n",
      "    Message('note_on', channel=0, note=69, velocity=0, time=48),\n",
      "    Message('note_on', channel=0, note=71, velocity=94, time=12),\n",
      "    Message('note_on', channel=0, note=71, velocity=0, time=48),\n",
      "    Message('note_on', channel=0, note=72, velocity=94, time=12),\n",
      "    Message('note_on', channel=0, note=72, velocity=0, time=48),\n",
      "    Message('note_on', channel=0, note=77, velocity=94, time=12),\n",
      "    Message('note_on', channel=0, note=77, velocity=0, time=48),\n",
      "    Message('note_on', channel=0, note=76, velocity=94, time=12),\n",
      "    Message('note_on', channel=0, note=76, velocity=0, time=48),\n",
      "    Message('note_on', channel=0, note=74, velocity=94, time=12),\n",
      "    Message('note_on', channel=0, note=74, velocity=0, time=48),\n",
      "    Message('note_on', channel=0, note=72, velocity=94, time=12),\n",
      "    Message('note_on', channel=0, note=72, velocity=0, time=48),\n",
      "    Message('note_on', channel=0, note=71, velocity=94, time=12),\n",
      "    Message('note_on', channel=0, note=71, velocity=0, time=48),\n",
      "    Message('note_on', channel=0, note=69, velocity=94, time=12),\n",
      "    Message('note_on', channel=0, note=69, velocity=0, time=48),\n",
      "    Message('note_on', channel=0, note=64, velocity=94, time=12),\n",
      "    Message('note_on', channel=0, note=64, velocity=0, time=48),\n",
      "    Message('note_on', channel=0, note=69, velocity=94, time=12),\n",
      "    Message('note_on', channel=0, note=69, velocity=0, time=48),\n",
      "    Message('note_on', channel=0, note=68, velocity=94, time=12),\n",
      "    Message('note_on', channel=0, note=62, velocity=94, time=0),\n",
      "    Message('note_on', channel=0, note=68, velocity=0, time=48),\n",
      "    Message('note_on', channel=0, note=62, velocity=0, time=0),\n",
      "    Message('note_on', channel=0, note=64, velocity=94, time=12),\n",
      "    Message('note_on', channel=0, note=69, velocity=94, time=0),\n",
      "    Message('note_on', channel=0, note=72, velocity=94, time=0),\n",
      "    Message('note_on', channel=0, note=64, velocity=0, time=336),\n",
      "    Message('note_on', channel=0, note=69, velocity=0, time=0),\n",
      "    Message('note_on', channel=0, note=72, velocity=0, time=0),\n",
      "    Message('note_on', channel=0, note=74, velocity=94, time=24),\n",
      "    Message('note_on', channel=0, note=62, velocity=94, time=0),\n",
      "    Message('note_on', channel=0, note=67, velocity=94, time=0),\n",
      "    Message('note_on', channel=0, note=74, velocity=0, time=168),\n",
      "    Message('note_on', channel=0, note=62, velocity=0, time=0),\n",
      "    Message('note_on', channel=0, note=67, velocity=0, time=0),\n",
      "    Message('note_on', channel=0, note=72, velocity=94, time=12),\n",
      "    Message('note_on', channel=0, note=76, velocity=94, time=0),\n",
      "    Message('note_on', channel=0, note=72, velocity=0, time=336),\n",
      "    Message('note_on', channel=0, note=76, velocity=0, time=0),\n",
      "    Message('note_on', channel=0, note=72, velocity=94, time=24),\n",
      "    Message('note_on', channel=0, note=76, velocity=94, time=0),\n",
      "    Message('note_on', channel=0, note=67, velocity=94, time=0),\n",
      "    Message('note_on', channel=0, note=72, velocity=0, time=168),\n",
      "    Message('note_on', channel=0, note=76, velocity=0, time=0),\n",
      "    Message('note_on', channel=0, note=67, velocity=0, time=0),\n",
      "    Message('note_on', channel=0, note=74, velocity=94, time=12),\n",
      "    Message('note_on', channel=0, note=74, velocity=0, time=276),\n",
      "    Message('note_on', channel=0, note=76, velocity=94, time=24),\n",
      "    Message('note_on', channel=0, note=76, velocity=0, time=24),\n",
      "    Message('note_on', channel=0, note=77, velocity=94, time=6),\n",
      "    Message('note_on', channel=0, note=77, velocity=0, time=24),\n",
      "    Message('note_on', channel=0, note=74, velocity=94, time=6),\n",
      "    Message('note_on', channel=0, note=74, velocity=0, time=168),\n",
      "    Message('note_on', channel=0, note=64, velocity=94, time=12),\n",
      "    Message('note_on', channel=0, note=72, velocity=94, time=0),\n",
      "    Message('note_on', channel=0, note=64, velocity=0, time=168),\n",
      "    Message('note_on', channel=0, note=72, velocity=0, time=0),\n",
      "    Message('note_on', channel=0, note=72, velocity=94, time=12),\n",
      "    Message('note_on', channel=0, note=72, velocity=0, time=48),\n",
      "    Message('note_on', channel=0, note=76, velocity=94, time=12),\n",
      "    Message('note_on', channel=0, note=76, velocity=0, time=48),\n",
      "    Message('note_on', channel=0, note=72, velocity=94, time=12),\n",
      "    Message('note_on', channel=0, note=72, velocity=0, time=48),\n",
      "    Message('note_on', channel=0, note=67, velocity=94, time=12),\n",
      "    Message('note_on', channel=0, note=67, velocity=0, time=48),\n",
      "    Message('note_on', channel=0, note=69, velocity=94, time=12),\n",
      "    Message('note_on', channel=0, note=69, velocity=0, time=48),\n",
      "    Message('note_on', channel=0, note=70, velocity=94, time=12),\n",
      "    Message('note_on', channel=0, note=70, velocity=0, time=48),\n",
      "    Message('note_on', channel=0, note=69, velocity=94, time=12),\n",
      "    Message('note_on', channel=0, note=69, velocity=0, time=48),\n",
      "    Message('note_on', channel=0, note=72, velocity=94, time=12),\n",
      "    Message('note_on', channel=0, note=72, velocity=0, time=48),\n",
      "    Message('note_on', channel=0, note=71, velocity=94, time=12),\n",
      "    Message('note_on', channel=0, note=71, velocity=0, time=48),\n",
      "    Message('note_on', channel=0, note=72, velocity=94, time=12),\n",
      "    Message('note_on', channel=0, note=72, velocity=0, time=48),\n",
      "    Message('note_on', channel=0, note=69, velocity=94, time=12),\n",
      "    Message('note_on', channel=0, note=69, velocity=0, time=48),\n",
      "    Message('note_on', channel=0, note=66, velocity=94, time=12),\n",
      "    Message('note_on', channel=0, note=66, velocity=0, time=48),\n",
      "    Message('note_on', channel=0, note=62, velocity=94, time=12),\n",
      "    Message('note_on', channel=0, note=62, velocity=0, time=48),\n",
      "    Message('note_on', channel=0, note=64, velocity=94, time=12),\n",
      "    Message('note_on', channel=0, note=64, velocity=0, time=48),\n",
      "    Message('note_on', channel=0, note=66, velocity=94, time=12),\n",
      "    Message('note_on', channel=0, note=66, velocity=0, time=48),\n",
      "    Message('note_on', channel=0, note=64, velocity=94, time=12),\n",
      "    Message('note_on', channel=0, note=64, velocity=0, time=48),\n",
      "    Message('note_on', channel=0, note=60, velocity=94, time=12),\n",
      "    Message('note_on', channel=0, note=60, velocity=0, time=48),\n",
      "    Message('note_on', channel=0, note=62, velocity=94, time=12),\n",
      "    Message('note_on', channel=0, note=62, velocity=0, time=48),\n",
      "    Message('note_on', channel=0, note=64, velocity=94, time=12),\n",
      "    Message('note_on', channel=0, note=64, velocity=0, time=48),\n",
      "    Message('note_on', channel=0, note=67, velocity=94, time=12),\n",
      "    Message('note_on', channel=0, note=67, velocity=0, time=48),\n",
      "    Message('note_on', channel=0, note=66, velocity=94, time=12),\n",
      "    Message('note_on', channel=0, note=66, velocity=0, time=48),\n",
      "    Message('note_on', channel=0, note=67, velocity=94, time=12),\n",
      "    Message('note_on', channel=0, note=67, velocity=0, time=48),\n",
      "    Message('note_on', channel=0, note=71, velocity=94, time=12),\n",
      "    Message('note_on', channel=0, note=71, velocity=0, time=48),\n",
      "    Message('note_on', channel=0, note=69, velocity=94, time=12),\n",
      "    Message('note_on', channel=0, note=69, velocity=0, time=48),\n",
      "    Message('note_on', channel=0, note=67, velocity=94, time=12),\n",
      "    Message('note_on', channel=0, note=71, velocity=94, time=0),\n",
      "    Message('note_on', channel=0, note=67, velocity=0, time=336),\n",
      "    Message('note_on', channel=0, note=71, velocity=0, time=0),\n",
      "    Message('note_on', channel=0, note=64, velocity=94, time=24),\n",
      "    Message('note_on', channel=0, note=60, velocity=94, time=0),\n",
      "    Message('note_on', channel=0, note=67, velocity=94, time=0),\n",
      "    Message('note_on', channel=0, note=72, velocity=94, time=0),\n",
      "    Message('note_on', channel=0, note=64, velocity=0, time=168),\n",
      "    Message('note_on', channel=0, note=60, velocity=0, time=0),\n",
      "    Message('note_on', channel=0, note=67, velocity=0, time=0),\n",
      "    Message('note_on', channel=0, note=72, velocity=0, time=0),\n",
      "    Message('note_on', channel=0, note=74, velocity=94, time=12),\n",
      "    Message('note_on', channel=0, note=67, velocity=94, time=0),\n",
      "    Message('note_on', channel=0, note=62, velocity=94, time=0),\n",
      "    Message('note_on', channel=0, note=74, velocity=0, time=336),\n",
      "    Message('note_on', channel=0, note=67, velocity=0, time=0),\n",
      "    Message('note_on', channel=0, note=62, velocity=0, time=0),\n",
      "    Message('note_on', channel=0, note=74, velocity=94, time=24),\n",
      "    Message('note_on', channel=0, note=67, velocity=94, time=0),\n",
      "    Message('note_on', channel=0, note=62, velocity=94, time=0),\n",
      "    Message('note_on', channel=0, note=74, velocity=0, time=168),\n",
      "    Message('note_on', channel=0, note=67, velocity=0, time=0),\n",
      "    Message('note_on', channel=0, note=62, velocity=0, time=0),\n",
      "    Message('note_on', channel=0, note=69, velocity=94, time=12),\n",
      "    Message('note_on', channel=0, note=64, velocity=94, time=0),\n",
      "    Message('note_on', channel=0, note=72, velocity=94, time=0),\n",
      "    Message('note_on', channel=0, note=69, velocity=0, time=168),\n",
      "    Message('note_on', channel=0, note=64, velocity=0, time=0),\n",
      "    Message('note_on', channel=0, note=72, velocity=0, time=0),\n",
      "    Message('note_on', channel=0, note=71, velocity=94, time=12),\n",
      "    Message('note_on', channel=0, note=71, velocity=0, time=336),\n",
      "    Message('note_on', channel=0, note=66, velocity=94, time=24),\n",
      "    Message('note_on', channel=0, note=69, velocity=94, time=0),\n",
      "    Message('note_on', channel=0, note=66, velocity=0, time=48),\n",
      "    Message('note_on', channel=0, note=69, velocity=0, time=0),\n",
      "    Message('note_on', channel=0, note=62, velocity=94, time=12),\n",
      "    Message('note_on', channel=0, note=62, velocity=0, time=48),\n",
      "    Message('note_on', channel=0, note=64, velocity=94, time=12),\n",
      "    Message('note_on', channel=0, note=64, velocity=0, time=48),\n",
      "    Message('note_on', channel=0, note=66, velocity=94, time=12),\n",
      "    Message('note_on', channel=0, note=66, velocity=0, time=48),\n",
      "    Message('note_on', channel=0, note=69, velocity=94, time=12),\n",
      "    Message('note_on', channel=0, note=69, velocity=0, time=48),\n",
      "    Message('note_on', channel=0, note=67, velocity=94, time=12),\n",
      "    Message('note_on', channel=0, note=67, velocity=0, time=48),\n",
      "    Message('note_on', channel=0, note=69, velocity=94, time=12),\n",
      "    Message('note_on', channel=0, note=69, velocity=0, time=48),\n",
      "    Message('note_on', channel=0, note=72, velocity=94, time=12),\n",
      "    Message('note_on', channel=0, note=72, velocity=0, time=48),\n",
      "    Message('note_on', channel=0, note=71, velocity=94, time=12),\n",
      "    Message('note_on', channel=0, note=71, velocity=0, time=48),\n",
      "    Message('note_on', channel=0, note=72, velocity=94, time=12),\n",
      "    Message('note_on', channel=0, note=72, velocity=0, time=48),\n",
      "    Message('note_on', channel=0, note=69, velocity=94, time=12),\n",
      "    Message('note_on', channel=0, note=69, velocity=0, time=48),\n",
      "    Message('note_on', channel=0, note=66, velocity=94, time=12),\n",
      "    Message('note_on', channel=0, note=66, velocity=0, time=48),\n",
      "    Message('note_on', channel=0, note=62, velocity=94, time=12),\n",
      "    Message('note_on', channel=0, note=62, velocity=0, time=48),\n",
      "    Message('note_on', channel=0, note=66, velocity=94, time=12),\n",
      "    Message('note_on', channel=0, note=66, velocity=0, time=48),\n",
      "    Message('note_on', channel=0, note=69, velocity=94, time=12),\n",
      "    Message('note_on', channel=0, note=69, velocity=0, time=48),\n",
      "    Message('note_on', channel=0, note=72, velocity=94, time=12),\n",
      "    Message('note_on', channel=0, note=72, velocity=0, time=48),\n",
      "    Message('note_on', channel=0, note=71, velocity=94, time=12),\n",
      "    Message('note_on', channel=0, note=71, velocity=0, time=48),\n",
      "    Message('note_on', channel=0, note=69, velocity=94, time=12),\n",
      "    Message('note_on', channel=0, note=69, velocity=0, time=48),\n",
      "    Message('note_on', channel=0, note=67, velocity=94, time=12),\n",
      "    Message('note_on', channel=0, note=71, velocity=94, time=0),\n",
      "    Message('note_on', channel=0, note=67, velocity=0, time=336),\n",
      "    Message('note_on', channel=0, note=71, velocity=0, time=0),\n",
      "    Message('note_on', channel=0, note=72, velocity=94, time=24),\n",
      "    Message('note_on', channel=0, note=67, velocity=94, time=0),\n",
      "    Message('note_on', channel=0, note=64, velocity=94, time=0),\n",
      "    Message('note_on', channel=0, note=60, velocity=94, time=0),\n",
      "    Message('note_on', channel=0, note=72, velocity=0, time=168),\n",
      "    Message('note_on', channel=0, note=67, velocity=0, time=0),\n",
      "    Message('note_on', channel=0, note=64, velocity=0, time=0),\n",
      "    Message('note_on', channel=0, note=60, velocity=0, time=0),\n",
      "    Message('note_on', channel=0, note=74, velocity=94, time=12),\n",
      "    Message('note_on', channel=0, note=62, velocity=94, time=0),\n",
      "    Message('note_on', channel=0, note=67, velocity=94, time=0),\n",
      "    Message('note_on', channel=0, note=74, velocity=0, time=336),\n",
      "    Message('note_on', channel=0, note=62, velocity=0, time=0),\n",
      "    Message('note_on', channel=0, note=67, velocity=0, time=0),\n",
      "    Message('note_on', channel=0, note=67, velocity=94, time=24),\n",
      "    Message('note_on', channel=0, note=64, velocity=94, time=0),\n",
      "    Message('note_on', channel=0, note=71, velocity=94, time=0),\n",
      "    Message('note_on', channel=0, note=67, velocity=0, time=168),\n",
      "    Message('note_on', channel=0, note=64, velocity=0, time=0),\n",
      "    Message('note_on', channel=0, note=71, velocity=0, time=0),\n",
      "    Message('note_on', channel=0, note=69, velocity=94, time=12),\n",
      "    Message('note_on', channel=0, note=69, velocity=0, time=96),\n",
      "    Message('note_on', channel=0, note=71, velocity=94, time=24),\n",
      "    Message('note_on', channel=0, note=71, velocity=0, time=24),\n",
      "    Message('note_on', channel=0, note=72, velocity=94, time=6),\n",
      "    Message('note_on', channel=0, note=72, velocity=0, time=24),\n",
      "    Message('note_on', channel=0, note=71, velocity=94, time=6),\n",
      "    Message('note_on', channel=0, note=71, velocity=0, time=168),\n",
      "    Message('note_on', channel=0, note=69, velocity=94, time=12),\n",
      "    Message('note_on', channel=0, note=69, velocity=0, time=168),\n",
      "    Message('note_on', channel=0, note=67, velocity=94, time=12),\n",
      "    Message('note_on', channel=0, note=67, velocity=0, time=48),\n",
      "    Message('note_on', channel=0, note=71, velocity=94, time=12),\n",
      "    Message('note_on', channel=0, note=71, velocity=0, time=48),\n",
      "    Message('note_on', channel=0, note=74, velocity=94, time=12),\n",
      "    Message('note_on', channel=0, note=74, velocity=0, time=48),\n",
      "    Message('note_on', channel=0, note=79, velocity=94, time=12),\n",
      "    Message('note_on', channel=0, note=79, velocity=0, time=48),\n",
      "    Message('note_on', channel=0, note=74, velocity=94, time=12),\n",
      "    Message('note_on', channel=0, note=74, velocity=0, time=48),\n",
      "    Message('note_on', channel=0, note=71, velocity=94, time=12),\n",
      "    Message('note_on', channel=0, note=71, velocity=0, time=48),\n",
      "    Message('note_on', channel=0, note=67, velocity=94, time=12),\n",
      "    Message('note_on', channel=0, note=67, velocity=0, time=48),\n",
      "    Message('note_on', channel=0, note=71, velocity=94, time=12),\n",
      "    Message('note_on', channel=0, note=71, velocity=0, time=48),\n",
      "    Message('note_on', channel=0, note=74, velocity=94, time=12),\n",
      "    Message('note_on', channel=0, note=74, velocity=0, time=48),\n",
      "    Message('note_on', channel=0, note=77, velocity=94, time=12),\n",
      "    Message('note_on', channel=0, note=77, velocity=0, time=48),\n",
      "    Message('note_on', channel=0, note=74, velocity=94, time=12),\n",
      "    Message('note_on', channel=0, note=74, velocity=0, time=48),\n",
      "    Message('note_on', channel=0, note=71, velocity=94, time=12),\n",
      "    Message('note_on', channel=0, note=71, velocity=0, time=48),\n",
      "    Message('note_on', channel=0, note=67, velocity=94, time=12),\n",
      "    Message('note_on', channel=0, note=67, velocity=0, time=48),\n",
      "    Message('note_on', channel=0, note=71, velocity=94, time=12),\n",
      "    Message('note_on', channel=0, note=71, velocity=0, time=48),\n",
      "    Message('note_on', channel=0, note=74, velocity=94, time=12),\n",
      "    Message('note_on', channel=0, note=74, velocity=0, time=48),\n",
      "    Message('note_on', channel=0, note=76, velocity=94, time=12),\n",
      "    Message('note_on', channel=0, note=76, velocity=0, time=48),\n",
      "    Message('note_on', channel=0, note=72, velocity=94, time=12),\n",
      "    Message('note_on', channel=0, note=72, velocity=0, time=48),\n",
      "    Message('note_on', channel=0, note=69, velocity=94, time=12),\n",
      "    Message('note_on', channel=0, note=69, velocity=0, time=48),\n",
      "    Message('note_on', channel=0, note=66, velocity=94, time=12),\n",
      "    Message('note_on', channel=0, note=66, velocity=0, time=48),\n",
      "    Message('note_on', channel=0, note=69, velocity=94, time=12),\n",
      "    Message('note_on', channel=0, note=69, velocity=0, time=48),\n",
      "    Message('note_on', channel=0, note=72, velocity=94, time=12),\n",
      "    Message('note_on', channel=0, note=72, velocity=0, time=48),\n",
      "    Message('note_on', channel=0, note=74, velocity=94, time=12),\n",
      "    Message('note_on', channel=0, note=74, velocity=0, time=48),\n",
      "    Message('note_on', channel=0, note=71, velocity=94, time=12),\n",
      "    Message('note_on', channel=0, note=71, velocity=0, time=48),\n",
      "    Message('note_on', channel=0, note=67, velocity=94, time=12),\n",
      "    Message('note_on', channel=0, note=67, velocity=0, time=48),\n",
      "    Message('note_on', channel=0, note=64, velocity=94, time=12),\n",
      "    Message('note_on', channel=0, note=64, velocity=0, time=48),\n",
      "    Message('note_on', channel=0, note=67, velocity=94, time=12),\n",
      "    Message('note_on', channel=0, note=67, velocity=0, time=48),\n",
      "    Message('note_on', channel=0, note=71, velocity=94, time=12),\n",
      "    Message('note_on', channel=0, note=71, velocity=0, time=48),\n",
      "    Message('note_on', channel=0, note=72, velocity=94, time=12),\n",
      "    Message('note_on', channel=0, note=72, velocity=0, time=48),\n",
      "    Message('note_on', channel=0, note=69, velocity=94, time=12),\n",
      "    Message('note_on', channel=0, note=69, velocity=0, time=48),\n",
      "    Message('note_on', channel=0, note=66, velocity=94, time=12),\n",
      "    Message('note_on', channel=0, note=66, velocity=0, time=48),\n",
      "    Message('note_on', channel=0, note=62, velocity=94, time=12),\n",
      "    Message('note_on', channel=0, note=62, velocity=0, time=48),\n",
      "    Message('note_on', channel=0, note=66, velocity=94, time=12),\n",
      "    Message('note_on', channel=0, note=66, velocity=0, time=48),\n",
      "    Message('note_on', channel=0, note=69, velocity=94, time=12),\n",
      "    Message('note_on', channel=0, note=69, velocity=0, time=48),\n",
      "    Message('note_on', channel=0, note=72, velocity=94, time=12),\n",
      "    Message('note_on', channel=0, note=72, velocity=0, time=48),\n",
      "    Message('note_on', channel=0, note=71, velocity=94, time=12),\n",
      "    Message('note_on', channel=0, note=71, velocity=0, time=48),\n",
      "    Message('note_on', channel=0, note=69, velocity=94, time=12),\n",
      "    Message('note_on', channel=0, note=69, velocity=0, time=48),\n",
      "    Message('note_on', channel=0, note=71, velocity=94, time=12),\n",
      "    Message('note_on', channel=0, note=71, velocity=0, time=48),\n",
      "    Message('note_on', channel=0, note=67, velocity=94, time=12),\n",
      "    Message('note_on', channel=0, note=67, velocity=0, time=48),\n",
      "    Message('note_on', channel=0, note=69, velocity=94, time=12),\n",
      "    Message('note_on', channel=0, note=69, velocity=0, time=48),\n",
      "    Message('note_on', channel=0, note=71, velocity=94, time=12),\n",
      "    Message('note_on', channel=0, note=71, velocity=0, time=48),\n",
      "    Message('note_on', channel=0, note=74, velocity=94, time=12),\n",
      "    Message('note_on', channel=0, note=74, velocity=0, time=48),\n",
      "    Message('note_on', channel=0, note=72, velocity=94, time=12),\n",
      "    Message('note_on', channel=0, note=72, velocity=0, time=48),\n",
      "    Message('note_on', channel=0, note=72, velocity=94, time=12),\n",
      "    Message('note_on', channel=0, note=72, velocity=0, time=48),\n",
      "    Message('note_on', channel=0, note=76, velocity=94, time=12),\n",
      "    Message('note_on', channel=0, note=76, velocity=0, time=48),\n",
      "    Message('note_on', channel=0, note=74, velocity=94, time=12),\n",
      "    Message('note_on', channel=0, note=74, velocity=0, time=48),\n",
      "    Message('note_on', channel=0, note=74, velocity=94, time=12),\n",
      "    Message('note_on', channel=0, note=74, velocity=0, time=48),\n",
      "    Message('note_on', channel=0, note=79, velocity=94, time=12),\n",
      "    Message('note_on', channel=0, note=79, velocity=0, time=48),\n",
      "    Message('note_on', channel=0, note=78, velocity=94, time=12),\n",
      "    Message('note_on', channel=0, note=78, velocity=0, time=48),\n",
      "    Message('note_on', channel=0, note=79, velocity=94, time=12),\n",
      "    Message('note_on', channel=0, note=79, velocity=0, time=48),\n",
      "    Message('note_on', channel=0, note=74, velocity=94, time=12),\n",
      "    Message('note_on', channel=0, note=74, velocity=0, time=48),\n",
      "    Message('note_on', channel=0, note=71, velocity=94, time=12),\n",
      "    Message('note_on', channel=0, note=71, velocity=0, time=48),\n",
      "    Message('note_on', channel=0, note=67, velocity=94, time=12),\n",
      "    Message('note_on', channel=0, note=67, velocity=0, time=48),\n",
      "    Message('note_on', channel=0, note=69, velocity=94, time=12),\n",
      "    Message('note_on', channel=0, note=69, velocity=0, time=48),\n",
      "    Message('note_on', channel=0, note=71, velocity=94, time=12),\n",
      "    Message('note_on', channel=0, note=71, velocity=0, time=48),\n",
      "    Message('note_on', channel=0, note=72, velocity=94, time=12),\n",
      "    Message('note_on', channel=0, note=72, velocity=0, time=48),\n",
      "    Message('note_on', channel=0, note=74, velocity=94, time=12),\n",
      "    Message('note_on', channel=0, note=74, velocity=0, time=48),\n",
      "    Message('note_on', channel=0, note=76, velocity=94, time=12),\n",
      "    Message('note_on', channel=0, note=76, velocity=0, time=48),\n",
      "    Message('note_on', channel=0, note=74, velocity=94, time=12),\n",
      "    Message('note_on', channel=0, note=74, velocity=0, time=48),\n",
      "    Message('note_on', channel=0, note=72, velocity=94, time=12),\n",
      "    Message('note_on', channel=0, note=72, velocity=0, time=48),\n",
      "    Message('note_on', channel=0, note=71, velocity=94, time=12),\n",
      "    Message('note_on', channel=0, note=71, velocity=0, time=48),\n",
      "    Message('note_on', channel=0, note=69, velocity=94, time=12),\n",
      "    Message('note_on', channel=0, note=69, velocity=0, time=48),\n",
      "    Message('note_on', channel=0, note=71, velocity=94, time=12),\n",
      "    Message('note_on', channel=0, note=71, velocity=0, time=48),\n",
      "    Message('note_on', channel=0, note=67, velocity=94, time=12),\n",
      "    Message('note_on', channel=0, note=67, velocity=0, time=48),\n",
      "    Message('note_on', channel=0, note=66, velocity=94, time=12),\n",
      "    Message('note_on', channel=0, note=66, velocity=0, time=48),\n",
      "    Message('note_on', channel=0, note=67, velocity=94, time=12),\n",
      "    Message('note_on', channel=0, note=67, velocity=0, time=48),\n",
      "    Message('note_on', channel=0, note=69, velocity=94, time=12),\n",
      "    Message('note_on', channel=0, note=69, velocity=0, time=48),\n",
      "    Message('note_on', channel=0, note=62, velocity=94, time=12),\n",
      "    Message('note_on', channel=0, note=62, velocity=0, time=48),\n",
      "    Message('note_on', channel=0, note=66, velocity=94, time=12),\n",
      "    Message('note_on', channel=0, note=66, velocity=0, time=48),\n",
      "    Message('note_on', channel=0, note=69, velocity=94, time=12),\n",
      "    Message('note_on', channel=0, note=69, velocity=0, time=48),\n",
      "    Message('note_on', channel=0, note=72, velocity=94, time=12),\n",
      "    Message('note_on', channel=0, note=72, velocity=0, time=48),\n",
      "    Message('note_on', channel=0, note=71, velocity=94, time=12),\n",
      "    Message('note_on', channel=0, note=71, velocity=0, time=48),\n",
      "    Message('note_on', channel=0, note=69, velocity=94, time=12),\n",
      "    Message('note_on', channel=0, note=69, velocity=0, time=48),\n",
      "    Message('note_on', channel=0, note=71, velocity=94, time=12),\n",
      "    Message('note_on', channel=0, note=71, velocity=0, time=48),\n",
      "    Message('note_on', channel=0, note=67, velocity=94, time=12),\n",
      "    Message('note_on', channel=0, note=67, velocity=0, time=48),\n",
      "    Message('note_on', channel=0, note=69, velocity=94, time=12),\n",
      "    Message('note_on', channel=0, note=69, velocity=0, time=48),\n",
      "    Message('note_on', channel=0, note=71, velocity=94, time=12),\n",
      "    Message('note_on', channel=0, note=71, velocity=0, time=48),\n",
      "    Message('note_on', channel=0, note=74, velocity=94, time=12),\n",
      "    Message('note_on', channel=0, note=74, velocity=0, time=48),\n",
      "    Message('note_on', channel=0, note=72, velocity=94, time=12),\n",
      "    Message('note_on', channel=0, note=72, velocity=0, time=48),\n",
      "    Message('note_on', channel=0, note=72, velocity=94, time=12),\n",
      "    Message('note_on', channel=0, note=72, velocity=0, time=48),\n",
      "    Message('note_on', channel=0, note=76, velocity=94, time=12),\n",
      "    Message('note_on', channel=0, note=76, velocity=0, time=48),\n",
      "    Message('note_on', channel=0, note=74, velocity=94, time=12),\n",
      "    Message('note_on', channel=0, note=74, velocity=0, time=48),\n",
      "    Message('note_on', channel=0, note=74, velocity=94, time=12),\n",
      "    Message('note_on', channel=0, note=74, velocity=0, time=48),\n",
      "    Message('note_on', channel=0, note=79, velocity=94, time=12),\n",
      "    Message('note_on', channel=0, note=79, velocity=0, time=48),\n",
      "    Message('note_on', channel=0, note=78, velocity=94, time=12),\n",
      "    Message('note_on', channel=0, note=78, velocity=0, time=48),\n",
      "    Message('note_on', channel=0, note=79, velocity=94, time=12),\n",
      "    Message('note_on', channel=0, note=79, velocity=0, time=48),\n",
      "    Message('note_on', channel=0, note=74, velocity=94, time=12),\n",
      "    Message('note_on', channel=0, note=74, velocity=0, time=48),\n",
      "    Message('note_on', channel=0, note=71, velocity=94, time=12),\n",
      "    Message('note_on', channel=0, note=71, velocity=0, time=48),\n",
      "    Message('note_on', channel=0, note=67, velocity=94, time=12),\n",
      "    Message('note_on', channel=0, note=67, velocity=0, time=48),\n",
      "    Message('note_on', channel=0, note=69, velocity=94, time=12),\n",
      "    Message('note_on', channel=0, note=69, velocity=0, time=48),\n",
      "    Message('note_on', channel=0, note=71, velocity=94, time=12),\n",
      "    Message('note_on', channel=0, note=71, velocity=0, time=48),\n",
      "    Message('note_on', channel=0, note=64, velocity=94, time=12),\n",
      "    Message('note_on', channel=0, note=64, velocity=0, time=48),\n",
      "    Message('note_on', channel=0, note=74, velocity=94, time=12),\n",
      "    Message('note_on', channel=0, note=74, velocity=0, time=48),\n",
      "    Message('note_on', channel=0, note=72, velocity=94, time=12),\n",
      "    Message('note_on', channel=0, note=72, velocity=0, time=48),\n",
      "    Message('note_on', channel=0, note=71, velocity=94, time=12),\n",
      "    Message('note_on', channel=0, note=71, velocity=0, time=48),\n",
      "    Message('note_on', channel=0, note=69, velocity=94, time=12),\n",
      "    Message('note_on', channel=0, note=69, velocity=0, time=48),\n",
      "    Message('note_on', channel=0, note=67, velocity=94, time=12),\n",
      "    Message('note_on', channel=0, note=67, velocity=0, time=48),\n",
      "    Message('note_on', channel=0, note=62, velocity=94, time=12),\n",
      "    Message('note_on', channel=0, note=62, velocity=0, time=48),\n",
      "    Message('note_on', channel=0, note=67, velocity=94, time=12),\n",
      "    Message('note_on', channel=0, note=67, velocity=0, time=48),\n",
      "    Message('note_on', channel=0, note=66, velocity=94, time=12),\n",
      "    Message('note_on', channel=0, note=66, velocity=0, time=48),\n",
      "    Message('note_on', channel=0, note=62, velocity=94, time=12),\n",
      "    Message('note_on', channel=0, note=67, velocity=94, time=0),\n",
      "    Message('note_on', channel=0, note=59, velocity=94, time=0),\n",
      "    Message('note_on', channel=0, note=55, velocity=94, time=0),\n",
      "    Message('note_on', channel=0, note=62, velocity=0, time=456),\n",
      "    Message('note_on', channel=0, note=67, velocity=0, time=0),\n",
      "    Message('note_on', channel=0, note=59, velocity=0, time=0),\n",
      "    Message('note_on', channel=0, note=55, velocity=0, time=0),\n",
      "    MetaMessage('end_of_track', time=0)]),\n",
      "  MidiTrack([\n",
      "    MetaMessage('track_name', name='Desiring', time=0),\n",
      "    MetaMessage('instrument_name', name='Synth Brass 2', time=0),\n",
      "    MetaMessage('midi_port', port=0, time=0),\n",
      "    Message('control_change', channel=1, control=0, value=80, time=0),\n",
      "    Message('control_change', channel=1, control=32, value=0, time=0),\n",
      "    Message('program_change', channel=1, program=63, time=0),\n",
      "    Message('note_on', channel=1, note=67, velocity=85, time=60),\n",
      "    Message('note_on', channel=1, note=67, velocity=0, time=48),\n",
      "    Message('note_on', channel=1, note=69, velocity=85, time=12),\n",
      "    Message('note_on', channel=1, note=69, velocity=0, time=48),\n",
      "    Message('note_on', channel=1, note=67, velocity=85, time=12),\n",
      "    Message('note_on', channel=1, note=67, velocity=0, time=168),\n",
      "    Message('note_on', channel=1, note=67, velocity=85, time=12),\n",
      "    Message('note_on', channel=1, note=67, velocity=0, time=168),\n",
      "    Message('note_on', channel=1, note=67, velocity=85, time=12),\n",
      "    Message('note_on', channel=1, note=67, velocity=0, time=168),\n",
      "    Message('note_on', channel=1, note=67, velocity=85, time=12),\n",
      "    Message('note_on', channel=1, note=67, velocity=0, time=168),\n",
      "    Message('note_on', channel=1, note=67, velocity=85, time=12),\n",
      "    Message('note_on', channel=1, note=67, velocity=0, time=48),\n",
      "    Message('note_on', channel=1, note=69, velocity=85, time=12),\n",
      "    Message('note_on', channel=1, note=69, velocity=0, time=48),\n",
      "    Message('note_on', channel=1, note=71, velocity=85, time=12),\n",
      "    Message('note_on', channel=1, note=71, velocity=0, time=48),\n",
      "    Message('note_on', channel=1, note=72, velocity=85, time=12),\n",
      "    Message('note_on', channel=1, note=72, velocity=0, time=48),\n",
      "    Message('note_on', channel=1, note=74, velocity=85, time=12),\n",
      "    Message('note_on', channel=1, note=74, velocity=0, time=48),\n",
      "    Message('note_on', channel=1, note=76, velocity=85, time=12),\n",
      "    Message('note_on', channel=1, note=76, velocity=0, time=48),\n",
      "    Message('note_on', channel=1, note=74, velocity=85, time=12),\n",
      "    Message('note_on', channel=1, note=74, velocity=0, time=48),\n",
      "    Message('note_on', channel=1, note=72, velocity=85, time=12),\n",
      "    Message('note_on', channel=1, note=72, velocity=0, time=48),\n",
      "    Message('note_on', channel=1, note=71, velocity=85, time=12),\n",
      "    Message('note_on', channel=1, note=71, velocity=0, time=48),\n",
      "    Message('note_on', channel=1, note=69, velocity=85, time=12),\n",
      "    Message('note_on', channel=1, note=69, velocity=0, time=48),\n",
      "    Message('note_on', channel=1, note=71, velocity=85, time=12),\n",
      "    Message('note_on', channel=1, note=71, velocity=0, time=48),\n",
      "    Message('note_on', channel=1, note=67, velocity=85, time=12),\n",
      "    Message('note_on', channel=1, note=67, velocity=0, time=48),\n",
      "    Message('note_on', channel=1, note=66, velocity=85, time=12),\n",
      "    Message('note_on', channel=1, note=66, velocity=0, time=48),\n",
      "    Message('note_on', channel=1, note=67, velocity=85, time=12),\n",
      "    Message('note_on', channel=1, note=67, velocity=0, time=48),\n",
      "    Message('note_on', channel=1, note=69, velocity=85, time=12),\n",
      "    Message('note_on', channel=1, note=69, velocity=0, time=48),\n",
      "    Message('note_on', channel=1, note=62, velocity=85, time=12),\n",
      "    Message('note_on', channel=1, note=62, velocity=0, time=48),\n",
      "    Message('note_on', channel=1, note=66, velocity=85, time=12),\n",
      "    Message('note_on', channel=1, note=66, velocity=0, time=48),\n",
      "    Message('note_on', channel=1, note=69, velocity=85, time=12),\n",
      "    Message('note_on', channel=1, note=69, velocity=0, time=48),\n",
      "    Message('note_on', channel=1, note=72, velocity=85, time=12),\n",
      "    Message('note_on', channel=1, note=72, velocity=0, time=48),\n",
      "    Message('note_on', channel=1, note=71, velocity=85, time=12),\n",
      "    Message('note_on', channel=1, note=71, velocity=0, time=48),\n",
      "    Message('note_on', channel=1, note=69, velocity=85, time=12),\n",
      "    Message('note_on', channel=1, note=69, velocity=0, time=48),\n",
      "    Message('note_on', channel=1, note=71, velocity=85, time=12),\n",
      "    Message('note_on', channel=1, note=71, velocity=0, time=48),\n",
      "    Message('note_on', channel=1, note=67, velocity=85, time=12),\n",
      "    Message('note_on', channel=1, note=67, velocity=0, time=48),\n",
      "    Message('note_on', channel=1, note=69, velocity=85, time=12),\n",
      "    Message('note_on', channel=1, note=69, velocity=0, time=48),\n",
      "    Message('note_on', channel=1, note=67, velocity=85, time=12),\n",
      "    Message('note_on', channel=1, note=67, velocity=0, time=168),\n",
      "    Message('note_on', channel=1, note=67, velocity=85, time=12),\n",
      "    Message('note_on', channel=1, note=67, velocity=0, time=168),\n",
      "    Message('note_on', channel=1, note=67, velocity=85, time=12),\n",
      "    Message('note_on', channel=1, note=67, velocity=0, time=168),\n",
      "    Message('note_on', channel=1, note=67, velocity=85, time=12),\n",
      "    Message('note_on', channel=1, note=67, velocity=0, time=168),\n",
      "    Message('note_on', channel=1, note=66, velocity=85, time=1812),\n",
      "    Message('note_on', channel=1, note=69, velocity=85, time=0),\n",
      "    Message('note_on', channel=1, note=62, velocity=85, time=0),\n",
      "    Message('note_on', channel=1, note=66, velocity=0, time=168),\n",
      "    Message('note_on', channel=1, note=69, velocity=0, time=0),\n",
      "    Message('note_on', channel=1, note=62, velocity=0, time=0),\n",
      "    Message('note_on', channel=1, note=67, velocity=85, time=12),\n",
      "    Message('note_on', channel=1, note=67, velocity=0, time=168),\n",
      "    Message('note_on', channel=1, note=60, velocity=85, time=192),\n",
      "    Message('note_on', channel=1, note=67, velocity=85, time=0),\n",
      "    Message('note_on', channel=1, note=64, velocity=85, time=0),\n",
      "    Message('note_on', channel=1, note=60, velocity=0, time=168),\n",
      "    Message('note_on', channel=1, note=67, velocity=0, time=0),\n",
      "    Message('note_on', channel=1, note=64, velocity=0, time=0),\n",
      "    Message('note_on', channel=1, note=62, velocity=85, time=12),\n",
      "    Message('note_on', channel=1, note=69, velocity=85, time=0),\n",
      "    Message('note_on', channel=1, note=62, velocity=0, time=168),\n",
      "    Message('note_on', channel=1, note=69, velocity=0, time=0),\n",
      "    Message('note_on', channel=1, note=64, velocity=85, time=2352),\n",
      "    Message('note_on', channel=1, note=67, velocity=85, time=0),\n",
      "    Message('note_on', channel=1, note=64, velocity=0, time=168),\n",
      "    Message('note_on', channel=1, note=67, velocity=0, time=0),\n",
      "    Message('note_on', channel=1, note=66, velocity=85, time=12),\n",
      "    Message('note_on', channel=1, note=71, velocity=85, time=0),\n",
      "    Message('note_on', channel=1, note=62, velocity=85, time=0),\n",
      "    Message('note_on', channel=1, note=66, velocity=0, time=168),\n",
      "    Message('note_on', channel=1, note=71, velocity=0, time=0),\n",
      "    Message('note_on', channel=1, note=62, velocity=0, time=0),\n",
      "    Message('note_on', channel=1, note=66, velocity=85, time=12),\n",
      "    Message('note_on', channel=1, note=69, velocity=85, time=0),\n",
      "    Message('note_on', channel=1, note=60, velocity=85, time=0),\n",
      "    Message('note_on', channel=1, note=66, velocity=0, time=168),\n",
      "    Message('note_on', channel=1, note=69, velocity=0, time=0),\n",
      "    Message('note_on', channel=1, note=60, velocity=0, time=0),\n",
      "    Message('note_on', channel=1, note=67, velocity=85, time=192),\n",
      "    Message('note_on', channel=1, note=67, velocity=0, time=168),\n",
      "    Message('note_on', channel=1, note=67, velocity=85, time=12),\n",
      "    Message('note_on', channel=1, note=67, velocity=0, time=168),\n",
      "    Message('note_on', channel=1, note=67, velocity=85, time=12),\n",
      "    Message('note_on', channel=1, note=67, velocity=0, time=168),\n",
      "    Message('note_on', channel=1, note=67, velocity=85, time=12),\n",
      "    Message('note_on', channel=1, note=67, velocity=0, time=168),\n",
      "    Message('note_on', channel=1, note=67, velocity=85, time=1452),\n",
      "    Message('note_on', channel=1, note=67, velocity=0, time=168),\n",
      "    Message('note_on', channel=1, note=67, velocity=85, time=12),\n",
      "    Message('note_on', channel=1, note=67, velocity=0, time=168),\n",
      "    Message('note_on', channel=1, note=67, velocity=85, time=12),\n",
      "    Message('note_on', channel=1, note=67, velocity=0, time=168),\n",
      "    Message('note_on', channel=1, note=67, velocity=85, time=12),\n",
      "    Message('note_on', channel=1, note=67, velocity=0, time=168),\n",
      "    Message('note_on', channel=1, note=66, velocity=85, time=1272),\n",
      "    Message('note_on', channel=1, note=62, velocity=85, time=0),\n",
      "    Message('note_on', channel=1, note=69, velocity=85, time=0),\n",
      "    Message('note_on', channel=1, note=66, velocity=0, time=168),\n",
      "    Message('note_on', channel=1, note=62, velocity=0, time=0),\n",
      "    Message('note_on', channel=1, note=69, velocity=0, time=0),\n",
      "    Message('note_on', channel=1, note=67, velocity=85, time=12),\n",
      "    Message('note_on', channel=1, note=67, velocity=0, time=168),\n",
      "    Message('note_on', channel=1, note=64, velocity=85, time=192),\n",
      "    Message('note_on', channel=1, note=60, velocity=85, time=0),\n",
      "    Message('note_on', channel=1, note=69, velocity=85, time=0),\n",
      "    Message('note_on', channel=1, note=64, velocity=0, time=168),\n",
      "    Message('note_on', channel=1, note=60, velocity=0, time=0),\n",
      "    Message('note_on', channel=1, note=69, velocity=0, time=0),\n",
      "    Message('note_on', channel=1, note=62, velocity=85, time=12),\n",
      "    Message('note_on', channel=1, note=69, velocity=85, time=0),\n",
      "    Message('note_on', channel=1, note=62, velocity=0, time=168),\n",
      "    Message('note_on', channel=1, note=69, velocity=0, time=0),\n",
      "    Message('note_on', channel=1, note=64, velocity=85, time=2352),\n",
      "    Message('note_on', channel=1, note=67, velocity=85, time=0),\n",
      "    Message('note_on', channel=1, note=64, velocity=0, time=168),\n",
      "    Message('note_on', channel=1, note=67, velocity=0, time=0),\n",
      "    Message('note_on', channel=1, note=66, velocity=85, time=12),\n",
      "    Message('note_on', channel=1, note=71, velocity=85, time=0),\n",
      "    Message('note_on', channel=1, note=62, velocity=85, time=0),\n",
      "    Message('note_on', channel=1, note=66, velocity=0, time=168),\n",
      "    Message('note_on', channel=1, note=71, velocity=0, time=0),\n",
      "    Message('note_on', channel=1, note=62, velocity=0, time=0),\n",
      "    Message('note_on', channel=1, note=66, velocity=85, time=12),\n",
      "    Message('note_on', channel=1, note=60, velocity=85, time=0),\n",
      "    Message('note_on', channel=1, note=69, velocity=85, time=0),\n",
      "    Message('note_on', channel=1, note=66, velocity=0, time=168),\n",
      "    Message('note_on', channel=1, note=60, velocity=0, time=0),\n",
      "    Message('note_on', channel=1, note=69, velocity=0, time=0),\n",
      "    Message('note_on', channel=1, note=67, velocity=85, time=192),\n",
      "    Message('note_on', channel=1, note=67, velocity=0, time=168),\n",
      "    Message('note_on', channel=1, note=67, velocity=85, time=12),\n",
      "    Message('note_on', channel=1, note=67, velocity=0, time=168),\n",
      "    Message('note_on', channel=1, note=67, velocity=85, time=12),\n",
      "    Message('note_on', channel=1, note=67, velocity=0, time=168),\n",
      "    Message('note_on', channel=1, note=67, velocity=85, time=12),\n",
      "    Message('note_on', channel=1, note=67, velocity=0, time=168),\n",
      "    Message('note_on', channel=1, note=67, velocity=85, time=1452),\n",
      "    Message('note_on', channel=1, note=67, velocity=0, time=168),\n",
      "    Message('note_on', channel=1, note=67, velocity=85, time=12),\n",
      "    Message('note_on', channel=1, note=67, velocity=0, time=168),\n",
      "    Message('note_on', channel=1, note=67, velocity=85, time=12),\n",
      "    Message('note_on', channel=1, note=67, velocity=0, time=168),\n",
      "    Message('note_on', channel=1, note=67, velocity=85, time=12),\n",
      "    Message('note_on', channel=1, note=67, velocity=0, time=168),\n",
      "    Message('note_on', channel=1, note=69, velocity=85, time=2352),\n",
      "    Message('note_on', channel=1, note=62, velocity=85, time=0),\n",
      "    Message('note_on', channel=1, note=69, velocity=0, time=336),\n",
      "    Message('note_on', channel=1, note=62, velocity=0, time=0),\n",
      "    Message('note_on', channel=1, note=69, velocity=85, time=564),\n",
      "    Message('note_on', channel=1, note=69, velocity=0, time=168),\n",
      "    Message('note_on', channel=1, note=69, velocity=85, time=12),\n",
      "    Message('note_on', channel=1, note=69, velocity=0, time=168),\n",
      "    Message('note_on', channel=1, note=69, velocity=85, time=12),\n",
      "    Message('note_on', channel=1, note=69, velocity=0, time=168),\n",
      "    Message('note_on', channel=1, note=69, velocity=85, time=192),\n",
      "    Message('note_on', channel=1, note=69, velocity=0, time=168),\n",
      "    Message('note_on', channel=1, note=66, velocity=85, time=12),\n",
      "    Message('note_on', channel=1, note=66, velocity=0, time=168),\n",
      "    Message('note_on', channel=1, note=67, velocity=85, time=732),\n",
      "    Message('note_on', channel=1, note=67, velocity=0, time=168),\n",
      "    Message('note_on', channel=1, note=69, velocity=85, time=12),\n",
      "    Message('note_on', channel=1, note=69, velocity=0, time=168),\n",
      "    Message('note_on', channel=1, note=65, velocity=85, time=192),\n",
      "    Message('note_on', channel=1, note=65, velocity=0, time=336),\n",
      "    Message('note_on', channel=1, note=62, velocity=85, time=3084),\n",
      "    Message('note_on', channel=1, note=62, velocity=0, time=168),\n",
      "    Message('note_on', channel=1, note=64, velocity=85, time=12),\n",
      "    Message('note_on', channel=1, note=64, velocity=0, time=168),\n",
      "    Message('note_on', channel=1, note=64, velocity=85, time=2172),\n",
      "    Message('note_on', channel=1, note=67, velocity=85, time=0),\n",
      "    Message('note_on', channel=1, note=64, velocity=0, time=168),\n",
      "    Message('note_on', channel=1, note=67, velocity=0, time=0),\n",
      "    Message('note_on', channel=1, note=67, velocity=85, time=2712),\n",
      "    Message('note_on', channel=1, note=67, velocity=0, time=168),\n",
      "    Message('note_on', channel=1, note=67, velocity=85, time=12),\n",
      "    Message('note_on', channel=1, note=67, velocity=0, time=168),\n",
      "    Message('note_on', channel=1, note=67, velocity=85, time=12),\n",
      "    Message('note_on', channel=1, note=67, velocity=0, time=168),\n",
      "    Message('note_on', channel=1, note=67, velocity=85, time=12),\n",
      "    Message('note_on', channel=1, note=67, velocity=0, time=168),\n",
      "    Message('note_on', channel=1, note=67, velocity=85, time=1452),\n",
      "    Message('note_on', channel=1, note=67, velocity=0, time=168),\n",
      "    Message('note_on', channel=1, note=67, velocity=85, time=12),\n",
      "    Message('note_on', channel=1, note=67, velocity=0, time=168),\n",
      "    Message('note_on', channel=1, note=67, velocity=85, time=12),\n",
      "    Message('note_on', channel=1, note=67, velocity=0, time=168),\n",
      "    Message('note_on', channel=1, note=67, velocity=85, time=12),\n",
      "    Message('note_on', channel=1, note=67, velocity=0, time=168),\n",
      "    Message('note_on', channel=1, note=67, velocity=85, time=1332),\n",
      "    Message('note_on', channel=1, note=67, velocity=0, time=48),\n",
      "    Message('note_on', channel=1, note=69, velocity=85, time=12),\n",
      "    Message('note_on', channel=1, note=69, velocity=0, time=48),\n",
      "    Message('note_on', channel=1, note=67, velocity=85, time=12),\n",
      "    Message('note_on', channel=1, note=67, velocity=0, time=168),\n",
      "    Message('note_on', channel=1, note=67, velocity=85, time=12),\n",
      "    Message('note_on', channel=1, note=67, velocity=0, time=168),\n",
      "    Message('note_on', channel=1, note=67, velocity=85, time=12),\n",
      "    Message('note_on', channel=1, note=67, velocity=0, time=168),\n",
      "    Message('note_on', channel=1, note=67, velocity=85, time=12),\n",
      "    Message('note_on', channel=1, note=67, velocity=0, time=168),\n",
      "    Message('note_on', channel=1, note=67, velocity=85, time=12),\n",
      "    Message('note_on', channel=1, note=67, velocity=0, time=48),\n",
      "    Message('note_on', channel=1, note=69, velocity=85, time=12),\n",
      "    Message('note_on', channel=1, note=69, velocity=0, time=48),\n",
      "    Message('note_on', channel=1, note=71, velocity=85, time=12),\n",
      "    Message('note_on', channel=1, note=71, velocity=0, time=48),\n",
      "    Message('note_on', channel=1, note=72, velocity=85, time=12),\n",
      "    Message('note_on', channel=1, note=72, velocity=0, time=48),\n",
      "    Message('note_on', channel=1, note=74, velocity=85, time=12),\n",
      "    Message('note_on', channel=1, note=74, velocity=0, time=48),\n",
      "    Message('note_on', channel=1, note=76, velocity=85, time=12),\n",
      "    Message('note_on', channel=1, note=76, velocity=0, time=48),\n",
      "    Message('note_on', channel=1, note=74, velocity=85, time=12),\n",
      "    Message('note_on', channel=1, note=74, velocity=0, time=48),\n",
      "    Message('note_on', channel=1, note=72, velocity=85, time=12),\n",
      "    Message('note_on', channel=1, note=72, velocity=0, time=48),\n",
      "    Message('note_on', channel=1, note=71, velocity=85, time=12),\n",
      "    Message('note_on', channel=1, note=71, velocity=0, time=48),\n",
      "    Message('note_on', channel=1, note=69, velocity=85, time=12),\n",
      "    Message('note_on', channel=1, note=69, velocity=0, time=48),\n",
      "    Message('note_on', channel=1, note=71, velocity=85, time=12),\n",
      "    Message('note_on', channel=1, note=71, velocity=0, time=48),\n",
      "    Message('note_on', channel=1, note=67, velocity=85, time=12),\n",
      "    Message('note_on', channel=1, note=67, velocity=0, time=48),\n",
      "    Message('note_on', channel=1, note=66, velocity=85, time=12),\n",
      "    Message('note_on', channel=1, note=66, velocity=0, time=48),\n",
      "    Message('note_on', channel=1, note=67, velocity=85, time=12),\n",
      "    Message('note_on', channel=1, note=67, velocity=0, time=48),\n",
      "    Message('note_on', channel=1, note=69, velocity=85, time=12),\n",
      "    Message('note_on', channel=1, note=69, velocity=0, time=48),\n",
      "    Message('note_on', channel=1, note=62, velocity=85, time=12),\n",
      "    Message('note_on', channel=1, note=62, velocity=0, time=48),\n",
      "    Message('note_on', channel=1, note=66, velocity=85, time=12),\n",
      "    Message('note_on', channel=1, note=66, velocity=0, time=48),\n",
      "    Message('note_on', channel=1, note=69, velocity=85, time=12),\n",
      "    Message('note_on', channel=1, note=69, velocity=0, time=48),\n",
      "    Message('note_on', channel=1, note=72, velocity=85, time=12),\n",
      "    Message('note_on', channel=1, note=72, velocity=0, time=48),\n",
      "    Message('note_on', channel=1, note=71, velocity=85, time=12),\n",
      "    Message('note_on', channel=1, note=71, velocity=0, time=48),\n",
      "    Message('note_on', channel=1, note=69, velocity=85, time=12),\n",
      "    Message('note_on', channel=1, note=69, velocity=0, time=48),\n",
      "    Message('note_on', channel=1, note=71, velocity=85, time=12),\n",
      "    Message('note_on', channel=1, note=71, velocity=0, time=48),\n",
      "    Message('note_on', channel=1, note=67, velocity=85, time=12),\n",
      "    Message('note_on', channel=1, note=67, velocity=0, time=48),\n",
      "    Message('note_on', channel=1, note=69, velocity=85, time=12),\n",
      "    Message('note_on', channel=1, note=69, velocity=0, time=48),\n",
      "    Message('note_on', channel=1, note=67, velocity=85, time=12),\n",
      "    Message('note_on', channel=1, note=67, velocity=0, time=168),\n",
      "    Message('note_on', channel=1, note=67, velocity=85, time=12),\n",
      "    Message('note_on', channel=1, note=67, velocity=0, time=168),\n",
      "    Message('note_on', channel=1, note=67, velocity=85, time=12),\n",
      "    Message('note_on', channel=1, note=67, velocity=0, time=168),\n",
      "    Message('note_on', channel=1, note=67, velocity=85, time=12),\n",
      "    Message('note_on', channel=1, note=67, velocity=0, time=168),\n",
      "    Message('note_on', channel=1, note=66, velocity=85, time=1812),\n",
      "    Message('note_on', channel=1, note=69, velocity=85, time=0),\n",
      "    Message('note_on', channel=1, note=62, velocity=85, time=0),\n",
      "    Message('note_on', channel=1, note=66, velocity=0, time=168),\n",
      "    Message('note_on', channel=1, note=69, velocity=0, time=0),\n",
      "    Message('note_on', channel=1, note=62, velocity=0, time=0),\n",
      "    Message('note_on', channel=1, note=67, velocity=85, time=12),\n",
      "    Message('note_on', channel=1, note=67, velocity=0, time=168),\n",
      "    Message('note_on', channel=1, note=60, velocity=85, time=192),\n",
      "    Message('note_on', channel=1, note=67, velocity=85, time=0),\n",
      "    Message('note_on', channel=1, note=64, velocity=85, time=0),\n",
      "    Message('note_on', channel=1, note=60, velocity=0, time=168),\n",
      "    Message('note_on', channel=1, note=67, velocity=0, time=0),\n",
      "    Message('note_on', channel=1, note=64, velocity=0, time=0),\n",
      "    Message('note_on', channel=1, note=62, velocity=85, time=12),\n",
      "    Message('note_on', channel=1, note=69, velocity=85, time=0),\n",
      "    Message('note_on', channel=1, note=62, velocity=0, time=168),\n",
      "    Message('note_on', channel=1, note=69, velocity=0, time=0),\n",
      "    Message('note_on', channel=1, note=64, velocity=85, time=2352),\n",
      "    Message('note_on', channel=1, note=67, velocity=85, time=0),\n",
      "    Message('note_on', channel=1, note=64, velocity=0, time=168),\n",
      "    Message('note_on', channel=1, note=67, velocity=0, time=0),\n",
      "    Message('note_on', channel=1, note=66, velocity=85, time=12),\n",
      "    Message('note_on', channel=1, note=71, velocity=85, time=0),\n",
      "    Message('note_on', channel=1, note=62, velocity=85, time=0),\n",
      "    Message('note_on', channel=1, note=66, velocity=0, time=168),\n",
      "    Message('note_on', channel=1, note=71, velocity=0, time=0),\n",
      "    Message('note_on', channel=1, note=62, velocity=0, time=0),\n",
      "    Message('note_on', channel=1, note=66, velocity=85, time=12),\n",
      "    Message('note_on', channel=1, note=69, velocity=85, time=0),\n",
      "    Message('note_on', channel=1, note=60, velocity=85, time=0),\n",
      "    Message('note_on', channel=1, note=66, velocity=0, time=168),\n",
      "    Message('note_on', channel=1, note=69, velocity=0, time=0),\n",
      "    Message('note_on', channel=1, note=60, velocity=0, time=0),\n",
      "    Message('note_on', channel=1, note=67, velocity=85, time=192),\n",
      "    Message('note_on', channel=1, note=67, velocity=0, time=168),\n",
      "    Message('note_on', channel=1, note=67, velocity=85, time=12),\n",
      "    Message('note_on', channel=1, note=67, velocity=0, time=168),\n",
      "    Message('note_on', channel=1, note=67, velocity=85, time=12),\n",
      "    Message('note_on', channel=1, note=67, velocity=0, time=168),\n",
      "    Message('note_on', channel=1, note=67, velocity=85, time=12),\n",
      "    Message('note_on', channel=1, note=67, velocity=0, time=168),\n",
      "    Message('note_on', channel=1, note=67, velocity=85, time=1452),\n",
      "    Message('note_on', channel=1, note=67, velocity=0, time=168),\n",
      "    Message('note_on', channel=1, note=67, velocity=85, time=12),\n",
      "    Message('note_on', channel=1, note=67, velocity=0, time=168),\n",
      "    Message('note_on', channel=1, note=67, velocity=85, time=12),\n",
      "    Message('note_on', channel=1, note=67, velocity=0, time=168),\n",
      "    Message('note_on', channel=1, note=67, velocity=85, time=12),\n",
      "    Message('note_on', channel=1, note=67, velocity=0, time=168),\n",
      "    Message('note_on', channel=1, note=66, velocity=85, time=1272),\n",
      "    Message('note_on', channel=1, note=62, velocity=85, time=0),\n",
      "    Message('note_on', channel=1, note=69, velocity=85, time=0),\n",
      "    Message('note_on', channel=1, note=66, velocity=0, time=168),\n",
      "    Message('note_on', channel=1, note=62, velocity=0, time=0),\n",
      "    Message('note_on', channel=1, note=69, velocity=0, time=0),\n",
      "    Message('note_on', channel=1, note=67, velocity=85, time=12),\n",
      "    Message('note_on', channel=1, note=67, velocity=0, time=168),\n",
      "    Message('note_on', channel=1, note=64, velocity=85, time=192),\n",
      "    Message('note_on', channel=1, note=60, velocity=85, time=0),\n",
      "    Message('note_on', channel=1, note=69, velocity=85, time=0),\n",
      "    Message('note_on', channel=1, note=64, velocity=0, time=168),\n",
      "    Message('note_on', channel=1, note=60, velocity=0, time=0),\n",
      "    Message('note_on', channel=1, note=69, velocity=0, time=0),\n",
      "    Message('note_on', channel=1, note=62, velocity=85, time=12),\n",
      "    Message('note_on', channel=1, note=69, velocity=85, time=0),\n",
      "    Message('note_on', channel=1, note=62, velocity=0, time=168),\n",
      "    Message('note_on', channel=1, note=69, velocity=0, time=0),\n",
      "    Message('note_on', channel=1, note=64, velocity=85, time=2352),\n",
      "    Message('note_on', channel=1, note=67, velocity=85, time=0),\n",
      "    Message('note_on', channel=1, note=64, velocity=0, time=168),\n",
      "    Message('note_on', channel=1, note=67, velocity=0, time=0),\n",
      "    Message('note_on', channel=1, note=66, velocity=85, time=12),\n",
      "    Message('note_on', channel=1, note=71, velocity=85, time=0),\n",
      "    Message('note_on', channel=1, note=62, velocity=85, time=0),\n",
      "    Message('note_on', channel=1, note=66, velocity=0, time=168),\n",
      "    Message('note_on', channel=1, note=71, velocity=0, time=0),\n",
      "    Message('note_on', channel=1, note=62, velocity=0, time=0),\n",
      "    Message('note_on', channel=1, note=66, velocity=85, time=12),\n",
      "    Message('note_on', channel=1, note=60, velocity=85, time=0),\n",
      "    Message('note_on', channel=1, note=69, velocity=85, time=0),\n",
      "    Message('note_on', channel=1, note=66, velocity=0, time=168),\n",
      "    Message('note_on', channel=1, note=60, velocity=0, time=0),\n",
      "    Message('note_on', channel=1, note=69, velocity=0, time=0),\n",
      "    Message('note_on', channel=1, note=67, velocity=85, time=192),\n",
      "    Message('note_on', channel=1, note=67, velocity=0, time=168),\n",
      "    Message('note_on', channel=1, note=67, velocity=85, time=12),\n",
      "    Message('note_on', channel=1, note=67, velocity=0, time=168),\n",
      "    Message('note_on', channel=1, note=67, velocity=85, time=12),\n",
      "    Message('note_on', channel=1, note=67, velocity=0, time=168),\n",
      "    Message('note_on', channel=1, note=67, velocity=85, time=12),\n",
      "    Message('note_on', channel=1, note=67, velocity=0, time=168),\n",
      "    Message('note_on', channel=1, note=67, velocity=85, time=1452),\n",
      "    Message('note_on', channel=1, note=67, velocity=0, time=168),\n",
      "    Message('note_on', channel=1, note=67, velocity=85, time=12),\n",
      "    Message('note_on', channel=1, note=67, velocity=0, time=168),\n",
      "    Message('note_on', channel=1, note=67, velocity=85, time=12),\n",
      "    Message('note_on', channel=1, note=67, velocity=0, time=168),\n",
      "    Message('note_on', channel=1, note=67, velocity=85, time=12),\n",
      "    Message('note_on', channel=1, note=67, velocity=0, time=168),\n",
      "    Message('note_on', channel=1, note=69, velocity=85, time=2352),\n",
      "    Message('note_on', channel=1, note=62, velocity=85, time=0),\n",
      "    Message('note_on', channel=1, note=69, velocity=0, time=336),\n",
      "    Message('note_on', channel=1, note=62, velocity=0, time=0),\n",
      "    Message('note_on', channel=1, note=69, velocity=85, time=564),\n",
      "    Message('note_on', channel=1, note=69, velocity=0, time=168),\n",
      "    Message('note_on', channel=1, note=69, velocity=85, time=12),\n",
      "    Message('note_on', channel=1, note=69, velocity=0, time=168),\n",
      "    Message('note_on', channel=1, note=69, velocity=85, time=12),\n",
      "    Message('note_on', channel=1, note=69, velocity=0, time=168),\n",
      "    Message('note_on', channel=1, note=69, velocity=85, time=192),\n",
      "    Message('note_on', channel=1, note=69, velocity=0, time=168),\n",
      "    Message('note_on', channel=1, note=66, velocity=85, time=12),\n",
      "    Message('note_on', channel=1, note=66, velocity=0, time=168),\n",
      "    Message('note_on', channel=1, note=67, velocity=85, time=732),\n",
      "    Message('note_on', channel=1, note=67, velocity=0, time=168),\n",
      "    Message('note_on', channel=1, note=69, velocity=85, time=12),\n",
      "    Message('note_on', channel=1, note=69, velocity=0, time=168),\n",
      "    Message('note_on', channel=1, note=65, velocity=85, time=192),\n",
      "    Message('note_on', channel=1, note=65, velocity=0, time=336),\n",
      "    Message('note_on', channel=1, note=62, velocity=85, time=3084),\n",
      "    Message('note_on', channel=1, note=62, velocity=0, time=168),\n",
      "    Message('note_on', channel=1, note=64, velocity=85, time=12),\n",
      "    Message('note_on', channel=1, note=64, velocity=0, time=168),\n",
      "    Message('note_on', channel=1, note=64, velocity=85, time=2172),\n",
      "    Message('note_on', channel=1, note=67, velocity=85, time=0),\n",
      "    Message('note_on', channel=1, note=64, velocity=0, time=168),\n",
      "    Message('note_on', channel=1, note=67, velocity=0, time=0),\n",
      "    Message('note_on', channel=1, note=67, velocity=85, time=2712),\n",
      "    Message('note_on', channel=1, note=67, velocity=0, time=168),\n",
      "    Message('note_on', channel=1, note=67, velocity=85, time=12),\n",
      "    Message('note_on', channel=1, note=67, velocity=0, time=168),\n",
      "    Message('note_on', channel=1, note=67, velocity=85, time=12),\n",
      "    Message('note_on', channel=1, note=67, velocity=0, time=168),\n",
      "    Message('note_on', channel=1, note=67, velocity=85, time=12),\n",
      "    Message('note_on', channel=1, note=67, velocity=0, time=168),\n",
      "    Message('note_on', channel=1, note=67, velocity=85, time=1452),\n",
      "    Message('note_on', channel=1, note=67, velocity=0, time=168),\n",
      "    Message('note_on', channel=1, note=67, velocity=85, time=12),\n",
      "    Message('note_on', channel=1, note=67, velocity=0, time=168),\n",
      "    Message('note_on', channel=1, note=67, velocity=85, time=12),\n",
      "    Message('note_on', channel=1, note=67, velocity=0, time=168),\n",
      "    Message('note_on', channel=1, note=67, velocity=85, time=12),\n",
      "    Message('note_on', channel=1, note=67, velocity=0, time=168),\n",
      "    MetaMessage('end_of_track', time=0)]),\n",
      "  MidiTrack([\n",
      "    MetaMessage('track_name', name='by J.S. Bach', time=0),\n",
      "    MetaMessage('instrument_name', name='Synth Brass 2', time=0),\n",
      "    MetaMessage('midi_port', port=0, time=0),\n",
      "    Message('control_change', channel=2, control=0, value=80, time=0),\n",
      "    Message('control_change', channel=2, control=32, value=0, time=0),\n",
      "    Message('program_change', channel=2, program=63, time=0),\n",
      "    Message('note_on', channel=2, note=43, velocity=84, time=0),\n",
      "    Message('note_on', channel=2, note=55, velocity=84, time=0),\n",
      "    Message('note_on', channel=2, note=43, velocity=0, time=168),\n",
      "    Message('note_on', channel=2, note=55, velocity=0, time=0),\n",
      "    Message('note_on', channel=2, note=50, velocity=84, time=12),\n",
      "    Message('note_on', channel=2, note=55, velocity=84, time=0),\n",
      "    Message('note_on', channel=2, note=50, velocity=0, time=168),\n",
      "    Message('note_on', channel=2, note=55, velocity=0, time=0),\n",
      "    Message('note_on', channel=2, note=52, velocity=84, time=12),\n",
      "    Message('note_on', channel=2, note=60, velocity=84, time=0),\n",
      "    Message('note_on', channel=2, note=52, velocity=0, time=168),\n",
      "    Message('note_on', channel=2, note=60, velocity=0, time=0),\n",
      "    Message('note_on', channel=2, note=47, velocity=84, time=12),\n",
      "    Message('note_on', channel=2, note=55, velocity=84, time=0),\n",
      "    Message('note_on', channel=2, note=47, velocity=0, time=168),\n",
      "    Message('note_on', channel=2, note=55, velocity=0, time=0),\n",
      "    Message('note_on', channel=2, note=52, velocity=84, time=12),\n",
      "    Message('note_on', channel=2, note=59, velocity=84, time=0),\n",
      "    Message('note_on', channel=2, note=52, velocity=0, time=168),\n",
      "    Message('note_on', channel=2, note=59, velocity=0, time=0),\n",
      "    Message('note_on', channel=2, note=59, velocity=84, time=12),\n",
      "    Message('note_on', channel=2, note=64, velocity=84, time=0),\n",
      "    Message('note_on', channel=2, note=59, velocity=0, time=168),\n",
      "    Message('note_on', channel=2, note=64, velocity=0, time=0),\n",
      "    Message('note_on', channel=2, note=64, velocity=84, time=12),\n",
      "    Message('note_on', channel=2, note=57, velocity=84, time=0),\n",
      "    Message('note_on', channel=2, note=64, velocity=0, time=168),\n",
      "    Message('note_on', channel=2, note=57, velocity=0, time=0),\n",
      "    Message('note_on', channel=2, note=67, velocity=84, time=12),\n",
      "    Message('note_on', channel=2, note=59, velocity=84, time=0),\n",
      "    Message('note_on', channel=2, note=67, velocity=0, time=168),\n",
      "    Message('note_on', channel=2, note=59, velocity=0, time=0),\n",
      "    Message('note_on', channel=2, note=67, velocity=84, time=12),\n",
      "    Message('note_on', channel=2, note=60, velocity=84, time=0),\n",
      "    Message('note_on', channel=2, note=67, velocity=0, time=168),\n",
      "    Message('note_on', channel=2, note=60, velocity=0, time=0),\n",
      "    Message('note_on', channel=2, note=52, velocity=84, time=12),\n",
      "    Message('note_on', channel=2, note=57, velocity=84, time=0),\n",
      "    Message('note_on', channel=2, note=52, velocity=0, time=336),\n",
      "    Message('note_on', channel=2, note=57, velocity=0, time=0),\n",
      "    Message('note_on', channel=2, note=54, velocity=84, time=24),\n",
      "    Message('note_on', channel=2, note=54, velocity=0, time=168),\n",
      "    Message('note_on', channel=2, note=43, velocity=84, time=12),\n",
      "    Message('note_on', channel=2, note=55, velocity=84, time=0),\n",
      "    Message('note_on', channel=2, note=43, velocity=0, time=168),\n",
      "    Message('note_on', channel=2, note=55, velocity=0, time=0),\n",
      "    Message('note_on', channel=2, note=55, velocity=84, time=12),\n",
      "    Message('note_on', channel=2, note=62, velocity=84, time=0),\n",
      "    Message('note_on', channel=2, note=55, velocity=0, time=168),\n",
      "    Message('note_on', channel=2, note=62, velocity=0, time=0),\n",
      "    Message('note_on', channel=2, note=60, velocity=84, time=12),\n",
      "    Message('note_on', channel=2, note=52, velocity=84, time=0),\n",
      "    Message('note_on', channel=2, note=60, velocity=0, time=168),\n",
      "    Message('note_on', channel=2, note=52, velocity=0, time=0),\n",
      "    Message('note_on', channel=2, note=47, velocity=84, time=12),\n",
      "    Message('note_on', channel=2, note=55, velocity=84, time=0),\n",
      "    Message('note_on', channel=2, note=47, velocity=0, time=168),\n",
      "    Message('note_on', channel=2, note=55, velocity=0, time=0),\n",
      "    Message('note_on', channel=2, note=52, velocity=84, time=12),\n",
      "    Message('note_on', channel=2, note=59, velocity=84, time=0),\n",
      "    Message('note_on', channel=2, note=52, velocity=0, time=168),\n",
      "    Message('note_on', channel=2, note=59, velocity=0, time=0),\n",
      "    Message('note_on', channel=2, note=59, velocity=84, time=12),\n",
      "    Message('note_on', channel=2, note=64, velocity=84, time=0),\n",
      "    Message('note_on', channel=2, note=59, velocity=0, time=168),\n",
      "    Message('note_on', channel=2, note=64, velocity=0, time=0),\n",
      "    Message('note_on', channel=2, note=52, velocity=84, time=12),\n",
      "    Message('note_on', channel=2, note=57, velocity=84, time=0),\n",
      "    Message('note_on', channel=2, note=52, velocity=0, time=336),\n",
      "    Message('note_on', channel=2, note=57, velocity=0, time=0),\n",
      "    Message('note_on', channel=2, note=50, velocity=84, time=24),\n",
      "    Message('note_on', channel=2, note=57, velocity=84, time=0),\n",
      "    Message('note_on', channel=2, note=60, velocity=84, time=0),\n",
      "    Message('note_on', channel=2, note=50, velocity=0, time=168),\n",
      "    Message('note_on', channel=2, note=57, velocity=0, time=0),\n",
      "    Message('note_on', channel=2, note=60, velocity=0, time=0),\n",
      "    Message('note_on', channel=2, note=59, velocity=84, time=12),\n",
      "    Message('note_on', channel=2, note=55, velocity=84, time=0),\n",
      "    Message('note_on', channel=2, note=62, velocity=84, time=0),\n",
      "    Message('note_on', channel=2, note=59, velocity=0, time=528),\n",
      "    Message('note_on', channel=2, note=55, velocity=0, time=0),\n",
      "    Message('note_on', channel=2, note=62, velocity=0, time=0),\n",
      "    Message('note_on', channel=2, note=43, velocity=84, time=12),\n",
      "    Message('note_on', channel=2, note=55, velocity=84, time=0),\n",
      "    Message('note_on', channel=2, note=43, velocity=0, time=168),\n",
      "    Message('note_on', channel=2, note=55, velocity=0, time=0),\n",
      "    Message('note_on', channel=2, note=42, velocity=84, time=12),\n",
      "    Message('note_on', channel=2, note=54, velocity=84, time=0),\n",
      "    Message('note_on', channel=2, note=42, velocity=0, time=168),\n",
      "    Message('note_on', channel=2, note=54, velocity=0, time=0),\n",
      "    Message('note_on', channel=2, note=40, velocity=84, time=12),\n",
      "    Message('note_on', channel=2, note=52, velocity=84, time=0),\n",
      "    Message('note_on', channel=2, note=40, velocity=0, time=168),\n",
      "    Message('note_on', channel=2, note=52, velocity=0, time=0),\n",
      "    Message('note_on', channel=2, note=54, velocity=84, time=12),\n",
      "    Message('note_on', channel=2, note=42, velocity=84, time=0),\n",
      "    Message('note_on', channel=2, note=54, velocity=0, time=168),\n",
      "    Message('note_on', channel=2, note=42, velocity=0, time=0),\n",
      "    Message('note_on', channel=2, note=40, velocity=84, time=12),\n",
      "    Message('note_on', channel=2, note=52, velocity=84, time=0),\n",
      "    Message('note_on', channel=2, note=40, velocity=0, time=168),\n",
      "    Message('note_on', channel=2, note=52, velocity=0, time=0),\n",
      "    Message('note_on', channel=2, note=50, velocity=84, time=12),\n",
      "    Message('note_on', channel=2, note=38, velocity=84, time=0),\n",
      "    Message('note_on', channel=2, note=50, velocity=0, time=168),\n",
      "    Message('note_on', channel=2, note=38, velocity=0, time=0),\n",
      "    Message('note_on', channel=2, note=52, velocity=84, time=12),\n",
      "    Message('note_on', channel=2, note=40, velocity=84, time=0),\n",
      "    Message('note_on', channel=2, note=52, velocity=0, time=168),\n",
      "    Message('note_on', channel=2, note=40, velocity=0, time=0),\n",
      "    Message('note_on', channel=2, note=42, velocity=84, time=12),\n",
      "    Message('note_on', channel=2, note=54, velocity=84, time=0),\n",
      "    Message('note_on', channel=2, note=42, velocity=0, time=168),\n",
      "    Message('note_on', channel=2, note=54, velocity=0, time=0),\n",
      "    Message('note_on', channel=2, note=55, velocity=84, time=12),\n",
      "    Message('note_on', channel=2, note=43, velocity=84, time=0),\n",
      "    Message('note_on', channel=2, note=55, velocity=0, time=168),\n",
      "    Message('note_on', channel=2, note=43, velocity=0, time=0),\n",
      "    Message('note_on', channel=2, note=38, velocity=84, time=12),\n",
      "    Message('note_on', channel=2, note=50, velocity=84, time=0),\n",
      "    Message('note_on', channel=2, note=38, velocity=0, time=528),\n",
      "    Message('note_on', channel=2, note=50, velocity=0, time=0),\n",
      "    Message('note_on', channel=2, note=50, velocity=84, time=12),\n",
      "    Message('note_on', channel=2, note=54, velocity=84, time=0),\n",
      "    Message('note_on', channel=2, note=50, velocity=0, time=528),\n",
      "    Message('note_on', channel=2, note=54, velocity=0, time=0),\n",
      "    Message('note_on', channel=2, note=43, velocity=84, time=12),\n",
      "    Message('note_on', channel=2, note=55, velocity=84, time=0),\n",
      "    Message('note_on', channel=2, note=43, velocity=0, time=168),\n",
      "    Message('note_on', channel=2, note=55, velocity=0, time=0),\n",
      "    Message('note_on', channel=2, note=42, velocity=84, time=12),\n",
      "    Message('note_on', channel=2, note=54, velocity=84, time=0),\n",
      "    Message('note_on', channel=2, note=42, velocity=0, time=168),\n",
      "    Message('note_on', channel=2, note=54, velocity=0, time=0),\n",
      "    Message('note_on', channel=2, note=52, velocity=84, time=12),\n",
      "    Message('note_on', channel=2, note=40, velocity=84, time=0),\n",
      "    Message('note_on', channel=2, note=52, velocity=0, time=168),\n",
      "    Message('note_on', channel=2, note=40, velocity=0, time=0),\n",
      "    Message('note_on', channel=2, note=59, velocity=84, time=12),\n",
      "    Message('note_on', channel=2, note=47, velocity=84, time=0),\n",
      "    Message('note_on', channel=2, note=59, velocity=0, time=168),\n",
      "    Message('note_on', channel=2, note=47, velocity=0, time=0),\n",
      "    Message('note_on', channel=2, note=47, velocity=84, time=12),\n",
      "    Message('note_on', channel=2, note=35, velocity=84, time=0),\n",
      "    Message('note_on', channel=2, note=47, velocity=0, time=168),\n",
      "    Message('note_on', channel=2, note=35, velocity=0, time=0),\n",
      "    Message('note_on', channel=2, note=52, velocity=84, time=12),\n",
      "    Message('note_on', channel=2, note=40, velocity=84, time=0),\n",
      "    Message('note_on', channel=2, note=52, velocity=0, time=168),\n",
      "    Message('note_on', channel=2, note=40, velocity=0, time=0),\n",
      "    Message('note_on', channel=2, note=48, velocity=84, time=12),\n",
      "    Message('note_on', channel=2, note=36, velocity=84, time=0),\n",
      "    Message('note_on', channel=2, note=48, velocity=0, time=168),\n",
      "    Message('note_on', channel=2, note=36, velocity=0, time=0),\n",
      "    Message('note_on', channel=2, note=38, velocity=84, time=12),\n",
      "    Message('note_on', channel=2, note=50, velocity=84, time=0),\n",
      "    Message('note_on', channel=2, note=38, velocity=0, time=336),\n",
      "    Message('note_on', channel=2, note=50, velocity=0, time=0),\n",
      "    Message('note_on', channel=2, note=43, velocity=84, time=24),\n",
      "    Message('note_on', channel=2, note=55, velocity=84, time=0),\n",
      "    Message('note_on', channel=2, note=43, velocity=0, time=168),\n",
      "    Message('note_on', channel=2, note=55, velocity=0, time=0),\n",
      "    Message('note_on', channel=2, note=55, velocity=84, time=12),\n",
      "    Message('note_on', channel=2, note=62, velocity=84, time=0),\n",
      "    Message('note_on', channel=2, note=55, velocity=0, time=168),\n",
      "    Message('note_on', channel=2, note=62, velocity=0, time=0),\n",
      "    Message('note_on', channel=2, note=52, velocity=84, time=12),\n",
      "    Message('note_on', channel=2, note=60, velocity=84, time=0),\n",
      "    Message('note_on', channel=2, note=52, velocity=0, time=168),\n",
      "    Message('note_on', channel=2, note=60, velocity=0, time=0),\n",
      "    Message('note_on', channel=2, note=47, velocity=84, time=12),\n",
      "    Message('note_on', channel=2, note=55, velocity=84, time=0),\n",
      "    Message('note_on', channel=2, note=47, velocity=0, time=168),\n",
      "    Message('note_on', channel=2, note=55, velocity=0, time=0),\n",
      "    Message('note_on', channel=2, note=52, velocity=84, time=12),\n",
      "    Message('note_on', channel=2, note=59, velocity=84, time=0),\n",
      "    Message('note_on', channel=2, note=52, velocity=0, time=168),\n",
      "    Message('note_on', channel=2, note=59, velocity=0, time=0),\n",
      "    Message('note_on', channel=2, note=59, velocity=84, time=12),\n",
      "    Message('note_on', channel=2, note=64, velocity=84, time=0),\n",
      "    Message('note_on', channel=2, note=59, velocity=0, time=168),\n",
      "    Message('note_on', channel=2, note=64, velocity=0, time=0),\n",
      "    Message('note_on', channel=2, note=57, velocity=84, time=12),\n",
      "    Message('note_on', channel=2, note=64, velocity=84, time=0),\n",
      "    Message('note_on', channel=2, note=57, velocity=0, time=168),\n",
      "    Message('note_on', channel=2, note=64, velocity=0, time=0),\n",
      "    Message('note_on', channel=2, note=67, velocity=84, time=12),\n",
      "    Message('note_on', channel=2, note=59, velocity=84, time=0),\n",
      "    Message('note_on', channel=2, note=67, velocity=0, time=168),\n",
      "    Message('note_on', channel=2, note=59, velocity=0, time=0),\n",
      "    Message('note_on', channel=2, note=60, velocity=84, time=12),\n",
      "    Message('note_on', channel=2, note=64, velocity=84, time=0),\n",
      "    Message('note_on', channel=2, note=60, velocity=0, time=168),\n",
      "    Message('note_on', channel=2, note=64, velocity=0, time=0),\n",
      "    Message('note_on', channel=2, note=50, velocity=84, time=12),\n",
      "    Message('note_on', channel=2, note=57, velocity=84, time=0),\n",
      "    Message('note_on', channel=2, note=50, velocity=0, time=336),\n",
      "    Message('note_on', channel=2, note=57, velocity=0, time=0),\n",
      "    Message('note_on', channel=2, note=54, velocity=84, time=24),\n",
      "    Message('note_on', channel=2, note=54, velocity=0, time=168),\n",
      "    Message('note_on', channel=2, note=43, velocity=84, time=12),\n",
      "    Message('note_on', channel=2, note=55, velocity=84, time=0),\n",
      "    Message('note_on', channel=2, note=43, velocity=0, time=168),\n",
      "    Message('note_on', channel=2, note=55, velocity=0, time=0),\n",
      "    Message('note_on', channel=2, note=62, velocity=84, time=12),\n",
      "    Message('note_on', channel=2, note=55, velocity=84, time=0),\n",
      "    Message('note_on', channel=2, note=62, velocity=0, time=168),\n",
      "    Message('note_on', channel=2, note=55, velocity=0, time=0),\n",
      "    Message('note_on', channel=2, note=52, velocity=84, time=12),\n",
      "    Message('note_on', channel=2, note=60, velocity=84, time=0),\n",
      "    Message('note_on', channel=2, note=52, velocity=0, time=168),\n",
      "    Message('note_on', channel=2, note=60, velocity=0, time=0),\n",
      "    Message('note_on', channel=2, note=47, velocity=84, time=12),\n",
      "    Message('note_on', channel=2, note=55, velocity=84, time=0),\n",
      "    Message('note_on', channel=2, note=47, velocity=0, time=168),\n",
      "    Message('note_on', channel=2, note=55, velocity=0, time=0),\n",
      "    Message('note_on', channel=2, note=59, velocity=84, time=12),\n",
      "    Message('note_on', channel=2, note=52, velocity=84, time=0),\n",
      "    Message('note_on', channel=2, note=59, velocity=0, time=168),\n",
      "    Message('note_on', channel=2, note=52, velocity=0, time=0),\n",
      "    Message('note_on', channel=2, note=59, velocity=84, time=12),\n",
      "    Message('note_on', channel=2, note=64, velocity=84, time=0),\n",
      "    Message('note_on', channel=2, note=59, velocity=0, time=168),\n",
      "    Message('note_on', channel=2, note=64, velocity=0, time=0),\n",
      "    Message('note_on', channel=2, note=48, velocity=84, time=12),\n",
      "    Message('note_on', channel=2, note=57, velocity=84, time=0),\n",
      "    Message('note_on', channel=2, note=48, velocity=0, time=336),\n",
      "    Message('note_on', channel=2, note=57, velocity=0, time=0),\n",
      "    Message('note_on', channel=2, note=52, velocity=84, time=24),\n",
      "    Message('note_on', channel=2, note=57, velocity=84, time=0),\n",
      "    Message('note_on', channel=2, note=60, velocity=84, time=0),\n",
      "    Message('note_on', channel=2, note=52, velocity=0, time=168),\n",
      "    Message('note_on', channel=2, note=57, velocity=0, time=0),\n",
      "    Message('note_on', channel=2, note=60, velocity=0, time=0),\n",
      "    Message('note_on', channel=2, note=43, velocity=84, time=12),\n",
      "    Message('note_on', channel=2, note=55, velocity=84, time=0),\n",
      "    Message('note_on', channel=2, note=43, velocity=0, time=168),\n",
      "    Message('note_on', channel=2, note=55, velocity=0, time=0),\n",
      "    Message('note_on', channel=2, note=54, velocity=84, time=12),\n",
      "    Message('note_on', channel=2, note=42, velocity=84, time=0),\n",
      "    Message('note_on', channel=2, note=54, velocity=0, time=168),\n",
      "    Message('note_on', channel=2, note=42, velocity=0, time=0),\n",
      "    Message('note_on', channel=2, note=52, velocity=84, time=12),\n",
      "    Message('note_on', channel=2, note=40, velocity=84, time=0),\n",
      "    Message('note_on', channel=2, note=52, velocity=0, time=168),\n",
      "    Message('note_on', channel=2, note=40, velocity=0, time=0),\n",
      "    Message('note_on', channel=2, note=42, velocity=84, time=12),\n",
      "    Message('note_on', channel=2, note=54, velocity=84, time=0),\n",
      "    Message('note_on', channel=2, note=42, velocity=0, time=168),\n",
      "    Message('note_on', channel=2, note=54, velocity=0, time=0),\n",
      "    Message('note_on', channel=2, note=40, velocity=84, time=12),\n",
      "    Message('note_on', channel=2, note=52, velocity=84, time=0),\n",
      "    Message('note_on', channel=2, note=40, velocity=0, time=168),\n",
      "    Message('note_on', channel=2, note=52, velocity=0, time=0),\n",
      "    Message('note_on', channel=2, note=38, velocity=84, time=12),\n",
      "    Message('note_on', channel=2, note=50, velocity=84, time=0),\n",
      "    Message('note_on', channel=2, note=38, velocity=0, time=168),\n",
      "    Message('note_on', channel=2, note=50, velocity=0, time=0),\n",
      "    Message('note_on', channel=2, note=40, velocity=84, time=12),\n",
      "    Message('note_on', channel=2, note=52, velocity=84, time=0),\n",
      "    Message('note_on', channel=2, note=40, velocity=0, time=168),\n",
      "    Message('note_on', channel=2, note=52, velocity=0, time=0),\n",
      "    Message('note_on', channel=2, note=42, velocity=84, time=12),\n",
      "    Message('note_on', channel=2, note=54, velocity=84, time=0),\n",
      "    Message('note_on', channel=2, note=42, velocity=0, time=168),\n",
      "    Message('note_on', channel=2, note=54, velocity=0, time=0),\n",
      "    Message('note_on', channel=2, note=43, velocity=84, time=12),\n",
      "    Message('note_on', channel=2, note=55, velocity=84, time=0),\n",
      "    Message('note_on', channel=2, note=43, velocity=0, time=168),\n",
      "    Message('note_on', channel=2, note=55, velocity=0, time=0),\n",
      "    Message('note_on', channel=2, note=50, velocity=84, time=12),\n",
      "    Message('note_on', channel=2, note=38, velocity=84, time=0),\n",
      "    Message('note_on', channel=2, note=50, velocity=0, time=528),\n",
      "    Message('note_on', channel=2, note=38, velocity=0, time=0),\n",
      "    Message('note_on', channel=2, note=50, velocity=84, time=12),\n",
      "    Message('note_on', channel=2, note=54, velocity=84, time=0),\n",
      "    Message('note_on', channel=2, note=50, velocity=0, time=528),\n",
      "    Message('note_on', channel=2, note=54, velocity=0, time=0),\n",
      "    Message('note_on', channel=2, note=43, velocity=84, time=12),\n",
      "    Message('note_on', channel=2, note=55, velocity=84, time=0),\n",
      "    Message('note_on', channel=2, note=43, velocity=0, time=168),\n",
      "    Message('note_on', channel=2, note=55, velocity=0, time=0),\n",
      "    Message('note_on', channel=2, note=42, velocity=84, time=12),\n",
      "    Message('note_on', channel=2, note=54, velocity=84, time=0),\n",
      "    Message('note_on', channel=2, note=42, velocity=0, time=168),\n",
      "    Message('note_on', channel=2, note=54, velocity=0, time=0),\n",
      "    Message('note_on', channel=2, note=40, velocity=84, time=12),\n",
      "    Message('note_on', channel=2, note=52, velocity=84, time=0),\n",
      "    Message('note_on', channel=2, note=40, velocity=0, time=168),\n",
      "    Message('note_on', channel=2, note=52, velocity=0, time=0),\n",
      "    Message('note_on', channel=2, note=47, velocity=84, time=12),\n",
      "    Message('note_on', channel=2, note=59, velocity=84, time=0),\n",
      "    Message('note_on', channel=2, note=47, velocity=0, time=168),\n",
      "    Message('note_on', channel=2, note=59, velocity=0, time=0),\n",
      "    Message('note_on', channel=2, note=47, velocity=84, time=12),\n",
      "    Message('note_on', channel=2, note=35, velocity=84, time=0),\n",
      "    Message('note_on', channel=2, note=47, velocity=0, time=168),\n",
      "    Message('note_on', channel=2, note=35, velocity=0, time=0),\n",
      "    Message('note_on', channel=2, note=52, velocity=84, time=12),\n",
      "    Message('note_on', channel=2, note=40, velocity=84, time=0),\n",
      "    Message('note_on', channel=2, note=52, velocity=0, time=168),\n",
      "    Message('note_on', channel=2, note=40, velocity=0, time=0),\n",
      "    Message('note_on', channel=2, note=48, velocity=84, time=12),\n",
      "    Message('note_on', channel=2, note=36, velocity=84, time=0),\n",
      "    Message('note_on', channel=2, note=48, velocity=0, time=168),\n",
      "    Message('note_on', channel=2, note=36, velocity=0, time=0),\n",
      "    Message('note_on', channel=2, note=50, velocity=84, time=12),\n",
      "    Message('note_on', channel=2, note=38, velocity=84, time=0),\n",
      "    Message('note_on', channel=2, note=50, velocity=0, time=336),\n",
      "    Message('note_on', channel=2, note=38, velocity=0, time=0),\n",
      "    Message('note_on', channel=2, note=43, velocity=84, time=24),\n",
      "    Message('note_on', channel=2, note=55, velocity=84, time=0),\n",
      "    Message('note_on', channel=2, note=43, velocity=0, time=168),\n",
      "    Message('note_on', channel=2, note=55, velocity=0, time=0),\n",
      "    Message('note_on', channel=2, note=55, velocity=84, time=12),\n",
      "    Message('note_on', channel=2, note=62, velocity=84, time=0),\n",
      "    Message('note_on', channel=2, note=55, velocity=0, time=168),\n",
      "    Message('note_on', channel=2, note=62, velocity=0, time=0),\n",
      "    Message('note_on', channel=2, note=60, velocity=84, time=12),\n",
      "    Message('note_on', channel=2, note=52, velocity=84, time=0),\n",
      "    Message('note_on', channel=2, note=60, velocity=0, time=168),\n",
      "    Message('note_on', channel=2, note=52, velocity=0, time=0),\n",
      "    Message('note_on', channel=2, note=55, velocity=84, time=12),\n",
      "    Message('note_on', channel=2, note=47, velocity=84, time=0),\n",
      "    Message('note_on', channel=2, note=55, velocity=0, time=168),\n",
      "    Message('note_on', channel=2, note=47, velocity=0, time=0),\n",
      "    Message('note_on', channel=2, note=52, velocity=84, time=12),\n",
      "    Message('note_on', channel=2, note=59, velocity=84, time=0),\n",
      "    Message('note_on', channel=2, note=52, velocity=0, time=168),\n",
      "    Message('note_on', channel=2, note=59, velocity=0, time=0),\n",
      "    Message('note_on', channel=2, note=59, velocity=84, time=12),\n",
      "    Message('note_on', channel=2, note=64, velocity=84, time=0),\n",
      "    Message('note_on', channel=2, note=59, velocity=0, time=168),\n",
      "    Message('note_on', channel=2, note=64, velocity=0, time=0),\n",
      "    Message('note_on', channel=2, note=57, velocity=84, time=12),\n",
      "    Message('note_on', channel=2, note=64, velocity=84, time=0),\n",
      "    Message('note_on', channel=2, note=57, velocity=0, time=168),\n",
      "    Message('note_on', channel=2, note=64, velocity=0, time=0),\n",
      "    Message('note_on', channel=2, note=59, velocity=84, time=12),\n",
      "    Message('note_on', channel=2, note=67, velocity=84, time=0),\n",
      "    Message('note_on', channel=2, note=59, velocity=0, time=168),\n",
      "    Message('note_on', channel=2, note=67, velocity=0, time=0),\n",
      "    Message('note_on', channel=2, note=67, velocity=84, time=12),\n",
      "    Message('note_on', channel=2, note=60, velocity=84, time=0),\n",
      "    Message('note_on', channel=2, note=67, velocity=0, time=168),\n",
      "    Message('note_on', channel=2, note=60, velocity=0, time=0),\n",
      "    Message('note_on', channel=2, note=57, velocity=84, time=12),\n",
      "    Message('note_on', channel=2, note=50, velocity=84, time=0),\n",
      "    Message('note_on', channel=2, note=57, velocity=0, time=336),\n",
      "    Message('note_on', channel=2, note=50, velocity=0, time=0),\n",
      "    Message('note_on', channel=2, note=54, velocity=84, time=24),\n",
      "    Message('note_on', channel=2, note=54, velocity=0, time=168),\n",
      "    Message('note_on', channel=2, note=43, velocity=84, time=12),\n",
      "    Message('note_on', channel=2, note=55, velocity=84, time=0),\n",
      "    Message('note_on', channel=2, note=43, velocity=0, time=168),\n",
      "    Message('note_on', channel=2, note=55, velocity=0, time=0),\n",
      "    Message('note_on', channel=2, note=55, velocity=84, time=12),\n",
      "    Message('note_on', channel=2, note=62, velocity=84, time=0),\n",
      "    Message('note_on', channel=2, note=55, velocity=0, time=168),\n",
      "    Message('note_on', channel=2, note=62, velocity=0, time=0),\n",
      "    Message('note_on', channel=2, note=60, velocity=84, time=12),\n",
      "    Message('note_on', channel=2, note=52, velocity=84, time=0),\n",
      "    Message('note_on', channel=2, note=60, velocity=0, time=168),\n",
      "    Message('note_on', channel=2, note=52, velocity=0, time=0),\n",
      "    Message('note_on', channel=2, note=55, velocity=84, time=12),\n",
      "    Message('note_on', channel=2, note=47, velocity=84, time=0),\n",
      "    Message('note_on', channel=2, note=55, velocity=0, time=168),\n",
      "    Message('note_on', channel=2, note=47, velocity=0, time=0),\n",
      "    Message('note_on', channel=2, note=52, velocity=84, time=12),\n",
      "    Message('note_on', channel=2, note=59, velocity=84, time=0),\n",
      "    Message('note_on', channel=2, note=52, velocity=0, time=168),\n",
      "    Message('note_on', channel=2, note=59, velocity=0, time=0),\n",
      "    Message('note_on', channel=2, note=64, velocity=84, time=12),\n",
      "    Message('note_on', channel=2, note=59, velocity=84, time=0),\n",
      "    Message('note_on', channel=2, note=64, velocity=0, time=168),\n",
      "    Message('note_on', channel=2, note=59, velocity=0, time=0),\n",
      "    Message('note_on', channel=2, note=48, velocity=84, time=12),\n",
      "    Message('note_on', channel=2, note=57, velocity=84, time=0),\n",
      "    Message('note_on', channel=2, note=48, velocity=0, time=336),\n",
      "    Message('note_on', channel=2, note=57, velocity=0, time=0),\n",
      "    Message('note_on', channel=2, note=50, velocity=84, time=24),\n",
      "    Message('note_on', channel=2, note=57, velocity=84, time=0),\n",
      "    Message('note_on', channel=2, note=60, velocity=84, time=0),\n",
      "    Message('note_on', channel=2, note=50, velocity=0, time=168),\n",
      "    Message('note_on', channel=2, note=57, velocity=0, time=0),\n",
      "    Message('note_on', channel=2, note=60, velocity=0, time=0),\n",
      "    Message('note_on', channel=2, note=59, velocity=84, time=12),\n",
      "    Message('note_on', channel=2, note=55, velocity=84, time=0),\n",
      "    Message('note_on', channel=2, note=62, velocity=84, time=0),\n",
      "    Message('note_on', channel=2, note=59, velocity=0, time=336),\n",
      "    Message('note_on', channel=2, note=55, velocity=0, time=0),\n",
      "    Message('note_on', channel=2, note=62, velocity=0, time=0),\n",
      "    Message('note_on', channel=2, note=55, velocity=84, time=24),\n",
      "    Message('note_on', channel=2, note=55, velocity=0, time=48),\n",
      "    Message('note_on', channel=2, note=59, velocity=84, time=12),\n",
      "    Message('note_on', channel=2, note=59, velocity=0, time=48),\n",
      "    Message('note_on', channel=2, note=61, velocity=84, time=12),\n",
      "    Message('note_on', channel=2, note=61, velocity=0, time=48),\n",
      "    Message('note_on', channel=2, note=62, velocity=84, time=12),\n",
      "    Message('note_on', channel=2, note=62, velocity=0, time=168),\n",
      "    Message('note_on', channel=2, note=60, velocity=84, time=12),\n",
      "    Message('note_on', channel=2, note=60, velocity=0, time=168),\n",
      "    Message('note_on', channel=2, note=59, velocity=84, time=12),\n",
      "    Message('note_on', channel=2, note=59, velocity=0, time=168),\n",
      "    Message('note_on', channel=2, note=57, velocity=84, time=12),\n",
      "    Message('note_on', channel=2, note=57, velocity=0, time=168),\n",
      "    Message('note_on', channel=2, note=57, velocity=84, time=12),\n",
      "    Message('note_on', channel=2, note=57, velocity=0, time=64),\n",
      "    Message('note_on', channel=2, note=55, velocity=84, time=16),\n",
      "    Message('note_on', channel=2, note=55, velocity=0, time=64),\n",
      "    Message('note_on', channel=2, note=53, velocity=84, time=16),\n",
      "    Message('note_on', channel=2, note=53, velocity=0, time=64),\n",
      "    Message('note_on', channel=2, note=52, velocity=84, time=16),\n",
      "    Message('note_on', channel=2, note=52, velocity=0, time=64),\n",
      "    Message('note_on', channel=2, note=53, velocity=84, time=76),\n",
      "    Message('note_on', channel=2, note=53, velocity=0, time=168),\n",
      "    Message('note_on', channel=2, note=47, velocity=84, time=12),\n",
      "    Message('note_on', channel=2, note=47, velocity=0, time=168),\n",
      "    Message('note_on', channel=2, note=50, velocity=84, time=12),\n",
      "    Message('note_on', channel=2, note=62, velocity=84, time=0),\n",
      "    Message('note_on', channel=2, note=50, velocity=0, time=168),\n",
      "    Message('note_on', channel=2, note=62, velocity=0, time=0),\n",
      "    Message('note_on', channel=2, note=60, velocity=84, time=12),\n",
      "    Message('note_on', channel=2, note=57, velocity=84, time=0),\n",
      "    Message('note_on', channel=2, note=60, velocity=0, time=168),\n",
      "    Message('note_on', channel=2, note=57, velocity=0, time=0),\n",
      "    Message('note_on', channel=2, note=60, velocity=84, time=12),\n",
      "    Message('note_on', channel=2, note=64, velocity=84, time=0),\n",
      "    Message('note_on', channel=2, note=57, velocity=84, time=0),\n",
      "    Message('note_on', channel=2, note=60, velocity=0, time=168),\n",
      "    Message('note_on', channel=2, note=64, velocity=0, time=0),\n",
      "    Message('note_on', channel=2, note=57, velocity=0, time=0),\n",
      "    Message('note_on', channel=2, note=62, velocity=84, time=12),\n",
      "    Message('note_on', channel=2, note=53, velocity=84, time=0),\n",
      "    Message('note_on', channel=2, note=62, velocity=0, time=168),\n",
      "    Message('note_on', channel=2, note=53, velocity=0, time=0),\n",
      "    Message('note_on', channel=2, note=57, velocity=84, time=12),\n",
      "    Message('note_on', channel=2, note=48, velocity=84, time=0),\n",
      "    Message('note_on', channel=2, note=57, velocity=0, time=168),\n",
      "    Message('note_on', channel=2, note=48, velocity=0, time=0),\n",
      "    Message('note_on', channel=2, note=60, velocity=84, time=12),\n",
      "    Message('note_on', channel=2, note=53, velocity=84, time=0),\n",
      "    Message('note_on', channel=2, note=60, velocity=0, time=168),\n",
      "    Message('note_on', channel=2, note=53, velocity=0, time=0),\n",
      "    Message('note_on', channel=2, note=60, velocity=84, time=12),\n",
      "    Message('note_on', channel=2, note=52, velocity=84, time=0),\n",
      "    Message('note_on', channel=2, note=60, velocity=0, time=168),\n",
      "    Message('note_on', channel=2, note=52, velocity=0, time=0),\n",
      "    Message('note_on', channel=2, note=50, velocity=84, time=12),\n",
      "    Message('note_on', channel=2, note=50, velocity=0, time=168),\n",
      "    Message('note_on', channel=2, note=51, velocity=84, time=12),\n",
      "    Message('note_on', channel=2, note=51, velocity=0, time=168),\n",
      "    Message('note_on', channel=2, note=52, velocity=84, time=12),\n",
      "    Message('note_on', channel=2, note=52, velocity=0, time=168),\n",
      "    Message('note_on', channel=2, note=45, velocity=84, time=12),\n",
      "    Message('note_on', channel=2, note=45, velocity=0, time=168),\n",
      "    Message('note_on', channel=2, note=57, velocity=84, time=12),\n",
      "    Message('note_on', channel=2, note=57, velocity=0, time=168),\n",
      "    Message('note_on', channel=2, note=59, velocity=84, time=12),\n",
      "    Message('note_on', channel=2, note=47, velocity=84, time=0),\n",
      "    Message('note_on', channel=2, note=59, velocity=0, time=168),\n",
      "    Message('note_on', channel=2, note=47, velocity=0, time=0),\n",
      "    Message('note_on', channel=2, note=60, velocity=84, time=12),\n",
      "    Message('note_on', channel=2, note=48, velocity=84, time=0),\n",
      "    Message('note_on', channel=2, note=60, velocity=0, time=336),\n",
      "    Message('note_on', channel=2, note=48, velocity=0, time=0),\n",
      "    Message('note_on', channel=2, note=60, velocity=84, time=24),\n",
      "    Message('note_on', channel=2, note=52, velocity=84, time=0),\n",
      "    Message('note_on', channel=2, note=60, velocity=0, time=168),\n",
      "    Message('note_on', channel=2, note=52, velocity=0, time=0),\n",
      "    Message('note_on', channel=2, note=53, velocity=84, time=12),\n",
      "    Message('note_on', channel=2, note=53, velocity=0, time=168),\n",
      "    Message('note_on', channel=2, note=50, velocity=84, time=12),\n",
      "    Message('note_on', channel=2, note=50, velocity=0, time=168),\n",
      "    Message('note_on', channel=2, note=55, velocity=84, time=12),\n",
      "    Message('note_on', channel=2, note=43, velocity=84, time=0),\n",
      "    Message('note_on', channel=2, note=55, velocity=0, time=168),\n",
      "    Message('note_on', channel=2, note=43, velocity=0, time=0),\n",
      "    Message('note_on', channel=2, note=48, velocity=84, time=12),\n",
      "    Message('note_on', channel=2, note=55, velocity=84, time=0),\n",
      "    Message('note_on', channel=2, note=48, velocity=0, time=168),\n",
      "    Message('note_on', channel=2, note=55, velocity=0, time=0),\n",
      "    Message('note_on', channel=2, note=52, velocity=84, time=12),\n",
      "    Message('note_on', channel=2, note=52, velocity=0, time=168),\n",
      "    Message('note_on', channel=2, note=60, velocity=84, time=12),\n",
      "    Message('note_on', channel=2, note=60, velocity=0, time=168),\n",
      "    Message('note_on', channel=2, note=60, velocity=84, time=12),\n",
      "    Message('note_on', channel=2, note=53, velocity=84, time=0),\n",
      "    Message('note_on', channel=2, note=60, velocity=0, time=336),\n",
      "    Message('note_on', channel=2, note=53, velocity=0, time=0),\n",
      "    Message('note_on', channel=2, note=55, velocity=84, time=24),\n",
      "    Message('note_on', channel=2, note=47, velocity=84, time=0),\n",
      "    Message('note_on', channel=2, note=55, velocity=0, time=168),\n",
      "    Message('note_on', channel=2, note=47, velocity=0, time=0),\n",
      "    Message('note_on', channel=2, note=55, velocity=84, time=12),\n",
      "    Message('note_on', channel=2, note=48, velocity=84, time=0),\n",
      "    Message('note_on', channel=2, note=55, velocity=0, time=336),\n",
      "    Message('note_on', channel=2, note=48, velocity=0, time=0),\n",
      "    Message('note_on', channel=2, note=59, velocity=84, time=24),\n",
      "    Message('note_on', channel=2, note=59, velocity=0, time=168),\n",
      "    Message('note_on', channel=2, note=62, velocity=84, time=12),\n",
      "    Message('note_on', channel=2, note=55, velocity=84, time=0),\n",
      "    Message('note_on', channel=2, note=62, velocity=0, time=168),\n",
      "    Message('note_on', channel=2, note=55, velocity=0, time=0),\n",
      "    Message('note_on', channel=2, note=43, velocity=84, time=12),\n",
      "    Message('note_on', channel=2, note=43, velocity=0, time=168),\n",
      "    Message('note_on', channel=2, note=52, velocity=84, time=12),\n",
      "    Message('note_on', channel=2, note=40, velocity=84, time=0),\n",
      "    Message('note_on', channel=2, note=52, velocity=0, time=168),\n",
      "    Message('note_on', channel=2, note=40, velocity=0, time=0),\n",
      "    Message('note_on', channel=2, note=47, velocity=84, time=12),\n",
      "    Message('note_on', channel=2, note=59, velocity=84, time=0),\n",
      "    Message('note_on', channel=2, note=47, velocity=0, time=168),\n",
      "    Message('note_on', channel=2, note=59, velocity=0, time=0),\n",
      "    Message('note_on', channel=2, note=40, velocity=84, time=12),\n",
      "    Message('note_on', channel=2, note=52, velocity=84, time=0),\n",
      "    Message('note_on', channel=2, note=40, velocity=0, time=168),\n",
      "    Message('note_on', channel=2, note=52, velocity=0, time=0),\n",
      "    Message('note_on', channel=2, note=52, velocity=84, time=12),\n",
      "    Message('note_on', channel=2, note=59, velocity=84, time=0),\n",
      "    Message('note_on', channel=2, note=52, velocity=0, time=168),\n",
      "    Message('note_on', channel=2, note=59, velocity=0, time=0),\n",
      "    Message('note_on', channel=2, note=42, velocity=84, time=12),\n",
      "    Message('note_on', channel=2, note=54, velocity=84, time=0),\n",
      "    Message('note_on', channel=2, note=42, velocity=0, time=168),\n",
      "    Message('note_on', channel=2, note=54, velocity=0, time=0),\n",
      "    Message('note_on', channel=2, note=55, velocity=84, time=12),\n",
      "    Message('note_on', channel=2, note=47, velocity=84, time=0),\n",
      "    Message('note_on', channel=2, note=55, velocity=0, time=168),\n",
      "    Message('note_on', channel=2, note=47, velocity=0, time=0),\n",
      "    Message('note_on', channel=2, note=48, velocity=84, time=12),\n",
      "    Message('note_on', channel=2, note=48, velocity=0, time=168),\n",
      "    Message('note_on', channel=2, note=50, velocity=84, time=12),\n",
      "    Message('note_on', channel=2, note=38, velocity=84, time=0),\n",
      "    Message('note_on', channel=2, note=50, velocity=0, time=528),\n",
      "    Message('note_on', channel=2, note=38, velocity=0, time=0),\n",
      "    Message('note_on', channel=2, note=54, velocity=84, time=12),\n",
      "    Message('note_on', channel=2, note=50, velocity=84, time=0),\n",
      "    Message('note_on', channel=2, note=54, velocity=0, time=528),\n",
      "    Message('note_on', channel=2, note=50, velocity=0, time=0),\n",
      "    Message('note_on', channel=2, note=43, velocity=84, time=12),\n",
      "    Message('note_on', channel=2, note=55, velocity=84, time=0),\n",
      "    Message('note_on', channel=2, note=43, velocity=0, time=168),\n",
      "    Message('note_on', channel=2, note=55, velocity=0, time=0),\n",
      "    Message('note_on', channel=2, note=42, velocity=84, time=12),\n",
      "    Message('note_on', channel=2, note=54, velocity=84, time=0),\n",
      "    Message('note_on', channel=2, note=42, velocity=0, time=168),\n",
      "    Message('note_on', channel=2, note=54, velocity=0, time=0),\n",
      "    Message('note_on', channel=2, note=40, velocity=84, time=12),\n",
      "    Message('note_on', channel=2, note=52, velocity=84, time=0),\n",
      "    Message('note_on', channel=2, note=40, velocity=0, time=168),\n",
      "    Message('note_on', channel=2, note=52, velocity=0, time=0),\n",
      "    Message('note_on', channel=2, note=55, velocity=84, time=12),\n",
      "    Message('note_on', channel=2, note=47, velocity=84, time=0),\n",
      "    Message('note_on', channel=2, note=55, velocity=0, time=168),\n",
      "    Message('note_on', channel=2, note=47, velocity=0, time=0),\n",
      "    Message('note_on', channel=2, note=47, velocity=84, time=12),\n",
      "    Message('note_on', channel=2, note=35, velocity=84, time=0),\n",
      "    Message('note_on', channel=2, note=47, velocity=0, time=168),\n",
      "    Message('note_on', channel=2, note=35, velocity=0, time=0),\n",
      "    Message('note_on', channel=2, note=52, velocity=84, time=12),\n",
      "    Message('note_on', channel=2, note=52, velocity=0, time=168),\n",
      "    Message('note_on', channel=2, note=48, velocity=84, time=12),\n",
      "    Message('note_on', channel=2, note=36, velocity=84, time=0),\n",
      "    Message('note_on', channel=2, note=48, velocity=0, time=168),\n",
      "    Message('note_on', channel=2, note=36, velocity=0, time=0),\n",
      "    Message('note_on', channel=2, note=38, velocity=84, time=12),\n",
      "    Message('note_on', channel=2, note=50, velocity=84, time=0),\n",
      "    Message('note_on', channel=2, note=38, velocity=0, time=336),\n",
      "    Message('note_on', channel=2, note=50, velocity=0, time=0),\n",
      "    Message('note_on', channel=2, note=55, velocity=84, time=24),\n",
      "    Message('note_on', channel=2, note=43, velocity=84, time=0),\n",
      "    Message('note_on', channel=2, note=55, velocity=0, time=168),\n",
      "    Message('note_on', channel=2, note=43, velocity=0, time=0),\n",
      "    Message('note_on', channel=2, note=59, velocity=84, time=12),\n",
      "    Message('note_on', channel=2, note=59, velocity=0, time=168),\n",
      "    Message('note_on', channel=2, note=50, velocity=84, time=12),\n",
      "    Message('note_on', channel=2, note=50, velocity=0, time=168),\n",
      "    Message('note_on', channel=2, note=55, velocity=84, time=12),\n",
      "    Message('note_on', channel=2, note=59, velocity=84, time=0),\n",
      "    Message('note_on', channel=2, note=55, velocity=0, time=336),\n",
      "    Message('note_on', channel=2, note=59, velocity=0, time=0),\n",
      "    Message('note_on', channel=2, note=60, velocity=84, time=24),\n",
      "    Message('note_on', channel=2, note=55, velocity=84, time=0),\n",
      "    Message('note_on', channel=2, note=60, velocity=0, time=168),\n",
      "    Message('note_on', channel=2, note=55, velocity=0, time=0),\n",
      "    Message('note_on', channel=2, note=57, velocity=84, time=12),\n",
      "    Message('note_on', channel=2, note=55, velocity=84, time=0),\n",
      "    Message('note_on', channel=2, note=57, velocity=0, time=168),\n",
      "    Message('note_on', channel=2, note=55, velocity=0, time=0),\n",
      "    Message('note_on', channel=2, note=59, velocity=84, time=12),\n",
      "    Message('note_on', channel=2, note=59, velocity=0, time=168),\n",
      "    Message('note_on', channel=2, note=62, velocity=84, time=12),\n",
      "    Message('note_on', channel=2, note=62, velocity=0, time=168),\n",
      "    Message('note_on', channel=2, note=43, velocity=84, time=12),\n",
      "    Message('note_on', channel=2, note=43, velocity=0, time=336),\n",
      "    Message('note_on', channel=2, note=43, velocity=84, time=24),\n",
      "    Message('note_on', channel=2, note=54, velocity=84, time=0),\n",
      "    Message('note_on', channel=2, note=43, velocity=0, time=168),\n",
      "    Message('note_on', channel=2, note=54, velocity=0, time=0),\n",
      "    Message('note_on', channel=2, note=55, velocity=84, time=12),\n",
      "    Message('note_on', channel=2, note=43, velocity=84, time=0),\n",
      "    Message('note_on', channel=2, note=55, velocity=0, time=168),\n",
      "    Message('note_on', channel=2, note=43, velocity=0, time=0),\n",
      "    Message('note_on', channel=2, note=62, velocity=84, time=12),\n",
      "    Message('note_on', channel=2, note=55, velocity=84, time=0),\n",
      "    Message('note_on', channel=2, note=62, velocity=0, time=168),\n",
      "    Message('note_on', channel=2, note=55, velocity=0, time=0),\n",
      "    Message('note_on', channel=2, note=60, velocity=84, time=12),\n",
      "    Message('note_on', channel=2, note=52, velocity=84, time=0),\n",
      "    Message('note_on', channel=2, note=60, velocity=0, time=168),\n",
      "    Message('note_on', channel=2, note=52, velocity=0, time=0),\n",
      "    Message('note_on', channel=2, note=47, velocity=84, time=12),\n",
      "    Message('note_on', channel=2, note=55, velocity=84, time=0),\n",
      "    Message('note_on', channel=2, note=47, velocity=0, time=168),\n",
      "    Message('note_on', channel=2, note=55, velocity=0, time=0),\n",
      "    Message('note_on', channel=2, note=52, velocity=84, time=12),\n",
      "    Message('note_on', channel=2, note=59, velocity=84, time=0),\n",
      "    Message('note_on', channel=2, note=52, velocity=0, time=168),\n",
      "    Message('note_on', channel=2, note=59, velocity=0, time=0),\n",
      "    Message('note_on', channel=2, note=64, velocity=84, time=12),\n",
      "    Message('note_on', channel=2, note=59, velocity=84, time=0),\n",
      "    Message('note_on', channel=2, note=64, velocity=0, time=168),\n",
      "    Message('note_on', channel=2, note=59, velocity=0, time=0),\n",
      "    Message('note_on', channel=2, note=64, velocity=84, time=12),\n",
      "    Message('note_on', channel=2, note=57, velocity=84, time=0),\n",
      "    Message('note_on', channel=2, note=64, velocity=0, time=168),\n",
      "    Message('note_on', channel=2, note=57, velocity=0, time=0),\n",
      "    Message('note_on', channel=2, note=59, velocity=84, time=12),\n",
      "    Message('note_on', channel=2, note=67, velocity=84, time=0),\n",
      "    Message('note_on', channel=2, note=59, velocity=0, time=168),\n",
      "    Message('note_on', channel=2, note=67, velocity=0, time=0),\n",
      "    Message('note_on', channel=2, note=60, velocity=84, time=12),\n",
      "    Message('note_on', channel=2, note=57, velocity=84, time=0),\n",
      "    Message('note_on', channel=2, note=60, velocity=0, time=168),\n",
      "    Message('note_on', channel=2, note=57, velocity=0, time=0),\n",
      "    Message('note_on', channel=2, note=57, velocity=84, time=12),\n",
      "    Message('note_on', channel=2, note=50, velocity=84, time=0),\n",
      "    Message('note_on', channel=2, note=57, velocity=0, time=336),\n",
      "    Message('note_on', channel=2, note=50, velocity=0, time=0),\n",
      "    Message('note_on', channel=2, note=54, velocity=84, time=24),\n",
      "    Message('note_on', channel=2, note=54, velocity=0, time=168),\n",
      "    Message('note_on', channel=2, note=43, velocity=84, time=12),\n",
      "    Message('note_on', channel=2, note=55, velocity=84, time=0),\n",
      "    Message('note_on', channel=2, note=43, velocity=0, time=168),\n",
      "    Message('note_on', channel=2, note=55, velocity=0, time=0),\n",
      "    Message('note_on', channel=2, note=55, velocity=84, time=12),\n",
      "    Message('note_on', channel=2, note=62, velocity=84, time=0),\n",
      "    Message('note_on', channel=2, note=55, velocity=0, time=168),\n",
      "    Message('note_on', channel=2, note=62, velocity=0, time=0),\n",
      "    Message('note_on', channel=2, note=52, velocity=84, time=12),\n",
      "    Message('note_on', channel=2, note=60, velocity=84, time=0),\n",
      "    Message('note_on', channel=2, note=52, velocity=0, time=168),\n",
      "    Message('note_on', channel=2, note=60, velocity=0, time=0),\n",
      "    Message('note_on', channel=2, note=55, velocity=84, time=12),\n",
      "    Message('note_on', channel=2, note=47, velocity=84, time=0),\n",
      "    Message('note_on', channel=2, note=55, velocity=0, time=168),\n",
      "    Message('note_on', channel=2, note=47, velocity=0, time=0),\n",
      "    Message('note_on', channel=2, note=52, velocity=84, time=12),\n",
      "    Message('note_on', channel=2, note=59, velocity=84, time=0),\n",
      "    Message('note_on', channel=2, note=52, velocity=0, time=168),\n",
      "    Message('note_on', channel=2, note=59, velocity=0, time=0),\n",
      "    Message('note_on', channel=2, note=59, velocity=84, time=12),\n",
      "    Message('note_on', channel=2, note=64, velocity=84, time=0),\n",
      "    Message('note_on', channel=2, note=59, velocity=0, time=168),\n",
      "    Message('note_on', channel=2, note=64, velocity=0, time=0),\n",
      "    Message('note_on', channel=2, note=57, velocity=84, time=12),\n",
      "    Message('note_on', channel=2, note=48, velocity=84, time=0),\n",
      "    Message('note_on', channel=2, note=57, velocity=0, time=336),\n",
      "    Message('note_on', channel=2, note=48, velocity=0, time=0),\n",
      "    Message('note_on', channel=2, note=60, velocity=84, time=24),\n",
      "    Message('note_on', channel=2, note=57, velocity=84, time=0),\n",
      "    Message('note_on', channel=2, note=50, velocity=84, time=0),\n",
      "    Message('note_on', channel=2, note=60, velocity=0, time=168),\n",
      "    Message('note_on', channel=2, note=57, velocity=0, time=0),\n",
      "    Message('note_on', channel=2, note=50, velocity=0, time=0),\n",
      "    Message('note_on', channel=2, note=43, velocity=84, time=12),\n",
      "    Message('note_on', channel=2, note=31, velocity=84, time=0),\n",
      "    Message('note_on', channel=2, note=43, velocity=84, time=520),\n",
      "    Message('note_on', channel=2, note=55, velocity=84, time=0),\n",
      "    Message('note_on', channel=2, note=43, velocity=0, time=8),\n",
      "    Message('note_on', channel=2, note=31, velocity=0, time=0),\n",
      "    Message('note_on', channel=2, note=43, velocity=0, time=160),\n",
      "    Message('note_on', channel=2, note=55, velocity=0, time=0),\n",
      "    Message('note_on', channel=2, note=50, velocity=84, time=12),\n",
      "    Message('note_on', channel=2, note=55, velocity=84, time=0),\n",
      "    Message('note_on', channel=2, note=50, velocity=0, time=168),\n",
      "    Message('note_on', channel=2, note=55, velocity=0, time=0),\n",
      "    Message('note_on', channel=2, note=52, velocity=84, time=12),\n",
      "    Message('note_on', channel=2, note=60, velocity=84, time=0),\n",
      "    Message('note_on', channel=2, note=52, velocity=0, time=168),\n",
      "    Message('note_on', channel=2, note=60, velocity=0, time=0),\n",
      "    Message('note_on', channel=2, note=47, velocity=84, time=12),\n",
      "    Message('note_on', channel=2, note=55, velocity=84, time=0),\n",
      "    Message('note_on', channel=2, note=47, velocity=0, time=168),\n",
      "    Message('note_on', channel=2, note=55, velocity=0, time=0),\n",
      "    Message('note_on', channel=2, note=52, velocity=84, time=12),\n",
      "    Message('note_on', channel=2, note=59, velocity=84, time=0),\n",
      "    Message('note_on', channel=2, note=52, velocity=0, time=168),\n",
      "    Message('note_on', channel=2, note=59, velocity=0, time=0),\n",
      "    Message('note_on', channel=2, note=59, velocity=84, time=12),\n",
      "    Message('note_on', channel=2, note=64, velocity=84, time=0),\n",
      "    Message('note_on', channel=2, note=59, velocity=0, time=168),\n",
      "    Message('note_on', channel=2, note=64, velocity=0, time=0),\n",
      "    Message('note_on', channel=2, note=64, velocity=84, time=12),\n",
      "    Message('note_on', channel=2, note=57, velocity=84, time=0),\n",
      "    Message('note_on', channel=2, note=64, velocity=0, time=168),\n",
      "    Message('note_on', channel=2, note=57, velocity=0, time=0),\n",
      "    Message('note_on', channel=2, note=67, velocity=84, time=12),\n",
      "    Message('note_on', channel=2, note=59, velocity=84, time=0),\n",
      "    Message('note_on', channel=2, note=67, velocity=0, time=168),\n",
      "    Message('note_on', channel=2, note=59, velocity=0, time=0),\n",
      "    Message('note_on', channel=2, note=67, velocity=84, time=12),\n",
      "    Message('note_on', channel=2, note=60, velocity=84, time=0),\n",
      "    Message('note_on', channel=2, note=67, velocity=0, time=168),\n",
      "    Message('note_on', channel=2, note=60, velocity=0, time=0),\n",
      "    Message('note_on', channel=2, note=52, velocity=84, time=12),\n",
      "    Message('note_on', channel=2, note=57, velocity=84, time=0),\n",
      "    Message('note_on', channel=2, note=52, velocity=0, time=336),\n",
      "    Message('note_on', channel=2, note=57, velocity=0, time=0),\n",
      "    Message('note_on', channel=2, note=54, velocity=84, time=24),\n",
      "    Message('note_on', channel=2, note=54, velocity=0, time=168),\n",
      "    Message('note_on', channel=2, note=43, velocity=84, time=12),\n",
      "    Message('note_on', channel=2, note=55, velocity=84, time=0),\n",
      "    Message('note_on', channel=2, note=43, velocity=0, time=168),\n",
      "    Message('note_on', channel=2, note=55, velocity=0, time=0),\n",
      "    Message('note_on', channel=2, note=55, velocity=84, time=12),\n",
      "    Message('note_on', channel=2, note=62, velocity=84, time=0),\n",
      "    Message('note_on', channel=2, note=55, velocity=0, time=168),\n",
      "    Message('note_on', channel=2, note=62, velocity=0, time=0),\n",
      "    Message('note_on', channel=2, note=60, velocity=84, time=12),\n",
      "    Message('note_on', channel=2, note=52, velocity=84, time=0),\n",
      "    Message('note_on', channel=2, note=60, velocity=0, time=168),\n",
      "    Message('note_on', channel=2, note=52, velocity=0, time=0),\n",
      "    Message('note_on', channel=2, note=47, velocity=84, time=12),\n",
      "    Message('note_on', channel=2, note=55, velocity=84, time=0),\n",
      "    Message('note_on', channel=2, note=47, velocity=0, time=168),\n",
      "    Message('note_on', channel=2, note=55, velocity=0, time=0),\n",
      "    Message('note_on', channel=2, note=52, velocity=84, time=12),\n",
      "    Message('note_on', channel=2, note=59, velocity=84, time=0),\n",
      "    Message('note_on', channel=2, note=52, velocity=0, time=168),\n",
      "    Message('note_on', channel=2, note=59, velocity=0, time=0),\n",
      "    Message('note_on', channel=2, note=59, velocity=84, time=12),\n",
      "    Message('note_on', channel=2, note=64, velocity=84, time=0),\n",
      "    Message('note_on', channel=2, note=59, velocity=0, time=168),\n",
      "    Message('note_on', channel=2, note=64, velocity=0, time=0),\n",
      "    Message('note_on', channel=2, note=52, velocity=84, time=12),\n",
      "    Message('note_on', channel=2, note=57, velocity=84, time=0),\n",
      "    Message('note_on', channel=2, note=52, velocity=0, time=336),\n",
      "    Message('note_on', channel=2, note=57, velocity=0, time=0),\n",
      "    Message('note_on', channel=2, note=50, velocity=84, time=24),\n",
      "    Message('note_on', channel=2, note=57, velocity=84, time=0),\n",
      "    Message('note_on', channel=2, note=60, velocity=84, time=0),\n",
      "    Message('note_on', channel=2, note=50, velocity=0, time=168),\n",
      "    Message('note_on', channel=2, note=57, velocity=0, time=0),\n",
      "    Message('note_on', channel=2, note=60, velocity=0, time=0),\n",
      "    Message('note_on', channel=2, note=59, velocity=84, time=12),\n",
      "    Message('note_on', channel=2, note=55, velocity=84, time=0),\n",
      "    Message('note_on', channel=2, note=62, velocity=84, time=0),\n",
      "    Message('note_on', channel=2, note=59, velocity=0, time=528),\n",
      "    Message('note_on', channel=2, note=55, velocity=0, time=0),\n",
      "    Message('note_on', channel=2, note=62, velocity=0, time=0),\n",
      "    Message('note_on', channel=2, note=43, velocity=84, time=12),\n",
      "    Message('note_on', channel=2, note=55, velocity=84, time=0),\n",
      "    Message('note_on', channel=2, note=43, velocity=0, time=168),\n",
      "    Message('note_on', channel=2, note=55, velocity=0, time=0),\n",
      "    Message('note_on', channel=2, note=42, velocity=84, time=12),\n",
      "    Message('note_on', channel=2, note=54, velocity=84, time=0),\n",
      "    Message('note_on', channel=2, note=42, velocity=0, time=168),\n",
      "    Message('note_on', channel=2, note=54, velocity=0, time=0),\n",
      "    Message('note_on', channel=2, note=40, velocity=84, time=12),\n",
      "    Message('note_on', channel=2, note=52, velocity=84, time=0),\n",
      "    Message('note_on', channel=2, note=40, velocity=0, time=168),\n",
      "    Message('note_on', channel=2, note=52, velocity=0, time=0),\n",
      "    Message('note_on', channel=2, note=54, velocity=84, time=12),\n",
      "    Message('note_on', channel=2, note=42, velocity=84, time=0),\n",
      "    Message('note_on', channel=2, note=54, velocity=0, time=168),\n",
      "    Message('note_on', channel=2, note=42, velocity=0, time=0),\n",
      "    Message('note_on', channel=2, note=40, velocity=84, time=12),\n",
      "    Message('note_on', channel=2, note=52, velocity=84, time=0),\n",
      "    Message('note_on', channel=2, note=40, velocity=0, time=168),\n",
      "    Message('note_on', channel=2, note=52, velocity=0, time=0),\n",
      "    Message('note_on', channel=2, note=50, velocity=84, time=12),\n",
      "    Message('note_on', channel=2, note=38, velocity=84, time=0),\n",
      "    Message('note_on', channel=2, note=50, velocity=0, time=168),\n",
      "    Message('note_on', channel=2, note=38, velocity=0, time=0),\n",
      "    Message('note_on', channel=2, note=52, velocity=84, time=12),\n",
      "    Message('note_on', channel=2, note=40, velocity=84, time=0),\n",
      "    Message('note_on', channel=2, note=52, velocity=0, time=168),\n",
      "    Message('note_on', channel=2, note=40, velocity=0, time=0),\n",
      "    Message('note_on', channel=2, note=42, velocity=84, time=12),\n",
      "    Message('note_on', channel=2, note=54, velocity=84, time=0),\n",
      "    Message('note_on', channel=2, note=42, velocity=0, time=168),\n",
      "    Message('note_on', channel=2, note=54, velocity=0, time=0),\n",
      "    Message('note_on', channel=2, note=55, velocity=84, time=12),\n",
      "    Message('note_on', channel=2, note=43, velocity=84, time=0),\n",
      "    Message('note_on', channel=2, note=55, velocity=0, time=168),\n",
      "    Message('note_on', channel=2, note=43, velocity=0, time=0),\n",
      "    Message('note_on', channel=2, note=38, velocity=84, time=12),\n",
      "    Message('note_on', channel=2, note=50, velocity=84, time=0),\n",
      "    Message('note_on', channel=2, note=38, velocity=0, time=528),\n",
      "    Message('note_on', channel=2, note=50, velocity=0, time=0),\n",
      "    Message('note_on', channel=2, note=50, velocity=84, time=12),\n",
      "    Message('note_on', channel=2, note=54, velocity=84, time=0),\n",
      "    Message('note_on', channel=2, note=50, velocity=0, time=528),\n",
      "    Message('note_on', channel=2, note=54, velocity=0, time=0),\n",
      "    Message('note_on', channel=2, note=43, velocity=84, time=12),\n",
      "    Message('note_on', channel=2, note=55, velocity=84, time=0),\n",
      "    Message('note_on', channel=2, note=43, velocity=0, time=168),\n",
      "    Message('note_on', channel=2, note=55, velocity=0, time=0),\n",
      "    Message('note_on', channel=2, note=42, velocity=84, time=12),\n",
      "    Message('note_on', channel=2, note=54, velocity=84, time=0),\n",
      "    Message('note_on', channel=2, note=42, velocity=0, time=168),\n",
      "    Message('note_on', channel=2, note=54, velocity=0, time=0),\n",
      "    Message('note_on', channel=2, note=52, velocity=84, time=12),\n",
      "    Message('note_on', channel=2, note=40, velocity=84, time=0),\n",
      "    Message('note_on', channel=2, note=52, velocity=0, time=168),\n",
      "    Message('note_on', channel=2, note=40, velocity=0, time=0),\n",
      "    Message('note_on', channel=2, note=59, velocity=84, time=12),\n",
      "    Message('note_on', channel=2, note=47, velocity=84, time=0),\n",
      "    Message('note_on', channel=2, note=59, velocity=0, time=168),\n",
      "    Message('note_on', channel=2, note=47, velocity=0, time=0),\n",
      "    Message('note_on', channel=2, note=47, velocity=84, time=12),\n",
      "    Message('note_on', channel=2, note=35, velocity=84, time=0),\n",
      "    Message('note_on', channel=2, note=47, velocity=0, time=168),\n",
      "    Message('note_on', channel=2, note=35, velocity=0, time=0),\n",
      "    Message('note_on', channel=2, note=52, velocity=84, time=12),\n",
      "    Message('note_on', channel=2, note=40, velocity=84, time=0),\n",
      "    Message('note_on', channel=2, note=52, velocity=0, time=168),\n",
      "    Message('note_on', channel=2, note=40, velocity=0, time=0),\n",
      "    Message('note_on', channel=2, note=48, velocity=84, time=12),\n",
      "    Message('note_on', channel=2, note=36, velocity=84, time=0),\n",
      "    Message('note_on', channel=2, note=48, velocity=0, time=168),\n",
      "    Message('note_on', channel=2, note=36, velocity=0, time=0),\n",
      "    Message('note_on', channel=2, note=38, velocity=84, time=12),\n",
      "    Message('note_on', channel=2, note=50, velocity=84, time=0),\n",
      "    Message('note_on', channel=2, note=38, velocity=0, time=336),\n",
      "    Message('note_on', channel=2, note=50, velocity=0, time=0),\n",
      "    Message('note_on', channel=2, note=43, velocity=84, time=24),\n",
      "    Message('note_on', channel=2, note=55, velocity=84, time=0),\n",
      "    Message('note_on', channel=2, note=43, velocity=0, time=168),\n",
      "    Message('note_on', channel=2, note=55, velocity=0, time=0),\n",
      "    Message('note_on', channel=2, note=55, velocity=84, time=12),\n",
      "    Message('note_on', channel=2, note=62, velocity=84, time=0),\n",
      "    Message('note_on', channel=2, note=55, velocity=0, time=168),\n",
      "    Message('note_on', channel=2, note=62, velocity=0, time=0),\n",
      "    Message('note_on', channel=2, note=52, velocity=84, time=12),\n",
      "    Message('note_on', channel=2, note=60, velocity=84, time=0),\n",
      "    Message('note_on', channel=2, note=52, velocity=0, time=168),\n",
      "    Message('note_on', channel=2, note=60, velocity=0, time=0),\n",
      "    Message('note_on', channel=2, note=47, velocity=84, time=12),\n",
      "    Message('note_on', channel=2, note=55, velocity=84, time=0),\n",
      "    Message('note_on', channel=2, note=47, velocity=0, time=168),\n",
      "    Message('note_on', channel=2, note=55, velocity=0, time=0),\n",
      "    Message('note_on', channel=2, note=52, velocity=84, time=12),\n",
      "    Message('note_on', channel=2, note=59, velocity=84, time=0),\n",
      "    Message('note_on', channel=2, note=52, velocity=0, time=168),\n",
      "    Message('note_on', channel=2, note=59, velocity=0, time=0),\n",
      "    Message('note_on', channel=2, note=59, velocity=84, time=12),\n",
      "    Message('note_on', channel=2, note=64, velocity=84, time=0),\n",
      "    Message('note_on', channel=2, note=59, velocity=0, time=168),\n",
      "    Message('note_on', channel=2, note=64, velocity=0, time=0),\n",
      "    Message('note_on', channel=2, note=57, velocity=84, time=12),\n",
      "    Message('note_on', channel=2, note=64, velocity=84, time=0),\n",
      "    Message('note_on', channel=2, note=57, velocity=0, time=168),\n",
      "    Message('note_on', channel=2, note=64, velocity=0, time=0),\n",
      "    Message('note_on', channel=2, note=67, velocity=84, time=12),\n",
      "    Message('note_on', channel=2, note=59, velocity=84, time=0),\n",
      "    Message('note_on', channel=2, note=67, velocity=0, time=168),\n",
      "    Message('note_on', channel=2, note=59, velocity=0, time=0),\n",
      "    Message('note_on', channel=2, note=60, velocity=84, time=12),\n",
      "    Message('note_on', channel=2, note=64, velocity=84, time=0),\n",
      "    Message('note_on', channel=2, note=60, velocity=0, time=168),\n",
      "    Message('note_on', channel=2, note=64, velocity=0, time=0),\n",
      "    Message('note_on', channel=2, note=50, velocity=84, time=12),\n",
      "    Message('note_on', channel=2, note=57, velocity=84, time=0),\n",
      "    Message('note_on', channel=2, note=50, velocity=0, time=336),\n",
      "    Message('note_on', channel=2, note=57, velocity=0, time=0),\n",
      "    Message('note_on', channel=2, note=54, velocity=84, time=24),\n",
      "    Message('note_on', channel=2, note=54, velocity=0, time=168),\n",
      "    Message('note_on', channel=2, note=43, velocity=84, time=12),\n",
      "    Message('note_on', channel=2, note=55, velocity=84, time=0),\n",
      "    Message('note_on', channel=2, note=43, velocity=0, time=168),\n",
      "    Message('note_on', channel=2, note=55, velocity=0, time=0),\n",
      "    Message('note_on', channel=2, note=62, velocity=84, time=12),\n",
      "    Message('note_on', channel=2, note=55, velocity=84, time=0),\n",
      "    Message('note_on', channel=2, note=62, velocity=0, time=168),\n",
      "    Message('note_on', channel=2, note=55, velocity=0, time=0),\n",
      "    Message('note_on', channel=2, note=52, velocity=84, time=12),\n",
      "    Message('note_on', channel=2, note=60, velocity=84, time=0),\n",
      "    Message('note_on', channel=2, note=52, velocity=0, time=168),\n",
      "    Message('note_on', channel=2, note=60, velocity=0, time=0),\n",
      "    Message('note_on', channel=2, note=47, velocity=84, time=12),\n",
      "    Message('note_on', channel=2, note=55, velocity=84, time=0),\n",
      "    Message('note_on', channel=2, note=47, velocity=0, time=168),\n",
      "    Message('note_on', channel=2, note=55, velocity=0, time=0),\n",
      "    Message('note_on', channel=2, note=59, velocity=84, time=12),\n",
      "    Message('note_on', channel=2, note=52, velocity=84, time=0),\n",
      "    Message('note_on', channel=2, note=59, velocity=0, time=168),\n",
      "    Message('note_on', channel=2, note=52, velocity=0, time=0),\n",
      "    Message('note_on', channel=2, note=59, velocity=84, time=12),\n",
      "    Message('note_on', channel=2, note=64, velocity=84, time=0),\n",
      "    Message('note_on', channel=2, note=59, velocity=0, time=168),\n",
      "    Message('note_on', channel=2, note=64, velocity=0, time=0),\n",
      "    Message('note_on', channel=2, note=48, velocity=84, time=12),\n",
      "    Message('note_on', channel=2, note=57, velocity=84, time=0),\n",
      "    Message('note_on', channel=2, note=48, velocity=0, time=336),\n",
      "    Message('note_on', channel=2, note=57, velocity=0, time=0),\n",
      "    Message('note_on', channel=2, note=52, velocity=84, time=24),\n",
      "    Message('note_on', channel=2, note=57, velocity=84, time=0),\n",
      "    Message('note_on', channel=2, note=60, velocity=84, time=0),\n",
      "    Message('note_on', channel=2, note=52, velocity=0, time=168),\n",
      "    Message('note_on', channel=2, note=57, velocity=0, time=0),\n",
      "    Message('note_on', channel=2, note=60, velocity=0, time=0),\n",
      "    Message('note_on', channel=2, note=43, velocity=84, time=12),\n",
      "    Message('note_on', channel=2, note=55, velocity=84, time=0),\n",
      "    Message('note_on', channel=2, note=43, velocity=0, time=168),\n",
      "    Message('note_on', channel=2, note=55, velocity=0, time=0),\n",
      "    Message('note_on', channel=2, note=54, velocity=84, time=12),\n",
      "    Message('note_on', channel=2, note=42, velocity=84, time=0),\n",
      "    Message('note_on', channel=2, note=54, velocity=0, time=168),\n",
      "    Message('note_on', channel=2, note=42, velocity=0, time=0),\n",
      "    Message('note_on', channel=2, note=52, velocity=84, time=12),\n",
      "    Message('note_on', channel=2, note=40, velocity=84, time=0),\n",
      "    Message('note_on', channel=2, note=52, velocity=0, time=168),\n",
      "    Message('note_on', channel=2, note=40, velocity=0, time=0),\n",
      "    Message('note_on', channel=2, note=42, velocity=84, time=12),\n",
      "    Message('note_on', channel=2, note=54, velocity=84, time=0),\n",
      "    Message('note_on', channel=2, note=42, velocity=0, time=168),\n",
      "    Message('note_on', channel=2, note=54, velocity=0, time=0),\n",
      "    Message('note_on', channel=2, note=40, velocity=84, time=12),\n",
      "    Message('note_on', channel=2, note=52, velocity=84, time=0),\n",
      "    Message('note_on', channel=2, note=40, velocity=0, time=168),\n",
      "    Message('note_on', channel=2, note=52, velocity=0, time=0),\n",
      "    Message('note_on', channel=2, note=38, velocity=84, time=12),\n",
      "    Message('note_on', channel=2, note=50, velocity=84, time=0),\n",
      "    Message('note_on', channel=2, note=38, velocity=0, time=168),\n",
      "    Message('note_on', channel=2, note=50, velocity=0, time=0),\n",
      "    Message('note_on', channel=2, note=40, velocity=84, time=12),\n",
      "    Message('note_on', channel=2, note=52, velocity=84, time=0),\n",
      "    Message('note_on', channel=2, note=40, velocity=0, time=168),\n",
      "    Message('note_on', channel=2, note=52, velocity=0, time=0),\n",
      "    Message('note_on', channel=2, note=42, velocity=84, time=12),\n",
      "    Message('note_on', channel=2, note=54, velocity=84, time=0),\n",
      "    Message('note_on', channel=2, note=42, velocity=0, time=168),\n",
      "    Message('note_on', channel=2, note=54, velocity=0, time=0),\n",
      "    Message('note_on', channel=2, note=43, velocity=84, time=12),\n",
      "    Message('note_on', channel=2, note=55, velocity=84, time=0),\n",
      "    Message('note_on', channel=2, note=43, velocity=0, time=168),\n",
      "    Message('note_on', channel=2, note=55, velocity=0, time=0),\n",
      "    Message('note_on', channel=2, note=50, velocity=84, time=12),\n",
      "    Message('note_on', channel=2, note=38, velocity=84, time=0),\n",
      "    Message('note_on', channel=2, note=50, velocity=0, time=528),\n",
      "    Message('note_on', channel=2, note=38, velocity=0, time=0),\n",
      "    Message('note_on', channel=2, note=50, velocity=84, time=12),\n",
      "    Message('note_on', channel=2, note=54, velocity=84, time=0),\n",
      "    Message('note_on', channel=2, note=50, velocity=0, time=528),\n",
      "    Message('note_on', channel=2, note=54, velocity=0, time=0),\n",
      "    Message('note_on', channel=2, note=43, velocity=84, time=12),\n",
      "    Message('note_on', channel=2, note=55, velocity=84, time=0),\n",
      "    Message('note_on', channel=2, note=43, velocity=0, time=168),\n",
      "    Message('note_on', channel=2, note=55, velocity=0, time=0),\n",
      "    Message('note_on', channel=2, note=42, velocity=84, time=12),\n",
      "    Message('note_on', channel=2, note=54, velocity=84, time=0),\n",
      "    Message('note_on', channel=2, note=42, velocity=0, time=168),\n",
      "    Message('note_on', channel=2, note=54, velocity=0, time=0),\n",
      "    Message('note_on', channel=2, note=40, velocity=84, time=12),\n",
      "    Message('note_on', channel=2, note=52, velocity=84, time=0),\n",
      "    Message('note_on', channel=2, note=40, velocity=0, time=168),\n",
      "    Message('note_on', channel=2, note=52, velocity=0, time=0),\n",
      "    Message('note_on', channel=2, note=47, velocity=84, time=12),\n",
      "    Message('note_on', channel=2, note=59, velocity=84, time=0),\n",
      "    Message('note_on', channel=2, note=47, velocity=0, time=168),\n",
      "    Message('note_on', channel=2, note=59, velocity=0, time=0),\n",
      "    Message('note_on', channel=2, note=47, velocity=84, time=12),\n",
      "    Message('note_on', channel=2, note=35, velocity=84, time=0),\n",
      "    Message('note_on', channel=2, note=47, velocity=0, time=168),\n",
      "    Message('note_on', channel=2, note=35, velocity=0, time=0),\n",
      "    Message('note_on', channel=2, note=52, velocity=84, time=12),\n",
      "    Message('note_on', channel=2, note=40, velocity=84, time=0),\n",
      "    Message('note_on', channel=2, note=52, velocity=0, time=168),\n",
      "    Message('note_on', channel=2, note=40, velocity=0, time=0),\n",
      "    Message('note_on', channel=2, note=48, velocity=84, time=12),\n",
      "    Message('note_on', channel=2, note=36, velocity=84, time=0),\n",
      "    Message('note_on', channel=2, note=48, velocity=0, time=168),\n",
      "    Message('note_on', channel=2, note=36, velocity=0, time=0),\n",
      "    Message('note_on', channel=2, note=50, velocity=84, time=12),\n",
      "    Message('note_on', channel=2, note=38, velocity=84, time=0),\n",
      "    Message('note_on', channel=2, note=50, velocity=0, time=336),\n",
      "    Message('note_on', channel=2, note=38, velocity=0, time=0),\n",
      "    Message('note_on', channel=2, note=43, velocity=84, time=24),\n",
      "    Message('note_on', channel=2, note=55, velocity=84, time=0),\n",
      "    Message('note_on', channel=2, note=43, velocity=0, time=168),\n",
      "    Message('note_on', channel=2, note=55, velocity=0, time=0),\n",
      "    Message('note_on', channel=2, note=55, velocity=84, time=12),\n",
      "    Message('note_on', channel=2, note=62, velocity=84, time=0),\n",
      "    Message('note_on', channel=2, note=55, velocity=0, time=168),\n",
      "    Message('note_on', channel=2, note=62, velocity=0, time=0),\n",
      "    Message('note_on', channel=2, note=60, velocity=84, time=12),\n",
      "    Message('note_on', channel=2, note=52, velocity=84, time=0),\n",
      "    Message('note_on', channel=2, note=60, velocity=0, time=168),\n",
      "    Message('note_on', channel=2, note=52, velocity=0, time=0),\n",
      "    Message('note_on', channel=2, note=55, velocity=84, time=12),\n",
      "    Message('note_on', channel=2, note=47, velocity=84, time=0),\n",
      "    Message('note_on', channel=2, note=55, velocity=0, time=168),\n",
      "    Message('note_on', channel=2, note=47, velocity=0, time=0),\n",
      "    Message('note_on', channel=2, note=52, velocity=84, time=12),\n",
      "    Message('note_on', channel=2, note=59, velocity=84, time=0),\n",
      "    Message('note_on', channel=2, note=52, velocity=0, time=168),\n",
      "    Message('note_on', channel=2, note=59, velocity=0, time=0),\n",
      "    Message('note_on', channel=2, note=59, velocity=84, time=12),\n",
      "    Message('note_on', channel=2, note=64, velocity=84, time=0),\n",
      "    Message('note_on', channel=2, note=59, velocity=0, time=168),\n",
      "    Message('note_on', channel=2, note=64, velocity=0, time=0),\n",
      "    Message('note_on', channel=2, note=57, velocity=84, time=12),\n",
      "    Message('note_on', channel=2, note=64, velocity=84, time=0),\n",
      "    Message('note_on', channel=2, note=57, velocity=0, time=168),\n",
      "    Message('note_on', channel=2, note=64, velocity=0, time=0),\n",
      "    Message('note_on', channel=2, note=59, velocity=84, time=12),\n",
      "    Message('note_on', channel=2, note=67, velocity=84, time=0),\n",
      "    Message('note_on', channel=2, note=59, velocity=0, time=168),\n",
      "    Message('note_on', channel=2, note=67, velocity=0, time=0),\n",
      "    Message('note_on', channel=2, note=67, velocity=84, time=12),\n",
      "    Message('note_on', channel=2, note=60, velocity=84, time=0),\n",
      "    Message('note_on', channel=2, note=67, velocity=0, time=168),\n",
      "    Message('note_on', channel=2, note=60, velocity=0, time=0),\n",
      "    Message('note_on', channel=2, note=57, velocity=84, time=12),\n",
      "    Message('note_on', channel=2, note=50, velocity=84, time=0),\n",
      "    Message('note_on', channel=2, note=57, velocity=0, time=336),\n",
      "    Message('note_on', channel=2, note=50, velocity=0, time=0),\n",
      "    Message('note_on', channel=2, note=54, velocity=84, time=24),\n",
      "    Message('note_on', channel=2, note=54, velocity=0, time=168),\n",
      "    Message('note_on', channel=2, note=43, velocity=84, time=12),\n",
      "    Message('note_on', channel=2, note=55, velocity=84, time=0),\n",
      "    Message('note_on', channel=2, note=43, velocity=0, time=168),\n",
      "    Message('note_on', channel=2, note=55, velocity=0, time=0),\n",
      "    Message('note_on', channel=2, note=55, velocity=84, time=12),\n",
      "    Message('note_on', channel=2, note=62, velocity=84, time=0),\n",
      "    Message('note_on', channel=2, note=55, velocity=0, time=168),\n",
      "    Message('note_on', channel=2, note=62, velocity=0, time=0),\n",
      "    Message('note_on', channel=2, note=60, velocity=84, time=12),\n",
      "    Message('note_on', channel=2, note=52, velocity=84, time=0),\n",
      "    Message('note_on', channel=2, note=60, velocity=0, time=168),\n",
      "    Message('note_on', channel=2, note=52, velocity=0, time=0),\n",
      "    Message('note_on', channel=2, note=55, velocity=84, time=12),\n",
      "    Message('note_on', channel=2, note=47, velocity=84, time=0),\n",
      "    Message('note_on', channel=2, note=55, velocity=0, time=168),\n",
      "    Message('note_on', channel=2, note=47, velocity=0, time=0),\n",
      "    Message('note_on', channel=2, note=52, velocity=84, time=12),\n",
      "    Message('note_on', channel=2, note=59, velocity=84, time=0),\n",
      "    Message('note_on', channel=2, note=52, velocity=0, time=168),\n",
      "    Message('note_on', channel=2, note=59, velocity=0, time=0),\n",
      "    Message('note_on', channel=2, note=64, velocity=84, time=12),\n",
      "    Message('note_on', channel=2, note=59, velocity=84, time=0),\n",
      "    Message('note_on', channel=2, note=64, velocity=0, time=168),\n",
      "    Message('note_on', channel=2, note=59, velocity=0, time=0),\n",
      "    Message('note_on', channel=2, note=48, velocity=84, time=12),\n",
      "    Message('note_on', channel=2, note=57, velocity=84, time=0),\n",
      "    Message('note_on', channel=2, note=48, velocity=0, time=336),\n",
      "    Message('note_on', channel=2, note=57, velocity=0, time=0),\n",
      "    Message('note_on', channel=2, note=50, velocity=84, time=24),\n",
      "    Message('note_on', channel=2, note=57, velocity=84, time=0),\n",
      "    Message('note_on', channel=2, note=60, velocity=84, time=0),\n",
      "    Message('note_on', channel=2, note=50, velocity=0, time=168),\n",
      "    Message('note_on', channel=2, note=57, velocity=0, time=0),\n",
      "    Message('note_on', channel=2, note=60, velocity=0, time=0),\n",
      "    Message('note_on', channel=2, note=59, velocity=84, time=12),\n",
      "    Message('note_on', channel=2, note=55, velocity=84, time=0),\n",
      "    Message('note_on', channel=2, note=62, velocity=84, time=0),\n",
      "    Message('note_on', channel=2, note=59, velocity=0, time=336),\n",
      "    Message('note_on', channel=2, note=55, velocity=0, time=0),\n",
      "    Message('note_on', channel=2, note=62, velocity=0, time=0),\n",
      "    Message('note_on', channel=2, note=55, velocity=84, time=24),\n",
      "    Message('note_on', channel=2, note=55, velocity=0, time=48),\n",
      "    Message('note_on', channel=2, note=59, velocity=84, time=12),\n",
      "    Message('note_on', channel=2, note=59, velocity=0, time=48),\n",
      "    Message('note_on', channel=2, note=61, velocity=84, time=12),\n",
      "    Message('note_on', channel=2, note=61, velocity=0, time=48),\n",
      "    Message('note_on', channel=2, note=62, velocity=84, time=12),\n",
      "    Message('note_on', channel=2, note=62, velocity=0, time=168),\n",
      "    Message('note_on', channel=2, note=60, velocity=84, time=12),\n",
      "    Message('note_on', channel=2, note=60, velocity=0, time=168),\n",
      "    Message('note_on', channel=2, note=59, velocity=84, time=12),\n",
      "    Message('note_on', channel=2, note=59, velocity=0, time=168),\n",
      "    Message('note_on', channel=2, note=57, velocity=84, time=12),\n",
      "    Message('note_on', channel=2, note=57, velocity=0, time=168),\n",
      "    Message('note_on', channel=2, note=57, velocity=84, time=12),\n",
      "    Message('note_on', channel=2, note=57, velocity=0, time=64),\n",
      "    Message('note_on', channel=2, note=55, velocity=84, time=16),\n",
      "    Message('note_on', channel=2, note=55, velocity=0, time=64),\n",
      "    Message('note_on', channel=2, note=53, velocity=84, time=16),\n",
      "    Message('note_on', channel=2, note=53, velocity=0, time=64),\n",
      "    Message('note_on', channel=2, note=52, velocity=84, time=16),\n",
      "    Message('note_on', channel=2, note=52, velocity=0, time=64),\n",
      "    Message('note_on', channel=2, note=53, velocity=84, time=76),\n",
      "    Message('note_on', channel=2, note=53, velocity=0, time=168),\n",
      "    Message('note_on', channel=2, note=47, velocity=84, time=12),\n",
      "    Message('note_on', channel=2, note=47, velocity=0, time=168),\n",
      "    Message('note_on', channel=2, note=50, velocity=84, time=12),\n",
      "    Message('note_on', channel=2, note=62, velocity=84, time=0),\n",
      "    Message('note_on', channel=2, note=50, velocity=0, time=168),\n",
      "    Message('note_on', channel=2, note=62, velocity=0, time=0),\n",
      "    Message('note_on', channel=2, note=60, velocity=84, time=12),\n",
      "    Message('note_on', channel=2, note=57, velocity=84, time=0),\n",
      "    Message('note_on', channel=2, note=60, velocity=0, time=168),\n",
      "    Message('note_on', channel=2, note=57, velocity=0, time=0),\n",
      "    Message('note_on', channel=2, note=60, velocity=84, time=12),\n",
      "    Message('note_on', channel=2, note=64, velocity=84, time=0),\n",
      "    Message('note_on', channel=2, note=57, velocity=84, time=0),\n",
      "    Message('note_on', channel=2, note=60, velocity=0, time=168),\n",
      "    Message('note_on', channel=2, note=64, velocity=0, time=0),\n",
      "    Message('note_on', channel=2, note=57, velocity=0, time=0),\n",
      "    Message('note_on', channel=2, note=62, velocity=84, time=12),\n",
      "    Message('note_on', channel=2, note=53, velocity=84, time=0),\n",
      "    Message('note_on', channel=2, note=62, velocity=0, time=168),\n",
      "    Message('note_on', channel=2, note=53, velocity=0, time=0),\n",
      "    Message('note_on', channel=2, note=57, velocity=84, time=12),\n",
      "    Message('note_on', channel=2, note=48, velocity=84, time=0),\n",
      "    Message('note_on', channel=2, note=57, velocity=0, time=168),\n",
      "    Message('note_on', channel=2, note=48, velocity=0, time=0),\n",
      "    Message('note_on', channel=2, note=60, velocity=84, time=12),\n",
      "    Message('note_on', channel=2, note=53, velocity=84, time=0),\n",
      "    Message('note_on', channel=2, note=60, velocity=0, time=168),\n",
      "    Message('note_on', channel=2, note=53, velocity=0, time=0),\n",
      "    Message('note_on', channel=2, note=60, velocity=84, time=12),\n",
      "    Message('note_on', channel=2, note=52, velocity=84, time=0),\n",
      "    Message('note_on', channel=2, note=60, velocity=0, time=168),\n",
      "    Message('note_on', channel=2, note=52, velocity=0, time=0),\n",
      "    Message('note_on', channel=2, note=50, velocity=84, time=12),\n",
      "    Message('note_on', channel=2, note=50, velocity=0, time=168),\n",
      "    Message('note_on', channel=2, note=51, velocity=84, time=12),\n",
      "    Message('note_on', channel=2, note=51, velocity=0, time=168),\n",
      "    Message('note_on', channel=2, note=52, velocity=84, time=12),\n",
      "    Message('note_on', channel=2, note=52, velocity=0, time=168),\n",
      "    Message('note_on', channel=2, note=45, velocity=84, time=12),\n",
      "    Message('note_on', channel=2, note=45, velocity=0, time=168),\n",
      "    Message('note_on', channel=2, note=57, velocity=84, time=12),\n",
      "    Message('note_on', channel=2, note=57, velocity=0, time=168),\n",
      "    Message('note_on', channel=2, note=59, velocity=84, time=12),\n",
      "    Message('note_on', channel=2, note=47, velocity=84, time=0),\n",
      "    Message('note_on', channel=2, note=59, velocity=0, time=168),\n",
      "    Message('note_on', channel=2, note=47, velocity=0, time=0),\n",
      "    Message('note_on', channel=2, note=60, velocity=84, time=12),\n",
      "    Message('note_on', channel=2, note=48, velocity=84, time=0),\n",
      "    Message('note_on', channel=2, note=60, velocity=0, time=336),\n",
      "    Message('note_on', channel=2, note=48, velocity=0, time=0),\n",
      "    Message('note_on', channel=2, note=60, velocity=84, time=24),\n",
      "    Message('note_on', channel=2, note=52, velocity=84, time=0),\n",
      "    Message('note_on', channel=2, note=60, velocity=0, time=168),\n",
      "    Message('note_on', channel=2, note=52, velocity=0, time=0),\n",
      "    Message('note_on', channel=2, note=53, velocity=84, time=12),\n",
      "    Message('note_on', channel=2, note=53, velocity=0, time=168),\n",
      "    Message('note_on', channel=2, note=50, velocity=84, time=12),\n",
      "    Message('note_on', channel=2, note=50, velocity=0, time=168),\n",
      "    Message('note_on', channel=2, note=55, velocity=84, time=12),\n",
      "    Message('note_on', channel=2, note=43, velocity=84, time=0),\n",
      "    Message('note_on', channel=2, note=55, velocity=0, time=168),\n",
      "    Message('note_on', channel=2, note=43, velocity=0, time=0),\n",
      "    Message('note_on', channel=2, note=48, velocity=84, time=12),\n",
      "    Message('note_on', channel=2, note=55, velocity=84, time=0),\n",
      "    Message('note_on', channel=2, note=48, velocity=0, time=168),\n",
      "    Message('note_on', channel=2, note=55, velocity=0, time=0),\n",
      "    Message('note_on', channel=2, note=52, velocity=84, time=12),\n",
      "    Message('note_on', channel=2, note=52, velocity=0, time=168),\n",
      "    Message('note_on', channel=2, note=60, velocity=84, time=12),\n",
      "    Message('note_on', channel=2, note=60, velocity=0, time=168),\n",
      "    Message('note_on', channel=2, note=60, velocity=84, time=12),\n",
      "    Message('note_on', channel=2, note=53, velocity=84, time=0),\n",
      "    Message('note_on', channel=2, note=60, velocity=0, time=336),\n",
      "    Message('note_on', channel=2, note=53, velocity=0, time=0),\n",
      "    Message('note_on', channel=2, note=55, velocity=84, time=24),\n",
      "    Message('note_on', channel=2, note=47, velocity=84, time=0),\n",
      "    Message('note_on', channel=2, note=55, velocity=0, time=168),\n",
      "    Message('note_on', channel=2, note=47, velocity=0, time=0),\n",
      "    Message('note_on', channel=2, note=55, velocity=84, time=12),\n",
      "    Message('note_on', channel=2, note=48, velocity=84, time=0),\n",
      "    Message('note_on', channel=2, note=55, velocity=0, time=336),\n",
      "    Message('note_on', channel=2, note=48, velocity=0, time=0),\n",
      "    Message('note_on', channel=2, note=59, velocity=84, time=24),\n",
      "    Message('note_on', channel=2, note=59, velocity=0, time=168),\n",
      "    Message('note_on', channel=2, note=62, velocity=84, time=12),\n",
      "    Message('note_on', channel=2, note=55, velocity=84, time=0),\n",
      "    Message('note_on', channel=2, note=62, velocity=0, time=168),\n",
      "    Message('note_on', channel=2, note=55, velocity=0, time=0),\n",
      "    Message('note_on', channel=2, note=43, velocity=84, time=12),\n",
      "    Message('note_on', channel=2, note=43, velocity=0, time=168),\n",
      "    Message('note_on', channel=2, note=52, velocity=84, time=12),\n",
      "    Message('note_on', channel=2, note=40, velocity=84, time=0),\n",
      "    Message('note_on', channel=2, note=52, velocity=0, time=168),\n",
      "    Message('note_on', channel=2, note=40, velocity=0, time=0),\n",
      "    Message('note_on', channel=2, note=47, velocity=84, time=12),\n",
      "    Message('note_on', channel=2, note=59, velocity=84, time=0),\n",
      "    Message('note_on', channel=2, note=47, velocity=0, time=168),\n",
      "    Message('note_on', channel=2, note=59, velocity=0, time=0),\n",
      "    Message('note_on', channel=2, note=40, velocity=84, time=12),\n",
      "    Message('note_on', channel=2, note=52, velocity=84, time=0),\n",
      "    Message('note_on', channel=2, note=40, velocity=0, time=168),\n",
      "    Message('note_on', channel=2, note=52, velocity=0, time=0),\n",
      "    Message('note_on', channel=2, note=52, velocity=84, time=12),\n",
      "    Message('note_on', channel=2, note=59, velocity=84, time=0),\n",
      "    Message('note_on', channel=2, note=52, velocity=0, time=168),\n",
      "    Message('note_on', channel=2, note=59, velocity=0, time=0),\n",
      "    Message('note_on', channel=2, note=42, velocity=84, time=12),\n",
      "    Message('note_on', channel=2, note=54, velocity=84, time=0),\n",
      "    Message('note_on', channel=2, note=42, velocity=0, time=168),\n",
      "    Message('note_on', channel=2, note=54, velocity=0, time=0),\n",
      "    Message('note_on', channel=2, note=55, velocity=84, time=12),\n",
      "    Message('note_on', channel=2, note=47, velocity=84, time=0),\n",
      "    Message('note_on', channel=2, note=55, velocity=0, time=168),\n",
      "    Message('note_on', channel=2, note=47, velocity=0, time=0),\n",
      "    Message('note_on', channel=2, note=48, velocity=84, time=12),\n",
      "    Message('note_on', channel=2, note=48, velocity=0, time=168),\n",
      "    Message('note_on', channel=2, note=50, velocity=84, time=12),\n",
      "    Message('note_on', channel=2, note=38, velocity=84, time=0),\n",
      "    Message('note_on', channel=2, note=50, velocity=0, time=528),\n",
      "    Message('note_on', channel=2, note=38, velocity=0, time=0),\n",
      "    Message('note_on', channel=2, note=54, velocity=84, time=12),\n",
      "    Message('note_on', channel=2, note=50, velocity=84, time=0),\n",
      "    Message('note_on', channel=2, note=54, velocity=0, time=528),\n",
      "    Message('note_on', channel=2, note=50, velocity=0, time=0),\n",
      "    Message('note_on', channel=2, note=43, velocity=84, time=12),\n",
      "    Message('note_on', channel=2, note=55, velocity=84, time=0),\n",
      "    Message('note_on', channel=2, note=43, velocity=0, time=168),\n",
      "    Message('note_on', channel=2, note=55, velocity=0, time=0),\n",
      "    Message('note_on', channel=2, note=42, velocity=84, time=12),\n",
      "    Message('note_on', channel=2, note=54, velocity=84, time=0),\n",
      "    Message('note_on', channel=2, note=42, velocity=0, time=168),\n",
      "    Message('note_on', channel=2, note=54, velocity=0, time=0),\n",
      "    Message('note_on', channel=2, note=40, velocity=84, time=12),\n",
      "    Message('note_on', channel=2, note=52, velocity=84, time=0),\n",
      "    Message('note_on', channel=2, note=40, velocity=0, time=168),\n",
      "    Message('note_on', channel=2, note=52, velocity=0, time=0),\n",
      "    Message('note_on', channel=2, note=55, velocity=84, time=12),\n",
      "    Message('note_on', channel=2, note=47, velocity=84, time=0),\n",
      "    Message('note_on', channel=2, note=55, velocity=0, time=168),\n",
      "    Message('note_on', channel=2, note=47, velocity=0, time=0),\n",
      "    Message('note_on', channel=2, note=47, velocity=84, time=12),\n",
      "    Message('note_on', channel=2, note=35, velocity=84, time=0),\n",
      "    Message('note_on', channel=2, note=47, velocity=0, time=168),\n",
      "    Message('note_on', channel=2, note=35, velocity=0, time=0),\n",
      "    Message('note_on', channel=2, note=52, velocity=84, time=12),\n",
      "    Message('note_on', channel=2, note=52, velocity=0, time=168),\n",
      "    Message('note_on', channel=2, note=48, velocity=84, time=12),\n",
      "    Message('note_on', channel=2, note=36, velocity=84, time=0),\n",
      "    Message('note_on', channel=2, note=48, velocity=0, time=168),\n",
      "    Message('note_on', channel=2, note=36, velocity=0, time=0),\n",
      "    Message('note_on', channel=2, note=38, velocity=84, time=12),\n",
      "    Message('note_on', channel=2, note=50, velocity=84, time=0),\n",
      "    Message('note_on', channel=2, note=38, velocity=0, time=336),\n",
      "    Message('note_on', channel=2, note=50, velocity=0, time=0),\n",
      "    Message('note_on', channel=2, note=55, velocity=84, time=24),\n",
      "    Message('note_on', channel=2, note=43, velocity=84, time=0),\n",
      "    Message('note_on', channel=2, note=55, velocity=0, time=168),\n",
      "    Message('note_on', channel=2, note=43, velocity=0, time=0),\n",
      "    Message('note_on', channel=2, note=59, velocity=84, time=12),\n",
      "    Message('note_on', channel=2, note=59, velocity=0, time=168),\n",
      "    Message('note_on', channel=2, note=50, velocity=84, time=12),\n",
      "    Message('note_on', channel=2, note=50, velocity=0, time=168),\n",
      "    Message('note_on', channel=2, note=55, velocity=84, time=12),\n",
      "    Message('note_on', channel=2, note=59, velocity=84, time=0),\n",
      "    Message('note_on', channel=2, note=55, velocity=0, time=336),\n",
      "    Message('note_on', channel=2, note=59, velocity=0, time=0),\n",
      "    Message('note_on', channel=2, note=60, velocity=84, time=24),\n",
      "    Message('note_on', channel=2, note=55, velocity=84, time=0),\n",
      "    Message('note_on', channel=2, note=60, velocity=0, time=168),\n",
      "    Message('note_on', channel=2, note=55, velocity=0, time=0),\n",
      "    Message('note_on', channel=2, note=57, velocity=84, time=12),\n",
      "    Message('note_on', channel=2, note=55, velocity=84, time=0),\n",
      "    Message('note_on', channel=2, note=57, velocity=0, time=168),\n",
      "    Message('note_on', channel=2, note=55, velocity=0, time=0),\n",
      "    Message('note_on', channel=2, note=59, velocity=84, time=12),\n",
      "    Message('note_on', channel=2, note=59, velocity=0, time=168),\n",
      "    Message('note_on', channel=2, note=62, velocity=84, time=12),\n",
      "    Message('note_on', channel=2, note=62, velocity=0, time=168),\n",
      "    Message('note_on', channel=2, note=43, velocity=84, time=12),\n",
      "    Message('note_on', channel=2, note=43, velocity=0, time=336),\n",
      "    Message('note_on', channel=2, note=43, velocity=84, time=24),\n",
      "    Message('note_on', channel=2, note=54, velocity=84, time=0),\n",
      "    Message('note_on', channel=2, note=43, velocity=0, time=168),\n",
      "    Message('note_on', channel=2, note=54, velocity=0, time=0),\n",
      "    Message('note_on', channel=2, note=55, velocity=84, time=12),\n",
      "    Message('note_on', channel=2, note=43, velocity=84, time=0),\n",
      "    Message('note_on', channel=2, note=55, velocity=0, time=168),\n",
      "    Message('note_on', channel=2, note=43, velocity=0, time=0),\n",
      "    Message('note_on', channel=2, note=62, velocity=84, time=12),\n",
      "    Message('note_on', channel=2, note=55, velocity=84, time=0),\n",
      "    Message('note_on', channel=2, note=62, velocity=0, time=168),\n",
      "    Message('note_on', channel=2, note=55, velocity=0, time=0),\n",
      "    Message('note_on', channel=2, note=60, velocity=84, time=12),\n",
      "    Message('note_on', channel=2, note=52, velocity=84, time=0),\n",
      "    Message('note_on', channel=2, note=60, velocity=0, time=168),\n",
      "    Message('note_on', channel=2, note=52, velocity=0, time=0),\n",
      "    Message('note_on', channel=2, note=47, velocity=84, time=12),\n",
      "    Message('note_on', channel=2, note=55, velocity=84, time=0),\n",
      "    Message('note_on', channel=2, note=47, velocity=0, time=168),\n",
      "    Message('note_on', channel=2, note=55, velocity=0, time=0),\n",
      "    Message('note_on', channel=2, note=52, velocity=84, time=12),\n",
      "    Message('note_on', channel=2, note=59, velocity=84, time=0),\n",
      "    Message('note_on', channel=2, note=52, velocity=0, time=168),\n",
      "    Message('note_on', channel=2, note=59, velocity=0, time=0),\n",
      "    Message('note_on', channel=2, note=64, velocity=84, time=12),\n",
      "    Message('note_on', channel=2, note=59, velocity=84, time=0),\n",
      "    Message('note_on', channel=2, note=64, velocity=0, time=168),\n",
      "    Message('note_on', channel=2, note=59, velocity=0, time=0),\n",
      "    Message('note_on', channel=2, note=64, velocity=84, time=12),\n",
      "    Message('note_on', channel=2, note=57, velocity=84, time=0),\n",
      "    Message('note_on', channel=2, note=64, velocity=0, time=168),\n",
      "    Message('note_on', channel=2, note=57, velocity=0, time=0),\n",
      "    Message('note_on', channel=2, note=59, velocity=84, time=12),\n",
      "    Message('note_on', channel=2, note=67, velocity=84, time=0),\n",
      "    Message('note_on', channel=2, note=59, velocity=0, time=168),\n",
      "    Message('note_on', channel=2, note=67, velocity=0, time=0),\n",
      "    Message('note_on', channel=2, note=60, velocity=84, time=12),\n",
      "    Message('note_on', channel=2, note=57, velocity=84, time=0),\n",
      "    Message('note_on', channel=2, note=60, velocity=0, time=168),\n",
      "    Message('note_on', channel=2, note=57, velocity=0, time=0),\n",
      "    Message('note_on', channel=2, note=57, velocity=84, time=12),\n",
      "    Message('note_on', channel=2, note=50, velocity=84, time=0),\n",
      "    Message('note_on', channel=2, note=57, velocity=0, time=336),\n",
      "    Message('note_on', channel=2, note=50, velocity=0, time=0),\n",
      "    Message('note_on', channel=2, note=54, velocity=84, time=24),\n",
      "    Message('note_on', channel=2, note=54, velocity=0, time=168),\n",
      "    Message('note_on', channel=2, note=43, velocity=84, time=12),\n",
      "    Message('note_on', channel=2, note=55, velocity=84, time=0),\n",
      "    Message('note_on', channel=2, note=43, velocity=0, time=168),\n",
      "    Message('note_on', channel=2, note=55, velocity=0, time=0),\n",
      "    Message('note_on', channel=2, note=55, velocity=84, time=12),\n",
      "    Message('note_on', channel=2, note=62, velocity=84, time=0),\n",
      "    Message('note_on', channel=2, note=55, velocity=0, time=168),\n",
      "    Message('note_on', channel=2, note=62, velocity=0, time=0),\n",
      "    Message('note_on', channel=2, note=52, velocity=84, time=12),\n",
      "    Message('note_on', channel=2, note=60, velocity=84, time=0),\n",
      "    Message('note_on', channel=2, note=52, velocity=0, time=168),\n",
      "    Message('note_on', channel=2, note=60, velocity=0, time=0),\n",
      "    Message('note_on', channel=2, note=55, velocity=84, time=12),\n",
      "    Message('note_on', channel=2, note=47, velocity=84, time=0),\n",
      "    Message('note_on', channel=2, note=55, velocity=0, time=168),\n",
      "    Message('note_on', channel=2, note=47, velocity=0, time=0),\n",
      "    Message('note_on', channel=2, note=52, velocity=84, time=12),\n",
      "    Message('note_on', channel=2, note=59, velocity=84, time=0),\n",
      "    Message('note_on', channel=2, note=52, velocity=0, time=168),\n",
      "    Message('note_on', channel=2, note=59, velocity=0, time=0),\n",
      "    Message('note_on', channel=2, note=59, velocity=84, time=12),\n",
      "    Message('note_on', channel=2, note=64, velocity=84, time=0),\n",
      "    Message('note_on', channel=2, note=59, velocity=0, time=168),\n",
      "    Message('note_on', channel=2, note=64, velocity=0, time=0),\n",
      "    Message('note_on', channel=2, note=57, velocity=84, time=12),\n",
      "    Message('note_on', channel=2, note=48, velocity=84, time=0),\n",
      "    Message('note_on', channel=2, note=57, velocity=0, time=336),\n",
      "    Message('note_on', channel=2, note=48, velocity=0, time=0),\n",
      "    Message('note_on', channel=2, note=60, velocity=84, time=24),\n",
      "    Message('note_on', channel=2, note=57, velocity=84, time=0),\n",
      "    Message('note_on', channel=2, note=50, velocity=84, time=0),\n",
      "    Message('note_on', channel=2, note=60, velocity=0, time=168),\n",
      "    Message('note_on', channel=2, note=57, velocity=0, time=0),\n",
      "    Message('note_on', channel=2, note=50, velocity=0, time=0),\n",
      "    Message('note_on', channel=2, note=43, velocity=84, time=12),\n",
      "    Message('note_on', channel=2, note=31, velocity=84, time=0),\n",
      "    Message('note_on', channel=2, note=43, velocity=0, time=528),\n",
      "    Message('note_on', channel=2, note=31, velocity=0, time=0),\n",
      "    MetaMessage('end_of_track', time=0)]),\n",
      "  MidiTrack([\n",
      "    MetaMessage('track_name', name='Arranged by', time=0),\n",
      "    MetaMessage('instrument_name', name='Harpsichord', time=0),\n",
      "    MetaMessage('midi_port', port=0, time=0),\n",
      "    Message('control_change', channel=3, control=0, value=80, time=0),\n",
      "    Message('control_change', channel=3, control=32, value=0, time=0),\n",
      "    Message('program_change', channel=3, program=6, time=0),\n",
      "    Message('note_on', channel=3, note=67, velocity=94, time=60),\n",
      "    Message('note_on', channel=3, note=67, velocity=0, time=48),\n",
      "    Message('note_on', channel=3, note=69, velocity=94, time=12),\n",
      "    Message('note_on', channel=3, note=69, velocity=0, time=48),\n",
      "    Message('note_on', channel=3, note=71, velocity=94, time=12),\n",
      "    Message('note_on', channel=3, note=71, velocity=0, time=48),\n",
      "    Message('note_on', channel=3, note=74, velocity=94, time=12),\n",
      "    Message('note_on', channel=3, note=74, velocity=0, time=48),\n",
      "    Message('note_on', channel=3, note=72, velocity=94, time=12),\n",
      "    Message('note_on', channel=3, note=72, velocity=0, time=48),\n",
      "    Message('note_on', channel=3, note=72, velocity=94, time=12),\n",
      "    Message('note_on', channel=3, note=72, velocity=0, time=48),\n",
      "    Message('note_on', channel=3, note=76, velocity=94, time=12),\n",
      "    Message('note_on', channel=3, note=76, velocity=0, time=48),\n",
      "    Message('note_on', channel=3, note=74, velocity=94, time=12),\n",
      "    Message('note_on', channel=3, note=74, velocity=0, time=48),\n",
      "    Message('note_on', channel=3, note=74, velocity=94, time=12),\n",
      "    Message('note_on', channel=3, note=74, velocity=0, time=48),\n",
      "    Message('note_on', channel=3, note=79, velocity=94, time=12),\n",
      "    Message('note_on', channel=3, note=79, velocity=0, time=48),\n",
      "    Message('note_on', channel=3, note=78, velocity=94, time=12),\n",
      "    Message('note_on', channel=3, note=78, velocity=0, time=48),\n",
      "    Message('note_on', channel=3, note=79, velocity=94, time=12),\n",
      "    Message('note_on', channel=3, note=79, velocity=0, time=48),\n",
      "    Message('note_on', channel=3, note=74, velocity=94, time=12),\n",
      "    Message('note_on', channel=3, note=74, velocity=0, time=48),\n",
      "    Message('note_on', channel=3, note=71, velocity=94, time=12),\n",
      "    Message('note_on', channel=3, note=71, velocity=0, time=48),\n",
      "    Message('note_on', channel=3, note=67, velocity=94, time=12),\n",
      "    Message('note_on', channel=3, note=67, velocity=0, time=48),\n",
      "    Message('note_on', channel=3, note=69, velocity=94, time=12),\n",
      "    Message('note_on', channel=3, note=69, velocity=0, time=48),\n",
      "    Message('note_on', channel=3, note=71, velocity=94, time=12),\n",
      "    Message('note_on', channel=3, note=71, velocity=0, time=48),\n",
      "    Message('note_on', channel=3, note=72, velocity=94, time=12),\n",
      "    Message('note_on', channel=3, note=72, velocity=0, time=48),\n",
      "    Message('note_on', channel=3, note=74, velocity=94, time=12),\n",
      "    Message('note_on', channel=3, note=74, velocity=0, time=48),\n",
      "    Message('note_on', channel=3, note=76, velocity=94, time=12),\n",
      "    Message('note_on', channel=3, note=76, velocity=0, time=48),\n",
      "    Message('note_on', channel=3, note=74, velocity=94, time=12),\n",
      "    Message('note_on', channel=3, note=74, velocity=0, time=48),\n",
      "    Message('note_on', channel=3, note=72, velocity=94, time=12),\n",
      "    Message('note_on', channel=3, note=72, velocity=0, time=48),\n",
      "    Message('note_on', channel=3, note=71, velocity=94, time=12),\n",
      "    Message('note_on', channel=3, note=71, velocity=0, time=48),\n",
      "    Message('note_on', channel=3, note=69, velocity=94, time=12),\n",
      "    Message('note_on', channel=3, note=69, velocity=0, time=48),\n",
      "    Message('note_on', channel=3, note=71, velocity=94, time=12),\n",
      "    Message('note_on', channel=3, note=71, velocity=0, time=48),\n",
      "    Message('note_on', channel=3, note=67, velocity=94, time=12),\n",
      "    Message('note_on', channel=3, note=67, velocity=0, time=48),\n",
      "    Message('note_on', channel=3, note=66, velocity=94, time=12),\n",
      "    Message('note_on', channel=3, note=66, velocity=0, time=48),\n",
      "    Message('note_on', channel=3, note=67, velocity=94, time=12),\n",
      "    Message('note_on', channel=3, note=67, velocity=0, time=48),\n",
      "    Message('note_on', channel=3, note=69, velocity=94, time=12),\n",
      "    Message('note_on', channel=3, note=69, velocity=0, time=48),\n",
      "    Message('note_on', channel=3, note=62, velocity=94, time=12),\n",
      "    Message('note_on', channel=3, note=62, velocity=0, time=48),\n",
      "    Message('note_on', channel=3, note=66, velocity=94, time=12),\n",
      "    Message('note_on', channel=3, note=66, velocity=0, time=48),\n",
      "    Message('note_on', channel=3, note=69, velocity=94, time=12),\n",
      "    Message('note_on', channel=3, note=69, velocity=0, time=48),\n",
      "    Message('note_on', channel=3, note=72, velocity=94, time=12),\n",
      "    Message('note_on', channel=3, note=72, velocity=0, time=48),\n",
      "    Message('note_on', channel=3, note=71, velocity=94, time=12),\n",
      "    Message('note_on', channel=3, note=71, velocity=0, time=48),\n",
      "    Message('note_on', channel=3, note=69, velocity=94, time=12),\n",
      "    Message('note_on', channel=3, note=69, velocity=0, time=48),\n",
      "    Message('note_on', channel=3, note=71, velocity=94, time=12),\n",
      "    Message('note_on', channel=3, note=71, velocity=0, time=48),\n",
      "    Message('note_on', channel=3, note=67, velocity=94, time=12),\n",
      "    Message('note_on', channel=3, note=67, velocity=0, time=48),\n",
      "    Message('note_on', channel=3, note=69, velocity=94, time=12),\n",
      "    Message('note_on', channel=3, note=69, velocity=0, time=48),\n",
      "    Message('note_on', channel=3, note=71, velocity=94, time=12),\n",
      "    Message('note_on', channel=3, note=71, velocity=0, time=48),\n",
      "    Message('note_on', channel=3, note=74, velocity=94, time=12),\n",
      "    Message('note_on', channel=3, note=74, velocity=0, time=48),\n",
      "    Message('note_on', channel=3, note=72, velocity=94, time=12),\n",
      "    Message('note_on', channel=3, note=72, velocity=0, time=48),\n",
      "    Message('note_on', channel=3, note=72, velocity=94, time=12),\n",
      "    Message('note_on', channel=3, note=72, velocity=0, time=48),\n",
      "    Message('note_on', channel=3, note=76, velocity=94, time=12),\n",
      "    Message('note_on', channel=3, note=76, velocity=0, time=48),\n",
      "    Message('note_on', channel=3, note=74, velocity=94, time=12),\n",
      "    Message('note_on', channel=3, note=74, velocity=0, time=48),\n",
      "    Message('note_on', channel=3, note=74, velocity=94, time=12),\n",
      "    Message('note_on', channel=3, note=74, velocity=0, time=48),\n",
      "    Message('note_on', channel=3, note=79, velocity=94, time=12),\n",
      "    Message('note_on', channel=3, note=79, velocity=0, time=48),\n",
      "    Message('note_on', channel=3, note=78, velocity=94, time=12),\n",
      "    Message('note_on', channel=3, note=78, velocity=0, time=48),\n",
      "    Message('note_on', channel=3, note=79, velocity=94, time=12),\n",
      "    Message('note_on', channel=3, note=79, velocity=0, time=48),\n",
      "    Message('note_on', channel=3, note=74, velocity=94, time=12),\n",
      "    Message('note_on', channel=3, note=74, velocity=0, time=48),\n",
      "    Message('note_on', channel=3, note=71, velocity=94, time=12),\n",
      "    Message('note_on', channel=3, note=71, velocity=0, time=48),\n",
      "    Message('note_on', channel=3, note=67, velocity=94, time=12),\n",
      "    Message('note_on', channel=3, note=67, velocity=0, time=48),\n",
      "    Message('note_on', channel=3, note=69, velocity=94, time=12),\n",
      "    Message('note_on', channel=3, note=69, velocity=0, time=48),\n",
      "    Message('note_on', channel=3, note=71, velocity=94, time=12),\n",
      "    Message('note_on', channel=3, note=71, velocity=0, time=48),\n",
      "    Message('note_on', channel=3, note=64, velocity=94, time=12),\n",
      "    Message('note_on', channel=3, note=64, velocity=0, time=48),\n",
      "    Message('note_on', channel=3, note=74, velocity=94, time=12),\n",
      "    Message('note_on', channel=3, note=74, velocity=0, time=48),\n",
      "    Message('note_on', channel=3, note=72, velocity=94, time=12),\n",
      "    Message('note_on', channel=3, note=72, velocity=0, time=48),\n",
      "    Message('note_on', channel=3, note=71, velocity=94, time=12),\n",
      "    Message('note_on', channel=3, note=71, velocity=0, time=48),\n",
      "    Message('note_on', channel=3, note=69, velocity=94, time=12),\n",
      "    Message('note_on', channel=3, note=69, velocity=0, time=48),\n",
      "    Message('note_on', channel=3, note=67, velocity=94, time=12),\n",
      "    Message('note_on', channel=3, note=67, velocity=0, time=48),\n",
      "    Message('note_on', channel=3, note=62, velocity=94, time=12),\n",
      "    Message('note_on', channel=3, note=62, velocity=0, time=48),\n",
      "    Message('note_on', channel=3, note=67, velocity=94, time=12),\n",
      "    Message('note_on', channel=3, note=67, velocity=0, time=48),\n",
      "    Message('note_on', channel=3, note=66, velocity=94, time=12),\n",
      "    Message('note_on', channel=3, note=66, velocity=0, time=48),\n",
      "    Message('note_on', channel=3, note=67, velocity=94, time=12),\n",
      "    Message('note_on', channel=3, note=67, velocity=0, time=48),\n",
      "    Message('note_on', channel=3, note=71, velocity=94, time=12),\n",
      "    Message('note_on', channel=3, note=71, velocity=0, time=48),\n",
      "    Message('note_on', channel=3, note=74, velocity=94, time=12),\n",
      "    Message('note_on', channel=3, note=74, velocity=0, time=48),\n",
      "    Message('note_on', channel=3, note=79, velocity=94, time=12),\n",
      "    Message('note_on', channel=3, note=79, velocity=0, time=48),\n",
      "    Message('note_on', channel=3, note=74, velocity=94, time=12),\n",
      "    Message('note_on', channel=3, note=74, velocity=0, time=48),\n",
      "    Message('note_on', channel=3, note=71, velocity=94, time=12),\n",
      "    Message('note_on', channel=3, note=71, velocity=0, time=48),\n",
      "    Message('note_on', channel=3, note=67, velocity=94, time=12),\n",
      "    Message('note_on', channel=3, note=67, velocity=0, time=48),\n",
      "    Message('note_on', channel=3, note=71, velocity=94, time=12),\n",
      "    Message('note_on', channel=3, note=71, velocity=0, time=48),\n",
      "    Message('note_on', channel=3, note=74, velocity=94, time=12),\n",
      "    Message('note_on', channel=3, note=74, velocity=0, time=48),\n",
      "    Message('note_on', channel=3, note=62, velocity=94, time=12),\n",
      "    Message('note_on', channel=3, note=71, velocity=94, time=0),\n",
      "    Message('note_on', channel=3, note=67, velocity=94, time=0),\n",
      "    Message('note_on', channel=3, note=62, velocity=0, time=336),\n",
      "    Message('note_on', channel=3, note=71, velocity=0, time=0),\n",
      "    Message('note_on', channel=3, note=67, velocity=0, time=0),\n",
      "    Message('note_on', channel=3, note=64, velocity=94, time=24),\n",
      "    Message('note_on', channel=3, note=67, velocity=94, time=0),\n",
      "    Message('note_on', channel=3, note=60, velocity=94, time=0),\n",
      "    Message('note_on', channel=3, note=72, velocity=94, time=0),\n",
      "    Message('note_on', channel=3, note=64, velocity=0, time=168),\n",
      "    Message('note_on', channel=3, note=67, velocity=0, time=0),\n",
      "    Message('note_on', channel=3, note=60, velocity=0, time=0),\n",
      "    Message('note_on', channel=3, note=72, velocity=0, time=0),\n",
      "    Message('note_on', channel=3, note=74, velocity=94, time=12),\n",
      "    Message('note_on', channel=3, note=74, velocity=0, time=336),\n",
      "    Message('note_on', channel=3, note=66, velocity=94, time=24),\n",
      "    Message('note_on', channel=3, note=71, velocity=94, time=0),\n",
      "    Message('note_on', channel=3, note=74, velocity=94, time=0),\n",
      "    Message('note_on', channel=3, note=62, velocity=94, time=0),\n",
      "    Message('note_on', channel=3, note=66, velocity=0, time=168),\n",
      "    Message('note_on', channel=3, note=71, velocity=0, time=0),\n",
      "    Message('note_on', channel=3, note=74, velocity=0, time=0),\n",
      "    Message('note_on', channel=3, note=62, velocity=0, time=0),\n",
      "    Message('note_on', channel=3, note=72, velocity=94, time=12),\n",
      "    Message('note_on', channel=3, note=72, velocity=0, time=336),\n",
      "    Message('note_on', channel=3, note=67, velocity=94, time=24),\n",
      "    Message('note_on', channel=3, note=62, velocity=94, time=0),\n",
      "    Message('note_on', channel=3, note=71, velocity=94, time=0),\n",
      "    Message('note_on', channel=3, note=67, velocity=0, time=168),\n",
      "    Message('note_on', channel=3, note=62, velocity=0, time=0),\n",
      "    Message('note_on', channel=3, note=71, velocity=0, time=0),\n",
      "    Message('note_on', channel=3, note=66, velocity=94, time=12),\n",
      "    Message('note_on', channel=3, note=69, velocity=94, time=0),\n",
      "    Message('note_on', channel=3, note=66, velocity=0, time=48),\n",
      "    Message('note_on', channel=3, note=69, velocity=0, time=0),\n",
      "    Message('note_on', channel=3, note=62, velocity=94, time=12),\n",
      "    Message('note_on', channel=3, note=62, velocity=0, time=48),\n",
      "    Message('note_on', channel=3, note=64, velocity=94, time=12),\n",
      "    Message('note_on', channel=3, note=64, velocity=0, time=48),\n",
      "    Message('note_on', channel=3, note=66, velocity=94, time=12),\n",
      "    Message('note_on', channel=3, note=69, velocity=94, time=0),\n",
      "    Message('note_on', channel=3, note=66, velocity=0, time=48),\n",
      "    Message('note_on', channel=3, note=69, velocity=0, time=0),\n",
      "    Message('note_on', channel=3, note=69, velocity=94, time=12),\n",
      "    Message('note_on', channel=3, note=69, velocity=0, time=48),\n",
      "    Message('note_on', channel=3, note=67, velocity=94, time=12),\n",
      "    Message('note_on', channel=3, note=67, velocity=0, time=48),\n",
      "    Message('note_on', channel=3, note=69, velocity=94, time=12),\n",
      "    Message('note_on', channel=3, note=69, velocity=0, time=48),\n",
      "    Message('note_on', channel=3, note=72, velocity=94, time=12),\n",
      "    Message('note_on', channel=3, note=72, velocity=0, time=48),\n",
      "    Message('note_on', channel=3, note=71, velocity=94, time=12),\n",
      "    Message('note_on', channel=3, note=71, velocity=0, time=48),\n",
      "    Message('note_on', channel=3, note=72, velocity=94, time=12),\n",
      "    Message('note_on', channel=3, note=72, velocity=0, time=48),\n",
      "    Message('note_on', channel=3, note=69, velocity=94, time=12),\n",
      "    Message('note_on', channel=3, note=69, velocity=0, time=48),\n",
      "    Message('note_on', channel=3, note=66, velocity=94, time=12),\n",
      "    Message('note_on', channel=3, note=66, velocity=0, time=48),\n",
      "    Message('note_on', channel=3, note=62, velocity=94, time=12),\n",
      "    Message('note_on', channel=3, note=62, velocity=0, time=48),\n",
      "    Message('note_on', channel=3, note=66, velocity=94, time=12),\n",
      "    Message('note_on', channel=3, note=66, velocity=0, time=48),\n",
      "    Message('note_on', channel=3, note=69, velocity=94, time=12),\n",
      "    Message('note_on', channel=3, note=69, velocity=0, time=48),\n",
      "    Message('note_on', channel=3, note=72, velocity=94, time=12),\n",
      "    Message('note_on', channel=3, note=72, velocity=0, time=48),\n",
      "    Message('note_on', channel=3, note=71, velocity=94, time=12),\n",
      "    Message('note_on', channel=3, note=71, velocity=0, time=48),\n",
      "    Message('note_on', channel=3, note=69, velocity=94, time=12),\n",
      "    Message('note_on', channel=3, note=69, velocity=0, time=48),\n",
      "    Message('note_on', channel=3, note=67, velocity=94, time=12),\n",
      "    Message('note_on', channel=3, note=71, velocity=94, time=0),\n",
      "    Message('note_on', channel=3, note=67, velocity=0, time=336),\n",
      "    Message('note_on', channel=3, note=71, velocity=0, time=0),\n",
      "    Message('note_on', channel=3, note=64, velocity=94, time=24),\n",
      "    Message('note_on', channel=3, note=72, velocity=94, time=0),\n",
      "    Message('note_on', channel=3, note=67, velocity=94, time=0),\n",
      "    Message('note_on', channel=3, note=60, velocity=94, time=0),\n",
      "    Message('note_on', channel=3, note=64, velocity=0, time=168),\n",
      "    Message('note_on', channel=3, note=72, velocity=0, time=0),\n",
      "    Message('note_on', channel=3, note=67, velocity=0, time=0),\n",
      "    Message('note_on', channel=3, note=60, velocity=0, time=0),\n",
      "    Message('note_on', channel=3, note=67, velocity=94, time=12),\n",
      "    Message('note_on', channel=3, note=62, velocity=94, time=0),\n",
      "    Message('note_on', channel=3, note=74, velocity=94, time=0),\n",
      "    Message('note_on', channel=3, note=67, velocity=0, time=336),\n",
      "    Message('note_on', channel=3, note=62, velocity=0, time=0),\n",
      "    Message('note_on', channel=3, note=74, velocity=0, time=0),\n",
      "    Message('note_on', channel=3, note=67, velocity=94, time=24),\n",
      "    Message('note_on', channel=3, note=64, velocity=94, time=0),\n",
      "    Message('note_on', channel=3, note=71, velocity=94, time=0),\n",
      "    Message('note_on', channel=3, note=67, velocity=0, time=168),\n",
      "    Message('note_on', channel=3, note=64, velocity=0, time=0),\n",
      "    Message('note_on', channel=3, note=71, velocity=0, time=0),\n",
      "    Message('note_on', channel=3, note=69, velocity=53, time=12),\n",
      "    Message('note_on', channel=3, note=69, velocity=0, time=116),\n",
      "    Message('note_on', channel=3, note=71, velocity=64, time=4),\n",
      "    Message('note_on', channel=3, note=72, velocity=58, time=30),\n",
      "    Message('note_on', channel=3, note=71, velocity=0, time=14),\n",
      "    Message('note_on', channel=3, note=71, velocity=55, time=16),\n",
      "    Message('note_on', channel=3, note=66, velocity=57, time=0),\n",
      "    Message('note_on', channel=3, note=62, velocity=45, time=0),\n",
      "    Message('note_on', channel=3, note=72, velocity=0, time=14),\n",
      "    Message('note_on', channel=3, note=66, velocity=45, time=166),\n",
      "    Message('note_on', channel=3, note=60, velocity=36, time=0),\n",
      "    Message('note_on', channel=3, note=69, velocity=35, time=0),\n",
      "    Message('note_on', channel=3, note=71, velocity=0, time=8),\n",
      "    Message('note_on', channel=3, note=66, velocity=0, time=0),\n",
      "    Message('note_on', channel=3, note=62, velocity=0, time=0),\n",
      "    Message('note_on', channel=3, note=67, velocity=94, time=172),\n",
      "    Message('note_on', channel=3, note=66, velocity=0, time=8),\n",
      "    Message('note_on', channel=3, note=60, velocity=0, time=0),\n",
      "    Message('note_on', channel=3, note=69, velocity=0, time=0),\n",
      "    Message('note_on', channel=3, note=67, velocity=0, time=40),\n",
      "    Message('note_on', channel=3, note=71, velocity=94, time=12),\n",
      "    Message('note_on', channel=3, note=71, velocity=0, time=48),\n",
      "    Message('note_on', channel=3, note=69, velocity=94, time=12),\n",
      "    Message('note_on', channel=3, note=69, velocity=0, time=48),\n",
      "    Message('note_on', channel=3, note=71, velocity=94, time=12),\n",
      "    Message('note_on', channel=3, note=71, velocity=0, time=48),\n",
      "    Message('note_on', channel=3, note=74, velocity=94, time=12),\n",
      "    Message('note_on', channel=3, note=74, velocity=0, time=48),\n",
      "    Message('note_on', channel=3, note=72, velocity=94, time=12),\n",
      "    Message('note_on', channel=3, note=72, velocity=0, time=48),\n",
      "    Message('note_on', channel=3, note=72, velocity=94, time=12),\n",
      "    Message('note_on', channel=3, note=72, velocity=0, time=48),\n",
      "    Message('note_on', channel=3, note=76, velocity=94, time=12),\n",
      "    Message('note_on', channel=3, note=76, velocity=0, time=48),\n",
      "    Message('note_on', channel=3, note=74, velocity=94, time=12),\n",
      "    Message('note_on', channel=3, note=74, velocity=0, time=48),\n",
      "    Message('note_on', channel=3, note=74, velocity=94, time=12),\n",
      "    Message('note_on', channel=3, note=74, velocity=0, time=48),\n",
      "    Message('note_on', channel=3, note=79, velocity=94, time=12),\n",
      "    Message('note_on', channel=3, note=79, velocity=0, time=48),\n",
      "    Message('note_on', channel=3, note=78, velocity=94, time=12),\n",
      "    Message('note_on', channel=3, note=78, velocity=0, time=48),\n",
      "    Message('note_on', channel=3, note=79, velocity=94, time=12),\n",
      "    Message('note_on', channel=3, note=79, velocity=0, time=48),\n",
      "    Message('note_on', channel=3, note=74, velocity=94, time=12),\n",
      "    Message('note_on', channel=3, note=74, velocity=0, time=48),\n",
      "    Message('note_on', channel=3, note=71, velocity=94, time=12),\n",
      "    Message('note_on', channel=3, note=71, velocity=0, time=48),\n",
      "    Message('note_on', channel=3, note=67, velocity=94, time=12),\n",
      "    Message('note_on', channel=3, note=67, velocity=0, time=48),\n",
      "    Message('note_on', channel=3, note=69, velocity=94, time=12),\n",
      "    Message('note_on', channel=3, note=69, velocity=0, time=48),\n",
      "    Message('note_on', channel=3, note=71, velocity=94, time=12),\n",
      "    Message('note_on', channel=3, note=71, velocity=0, time=48),\n",
      "    Message('note_on', channel=3, note=72, velocity=94, time=12),\n",
      "    Message('note_on', channel=3, note=72, velocity=0, time=48),\n",
      "    Message('note_on', channel=3, note=74, velocity=94, time=12),\n",
      "    Message('note_on', channel=3, note=74, velocity=0, time=48),\n",
      "    Message('note_on', channel=3, note=76, velocity=94, time=12),\n",
      "    Message('note_on', channel=3, note=76, velocity=0, time=48),\n",
      "    Message('note_on', channel=3, note=74, velocity=94, time=12),\n",
      "    Message('note_on', channel=3, note=74, velocity=0, time=48),\n",
      "    Message('note_on', channel=3, note=72, velocity=94, time=12),\n",
      "    Message('note_on', channel=3, note=72, velocity=0, time=48),\n",
      "    Message('note_on', channel=3, note=71, velocity=94, time=12),\n",
      "    Message('note_on', channel=3, note=71, velocity=0, time=48),\n",
      "    Message('note_on', channel=3, note=69, velocity=94, time=12),\n",
      "    Message('note_on', channel=3, note=69, velocity=0, time=48),\n",
      "    Message('note_on', channel=3, note=71, velocity=94, time=12),\n",
      "    Message('note_on', channel=3, note=71, velocity=0, time=48),\n",
      "    Message('note_on', channel=3, note=67, velocity=94, time=12),\n",
      "    Message('note_on', channel=3, note=67, velocity=0, time=48),\n",
      "    Message('note_on', channel=3, note=66, velocity=94, time=12),\n",
      "    Message('note_on', channel=3, note=66, velocity=0, time=48),\n",
      "    Message('note_on', channel=3, note=67, velocity=94, time=12),\n",
      "    Message('note_on', channel=3, note=67, velocity=0, time=48),\n",
      "    Message('note_on', channel=3, note=69, velocity=94, time=12),\n",
      "    Message('note_on', channel=3, note=69, velocity=0, time=48),\n",
      "    Message('note_on', channel=3, note=62, velocity=94, time=12),\n",
      "    Message('note_on', channel=3, note=62, velocity=0, time=48),\n",
      "    Message('note_on', channel=3, note=66, velocity=94, time=12),\n",
      "    Message('note_on', channel=3, note=66, velocity=0, time=48),\n",
      "    Message('note_on', channel=3, note=69, velocity=94, time=12),\n",
      "    Message('note_on', channel=3, note=69, velocity=0, time=48),\n",
      "    Message('note_on', channel=3, note=72, velocity=94, time=12),\n",
      "    Message('note_on', channel=3, note=72, velocity=0, time=48),\n",
      "    Message('note_on', channel=3, note=71, velocity=94, time=12),\n",
      "    Message('note_on', channel=3, note=71, velocity=0, time=48),\n",
      "    Message('note_on', channel=3, note=69, velocity=94, time=12),\n",
      "    Message('note_on', channel=3, note=69, velocity=0, time=48),\n",
      "    Message('note_on', channel=3, note=71, velocity=94, time=12),\n",
      "    Message('note_on', channel=3, note=71, velocity=0, time=48),\n",
      "    Message('note_on', channel=3, note=67, velocity=94, time=12),\n",
      "    Message('note_on', channel=3, note=67, velocity=0, time=48),\n",
      "    Message('note_on', channel=3, note=69, velocity=94, time=12),\n",
      "    Message('note_on', channel=3, note=69, velocity=0, time=48),\n",
      "    Message('note_on', channel=3, note=71, velocity=94, time=12),\n",
      "    Message('note_on', channel=3, note=71, velocity=0, time=48),\n",
      "    Message('note_on', channel=3, note=74, velocity=94, time=12),\n",
      "    Message('note_on', channel=3, note=74, velocity=0, time=48),\n",
      "    Message('note_on', channel=3, note=72, velocity=94, time=12),\n",
      "    Message('note_on', channel=3, note=72, velocity=0, time=48),\n",
      "    Message('note_on', channel=3, note=72, velocity=94, time=12),\n",
      "    Message('note_on', channel=3, note=72, velocity=0, time=48),\n",
      "    Message('note_on', channel=3, note=76, velocity=94, time=12),\n",
      "    Message('note_on', channel=3, note=76, velocity=0, time=48),\n",
      "    Message('note_on', channel=3, note=74, velocity=94, time=12),\n",
      "    Message('note_on', channel=3, note=74, velocity=0, time=48),\n",
      "    Message('note_on', channel=3, note=74, velocity=94, time=12),\n",
      "    Message('note_on', channel=3, note=74, velocity=0, time=48),\n",
      "    Message('note_on', channel=3, note=79, velocity=94, time=12),\n",
      "    Message('note_on', channel=3, note=79, velocity=0, time=48),\n",
      "    Message('note_on', channel=3, note=78, velocity=94, time=12),\n",
      "    Message('note_on', channel=3, note=78, velocity=0, time=48),\n",
      "    Message('note_on', channel=3, note=79, velocity=94, time=12),\n",
      "    Message('note_on', channel=3, note=79, velocity=0, time=48),\n",
      "    Message('note_on', channel=3, note=74, velocity=94, time=12),\n",
      "    Message('note_on', channel=3, note=74, velocity=0, time=48),\n",
      "    Message('note_on', channel=3, note=71, velocity=94, time=12),\n",
      "    Message('note_on', channel=3, note=71, velocity=0, time=48),\n",
      "    Message('note_on', channel=3, note=67, velocity=94, time=12),\n",
      "    Message('note_on', channel=3, note=67, velocity=0, time=48),\n",
      "    Message('note_on', channel=3, note=69, velocity=94, time=12),\n",
      "    Message('note_on', channel=3, note=69, velocity=0, time=48),\n",
      "    Message('note_on', channel=3, note=71, velocity=94, time=12),\n",
      "    Message('note_on', channel=3, note=71, velocity=0, time=48),\n",
      "    Message('note_on', channel=3, note=64, velocity=94, time=12),\n",
      "    Message('note_on', channel=3, note=64, velocity=0, time=48),\n",
      "    Message('note_on', channel=3, note=74, velocity=94, time=12),\n",
      "    Message('note_on', channel=3, note=74, velocity=0, time=48),\n",
      "    Message('note_on', channel=3, note=72, velocity=94, time=12),\n",
      "    Message('note_on', channel=3, note=72, velocity=0, time=48),\n",
      "    Message('note_on', channel=3, note=71, velocity=94, time=12),\n",
      "    Message('note_on', channel=3, note=71, velocity=0, time=48),\n",
      "    Message('note_on', channel=3, note=69, velocity=94, time=12),\n",
      "    Message('note_on', channel=3, note=69, velocity=0, time=48),\n",
      "    Message('note_on', channel=3, note=67, velocity=94, time=12),\n",
      "    Message('note_on', channel=3, note=67, velocity=0, time=48),\n",
      "    Message('note_on', channel=3, note=62, velocity=94, time=12),\n",
      "    Message('note_on', channel=3, note=62, velocity=0, time=48),\n",
      "    Message('note_on', channel=3, note=67, velocity=94, time=12),\n",
      "    Message('note_on', channel=3, note=67, velocity=0, time=48),\n",
      "    Message('note_on', channel=3, note=66, velocity=94, time=12),\n",
      "    Message('note_on', channel=3, note=66, velocity=0, time=48),\n",
      "    Message('note_on', channel=3, note=67, velocity=94, time=12),\n",
      "    Message('note_on', channel=3, note=71, velocity=94, time=0),\n",
      "    Message('note_on', channel=3, note=67, velocity=0, time=336),\n",
      "    Message('note_on', channel=3, note=71, velocity=0, time=0),\n",
      "    Message('note_on', channel=3, note=64, velocity=94, time=24),\n",
      "    Message('note_on', channel=3, note=60, velocity=94, time=0),\n",
      "    Message('note_on', channel=3, note=67, velocity=94, time=0),\n",
      "    Message('note_on', channel=3, note=72, velocity=94, time=0),\n",
      "    Message('note_on', channel=3, note=64, velocity=0, time=168),\n",
      "    Message('note_on', channel=3, note=60, velocity=0, time=0),\n",
      "    Message('note_on', channel=3, note=67, velocity=0, time=0),\n",
      "    Message('note_on', channel=3, note=72, velocity=0, time=0),\n",
      "    Message('note_on', channel=3, note=74, velocity=94, time=12),\n",
      "    Message('note_on', channel=3, note=74, velocity=0, time=336),\n",
      "    Message('note_on', channel=3, note=66, velocity=94, time=24),\n",
      "    Message('note_on', channel=3, note=71, velocity=94, time=0),\n",
      "    Message('note_on', channel=3, note=74, velocity=94, time=0),\n",
      "    Message('note_on', channel=3, note=62, velocity=94, time=0),\n",
      "    Message('note_on', channel=3, note=66, velocity=0, time=168),\n",
      "    Message('note_on', channel=3, note=71, velocity=0, time=0),\n",
      "    Message('note_on', channel=3, note=74, velocity=0, time=0),\n",
      "    Message('note_on', channel=3, note=62, velocity=0, time=0),\n",
      "    Message('note_on', channel=3, note=72, velocity=94, time=12),\n",
      "    Message('note_on', channel=3, note=72, velocity=0, time=336),\n",
      "    Message('note_on', channel=3, note=67, velocity=94, time=24),\n",
      "    Message('note_on', channel=3, note=62, velocity=94, time=0),\n",
      "    Message('note_on', channel=3, note=71, velocity=94, time=0),\n",
      "    Message('note_on', channel=3, note=67, velocity=0, time=168),\n",
      "    Message('note_on', channel=3, note=62, velocity=0, time=0),\n",
      "    Message('note_on', channel=3, note=71, velocity=0, time=0),\n",
      "    Message('note_on', channel=3, note=66, velocity=94, time=12),\n",
      "    Message('note_on', channel=3, note=69, velocity=94, time=0),\n",
      "    Message('note_on', channel=3, note=66, velocity=0, time=48),\n",
      "    Message('note_on', channel=3, note=69, velocity=0, time=0),\n",
      "    Message('note_on', channel=3, note=62, velocity=94, time=12),\n",
      "    Message('note_on', channel=3, note=62, velocity=0, time=48),\n",
      "    Message('note_on', channel=3, note=64, velocity=94, time=12),\n",
      "    Message('note_on', channel=3, note=64, velocity=0, time=48),\n",
      "    Message('note_on', channel=3, note=66, velocity=94, time=12),\n",
      "    Message('note_on', channel=3, note=69, velocity=94, time=0),\n",
      "    Message('note_on', channel=3, note=66, velocity=0, time=48),\n",
      "    Message('note_on', channel=3, note=69, velocity=0, time=0),\n",
      "    Message('note_on', channel=3, note=69, velocity=94, time=12),\n",
      "    Message('note_on', channel=3, note=69, velocity=0, time=48),\n",
      "    Message('note_on', channel=3, note=67, velocity=94, time=12),\n",
      "    Message('note_on', channel=3, note=67, velocity=0, time=48),\n",
      "    Message('note_on', channel=3, note=69, velocity=94, time=12),\n",
      "    Message('note_on', channel=3, note=69, velocity=0, time=48),\n",
      "    Message('note_on', channel=3, note=72, velocity=94, time=12),\n",
      "    Message('note_on', channel=3, note=72, velocity=0, time=48),\n",
      "    Message('note_on', channel=3, note=71, velocity=94, time=12),\n",
      "    Message('note_on', channel=3, note=71, velocity=0, time=48),\n",
      "    Message('note_on', channel=3, note=72, velocity=94, time=12),\n",
      "    Message('note_on', channel=3, note=72, velocity=0, time=48),\n",
      "    Message('note_on', channel=3, note=69, velocity=94, time=12),\n",
      "    Message('note_on', channel=3, note=69, velocity=0, time=48),\n",
      "    Message('note_on', channel=3, note=66, velocity=94, time=12),\n",
      "    Message('note_on', channel=3, note=66, velocity=0, time=48),\n",
      "    Message('note_on', channel=3, note=62, velocity=94, time=12),\n",
      "    Message('note_on', channel=3, note=62, velocity=0, time=48),\n",
      "    Message('note_on', channel=3, note=66, velocity=94, time=12),\n",
      "    Message('note_on', channel=3, note=66, velocity=0, time=48),\n",
      "    Message('note_on', channel=3, note=69, velocity=94, time=12),\n",
      "    Message('note_on', channel=3, note=69, velocity=0, time=48),\n",
      "    Message('note_on', channel=3, note=72, velocity=94, time=12),\n",
      "    Message('note_on', channel=3, note=72, velocity=0, time=48),\n",
      "    Message('note_on', channel=3, note=71, velocity=94, time=12),\n",
      "    Message('note_on', channel=3, note=71, velocity=0, time=48),\n",
      "    Message('note_on', channel=3, note=69, velocity=94, time=12),\n",
      "    Message('note_on', channel=3, note=69, velocity=0, time=48),\n",
      "    Message('note_on', channel=3, note=71, velocity=94, time=12),\n",
      "    Message('note_on', channel=3, note=67, velocity=94, time=0),\n",
      "    Message('note_on', channel=3, note=71, velocity=0, time=336),\n",
      "    Message('note_on', channel=3, note=67, velocity=0, time=0),\n",
      "    Message('note_on', channel=3, note=64, velocity=94, time=24),\n",
      "    Message('note_on', channel=3, note=60, velocity=94, time=0),\n",
      "    Message('note_on', channel=3, note=67, velocity=94, time=0),\n",
      "    Message('note_on', channel=3, note=72, velocity=94, time=0),\n",
      "    Message('note_on', channel=3, note=64, velocity=0, time=168),\n",
      "    Message('note_on', channel=3, note=60, velocity=0, time=0),\n",
      "    Message('note_on', channel=3, note=67, velocity=0, time=0),\n",
      "    Message('note_on', channel=3, note=72, velocity=0, time=0),\n",
      "    Message('note_on', channel=3, note=67, velocity=94, time=12),\n",
      "    Message('note_on', channel=3, note=74, velocity=94, time=0),\n",
      "    Message('note_on', channel=3, note=62, velocity=94, time=0),\n",
      "    Message('note_on', channel=3, note=67, velocity=0, time=336),\n",
      "    Message('note_on', channel=3, note=74, velocity=0, time=0),\n",
      "    Message('note_on', channel=3, note=62, velocity=0, time=0),\n",
      "    Message('note_on', channel=3, note=67, velocity=94, time=24),\n",
      "    Message('note_on', channel=3, note=64, velocity=94, time=0),\n",
      "    Message('note_on', channel=3, note=71, velocity=94, time=0),\n",
      "    Message('note_on', channel=3, note=67, velocity=0, time=168),\n",
      "    Message('note_on', channel=3, note=64, velocity=0, time=0),\n",
      "    Message('note_on', channel=3, note=71, velocity=0, time=0),\n",
      "    Message('note_on', channel=3, note=69, velocity=94, time=12),\n",
      "    Message('note_on', channel=3, note=69, velocity=0, time=116),\n",
      "    Message('note_on', channel=3, note=71, velocity=94, time=4),\n",
      "    Message('note_on', channel=3, note=72, velocity=94, time=30),\n",
      "    Message('note_on', channel=3, note=71, velocity=0, time=14),\n",
      "    Message('note_on', channel=3, note=66, velocity=94, time=16),\n",
      "    Message('note_on', channel=3, note=71, velocity=94, time=0),\n",
      "    Message('note_on', channel=3, note=62, velocity=94, time=0),\n",
      "    Message('note_on', channel=3, note=72, velocity=0, time=14),\n",
      "    Message('note_on', channel=3, note=66, velocity=0, time=154),\n",
      "    Message('note_on', channel=3, note=71, velocity=0, time=0),\n",
      "    Message('note_on', channel=3, note=62, velocity=0, time=0),\n",
      "    Message('note_on', channel=3, note=66, velocity=94, time=12),\n",
      "    Message('note_on', channel=3, note=60, velocity=94, time=0),\n",
      "    Message('note_on', channel=3, note=69, velocity=94, time=0),\n",
      "    Message('note_on', channel=3, note=66, velocity=0, time=168),\n",
      "    Message('note_on', channel=3, note=60, velocity=0, time=0),\n",
      "    Message('note_on', channel=3, note=69, velocity=0, time=0),\n",
      "    Message('note_on', channel=3, note=67, velocity=94, time=12),\n",
      "    Message('note_on', channel=3, note=67, velocity=0, time=48),\n",
      "    Message('note_on', channel=3, note=71, velocity=94, time=12),\n",
      "    Message('note_on', channel=3, note=71, velocity=0, time=48),\n",
      "    Message('note_on', channel=3, note=69, velocity=94, time=12),\n",
      "    Message('note_on', channel=3, note=69, velocity=0, time=48),\n",
      "    Message('note_on', channel=3, note=71, velocity=94, time=12),\n",
      "    Message('note_on', channel=3, note=71, velocity=0, time=48),\n",
      "    Message('note_on', channel=3, note=74, velocity=94, time=12),\n",
      "    Message('note_on', channel=3, note=74, velocity=0, time=48),\n",
      "    Message('note_on', channel=3, note=72, velocity=94, time=12),\n",
      "    Message('note_on', channel=3, note=72, velocity=0, time=48),\n",
      "    Message('note_on', channel=3, note=72, velocity=94, time=12),\n",
      "    Message('note_on', channel=3, note=72, velocity=0, time=48),\n",
      "    Message('note_on', channel=3, note=76, velocity=94, time=12),\n",
      "    Message('note_on', channel=3, note=76, velocity=0, time=48),\n",
      "    Message('note_on', channel=3, note=74, velocity=94, time=12),\n",
      "    Message('note_on', channel=3, note=74, velocity=0, time=48),\n",
      "    Message('note_on', channel=3, note=74, velocity=94, time=12),\n",
      "    Message('note_on', channel=3, note=74, velocity=0, time=48),\n",
      "    Message('note_on', channel=3, note=79, velocity=94, time=12),\n",
      "    Message('note_on', channel=3, note=79, velocity=0, time=48),\n",
      "    Message('note_on', channel=3, note=78, velocity=94, time=12),\n",
      "    Message('note_on', channel=3, note=78, velocity=0, time=48),\n",
      "    Message('note_on', channel=3, note=79, velocity=94, time=12),\n",
      "    Message('note_on', channel=3, note=79, velocity=0, time=48),\n",
      "    Message('note_on', channel=3, note=74, velocity=94, time=12),\n",
      "    Message('note_on', channel=3, note=74, velocity=0, time=48),\n",
      "    Message('note_on', channel=3, note=71, velocity=94, time=12),\n",
      "    Message('note_on', channel=3, note=71, velocity=0, time=48),\n",
      "    Message('note_on', channel=3, note=67, velocity=94, time=12),\n",
      "    Message('note_on', channel=3, note=67, velocity=0, time=48),\n",
      "    Message('note_on', channel=3, note=69, velocity=94, time=12),\n",
      "    Message('note_on', channel=3, note=69, velocity=0, time=48),\n",
      "    Message('note_on', channel=3, note=71, velocity=94, time=12),\n",
      "    Message('note_on', channel=3, note=71, velocity=0, time=48),\n",
      "    Message('note_on', channel=3, note=72, velocity=94, time=12),\n",
      "    Message('note_on', channel=3, note=72, velocity=0, time=48),\n",
      "    Message('note_on', channel=3, note=74, velocity=94, time=12),\n",
      "    Message('note_on', channel=3, note=74, velocity=0, time=48),\n",
      "    Message('note_on', channel=3, note=76, velocity=94, time=12),\n",
      "    Message('note_on', channel=3, note=76, velocity=0, time=48),\n",
      "    Message('note_on', channel=3, note=74, velocity=94, time=12),\n",
      "    Message('note_on', channel=3, note=74, velocity=0, time=48),\n",
      "    Message('note_on', channel=3, note=72, velocity=94, time=12),\n",
      "    Message('note_on', channel=3, note=72, velocity=0, time=48),\n",
      "    Message('note_on', channel=3, note=71, velocity=94, time=12),\n",
      "    Message('note_on', channel=3, note=71, velocity=0, time=48),\n",
      "    Message('note_on', channel=3, note=69, velocity=94, time=12),\n",
      "    Message('note_on', channel=3, note=69, velocity=0, time=48),\n",
      "    Message('note_on', channel=3, note=71, velocity=94, time=12),\n",
      "    Message('note_on', channel=3, note=71, velocity=0, time=48),\n",
      "    Message('note_on', channel=3, note=67, velocity=94, time=12),\n",
      "    Message('note_on', channel=3, note=67, velocity=0, time=48),\n",
      "    Message('note_on', channel=3, note=66, velocity=94, time=12),\n",
      "    Message('note_on', channel=3, note=66, velocity=0, time=48),\n",
      "    Message('note_on', channel=3, note=67, velocity=94, time=12),\n",
      "    Message('note_on', channel=3, note=67, velocity=0, time=48),\n",
      "    Message('note_on', channel=3, note=69, velocity=94, time=12),\n",
      "    Message('note_on', channel=3, note=69, velocity=0, time=48),\n",
      "    Message('note_on', channel=3, note=62, velocity=94, time=12),\n",
      "    Message('note_on', channel=3, note=62, velocity=0, time=48),\n",
      "    Message('note_on', channel=3, note=66, velocity=94, time=12),\n",
      "    Message('note_on', channel=3, note=66, velocity=0, time=48),\n",
      "    Message('note_on', channel=3, note=69, velocity=94, time=12),\n",
      "    Message('note_on', channel=3, note=69, velocity=0, time=48),\n",
      "    Message('note_on', channel=3, note=72, velocity=94, time=12),\n",
      "    Message('note_on', channel=3, note=72, velocity=0, time=48),\n",
      "    Message('note_on', channel=3, note=71, velocity=94, time=12),\n",
      "    Message('note_on', channel=3, note=71, velocity=0, time=48),\n",
      "    Message('note_on', channel=3, note=69, velocity=94, time=12),\n",
      "    Message('note_on', channel=3, note=69, velocity=0, time=48),\n",
      "    Message('note_on', channel=3, note=71, velocity=94, time=12),\n",
      "    Message('note_on', channel=3, note=71, velocity=0, time=48),\n",
      "    Message('note_on', channel=3, note=67, velocity=94, time=12),\n",
      "    Message('note_on', channel=3, note=67, velocity=0, time=48),\n",
      "    Message('note_on', channel=3, note=69, velocity=94, time=12),\n",
      "    Message('note_on', channel=3, note=69, velocity=0, time=48),\n",
      "    Message('note_on', channel=3, note=71, velocity=94, time=12),\n",
      "    Message('note_on', channel=3, note=71, velocity=0, time=48),\n",
      "    Message('note_on', channel=3, note=74, velocity=94, time=12),\n",
      "    Message('note_on', channel=3, note=74, velocity=0, time=48),\n",
      "    Message('note_on', channel=3, note=72, velocity=94, time=12),\n",
      "    Message('note_on', channel=3, note=72, velocity=0, time=48),\n",
      "    Message('note_on', channel=3, note=72, velocity=94, time=12),\n",
      "    Message('note_on', channel=3, note=72, velocity=0, time=48),\n",
      "    Message('note_on', channel=3, note=76, velocity=94, time=12),\n",
      "    Message('note_on', channel=3, note=76, velocity=0, time=48),\n",
      "    Message('note_on', channel=3, note=74, velocity=94, time=12),\n",
      "    Message('note_on', channel=3, note=74, velocity=0, time=48),\n",
      "    Message('note_on', channel=3, note=74, velocity=94, time=12),\n",
      "    Message('note_on', channel=3, note=74, velocity=0, time=48),\n",
      "    Message('note_on', channel=3, note=79, velocity=94, time=12),\n",
      "    Message('note_on', channel=3, note=79, velocity=0, time=48),\n",
      "    Message('note_on', channel=3, note=78, velocity=94, time=12),\n",
      "    Message('note_on', channel=3, note=78, velocity=0, time=48),\n",
      "    Message('note_on', channel=3, note=79, velocity=94, time=12),\n",
      "    Message('note_on', channel=3, note=79, velocity=0, time=48),\n",
      "    Message('note_on', channel=3, note=74, velocity=94, time=12),\n",
      "    Message('note_on', channel=3, note=74, velocity=0, time=48),\n",
      "    Message('note_on', channel=3, note=71, velocity=94, time=12),\n",
      "    Message('note_on', channel=3, note=71, velocity=0, time=48),\n",
      "    Message('note_on', channel=3, note=67, velocity=94, time=12),\n",
      "    Message('note_on', channel=3, note=67, velocity=0, time=48),\n",
      "    Message('note_on', channel=3, note=69, velocity=94, time=12),\n",
      "    Message('note_on', channel=3, note=69, velocity=0, time=48),\n",
      "    Message('note_on', channel=3, note=71, velocity=94, time=12),\n",
      "    Message('note_on', channel=3, note=71, velocity=0, time=48),\n",
      "    Message('note_on', channel=3, note=64, velocity=94, time=12),\n",
      "    Message('note_on', channel=3, note=64, velocity=0, time=48),\n",
      "    Message('note_on', channel=3, note=74, velocity=94, time=12),\n",
      "    Message('note_on', channel=3, note=74, velocity=0, time=48),\n",
      "    Message('note_on', channel=3, note=72, velocity=94, time=12),\n",
      "    Message('note_on', channel=3, note=72, velocity=0, time=48),\n",
      "    Message('note_on', channel=3, note=71, velocity=94, time=12),\n",
      "    Message('note_on', channel=3, note=71, velocity=0, time=48),\n",
      "    Message('note_on', channel=3, note=69, velocity=94, time=12),\n",
      "    Message('note_on', channel=3, note=69, velocity=0, time=48),\n",
      "    Message('note_on', channel=3, note=67, velocity=94, time=12),\n",
      "    Message('note_on', channel=3, note=67, velocity=0, time=48),\n",
      "    Message('note_on', channel=3, note=62, velocity=94, time=12),\n",
      "    Message('note_on', channel=3, note=62, velocity=0, time=48),\n",
      "    Message('note_on', channel=3, note=67, velocity=94, time=12),\n",
      "    Message('note_on', channel=3, note=67, velocity=0, time=48),\n",
      "    Message('note_on', channel=3, note=66, velocity=94, time=12),\n",
      "    Message('note_on', channel=3, note=66, velocity=0, time=48),\n",
      "    Message('note_on', channel=3, note=67, velocity=94, time=12),\n",
      "    Message('note_on', channel=3, note=67, velocity=0, time=48),\n",
      "    Message('note_on', channel=3, note=71, velocity=94, time=12),\n",
      "    Message('note_on', channel=3, note=71, velocity=0, time=48),\n",
      "    Message('note_on', channel=3, note=74, velocity=94, time=12),\n",
      "    Message('note_on', channel=3, note=74, velocity=0, time=48),\n",
      "    Message('note_on', channel=3, note=79, velocity=94, time=12),\n",
      "    Message('note_on', channel=3, note=79, velocity=0, time=48),\n",
      "    Message('note_on', channel=3, note=74, velocity=94, time=12),\n",
      "    Message('note_on', channel=3, note=74, velocity=0, time=48),\n",
      "    Message('note_on', channel=3, note=71, velocity=94, time=12),\n",
      "    Message('note_on', channel=3, note=71, velocity=0, time=48),\n",
      "    Message('note_on', channel=3, note=67, velocity=94, time=12),\n",
      "    Message('note_on', channel=3, note=67, velocity=0, time=168),\n",
      "    Message('note_on', channel=3, note=66, velocity=84, time=13),\n",
      "    Message('note_on', channel=3, note=69, velocity=84, time=0),\n",
      "    Message('note_on', channel=3, note=66, velocity=0, time=336),\n",
      "    Message('note_on', channel=3, note=69, velocity=0, time=0),\n",
      "    Message('note_on', channel=3, note=68, velocity=84, time=24),\n",
      "    Message('note_on', channel=3, note=71, velocity=84, time=0),\n",
      "    Message('note_on', channel=3, note=62, velocity=84, time=0),\n",
      "    Message('note_on', channel=3, note=68, velocity=0, time=168),\n",
      "    Message('note_on', channel=3, note=71, velocity=0, time=0),\n",
      "    Message('note_on', channel=3, note=62, velocity=0, time=0),\n",
      "    Message('note_on', channel=3, note=72, velocity=84, time=12),\n",
      "    Message('note_on', channel=3, note=64, velocity=84, time=0),\n",
      "    Message('note_on', channel=3, note=69, velocity=84, time=0),\n",
      "    Message('note_on', channel=3, note=72, velocity=0, time=336),\n",
      "    Message('note_on', channel=3, note=64, velocity=0, time=0),\n",
      "    Message('note_on', channel=3, note=69, velocity=0, time=0),\n",
      "    Message('note_on', channel=3, note=69, velocity=84, time=24),\n",
      "    Message('note_on', channel=3, note=64, velocity=84, time=0),\n",
      "    Message('note_on', channel=3, note=72, velocity=84, time=0),\n",
      "    Message('note_on', channel=3, note=69, velocity=0, time=168),\n",
      "    Message('note_on', channel=3, note=64, velocity=0, time=0),\n",
      "    Message('note_on', channel=3, note=72, velocity=0, time=0),\n",
      "    Message('note_on', channel=3, note=71, velocity=84, time=12),\n",
      "    Message('note_on', channel=3, note=71, velocity=0, time=276),\n",
      "    Message('note_on', channel=3, note=72, velocity=84, time=24),\n",
      "    Message('note_on', channel=3, note=72, velocity=0, time=24),\n",
      "    Message('note_on', channel=3, note=74, velocity=84, time=6),\n",
      "    Message('note_on', channel=3, note=74, velocity=0, time=24),\n",
      "    Message('note_on', channel=3, note=71, velocity=84, time=6),\n",
      "    Message('note_on', channel=3, note=68, velocity=84, time=0),\n",
      "    Message('note_on', channel=3, note=71, velocity=0, time=168),\n",
      "    Message('note_on', channel=3, note=68, velocity=0, time=0),\n",
      "    Message('note_on', channel=3, note=67, velocity=84, time=12),\n",
      "    Message('note_on', channel=3, note=67, velocity=0, time=168),\n",
      "    Message('note_on', channel=3, note=67, velocity=84, time=12),\n",
      "    Message('note_on', channel=3, note=67, velocity=0, time=48),\n",
      "    Message('note_on', channel=3, note=76, velocity=84, time=12),\n",
      "    Message('note_on', channel=3, note=76, velocity=0, time=48),\n",
      "    Message('note_on', channel=3, note=74, velocity=84, time=12),\n",
      "    Message('note_on', channel=3, note=74, velocity=0, time=48),\n",
      "    Message('note_on', channel=3, note=74, velocity=84, time=12),\n",
      "    Message('note_on', channel=3, note=74, velocity=0, time=48),\n",
      "    Message('note_on', channel=3, note=77, velocity=84, time=12),\n",
      "    Message('note_on', channel=3, note=77, velocity=0, time=48),\n",
      "    Message('note_on', channel=3, note=76, velocity=84, time=12),\n",
      "    Message('note_on', channel=3, note=76, velocity=0, time=48),\n",
      "    Message('note_on', channel=3, note=76, velocity=84, time=12),\n",
      "    Message('note_on', channel=3, note=76, velocity=0, time=48),\n",
      "    Message('note_on', channel=3, note=81, velocity=84, time=12),\n",
      "    Message('note_on', channel=3, note=81, velocity=0, time=48),\n",
      "    Message('note_on', channel=3, note=80, velocity=84, time=12),\n",
      "    Message('note_on', channel=3, note=80, velocity=0, time=48),\n",
      "    Message('note_on', channel=3, note=81, velocity=84, time=12),\n",
      "    Message('note_on', channel=3, note=81, velocity=0, time=48),\n",
      "    Message('note_on', channel=3, note=76, velocity=84, time=12),\n",
      "    Message('note_on', channel=3, note=76, velocity=0, time=48),\n",
      "    Message('note_on', channel=3, note=72, velocity=84, time=12),\n",
      "    Message('note_on', channel=3, note=72, velocity=0, time=48),\n",
      "    Message('note_on', channel=3, note=69, velocity=84, time=12),\n",
      "    Message('note_on', channel=3, note=69, velocity=0, time=48),\n",
      "    Message('note_on', channel=3, note=71, velocity=84, time=12),\n",
      "    Message('note_on', channel=3, note=71, velocity=0, time=48),\n",
      "    Message('note_on', channel=3, note=72, velocity=84, time=12),\n",
      "    Message('note_on', channel=3, note=72, velocity=0, time=48),\n",
      "    Message('note_on', channel=3, note=77, velocity=84, time=12),\n",
      "    Message('note_on', channel=3, note=77, velocity=0, time=48),\n",
      "    Message('note_on', channel=3, note=76, velocity=84, time=12),\n",
      "    Message('note_on', channel=3, note=76, velocity=0, time=48),\n",
      "    Message('note_on', channel=3, note=74, velocity=84, time=12),\n",
      "    Message('note_on', channel=3, note=74, velocity=0, time=48),\n",
      "    Message('note_on', channel=3, note=72, velocity=84, time=12),\n",
      "    Message('note_on', channel=3, note=72, velocity=0, time=48),\n",
      "    Message('note_on', channel=3, note=71, velocity=84, time=12),\n",
      "    Message('note_on', channel=3, note=71, velocity=0, time=48),\n",
      "    Message('note_on', channel=3, note=69, velocity=84, time=12),\n",
      "    Message('note_on', channel=3, note=69, velocity=0, time=48),\n",
      "    Message('note_on', channel=3, note=64, velocity=84, time=12),\n",
      "    Message('note_on', channel=3, note=64, velocity=0, time=48),\n",
      "    Message('note_on', channel=3, note=69, velocity=84, time=12),\n",
      "    Message('note_on', channel=3, note=69, velocity=0, time=48),\n",
      "    Message('note_on', channel=3, note=68, velocity=84, time=12),\n",
      "    Message('note_on', channel=3, note=62, velocity=84, time=0),\n",
      "    Message('note_on', channel=3, note=68, velocity=0, time=48),\n",
      "    Message('note_on', channel=3, note=62, velocity=0, time=0),\n",
      "    Message('note_on', channel=3, note=64, velocity=84, time=12),\n",
      "    Message('note_on', channel=3, note=69, velocity=84, time=0),\n",
      "    Message('note_on', channel=3, note=72, velocity=84, time=0),\n",
      "    Message('note_on', channel=3, note=64, velocity=0, time=336),\n",
      "    Message('note_on', channel=3, note=69, velocity=0, time=0),\n",
      "    Message('note_on', channel=3, note=72, velocity=0, time=0),\n",
      "    Message('note_on', channel=3, note=74, velocity=84, time=24),\n",
      "    Message('note_on', channel=3, note=62, velocity=84, time=0),\n",
      "    Message('note_on', channel=3, note=67, velocity=84, time=0),\n",
      "    Message('note_on', channel=3, note=74, velocity=0, time=168),\n",
      "    Message('note_on', channel=3, note=62, velocity=0, time=0),\n",
      "    Message('note_on', channel=3, note=67, velocity=0, time=0),\n",
      "    Message('note_on', channel=3, note=72, velocity=84, time=12),\n",
      "    Message('note_on', channel=3, note=76, velocity=84, time=0),\n",
      "    Message('note_on', channel=3, note=72, velocity=0, time=336),\n",
      "    Message('note_on', channel=3, note=76, velocity=0, time=0),\n",
      "    Message('note_on', channel=3, note=72, velocity=84, time=24),\n",
      "    Message('note_on', channel=3, note=76, velocity=84, time=0),\n",
      "    Message('note_on', channel=3, note=67, velocity=84, time=0),\n",
      "    Message('note_on', channel=3, note=72, velocity=0, time=168),\n",
      "    Message('note_on', channel=3, note=76, velocity=0, time=0),\n",
      "    Message('note_on', channel=3, note=67, velocity=0, time=0),\n",
      "    Message('note_on', channel=3, note=74, velocity=84, time=12),\n",
      "    Message('note_on', channel=3, note=74, velocity=0, time=276),\n",
      "    Message('note_on', channel=3, note=76, velocity=84, time=24),\n",
      "    Message('note_on', channel=3, note=76, velocity=0, time=24),\n",
      "    Message('note_on', channel=3, note=77, velocity=84, time=6),\n",
      "    Message('note_on', channel=3, note=77, velocity=0, time=24),\n",
      "    Message('note_on', channel=3, note=74, velocity=84, time=6),\n",
      "    Message('note_on', channel=3, note=74, velocity=0, time=168),\n",
      "    Message('note_on', channel=3, note=64, velocity=84, time=12),\n",
      "    Message('note_on', channel=3, note=72, velocity=84, time=0),\n",
      "    Message('note_on', channel=3, note=64, velocity=0, time=168),\n",
      "    Message('note_on', channel=3, note=72, velocity=0, time=0),\n",
      "    Message('note_on', channel=3, note=72, velocity=84, time=12),\n",
      "    Message('note_on', channel=3, note=72, velocity=0, time=48),\n",
      "    Message('note_on', channel=3, note=76, velocity=84, time=12),\n",
      "    Message('note_on', channel=3, note=76, velocity=0, time=48),\n",
      "    Message('note_on', channel=3, note=72, velocity=84, time=12),\n",
      "    Message('note_on', channel=3, note=72, velocity=0, time=48),\n",
      "    Message('note_on', channel=3, note=67, velocity=84, time=12),\n",
      "    Message('note_on', channel=3, note=67, velocity=0, time=48),\n",
      "    Message('note_on', channel=3, note=69, velocity=84, time=12),\n",
      "    Message('note_on', channel=3, note=69, velocity=0, time=48),\n",
      "    Message('note_on', channel=3, note=70, velocity=84, time=12),\n",
      "    Message('note_on', channel=3, note=70, velocity=0, time=48),\n",
      "    Message('note_on', channel=3, note=69, velocity=84, time=12),\n",
      "    Message('note_on', channel=3, note=69, velocity=0, time=48),\n",
      "    Message('note_on', channel=3, note=72, velocity=84, time=12),\n",
      "    Message('note_on', channel=3, note=72, velocity=0, time=48),\n",
      "    Message('note_on', channel=3, note=71, velocity=84, time=12),\n",
      "    Message('note_on', channel=3, note=71, velocity=0, time=48),\n",
      "    Message('note_on', channel=3, note=72, velocity=84, time=12),\n",
      "    Message('note_on', channel=3, note=72, velocity=0, time=48),\n",
      "    Message('note_on', channel=3, note=69, velocity=84, time=12),\n",
      "    Message('note_on', channel=3, note=69, velocity=0, time=48),\n",
      "    Message('note_on', channel=3, note=66, velocity=84, time=12),\n",
      "    Message('note_on', channel=3, note=66, velocity=0, time=48),\n",
      "    Message('note_on', channel=3, note=62, velocity=84, time=12),\n",
      "    Message('note_on', channel=3, note=62, velocity=0, time=48),\n",
      "    Message('note_on', channel=3, note=64, velocity=84, time=12),\n",
      "    Message('note_on', channel=3, note=64, velocity=0, time=48),\n",
      "    Message('note_on', channel=3, note=66, velocity=84, time=12),\n",
      "    Message('note_on', channel=3, note=66, velocity=0, time=48),\n",
      "    Message('note_on', channel=3, note=64, velocity=84, time=12),\n",
      "    Message('note_on', channel=3, note=64, velocity=0, time=48),\n",
      "    Message('note_on', channel=3, note=60, velocity=84, time=12),\n",
      "    Message('note_on', channel=3, note=60, velocity=0, time=48),\n",
      "    Message('note_on', channel=3, note=62, velocity=84, time=12),\n",
      "    Message('note_on', channel=3, note=62, velocity=0, time=48),\n",
      "    Message('note_on', channel=3, note=64, velocity=84, time=12),\n",
      "    Message('note_on', channel=3, note=64, velocity=0, time=48),\n",
      "    Message('note_on', channel=3, note=67, velocity=84, time=12),\n",
      "    Message('note_on', channel=3, note=67, velocity=0, time=48),\n",
      "    Message('note_on', channel=3, note=66, velocity=84, time=12),\n",
      "    Message('note_on', channel=3, note=66, velocity=0, time=48),\n",
      "    Message('note_on', channel=3, note=67, velocity=84, time=12),\n",
      "    Message('note_on', channel=3, note=67, velocity=0, time=48),\n",
      "    Message('note_on', channel=3, note=71, velocity=84, time=12),\n",
      "    Message('note_on', channel=3, note=71, velocity=0, time=48),\n",
      "    Message('note_on', channel=3, note=69, velocity=84, time=12),\n",
      "    Message('note_on', channel=3, note=69, velocity=0, time=48),\n",
      "    Message('note_on', channel=3, note=67, velocity=84, time=12),\n",
      "    Message('note_on', channel=3, note=71, velocity=84, time=0),\n",
      "    Message('note_on', channel=3, note=67, velocity=0, time=336),\n",
      "    Message('note_on', channel=3, note=71, velocity=0, time=0),\n",
      "    Message('note_on', channel=3, note=64, velocity=84, time=24),\n",
      "    Message('note_on', channel=3, note=60, velocity=84, time=0),\n",
      "    Message('note_on', channel=3, note=67, velocity=84, time=0),\n",
      "    Message('note_on', channel=3, note=72, velocity=84, time=0),\n",
      "    Message('note_on', channel=3, note=64, velocity=0, time=168),\n",
      "    Message('note_on', channel=3, note=60, velocity=0, time=0),\n",
      "    Message('note_on', channel=3, note=67, velocity=0, time=0),\n",
      "    Message('note_on', channel=3, note=72, velocity=0, time=0),\n",
      "    Message('note_on', channel=3, note=74, velocity=84, time=12),\n",
      "    Message('note_on', channel=3, note=67, velocity=84, time=0),\n",
      "    Message('note_on', channel=3, note=62, velocity=84, time=0),\n",
      "    Message('note_on', channel=3, note=74, velocity=0, time=336),\n",
      "    Message('note_on', channel=3, note=67, velocity=0, time=0),\n",
      "    Message('note_on', channel=3, note=62, velocity=0, time=0),\n",
      "    Message('note_on', channel=3, note=74, velocity=84, time=24),\n",
      "    Message('note_on', channel=3, note=67, velocity=84, time=0),\n",
      "    Message('note_on', channel=3, note=62, velocity=84, time=0),\n",
      "    Message('note_on', channel=3, note=74, velocity=0, time=168),\n",
      "    Message('note_on', channel=3, note=67, velocity=0, time=0),\n",
      "    Message('note_on', channel=3, note=62, velocity=0, time=0),\n",
      "    Message('note_on', channel=3, note=69, velocity=84, time=12),\n",
      "    Message('note_on', channel=3, note=64, velocity=84, time=0),\n",
      "    Message('note_on', channel=3, note=72, velocity=84, time=0),\n",
      "    Message('note_on', channel=3, note=69, velocity=0, time=168),\n",
      "    Message('note_on', channel=3, note=64, velocity=0, time=0),\n",
      "    Message('note_on', channel=3, note=72, velocity=0, time=0),\n",
      "    Message('note_on', channel=3, note=71, velocity=84, time=12),\n",
      "    Message('note_on', channel=3, note=71, velocity=0, time=336),\n",
      "    Message('note_on', channel=3, note=66, velocity=84, time=24),\n",
      "    Message('note_on', channel=3, note=69, velocity=84, time=0),\n",
      "    Message('note_on', channel=3, note=66, velocity=0, time=48),\n",
      "    Message('note_on', channel=3, note=69, velocity=0, time=0),\n",
      "    Message('note_on', channel=3, note=62, velocity=84, time=12),\n",
      "    Message('note_on', channel=3, note=62, velocity=0, time=48),\n",
      "    Message('note_on', channel=3, note=64, velocity=84, time=12),\n",
      "    Message('note_on', channel=3, note=64, velocity=0, time=48),\n",
      "    Message('note_on', channel=3, note=66, velocity=84, time=12),\n",
      "    Message('note_on', channel=3, note=66, velocity=0, time=48),\n",
      "    Message('note_on', channel=3, note=69, velocity=84, time=12),\n",
      "    Message('note_on', channel=3, note=69, velocity=0, time=48),\n",
      "    Message('note_on', channel=3, note=67, velocity=84, time=12),\n",
      "    Message('note_on', channel=3, note=67, velocity=0, time=48),\n",
      "    Message('note_on', channel=3, note=69, velocity=84, time=12),\n",
      "    Message('note_on', channel=3, note=69, velocity=0, time=48),\n",
      "    Message('note_on', channel=3, note=72, velocity=84, time=12),\n",
      "    Message('note_on', channel=3, note=72, velocity=0, time=48),\n",
      "    Message('note_on', channel=3, note=71, velocity=84, time=12),\n",
      "    Message('note_on', channel=3, note=71, velocity=0, time=48),\n",
      "    Message('note_on', channel=3, note=72, velocity=84, time=12),\n",
      "    Message('note_on', channel=3, note=72, velocity=0, time=48),\n",
      "    Message('note_on', channel=3, note=69, velocity=84, time=12),\n",
      "    Message('note_on', channel=3, note=69, velocity=0, time=48),\n",
      "    Message('note_on', channel=3, note=66, velocity=84, time=12),\n",
      "    Message('note_on', channel=3, note=66, velocity=0, time=48),\n",
      "    Message('note_on', channel=3, note=62, velocity=84, time=12),\n",
      "    Message('note_on', channel=3, note=62, velocity=0, time=48),\n",
      "    Message('note_on', channel=3, note=66, velocity=84, time=12),\n",
      "    Message('note_on', channel=3, note=66, velocity=0, time=48),\n",
      "    Message('note_on', channel=3, note=69, velocity=84, time=12),\n",
      "    Message('note_on', channel=3, note=69, velocity=0, time=48),\n",
      "    Message('note_on', channel=3, note=72, velocity=84, time=12),\n",
      "    Message('note_on', channel=3, note=72, velocity=0, time=48),\n",
      "    Message('note_on', channel=3, note=71, velocity=84, time=12),\n",
      "    Message('note_on', channel=3, note=71, velocity=0, time=48),\n",
      "    Message('note_on', channel=3, note=69, velocity=84, time=12),\n",
      "    Message('note_on', channel=3, note=69, velocity=0, time=48),\n",
      "    Message('note_on', channel=3, note=67, velocity=84, time=12),\n",
      "    Message('note_on', channel=3, note=71, velocity=84, time=0),\n",
      "    Message('note_on', channel=3, note=67, velocity=0, time=336),\n",
      "    Message('note_on', channel=3, note=71, velocity=0, time=0),\n",
      "    Message('note_on', channel=3, note=72, velocity=84, time=24),\n",
      "    Message('note_on', channel=3, note=67, velocity=84, time=0),\n",
      "    Message('note_on', channel=3, note=64, velocity=84, time=0),\n",
      "    Message('note_on', channel=3, note=60, velocity=84, time=0),\n",
      "    Message('note_on', channel=3, note=72, velocity=0, time=168),\n",
      "    Message('note_on', channel=3, note=67, velocity=0, time=0),\n",
      "    Message('note_on', channel=3, note=64, velocity=0, time=0),\n",
      "    Message('note_on', channel=3, note=60, velocity=0, time=0),\n",
      "    Message('note_on', channel=3, note=74, velocity=84, time=12),\n",
      "    Message('note_on', channel=3, note=62, velocity=84, time=0),\n",
      "    Message('note_on', channel=3, note=67, velocity=84, time=0),\n",
      "    Message('note_on', channel=3, note=74, velocity=0, time=336),\n",
      "    Message('note_on', channel=3, note=62, velocity=0, time=0),\n",
      "    Message('note_on', channel=3, note=67, velocity=0, time=0),\n",
      "    Message('note_on', channel=3, note=67, velocity=84, time=24),\n",
      "    Message('note_on', channel=3, note=64, velocity=84, time=0),\n",
      "    Message('note_on', channel=3, note=71, velocity=84, time=0),\n",
      "    Message('note_on', channel=3, note=67, velocity=0, time=168),\n",
      "    Message('note_on', channel=3, note=64, velocity=0, time=0),\n",
      "    Message('note_on', channel=3, note=71, velocity=0, time=0),\n",
      "    Message('note_on', channel=3, note=69, velocity=84, time=12),\n",
      "    Message('note_on', channel=3, note=69, velocity=0, time=96),\n",
      "    Message('note_on', channel=3, note=71, velocity=84, time=24),\n",
      "    Message('note_on', channel=3, note=71, velocity=0, time=24),\n",
      "    Message('note_on', channel=3, note=72, velocity=84, time=6),\n",
      "    Message('note_on', channel=3, note=72, velocity=0, time=24),\n",
      "    Message('note_on', channel=3, note=71, velocity=84, time=6),\n",
      "    Message('note_on', channel=3, note=71, velocity=0, time=168),\n",
      "    Message('note_on', channel=3, note=69, velocity=84, time=12),\n",
      "    Message('note_on', channel=3, note=69, velocity=0, time=168),\n",
      "    Message('note_on', channel=3, note=67, velocity=84, time=12),\n",
      "    Message('note_on', channel=3, note=67, velocity=0, time=48),\n",
      "    Message('note_on', channel=3, note=71, velocity=84, time=12),\n",
      "    Message('note_on', channel=3, note=71, velocity=0, time=48),\n",
      "    Message('note_on', channel=3, note=74, velocity=84, time=12),\n",
      "    Message('note_on', channel=3, note=74, velocity=0, time=48),\n",
      "    Message('note_on', channel=3, note=79, velocity=84, time=12),\n",
      "    Message('note_on', channel=3, note=79, velocity=0, time=48),\n",
      "    Message('note_on', channel=3, note=74, velocity=84, time=12),\n",
      "    Message('note_on', channel=3, note=74, velocity=0, time=48),\n",
      "    Message('note_on', channel=3, note=71, velocity=84, time=12),\n",
      "    Message('note_on', channel=3, note=71, velocity=0, time=48),\n",
      "    Message('note_on', channel=3, note=67, velocity=84, time=12),\n",
      "    Message('note_on', channel=3, note=67, velocity=0, time=48),\n",
      "    Message('note_on', channel=3, note=71, velocity=84, time=12),\n",
      "    Message('note_on', channel=3, note=71, velocity=0, time=48),\n",
      "    Message('note_on', channel=3, note=74, velocity=84, time=12),\n",
      "    Message('note_on', channel=3, note=74, velocity=0, time=48),\n",
      "    Message('note_on', channel=3, note=77, velocity=84, time=12),\n",
      "    Message('note_on', channel=3, note=77, velocity=0, time=48),\n",
      "    Message('note_on', channel=3, note=74, velocity=84, time=12),\n",
      "    Message('note_on', channel=3, note=74, velocity=0, time=48),\n",
      "    Message('note_on', channel=3, note=71, velocity=84, time=12),\n",
      "    Message('note_on', channel=3, note=71, velocity=0, time=48),\n",
      "    Message('note_on', channel=3, note=67, velocity=84, time=12),\n",
      "    Message('note_on', channel=3, note=67, velocity=0, time=48),\n",
      "    Message('note_on', channel=3, note=71, velocity=84, time=12),\n",
      "    Message('note_on', channel=3, note=71, velocity=0, time=48),\n",
      "    Message('note_on', channel=3, note=74, velocity=84, time=12),\n",
      "    Message('note_on', channel=3, note=74, velocity=0, time=48),\n",
      "    Message('note_on', channel=3, note=76, velocity=84, time=12),\n",
      "    Message('note_on', channel=3, note=76, velocity=0, time=48),\n",
      "    Message('note_on', channel=3, note=72, velocity=84, time=12),\n",
      "    Message('note_on', channel=3, note=72, velocity=0, time=48),\n",
      "    Message('note_on', channel=3, note=69, velocity=84, time=12),\n",
      "    Message('note_on', channel=3, note=69, velocity=0, time=48),\n",
      "    Message('note_on', channel=3, note=66, velocity=84, time=12),\n",
      "    Message('note_on', channel=3, note=66, velocity=0, time=48),\n",
      "    Message('note_on', channel=3, note=69, velocity=84, time=12),\n",
      "    Message('note_on', channel=3, note=69, velocity=0, time=48),\n",
      "    Message('note_on', channel=3, note=72, velocity=84, time=12),\n",
      "    Message('note_on', channel=3, note=72, velocity=0, time=48),\n",
      "    Message('note_on', channel=3, note=74, velocity=84, time=12),\n",
      "    Message('note_on', channel=3, note=74, velocity=0, time=48),\n",
      "    Message('note_on', channel=3, note=71, velocity=84, time=12),\n",
      "    Message('note_on', channel=3, note=71, velocity=0, time=48),\n",
      "    Message('note_on', channel=3, note=67, velocity=84, time=12),\n",
      "    Message('note_on', channel=3, note=67, velocity=0, time=48),\n",
      "    Message('note_on', channel=3, note=64, velocity=84, time=12),\n",
      "    Message('note_on', channel=3, note=64, velocity=0, time=48),\n",
      "    Message('note_on', channel=3, note=67, velocity=84, time=12),\n",
      "    Message('note_on', channel=3, note=67, velocity=0, time=48),\n",
      "    Message('note_on', channel=3, note=71, velocity=84, time=12),\n",
      "    Message('note_on', channel=3, note=71, velocity=0, time=48),\n",
      "    Message('note_on', channel=3, note=72, velocity=84, time=12),\n",
      "    Message('note_on', channel=3, note=72, velocity=0, time=48),\n",
      "    Message('note_on', channel=3, note=69, velocity=84, time=12),\n",
      "    Message('note_on', channel=3, note=69, velocity=0, time=48),\n",
      "    Message('note_on', channel=3, note=66, velocity=84, time=12),\n",
      "    Message('note_on', channel=3, note=66, velocity=0, time=48),\n",
      "    Message('note_on', channel=3, note=62, velocity=84, time=12),\n",
      "    Message('note_on', channel=3, note=62, velocity=0, time=48),\n",
      "    Message('note_on', channel=3, note=66, velocity=84, time=12),\n",
      "    Message('note_on', channel=3, note=66, velocity=0, time=48),\n",
      "    Message('note_on', channel=3, note=69, velocity=84, time=12),\n",
      "    Message('note_on', channel=3, note=69, velocity=0, time=48),\n",
      "    Message('note_on', channel=3, note=72, velocity=84, time=12),\n",
      "    Message('note_on', channel=3, note=72, velocity=0, time=48),\n",
      "    Message('note_on', channel=3, note=71, velocity=84, time=12),\n",
      "    Message('note_on', channel=3, note=71, velocity=0, time=48),\n",
      "    Message('note_on', channel=3, note=69, velocity=84, time=12),\n",
      "    Message('note_on', channel=3, note=69, velocity=0, time=48),\n",
      "    Message('note_on', channel=3, note=71, velocity=84, time=12),\n",
      "    Message('note_on', channel=3, note=71, velocity=0, time=48),\n",
      "    Message('note_on', channel=3, note=67, velocity=84, time=12),\n",
      "    Message('note_on', channel=3, note=67, velocity=0, time=48),\n",
      "    Message('note_on', channel=3, note=69, velocity=84, time=12),\n",
      "    Message('note_on', channel=3, note=69, velocity=0, time=48),\n",
      "    Message('note_on', channel=3, note=71, velocity=84, time=12),\n",
      "    Message('note_on', channel=3, note=71, velocity=0, time=48),\n",
      "    Message('note_on', channel=3, note=74, velocity=84, time=12),\n",
      "    Message('note_on', channel=3, note=74, velocity=0, time=48),\n",
      "    Message('note_on', channel=3, note=72, velocity=84, time=12),\n",
      "    Message('note_on', channel=3, note=72, velocity=0, time=48),\n",
      "    Message('note_on', channel=3, note=72, velocity=84, time=12),\n",
      "    Message('note_on', channel=3, note=72, velocity=0, time=48),\n",
      "    Message('note_on', channel=3, note=76, velocity=84, time=12),\n",
      "    Message('note_on', channel=3, note=76, velocity=0, time=48),\n",
      "    Message('note_on', channel=3, note=74, velocity=84, time=12),\n",
      "    Message('note_on', channel=3, note=74, velocity=0, time=48),\n",
      "    Message('note_on', channel=3, note=74, velocity=84, time=12),\n",
      "    Message('note_on', channel=3, note=74, velocity=0, time=48),\n",
      "    Message('note_on', channel=3, note=79, velocity=84, time=12),\n",
      "    Message('note_on', channel=3, note=79, velocity=0, time=48),\n",
      "    Message('note_on', channel=3, note=78, velocity=84, time=12),\n",
      "    Message('note_on', channel=3, note=78, velocity=0, time=48),\n",
      "    Message('note_on', channel=3, note=79, velocity=84, time=12),\n",
      "    Message('note_on', channel=3, note=79, velocity=0, time=48),\n",
      "    Message('note_on', channel=3, note=74, velocity=84, time=12),\n",
      "    Message('note_on', channel=3, note=74, velocity=0, time=48),\n",
      "    Message('note_on', channel=3, note=71, velocity=84, time=12),\n",
      "    Message('note_on', channel=3, note=71, velocity=0, time=48),\n",
      "    Message('note_on', channel=3, note=67, velocity=84, time=12),\n",
      "    Message('note_on', channel=3, note=67, velocity=0, time=48),\n",
      "    Message('note_on', channel=3, note=69, velocity=84, time=12),\n",
      "    Message('note_on', channel=3, note=69, velocity=0, time=48),\n",
      "    Message('note_on', channel=3, note=71, velocity=84, time=12),\n",
      "    Message('note_on', channel=3, note=71, velocity=0, time=48),\n",
      "    Message('note_on', channel=3, note=72, velocity=84, time=12),\n",
      "    Message('note_on', channel=3, note=72, velocity=0, time=48),\n",
      "    Message('note_on', channel=3, note=74, velocity=84, time=12),\n",
      "    Message('note_on', channel=3, note=74, velocity=0, time=48),\n",
      "    Message('note_on', channel=3, note=76, velocity=84, time=12),\n",
      "    Message('note_on', channel=3, note=76, velocity=0, time=48),\n",
      "    Message('note_on', channel=3, note=74, velocity=84, time=12),\n",
      "    Message('note_on', channel=3, note=74, velocity=0, time=48),\n",
      "    Message('note_on', channel=3, note=72, velocity=84, time=12),\n",
      "    Message('note_on', channel=3, note=72, velocity=0, time=48),\n",
      "    Message('note_on', channel=3, note=71, velocity=84, time=12),\n",
      "    Message('note_on', channel=3, note=71, velocity=0, time=48),\n",
      "    Message('note_on', channel=3, note=69, velocity=84, time=12),\n",
      "    Message('note_on', channel=3, note=69, velocity=0, time=48),\n",
      "    Message('note_on', channel=3, note=71, velocity=84, time=12),\n",
      "    Message('note_on', channel=3, note=71, velocity=0, time=48),\n",
      "    Message('note_on', channel=3, note=67, velocity=84, time=12),\n",
      "    Message('note_on', channel=3, note=67, velocity=0, time=48),\n",
      "    Message('note_on', channel=3, note=66, velocity=84, time=12),\n",
      "    Message('note_on', channel=3, note=66, velocity=0, time=48),\n",
      "    Message('note_on', channel=3, note=67, velocity=84, time=12),\n",
      "    Message('note_on', channel=3, note=67, velocity=0, time=48),\n",
      "    Message('note_on', channel=3, note=69, velocity=84, time=12),\n",
      "    Message('note_on', channel=3, note=69, velocity=0, time=48),\n",
      "    Message('note_on', channel=3, note=62, velocity=84, time=12),\n",
      "    Message('note_on', channel=3, note=62, velocity=0, time=48),\n",
      "    Message('note_on', channel=3, note=66, velocity=84, time=12),\n",
      "    Message('note_on', channel=3, note=66, velocity=0, time=48),\n",
      "    Message('note_on', channel=3, note=69, velocity=84, time=12),\n",
      "    Message('note_on', channel=3, note=69, velocity=0, time=48),\n",
      "    Message('note_on', channel=3, note=72, velocity=84, time=12),\n",
      "    Message('note_on', channel=3, note=72, velocity=0, time=48),\n",
      "    Message('note_on', channel=3, note=71, velocity=84, time=12),\n",
      "    Message('note_on', channel=3, note=71, velocity=0, time=48),\n",
      "    Message('note_on', channel=3, note=69, velocity=84, time=12),\n",
      "    Message('note_on', channel=3, note=69, velocity=0, time=48),\n",
      "    Message('note_on', channel=3, note=71, velocity=84, time=12),\n",
      "    Message('note_on', channel=3, note=71, velocity=0, time=48),\n",
      "    Message('note_on', channel=3, note=67, velocity=84, time=12),\n",
      "    Message('note_on', channel=3, note=67, velocity=0, time=48),\n",
      "    Message('note_on', channel=3, note=69, velocity=84, time=12),\n",
      "    Message('note_on', channel=3, note=69, velocity=0, time=48),\n",
      "    Message('note_on', channel=3, note=71, velocity=84, time=12),\n",
      "    Message('note_on', channel=3, note=71, velocity=0, time=48),\n",
      "    Message('note_on', channel=3, note=74, velocity=84, time=12),\n",
      "    Message('note_on', channel=3, note=74, velocity=0, time=48),\n",
      "    Message('note_on', channel=3, note=72, velocity=84, time=12),\n",
      "    Message('note_on', channel=3, note=72, velocity=0, time=48),\n",
      "    Message('note_on', channel=3, note=72, velocity=84, time=12),\n",
      "    Message('note_on', channel=3, note=72, velocity=0, time=48),\n",
      "    Message('note_on', channel=3, note=76, velocity=84, time=12),\n",
      "    Message('note_on', channel=3, note=76, velocity=0, time=48),\n",
      "    Message('note_on', channel=3, note=74, velocity=84, time=12),\n",
      "    Message('note_on', channel=3, note=74, velocity=0, time=48),\n",
      "    Message('note_on', channel=3, note=74, velocity=84, time=12),\n",
      "    Message('note_on', channel=3, note=74, velocity=0, time=48),\n",
      "    Message('note_on', channel=3, note=79, velocity=84, time=12),\n",
      "    Message('note_on', channel=3, note=79, velocity=0, time=48),\n",
      "    Message('note_on', channel=3, note=78, velocity=84, time=12),\n",
      "    Message('note_on', channel=3, note=78, velocity=0, time=48),\n",
      "    Message('note_on', channel=3, note=79, velocity=84, time=12),\n",
      "    Message('note_on', channel=3, note=79, velocity=0, time=48),\n",
      "    Message('note_on', channel=3, note=74, velocity=84, time=12),\n",
      "    Message('note_on', channel=3, note=74, velocity=0, time=48),\n",
      "    Message('note_on', channel=3, note=71, velocity=84, time=12),\n",
      "    Message('note_on', channel=3, note=71, velocity=0, time=48),\n",
      "    Message('note_on', channel=3, note=67, velocity=84, time=12),\n",
      "    Message('note_on', channel=3, note=67, velocity=0, time=48),\n",
      "    Message('note_on', channel=3, note=69, velocity=84, time=12),\n",
      "    Message('note_on', channel=3, note=69, velocity=0, time=48),\n",
      "    Message('note_on', channel=3, note=71, velocity=84, time=12),\n",
      "    Message('note_on', channel=3, note=71, velocity=0, time=48),\n",
      "    Message('note_on', channel=3, note=64, velocity=84, time=12),\n",
      "    Message('note_on', channel=3, note=64, velocity=0, time=48),\n",
      "    Message('note_on', channel=3, note=74, velocity=84, time=12),\n",
      "    Message('note_on', channel=3, note=74, velocity=0, time=48),\n",
      "    Message('note_on', channel=3, note=72, velocity=84, time=12),\n",
      "    Message('note_on', channel=3, note=72, velocity=0, time=48),\n",
      "    Message('note_on', channel=3, note=71, velocity=84, time=12),\n",
      "    Message('note_on', channel=3, note=71, velocity=0, time=48),\n",
      "    Message('note_on', channel=3, note=69, velocity=84, time=12),\n",
      "    Message('note_on', channel=3, note=69, velocity=0, time=48),\n",
      "    Message('note_on', channel=3, note=67, velocity=84, time=12),\n",
      "    Message('note_on', channel=3, note=67, velocity=0, time=48),\n",
      "    Message('note_on', channel=3, note=62, velocity=84, time=12),\n",
      "    Message('note_on', channel=3, note=62, velocity=0, time=48),\n",
      "    Message('note_on', channel=3, note=67, velocity=84, time=12),\n",
      "    Message('note_on', channel=3, note=67, velocity=0, time=48),\n",
      "    Message('note_on', channel=3, note=66, velocity=84, time=12),\n",
      "    Message('note_on', channel=3, note=66, velocity=0, time=48),\n",
      "    Message('note_on', channel=3, note=62, velocity=58, time=12),\n",
      "    Message('note_on', channel=3, note=67, velocity=60, time=0),\n",
      "    Message('note_on', channel=3, note=59, velocity=57, time=0),\n",
      "    Message('note_on', channel=3, note=55, velocity=75, time=0),\n",
      "    Message('note_on', channel=3, note=62, velocity=0, time=456),\n",
      "    Message('note_on', channel=3, note=67, velocity=0, time=0),\n",
      "    Message('note_on', channel=3, note=59, velocity=0, time=0),\n",
      "    Message('note_on', channel=3, note=55, velocity=0, time=0),\n",
      "    Message('note_on', channel=3, note=67, velocity=94, time=143),\n",
      "    Message('note_on', channel=3, note=67, velocity=0, time=48),\n",
      "    Message('note_on', channel=3, note=69, velocity=94, time=12),\n",
      "    Message('note_on', channel=3, note=69, velocity=0, time=48),\n",
      "    Message('note_on', channel=3, note=71, velocity=94, time=12),\n",
      "    Message('note_on', channel=3, note=71, velocity=0, time=48),\n",
      "    Message('note_on', channel=3, note=74, velocity=94, time=12),\n",
      "    Message('note_on', channel=3, note=74, velocity=0, time=48),\n",
      "    Message('note_on', channel=3, note=72, velocity=94, time=12),\n",
      "    Message('note_on', channel=3, note=72, velocity=0, time=48),\n",
      "    Message('note_on', channel=3, note=72, velocity=94, time=12),\n",
      "    Message('note_on', channel=3, note=72, velocity=0, time=48),\n",
      "    Message('note_on', channel=3, note=76, velocity=94, time=12),\n",
      "    Message('note_on', channel=3, note=76, velocity=0, time=48),\n",
      "    Message('note_on', channel=3, note=74, velocity=94, time=12),\n",
      "    Message('note_on', channel=3, note=74, velocity=0, time=48),\n",
      "    Message('note_on', channel=3, note=74, velocity=94, time=12),\n",
      "    Message('note_on', channel=3, note=74, velocity=0, time=48),\n",
      "    Message('note_on', channel=3, note=79, velocity=94, time=12),\n",
      "    Message('note_on', channel=3, note=79, velocity=0, time=48),\n",
      "    Message('note_on', channel=3, note=78, velocity=94, time=12),\n",
      "    Message('note_on', channel=3, note=78, velocity=0, time=48),\n",
      "    Message('note_on', channel=3, note=79, velocity=94, time=12),\n",
      "    Message('note_on', channel=3, note=79, velocity=0, time=48),\n",
      "    Message('note_on', channel=3, note=74, velocity=94, time=12),\n",
      "    Message('note_on', channel=3, note=74, velocity=0, time=48),\n",
      "    Message('note_on', channel=3, note=71, velocity=94, time=12),\n",
      "    Message('note_on', channel=3, note=71, velocity=0, time=48),\n",
      "    Message('note_on', channel=3, note=67, velocity=94, time=12),\n",
      "    Message('note_on', channel=3, note=67, velocity=0, time=48),\n",
      "    Message('note_on', channel=3, note=69, velocity=94, time=12),\n",
      "    Message('note_on', channel=3, note=69, velocity=0, time=48),\n",
      "    Message('note_on', channel=3, note=71, velocity=94, time=12),\n",
      "    Message('note_on', channel=3, note=71, velocity=0, time=48),\n",
      "    Message('note_on', channel=3, note=72, velocity=94, time=12),\n",
      "    Message('note_on', channel=3, note=72, velocity=0, time=48),\n",
      "    Message('note_on', channel=3, note=74, velocity=94, time=12),\n",
      "    Message('note_on', channel=3, note=74, velocity=0, time=48),\n",
      "    Message('note_on', channel=3, note=76, velocity=94, time=12),\n",
      "    Message('note_on', channel=3, note=76, velocity=0, time=48),\n",
      "    Message('note_on', channel=3, note=74, velocity=94, time=12),\n",
      "    Message('note_on', channel=3, note=74, velocity=0, time=48),\n",
      "    Message('note_on', channel=3, note=72, velocity=94, time=12),\n",
      "    Message('note_on', channel=3, note=72, velocity=0, time=48),\n",
      "    Message('note_on', channel=3, note=71, velocity=94, time=12),\n",
      "    Message('note_on', channel=3, note=71, velocity=0, time=48),\n",
      "    Message('note_on', channel=3, note=69, velocity=94, time=12),\n",
      "    Message('note_on', channel=3, note=69, velocity=0, time=48),\n",
      "    Message('note_on', channel=3, note=71, velocity=94, time=12),\n",
      "    Message('note_on', channel=3, note=71, velocity=0, time=48),\n",
      "    Message('note_on', channel=3, note=67, velocity=94, time=12),\n",
      "    Message('note_on', channel=3, note=67, velocity=0, time=48),\n",
      "    Message('note_on', channel=3, note=66, velocity=94, time=12),\n",
      "    Message('note_on', channel=3, note=66, velocity=0, time=48),\n",
      "    Message('note_on', channel=3, note=67, velocity=94, time=12),\n",
      "    Message('note_on', channel=3, note=67, velocity=0, time=48),\n",
      "    Message('note_on', channel=3, note=69, velocity=94, time=12),\n",
      "    Message('note_on', channel=3, note=69, velocity=0, time=48),\n",
      "    Message('note_on', channel=3, note=62, velocity=94, time=12),\n",
      "    Message('note_on', channel=3, note=62, velocity=0, time=48),\n",
      "    Message('note_on', channel=3, note=66, velocity=94, time=12),\n",
      "    Message('note_on', channel=3, note=66, velocity=0, time=48),\n",
      "    Message('note_on', channel=3, note=69, velocity=94, time=12),\n",
      "    Message('note_on', channel=3, note=69, velocity=0, time=48),\n",
      "    Message('note_on', channel=3, note=72, velocity=94, time=12),\n",
      "    Message('note_on', channel=3, note=72, velocity=0, time=48),\n",
      "    Message('note_on', channel=3, note=71, velocity=94, time=12),\n",
      "    Message('note_on', channel=3, note=71, velocity=0, time=48),\n",
      "    Message('note_on', channel=3, note=69, velocity=94, time=12),\n",
      "    Message('note_on', channel=3, note=69, velocity=0, time=48),\n",
      "    Message('note_on', channel=3, note=71, velocity=94, time=12),\n",
      "    Message('note_on', channel=3, note=71, velocity=0, time=48),\n",
      "    Message('note_on', channel=3, note=67, velocity=94, time=12),\n",
      "    Message('note_on', channel=3, note=67, velocity=0, time=48),\n",
      "    Message('note_on', channel=3, note=69, velocity=94, time=12),\n",
      "    Message('note_on', channel=3, note=69, velocity=0, time=48),\n",
      "    Message('note_on', channel=3, note=71, velocity=94, time=12),\n",
      "    Message('note_on', channel=3, note=71, velocity=0, time=48),\n",
      "    Message('note_on', channel=3, note=74, velocity=94, time=12),\n",
      "    Message('note_on', channel=3, note=74, velocity=0, time=48),\n",
      "    Message('note_on', channel=3, note=72, velocity=94, time=12),\n",
      "    Message('note_on', channel=3, note=72, velocity=0, time=48),\n",
      "    Message('note_on', channel=3, note=72, velocity=94, time=12),\n",
      "    Message('note_on', channel=3, note=72, velocity=0, time=48),\n",
      "    Message('note_on', channel=3, note=76, velocity=94, time=12),\n",
      "    Message('note_on', channel=3, note=76, velocity=0, time=48),\n",
      "    Message('note_on', channel=3, note=74, velocity=94, time=12),\n",
      "    Message('note_on', channel=3, note=74, velocity=0, time=48),\n",
      "    Message('note_on', channel=3, note=74, velocity=94, time=12),\n",
      "    Message('note_on', channel=3, note=74, velocity=0, time=48),\n",
      "    Message('note_on', channel=3, note=79, velocity=94, time=12),\n",
      "    Message('note_on', channel=3, note=79, velocity=0, time=48),\n",
      "    Message('note_on', channel=3, note=78, velocity=94, time=12),\n",
      "    Message('note_on', channel=3, note=78, velocity=0, time=48),\n",
      "    Message('note_on', channel=3, note=79, velocity=94, time=12),\n",
      "    Message('note_on', channel=3, note=79, velocity=0, time=48),\n",
      "    Message('note_on', channel=3, note=74, velocity=94, time=12),\n",
      "    Message('note_on', channel=3, note=74, velocity=0, time=48),\n",
      "    Message('note_on', channel=3, note=71, velocity=94, time=12),\n",
      "    Message('note_on', channel=3, note=71, velocity=0, time=48),\n",
      "    Message('note_on', channel=3, note=67, velocity=94, time=12),\n",
      "    Message('note_on', channel=3, note=67, velocity=0, time=48),\n",
      "    Message('note_on', channel=3, note=69, velocity=94, time=12),\n",
      "    Message('note_on', channel=3, note=69, velocity=0, time=48),\n",
      "    Message('note_on', channel=3, note=71, velocity=94, time=12),\n",
      "    Message('note_on', channel=3, note=71, velocity=0, time=48),\n",
      "    Message('note_on', channel=3, note=64, velocity=94, time=12),\n",
      "    Message('note_on', channel=3, note=64, velocity=0, time=48),\n",
      "    Message('note_on', channel=3, note=74, velocity=94, time=12),\n",
      "    Message('note_on', channel=3, note=74, velocity=0, time=48),\n",
      "    Message('note_on', channel=3, note=72, velocity=94, time=12),\n",
      "    Message('note_on', channel=3, note=72, velocity=0, time=48),\n",
      "    Message('note_on', channel=3, note=71, velocity=94, time=12),\n",
      "    Message('note_on', channel=3, note=71, velocity=0, time=48),\n",
      "    Message('note_on', channel=3, note=69, velocity=94, time=12),\n",
      "    Message('note_on', channel=3, note=69, velocity=0, time=48),\n",
      "    Message('note_on', channel=3, note=67, velocity=94, time=12),\n",
      "    Message('note_on', channel=3, note=67, velocity=0, time=48),\n",
      "    Message('note_on', channel=3, note=62, velocity=94, time=12),\n",
      "    Message('note_on', channel=3, note=62, velocity=0, time=48),\n",
      "    Message('note_on', channel=3, note=67, velocity=94, time=12),\n",
      "    Message('note_on', channel=3, note=67, velocity=0, time=48),\n",
      "    Message('note_on', channel=3, note=66, velocity=94, time=12),\n",
      "    Message('note_on', channel=3, note=66, velocity=0, time=48),\n",
      "    Message('note_on', channel=3, note=67, velocity=94, time=12),\n",
      "    Message('note_on', channel=3, note=67, velocity=0, time=48),\n",
      "    Message('note_on', channel=3, note=71, velocity=94, time=12),\n",
      "    Message('note_on', channel=3, note=71, velocity=0, time=48),\n",
      "    Message('note_on', channel=3, note=74, velocity=94, time=12),\n",
      "    Message('note_on', channel=3, note=74, velocity=0, time=48),\n",
      "    Message('note_on', channel=3, note=79, velocity=94, time=12),\n",
      "    Message('note_on', channel=3, note=79, velocity=0, time=48),\n",
      "    Message('note_on', channel=3, note=74, velocity=94, time=12),\n",
      "    Message('note_on', channel=3, note=74, velocity=0, time=48),\n",
      "    Message('note_on', channel=3, note=71, velocity=94, time=12),\n",
      "    Message('note_on', channel=3, note=71, velocity=0, time=48),\n",
      "    Message('note_on', channel=3, note=67, velocity=94, time=12),\n",
      "    Message('note_on', channel=3, note=67, velocity=0, time=48),\n",
      "    Message('note_on', channel=3, note=71, velocity=94, time=12),\n",
      "    Message('note_on', channel=3, note=71, velocity=0, time=48),\n",
      "    Message('note_on', channel=3, note=74, velocity=94, time=12),\n",
      "    Message('note_on', channel=3, note=74, velocity=0, time=48),\n",
      "    Message('note_on', channel=3, note=62, velocity=94, time=12),\n",
      "    Message('note_on', channel=3, note=71, velocity=94, time=0),\n",
      "    Message('note_on', channel=3, note=67, velocity=94, time=0),\n",
      "    Message('note_on', channel=3, note=62, velocity=0, time=336),\n",
      "    Message('note_on', channel=3, note=71, velocity=0, time=0),\n",
      "    Message('note_on', channel=3, note=67, velocity=0, time=0),\n",
      "    Message('note_on', channel=3, note=64, velocity=94, time=24),\n",
      "    Message('note_on', channel=3, note=67, velocity=94, time=0),\n",
      "    Message('note_on', channel=3, note=60, velocity=94, time=0),\n",
      "    Message('note_on', channel=3, note=72, velocity=94, time=0),\n",
      "    Message('note_on', channel=3, note=64, velocity=0, time=168),\n",
      "    Message('note_on', channel=3, note=67, velocity=0, time=0),\n",
      "    Message('note_on', channel=3, note=60, velocity=0, time=0),\n",
      "    Message('note_on', channel=3, note=72, velocity=0, time=0),\n",
      "    Message('note_on', channel=3, note=74, velocity=94, time=12),\n",
      "    Message('note_on', channel=3, note=74, velocity=0, time=336),\n",
      "    Message('note_on', channel=3, note=66, velocity=94, time=24),\n",
      "    Message('note_on', channel=3, note=71, velocity=94, time=0),\n",
      "    Message('note_on', channel=3, note=74, velocity=94, time=0),\n",
      "    Message('note_on', channel=3, note=62, velocity=94, time=0),\n",
      "    Message('note_on', channel=3, note=66, velocity=0, time=168),\n",
      "    Message('note_on', channel=3, note=71, velocity=0, time=0),\n",
      "    Message('note_on', channel=3, note=74, velocity=0, time=0),\n",
      "    Message('note_on', channel=3, note=62, velocity=0, time=0),\n",
      "    Message('note_on', channel=3, note=72, velocity=94, time=12),\n",
      "    Message('note_on', channel=3, note=72, velocity=0, time=336),\n",
      "    Message('note_on', channel=3, note=67, velocity=94, time=24),\n",
      "    Message('note_on', channel=3, note=62, velocity=94, time=0),\n",
      "    Message('note_on', channel=3, note=71, velocity=94, time=0),\n",
      "    Message('note_on', channel=3, note=67, velocity=0, time=168),\n",
      "    Message('note_on', channel=3, note=62, velocity=0, time=0),\n",
      "    Message('note_on', channel=3, note=71, velocity=0, time=0),\n",
      "    Message('note_on', channel=3, note=66, velocity=94, time=12),\n",
      "    Message('note_on', channel=3, note=69, velocity=94, time=0),\n",
      "    Message('note_on', channel=3, note=66, velocity=0, time=48),\n",
      "    Message('note_on', channel=3, note=69, velocity=0, time=0),\n",
      "    Message('note_on', channel=3, note=62, velocity=94, time=12),\n",
      "    Message('note_on', channel=3, note=62, velocity=0, time=48),\n",
      "    Message('note_on', channel=3, note=64, velocity=94, time=12),\n",
      "    Message('note_on', channel=3, note=64, velocity=0, time=48),\n",
      "    Message('note_on', channel=3, note=66, velocity=94, time=12),\n",
      "    Message('note_on', channel=3, note=69, velocity=94, time=0),\n",
      "    Message('note_on', channel=3, note=66, velocity=0, time=48),\n",
      "    Message('note_on', channel=3, note=69, velocity=0, time=0),\n",
      "    Message('note_on', channel=3, note=69, velocity=94, time=12),\n",
      "    Message('note_on', channel=3, note=69, velocity=0, time=48),\n",
      "    Message('note_on', channel=3, note=67, velocity=94, time=12),\n",
      "    Message('note_on', channel=3, note=67, velocity=0, time=48),\n",
      "    Message('note_on', channel=3, note=69, velocity=94, time=12),\n",
      "    Message('note_on', channel=3, note=69, velocity=0, time=48),\n",
      "    Message('note_on', channel=3, note=72, velocity=94, time=12),\n",
      "    Message('note_on', channel=3, note=72, velocity=0, time=48),\n",
      "    Message('note_on', channel=3, note=71, velocity=94, time=12),\n",
      "    Message('note_on', channel=3, note=71, velocity=0, time=48),\n",
      "    Message('note_on', channel=3, note=72, velocity=94, time=12),\n",
      "    Message('note_on', channel=3, note=72, velocity=0, time=48),\n",
      "    Message('note_on', channel=3, note=69, velocity=94, time=12),\n",
      "    Message('note_on', channel=3, note=69, velocity=0, time=48),\n",
      "    Message('note_on', channel=3, note=66, velocity=94, time=12),\n",
      "    Message('note_on', channel=3, note=66, velocity=0, time=48),\n",
      "    Message('note_on', channel=3, note=62, velocity=94, time=12),\n",
      "    Message('note_on', channel=3, note=62, velocity=0, time=48),\n",
      "    Message('note_on', channel=3, note=66, velocity=94, time=12),\n",
      "    Message('note_on', channel=3, note=66, velocity=0, time=48),\n",
      "    Message('note_on', channel=3, note=69, velocity=94, time=12),\n",
      "    Message('note_on', channel=3, note=69, velocity=0, time=48),\n",
      "    Message('note_on', channel=3, note=72, velocity=94, time=12),\n",
      "    Message('note_on', channel=3, note=72, velocity=0, time=48),\n",
      "    Message('note_on', channel=3, note=71, velocity=94, time=12),\n",
      "    Message('note_on', channel=3, note=71, velocity=0, time=48),\n",
      "    Message('note_on', channel=3, note=69, velocity=94, time=12),\n",
      "    Message('note_on', channel=3, note=69, velocity=0, time=48),\n",
      "    Message('note_on', channel=3, note=67, velocity=94, time=12),\n",
      "    Message('note_on', channel=3, note=71, velocity=94, time=0),\n",
      "    Message('note_on', channel=3, note=67, velocity=0, time=336),\n",
      "    Message('note_on', channel=3, note=71, velocity=0, time=0),\n",
      "    Message('note_on', channel=3, note=64, velocity=94, time=24),\n",
      "    Message('note_on', channel=3, note=72, velocity=94, time=0),\n",
      "    Message('note_on', channel=3, note=67, velocity=94, time=0),\n",
      "    Message('note_on', channel=3, note=60, velocity=94, time=0),\n",
      "    Message('note_on', channel=3, note=64, velocity=0, time=168),\n",
      "    Message('note_on', channel=3, note=72, velocity=0, time=0),\n",
      "    Message('note_on', channel=3, note=67, velocity=0, time=0),\n",
      "    Message('note_on', channel=3, note=60, velocity=0, time=0),\n",
      "    Message('note_on', channel=3, note=67, velocity=94, time=12),\n",
      "    Message('note_on', channel=3, note=62, velocity=94, time=0),\n",
      "    Message('note_on', channel=3, note=74, velocity=94, time=0),\n",
      "    Message('note_on', channel=3, note=67, velocity=0, time=336),\n",
      "    Message('note_on', channel=3, note=62, velocity=0, time=0),\n",
      "    Message('note_on', channel=3, note=74, velocity=0, time=0),\n",
      "    Message('note_on', channel=3, note=67, velocity=94, time=24),\n",
      "    Message('note_on', channel=3, note=64, velocity=94, time=0),\n",
      "    Message('note_on', channel=3, note=71, velocity=94, time=0),\n",
      "    Message('note_on', channel=3, note=67, velocity=0, time=168),\n",
      "    Message('note_on', channel=3, note=64, velocity=0, time=0),\n",
      "    Message('note_on', channel=3, note=71, velocity=0, time=0),\n",
      "    Message('note_on', channel=3, note=69, velocity=94, time=12),\n",
      "    Message('note_on', channel=3, note=69, velocity=0, time=116),\n",
      "    Message('note_on', channel=3, note=71, velocity=94, time=4),\n",
      "    Message('note_on', channel=3, note=72, velocity=94, time=30),\n",
      "    Message('note_on', channel=3, note=71, velocity=0, time=14),\n",
      "    Message('note_on', channel=3, note=71, velocity=94, time=16),\n",
      "    Message('note_on', channel=3, note=66, velocity=94, time=0),\n",
      "    Message('note_on', channel=3, note=62, velocity=94, time=0),\n",
      "    Message('note_on', channel=3, note=72, velocity=0, time=14),\n",
      "    Message('note_on', channel=3, note=66, velocity=94, time=166),\n",
      "    Message('note_on', channel=3, note=60, velocity=94, time=0),\n",
      "    Message('note_on', channel=3, note=69, velocity=94, time=0),\n",
      "    Message('note_on', channel=3, note=71, velocity=0, time=8),\n",
      "    Message('note_on', channel=3, note=66, velocity=0, time=0),\n",
      "    Message('note_on', channel=3, note=62, velocity=0, time=0),\n",
      "    Message('note_on', channel=3, note=67, velocity=94, time=172),\n",
      "    Message('note_on', channel=3, note=66, velocity=0, time=8),\n",
      "    Message('note_on', channel=3, note=60, velocity=0, time=0),\n",
      "    Message('note_on', channel=3, note=69, velocity=0, time=0),\n",
      "    Message('note_on', channel=3, note=67, velocity=0, time=40),\n",
      "    Message('note_on', channel=3, note=71, velocity=94, time=12),\n",
      "    Message('note_on', channel=3, note=71, velocity=0, time=48),\n",
      "    Message('note_on', channel=3, note=69, velocity=94, time=12),\n",
      "    Message('note_on', channel=3, note=69, velocity=0, time=48),\n",
      "    Message('note_on', channel=3, note=71, velocity=94, time=12),\n",
      "    Message('note_on', channel=3, note=71, velocity=0, time=48),\n",
      "    Message('note_on', channel=3, note=74, velocity=94, time=12),\n",
      "    Message('note_on', channel=3, note=74, velocity=0, time=48),\n",
      "    Message('note_on', channel=3, note=72, velocity=94, time=12),\n",
      "    Message('note_on', channel=3, note=72, velocity=0, time=48),\n",
      "    Message('note_on', channel=3, note=72, velocity=94, time=12),\n",
      "    Message('note_on', channel=3, note=72, velocity=0, time=48),\n",
      "    Message('note_on', channel=3, note=76, velocity=94, time=12),\n",
      "    Message('note_on', channel=3, note=76, velocity=0, time=48),\n",
      "    Message('note_on', channel=3, note=74, velocity=94, time=12),\n",
      "    Message('note_on', channel=3, note=74, velocity=0, time=48),\n",
      "    Message('note_on', channel=3, note=74, velocity=94, time=12),\n",
      "    Message('note_on', channel=3, note=74, velocity=0, time=48),\n",
      "    Message('note_on', channel=3, note=79, velocity=94, time=12),\n",
      "    Message('note_on', channel=3, note=79, velocity=0, time=48),\n",
      "    Message('note_on', channel=3, note=78, velocity=94, time=12),\n",
      "    Message('note_on', channel=3, note=78, velocity=0, time=48),\n",
      "    Message('note_on', channel=3, note=79, velocity=94, time=12),\n",
      "    Message('note_on', channel=3, note=79, velocity=0, time=48),\n",
      "    Message('note_on', channel=3, note=74, velocity=94, time=12),\n",
      "    Message('note_on', channel=3, note=74, velocity=0, time=48),\n",
      "    Message('note_on', channel=3, note=71, velocity=94, time=12),\n",
      "    Message('note_on', channel=3, note=71, velocity=0, time=48),\n",
      "    Message('note_on', channel=3, note=67, velocity=94, time=12),\n",
      "    Message('note_on', channel=3, note=67, velocity=0, time=48),\n",
      "    Message('note_on', channel=3, note=69, velocity=94, time=12),\n",
      "    Message('note_on', channel=3, note=69, velocity=0, time=48),\n",
      "    Message('note_on', channel=3, note=71, velocity=94, time=12),\n",
      "    Message('note_on', channel=3, note=71, velocity=0, time=48),\n",
      "    Message('note_on', channel=3, note=72, velocity=94, time=12),\n",
      "    Message('note_on', channel=3, note=72, velocity=0, time=48),\n",
      "    Message('note_on', channel=3, note=74, velocity=94, time=12),\n",
      "    Message('note_on', channel=3, note=74, velocity=0, time=48),\n",
      "    Message('note_on', channel=3, note=76, velocity=94, time=12),\n",
      "    Message('note_on', channel=3, note=76, velocity=0, time=48),\n",
      "    Message('note_on', channel=3, note=74, velocity=94, time=12),\n",
      "    Message('note_on', channel=3, note=74, velocity=0, time=48),\n",
      "    Message('note_on', channel=3, note=72, velocity=94, time=12),\n",
      "    Message('note_on', channel=3, note=72, velocity=0, time=48),\n",
      "    Message('note_on', channel=3, note=71, velocity=94, time=12),\n",
      "    Message('note_on', channel=3, note=71, velocity=0, time=48),\n",
      "    Message('note_on', channel=3, note=69, velocity=94, time=12),\n",
      "    Message('note_on', channel=3, note=69, velocity=0, time=48),\n",
      "    Message('note_on', channel=3, note=71, velocity=94, time=12),\n",
      "    Message('note_on', channel=3, note=71, velocity=0, time=48),\n",
      "    Message('note_on', channel=3, note=67, velocity=94, time=12),\n",
      "    Message('note_on', channel=3, note=67, velocity=0, time=48),\n",
      "    Message('note_on', channel=3, note=66, velocity=94, time=12),\n",
      "    Message('note_on', channel=3, note=66, velocity=0, time=48),\n",
      "    Message('note_on', channel=3, note=67, velocity=94, time=12),\n",
      "    Message('note_on', channel=3, note=67, velocity=0, time=48),\n",
      "    Message('note_on', channel=3, note=69, velocity=94, time=12),\n",
      "    Message('note_on', channel=3, note=69, velocity=0, time=48),\n",
      "    Message('note_on', channel=3, note=62, velocity=94, time=12),\n",
      "    Message('note_on', channel=3, note=62, velocity=0, time=48),\n",
      "    Message('note_on', channel=3, note=66, velocity=94, time=12),\n",
      "    Message('note_on', channel=3, note=66, velocity=0, time=48),\n",
      "    Message('note_on', channel=3, note=69, velocity=94, time=12),\n",
      "    Message('note_on', channel=3, note=69, velocity=0, time=48),\n",
      "    Message('note_on', channel=3, note=72, velocity=94, time=12),\n",
      "    Message('note_on', channel=3, note=72, velocity=0, time=48),\n",
      "    Message('note_on', channel=3, note=71, velocity=94, time=12),\n",
      "    Message('note_on', channel=3, note=71, velocity=0, time=48),\n",
      "    Message('note_on', channel=3, note=69, velocity=94, time=12),\n",
      "    Message('note_on', channel=3, note=69, velocity=0, time=48),\n",
      "    Message('note_on', channel=3, note=71, velocity=94, time=12),\n",
      "    Message('note_on', channel=3, note=71, velocity=0, time=48),\n",
      "    Message('note_on', channel=3, note=67, velocity=94, time=12),\n",
      "    Message('note_on', channel=3, note=67, velocity=0, time=48),\n",
      "    Message('note_on', channel=3, note=69, velocity=94, time=12),\n",
      "    Message('note_on', channel=3, note=69, velocity=0, time=48),\n",
      "    Message('note_on', channel=3, note=71, velocity=94, time=12),\n",
      "    Message('note_on', channel=3, note=71, velocity=0, time=48),\n",
      "    Message('note_on', channel=3, note=74, velocity=94, time=12),\n",
      "    Message('note_on', channel=3, note=74, velocity=0, time=48),\n",
      "    Message('note_on', channel=3, note=72, velocity=94, time=12),\n",
      "    Message('note_on', channel=3, note=72, velocity=0, time=48),\n",
      "    Message('note_on', channel=3, note=72, velocity=94, time=12),\n",
      "    Message('note_on', channel=3, note=72, velocity=0, time=48),\n",
      "    Message('note_on', channel=3, note=76, velocity=94, time=12),\n",
      "    Message('note_on', channel=3, note=76, velocity=0, time=48),\n",
      "    Message('note_on', channel=3, note=74, velocity=94, time=12),\n",
      "    Message('note_on', channel=3, note=74, velocity=0, time=48),\n",
      "    Message('note_on', channel=3, note=74, velocity=94, time=12),\n",
      "    Message('note_on', channel=3, note=74, velocity=0, time=48),\n",
      "    Message('note_on', channel=3, note=79, velocity=94, time=12),\n",
      "    Message('note_on', channel=3, note=79, velocity=0, time=48),\n",
      "    Message('note_on', channel=3, note=78, velocity=94, time=12),\n",
      "    Message('note_on', channel=3, note=78, velocity=0, time=48),\n",
      "    Message('note_on', channel=3, note=79, velocity=94, time=12),\n",
      "    Message('note_on', channel=3, note=79, velocity=0, time=48),\n",
      "    Message('note_on', channel=3, note=74, velocity=94, time=12),\n",
      "    Message('note_on', channel=3, note=74, velocity=0, time=48),\n",
      "    Message('note_on', channel=3, note=71, velocity=94, time=12),\n",
      "    Message('note_on', channel=3, note=71, velocity=0, time=48),\n",
      "    Message('note_on', channel=3, note=67, velocity=94, time=12),\n",
      "    Message('note_on', channel=3, note=67, velocity=0, time=48),\n",
      "    Message('note_on', channel=3, note=69, velocity=94, time=12),\n",
      "    Message('note_on', channel=3, note=69, velocity=0, time=48),\n",
      "    Message('note_on', channel=3, note=71, velocity=94, time=12),\n",
      "    Message('note_on', channel=3, note=71, velocity=0, time=48),\n",
      "    Message('note_on', channel=3, note=64, velocity=94, time=12),\n",
      "    Message('note_on', channel=3, note=64, velocity=0, time=48),\n",
      "    Message('note_on', channel=3, note=74, velocity=94, time=12),\n",
      "    Message('note_on', channel=3, note=74, velocity=0, time=48),\n",
      "    Message('note_on', channel=3, note=72, velocity=94, time=12),\n",
      "    Message('note_on', channel=3, note=72, velocity=0, time=48),\n",
      "    Message('note_on', channel=3, note=71, velocity=94, time=12),\n",
      "    Message('note_on', channel=3, note=71, velocity=0, time=48),\n",
      "    Message('note_on', channel=3, note=69, velocity=94, time=12),\n",
      "    Message('note_on', channel=3, note=69, velocity=0, time=48),\n",
      "    Message('note_on', channel=3, note=67, velocity=94, time=12),\n",
      "    Message('note_on', channel=3, note=67, velocity=0, time=48),\n",
      "    Message('note_on', channel=3, note=62, velocity=94, time=12),\n",
      "    Message('note_on', channel=3, note=62, velocity=0, time=48),\n",
      "    Message('note_on', channel=3, note=67, velocity=94, time=12),\n",
      "    Message('note_on', channel=3, note=67, velocity=0, time=48),\n",
      "    Message('note_on', channel=3, note=66, velocity=94, time=12),\n",
      "    Message('note_on', channel=3, note=66, velocity=0, time=48),\n",
      "    Message('note_on', channel=3, note=67, velocity=94, time=12),\n",
      "    Message('note_on', channel=3, note=71, velocity=94, time=0),\n",
      "    Message('note_on', channel=3, note=67, velocity=0, time=336),\n",
      "    Message('note_on', channel=3, note=71, velocity=0, time=0),\n",
      "    Message('note_on', channel=3, note=64, velocity=94, time=24),\n",
      "    Message('note_on', channel=3, note=60, velocity=94, time=0),\n",
      "    Message('note_on', channel=3, note=67, velocity=94, time=0),\n",
      "    Message('note_on', channel=3, note=72, velocity=94, time=0),\n",
      "    Message('note_on', channel=3, note=64, velocity=0, time=168),\n",
      "    Message('note_on', channel=3, note=60, velocity=0, time=0),\n",
      "    Message('note_on', channel=3, note=67, velocity=0, time=0),\n",
      "    Message('note_on', channel=3, note=72, velocity=0, time=0),\n",
      "    Message('note_on', channel=3, note=74, velocity=94, time=12),\n",
      "    Message('note_on', channel=3, note=74, velocity=0, time=336),\n",
      "    Message('note_on', channel=3, note=66, velocity=94, time=24),\n",
      "    Message('note_on', channel=3, note=71, velocity=94, time=0),\n",
      "    Message('note_on', channel=3, note=74, velocity=94, time=0),\n",
      "    Message('note_on', channel=3, note=62, velocity=94, time=0),\n",
      "    Message('note_on', channel=3, note=66, velocity=0, time=168),\n",
      "    Message('note_on', channel=3, note=71, velocity=0, time=0),\n",
      "    Message('note_on', channel=3, note=74, velocity=0, time=0),\n",
      "    Message('note_on', channel=3, note=62, velocity=0, time=0),\n",
      "    Message('note_on', channel=3, note=72, velocity=94, time=12),\n",
      "    Message('note_on', channel=3, note=72, velocity=0, time=336),\n",
      "    Message('note_on', channel=3, note=67, velocity=94, time=24),\n",
      "    Message('note_on', channel=3, note=62, velocity=94, time=0),\n",
      "    Message('note_on', channel=3, note=71, velocity=94, time=0),\n",
      "    Message('note_on', channel=3, note=67, velocity=0, time=168),\n",
      "    Message('note_on', channel=3, note=62, velocity=0, time=0),\n",
      "    Message('note_on', channel=3, note=71, velocity=0, time=0),\n",
      "    Message('note_on', channel=3, note=66, velocity=94, time=12),\n",
      "    Message('note_on', channel=3, note=69, velocity=94, time=0),\n",
      "    Message('note_on', channel=3, note=66, velocity=0, time=48),\n",
      "    Message('note_on', channel=3, note=69, velocity=0, time=0),\n",
      "    Message('note_on', channel=3, note=62, velocity=94, time=12),\n",
      "    Message('note_on', channel=3, note=62, velocity=0, time=48),\n",
      "    Message('note_on', channel=3, note=64, velocity=94, time=12),\n",
      "    Message('note_on', channel=3, note=64, velocity=0, time=48),\n",
      "    Message('note_on', channel=3, note=66, velocity=94, time=12),\n",
      "    Message('note_on', channel=3, note=69, velocity=94, time=0),\n",
      "    Message('note_on', channel=3, note=66, velocity=0, time=48),\n",
      "    Message('note_on', channel=3, note=69, velocity=0, time=0),\n",
      "    Message('note_on', channel=3, note=69, velocity=94, time=12),\n",
      "    Message('note_on', channel=3, note=69, velocity=0, time=48),\n",
      "    Message('note_on', channel=3, note=67, velocity=94, time=12),\n",
      "    Message('note_on', channel=3, note=67, velocity=0, time=48),\n",
      "    Message('note_on', channel=3, note=69, velocity=94, time=12),\n",
      "    Message('note_on', channel=3, note=69, velocity=0, time=48),\n",
      "    Message('note_on', channel=3, note=72, velocity=94, time=12),\n",
      "    Message('note_on', channel=3, note=72, velocity=0, time=48),\n",
      "    Message('note_on', channel=3, note=71, velocity=94, time=12),\n",
      "    Message('note_on', channel=3, note=71, velocity=0, time=48),\n",
      "    Message('note_on', channel=3, note=72, velocity=94, time=12),\n",
      "    Message('note_on', channel=3, note=72, velocity=0, time=48),\n",
      "    Message('note_on', channel=3, note=69, velocity=94, time=12),\n",
      "    Message('note_on', channel=3, note=69, velocity=0, time=48),\n",
      "    Message('note_on', channel=3, note=66, velocity=94, time=12),\n",
      "    Message('note_on', channel=3, note=66, velocity=0, time=48),\n",
      "    Message('note_on', channel=3, note=62, velocity=94, time=12),\n",
      "    Message('note_on', channel=3, note=62, velocity=0, time=48),\n",
      "    Message('note_on', channel=3, note=66, velocity=94, time=12),\n",
      "    Message('note_on', channel=3, note=66, velocity=0, time=48),\n",
      "    Message('note_on', channel=3, note=69, velocity=94, time=12),\n",
      "    Message('note_on', channel=3, note=69, velocity=0, time=48),\n",
      "    Message('note_on', channel=3, note=72, velocity=94, time=12),\n",
      "    Message('note_on', channel=3, note=72, velocity=0, time=48),\n",
      "    Message('note_on', channel=3, note=71, velocity=94, time=12),\n",
      "    Message('note_on', channel=3, note=71, velocity=0, time=48),\n",
      "    Message('note_on', channel=3, note=69, velocity=94, time=12),\n",
      "    Message('note_on', channel=3, note=69, velocity=0, time=48),\n",
      "    Message('note_on', channel=3, note=71, velocity=94, time=12),\n",
      "    Message('note_on', channel=3, note=67, velocity=94, time=0),\n",
      "    Message('note_on', channel=3, note=71, velocity=0, time=336),\n",
      "    Message('note_on', channel=3, note=67, velocity=0, time=0),\n",
      "    Message('note_on', channel=3, note=64, velocity=94, time=24),\n",
      "    Message('note_on', channel=3, note=60, velocity=94, time=0),\n",
      "    Message('note_on', channel=3, note=67, velocity=94, time=0),\n",
      "    Message('note_on', channel=3, note=72, velocity=94, time=0),\n",
      "    Message('note_on', channel=3, note=64, velocity=0, time=168),\n",
      "    Message('note_on', channel=3, note=60, velocity=0, time=0),\n",
      "    Message('note_on', channel=3, note=67, velocity=0, time=0),\n",
      "    Message('note_on', channel=3, note=72, velocity=0, time=0),\n",
      "    Message('note_on', channel=3, note=67, velocity=94, time=12),\n",
      "    Message('note_on', channel=3, note=74, velocity=94, time=0),\n",
      "    Message('note_on', channel=3, note=62, velocity=94, time=0),\n",
      "    Message('note_on', channel=3, note=67, velocity=0, time=336),\n",
      "    Message('note_on', channel=3, note=74, velocity=0, time=0),\n",
      "    Message('note_on', channel=3, note=62, velocity=0, time=0),\n",
      "    Message('note_on', channel=3, note=67, velocity=94, time=24),\n",
      "    Message('note_on', channel=3, note=64, velocity=94, time=0),\n",
      "    Message('note_on', channel=3, note=71, velocity=94, time=0),\n",
      "    Message('note_on', channel=3, note=67, velocity=0, time=168),\n",
      "    Message('note_on', channel=3, note=64, velocity=0, time=0),\n",
      "    Message('note_on', channel=3, note=71, velocity=0, time=0),\n",
      "    Message('note_on', channel=3, note=69, velocity=94, time=12),\n",
      "    Message('note_on', channel=3, note=69, velocity=0, time=116),\n",
      "    Message('note_on', channel=3, note=71, velocity=94, time=4),\n",
      "    Message('note_on', channel=3, note=72, velocity=94, time=30),\n",
      "    Message('note_on', channel=3, note=71, velocity=0, time=14),\n",
      "    Message('note_on', channel=3, note=66, velocity=94, time=16),\n",
      "    Message('note_on', channel=3, note=71, velocity=94, time=0),\n",
      "    Message('note_on', channel=3, note=62, velocity=94, time=0),\n",
      "    Message('note_on', channel=3, note=72, velocity=0, time=14),\n",
      "    Message('note_on', channel=3, note=66, velocity=0, time=154),\n",
      "    Message('note_on', channel=3, note=71, velocity=0, time=0),\n",
      "    Message('note_on', channel=3, note=62, velocity=0, time=0),\n",
      "    Message('note_on', channel=3, note=66, velocity=94, time=12),\n",
      "    Message('note_on', channel=3, note=60, velocity=94, time=0),\n",
      "    Message('note_on', channel=3, note=69, velocity=94, time=0),\n",
      "    Message('note_on', channel=3, note=66, velocity=0, time=168),\n",
      "    Message('note_on', channel=3, note=60, velocity=0, time=0),\n",
      "    Message('note_on', channel=3, note=69, velocity=0, time=0),\n",
      "    Message('note_on', channel=3, note=67, velocity=94, time=12),\n",
      "    Message('note_on', channel=3, note=67, velocity=0, time=48),\n",
      "    Message('note_on', channel=3, note=71, velocity=94, time=12),\n",
      "    Message('note_on', channel=3, note=71, velocity=0, time=48),\n",
      "    Message('note_on', channel=3, note=69, velocity=94, time=12),\n",
      "    Message('note_on', channel=3, note=69, velocity=0, time=48),\n",
      "    Message('note_on', channel=3, note=71, velocity=94, time=12),\n",
      "    Message('note_on', channel=3, note=71, velocity=0, time=48),\n",
      "    Message('note_on', channel=3, note=74, velocity=94, time=12),\n",
      "    Message('note_on', channel=3, note=74, velocity=0, time=48),\n",
      "    Message('note_on', channel=3, note=72, velocity=94, time=12),\n",
      "    Message('note_on', channel=3, note=72, velocity=0, time=48),\n",
      "    Message('note_on', channel=3, note=72, velocity=94, time=12),\n",
      "    Message('note_on', channel=3, note=72, velocity=0, time=48),\n",
      "    Message('note_on', channel=3, note=76, velocity=94, time=12),\n",
      "    Message('note_on', channel=3, note=76, velocity=0, time=48),\n",
      "    Message('note_on', channel=3, note=74, velocity=94, time=12),\n",
      "    Message('note_on', channel=3, note=74, velocity=0, time=48),\n",
      "    Message('note_on', channel=3, note=74, velocity=94, time=12),\n",
      "    Message('note_on', channel=3, note=74, velocity=0, time=48),\n",
      "    Message('note_on', channel=3, note=79, velocity=94, time=12),\n",
      "    Message('note_on', channel=3, note=79, velocity=0, time=48),\n",
      "    Message('note_on', channel=3, note=78, velocity=94, time=12),\n",
      "    Message('note_on', channel=3, note=78, velocity=0, time=48),\n",
      "    Message('note_on', channel=3, note=79, velocity=94, time=12),\n",
      "    Message('note_on', channel=3, note=79, velocity=0, time=48),\n",
      "    Message('note_on', channel=3, note=74, velocity=94, time=12),\n",
      "    Message('note_on', channel=3, note=74, velocity=0, time=48),\n",
      "    Message('note_on', channel=3, note=71, velocity=94, time=12),\n",
      "    Message('note_on', channel=3, note=71, velocity=0, time=48),\n",
      "    Message('note_on', channel=3, note=67, velocity=94, time=12),\n",
      "    Message('note_on', channel=3, note=67, velocity=0, time=48),\n",
      "    Message('note_on', channel=3, note=69, velocity=94, time=12),\n",
      "    Message('note_on', channel=3, note=69, velocity=0, time=48),\n",
      "    Message('note_on', channel=3, note=71, velocity=94, time=12),\n",
      "    Message('note_on', channel=3, note=71, velocity=0, time=48),\n",
      "    Message('note_on', channel=3, note=72, velocity=94, time=12),\n",
      "    Message('note_on', channel=3, note=72, velocity=0, time=48),\n",
      "    Message('note_on', channel=3, note=74, velocity=94, time=12),\n",
      "    Message('note_on', channel=3, note=74, velocity=0, time=48),\n",
      "    Message('note_on', channel=3, note=76, velocity=94, time=12),\n",
      "    Message('note_on', channel=3, note=76, velocity=0, time=48),\n",
      "    Message('note_on', channel=3, note=74, velocity=94, time=12),\n",
      "    Message('note_on', channel=3, note=74, velocity=0, time=48),\n",
      "    Message('note_on', channel=3, note=72, velocity=94, time=12),\n",
      "    Message('note_on', channel=3, note=72, velocity=0, time=48),\n",
      "    Message('note_on', channel=3, note=71, velocity=94, time=12),\n",
      "    Message('note_on', channel=3, note=71, velocity=0, time=48),\n",
      "    Message('note_on', channel=3, note=69, velocity=94, time=12),\n",
      "    Message('note_on', channel=3, note=69, velocity=0, time=48),\n",
      "    Message('note_on', channel=3, note=71, velocity=94, time=12),\n",
      "    Message('note_on', channel=3, note=71, velocity=0, time=48),\n",
      "    Message('note_on', channel=3, note=67, velocity=94, time=12),\n",
      "    Message('note_on', channel=3, note=67, velocity=0, time=48),\n",
      "    Message('note_on', channel=3, note=66, velocity=94, time=12),\n",
      "    Message('note_on', channel=3, note=66, velocity=0, time=48),\n",
      "    Message('note_on', channel=3, note=67, velocity=94, time=12),\n",
      "    Message('note_on', channel=3, note=67, velocity=0, time=48),\n",
      "    Message('note_on', channel=3, note=69, velocity=94, time=12),\n",
      "    Message('note_on', channel=3, note=69, velocity=0, time=48),\n",
      "    Message('note_on', channel=3, note=62, velocity=94, time=12),\n",
      "    Message('note_on', channel=3, note=62, velocity=0, time=48),\n",
      "    Message('note_on', channel=3, note=66, velocity=94, time=12),\n",
      "    Message('note_on', channel=3, note=66, velocity=0, time=48),\n",
      "    Message('note_on', channel=3, note=69, velocity=94, time=12),\n",
      "    Message('note_on', channel=3, note=69, velocity=0, time=48),\n",
      "    Message('note_on', channel=3, note=72, velocity=94, time=12),\n",
      "    Message('note_on', channel=3, note=72, velocity=0, time=48),\n",
      "    Message('note_on', channel=3, note=71, velocity=94, time=12),\n",
      "    Message('note_on', channel=3, note=71, velocity=0, time=48),\n",
      "    Message('note_on', channel=3, note=69, velocity=94, time=12),\n",
      "    Message('note_on', channel=3, note=69, velocity=0, time=48),\n",
      "    Message('note_on', channel=3, note=71, velocity=94, time=12),\n",
      "    Message('note_on', channel=3, note=71, velocity=0, time=48),\n",
      "    Message('note_on', channel=3, note=67, velocity=94, time=12),\n",
      "    Message('note_on', channel=3, note=67, velocity=0, time=48),\n",
      "    Message('note_on', channel=3, note=69, velocity=94, time=12),\n",
      "    Message('note_on', channel=3, note=69, velocity=0, time=48),\n",
      "    Message('note_on', channel=3, note=71, velocity=94, time=12),\n",
      "    Message('note_on', channel=3, note=71, velocity=0, time=48),\n",
      "    Message('note_on', channel=3, note=74, velocity=94, time=12),\n",
      "    Message('note_on', channel=3, note=74, velocity=0, time=48),\n",
      "    Message('note_on', channel=3, note=72, velocity=94, time=12),\n",
      "    Message('note_on', channel=3, note=72, velocity=0, time=48),\n",
      "    Message('note_on', channel=3, note=72, velocity=94, time=12),\n",
      "    Message('note_on', channel=3, note=72, velocity=0, time=48),\n",
      "    Message('note_on', channel=3, note=76, velocity=94, time=12),\n",
      "    Message('note_on', channel=3, note=76, velocity=0, time=48),\n",
      "    Message('note_on', channel=3, note=74, velocity=94, time=12),\n",
      "    Message('note_on', channel=3, note=74, velocity=0, time=48),\n",
      "    Message('note_on', channel=3, note=74, velocity=94, time=12),\n",
      "    Message('note_on', channel=3, note=74, velocity=0, time=48),\n",
      "    Message('note_on', channel=3, note=79, velocity=94, time=12),\n",
      "    Message('note_on', channel=3, note=79, velocity=0, time=48),\n",
      "    Message('note_on', channel=3, note=78, velocity=94, time=12),\n",
      "    Message('note_on', channel=3, note=78, velocity=0, time=48),\n",
      "    Message('note_on', channel=3, note=79, velocity=94, time=12),\n",
      "    Message('note_on', channel=3, note=79, velocity=0, time=48),\n",
      "    Message('note_on', channel=3, note=74, velocity=94, time=12),\n",
      "    Message('note_on', channel=3, note=74, velocity=0, time=48),\n",
      "    Message('note_on', channel=3, note=71, velocity=94, time=12),\n",
      "    Message('note_on', channel=3, note=71, velocity=0, time=48),\n",
      "    Message('note_on', channel=3, note=67, velocity=94, time=12),\n",
      "    Message('note_on', channel=3, note=67, velocity=0, time=48),\n",
      "    Message('note_on', channel=3, note=69, velocity=94, time=12),\n",
      "    Message('note_on', channel=3, note=69, velocity=0, time=48),\n",
      "    Message('note_on', channel=3, note=71, velocity=94, time=12),\n",
      "    Message('note_on', channel=3, note=71, velocity=0, time=48),\n",
      "    Message('note_on', channel=3, note=64, velocity=94, time=12),\n",
      "    Message('note_on', channel=3, note=64, velocity=0, time=48),\n",
      "    Message('note_on', channel=3, note=74, velocity=94, time=12),\n",
      "    Message('note_on', channel=3, note=74, velocity=0, time=48),\n",
      "    Message('note_on', channel=3, note=72, velocity=94, time=12),\n",
      "    Message('note_on', channel=3, note=72, velocity=0, time=48),\n",
      "    Message('note_on', channel=3, note=71, velocity=94, time=12),\n",
      "    Message('note_on', channel=3, note=71, velocity=0, time=48),\n",
      "    Message('note_on', channel=3, note=69, velocity=94, time=12),\n",
      "    Message('note_on', channel=3, note=69, velocity=0, time=48),\n",
      "    Message('note_on', channel=3, note=67, velocity=94, time=12),\n",
      "    Message('note_on', channel=3, note=67, velocity=0, time=48),\n",
      "    Message('note_on', channel=3, note=62, velocity=94, time=12),\n",
      "    Message('note_on', channel=3, note=62, velocity=0, time=48),\n",
      "    Message('note_on', channel=3, note=67, velocity=94, time=12),\n",
      "    Message('note_on', channel=3, note=67, velocity=0, time=48),\n",
      "    Message('note_on', channel=3, note=66, velocity=94, time=12),\n",
      "    Message('note_on', channel=3, note=66, velocity=0, time=48),\n",
      "    Message('note_on', channel=3, note=67, velocity=94, time=12),\n",
      "    Message('note_on', channel=3, note=67, velocity=0, time=48),\n",
      "    Message('note_on', channel=3, note=71, velocity=94, time=12),\n",
      "    Message('note_on', channel=3, note=71, velocity=0, time=48),\n",
      "    Message('note_on', channel=3, note=74, velocity=94, time=12),\n",
      "    Message('note_on', channel=3, note=74, velocity=0, time=48),\n",
      "    Message('note_on', channel=3, note=79, velocity=94, time=12),\n",
      "    Message('note_on', channel=3, note=79, velocity=0, time=48),\n",
      "    Message('note_on', channel=3, note=74, velocity=94, time=12),\n",
      "    Message('note_on', channel=3, note=74, velocity=0, time=48),\n",
      "    Message('note_on', channel=3, note=71, velocity=94, time=12),\n",
      "    Message('note_on', channel=3, note=71, velocity=0, time=48),\n",
      "    Message('note_on', channel=3, note=67, velocity=94, time=12),\n",
      "    Message('note_on', channel=3, note=67, velocity=0, time=168),\n",
      "    Message('note_on', channel=3, note=66, velocity=84, time=13),\n",
      "    Message('note_on', channel=3, note=69, velocity=84, time=0),\n",
      "    Message('note_on', channel=3, note=66, velocity=0, time=336),\n",
      "    Message('note_on', channel=3, note=69, velocity=0, time=0),\n",
      "    Message('note_on', channel=3, note=68, velocity=84, time=24),\n",
      "    Message('note_on', channel=3, note=71, velocity=84, time=0),\n",
      "    Message('note_on', channel=3, note=62, velocity=84, time=0),\n",
      "    Message('note_on', channel=3, note=68, velocity=0, time=168),\n",
      "    Message('note_on', channel=3, note=71, velocity=0, time=0),\n",
      "    Message('note_on', channel=3, note=62, velocity=0, time=0),\n",
      "    Message('note_on', channel=3, note=72, velocity=84, time=12),\n",
      "    Message('note_on', channel=3, note=64, velocity=84, time=0),\n",
      "    Message('note_on', channel=3, note=69, velocity=84, time=0),\n",
      "    Message('note_on', channel=3, note=72, velocity=0, time=336),\n",
      "    Message('note_on', channel=3, note=64, velocity=0, time=0),\n",
      "    Message('note_on', channel=3, note=69, velocity=0, time=0),\n",
      "    Message('note_on', channel=3, note=69, velocity=84, time=24),\n",
      "    Message('note_on', channel=3, note=64, velocity=84, time=0),\n",
      "    Message('note_on', channel=3, note=72, velocity=84, time=0),\n",
      "    Message('note_on', channel=3, note=69, velocity=0, time=168),\n",
      "    Message('note_on', channel=3, note=64, velocity=0, time=0),\n",
      "    Message('note_on', channel=3, note=72, velocity=0, time=0),\n",
      "    Message('note_on', channel=3, note=71, velocity=84, time=12),\n",
      "    Message('note_on', channel=3, note=71, velocity=0, time=276),\n",
      "    Message('note_on', channel=3, note=72, velocity=84, time=24),\n",
      "    Message('note_on', channel=3, note=72, velocity=0, time=24),\n",
      "    Message('note_on', channel=3, note=74, velocity=84, time=6),\n",
      "    Message('note_on', channel=3, note=74, velocity=0, time=24),\n",
      "    Message('note_on', channel=3, note=71, velocity=84, time=6),\n",
      "    Message('note_on', channel=3, note=68, velocity=84, time=0),\n",
      "    Message('note_on', channel=3, note=71, velocity=0, time=168),\n",
      "    Message('note_on', channel=3, note=68, velocity=0, time=0),\n",
      "    Message('note_on', channel=3, note=67, velocity=84, time=12),\n",
      "    Message('note_on', channel=3, note=67, velocity=0, time=168),\n",
      "    Message('note_on', channel=3, note=67, velocity=84, time=12),\n",
      "    Message('note_on', channel=3, note=67, velocity=0, time=48),\n",
      "    Message('note_on', channel=3, note=76, velocity=84, time=12),\n",
      "    Message('note_on', channel=3, note=76, velocity=0, time=48),\n",
      "    Message('note_on', channel=3, note=74, velocity=84, time=12),\n",
      "    Message('note_on', channel=3, note=74, velocity=0, time=48),\n",
      "    Message('note_on', channel=3, note=74, velocity=84, time=12),\n",
      "    Message('note_on', channel=3, note=74, velocity=0, time=48),\n",
      "    Message('note_on', channel=3, note=77, velocity=84, time=12),\n",
      "    Message('note_on', channel=3, note=77, velocity=0, time=48),\n",
      "    Message('note_on', channel=3, note=76, velocity=84, time=12),\n",
      "    Message('note_on', channel=3, note=76, velocity=0, time=48),\n",
      "    Message('note_on', channel=3, note=76, velocity=84, time=12),\n",
      "    Message('note_on', channel=3, note=76, velocity=0, time=48),\n",
      "    Message('note_on', channel=3, note=81, velocity=84, time=12),\n",
      "    Message('note_on', channel=3, note=81, velocity=0, time=48),\n",
      "    Message('note_on', channel=3, note=80, velocity=84, time=12),\n",
      "    Message('note_on', channel=3, note=80, velocity=0, time=48),\n",
      "    Message('note_on', channel=3, note=81, velocity=84, time=12),\n",
      "    Message('note_on', channel=3, note=81, velocity=0, time=48),\n",
      "    Message('note_on', channel=3, note=76, velocity=84, time=12),\n",
      "    Message('note_on', channel=3, note=76, velocity=0, time=48),\n",
      "    Message('note_on', channel=3, note=72, velocity=84, time=12),\n",
      "    Message('note_on', channel=3, note=72, velocity=0, time=48),\n",
      "    Message('note_on', channel=3, note=69, velocity=84, time=12),\n",
      "    Message('note_on', channel=3, note=69, velocity=0, time=48),\n",
      "    Message('note_on', channel=3, note=71, velocity=84, time=12),\n",
      "    Message('note_on', channel=3, note=71, velocity=0, time=48),\n",
      "    Message('note_on', channel=3, note=72, velocity=84, time=12),\n",
      "    Message('note_on', channel=3, note=72, velocity=0, time=48),\n",
      "    Message('note_on', channel=3, note=77, velocity=84, time=12),\n",
      "    Message('note_on', channel=3, note=77, velocity=0, time=48),\n",
      "    Message('note_on', channel=3, note=76, velocity=84, time=12),\n",
      "    Message('note_on', channel=3, note=76, velocity=0, time=48),\n",
      "    Message('note_on', channel=3, note=74, velocity=84, time=12),\n",
      "    Message('note_on', channel=3, note=74, velocity=0, time=48),\n",
      "    Message('note_on', channel=3, note=72, velocity=84, time=12),\n",
      "    Message('note_on', channel=3, note=72, velocity=0, time=48),\n",
      "    Message('note_on', channel=3, note=71, velocity=84, time=12),\n",
      "    Message('note_on', channel=3, note=71, velocity=0, time=48),\n",
      "    Message('note_on', channel=3, note=69, velocity=84, time=12),\n",
      "    Message('note_on', channel=3, note=69, velocity=0, time=48),\n",
      "    Message('note_on', channel=3, note=64, velocity=84, time=12),\n",
      "    Message('note_on', channel=3, note=64, velocity=0, time=48),\n",
      "    Message('note_on', channel=3, note=69, velocity=84, time=12),\n",
      "    Message('note_on', channel=3, note=69, velocity=0, time=48),\n",
      "    Message('note_on', channel=3, note=68, velocity=84, time=12),\n",
      "    Message('note_on', channel=3, note=62, velocity=84, time=0),\n",
      "    Message('note_on', channel=3, note=68, velocity=0, time=48),\n",
      "    Message('note_on', channel=3, note=62, velocity=0, time=0),\n",
      "    Message('note_on', channel=3, note=64, velocity=84, time=12),\n",
      "    Message('note_on', channel=3, note=69, velocity=84, time=0),\n",
      "    Message('note_on', channel=3, note=72, velocity=84, time=0),\n",
      "    Message('note_on', channel=3, note=64, velocity=0, time=336),\n",
      "    Message('note_on', channel=3, note=69, velocity=0, time=0),\n",
      "    Message('note_on', channel=3, note=72, velocity=0, time=0),\n",
      "    Message('note_on', channel=3, note=74, velocity=84, time=24),\n",
      "    Message('note_on', channel=3, note=62, velocity=84, time=0),\n",
      "    Message('note_on', channel=3, note=67, velocity=84, time=0),\n",
      "    Message('note_on', channel=3, note=74, velocity=0, time=168),\n",
      "    Message('note_on', channel=3, note=62, velocity=0, time=0),\n",
      "    Message('note_on', channel=3, note=67, velocity=0, time=0),\n",
      "    Message('note_on', channel=3, note=72, velocity=84, time=12),\n",
      "    Message('note_on', channel=3, note=76, velocity=84, time=0),\n",
      "    Message('note_on', channel=3, note=72, velocity=0, time=336),\n",
      "    Message('note_on', channel=3, note=76, velocity=0, time=0),\n",
      "    Message('note_on', channel=3, note=72, velocity=84, time=24),\n",
      "    Message('note_on', channel=3, note=76, velocity=84, time=0),\n",
      "    Message('note_on', channel=3, note=67, velocity=84, time=0),\n",
      "    Message('note_on', channel=3, note=72, velocity=0, time=168),\n",
      "    Message('note_on', channel=3, note=76, velocity=0, time=0),\n",
      "    Message('note_on', channel=3, note=67, velocity=0, time=0),\n",
      "    Message('note_on', channel=3, note=74, velocity=84, time=12),\n",
      "    Message('note_on', channel=3, note=74, velocity=0, time=276),\n",
      "    Message('note_on', channel=3, note=76, velocity=84, time=24),\n",
      "    Message('note_on', channel=3, note=76, velocity=0, time=24),\n",
      "    Message('note_on', channel=3, note=77, velocity=84, time=6),\n",
      "    Message('note_on', channel=3, note=77, velocity=0, time=24),\n",
      "    Message('note_on', channel=3, note=74, velocity=84, time=6),\n",
      "    Message('note_on', channel=3, note=74, velocity=0, time=168),\n",
      "    Message('note_on', channel=3, note=64, velocity=84, time=12),\n",
      "    Message('note_on', channel=3, note=72, velocity=84, time=0),\n",
      "    Message('note_on', channel=3, note=64, velocity=0, time=168),\n",
      "    Message('note_on', channel=3, note=72, velocity=0, time=0),\n",
      "    Message('note_on', channel=3, note=72, velocity=84, time=12),\n",
      "    Message('note_on', channel=3, note=72, velocity=0, time=48),\n",
      "    Message('note_on', channel=3, note=76, velocity=84, time=12),\n",
      "    Message('note_on', channel=3, note=76, velocity=0, time=48),\n",
      "    Message('note_on', channel=3, note=72, velocity=84, time=12),\n",
      "    Message('note_on', channel=3, note=72, velocity=0, time=48),\n",
      "    Message('note_on', channel=3, note=67, velocity=84, time=12),\n",
      "    Message('note_on', channel=3, note=67, velocity=0, time=48),\n",
      "    Message('note_on', channel=3, note=69, velocity=84, time=12),\n",
      "    Message('note_on', channel=3, note=69, velocity=0, time=48),\n",
      "    Message('note_on', channel=3, note=70, velocity=84, time=12),\n",
      "    Message('note_on', channel=3, note=70, velocity=0, time=48),\n",
      "    Message('note_on', channel=3, note=69, velocity=84, time=12),\n",
      "    Message('note_on', channel=3, note=69, velocity=0, time=48),\n",
      "    Message('note_on', channel=3, note=72, velocity=84, time=12),\n",
      "    Message('note_on', channel=3, note=72, velocity=0, time=48),\n",
      "    Message('note_on', channel=3, note=71, velocity=84, time=12),\n",
      "    Message('note_on', channel=3, note=71, velocity=0, time=48),\n",
      "    Message('note_on', channel=3, note=72, velocity=84, time=12),\n",
      "    Message('note_on', channel=3, note=72, velocity=0, time=48),\n",
      "    Message('note_on', channel=3, note=69, velocity=84, time=12),\n",
      "    Message('note_on', channel=3, note=69, velocity=0, time=48),\n",
      "    Message('note_on', channel=3, note=66, velocity=84, time=12),\n",
      "    Message('note_on', channel=3, note=66, velocity=0, time=48),\n",
      "    Message('note_on', channel=3, note=62, velocity=84, time=12),\n",
      "    Message('note_on', channel=3, note=62, velocity=0, time=48),\n",
      "    Message('note_on', channel=3, note=64, velocity=84, time=12),\n",
      "    Message('note_on', channel=3, note=64, velocity=0, time=48),\n",
      "    Message('note_on', channel=3, note=66, velocity=84, time=12),\n",
      "    Message('note_on', channel=3, note=66, velocity=0, time=48),\n",
      "    Message('note_on', channel=3, note=64, velocity=84, time=12),\n",
      "    Message('note_on', channel=3, note=64, velocity=0, time=48),\n",
      "    Message('note_on', channel=3, note=60, velocity=84, time=12),\n",
      "    Message('note_on', channel=3, note=60, velocity=0, time=48),\n",
      "    Message('note_on', channel=3, note=62, velocity=84, time=12),\n",
      "    Message('note_on', channel=3, note=62, velocity=0, time=48),\n",
      "    Message('note_on', channel=3, note=64, velocity=84, time=12),\n",
      "    Message('note_on', channel=3, note=64, velocity=0, time=48),\n",
      "    Message('note_on', channel=3, note=67, velocity=84, time=12),\n",
      "    Message('note_on', channel=3, note=67, velocity=0, time=48),\n",
      "    Message('note_on', channel=3, note=66, velocity=84, time=12),\n",
      "    Message('note_on', channel=3, note=66, velocity=0, time=48),\n",
      "    Message('note_on', channel=3, note=67, velocity=84, time=12),\n",
      "    Message('note_on', channel=3, note=67, velocity=0, time=48),\n",
      "    Message('note_on', channel=3, note=71, velocity=84, time=12),\n",
      "    Message('note_on', channel=3, note=71, velocity=0, time=48),\n",
      "    Message('note_on', channel=3, note=69, velocity=84, time=12),\n",
      "    Message('note_on', channel=3, note=69, velocity=0, time=48),\n",
      "    Message('note_on', channel=3, note=67, velocity=84, time=12),\n",
      "    Message('note_on', channel=3, note=71, velocity=84, time=0),\n",
      "    Message('note_on', channel=3, note=67, velocity=0, time=336),\n",
      "    Message('note_on', channel=3, note=71, velocity=0, time=0),\n",
      "    Message('note_on', channel=3, note=64, velocity=84, time=24),\n",
      "    Message('note_on', channel=3, note=60, velocity=84, time=0),\n",
      "    Message('note_on', channel=3, note=67, velocity=84, time=0),\n",
      "    Message('note_on', channel=3, note=72, velocity=84, time=0),\n",
      "    Message('note_on', channel=3, note=64, velocity=0, time=168),\n",
      "    Message('note_on', channel=3, note=60, velocity=0, time=0),\n",
      "    Message('note_on', channel=3, note=67, velocity=0, time=0),\n",
      "    Message('note_on', channel=3, note=72, velocity=0, time=0),\n",
      "    Message('note_on', channel=3, note=74, velocity=84, time=12),\n",
      "    Message('note_on', channel=3, note=67, velocity=84, time=0),\n",
      "    Message('note_on', channel=3, note=62, velocity=84, time=0),\n",
      "    Message('note_on', channel=3, note=74, velocity=0, time=336),\n",
      "    Message('note_on', channel=3, note=67, velocity=0, time=0),\n",
      "    Message('note_on', channel=3, note=62, velocity=0, time=0),\n",
      "    Message('note_on', channel=3, note=74, velocity=84, time=24),\n",
      "    Message('note_on', channel=3, note=67, velocity=84, time=0),\n",
      "    Message('note_on', channel=3, note=62, velocity=84, time=0),\n",
      "    Message('note_on', channel=3, note=74, velocity=0, time=168),\n",
      "    Message('note_on', channel=3, note=67, velocity=0, time=0),\n",
      "    Message('note_on', channel=3, note=62, velocity=0, time=0),\n",
      "    Message('note_on', channel=3, note=69, velocity=84, time=12),\n",
      "    Message('note_on', channel=3, note=64, velocity=84, time=0),\n",
      "    Message('note_on', channel=3, note=72, velocity=84, time=0),\n",
      "    Message('note_on', channel=3, note=69, velocity=0, time=168),\n",
      "    Message('note_on', channel=3, note=64, velocity=0, time=0),\n",
      "    Message('note_on', channel=3, note=72, velocity=0, time=0),\n",
      "    Message('note_on', channel=3, note=71, velocity=84, time=12),\n",
      "    Message('note_on', channel=3, note=71, velocity=0, time=336),\n",
      "    Message('note_on', channel=3, note=66, velocity=84, time=24),\n",
      "    Message('note_on', channel=3, note=69, velocity=84, time=0),\n",
      "    Message('note_on', channel=3, note=66, velocity=0, time=48),\n",
      "    Message('note_on', channel=3, note=69, velocity=0, time=0),\n",
      "    Message('note_on', channel=3, note=62, velocity=84, time=12),\n",
      "    Message('note_on', channel=3, note=62, velocity=0, time=48),\n",
      "    Message('note_on', channel=3, note=64, velocity=84, time=12),\n",
      "    Message('note_on', channel=3, note=64, velocity=0, time=48),\n",
      "    Message('note_on', channel=3, note=66, velocity=84, time=12),\n",
      "    Message('note_on', channel=3, note=66, velocity=0, time=48),\n",
      "    Message('note_on', channel=3, note=69, velocity=84, time=12),\n",
      "    Message('note_on', channel=3, note=69, velocity=0, time=48),\n",
      "    Message('note_on', channel=3, note=67, velocity=84, time=12),\n",
      "    Message('note_on', channel=3, note=67, velocity=0, time=48),\n",
      "    Message('note_on', channel=3, note=69, velocity=84, time=12),\n",
      "    Message('note_on', channel=3, note=69, velocity=0, time=48),\n",
      "    Message('note_on', channel=3, note=72, velocity=84, time=12),\n",
      "    Message('note_on', channel=3, note=72, velocity=0, time=48),\n",
      "    Message('note_on', channel=3, note=71, velocity=84, time=12),\n",
      "    Message('note_on', channel=3, note=71, velocity=0, time=48),\n",
      "    Message('note_on', channel=3, note=72, velocity=84, time=12),\n",
      "    Message('note_on', channel=3, note=72, velocity=0, time=48),\n",
      "    Message('note_on', channel=3, note=69, velocity=84, time=12),\n",
      "    Message('note_on', channel=3, note=69, velocity=0, time=48),\n",
      "    Message('note_on', channel=3, note=66, velocity=84, time=12),\n",
      "    Message('note_on', channel=3, note=66, velocity=0, time=48),\n",
      "    Message('note_on', channel=3, note=62, velocity=84, time=12),\n",
      "    Message('note_on', channel=3, note=62, velocity=0, time=48),\n",
      "    Message('note_on', channel=3, note=66, velocity=84, time=12),\n",
      "    Message('note_on', channel=3, note=66, velocity=0, time=48),\n",
      "    Message('note_on', channel=3, note=69, velocity=84, time=12),\n",
      "    Message('note_on', channel=3, note=69, velocity=0, time=48),\n",
      "    Message('note_on', channel=3, note=72, velocity=84, time=12),\n",
      "    Message('note_on', channel=3, note=72, velocity=0, time=48),\n",
      "    Message('note_on', channel=3, note=71, velocity=84, time=12),\n",
      "    Message('note_on', channel=3, note=71, velocity=0, time=48),\n",
      "    Message('note_on', channel=3, note=69, velocity=84, time=12),\n",
      "    Message('note_on', channel=3, note=69, velocity=0, time=48),\n",
      "    Message('note_on', channel=3, note=67, velocity=84, time=12),\n",
      "    Message('note_on', channel=3, note=71, velocity=84, time=0),\n",
      "    Message('note_on', channel=3, note=67, velocity=0, time=336),\n",
      "    Message('note_on', channel=3, note=71, velocity=0, time=0),\n",
      "    Message('note_on', channel=3, note=72, velocity=84, time=24),\n",
      "    Message('note_on', channel=3, note=67, velocity=84, time=0),\n",
      "    Message('note_on', channel=3, note=64, velocity=84, time=0),\n",
      "    Message('note_on', channel=3, note=60, velocity=84, time=0),\n",
      "    Message('note_on', channel=3, note=72, velocity=0, time=168),\n",
      "    Message('note_on', channel=3, note=67, velocity=0, time=0),\n",
      "    Message('note_on', channel=3, note=64, velocity=0, time=0),\n",
      "    Message('note_on', channel=3, note=60, velocity=0, time=0),\n",
      "    Message('note_on', channel=3, note=74, velocity=84, time=12),\n",
      "    Message('note_on', channel=3, note=62, velocity=84, time=0),\n",
      "    Message('note_on', channel=3, note=67, velocity=84, time=0),\n",
      "    Message('note_on', channel=3, note=74, velocity=0, time=336),\n",
      "    Message('note_on', channel=3, note=62, velocity=0, time=0),\n",
      "    Message('note_on', channel=3, note=67, velocity=0, time=0),\n",
      "    Message('note_on', channel=3, note=67, velocity=84, time=24),\n",
      "    Message('note_on', channel=3, note=64, velocity=84, time=0),\n",
      "    Message('note_on', channel=3, note=71, velocity=84, time=0),\n",
      "    Message('note_on', channel=3, note=67, velocity=0, time=168),\n",
      "    Message('note_on', channel=3, note=64, velocity=0, time=0),\n",
      "    Message('note_on', channel=3, note=71, velocity=0, time=0),\n",
      "    Message('note_on', channel=3, note=69, velocity=84, time=12),\n",
      "    Message('note_on', channel=3, note=69, velocity=0, time=96),\n",
      "    Message('note_on', channel=3, note=71, velocity=84, time=24),\n",
      "    Message('note_on', channel=3, note=71, velocity=0, time=24),\n",
      "    Message('note_on', channel=3, note=72, velocity=84, time=6),\n",
      "    Message('note_on', channel=3, note=72, velocity=0, time=24),\n",
      "    Message('note_on', channel=3, note=71, velocity=84, time=6),\n",
      "    Message('note_on', channel=3, note=71, velocity=0, time=168),\n",
      "    Message('note_on', channel=3, note=69, velocity=84, time=12),\n",
      "    Message('note_on', channel=3, note=69, velocity=0, time=168),\n",
      "    Message('note_on', channel=3, note=67, velocity=84, time=12),\n",
      "    Message('note_on', channel=3, note=67, velocity=0, time=48),\n",
      "    Message('note_on', channel=3, note=71, velocity=84, time=12),\n",
      "    Message('note_on', channel=3, note=71, velocity=0, time=48),\n",
      "    Message('note_on', channel=3, note=74, velocity=84, time=12),\n",
      "    Message('note_on', channel=3, note=74, velocity=0, time=48),\n",
      "    Message('note_on', channel=3, note=79, velocity=84, time=12),\n",
      "    Message('note_on', channel=3, note=79, velocity=0, time=48),\n",
      "    Message('note_on', channel=3, note=74, velocity=84, time=12),\n",
      "    Message('note_on', channel=3, note=74, velocity=0, time=48),\n",
      "    Message('note_on', channel=3, note=71, velocity=84, time=12),\n",
      "    Message('note_on', channel=3, note=71, velocity=0, time=48),\n",
      "    Message('note_on', channel=3, note=67, velocity=84, time=12),\n",
      "    Message('note_on', channel=3, note=67, velocity=0, time=48),\n",
      "    Message('note_on', channel=3, note=71, velocity=84, time=12),\n",
      "    Message('note_on', channel=3, note=71, velocity=0, time=48),\n",
      "    Message('note_on', channel=3, note=74, velocity=84, time=12),\n",
      "    Message('note_on', channel=3, note=74, velocity=0, time=48),\n",
      "    Message('note_on', channel=3, note=77, velocity=84, time=12),\n",
      "    Message('note_on', channel=3, note=77, velocity=0, time=48),\n",
      "    Message('note_on', channel=3, note=74, velocity=84, time=12),\n",
      "    Message('note_on', channel=3, note=74, velocity=0, time=48),\n",
      "    Message('note_on', channel=3, note=71, velocity=84, time=12),\n",
      "    Message('note_on', channel=3, note=71, velocity=0, time=48),\n",
      "    Message('note_on', channel=3, note=67, velocity=84, time=12),\n",
      "    Message('note_on', channel=3, note=67, velocity=0, time=48),\n",
      "    Message('note_on', channel=3, note=71, velocity=84, time=12),\n",
      "    Message('note_on', channel=3, note=71, velocity=0, time=48),\n",
      "    Message('note_on', channel=3, note=74, velocity=84, time=12),\n",
      "    Message('note_on', channel=3, note=74, velocity=0, time=48),\n",
      "    Message('note_on', channel=3, note=76, velocity=84, time=12),\n",
      "    Message('note_on', channel=3, note=76, velocity=0, time=48),\n",
      "    Message('note_on', channel=3, note=72, velocity=84, time=12),\n",
      "    Message('note_on', channel=3, note=72, velocity=0, time=48),\n",
      "    Message('note_on', channel=3, note=69, velocity=84, time=12),\n",
      "    Message('note_on', channel=3, note=69, velocity=0, time=48),\n",
      "    Message('note_on', channel=3, note=66, velocity=84, time=12),\n",
      "    Message('note_on', channel=3, note=66, velocity=0, time=48),\n",
      "    Message('note_on', channel=3, note=69, velocity=84, time=12),\n",
      "    Message('note_on', channel=3, note=69, velocity=0, time=48),\n",
      "    Message('note_on', channel=3, note=72, velocity=84, time=12),\n",
      "    Message('note_on', channel=3, note=72, velocity=0, time=48),\n",
      "    Message('note_on', channel=3, note=74, velocity=84, time=12),\n",
      "    Message('note_on', channel=3, note=74, velocity=0, time=48),\n",
      "    Message('note_on', channel=3, note=71, velocity=84, time=12),\n",
      "    Message('note_on', channel=3, note=71, velocity=0, time=48),\n",
      "    Message('note_on', channel=3, note=67, velocity=84, time=12),\n",
      "    Message('note_on', channel=3, note=67, velocity=0, time=48),\n",
      "    Message('note_on', channel=3, note=64, velocity=84, time=12),\n",
      "    Message('note_on', channel=3, note=64, velocity=0, time=48),\n",
      "    Message('note_on', channel=3, note=67, velocity=84, time=12),\n",
      "    Message('note_on', channel=3, note=67, velocity=0, time=48),\n",
      "    Message('note_on', channel=3, note=71, velocity=84, time=12),\n",
      "    Message('note_on', channel=3, note=71, velocity=0, time=48),\n",
      "    Message('note_on', channel=3, note=72, velocity=84, time=12),\n",
      "    Message('note_on', channel=3, note=72, velocity=0, time=48),\n",
      "    Message('note_on', channel=3, note=69, velocity=84, time=12),\n",
      "    Message('note_on', channel=3, note=69, velocity=0, time=48),\n",
      "    Message('note_on', channel=3, note=66, velocity=84, time=12),\n",
      "    Message('note_on', channel=3, note=66, velocity=0, time=48),\n",
      "    Message('note_on', channel=3, note=62, velocity=84, time=12),\n",
      "    Message('note_on', channel=3, note=62, velocity=0, time=48),\n",
      "    Message('note_on', channel=3, note=66, velocity=84, time=12),\n",
      "    Message('note_on', channel=3, note=66, velocity=0, time=48),\n",
      "    Message('note_on', channel=3, note=69, velocity=84, time=12),\n",
      "    Message('note_on', channel=3, note=69, velocity=0, time=48),\n",
      "    Message('note_on', channel=3, note=72, velocity=84, time=12),\n",
      "    Message('note_on', channel=3, note=72, velocity=0, time=48),\n",
      "    Message('note_on', channel=3, note=71, velocity=84, time=12),\n",
      "    Message('note_on', channel=3, note=71, velocity=0, time=48),\n",
      "    Message('note_on', channel=3, note=69, velocity=84, time=12),\n",
      "    Message('note_on', channel=3, note=69, velocity=0, time=48),\n",
      "    Message('note_on', channel=3, note=71, velocity=84, time=12),\n",
      "    Message('note_on', channel=3, note=71, velocity=0, time=48),\n",
      "    Message('note_on', channel=3, note=67, velocity=84, time=12),\n",
      "    Message('note_on', channel=3, note=67, velocity=0, time=48),\n",
      "    Message('note_on', channel=3, note=69, velocity=84, time=12),\n",
      "    Message('note_on', channel=3, note=69, velocity=0, time=48),\n",
      "    Message('note_on', channel=3, note=71, velocity=84, time=12),\n",
      "    Message('note_on', channel=3, note=71, velocity=0, time=48),\n",
      "    Message('note_on', channel=3, note=74, velocity=84, time=12),\n",
      "    Message('note_on', channel=3, note=74, velocity=0, time=48),\n",
      "    Message('note_on', channel=3, note=72, velocity=84, time=12),\n",
      "    Message('note_on', channel=3, note=72, velocity=0, time=48),\n",
      "    Message('note_on', channel=3, note=72, velocity=84, time=12),\n",
      "    Message('note_on', channel=3, note=72, velocity=0, time=48),\n",
      "    Message('note_on', channel=3, note=76, velocity=84, time=12),\n",
      "    Message('note_on', channel=3, note=76, velocity=0, time=48),\n",
      "    Message('note_on', channel=3, note=74, velocity=84, time=12),\n",
      "    Message('note_on', channel=3, note=74, velocity=0, time=48),\n",
      "    Message('note_on', channel=3, note=74, velocity=84, time=12),\n",
      "    Message('note_on', channel=3, note=74, velocity=0, time=48),\n",
      "    Message('note_on', channel=3, note=79, velocity=84, time=12),\n",
      "    Message('note_on', channel=3, note=79, velocity=0, time=48),\n",
      "    Message('note_on', channel=3, note=78, velocity=84, time=12),\n",
      "    Message('note_on', channel=3, note=78, velocity=0, time=48),\n",
      "    Message('note_on', channel=3, note=79, velocity=84, time=12),\n",
      "    Message('note_on', channel=3, note=79, velocity=0, time=48),\n",
      "    Message('note_on', channel=3, note=74, velocity=84, time=12),\n",
      "    Message('note_on', channel=3, note=74, velocity=0, time=48),\n",
      "    Message('note_on', channel=3, note=71, velocity=84, time=12),\n",
      "    Message('note_on', channel=3, note=71, velocity=0, time=48),\n",
      "    Message('note_on', channel=3, note=67, velocity=84, time=12),\n",
      "    Message('note_on', channel=3, note=67, velocity=0, time=48),\n",
      "    Message('note_on', channel=3, note=69, velocity=84, time=12),\n",
      "    Message('note_on', channel=3, note=69, velocity=0, time=48),\n",
      "    Message('note_on', channel=3, note=71, velocity=84, time=12),\n",
      "    Message('note_on', channel=3, note=71, velocity=0, time=48),\n",
      "    Message('note_on', channel=3, note=72, velocity=84, time=12),\n",
      "    Message('note_on', channel=3, note=72, velocity=0, time=48),\n",
      "    Message('note_on', channel=3, note=74, velocity=84, time=12),\n",
      "    Message('note_on', channel=3, note=74, velocity=0, time=48),\n",
      "    Message('note_on', channel=3, note=76, velocity=84, time=12),\n",
      "    Message('note_on', channel=3, note=76, velocity=0, time=48),\n",
      "    Message('note_on', channel=3, note=74, velocity=84, time=12),\n",
      "    Message('note_on', channel=3, note=74, velocity=0, time=48),\n",
      "    Message('note_on', channel=3, note=72, velocity=84, time=12),\n",
      "    Message('note_on', channel=3, note=72, velocity=0, time=48),\n",
      "    Message('note_on', channel=3, note=71, velocity=84, time=12),\n",
      "    Message('note_on', channel=3, note=71, velocity=0, time=48),\n",
      "    Message('note_on', channel=3, note=69, velocity=84, time=12),\n",
      "    Message('note_on', channel=3, note=69, velocity=0, time=48),\n",
      "    Message('note_on', channel=3, note=71, velocity=84, time=12),\n",
      "    Message('note_on', channel=3, note=71, velocity=0, time=48),\n",
      "    Message('note_on', channel=3, note=67, velocity=84, time=12),\n",
      "    Message('note_on', channel=3, note=67, velocity=0, time=48),\n",
      "    Message('note_on', channel=3, note=66, velocity=84, time=12),\n",
      "    Message('note_on', channel=3, note=66, velocity=0, time=48),\n",
      "    Message('note_on', channel=3, note=67, velocity=84, time=12),\n",
      "    Message('note_on', channel=3, note=67, velocity=0, time=48),\n",
      "    Message('note_on', channel=3, note=69, velocity=84, time=12),\n",
      "    Message('note_on', channel=3, note=69, velocity=0, time=48),\n",
      "    Message('note_on', channel=3, note=62, velocity=84, time=12),\n",
      "    Message('note_on', channel=3, note=62, velocity=0, time=48),\n",
      "    Message('note_on', channel=3, note=66, velocity=84, time=12),\n",
      "    Message('note_on', channel=3, note=66, velocity=0, time=48),\n",
      "    Message('note_on', channel=3, note=69, velocity=84, time=12),\n",
      "    Message('note_on', channel=3, note=69, velocity=0, time=48),\n",
      "    Message('note_on', channel=3, note=72, velocity=84, time=12),\n",
      "    Message('note_on', channel=3, note=72, velocity=0, time=48),\n",
      "    Message('note_on', channel=3, note=71, velocity=84, time=12),\n",
      "    Message('note_on', channel=3, note=71, velocity=0, time=48),\n",
      "    Message('note_on', channel=3, note=69, velocity=84, time=12),\n",
      "    Message('note_on', channel=3, note=69, velocity=0, time=48),\n",
      "    Message('note_on', channel=3, note=71, velocity=84, time=12),\n",
      "    Message('note_on', channel=3, note=71, velocity=0, time=48),\n",
      "    Message('note_on', channel=3, note=67, velocity=84, time=12),\n",
      "    Message('note_on', channel=3, note=67, velocity=0, time=48),\n",
      "    Message('note_on', channel=3, note=69, velocity=84, time=12),\n",
      "    Message('note_on', channel=3, note=69, velocity=0, time=48),\n",
      "    Message('note_on', channel=3, note=71, velocity=84, time=12),\n",
      "    Message('note_on', channel=3, note=71, velocity=0, time=48),\n",
      "    Message('note_on', channel=3, note=74, velocity=84, time=12),\n",
      "    Message('note_on', channel=3, note=74, velocity=0, time=48),\n",
      "    Message('note_on', channel=3, note=72, velocity=84, time=12),\n",
      "    Message('note_on', channel=3, note=72, velocity=0, time=48),\n",
      "    Message('note_on', channel=3, note=72, velocity=84, time=12),\n",
      "    Message('note_on', channel=3, note=72, velocity=0, time=48),\n",
      "    Message('note_on', channel=3, note=76, velocity=84, time=12),\n",
      "    Message('note_on', channel=3, note=76, velocity=0, time=48),\n",
      "    Message('note_on', channel=3, note=74, velocity=84, time=12),\n",
      "    Message('note_on', channel=3, note=74, velocity=0, time=48),\n",
      "    Message('note_on', channel=3, note=74, velocity=84, time=12),\n",
      "    Message('note_on', channel=3, note=74, velocity=0, time=48),\n",
      "    Message('note_on', channel=3, note=79, velocity=84, time=12),\n",
      "    Message('note_on', channel=3, note=79, velocity=0, time=48),\n",
      "    Message('note_on', channel=3, note=78, velocity=84, time=12),\n",
      "    Message('note_on', channel=3, note=78, velocity=0, time=48),\n",
      "    Message('note_on', channel=3, note=79, velocity=84, time=12),\n",
      "    Message('note_on', channel=3, note=79, velocity=0, time=48),\n",
      "    Message('note_on', channel=3, note=74, velocity=84, time=12),\n",
      "    Message('note_on', channel=3, note=74, velocity=0, time=48),\n",
      "    Message('note_on', channel=3, note=71, velocity=84, time=12),\n",
      "    Message('note_on', channel=3, note=71, velocity=0, time=48),\n",
      "    Message('note_on', channel=3, note=67, velocity=84, time=12),\n",
      "    Message('note_on', channel=3, note=67, velocity=0, time=48),\n",
      "    Message('note_on', channel=3, note=69, velocity=84, time=12),\n",
      "    Message('note_on', channel=3, note=69, velocity=0, time=48),\n",
      "    Message('note_on', channel=3, note=71, velocity=84, time=12),\n",
      "    Message('note_on', channel=3, note=71, velocity=0, time=48),\n",
      "    Message('note_on', channel=3, note=64, velocity=84, time=12),\n",
      "    Message('note_on', channel=3, note=64, velocity=0, time=48),\n",
      "    Message('note_on', channel=3, note=74, velocity=84, time=12),\n",
      "    Message('note_on', channel=3, note=74, velocity=0, time=48),\n",
      "    Message('note_on', channel=3, note=72, velocity=84, time=12),\n",
      "    Message('note_on', channel=3, note=72, velocity=0, time=48),\n",
      "    Message('note_on', channel=3, note=71, velocity=84, time=12),\n",
      "    Message('note_on', channel=3, note=71, velocity=0, time=48),\n",
      "    Message('note_on', channel=3, note=69, velocity=84, time=12),\n",
      "    Message('note_on', channel=3, note=69, velocity=0, time=48),\n",
      "    Message('note_on', channel=3, note=67, velocity=84, time=12),\n",
      "    Message('note_on', channel=3, note=67, velocity=0, time=48),\n",
      "    Message('note_on', channel=3, note=62, velocity=84, time=12),\n",
      "    Message('note_on', channel=3, note=62, velocity=0, time=48),\n",
      "    Message('note_on', channel=3, note=67, velocity=84, time=12),\n",
      "    Message('note_on', channel=3, note=67, velocity=0, time=48),\n",
      "    Message('note_on', channel=3, note=66, velocity=84, time=12),\n",
      "    Message('note_on', channel=3, note=66, velocity=0, time=48),\n",
      "    Message('note_on', channel=3, note=62, velocity=58, time=12),\n",
      "    Message('note_on', channel=3, note=67, velocity=60, time=0),\n",
      "    Message('note_on', channel=3, note=59, velocity=57, time=0),\n",
      "    Message('note_on', channel=3, note=55, velocity=75, time=0),\n",
      "    Message('note_on', channel=3, note=62, velocity=0, time=456),\n",
      "    Message('note_on', channel=3, note=67, velocity=0, time=0),\n",
      "    Message('note_on', channel=3, note=59, velocity=0, time=0),\n",
      "    Message('note_on', channel=3, note=55, velocity=0, time=0),\n",
      "    MetaMessage('end_of_track', time=0)]),\n",
      "  MidiTrack([\n",
      "    MetaMessage('track_name', name='John Renfro Davis', time=0),\n",
      "    MetaMessage('instrument_name', name='Choir Aahs', time=0),\n",
      "    MetaMessage('midi_port', port=0, time=0),\n",
      "    Message('control_change', channel=4, control=0, value=80, time=0),\n",
      "    Message('control_change', channel=4, control=32, value=0, time=0),\n",
      "    Message('program_change', channel=4, program=52, time=0),\n",
      "    Message('note_on', channel=4, note=71, velocity=127, time=4320),\n",
      "    Message('note_on', channel=4, note=71, velocity=0, time=336),\n",
      "    Message('note_on', channel=4, note=72, velocity=127, time=24),\n",
      "    Message('note_on', channel=4, note=72, velocity=0, time=168),\n",
      "    Message('note_on', channel=4, note=74, velocity=127, time=12),\n",
      "    Message('note_on', channel=4, note=74, velocity=0, time=336),\n",
      "    Message('note_on', channel=4, note=74, velocity=127, time=24),\n",
      "    Message('note_on', channel=4, note=74, velocity=0, time=168),\n",
      "    Message('note_on', channel=4, note=72, velocity=127, time=12),\n",
      "    Message('note_on', channel=4, note=72, velocity=0, time=336),\n",
      "    Message('note_on', channel=4, note=71, velocity=127, time=24),\n",
      "    Message('note_on', channel=4, note=71, velocity=0, time=168),\n",
      "    Message('note_on', channel=4, note=69, velocity=127, time=12),\n",
      "    Message('note_on', channel=4, note=69, velocity=0, time=168),\n",
      "    Message('note_on', channel=4, note=69, velocity=127, time=12),\n",
      "    Message('note_on', channel=4, note=69, velocity=0, time=168),\n",
      "    Message('note_on', channel=4, note=71, velocity=127, time=732),\n",
      "    Message('note_on', channel=4, note=71, velocity=0, time=336),\n",
      "    Message('note_on', channel=4, note=72, velocity=127, time=24),\n",
      "    Message('note_on', channel=4, note=72, velocity=0, time=168),\n",
      "    Message('note_on', channel=4, note=74, velocity=127, time=12),\n",
      "    Message('note_on', channel=4, note=74, velocity=0, time=336),\n",
      "    Message('note_on', channel=4, note=71, velocity=127, time=24),\n",
      "    Message('note_on', channel=4, note=71, velocity=0, time=168),\n",
      "    Message('note_on', channel=4, note=69, velocity=127, time=12),\n",
      "    Message('note_on', channel=4, note=69, velocity=0, time=96),\n",
      "    Message('note_on', channel=4, note=71, velocity=127, time=24),\n",
      "    Message('note_on', channel=4, note=71, velocity=0, time=24),\n",
      "    Message('note_on', channel=4, note=72, velocity=127, time=6),\n",
      "    Message('note_on', channel=4, note=72, velocity=0, time=24),\n",
      "    Message('note_on', channel=4, note=71, velocity=127, time=6),\n",
      "    Message('note_on', channel=4, note=71, velocity=0, time=168),\n",
      "    Message('note_on', channel=4, note=69, velocity=127, time=12),\n",
      "    Message('note_on', channel=4, note=69, velocity=0, time=168),\n",
      "    Message('note_on', channel=4, note=67, velocity=127, time=12),\n",
      "    Message('note_on', channel=4, note=67, velocity=0, time=336),\n",
      "    Message('note_on', channel=4, note=71, velocity=127, time=3444),\n",
      "    Message('note_on', channel=4, note=71, velocity=0, time=336),\n",
      "    Message('note_on', channel=4, note=72, velocity=127, time=24),\n",
      "    Message('note_on', channel=4, note=72, velocity=0, time=168),\n",
      "    Message('note_on', channel=4, note=74, velocity=127, time=12),\n",
      "    Message('note_on', channel=4, note=74, velocity=0, time=336),\n",
      "    Message('note_on', channel=4, note=74, velocity=127, time=24),\n",
      "    Message('note_on', channel=4, note=74, velocity=0, time=168),\n",
      "    Message('note_on', channel=4, note=72, velocity=127, time=12),\n",
      "    Message('note_on', channel=4, note=72, velocity=0, time=336),\n",
      "    Message('note_on', channel=4, note=71, velocity=127, time=24),\n",
      "    Message('note_on', channel=4, note=71, velocity=0, time=168),\n",
      "    Message('note_on', channel=4, note=69, velocity=127, time=12),\n",
      "    Message('note_on', channel=4, note=69, velocity=0, time=168),\n",
      "    Message('note_on', channel=4, note=69, velocity=127, time=12),\n",
      "    Message('note_on', channel=4, note=69, velocity=0, time=168),\n",
      "    Message('note_on', channel=4, note=71, velocity=127, time=732),\n",
      "    Message('note_on', channel=4, note=71, velocity=0, time=336),\n",
      "    Message('note_on', channel=4, note=72, velocity=127, time=24),\n",
      "    Message('note_on', channel=4, note=72, velocity=0, time=168),\n",
      "    Message('note_on', channel=4, note=74, velocity=127, time=12),\n",
      "    Message('note_on', channel=4, note=74, velocity=0, time=336),\n",
      "    Message('note_on', channel=4, note=71, velocity=127, time=24),\n",
      "    Message('note_on', channel=4, note=71, velocity=0, time=168),\n",
      "    Message('note_on', channel=4, note=69, velocity=127, time=12),\n",
      "    Message('note_on', channel=4, note=69, velocity=0, time=96),\n",
      "    Message('note_on', channel=4, note=71, velocity=127, time=24),\n",
      "    Message('note_on', channel=4, note=71, velocity=0, time=24),\n",
      "    Message('note_on', channel=4, note=72, velocity=127, time=6),\n",
      "    Message('note_on', channel=4, note=72, velocity=0, time=24),\n",
      "    Message('note_on', channel=4, note=71, velocity=127, time=6),\n",
      "    Message('note_on', channel=4, note=71, velocity=0, time=168),\n",
      "    Message('note_on', channel=4, note=69, velocity=127, time=12),\n",
      "    Message('note_on', channel=4, note=69, velocity=0, time=168),\n",
      "    Message('note_on', channel=4, note=67, velocity=127, time=12),\n",
      "    Message('note_on', channel=4, note=67, velocity=0, time=336),\n",
      "    Message('note_on', channel=4, note=69, velocity=127, time=3984),\n",
      "    Message('note_on', channel=4, note=69, velocity=0, time=336),\n",
      "    Message('note_on', channel=4, note=71, velocity=127, time=24),\n",
      "    Message('note_on', channel=4, note=71, velocity=0, time=168),\n",
      "    Message('note_on', channel=4, note=72, velocity=127, time=12),\n",
      "    Message('note_on', channel=4, note=72, velocity=0, time=336),\n",
      "    Message('note_on', channel=4, note=72, velocity=127, time=24),\n",
      "    Message('note_on', channel=4, note=72, velocity=0, time=168),\n",
      "    Message('note_on', channel=4, note=71, velocity=127, time=12),\n",
      "    Message('note_on', channel=4, note=71, velocity=0, time=276),\n",
      "    Message('note_on', channel=4, note=72, velocity=127, time=24),\n",
      "    Message('note_on', channel=4, note=72, velocity=0, time=24),\n",
      "    Message('note_on', channel=4, note=74, velocity=127, time=6),\n",
      "    Message('note_on', channel=4, note=74, velocity=0, time=24),\n",
      "    Message('note_on', channel=4, note=71, velocity=127, time=6),\n",
      "    Message('note_on', channel=4, note=71, velocity=0, time=168),\n",
      "    Message('note_on', channel=4, note=69, velocity=127, time=12),\n",
      "    Message('note_on', channel=4, note=69, velocity=0, time=168),\n",
      "    Message('note_on', channel=4, note=69, velocity=127, time=12),\n",
      "    Message('note_on', channel=4, note=69, velocity=0, time=168),\n",
      "    Message('note_on', channel=4, note=72, velocity=127, time=1272),\n",
      "    Message('note_on', channel=4, note=72, velocity=0, time=336),\n",
      "    Message('note_on', channel=4, note=74, velocity=127, time=24),\n",
      "    Message('note_on', channel=4, note=74, velocity=0, time=168),\n",
      "    Message('note_on', channel=4, note=76, velocity=127, time=12),\n",
      "    Message('note_on', channel=4, note=76, velocity=0, time=336),\n",
      "    Message('note_on', channel=4, note=76, velocity=127, time=24),\n",
      "    Message('note_on', channel=4, note=76, velocity=0, time=168),\n",
      "    Message('note_on', channel=4, note=74, velocity=127, time=12),\n",
      "    Message('note_on', channel=4, note=74, velocity=0, time=276),\n",
      "    Message('note_on', channel=4, note=76, velocity=127, time=24),\n",
      "    Message('note_on', channel=4, note=76, velocity=0, time=24),\n",
      "    Message('note_on', channel=4, note=77, velocity=127, time=6),\n",
      "    Message('note_on', channel=4, note=77, velocity=0, time=24),\n",
      "    Message('note_on', channel=4, note=74, velocity=127, time=6),\n",
      "    Message('note_on', channel=4, note=74, velocity=0, time=168),\n",
      "    Message('note_on', channel=4, note=72, velocity=127, time=12),\n",
      "    Message('note_on', channel=4, note=72, velocity=0, time=168),\n",
      "    Message('note_on', channel=4, note=72, velocity=127, time=12),\n",
      "    Message('note_on', channel=4, note=72, velocity=0, time=168),\n",
      "    Message('note_on', channel=4, note=71, velocity=127, time=1272),\n",
      "    Message('note_on', channel=4, note=71, velocity=0, time=336),\n",
      "    Message('note_on', channel=4, note=72, velocity=127, time=24),\n",
      "    Message('note_on', channel=4, note=72, velocity=0, time=168),\n",
      "    Message('note_on', channel=4, note=74, velocity=127, time=12),\n",
      "    Message('note_on', channel=4, note=74, velocity=0, time=336),\n",
      "    Message('note_on', channel=4, note=74, velocity=127, time=24),\n",
      "    Message('note_on', channel=4, note=74, velocity=0, time=168),\n",
      "    Message('note_on', channel=4, note=72, velocity=127, time=12),\n",
      "    Message('note_on', channel=4, note=72, velocity=0, time=168),\n",
      "    Message('note_on', channel=4, note=71, velocity=127, time=12),\n",
      "    Message('note_on', channel=4, note=71, velocity=0, time=336),\n",
      "    Message('note_on', channel=4, note=69, velocity=127, time=24),\n",
      "    Message('note_on', channel=4, note=69, velocity=0, time=336),\n",
      "    Message('note_on', channel=4, note=71, velocity=127, time=744),\n",
      "    Message('note_on', channel=4, note=71, velocity=0, time=336),\n",
      "    Message('note_on', channel=4, note=72, velocity=127, time=24),\n",
      "    Message('note_on', channel=4, note=72, velocity=0, time=168),\n",
      "    Message('note_on', channel=4, note=74, velocity=127, time=12),\n",
      "    Message('note_on', channel=4, note=74, velocity=0, time=336),\n",
      "    Message('note_on', channel=4, note=71, velocity=127, time=24),\n",
      "    Message('note_on', channel=4, note=71, velocity=0, time=168),\n",
      "    Message('note_on', channel=4, note=69, velocity=127, time=12),\n",
      "    Message('note_on', channel=4, note=69, velocity=0, time=96),\n",
      "    Message('note_on', channel=4, note=71, velocity=127, time=24),\n",
      "    Message('note_on', channel=4, note=71, velocity=0, time=24),\n",
      "    Message('note_on', channel=4, note=72, velocity=127, time=6),\n",
      "    Message('note_on', channel=4, note=72, velocity=0, time=24),\n",
      "    Message('note_on', channel=4, note=71, velocity=127, time=6),\n",
      "    Message('note_on', channel=4, note=71, velocity=0, time=168),\n",
      "    Message('note_on', channel=4, note=69, velocity=127, time=12),\n",
      "    Message('note_on', channel=4, note=69, velocity=0, time=168),\n",
      "    Message('note_on', channel=4, note=67, velocity=127, time=12),\n",
      "    Message('note_on', channel=4, note=67, velocity=0, time=336),\n",
      "    Message('note_on', channel=4, note=71, velocity=127, time=10464),\n",
      "    Message('note_on', channel=4, note=71, velocity=0, time=336),\n",
      "    Message('note_on', channel=4, note=72, velocity=127, time=24),\n",
      "    Message('note_on', channel=4, note=72, velocity=0, time=168),\n",
      "    Message('note_on', channel=4, note=74, velocity=127, time=12),\n",
      "    Message('note_on', channel=4, note=74, velocity=0, time=336),\n",
      "    Message('note_on', channel=4, note=74, velocity=127, time=24),\n",
      "    Message('note_on', channel=4, note=74, velocity=0, time=168),\n",
      "    Message('note_on', channel=4, note=72, velocity=127, time=12),\n",
      "    Message('note_on', channel=4, note=72, velocity=0, time=336),\n",
      "    Message('note_on', channel=4, note=71, velocity=127, time=24),\n",
      "    Message('note_on', channel=4, note=71, velocity=0, time=168),\n",
      "    Message('note_on', channel=4, note=69, velocity=127, time=12),\n",
      "    Message('note_on', channel=4, note=69, velocity=0, time=168),\n",
      "    Message('note_on', channel=4, note=69, velocity=127, time=12),\n",
      "    Message('note_on', channel=4, note=69, velocity=0, time=168),\n",
      "    Message('note_on', channel=4, note=71, velocity=127, time=732),\n",
      "    Message('note_on', channel=4, note=71, velocity=0, time=336),\n",
      "    Message('note_on', channel=4, note=72, velocity=127, time=24),\n",
      "    Message('note_on', channel=4, note=72, velocity=0, time=168),\n",
      "    Message('note_on', channel=4, note=74, velocity=127, time=12),\n",
      "    Message('note_on', channel=4, note=74, velocity=0, time=336),\n",
      "    Message('note_on', channel=4, note=71, velocity=127, time=24),\n",
      "    Message('note_on', channel=4, note=71, velocity=0, time=168),\n",
      "    Message('note_on', channel=4, note=69, velocity=127, time=12),\n",
      "    Message('note_on', channel=4, note=69, velocity=0, time=96),\n",
      "    Message('note_on', channel=4, note=71, velocity=127, time=24),\n",
      "    Message('note_on', channel=4, note=71, velocity=0, time=24),\n",
      "    Message('note_on', channel=4, note=72, velocity=127, time=6),\n",
      "    Message('note_on', channel=4, note=72, velocity=0, time=24),\n",
      "    Message('note_on', channel=4, note=71, velocity=127, time=6),\n",
      "    Message('note_on', channel=4, note=71, velocity=0, time=168),\n",
      "    Message('note_on', channel=4, note=69, velocity=127, time=12),\n",
      "    Message('note_on', channel=4, note=69, velocity=0, time=168),\n",
      "    Message('note_on', channel=4, note=67, velocity=127, time=12),\n",
      "    Message('note_on', channel=4, note=67, velocity=0, time=336),\n",
      "    Message('note_on', channel=4, note=71, velocity=127, time=3444),\n",
      "    Message('note_on', channel=4, note=71, velocity=0, time=336),\n",
      "    Message('note_on', channel=4, note=72, velocity=127, time=24),\n",
      "    Message('note_on', channel=4, note=72, velocity=0, time=168),\n",
      "    Message('note_on', channel=4, note=74, velocity=127, time=12),\n",
      "    Message('note_on', channel=4, note=74, velocity=0, time=336),\n",
      "    Message('note_on', channel=4, note=74, velocity=127, time=24),\n",
      "    Message('note_on', channel=4, note=74, velocity=0, time=168),\n",
      "    Message('note_on', channel=4, note=72, velocity=127, time=12),\n",
      "    Message('note_on', channel=4, note=72, velocity=0, time=336),\n",
      "    Message('note_on', channel=4, note=71, velocity=127, time=24),\n",
      "    Message('note_on', channel=4, note=71, velocity=0, time=168),\n",
      "    Message('note_on', channel=4, note=69, velocity=127, time=12),\n",
      "    Message('note_on', channel=4, note=69, velocity=0, time=168),\n",
      "    Message('note_on', channel=4, note=69, velocity=127, time=12),\n",
      "    Message('note_on', channel=4, note=69, velocity=0, time=168),\n",
      "    Message('note_on', channel=4, note=71, velocity=127, time=732),\n",
      "    Message('note_on', channel=4, note=71, velocity=0, time=336),\n",
      "    Message('note_on', channel=4, note=72, velocity=127, time=24),\n",
      "    Message('note_on', channel=4, note=72, velocity=0, time=168),\n",
      "    Message('note_on', channel=4, note=74, velocity=127, time=12),\n",
      "    Message('note_on', channel=4, note=74, velocity=0, time=336),\n",
      "    Message('note_on', channel=4, note=71, velocity=127, time=24),\n",
      "    Message('note_on', channel=4, note=71, velocity=0, time=168),\n",
      "    Message('note_on', channel=4, note=69, velocity=127, time=12),\n",
      "    Message('note_on', channel=4, note=69, velocity=0, time=96),\n",
      "    Message('note_on', channel=4, note=71, velocity=127, time=24),\n",
      "    Message('note_on', channel=4, note=71, velocity=0, time=24),\n",
      "    Message('note_on', channel=4, note=72, velocity=127, time=6),\n",
      "    Message('note_on', channel=4, note=72, velocity=0, time=24),\n",
      "    Message('note_on', channel=4, note=71, velocity=127, time=6),\n",
      "    Message('note_on', channel=4, note=71, velocity=0, time=168),\n",
      "    Message('note_on', channel=4, note=69, velocity=127, time=12),\n",
      "    Message('note_on', channel=4, note=69, velocity=0, time=168),\n",
      "    Message('note_on', channel=4, note=67, velocity=127, time=12),\n",
      "    Message('note_on', channel=4, note=67, velocity=0, time=336),\n",
      "    Message('note_on', channel=4, note=69, velocity=127, time=3984),\n",
      "    Message('note_on', channel=4, note=69, velocity=0, time=336),\n",
      "    Message('note_on', channel=4, note=71, velocity=127, time=24),\n",
      "    Message('note_on', channel=4, note=71, velocity=0, time=168),\n",
      "    Message('note_on', channel=4, note=72, velocity=127, time=12),\n",
      "    Message('note_on', channel=4, note=72, velocity=0, time=336),\n",
      "    Message('note_on', channel=4, note=72, velocity=127, time=24),\n",
      "    Message('note_on', channel=4, note=72, velocity=0, time=168),\n",
      "    Message('note_on', channel=4, note=71, velocity=127, time=12),\n",
      "    Message('note_on', channel=4, note=71, velocity=0, time=276),\n",
      "    Message('note_on', channel=4, note=72, velocity=127, time=24),\n",
      "    Message('note_on', channel=4, note=72, velocity=0, time=24),\n",
      "    Message('note_on', channel=4, note=74, velocity=127, time=6),\n",
      "    Message('note_on', channel=4, note=74, velocity=0, time=24),\n",
      "    Message('note_on', channel=4, note=71, velocity=127, time=6),\n",
      "    Message('note_on', channel=4, note=71, velocity=0, time=168),\n",
      "    Message('note_on', channel=4, note=69, velocity=127, time=12),\n",
      "    Message('note_on', channel=4, note=69, velocity=0, time=168),\n",
      "    Message('note_on', channel=4, note=69, velocity=127, time=12),\n",
      "    Message('note_on', channel=4, note=69, velocity=0, time=168),\n",
      "    Message('note_on', channel=4, note=72, velocity=127, time=1272),\n",
      "    Message('note_on', channel=4, note=72, velocity=0, time=336),\n",
      "    Message('note_on', channel=4, note=74, velocity=127, time=24),\n",
      "    Message('note_on', channel=4, note=74, velocity=0, time=168),\n",
      "    Message('note_on', channel=4, note=76, velocity=127, time=12),\n",
      "    Message('note_on', channel=4, note=76, velocity=0, time=336),\n",
      "    Message('note_on', channel=4, note=76, velocity=127, time=24),\n",
      "    Message('note_on', channel=4, note=76, velocity=0, time=168),\n",
      "    Message('note_on', channel=4, note=74, velocity=127, time=12),\n",
      "    Message('note_on', channel=4, note=74, velocity=0, time=276),\n",
      "    Message('note_on', channel=4, note=76, velocity=127, time=24),\n",
      "    Message('note_on', channel=4, note=76, velocity=0, time=24),\n",
      "    Message('note_on', channel=4, note=77, velocity=127, time=6),\n",
      "    Message('note_on', channel=4, note=77, velocity=0, time=24),\n",
      "    Message('note_on', channel=4, note=74, velocity=127, time=6),\n",
      "    Message('note_on', channel=4, note=74, velocity=0, time=168),\n",
      "    Message('note_on', channel=4, note=72, velocity=127, time=12),\n",
      "    Message('note_on', channel=4, note=72, velocity=0, time=168),\n",
      "    Message('note_on', channel=4, note=72, velocity=127, time=12),\n",
      "    Message('note_on', channel=4, note=72, velocity=0, time=168),\n",
      "    Message('note_on', channel=4, note=71, velocity=127, time=1272),\n",
      "    Message('note_on', channel=4, note=71, velocity=0, time=336),\n",
      "    Message('note_on', channel=4, note=72, velocity=127, time=24),\n",
      "    Message('note_on', channel=4, note=72, velocity=0, time=168),\n",
      "    Message('note_on', channel=4, note=74, velocity=127, time=12),\n",
      "    Message('note_on', channel=4, note=74, velocity=0, time=336),\n",
      "    Message('note_on', channel=4, note=74, velocity=127, time=24),\n",
      "    Message('note_on', channel=4, note=74, velocity=0, time=168),\n",
      "    Message('note_on', channel=4, note=72, velocity=127, time=12),\n",
      "    Message('note_on', channel=4, note=72, velocity=0, time=168),\n",
      "    Message('note_on', channel=4, note=71, velocity=127, time=12),\n",
      "    Message('note_on', channel=4, note=71, velocity=0, time=336),\n",
      "    Message('note_on', channel=4, note=69, velocity=127, time=24),\n",
      "    Message('note_on', channel=4, note=69, velocity=0, time=336),\n",
      "    Message('note_on', channel=4, note=71, velocity=127, time=744),\n",
      "    Message('note_on', channel=4, note=71, velocity=0, time=336),\n",
      "    Message('note_on', channel=4, note=72, velocity=127, time=24),\n",
      "    Message('note_on', channel=4, note=72, velocity=0, time=168),\n",
      "    Message('note_on', channel=4, note=74, velocity=127, time=12),\n",
      "    Message('note_on', channel=4, note=74, velocity=0, time=336),\n",
      "    Message('note_on', channel=4, note=71, velocity=127, time=24),\n",
      "    Message('note_on', channel=4, note=71, velocity=0, time=168),\n",
      "    Message('note_on', channel=4, note=69, velocity=127, time=12),\n",
      "    Message('note_on', channel=4, note=69, velocity=0, time=96),\n",
      "    Message('note_on', channel=4, note=71, velocity=127, time=24),\n",
      "    Message('note_on', channel=4, note=71, velocity=0, time=24),\n",
      "    Message('note_on', channel=4, note=72, velocity=127, time=6),\n",
      "    Message('note_on', channel=4, note=72, velocity=0, time=24),\n",
      "    Message('note_on', channel=4, note=71, velocity=127, time=6),\n",
      "    Message('note_on', channel=4, note=71, velocity=0, time=168),\n",
      "    Message('note_on', channel=4, note=69, velocity=127, time=12),\n",
      "    Message('note_on', channel=4, note=69, velocity=0, time=168),\n",
      "    Message('note_on', channel=4, note=67, velocity=127, time=12),\n",
      "    Message('note_on', channel=4, note=67, velocity=0, time=336),\n",
      "    MetaMessage('end_of_track', time=0)]),\n",
      "  MidiTrack([\n",
      "    MetaMessage('track_name', name='Cut-N-Shoot, Tx', time=0),\n",
      "    MetaMessage('instrument_name', name='Choir Aahs', time=0),\n",
      "    MetaMessage('midi_port', port=0, time=0),\n",
      "    Message('program_change', channel=5, program=52, time=0),\n",
      "    Message('note_on', channel=5, note=59, velocity=127, time=4320),\n",
      "    Message('note_on', channel=5, note=59, velocity=0, time=336),\n",
      "    Message('note_on', channel=5, note=60, velocity=127, time=24),\n",
      "    Message('note_on', channel=5, note=60, velocity=0, time=168),\n",
      "    Message('note_on', channel=5, note=62, velocity=127, time=12),\n",
      "    Message('note_on', channel=5, note=62, velocity=0, time=336),\n",
      "    Message('note_on', channel=5, note=62, velocity=127, time=24),\n",
      "    Message('note_on', channel=5, note=62, velocity=0, time=168),\n",
      "    Message('note_on', channel=5, note=60, velocity=127, time=12),\n",
      "    Message('note_on', channel=5, note=60, velocity=0, time=336),\n",
      "    Message('note_on', channel=5, note=59, velocity=127, time=24),\n",
      "    Message('note_on', channel=5, note=59, velocity=0, time=168),\n",
      "    Message('note_on', channel=5, note=57, velocity=127, time=12),\n",
      "    Message('note_on', channel=5, note=57, velocity=0, time=168),\n",
      "    Message('note_on', channel=5, note=57, velocity=127, time=12),\n",
      "    Message('note_on', channel=5, note=57, velocity=0, time=168),\n",
      "    Message('note_on', channel=5, note=59, velocity=127, time=732),\n",
      "    Message('note_on', channel=5, note=59, velocity=0, time=336),\n",
      "    Message('note_on', channel=5, note=60, velocity=127, time=24),\n",
      "    Message('note_on', channel=5, note=60, velocity=0, time=168),\n",
      "    Message('note_on', channel=5, note=62, velocity=127, time=12),\n",
      "    Message('note_on', channel=5, note=62, velocity=0, time=336),\n",
      "    Message('note_on', channel=5, note=59, velocity=127, time=24),\n",
      "    Message('note_on', channel=5, note=59, velocity=0, time=168),\n",
      "    Message('note_on', channel=5, note=57, velocity=127, time=12),\n",
      "    Message('note_on', channel=5, note=57, velocity=0, time=96),\n",
      "    Message('note_on', channel=5, note=59, velocity=127, time=24),\n",
      "    Message('note_on', channel=5, note=59, velocity=0, time=24),\n",
      "    Message('note_on', channel=5, note=60, velocity=127, time=6),\n",
      "    Message('note_on', channel=5, note=60, velocity=0, time=24),\n",
      "    Message('note_on', channel=5, note=59, velocity=127, time=6),\n",
      "    Message('note_on', channel=5, note=59, velocity=0, time=168),\n",
      "    Message('note_on', channel=5, note=57, velocity=127, time=12),\n",
      "    Message('note_on', channel=5, note=57, velocity=0, time=168),\n",
      "    Message('note_on', channel=5, note=55, velocity=127, time=12),\n",
      "    Message('note_on', channel=5, note=55, velocity=0, time=336),\n",
      "    Message('note_on', channel=5, note=59, velocity=127, time=3444),\n",
      "    Message('note_on', channel=5, note=59, velocity=0, time=336),\n",
      "    Message('note_on', channel=5, note=60, velocity=127, time=24),\n",
      "    Message('note_on', channel=5, note=60, velocity=0, time=168),\n",
      "    Message('note_on', channel=5, note=62, velocity=127, time=12),\n",
      "    Message('note_on', channel=5, note=62, velocity=0, time=336),\n",
      "    Message('note_on', channel=5, note=62, velocity=127, time=24),\n",
      "    Message('note_on', channel=5, note=62, velocity=0, time=168),\n",
      "    Message('note_on', channel=5, note=60, velocity=127, time=12),\n",
      "    Message('note_on', channel=5, note=60, velocity=0, time=336),\n",
      "    Message('note_on', channel=5, note=59, velocity=127, time=24),\n",
      "    Message('note_on', channel=5, note=59, velocity=0, time=168),\n",
      "    Message('note_on', channel=5, note=57, velocity=127, time=12),\n",
      "    Message('note_on', channel=5, note=57, velocity=0, time=168),\n",
      "    Message('note_on', channel=5, note=57, velocity=127, time=12),\n",
      "    Message('note_on', channel=5, note=57, velocity=0, time=168),\n",
      "    Message('note_on', channel=5, note=59, velocity=127, time=732),\n",
      "    Message('note_on', channel=5, note=59, velocity=0, time=336),\n",
      "    Message('note_on', channel=5, note=60, velocity=127, time=24),\n",
      "    Message('note_on', channel=5, note=60, velocity=0, time=168),\n",
      "    Message('note_on', channel=5, note=62, velocity=127, time=12),\n",
      "    Message('note_on', channel=5, note=62, velocity=0, time=336),\n",
      "    Message('note_on', channel=5, note=59, velocity=127, time=24),\n",
      "    Message('note_on', channel=5, note=59, velocity=0, time=168),\n",
      "    Message('note_on', channel=5, note=57, velocity=127, time=12),\n",
      "    Message('note_on', channel=5, note=57, velocity=0, time=96),\n",
      "    Message('note_on', channel=5, note=59, velocity=127, time=24),\n",
      "    Message('note_on', channel=5, note=59, velocity=0, time=24),\n",
      "    Message('note_on', channel=5, note=60, velocity=127, time=6),\n",
      "    Message('note_on', channel=5, note=60, velocity=0, time=24),\n",
      "    Message('note_on', channel=5, note=59, velocity=127, time=6),\n",
      "    Message('note_on', channel=5, note=59, velocity=0, time=168),\n",
      "    Message('note_on', channel=5, note=57, velocity=127, time=12),\n",
      "    Message('note_on', channel=5, note=57, velocity=0, time=168),\n",
      "    Message('note_on', channel=5, note=55, velocity=127, time=12),\n",
      "    Message('note_on', channel=5, note=55, velocity=0, time=336),\n",
      "    Message('note_on', channel=5, note=57, velocity=127, time=3984),\n",
      "    Message('note_on', channel=5, note=57, velocity=0, time=336),\n",
      "    Message('note_on', channel=5, note=59, velocity=127, time=24),\n",
      "    Message('note_on', channel=5, note=59, velocity=0, time=168),\n",
      "    Message('note_on', channel=5, note=60, velocity=127, time=12),\n",
      "    Message('note_on', channel=5, note=60, velocity=0, time=336),\n",
      "    Message('note_on', channel=5, note=60, velocity=127, time=24),\n",
      "    Message('note_on', channel=5, note=60, velocity=0, time=168),\n",
      "    Message('note_on', channel=5, note=59, velocity=127, time=12),\n",
      "    Message('note_on', channel=5, note=59, velocity=0, time=276),\n",
      "    Message('note_on', channel=5, note=60, velocity=127, time=24),\n",
      "    Message('note_on', channel=5, note=60, velocity=0, time=24),\n",
      "    Message('note_on', channel=5, note=62, velocity=127, time=6),\n",
      "    Message('note_on', channel=5, note=62, velocity=0, time=24),\n",
      "    Message('note_on', channel=5, note=59, velocity=127, time=6),\n",
      "    Message('note_on', channel=5, note=59, velocity=0, time=168),\n",
      "    Message('note_on', channel=5, note=57, velocity=127, time=12),\n",
      "    Message('note_on', channel=5, note=57, velocity=0, time=168),\n",
      "    Message('note_on', channel=5, note=57, velocity=127, time=12),\n",
      "    Message('note_on', channel=5, note=57, velocity=0, time=168),\n",
      "    Message('note_on', channel=5, note=60, velocity=127, time=1272),\n",
      "    Message('note_on', channel=5, note=60, velocity=0, time=336),\n",
      "    Message('note_on', channel=5, note=62, velocity=127, time=24),\n",
      "    Message('note_on', channel=5, note=62, velocity=0, time=168),\n",
      "    Message('note_on', channel=5, note=64, velocity=127, time=12),\n",
      "    Message('note_on', channel=5, note=64, velocity=0, time=336),\n",
      "    Message('note_on', channel=5, note=64, velocity=127, time=24),\n",
      "    Message('note_on', channel=5, note=64, velocity=0, time=168),\n",
      "    Message('note_on', channel=5, note=62, velocity=127, time=12),\n",
      "    Message('note_on', channel=5, note=62, velocity=0, time=276),\n",
      "    Message('note_on', channel=5, note=64, velocity=127, time=24),\n",
      "    Message('note_on', channel=5, note=64, velocity=0, time=24),\n",
      "    Message('note_on', channel=5, note=65, velocity=127, time=6),\n",
      "    Message('note_on', channel=5, note=65, velocity=0, time=24),\n",
      "    Message('note_on', channel=5, note=62, velocity=127, time=6),\n",
      "    Message('note_on', channel=5, note=62, velocity=0, time=168),\n",
      "    Message('note_on', channel=5, note=60, velocity=127, time=12),\n",
      "    Message('note_on', channel=5, note=60, velocity=0, time=168),\n",
      "    Message('note_on', channel=5, note=60, velocity=127, time=12),\n",
      "    Message('note_on', channel=5, note=60, velocity=0, time=168),\n",
      "    Message('note_on', channel=5, note=59, velocity=127, time=1272),\n",
      "    Message('note_on', channel=5, note=59, velocity=0, time=336),\n",
      "    Message('note_on', channel=5, note=60, velocity=127, time=24),\n",
      "    Message('note_on', channel=5, note=60, velocity=0, time=168),\n",
      "    Message('note_on', channel=5, note=62, velocity=127, time=12),\n",
      "    Message('note_on', channel=5, note=62, velocity=0, time=336),\n",
      "    Message('note_on', channel=5, note=62, velocity=127, time=24),\n",
      "    Message('note_on', channel=5, note=62, velocity=0, time=168),\n",
      "    Message('note_on', channel=5, note=60, velocity=127, time=12),\n",
      "    Message('note_on', channel=5, note=60, velocity=0, time=168),\n",
      "    Message('note_on', channel=5, note=59, velocity=127, time=12),\n",
      "    Message('note_on', channel=5, note=59, velocity=0, time=336),\n",
      "    Message('note_on', channel=5, note=57, velocity=127, time=24),\n",
      "    Message('note_on', channel=5, note=57, velocity=0, time=336),\n",
      "    Message('note_on', channel=5, note=59, velocity=127, time=744),\n",
      "    Message('note_on', channel=5, note=59, velocity=0, time=336),\n",
      "    Message('note_on', channel=5, note=60, velocity=127, time=24),\n",
      "    Message('note_on', channel=5, note=60, velocity=0, time=168),\n",
      "    Message('note_on', channel=5, note=62, velocity=127, time=12),\n",
      "    Message('note_on', channel=5, note=62, velocity=0, time=336),\n",
      "    Message('note_on', channel=5, note=59, velocity=127, time=24),\n",
      "    Message('note_on', channel=5, note=59, velocity=0, time=168),\n",
      "    Message('note_on', channel=5, note=57, velocity=127, time=12),\n",
      "    Message('note_on', channel=5, note=57, velocity=0, time=96),\n",
      "    Message('note_on', channel=5, note=59, velocity=127, time=24),\n",
      "    Message('note_on', channel=5, note=59, velocity=0, time=24),\n",
      "    Message('note_on', channel=5, note=60, velocity=127, time=6),\n",
      "    Message('note_on', channel=5, note=60, velocity=0, time=24),\n",
      "    Message('note_on', channel=5, note=59, velocity=127, time=6),\n",
      "    Message('note_on', channel=5, note=59, velocity=0, time=168),\n",
      "    Message('note_on', channel=5, note=57, velocity=127, time=12),\n",
      "    Message('note_on', channel=5, note=57, velocity=0, time=168),\n",
      "    Message('note_on', channel=5, note=55, velocity=127, time=12),\n",
      "    Message('note_on', channel=5, note=55, velocity=0, time=336),\n",
      "    Message('note_on', channel=5, note=59, velocity=127, time=10464),\n",
      "    Message('note_on', channel=5, note=59, velocity=0, time=336),\n",
      "    Message('note_on', channel=5, note=60, velocity=127, time=24),\n",
      "    Message('note_on', channel=5, note=60, velocity=0, time=168),\n",
      "    Message('note_on', channel=5, note=62, velocity=127, time=12),\n",
      "    Message('note_on', channel=5, note=62, velocity=0, time=336),\n",
      "    Message('note_on', channel=5, note=62, velocity=127, time=24),\n",
      "    Message('note_on', channel=5, note=62, velocity=0, time=168),\n",
      "    Message('note_on', channel=5, note=60, velocity=127, time=12),\n",
      "    Message('note_on', channel=5, note=60, velocity=0, time=336),\n",
      "    Message('note_on', channel=5, note=59, velocity=127, time=24),\n",
      "    Message('note_on', channel=5, note=59, velocity=0, time=168),\n",
      "    Message('note_on', channel=5, note=57, velocity=127, time=12),\n",
      "    Message('note_on', channel=5, note=57, velocity=0, time=168),\n",
      "    Message('note_on', channel=5, note=57, velocity=127, time=12),\n",
      "    Message('note_on', channel=5, note=57, velocity=0, time=168),\n",
      "    Message('note_on', channel=5, note=59, velocity=127, time=732),\n",
      "    Message('note_on', channel=5, note=59, velocity=0, time=336),\n",
      "    Message('note_on', channel=5, note=60, velocity=127, time=24),\n",
      "    Message('note_on', channel=5, note=60, velocity=0, time=168),\n",
      "    Message('note_on', channel=5, note=62, velocity=127, time=12),\n",
      "    Message('note_on', channel=5, note=62, velocity=0, time=336),\n",
      "    Message('note_on', channel=5, note=59, velocity=127, time=24),\n",
      "    Message('note_on', channel=5, note=59, velocity=0, time=168),\n",
      "    Message('note_on', channel=5, note=57, velocity=127, time=12),\n",
      "    Message('note_on', channel=5, note=57, velocity=0, time=96),\n",
      "    Message('note_on', channel=5, note=59, velocity=127, time=24),\n",
      "    Message('note_on', channel=5, note=59, velocity=0, time=24),\n",
      "    Message('note_on', channel=5, note=60, velocity=127, time=6),\n",
      "    Message('note_on', channel=5, note=60, velocity=0, time=24),\n",
      "    Message('note_on', channel=5, note=59, velocity=127, time=6),\n",
      "    Message('note_on', channel=5, note=59, velocity=0, time=168),\n",
      "    Message('note_on', channel=5, note=57, velocity=127, time=12),\n",
      "    Message('note_on', channel=5, note=57, velocity=0, time=168),\n",
      "    Message('note_on', channel=5, note=55, velocity=127, time=12),\n",
      "    Message('note_on', channel=5, note=55, velocity=0, time=336),\n",
      "    Message('note_on', channel=5, note=59, velocity=127, time=3444),\n",
      "    Message('note_on', channel=5, note=59, velocity=0, time=336),\n",
      "    Message('note_on', channel=5, note=60, velocity=127, time=24),\n",
      "    Message('note_on', channel=5, note=60, velocity=0, time=168),\n",
      "    Message('note_on', channel=5, note=62, velocity=127, time=12),\n",
      "    Message('note_on', channel=5, note=62, velocity=0, time=336),\n",
      "    Message('note_on', channel=5, note=62, velocity=127, time=24),\n",
      "    Message('note_on', channel=5, note=62, velocity=0, time=168),\n",
      "    Message('note_on', channel=5, note=60, velocity=127, time=12),\n",
      "    Message('note_on', channel=5, note=60, velocity=0, time=336),\n",
      "    Message('note_on', channel=5, note=59, velocity=127, time=24),\n",
      "    Message('note_on', channel=5, note=59, velocity=0, time=168),\n",
      "    Message('note_on', channel=5, note=57, velocity=127, time=12),\n",
      "    Message('note_on', channel=5, note=57, velocity=0, time=168),\n",
      "    Message('note_on', channel=5, note=57, velocity=127, time=12),\n",
      "    Message('note_on', channel=5, note=57, velocity=0, time=168),\n",
      "    Message('note_on', channel=5, note=59, velocity=127, time=732),\n",
      "    Message('note_on', channel=5, note=59, velocity=0, time=336),\n",
      "    Message('note_on', channel=5, note=60, velocity=127, time=24),\n",
      "    Message('note_on', channel=5, note=60, velocity=0, time=168),\n",
      "    Message('note_on', channel=5, note=62, velocity=127, time=12),\n",
      "    Message('note_on', channel=5, note=62, velocity=0, time=336),\n",
      "    Message('note_on', channel=5, note=59, velocity=127, time=24),\n",
      "    Message('note_on', channel=5, note=59, velocity=0, time=168),\n",
      "    Message('note_on', channel=5, note=57, velocity=127, time=12),\n",
      "    Message('note_on', channel=5, note=57, velocity=0, time=96),\n",
      "    Message('note_on', channel=5, note=59, velocity=127, time=24),\n",
      "    Message('note_on', channel=5, note=59, velocity=0, time=24),\n",
      "    Message('note_on', channel=5, note=60, velocity=127, time=6),\n",
      "    Message('note_on', channel=5, note=60, velocity=0, time=24),\n",
      "    Message('note_on', channel=5, note=59, velocity=127, time=6),\n",
      "    Message('note_on', channel=5, note=59, velocity=0, time=168),\n",
      "    Message('note_on', channel=5, note=57, velocity=127, time=12),\n",
      "    Message('note_on', channel=5, note=57, velocity=0, time=168),\n",
      "    Message('note_on', channel=5, note=55, velocity=127, time=12),\n",
      "    Message('note_on', channel=5, note=55, velocity=0, time=336),\n",
      "    Message('note_on', channel=5, note=57, velocity=127, time=3984),\n",
      "    Message('note_on', channel=5, note=57, velocity=0, time=336),\n",
      "    Message('note_on', channel=5, note=59, velocity=127, time=24),\n",
      "    Message('note_on', channel=5, note=59, velocity=0, time=168),\n",
      "    Message('note_on', channel=5, note=60, velocity=127, time=12),\n",
      "    Message('note_on', channel=5, note=60, velocity=0, time=336),\n",
      "    Message('note_on', channel=5, note=60, velocity=127, time=24),\n",
      "    Message('note_on', channel=5, note=60, velocity=0, time=168),\n",
      "    Message('note_on', channel=5, note=59, velocity=127, time=12),\n",
      "    Message('note_on', channel=5, note=59, velocity=0, time=276),\n",
      "    Message('note_on', channel=5, note=60, velocity=127, time=24),\n",
      "    Message('note_on', channel=5, note=60, velocity=0, time=24),\n",
      "    Message('note_on', channel=5, note=62, velocity=127, time=6),\n",
      "    Message('note_on', channel=5, note=62, velocity=0, time=24),\n",
      "    Message('note_on', channel=5, note=59, velocity=127, time=6),\n",
      "    Message('note_on', channel=5, note=59, velocity=0, time=168),\n",
      "    Message('note_on', channel=5, note=57, velocity=127, time=12),\n",
      "    Message('note_on', channel=5, note=57, velocity=0, time=168),\n",
      "    Message('note_on', channel=5, note=57, velocity=127, time=12),\n",
      "    Message('note_on', channel=5, note=57, velocity=0, time=168),\n",
      "    Message('note_on', channel=5, note=60, velocity=127, time=1272),\n",
      "    Message('note_on', channel=5, note=60, velocity=0, time=336),\n",
      "    Message('note_on', channel=5, note=62, velocity=127, time=24),\n",
      "    Message('note_on', channel=5, note=62, velocity=0, time=168),\n",
      "    Message('note_on', channel=5, note=64, velocity=127, time=12),\n",
      "    Message('note_on', channel=5, note=64, velocity=0, time=336),\n",
      "    Message('note_on', channel=5, note=64, velocity=127, time=24),\n",
      "    Message('note_on', channel=5, note=64, velocity=0, time=168),\n",
      "    Message('note_on', channel=5, note=62, velocity=127, time=12),\n",
      "    Message('note_on', channel=5, note=62, velocity=0, time=276),\n",
      "    Message('note_on', channel=5, note=64, velocity=127, time=24),\n",
      "    Message('note_on', channel=5, note=64, velocity=0, time=24),\n",
      "    Message('note_on', channel=5, note=65, velocity=127, time=6),\n",
      "    Message('note_on', channel=5, note=65, velocity=0, time=24),\n",
      "    Message('note_on', channel=5, note=62, velocity=127, time=6),\n",
      "    Message('note_on', channel=5, note=62, velocity=0, time=168),\n",
      "    Message('note_on', channel=5, note=60, velocity=127, time=12),\n",
      "    Message('note_on', channel=5, note=60, velocity=0, time=168),\n",
      "    Message('note_on', channel=5, note=60, velocity=127, time=12),\n",
      "    Message('note_on', channel=5, note=60, velocity=0, time=168),\n",
      "    Message('note_on', channel=5, note=59, velocity=127, time=1272),\n",
      "    Message('note_on', channel=5, note=59, velocity=0, time=336),\n",
      "    Message('note_on', channel=5, note=60, velocity=127, time=24),\n",
      "    Message('note_on', channel=5, note=60, velocity=0, time=168),\n",
      "    Message('note_on', channel=5, note=62, velocity=127, time=12),\n",
      "    Message('note_on', channel=5, note=62, velocity=0, time=336),\n",
      "    Message('note_on', channel=5, note=62, velocity=127, time=24),\n",
      "    Message('note_on', channel=5, note=62, velocity=0, time=168),\n",
      "    Message('note_on', channel=5, note=60, velocity=127, time=12),\n",
      "    Message('note_on', channel=5, note=60, velocity=0, time=168),\n",
      "    Message('note_on', channel=5, note=59, velocity=127, time=12),\n",
      "    Message('note_on', channel=5, note=59, velocity=0, time=336),\n",
      "    Message('note_on', channel=5, note=57, velocity=127, time=24),\n",
      "    Message('note_on', channel=5, note=57, velocity=0, time=336),\n",
      "    Message('note_on', channel=5, note=59, velocity=127, time=744),\n",
      "    Message('note_on', channel=5, note=59, velocity=0, time=336),\n",
      "    Message('note_on', channel=5, note=60, velocity=127, time=24),\n",
      "    Message('note_on', channel=5, note=60, velocity=0, time=168),\n",
      "    Message('note_on', channel=5, note=62, velocity=127, time=12),\n",
      "    Message('note_on', channel=5, note=62, velocity=0, time=336),\n",
      "    Message('note_on', channel=5, note=59, velocity=127, time=24),\n",
      "    Message('note_on', channel=5, note=59, velocity=0, time=168),\n",
      "    Message('note_on', channel=5, note=57, velocity=127, time=12),\n",
      "    Message('note_on', channel=5, note=57, velocity=0, time=96),\n",
      "    Message('note_on', channel=5, note=59, velocity=127, time=24),\n",
      "    Message('note_on', channel=5, note=59, velocity=0, time=24),\n",
      "    Message('note_on', channel=5, note=60, velocity=127, time=6),\n",
      "    Message('note_on', channel=5, note=60, velocity=0, time=24),\n",
      "    Message('note_on', channel=5, note=59, velocity=127, time=6),\n",
      "    Message('note_on', channel=5, note=59, velocity=0, time=168),\n",
      "    Message('note_on', channel=5, note=57, velocity=127, time=12),\n",
      "    Message('note_on', channel=5, note=57, velocity=0, time=168),\n",
      "    Message('note_on', channel=5, note=55, velocity=127, time=12),\n",
      "    Message('note_on', channel=5, note=55, velocity=0, time=336),\n",
      "    MetaMessage('end_of_track', time=0)]),\n",
      "  MidiTrack([\n",
      "    MetaMessage('track_name', name='          [74046,757]', time=0),\n",
      "    MetaMessage('midi_port', port=0, time=0),\n",
      "    MetaMessage('end_of_track', time=0)])\n",
      "])\n"
     ]
    }
   ],
   "source": [
    "file_name2 = \"jesu1.mid\"\n",
    "file_path2 = os.path.join(\"midi_data\", file_name2)\n",
    "\n",
    "mid2 = MidiFile(file_path2)\n",
    "print(mid2)"
   ]
  },
  {
   "cell_type": "code",
   "execution_count": 15,
   "id": "b235c896",
   "metadata": {
    "scrolled": false
   },
   "outputs": [
    {
     "data": {
      "text/plain": [
       "8"
      ]
     },
     "execution_count": 15,
     "metadata": {},
     "output_type": "execute_result"
    }
   ],
   "source": [
    "len(mid2.tracks)"
   ]
  },
  {
   "cell_type": "code",
   "execution_count": 16,
   "id": "4ad9f759",
   "metadata": {
    "scrolled": false
   },
   "outputs": [
    {
     "data": {
      "text/plain": [
       "MidiTrack([\n",
       "  MetaMessage('sequencer_specific', data=(0, 0, 65), time=0),\n",
       "  MetaMessage('track_name', name='JESU        ', time=0),\n",
       "  MetaMessage('key_signature', key='G', time=0),\n",
       "  MetaMessage('midi_port', port=0, time=0),\n",
       "  MetaMessage('time_signature', numerator=9, denominator=8, clocks_per_click=24, notated_32nd_notes_per_beat=8, time=0),\n",
       "  MetaMessage('set_tempo', tempo=500000, time=38340),\n",
       "  MetaMessage('end_of_track', time=0)])"
      ]
     },
     "execution_count": 16,
     "metadata": {},
     "output_type": "execute_result"
    }
   ],
   "source": [
    "mid2.tracks[0]"
   ]
  },
  {
   "cell_type": "code",
   "execution_count": 17,
   "id": "72e65bc5",
   "metadata": {
    "scrolled": true
   },
   "outputs": [
    {
     "data": {
      "text/plain": [
       "MidiTrack([\n",
       "  MetaMessage('track_name', name=\"Jesu, Joy of Man's\", time=0),\n",
       "  MetaMessage('instrument_name', name='Synths Strings 1', time=0),\n",
       "  MetaMessage('midi_port', port=0, time=0),\n",
       "  Message('control_change', channel=0, control=0, value=80, time=0),\n",
       "  Message('control_change', channel=0, control=32, value=0, time=0),\n",
       "  Message('program_change', channel=0, program=50, time=0),\n",
       "  Message('note_on', channel=0, note=67, velocity=104, time=60),\n",
       "  Message('note_on', channel=0, note=67, velocity=0, time=48),\n",
       "  Message('note_on', channel=0, note=69, velocity=104, time=12),\n",
       "  Message('note_on', channel=0, note=69, velocity=0, time=48),\n",
       "  Message('note_on', channel=0, note=71, velocity=104, time=12),\n",
       "  Message('note_on', channel=0, note=71, velocity=0, time=48),\n",
       "  Message('note_on', channel=0, note=74, velocity=104, time=12),\n",
       "  Message('note_on', channel=0, note=74, velocity=0, time=48),\n",
       "  Message('note_on', channel=0, note=72, velocity=104, time=12),\n",
       "  Message('note_on', channel=0, note=72, velocity=0, time=48),\n",
       "  Message('note_on', channel=0, note=72, velocity=104, time=12),\n",
       "  Message('note_on', channel=0, note=72, velocity=0, time=48),\n",
       "  Message('note_on', channel=0, note=76, velocity=104, time=12),\n",
       "  Message('note_on', channel=0, note=76, velocity=0, time=48),\n",
       "  Message('note_on', channel=0, note=74, velocity=104, time=12),\n",
       "  Message('note_on', channel=0, note=74, velocity=0, time=48),\n",
       "  Message('note_on', channel=0, note=74, velocity=104, time=12),\n",
       "  Message('note_on', channel=0, note=74, velocity=0, time=48),\n",
       "  Message('note_on', channel=0, note=79, velocity=104, time=12),\n",
       "  Message('note_on', channel=0, note=79, velocity=0, time=48),\n",
       "  Message('note_on', channel=0, note=78, velocity=104, time=12),\n",
       "  Message('note_on', channel=0, note=78, velocity=0, time=48),\n",
       "  Message('note_on', channel=0, note=79, velocity=104, time=12),\n",
       "  Message('note_on', channel=0, note=79, velocity=0, time=48),\n",
       "  Message('note_on', channel=0, note=74, velocity=104, time=12),\n",
       "  Message('note_on', channel=0, note=74, velocity=0, time=48),\n",
       "  Message('note_on', channel=0, note=71, velocity=104, time=12),\n",
       "  Message('note_on', channel=0, note=71, velocity=0, time=48),\n",
       "  Message('note_on', channel=0, note=67, velocity=104, time=12),\n",
       "  Message('note_on', channel=0, note=67, velocity=0, time=48),\n",
       "  Message('note_on', channel=0, note=69, velocity=104, time=12),\n",
       "  Message('note_on', channel=0, note=69, velocity=0, time=48),\n",
       "  Message('note_on', channel=0, note=71, velocity=104, time=12),\n",
       "  Message('note_on', channel=0, note=71, velocity=0, time=48),\n",
       "  Message('note_on', channel=0, note=72, velocity=104, time=12),\n",
       "  Message('note_on', channel=0, note=72, velocity=0, time=48),\n",
       "  Message('note_on', channel=0, note=74, velocity=104, time=12),\n",
       "  Message('note_on', channel=0, note=74, velocity=0, time=48),\n",
       "  Message('note_on', channel=0, note=76, velocity=104, time=12),\n",
       "  Message('note_on', channel=0, note=76, velocity=0, time=48),\n",
       "  Message('note_on', channel=0, note=74, velocity=104, time=12),\n",
       "  Message('note_on', channel=0, note=74, velocity=0, time=48),\n",
       "  Message('note_on', channel=0, note=72, velocity=104, time=12),\n",
       "  Message('note_on', channel=0, note=72, velocity=0, time=48),\n",
       "  Message('note_on', channel=0, note=71, velocity=104, time=12),\n",
       "  Message('note_on', channel=0, note=71, velocity=0, time=48),\n",
       "  Message('note_on', channel=0, note=69, velocity=104, time=12),\n",
       "  Message('note_on', channel=0, note=69, velocity=0, time=48),\n",
       "  Message('note_on', channel=0, note=71, velocity=104, time=12),\n",
       "  Message('note_on', channel=0, note=71, velocity=0, time=48),\n",
       "  Message('note_on', channel=0, note=67, velocity=104, time=12),\n",
       "  Message('note_on', channel=0, note=67, velocity=0, time=48),\n",
       "  Message('note_on', channel=0, note=66, velocity=104, time=12),\n",
       "  Message('note_on', channel=0, note=66, velocity=0, time=48),\n",
       "  Message('note_on', channel=0, note=67, velocity=104, time=12),\n",
       "  Message('note_on', channel=0, note=67, velocity=0, time=48),\n",
       "  Message('note_on', channel=0, note=69, velocity=104, time=12),\n",
       "  Message('note_on', channel=0, note=69, velocity=0, time=48),\n",
       "  Message('note_on', channel=0, note=62, velocity=104, time=12),\n",
       "  Message('note_on', channel=0, note=62, velocity=0, time=48),\n",
       "  Message('note_on', channel=0, note=66, velocity=104, time=12),\n",
       "  Message('note_on', channel=0, note=66, velocity=0, time=48),\n",
       "  Message('note_on', channel=0, note=69, velocity=104, time=12),\n",
       "  Message('note_on', channel=0, note=69, velocity=0, time=48),\n",
       "  Message('note_on', channel=0, note=72, velocity=104, time=12),\n",
       "  Message('note_on', channel=0, note=72, velocity=0, time=48),\n",
       "  Message('note_on', channel=0, note=71, velocity=104, time=12),\n",
       "  Message('note_on', channel=0, note=71, velocity=0, time=48),\n",
       "  Message('note_on', channel=0, note=69, velocity=104, time=12),\n",
       "  Message('note_on', channel=0, note=69, velocity=0, time=48),\n",
       "  Message('note_on', channel=0, note=71, velocity=104, time=12),\n",
       "  Message('note_on', channel=0, note=71, velocity=0, time=48),\n",
       "  Message('note_on', channel=0, note=67, velocity=104, time=12),\n",
       "  Message('note_on', channel=0, note=67, velocity=0, time=48),\n",
       "  Message('note_on', channel=0, note=69, velocity=104, time=12),\n",
       "  Message('note_on', channel=0, note=69, velocity=0, time=48),\n",
       "  Message('note_on', channel=0, note=71, velocity=104, time=12),\n",
       "  Message('note_on', channel=0, note=71, velocity=0, time=48),\n",
       "  Message('note_on', channel=0, note=74, velocity=104, time=12),\n",
       "  Message('note_on', channel=0, note=74, velocity=0, time=48),\n",
       "  Message('note_on', channel=0, note=72, velocity=104, time=12),\n",
       "  Message('note_on', channel=0, note=72, velocity=0, time=48),\n",
       "  Message('note_on', channel=0, note=72, velocity=104, time=12),\n",
       "  Message('note_on', channel=0, note=72, velocity=0, time=48),\n",
       "  Message('note_on', channel=0, note=76, velocity=104, time=12),\n",
       "  Message('note_on', channel=0, note=76, velocity=0, time=48),\n",
       "  Message('note_on', channel=0, note=74, velocity=104, time=12),\n",
       "  Message('note_on', channel=0, note=74, velocity=0, time=48),\n",
       "  Message('note_on', channel=0, note=74, velocity=104, time=12),\n",
       "  Message('note_on', channel=0, note=74, velocity=0, time=48),\n",
       "  Message('note_on', channel=0, note=79, velocity=104, time=12),\n",
       "  Message('note_on', channel=0, note=79, velocity=0, time=48),\n",
       "  Message('note_on', channel=0, note=78, velocity=104, time=12),\n",
       "  Message('note_on', channel=0, note=78, velocity=0, time=48),\n",
       "  Message('note_on', channel=0, note=79, velocity=104, time=12),\n",
       "  Message('note_on', channel=0, note=79, velocity=0, time=48),\n",
       "  Message('note_on', channel=0, note=74, velocity=104, time=12),\n",
       "  Message('note_on', channel=0, note=74, velocity=0, time=48),\n",
       "  Message('note_on', channel=0, note=71, velocity=104, time=12),\n",
       "  Message('note_on', channel=0, note=71, velocity=0, time=48),\n",
       "  Message('note_on', channel=0, note=67, velocity=104, time=12),\n",
       "  Message('note_on', channel=0, note=67, velocity=0, time=48),\n",
       "  Message('note_on', channel=0, note=69, velocity=104, time=12),\n",
       "  Message('note_on', channel=0, note=69, velocity=0, time=48),\n",
       "  Message('note_on', channel=0, note=71, velocity=104, time=12),\n",
       "  Message('note_on', channel=0, note=71, velocity=0, time=48),\n",
       "  Message('note_on', channel=0, note=64, velocity=104, time=12),\n",
       "  Message('note_on', channel=0, note=64, velocity=0, time=48),\n",
       "  Message('note_on', channel=0, note=74, velocity=104, time=12),\n",
       "  Message('note_on', channel=0, note=74, velocity=0, time=48),\n",
       "  Message('note_on', channel=0, note=72, velocity=104, time=12),\n",
       "  Message('note_on', channel=0, note=72, velocity=0, time=48),\n",
       "  Message('note_on', channel=0, note=71, velocity=104, time=12),\n",
       "  Message('note_on', channel=0, note=71, velocity=0, time=48),\n",
       "  Message('note_on', channel=0, note=69, velocity=104, time=12),\n",
       "  Message('note_on', channel=0, note=69, velocity=0, time=48),\n",
       "  Message('note_on', channel=0, note=67, velocity=104, time=12),\n",
       "  Message('note_on', channel=0, note=67, velocity=0, time=48),\n",
       "  Message('note_on', channel=0, note=62, velocity=104, time=12),\n",
       "  Message('note_on', channel=0, note=62, velocity=0, time=48),\n",
       "  Message('note_on', channel=0, note=67, velocity=104, time=12),\n",
       "  Message('note_on', channel=0, note=67, velocity=0, time=48),\n",
       "  Message('note_on', channel=0, note=66, velocity=104, time=12),\n",
       "  Message('note_on', channel=0, note=66, velocity=0, time=48),\n",
       "  Message('note_on', channel=0, note=67, velocity=104, time=12),\n",
       "  Message('note_on', channel=0, note=67, velocity=0, time=48),\n",
       "  Message('note_on', channel=0, note=71, velocity=104, time=12),\n",
       "  Message('note_on', channel=0, note=71, velocity=0, time=48),\n",
       "  Message('note_on', channel=0, note=74, velocity=104, time=12),\n",
       "  Message('note_on', channel=0, note=74, velocity=0, time=48),\n",
       "  Message('note_on', channel=0, note=79, velocity=104, time=12),\n",
       "  Message('note_on', channel=0, note=79, velocity=0, time=48),\n",
       "  Message('note_on', channel=0, note=74, velocity=104, time=12),\n",
       "  Message('note_on', channel=0, note=74, velocity=0, time=48),\n",
       "  Message('note_on', channel=0, note=71, velocity=104, time=12),\n",
       "  Message('note_on', channel=0, note=71, velocity=0, time=48),\n",
       "  Message('note_on', channel=0, note=67, velocity=104, time=12),\n",
       "  Message('note_on', channel=0, note=67, velocity=0, time=48),\n",
       "  Message('note_on', channel=0, note=71, velocity=104, time=12),\n",
       "  Message('note_on', channel=0, note=71, velocity=0, time=48),\n",
       "  Message('note_on', channel=0, note=74, velocity=104, time=12),\n",
       "  Message('note_on', channel=0, note=74, velocity=0, time=48),\n",
       "  Message('note_on', channel=0, note=62, velocity=104, time=12),\n",
       "  Message('note_on', channel=0, note=71, velocity=104, time=0),\n",
       "  Message('note_on', channel=0, note=67, velocity=104, time=0),\n",
       "  Message('note_on', channel=0, note=62, velocity=0, time=336),\n",
       "  Message('note_on', channel=0, note=71, velocity=0, time=0),\n",
       "  Message('note_on', channel=0, note=67, velocity=0, time=0),\n",
       "  Message('note_on', channel=0, note=64, velocity=104, time=24),\n",
       "  Message('note_on', channel=0, note=67, velocity=104, time=0),\n",
       "  Message('note_on', channel=0, note=60, velocity=104, time=0),\n",
       "  Message('note_on', channel=0, note=72, velocity=104, time=0),\n",
       "  Message('note_on', channel=0, note=64, velocity=0, time=168),\n",
       "  Message('note_on', channel=0, note=67, velocity=0, time=0),\n",
       "  Message('note_on', channel=0, note=60, velocity=0, time=0),\n",
       "  Message('note_on', channel=0, note=72, velocity=0, time=0),\n",
       "  Message('note_on', channel=0, note=74, velocity=104, time=12),\n",
       "  Message('note_on', channel=0, note=74, velocity=0, time=336),\n",
       "  Message('note_on', channel=0, note=66, velocity=104, time=24),\n",
       "  Message('note_on', channel=0, note=71, velocity=104, time=0),\n",
       "  Message('note_on', channel=0, note=74, velocity=104, time=0),\n",
       "  Message('note_on', channel=0, note=62, velocity=104, time=0),\n",
       "  Message('note_on', channel=0, note=66, velocity=0, time=168),\n",
       "  Message('note_on', channel=0, note=71, velocity=0, time=0),\n",
       "  Message('note_on', channel=0, note=74, velocity=0, time=0),\n",
       "  Message('note_on', channel=0, note=62, velocity=0, time=0),\n",
       "  Message('note_on', channel=0, note=72, velocity=104, time=12),\n",
       "  Message('note_on', channel=0, note=72, velocity=0, time=336),\n",
       "  Message('note_on', channel=0, note=67, velocity=104, time=24),\n",
       "  Message('note_on', channel=0, note=62, velocity=104, time=0),\n",
       "  Message('note_on', channel=0, note=71, velocity=104, time=0),\n",
       "  Message('note_on', channel=0, note=67, velocity=0, time=168),\n",
       "  Message('note_on', channel=0, note=62, velocity=0, time=0),\n",
       "  Message('note_on', channel=0, note=71, velocity=0, time=0),\n",
       "  Message('note_on', channel=0, note=66, velocity=104, time=12),\n",
       "  Message('note_on', channel=0, note=69, velocity=104, time=0),\n",
       "  Message('note_on', channel=0, note=66, velocity=0, time=48),\n",
       "  Message('note_on', channel=0, note=69, velocity=0, time=0),\n",
       "  Message('note_on', channel=0, note=62, velocity=104, time=12),\n",
       "  Message('note_on', channel=0, note=62, velocity=0, time=48),\n",
       "  Message('note_on', channel=0, note=64, velocity=104, time=12),\n",
       "  Message('note_on', channel=0, note=64, velocity=0, time=48),\n",
       "  Message('note_on', channel=0, note=66, velocity=104, time=12),\n",
       "  Message('note_on', channel=0, note=69, velocity=104, time=0),\n",
       "  Message('note_on', channel=0, note=66, velocity=0, time=48),\n",
       "  Message('note_on', channel=0, note=69, velocity=0, time=0),\n",
       "  Message('note_on', channel=0, note=69, velocity=104, time=12),\n",
       "  Message('note_on', channel=0, note=69, velocity=0, time=48),\n",
       "  Message('note_on', channel=0, note=67, velocity=104, time=12),\n",
       "  Message('note_on', channel=0, note=67, velocity=0, time=48),\n",
       "  Message('note_on', channel=0, note=69, velocity=104, time=12),\n",
       "  Message('note_on', channel=0, note=69, velocity=0, time=48),\n",
       "  Message('note_on', channel=0, note=72, velocity=104, time=12),\n",
       "  Message('note_on', channel=0, note=72, velocity=0, time=48),\n",
       "  Message('note_on', channel=0, note=71, velocity=104, time=12),\n",
       "  Message('note_on', channel=0, note=71, velocity=0, time=48),\n",
       "  Message('note_on', channel=0, note=72, velocity=104, time=12),\n",
       "  Message('note_on', channel=0, note=72, velocity=0, time=48),\n",
       "  Message('note_on', channel=0, note=69, velocity=104, time=12),\n",
       "  Message('note_on', channel=0, note=69, velocity=0, time=48),\n",
       "  Message('note_on', channel=0, note=66, velocity=104, time=12),\n",
       "  Message('note_on', channel=0, note=66, velocity=0, time=48),\n",
       "  Message('note_on', channel=0, note=62, velocity=104, time=12),\n",
       "  Message('note_on', channel=0, note=62, velocity=0, time=48),\n",
       "  Message('note_on', channel=0, note=66, velocity=104, time=12),\n",
       "  Message('note_on', channel=0, note=66, velocity=0, time=48),\n",
       "  Message('note_on', channel=0, note=69, velocity=104, time=12),\n",
       "  Message('note_on', channel=0, note=69, velocity=0, time=48),\n",
       "  Message('note_on', channel=0, note=72, velocity=104, time=12),\n",
       "  Message('note_on', channel=0, note=72, velocity=0, time=48),\n",
       "  Message('note_on', channel=0, note=71, velocity=104, time=12),\n",
       "  Message('note_on', channel=0, note=71, velocity=0, time=48),\n",
       "  Message('note_on', channel=0, note=69, velocity=104, time=12),\n",
       "  Message('note_on', channel=0, note=69, velocity=0, time=48),\n",
       "  Message('note_on', channel=0, note=67, velocity=104, time=12),\n",
       "  Message('note_on', channel=0, note=71, velocity=104, time=0),\n",
       "  Message('note_on', channel=0, note=67, velocity=0, time=336),\n",
       "  Message('note_on', channel=0, note=71, velocity=0, time=0),\n",
       "  Message('note_on', channel=0, note=64, velocity=104, time=24),\n",
       "  Message('note_on', channel=0, note=72, velocity=104, time=0),\n",
       "  Message('note_on', channel=0, note=67, velocity=104, time=0),\n",
       "  Message('note_on', channel=0, note=60, velocity=104, time=0),\n",
       "  Message('note_on', channel=0, note=64, velocity=0, time=168),\n",
       "  Message('note_on', channel=0, note=72, velocity=0, time=0),\n",
       "  Message('note_on', channel=0, note=67, velocity=0, time=0),\n",
       "  Message('note_on', channel=0, note=60, velocity=0, time=0),\n",
       "  Message('note_on', channel=0, note=67, velocity=104, time=12),\n",
       "  Message('note_on', channel=0, note=62, velocity=104, time=0),\n",
       "  Message('note_on', channel=0, note=74, velocity=104, time=0),\n",
       "  Message('note_on', channel=0, note=67, velocity=0, time=336),\n",
       "  Message('note_on', channel=0, note=62, velocity=0, time=0),\n",
       "  Message('note_on', channel=0, note=74, velocity=0, time=0),\n",
       "  Message('note_on', channel=0, note=67, velocity=104, time=24),\n",
       "  Message('note_on', channel=0, note=64, velocity=104, time=0),\n",
       "  Message('note_on', channel=0, note=71, velocity=104, time=0),\n",
       "  Message('note_on', channel=0, note=67, velocity=0, time=168),\n",
       "  Message('note_on', channel=0, note=64, velocity=0, time=0),\n",
       "  Message('note_on', channel=0, note=71, velocity=0, time=0),\n",
       "  Message('note_on', channel=0, note=69, velocity=63, time=12),\n",
       "  Message('note_on', channel=0, note=69, velocity=0, time=116),\n",
       "  Message('note_on', channel=0, note=71, velocity=74, time=4),\n",
       "  Message('note_on', channel=0, note=72, velocity=68, time=30),\n",
       "  Message('note_on', channel=0, note=71, velocity=0, time=14),\n",
       "  Message('note_on', channel=0, note=71, velocity=65, time=16),\n",
       "  Message('note_on', channel=0, note=66, velocity=67, time=0),\n",
       "  Message('note_on', channel=0, note=62, velocity=55, time=0),\n",
       "  Message('note_on', channel=0, note=72, velocity=0, time=14),\n",
       "  Message('note_on', channel=0, note=66, velocity=55, time=166),\n",
       "  Message('note_on', channel=0, note=60, velocity=46, time=0),\n",
       "  Message('note_on', channel=0, note=69, velocity=45, time=0),\n",
       "  Message('note_on', channel=0, note=71, velocity=0, time=8),\n",
       "  Message('note_on', channel=0, note=66, velocity=0, time=0),\n",
       "  Message('note_on', channel=0, note=62, velocity=0, time=0),\n",
       "  Message('note_on', channel=0, note=67, velocity=104, time=172),\n",
       "  Message('note_on', channel=0, note=66, velocity=0, time=8),\n",
       "  Message('note_on', channel=0, note=60, velocity=0, time=0),\n",
       "  Message('note_on', channel=0, note=69, velocity=0, time=0),\n",
       "  Message('note_on', channel=0, note=67, velocity=0, time=40),\n",
       "  Message('note_on', channel=0, note=71, velocity=104, time=12),\n",
       "  Message('note_on', channel=0, note=71, velocity=0, time=48),\n",
       "  Message('note_on', channel=0, note=69, velocity=104, time=12),\n",
       "  Message('note_on', channel=0, note=69, velocity=0, time=48),\n",
       "  Message('note_on', channel=0, note=71, velocity=104, time=12),\n",
       "  Message('note_on', channel=0, note=71, velocity=0, time=48),\n",
       "  Message('note_on', channel=0, note=74, velocity=104, time=12),\n",
       "  Message('note_on', channel=0, note=74, velocity=0, time=48),\n",
       "  Message('note_on', channel=0, note=72, velocity=104, time=12),\n",
       "  Message('note_on', channel=0, note=72, velocity=0, time=48),\n",
       "  Message('note_on', channel=0, note=72, velocity=104, time=12),\n",
       "  Message('note_on', channel=0, note=72, velocity=0, time=48),\n",
       "  Message('note_on', channel=0, note=76, velocity=104, time=12),\n",
       "  Message('note_on', channel=0, note=76, velocity=0, time=48),\n",
       "  Message('note_on', channel=0, note=74, velocity=104, time=12),\n",
       "  Message('note_on', channel=0, note=74, velocity=0, time=48),\n",
       "  Message('note_on', channel=0, note=74, velocity=104, time=12),\n",
       "  Message('note_on', channel=0, note=74, velocity=0, time=48),\n",
       "  Message('note_on', channel=0, note=79, velocity=104, time=12),\n",
       "  Message('note_on', channel=0, note=79, velocity=0, time=48),\n",
       "  Message('note_on', channel=0, note=78, velocity=104, time=12),\n",
       "  Message('note_on', channel=0, note=78, velocity=0, time=48),\n",
       "  Message('note_on', channel=0, note=79, velocity=104, time=12),\n",
       "  Message('note_on', channel=0, note=79, velocity=0, time=48),\n",
       "  Message('note_on', channel=0, note=74, velocity=104, time=12),\n",
       "  Message('note_on', channel=0, note=74, velocity=0, time=48),\n",
       "  Message('note_on', channel=0, note=71, velocity=104, time=12),\n",
       "  Message('note_on', channel=0, note=71, velocity=0, time=48),\n",
       "  Message('note_on', channel=0, note=67, velocity=104, time=12),\n",
       "  Message('note_on', channel=0, note=67, velocity=0, time=48),\n",
       "  Message('note_on', channel=0, note=69, velocity=104, time=12),\n",
       "  Message('note_on', channel=0, note=69, velocity=0, time=48),\n",
       "  Message('note_on', channel=0, note=71, velocity=104, time=12),\n",
       "  Message('note_on', channel=0, note=71, velocity=0, time=48),\n",
       "  Message('note_on', channel=0, note=72, velocity=104, time=12),\n",
       "  Message('note_on', channel=0, note=72, velocity=0, time=48),\n",
       "  Message('note_on', channel=0, note=74, velocity=104, time=12),\n",
       "  Message('note_on', channel=0, note=74, velocity=0, time=48),\n",
       "  Message('note_on', channel=0, note=76, velocity=104, time=12),\n",
       "  Message('note_on', channel=0, note=76, velocity=0, time=48),\n",
       "  Message('note_on', channel=0, note=74, velocity=104, time=12),\n",
       "  Message('note_on', channel=0, note=74, velocity=0, time=48),\n",
       "  Message('note_on', channel=0, note=72, velocity=104, time=12),\n",
       "  Message('note_on', channel=0, note=72, velocity=0, time=48),\n",
       "  Message('note_on', channel=0, note=71, velocity=104, time=12),\n",
       "  Message('note_on', channel=0, note=71, velocity=0, time=48),\n",
       "  Message('note_on', channel=0, note=69, velocity=104, time=12),\n",
       "  Message('note_on', channel=0, note=69, velocity=0, time=48),\n",
       "  Message('note_on', channel=0, note=71, velocity=104, time=12),\n",
       "  Message('note_on', channel=0, note=71, velocity=0, time=48),\n",
       "  Message('note_on', channel=0, note=67, velocity=104, time=12),\n",
       "  Message('note_on', channel=0, note=67, velocity=0, time=48),\n",
       "  Message('note_on', channel=0, note=66, velocity=104, time=12),\n",
       "  Message('note_on', channel=0, note=66, velocity=0, time=48),\n",
       "  Message('note_on', channel=0, note=67, velocity=104, time=12),\n",
       "  Message('note_on', channel=0, note=67, velocity=0, time=48),\n",
       "  Message('note_on', channel=0, note=69, velocity=104, time=12),\n",
       "  Message('note_on', channel=0, note=69, velocity=0, time=48),\n",
       "  Message('note_on', channel=0, note=62, velocity=104, time=12),\n",
       "  Message('note_on', channel=0, note=62, velocity=0, time=48),\n",
       "  Message('note_on', channel=0, note=66, velocity=104, time=12),\n",
       "  Message('note_on', channel=0, note=66, velocity=0, time=48),\n",
       "  Message('note_on', channel=0, note=69, velocity=104, time=12),\n",
       "  Message('note_on', channel=0, note=69, velocity=0, time=48),\n",
       "  Message('note_on', channel=0, note=72, velocity=104, time=12),\n",
       "  Message('note_on', channel=0, note=72, velocity=0, time=48),\n",
       "  Message('note_on', channel=0, note=71, velocity=104, time=12),\n",
       "  Message('note_on', channel=0, note=71, velocity=0, time=48),\n",
       "  Message('note_on', channel=0, note=69, velocity=104, time=12),\n",
       "  Message('note_on', channel=0, note=69, velocity=0, time=48),\n",
       "  Message('note_on', channel=0, note=71, velocity=104, time=12),\n",
       "  Message('note_on', channel=0, note=71, velocity=0, time=48),\n",
       "  Message('note_on', channel=0, note=67, velocity=104, time=12),\n",
       "  Message('note_on', channel=0, note=67, velocity=0, time=48),\n",
       "  Message('note_on', channel=0, note=69, velocity=104, time=12),\n",
       "  Message('note_on', channel=0, note=69, velocity=0, time=48),\n",
       "  Message('note_on', channel=0, note=71, velocity=104, time=12),\n",
       "  Message('note_on', channel=0, note=71, velocity=0, time=48),\n",
       "  Message('note_on', channel=0, note=74, velocity=104, time=12),\n",
       "  Message('note_on', channel=0, note=74, velocity=0, time=48),\n",
       "  Message('note_on', channel=0, note=72, velocity=104, time=12),\n",
       "  Message('note_on', channel=0, note=72, velocity=0, time=48),\n",
       "  Message('note_on', channel=0, note=72, velocity=104, time=12),\n",
       "  Message('note_on', channel=0, note=72, velocity=0, time=48),\n",
       "  Message('note_on', channel=0, note=76, velocity=104, time=12),\n",
       "  Message('note_on', channel=0, note=76, velocity=0, time=48),\n",
       "  Message('note_on', channel=0, note=74, velocity=104, time=12),\n",
       "  Message('note_on', channel=0, note=74, velocity=0, time=48),\n",
       "  Message('note_on', channel=0, note=74, velocity=104, time=12),\n",
       "  Message('note_on', channel=0, note=74, velocity=0, time=48),\n",
       "  Message('note_on', channel=0, note=79, velocity=104, time=12),\n",
       "  Message('note_on', channel=0, note=79, velocity=0, time=48),\n",
       "  Message('note_on', channel=0, note=78, velocity=104, time=12),\n",
       "  Message('note_on', channel=0, note=78, velocity=0, time=48),\n",
       "  Message('note_on', channel=0, note=79, velocity=104, time=12),\n",
       "  Message('note_on', channel=0, note=79, velocity=0, time=48),\n",
       "  Message('note_on', channel=0, note=74, velocity=104, time=12),\n",
       "  Message('note_on', channel=0, note=74, velocity=0, time=48),\n",
       "  Message('note_on', channel=0, note=71, velocity=104, time=12),\n",
       "  Message('note_on', channel=0, note=71, velocity=0, time=48),\n",
       "  Message('note_on', channel=0, note=67, velocity=104, time=12),\n",
       "  Message('note_on', channel=0, note=67, velocity=0, time=48),\n",
       "  Message('note_on', channel=0, note=69, velocity=104, time=12),\n",
       "  Message('note_on', channel=0, note=69, velocity=0, time=48),\n",
       "  Message('note_on', channel=0, note=71, velocity=104, time=12),\n",
       "  Message('note_on', channel=0, note=71, velocity=0, time=48),\n",
       "  Message('note_on', channel=0, note=64, velocity=104, time=12),\n",
       "  Message('note_on', channel=0, note=64, velocity=0, time=48),\n",
       "  Message('note_on', channel=0, note=74, velocity=104, time=12),\n",
       "  Message('note_on', channel=0, note=74, velocity=0, time=48),\n",
       "  Message('note_on', channel=0, note=72, velocity=104, time=12),\n",
       "  Message('note_on', channel=0, note=72, velocity=0, time=48),\n",
       "  Message('note_on', channel=0, note=71, velocity=104, time=12),\n",
       "  Message('note_on', channel=0, note=71, velocity=0, time=48),\n",
       "  Message('note_on', channel=0, note=69, velocity=104, time=12),\n",
       "  Message('note_on', channel=0, note=69, velocity=0, time=48),\n",
       "  Message('note_on', channel=0, note=67, velocity=104, time=12),\n",
       "  Message('note_on', channel=0, note=67, velocity=0, time=48),\n",
       "  Message('note_on', channel=0, note=62, velocity=104, time=12),\n",
       "  Message('note_on', channel=0, note=62, velocity=0, time=48),\n",
       "  Message('note_on', channel=0, note=67, velocity=104, time=12),\n",
       "  Message('note_on', channel=0, note=67, velocity=0, time=48),\n",
       "  Message('note_on', channel=0, note=66, velocity=104, time=12),\n",
       "  Message('note_on', channel=0, note=66, velocity=0, time=48),\n",
       "  Message('note_on', channel=0, note=67, velocity=104, time=12),\n",
       "  Message('note_on', channel=0, note=71, velocity=104, time=0),\n",
       "  Message('note_on', channel=0, note=67, velocity=0, time=336),\n",
       "  Message('note_on', channel=0, note=71, velocity=0, time=0),\n",
       "  Message('note_on', channel=0, note=64, velocity=104, time=24),\n",
       "  Message('note_on', channel=0, note=60, velocity=104, time=0),\n",
       "  Message('note_on', channel=0, note=67, velocity=104, time=0),\n",
       "  Message('note_on', channel=0, note=72, velocity=104, time=0),\n",
       "  Message('note_on', channel=0, note=64, velocity=0, time=168),\n",
       "  Message('note_on', channel=0, note=60, velocity=0, time=0),\n",
       "  Message('note_on', channel=0, note=67, velocity=0, time=0),\n",
       "  Message('note_on', channel=0, note=72, velocity=0, time=0),\n",
       "  Message('note_on', channel=0, note=74, velocity=104, time=12),\n",
       "  Message('note_on', channel=0, note=74, velocity=0, time=336),\n",
       "  Message('note_on', channel=0, note=66, velocity=104, time=24),\n",
       "  Message('note_on', channel=0, note=71, velocity=104, time=0),\n",
       "  Message('note_on', channel=0, note=74, velocity=104, time=0),\n",
       "  Message('note_on', channel=0, note=62, velocity=104, time=0),\n",
       "  Message('note_on', channel=0, note=66, velocity=0, time=168),\n",
       "  Message('note_on', channel=0, note=71, velocity=0, time=0),\n",
       "  Message('note_on', channel=0, note=74, velocity=0, time=0),\n",
       "  Message('note_on', channel=0, note=62, velocity=0, time=0),\n",
       "  Message('note_on', channel=0, note=72, velocity=104, time=12),\n",
       "  Message('note_on', channel=0, note=72, velocity=0, time=336),\n",
       "  Message('note_on', channel=0, note=67, velocity=104, time=24),\n",
       "  Message('note_on', channel=0, note=62, velocity=104, time=0),\n",
       "  Message('note_on', channel=0, note=71, velocity=104, time=0),\n",
       "  Message('note_on', channel=0, note=67, velocity=0, time=168),\n",
       "  Message('note_on', channel=0, note=62, velocity=0, time=0),\n",
       "  Message('note_on', channel=0, note=71, velocity=0, time=0),\n",
       "  Message('note_on', channel=0, note=66, velocity=104, time=12),\n",
       "  Message('note_on', channel=0, note=69, velocity=104, time=0),\n",
       "  Message('note_on', channel=0, note=66, velocity=0, time=48),\n",
       "  Message('note_on', channel=0, note=69, velocity=0, time=0),\n",
       "  Message('note_on', channel=0, note=62, velocity=104, time=12),\n",
       "  Message('note_on', channel=0, note=62, velocity=0, time=48),\n",
       "  Message('note_on', channel=0, note=64, velocity=104, time=12),\n",
       "  Message('note_on', channel=0, note=64, velocity=0, time=48),\n",
       "  Message('note_on', channel=0, note=66, velocity=104, time=12),\n",
       "  Message('note_on', channel=0, note=69, velocity=104, time=0),\n",
       "  Message('note_on', channel=0, note=66, velocity=0, time=48),\n",
       "  Message('note_on', channel=0, note=69, velocity=0, time=0),\n",
       "  Message('note_on', channel=0, note=69, velocity=104, time=12),\n",
       "  Message('note_on', channel=0, note=69, velocity=0, time=48),\n",
       "  Message('note_on', channel=0, note=67, velocity=104, time=12),\n",
       "  Message('note_on', channel=0, note=67, velocity=0, time=48),\n",
       "  Message('note_on', channel=0, note=69, velocity=104, time=12),\n",
       "  Message('note_on', channel=0, note=69, velocity=0, time=48),\n",
       "  Message('note_on', channel=0, note=72, velocity=104, time=12),\n",
       "  Message('note_on', channel=0, note=72, velocity=0, time=48),\n",
       "  Message('note_on', channel=0, note=71, velocity=104, time=12),\n",
       "  Message('note_on', channel=0, note=71, velocity=0, time=48),\n",
       "  Message('note_on', channel=0, note=72, velocity=104, time=12),\n",
       "  Message('note_on', channel=0, note=72, velocity=0, time=48),\n",
       "  Message('note_on', channel=0, note=69, velocity=104, time=12),\n",
       "  Message('note_on', channel=0, note=69, velocity=0, time=48),\n",
       "  Message('note_on', channel=0, note=66, velocity=104, time=12),\n",
       "  Message('note_on', channel=0, note=66, velocity=0, time=48),\n",
       "  Message('note_on', channel=0, note=62, velocity=104, time=12),\n",
       "  Message('note_on', channel=0, note=62, velocity=0, time=48),\n",
       "  Message('note_on', channel=0, note=66, velocity=104, time=12),\n",
       "  Message('note_on', channel=0, note=66, velocity=0, time=48),\n",
       "  Message('note_on', channel=0, note=69, velocity=104, time=12),\n",
       "  Message('note_on', channel=0, note=69, velocity=0, time=48),\n",
       "  Message('note_on', channel=0, note=72, velocity=104, time=12),\n",
       "  Message('note_on', channel=0, note=72, velocity=0, time=48),\n",
       "  Message('note_on', channel=0, note=71, velocity=104, time=12),\n",
       "  Message('note_on', channel=0, note=71, velocity=0, time=48),\n",
       "  Message('note_on', channel=0, note=69, velocity=104, time=12),\n",
       "  Message('note_on', channel=0, note=69, velocity=0, time=48),\n",
       "  Message('note_on', channel=0, note=71, velocity=104, time=12),\n",
       "  Message('note_on', channel=0, note=67, velocity=104, time=0),\n",
       "  Message('note_on', channel=0, note=71, velocity=0, time=336),\n",
       "  Message('note_on', channel=0, note=67, velocity=0, time=0),\n",
       "  Message('note_on', channel=0, note=64, velocity=104, time=24),\n",
       "  Message('note_on', channel=0, note=60, velocity=104, time=0),\n",
       "  Message('note_on', channel=0, note=67, velocity=104, time=0),\n",
       "  Message('note_on', channel=0, note=72, velocity=104, time=0),\n",
       "  Message('note_on', channel=0, note=64, velocity=0, time=168),\n",
       "  Message('note_on', channel=0, note=60, velocity=0, time=0),\n",
       "  Message('note_on', channel=0, note=67, velocity=0, time=0),\n",
       "  Message('note_on', channel=0, note=72, velocity=0, time=0),\n",
       "  Message('note_on', channel=0, note=67, velocity=104, time=12),\n",
       "  Message('note_on', channel=0, note=74, velocity=104, time=0),\n",
       "  Message('note_on', channel=0, note=62, velocity=104, time=0),\n",
       "  Message('note_on', channel=0, note=67, velocity=0, time=336),\n",
       "  Message('note_on', channel=0, note=74, velocity=0, time=0),\n",
       "  Message('note_on', channel=0, note=62, velocity=0, time=0),\n",
       "  Message('note_on', channel=0, note=67, velocity=104, time=24),\n",
       "  Message('note_on', channel=0, note=64, velocity=104, time=0),\n",
       "  Message('note_on', channel=0, note=71, velocity=104, time=0),\n",
       "  Message('note_on', channel=0, note=67, velocity=0, time=168),\n",
       "  Message('note_on', channel=0, note=64, velocity=0, time=0),\n",
       "  Message('note_on', channel=0, note=71, velocity=0, time=0),\n",
       "  Message('note_on', channel=0, note=69, velocity=104, time=12),\n",
       "  Message('note_on', channel=0, note=69, velocity=0, time=116),\n",
       "  Message('note_on', channel=0, note=71, velocity=104, time=4),\n",
       "  Message('note_on', channel=0, note=72, velocity=104, time=30),\n",
       "  Message('note_on', channel=0, note=71, velocity=0, time=14),\n",
       "  Message('note_on', channel=0, note=66, velocity=104, time=16),\n",
       "  Message('note_on', channel=0, note=71, velocity=104, time=0),\n",
       "  Message('note_on', channel=0, note=62, velocity=104, time=0),\n",
       "  Message('note_on', channel=0, note=72, velocity=0, time=14),\n",
       "  Message('note_on', channel=0, note=66, velocity=0, time=154),\n",
       "  Message('note_on', channel=0, note=71, velocity=0, time=0),\n",
       "  Message('note_on', channel=0, note=62, velocity=0, time=0),\n",
       "  Message('note_on', channel=0, note=66, velocity=104, time=12),\n",
       "  Message('note_on', channel=0, note=60, velocity=104, time=0),\n",
       "  Message('note_on', channel=0, note=69, velocity=104, time=0),\n",
       "  Message('note_on', channel=0, note=66, velocity=0, time=168),\n",
       "  Message('note_on', channel=0, note=60, velocity=0, time=0),\n",
       "  Message('note_on', channel=0, note=69, velocity=0, time=0),\n",
       "  Message('note_on', channel=0, note=67, velocity=104, time=12),\n",
       "  Message('note_on', channel=0, note=67, velocity=0, time=48),\n",
       "  Message('note_on', channel=0, note=71, velocity=104, time=12),\n",
       "  Message('note_on', channel=0, note=71, velocity=0, time=48),\n",
       "  Message('note_on', channel=0, note=69, velocity=104, time=12),\n",
       "  Message('note_on', channel=0, note=69, velocity=0, time=48),\n",
       "  Message('note_on', channel=0, note=71, velocity=104, time=12),\n",
       "  Message('note_on', channel=0, note=71, velocity=0, time=48),\n",
       "  Message('note_on', channel=0, note=74, velocity=104, time=12),\n",
       "  Message('note_on', channel=0, note=74, velocity=0, time=48),\n",
       "  Message('note_on', channel=0, note=72, velocity=104, time=12),\n",
       "  Message('note_on', channel=0, note=72, velocity=0, time=48),\n",
       "  Message('note_on', channel=0, note=72, velocity=104, time=12),\n",
       "  Message('note_on', channel=0, note=72, velocity=0, time=48),\n",
       "  Message('note_on', channel=0, note=76, velocity=104, time=12),\n",
       "  Message('note_on', channel=0, note=76, velocity=0, time=48),\n",
       "  Message('note_on', channel=0, note=74, velocity=104, time=12),\n",
       "  Message('note_on', channel=0, note=74, velocity=0, time=48),\n",
       "  Message('note_on', channel=0, note=74, velocity=104, time=12),\n",
       "  Message('note_on', channel=0, note=74, velocity=0, time=48),\n",
       "  Message('note_on', channel=0, note=79, velocity=104, time=12),\n",
       "  Message('note_on', channel=0, note=79, velocity=0, time=48),\n",
       "  Message('note_on', channel=0, note=78, velocity=104, time=12),\n",
       "  Message('note_on', channel=0, note=78, velocity=0, time=48),\n",
       "  Message('note_on', channel=0, note=79, velocity=104, time=12),\n",
       "  Message('note_on', channel=0, note=79, velocity=0, time=48),\n",
       "  Message('note_on', channel=0, note=74, velocity=104, time=12),\n",
       "  Message('note_on', channel=0, note=74, velocity=0, time=48),\n",
       "  Message('note_on', channel=0, note=71, velocity=104, time=12),\n",
       "  Message('note_on', channel=0, note=71, velocity=0, time=48),\n",
       "  Message('note_on', channel=0, note=67, velocity=104, time=12),\n",
       "  Message('note_on', channel=0, note=67, velocity=0, time=48),\n",
       "  Message('note_on', channel=0, note=69, velocity=104, time=12),\n",
       "  Message('note_on', channel=0, note=69, velocity=0, time=48),\n",
       "  Message('note_on', channel=0, note=71, velocity=104, time=12),\n",
       "  Message('note_on', channel=0, note=71, velocity=0, time=48),\n",
       "  Message('note_on', channel=0, note=72, velocity=104, time=12),\n",
       "  Message('note_on', channel=0, note=72, velocity=0, time=48),\n",
       "  Message('note_on', channel=0, note=74, velocity=104, time=12),\n",
       "  Message('note_on', channel=0, note=74, velocity=0, time=48),\n",
       "  Message('note_on', channel=0, note=76, velocity=104, time=12),\n",
       "  Message('note_on', channel=0, note=76, velocity=0, time=48),\n",
       "  Message('note_on', channel=0, note=74, velocity=104, time=12),\n",
       "  Message('note_on', channel=0, note=74, velocity=0, time=48),\n",
       "  Message('note_on', channel=0, note=72, velocity=104, time=12),\n",
       "  Message('note_on', channel=0, note=72, velocity=0, time=48),\n",
       "  Message('note_on', channel=0, note=71, velocity=104, time=12),\n",
       "  Message('note_on', channel=0, note=71, velocity=0, time=48),\n",
       "  Message('note_on', channel=0, note=69, velocity=104, time=12),\n",
       "  Message('note_on', channel=0, note=69, velocity=0, time=48),\n",
       "  Message('note_on', channel=0, note=71, velocity=104, time=12),\n",
       "  Message('note_on', channel=0, note=71, velocity=0, time=48),\n",
       "  Message('note_on', channel=0, note=67, velocity=104, time=12),\n",
       "  Message('note_on', channel=0, note=67, velocity=0, time=48),\n",
       "  Message('note_on', channel=0, note=66, velocity=104, time=12),\n",
       "  Message('note_on', channel=0, note=66, velocity=0, time=48),\n",
       "  Message('note_on', channel=0, note=67, velocity=104, time=12),\n",
       "  Message('note_on', channel=0, note=67, velocity=0, time=48),\n",
       "  Message('note_on', channel=0, note=69, velocity=104, time=12),\n",
       "  Message('note_on', channel=0, note=69, velocity=0, time=48),\n",
       "  Message('note_on', channel=0, note=62, velocity=104, time=12),\n",
       "  Message('note_on', channel=0, note=62, velocity=0, time=48),\n",
       "  Message('note_on', channel=0, note=66, velocity=104, time=12),\n",
       "  Message('note_on', channel=0, note=66, velocity=0, time=48),\n",
       "  Message('note_on', channel=0, note=69, velocity=104, time=12),\n",
       "  Message('note_on', channel=0, note=69, velocity=0, time=48),\n",
       "  Message('note_on', channel=0, note=72, velocity=104, time=12),\n",
       "  Message('note_on', channel=0, note=72, velocity=0, time=48),\n",
       "  Message('note_on', channel=0, note=71, velocity=104, time=12),\n",
       "  Message('note_on', channel=0, note=71, velocity=0, time=48),\n",
       "  Message('note_on', channel=0, note=69, velocity=104, time=12),\n",
       "  Message('note_on', channel=0, note=69, velocity=0, time=48),\n",
       "  Message('note_on', channel=0, note=71, velocity=104, time=12),\n",
       "  Message('note_on', channel=0, note=71, velocity=0, time=48),\n",
       "  Message('note_on', channel=0, note=67, velocity=104, time=12),\n",
       "  Message('note_on', channel=0, note=67, velocity=0, time=48),\n",
       "  Message('note_on', channel=0, note=69, velocity=104, time=12),\n",
       "  Message('note_on', channel=0, note=69, velocity=0, time=48),\n",
       "  Message('note_on', channel=0, note=71, velocity=104, time=12),\n",
       "  Message('note_on', channel=0, note=71, velocity=0, time=48),\n",
       "  Message('note_on', channel=0, note=74, velocity=104, time=12),\n",
       "  Message('note_on', channel=0, note=74, velocity=0, time=48),\n",
       "  Message('note_on', channel=0, note=72, velocity=104, time=12),\n",
       "  Message('note_on', channel=0, note=72, velocity=0, time=48),\n",
       "  Message('note_on', channel=0, note=72, velocity=104, time=12),\n",
       "  Message('note_on', channel=0, note=72, velocity=0, time=48),\n",
       "  Message('note_on', channel=0, note=76, velocity=104, time=12),\n",
       "  Message('note_on', channel=0, note=76, velocity=0, time=48),\n",
       "  Message('note_on', channel=0, note=74, velocity=104, time=12),\n",
       "  Message('note_on', channel=0, note=74, velocity=0, time=48),\n",
       "  Message('note_on', channel=0, note=74, velocity=104, time=12),\n",
       "  Message('note_on', channel=0, note=74, velocity=0, time=48),\n",
       "  Message('note_on', channel=0, note=79, velocity=104, time=12),\n",
       "  Message('note_on', channel=0, note=79, velocity=0, time=48),\n",
       "  Message('note_on', channel=0, note=78, velocity=104, time=12),\n",
       "  Message('note_on', channel=0, note=78, velocity=0, time=48),\n",
       "  Message('note_on', channel=0, note=79, velocity=104, time=12),\n",
       "  Message('note_on', channel=0, note=79, velocity=0, time=48),\n",
       "  Message('note_on', channel=0, note=74, velocity=104, time=12),\n",
       "  Message('note_on', channel=0, note=74, velocity=0, time=48),\n",
       "  Message('note_on', channel=0, note=71, velocity=104, time=12),\n",
       "  Message('note_on', channel=0, note=71, velocity=0, time=48),\n",
       "  Message('note_on', channel=0, note=67, velocity=104, time=12),\n",
       "  Message('note_on', channel=0, note=67, velocity=0, time=48),\n",
       "  Message('note_on', channel=0, note=69, velocity=104, time=12),\n",
       "  Message('note_on', channel=0, note=69, velocity=0, time=48),\n",
       "  Message('note_on', channel=0, note=71, velocity=104, time=12),\n",
       "  Message('note_on', channel=0, note=71, velocity=0, time=48),\n",
       "  Message('note_on', channel=0, note=64, velocity=104, time=12),\n",
       "  Message('note_on', channel=0, note=64, velocity=0, time=48),\n",
       "  Message('note_on', channel=0, note=74, velocity=104, time=12),\n",
       "  Message('note_on', channel=0, note=74, velocity=0, time=48),\n",
       "  Message('note_on', channel=0, note=72, velocity=104, time=12),\n",
       "  Message('note_on', channel=0, note=72, velocity=0, time=48),\n",
       "  Message('note_on', channel=0, note=71, velocity=104, time=12),\n",
       "  Message('note_on', channel=0, note=71, velocity=0, time=48),\n",
       "  Message('note_on', channel=0, note=69, velocity=104, time=12),\n",
       "  Message('note_on', channel=0, note=69, velocity=0, time=48),\n",
       "  Message('note_on', channel=0, note=67, velocity=104, time=12),\n",
       "  Message('note_on', channel=0, note=67, velocity=0, time=48),\n",
       "  Message('note_on', channel=0, note=62, velocity=104, time=12),\n",
       "  Message('note_on', channel=0, note=62, velocity=0, time=48),\n",
       "  Message('note_on', channel=0, note=67, velocity=104, time=12),\n",
       "  Message('note_on', channel=0, note=67, velocity=0, time=48),\n",
       "  Message('note_on', channel=0, note=66, velocity=104, time=12),\n",
       "  Message('note_on', channel=0, note=66, velocity=0, time=48),\n",
       "  Message('note_on', channel=0, note=67, velocity=104, time=12),\n",
       "  Message('note_on', channel=0, note=67, velocity=0, time=48),\n",
       "  Message('note_on', channel=0, note=71, velocity=104, time=12),\n",
       "  Message('note_on', channel=0, note=71, velocity=0, time=48),\n",
       "  Message('note_on', channel=0, note=74, velocity=104, time=12),\n",
       "  Message('note_on', channel=0, note=74, velocity=0, time=48),\n",
       "  Message('note_on', channel=0, note=79, velocity=104, time=12),\n",
       "  Message('note_on', channel=0, note=79, velocity=0, time=48),\n",
       "  Message('note_on', channel=0, note=74, velocity=104, time=12),\n",
       "  Message('note_on', channel=0, note=74, velocity=0, time=48),\n",
       "  Message('note_on', channel=0, note=71, velocity=104, time=12),\n",
       "  Message('note_on', channel=0, note=71, velocity=0, time=48),\n",
       "  Message('note_on', channel=0, note=67, velocity=104, time=12),\n",
       "  Message('note_on', channel=0, note=67, velocity=0, time=168),\n",
       "  Message('note_on', channel=0, note=66, velocity=94, time=13),\n",
       "  Message('note_on', channel=0, note=69, velocity=94, time=0),\n",
       "  Message('note_on', channel=0, note=66, velocity=0, time=336),\n",
       "  Message('note_on', channel=0, note=69, velocity=0, time=0),\n",
       "  Message('note_on', channel=0, note=68, velocity=94, time=24),\n",
       "  Message('note_on', channel=0, note=71, velocity=94, time=0),\n",
       "  Message('note_on', channel=0, note=62, velocity=94, time=0),\n",
       "  Message('note_on', channel=0, note=68, velocity=0, time=168),\n",
       "  Message('note_on', channel=0, note=71, velocity=0, time=0),\n",
       "  Message('note_on', channel=0, note=62, velocity=0, time=0),\n",
       "  Message('note_on', channel=0, note=72, velocity=94, time=12),\n",
       "  Message('note_on', channel=0, note=64, velocity=94, time=0),\n",
       "  Message('note_on', channel=0, note=69, velocity=94, time=0),\n",
       "  Message('note_on', channel=0, note=72, velocity=0, time=336),\n",
       "  Message('note_on', channel=0, note=64, velocity=0, time=0),\n",
       "  Message('note_on', channel=0, note=69, velocity=0, time=0),\n",
       "  Message('note_on', channel=0, note=69, velocity=94, time=24),\n",
       "  Message('note_on', channel=0, note=64, velocity=94, time=0),\n",
       "  Message('note_on', channel=0, note=72, velocity=94, time=0),\n",
       "  Message('note_on', channel=0, note=69, velocity=0, time=168),\n",
       "  Message('note_on', channel=0, note=64, velocity=0, time=0),\n",
       "  Message('note_on', channel=0, note=72, velocity=0, time=0),\n",
       "  Message('note_on', channel=0, note=71, velocity=94, time=12),\n",
       "  Message('note_on', channel=0, note=71, velocity=0, time=276),\n",
       "  Message('note_on', channel=0, note=72, velocity=94, time=24),\n",
       "  Message('note_on', channel=0, note=72, velocity=0, time=24),\n",
       "  Message('note_on', channel=0, note=74, velocity=94, time=6),\n",
       "  Message('note_on', channel=0, note=74, velocity=0, time=24),\n",
       "  Message('note_on', channel=0, note=71, velocity=94, time=6),\n",
       "  Message('note_on', channel=0, note=68, velocity=94, time=0),\n",
       "  Message('note_on', channel=0, note=71, velocity=0, time=168),\n",
       "  Message('note_on', channel=0, note=68, velocity=0, time=0),\n",
       "  Message('note_on', channel=0, note=69, velocity=94, time=12),\n",
       "  Message('note_on', channel=0, note=69, velocity=0, time=168),\n",
       "  Message('note_on', channel=0, note=69, velocity=94, time=12),\n",
       "  Message('note_on', channel=0, note=69, velocity=0, time=48),\n",
       "  Message('note_on', channel=0, note=76, velocity=94, time=12),\n",
       "  Message('note_on', channel=0, note=76, velocity=0, time=48),\n",
       "  Message('note_on', channel=0, note=74, velocity=94, time=12),\n",
       "  Message('note_on', channel=0, note=74, velocity=0, time=48),\n",
       "  Message('note_on', channel=0, note=74, velocity=94, time=12),\n",
       "  Message('note_on', channel=0, note=74, velocity=0, time=48),\n",
       "  Message('note_on', channel=0, note=77, velocity=94, time=12),\n",
       "  Message('note_on', channel=0, note=77, velocity=0, time=48),\n",
       "  Message('note_on', channel=0, note=76, velocity=94, time=12),\n",
       "  Message('note_on', channel=0, note=76, velocity=0, time=48),\n",
       "  Message('note_on', channel=0, note=76, velocity=94, time=12),\n",
       "  Message('note_on', channel=0, note=76, velocity=0, time=48),\n",
       "  Message('note_on', channel=0, note=81, velocity=94, time=12),\n",
       "  Message('note_on', channel=0, note=81, velocity=0, time=48),\n",
       "  Message('note_on', channel=0, note=80, velocity=94, time=12),\n",
       "  Message('note_on', channel=0, note=80, velocity=0, time=48),\n",
       "  Message('note_on', channel=0, note=81, velocity=94, time=12),\n",
       "  Message('note_on', channel=0, note=81, velocity=0, time=48),\n",
       "  Message('note_on', channel=0, note=76, velocity=94, time=12),\n",
       "  Message('note_on', channel=0, note=76, velocity=0, time=48),\n",
       "  Message('note_on', channel=0, note=72, velocity=94, time=12),\n",
       "  Message('note_on', channel=0, note=72, velocity=0, time=48),\n",
       "  Message('note_on', channel=0, note=69, velocity=94, time=12),\n",
       "  Message('note_on', channel=0, note=69, velocity=0, time=48),\n",
       "  Message('note_on', channel=0, note=71, velocity=94, time=12),\n",
       "  Message('note_on', channel=0, note=71, velocity=0, time=48),\n",
       "  Message('note_on', channel=0, note=72, velocity=94, time=12),\n",
       "  Message('note_on', channel=0, note=72, velocity=0, time=48),\n",
       "  Message('note_on', channel=0, note=77, velocity=94, time=12),\n",
       "  Message('note_on', channel=0, note=77, velocity=0, time=48),\n",
       "  Message('note_on', channel=0, note=76, velocity=94, time=12),\n",
       "  Message('note_on', channel=0, note=76, velocity=0, time=48),\n",
       "  Message('note_on', channel=0, note=74, velocity=94, time=12),\n",
       "  Message('note_on', channel=0, note=74, velocity=0, time=48),\n",
       "  Message('note_on', channel=0, note=72, velocity=94, time=12),\n",
       "  Message('note_on', channel=0, note=72, velocity=0, time=48),\n",
       "  Message('note_on', channel=0, note=71, velocity=94, time=12),\n",
       "  Message('note_on', channel=0, note=71, velocity=0, time=48),\n",
       "  Message('note_on', channel=0, note=69, velocity=94, time=12),\n",
       "  Message('note_on', channel=0, note=69, velocity=0, time=48),\n",
       "  Message('note_on', channel=0, note=64, velocity=94, time=12),\n",
       "  Message('note_on', channel=0, note=64, velocity=0, time=48),\n",
       "  Message('note_on', channel=0, note=69, velocity=94, time=12),\n",
       "  Message('note_on', channel=0, note=69, velocity=0, time=48),\n",
       "  Message('note_on', channel=0, note=68, velocity=94, time=12),\n",
       "  Message('note_on', channel=0, note=62, velocity=94, time=0),\n",
       "  Message('note_on', channel=0, note=68, velocity=0, time=48),\n",
       "  Message('note_on', channel=0, note=62, velocity=0, time=0),\n",
       "  Message('note_on', channel=0, note=64, velocity=94, time=12),\n",
       "  Message('note_on', channel=0, note=69, velocity=94, time=0),\n",
       "  Message('note_on', channel=0, note=72, velocity=94, time=0),\n",
       "  Message('note_on', channel=0, note=64, velocity=0, time=336),\n",
       "  Message('note_on', channel=0, note=69, velocity=0, time=0),\n",
       "  Message('note_on', channel=0, note=72, velocity=0, time=0),\n",
       "  Message('note_on', channel=0, note=74, velocity=94, time=24),\n",
       "  Message('note_on', channel=0, note=62, velocity=94, time=0),\n",
       "  Message('note_on', channel=0, note=67, velocity=94, time=0),\n",
       "  Message('note_on', channel=0, note=74, velocity=0, time=168),\n",
       "  Message('note_on', channel=0, note=62, velocity=0, time=0),\n",
       "  Message('note_on', channel=0, note=67, velocity=0, time=0),\n",
       "  Message('note_on', channel=0, note=72, velocity=94, time=12),\n",
       "  Message('note_on', channel=0, note=76, velocity=94, time=0),\n",
       "  Message('note_on', channel=0, note=72, velocity=0, time=336),\n",
       "  Message('note_on', channel=0, note=76, velocity=0, time=0),\n",
       "  Message('note_on', channel=0, note=72, velocity=94, time=24),\n",
       "  Message('note_on', channel=0, note=76, velocity=94, time=0),\n",
       "  Message('note_on', channel=0, note=67, velocity=94, time=0),\n",
       "  Message('note_on', channel=0, note=72, velocity=0, time=168),\n",
       "  Message('note_on', channel=0, note=76, velocity=0, time=0),\n",
       "  Message('note_on', channel=0, note=67, velocity=0, time=0),\n",
       "  Message('note_on', channel=0, note=74, velocity=94, time=12),\n",
       "  Message('note_on', channel=0, note=74, velocity=0, time=276),\n",
       "  Message('note_on', channel=0, note=76, velocity=94, time=24),\n",
       "  Message('note_on', channel=0, note=76, velocity=0, time=24),\n",
       "  Message('note_on', channel=0, note=77, velocity=94, time=6),\n",
       "  Message('note_on', channel=0, note=77, velocity=0, time=24),\n",
       "  Message('note_on', channel=0, note=74, velocity=94, time=6),\n",
       "  Message('note_on', channel=0, note=74, velocity=0, time=168),\n",
       "  Message('note_on', channel=0, note=64, velocity=94, time=12),\n",
       "  Message('note_on', channel=0, note=72, velocity=94, time=0),\n",
       "  Message('note_on', channel=0, note=64, velocity=0, time=168),\n",
       "  Message('note_on', channel=0, note=72, velocity=0, time=0),\n",
       "  Message('note_on', channel=0, note=72, velocity=94, time=12),\n",
       "  Message('note_on', channel=0, note=72, velocity=0, time=48),\n",
       "  Message('note_on', channel=0, note=76, velocity=94, time=12),\n",
       "  Message('note_on', channel=0, note=76, velocity=0, time=48),\n",
       "  Message('note_on', channel=0, note=72, velocity=94, time=12),\n",
       "  Message('note_on', channel=0, note=72, velocity=0, time=48),\n",
       "  Message('note_on', channel=0, note=67, velocity=94, time=12),\n",
       "  Message('note_on', channel=0, note=67, velocity=0, time=48),\n",
       "  Message('note_on', channel=0, note=69, velocity=94, time=12),\n",
       "  Message('note_on', channel=0, note=69, velocity=0, time=48),\n",
       "  Message('note_on', channel=0, note=70, velocity=94, time=12),\n",
       "  Message('note_on', channel=0, note=70, velocity=0, time=48),\n",
       "  Message('note_on', channel=0, note=69, velocity=94, time=12),\n",
       "  Message('note_on', channel=0, note=69, velocity=0, time=48),\n",
       "  Message('note_on', channel=0, note=72, velocity=94, time=12),\n",
       "  Message('note_on', channel=0, note=72, velocity=0, time=48),\n",
       "  Message('note_on', channel=0, note=71, velocity=94, time=12),\n",
       "  Message('note_on', channel=0, note=71, velocity=0, time=48),\n",
       "  Message('note_on', channel=0, note=72, velocity=94, time=12),\n",
       "  Message('note_on', channel=0, note=72, velocity=0, time=48),\n",
       "  Message('note_on', channel=0, note=69, velocity=94, time=12),\n",
       "  Message('note_on', channel=0, note=69, velocity=0, time=48),\n",
       "  Message('note_on', channel=0, note=66, velocity=94, time=12),\n",
       "  Message('note_on', channel=0, note=66, velocity=0, time=48),\n",
       "  Message('note_on', channel=0, note=62, velocity=94, time=12),\n",
       "  Message('note_on', channel=0, note=62, velocity=0, time=48),\n",
       "  Message('note_on', channel=0, note=64, velocity=94, time=12),\n",
       "  Message('note_on', channel=0, note=64, velocity=0, time=48),\n",
       "  Message('note_on', channel=0, note=66, velocity=94, time=12),\n",
       "  Message('note_on', channel=0, note=66, velocity=0, time=48),\n",
       "  Message('note_on', channel=0, note=64, velocity=94, time=12),\n",
       "  Message('note_on', channel=0, note=64, velocity=0, time=48),\n",
       "  Message('note_on', channel=0, note=60, velocity=94, time=12),\n",
       "  Message('note_on', channel=0, note=60, velocity=0, time=48),\n",
       "  Message('note_on', channel=0, note=62, velocity=94, time=12),\n",
       "  Message('note_on', channel=0, note=62, velocity=0, time=48),\n",
       "  Message('note_on', channel=0, note=64, velocity=94, time=12),\n",
       "  Message('note_on', channel=0, note=64, velocity=0, time=48),\n",
       "  Message('note_on', channel=0, note=67, velocity=94, time=12),\n",
       "  Message('note_on', channel=0, note=67, velocity=0, time=48),\n",
       "  Message('note_on', channel=0, note=66, velocity=94, time=12),\n",
       "  Message('note_on', channel=0, note=66, velocity=0, time=48),\n",
       "  Message('note_on', channel=0, note=67, velocity=94, time=12),\n",
       "  Message('note_on', channel=0, note=67, velocity=0, time=48),\n",
       "  Message('note_on', channel=0, note=71, velocity=94, time=12),\n",
       "  Message('note_on', channel=0, note=71, velocity=0, time=48),\n",
       "  Message('note_on', channel=0, note=69, velocity=94, time=12),\n",
       "  Message('note_on', channel=0, note=69, velocity=0, time=48),\n",
       "  Message('note_on', channel=0, note=67, velocity=94, time=12),\n",
       "  Message('note_on', channel=0, note=71, velocity=94, time=0),\n",
       "  Message('note_on', channel=0, note=67, velocity=0, time=336),\n",
       "  Message('note_on', channel=0, note=71, velocity=0, time=0),\n",
       "  Message('note_on', channel=0, note=64, velocity=94, time=24),\n",
       "  Message('note_on', channel=0, note=60, velocity=94, time=0),\n",
       "  Message('note_on', channel=0, note=67, velocity=94, time=0),\n",
       "  Message('note_on', channel=0, note=72, velocity=94, time=0),\n",
       "  Message('note_on', channel=0, note=64, velocity=0, time=168),\n",
       "  Message('note_on', channel=0, note=60, velocity=0, time=0),\n",
       "  Message('note_on', channel=0, note=67, velocity=0, time=0),\n",
       "  Message('note_on', channel=0, note=72, velocity=0, time=0),\n",
       "  Message('note_on', channel=0, note=74, velocity=94, time=12),\n",
       "  Message('note_on', channel=0, note=67, velocity=94, time=0),\n",
       "  Message('note_on', channel=0, note=62, velocity=94, time=0),\n",
       "  Message('note_on', channel=0, note=74, velocity=0, time=336),\n",
       "  Message('note_on', channel=0, note=67, velocity=0, time=0),\n",
       "  Message('note_on', channel=0, note=62, velocity=0, time=0),\n",
       "  Message('note_on', channel=0, note=74, velocity=94, time=24),\n",
       "  Message('note_on', channel=0, note=67, velocity=94, time=0),\n",
       "  Message('note_on', channel=0, note=62, velocity=94, time=0),\n",
       "  Message('note_on', channel=0, note=74, velocity=0, time=168),\n",
       "  Message('note_on', channel=0, note=67, velocity=0, time=0),\n",
       "  Message('note_on', channel=0, note=62, velocity=0, time=0),\n",
       "  Message('note_on', channel=0, note=69, velocity=94, time=12),\n",
       "  Message('note_on', channel=0, note=64, velocity=94, time=0),\n",
       "  Message('note_on', channel=0, note=72, velocity=94, time=0),\n",
       "  Message('note_on', channel=0, note=69, velocity=0, time=168),\n",
       "  Message('note_on', channel=0, note=64, velocity=0, time=0),\n",
       "  Message('note_on', channel=0, note=72, velocity=0, time=0),\n",
       "  Message('note_on', channel=0, note=71, velocity=94, time=12),\n",
       "  Message('note_on', channel=0, note=71, velocity=0, time=336),\n",
       "  Message('note_on', channel=0, note=66, velocity=94, time=24),\n",
       "  Message('note_on', channel=0, note=69, velocity=94, time=0),\n",
       "  Message('note_on', channel=0, note=66, velocity=0, time=48),\n",
       "  Message('note_on', channel=0, note=69, velocity=0, time=0),\n",
       "  Message('note_on', channel=0, note=62, velocity=94, time=12),\n",
       "  Message('note_on', channel=0, note=62, velocity=0, time=48),\n",
       "  Message('note_on', channel=0, note=64, velocity=94, time=12),\n",
       "  Message('note_on', channel=0, note=64, velocity=0, time=48),\n",
       "  Message('note_on', channel=0, note=66, velocity=94, time=12),\n",
       "  Message('note_on', channel=0, note=66, velocity=0, time=48),\n",
       "  Message('note_on', channel=0, note=69, velocity=94, time=12),\n",
       "  Message('note_on', channel=0, note=69, velocity=0, time=48),\n",
       "  Message('note_on', channel=0, note=67, velocity=94, time=12),\n",
       "  Message('note_on', channel=0, note=67, velocity=0, time=48),\n",
       "  Message('note_on', channel=0, note=69, velocity=94, time=12),\n",
       "  Message('note_on', channel=0, note=69, velocity=0, time=48),\n",
       "  Message('note_on', channel=0, note=72, velocity=94, time=12),\n",
       "  Message('note_on', channel=0, note=72, velocity=0, time=48),\n",
       "  Message('note_on', channel=0, note=71, velocity=94, time=12),\n",
       "  Message('note_on', channel=0, note=71, velocity=0, time=48),\n",
       "  Message('note_on', channel=0, note=72, velocity=94, time=12),\n",
       "  Message('note_on', channel=0, note=72, velocity=0, time=48),\n",
       "  Message('note_on', channel=0, note=69, velocity=94, time=12),\n",
       "  Message('note_on', channel=0, note=69, velocity=0, time=48),\n",
       "  Message('note_on', channel=0, note=66, velocity=94, time=12),\n",
       "  Message('note_on', channel=0, note=66, velocity=0, time=48),\n",
       "  Message('note_on', channel=0, note=62, velocity=94, time=12),\n",
       "  Message('note_on', channel=0, note=62, velocity=0, time=48),\n",
       "  Message('note_on', channel=0, note=66, velocity=94, time=12),\n",
       "  Message('note_on', channel=0, note=66, velocity=0, time=48),\n",
       "  Message('note_on', channel=0, note=69, velocity=94, time=12),\n",
       "  Message('note_on', channel=0, note=69, velocity=0, time=48),\n",
       "  Message('note_on', channel=0, note=72, velocity=94, time=12),\n",
       "  Message('note_on', channel=0, note=72, velocity=0, time=48),\n",
       "  Message('note_on', channel=0, note=71, velocity=94, time=12),\n",
       "  Message('note_on', channel=0, note=71, velocity=0, time=48),\n",
       "  Message('note_on', channel=0, note=69, velocity=94, time=12),\n",
       "  Message('note_on', channel=0, note=69, velocity=0, time=48),\n",
       "  Message('note_on', channel=0, note=67, velocity=94, time=12),\n",
       "  Message('note_on', channel=0, note=71, velocity=94, time=0),\n",
       "  Message('note_on', channel=0, note=67, velocity=0, time=336),\n",
       "  Message('note_on', channel=0, note=71, velocity=0, time=0),\n",
       "  Message('note_on', channel=0, note=72, velocity=94, time=24),\n",
       "  Message('note_on', channel=0, note=67, velocity=94, time=0),\n",
       "  Message('note_on', channel=0, note=64, velocity=94, time=0),\n",
       "  Message('note_on', channel=0, note=60, velocity=94, time=0),\n",
       "  Message('note_on', channel=0, note=72, velocity=0, time=168),\n",
       "  Message('note_on', channel=0, note=67, velocity=0, time=0),\n",
       "  Message('note_on', channel=0, note=64, velocity=0, time=0),\n",
       "  Message('note_on', channel=0, note=60, velocity=0, time=0),\n",
       "  Message('note_on', channel=0, note=74, velocity=94, time=12),\n",
       "  Message('note_on', channel=0, note=62, velocity=94, time=0),\n",
       "  Message('note_on', channel=0, note=67, velocity=94, time=0),\n",
       "  Message('note_on', channel=0, note=74, velocity=0, time=336),\n",
       "  Message('note_on', channel=0, note=62, velocity=0, time=0),\n",
       "  Message('note_on', channel=0, note=67, velocity=0, time=0),\n",
       "  Message('note_on', channel=0, note=67, velocity=94, time=24),\n",
       "  Message('note_on', channel=0, note=64, velocity=94, time=0),\n",
       "  Message('note_on', channel=0, note=71, velocity=94, time=0),\n",
       "  Message('note_on', channel=0, note=67, velocity=0, time=168),\n",
       "  Message('note_on', channel=0, note=64, velocity=0, time=0),\n",
       "  Message('note_on', channel=0, note=71, velocity=0, time=0),\n",
       "  Message('note_on', channel=0, note=69, velocity=94, time=12),\n",
       "  Message('note_on', channel=0, note=69, velocity=0, time=96),\n",
       "  Message('note_on', channel=0, note=71, velocity=94, time=24),\n",
       "  Message('note_on', channel=0, note=71, velocity=0, time=24),\n",
       "  Message('note_on', channel=0, note=72, velocity=94, time=6),\n",
       "  Message('note_on', channel=0, note=72, velocity=0, time=24),\n",
       "  Message('note_on', channel=0, note=71, velocity=94, time=6),\n",
       "  Message('note_on', channel=0, note=71, velocity=0, time=168),\n",
       "  Message('note_on', channel=0, note=69, velocity=94, time=12),\n",
       "  Message('note_on', channel=0, note=69, velocity=0, time=168),\n",
       "  Message('note_on', channel=0, note=67, velocity=94, time=12),\n",
       "  Message('note_on', channel=0, note=67, velocity=0, time=48),\n",
       "  Message('note_on', channel=0, note=71, velocity=94, time=12),\n",
       "  Message('note_on', channel=0, note=71, velocity=0, time=48),\n",
       "  Message('note_on', channel=0, note=74, velocity=94, time=12),\n",
       "  Message('note_on', channel=0, note=74, velocity=0, time=48),\n",
       "  Message('note_on', channel=0, note=79, velocity=94, time=12),\n",
       "  Message('note_on', channel=0, note=79, velocity=0, time=48),\n",
       "  Message('note_on', channel=0, note=74, velocity=94, time=12),\n",
       "  Message('note_on', channel=0, note=74, velocity=0, time=48),\n",
       "  Message('note_on', channel=0, note=71, velocity=94, time=12),\n",
       "  Message('note_on', channel=0, note=71, velocity=0, time=48),\n",
       "  Message('note_on', channel=0, note=67, velocity=94, time=12),\n",
       "  Message('note_on', channel=0, note=67, velocity=0, time=48),\n",
       "  Message('note_on', channel=0, note=71, velocity=94, time=12),\n",
       "  Message('note_on', channel=0, note=71, velocity=0, time=48),\n",
       "  Message('note_on', channel=0, note=74, velocity=94, time=12),\n",
       "  Message('note_on', channel=0, note=74, velocity=0, time=48),\n",
       "  Message('note_on', channel=0, note=77, velocity=94, time=12),\n",
       "  Message('note_on', channel=0, note=77, velocity=0, time=48),\n",
       "  Message('note_on', channel=0, note=74, velocity=94, time=12),\n",
       "  Message('note_on', channel=0, note=74, velocity=0, time=48),\n",
       "  Message('note_on', channel=0, note=71, velocity=94, time=12),\n",
       "  Message('note_on', channel=0, note=71, velocity=0, time=48),\n",
       "  Message('note_on', channel=0, note=67, velocity=94, time=12),\n",
       "  Message('note_on', channel=0, note=67, velocity=0, time=48),\n",
       "  Message('note_on', channel=0, note=71, velocity=94, time=12),\n",
       "  Message('note_on', channel=0, note=71, velocity=0, time=48),\n",
       "  Message('note_on', channel=0, note=74, velocity=94, time=12),\n",
       "  Message('note_on', channel=0, note=74, velocity=0, time=48),\n",
       "  Message('note_on', channel=0, note=76, velocity=94, time=12),\n",
       "  Message('note_on', channel=0, note=76, velocity=0, time=48),\n",
       "  Message('note_on', channel=0, note=72, velocity=94, time=12),\n",
       "  Message('note_on', channel=0, note=72, velocity=0, time=48),\n",
       "  Message('note_on', channel=0, note=69, velocity=94, time=12),\n",
       "  Message('note_on', channel=0, note=69, velocity=0, time=48),\n",
       "  Message('note_on', channel=0, note=66, velocity=94, time=12),\n",
       "  Message('note_on', channel=0, note=66, velocity=0, time=48),\n",
       "  Message('note_on', channel=0, note=69, velocity=94, time=12),\n",
       "  Message('note_on', channel=0, note=69, velocity=0, time=48),\n",
       "  Message('note_on', channel=0, note=72, velocity=94, time=12),\n",
       "  Message('note_on', channel=0, note=72, velocity=0, time=48),\n",
       "  Message('note_on', channel=0, note=74, velocity=94, time=12),\n",
       "  Message('note_on', channel=0, note=74, velocity=0, time=48),\n",
       "  Message('note_on', channel=0, note=71, velocity=94, time=12),\n",
       "  Message('note_on', channel=0, note=71, velocity=0, time=48),\n",
       "  Message('note_on', channel=0, note=67, velocity=94, time=12),\n",
       "  Message('note_on', channel=0, note=67, velocity=0, time=48),\n",
       "  Message('note_on', channel=0, note=64, velocity=94, time=12),\n",
       "  Message('note_on', channel=0, note=64, velocity=0, time=48),\n",
       "  Message('note_on', channel=0, note=67, velocity=94, time=12),\n",
       "  Message('note_on', channel=0, note=67, velocity=0, time=48),\n",
       "  Message('note_on', channel=0, note=71, velocity=94, time=12),\n",
       "  Message('note_on', channel=0, note=71, velocity=0, time=48),\n",
       "  Message('note_on', channel=0, note=72, velocity=94, time=12),\n",
       "  Message('note_on', channel=0, note=72, velocity=0, time=48),\n",
       "  Message('note_on', channel=0, note=69, velocity=94, time=12),\n",
       "  Message('note_on', channel=0, note=69, velocity=0, time=48),\n",
       "  Message('note_on', channel=0, note=66, velocity=94, time=12),\n",
       "  Message('note_on', channel=0, note=66, velocity=0, time=48),\n",
       "  Message('note_on', channel=0, note=62, velocity=94, time=12),\n",
       "  Message('note_on', channel=0, note=62, velocity=0, time=48),\n",
       "  Message('note_on', channel=0, note=66, velocity=94, time=12),\n",
       "  Message('note_on', channel=0, note=66, velocity=0, time=48),\n",
       "  Message('note_on', channel=0, note=69, velocity=94, time=12),\n",
       "  Message('note_on', channel=0, note=69, velocity=0, time=48),\n",
       "  Message('note_on', channel=0, note=72, velocity=94, time=12),\n",
       "  Message('note_on', channel=0, note=72, velocity=0, time=48),\n",
       "  Message('note_on', channel=0, note=71, velocity=94, time=12),\n",
       "  Message('note_on', channel=0, note=71, velocity=0, time=48),\n",
       "  Message('note_on', channel=0, note=69, velocity=94, time=12),\n",
       "  Message('note_on', channel=0, note=69, velocity=0, time=48),\n",
       "  Message('note_on', channel=0, note=71, velocity=94, time=12),\n",
       "  Message('note_on', channel=0, note=71, velocity=0, time=48),\n",
       "  Message('note_on', channel=0, note=67, velocity=94, time=12),\n",
       "  Message('note_on', channel=0, note=67, velocity=0, time=48),\n",
       "  Message('note_on', channel=0, note=69, velocity=94, time=12),\n",
       "  Message('note_on', channel=0, note=69, velocity=0, time=48),\n",
       "  Message('note_on', channel=0, note=71, velocity=94, time=12),\n",
       "  Message('note_on', channel=0, note=71, velocity=0, time=48),\n",
       "  Message('note_on', channel=0, note=74, velocity=94, time=12),\n",
       "  Message('note_on', channel=0, note=74, velocity=0, time=48),\n",
       "  Message('note_on', channel=0, note=72, velocity=94, time=12),\n",
       "  Message('note_on', channel=0, note=72, velocity=0, time=48),\n",
       "  Message('note_on', channel=0, note=72, velocity=94, time=12),\n",
       "  Message('note_on', channel=0, note=72, velocity=0, time=48),\n",
       "  Message('note_on', channel=0, note=76, velocity=94, time=12),\n",
       "  Message('note_on', channel=0, note=76, velocity=0, time=48),\n",
       "  Message('note_on', channel=0, note=74, velocity=94, time=12),\n",
       "  Message('note_on', channel=0, note=74, velocity=0, time=48),\n",
       "  Message('note_on', channel=0, note=74, velocity=94, time=12),\n",
       "  Message('note_on', channel=0, note=74, velocity=0, time=48),\n",
       "  Message('note_on', channel=0, note=79, velocity=94, time=12),\n",
       "  Message('note_on', channel=0, note=79, velocity=0, time=48),\n",
       "  Message('note_on', channel=0, note=78, velocity=94, time=12),\n",
       "  Message('note_on', channel=0, note=78, velocity=0, time=48),\n",
       "  Message('note_on', channel=0, note=79, velocity=94, time=12),\n",
       "  Message('note_on', channel=0, note=79, velocity=0, time=48),\n",
       "  Message('note_on', channel=0, note=74, velocity=94, time=12),\n",
       "  Message('note_on', channel=0, note=74, velocity=0, time=48),\n",
       "  Message('note_on', channel=0, note=71, velocity=94, time=12),\n",
       "  Message('note_on', channel=0, note=71, velocity=0, time=48),\n",
       "  Message('note_on', channel=0, note=67, velocity=94, time=12),\n",
       "  Message('note_on', channel=0, note=67, velocity=0, time=48),\n",
       "  Message('note_on', channel=0, note=69, velocity=94, time=12),\n",
       "  Message('note_on', channel=0, note=69, velocity=0, time=48),\n",
       "  Message('note_on', channel=0, note=71, velocity=94, time=12),\n",
       "  Message('note_on', channel=0, note=71, velocity=0, time=48),\n",
       "  Message('note_on', channel=0, note=72, velocity=94, time=12),\n",
       "  Message('note_on', channel=0, note=72, velocity=0, time=48),\n",
       "  Message('note_on', channel=0, note=74, velocity=94, time=12),\n",
       "  Message('note_on', channel=0, note=74, velocity=0, time=48),\n",
       "  Message('note_on', channel=0, note=76, velocity=94, time=12),\n",
       "  Message('note_on', channel=0, note=76, velocity=0, time=48),\n",
       "  Message('note_on', channel=0, note=74, velocity=94, time=12),\n",
       "  Message('note_on', channel=0, note=74, velocity=0, time=48),\n",
       "  Message('note_on', channel=0, note=72, velocity=94, time=12),\n",
       "  Message('note_on', channel=0, note=72, velocity=0, time=48),\n",
       "  Message('note_on', channel=0, note=71, velocity=94, time=12),\n",
       "  Message('note_on', channel=0, note=71, velocity=0, time=48),\n",
       "  Message('note_on', channel=0, note=69, velocity=94, time=12),\n",
       "  Message('note_on', channel=0, note=69, velocity=0, time=48),\n",
       "  Message('note_on', channel=0, note=71, velocity=94, time=12),\n",
       "  Message('note_on', channel=0, note=71, velocity=0, time=48),\n",
       "  Message('note_on', channel=0, note=67, velocity=94, time=12),\n",
       "  Message('note_on', channel=0, note=67, velocity=0, time=48),\n",
       "  Message('note_on', channel=0, note=66, velocity=94, time=12),\n",
       "  Message('note_on', channel=0, note=66, velocity=0, time=48),\n",
       "  Message('note_on', channel=0, note=67, velocity=94, time=12),\n",
       "  Message('note_on', channel=0, note=67, velocity=0, time=48),\n",
       "  Message('note_on', channel=0, note=69, velocity=94, time=12),\n",
       "  Message('note_on', channel=0, note=69, velocity=0, time=48),\n",
       "  Message('note_on', channel=0, note=62, velocity=94, time=12),\n",
       "  Message('note_on', channel=0, note=62, velocity=0, time=48),\n",
       "  Message('note_on', channel=0, note=66, velocity=94, time=12),\n",
       "  Message('note_on', channel=0, note=66, velocity=0, time=48),\n",
       "  Message('note_on', channel=0, note=69, velocity=94, time=12),\n",
       "  Message('note_on', channel=0, note=69, velocity=0, time=48),\n",
       "  Message('note_on', channel=0, note=72, velocity=94, time=12),\n",
       "  Message('note_on', channel=0, note=72, velocity=0, time=48),\n",
       "  Message('note_on', channel=0, note=71, velocity=94, time=12),\n",
       "  Message('note_on', channel=0, note=71, velocity=0, time=48),\n",
       "  Message('note_on', channel=0, note=69, velocity=94, time=12),\n",
       "  Message('note_on', channel=0, note=69, velocity=0, time=48),\n",
       "  Message('note_on', channel=0, note=71, velocity=94, time=12),\n",
       "  Message('note_on', channel=0, note=71, velocity=0, time=48),\n",
       "  Message('note_on', channel=0, note=67, velocity=94, time=12),\n",
       "  Message('note_on', channel=0, note=67, velocity=0, time=48),\n",
       "  Message('note_on', channel=0, note=69, velocity=94, time=12),\n",
       "  Message('note_on', channel=0, note=69, velocity=0, time=48),\n",
       "  Message('note_on', channel=0, note=71, velocity=94, time=12),\n",
       "  Message('note_on', channel=0, note=71, velocity=0, time=48),\n",
       "  Message('note_on', channel=0, note=74, velocity=94, time=12),\n",
       "  Message('note_on', channel=0, note=74, velocity=0, time=48),\n",
       "  Message('note_on', channel=0, note=72, velocity=94, time=12),\n",
       "  Message('note_on', channel=0, note=72, velocity=0, time=48),\n",
       "  Message('note_on', channel=0, note=72, velocity=94, time=12),\n",
       "  Message('note_on', channel=0, note=72, velocity=0, time=48),\n",
       "  Message('note_on', channel=0, note=76, velocity=94, time=12),\n",
       "  Message('note_on', channel=0, note=76, velocity=0, time=48),\n",
       "  Message('note_on', channel=0, note=74, velocity=94, time=12),\n",
       "  Message('note_on', channel=0, note=74, velocity=0, time=48),\n",
       "  Message('note_on', channel=0, note=74, velocity=94, time=12),\n",
       "  Message('note_on', channel=0, note=74, velocity=0, time=48),\n",
       "  Message('note_on', channel=0, note=79, velocity=94, time=12),\n",
       "  Message('note_on', channel=0, note=79, velocity=0, time=48),\n",
       "  Message('note_on', channel=0, note=78, velocity=94, time=12),\n",
       "  Message('note_on', channel=0, note=78, velocity=0, time=48),\n",
       "  Message('note_on', channel=0, note=79, velocity=94, time=12),\n",
       "  Message('note_on', channel=0, note=79, velocity=0, time=48),\n",
       "  Message('note_on', channel=0, note=74, velocity=94, time=12),\n",
       "  Message('note_on', channel=0, note=74, velocity=0, time=48),\n",
       "  Message('note_on', channel=0, note=71, velocity=94, time=12),\n",
       "  Message('note_on', channel=0, note=71, velocity=0, time=48),\n",
       "  Message('note_on', channel=0, note=67, velocity=94, time=12),\n",
       "  Message('note_on', channel=0, note=67, velocity=0, time=48),\n",
       "  Message('note_on', channel=0, note=69, velocity=94, time=12),\n",
       "  Message('note_on', channel=0, note=69, velocity=0, time=48),\n",
       "  Message('note_on', channel=0, note=71, velocity=94, time=12),\n",
       "  Message('note_on', channel=0, note=71, velocity=0, time=48),\n",
       "  Message('note_on', channel=0, note=64, velocity=94, time=12),\n",
       "  Message('note_on', channel=0, note=64, velocity=0, time=48),\n",
       "  Message('note_on', channel=0, note=74, velocity=94, time=12),\n",
       "  Message('note_on', channel=0, note=74, velocity=0, time=48),\n",
       "  Message('note_on', channel=0, note=72, velocity=94, time=12),\n",
       "  Message('note_on', channel=0, note=72, velocity=0, time=48),\n",
       "  Message('note_on', channel=0, note=71, velocity=94, time=12),\n",
       "  Message('note_on', channel=0, note=71, velocity=0, time=48),\n",
       "  Message('note_on', channel=0, note=69, velocity=94, time=12),\n",
       "  Message('note_on', channel=0, note=69, velocity=0, time=48),\n",
       "  Message('note_on', channel=0, note=67, velocity=94, time=12),\n",
       "  Message('note_on', channel=0, note=67, velocity=0, time=48),\n",
       "  Message('note_on', channel=0, note=62, velocity=94, time=12),\n",
       "  Message('note_on', channel=0, note=62, velocity=0, time=48),\n",
       "  Message('note_on', channel=0, note=67, velocity=94, time=12),\n",
       "  Message('note_on', channel=0, note=67, velocity=0, time=48),\n",
       "  Message('note_on', channel=0, note=66, velocity=94, time=12),\n",
       "  Message('note_on', channel=0, note=66, velocity=0, time=48),\n",
       "  Message('note_on', channel=0, note=62, velocity=94, time=12),\n",
       "  Message('note_on', channel=0, note=67, velocity=94, time=0),\n",
       "  Message('note_on', channel=0, note=59, velocity=94, time=0),\n",
       "  Message('note_on', channel=0, note=55, velocity=94, time=0),\n",
       "  Message('note_on', channel=0, note=62, velocity=0, time=456),\n",
       "  Message('note_on', channel=0, note=67, velocity=0, time=0),\n",
       "  Message('note_on', channel=0, note=59, velocity=0, time=0),\n",
       "  Message('note_on', channel=0, note=55, velocity=0, time=0),\n",
       "  Message('note_on', channel=0, note=67, velocity=104, time=143),\n",
       "  Message('note_on', channel=0, note=67, velocity=0, time=48),\n",
       "  Message('note_on', channel=0, note=69, velocity=104, time=12),\n",
       "  Message('note_on', channel=0, note=69, velocity=0, time=48),\n",
       "  Message('note_on', channel=0, note=71, velocity=104, time=12),\n",
       "  Message('note_on', channel=0, note=71, velocity=0, time=48),\n",
       "  Message('note_on', channel=0, note=74, velocity=104, time=12),\n",
       "  Message('note_on', channel=0, note=74, velocity=0, time=48),\n",
       "  Message('note_on', channel=0, note=72, velocity=104, time=12),\n",
       "  Message('note_on', channel=0, note=72, velocity=0, time=48),\n",
       "  Message('note_on', channel=0, note=72, velocity=104, time=12),\n",
       "  Message('note_on', channel=0, note=72, velocity=0, time=48),\n",
       "  Message('note_on', channel=0, note=76, velocity=104, time=12),\n",
       "  Message('note_on', channel=0, note=76, velocity=0, time=48),\n",
       "  Message('note_on', channel=0, note=74, velocity=104, time=12),\n",
       "  Message('note_on', channel=0, note=74, velocity=0, time=48),\n",
       "  Message('note_on', channel=0, note=74, velocity=104, time=12),\n",
       "  Message('note_on', channel=0, note=74, velocity=0, time=48),\n",
       "  Message('note_on', channel=0, note=79, velocity=104, time=12),\n",
       "  Message('note_on', channel=0, note=79, velocity=0, time=48),\n",
       "  Message('note_on', channel=0, note=78, velocity=104, time=12),\n",
       "  Message('note_on', channel=0, note=78, velocity=0, time=48),\n",
       "  Message('note_on', channel=0, note=79, velocity=104, time=12),\n",
       "  Message('note_on', channel=0, note=79, velocity=0, time=48),\n",
       "  Message('note_on', channel=0, note=74, velocity=104, time=12),\n",
       "  Message('note_on', channel=0, note=74, velocity=0, time=48),\n",
       "  Message('note_on', channel=0, note=71, velocity=104, time=12),\n",
       "  Message('note_on', channel=0, note=71, velocity=0, time=48),\n",
       "  Message('note_on', channel=0, note=67, velocity=104, time=12),\n",
       "  Message('note_on', channel=0, note=67, velocity=0, time=48),\n",
       "  Message('note_on', channel=0, note=69, velocity=104, time=12),\n",
       "  Message('note_on', channel=0, note=69, velocity=0, time=48),\n",
       "  Message('note_on', channel=0, note=71, velocity=104, time=12),\n",
       "  Message('note_on', channel=0, note=71, velocity=0, time=48),\n",
       "  Message('note_on', channel=0, note=72, velocity=104, time=12),\n",
       "  Message('note_on', channel=0, note=72, velocity=0, time=48),\n",
       "  Message('note_on', channel=0, note=74, velocity=104, time=12),\n",
       "  Message('note_on', channel=0, note=74, velocity=0, time=48),\n",
       "  Message('note_on', channel=0, note=76, velocity=104, time=12),\n",
       "  Message('note_on', channel=0, note=76, velocity=0, time=48),\n",
       "  Message('note_on', channel=0, note=74, velocity=104, time=12),\n",
       "  Message('note_on', channel=0, note=74, velocity=0, time=48),\n",
       "  Message('note_on', channel=0, note=72, velocity=104, time=12),\n",
       "  Message('note_on', channel=0, note=72, velocity=0, time=48),\n",
       "  Message('note_on', channel=0, note=71, velocity=104, time=12),\n",
       "  Message('note_on', channel=0, note=71, velocity=0, time=48),\n",
       "  Message('note_on', channel=0, note=69, velocity=104, time=12),\n",
       "  Message('note_on', channel=0, note=69, velocity=0, time=48),\n",
       "  Message('note_on', channel=0, note=71, velocity=104, time=12),\n",
       "  Message('note_on', channel=0, note=71, velocity=0, time=48),\n",
       "  Message('note_on', channel=0, note=67, velocity=104, time=12),\n",
       "  Message('note_on', channel=0, note=67, velocity=0, time=48),\n",
       "  Message('note_on', channel=0, note=66, velocity=104, time=12),\n",
       "  Message('note_on', channel=0, note=66, velocity=0, time=48),\n",
       "  Message('note_on', channel=0, note=67, velocity=104, time=12),\n",
       "  Message('note_on', channel=0, note=67, velocity=0, time=48),\n",
       "  Message('note_on', channel=0, note=69, velocity=104, time=12),\n",
       "  Message('note_on', channel=0, note=69, velocity=0, time=48),\n",
       "  Message('note_on', channel=0, note=62, velocity=104, time=12),\n",
       "  Message('note_on', channel=0, note=62, velocity=0, time=48),\n",
       "  Message('note_on', channel=0, note=66, velocity=104, time=12),\n",
       "  Message('note_on', channel=0, note=66, velocity=0, time=48),\n",
       "  Message('note_on', channel=0, note=69, velocity=104, time=12),\n",
       "  Message('note_on', channel=0, note=69, velocity=0, time=48),\n",
       "  Message('note_on', channel=0, note=72, velocity=104, time=12),\n",
       "  Message('note_on', channel=0, note=72, velocity=0, time=48),\n",
       "  Message('note_on', channel=0, note=71, velocity=104, time=12),\n",
       "  Message('note_on', channel=0, note=71, velocity=0, time=48),\n",
       "  Message('note_on', channel=0, note=69, velocity=104, time=12),\n",
       "  Message('note_on', channel=0, note=69, velocity=0, time=48),\n",
       "  Message('note_on', channel=0, note=71, velocity=104, time=12),\n",
       "  Message('note_on', channel=0, note=71, velocity=0, time=48),\n",
       "  Message('note_on', channel=0, note=67, velocity=104, time=12),\n",
       "  Message('note_on', channel=0, note=67, velocity=0, time=48),\n",
       "  Message('note_on', channel=0, note=69, velocity=104, time=12),\n",
       "  Message('note_on', channel=0, note=69, velocity=0, time=48),\n",
       "  Message('note_on', channel=0, note=71, velocity=104, time=12),\n",
       "  Message('note_on', channel=0, note=71, velocity=0, time=48),\n",
       "  Message('note_on', channel=0, note=74, velocity=104, time=12),\n",
       "  Message('note_on', channel=0, note=74, velocity=0, time=48),\n",
       "  Message('note_on', channel=0, note=72, velocity=104, time=12),\n",
       "  Message('note_on', channel=0, note=72, velocity=0, time=48),\n",
       "  Message('note_on', channel=0, note=72, velocity=104, time=12),\n",
       "  Message('note_on', channel=0, note=72, velocity=0, time=48),\n",
       "  Message('note_on', channel=0, note=76, velocity=104, time=12),\n",
       "  Message('note_on', channel=0, note=76, velocity=0, time=48),\n",
       "  Message('note_on', channel=0, note=74, velocity=104, time=12),\n",
       "  Message('note_on', channel=0, note=74, velocity=0, time=48),\n",
       "  Message('note_on', channel=0, note=74, velocity=104, time=12),\n",
       "  Message('note_on', channel=0, note=74, velocity=0, time=48),\n",
       "  Message('note_on', channel=0, note=79, velocity=104, time=12),\n",
       "  Message('note_on', channel=0, note=79, velocity=0, time=48),\n",
       "  Message('note_on', channel=0, note=78, velocity=104, time=12),\n",
       "  Message('note_on', channel=0, note=78, velocity=0, time=48),\n",
       "  Message('note_on', channel=0, note=79, velocity=104, time=12),\n",
       "  Message('note_on', channel=0, note=79, velocity=0, time=48),\n",
       "  Message('note_on', channel=0, note=74, velocity=104, time=12),\n",
       "  Message('note_on', channel=0, note=74, velocity=0, time=48),\n",
       "  Message('note_on', channel=0, note=71, velocity=104, time=12),\n",
       "  Message('note_on', channel=0, note=71, velocity=0, time=48),\n",
       "  Message('note_on', channel=0, note=67, velocity=104, time=12),\n",
       "  Message('note_on', channel=0, note=67, velocity=0, time=48),\n",
       "  Message('note_on', channel=0, note=69, velocity=104, time=12),\n",
       "  Message('note_on', channel=0, note=69, velocity=0, time=48),\n",
       "  Message('note_on', channel=0, note=71, velocity=104, time=12),\n",
       "  Message('note_on', channel=0, note=71, velocity=0, time=48),\n",
       "  Message('note_on', channel=0, note=64, velocity=104, time=12),\n",
       "  Message('note_on', channel=0, note=64, velocity=0, time=48),\n",
       "  Message('note_on', channel=0, note=74, velocity=104, time=12),\n",
       "  Message('note_on', channel=0, note=74, velocity=0, time=48),\n",
       "  Message('note_on', channel=0, note=72, velocity=104, time=12),\n",
       "  Message('note_on', channel=0, note=72, velocity=0, time=48),\n",
       "  Message('note_on', channel=0, note=71, velocity=104, time=12),\n",
       "  Message('note_on', channel=0, note=71, velocity=0, time=48),\n",
       "  Message('note_on', channel=0, note=69, velocity=104, time=12),\n",
       "  Message('note_on', channel=0, note=69, velocity=0, time=48),\n",
       "  Message('note_on', channel=0, note=67, velocity=104, time=12),\n",
       "  Message('note_on', channel=0, note=67, velocity=0, time=48),\n",
       "  Message('note_on', channel=0, note=62, velocity=104, time=12),\n",
       "  Message('note_on', channel=0, note=62, velocity=0, time=48),\n",
       "  Message('note_on', channel=0, note=67, velocity=104, time=12),\n",
       "  Message('note_on', channel=0, note=67, velocity=0, time=48),\n",
       "  Message('note_on', channel=0, note=66, velocity=104, time=12),\n",
       "  Message('note_on', channel=0, note=66, velocity=0, time=48),\n",
       "  Message('note_on', channel=0, note=67, velocity=104, time=12),\n",
       "  Message('note_on', channel=0, note=67, velocity=0, time=48),\n",
       "  Message('note_on', channel=0, note=71, velocity=104, time=12),\n",
       "  Message('note_on', channel=0, note=71, velocity=0, time=48),\n",
       "  Message('note_on', channel=0, note=74, velocity=104, time=12),\n",
       "  Message('note_on', channel=0, note=74, velocity=0, time=48),\n",
       "  Message('note_on', channel=0, note=79, velocity=104, time=12),\n",
       "  Message('note_on', channel=0, note=79, velocity=0, time=48),\n",
       "  Message('note_on', channel=0, note=74, velocity=104, time=12),\n",
       "  Message('note_on', channel=0, note=74, velocity=0, time=48),\n",
       "  Message('note_on', channel=0, note=71, velocity=104, time=12),\n",
       "  Message('note_on', channel=0, note=71, velocity=0, time=48),\n",
       "  Message('note_on', channel=0, note=67, velocity=104, time=12),\n",
       "  Message('note_on', channel=0, note=67, velocity=0, time=48),\n",
       "  Message('note_on', channel=0, note=71, velocity=104, time=12),\n",
       "  Message('note_on', channel=0, note=71, velocity=0, time=48),\n",
       "  Message('note_on', channel=0, note=74, velocity=104, time=12),\n",
       "  Message('note_on', channel=0, note=74, velocity=0, time=48),\n",
       "  Message('note_on', channel=0, note=62, velocity=104, time=12),\n",
       "  Message('note_on', channel=0, note=71, velocity=104, time=0),\n",
       "  Message('note_on', channel=0, note=67, velocity=104, time=0),\n",
       "  Message('note_on', channel=0, note=62, velocity=0, time=336),\n",
       "  Message('note_on', channel=0, note=71, velocity=0, time=0),\n",
       "  Message('note_on', channel=0, note=67, velocity=0, time=0),\n",
       "  Message('note_on', channel=0, note=64, velocity=104, time=24),\n",
       "  Message('note_on', channel=0, note=67, velocity=104, time=0),\n",
       "  Message('note_on', channel=0, note=60, velocity=104, time=0),\n",
       "  Message('note_on', channel=0, note=72, velocity=104, time=0),\n",
       "  Message('note_on', channel=0, note=64, velocity=0, time=168),\n",
       "  Message('note_on', channel=0, note=67, velocity=0, time=0),\n",
       "  Message('note_on', channel=0, note=60, velocity=0, time=0),\n",
       "  Message('note_on', channel=0, note=72, velocity=0, time=0),\n",
       "  Message('note_on', channel=0, note=74, velocity=104, time=12),\n",
       "  Message('note_on', channel=0, note=74, velocity=0, time=336),\n",
       "  Message('note_on', channel=0, note=66, velocity=104, time=24),\n",
       "  Message('note_on', channel=0, note=71, velocity=104, time=0),\n",
       "  Message('note_on', channel=0, note=74, velocity=104, time=0),\n",
       "  Message('note_on', channel=0, note=62, velocity=104, time=0),\n",
       "  Message('note_on', channel=0, note=66, velocity=0, time=168),\n",
       "  Message('note_on', channel=0, note=71, velocity=0, time=0),\n",
       "  Message('note_on', channel=0, note=74, velocity=0, time=0),\n",
       "  Message('note_on', channel=0, note=62, velocity=0, time=0),\n",
       "  Message('note_on', channel=0, note=72, velocity=104, time=12),\n",
       "  Message('note_on', channel=0, note=72, velocity=0, time=336),\n",
       "  Message('note_on', channel=0, note=67, velocity=104, time=24),\n",
       "  Message('note_on', channel=0, note=62, velocity=104, time=0),\n",
       "  Message('note_on', channel=0, note=71, velocity=104, time=0),\n",
       "  Message('note_on', channel=0, note=67, velocity=0, time=168),\n",
       "  Message('note_on', channel=0, note=62, velocity=0, time=0),\n",
       "  Message('note_on', channel=0, note=71, velocity=0, time=0),\n",
       "  Message('note_on', channel=0, note=66, velocity=104, time=12),\n",
       "  Message('note_on', channel=0, note=69, velocity=104, time=0),\n",
       "  Message('note_on', channel=0, note=66, velocity=0, time=48),\n",
       "  Message('note_on', channel=0, note=69, velocity=0, time=0),\n",
       "  Message('note_on', channel=0, note=62, velocity=104, time=12),\n",
       "  Message('note_on', channel=0, note=62, velocity=0, time=48),\n",
       "  Message('note_on', channel=0, note=64, velocity=104, time=12),\n",
       "  Message('note_on', channel=0, note=64, velocity=0, time=48),\n",
       "  Message('note_on', channel=0, note=66, velocity=104, time=12),\n",
       "  Message('note_on', channel=0, note=69, velocity=104, time=0),\n",
       "  Message('note_on', channel=0, note=66, velocity=0, time=48),\n",
       "  Message('note_on', channel=0, note=69, velocity=0, time=0),\n",
       "  Message('note_on', channel=0, note=69, velocity=104, time=12),\n",
       "  Message('note_on', channel=0, note=69, velocity=0, time=48),\n",
       "  Message('note_on', channel=0, note=67, velocity=104, time=12),\n",
       "  Message('note_on', channel=0, note=67, velocity=0, time=48),\n",
       "  Message('note_on', channel=0, note=69, velocity=104, time=12),\n",
       "  Message('note_on', channel=0, note=69, velocity=0, time=48),\n",
       "  Message('note_on', channel=0, note=72, velocity=104, time=12),\n",
       "  Message('note_on', channel=0, note=72, velocity=0, time=48),\n",
       "  Message('note_on', channel=0, note=71, velocity=104, time=12),\n",
       "  Message('note_on', channel=0, note=71, velocity=0, time=48),\n",
       "  Message('note_on', channel=0, note=72, velocity=104, time=12),\n",
       "  Message('note_on', channel=0, note=72, velocity=0, time=48),\n",
       "  Message('note_on', channel=0, note=69, velocity=104, time=12),\n",
       "  Message('note_on', channel=0, note=69, velocity=0, time=48),\n",
       "  Message('note_on', channel=0, note=66, velocity=104, time=12),\n",
       "  Message('note_on', channel=0, note=66, velocity=0, time=48),\n",
       "  Message('note_on', channel=0, note=62, velocity=104, time=12),\n",
       "  Message('note_on', channel=0, note=62, velocity=0, time=48),\n",
       "  Message('note_on', channel=0, note=66, velocity=104, time=12),\n",
       "  Message('note_on', channel=0, note=66, velocity=0, time=48),\n",
       "  Message('note_on', channel=0, note=69, velocity=104, time=12),\n",
       "  Message('note_on', channel=0, note=69, velocity=0, time=48),\n",
       "  Message('note_on', channel=0, note=72, velocity=104, time=12),\n",
       "  Message('note_on', channel=0, note=72, velocity=0, time=48),\n",
       "  Message('note_on', channel=0, note=71, velocity=104, time=12),\n",
       "  Message('note_on', channel=0, note=71, velocity=0, time=48),\n",
       "  Message('note_on', channel=0, note=69, velocity=104, time=12),\n",
       "  Message('note_on', channel=0, note=69, velocity=0, time=48),\n",
       "  Message('note_on', channel=0, note=67, velocity=104, time=12),\n",
       "  Message('note_on', channel=0, note=71, velocity=104, time=0),\n",
       "  Message('note_on', channel=0, note=67, velocity=0, time=336),\n",
       "  Message('note_on', channel=0, note=71, velocity=0, time=0),\n",
       "  Message('note_on', channel=0, note=64, velocity=104, time=24),\n",
       "  Message('note_on', channel=0, note=72, velocity=104, time=0),\n",
       "  Message('note_on', channel=0, note=67, velocity=104, time=0),\n",
       "  Message('note_on', channel=0, note=60, velocity=104, time=0),\n",
       "  Message('note_on', channel=0, note=64, velocity=0, time=168),\n",
       "  Message('note_on', channel=0, note=72, velocity=0, time=0),\n",
       "  Message('note_on', channel=0, note=67, velocity=0, time=0),\n",
       "  Message('note_on', channel=0, note=60, velocity=0, time=0),\n",
       "  Message('note_on', channel=0, note=67, velocity=104, time=12),\n",
       "  Message('note_on', channel=0, note=62, velocity=104, time=0),\n",
       "  Message('note_on', channel=0, note=74, velocity=104, time=0),\n",
       "  Message('note_on', channel=0, note=67, velocity=0, time=336),\n",
       "  Message('note_on', channel=0, note=62, velocity=0, time=0),\n",
       "  Message('note_on', channel=0, note=74, velocity=0, time=0),\n",
       "  Message('note_on', channel=0, note=67, velocity=104, time=24),\n",
       "  Message('note_on', channel=0, note=64, velocity=104, time=0),\n",
       "  Message('note_on', channel=0, note=71, velocity=104, time=0),\n",
       "  Message('note_on', channel=0, note=67, velocity=0, time=168),\n",
       "  Message('note_on', channel=0, note=64, velocity=0, time=0),\n",
       "  Message('note_on', channel=0, note=71, velocity=0, time=0),\n",
       "  Message('note_on', channel=0, note=69, velocity=63, time=12),\n",
       "  Message('note_on', channel=0, note=69, velocity=0, time=116),\n",
       "  Message('note_on', channel=0, note=71, velocity=74, time=4),\n",
       "  Message('note_on', channel=0, note=72, velocity=68, time=30),\n",
       "  Message('note_on', channel=0, note=71, velocity=0, time=14),\n",
       "  Message('note_on', channel=0, note=71, velocity=65, time=16),\n",
       "  Message('note_on', channel=0, note=66, velocity=67, time=0),\n",
       "  Message('note_on', channel=0, note=62, velocity=55, time=0),\n",
       "  Message('note_on', channel=0, note=72, velocity=0, time=14),\n",
       "  Message('note_on', channel=0, note=66, velocity=55, time=166),\n",
       "  Message('note_on', channel=0, note=60, velocity=46, time=0),\n",
       "  Message('note_on', channel=0, note=69, velocity=45, time=0),\n",
       "  Message('note_on', channel=0, note=71, velocity=0, time=8),\n",
       "  Message('note_on', channel=0, note=66, velocity=0, time=0),\n",
       "  Message('note_on', channel=0, note=62, velocity=0, time=0),\n",
       "  Message('note_on', channel=0, note=67, velocity=104, time=172),\n",
       "  Message('note_on', channel=0, note=66, velocity=0, time=8),\n",
       "  Message('note_on', channel=0, note=60, velocity=0, time=0),\n",
       "  Message('note_on', channel=0, note=69, velocity=0, time=0),\n",
       "  Message('note_on', channel=0, note=67, velocity=0, time=40),\n",
       "  Message('note_on', channel=0, note=71, velocity=104, time=12),\n",
       "  Message('note_on', channel=0, note=71, velocity=0, time=48),\n",
       "  Message('note_on', channel=0, note=69, velocity=104, time=12),\n",
       "  Message('note_on', channel=0, note=69, velocity=0, time=48),\n",
       "  Message('note_on', channel=0, note=71, velocity=104, time=12),\n",
       "  Message('note_on', channel=0, note=71, velocity=0, time=48),\n",
       "  Message('note_on', channel=0, note=74, velocity=104, time=12),\n",
       "  Message('note_on', channel=0, note=74, velocity=0, time=48),\n",
       "  Message('note_on', channel=0, note=72, velocity=104, time=12),\n",
       "  Message('note_on', channel=0, note=72, velocity=0, time=48),\n",
       "  Message('note_on', channel=0, note=72, velocity=104, time=12),\n",
       "  Message('note_on', channel=0, note=72, velocity=0, time=48),\n",
       "  Message('note_on', channel=0, note=76, velocity=104, time=12),\n",
       "  Message('note_on', channel=0, note=76, velocity=0, time=48),\n",
       "  Message('note_on', channel=0, note=74, velocity=104, time=12),\n",
       "  Message('note_on', channel=0, note=74, velocity=0, time=48),\n",
       "  Message('note_on', channel=0, note=74, velocity=104, time=12),\n",
       "  Message('note_on', channel=0, note=74, velocity=0, time=48),\n",
       "  Message('note_on', channel=0, note=79, velocity=104, time=12),\n",
       "  Message('note_on', channel=0, note=79, velocity=0, time=48),\n",
       "  Message('note_on', channel=0, note=78, velocity=104, time=12),\n",
       "  Message('note_on', channel=0, note=78, velocity=0, time=48),\n",
       "  Message('note_on', channel=0, note=79, velocity=104, time=12),\n",
       "  Message('note_on', channel=0, note=79, velocity=0, time=48),\n",
       "  Message('note_on', channel=0, note=74, velocity=104, time=12),\n",
       "  Message('note_on', channel=0, note=74, velocity=0, time=48),\n",
       "  Message('note_on', channel=0, note=71, velocity=104, time=12),\n",
       "  Message('note_on', channel=0, note=71, velocity=0, time=48),\n",
       "  Message('note_on', channel=0, note=67, velocity=104, time=12),\n",
       "  Message('note_on', channel=0, note=67, velocity=0, time=48),\n",
       "  Message('note_on', channel=0, note=69, velocity=104, time=12),\n",
       "  Message('note_on', channel=0, note=69, velocity=0, time=48),\n",
       "  Message('note_on', channel=0, note=71, velocity=104, time=12),\n",
       "  Message('note_on', channel=0, note=71, velocity=0, time=48),\n",
       "  Message('note_on', channel=0, note=72, velocity=104, time=12),\n",
       "  Message('note_on', channel=0, note=72, velocity=0, time=48),\n",
       "  Message('note_on', channel=0, note=74, velocity=104, time=12),\n",
       "  Message('note_on', channel=0, note=74, velocity=0, time=48),\n",
       "  Message('note_on', channel=0, note=76, velocity=104, time=12),\n",
       "  Message('note_on', channel=0, note=76, velocity=0, time=48),\n",
       "  Message('note_on', channel=0, note=74, velocity=104, time=12),\n",
       "  Message('note_on', channel=0, note=74, velocity=0, time=48),\n",
       "  Message('note_on', channel=0, note=72, velocity=104, time=12),\n",
       "  Message('note_on', channel=0, note=72, velocity=0, time=48),\n",
       "  Message('note_on', channel=0, note=71, velocity=104, time=12),\n",
       "  Message('note_on', channel=0, note=71, velocity=0, time=48),\n",
       "  Message('note_on', channel=0, note=69, velocity=104, time=12),\n",
       "  Message('note_on', channel=0, note=69, velocity=0, time=48),\n",
       "  Message('note_on', channel=0, note=71, velocity=104, time=12),\n",
       "  Message('note_on', channel=0, note=71, velocity=0, time=48),\n",
       "  Message('note_on', channel=0, note=67, velocity=104, time=12),\n",
       "  Message('note_on', channel=0, note=67, velocity=0, time=48),\n",
       "  Message('note_on', channel=0, note=66, velocity=104, time=12),\n",
       "  Message('note_on', channel=0, note=66, velocity=0, time=48),\n",
       "  Message('note_on', channel=0, note=67, velocity=104, time=12),\n",
       "  Message('note_on', channel=0, note=67, velocity=0, time=48),\n",
       "  Message('note_on', channel=0, note=69, velocity=104, time=12),\n",
       "  Message('note_on', channel=0, note=69, velocity=0, time=48),\n",
       "  Message('note_on', channel=0, note=62, velocity=104, time=12),\n",
       "  Message('note_on', channel=0, note=62, velocity=0, time=48),\n",
       "  Message('note_on', channel=0, note=66, velocity=104, time=12),\n",
       "  Message('note_on', channel=0, note=66, velocity=0, time=48),\n",
       "  Message('note_on', channel=0, note=69, velocity=104, time=12),\n",
       "  Message('note_on', channel=0, note=69, velocity=0, time=48),\n",
       "  Message('note_on', channel=0, note=72, velocity=104, time=12),\n",
       "  Message('note_on', channel=0, note=72, velocity=0, time=48),\n",
       "  Message('note_on', channel=0, note=71, velocity=104, time=12),\n",
       "  Message('note_on', channel=0, note=71, velocity=0, time=48),\n",
       "  Message('note_on', channel=0, note=69, velocity=104, time=12),\n",
       "  Message('note_on', channel=0, note=69, velocity=0, time=48),\n",
       "  Message('note_on', channel=0, note=71, velocity=104, time=12),\n",
       "  Message('note_on', channel=0, note=71, velocity=0, time=48),\n",
       "  Message('note_on', channel=0, note=67, velocity=104, time=12),\n",
       "  Message('note_on', channel=0, note=67, velocity=0, time=48),\n",
       "  Message('note_on', channel=0, note=69, velocity=104, time=12),\n",
       "  Message('note_on', channel=0, note=69, velocity=0, time=48),\n",
       "  Message('note_on', channel=0, note=71, velocity=104, time=12),\n",
       "  Message('note_on', channel=0, note=71, velocity=0, time=48),\n",
       "  Message('note_on', channel=0, note=74, velocity=104, time=12),\n",
       "  Message('note_on', channel=0, note=74, velocity=0, time=48),\n",
       "  Message('note_on', channel=0, note=72, velocity=104, time=12),\n",
       "  Message('note_on', channel=0, note=72, velocity=0, time=48),\n",
       "  Message('note_on', channel=0, note=72, velocity=104, time=12),\n",
       "  Message('note_on', channel=0, note=72, velocity=0, time=48),\n",
       "  Message('note_on', channel=0, note=76, velocity=104, time=12),\n",
       "  Message('note_on', channel=0, note=76, velocity=0, time=48),\n",
       "  Message('note_on', channel=0, note=74, velocity=104, time=12),\n",
       "  Message('note_on', channel=0, note=74, velocity=0, time=48),\n",
       "  Message('note_on', channel=0, note=74, velocity=104, time=12),\n",
       "  Message('note_on', channel=0, note=74, velocity=0, time=48),\n",
       "  Message('note_on', channel=0, note=79, velocity=104, time=12),\n",
       "  Message('note_on', channel=0, note=79, velocity=0, time=48),\n",
       "  Message('note_on', channel=0, note=78, velocity=104, time=12),\n",
       "  Message('note_on', channel=0, note=78, velocity=0, time=48),\n",
       "  Message('note_on', channel=0, note=79, velocity=104, time=12),\n",
       "  Message('note_on', channel=0, note=79, velocity=0, time=48),\n",
       "  Message('note_on', channel=0, note=74, velocity=104, time=12),\n",
       "  Message('note_on', channel=0, note=74, velocity=0, time=48),\n",
       "  Message('note_on', channel=0, note=71, velocity=104, time=12),\n",
       "  Message('note_on', channel=0, note=71, velocity=0, time=48),\n",
       "  Message('note_on', channel=0, note=67, velocity=104, time=12),\n",
       "  Message('note_on', channel=0, note=67, velocity=0, time=48),\n",
       "  Message('note_on', channel=0, note=69, velocity=104, time=12),\n",
       "  Message('note_on', channel=0, note=69, velocity=0, time=48),\n",
       "  Message('note_on', channel=0, note=71, velocity=104, time=12),\n",
       "  Message('note_on', channel=0, note=71, velocity=0, time=48),\n",
       "  Message('note_on', channel=0, note=64, velocity=104, time=12),\n",
       "  Message('note_on', channel=0, note=64, velocity=0, time=48),\n",
       "  Message('note_on', channel=0, note=74, velocity=104, time=12),\n",
       "  Message('note_on', channel=0, note=74, velocity=0, time=48),\n",
       "  Message('note_on', channel=0, note=72, velocity=104, time=12),\n",
       "  Message('note_on', channel=0, note=72, velocity=0, time=48),\n",
       "  Message('note_on', channel=0, note=71, velocity=104, time=12),\n",
       "  Message('note_on', channel=0, note=71, velocity=0, time=48),\n",
       "  Message('note_on', channel=0, note=69, velocity=104, time=12),\n",
       "  Message('note_on', channel=0, note=69, velocity=0, time=48),\n",
       "  Message('note_on', channel=0, note=67, velocity=104, time=12),\n",
       "  Message('note_on', channel=0, note=67, velocity=0, time=48),\n",
       "  Message('note_on', channel=0, note=62, velocity=104, time=12),\n",
       "  Message('note_on', channel=0, note=62, velocity=0, time=48),\n",
       "  Message('note_on', channel=0, note=67, velocity=104, time=12),\n",
       "  Message('note_on', channel=0, note=67, velocity=0, time=48),\n",
       "  Message('note_on', channel=0, note=66, velocity=104, time=12),\n",
       "  Message('note_on', channel=0, note=66, velocity=0, time=48),\n",
       "  Message('note_on', channel=0, note=67, velocity=104, time=12),\n",
       "  Message('note_on', channel=0, note=71, velocity=104, time=0),\n",
       "  Message('note_on', channel=0, note=67, velocity=0, time=336),\n",
       "  Message('note_on', channel=0, note=71, velocity=0, time=0),\n",
       "  Message('note_on', channel=0, note=64, velocity=104, time=24),\n",
       "  Message('note_on', channel=0, note=60, velocity=104, time=0),\n",
       "  Message('note_on', channel=0, note=67, velocity=104, time=0),\n",
       "  Message('note_on', channel=0, note=72, velocity=104, time=0),\n",
       "  Message('note_on', channel=0, note=64, velocity=0, time=168),\n",
       "  Message('note_on', channel=0, note=60, velocity=0, time=0),\n",
       "  Message('note_on', channel=0, note=67, velocity=0, time=0),\n",
       "  Message('note_on', channel=0, note=72, velocity=0, time=0),\n",
       "  Message('note_on', channel=0, note=74, velocity=104, time=12),\n",
       "  Message('note_on', channel=0, note=74, velocity=0, time=336),\n",
       "  Message('note_on', channel=0, note=66, velocity=104, time=24),\n",
       "  Message('note_on', channel=0, note=71, velocity=104, time=0),\n",
       "  Message('note_on', channel=0, note=74, velocity=104, time=0),\n",
       "  Message('note_on', channel=0, note=62, velocity=104, time=0),\n",
       "  Message('note_on', channel=0, note=66, velocity=0, time=168),\n",
       "  Message('note_on', channel=0, note=71, velocity=0, time=0),\n",
       "  Message('note_on', channel=0, note=74, velocity=0, time=0),\n",
       "  Message('note_on', channel=0, note=62, velocity=0, time=0),\n",
       "  Message('note_on', channel=0, note=72, velocity=104, time=12),\n",
       "  Message('note_on', channel=0, note=72, velocity=0, time=336),\n",
       "  Message('note_on', channel=0, note=67, velocity=104, time=24),\n",
       "  Message('note_on', channel=0, note=62, velocity=104, time=0),\n",
       "  Message('note_on', channel=0, note=71, velocity=104, time=0),\n",
       "  Message('note_on', channel=0, note=67, velocity=0, time=168),\n",
       "  Message('note_on', channel=0, note=62, velocity=0, time=0),\n",
       "  Message('note_on', channel=0, note=71, velocity=0, time=0),\n",
       "  Message('note_on', channel=0, note=66, velocity=104, time=12),\n",
       "  Message('note_on', channel=0, note=69, velocity=104, time=0),\n",
       "  Message('note_on', channel=0, note=66, velocity=0, time=48),\n",
       "  Message('note_on', channel=0, note=69, velocity=0, time=0),\n",
       "  Message('note_on', channel=0, note=62, velocity=104, time=12),\n",
       "  Message('note_on', channel=0, note=62, velocity=0, time=48),\n",
       "  Message('note_on', channel=0, note=64, velocity=104, time=12),\n",
       "  Message('note_on', channel=0, note=64, velocity=0, time=48),\n",
       "  Message('note_on', channel=0, note=66, velocity=104, time=12),\n",
       "  Message('note_on', channel=0, note=69, velocity=104, time=0),\n",
       "  Message('note_on', channel=0, note=66, velocity=0, time=48),\n",
       "  Message('note_on', channel=0, note=69, velocity=0, time=0),\n",
       "  Message('note_on', channel=0, note=69, velocity=104, time=12),\n",
       "  Message('note_on', channel=0, note=69, velocity=0, time=48),\n",
       "  Message('note_on', channel=0, note=67, velocity=104, time=12),\n",
       "  Message('note_on', channel=0, note=67, velocity=0, time=48),\n",
       "  Message('note_on', channel=0, note=69, velocity=104, time=12),\n",
       "  Message('note_on', channel=0, note=69, velocity=0, time=48),\n",
       "  Message('note_on', channel=0, note=72, velocity=104, time=12),\n",
       "  Message('note_on', channel=0, note=72, velocity=0, time=48),\n",
       "  Message('note_on', channel=0, note=71, velocity=104, time=12),\n",
       "  Message('note_on', channel=0, note=71, velocity=0, time=48),\n",
       "  Message('note_on', channel=0, note=72, velocity=104, time=12),\n",
       "  Message('note_on', channel=0, note=72, velocity=0, time=48),\n",
       "  Message('note_on', channel=0, note=69, velocity=104, time=12),\n",
       "  Message('note_on', channel=0, note=69, velocity=0, time=48),\n",
       "  Message('note_on', channel=0, note=66, velocity=104, time=12),\n",
       "  Message('note_on', channel=0, note=66, velocity=0, time=48),\n",
       "  Message('note_on', channel=0, note=62, velocity=104, time=12),\n",
       "  Message('note_on', channel=0, note=62, velocity=0, time=48),\n",
       "  Message('note_on', channel=0, note=66, velocity=104, time=12),\n",
       "  Message('note_on', channel=0, note=66, velocity=0, time=48),\n",
       "  Message('note_on', channel=0, note=69, velocity=104, time=12),\n",
       "  Message('note_on', channel=0, note=69, velocity=0, time=48),\n",
       "  Message('note_on', channel=0, note=72, velocity=104, time=12),\n",
       "  Message('note_on', channel=0, note=72, velocity=0, time=48),\n",
       "  Message('note_on', channel=0, note=71, velocity=104, time=12),\n",
       "  Message('note_on', channel=0, note=71, velocity=0, time=48),\n",
       "  Message('note_on', channel=0, note=69, velocity=104, time=12),\n",
       "  Message('note_on', channel=0, note=69, velocity=0, time=48),\n",
       "  Message('note_on', channel=0, note=71, velocity=104, time=12),\n",
       "  Message('note_on', channel=0, note=67, velocity=104, time=0),\n",
       "  Message('note_on', channel=0, note=71, velocity=0, time=336),\n",
       "  Message('note_on', channel=0, note=67, velocity=0, time=0),\n",
       "  Message('note_on', channel=0, note=64, velocity=104, time=24),\n",
       "  Message('note_on', channel=0, note=60, velocity=104, time=0),\n",
       "  Message('note_on', channel=0, note=67, velocity=104, time=0),\n",
       "  Message('note_on', channel=0, note=72, velocity=104, time=0),\n",
       "  Message('note_on', channel=0, note=64, velocity=0, time=168),\n",
       "  Message('note_on', channel=0, note=60, velocity=0, time=0),\n",
       "  Message('note_on', channel=0, note=67, velocity=0, time=0),\n",
       "  Message('note_on', channel=0, note=72, velocity=0, time=0),\n",
       "  Message('note_on', channel=0, note=67, velocity=104, time=12),\n",
       "  Message('note_on', channel=0, note=74, velocity=104, time=0),\n",
       "  Message('note_on', channel=0, note=62, velocity=104, time=0),\n",
       "  Message('note_on', channel=0, note=67, velocity=0, time=336),\n",
       "  Message('note_on', channel=0, note=74, velocity=0, time=0),\n",
       "  Message('note_on', channel=0, note=62, velocity=0, time=0),\n",
       "  Message('note_on', channel=0, note=67, velocity=104, time=24),\n",
       "  Message('note_on', channel=0, note=64, velocity=104, time=0),\n",
       "  Message('note_on', channel=0, note=71, velocity=104, time=0),\n",
       "  Message('note_on', channel=0, note=67, velocity=0, time=168),\n",
       "  Message('note_on', channel=0, note=64, velocity=0, time=0),\n",
       "  Message('note_on', channel=0, note=71, velocity=0, time=0),\n",
       "  Message('note_on', channel=0, note=69, velocity=104, time=12),\n",
       "  Message('note_on', channel=0, note=69, velocity=0, time=116),\n",
       "  Message('note_on', channel=0, note=71, velocity=104, time=4),\n",
       "  Message('note_on', channel=0, note=72, velocity=104, time=30),\n",
       "  Message('note_on', channel=0, note=71, velocity=0, time=14),\n",
       "  Message('note_on', channel=0, note=66, velocity=104, time=16),\n",
       "  Message('note_on', channel=0, note=71, velocity=104, time=0),\n",
       "  Message('note_on', channel=0, note=62, velocity=104, time=0),\n",
       "  Message('note_on', channel=0, note=72, velocity=0, time=14),\n",
       "  Message('note_on', channel=0, note=66, velocity=0, time=154),\n",
       "  Message('note_on', channel=0, note=71, velocity=0, time=0),\n",
       "  Message('note_on', channel=0, note=62, velocity=0, time=0),\n",
       "  Message('note_on', channel=0, note=66, velocity=104, time=12),\n",
       "  Message('note_on', channel=0, note=60, velocity=104, time=0),\n",
       "  Message('note_on', channel=0, note=69, velocity=104, time=0),\n",
       "  Message('note_on', channel=0, note=66, velocity=0, time=168),\n",
       "  Message('note_on', channel=0, note=60, velocity=0, time=0),\n",
       "  Message('note_on', channel=0, note=69, velocity=0, time=0),\n",
       "  Message('note_on', channel=0, note=67, velocity=104, time=12),\n",
       "  Message('note_on', channel=0, note=67, velocity=0, time=48),\n",
       "  Message('note_on', channel=0, note=71, velocity=104, time=12),\n",
       "  Message('note_on', channel=0, note=71, velocity=0, time=48),\n",
       "  Message('note_on', channel=0, note=69, velocity=104, time=12),\n",
       "  Message('note_on', channel=0, note=69, velocity=0, time=48),\n",
       "  Message('note_on', channel=0, note=71, velocity=104, time=12),\n",
       "  Message('note_on', channel=0, note=71, velocity=0, time=48),\n",
       "  Message('note_on', channel=0, note=74, velocity=104, time=12),\n",
       "  Message('note_on', channel=0, note=74, velocity=0, time=48),\n",
       "  Message('note_on', channel=0, note=72, velocity=104, time=12),\n",
       "  Message('note_on', channel=0, note=72, velocity=0, time=48),\n",
       "  Message('note_on', channel=0, note=72, velocity=104, time=12),\n",
       "  Message('note_on', channel=0, note=72, velocity=0, time=48),\n",
       "  Message('note_on', channel=0, note=76, velocity=104, time=12),\n",
       "  Message('note_on', channel=0, note=76, velocity=0, time=48),\n",
       "  Message('note_on', channel=0, note=74, velocity=104, time=12),\n",
       "  Message('note_on', channel=0, note=74, velocity=0, time=48),\n",
       "  Message('note_on', channel=0, note=74, velocity=104, time=12),\n",
       "  Message('note_on', channel=0, note=74, velocity=0, time=48),\n",
       "  Message('note_on', channel=0, note=79, velocity=104, time=12),\n",
       "  Message('note_on', channel=0, note=79, velocity=0, time=48),\n",
       "  Message('note_on', channel=0, note=78, velocity=104, time=12),\n",
       "  Message('note_on', channel=0, note=78, velocity=0, time=48),\n",
       "  Message('note_on', channel=0, note=79, velocity=104, time=12),\n",
       "  Message('note_on', channel=0, note=79, velocity=0, time=48),\n",
       "  Message('note_on', channel=0, note=74, velocity=104, time=12),\n",
       "  Message('note_on', channel=0, note=74, velocity=0, time=48),\n",
       "  Message('note_on', channel=0, note=71, velocity=104, time=12),\n",
       "  Message('note_on', channel=0, note=71, velocity=0, time=48),\n",
       "  Message('note_on', channel=0, note=67, velocity=104, time=12),\n",
       "  Message('note_on', channel=0, note=67, velocity=0, time=48),\n",
       "  Message('note_on', channel=0, note=69, velocity=104, time=12),\n",
       "  Message('note_on', channel=0, note=69, velocity=0, time=48),\n",
       "  Message('note_on', channel=0, note=71, velocity=104, time=12),\n",
       "  Message('note_on', channel=0, note=71, velocity=0, time=48),\n",
       "  Message('note_on', channel=0, note=72, velocity=104, time=12),\n",
       "  Message('note_on', channel=0, note=72, velocity=0, time=48),\n",
       "  Message('note_on', channel=0, note=74, velocity=104, time=12),\n",
       "  Message('note_on', channel=0, note=74, velocity=0, time=48),\n",
       "  Message('note_on', channel=0, note=76, velocity=104, time=12),\n",
       "  Message('note_on', channel=0, note=76, velocity=0, time=48),\n",
       "  Message('note_on', channel=0, note=74, velocity=104, time=12),\n",
       "  Message('note_on', channel=0, note=74, velocity=0, time=48),\n",
       "  Message('note_on', channel=0, note=72, velocity=104, time=12),\n",
       "  Message('note_on', channel=0, note=72, velocity=0, time=48),\n",
       "  Message('note_on', channel=0, note=71, velocity=104, time=12),\n",
       "  Message('note_on', channel=0, note=71, velocity=0, time=48),\n",
       "  Message('note_on', channel=0, note=69, velocity=104, time=12),\n",
       "  Message('note_on', channel=0, note=69, velocity=0, time=48),\n",
       "  Message('note_on', channel=0, note=71, velocity=104, time=12),\n",
       "  Message('note_on', channel=0, note=71, velocity=0, time=48),\n",
       "  Message('note_on', channel=0, note=67, velocity=104, time=12),\n",
       "  Message('note_on', channel=0, note=67, velocity=0, time=48),\n",
       "  Message('note_on', channel=0, note=66, velocity=104, time=12),\n",
       "  Message('note_on', channel=0, note=66, velocity=0, time=48),\n",
       "  Message('note_on', channel=0, note=67, velocity=104, time=12),\n",
       "  Message('note_on', channel=0, note=67, velocity=0, time=48),\n",
       "  Message('note_on', channel=0, note=69, velocity=104, time=12),\n",
       "  Message('note_on', channel=0, note=69, velocity=0, time=48),\n",
       "  Message('note_on', channel=0, note=62, velocity=104, time=12),\n",
       "  Message('note_on', channel=0, note=62, velocity=0, time=48),\n",
       "  Message('note_on', channel=0, note=66, velocity=104, time=12),\n",
       "  Message('note_on', channel=0, note=66, velocity=0, time=48),\n",
       "  Message('note_on', channel=0, note=69, velocity=104, time=12),\n",
       "  Message('note_on', channel=0, note=69, velocity=0, time=48),\n",
       "  Message('note_on', channel=0, note=72, velocity=104, time=12),\n",
       "  Message('note_on', channel=0, note=72, velocity=0, time=48),\n",
       "  Message('note_on', channel=0, note=71, velocity=104, time=12),\n",
       "  Message('note_on', channel=0, note=71, velocity=0, time=48),\n",
       "  Message('note_on', channel=0, note=69, velocity=104, time=12),\n",
       "  Message('note_on', channel=0, note=69, velocity=0, time=48),\n",
       "  Message('note_on', channel=0, note=71, velocity=104, time=12),\n",
       "  Message('note_on', channel=0, note=71, velocity=0, time=48),\n",
       "  Message('note_on', channel=0, note=67, velocity=104, time=12),\n",
       "  Message('note_on', channel=0, note=67, velocity=0, time=48),\n",
       "  Message('note_on', channel=0, note=69, velocity=104, time=12),\n",
       "  Message('note_on', channel=0, note=69, velocity=0, time=48),\n",
       "  Message('note_on', channel=0, note=71, velocity=104, time=12),\n",
       "  Message('note_on', channel=0, note=71, velocity=0, time=48),\n",
       "  Message('note_on', channel=0, note=74, velocity=104, time=12),\n",
       "  Message('note_on', channel=0, note=74, velocity=0, time=48),\n",
       "  Message('note_on', channel=0, note=72, velocity=104, time=12),\n",
       "  Message('note_on', channel=0, note=72, velocity=0, time=48),\n",
       "  Message('note_on', channel=0, note=72, velocity=104, time=12),\n",
       "  Message('note_on', channel=0, note=72, velocity=0, time=48),\n",
       "  Message('note_on', channel=0, note=76, velocity=104, time=12),\n",
       "  Message('note_on', channel=0, note=76, velocity=0, time=48),\n",
       "  Message('note_on', channel=0, note=74, velocity=104, time=12),\n",
       "  Message('note_on', channel=0, note=74, velocity=0, time=48),\n",
       "  Message('note_on', channel=0, note=74, velocity=104, time=12),\n",
       "  Message('note_on', channel=0, note=74, velocity=0, time=48),\n",
       "  Message('note_on', channel=0, note=79, velocity=104, time=12),\n",
       "  Message('note_on', channel=0, note=79, velocity=0, time=48),\n",
       "  Message('note_on', channel=0, note=78, velocity=104, time=12),\n",
       "  Message('note_on', channel=0, note=78, velocity=0, time=48),\n",
       "  Message('note_on', channel=0, note=79, velocity=104, time=12),\n",
       "  Message('note_on', channel=0, note=79, velocity=0, time=48),\n",
       "  Message('note_on', channel=0, note=74, velocity=104, time=12),\n",
       "  Message('note_on', channel=0, note=74, velocity=0, time=48),\n",
       "  Message('note_on', channel=0, note=71, velocity=104, time=12),\n",
       "  Message('note_on', channel=0, note=71, velocity=0, time=48),\n",
       "  Message('note_on', channel=0, note=67, velocity=104, time=12),\n",
       "  Message('note_on', channel=0, note=67, velocity=0, time=48),\n",
       "  Message('note_on', channel=0, note=69, velocity=104, time=12),\n",
       "  Message('note_on', channel=0, note=69, velocity=0, time=48),\n",
       "  Message('note_on', channel=0, note=71, velocity=104, time=12),\n",
       "  Message('note_on', channel=0, note=71, velocity=0, time=48),\n",
       "  Message('note_on', channel=0, note=64, velocity=104, time=12),\n",
       "  Message('note_on', channel=0, note=64, velocity=0, time=48),\n",
       "  Message('note_on', channel=0, note=74, velocity=104, time=12),\n",
       "  Message('note_on', channel=0, note=74, velocity=0, time=48),\n",
       "  Message('note_on', channel=0, note=72, velocity=104, time=12),\n",
       "  Message('note_on', channel=0, note=72, velocity=0, time=48),\n",
       "  Message('note_on', channel=0, note=71, velocity=104, time=12),\n",
       "  Message('note_on', channel=0, note=71, velocity=0, time=48),\n",
       "  Message('note_on', channel=0, note=69, velocity=104, time=12),\n",
       "  Message('note_on', channel=0, note=69, velocity=0, time=48),\n",
       "  Message('note_on', channel=0, note=67, velocity=104, time=12),\n",
       "  Message('note_on', channel=0, note=67, velocity=0, time=48),\n",
       "  Message('note_on', channel=0, note=62, velocity=104, time=12),\n",
       "  Message('note_on', channel=0, note=62, velocity=0, time=48),\n",
       "  Message('note_on', channel=0, note=67, velocity=104, time=12),\n",
       "  Message('note_on', channel=0, note=67, velocity=0, time=48),\n",
       "  Message('note_on', channel=0, note=66, velocity=104, time=12),\n",
       "  Message('note_on', channel=0, note=66, velocity=0, time=48),\n",
       "  Message('note_on', channel=0, note=67, velocity=104, time=12),\n",
       "  Message('note_on', channel=0, note=67, velocity=0, time=48),\n",
       "  Message('note_on', channel=0, note=71, velocity=104, time=12),\n",
       "  Message('note_on', channel=0, note=71, velocity=0, time=48),\n",
       "  Message('note_on', channel=0, note=74, velocity=104, time=12),\n",
       "  Message('note_on', channel=0, note=74, velocity=0, time=48),\n",
       "  Message('note_on', channel=0, note=79, velocity=104, time=12),\n",
       "  Message('note_on', channel=0, note=79, velocity=0, time=48),\n",
       "  Message('note_on', channel=0, note=74, velocity=104, time=12),\n",
       "  Message('note_on', channel=0, note=74, velocity=0, time=48),\n",
       "  Message('note_on', channel=0, note=71, velocity=104, time=12),\n",
       "  Message('note_on', channel=0, note=71, velocity=0, time=48),\n",
       "  Message('note_on', channel=0, note=67, velocity=104, time=12),\n",
       "  Message('note_on', channel=0, note=67, velocity=0, time=168),\n",
       "  Message('note_on', channel=0, note=66, velocity=94, time=13),\n",
       "  Message('note_on', channel=0, note=69, velocity=94, time=0),\n",
       "  Message('note_on', channel=0, note=66, velocity=0, time=336),\n",
       "  Message('note_on', channel=0, note=69, velocity=0, time=0),\n",
       "  Message('note_on', channel=0, note=68, velocity=94, time=24),\n",
       "  Message('note_on', channel=0, note=71, velocity=94, time=0),\n",
       "  Message('note_on', channel=0, note=62, velocity=94, time=0),\n",
       "  Message('note_on', channel=0, note=68, velocity=0, time=168),\n",
       "  Message('note_on', channel=0, note=71, velocity=0, time=0),\n",
       "  Message('note_on', channel=0, note=62, velocity=0, time=0),\n",
       "  Message('note_on', channel=0, note=72, velocity=94, time=12),\n",
       "  Message('note_on', channel=0, note=64, velocity=94, time=0),\n",
       "  Message('note_on', channel=0, note=69, velocity=94, time=0),\n",
       "  Message('note_on', channel=0, note=72, velocity=0, time=336),\n",
       "  Message('note_on', channel=0, note=64, velocity=0, time=0),\n",
       "  Message('note_on', channel=0, note=69, velocity=0, time=0),\n",
       "  Message('note_on', channel=0, note=69, velocity=94, time=24),\n",
       "  Message('note_on', channel=0, note=64, velocity=94, time=0),\n",
       "  Message('note_on', channel=0, note=72, velocity=94, time=0),\n",
       "  Message('note_on', channel=0, note=69, velocity=0, time=168),\n",
       "  Message('note_on', channel=0, note=64, velocity=0, time=0),\n",
       "  Message('note_on', channel=0, note=72, velocity=0, time=0),\n",
       "  Message('note_on', channel=0, note=71, velocity=94, time=12),\n",
       "  Message('note_on', channel=0, note=71, velocity=0, time=276),\n",
       "  Message('note_on', channel=0, note=72, velocity=94, time=24),\n",
       "  Message('note_on', channel=0, note=72, velocity=0, time=24),\n",
       "  Message('note_on', channel=0, note=74, velocity=94, time=6),\n",
       "  Message('note_on', channel=0, note=74, velocity=0, time=24),\n",
       "  Message('note_on', channel=0, note=71, velocity=94, time=6),\n",
       "  Message('note_on', channel=0, note=68, velocity=94, time=0),\n",
       "  Message('note_on', channel=0, note=71, velocity=0, time=168),\n",
       "  Message('note_on', channel=0, note=68, velocity=0, time=0),\n",
       "  Message('note_on', channel=0, note=69, velocity=94, time=12),\n",
       "  Message('note_on', channel=0, note=69, velocity=0, time=168),\n",
       "  Message('note_on', channel=0, note=69, velocity=94, time=12),\n",
       "  Message('note_on', channel=0, note=69, velocity=0, time=48),\n",
       "  Message('note_on', channel=0, note=76, velocity=94, time=12),\n",
       "  Message('note_on', channel=0, note=76, velocity=0, time=48),\n",
       "  Message('note_on', channel=0, note=74, velocity=94, time=12),\n",
       "  Message('note_on', channel=0, note=74, velocity=0, time=48),\n",
       "  Message('note_on', channel=0, note=74, velocity=94, time=12),\n",
       "  Message('note_on', channel=0, note=74, velocity=0, time=48),\n",
       "  Message('note_on', channel=0, note=77, velocity=94, time=12),\n",
       "  Message('note_on', channel=0, note=77, velocity=0, time=48),\n",
       "  Message('note_on', channel=0, note=76, velocity=94, time=12),\n",
       "  Message('note_on', channel=0, note=76, velocity=0, time=48),\n",
       "  Message('note_on', channel=0, note=76, velocity=94, time=12),\n",
       "  Message('note_on', channel=0, note=76, velocity=0, time=48),\n",
       "  Message('note_on', channel=0, note=81, velocity=94, time=12),\n",
       "  Message('note_on', channel=0, note=81, velocity=0, time=48),\n",
       "  Message('note_on', channel=0, note=80, velocity=94, time=12),\n",
       "  Message('note_on', channel=0, note=80, velocity=0, time=48),\n",
       "  Message('note_on', channel=0, note=81, velocity=94, time=12),\n",
       "  Message('note_on', channel=0, note=81, velocity=0, time=48),\n",
       "  Message('note_on', channel=0, note=76, velocity=94, time=12),\n",
       "  Message('note_on', channel=0, note=76, velocity=0, time=48),\n",
       "  Message('note_on', channel=0, note=72, velocity=94, time=12),\n",
       "  Message('note_on', channel=0, note=72, velocity=0, time=48),\n",
       "  Message('note_on', channel=0, note=69, velocity=94, time=12),\n",
       "  Message('note_on', channel=0, note=69, velocity=0, time=48),\n",
       "  Message('note_on', channel=0, note=71, velocity=94, time=12),\n",
       "  Message('note_on', channel=0, note=71, velocity=0, time=48),\n",
       "  Message('note_on', channel=0, note=72, velocity=94, time=12),\n",
       "  Message('note_on', channel=0, note=72, velocity=0, time=48),\n",
       "  Message('note_on', channel=0, note=77, velocity=94, time=12),\n",
       "  Message('note_on', channel=0, note=77, velocity=0, time=48),\n",
       "  Message('note_on', channel=0, note=76, velocity=94, time=12),\n",
       "  Message('note_on', channel=0, note=76, velocity=0, time=48),\n",
       "  Message('note_on', channel=0, note=74, velocity=94, time=12),\n",
       "  Message('note_on', channel=0, note=74, velocity=0, time=48),\n",
       "  Message('note_on', channel=0, note=72, velocity=94, time=12),\n",
       "  Message('note_on', channel=0, note=72, velocity=0, time=48),\n",
       "  Message('note_on', channel=0, note=71, velocity=94, time=12),\n",
       "  Message('note_on', channel=0, note=71, velocity=0, time=48),\n",
       "  Message('note_on', channel=0, note=69, velocity=94, time=12),\n",
       "  Message('note_on', channel=0, note=69, velocity=0, time=48),\n",
       "  Message('note_on', channel=0, note=64, velocity=94, time=12),\n",
       "  Message('note_on', channel=0, note=64, velocity=0, time=48),\n",
       "  Message('note_on', channel=0, note=69, velocity=94, time=12),\n",
       "  Message('note_on', channel=0, note=69, velocity=0, time=48),\n",
       "  Message('note_on', channel=0, note=68, velocity=94, time=12),\n",
       "  Message('note_on', channel=0, note=62, velocity=94, time=0),\n",
       "  Message('note_on', channel=0, note=68, velocity=0, time=48),\n",
       "  Message('note_on', channel=0, note=62, velocity=0, time=0),\n",
       "  Message('note_on', channel=0, note=64, velocity=94, time=12),\n",
       "  Message('note_on', channel=0, note=69, velocity=94, time=0),\n",
       "  Message('note_on', channel=0, note=72, velocity=94, time=0),\n",
       "  Message('note_on', channel=0, note=64, velocity=0, time=336),\n",
       "  Message('note_on', channel=0, note=69, velocity=0, time=0),\n",
       "  Message('note_on', channel=0, note=72, velocity=0, time=0),\n",
       "  Message('note_on', channel=0, note=74, velocity=94, time=24),\n",
       "  Message('note_on', channel=0, note=62, velocity=94, time=0),\n",
       "  Message('note_on', channel=0, note=67, velocity=94, time=0),\n",
       "  Message('note_on', channel=0, note=74, velocity=0, time=168),\n",
       "  Message('note_on', channel=0, note=62, velocity=0, time=0),\n",
       "  Message('note_on', channel=0, note=67, velocity=0, time=0),\n",
       "  Message('note_on', channel=0, note=72, velocity=94, time=12),\n",
       "  Message('note_on', channel=0, note=76, velocity=94, time=0),\n",
       "  Message('note_on', channel=0, note=72, velocity=0, time=336),\n",
       "  Message('note_on', channel=0, note=76, velocity=0, time=0),\n",
       "  Message('note_on', channel=0, note=72, velocity=94, time=24),\n",
       "  Message('note_on', channel=0, note=76, velocity=94, time=0),\n",
       "  Message('note_on', channel=0, note=67, velocity=94, time=0),\n",
       "  Message('note_on', channel=0, note=72, velocity=0, time=168),\n",
       "  Message('note_on', channel=0, note=76, velocity=0, time=0),\n",
       "  Message('note_on', channel=0, note=67, velocity=0, time=0),\n",
       "  Message('note_on', channel=0, note=74, velocity=94, time=12),\n",
       "  Message('note_on', channel=0, note=74, velocity=0, time=276),\n",
       "  Message('note_on', channel=0, note=76, velocity=94, time=24),\n",
       "  Message('note_on', channel=0, note=76, velocity=0, time=24),\n",
       "  Message('note_on', channel=0, note=77, velocity=94, time=6),\n",
       "  Message('note_on', channel=0, note=77, velocity=0, time=24),\n",
       "  Message('note_on', channel=0, note=74, velocity=94, time=6),\n",
       "  Message('note_on', channel=0, note=74, velocity=0, time=168),\n",
       "  Message('note_on', channel=0, note=64, velocity=94, time=12),\n",
       "  Message('note_on', channel=0, note=72, velocity=94, time=0),\n",
       "  Message('note_on', channel=0, note=64, velocity=0, time=168),\n",
       "  Message('note_on', channel=0, note=72, velocity=0, time=0),\n",
       "  Message('note_on', channel=0, note=72, velocity=94, time=12),\n",
       "  Message('note_on', channel=0, note=72, velocity=0, time=48),\n",
       "  Message('note_on', channel=0, note=76, velocity=94, time=12),\n",
       "  Message('note_on', channel=0, note=76, velocity=0, time=48),\n",
       "  Message('note_on', channel=0, note=72, velocity=94, time=12),\n",
       "  Message('note_on', channel=0, note=72, velocity=0, time=48),\n",
       "  Message('note_on', channel=0, note=67, velocity=94, time=12),\n",
       "  Message('note_on', channel=0, note=67, velocity=0, time=48),\n",
       "  Message('note_on', channel=0, note=69, velocity=94, time=12),\n",
       "  Message('note_on', channel=0, note=69, velocity=0, time=48),\n",
       "  Message('note_on', channel=0, note=70, velocity=94, time=12),\n",
       "  Message('note_on', channel=0, note=70, velocity=0, time=48),\n",
       "  Message('note_on', channel=0, note=69, velocity=94, time=12),\n",
       "  Message('note_on', channel=0, note=69, velocity=0, time=48),\n",
       "  Message('note_on', channel=0, note=72, velocity=94, time=12),\n",
       "  Message('note_on', channel=0, note=72, velocity=0, time=48),\n",
       "  Message('note_on', channel=0, note=71, velocity=94, time=12),\n",
       "  Message('note_on', channel=0, note=71, velocity=0, time=48),\n",
       "  Message('note_on', channel=0, note=72, velocity=94, time=12),\n",
       "  Message('note_on', channel=0, note=72, velocity=0, time=48),\n",
       "  Message('note_on', channel=0, note=69, velocity=94, time=12),\n",
       "  Message('note_on', channel=0, note=69, velocity=0, time=48),\n",
       "  Message('note_on', channel=0, note=66, velocity=94, time=12),\n",
       "  Message('note_on', channel=0, note=66, velocity=0, time=48),\n",
       "  Message('note_on', channel=0, note=62, velocity=94, time=12),\n",
       "  Message('note_on', channel=0, note=62, velocity=0, time=48),\n",
       "  Message('note_on', channel=0, note=64, velocity=94, time=12),\n",
       "  Message('note_on', channel=0, note=64, velocity=0, time=48),\n",
       "  Message('note_on', channel=0, note=66, velocity=94, time=12),\n",
       "  Message('note_on', channel=0, note=66, velocity=0, time=48),\n",
       "  Message('note_on', channel=0, note=64, velocity=94, time=12),\n",
       "  Message('note_on', channel=0, note=64, velocity=0, time=48),\n",
       "  Message('note_on', channel=0, note=60, velocity=94, time=12),\n",
       "  Message('note_on', channel=0, note=60, velocity=0, time=48),\n",
       "  Message('note_on', channel=0, note=62, velocity=94, time=12),\n",
       "  Message('note_on', channel=0, note=62, velocity=0, time=48),\n",
       "  Message('note_on', channel=0, note=64, velocity=94, time=12),\n",
       "  Message('note_on', channel=0, note=64, velocity=0, time=48),\n",
       "  Message('note_on', channel=0, note=67, velocity=94, time=12),\n",
       "  Message('note_on', channel=0, note=67, velocity=0, time=48),\n",
       "  Message('note_on', channel=0, note=66, velocity=94, time=12),\n",
       "  Message('note_on', channel=0, note=66, velocity=0, time=48),\n",
       "  Message('note_on', channel=0, note=67, velocity=94, time=12),\n",
       "  Message('note_on', channel=0, note=67, velocity=0, time=48),\n",
       "  Message('note_on', channel=0, note=71, velocity=94, time=12),\n",
       "  Message('note_on', channel=0, note=71, velocity=0, time=48),\n",
       "  Message('note_on', channel=0, note=69, velocity=94, time=12),\n",
       "  Message('note_on', channel=0, note=69, velocity=0, time=48),\n",
       "  Message('note_on', channel=0, note=67, velocity=94, time=12),\n",
       "  Message('note_on', channel=0, note=71, velocity=94, time=0),\n",
       "  Message('note_on', channel=0, note=67, velocity=0, time=336),\n",
       "  Message('note_on', channel=0, note=71, velocity=0, time=0),\n",
       "  Message('note_on', channel=0, note=64, velocity=94, time=24),\n",
       "  Message('note_on', channel=0, note=60, velocity=94, time=0),\n",
       "  Message('note_on', channel=0, note=67, velocity=94, time=0),\n",
       "  Message('note_on', channel=0, note=72, velocity=94, time=0),\n",
       "  Message('note_on', channel=0, note=64, velocity=0, time=168),\n",
       "  Message('note_on', channel=0, note=60, velocity=0, time=0),\n",
       "  Message('note_on', channel=0, note=67, velocity=0, time=0),\n",
       "  Message('note_on', channel=0, note=72, velocity=0, time=0),\n",
       "  Message('note_on', channel=0, note=74, velocity=94, time=12),\n",
       "  Message('note_on', channel=0, note=67, velocity=94, time=0),\n",
       "  Message('note_on', channel=0, note=62, velocity=94, time=0),\n",
       "  Message('note_on', channel=0, note=74, velocity=0, time=336),\n",
       "  Message('note_on', channel=0, note=67, velocity=0, time=0),\n",
       "  Message('note_on', channel=0, note=62, velocity=0, time=0),\n",
       "  Message('note_on', channel=0, note=74, velocity=94, time=24),\n",
       "  Message('note_on', channel=0, note=67, velocity=94, time=0),\n",
       "  Message('note_on', channel=0, note=62, velocity=94, time=0),\n",
       "  Message('note_on', channel=0, note=74, velocity=0, time=168),\n",
       "  Message('note_on', channel=0, note=67, velocity=0, time=0),\n",
       "  Message('note_on', channel=0, note=62, velocity=0, time=0),\n",
       "  Message('note_on', channel=0, note=69, velocity=94, time=12),\n",
       "  Message('note_on', channel=0, note=64, velocity=94, time=0),\n",
       "  Message('note_on', channel=0, note=72, velocity=94, time=0),\n",
       "  Message('note_on', channel=0, note=69, velocity=0, time=168),\n",
       "  Message('note_on', channel=0, note=64, velocity=0, time=0),\n",
       "  Message('note_on', channel=0, note=72, velocity=0, time=0),\n",
       "  Message('note_on', channel=0, note=71, velocity=94, time=12),\n",
       "  Message('note_on', channel=0, note=71, velocity=0, time=336),\n",
       "  Message('note_on', channel=0, note=66, velocity=94, time=24),\n",
       "  Message('note_on', channel=0, note=69, velocity=94, time=0),\n",
       "  Message('note_on', channel=0, note=66, velocity=0, time=48),\n",
       "  Message('note_on', channel=0, note=69, velocity=0, time=0),\n",
       "  Message('note_on', channel=0, note=62, velocity=94, time=12),\n",
       "  Message('note_on', channel=0, note=62, velocity=0, time=48),\n",
       "  Message('note_on', channel=0, note=64, velocity=94, time=12),\n",
       "  Message('note_on', channel=0, note=64, velocity=0, time=48),\n",
       "  Message('note_on', channel=0, note=66, velocity=94, time=12),\n",
       "  Message('note_on', channel=0, note=66, velocity=0, time=48),\n",
       "  Message('note_on', channel=0, note=69, velocity=94, time=12),\n",
       "  Message('note_on', channel=0, note=69, velocity=0, time=48),\n",
       "  Message('note_on', channel=0, note=67, velocity=94, time=12),\n",
       "  Message('note_on', channel=0, note=67, velocity=0, time=48),\n",
       "  Message('note_on', channel=0, note=69, velocity=94, time=12),\n",
       "  Message('note_on', channel=0, note=69, velocity=0, time=48),\n",
       "  Message('note_on', channel=0, note=72, velocity=94, time=12),\n",
       "  Message('note_on', channel=0, note=72, velocity=0, time=48),\n",
       "  Message('note_on', channel=0, note=71, velocity=94, time=12),\n",
       "  Message('note_on', channel=0, note=71, velocity=0, time=48),\n",
       "  Message('note_on', channel=0, note=72, velocity=94, time=12),\n",
       "  Message('note_on', channel=0, note=72, velocity=0, time=48),\n",
       "  Message('note_on', channel=0, note=69, velocity=94, time=12),\n",
       "  Message('note_on', channel=0, note=69, velocity=0, time=48),\n",
       "  Message('note_on', channel=0, note=66, velocity=94, time=12),\n",
       "  Message('note_on', channel=0, note=66, velocity=0, time=48),\n",
       "  Message('note_on', channel=0, note=62, velocity=94, time=12),\n",
       "  Message('note_on', channel=0, note=62, velocity=0, time=48),\n",
       "  Message('note_on', channel=0, note=66, velocity=94, time=12),\n",
       "  Message('note_on', channel=0, note=66, velocity=0, time=48),\n",
       "  Message('note_on', channel=0, note=69, velocity=94, time=12),\n",
       "  Message('note_on', channel=0, note=69, velocity=0, time=48),\n",
       "  Message('note_on', channel=0, note=72, velocity=94, time=12),\n",
       "  Message('note_on', channel=0, note=72, velocity=0, time=48),\n",
       "  Message('note_on', channel=0, note=71, velocity=94, time=12),\n",
       "  Message('note_on', channel=0, note=71, velocity=0, time=48),\n",
       "  Message('note_on', channel=0, note=69, velocity=94, time=12),\n",
       "  Message('note_on', channel=0, note=69, velocity=0, time=48),\n",
       "  Message('note_on', channel=0, note=67, velocity=94, time=12),\n",
       "  Message('note_on', channel=0, note=71, velocity=94, time=0),\n",
       "  Message('note_on', channel=0, note=67, velocity=0, time=336),\n",
       "  Message('note_on', channel=0, note=71, velocity=0, time=0),\n",
       "  Message('note_on', channel=0, note=72, velocity=94, time=24),\n",
       "  Message('note_on', channel=0, note=67, velocity=94, time=0),\n",
       "  Message('note_on', channel=0, note=64, velocity=94, time=0),\n",
       "  Message('note_on', channel=0, note=60, velocity=94, time=0),\n",
       "  Message('note_on', channel=0, note=72, velocity=0, time=168),\n",
       "  Message('note_on', channel=0, note=67, velocity=0, time=0),\n",
       "  Message('note_on', channel=0, note=64, velocity=0, time=0),\n",
       "  Message('note_on', channel=0, note=60, velocity=0, time=0),\n",
       "  Message('note_on', channel=0, note=74, velocity=94, time=12),\n",
       "  Message('note_on', channel=0, note=62, velocity=94, time=0),\n",
       "  Message('note_on', channel=0, note=67, velocity=94, time=0),\n",
       "  Message('note_on', channel=0, note=74, velocity=0, time=336),\n",
       "  Message('note_on', channel=0, note=62, velocity=0, time=0),\n",
       "  Message('note_on', channel=0, note=67, velocity=0, time=0),\n",
       "  Message('note_on', channel=0, note=67, velocity=94, time=24),\n",
       "  Message('note_on', channel=0, note=64, velocity=94, time=0),\n",
       "  Message('note_on', channel=0, note=71, velocity=94, time=0),\n",
       "  Message('note_on', channel=0, note=67, velocity=0, time=168),\n",
       "  Message('note_on', channel=0, note=64, velocity=0, time=0),\n",
       "  Message('note_on', channel=0, note=71, velocity=0, time=0),\n",
       "  Message('note_on', channel=0, note=69, velocity=94, time=12),\n",
       "  Message('note_on', channel=0, note=69, velocity=0, time=96),\n",
       "  Message('note_on', channel=0, note=71, velocity=94, time=24),\n",
       "  Message('note_on', channel=0, note=71, velocity=0, time=24),\n",
       "  Message('note_on', channel=0, note=72, velocity=94, time=6),\n",
       "  Message('note_on', channel=0, note=72, velocity=0, time=24),\n",
       "  Message('note_on', channel=0, note=71, velocity=94, time=6),\n",
       "  Message('note_on', channel=0, note=71, velocity=0, time=168),\n",
       "  Message('note_on', channel=0, note=69, velocity=94, time=12),\n",
       "  Message('note_on', channel=0, note=69, velocity=0, time=168),\n",
       "  Message('note_on', channel=0, note=67, velocity=94, time=12),\n",
       "  Message('note_on', channel=0, note=67, velocity=0, time=48),\n",
       "  Message('note_on', channel=0, note=71, velocity=94, time=12),\n",
       "  Message('note_on', channel=0, note=71, velocity=0, time=48),\n",
       "  Message('note_on', channel=0, note=74, velocity=94, time=12),\n",
       "  Message('note_on', channel=0, note=74, velocity=0, time=48),\n",
       "  Message('note_on', channel=0, note=79, velocity=94, time=12),\n",
       "  Message('note_on', channel=0, note=79, velocity=0, time=48),\n",
       "  Message('note_on', channel=0, note=74, velocity=94, time=12),\n",
       "  Message('note_on', channel=0, note=74, velocity=0, time=48),\n",
       "  Message('note_on', channel=0, note=71, velocity=94, time=12),\n",
       "  Message('note_on', channel=0, note=71, velocity=0, time=48),\n",
       "  Message('note_on', channel=0, note=67, velocity=94, time=12),\n",
       "  Message('note_on', channel=0, note=67, velocity=0, time=48),\n",
       "  Message('note_on', channel=0, note=71, velocity=94, time=12),\n",
       "  Message('note_on', channel=0, note=71, velocity=0, time=48),\n",
       "  Message('note_on', channel=0, note=74, velocity=94, time=12),\n",
       "  Message('note_on', channel=0, note=74, velocity=0, time=48),\n",
       "  Message('note_on', channel=0, note=77, velocity=94, time=12),\n",
       "  Message('note_on', channel=0, note=77, velocity=0, time=48),\n",
       "  Message('note_on', channel=0, note=74, velocity=94, time=12),\n",
       "  Message('note_on', channel=0, note=74, velocity=0, time=48),\n",
       "  Message('note_on', channel=0, note=71, velocity=94, time=12),\n",
       "  Message('note_on', channel=0, note=71, velocity=0, time=48),\n",
       "  Message('note_on', channel=0, note=67, velocity=94, time=12),\n",
       "  Message('note_on', channel=0, note=67, velocity=0, time=48),\n",
       "  Message('note_on', channel=0, note=71, velocity=94, time=12),\n",
       "  Message('note_on', channel=0, note=71, velocity=0, time=48),\n",
       "  Message('note_on', channel=0, note=74, velocity=94, time=12),\n",
       "  Message('note_on', channel=0, note=74, velocity=0, time=48),\n",
       "  Message('note_on', channel=0, note=76, velocity=94, time=12),\n",
       "  Message('note_on', channel=0, note=76, velocity=0, time=48),\n",
       "  Message('note_on', channel=0, note=72, velocity=94, time=12),\n",
       "  Message('note_on', channel=0, note=72, velocity=0, time=48),\n",
       "  Message('note_on', channel=0, note=69, velocity=94, time=12),\n",
       "  Message('note_on', channel=0, note=69, velocity=0, time=48),\n",
       "  Message('note_on', channel=0, note=66, velocity=94, time=12),\n",
       "  Message('note_on', channel=0, note=66, velocity=0, time=48),\n",
       "  Message('note_on', channel=0, note=69, velocity=94, time=12),\n",
       "  Message('note_on', channel=0, note=69, velocity=0, time=48),\n",
       "  Message('note_on', channel=0, note=72, velocity=94, time=12),\n",
       "  Message('note_on', channel=0, note=72, velocity=0, time=48),\n",
       "  Message('note_on', channel=0, note=74, velocity=94, time=12),\n",
       "  Message('note_on', channel=0, note=74, velocity=0, time=48),\n",
       "  Message('note_on', channel=0, note=71, velocity=94, time=12),\n",
       "  Message('note_on', channel=0, note=71, velocity=0, time=48),\n",
       "  Message('note_on', channel=0, note=67, velocity=94, time=12),\n",
       "  Message('note_on', channel=0, note=67, velocity=0, time=48),\n",
       "  Message('note_on', channel=0, note=64, velocity=94, time=12),\n",
       "  Message('note_on', channel=0, note=64, velocity=0, time=48),\n",
       "  Message('note_on', channel=0, note=67, velocity=94, time=12),\n",
       "  Message('note_on', channel=0, note=67, velocity=0, time=48),\n",
       "  Message('note_on', channel=0, note=71, velocity=94, time=12),\n",
       "  Message('note_on', channel=0, note=71, velocity=0, time=48),\n",
       "  Message('note_on', channel=0, note=72, velocity=94, time=12),\n",
       "  Message('note_on', channel=0, note=72, velocity=0, time=48),\n",
       "  Message('note_on', channel=0, note=69, velocity=94, time=12),\n",
       "  Message('note_on', channel=0, note=69, velocity=0, time=48),\n",
       "  Message('note_on', channel=0, note=66, velocity=94, time=12),\n",
       "  Message('note_on', channel=0, note=66, velocity=0, time=48),\n",
       "  Message('note_on', channel=0, note=62, velocity=94, time=12),\n",
       "  Message('note_on', channel=0, note=62, velocity=0, time=48),\n",
       "  Message('note_on', channel=0, note=66, velocity=94, time=12),\n",
       "  Message('note_on', channel=0, note=66, velocity=0, time=48),\n",
       "  Message('note_on', channel=0, note=69, velocity=94, time=12),\n",
       "  Message('note_on', channel=0, note=69, velocity=0, time=48),\n",
       "  Message('note_on', channel=0, note=72, velocity=94, time=12),\n",
       "  Message('note_on', channel=0, note=72, velocity=0, time=48),\n",
       "  Message('note_on', channel=0, note=71, velocity=94, time=12),\n",
       "  Message('note_on', channel=0, note=71, velocity=0, time=48),\n",
       "  Message('note_on', channel=0, note=69, velocity=94, time=12),\n",
       "  Message('note_on', channel=0, note=69, velocity=0, time=48),\n",
       "  Message('note_on', channel=0, note=71, velocity=94, time=12),\n",
       "  Message('note_on', channel=0, note=71, velocity=0, time=48),\n",
       "  Message('note_on', channel=0, note=67, velocity=94, time=12),\n",
       "  Message('note_on', channel=0, note=67, velocity=0, time=48),\n",
       "  Message('note_on', channel=0, note=69, velocity=94, time=12),\n",
       "  Message('note_on', channel=0, note=69, velocity=0, time=48),\n",
       "  Message('note_on', channel=0, note=71, velocity=94, time=12),\n",
       "  Message('note_on', channel=0, note=71, velocity=0, time=48),\n",
       "  Message('note_on', channel=0, note=74, velocity=94, time=12),\n",
       "  Message('note_on', channel=0, note=74, velocity=0, time=48),\n",
       "  Message('note_on', channel=0, note=72, velocity=94, time=12),\n",
       "  Message('note_on', channel=0, note=72, velocity=0, time=48),\n",
       "  Message('note_on', channel=0, note=72, velocity=94, time=12),\n",
       "  Message('note_on', channel=0, note=72, velocity=0, time=48),\n",
       "  Message('note_on', channel=0, note=76, velocity=94, time=12),\n",
       "  Message('note_on', channel=0, note=76, velocity=0, time=48),\n",
       "  Message('note_on', channel=0, note=74, velocity=94, time=12),\n",
       "  Message('note_on', channel=0, note=74, velocity=0, time=48),\n",
       "  Message('note_on', channel=0, note=74, velocity=94, time=12),\n",
       "  Message('note_on', channel=0, note=74, velocity=0, time=48),\n",
       "  Message('note_on', channel=0, note=79, velocity=94, time=12),\n",
       "  Message('note_on', channel=0, note=79, velocity=0, time=48),\n",
       "  Message('note_on', channel=0, note=78, velocity=94, time=12),\n",
       "  Message('note_on', channel=0, note=78, velocity=0, time=48),\n",
       "  Message('note_on', channel=0, note=79, velocity=94, time=12),\n",
       "  Message('note_on', channel=0, note=79, velocity=0, time=48),\n",
       "  Message('note_on', channel=0, note=74, velocity=94, time=12),\n",
       "  Message('note_on', channel=0, note=74, velocity=0, time=48),\n",
       "  Message('note_on', channel=0, note=71, velocity=94, time=12),\n",
       "  Message('note_on', channel=0, note=71, velocity=0, time=48),\n",
       "  Message('note_on', channel=0, note=67, velocity=94, time=12),\n",
       "  Message('note_on', channel=0, note=67, velocity=0, time=48),\n",
       "  Message('note_on', channel=0, note=69, velocity=94, time=12),\n",
       "  Message('note_on', channel=0, note=69, velocity=0, time=48),\n",
       "  Message('note_on', channel=0, note=71, velocity=94, time=12),\n",
       "  Message('note_on', channel=0, note=71, velocity=0, time=48),\n",
       "  Message('note_on', channel=0, note=72, velocity=94, time=12),\n",
       "  Message('note_on', channel=0, note=72, velocity=0, time=48),\n",
       "  Message('note_on', channel=0, note=74, velocity=94, time=12),\n",
       "  Message('note_on', channel=0, note=74, velocity=0, time=48),\n",
       "  Message('note_on', channel=0, note=76, velocity=94, time=12),\n",
       "  Message('note_on', channel=0, note=76, velocity=0, time=48),\n",
       "  Message('note_on', channel=0, note=74, velocity=94, time=12),\n",
       "  Message('note_on', channel=0, note=74, velocity=0, time=48),\n",
       "  Message('note_on', channel=0, note=72, velocity=94, time=12),\n",
       "  Message('note_on', channel=0, note=72, velocity=0, time=48),\n",
       "  Message('note_on', channel=0, note=71, velocity=94, time=12),\n",
       "  Message('note_on', channel=0, note=71, velocity=0, time=48),\n",
       "  Message('note_on', channel=0, note=69, velocity=94, time=12),\n",
       "  Message('note_on', channel=0, note=69, velocity=0, time=48),\n",
       "  Message('note_on', channel=0, note=71, velocity=94, time=12),\n",
       "  Message('note_on', channel=0, note=71, velocity=0, time=48),\n",
       "  Message('note_on', channel=0, note=67, velocity=94, time=12),\n",
       "  Message('note_on', channel=0, note=67, velocity=0, time=48),\n",
       "  Message('note_on', channel=0, note=66, velocity=94, time=12),\n",
       "  Message('note_on', channel=0, note=66, velocity=0, time=48),\n",
       "  Message('note_on', channel=0, note=67, velocity=94, time=12),\n",
       "  Message('note_on', channel=0, note=67, velocity=0, time=48),\n",
       "  Message('note_on', channel=0, note=69, velocity=94, time=12),\n",
       "  Message('note_on', channel=0, note=69, velocity=0, time=48),\n",
       "  Message('note_on', channel=0, note=62, velocity=94, time=12),\n",
       "  Message('note_on', channel=0, note=62, velocity=0, time=48),\n",
       "  Message('note_on', channel=0, note=66, velocity=94, time=12),\n",
       "  Message('note_on', channel=0, note=66, velocity=0, time=48),\n",
       "  Message('note_on', channel=0, note=69, velocity=94, time=12),\n",
       "  Message('note_on', channel=0, note=69, velocity=0, time=48),\n",
       "  Message('note_on', channel=0, note=72, velocity=94, time=12),\n",
       "  Message('note_on', channel=0, note=72, velocity=0, time=48),\n",
       "  Message('note_on', channel=0, note=71, velocity=94, time=12),\n",
       "  Message('note_on', channel=0, note=71, velocity=0, time=48),\n",
       "  Message('note_on', channel=0, note=69, velocity=94, time=12),\n",
       "  Message('note_on', channel=0, note=69, velocity=0, time=48),\n",
       "  Message('note_on', channel=0, note=71, velocity=94, time=12),\n",
       "  Message('note_on', channel=0, note=71, velocity=0, time=48),\n",
       "  Message('note_on', channel=0, note=67, velocity=94, time=12),\n",
       "  Message('note_on', channel=0, note=67, velocity=0, time=48),\n",
       "  Message('note_on', channel=0, note=69, velocity=94, time=12),\n",
       "  Message('note_on', channel=0, note=69, velocity=0, time=48),\n",
       "  Message('note_on', channel=0, note=71, velocity=94, time=12),\n",
       "  Message('note_on', channel=0, note=71, velocity=0, time=48),\n",
       "  Message('note_on', channel=0, note=74, velocity=94, time=12),\n",
       "  Message('note_on', channel=0, note=74, velocity=0, time=48),\n",
       "  Message('note_on', channel=0, note=72, velocity=94, time=12),\n",
       "  Message('note_on', channel=0, note=72, velocity=0, time=48),\n",
       "  Message('note_on', channel=0, note=72, velocity=94, time=12),\n",
       "  Message('note_on', channel=0, note=72, velocity=0, time=48),\n",
       "  Message('note_on', channel=0, note=76, velocity=94, time=12),\n",
       "  Message('note_on', channel=0, note=76, velocity=0, time=48),\n",
       "  Message('note_on', channel=0, note=74, velocity=94, time=12),\n",
       "  Message('note_on', channel=0, note=74, velocity=0, time=48),\n",
       "  Message('note_on', channel=0, note=74, velocity=94, time=12),\n",
       "  Message('note_on', channel=0, note=74, velocity=0, time=48),\n",
       "  Message('note_on', channel=0, note=79, velocity=94, time=12),\n",
       "  Message('note_on', channel=0, note=79, velocity=0, time=48),\n",
       "  Message('note_on', channel=0, note=78, velocity=94, time=12),\n",
       "  Message('note_on', channel=0, note=78, velocity=0, time=48),\n",
       "  Message('note_on', channel=0, note=79, velocity=94, time=12),\n",
       "  Message('note_on', channel=0, note=79, velocity=0, time=48),\n",
       "  Message('note_on', channel=0, note=74, velocity=94, time=12),\n",
       "  Message('note_on', channel=0, note=74, velocity=0, time=48),\n",
       "  Message('note_on', channel=0, note=71, velocity=94, time=12),\n",
       "  Message('note_on', channel=0, note=71, velocity=0, time=48),\n",
       "  Message('note_on', channel=0, note=67, velocity=94, time=12),\n",
       "  Message('note_on', channel=0, note=67, velocity=0, time=48),\n",
       "  Message('note_on', channel=0, note=69, velocity=94, time=12),\n",
       "  Message('note_on', channel=0, note=69, velocity=0, time=48),\n",
       "  Message('note_on', channel=0, note=71, velocity=94, time=12),\n",
       "  Message('note_on', channel=0, note=71, velocity=0, time=48),\n",
       "  Message('note_on', channel=0, note=64, velocity=94, time=12),\n",
       "  Message('note_on', channel=0, note=64, velocity=0, time=48),\n",
       "  Message('note_on', channel=0, note=74, velocity=94, time=12),\n",
       "  Message('note_on', channel=0, note=74, velocity=0, time=48),\n",
       "  Message('note_on', channel=0, note=72, velocity=94, time=12),\n",
       "  Message('note_on', channel=0, note=72, velocity=0, time=48),\n",
       "  Message('note_on', channel=0, note=71, velocity=94, time=12),\n",
       "  Message('note_on', channel=0, note=71, velocity=0, time=48),\n",
       "  Message('note_on', channel=0, note=69, velocity=94, time=12),\n",
       "  Message('note_on', channel=0, note=69, velocity=0, time=48),\n",
       "  Message('note_on', channel=0, note=67, velocity=94, time=12),\n",
       "  Message('note_on', channel=0, note=67, velocity=0, time=48),\n",
       "  Message('note_on', channel=0, note=62, velocity=94, time=12),\n",
       "  Message('note_on', channel=0, note=62, velocity=0, time=48),\n",
       "  Message('note_on', channel=0, note=67, velocity=94, time=12),\n",
       "  Message('note_on', channel=0, note=67, velocity=0, time=48),\n",
       "  Message('note_on', channel=0, note=66, velocity=94, time=12),\n",
       "  Message('note_on', channel=0, note=66, velocity=0, time=48),\n",
       "  Message('note_on', channel=0, note=62, velocity=94, time=12),\n",
       "  Message('note_on', channel=0, note=67, velocity=94, time=0),\n",
       "  Message('note_on', channel=0, note=59, velocity=94, time=0),\n",
       "  Message('note_on', channel=0, note=55, velocity=94, time=0),\n",
       "  Message('note_on', channel=0, note=62, velocity=0, time=456),\n",
       "  Message('note_on', channel=0, note=67, velocity=0, time=0),\n",
       "  Message('note_on', channel=0, note=59, velocity=0, time=0),\n",
       "  Message('note_on', channel=0, note=55, velocity=0, time=0),\n",
       "  MetaMessage('end_of_track', time=0)])"
      ]
     },
     "execution_count": 17,
     "metadata": {},
     "output_type": "execute_result"
    }
   ],
   "source": [
    "mid2.tracks[1]"
   ]
  },
  {
   "cell_type": "code",
   "execution_count": null,
   "id": "83e464eb",
   "metadata": {
    "scrolled": false
   },
   "outputs": [],
   "source": [
    "// pending"
   ]
  }
 ],
 "metadata": {
  "kernelspec": {
   "display_name": "Python 3 (ipykernel)",
   "language": "python",
   "name": "python3"
  },
  "language_info": {
   "codemirror_mode": {
    "name": "ipython",
    "version": 3
   },
   "file_extension": ".py",
   "mimetype": "text/x-python",
   "name": "python",
   "nbconvert_exporter": "python",
   "pygments_lexer": "ipython3",
   "version": "3.7.9"
  }
 },
 "nbformat": 4,
 "nbformat_minor": 5
}
